<?xml version="1.0" encoding="UTF-8" standalone="no"?>
<svg xmlns:xlink="http://www.w3.org/1999/xlink" height="104.2px" width="104.2px" xmlns="http://www.w3.org/2000/svg">
  <g transform="matrix(1.0, 0.0, 0.0, 1.0, 50.35, 55.3)">
    <path d="M-33.4 32.35 L-33.35 32.3 Q-19.0 45.7 0.9 45.7 21.75 45.7 36.5 30.95 51.25 16.2 51.25 -4.65 51.25 -19.5 43.8 -31.2 L42.05 -33.75 43.8 -31.55 44.0 -31.3 Q53.35 -18.6 53.35 -1.95 53.35 18.9 38.6 33.65 23.85 48.4 3.0 48.4 -16.9 48.4 -31.25 35.0 L-32.6 33.65 -33.0 33.25 -32.8 33.05 -33.4 32.35 M-15.6 -20.5 L-15.6 -20.4 -15.65 -20.45 -15.6 -20.5" fill="#996600" fill-rule="evenodd" stroke="none"/>
    <path d="M-35.0 31.05 L-35.1 31.15 -35.0 31.05" fill="#993300" fill-rule="evenodd" stroke="none"/>
    <path d="M35.45 -40.45 Q22.4 -50.25 5.4 -50.25 -15.45 -50.25 -30.2 -35.5 -44.95 -20.75 -44.95 0.1 -44.95 17.15 -35.1 30.2 L-34.95 30.4 -34.3 31.25 -33.9 31.75 -33.4 32.35 -32.8 33.05 -33.0 33.25 -33.75 32.5 -33.8 32.4 -33.85 32.35 -35.0 31.05 -37.1 28.55 Q-47.35 15.4 -47.35 -1.95 -47.35 -22.8 -32.6 -37.55 -17.85 -52.3 3.0 -52.3 21.65 -52.3 35.45 -40.45 M-33.35 32.3 L-33.25 32.15 Q-19.6 43.6 -1.2 43.6 19.65 43.6 34.4 28.85 49.15 14.1 49.15 -6.75 49.15 -21.6 41.7 -33.3 L39.8 -36.1 39.95 -36.2 42.05 -33.75 43.8 -31.2 Q51.25 -19.5 51.25 -4.65 51.25 16.2 36.5 30.95 21.75 45.7 0.9 45.7 -19.0 45.7 -33.35 32.3 M21.75 -20.5 L19.95 -20.5 -15.6 -20.5 -15.65 -20.45 -15.6 -20.4 -15.6 15.05 -15.6 17.15 -18.25 19.3 -18.5 19.5 -18.15 -22.95 24.1 -22.95 23.9 -22.75 21.75 -20.5" fill="#d27e02" fill-rule="evenodd" stroke="none"/>
    <path d="M36.1 -40.05 L36.05 -40.0 36.0 -39.95 35.45 -40.45 Q21.65 -52.3 3.0 -52.3 -17.85 -52.3 -32.6 -37.55 -47.35 -22.8 -47.35 -1.95 -47.35 15.4 -37.1 28.55 L-35.0 31.05 -35.1 31.15 Q-49.85 16.4 -49.85 -4.45 -49.85 -25.3 -35.1 -40.05 -20.35 -54.8 0.5 -54.8 21.35 -54.8 36.1 -40.05 M21.75 -20.5 L22.05 -20.5 22.05 17.15 -15.6 17.15 -15.6 15.05 19.95 15.05 19.95 -20.5 21.75 -20.5" fill="#653d01" fill-rule="evenodd" stroke="none"/>
    <path d="M-15.6 17.15 L22.05 17.15 22.05 -20.5 21.75 -20.5 23.9 -22.75 23.9 19.3 -18.25 19.3 -15.6 17.15" fill="#875101" fill-rule="evenodd" stroke="none"/>
    <path d="M36.0 -39.95 L37.3 -38.8 37.35 -38.75 Q37.35 -38.75 37.45 -38.7 L38.2 -37.95 38.6 -37.55 39.05 -37.1 39.95 -36.2 39.8 -36.1 41.7 -33.3 Q49.15 -21.6 49.15 -6.75 49.15 14.1 34.4 28.85 19.65 43.6 -1.2 43.6 -19.6 43.6 -33.25 32.15 L-33.35 32.3 -33.4 32.35 -33.9 31.75 -34.3 31.25 -34.95 30.4 -35.1 30.2 Q-44.95 17.15 -44.95 0.1 -44.95 -20.75 -30.2 -35.5 -15.45 -50.25 5.4 -50.25 22.4 -50.25 35.45 -40.45 L36.0 -39.95 M-18.25 19.3 L23.9 19.3 23.9 -22.75 24.1 -22.95 -18.15 -22.95 -18.5 19.5 -18.25 19.3" fill="#fec167" fill-rule="evenodd" stroke="none"/>
    <path d="M36.0 -39.95 L37.3 -38.8 36.55 -39.6 36.1 -40.05 M36.0 -39.95 L35.45 -40.45 Q21.65 -52.3 3.0 -52.3 -17.85 -52.3 -32.6 -37.55 -47.35 -22.8 -47.35 -1.95 -47.35 15.4 -37.1 28.55 L-35.0 31.05 -33.85 32.35 -33.8 32.4 -33.75 32.5 -33.0 33.25 -32.6 33.65 -31.25 35.0 Q-16.9 48.4 3.0 48.4 23.85 48.4 38.6 33.65 53.35 18.9 53.35 -1.95 53.35 -18.6 44.0 -31.3 L43.8 -31.55 42.05 -33.75 39.95 -36.2 39.05 -37.1 38.6 -37.55 38.2 -37.95 37.45 -38.7 M-15.6 17.15 L22.05 17.15 22.05 -20.5 21.75 -20.5 19.95 -20.5 19.95 15.05 -15.6 15.05 -15.6 17.15 M-35.1 31.15 Q-49.85 16.4 -49.85 -4.45 -49.85 -25.3 -35.1 -40.05 -20.35 -54.8 0.5 -54.8 21.35 -54.8 36.1 -40.05 M-15.6 -20.4 L-15.6 -20.5 M-15.6 -20.4 L-15.6 15.05 M-35.1 31.15 L-33.85 32.35 M19.95 -20.5 L-15.6 -20.5" fill="none" stroke="#000000" stroke-linecap="round" stroke-linejoin="round" stroke-width="1.0"/>
  </g>
</svg>
