<?xml version="1.0" encoding="UTF-8" standalone="no"?>
<svg xmlns:xlink="http://www.w3.org/1999/xlink" height="137.45px" width="123.7px" xmlns="http://www.w3.org/2000/svg">
  <g transform="matrix(1.0, 0.0, 0.0, 1.0, 0.45, 0.45)">
    <path d="M110.95 63.75 L112.9 62.35 113.1 62.2 113.1 62.35 113.6 62.35 114.4 62.5 115.75 62.85 Q118.25 63.65 119.55 65.65 L120.0 66.45 Q121.25 69.1 119.5 73.65 L117.75 77.5 116.25 79.7 Q114.8 81.15 112.3 87.35 110.4 91.9 109.05 93.95 L108.1 95.1 107.7 95.45 106.9 96.0 106.95 96.05 106.75 96.05 104.25 95.9 105.1 93.45 107.05 89.1 Q109.55 82.9 111.0 81.45 L112.5 79.25 114.25 75.4 Q116.0 70.85 114.75 68.2 L114.3 67.4 Q113.1 65.5 110.8 64.7 L110.9 64.15 110.95 63.75 M70.8 135.05 L68.7 135.85 68.65 135.8 75.2 130.5 Q84.0 122.35 89.7 112.95 93.4 106.85 95.75 100.25 L96.5 98.1 97.6 94.4 97.9 93.1 102.45 68.1 102.75 64.05 102.8 63.05 102.8 60.7 Q102.8 37.25 87.85 20.75 82.35 14.7 76.0 10.85 L75.25 10.4 Q70.95 8.05 67.2 6.8 64.8 5.95 62.35 5.45 46.55 8.25 34.7 21.5 19.75 38.2 19.75 61.65 19.75 63.7 20.55 69.0 L20.7 70.05 20.7 70.2 21.0 72.05 Q22.45 79.5 28.2 92.95 L31.4 99.75 Q35.55 108.1 39.25 113.35 L40.8 115.5 Q46.55 122.8 56.25 130.55 L63.95 136.0 63.75 136.3 60.8 135.25 60.5 135.1 60.0 134.9 60.0 134.85 Q55.25 132.15 50.25 128.15 40.55 120.4 34.8 113.1 L33.25 110.95 Q29.55 105.7 25.4 97.35 L25.05 96.65 22.2 90.55 Q16.45 77.1 15.0 69.65 L14.7 67.8 14.7 67.65 14.55 66.6 14.4 65.7 Q13.75 61.15 13.75 59.25 13.75 35.8 28.7 19.1 38.45 8.25 50.8 4.4 55.4 2.95 60.35 2.5 L60.7 2.5 64.85 2.3 Q74.55 2.2 82.95 5.65 L83.3 5.8 83.75 6.05 83.7 6.3 Q77.85 4.7 71.4 4.7 75.15 5.95 79.45 8.3 L80.2 8.75 Q86.55 12.6 92.05 18.65 107.0 35.15 107.0 58.6 L107.0 60.95 106.95 61.95 106.8 64.15 106.65 66.0 102.1 91.0 101.8 92.3 99.95 98.15 99.9 98.35 Q97.55 104.8 93.9 110.85 88.2 120.25 79.4 128.4 75.0 132.45 70.8 135.05 M20.8 95.1 L19.35 95.05 16.85 94.05 Q12.85 92.05 10.3 88.25 5.8 82.05 4.4 79.6 2.2 75.8 2.6 70.6 2.75 68.25 3.6 66.85 4.65 64.95 6.85 64.5 L7.05 64.45 7.75 64.35 9.65 64.15 9.95 64.35 10.1 65.4 10.1 65.55 10.3 66.75 Q9.4 67.35 8.85 68.35 8.0 69.75 7.85 72.1 7.45 77.3 9.65 81.1 11.05 83.55 15.55 89.75 17.6 92.8 20.6 94.7 L20.8 95.1 M67.3 77.2 L67.6 71.2 Q69.8 55.65 85.15 55.9 69.9 57.5 67.3 77.2 M62.85 100.45 Q65.65 100.45 66.35 96.85 65.85 87.9 66.7 84.75 L68.0 93.65 Q69.25 99.1 70.25 98.6 70.25 99.0 68.85 100.2 L62.85 100.45" fill="#ffe2d5" fill-rule="evenodd" stroke="none"/>
    <path d="M83.75 6.05 L84.5 6.5 Q90.85 10.35 96.35 16.4 111.3 32.9 111.3 56.35 L111.3 58.7 111.25 59.7 111.05 62.7 110.95 63.75 110.9 64.15 110.8 64.7 109.5 71.9 106.4 88.75 106.1 90.05 105.1 93.45 104.25 95.9 104.0 96.6 Q101.7 102.8 98.2 108.6 92.5 118.0 83.7 126.15 77.0 132.3 70.8 135.05 75.0 132.45 79.4 128.4 88.2 120.25 93.9 110.85 97.55 104.8 99.9 98.35 L99.95 98.15 101.8 92.3 102.1 91.0 106.65 66.0 106.8 64.15 106.95 61.95 107.0 60.95 107.0 58.6 Q107.0 35.15 92.05 18.65 86.55 12.6 80.2 8.75 L79.45 8.3 Q75.15 5.95 71.4 4.7 77.85 4.7 83.7 6.3 L83.75 6.05 M113.1 62.2 Q114.25 61.65 115.85 61.8 L116.65 61.95 118.0 62.3 Q120.5 63.1 121.8 65.1 L122.25 65.9 Q123.5 68.55 121.75 73.1 L120.2 76.6 120.0 76.95 118.5 79.15 Q117.05 80.6 114.55 86.8 112.65 91.35 111.3 93.4 L110.35 94.55 109.95 94.9 Q108.45 96.05 106.95 96.05 L106.9 96.0 107.7 95.45 108.1 95.1 109.05 93.95 Q110.4 91.9 112.3 87.35 114.8 81.15 116.25 79.7 L117.75 77.5 119.5 73.65 Q121.25 69.1 120.0 66.45 L119.55 65.65 Q118.25 63.65 115.75 62.85 L114.4 62.5 113.6 62.35 113.1 62.35 113.1 62.2 M60.0 134.9 Q53.15 131.85 45.65 125.9 35.95 118.15 30.2 110.85 L28.65 108.7 Q25.0 103.55 20.95 95.4 L20.8 95.1 20.6 94.7 17.6 88.3 Q11.85 74.85 10.4 67.4 L10.3 66.75 10.1 65.55 10.1 65.4 9.95 64.35 9.9 64.15 Q9.15 59.05 9.15 57.0 9.15 33.55 24.1 16.85 29.15 11.2 34.95 7.45 L36.6 6.4 38.7 5.25 Q48.5 0.1 60.25 0.05 72.65 -0.05 82.95 5.65 74.55 2.2 64.85 2.3 L60.7 2.5 60.35 2.5 Q55.4 2.95 50.8 4.4 38.45 8.25 28.7 19.1 13.75 35.8 13.75 59.25 13.75 61.15 14.4 65.7 L14.55 66.6 14.7 67.65 14.7 67.8 15.0 69.65 Q16.45 77.1 22.2 90.55 L25.05 96.65 25.4 97.35 Q29.55 105.7 33.25 110.95 L34.8 113.1 Q40.55 120.4 50.25 128.15 55.25 132.15 60.0 134.85 L60.0 134.9 M19.35 95.05 Q16.8 94.75 14.35 93.55 10.35 91.55 7.8 87.75 3.3 81.55 1.9 79.1 -0.3 75.3 0.1 70.1 0.25 67.75 1.1 66.35 2.15 64.45 4.35 64.0 L4.55 63.95 5.25 63.85 Q8.15 63.35 9.65 64.15 L7.75 64.35 7.05 64.45 6.85 64.5 Q4.65 64.95 3.6 66.85 2.75 68.25 2.6 70.6 2.2 75.8 4.4 79.6 5.8 82.05 10.3 88.25 12.85 92.05 16.85 94.05 L19.35 95.05" fill="#ffffff" fill-rule="evenodd" stroke="none"/>
    <path d="M68.7 135.85 L68.45 135.95 67.65 136.2 66.3 136.45 64.7 136.45 63.75 136.3 63.95 136.0 56.25 130.55 Q46.55 122.8 40.8 115.5 L39.25 113.35 Q35.55 108.1 31.4 99.75 L28.2 92.95 Q22.45 79.5 21.0 72.05 L20.7 70.2 20.7 70.05 20.55 69.0 Q19.75 63.7 19.75 61.65 19.75 38.2 34.7 21.5 46.55 8.25 62.35 5.45 64.8 5.95 67.2 6.8 70.95 8.05 75.25 10.4 L76.0 10.85 Q82.35 14.7 87.85 20.75 102.8 37.25 102.8 60.7 L102.8 63.05 102.75 64.05 102.45 68.1 97.9 93.1 97.6 94.4 96.5 98.1 95.75 100.25 Q93.4 106.85 89.7 112.95 84.0 122.35 75.2 130.5 L68.65 135.8 68.7 135.85 M109.5 71.9 L110.8 64.7 Q113.1 65.5 114.3 67.4 L114.75 68.2 Q116.0 70.85 114.25 75.4 L112.5 79.25 111.0 81.45 Q109.55 82.9 107.05 89.1 L105.1 93.45 106.1 90.05 106.4 88.75 109.5 71.9 M20.6 94.7 Q17.6 92.8 15.55 89.75 11.05 83.55 9.65 81.1 7.45 77.3 7.85 72.1 8.0 69.75 8.85 68.35 9.4 67.35 10.3 66.75 L10.4 67.4 Q11.85 74.85 17.6 88.3 L20.6 94.7 M67.3 77.2 Q69.9 57.5 85.15 55.9 69.8 55.65 67.6 71.2 L67.3 77.2 M68.85 100.2 Q70.25 99.0 70.25 98.6 69.25 99.1 68.0 93.65 L66.7 84.75 Q65.85 87.9 66.35 96.85 65.65 100.45 62.85 100.45 L60.75 100.15 59.5 99.8 59.85 100.1 Q63.3 102.9 68.25 100.65 L69.3 100.1 68.85 100.2" fill="#ffd5c4" fill-rule="evenodd" stroke="none"/>
    <path d="M68.85 100.2 L69.3 100.1 68.25 100.65 Q63.3 102.9 59.85 100.1 L59.5 99.8 60.75 100.15 62.85 100.45 68.85 100.2" fill="#000000" fill-rule="evenodd" stroke="none"/>
    <path d="M60.0 134.85 L60.0 134.9 60.0 134.85" fill="#663300" fill-rule="evenodd" stroke="none"/>
    <path d="M83.75 6.05 L84.5 6.5 Q90.85 10.35 96.35 16.4 111.3 32.9 111.3 56.35 L111.3 58.7 M111.25 59.7 L111.05 62.7 110.95 63.75 112.9 62.35 113.1 62.2 Q114.25 61.65 115.85 61.8 L116.65 61.95 118.0 62.3 Q120.5 63.1 121.8 65.1 L122.25 65.9 Q123.5 68.55 121.75 73.1 L120.2 76.6 M120.0 76.95 L118.5 79.15 Q117.05 80.6 114.55 86.8 112.65 91.35 111.3 93.4 L110.35 94.55 109.95 94.9 Q108.45 96.05 106.95 96.05 L106.75 96.05 104.25 95.9 M20.8 95.1 L19.35 95.05 Q16.8 94.75 14.35 93.55 10.35 91.55 7.8 87.75 3.3 81.55 1.9 79.1 -0.3 75.3 0.1 70.1 0.25 67.75 1.1 66.35 2.15 64.45 4.35 64.0 L4.55 63.95 5.25 63.85 Q8.15 63.35 9.65 64.15 L9.95 64.35 9.9 64.15 Q9.15 59.05 9.15 57.0 9.15 33.55 24.1 16.85 29.15 11.2 34.95 7.45 L36.6 6.4 38.7 5.25 Q48.5 0.1 60.25 0.05 72.65 -0.05 82.95 5.65 L83.3 5.8 83.75 6.05 M109.5 71.9 L110.8 64.7 110.9 64.15 110.95 63.75 M10.3 66.75 L10.1 65.55 10.1 65.4 9.95 64.35 M10.3 66.75 L10.4 67.4" fill="none" stroke="#000000" stroke-linecap="round" stroke-linejoin="round" stroke-width="1.0"/>
    <path d="M111.3 58.7 L111.25 59.7 M104.25 95.9 L104.0 96.6 Q101.7 102.8 98.2 108.6 92.5 118.0 83.7 126.15 77.0 132.3 70.8 135.05 L68.7 135.85 68.45 135.95 67.65 136.2 66.3 136.45 64.7 136.45 63.75 136.3 60.8 135.25 60.5 135.1 60.0 134.9 Q53.15 131.85 45.65 125.9 35.95 118.15 30.2 110.85 L28.65 108.7 Q25.0 103.55 20.95 95.4 L20.8 95.1 M105.1 93.45 L104.25 95.9 M105.1 93.45 L106.1 90.05 106.4 88.75 109.5 71.9 M10.4 67.4 Q11.85 74.85 17.6 88.3 L20.6 94.7 20.8 95.1" fill="none" stroke="#000000" stroke-linecap="round" stroke-linejoin="round" stroke-width="1.0"/>
  </g>
</svg>
