<?xml version="1.0" encoding="UTF-8" standalone="no"?>
<svg xmlns:xlink="http://www.w3.org/1999/xlink" height="19.45px" width="24.6px" xmlns="http://www.w3.org/2000/svg">
  <g transform="matrix(1.0, 0.0, 0.0, 1.0, 34.35, 43.9)">
    <path d="M-15.95 -30.05 L-14.0 -30.05 -11.45 -31.55 -12.9 -28.45 -9.75 -28.15 Q-11.05 -25.9 -12.35 -25.2 -13.8 -24.45 -18.55 -24.45 -24.4 -24.45 -27.4 -27.1 -30.45 -29.65 -32.75 -36.35 -31.9 -36.8 -32.45 -37.6 -34.1 -39.95 -34.35 -40.85 L-31.55 -41.6 -30.7 -43.9 -29.1 -43.45 -29.85 -40.6 -27.9 -40.5 -27.85 -38.9 -26.75 -38.9 -22.9 -42.0 -22.65 -41.7 -22.65 -40.2 -20.7 -40.2 -17.05 -41.05 Q-20.95 -39.65 -20.9 -35.9 -17.45 -36.0 -15.1 -38.7 L-15.3 -36.55 -17.05 -35.1 -17.5 -32.4 -12.95 -33.05 -15.75 -31.0 -15.95 -30.05" fill="#cc0000" fill-rule="evenodd" stroke="none"/>
  </g>
</svg>
