<?xml version="1.0" encoding="UTF-8" standalone="no"?>
<svg xmlns:xlink="http://www.w3.org/1999/xlink" height="106.5px" width="128.6px" xmlns="http://www.w3.org/2000/svg">
  <g transform="matrix(1.0, 0.0, 0.0, 1.0, 0.5, 0.5)">
    <path d="M88.3 10.8 L87.9 9.1 88.3 10.8 88.85 14.3 89.8 25.2 Q90.0 28.65 90.95 32.5 92.25 37.9 95.05 44.0 96.2 46.45 97.6 48.45 L98.9 50.1 98.05 50.05 96.45 49.75 95.5 49.5 93.85 46.4 Q91.05 40.3 89.75 34.9 88.8 31.05 88.6 27.6 88.1 18.5 87.1 13.35 L87.1 13.2 86.7 11.5 86.55 10.9 86.15 9.55 Q83.75 2.4 77.6 2.4 75.15 2.4 73.7 3.05 L72.8 3.7 72.75 3.7 72.8 3.7 Q75.1 4.85 76.5 6.8 L76.15 6.9 76.6 7.75 Q78.7 11.8 79.2 16.25 L80.05 27.9 80.1 28.25 Q80.7 35.75 82.45 40.6 79.85 36.7 79.6 34.15 77.65 25.3 77.4 22.3 76.6 14.3 76.0 12.05 75.25 9.2 74.15 7.5 72.35 4.7 69.6 4.7 L68.05 4.85 Q69.85 3.45 71.95 4.0 L72.45 4.2 72.55 4.25 72.7 3.85 72.75 3.7 Q73.55 1.25 74.9 0.65 76.35 0.0 78.8 0.0 84.95 0.0 87.35 7.15 L87.75 8.5 87.9 9.1 91.85 9.1 Q98.75 11.7 98.65 19.05 98.55 26.35 99.3 32.85 99.45 37.55 101.3 44.3 103.1 51.05 106.35 53.95 103.15 51.9 100.25 48.7 L100.2 48.65 99.4 46.0 Q97.55 39.25 97.4 34.55 96.65 28.05 96.75 20.75 96.85 13.4 89.95 10.8 L88.3 10.8 M70.5 26.05 L70.4 28.45 Q70.1 35.85 71.45 41.15 69.2 38.1 69.1 32.75 69.65 24.0 69.0 19.9 67.45 9.95 65.95 7.2 63.65 2.8 58.15 1.95 63.9 1.05 66.65 5.65 L66.75 5.8 66.85 6.0 68.1 9.0 Q70.8 18.35 70.5 26.05 M54.25 41.65 Q45.8 37.8 43.05 33.65 40.3 29.5 38.6 25.35 35.65 18.25 36.2 12.85 36.4 8.1 37.7 6.1 L37.85 5.9 Q40.5 1.85 45.35 2.35 47.95 2.65 51.25 4.25 L51.15 4.3 Q47.85 3.05 45.35 3.35 41.9 3.75 39.8 7.1 38.5 9.1 38.3 13.85 37.75 19.25 40.7 26.35 42.4 30.5 45.15 34.65 47.55 38.25 54.25 41.65 M44.2 42.8 L44.35 42.85 45.2 43.25 Q36.4 40.85 31.55 36.55 26.65 32.25 24.25 26.3 22.4 21.75 22.1 16.1 L22.0 13.5 Q22.0 10.25 23.05 8.1 L23.95 7.0 Q25.2 5.5 26.55 4.55 L26.9 4.3 Q29.5 2.6 32.2 3.1 25.05 6.25 25.2 14.25 25.35 22.25 27.6 27.8 30.0 33.75 34.95 37.8 37.0 39.45 44.2 42.8 M24.9 42.6 L21.1 40.85 Q19.55 40.0 18.85 39.25 L16.6 37.05 Q15.75 36.25 14.25 33.55 L11.6 28.25 Q10.65 25.4 10.3 22.8 9.2 14.85 13.65 9.35 L13.8 9.2 Q16.6 5.95 20.65 7.1 17.0 7.7 15.5 10.45 14.2 12.8 14.2 18.5 14.2 32.2 24.9 42.6 M15.55 47.55 Q12.55 46.4 9.8 44.25 L9.65 44.1 Q7.2 42.1 5.3 39.4 4.35 38.05 3.55 36.5 0.25 54.15 5.85 68.65 11.85 84.15 16.45 89.55 21.05 94.9 30.0 98.7 34.95 100.75 38.2 102.65 L40.75 105.5 Q37.3 102.45 28.35 98.7 19.4 94.9 14.8 89.55 10.2 84.15 4.2 68.65 -1.8 53.15 2.4 34.05 0.9 30.4 0.05 26.0 -0.75 13.75 7.3 10.25 L8.3 10.1 Q6.75 11.65 5.35 13.85 2.95 17.75 2.95 21.0 2.95 30.15 5.8 35.7 8.15 40.35 15.55 47.55 M122.65 91.35 Q120.5 88.45 115.75 86.35 110.95 84.2 108.2 80.0 105.45 75.75 105.05 72.2 L104.45 64.25 105.95 56.3 107.05 67.3 Q107.6 73.0 109.95 76.45 112.3 79.9 119.5 86.15 126.7 92.4 127.6 95.0 124.35 91.6 122.65 91.35 M3.55 36.5 L2.4 34.05 3.55 36.5" fill="#ffffff" fill-rule="evenodd" stroke="none"/>
    <path d="M88.3 10.8 L89.95 10.8 Q96.85 13.4 96.75 20.75 96.65 28.05 97.4 34.55 97.55 39.25 99.4 46.0 L100.2 48.65 96.45 43.9 Q95.05 37.55 94.65 30.35 94.35 25.25 91.9 19.55 90.3 15.8 88.85 14.3 L88.3 10.8 M72.8 3.7 L73.7 3.05 Q75.15 2.4 77.6 2.4 83.75 2.4 86.15 9.55 L86.55 10.9 86.7 11.5 87.1 13.2 87.1 13.35 Q88.1 18.5 88.6 27.6 88.8 31.05 89.75 34.9 91.05 40.3 93.85 46.4 L95.5 49.5 Q93.45 48.8 91.6 47.4 88.95 42.65 87.85 39.45 86.05 34.3 85.4 25.3 84.7 16.2 81.45 10.1 78.05 3.7 73.4 3.7 L72.8 3.7 M82.45 40.6 Q84.35 46.0 87.65 48.2 L85.25 47.35 Q76.85 39.35 74.0 22.9 72.7 15.5 71.4 12.35 69.75 8.3 66.9 5.95 L68.05 4.85 69.6 4.7 Q72.35 4.7 74.15 7.5 75.25 9.2 76.0 12.05 76.6 14.3 77.4 22.3 77.65 25.3 79.6 34.15 79.85 36.7 82.45 40.6 M71.45 41.15 L71.95 42.95 Q70.45 41.45 69.2 39.5 68.0 34.35 67.35 29.7 L66.2 19.1 Q65.25 11.7 63.55 8.85 61.35 5.3 56.5 5.3 53.9 5.3 52.75 5.85 L52.1 6.3 Q50.6 5.5 48.5 5.5 41.0 5.5 41.0 16.0 41.0 23.55 45.0 30.9 48.75 37.85 54.1 40.25 L55.05 41.05 57.95 43.2 54.25 41.65 Q47.55 38.25 45.15 34.65 42.4 30.5 40.7 26.35 37.75 19.25 38.3 13.85 38.5 9.1 39.8 7.1 41.9 3.75 45.35 3.35 47.85 3.05 51.15 4.3 L51.25 4.25 51.9 4.15 52.4 3.8 Q54.05 2.7 55.85 2.3 L57.2 2.1 58.15 1.95 Q63.65 2.8 65.95 7.2 67.45 9.95 69.0 19.9 69.65 24.0 69.1 32.75 69.2 38.1 71.45 41.15 M53.45 7.3 L52.6 7.7 Q51.9 8.1 51.5 8.65 L50.65 7.8 Q51.35 6.8 52.1 6.3 52.85 6.65 53.45 7.3 M43.0 40.25 L45.0 42.95 Q43.25 42.3 44.2 42.8 37.0 39.45 34.95 37.8 30.0 33.75 27.6 27.8 25.35 22.25 25.2 14.25 25.05 6.25 32.2 3.1 34.8 3.5 37.6 5.95 35.3 6.75 33.85 9.8 32.0 13.65 32.0 19.1 32.0 30.95 43.0 40.25 M28.75 44.15 Q27.6 43.65 25.6 42.9 L24.9 42.6 Q14.2 32.2 14.2 18.5 14.2 12.8 15.5 10.45 17.0 7.7 20.65 7.1 21.8 7.4 23.05 8.1 22.0 10.25 22.0 13.5 L22.1 16.1 20.75 19.65 Q20.6 20.25 20.6 24.2 20.6 38.4 28.75 44.15 M17.6 48.15 L15.85 47.65 15.55 47.55 Q8.15 40.35 5.8 35.7 2.95 30.15 2.95 21.0 2.95 17.75 5.35 13.85 6.75 11.65 8.3 10.1 L13.65 9.35 Q9.2 14.85 10.3 22.8 L9.75 24.65 Q9.6 25.45 9.6 28.4 9.6 34.8 11.15 38.75 12.85 43.1 17.6 48.15 M32.0 98.6 L33.45 99.4 Q35.95 100.5 38.2 102.65 34.95 100.75 30.0 98.7 21.05 94.9 16.45 89.55 11.85 84.15 5.85 68.65 0.25 54.15 3.55 36.5 4.35 38.05 5.3 39.4 2.95 55.4 8.1 68.65 14.1 84.15 18.7 89.55 23.25 94.8 32.0 98.6 M104.45 64.25 L105.05 72.2 Q105.45 75.75 108.2 80.0 110.95 84.2 115.75 86.35 120.5 88.45 122.65 91.35 119.55 90.3 118.8 90.2 113.8 89.4 111.7 87.75 109.55 86.05 107.7 83.85 108.05 90.6 114.3 93.0 L119.8 94.9 Q123.1 96.15 124.95 98.2 120.85 96.3 117.7 95.35 L116.6 94.9 111.1 93.0 Q105.25 90.75 102.15 77.65 L104.45 64.25" fill="#a05001" fill-rule="evenodd" stroke="none"/>
    <path d="M90.95 32.5 Q90.0 28.65 89.8 25.2 L88.85 14.3 Q90.3 15.8 91.9 19.55 94.35 25.25 94.65 30.35 95.05 37.55 96.45 43.9 92.65 38.45 90.95 32.5 M85.25 47.35 Q78.7 44.5 74.7 36.95 72.6 32.95 70.5 26.05 70.8 18.35 68.1 9.0 L66.85 6.0 66.9 5.95 Q69.75 8.3 71.4 12.35 72.7 15.5 74.0 22.9 76.85 39.35 85.25 47.35 M69.2 39.5 L68.0 37.35 Q65.7 32.85 63.7 24.15 61.45 14.55 60.5 12.2 58.4 7.0 54.85 7.0 L53.45 7.3 Q52.85 6.65 52.1 6.3 51.35 6.8 50.65 7.8 49.6 7.1 48.05 7.4 47.15 7.4 45.45 9.75 43.7 12.05 43.7 19.9 43.7 27.75 46.8 31.95 49.9 36.15 52.85 39.0 L54.1 40.25 Q48.75 37.85 45.0 30.9 41.0 23.55 41.0 16.0 41.0 5.5 48.5 5.5 50.6 5.5 52.1 6.3 L52.75 5.85 Q53.9 5.3 56.5 5.3 61.35 5.3 63.55 8.85 65.25 11.7 66.2 19.1 L67.35 29.7 Q68.0 34.35 69.2 39.5 M38.6 25.35 L38.55 26.95 Q38.55 31.55 41.5 37.55 L43.0 40.25 Q32.0 30.95 32.0 19.1 32.0 13.65 33.85 9.8 35.3 6.75 37.6 5.95 L37.7 6.1 Q36.4 8.1 36.2 12.85 35.65 18.25 38.6 25.35 M24.25 26.3 L24.25 26.85 Q24.25 30.85 24.8 34.55 25.3 38.2 26.7 40.9 L29.65 44.45 28.75 44.15 Q20.6 38.4 20.6 24.2 20.6 20.25 20.75 19.65 L22.1 16.1 Q22.4 21.75 24.25 26.3 M14.25 33.55 L14.15 35.1 Q14.15 39.3 15.9 43.85 16.95 46.65 18.2 48.25 L17.6 48.15 Q12.85 43.1 11.15 38.75 9.6 34.8 9.6 28.4 9.6 25.45 9.75 24.65 L10.3 22.8 Q10.65 25.4 11.6 28.25 L14.25 33.55 M9.8 44.25 Q10.05 52.3 10.85 61.6 11.75 72.4 15.6 80.55 19.45 88.7 22.8 92.0 25.8 94.95 32.0 98.6 23.25 94.8 18.7 89.55 14.1 84.15 8.1 68.65 2.95 55.4 5.3 39.4 7.2 42.1 9.65 44.1 L9.8 44.25 M91.6 47.4 Q89.0 45.5 86.7 42.25 81.45 34.7 80.1 28.25 L80.05 27.9 79.2 16.25 Q78.7 11.8 76.6 7.75 L76.15 6.9 76.5 6.8 Q75.1 4.85 72.8 3.7 L73.4 3.7 Q78.05 3.7 81.45 10.1 84.7 16.2 85.4 25.3 86.05 34.3 87.85 39.45 88.95 42.65 91.6 47.4 M102.15 77.65 Q105.25 90.75 111.1 93.0 L116.6 94.9 116.55 95.05 114.9 94.65 Q110.85 93.85 108.2 92.8 105.55 91.65 103.35 89.45 101.65 87.7 100.45 84.75 L102.15 77.65" fill="#663300" fill-rule="evenodd" stroke="none"/>
    <path d="M87.9 9.1 L88.3 10.8 M100.2 48.65 L100.25 48.7 Q103.15 51.9 106.35 53.95 103.1 51.05 101.3 44.3 99.45 37.55 99.3 32.85 98.55 26.35 98.65 19.05 98.75 11.7 91.85 9.1 L87.9 9.1 87.75 8.5 87.35 7.15 Q84.95 0.0 78.8 0.0 76.35 0.0 74.9 0.65 73.55 1.25 72.75 3.7 L72.8 3.7 M95.5 49.5 L96.45 49.75 98.05 50.05 98.9 50.1 97.6 48.45 Q96.2 46.45 95.05 44.0 92.25 37.9 90.95 32.5 90.0 28.65 89.8 25.2 L88.85 14.3 88.3 10.8 M82.45 40.6 Q84.35 46.0 87.65 48.2 L85.25 47.35 Q78.7 44.5 74.7 36.95 72.6 32.95 70.5 26.05 L70.4 28.45 Q70.1 35.85 71.45 41.15 L71.95 42.95 Q70.45 41.45 69.2 39.5 L68.0 37.35 Q65.7 32.85 63.7 24.15 61.45 14.55 60.5 12.2 58.4 7.0 54.85 7.0 L53.45 7.3 52.6 7.7 Q51.9 8.1 51.5 8.65 L50.65 7.8 Q49.6 7.1 48.05 7.4 47.15 7.4 45.45 9.75 43.7 12.05 43.7 19.9 43.7 27.75 46.8 31.95 49.9 36.15 52.85 39.0 L54.1 40.25 55.05 41.05 57.95 43.2 54.25 41.65 Q45.8 37.8 43.05 33.65 40.3 29.5 38.6 25.35 L38.55 26.95 Q38.55 31.55 41.5 37.55 L43.0 40.25 45.0 42.95 M45.2 43.25 Q36.4 40.85 31.55 36.55 26.65 32.25 24.25 26.3 L24.25 26.85 Q24.25 30.85 24.8 34.55 25.3 38.2 26.7 40.9 L29.65 44.45 28.75 44.15 Q27.6 43.65 25.6 42.9 L24.9 42.6 21.1 40.85 Q19.55 40.0 18.85 39.25 L16.6 37.05 Q15.75 36.25 14.25 33.55 L14.15 35.1 Q14.15 39.3 15.9 43.85 16.95 46.65 18.2 48.25 L17.6 48.15 15.85 47.65 15.55 47.55 Q12.55 46.4 9.8 44.25 M40.75 105.5 Q37.3 102.45 28.35 98.7 19.4 94.9 14.8 89.55 10.2 84.15 4.2 68.65 -1.8 53.15 2.4 34.05 0.9 30.4 0.05 26.0 -0.75 13.75 7.3 10.25 M13.65 9.35 L13.8 9.2 M37.7 6.1 L37.85 5.9 Q40.5 1.85 45.35 2.35 47.95 2.65 51.25 4.25 M100.2 48.65 L96.45 43.9 Q92.65 38.45 90.95 32.5 M95.5 49.5 Q93.45 48.8 91.6 47.4 89.0 45.5 86.7 42.25 81.45 34.7 80.1 28.25 80.7 35.75 82.45 40.6 M122.65 91.35 Q124.35 91.6 127.6 95.0 126.7 92.4 119.5 86.15 112.3 79.9 109.95 76.45 107.6 73.0 107.05 67.3 L105.95 56.3 M116.6 94.9 L117.7 95.35 Q120.85 96.3 124.95 98.2 123.1 96.15 119.8 94.9 L114.3 93.0 Q108.05 90.6 107.7 83.85 109.55 86.05 111.7 87.75 113.8 89.4 118.8 90.2 119.55 90.3 122.65 91.35 M116.55 95.05 L114.9 94.65 Q110.85 93.85 108.2 92.8 105.55 91.65 103.35 89.45 101.65 87.7 100.45 84.75 M76.15 6.9 L76.6 7.75 Q78.7 11.8 79.2 16.25 L80.05 27.9 80.1 28.25 M66.85 6.0 L68.1 9.0 Q70.8 18.35 70.5 26.05 M23.05 8.1 Q22.0 10.25 22.0 13.5 L22.1 16.1 Q22.4 21.75 24.25 26.3 M38.6 25.35 Q35.65 18.25 36.2 12.85 36.4 8.1 37.7 6.1 M13.65 9.35 Q9.2 14.85 10.3 22.8 10.65 25.4 11.6 28.25 L14.25 33.55 M2.4 34.05 L3.55 36.5 Q4.35 38.05 5.3 39.4 7.2 42.1 9.65 44.1 L9.8 44.25" fill="none" stroke="#000000" stroke-linecap="round" stroke-linejoin="round" stroke-width="1.0"/>
    <path d="M9.8 44.25 Q10.05 52.3 10.85 61.6 11.75 72.4 15.6 80.55 19.45 88.7 22.8 92.0 25.8 94.95 32.0 98.6 L33.45 99.4 Q35.95 100.5 38.2 102.65 L40.75 105.5" fill="none" stroke="#000000" stroke-linecap="round" stroke-linejoin="round" stroke-width="1.0"/>
  </g>
</svg>
