<?xml version="1.0" encoding="UTF-8" standalone="no"?>
<svg xmlns:xlink="http://www.w3.org/1999/xlink" height="17.9px" width="17.0px" xmlns="http://www.w3.org/2000/svg">
  <g transform="matrix(1.0, 0.0, 0.0, 1.0, 0.0, 0.0)">
    <path d="M16.95 8.0 L15.55 8.0 15.6 8.85 Q15.55 11.2 14.0 12.85 12.45 14.6 10.3 14.6 8.1 14.6 6.5 12.85 4.95 11.2 5.0 8.85 L5.2 7.1 Q3.7 4.9 1.85 5.8 1.35 8.15 1.35 8.95 1.35 12.65 3.85 15.3 6.1 17.65 9.2 17.85 L8.5 17.9 Q5.0 17.9 2.5 15.3 0.0 12.65 0.0 8.95 0.0 8.0 0.15 7.1 0.65 4.55 2.5 2.65 5.0 0.0 8.5 0.0 12.0 0.0 14.5 2.65 16.65 4.9 16.95 8.0" fill="#000000" fill-rule="evenodd" stroke="none"/>
    <path d="M16.95 8.0 L17.0 8.95 Q17.0 12.65 14.5 15.3 12.25 17.65 9.2 17.85 6.1 17.65 3.85 15.3 1.35 12.65 1.35 8.95 1.35 8.15 1.85 5.8 3.7 4.9 5.2 7.1 L5.0 8.85 Q4.95 11.2 6.5 12.85 8.1 14.6 10.3 14.6 12.45 14.6 14.0 12.85 15.55 11.2 15.6 8.85 L15.55 8.0 16.95 8.0" fill="#cc9999" fill-rule="evenodd" stroke="none"/>
  </g>
</svg>
