<?xml version="1.0" encoding="UTF-8" standalone="no"?>
<svg xmlns:xlink="http://www.w3.org/1999/xlink" height="78.7px" width="101.25px" xmlns="http://www.w3.org/2000/svg">
  <g transform="matrix(1.0, 0.0, 0.0, 1.0, 117.6, -52.55)">
    <path d="M-54.7 57.2 Q-49.9 55.3 -44.1 52.6 L-44.0 52.55 Q-36.75 56.15 -33.35 58.4 -32.6 60.45 -30.9 62.3 -42.0 82.55 -18.05 84.55 L-17.15 86.65 Q-16.35 89.2 -16.35 91.65 -16.4 95.1 -17.75 96.55 -19.05 97.95 -22.15 97.95 L-25.3 97.4 -24.1 99.6 -22.75 101.2 -24.35 101.9 Q-24.8 101.3 -26.4 101.3 L-30.85 102.15 -33.15 102.75 Q-33.35 101.95 -33.7 101.6 -34.45 100.9 -36.9 100.9 -40.4 100.9 -45.9 104.45 L-46.6 104.9 -46.95 105.15 -56.15 108.55 Q-62.05 110.85 -68.25 114.2 -72.5 116.5 -81.0 121.8 L-89.8 127.1 -89.95 127.1 -89.95 126.85 Q-89.95 126.25 -90.75 123.9 -91.6 121.55 -91.6 119.55 -91.6 118.15 -90.8 116.3 -98.1 117.1 -106.85 123.1 L-114.85 129.1 -117.6 131.25 Q-116.5 129.05 -116.3 126.8 L-116.3 118.95 Q-116.3 113.25 -114.35 109.75 -112.75 106.85 -109.3 104.7 L-102.65 101.1 -101.1 100.2 Q-103.1 100.0 -105.1 99.3 -108.45 98.0 -109.25 95.75 L-107.8 95.85 Q-106.55 95.85 -102.55 92.1 L-93.7 83.85 Q-79.55 71.8 -65.9 71.8 L-60.5 72.0 -65.55 68.0 Q-69.95 64.55 -71.4 62.4 L-64.05 60.4 Q-59.95 59.25 -54.7 57.2" fill="#006600" fill-rule="evenodd" stroke="none"/>
  </g>
</svg>
