<?xml version="1.0" encoding="UTF-8" standalone="no"?>
<svg xmlns:xlink="http://www.w3.org/1999/xlink" height="106.1px" width="102.4px" xmlns="http://www.w3.org/2000/svg">
  <g transform="matrix(1.0, 0.0, 0.0, 1.0, 97.75, -100.9)">
    <path d="M4.35 145.0 L4.65 149.4 Q4.65 156.25 2.8 161.8 0.95 167.35 -1.5 170.75 -3.55 173.5 -4.95 176.55 L-7.05 180.7 -7.2 180.95 -7.2 181.0 -7.55 181.5 -7.6 181.45 -7.65 181.4 -14.95 174.9 Q-20.0 170.1 -22.5 167.0 -28.2 159.95 -30.0 155.1 -31.65 150.65 -31.65 143.3 L-31.5 137.35 -31.5 137.0 -31.4 136.2 -32.0 136.95 -33.8 139.2 Q-38.5 145.15 -41.9 151.65 -47.05 161.45 -49.7 176.4 L-49.7 176.6 Q-50.55 184.45 -55.05 192.1 -58.5 197.9 -64.3 202.25 -67.6 204.7 -70.6 205.9 L-74.35 207.0 Q-71.65 206.25 -70.8 205.4 -69.9 204.5 -69.9 202.45 -71.8 193.2 -71.3 191.75 L-71.3 191.4 -71.45 191.7 Q-74.95 199.05 -79.8 201.05 -82.8 202.25 -91.6 202.25 L-97.65 201.25 Q-97.0 200.6 -96.0 198.45 L-95.85 198.2 -94.35 194.45 Q-91.95 188.0 -90.9 186.3 L-96.5 187.0 -97.75 186.95 -97.2 186.4 Q-94.65 183.85 -93.65 178.0 -91.6 165.95 -89.95 161.3 -87.25 153.55 -75.95 144.85 L-63.55 135.85 -61.25 130.5 Q-58.5 123.35 -56.05 119.9 -53.65 116.5 -51.2 114.1 L-51.3 111.75 Q-51.3 109.8 -51.45 109.5 -51.6 109.1 -52.1 108.95 L-46.95 105.15 -46.6 104.9 -45.9 104.45 Q-40.4 100.9 -36.9 100.9 -34.45 100.9 -33.7 101.6 -33.35 101.95 -33.15 102.75 -33.0 103.35 -33.0 104.3 -33.0 105.95 -33.7 107.7 L-35.0 111.0 Q-33.4 110.05 -32.35 110.1 L-31.55 110.2 Q-30.0 109.15 -28.85 107.9 -27.95 106.9 -26.5 104.5 -25.45 102.6 -24.4 101.9 L-24.35 101.9 -22.75 101.2 -19.95 100.9 Q-18.15 100.9 -16.65 101.7 -16.0 102.0 -15.4 102.45 -13.1 104.2 -13.35 107.05 -13.7 110.3 -8.3 119.9 L-4.1 125.95 Q-0.65 130.55 2.0 136.55 3.75 140.55 4.35 145.0" fill="#cc0000" fill-rule="evenodd" stroke="none"/>
  </g>
</svg>
