<?xml version="1.0" encoding="UTF-8" standalone="no"?>
<svg xmlns:xlink="http://www.w3.org/1999/xlink" height="72.75px" width="74.7px" xmlns="http://www.w3.org/2000/svg">
  <g transform="matrix(1.0, 0.0, 0.0, 1.0, 16.65, -92.7)">
    <path d="M5.7 92.7 L9.8 93.15 11.35 97.35 18.3 97.45 18.5 94.75 20.7 94.65 25.4 106.15 30.35 107.05 30.35 109.25 Q31.05 111.9 32.55 115.2 L34.65 120.3 36.45 120.1 Q38.35 120.1 40.5 120.8 L44.8 121.45 Q48.5 121.45 53.5 118.0 58.05 123.0 58.05 126.9 L57.4 131.55 57.85 132.95 54.5 133.75 50.35 135.05 Q53.15 136.7 54.55 138.2 57.2 141.15 57.2 145.8 57.2 149.25 55.05 152.65 52.9 156.0 52.9 156.75 L52.95 157.45 Q51.35 157.7 48.9 158.75 44.1 160.65 40.8 160.65 37.5 160.65 33.25 158.15 31.2 156.95 29.8 155.8 29.55 158.65 28.8 161.55 L27.9 165.45 Q26.4 163.85 23.9 161.9 19.9 158.65 16.0 156.55 12.7 154.8 7.65 149.0 L4.35 145.0 Q3.75 140.55 2.0 136.55 -0.65 130.55 -4.1 125.95 L-8.3 119.9 Q-13.7 110.3 -13.35 107.05 -13.1 104.2 -15.4 102.45 -16.0 102.0 -16.65 101.7 -14.55 100.75 -12.3 98.6 L-10.3 96.35 Q-8.9 97.4 -6.9 98.15 L-8.65 100.45 Q-10.55 102.55 -12.6 103.1 L-11.65 103.1 -9.5 104.85 -9.4 104.9 -9.4 104.85 -9.35 104.85 -6.45 106.1 -3.65 98.75 Q-1.8 98.45 -0.9 96.0 L3.85 96.8 5.7 92.7" fill="#cc0000" fill-rule="evenodd" stroke="none"/>
  </g>
</svg>
