<?xml version="1.0" encoding="UTF-8" standalone="no"?>
<svg xmlns:xlink="http://www.w3.org/1999/xlink" height="12.4px" width="35.65px" xmlns="http://www.w3.org/2000/svg">
  <g transform="matrix(1.0, 0.0, 0.0, 1.0, 0.0, -0.05)">
    <path d="M35.65 9.35 Q32.65 13.2 29.3 12.25 25.9 11.3 21.4 9.25 16.85 7.25 11.9 7.75 6.95 8.2 4.95 8.9 L0.0 11.2 Q0.3 10.45 2.15 8.7 3.95 6.9 5.3 6.1 6.65 5.25 8.85 4.35 11.0 3.4 16.1 3.55 21.15 3.7 25.55 7.2 29.95 10.65 32.55 10.3 L35.65 9.35 M9.65 0.55 L14.9 0.05 Q18.15 -0.1 23.25 2.25 30.25 5.45 33.6 6.65 L26.75 4.8 22.65 3.2 Q20.9 2.35 18.65 1.75 L13.15 1.2 Q9.85 1.25 6.65 2.35 5.05 2.85 4.1 3.4 7.65 0.9 9.65 0.55" fill="#000000" fill-rule="evenodd" stroke="none"/>
  </g>
</svg>
