<?xml version="1.0" encoding="UTF-8" standalone="no"?>
<svg xmlns:xlink="http://www.w3.org/1999/xlink" height="118.3px" width="71.35px" xmlns="http://www.w3.org/2000/svg">
  <g transform="matrix(1.0, 0.0, 0.0, 1.0, -30.35, -5.0)">
    <path d="M85.5 28.4 L85.35 36.4 85.3 38.3 85.3 41.65 85.4 46.0 85.5 47.4 87.1 46.75 90.1 45.0 90.75 44.5 Q92.45 43.3 95.85 43.3 L98.5 43.5 Q99.8 43.7 100.35 44.25 101.7 45.5 101.7 50.25 L101.7 50.3 101.45 55.55 100.75 60.2 Q100.1 63.1 98.95 65.1 L98.75 66.9 Q97.95 72.8 94.9 80.9 90.85 91.6 85.5 99.35 L84.65 100.5 Q80.2 106.55 72.2 114.95 L64.15 123.3 Q62.4 121.6 61.6 120.25 59.95 117.5 59.5 113.05 L57.8 114.6 53.5 118.0 Q48.5 121.45 44.8 121.45 L40.5 120.8 Q38.35 120.1 36.45 120.1 L34.65 120.3 32.55 115.2 Q31.05 111.9 30.35 109.25 L30.35 107.05 31.15 107.15 32.65 106.7 33.3 104.6 Q45.25 106.3 44.4 93.4 L46.0 92.75 46.35 88.4 Q52.45 89.4 52.4 82.9 L52.4 82.05 57.15 81.55 56.8 76.2 59.05 73.65 50.6 59.15 50.15 47.7 Q49.55 33.25 49.25 18.75 L54.6 17.45 56.1 17.1 Q52.5 13.95 49.05 9.8 L49.0 5.0 Q54.7 10.55 64.6 20.85 71.55 27.85 76.0 31.0 80.45 28.0 83.65 28.0 L85.5 28.4 M59.1 21.3 Q58.85 24.25 58.0 26.45 L57.6 27.55 Q57.05 28.95 57.05 29.8 57.45 30.2 58.0 30.45 L59.25 30.7 Q59.45 29.3 59.95 28.55 L60.1 28.25 Q60.4 27.9 60.8 27.7 L63.1 27.5 Q67.35 27.5 68.15 34.65 L68.3 37.35 72.9 33.3 73.05 33.2 68.3 28.5 62.45 22.25 59.15 19.6 59.1 21.3" fill="#006600" fill-rule="evenodd" stroke="none"/>
  </g>
</svg>
