<?xml version="1.0" encoding="UTF-8" standalone="no"?>
<svg xmlns:xlink="http://www.w3.org/1999/xlink" height="101.15px" width="78.45px" xmlns="http://www.w3.org/2000/svg">
  <g transform="matrix(1.0, 0.0, 0.0, 1.0, -84.65, -56.9)">
    <path d="M112.6 57.5 Q114.3 56.85 118.4 56.9 124.0 56.85 128.6 62.85 L130.6 65.8 Q132.75 69.35 135.4 78.5 L135.8 78.8 Q140.7 82.3 148.8 93.65 163.5 114.1 163.1 143.55 161.95 141.6 158.8 140.0 L155.85 138.55 155.85 139.35 Q155.85 144.45 153.7 147.65 152.0 150.2 148.3 152.35 143.65 154.65 141.25 156.05 139.55 157.0 138.1 158.05 136.25 156.9 133.35 156.55 L133.25 156.55 130.3 155.9 Q129.3 155.35 125.6 151.7 L124.2 150.9 Q122.65 149.7 120.5 146.95 117.2 142.75 115.4 138.95 L111.5 130.6 109.8 134.0 Q104.7 143.15 98.1 144.45 L98.1 142.95 Q98.1 141.05 96.0 138.7 92.6 134.8 91.4 132.85 84.85 122.4 84.65 100.5 L85.5 99.35 Q90.85 91.6 94.9 80.9 97.95 72.8 98.75 66.9 L98.95 65.1 Q100.1 63.1 100.75 60.2 102.3 64.0 103.2 65.35 104.4 67.25 106.8 68.5 109.65 64.3 110.5 59.55 L110.55 59.5 Q111.1 58.05 112.6 57.5" fill="#cc0000" fill-rule="evenodd" stroke="none"/>
  </g>
</svg>
