<?xml version="1.0" encoding="UTF-8" standalone="no"?>
<svg xmlns:xlink="http://www.w3.org/1999/xlink" height="61.5px" width="101.15px" xmlns="http://www.w3.org/2000/svg">
  <g transform="matrix(1.0, 0.0, 0.0, 1.0, -85.25, -6.7)">
    <path d="M169.15 8.0 L186.4 6.7 181.05 15.9 Q175.4 25.8 171.75 29.6 169.55 31.95 164.0 35.8 156.75 40.8 152.7 41.25 152.7 41.4 152.5 41.4 162.7 46.5 168.8 54.7 172.95 60.35 174.8 61.35 L176.45 62.0 Q177.6 62.55 178.95 63.65 167.45 62.95 163.8 66.45 160.15 69.95 147.45 66.5 L135.95 63.55 135.75 63.3 134.95 63.3 134.75 63.35 128.6 62.85 Q124.0 56.85 118.4 56.9 114.3 56.85 112.6 57.5 111.1 58.05 110.55 59.5 L107.4 58.1 101.45 55.55 101.7 50.3 101.7 50.25 Q101.7 45.5 100.35 44.25 99.8 43.7 98.5 43.5 L95.85 43.3 Q92.45 43.3 90.75 44.5 L90.1 45.0 85.3 41.65 85.3 38.3 85.35 36.4 90.6 41.05 99.8 40.9 Q100.75 39.35 102.2 37.65 106.35 32.75 112.25 30.15 116.5 28.25 122.4 24.2 128.8 19.75 134.05 17.15 152.1 8.2 159.85 9.25 L163.85 9.0 Q166.45 8.15 169.15 8.0" fill="#ffffff" fill-rule="evenodd" stroke="none"/>
  </g>
</svg>
