<?xml version="1.0" encoding="UTF-8" standalone="no"?>
<svg xmlns:xlink="http://www.w3.org/1999/xlink" height="108.0px" width="122.15px" xmlns="http://www.w3.org/2000/svg">
  <g transform="matrix(1.0, 0.0, 0.0, 1.0, 0.5, 0.5)">
    <path d="M99.4 46.3 L98.75 44.65 Q94.6 34.7 90.3 29.55 86.0 24.4 81.9 18.25 77.8 12.05 71.05 6.65 67.0 3.4 61.1 0.9 63.65 -0.3 69.6 0.3 75.5 0.9 82.5 6.0 89.45 11.05 95.45 18.1 101.4 25.05 104.7 29.7 108.0 34.35 112.15 44.3 116.25 54.2 118.35 62.95 L119.45 68.2 Q116.1 61.05 110.1 54.95 L107.75 52.65 Q103.8 49.0 99.4 46.3 M51.6 38.05 L61.45 37.3 69.3 37.8 69.25 38.05 71.6 38.1 Q87.7 40.7 99.95 51.9 L102.3 54.2 Q109.15 61.2 112.55 69.55 115.0 75.45 115.65 82.0 L115.9 87.15 115.8 90.35 114.6 89.75 113.9 89.4 Q105.35 85.15 96.95 82.15 L96.0 81.8 95.9 81.75 95.2 77.35 Q94.35 73.3 92.8 69.55 90.25 63.3 85.85 57.85 L81.45 53.05 80.2 51.9 Q67.85 40.6 51.6 38.05" fill="#ddbbbb" fill-rule="evenodd" stroke="none"/>
    <path d="M61.1 0.9 Q67.0 3.4 71.05 6.65 77.8 12.05 81.9 18.25 86.0 24.4 90.3 29.55 94.6 34.7 98.75 44.65 L99.4 46.3 Q87.1 38.6 71.6 38.1 L69.3 37.8 61.45 37.3 51.6 38.05 Q35.3 40.6 22.95 51.9 13.55 60.5 9.7 71.25 L8.55 71.25 9.9 64.9 Q11.95 57.0 14.7 49.45 16.0 45.85 17.5 42.35 L20.2 36.15 Q27.15 21.2 35.2 10.85 39.4 5.4 43.1 2.95 40.8 4.95 39.6 7.05 37.7 10.4 37.7 16.6 37.7 24.2 42.65 24.2 45.35 24.2 49.0 21.35 L50.6 20.1 51.15 19.7 50.85 19.6 50.8 19.6 Q51.9 13.55 55.4 7.15 L56.3 5.85 58.45 3.2 Q59.85 1.7 61.1 0.9 M81.45 53.05 L85.85 57.85 Q90.25 63.3 92.8 69.55 94.35 73.3 95.2 77.35 L95.9 81.75 95.0 81.45 Q49.95 66.05 9.1 85.85 L7.25 86.8 Q11.75 75.85 15.2 71.25 18.1 67.45 21.9 63.95 37.85 49.35 60.4 49.35 71.75 49.35 81.45 53.05" fill="#ebd8d8" fill-rule="evenodd" stroke="none"/>
    <path d="M99.4 46.3 Q103.8 49.0 107.75 52.65 L110.1 54.95 Q116.1 61.05 119.45 68.2 120.65 74.5 121.15 81.1 L121.05 86.4 Q120.95 88.25 119.95 92.55 L115.8 90.35 115.9 87.15 115.65 82.0 Q115.0 75.45 112.55 69.55 109.15 61.2 102.3 54.2 L99.95 51.9 Q87.7 40.7 71.6 38.1 87.1 38.6 99.4 46.3 M55.4 7.15 Q51.9 13.55 50.8 19.6 L50.6 20.1 49.0 21.35 Q45.35 24.2 42.65 24.2 37.7 24.2 37.7 16.6 37.7 10.4 39.6 7.05 40.8 4.95 43.1 2.95 46.4 0.7 49.3 0.85 L50.35 1.55 51.45 2.6 55.4 7.15" fill="#d1a5a5" fill-rule="evenodd" stroke="none"/>
    <path d="M43.1 2.95 Q39.4 5.4 35.2 10.85 27.15 21.2 20.2 36.15 L17.5 42.35 Q16.0 45.85 14.7 49.45 11.95 57.0 9.9 64.9 L8.55 71.25 Q7.7 75.9 7.4 80.75 L7.6 79.4 Q8.25 75.15 9.7 71.25 13.55 60.5 22.95 51.9 35.3 40.6 51.6 38.05 67.85 40.6 80.2 51.9 L81.45 53.05 Q71.75 49.35 60.4 49.35 37.85 49.35 21.9 63.95 18.1 67.45 15.2 71.25 11.75 75.85 7.25 86.8 L9.1 85.85 Q49.95 66.05 95.0 81.45 L95.9 81.75 95.9 82.0 96.0 81.8 96.95 82.15 Q96.6 89.0 92.45 97.5 84.5 94.85 71.0 92.45 55.25 89.6 39.65 93.0 24.0 96.45 17.2 100.15 L9.35 104.25 Q8.35 104.6 7.1 105.5 L5.0 107.0 Q-0.6 99.45 0.1 90.7 L0.6 90.4 Q3.55 88.65 6.55 87.15 L7.0 86.9 6.55 87.15 Q3.55 88.65 0.6 90.4 -0.2 76.25 3.1 63.5 5.15 55.6 7.9 48.05 10.35 41.25 13.4 34.75 20.35 19.8 29.8 10.5 39.25 1.15 42.4 0.45 L46.85 0.1 43.1 2.95 M7.25 86.9 L7.25 86.8 Q7.2 83.7 7.4 80.75 7.0 83.75 7.0 86.9 L7.15 86.95 7.2 86.9 7.25 86.9" fill="#ffffff" fill-rule="evenodd" stroke="none"/>
    <path d="M96.95 82.15 Q105.35 85.15 113.9 89.4 L114.6 89.75 115.8 90.35 119.95 92.55 120.15 92.65 Q119.1 100.75 113.75 105.35 L111.65 106.95 107.3 104.25 Q103.05 101.5 94.9 98.4 L92.45 97.5 Q96.6 89.0 96.95 82.15" fill="#e1e1e1" fill-rule="evenodd" stroke="none"/>
    <path d="M119.45 68.2 L118.35 62.95 Q116.25 54.2 112.15 44.3 108.0 34.35 104.7 29.7 101.4 25.05 95.45 18.1 89.45 11.05 82.5 6.0 75.5 0.9 69.6 0.3 63.65 -0.3 61.1 0.9 59.85 1.7 58.45 3.2 L56.3 5.85 55.4 7.15 Q51.9 13.55 50.8 19.6 M95.9 81.75 L96.0 81.8 96.95 82.15 Q105.35 85.15 113.9 89.4 L114.6 89.75 115.8 90.35 119.95 92.55 Q120.95 88.25 121.05 86.4 L121.15 81.1 Q120.65 74.5 119.45 68.2 M95.9 81.75 L95.0 81.45 Q49.95 66.05 9.1 85.85 L7.25 86.8 7.25 86.9 M7.2 86.9 L7.15 86.95 M7.0 86.9 L6.55 87.15 Q3.55 88.65 0.6 90.4 L0.1 90.7 Q-0.6 99.45 5.0 107.0 M107.3 104.25 L111.65 106.95 113.75 105.35 Q119.1 100.75 120.15 92.65 L119.95 92.55 M95.9 82.0 L95.9 81.75 M49.3 0.85 L50.35 1.55 51.45 2.6 55.4 7.15 M49.3 0.85 Q48.45 0.35 47.0 0.05 L46.85 0.1 M50.85 19.6 L50.8 19.6 M0.6 90.4 Q-0.2 76.25 3.1 63.5 5.15 55.6 7.9 48.05 10.35 41.25 13.4 34.75 20.35 19.8 29.8 10.5 39.25 1.15 42.4 0.45 L46.85 0.1 M7.2 86.9 L7.25 86.8 7.0 86.9 M7.4 80.75 Q7.2 83.7 7.25 86.8" fill="none" stroke="#000000" stroke-linecap="round" stroke-linejoin="round" stroke-width="1.0"/>
    <path d="M9.7 71.25 Q13.55 60.5 22.95 51.9 35.3 40.6 51.6 38.05 L61.45 37.3 69.3 37.8 71.6 38.1 M115.8 90.35 L115.9 87.15 115.65 82.0 Q115.0 75.45 112.55 69.55 109.15 61.2 102.3 54.2 L99.95 51.9 Q87.7 40.7 71.6 38.1 M5.0 107.0 L7.1 105.5 Q8.35 104.6 9.35 104.25 L17.2 100.15 Q24.0 96.45 39.65 93.0 55.25 89.6 71.0 92.45 84.5 94.85 92.45 97.5 L94.9 98.4 Q103.05 101.5 107.3 104.25 M7.4 80.75 L7.6 79.4 Q8.25 75.15 9.7 71.25 M7.0 86.9 Q7.0 83.75 7.4 80.75" fill="none" stroke="#000000" stroke-linecap="round" stroke-linejoin="round" stroke-width="1.0"/>
  </g>
</svg>
