<?xml version="1.0" encoding="UTF-8" standalone="no"?>
<svg xmlns:xlink="http://www.w3.org/1999/xlink" height="274.05px" width="295.7px" xmlns="http://www.w3.org/2000/svg">
  <g transform="matrix(1.0, 0.0, 0.0, 1.0, 169.45, 166.9)">
    <path d="M43.6 -148.85 Q42.3 -154.1 36.7 -152.15 38.6 -149.5 36.9 -146.45 L36.65 -146.0 Q45.55 -139.45 38.4 -128.15 L38.05 -127.75 38.05 -127.65 Q28.95 -127.4 21.75 -120.9 L21.15 -120.15 21.7 -120.1 Q24.95 -119.9 27.3 -117.3 29.6 -114.8 29.85 -111.4 L29.85 -110.55 30.6 -111.45 Q38.25 -123.65 42.35 -109.35 L44.45 -110.2 46.9 -107.35 47.15 -106.55 47.1 -107.35 50.3 -107.55 Q53.0 -106.55 54.25 -102.25 54.9 -99.8 55.0 -97.05 L52.65 -90.7 52.65 -90.55 52.55 -89.8 52.55 -89.75 53.45 -89.7 Q54.4 -88.15 55.2 -85.25 56.65 -87.05 57.75 -87.05 59.8 -87.05 60.7 -85.1 L61.05 -77.1 60.3 -76.55 60.3 -76.1 Q59.9 -70.85 54.2 -70.4 L53.15 -70.55 53.05 -70.05 Q48.0 -68.35 46.6 -61.6 L51.8 -61.75 Q55.1 -71.65 65.7 -71.6 L66.45 -72.85 Q74.85 -81.6 88.25 -85.55 90.3 -90.45 92.45 -93.6 100.4 -105.3 109.55 -94.0 L109.9 -93.55 113.95 -92.9 114.15 -92.45 Q115.45 -85.85 108.95 -84.3 L108.7 -80.3 112.5 -80.45 Q132.75 -78.1 123.15 -63.75 L123.15 -60.55 119.95 -59.35 Q125.4 -49.85 120.8 -43.2 118.0 -39.15 111.4 -36.15 L109.35 -35.3 107.35 -34.6 110.5 -34.1 111.25 -31.75 115.8 -30.55 Q115.5 -29.15 114.85 -28.0 113.65 -26.05 111.35 -25.0 118.35 -18.05 108.75 -12.35 125.8 -1.4 111.15 6.0 L110.15 6.25 109.8 7.6 100.35 12.05 Q109.05 29.65 82.1 23.75 L80.7 23.8 Q57.95 21.65 49.5 -1.4 48.95 1.4 49.0 4.2 L49.0 5.0 49.05 9.8 49.25 18.75 Q49.55 33.25 50.15 47.7 L50.6 59.15 59.05 73.65 56.8 76.2 57.15 81.55 52.4 82.05 52.4 82.9 Q52.45 89.4 46.35 88.4 L46.0 92.75 44.4 93.4 Q45.25 106.3 33.3 104.6 L32.65 106.7 31.15 107.15 25.4 106.15 20.7 94.65 18.5 94.75 18.3 97.45 11.35 97.35 9.8 93.15 5.7 92.7 3.85 96.8 -0.9 96.0 Q-1.8 98.45 -3.65 98.75 L-5.55 98.6 -6.9 98.15 Q-8.9 97.4 -10.3 96.35 -15.25 92.6 -13.2 84.75 L-18.05 84.55 Q-42.0 82.55 -30.9 62.3 -32.6 60.45 -33.35 58.4 -35.2 53.55 -32.1 47.65 L-31.5 46.35 -44.0 52.55 -44.1 52.6 Q-49.9 55.3 -54.7 57.2 -59.95 59.25 -64.05 60.4 L-71.4 62.4 Q-75.4 63.55 -75.8 63.8 L-75.85 63.85 -75.85 63.9 -75.9 63.95 -76.0 64.2 Q-82.25 72.8 -87.4 67.95 L-91.75 72.3 Q-103.55 74.4 -110.45 64.45 -100.6 61.5 -96.35 54.65 -96.35 49.7 -98.2 47.2 -99.5 45.5 -101.8 44.6 -108.45 48.3 -105.95 54.75 L-105.85 55.25 Q-115.7 57.3 -116.05 47.6 -136.15 40.85 -118.75 28.6 L-118.75 28.4 -117.6 22.95 Q-126.55 16.6 -118.1 8.0 L-118.0 7.9 -118.15 7.95 Q-130.75 16.65 -140.35 8.15 L-140.5 8.15 Q-164.1 3.65 -145.25 -15.95 -154.0 -14.25 -160.65 -19.55 L-161.45 -20.35 -161.45 -21.45 Q-174.55 -26.55 -166.25 -38.65 L-165.9 -38.8 Q-165.45 -42.9 -162.25 -45.9 L-144.25 -51.5 Q-152.0 -59.95 -162.05 -57.1 L-162.5 -57.05 Q-165.65 -77.2 -140.5 -74.8 L-137.6 -74.6 Q-135.5 -72.25 -133.1 -70.25 -133.85 -87.8 -123.5 -87.8 L-120.6 -88.0 Q-119.55 -87.9 -119.25 -87.6 -119.05 -87.4 -118.95 -86.7 -108.15 -81.0 -95.55 -83.25 L-94.35 -83.3 Q-92.6 -88.15 -88.25 -90.75 L-88.35 -91.75 Q-88.55 -94.85 -85.65 -96.4 -86.15 -100.35 -82.6 -104.35 -87.45 -109.4 -93.0 -109.35 -95.9 -109.4 -99.4 -108.05 L-98.6 -112.85 -98.8 -115.9 Q-92.65 -126.9 -82.85 -119.6 L-81.95 -119.65 Q-77.15 -119.0 -78.2 -114.1 -77.65 -112.2 -76.6 -110.6 -66.8 -95.45 -48.35 -91.4 L-48.3 -91.4 -48.3 -91.8 Q-51.7 -94.55 -53.05 -96.6 -75.7 -131.75 -36.3 -140.65 -9.85 -142.05 15.15 -153.55 L17.1 -154.45 19.35 -157.55 Q26.1 -166.15 36.4 -166.9 L36.5 -166.25 36.75 -166.9 Q59.9 -160.9 43.85 -148.55 L43.6 -148.85 M0.15 -9.6 L0.6 -10.05 0.05 -9.75 Q-4.25 -16.15 -4.5 -21.1 L-4.5 -22.1 -5.0 -21.65 Q-7.75 -24.35 -7.95 -28.05 L-7.6 -28.15 -6.55 -32.15 Q-9.85 -35.45 -10.2 -40.15 L-10.25 -41.45 Q-13.75 -43.45 -14.35 -47.35 -14.65 -49.45 -13.9 -51.6 -16.6 -48.7 -20.3 -47.4 -23.65 -46.15 -26.2 -48.6 L-29.05 -51.35 Q-38.45 -44.55 -46.2 -47.4 L-46.5 -47.55 Q-51.0 -40.35 -58.9 -36.35 L-59.15 -32.75 -54.6 -33.55 -52.95 -32.85 -53.75 -31.4 -53.5 -30.9 Q-52.85 -30.0 -54.15 -30.5 L-55.25 -27.25 Q-58.5 -28.05 -59.75 -25.1 L-59.5 -24.0 -56.25 -23.75 -57.05 -20.25 -55.05 -19.75 -52.8 -22.7 -50.7 -22.25 -52.95 -18.5 -50.1 -18.3 -49.85 -16.25 -45.05 -15.0 Q-48.7 -12.7 -47.25 -9.15 L-44.55 -9.0 -41.5 -9.2 -40.35 -12.4 -40.45 -7.6 -37.3 -7.3 Q-39.95 -5.35 -38.9 -2.6 L-35.25 -2.45 -33.85 -4.6 -33.9 -2.1 -31.15 -1.9 -30.25 -2.4 -30.85 -0.5 -29.05 -0.55 -29.05 -0.05 -28.3 -0.55 -27.8 -0.15 -29.1 1.45 -29.1 2.95 -26.8 2.85 -24.15 0.15 -24.6 1.8 -25.05 2.55 -24.5 2.45 -24.4 3.0 -22.2 3.0 -22.05 2.75 -21.75 4.45 -19.0 3.95 -18.8 2.95 -18.35 6.15 -16.6 6.45 -16.4 2.1 -12.3 -0.5 Q-12.25 1.0 -11.45 1.9 L-9.9 1.9 -9.9 -3.75 Q-9.85 -1.7 -8.15 0.55 -7.05 1.95 -6.05 2.45 -5.8 -3.2 0.15 -9.6 M7.75 -38.65 L7.7 -38.65 7.5 -38.55 7.4 -38.5 7.75 -38.65 M33.0 -153.6 L33.15 -153.95 32.45 -153.8 33.0 -153.6 M70.5 -21.0 L70.4 -21.6 69.25 -21.35 70.5 -21.0 M21.4 10.3 L21.0 10.8 21.4 10.3 21.45 10.35 21.4 10.3 M0.75 30.65 L0.7 30.65 0.7 30.7 0.75 30.65 M-100.65 -38.4 L-100.0 -39.05 -100.25 -39.15 -100.65 -38.4 M-120.3 -29.7 L-120.3 -29.1 -120.3 -29.7 M-12.0 36.75 L-12.35 37.05 -11.9 37.65 -12.0 36.75 M-75.25 -40.25 L-75.1 -39.5 -75.1 -40.25 -75.1 -40.3 -75.25 -40.25 M-59.25 -76.4 Q-61.85 -75.55 -63.7 -74.05 -61.5 -75.0 -59.25 -76.4 M-59.35 7.45 L-59.25 6.5 -59.9 6.45 -59.35 7.45 M-63.6 32.85 L-62.85 32.4 -62.9 32.3 -63.6 32.85 M-117.9 7.75 L-117.95 7.8 -117.95 7.85 -117.9 7.75" fill="#ff68a0" fill-rule="evenodd" stroke="none"/>
  </g>
</svg>
