<?xml version="1.0" encoding="UTF-8" standalone="no"?>
<svg xmlns:xlink="http://www.w3.org/1999/xlink" height="8.4px" width="22.6px" xmlns="http://www.w3.org/2000/svg">
  <g transform="matrix(1.0, 0.0, 0.0, 1.0, 0.0, 0.0)">
    <path d="M21.9 2.75 L22.55 2.9 17.15 6.45 Q13.6 8.4 12.0 8.4 4.4 8.4 1.6 3.0 L3.25 3.25 3.6 3.25 4.9 3.25 5.5 3.2 Q7.3 5.05 11.15 4.7 13.5 4.6 15.3 3.9 15.55 3.45 16.55 3.15 L18.15 3.25 18.95 3.25 18.9 3.5 19.15 4.0 Q19.15 4.6 19.75 4.7 L20.4 4.25 20.15 3.55 20.0 3.2 21.9 2.75 M1.5 1.9 Q3.45 1.55 6.0 0.4 L12.7 0.0 Q14.55 0.0 18.4 1.6 L19.8 2.15 16.4 2.45 Q12.4 1.55 9.7 1.55 5.35 1.55 3.9 2.25 L1.5 1.9 M18.45 5.1 Q18.45 3.7 15.95 4.15 L14.4 4.3 10.8 5.3 11.05 5.9 Q11.7 6.4 13.65 6.4 18.45 6.4 18.45 5.1" fill="#ffe2d5" fill-rule="evenodd" stroke="none"/>
    <path d="M18.95 3.25 L19.0 3.25 20.0 3.2 20.15 3.55 20.4 4.25 19.75 4.7 Q19.15 4.6 19.15 4.0 L18.9 3.5 18.95 3.25 M18.45 5.1 Q18.45 6.4 13.65 6.4 11.7 6.4 11.05 5.9 L10.8 5.3 14.4 4.3 15.95 4.15 Q18.45 3.7 18.45 5.1" fill="#ffffff" fill-rule="evenodd" stroke="none"/>
    <path d="M19.8 2.15 Q22.1 1.8 22.6 1.35 L22.45 2.5 21.9 2.75 20.0 3.2 19.0 3.25 18.95 3.25 18.15 3.25 16.55 3.15 12.2 2.65 16.4 2.45 19.8 2.15 M1.6 3.0 L0.2 2.5 0.0 1.35 1.5 1.9 3.9 2.25 10.4 2.65 5.5 3.2 4.9 3.25 3.6 3.25 3.25 3.25 1.6 3.0" fill="#000000" fill-rule="evenodd" stroke="none"/>
    <path d="M16.4 2.45 L12.2 2.65 16.55 3.15 Q15.55 3.45 15.3 3.9 13.5 4.6 11.15 4.7 7.3 5.05 5.5 3.2 L10.4 2.65 3.9 2.25 Q5.35 1.55 9.7 1.55 12.4 1.55 16.4 2.45" fill="#ffd5c4" fill-rule="evenodd" stroke="none"/>
  </g>
</svg>
