<?xml version="1.0" encoding="UTF-8" standalone="no"?>
<svg xmlns:xlink="http://www.w3.org/1999/xlink" height="41.95px" width="60.75px" xmlns="http://www.w3.org/2000/svg">
  <g transform="matrix(1.0, 0.0, 0.0, 1.0, -88.05, 135.55)">
    <path d="M109.2 -126.75 L113.0 -126.0 116.4 -125.3 Q117.7 -125.3 119.6 -126.05 L119.75 -126.1 119.85 -125.8 120.85 -126.55 122.1 -127.4 122.35 -127.55 125.7 -129.45 129.3 -131.35 Q136.95 -135.3 139.6 -135.4 141.5 -135.9 144.85 -134.45 L148.8 -132.5 Q135.35 -130.3 120.05 -117.55 L125.5 -118.4 Q127.25 -118.4 132.1 -115.5 L135.25 -115.1 140.55 -115.3 135.45 -113.1 Q130.85 -111.25 128.9 -108.9 125.6 -104.95 118.3 -99.55 113.0 -95.7 109.6 -94.05 L109.55 -94.0 Q100.4 -105.3 92.45 -93.6 L90.5 -98.95 Q88.05 -105.2 88.05 -105.75 88.05 -107.3 89.85 -108.55 90.85 -109.25 93.2 -110.6 93.7 -110.95 97.55 -117.55 100.45 -122.6 103.15 -124.65 105.8 -126.75 109.2 -126.75" fill="#a0d000" fill-rule="evenodd" stroke="none"/>
  </g>
</svg>
