<?xml version="1.0" encoding="UTF-8" standalone="no"?>
<svg xmlns:xlink="http://www.w3.org/1999/xlink" height="374.9px" width="356.85px" xmlns="http://www.w3.org/2000/svg">
  <g transform="matrix(1.0, 0.0, 0.0, 1.0, 169.95, 167.4)">
    <path d="M120.85 -126.55 L119.75 -126.1 119.6 -126.05 Q117.7 -125.3 116.4 -125.3 L113.0 -126.0 109.2 -126.75 Q105.8 -126.75 103.15 -124.65 100.45 -122.6 97.55 -117.55 93.7 -110.95 93.2 -110.6 90.85 -109.25 89.85 -108.55 88.05 -107.3 88.05 -105.75 88.05 -105.2 90.5 -98.95 L92.45 -93.6 Q100.4 -105.3 109.55 -94.0 L109.6 -94.05 Q113.0 -95.7 118.3 -99.55 125.6 -104.95 128.9 -108.9 130.85 -111.25 135.45 -113.1 L140.55 -115.3 135.25 -115.1 132.1 -115.5 Q127.25 -118.4 125.5 -118.4 L120.05 -117.55 119.1 -116.75 Q119.95 -122.65 121.9 -125.3 122.95 -126.8 125.7 -129.45 L122.35 -127.55 122.1 -127.4 120.85 -126.55 119.85 -125.8 117.25 -123.35 111.65 -117.8 Q108.05 -114.55 105.25 -109.3 102.4 -104.1 101.3 -103.1 M122.1 -127.4 L121.45 -127.0 120.85 -126.55 M120.05 -117.55 Q135.35 -130.3 148.8 -132.5 L144.85 -134.45 Q141.5 -135.9 139.6 -135.4 136.95 -135.3 129.3 -131.35 L125.7 -129.45 M109.55 -94.0 L109.9 -93.55 113.95 -92.9 114.15 -92.45 Q115.45 -85.85 108.95 -84.3 L108.7 -80.3 112.5 -80.45 Q132.75 -78.1 123.15 -63.75 L123.15 -60.55 119.95 -59.35 Q125.4 -49.85 120.8 -43.2 118.0 -39.15 111.4 -36.15 L109.35 -35.3 107.35 -34.6 110.5 -34.1 111.25 -31.75 115.8 -30.55 Q115.5 -29.15 114.85 -28.0 113.65 -26.05 111.35 -25.0 118.35 -18.05 108.75 -12.35 125.8 -1.4 111.15 6.0 L110.15 6.25 109.8 7.6 100.35 12.05 Q109.05 29.65 82.1 23.75 L80.7 23.8 Q57.95 21.65 49.5 -1.4 48.95 1.4 49.0 4.2 L49.0 5.0 Q54.7 10.55 64.6 20.85 71.55 27.85 76.0 31.0 80.45 28.0 83.65 28.0 L85.5 28.4 85.35 36.4 90.6 41.05 99.8 40.9 Q100.75 39.35 102.2 37.65 106.35 32.75 112.25 30.15 116.5 28.25 122.4 24.2 128.8 19.75 134.05 17.15 152.1 8.2 159.85 9.25 L163.85 9.0 Q166.45 8.15 169.15 8.0 L186.4 6.7 181.05 15.9 Q175.4 25.8 171.75 29.6 169.55 31.95 164.0 35.8 156.75 40.8 152.7 41.25 152.7 41.4 152.5 41.4 162.7 46.5 168.8 54.7 172.95 60.35 174.8 61.35 L176.45 62.0 Q177.6 62.55 178.95 63.65 167.45 62.95 163.8 66.45 160.15 69.95 147.45 66.5 L135.95 63.55 135.05 63.35 134.75 63.35 128.6 62.85 130.6 65.8 Q132.75 69.35 135.4 78.5 L135.8 78.8 Q140.7 82.3 148.8 93.65 163.5 114.1 163.1 143.55 161.95 141.6 158.8 140.0 L155.85 138.55 155.85 139.35 Q155.85 144.45 153.7 147.65 152.0 150.2 148.3 152.35 143.65 154.65 141.25 156.05 139.55 157.0 138.1 158.05 136.25 156.9 133.35 156.55 L133.25 156.55 130.3 155.9 Q129.3 155.35 125.6 151.7 L124.2 150.9 Q122.65 149.7 120.5 146.95 117.2 142.75 115.4 138.95 L111.5 130.6 109.8 134.0 Q104.7 143.15 98.1 144.45 L98.1 142.95 Q98.1 141.05 96.0 138.7 92.6 134.8 91.4 132.85 84.85 122.4 84.65 100.5 80.2 106.55 72.2 114.95 L64.15 123.3 Q62.4 121.6 61.6 120.25 59.95 117.5 59.5 113.05 L57.8 114.6 53.5 118.0 Q58.05 123.0 58.05 126.9 L57.4 131.55 57.85 132.95 54.5 133.75 50.35 135.05 Q53.15 136.7 54.55 138.2 57.2 141.15 57.2 145.8 57.2 149.25 55.05 152.65 52.9 156.0 52.9 156.75 L52.95 157.45 Q51.35 157.7 48.9 158.75 44.1 160.65 40.8 160.65 37.5 160.65 33.25 158.15 31.2 156.95 29.8 155.8 29.55 158.65 28.8 161.55 L27.9 165.45 Q26.4 163.85 23.9 161.9 19.9 158.65 16.0 156.55 12.7 154.8 7.65 149.0 L4.35 145.0 4.65 149.4 Q4.65 156.25 2.8 161.8 0.95 167.35 -1.5 170.75 -3.55 173.5 -4.95 176.55 L-7.05 180.7 -7.2 180.95 -7.2 181.0 -7.55 181.5 -7.6 181.45 -7.65 181.4 -14.95 174.9 Q-20.0 170.1 -22.5 167.0 -28.2 159.95 -30.0 155.1 -31.65 150.65 -31.65 143.3 L-31.5 137.35 -31.5 137.0 -31.4 136.2 -32.0 136.95 -33.8 139.2 Q-38.5 145.15 -41.9 151.65 -47.05 161.45 -49.7 176.4 L-49.7 176.6 Q-50.55 184.45 -55.05 192.1 -58.5 197.9 -64.3 202.25 -67.6 204.7 -70.6 205.9 L-74.35 207.0 Q-71.65 206.25 -70.8 205.4 -69.9 204.5 -69.9 202.45 -71.8 193.2 -71.3 191.75 L-71.3 191.4 -71.45 191.7 Q-74.95 199.05 -79.8 201.05 -82.8 202.25 -91.6 202.25 L-97.65 201.25 Q-97.0 200.6 -96.0 198.45 L-95.85 198.2 -94.35 194.45 Q-91.95 188.0 -90.9 186.3 L-96.5 187.0 -97.75 186.95 -97.2 186.4 Q-94.65 183.85 -93.65 178.0 -91.6 165.95 -89.95 161.3 -87.25 153.55 -75.95 144.85 L-63.55 135.85 -61.25 130.5 Q-58.5 123.35 -56.05 119.9 -53.65 116.5 -51.2 114.1 L-51.3 111.75 Q-51.3 109.8 -51.45 109.5 -51.6 109.1 -52.1 108.95 L-46.95 105.15 -56.15 108.55 Q-62.05 110.85 -68.25 114.2 -72.5 116.5 -81.0 121.8 L-89.8 127.1 -89.95 127.2 -89.95 127.1 -89.95 126.85 Q-89.95 126.25 -90.75 123.9 -91.6 121.55 -91.6 119.55 -91.6 118.15 -90.8 116.3 -98.1 117.1 -106.85 123.1 L-114.85 129.1 -117.6 131.25 Q-116.5 129.05 -116.3 126.8 L-116.3 118.95 Q-116.3 113.25 -114.35 109.75 -112.75 106.85 -109.3 104.7 L-102.65 101.1 -101.1 100.2 Q-103.1 100.0 -105.1 99.3 -108.45 98.0 -109.25 95.75 L-107.8 95.85 Q-106.55 95.85 -102.55 92.1 L-93.7 83.85 Q-79.55 71.8 -65.9 71.8 L-60.5 72.0 -65.55 68.0 Q-69.95 64.55 -71.4 62.4 -75.4 63.55 -75.8 63.8 L-75.85 63.9 -76.0 64.2 Q-82.25 72.8 -87.4 67.95 L-91.75 72.3 Q-103.55 74.4 -110.45 64.45 -100.6 61.5 -96.35 54.65 -96.35 49.7 -98.2 47.2 -99.5 45.5 -101.8 44.6 -108.45 48.3 -105.95 54.75 L-105.8 55.2 -105.8 55.25 -105.85 55.25 Q-115.7 57.3 -116.05 47.6 -136.15 40.85 -118.75 28.6 L-118.75 28.4 -117.6 22.95 Q-126.55 16.6 -118.1 8.0 L-118.0 7.9 -118.15 7.95 Q-130.75 16.65 -140.35 8.15 L-140.5 8.15 Q-164.1 3.65 -145.25 -15.95 -154.0 -14.25 -160.65 -19.55 L-161.45 -20.35 -161.45 -21.45 Q-174.55 -26.55 -166.25 -38.65 L-165.9 -38.8 Q-165.45 -42.9 -162.25 -45.9 L-144.25 -51.5 Q-152.0 -59.95 -162.05 -57.1 L-162.4 -56.85 -162.45 -56.85 -162.5 -56.85 -162.5 -57.0 -162.5 -57.05 Q-165.65 -77.2 -140.5 -74.8 L-137.6 -74.6 Q-135.5 -72.25 -133.1 -70.25 -133.85 -87.8 -123.5 -87.8 L-120.6 -88.0 Q-119.55 -87.9 -119.25 -87.6 -119.05 -87.4 -118.95 -86.7 -108.15 -81.0 -95.55 -83.25 L-94.35 -83.3 Q-92.6 -88.15 -88.25 -90.75 L-88.35 -91.75 Q-88.55 -94.85 -85.65 -96.4 -86.15 -100.35 -82.6 -104.35 -87.45 -109.4 -93.0 -109.35 -95.9 -109.4 -99.4 -108.05 L-98.6 -112.85 -98.8 -115.9 Q-92.65 -126.9 -82.85 -119.6 L-81.95 -119.65 Q-77.15 -119.0 -78.2 -114.1 -77.65 -112.2 -76.6 -110.6 -66.8 -95.45 -48.35 -91.4 L-48.3 -91.4 -48.3 -91.8 Q-51.7 -94.55 -53.05 -96.6 -75.7 -131.75 -36.3 -140.65 -9.85 -142.05 15.15 -153.55 L17.1 -154.45 19.35 -157.55 Q26.1 -166.15 36.4 -166.9 L36.45 -166.9 36.75 -166.9 Q59.9 -160.9 43.85 -148.55 L43.8 -148.55 43.75 -148.5 Q43.6 -148.7 43.6 -148.85 42.3 -154.1 36.7 -152.15 38.6 -149.5 36.9 -146.45 L36.65 -146.0 Q45.55 -139.45 38.4 -128.15 L38.15 -127.7 38.15 -127.65 38.05 -127.65 Q28.95 -127.4 21.75 -120.9 L21.15 -120.15 21.7 -120.1 Q24.95 -119.9 27.3 -117.3 29.6 -114.8 29.85 -111.4 L29.85 -110.55 30.6 -111.45 Q38.25 -123.65 42.35 -109.35 L44.45 -110.2 46.9 -107.35 50.3 -107.55 Q53.0 -106.55 54.25 -102.25 54.9 -99.8 55.0 -97.05 L52.65 -90.7 52.65 -90.55 52.55 -89.8 52.55 -89.75 51.25 -80.8 Q50.15 -75.25 48.3 -72.45 M36.7 -152.15 L32.45 -153.8 33.15 -153.95 Q42.8 -157.7 36.5 -166.25 M36.65 -146.0 Q34.7 -146.7 32.45 -146.7 32.05 -146.7 27.0 -144.5 M17.05 -123.9 Q20.65 -126.55 25.25 -127.0 L25.45 -127.2 Q31.35 -133.9 38.05 -127.75 L38.1 -127.7 38.15 -127.65 M21.15 -120.15 L16.1 -123.2 Q11.0 -123.6 7.7 -118.85 L7.55 -118.6 9.65 -113.4 9.35 -112.9 8.15 -111.1 8.15 -107.85 Q20.6 -101.95 28.4 -87.8 28.75 -87.2 29.5 -86.75 L36.6 -89.35 35.8 -66.25 37.25 -63.85 37.85 -62.5 Q40.05 -57.5 37.0 -54.3 M35.7 -90.7 L26.85 -107.3 29.85 -110.55 M46.9 -107.35 L47.15 -106.55 Q48.3 -101.7 45.25 -97.45 M2.7 -128.4 L17.1 -154.45 M53.45 -89.7 Q54.4 -88.15 55.2 -85.25 56.65 -87.05 57.75 -87.05 59.8 -87.05 60.7 -85.1 L61.05 -77.1 60.3 -76.55 60.3 -76.1 Q59.9 -70.85 54.2 -70.4 L53.05 -70.05 Q48.0 -68.35 46.6 -61.6 L51.8 -61.75 Q55.1 -71.65 65.7 -71.6 L66.45 -72.85 Q74.85 -81.6 88.25 -85.55 90.3 -90.45 92.45 -93.6 M54.2 -70.4 L47.55 -71.5 Q45.1 -71.15 44.0 -68.95 L43.75 -68.4 Q39.85 -68.1 37.8 -64.85 M46.6 -61.6 L46.45 -60.35 Q44.5 -38.45 27.25 -26.0 L27.95 -16.5 28.0 -13.3 28.0 -8.6 Q27.85 1.6 21.4 10.3 L21.45 10.35 Q24.85 13.65 26.75 18.2 37.45 43.8 34.05 71.9 M3.9 -36.35 Q-0.3 -38.7 0.0 -44.05 L0.1 -45.85 1.3 -47.25 Q-2.5 -52.95 -1.7 -57.0 -0.85 -61.35 5.25 -63.75 6.5 -64.3 7.9 -64.45 6.95 -82.6 24.15 -78.6 L29.5 -86.75 M7.25 -73.6 L6.75 -74.0 Q-17.2 -74.4 -35.7 -87.2 M7.0 -39.45 L6.1 -42.15 Q4.4 -47.95 6.1 -52.2 7.9 -56.75 13.55 -59.5 17.1 -64.1 21.8 -61.6 L23.65 -63.75 24.15 -68.4 28.75 -68.85 29.55 -67.95 30.15 -68.1 Q33.5 -69.15 35.8 -66.25 M27.25 -26.0 L26.35 -41.6 29.85 -44.3 Q20.8 -45.0 15.05 -39.5 L14.35 -39.7 Q10.95 -40.2 7.75 -38.65 L7.7 -38.65 7.5 -38.55 7.4 -38.5 4.6 -35.75 3.2 -30.9 Q-2.1 -27.65 -4.5 -22.1 L-4.5 -21.1 Q-4.25 -16.15 0.05 -9.75 L0.15 -9.6 0.6 -10.05 6.1 -9.6 8.8 -8.65 Q12.15 -7.1 12.15 -4.85 M29.4 -16.9 L30.05 -17.1 Q49.1 -24.5 69.25 -21.35 L70.4 -21.6 70.7 -21.65 Q92.1 -28.0 108.75 -12.35 M69.25 -21.35 L70.5 -21.0 Q75.05 -19.8 80.15 -17.55 L97.2 -8.7 M50.05 -3.6 L49.5 -1.4 M29.2 -13.45 Q46.4 -19.1 49.8 -4.7 M108.95 -84.3 L106.2 -83.85 Q101.9 -82.15 98.95 -78.5 L97.55 -76.75 M101.25 -74.7 Q103.75 -78.35 106.85 -79.7 L108.7 -80.3 M91.1 -28.95 Q98.2 -33.9 106.6 -34.6 L107.35 -34.6 M119.95 -59.35 Q108.0 -54.35 97.3 -47.0 73.45 -30.9 45.75 -28.95 M88.25 -85.55 L48.2 -41.05 M108.4 47.0 Q110.55 45.95 125.05 32.4 L133.35 26.9 142.1 21.35 Q157.85 12.75 162.3 11.9 M126.0 42.8 Q130.9 40.75 138.2 38.4 L149.6 34.7 Q161.95 30.5 165.8 25.75 M85.3 41.65 L85.4 46.0 85.5 47.4 87.1 46.75 90.1 45.0 85.3 41.65 85.3 38.3 85.35 36.4 M84.65 100.5 L85.5 99.35 Q90.85 91.6 94.9 80.9 97.95 72.8 98.75 66.9 L98.95 65.1 Q100.1 63.1 100.75 60.2 L101.45 55.55 101.7 50.3 101.7 50.25 Q101.7 45.5 100.35 44.25 99.8 43.7 98.5 43.5 L95.85 43.3 Q92.45 43.3 90.75 44.5 L90.1 45.0 M128.6 62.85 Q124.0 56.85 118.4 56.9 114.3 56.85 112.6 57.5 111.1 58.05 110.55 59.5 L110.5 59.55 Q109.65 64.3 106.8 68.5 104.4 67.25 103.2 65.35 102.3 64.0 100.75 60.2 M153.4 50.05 Q151.65 49.8 141.15 49.8 127.65 49.8 124.7 50.05 118.95 50.5 116.0 52.1 L120.3 53.9 Q129.35 58.1 131.75 58.2 L146.9 59.3 Q156.35 59.95 160.55 59.6 M116.0 52.1 Q109.95 49.8 105.7 49.8 L101.7 50.25 M110.55 59.5 L107.4 58.1 101.45 55.55 M104.2 71.5 L103.9 72.2 106.75 75.1 Q113.85 82.25 118.45 87.85 132.9 105.55 135.7 122.9 M104.6 70.4 L109.0 70.0 115.5 70.75 120.3 71.9 M100.45 137.85 Q100.4 134.45 96.7 124.0 95.5 120.85 95.55 104.9 95.55 96.15 95.7 93.3 95.9 89.75 96.7 87.55 L99.3 82.15 103.9 72.2 98.75 66.9 M65.55 117.35 Q64.95 114.0 70.0 104.8 L81.0 85.35 Q86.8 74.65 86.8 53.25 M135.95 63.55 L135.75 63.3 135.05 63.35 134.95 63.3 134.75 63.35 M135.75 63.3 L134.95 63.3 M135.4 78.5 Q133.8 77.45 131.2 76.15 127.65 74.35 125.55 73.05 M39.9 115.55 Q41.0 113.85 50.4 102.95 60.85 90.85 70.1 78.1 80.55 63.7 84.0 56.15 85.25 53.3 87.1 46.75 M48.7 -3.45 Q38.3 3.6 44.35 14.35 36.85 16.35 38.25 24.4 39.05 29.15 43.55 31.0 34.75 47.95 50.6 59.15 L50.15 47.7 Q49.55 33.25 49.25 18.75 L49.05 9.8 49.0 5.0 M49.05 9.8 Q52.5 13.95 56.1 17.1 L54.6 17.45 49.25 18.75 M59.1 21.3 Q58.85 24.25 58.0 26.45 L57.6 27.55 Q57.05 28.95 57.05 29.8 57.45 30.2 58.0 30.45 L59.25 30.7 Q59.45 29.3 59.95 28.55 L60.1 28.25 Q60.4 27.9 60.8 27.7 L63.1 27.5 Q67.35 27.5 68.15 34.65 L68.3 37.35 72.9 33.3 73.05 33.2 68.3 28.5 62.45 22.25 59.15 19.6 59.1 21.3 M57.6 27.55 L55.65 26.6 51.55 26.6 M58.0 30.45 Q55.5 33.55 51.1 37.9 M59.75 39.2 Q59.75 36.8 58.85 32.05 M52.55 46.55 L64.65 40.2 68.3 37.35 M73.05 33.2 L76.0 31.0 M21.4 10.3 L21.0 10.8 Q10.6 24.0 7.7 40.45 L6.75 40.3 4.65 39.75 Q-7.45 48.85 -11.9 37.65 L-12.0 36.75 -12.35 37.05 Q-13.25 37.7 -14.45 37.9 -16.75 38.45 -17.75 36.35 L-22.85 35.75 -18.1 26.5 Q-21.65 28.95 -26.7 31.55 L-26.8 31.6 -27.65 32.05 Q-35.2 35.85 -36.65 38.75 M4.65 39.75 Q-3.65 37.1 0.7 30.7 L0.75 30.65 0.7 30.65 0.65 30.65 Q-7.65 23.05 3.25 16.1 -1.05 13.35 -3.35 10.35 L-6.05 2.45 Q-7.05 1.95 -8.15 0.55 -9.85 -1.7 -9.9 -3.75 L-9.9 1.9 -11.45 1.9 Q-12.25 1.0 -12.3 -0.5 L-16.4 2.1 -16.6 6.45 -18.35 6.15 -18.8 2.95 -19.0 3.95 -21.75 4.45 -22.05 2.75 -22.2 3.0 -24.4 3.0 -24.6 1.8 -25.05 2.55 Q-27.75 6.8 -31.15 10.35 -36.1 15.4 -42.4 18.85 L-42.8 19.05 -43.3 19.25 -43.5 19.35 -43.55 19.4 -43.6 19.4 -53.5 22.3 Q-59.65 24.35 -60.3 28.45 L-49.45 24.7 M7.05 42.05 Q7.5 43.95 8.35 45.7 20.7 71.2 20.7 94.65 L25.4 106.15 30.35 107.05 31.15 107.15 32.65 106.7 33.3 104.6 Q45.25 106.3 44.4 93.4 L46.0 92.75 46.35 88.4 Q45.75 83.75 39.8 77.6 M20.7 94.65 L18.5 94.75 18.3 97.45 11.35 97.35 9.8 93.15 5.7 92.7 3.85 96.8 -0.9 96.0 Q-1.8 98.45 -3.65 98.75 L-6.45 106.1 -6.25 106.2 Q11.15 101.9 22.45 102.9 M50.6 59.15 L59.05 73.65 56.8 76.2 57.15 81.55 52.4 82.05 52.4 82.9 Q52.45 89.4 46.35 88.4 M56.1 58.2 Q70.0 50.65 74.1 48.8 82.05 45.15 85.4 46.0 M30.35 107.05 L30.35 109.25 Q31.05 111.9 32.55 115.2 L34.65 120.3 36.45 120.1 Q38.35 120.1 40.5 120.8 L44.8 121.45 Q48.5 121.45 53.5 118.0 M50.35 135.05 L48.4 134.0 M4.35 145.0 Q3.75 140.55 2.0 136.55 -0.65 130.55 -4.1 125.95 L-8.3 119.9 Q-13.7 110.3 -13.35 107.05 -13.1 104.2 -15.4 102.45 -16.0 102.0 -16.65 101.7 -18.15 100.9 -19.95 100.9 L-22.75 101.2 -24.35 101.9 -24.4 101.9 Q-25.45 102.6 -26.5 104.5 -27.95 106.9 -28.85 107.9 -30.0 109.15 -31.55 110.2 -27.85 111.35 -21.45 122.45 -14.85 134.1 -13.0 142.3 -11.5 148.9 -11.2 155.55 -11.0 159.25 -11.05 165.6 -10.9 170.9 -9.8 174.85 L-8.25 178.6 M26.9 159.5 L23.85 149.5 Q21.2 141.5 18.35 137.45 2.6 114.95 -9.4 104.9 L-9.5 104.85 -11.65 103.1 -12.6 103.1 Q-10.55 102.55 -8.65 100.45 L-6.9 98.15 Q-8.9 97.4 -10.3 96.35 L-12.3 98.6 Q-14.55 100.75 -16.65 101.7 M-6.25 106.2 Q13.85 115.35 32.95 132.3 40.55 139.0 45.45 147.3 L49.9 155.7 M112.45 94.0 Q112.55 102.0 111.2 106.0 109.8 110.2 109.8 117.8 109.8 125.45 110.6 128.25 L111.5 130.6 M82.1 23.75 L68.0 9.15 M59.5 113.05 Q66.7 105.95 69.2 97.5 M-15.35 -112.5 Q-20.1 -116.05 -25.6 -114.5 L-26.45 -114.25 -28.45 -115.85 Q-34.5 -118.1 -38.55 -113.25 L-39.1 -112.45 -41.25 -113.25 Q-48.6 -112.25 -49.25 -104.25 -49.55 -100.7 -46.45 -99.1 M-81.6 -104.05 L-78.2 -103.65 -78.15 -108.35 Q-79.95 -111.25 -78.2 -114.1 M7.15 -110.4 Q2.65 -111.15 -0.45 -114.95 -2.3 -117.35 -0.25 -119.45 L-1.3 -121.6 -0.55 -125.1 Q-1.35 -131.55 -7.95 -131.3 L-8.5 -131.15 Q-21.35 -136.75 -22.5 -122.55 -26.9 -121.7 -28.05 -117.3 L-28.45 -115.85 M-41.35 -114.3 Q-42.55 -126.4 -37.75 -137.5 L-36.3 -140.65 M-94.35 -83.3 Q-97.6 -73.7 -87.95 -75.25 L-87.6 -72.95 -86.45 -72.15 -86.0 -70.85 Q-79.55 -58.55 -64.4 -59.25 M-109.4 -64.45 Q-118.8 -62.7 -119.35 -70.5 L-119.3 -71.25 Q-125.1 -77.2 -118.95 -86.7 M-102.5 -66.2 L-104.3 -66.2 Q-105.5 -65.5 -107.0 -64.7 -110.75 -62.55 -108.7 -59.05 -111.65 -51.1 -101.15 -52.65 L-98.15 -51.1 -98.05 -51.1 -89.7 -51.6 -86.9 -49.4 Q-80.75 -45.45 -76.3 -50.95 -70.7 -48.0 -65.35 -48.85 -61.65 -49.45 -58.0 -51.95 -56.55 -50.4 -54.6 -50.8 -48.05 -52.1 -45.45 -57.0 L-45.15 -57.65 -41.35 -57.9 -40.0 -62.7 Q-46.95 -60.9 -48.25 -67.85 L-48.4 -68.75 -48.6 -67.95 -48.65 -67.8 Q-52.2 -56.75 -62.8 -59.4 -65.5 -61.25 -64.85 -64.5 L-64.7 -65.1 Q-66.85 -65.6 -67.35 -69.45 -66.05 -72.2 -63.7 -74.05 -91.8 -71.4 -77.45 -89.9 L-77.05 -90.45 -77.55 -90.35 -77.9 -90.25 Q-84.5 -89.8 -85.65 -96.4 M-133.1 -70.25 Q-128.1 -66.15 -121.75 -63.7 M-104.55 -42.95 Q-119.25 -42.35 -133.7 -45.3 L-134.15 -45.45 -134.25 -45.5 -134.35 -45.55 -134.45 -45.6 -134.9 -45.75 -134.95 -45.75 Q-138.5 -47.25 -144.25 -51.5 M-100.65 -38.4 Q-109.2 -30.05 -120.3 -29.7 L-122.55 -29.7 -123.2 -29.8 -125.2 -29.1 -128.1 -23.6 Q-134.55 -11.5 -120.8 -8.85 L-120.15 -8.0 Q-119.45 -7.0 -118.3 -6.4 -116.95 -5.8 -115.55 -5.65 L-130.9 1.4 M-162.25 -45.9 Q-154.3 -42.45 -146.35 -46.6 L-145.35 -46.0 Q-140.5 -42.7 -135.25 -45.1 M-149.4 -20.8 L-161.45 -21.45 M-130.5 -21.85 L-145.25 -15.95 M-96.0 1.8 L-96.35 -1.45 Q-95.7 -1.6 -95.2 -1.95 -81.35 -12.4 -75.55 -30.65 -78.7 -26.25 -83.35 -28.2 L-84.35 -28.75 Q-87.4 -23.1 -93.45 -20.35 L-98.85 -20.35 -99.05 -22.55 -106.85 -21.5 -106.3 -24.35 -115.0 -23.95 -115.25 -25.85 -113.9 -27.2 -117.1 -26.3 -120.3 -29.1 M-98.5 -50.45 L-103.5 -43.0 -105.0 -41.45 -100.0 -39.05 Q-87.0 -37.55 -75.25 -40.25 L-75.1 -40.3 -75.1 -40.25 -75.1 -39.5 -75.1 -39.4 -75.1 -39.35 Q-74.1 -34.35 -68.7 -33.9 L-68.15 -33.9 -68.0 -33.9 -63.25 -34.5 Q-60.95 -35.3 -58.9 -36.35 -51.0 -40.35 -46.5 -47.55 L-46.2 -47.4 Q-38.45 -44.55 -29.05 -51.35 L-31.9 -54.15 Q-33.2 -55.4 -33.65 -57.0 -34.75 -60.5 -30.7 -64.5 -35.65 -63.2 -37.0 -67.7 -37.5 -69.25 -36.65 -70.5 -49.1 -79.35 -38.1 -85.55 -45.15 -85.1 -48.15 -90.8 L-48.3 -91.4 M-118.0 7.9 L-117.95 7.85 -117.95 7.8 -117.9 7.75 Q-114.6 5.15 -111.1 5.1 L-111.2 4.15 Q-111.2 0.9 -108.35 0.4 -107.6 -10.95 -97.55 -7.5 L-96.7 -6.95 M-48.3 -91.8 L-47.85 -96.15 -45.85 -96.4 -46.2 -98.35 M-63.7 -74.05 Q-61.5 -75.0 -59.25 -76.4 -61.85 -75.55 -63.7 -74.05 M-24.6 1.8 L-24.15 0.15 -26.8 2.85 -29.1 2.95 -29.1 1.45 -25.0 -3.55 -28.3 -0.55 -30.85 -0.5 -30.25 -2.4 -31.15 -1.9 -33.9 -2.1 -33.85 -4.6 -35.25 -2.45 -38.9 -2.6 Q-39.95 -5.35 -37.3 -7.3 L-40.45 -7.6 -40.35 -12.4 -41.5 -9.2 -44.55 -9.0 -44.65 -9.0 -47.25 -9.15 Q-48.7 -12.7 -45.05 -15.0 L-49.85 -16.25 -50.1 -18.3 -52.95 -18.5 -50.7 -22.25 -52.8 -22.7 -55.05 -19.75 -57.05 -20.25 -56.25 -23.75 -59.5 -24.0 -59.75 -25.1 Q-58.5 -28.05 -55.25 -27.25 L-54.15 -30.5 Q-52.85 -30.0 -53.5 -30.9 L-53.75 -31.4 -52.95 -32.85 -54.6 -33.55 -59.15 -32.75 -58.9 -36.35 M-68.8 -32.7 Q-70.75 -30.35 -74.55 -30.85 L-75.55 -30.65 M-63.25 -34.5 Q-62.7 -28.65 -65.35 -23.75 L-67.2 -21.0 -68.35 -19.45 Q-66.95 -15.4 -67.35 -10.9 -67.85 -5.9 -72.35 -5.15 L-73.6 -4.0 Q-74.35 -2.85 -75.85 -2.95 -76.75 -3.0 -77.45 -3.45 L-79.95 2.3 Q-74.8 6.05 -74.65 12.1 L-74.7 12.55 -72.35 14.9 -72.35 20.0 -74.2 20.0 -72.35 21.4 -72.95 24.45 M-58.9 -18.6 Q-65.15 -6.05 -59.9 6.45 L-59.35 7.45 -58.6 -0.7 -57.65 -0.8 Q-50.35 -3.85 -48.75 -13.85 M-44.6 -9.0 L-44.55 -9.05 Q-44.35 -9.2 -44.45 -10.6 L-44.65 -9.0 -44.6 -9.0 M-21.55 -12.15 L-23.2 -12.1 -24.95 -11.05 -24.75 -9.5 -20.7 -10.7 -21.35 -8.7 -19.2 -8.95 -16.2 -13.4 -16.8 -8.7 -12.3 -9.35 -14.6 -6.5 -14.6 -5.65 -11.65 -5.65 -9.7 -7.85 -9.4 -9.35 -7.55 -12.35 -9.7 -10.4 -11.45 -10.4 -11.45 -12.8 -10.2 -13.9 -13.15 -15.2 -24.1 -15.75 Q-28.4 -16.3 -31.5 -19.25 -34.35 -21.85 -35.7 -25.5 L-34.95 -25.5 -34.95 -26.65 -40.55 -32.45 Q-39.65 -34.25 -38.6 -37.25 L-36.75 -37.15 Q-35.85 -38.6 -35.85 -36.25 L-32.75 -36.35 Q-31.9 -36.8 -32.45 -37.6 -34.1 -39.95 -34.35 -40.85 L-31.55 -41.6 -30.7 -43.9 -29.1 -43.45 -29.85 -40.6 -27.9 -40.5 -27.85 -38.9 -26.75 -38.9 -21.35 -43.2 -22.65 -41.7 -22.65 -40.2 -20.7 -40.2 -17.05 -41.05 Q-20.95 -39.65 -20.9 -35.9 -17.45 -36.0 -15.1 -38.7 L-15.3 -36.55 -17.05 -35.1 -17.5 -32.4 -12.95 -33.05 -15.75 -31.0 -15.95 -30.05 -14.0 -30.05 -11.45 -31.55 -12.9 -28.45 -9.75 -28.15 -7.95 -28.15 -7.6 -28.15 -6.55 -32.15 Q-9.85 -35.45 -10.2 -40.15 L-10.25 -41.45 Q-13.75 -43.45 -14.35 -47.35 -14.65 -49.45 -13.9 -51.6 -16.6 -48.7 -20.3 -47.4 -23.65 -46.15 -26.2 -48.6 L-29.05 -51.35 M-4.5 -21.1 L-5.0 -21.6 -5.0 -21.65 Q-7.75 -24.35 -7.95 -28.05 L-7.95 -28.15 M-32.75 -36.35 Q-30.45 -29.65 -27.4 -27.1 -24.4 -24.45 -18.55 -24.45 -13.8 -24.45 -12.35 -25.2 -11.05 -25.9 -9.75 -28.15 M-23.2 -12.1 L-24.6 -13.45 -26.95 -14.15 -26.55 -11.95 -31.35 -13.15 -34.55 -13.25 -34.3 -19.05 -36.25 -14.85 -38.6 -14.7 -38.6 -16.25 -35.35 -22.1 -37.7 -23.75 -37.1 -24.85 -38.4 -27.85 M-13.15 -15.2 Q-13.05 -16.2 -11.4 -16.75 L-13.65 -17.45 -13.5 -19.0 -12.1 -19.65 -9.8 -19.4 M-12.25 -1.0 Q-12.4 -2.4 -12.3 -0.5 L-12.25 -1.0 M-9.7 -17.1 L-11.4 -16.75 M-8.85 -14.7 L-10.2 -13.9 M-6.8 6.5 Q-10.0 8.0 -12.2 10.35 -15.8 14.05 -16.7 19.85 L-16.85 21.05 Q-17.15 24.05 -18.1 26.5 M-16.85 21.05 L-20.7 25.4 Q-30.15 24.55 -35.25 31.45 L-34.2 33.8 -37.55 34.7 -37.45 38.15 M-31.5 46.35 L-44.0 52.55 Q-36.75 56.15 -33.35 58.4 -35.2 53.55 -32.1 47.65 L-31.5 46.35 Q-27.65 40.0 -26.7 32.95 M-34.2 -0.4 Q-38.7 6.25 -45.5 10.35 -49.3 12.6 -53.85 14.1 -54.4 14.2 -54.8 14.6 L-53.5 22.3 M-43.6 19.4 L-43.6 19.35 -43.55 19.2 -43.45 18.9 -43.15 18.4 -43.15 18.35 Q-40.8 14.2 -37.9 10.35 -33.95 4.95 -29.05 -0.05 M-54.8 14.6 L-59.35 7.45 M-71.65 24.5 Q-66.4 27.9 -63.6 32.85 L-62.9 32.3 -62.6 30.85 Q-62.1 28.25 -64.1 26.65 L-66.45 24.8 -64.85 24.45 -64.8 24.3 Q-64.85 17.8 -71.3 16.05 M-29.8 38.15 Q-37.35 42.1 -43.75 47.45 L-44.45 48.1 Q-52.0 47.7 -57.95 51.85 -59.4 52.85 -60.15 54.45 -71.05 55.2 -75.8 63.8 L-75.85 63.85 -75.85 63.9 -75.9 63.95 -76.0 64.2 M-38.9 37.8 L-42.85 35.95 -42.75 30.65 Q-51.2 30.8 -60.75 35.75 L-62.9 32.3 M-60.3 28.45 Q-62.0 29.7 -62.6 30.85 M-44.0 52.55 L-44.1 52.6 Q-49.9 55.3 -54.7 57.2 L-36.4 69.75 M-60.5 72.0 Q-56.3 72.35 -53.85 73.35 -53.2 73.6 -49.2 75.55 L-41.45 78.9 M-54.7 57.2 Q-59.95 59.25 -64.05 60.4 L-71.4 62.4 M-8.75 70.55 Q-7.45 61.3 -9.65 52.45 L-9.8 51.95 M-33.35 58.4 Q-32.6 60.45 -30.9 62.3 -26.95 58.25 -26.15 52.35 M-29.6 85.35 L-27.75 89.35 Q-27.2 90.6 -27.2 92.45 L-27.35 95.75 Q-27.6 96.7 -28.75 97.75 -27.75 97.2 -26.85 97.25 L-25.3 97.4 -22.15 97.95 Q-19.05 97.95 -17.75 96.55 -16.4 95.1 -16.35 91.65 -16.35 89.2 -17.15 86.65 L-18.05 84.55 Q-42.0 82.55 -30.9 62.3 M-28.75 97.75 L-29.35 98.1 -29.95 98.55 M-29.95 96.9 L-39.45 96.2 Q-42.15 96.15 -45.15 98.05 L-48.2 99.95 Q-54.85 98.55 -56.7 98.55 -66.0 98.55 -76.65 107.6 -86.7 116.15 -88.2 123.65 M-10.3 96.35 Q-15.25 92.6 -13.2 84.75 L-18.05 84.55 M-3.65 98.75 L-5.55 98.6 -6.9 98.15 M-111.2 121.3 Q-98.35 104.95 -76.6 97.35 -55.1 89.85 -28.6 92.15 M-79.95 2.3 Q-83.95 6.3 -88.95 2.1 L-89.95 1.35 -91.1 3.05 -96.35 2.9 M-73.3 25.4 Q-77.35 29.55 -84.35 25.25 L-84.95 24.9 Q-85.4 5.9 -103.55 2.15 L-108.35 0.4 M-117.95 7.85 L-117.9 7.75 M-98.85 19.6 Q-107.45 23.4 -116.75 23.1 L-117.6 22.95 M-107.55 42.2 Q-110.3 46.5 -112.1 47.3 L-116.05 47.6 M-72.75 25.85 Q-76.1 31.85 -82.5 35.0 L-84.0 35.85 -101.8 44.6 M-87.4 67.95 L-89.6 65.15 -89.85 64.35 M-84.7 36.9 L-96.35 54.65 M-88.65 112.5 L-91.25 112.45 Q-97.0 112.45 -99.05 114.85 L-101.15 117.1 Q-102.75 118.55 -105.45 119.55 -109.45 121.05 -112.35 125.6 L-114.85 129.1 M-9.5 104.85 L-9.35 104.85 -6.45 106.1 M-25.3 97.4 L-24.1 99.6 -22.75 101.2 M-24.35 101.9 Q-24.8 101.3 -26.4 101.3 L-30.85 102.15 -33.15 102.75 Q-33.0 103.35 -33.0 104.3 -33.0 105.95 -33.7 107.7 L-35.0 111.0 Q-33.4 110.05 -32.35 110.1 L-31.55 110.2 M-33.15 102.75 Q-33.35 101.95 -33.7 101.6 -34.45 100.9 -36.9 100.9 -40.4 100.9 -45.9 104.45 L-46.6 104.9 -46.95 105.15 M-35.0 111.0 Q-38.95 113.2 -46.4 120.8 -58.0 132.6 -67.9 147.7 -72.25 154.25 -77.25 165.25 L-83.85 179.85 Q-90.4 193.35 -93.3 198.2 L-94.2 199.55 M-49.7 176.4 Q-49.45 167.4 -48.9 161.9 -48.0 151.9 -45.0 146.6 -42.8 142.7 -38.45 138.45 M-51.2 114.1 Q-45.05 107.95 -39.1 108.35 M-6.05 2.45 Q-5.8 -3.2 0.15 -9.6 M9.35 -112.9 Q1.2 -116.25 -0.55 -125.1" fill="none" stroke="#000000" stroke-linecap="round" stroke-linejoin="round" stroke-width="1.0"/>
  </g>
</svg>
