<?xml version="1.0" encoding="UTF-8" standalone="no"?>
<svg xmlns:xlink="http://www.w3.org/1999/xlink" height="67.0px" width="87.2px" xmlns="http://www.w3.org/2000/svg">
  <g transform="matrix(1.0, 0.0, 0.0, 1.0, 37.8, 36.4)">
    <path d="M-34.45 -27.95 L-32.15 -30.75 -31.7 -30.0 -34.45 -27.95" fill="#014bba" fill-rule="evenodd" stroke="none"/>
    <path d="M43.75 24.95 L43.7 25.0 43.5 24.8 43.75 24.95" fill="#0068ff" fill-rule="evenodd" stroke="none"/>
    <path d="M43.7 25.0 L42.9 25.8 Q37.6 30.45 30.45 30.6 L30.05 30.6 -18.45 30.6 -18.85 30.6 Q-24.85 30.5 -29.55 27.15 L-29.75 27.0 -31.3 25.75 -31.35 25.7 -32.15 24.95 -33.1 23.95 Q-37.7 18.65 -37.8 11.6 L-37.8 -17.4 Q-37.7 -23.3 -34.45 -27.95 L-31.7 -30.0 Q-27.4 -32.7 -22.05 -32.8 L-21.65 -32.8 26.85 -32.8 27.25 -32.8 30.5 -32.45 Q35.55 -31.6 39.55 -28.1 L39.95 -27.7 40.35 -27.35 40.55 -27.15 Q46.1 -21.55 46.2 -13.8 L46.2 15.2 Q46.1 20.5 43.5 24.8 L43.7 25.0" fill="#cc0000" fill-rule="evenodd" stroke="none"/>
    <path d="M-32.15 -30.75 Q-26.6 -36.25 -18.85 -36.4 L-18.45 -36.4 30.05 -36.4 30.45 -36.4 30.5 -36.4 Q37.5 -36.25 42.75 -31.7 L43.15 -31.3 43.55 -30.95 43.75 -30.75 Q49.3 -25.15 49.4 -17.4 L49.4 11.6 Q49.3 19.35 43.75 24.95 L43.5 24.8 Q46.1 20.5 46.2 15.2 L46.2 -13.8 Q46.1 -21.55 40.55 -27.15 L40.35 -27.35 39.95 -27.7 39.55 -28.1 Q35.55 -31.6 30.5 -32.45 L27.25 -32.8 26.85 -32.8 -21.65 -32.8 -22.05 -32.8 Q-27.4 -32.7 -31.7 -30.0 L-32.15 -30.75" fill="#990000" fill-rule="evenodd" stroke="none"/>
  </g>
</svg>
