<?xml version="1.0" encoding="UTF-8" standalone="no"?>
<svg xmlns:xlink="http://www.w3.org/1999/xlink" height="374.0px" width="356.0px" xmlns="http://www.w3.org/2000/svg">
  <g transform="matrix(1.0, 0.0, 0.0, 1.0, 0.1, 0.05)">
    <path d="M207.85 38.75 L207.6 39.2 207.6 39.25 207.55 39.2 207.5 39.15 207.85 38.75 M240.15 145.25 L239.95 145.9 239.85 145.3 240.15 145.25 M169.5 157.15 L170.05 156.85 169.65 157.25 169.5 157.15 M169.6 157.3 L169.65 157.25 169.6 157.3 M190.9 177.25 L190.45 177.7 190.85 177.2 190.9 177.25 M105.85 199.75 L105.8 199.7 106.55 199.2 105.85 199.75" fill="#ff6800" fill-rule="evenodd" stroke="none"/>
    <path d="M254.1 267.4 Q249.65 273.45 241.65 281.85 L233.6 290.2 Q231.85 288.5 231.05 287.15 229.4 284.4 228.95 279.95 L227.25 281.5 222.95 284.9 Q217.95 288.35 214.25 288.35 L209.95 287.7 Q207.8 287.0 205.9 287.0 L204.1 287.2 202.0 282.1 Q200.5 278.8 199.8 276.15 L199.8 273.95 200.6 274.05 202.1 273.6 202.75 271.5 Q214.7 273.2 213.85 260.3 L215.45 259.65 215.8 255.3 Q221.9 256.3 221.85 249.8 L221.85 248.95 226.6 248.45 226.25 243.1 228.5 240.55 220.05 226.05 219.6 214.6 Q219.0 200.15 218.7 185.65 L224.05 184.35 Q224.85 184.1 225.55 184.0 221.95 180.85 218.5 176.7 L218.45 171.9 226.8 180.3 234.05 187.75 Q241.0 194.75 245.45 197.9 249.9 194.9 253.1 194.9 254.2 194.9 254.95 195.3 L254.8 203.3 254.75 205.2 254.75 208.55 254.85 212.9 254.95 214.3 256.55 213.65 259.55 211.9 260.2 211.4 Q261.9 210.2 265.3 210.2 L267.95 210.4 Q269.25 210.6 269.8 211.15 271.15 212.4 271.15 217.15 L271.15 217.2 270.9 222.45 270.2 227.1 Q269.55 230.0 268.4 232.0 L268.2 233.8 Q267.4 239.7 264.35 247.8 260.3 258.5 254.95 266.25 L254.1 267.4 M173.8 311.9 L174.1 316.3 Q174.1 323.15 172.25 328.7 170.4 334.25 167.95 337.65 165.9 340.4 164.5 343.45 L162.4 347.6 161.8 348.3 154.5 341.8 Q149.45 337.0 146.95 333.9 141.25 326.85 139.45 322.0 137.8 317.55 137.8 310.2 137.8 305.55 137.95 304.25 L137.95 303.9 138.05 303.1 137.45 303.85 135.65 306.1 Q130.95 312.05 127.55 318.55 122.4 328.35 119.75 343.3 L119.75 343.5 Q118.9 351.35 114.4 359.0 110.95 364.8 105.15 369.15 101.85 371.6 98.9 372.8 L98.65 372.3 Q99.55 371.4 99.55 369.35 97.65 360.1 98.15 358.65 L98.15 358.3 98.0 358.6 Q94.5 365.95 89.65 367.95 86.65 369.15 77.85 369.15 73.65 368.15 71.8 368.15 L73.45 365.35 73.6 365.1 75.1 361.35 Q77.5 354.9 78.55 353.2 L72.95 353.9 72.25 353.3 Q74.8 350.75 75.8 344.9 77.85 332.85 79.5 328.2 82.2 320.45 93.5 311.75 101.9 305.95 105.9 302.75 L108.2 297.4 Q110.95 290.25 113.4 286.8 115.8 283.4 118.25 281.0 L118.15 278.65 118.0 276.4 117.35 275.85 122.5 272.05 122.85 271.8 123.55 271.35 Q129.05 267.8 132.55 267.8 135.0 267.8 135.75 268.5 L136.3 269.65 136.45 271.2 Q136.45 272.85 135.75 274.6 L134.45 277.9 Q136.05 276.95 137.1 277.0 L137.9 277.1 140.6 274.8 142.95 271.4 Q144.0 269.5 145.05 268.8 L145.1 268.8 Q145.75 268.35 146.7 268.1 L149.5 267.8 Q151.3 267.8 152.8 268.6 L154.05 269.35 Q156.35 271.1 156.1 273.95 155.75 277.2 161.15 286.8 162.3 288.85 165.35 292.85 168.8 297.45 171.45 303.45 173.2 307.45 173.8 311.9 M79.5 294.0 L79.5 293.75 79.65 294.0 79.5 294.0 M261.9 73.3 L259.95 67.95 Q257.5 61.7 257.5 61.15 257.5 59.6 259.3 58.35 260.3 57.65 262.65 56.3 L267.0 49.35 Q269.9 44.3 272.6 42.25 275.25 40.15 278.65 40.15 L282.45 40.9 285.85 41.6 Q287.15 41.6 289.05 40.85 L289.2 40.8 289.4 41.05 290.3 40.35 291.55 39.5 291.8 39.35 Q293.05 38.55 295.15 37.45 L298.75 35.55 Q306.4 31.6 309.05 31.5 310.95 31.0 314.3 32.45 316.05 33.2 318.25 34.4 304.8 36.6 289.5 49.35 L294.95 48.5 Q296.7 48.5 301.55 51.4 L304.7 51.8 310.0 51.6 304.9 53.8 Q300.3 55.65 298.35 58.0 295.05 61.95 287.75 67.35 282.45 71.2 279.05 72.85 L279.0 72.9 Q269.85 61.6 261.9 73.3 M288.7 49.2 L288.7 49.15 Q289.55 44.0 291.35 41.6 292.4 40.1 295.15 37.45 292.4 40.1 291.35 41.6 289.55 44.0 288.7 49.15 L288.7 49.2 288.55 50.15 289.5 49.35 288.7 49.2 M289.4 41.05 L289.3 41.1 286.7 43.55 281.1 49.1 Q277.5 52.35 274.7 57.6 271.85 62.8 270.75 63.8 271.85 62.8 274.7 57.6 277.5 52.35 281.1 49.1 L286.7 43.55 289.3 41.1 289.4 41.05 M228.55 188.2 Q228.3 191.15 227.45 193.35 L227.05 194.45 Q226.5 195.85 226.5 196.7 L227.45 197.35 228.7 197.6 Q228.9 196.2 229.4 195.45 L229.55 195.15 230.25 194.6 232.55 194.4 Q236.8 194.4 237.6 201.55 L237.75 204.25 242.35 200.2 242.5 200.1 237.75 195.4 231.9 189.15 228.6 186.5 228.55 188.2 M221.0 193.5 L225.1 193.5 227.05 194.45 225.1 193.5 221.0 193.5 M160.05 271.8 L160.05 271.75 160.1 271.75 160.05 271.8 M130.35 275.25 Q124.4 274.85 118.25 281.0 124.4 274.85 130.35 275.25 M161.2 345.5 Q160.05 343.25 159.65 341.75 158.55 337.8 158.4 332.5 L158.25 322.45 Q157.95 315.8 156.45 309.2 154.6 301.0 148.0 289.35 141.6 278.25 137.9 277.1 141.6 278.25 148.0 289.35 154.6 301.0 156.45 309.2 157.95 315.8 158.25 322.45 L158.4 332.5 Q158.55 337.8 159.65 341.75 160.05 343.25 161.2 345.5 M75.25 366.45 L76.15 365.1 Q79.05 360.25 85.6 346.75 L92.2 332.15 Q97.2 321.15 101.55 314.6 111.45 299.5 123.05 287.7 130.5 280.1 134.45 277.9 130.5 280.1 123.05 287.7 111.45 299.5 101.55 314.6 97.2 321.15 92.2 332.15 L85.6 346.75 Q79.05 360.25 76.15 365.1 L75.25 366.45 M131.0 305.35 Q126.65 309.6 124.45 313.5 121.45 318.8 120.55 328.8 120.0 334.3 119.75 343.3 120.0 334.3 120.55 328.8 121.45 318.8 124.45 313.5 126.65 309.6 131.0 305.35 M209.35 282.45 Q210.45 280.75 219.85 269.85 230.3 257.75 239.55 245.0 250.0 230.6 253.45 223.05 254.7 220.2 256.55 213.65 254.7 220.2 253.45 223.05 250.0 230.6 239.55 245.0 230.3 257.75 219.85 269.85 210.45 280.75 209.35 282.45 M225.55 225.1 Q239.45 217.55 243.55 215.7 251.5 212.05 254.85 212.9 251.5 212.05 243.55 215.7 239.45 217.55 225.55 225.1 M228.3 198.95 Q229.2 203.7 229.2 206.1 229.2 203.7 228.3 198.95 M222.0 213.45 L234.1 207.1 237.75 204.25 234.1 207.1 222.0 213.45 M256.25 220.15 Q256.25 241.55 250.45 252.25 L239.45 271.7 Q234.4 280.9 235.0 284.25 234.4 280.9 239.45 271.7 L250.45 252.25 Q256.25 241.55 256.25 220.15 M238.65 264.4 Q236.15 272.85 228.95 279.95 236.15 272.85 238.65 264.4 M220.55 204.8 L227.45 197.35 220.55 204.8 M245.45 197.9 Q244.0 198.85 242.5 200.1 244.0 198.85 245.45 197.9" fill="#a0d000" fill-rule="evenodd" stroke="none"/>
    <path d="M98.9 372.8 L98.85 372.8 95.1 373.9 Q97.7 373.2 98.6 372.35 L98.65 372.3 98.9 372.8 M8.0 146.55 L8.0 145.45 8.05 145.45 8.0 146.55 M251.55 190.65 L250.15 190.7 250.9 189.95 251.55 190.65 M177.2 128.25 L177.15 128.25 176.95 128.35 176.45 127.45 177.2 128.25 M219.35 163.75 L218.15 163.45 218.5 163.05 219.35 163.75 M35.75 121.6 L34.2 121.8 34.5 121.15 34.55 121.15 35.0 121.3 35.1 121.35 35.15 121.4 35.2 121.4 35.3 121.45 35.75 121.6 M127.95 157.7 L129.1 154.5 129.05 157.7 127.95 157.7 M141.1 167.45 L140.35 168.3 139.6 167.7 140.4 166.85 141.1 167.45 M126.0 185.8 L126.3 185.25 126.3 185.3 126.0 185.8 M126.9 185.8 L126.65 185.95 126.9 185.8 126.65 185.95 126.3 185.25 127.05 185.75 126.95 185.8 126.9 185.8 M142.2 198.75 L142.75 198.45 142.65 198.5 142.45 198.65 142.2 198.75" fill="#3399ff" fill-rule="evenodd" stroke="none"/>
    <path d="M205.85 0.0 L205.9 0.0 205.95 0.65 205.85 0.0 M169.65 157.25 L170.05 156.85 169.6 157.3 169.65 157.25 M136.7 130.55 Q137.55 130.1 137.0 129.3 135.35 126.95 135.1 126.05 L137.9 125.3 138.75 123.0 140.35 123.45 139.6 126.3 141.55 126.4 141.6 128.0 142.7 128.0 146.55 124.9 146.8 125.2 146.8 126.7 148.75 126.7 152.4 125.85 Q148.5 127.25 148.55 131.0 152.0 130.9 154.35 128.2 L154.15 130.35 152.4 131.8 151.95 134.5 156.5 133.85 153.7 135.9 153.5 136.85 155.45 136.85 158.0 135.35 156.55 138.45 159.7 138.75 Q158.4 141.0 157.1 141.7 155.65 142.45 150.9 142.45 145.05 142.45 142.05 139.8 139.0 137.25 136.7 130.55" fill="#ff68a0" fill-rule="evenodd" stroke="none"/>
    <path d="M164.95 145.8 Q165.2 150.75 169.5 157.15 L169.6 157.3 Q163.65 163.7 163.4 169.35 162.4 168.85 161.3 167.45 159.6 165.2 159.55 163.15 L159.55 168.8 158.0 168.8 Q157.2 167.9 157.15 166.4 L153.05 169.0 152.85 173.35 151.1 173.05 150.65 169.85 150.45 170.85 147.7 171.35 147.4 169.65 147.25 169.9 145.05 169.9 144.95 169.35 144.85 168.7 145.3 167.05 142.65 169.75 140.35 169.85 140.35 168.35 140.35 168.3 141.1 167.45 144.45 163.35 141.15 166.35 140.4 166.35 138.6 166.4 139.2 164.5 138.3 165.0 135.55 164.8 135.6 162.3 134.2 164.45 130.55 164.3 Q129.5 161.55 132.15 159.6 L129.0 159.3 129.05 157.7 129.1 154.5 127.95 157.7 124.9 157.9 124.8 157.9 122.2 157.75 Q121.45 155.95 122.0 154.5 122.55 153.05 124.4 151.9 L119.6 150.65 119.35 148.6 116.5 148.4 118.75 144.65 116.65 144.2 114.4 147.15 112.4 146.65 113.2 143.15 109.95 142.9 109.7 141.8 Q110.95 138.85 114.2 139.65 L115.3 136.4 Q116.6 136.9 115.95 136.0 L115.7 135.5 116.5 134.05 114.85 133.35 110.3 134.15 110.55 130.55 Q118.45 126.55 122.95 119.35 L123.25 119.5 Q131.0 122.35 140.4 115.55 L143.25 118.3 Q145.8 120.75 149.15 119.5 152.85 118.2 155.55 115.3 154.8 117.45 155.1 119.55 155.7 123.45 159.2 125.45 L159.25 126.75 Q159.6 131.45 162.9 134.75 L161.85 138.75 161.5 138.75 159.7 138.75 161.5 138.75 161.5 138.85 Q161.7 142.55 164.45 145.25 L164.45 145.3 164.95 145.8 M124.8 157.9 L124.85 157.9 124.9 157.85 125.0 156.3 124.8 157.9 M157.15 166.4 L157.2 165.9 Q157.05 164.5 157.15 166.4 M146.55 124.9 L142.7 128.0 141.6 128.0 141.55 126.4 139.6 126.3 140.35 123.45 138.75 123.0 137.9 125.3 135.1 126.05 Q135.35 126.95 137.0 129.3 137.55 130.1 136.7 130.55 L133.6 130.65 Q133.6 128.3 132.7 129.75 L130.85 129.65 128.9 134.45 134.5 140.25 134.5 141.4 134.5 140.25 128.9 134.45 130.85 129.65 132.7 129.75 Q133.6 128.3 133.6 130.65 L136.7 130.55 Q139.0 137.25 142.05 139.8 145.05 142.45 150.9 142.45 155.65 142.45 157.1 141.7 158.4 141.0 159.7 138.75 L156.55 138.45 158.0 135.35 155.45 136.85 153.5 136.85 153.7 135.9 156.5 133.85 151.95 134.5 152.4 131.8 154.15 130.35 154.35 128.2 Q152.0 130.9 148.55 131.0 148.5 127.25 152.4 125.85 L148.75 126.7 146.8 126.7 146.8 125.2 148.1 123.7 146.55 124.9 M133.85 141.7 L134.5 141.4 133.75 141.4 133.85 141.7 Q135.25 145.15 137.95 147.65 141.05 150.6 145.35 151.15 L156.3 151.7 Q156.4 150.7 158.05 150.15 L155.8 149.45 155.95 147.9 157.35 147.25 159.65 147.5 157.35 147.25 155.95 147.9 155.8 149.45 158.05 150.15 Q156.4 150.7 156.3 151.7 L145.35 151.15 Q141.05 150.6 137.95 147.65 135.25 145.15 133.85 141.7 M131.05 139.05 L132.35 142.05 131.75 143.15 134.1 144.8 130.85 150.65 130.85 152.2 133.2 152.05 135.15 147.85 134.9 153.65 138.1 153.75 142.9 154.95 142.5 152.75 144.85 153.45 146.25 154.8 144.5 155.85 144.7 157.4 148.75 156.2 148.1 158.2 150.25 157.95 153.25 153.5 152.65 158.2 157.15 157.55 154.85 160.4 154.85 161.25 157.8 161.25 159.75 159.05 160.05 157.55 160.45 156.95 160.05 157.55 159.75 159.05 157.8 161.25 154.85 161.25 154.85 160.4 157.15 157.55 152.65 158.2 153.25 153.5 150.25 157.95 148.1 158.2 148.75 156.2 144.7 157.4 144.5 155.85 146.25 154.8 144.85 153.45 142.5 152.75 142.9 154.95 138.1 153.75 134.9 153.65 135.15 147.85 133.2 152.05 130.85 152.2 130.85 150.65 134.1 144.8 131.75 143.15 132.35 142.05 131.05 139.05 M159.75 156.5 L158.0 156.5 158.0 154.1 Q158.65 153.4 159.25 153.0 L160.6 152.2 159.25 153.0 Q158.65 153.4 158.0 154.1 L158.0 156.5 159.75 156.5 160.45 156.95 161.9 154.55 159.75 156.5 M158.05 150.15 L159.75 149.8 158.05 150.15 M146.25 154.8 L147.9 154.75 146.25 154.8 M159.25 153.0 L156.3 151.7 159.25 153.0" fill="#ffff38" fill-rule="evenodd" stroke="none"/>
    <path d="M254.8 203.3 L260.05 207.95 269.25 207.8 Q270.2 206.25 271.65 204.55 275.8 199.65 281.7 197.05 285.95 195.15 291.85 191.1 298.25 186.65 303.5 184.05 321.55 175.1 329.3 176.15 L333.3 175.9 Q335.9 175.05 338.6 174.9 L355.85 173.6 350.5 182.8 Q344.85 192.7 341.2 196.5 339.0 198.85 333.45 202.7 326.2 207.7 322.15 208.15 L321.95 208.3 Q332.15 213.4 338.25 221.6 342.4 227.25 344.25 228.25 L345.9 228.9 348.4 230.55 Q336.9 229.85 333.25 233.35 329.6 236.85 316.9 233.4 L305.4 230.45 305.2 230.2 304.4 230.2 304.2 230.25 298.05 229.75 300.05 232.7 Q302.2 236.25 304.85 245.4 L305.25 245.7 Q310.15 249.2 318.25 260.55 332.95 281.0 332.55 310.45 331.4 308.5 328.25 306.9 L325.6 305.6 325.3 305.45 325.3 306.25 Q325.3 311.35 323.15 314.55 321.45 317.1 317.75 319.25 313.1 321.55 310.7 322.95 309.0 323.9 307.55 324.95 305.7 323.8 302.8 323.45 L302.7 323.45 299.75 322.8 Q298.75 322.25 295.05 318.6 294.4 318.4 293.65 317.8 292.1 316.6 289.95 313.85 286.65 309.65 284.85 305.85 L280.95 297.5 279.25 300.9 Q274.15 310.05 267.55 311.35 L267.55 309.85 Q267.55 307.95 265.45 305.6 262.05 301.7 260.85 299.75 254.3 289.3 254.1 267.4 L254.95 266.25 Q260.3 258.5 264.35 247.8 267.4 239.7 268.2 233.8 L268.4 232.0 Q269.55 230.0 270.2 227.1 271.75 230.9 272.65 232.25 273.85 234.15 276.25 235.4 279.1 231.2 279.95 226.45 L280.0 226.4 Q280.55 224.95 282.05 224.4 283.75 223.75 287.85 223.8 293.45 223.75 298.05 229.75 293.45 223.75 287.85 223.8 283.75 223.75 282.05 224.4 280.55 224.95 280.0 226.4 L276.85 225.0 270.9 222.45 271.15 217.2 271.15 217.15 Q271.15 212.4 269.8 211.15 269.25 210.6 267.95 210.4 L265.3 210.2 Q261.9 210.2 260.2 211.4 L259.55 211.9 254.75 208.55 254.75 205.2 254.8 203.3 M222.95 284.9 Q227.5 289.9 227.5 293.8 L226.85 298.45 227.3 299.85 223.95 300.65 219.8 301.95 Q222.6 303.6 224.0 305.1 226.65 308.05 226.65 312.7 226.65 316.15 224.5 319.55 222.35 322.9 222.35 323.65 L222.4 324.35 Q220.8 324.6 218.35 325.65 213.55 327.55 210.25 327.55 206.95 327.55 202.7 325.05 L199.25 322.7 Q199.0 325.55 198.25 328.45 L197.35 332.35 193.35 328.8 Q189.35 325.55 185.45 323.45 182.15 321.7 177.1 315.9 L173.8 311.9 Q173.2 307.45 171.45 303.45 168.8 297.45 165.35 292.85 162.3 288.85 161.15 286.8 155.75 277.2 156.1 273.95 156.35 271.1 154.05 269.35 L152.8 268.6 Q154.9 267.65 157.15 265.5 L159.15 263.25 Q160.55 264.3 162.55 265.05 L160.8 267.35 Q158.9 269.45 156.85 270.0 L157.8 270.0 159.95 271.75 160.05 271.8 160.1 271.75 163.0 273.0 165.8 265.65 Q167.65 265.35 168.55 262.9 L173.3 263.7 175.15 259.6 179.25 260.05 180.8 264.25 187.75 264.35 187.95 261.65 190.15 261.55 194.85 273.05 199.8 273.95 199.8 276.15 Q200.5 278.8 202.0 282.1 L204.1 287.2 205.9 287.0 Q207.8 287.0 209.95 287.7 L214.25 288.35 Q217.95 288.35 222.95 284.9 M122.5 272.05 L113.3 275.45 Q107.4 277.75 101.2 281.1 96.95 283.4 88.45 288.7 L79.65 294.0 79.5 293.75 Q79.5 293.15 78.7 290.8 77.85 288.45 77.85 286.45 77.85 285.05 78.65 283.2 71.35 284.0 62.6 290.0 59.15 292.35 54.6 296.0 L51.85 298.15 Q52.95 295.95 53.15 293.7 L53.15 285.85 Q53.15 280.15 55.1 276.65 56.7 273.75 60.15 271.6 L66.8 268.0 68.35 267.1 Q66.35 266.9 64.35 266.2 61.0 264.9 60.2 262.65 L61.65 262.75 Q62.9 262.75 66.9 259.0 73.85 252.3 75.75 250.75 89.9 238.7 103.55 238.7 L108.95 238.9 103.9 234.9 Q99.5 231.45 98.05 229.3 L105.4 227.3 Q109.5 226.15 114.75 224.1 119.55 222.2 125.35 219.5 L125.45 219.45 Q132.7 223.05 136.1 225.3 136.85 227.35 138.55 229.2 127.45 249.45 151.4 251.45 L152.3 253.55 Q153.1 256.1 153.1 258.55 153.05 262.0 151.7 263.45 150.4 264.85 147.3 264.85 L144.15 264.3 142.6 264.15 Q141.7 264.1 140.7 264.65 L140.1 265.0 139.5 265.45 140.1 265.0 140.7 264.65 Q141.7 264.1 142.6 264.15 L144.15 264.3 Q144.5 265.4 145.35 266.5 L146.7 268.1 Q145.75 268.35 145.1 268.8 144.65 268.2 143.05 268.2 L138.6 269.05 136.3 269.65 135.75 268.5 Q135.0 267.8 132.55 267.8 129.05 267.8 123.55 271.35 L122.85 271.8 122.5 272.05 M322.85 216.95 Q321.1 216.7 310.6 216.7 297.1 216.7 294.15 216.95 288.4 217.4 285.45 219.0 279.4 216.7 275.15 216.7 L271.15 217.15 275.15 216.7 Q279.4 216.7 285.45 219.0 288.4 217.4 294.15 216.95 297.1 216.7 310.6 216.7 321.1 216.7 322.85 216.95 M331.75 178.8 Q327.3 179.65 311.55 188.25 L302.8 193.8 Q295.4 198.55 294.5 199.3 280.0 212.85 277.85 213.9 280.0 212.85 294.5 199.3 295.4 198.55 302.8 193.8 L311.55 188.25 Q327.3 179.65 331.75 178.8 M133.05 236.65 L114.75 224.1 133.05 236.65 M81.25 290.55 Q82.75 283.05 92.8 274.5 103.45 265.45 112.75 265.45 114.6 265.45 121.25 266.85 L124.3 264.95 Q127.3 263.05 130.0 263.1 L139.5 263.8 130.0 263.1 Q127.3 263.05 124.3 264.95 L121.25 266.85 Q114.6 265.45 112.75 265.45 103.45 265.45 92.8 274.5 82.75 283.05 81.25 290.55 M128.0 245.8 Q123.95 244.25 120.25 242.45 L115.6 240.25 Q113.15 239.25 108.95 238.9 113.15 239.25 115.6 240.25 L120.25 242.45 Q123.95 244.25 128.0 245.8 M196.35 326.4 L193.3 316.4 Q190.65 308.4 187.8 304.35 172.05 281.85 160.05 271.8 172.05 281.85 187.8 304.35 190.65 308.4 193.3 316.4 L196.35 326.4 M139.85 252.25 L141.7 256.25 Q142.25 257.5 142.25 259.35 L142.1 262.65 Q141.85 263.6 140.7 264.65 141.85 263.6 142.1 262.65 L142.25 259.35 Q142.25 257.5 141.7 256.25 L139.85 252.25 M140.85 259.05 Q114.35 256.75 92.85 264.25 71.1 271.85 58.25 288.2 71.1 271.85 92.85 264.25 114.35 256.75 140.85 259.05 M80.8 279.4 L78.2 279.35 Q72.45 279.35 70.4 281.75 L68.3 284.0 Q66.7 285.45 64.0 286.45 60.0 287.95 57.1 292.5 L54.6 296.0 57.1 292.5 Q60.0 287.95 64.0 286.45 66.7 285.45 68.3 284.0 L70.4 281.75 Q72.45 279.35 78.2 279.35 L80.8 279.4 M285.45 219.0 Q287.5 219.75 289.75 220.8 298.8 225.0 301.2 225.1 L316.35 226.2 Q325.8 226.85 330.0 226.5 325.8 226.85 316.35 226.2 L301.2 225.1 Q298.8 225.0 289.75 220.8 287.5 219.75 285.45 219.0 M335.25 192.65 Q331.4 197.4 319.05 201.6 L307.65 205.3 Q300.35 207.65 295.45 209.7 300.35 207.65 307.65 205.3 L319.05 201.6 Q331.4 197.4 335.25 192.65 M295.0 239.95 L300.65 243.05 Q303.25 244.35 304.85 245.4 303.25 244.35 300.65 243.05 L295.0 239.95 M289.75 238.8 L284.95 237.65 278.45 236.9 274.05 237.3 278.45 236.9 284.95 237.65 289.75 238.8 M273.65 238.4 L273.35 239.1 268.2 233.8 273.35 239.1 273.65 238.4 M305.15 289.8 Q302.35 272.45 287.9 254.75 283.3 249.15 276.2 242.0 L273.35 239.1 276.2 242.0 Q283.3 249.15 287.9 254.75 302.35 272.45 305.15 289.8 M273.35 239.1 L268.75 249.05 266.15 254.45 Q265.35 256.65 265.15 260.2 265.0 263.05 265.0 271.8 264.95 287.75 266.15 290.9 269.85 301.35 269.9 304.75 269.85 301.35 266.15 290.9 264.95 287.75 265.0 271.8 265.0 263.05 265.15 260.2 265.35 256.65 266.15 254.45 L268.75 249.05 273.35 239.1 M281.9 260.9 Q282.0 268.9 280.65 272.9 279.25 277.1 279.25 284.7 279.25 292.35 280.05 295.15 L280.95 297.5 280.05 295.15 Q279.25 292.35 279.25 284.7 279.25 277.1 280.65 272.9 282.0 268.9 281.9 260.9 M191.9 269.8 Q180.6 268.8 163.2 273.1 L163.0 273.0 163.2 273.1 Q180.6 268.8 191.9 269.8 M219.35 322.6 L214.9 314.2 Q210.0 305.9 202.4 299.2 183.3 282.25 163.2 273.1 183.3 282.25 202.4 299.2 210.0 305.9 214.9 314.2 L219.35 322.6 M217.85 300.9 L219.8 301.95 217.85 300.9" fill="#006600" fill-rule="evenodd" stroke="none"/>
    <path d="M74.95 83.6 L75.1 83.6 75.1 83.65 74.95 83.6 M65.4 124.45 L64.9 123.95 65.95 123.9 65.4 124.45 M127.05 185.75 L126.9 185.8 126.95 185.8 127.05 185.75" fill="#990000" fill-rule="evenodd" stroke="none"/>
    <path d="M98.05 229.3 L93.65 230.7 Q98.4 222.1 109.3 221.35 110.05 219.75 111.5 218.75 117.45 214.6 125.0 215.0 L125.7 214.35 Q132.1 209.0 139.65 205.05 132.1 209.0 125.7 214.35 L125.0 215.0 Q117.45 214.6 111.5 218.75 110.05 219.75 109.3 221.35 98.4 222.1 93.65 230.7 L93.6 230.75 93.6 230.8 93.55 230.85 93.45 231.1 Q87.2 239.7 82.05 234.85 L77.7 239.2 Q65.9 241.3 59.0 231.35 68.85 228.4 73.1 221.55 73.1 216.6 71.25 214.1 69.95 212.4 67.65 211.5 61.0 215.2 63.5 221.65 L63.6 222.15 Q53.75 224.2 53.4 214.5 33.3 207.75 50.7 195.5 L50.7 195.3 51.85 189.85 Q42.9 183.5 51.35 174.9 L51.45 174.8 51.5 174.75 51.55 174.65 51.5 174.7 51.5 174.75 51.3 174.85 Q38.7 183.55 29.1 175.05 L28.95 175.05 Q5.35 170.55 24.2 150.95 15.45 152.65 8.8 147.35 L8.0 146.55 8.05 145.45 8.0 145.45 Q3.75 143.8 1.75 141.4 -1.8 137.15 1.75 130.6 2.35 129.45 3.2 128.25 3.3 128.1 3.55 128.1 4.0 124.0 7.2 121.0 L25.2 115.4 Q17.45 106.95 7.4 109.8 L6.95 109.85 Q3.8 89.7 28.95 92.1 L31.85 92.3 Q33.95 94.65 36.35 96.65 35.6 79.1 45.95 79.1 L48.85 78.9 Q49.9 79.0 50.2 79.3 L50.5 80.2 Q61.3 85.9 73.9 83.65 L74.95 83.6 75.1 83.65 75.1 83.6 Q76.85 78.75 81.2 76.15 L81.1 75.15 Q80.9 72.05 83.8 70.5 83.3 66.55 86.85 62.55 82.0 57.5 76.45 57.55 73.55 57.5 70.05 58.85 L70.85 54.05 70.65 51.0 Q76.8 40.0 86.6 47.3 L87.5 47.25 Q92.3 47.9 91.25 52.8 91.8 54.7 92.85 56.3 102.65 71.45 121.1 75.5 L121.15 75.5 121.15 75.1 Q117.75 72.35 116.4 70.3 93.75 35.15 133.15 26.25 159.6 24.85 184.6 13.35 L186.55 12.45 188.8 9.35 Q195.55 0.75 205.85 0.0 L205.95 0.65 206.2 0.0 Q229.35 6.0 213.3 18.35 L213.05 18.05 Q211.75 12.8 206.15 14.75 208.05 17.4 206.35 20.45 L206.1 20.9 Q215.0 27.45 207.85 38.75 L207.5 39.15 207.5 39.25 Q198.4 39.5 191.2 46.0 190.85 46.3 190.6 46.75 L191.15 46.8 Q194.4 47.0 196.75 49.6 199.05 52.1 199.3 55.5 L199.3 56.35 200.05 55.45 Q207.7 43.25 211.8 57.55 L213.9 56.7 216.35 59.55 216.6 60.35 216.55 59.55 219.75 59.35 Q222.45 60.35 223.7 64.65 224.35 67.1 224.45 69.85 L222.1 76.2 222.1 76.35 222.0 77.1 222.0 77.15 222.9 77.2 Q223.85 78.75 224.65 81.65 226.1 79.85 227.2 79.85 229.25 79.85 230.15 81.8 L230.5 89.8 229.75 90.35 229.75 90.8 Q229.35 96.05 223.65 96.5 L222.6 96.35 222.5 96.85 Q217.45 98.55 216.05 105.3 L221.25 105.15 Q224.55 95.25 235.15 95.3 L235.9 94.05 Q244.3 85.3 257.7 81.35 259.75 76.45 261.9 73.3 269.85 61.6 279.0 72.9 L279.35 73.35 283.4 74.0 283.6 74.45 Q284.9 81.05 278.4 82.6 L278.15 86.6 281.95 86.45 Q302.2 88.8 292.6 103.15 L292.6 106.35 289.4 107.55 Q294.85 117.05 290.25 123.7 287.45 127.75 280.85 130.75 L278.8 131.6 276.8 132.3 279.95 132.8 280.7 135.15 285.25 136.35 Q284.95 137.75 284.3 138.9 283.1 140.85 280.8 141.9 287.8 148.85 278.2 154.55 295.25 165.5 280.6 172.9 L279.6 173.15 279.25 174.5 269.8 178.95 Q278.5 196.55 251.55 190.65 L250.9 189.95 250.15 190.7 Q235.9 189.35 227.3 179.85 222.1 174.1 218.95 165.5 218.4 168.3 218.45 171.1 L218.45 171.9 218.5 176.7 218.7 185.65 Q219.0 200.15 219.6 214.6 L220.05 226.05 Q204.2 214.85 213.0 197.9 208.5 196.05 207.7 191.3 206.3 183.25 213.8 181.25 207.75 170.5 218.15 163.45 207.75 170.5 213.8 181.25 206.3 183.25 207.7 191.3 208.5 196.05 213.0 197.9 204.2 214.85 220.05 226.05 L228.5 240.55 226.25 243.1 226.6 248.45 221.85 248.95 221.85 249.8 Q221.9 256.3 215.8 255.3 L215.45 259.65 213.85 260.3 Q214.7 273.2 202.75 271.5 L202.1 273.6 200.6 274.05 199.8 273.95 194.85 273.05 190.15 261.55 187.95 261.65 187.75 264.35 180.8 264.25 179.25 260.05 175.15 259.6 173.3 263.7 168.55 262.9 Q167.65 265.35 165.8 265.65 L163.9 265.5 162.55 265.05 Q160.55 264.3 159.15 263.25 154.2 259.5 156.25 251.65 L151.4 251.45 Q127.45 249.45 138.55 229.2 136.85 227.35 136.1 225.3 134.25 220.45 137.35 214.55 L137.95 213.25 Q131.2 216.75 125.45 219.45 L125.35 219.5 Q119.55 222.2 114.75 224.1 109.5 226.15 105.4 227.3 L98.05 229.3 M278.15 86.6 L276.3 87.2 Q273.2 88.55 270.7 92.2 273.2 88.55 276.3 87.2 L278.15 86.6 M267.0 90.15 L268.4 88.4 Q271.35 84.75 275.65 83.05 L278.4 82.6 275.65 83.05 Q271.35 84.75 268.4 88.4 L267.0 90.15 M202.6 12.95 Q212.25 9.2 205.95 0.65 212.25 9.2 202.6 12.95 L201.9 13.1 202.45 13.3 202.6 12.95 M206.15 14.75 L202.45 13.3 206.15 14.75 M196.45 22.4 Q201.5 20.2 201.9 20.2 204.15 20.2 206.1 20.9 204.15 20.2 201.9 20.2 201.5 20.2 196.45 22.4 M186.5 43.0 Q190.1 40.35 194.7 39.9 L194.9 39.7 Q200.8 33.0 207.5 39.15 200.8 33.0 194.9 39.7 L194.7 39.9 Q190.1 40.35 186.5 43.0 M198.95 80.15 L206.05 77.55 205.25 100.65 Q202.95 97.75 199.6 98.8 L199.0 98.95 198.2 98.05 193.6 98.5 193.1 103.15 191.25 105.3 Q186.55 102.8 183.0 107.4 177.35 110.15 175.55 114.7 173.85 118.95 175.55 124.75 L176.45 127.45 175.55 124.75 Q173.85 118.95 175.55 114.7 177.35 110.15 183.0 107.4 186.55 102.8 191.25 105.3 L193.1 103.15 193.6 98.5 198.2 98.05 199.0 98.95 199.6 98.8 Q202.95 97.75 205.25 100.65 L206.05 77.55 198.95 80.15 193.6 88.3 Q181.3 85.4 178.3 93.9 177.05 97.25 177.35 102.45 175.95 102.6 174.7 103.15 168.6 105.55 167.75 109.9 166.95 113.95 170.75 119.65 L169.55 121.05 169.45 122.85 Q169.15 128.2 173.35 130.55 169.15 128.2 169.45 122.85 L169.55 121.05 170.75 119.65 Q166.95 113.95 167.75 109.9 168.6 105.55 174.7 103.15 175.95 102.6 177.35 102.45 177.05 97.25 178.3 93.9 181.3 85.4 193.6 88.3 L198.95 80.15 197.85 79.1 Q190.05 64.95 177.6 59.05 L177.6 55.8 178.8 54.0 177.6 55.8 177.6 59.05 Q190.05 64.95 197.85 79.1 L198.95 80.15 M133.75 79.7 Q152.25 92.5 176.2 92.9 176.45 92.85 176.7 93.3 176.45 92.85 176.2 92.9 152.25 92.5 133.75 79.7 M205.15 76.2 L196.3 59.6 199.3 56.35 196.3 59.6 205.15 76.2 M172.15 38.5 L186.55 12.45 172.15 38.5 M176.6 56.5 Q172.1 55.75 169.0 51.95 167.15 49.55 169.2 47.45 L168.15 45.3 168.9 41.8 Q168.1 35.35 161.5 35.6 L160.95 35.75 Q148.1 30.15 146.95 44.35 142.55 45.2 141.4 49.6 L141.0 51.05 Q134.95 48.8 130.9 53.65 L130.35 54.45 128.2 53.65 Q120.85 54.65 120.2 62.65 119.9 66.2 123.0 67.8 119.9 66.2 120.2 62.65 120.85 54.65 128.2 53.65 L130.35 54.45 130.9 53.65 Q134.95 48.8 141.0 51.05 L141.4 49.6 Q142.55 45.2 146.95 44.35 148.1 30.15 160.95 35.75 L161.5 35.6 Q168.1 35.35 168.9 41.8 169.35 44.0 170.2 45.9 172.65 51.5 178.8 54.0 L179.1 53.5 177.0 48.3 177.15 48.05 Q180.45 43.3 185.55 43.7 L190.6 46.75 185.55 43.7 Q180.45 43.3 177.15 48.05 L177.0 48.3 179.1 53.5 178.8 54.0 Q172.65 51.5 170.2 45.9 169.35 44.0 168.9 41.8 L168.15 45.3 169.2 47.45 Q167.15 49.55 169.0 51.95 172.1 55.75 176.6 56.5 M217.75 94.45 Q219.6 91.65 220.7 86.1 L222.0 77.15 220.7 86.1 Q219.6 91.65 217.75 94.45 M214.7 69.45 Q217.75 65.2 216.6 60.35 217.75 65.2 214.7 69.45 M207.25 102.05 Q209.3 98.8 213.2 98.5 L213.45 97.95 Q214.55 95.75 217.0 95.4 L222.6 96.35 217.0 95.4 Q214.55 95.75 213.45 97.95 L213.2 98.5 Q209.3 98.8 207.25 102.05 M216.05 105.3 L215.9 106.55 Q213.95 128.45 196.7 140.9 L195.8 125.3 199.3 122.6 Q190.25 121.9 184.5 127.4 L183.8 127.2 Q180.4 126.7 177.2 128.25 180.4 126.7 183.8 127.2 L184.5 127.4 Q190.25 121.9 199.3 122.6 L195.8 125.3 196.7 140.9 Q213.95 128.45 215.9 106.55 L216.05 105.3 M205.25 100.65 L206.7 103.05 207.3 104.4 Q209.5 109.4 206.45 112.6 209.5 109.4 207.3 104.4 L206.7 103.05 205.25 100.65 M239.95 145.9 L240.15 145.25 239.85 145.3 238.7 145.55 239.95 145.9 Q244.5 147.1 249.6 149.35 L266.65 158.2 249.6 149.35 Q244.5 147.1 239.95 145.9 M278.2 154.55 Q261.55 138.9 240.15 145.25 261.55 138.9 278.2 154.55 M176.85 128.4 L177.2 128.25 176.45 127.45 176.95 128.35 176.85 128.4 174.05 131.15 172.65 136.0 Q167.35 139.25 164.95 144.8 167.35 139.25 172.65 136.0 L174.05 131.15 176.85 128.4 M164.95 145.8 L164.95 144.8 164.45 145.25 Q161.7 142.55 161.5 138.85 L161.85 138.75 162.9 134.75 Q159.6 131.45 159.25 126.75 L159.2 125.45 Q155.7 123.45 155.1 119.55 154.8 117.45 155.55 115.3 152.85 118.2 149.15 119.5 145.8 120.75 143.25 118.3 L140.4 115.55 Q131.0 122.35 123.25 119.5 L122.95 119.35 Q118.45 126.55 110.55 130.55 L110.3 134.15 114.85 133.35 116.5 134.05 115.7 135.5 115.95 136.0 Q116.6 136.9 115.3 136.4 L114.2 139.65 Q110.95 138.85 109.7 141.8 L109.95 142.9 113.2 143.15 112.4 146.65 114.4 147.15 116.65 144.2 118.75 144.65 116.5 148.4 119.35 148.6 119.6 150.65 124.4 151.9 Q122.55 153.05 122.0 154.5 121.45 155.95 122.2 157.75 L124.8 157.9 124.9 157.9 127.95 157.7 129.05 157.7 129.0 159.3 132.15 159.6 Q129.5 161.55 130.55 164.3 L134.2 164.45 135.6 162.3 135.55 164.8 138.3 165.0 139.2 164.5 138.6 166.4 140.4 166.35 140.4 166.85 139.6 167.7 Q135.2 172.25 131.55 177.25 128.65 181.1 126.3 185.25 128.65 181.1 131.55 177.25 135.2 172.25 139.6 167.7 L140.35 168.3 140.35 168.35 140.35 169.85 142.65 169.75 145.3 167.05 144.85 168.7 144.4 169.45 144.95 169.35 145.05 169.9 147.25 169.9 147.4 169.65 147.7 171.35 150.45 170.85 150.65 169.85 151.1 173.05 152.85 173.35 153.05 169.0 157.15 166.4 Q157.2 167.9 158.0 168.8 L159.55 168.8 159.55 163.15 Q159.6 165.2 161.3 167.45 162.4 168.85 163.4 169.35 163.65 163.7 169.6 157.3 L170.05 156.85 169.5 157.15 Q165.2 150.75 164.95 145.8 M181.6 162.05 Q181.6 159.8 178.25 158.25 177.0 157.65 175.55 157.3 L170.05 156.85 175.55 157.3 Q177.0 157.65 178.25 158.25 181.6 159.8 181.6 162.05 M198.85 150.0 L199.5 149.8 Q218.55 142.4 238.7 145.55 218.55 142.4 199.5 149.8 L198.85 150.0 M196.7 140.9 L197.4 150.05 197.4 150.4 197.45 153.45 197.45 153.6 197.45 158.3 Q197.3 168.5 190.85 177.2 197.3 168.5 197.45 158.3 L197.45 153.6 197.45 153.45 197.4 150.4 197.4 150.05 196.7 140.9 M170.15 197.55 L170.1 197.55 Q161.8 189.95 172.7 183.0 168.4 180.25 166.1 177.25 L163.4 169.35 166.1 177.25 Q168.4 180.25 172.7 183.0 161.8 189.95 170.1 197.55 L170.15 197.55 170.15 197.6 170.2 197.55 170.15 197.55 M190.45 177.7 Q180.05 190.9 177.15 207.35 L176.2 207.2 174.1 206.65 Q165.8 204.0 170.15 197.6 165.8 204.0 174.1 206.65 L176.2 207.2 177.15 207.35 Q180.05 190.9 190.45 177.7 L190.9 177.25 190.85 177.2 190.45 177.7 M203.5 238.8 Q206.9 210.7 196.2 185.1 194.3 180.55 190.95 177.3 L190.9 177.25 190.95 177.3 Q194.3 180.55 196.2 185.1 206.9 210.7 203.5 238.8 M218.95 165.5 L219.35 163.75 218.95 165.5 M219.35 163.75 L218.5 163.05 218.15 163.45 219.35 163.75 M260.55 137.95 Q267.65 133.0 276.05 132.3 L276.8 132.3 276.05 132.3 Q267.65 133.0 260.55 137.95 M219.25 162.2 Q215.85 147.8 198.65 153.45 215.85 147.8 219.25 162.2 M237.45 176.05 L250.9 189.95 237.45 176.05 M105.75 92.85 Q77.65 95.5 92.0 77.0 L92.4 76.45 91.9 76.55 91.55 76.65 Q84.95 77.1 83.8 70.5 84.95 77.1 91.55 76.65 L91.9 76.55 92.4 76.45 92.0 77.0 Q77.65 95.5 105.75 92.85 107.95 91.9 110.2 90.5 107.6 91.35 105.75 92.85 103.4 94.7 102.1 97.45 102.6 101.3 104.75 101.8 L104.6 102.4 Q104.05 105.05 105.8 106.8 L106.65 107.5 Q117.25 110.15 120.8 99.1 L120.85 98.95 121.05 98.15 121.2 99.05 Q122.5 106.0 129.45 104.2 L128.1 109.0 124.3 109.25 124.0 109.9 Q121.4 114.8 114.85 116.1 112.9 116.5 111.45 114.95 107.8 117.45 104.1 118.05 98.75 118.9 93.15 115.95 88.7 121.45 82.55 117.5 L79.75 115.3 71.4 115.8 71.3 115.8 68.3 114.25 Q57.8 115.8 60.75 107.85 59.2 105.2 60.95 103.35 L62.45 102.2 65.15 100.7 66.95 100.7 65.15 100.7 62.45 102.2 60.95 103.35 Q59.2 105.2 60.75 107.85 57.8 115.8 68.3 114.25 L71.3 115.8 71.4 115.8 79.75 115.3 82.55 117.5 Q88.7 121.45 93.15 115.95 98.75 118.9 104.1 118.05 107.8 117.45 111.45 114.95 112.9 116.5 114.85 116.1 121.4 114.8 124.0 109.9 L124.3 109.25 128.1 109.0 129.45 104.2 Q122.5 106.0 121.2 99.05 L121.05 98.15 120.85 98.95 120.8 99.1 Q117.25 110.15 106.65 107.5 L105.8 106.8 Q104.05 105.05 104.6 102.4 L104.75 101.8 Q102.6 101.3 102.1 97.45 103.4 94.7 105.75 92.85 M105.05 107.65 Q89.9 108.35 83.45 96.05 83.1 95.4 83.0 94.75 L81.85 93.95 81.5 91.65 Q72.05 93.2 75.0 84.0 L75.1 83.65 75.0 84.0 Q72.05 93.2 81.5 91.65 L81.85 93.95 83.0 94.75 Q83.1 95.4 83.45 96.05 89.9 108.35 105.05 107.65 M87.85 62.85 L91.25 63.25 91.3 58.55 Q89.5 55.65 91.25 52.8 89.5 55.65 91.3 58.55 L91.25 63.25 87.85 62.85 M128.1 52.6 Q126.9 40.5 131.7 29.4 L133.15 26.25 131.7 29.4 Q126.9 40.5 128.1 52.6 M217.65 125.85 L257.7 81.35 217.65 125.85 M215.2 137.95 Q242.9 136.0 266.75 119.9 277.45 112.55 289.4 107.55 277.45 112.55 266.75 119.9 242.9 136.0 215.2 137.95 M50.5 80.2 Q44.35 89.7 50.15 95.65 50.05 96.0 50.1 96.4 50.65 104.2 60.05 102.45 50.65 104.2 50.1 96.4 50.05 96.0 50.15 95.65 44.35 89.7 50.5 80.2 M123.25 68.55 L123.6 70.5 121.6 70.75 121.15 75.1 121.6 70.75 123.6 70.5 123.25 68.55 M141.0 51.05 L143.0 52.65 143.85 52.4 Q149.35 50.85 154.1 54.4 149.35 50.85 143.85 52.4 L143.0 52.65 141.0 51.05 M121.15 75.5 L121.3 76.1 Q124.3 81.8 131.35 81.35 120.35 87.55 132.8 96.4 131.95 97.65 132.45 99.2 133.8 103.7 138.75 102.4 134.7 106.4 135.8 109.9 136.25 111.5 137.55 112.75 L140.4 115.55 137.55 112.75 Q136.25 111.5 135.8 109.9 134.7 106.4 138.75 102.4 133.8 103.7 132.45 99.2 131.95 97.65 132.8 96.4 120.35 87.55 131.35 81.35 124.3 81.8 121.3 76.1 L121.15 75.5 M49.15 137.2 L49.15 137.8 49.15 137.2 46.9 137.2 46.25 137.1 44.25 137.8 41.35 143.3 40.25 145.65 Q36.3 155.65 48.65 158.05 L49.3 158.9 Q50.0 159.9 51.15 160.5 L53.9 161.25 38.55 168.3 53.9 161.25 51.15 160.5 Q50.0 159.9 49.3 158.9 L48.65 158.05 Q36.3 155.65 40.25 145.65 L41.35 143.3 44.25 137.8 46.25 137.1 46.9 137.2 49.15 137.2 Q60.25 136.85 68.8 128.5 60.25 136.85 49.15 137.2 M100.65 134.2 Q98.7 136.55 94.9 136.05 L93.9 136.25 Q90.75 140.65 86.1 138.7 L85.1 138.15 Q82.05 143.8 76.0 146.55 L70.6 146.55 70.4 144.35 62.6 145.4 63.15 142.55 54.45 142.95 54.2 141.05 55.55 139.7 52.35 140.6 49.15 137.8 52.35 140.6 55.55 139.7 54.2 141.05 54.45 142.95 63.15 142.55 62.6 145.4 70.4 144.35 70.6 146.55 76.0 146.55 Q82.05 143.8 85.1 138.15 L86.1 138.7 Q90.75 140.65 93.9 136.25 L94.9 136.05 Q98.7 136.55 100.65 134.2 M69.2 127.75 L68.8 128.5 69.45 127.85 69.2 127.75 64.45 125.45 65.4 124.45 64.45 125.45 69.2 127.75 M64.9 123.95 L65.4 124.45 65.95 123.9 64.9 123.95 Q50.2 124.55 35.75 121.6 50.2 124.55 64.9 123.95 M34.2 121.8 L35.75 121.6 35.3 121.45 35.2 121.4 35.15 121.4 35.1 121.35 35.0 121.3 34.55 121.15 34.5 121.15 34.2 121.8 Q28.95 124.2 24.1 120.9 L23.1 120.3 Q15.15 124.45 7.2 121.0 15.15 124.45 23.1 120.3 L24.1 120.9 Q28.95 124.2 34.2 121.8 M70.95 116.45 L65.95 123.9 70.95 116.45 M25.2 115.4 Q30.95 119.65 34.5 121.15 30.95 119.65 25.2 115.4 M8.05 145.45 L20.05 146.1 8.05 145.45 M73.1 169.8 L78.35 169.95 79.5 168.25 80.5 169.0 Q85.5 173.2 89.5 169.2 94.65 172.95 94.8 179.0 L94.75 179.45 97.1 181.8 97.1 186.9 95.25 186.9 97.1 188.3 96.55 191.15 97.1 188.3 95.25 186.9 97.1 186.9 97.1 181.8 94.75 179.45 94.8 179.0 Q94.65 172.95 89.5 169.2 85.5 173.2 80.5 169.0 L79.5 168.25 78.35 169.95 73.1 169.8 M73.45 168.7 L73.1 165.45 74.25 164.95 Q88.1 154.5 93.9 136.25 88.1 154.5 74.25 164.95 L73.1 165.45 73.45 168.7 M61.1 167.3 L65.9 169.05 Q69.55 169.8 72.55 171.2 84.1 176.65 84.5 191.8 L85.1 192.15 Q92.1 196.45 96.15 192.3 92.1 196.45 85.1 192.15 L84.5 191.8 Q84.1 176.65 72.55 171.2 69.55 169.8 65.9 169.05 L61.1 167.3 Q58.25 167.8 58.25 171.05 L58.35 172.0 Q54.85 172.05 51.55 174.65 54.85 172.05 58.35 172.0 L58.25 171.05 Q58.25 167.8 61.1 167.3 61.85 155.95 71.9 159.4 72.35 159.6 72.75 159.95 72.35 159.6 71.9 159.4 61.85 155.95 61.1 167.3 M38.95 145.05 L24.2 150.95 38.95 145.05 M70.6 186.5 Q62.0 190.3 52.7 190.0 L51.85 189.85 52.7 190.0 Q62.0 190.3 70.6 186.5 M94.2 126.65 L94.35 127.4 94.35 126.65 94.35 126.6 94.2 126.65 Q82.45 129.35 69.45 127.85 82.45 129.35 94.2 126.65 M125.85 186.3 L115.95 189.2 114.65 181.5 Q115.05 181.1 115.6 181.0 120.15 179.5 123.95 177.25 130.75 173.15 135.25 166.5 130.75 173.15 123.95 177.25 120.15 179.5 115.6 181.0 115.05 181.1 114.65 181.5 L115.95 189.2 125.85 186.3 125.9 186.3 125.95 186.25 126.15 186.15 126.65 185.95 126.9 185.8 127.05 185.75 126.3 185.25 126.0 185.8 125.9 186.1 125.85 186.25 125.85 186.3 M120.7 153.05 L120.5 154.25 Q118.65 163.25 111.8 166.1 L110.85 166.2 110.2 173.4 110.85 166.2 111.8 166.1 Q118.65 163.25 120.5 154.25 L120.7 153.05 M89.5 169.2 L92.0 163.45 Q92.7 163.9 93.6 163.95 95.1 164.05 95.85 162.9 96.45 162.0 97.1 161.75 101.6 161.0 102.1 156.0 102.5 151.5 101.1 147.45 L102.25 145.9 104.1 143.15 Q106.75 138.25 106.2 132.4 L101.45 133.0 101.3 133.0 100.75 133.0 Q95.35 132.55 94.35 127.55 L94.35 127.5 94.35 127.4 94.35 127.5 94.35 127.55 Q95.35 132.55 100.75 133.0 L101.3 133.0 101.45 133.0 106.2 132.4 110.55 130.55 106.2 132.4 Q106.75 138.25 104.1 143.15 L102.25 145.9 101.1 147.45 Q102.5 151.5 102.1 156.0 101.6 161.0 97.1 161.75 96.45 162.0 95.85 162.9 95.1 164.05 93.6 163.95 92.7 163.9 92.0 163.45 L89.5 169.2 M109.55 173.35 L110.1 174.35 110.2 173.4 109.55 173.35 Q104.3 160.85 110.55 148.3 104.3 160.85 109.55 173.35 M110.1 174.35 L114.65 181.5 110.1 174.35 M120.0 191.6 L109.15 195.35 Q107.45 196.6 106.85 197.75 107.35 195.15 105.35 193.55 L103.0 191.7 104.6 191.35 104.65 191.2 Q104.6 184.7 98.15 182.95 104.6 184.7 104.65 191.2 L104.6 191.35 103.0 191.7 105.35 193.55 Q107.35 195.15 106.85 197.75 107.45 196.6 109.15 195.35 109.8 191.25 115.95 189.2 109.8 191.25 109.15 195.35 L120.0 191.6 M127.05 185.75 Q133.35 182.3 138.3 177.25 141.7 173.7 144.4 169.45 141.7 173.7 138.3 177.25 133.35 182.3 127.05 185.75 M47.7 103.2 Q41.35 100.75 36.35 96.65 41.35 100.75 47.7 103.2 M152.6 187.95 Q152.3 190.95 151.35 193.4 147.8 195.85 142.75 198.45 147.8 195.85 151.35 193.4 152.3 190.95 152.6 187.95 L148.75 192.3 Q139.3 191.45 134.2 198.35 L135.25 200.7 131.9 201.6 132.0 205.05 131.9 201.6 135.25 200.7 134.2 198.35 Q139.3 191.45 148.75 192.3 L152.6 187.95 152.75 186.75 Q153.65 180.95 157.25 177.25 159.45 174.9 162.65 173.4 159.45 174.9 157.25 177.25 153.65 180.95 152.75 186.75 L152.6 187.95 M157.55 204.55 L157.45 203.65 157.1 203.95 157.55 204.55 Q162.0 215.75 174.1 206.65 162.0 215.75 157.55 204.55 M142.2 198.75 L142.0 198.85 141.8 198.95 Q134.25 202.75 132.8 205.65 134.25 202.75 141.8 198.95 L142.0 198.85 142.2 198.75 142.45 198.65 142.65 198.5 142.75 198.45 142.2 198.75 M151.35 193.4 L146.6 202.65 151.7 203.25 Q152.7 205.35 155.0 204.8 156.2 204.6 157.1 203.95 156.2 204.6 155.0 204.8 152.7 205.35 151.7 203.25 L146.6 202.65 151.35 193.4 M106.6 199.3 L108.7 202.65 Q118.25 197.7 126.7 197.55 L126.6 202.85 130.55 204.7 126.6 202.85 126.7 197.55 Q118.25 197.7 108.7 202.65 L106.6 199.3 106.55 199.2 105.8 199.7 105.85 199.75 106.6 199.3 M159.65 218.85 L159.8 219.35 Q162.0 228.2 160.7 237.45 162.0 228.2 159.8 219.35 L159.65 218.85 M97.8 191.4 Q103.0 194.75 105.8 199.7 103.0 194.75 97.8 191.4 M142.75 199.85 Q141.8 206.9 137.95 213.25 141.8 206.9 142.75 199.85 M143.3 219.25 Q142.5 225.15 138.55 229.2 142.5 225.15 143.3 219.25 M67.65 211.5 L85.45 202.75 86.95 201.9 Q93.35 198.75 96.7 192.75 93.35 198.75 86.95 201.9 L85.45 202.75 67.65 211.5 M106.85 197.75 L106.55 199.2 106.85 197.75 M79.6 231.25 L79.85 232.05 Q80.9 233.75 82.05 234.85 80.9 233.75 79.85 232.05 L79.6 231.25 M61.9 209.1 Q59.15 213.4 57.35 214.2 L53.4 214.5 57.35 214.2 Q59.15 213.4 61.9 209.1 M84.75 203.8 L73.1 221.55 84.75 203.8 M176.5 208.95 Q176.95 210.85 177.8 212.6 190.15 238.1 190.15 261.55 190.15 238.1 177.8 212.6 176.95 210.85 176.5 208.95 M209.25 244.5 Q215.2 250.65 215.8 255.3 215.2 250.65 209.25 244.5" fill="#cc0000" fill-rule="evenodd" stroke="none"/>
    <path d="M254.8 203.3 L260.05 207.95 269.25 207.8 Q270.2 206.25 271.65 204.55 275.8 199.65 281.7 197.05 285.95 195.15 291.85 191.1 298.25 186.65 303.5 184.05 321.55 175.1 329.3 176.15 L333.3 175.9 Q335.9 175.05 338.6 174.9 L355.85 173.6 350.5 182.8 Q344.85 192.7 341.2 196.5 339.0 198.85 333.45 202.7 326.2 207.7 322.15 208.15 L321.95 208.3 Q332.15 213.4 338.25 221.6 342.4 227.25 344.25 228.25 L345.9 228.9 348.4 230.55 Q336.9 229.85 333.25 233.35 329.6 236.85 316.9 233.4 L305.4 230.45 304.5 230.25 304.2 230.25 298.05 229.75 300.05 232.7 Q302.2 236.25 304.85 245.4 L305.25 245.7 Q310.15 249.2 318.25 260.55 332.95 281.0 332.55 310.45 331.4 308.5 328.25 306.9 L325.6 305.6 325.3 305.45 325.3 306.25 Q325.3 311.35 323.15 314.55 321.45 317.1 317.75 319.25 313.1 321.55 310.7 322.95 309.0 323.9 307.55 324.95 305.7 323.8 302.8 323.45 L302.7 323.45 299.75 322.8 Q298.75 322.25 295.05 318.6 294.4 318.4 293.65 317.8 292.1 316.6 289.95 313.85 286.65 309.65 284.85 305.85 L280.95 297.5 279.25 300.9 Q274.15 310.05 267.55 311.35 L267.55 309.85 Q267.55 307.95 265.45 305.6 262.05 301.7 260.85 299.75 254.3 289.3 254.1 267.4 249.65 273.45 241.65 281.85 L233.6 290.2 Q231.85 288.5 231.05 287.15 229.4 284.4 228.95 279.95 L227.25 281.5 222.95 284.9 Q227.5 289.9 227.5 293.8 L226.85 298.45 227.3 299.85 223.95 300.65 219.8 301.95 Q222.6 303.6 224.0 305.1 226.65 308.05 226.65 312.7 226.65 316.15 224.5 319.55 222.35 322.9 222.35 323.65 L222.4 324.35 Q220.8 324.6 218.35 325.65 213.55 327.55 210.25 327.55 206.95 327.55 202.7 325.05 L199.25 322.7 Q199.0 325.55 198.25 328.45 L197.35 332.35 193.35 328.8 Q189.35 325.55 185.45 323.45 182.15 321.7 177.1 315.9 L173.8 311.9 174.1 316.3 Q174.1 323.15 172.25 328.7 170.4 334.25 167.95 337.65 165.9 340.4 164.5 343.45 L162.4 347.6 162.25 347.85 162.25 347.9 161.9 348.4 161.85 348.35 161.8 348.3 154.5 341.8 Q149.45 337.0 146.95 333.9 141.25 326.85 139.45 322.0 137.8 317.55 137.8 310.2 137.8 305.55 137.95 304.25 L137.95 303.9 138.05 303.1 137.45 303.85 135.65 306.1 Q130.95 312.05 127.55 318.55 122.4 328.35 119.75 343.3 L119.75 343.5 Q118.9 351.35 114.4 359.0 110.95 364.8 105.15 369.15 101.85 371.6 98.9 372.8 L98.85 372.8 95.1 373.9 Q97.7 373.2 98.6 372.35 L98.65 372.3 Q99.55 371.4 99.55 369.35 97.65 360.1 98.15 358.65 L98.15 358.3 98.0 358.6 Q94.5 365.95 89.65 367.95 86.65 369.15 77.85 369.15 73.65 368.15 71.8 368.15 L73.45 365.35 73.6 365.1 75.1 361.35 Q77.5 354.9 78.55 353.2 L72.95 353.9 72.2 353.9 71.7 353.85 72.25 353.3 Q74.8 350.75 75.8 344.9 77.85 332.85 79.5 328.2 82.2 320.45 93.5 311.75 101.9 305.95 105.9 302.75 L108.2 297.4 Q110.95 290.25 113.4 286.8 115.8 283.4 118.25 281.0 L118.15 278.65 118.0 276.4 117.35 275.85 122.5 272.05 113.3 275.45 Q107.4 277.75 101.2 281.1 96.95 283.4 88.45 288.7 L79.65 294.0 79.5 294.1 79.5 294.0 79.5 293.75 Q79.5 293.15 78.7 290.8 77.85 288.45 77.85 286.45 77.85 285.05 78.65 283.2 71.35 284.0 62.6 290.0 59.15 292.35 54.6 296.0 L51.85 298.15 Q52.95 295.95 53.15 293.7 L53.15 285.85 Q53.15 280.15 55.1 276.65 56.7 273.75 60.15 271.6 L66.8 268.0 68.35 267.1 Q66.35 266.9 64.35 266.2 61.0 264.9 60.2 262.65 L61.65 262.75 Q62.9 262.75 66.9 259.0 73.85 252.3 75.75 250.75 89.9 238.7 103.55 238.7 L108.95 238.9 103.9 234.9 Q99.5 231.45 98.05 229.3 L93.65 230.7 93.6 230.8 93.45 231.1 Q87.2 239.7 82.05 234.85 L77.7 239.2 Q65.9 241.3 59.0 231.35 68.85 228.4 73.1 221.55 73.1 216.6 71.25 214.1 69.95 212.4 67.65 211.5 61.0 215.2 63.5 221.65 L63.65 222.1 63.65 222.15 63.6 222.15 Q53.75 224.2 53.4 214.5 33.3 207.75 50.7 195.5 L50.7 195.3 51.85 189.85 Q42.9 183.5 51.35 174.9 L51.45 174.8 51.3 174.85 Q38.7 183.55 29.1 175.05 L28.95 175.05 Q5.35 170.55 24.2 150.95 15.45 152.65 8.8 147.35 L8.0 146.55 8.0 145.45 Q3.75 143.8 1.75 141.4 -1.8 137.15 1.75 130.6 2.35 129.45 3.2 128.25 3.3 128.1 3.55 128.1 4.0 124.0 7.2 121.0 L25.2 115.4 Q17.45 106.95 7.4 109.8 L7.05 110.05 7.0 110.05 6.95 110.05 6.95 109.9 6.95 109.85 Q3.8 89.7 28.95 92.1 L31.85 92.3 Q33.95 94.65 36.35 96.65 35.6 79.1 45.95 79.1 L48.85 78.9 Q49.9 79.0 50.2 79.3 L50.5 80.2 Q61.3 85.9 73.9 83.65 L74.95 83.6 75.1 83.6 Q76.85 78.75 81.2 76.15 L81.1 75.15 Q80.9 72.05 83.8 70.5 83.3 66.55 86.85 62.55 82.0 57.5 76.45 57.55 73.55 57.5 70.05 58.85 L70.85 54.05 70.65 51.0 Q76.8 40.0 86.6 47.3 L87.5 47.25 Q92.3 47.9 91.25 52.8 91.8 54.7 92.85 56.3 102.65 71.45 121.1 75.5 L121.15 75.5 121.15 75.1 Q117.75 72.35 116.4 70.3 93.75 35.15 133.15 26.25 159.6 24.85 184.6 13.35 L186.55 12.45 188.8 9.35 Q195.55 0.75 205.85 0.0 L205.9 0.0 206.2 0.0 Q229.35 6.0 213.3 18.35 L213.25 18.35 213.2 18.4 213.05 18.05 Q211.75 12.8 206.15 14.75 208.05 17.4 206.35 20.45 L206.1 20.9 Q215.0 27.45 207.85 38.75 L207.6 39.2 207.6 39.25 207.5 39.25 Q198.4 39.5 191.2 46.0 190.85 46.3 190.6 46.75 L191.15 46.8 Q194.4 47.0 196.75 49.6 199.05 52.1 199.3 55.5 L199.3 56.35 200.05 55.45 Q207.7 43.25 211.8 57.55 L213.9 56.7 216.35 59.55 216.55 59.55 219.75 59.35 Q222.45 60.35 223.7 64.65 224.35 67.1 224.45 69.85 L222.1 76.2 222.1 76.35 222.0 77.1 222.0 77.15 220.7 86.1 Q219.6 91.65 217.75 94.45 M222.9 77.2 Q223.85 78.75 224.65 81.65 226.1 79.85 227.2 79.85 229.25 79.85 230.15 81.8 L230.5 89.8 229.75 90.35 229.75 90.8 Q229.35 96.05 223.65 96.5 L222.5 96.85 Q217.45 98.55 216.05 105.3 L221.25 105.15 Q224.55 95.25 235.15 95.3 L235.9 94.05 Q244.3 85.3 257.7 81.35 259.75 76.45 261.9 73.3 L259.95 67.95 Q257.5 61.7 257.5 61.15 257.5 59.6 259.3 58.35 260.3 57.65 262.65 56.3 L267.0 49.35 Q269.9 44.3 272.6 42.25 275.25 40.15 278.65 40.15 L282.45 40.9 285.85 41.6 Q287.15 41.6 289.05 40.85 L289.2 40.8 290.3 40.35 290.9 39.9 291.55 39.5 291.8 39.35 Q293.05 38.55 295.15 37.45 L298.75 35.55 Q306.4 31.6 309.05 31.5 310.95 31.0 314.3 32.45 316.05 33.2 318.25 34.4 304.8 36.6 289.5 49.35 L294.95 48.5 Q296.7 48.5 301.55 51.4 L304.7 51.8 310.0 51.6 304.9 53.8 Q300.3 55.65 298.35 58.0 295.05 61.95 287.75 67.35 282.45 71.2 279.05 72.85 L279.0 72.9 279.35 73.35 283.4 74.0 283.6 74.45 Q284.9 81.05 278.4 82.6 L278.15 86.6 281.95 86.45 Q302.2 88.8 292.6 103.15 L292.6 106.35 289.4 107.55 Q294.85 117.05 290.25 123.7 287.45 127.75 280.85 130.75 L278.8 131.6 276.8 132.3 279.95 132.8 280.7 135.15 285.25 136.35 Q284.95 137.75 284.3 138.9 283.1 140.85 280.8 141.9 287.8 148.85 278.2 154.55 295.25 165.5 280.6 172.9 L279.6 173.15 279.25 174.5 269.8 178.95 Q278.5 196.55 251.55 190.65 L250.15 190.7 Q235.9 189.35 227.3 179.85 222.1 174.1 218.95 165.5 218.4 168.3 218.45 171.1 L218.45 171.9 226.8 180.3 234.05 187.75 Q241.0 194.75 245.45 197.9 249.9 194.9 253.1 194.9 254.2 194.9 254.95 195.3 L254.8 203.3 254.75 205.2 254.75 208.55 259.55 211.9 260.2 211.4 Q261.9 210.2 265.3 210.2 L267.95 210.4 Q269.25 210.6 269.8 211.15 271.15 212.4 271.15 217.15 L275.15 216.7 Q279.4 216.7 285.45 219.0 288.4 217.4 294.15 216.95 297.1 216.7 310.6 216.7 321.1 216.7 322.85 216.95 M289.4 41.05 L290.3 40.35 291.55 39.5 M270.75 63.8 Q271.85 62.8 274.7 57.6 277.5 52.35 281.1 49.1 L286.7 43.55 289.3 41.1 289.4 41.05 M295.15 37.45 Q292.4 40.1 291.35 41.6 289.55 44.0 288.7 49.15 L288.7 49.2 M289.5 49.35 L288.55 50.15 288.7 49.2 M278.4 82.6 L275.65 83.05 Q271.35 84.75 268.4 88.4 L267.0 90.15 M270.7 92.2 Q273.2 88.55 276.3 87.2 L278.15 86.6 M279.0 72.9 Q269.85 61.6 261.9 73.3 M205.95 0.65 Q212.25 9.2 202.6 12.95 L201.9 13.1 202.45 13.3 206.15 14.75 M207.5 39.15 L207.55 39.2 207.6 39.25 M207.5 39.15 Q200.8 33.0 194.9 39.7 L194.7 39.9 Q190.1 40.35 186.5 43.0 M206.1 20.9 Q204.15 20.2 201.9 20.2 201.5 20.2 196.45 22.4 M123.0 67.8 Q119.9 66.2 120.2 62.65 120.85 54.65 128.2 53.65 L130.35 54.45 130.9 53.65 Q134.95 48.8 141.0 51.05 L141.4 49.6 Q142.55 45.2 146.95 44.35 148.1 30.15 160.95 35.75 L161.5 35.6 Q168.1 35.35 168.9 41.8 169.35 44.0 170.2 45.9 172.65 51.5 178.8 54.0 L179.1 53.5 177.0 48.3 177.15 48.05 Q180.45 43.3 185.55 43.7 L190.6 46.75 M168.9 41.8 L168.15 45.3 169.2 47.45 Q167.15 49.55 169.0 51.95 172.1 55.75 176.6 56.5 M186.55 12.45 L172.15 38.5 M199.3 56.35 L196.3 59.6 205.15 76.2 M173.35 130.55 Q169.15 128.2 169.45 122.85 L169.55 121.05 170.75 119.65 Q166.95 113.95 167.75 109.9 168.6 105.55 174.7 103.15 175.95 102.6 177.35 102.45 177.05 97.25 178.3 93.9 181.3 85.4 193.6 88.3 L198.95 80.15 197.85 79.1 Q190.05 64.95 177.6 59.05 L177.6 55.8 178.8 54.0 M176.7 93.3 Q176.45 92.85 176.2 92.9 152.25 92.5 133.75 79.7 M176.45 127.45 L175.55 124.75 Q173.85 118.95 175.55 114.7 177.35 110.15 183.0 107.4 186.55 102.8 191.25 105.3 L193.1 103.15 193.6 98.5 198.2 98.05 199.0 98.95 199.6 98.8 Q202.95 97.75 205.25 100.65 L206.05 77.55 198.95 80.15 M216.35 59.55 L216.6 60.35 Q217.75 65.2 214.7 69.45 M222.6 96.35 L217.0 95.4 Q214.55 95.75 213.45 97.95 L213.2 98.5 Q209.3 98.8 207.25 102.05 M223.65 96.5 L222.6 96.35 M206.45 112.6 Q209.5 109.4 207.3 104.4 L206.7 103.05 205.25 100.65 M177.2 128.25 Q180.4 126.7 183.8 127.2 L184.5 127.4 Q190.25 121.9 199.3 122.6 L195.8 125.3 196.7 140.9 Q213.95 128.45 215.9 106.55 L216.05 105.3 M239.95 145.9 Q244.5 147.1 249.6 149.35 L266.65 158.2 M239.85 145.3 L240.15 145.25 Q261.55 138.9 278.2 154.55 M239.85 145.3 L238.7 145.55 239.95 145.9 M176.85 128.4 L174.05 131.15 172.65 136.0 Q167.35 139.25 164.95 144.8 L164.95 145.8 Q165.2 150.75 169.5 157.15 M170.05 156.85 L175.55 157.3 Q177.0 157.65 178.25 158.25 181.6 159.8 181.6 162.05 M176.95 128.35 L177.15 128.25 177.2 128.25 M176.95 128.35 L176.85 128.4 M164.45 145.25 L164.45 145.3 164.95 145.8 M190.85 177.2 Q197.3 168.5 197.45 158.3 L197.45 153.6 197.45 153.45 197.4 150.4 197.4 150.05 196.7 140.9 M238.7 145.55 Q218.55 142.4 199.5 149.8 L198.85 150.0 M169.6 157.3 L169.5 157.15 M169.65 157.25 L170.05 156.85 M169.6 157.3 Q163.65 163.7 163.4 169.35 L166.1 177.25 Q168.4 180.25 172.7 183.0 161.8 189.95 170.1 197.55 L170.15 197.55 170.2 197.55 170.15 197.6 Q165.8 204.0 174.1 206.65 L176.2 207.2 177.15 207.35 Q180.05 190.9 190.45 177.7 M190.9 177.25 L190.95 177.3 Q194.3 180.55 196.2 185.1 206.9 210.7 203.5 238.8 M169.65 157.25 L169.6 157.3 M190.9 177.25 L190.85 177.2 190.45 177.7 M219.35 163.75 L218.95 165.5 M218.5 176.7 L218.7 185.65 224.05 184.35 Q224.85 184.1 225.55 184.0 221.95 180.85 218.5 176.7 L218.45 171.9 M218.15 163.45 Q207.75 170.5 213.8 181.25 206.3 183.25 207.7 191.3 208.5 196.05 213.0 197.9 204.2 214.85 220.05 226.05 L219.6 214.6 Q219.0 200.15 218.7 185.65 M228.55 188.2 Q228.3 191.15 227.45 193.35 L227.05 194.45 Q226.5 195.85 226.5 196.7 L227.45 197.35 228.7 197.6 Q228.9 196.2 229.4 195.45 L229.55 195.15 230.25 194.6 232.55 194.4 Q236.8 194.4 237.6 201.55 L237.75 204.25 242.35 200.2 242.5 200.1 237.75 195.4 231.9 189.15 228.6 186.5 228.55 188.2 M227.05 194.45 L225.1 193.5 221.0 193.5 M198.65 153.45 Q215.85 147.8 219.25 162.2 M276.8 132.3 L276.05 132.3 Q267.65 133.0 260.55 137.95 M250.9 189.95 L251.55 190.65 M250.9 189.95 L237.45 176.05 M277.85 213.9 Q280.0 212.85 294.5 199.3 295.4 198.55 302.8 193.8 L311.55 188.25 Q327.3 179.65 331.75 178.8 M289.4 107.55 Q277.45 112.55 266.75 119.9 242.9 136.0 215.2 137.95 M257.7 81.35 L217.65 125.85 M133.15 26.25 L131.7 29.4 Q126.9 40.5 128.1 52.6 M91.25 52.8 Q89.5 55.65 91.3 58.55 L91.25 63.25 87.85 62.85 M75.1 83.65 L75.0 84.0 Q72.05 93.2 81.5 91.65 L81.85 93.95 83.0 94.75 Q83.1 95.4 83.45 96.05 89.9 108.35 105.05 107.65 M83.8 70.5 Q84.95 77.1 91.55 76.65 L91.9 76.55 92.4 76.45 92.0 77.0 Q77.65 95.5 105.75 92.85 107.6 91.35 110.2 90.5 107.95 91.9 105.75 92.85 103.4 94.7 102.1 97.45 102.6 101.3 104.75 101.8 L104.6 102.4 Q104.05 105.05 105.8 106.8 L106.65 107.5 Q117.25 110.15 120.8 99.1 L120.85 98.95 121.05 98.15 121.2 99.05 Q122.5 106.0 129.45 104.2 L128.1 109.0 124.3 109.25 124.0 109.9 Q121.4 114.8 114.85 116.1 112.9 116.5 111.45 114.95 107.8 117.45 104.1 118.05 98.75 118.9 93.15 115.95 88.7 121.45 82.55 117.5 L79.75 115.3 71.4 115.8 71.3 115.8 68.3 114.25 Q57.8 115.8 60.75 107.85 59.2 105.2 60.95 103.35 L62.45 102.2 65.15 100.7 66.95 100.7 M140.4 115.55 L137.55 112.75 Q136.25 111.5 135.8 109.9 134.7 106.4 138.75 102.4 133.8 103.7 132.45 99.2 131.95 97.65 132.8 96.4 120.35 87.55 131.35 81.35 124.3 81.8 121.3 76.1 L121.15 75.5 M154.1 54.4 Q149.35 50.85 143.85 52.4 L143.0 52.65 141.0 51.05 M121.15 75.1 L121.6 70.75 123.6 70.5 123.25 68.55 M60.05 102.45 Q50.65 104.2 50.1 96.4 50.05 96.0 50.15 95.65 44.35 89.7 50.5 80.2 M75.1 83.6 L75.1 83.65 M49.15 137.2 L46.9 137.2 46.25 137.1 44.25 137.8 41.35 143.3 40.25 145.65 Q36.3 155.65 48.65 158.05 L49.3 158.9 Q50.0 159.9 51.15 160.5 L53.9 161.25 38.55 168.3 M49.15 137.8 L52.35 140.6 55.55 139.7 54.2 141.05 54.45 142.95 63.15 142.55 62.6 145.4 70.4 144.35 70.6 146.55 76.0 146.55 Q82.05 143.8 85.1 138.15 L86.1 138.7 Q90.75 140.65 93.9 136.25 L94.9 136.05 Q98.7 136.55 100.65 134.2 M69.45 127.85 L69.2 127.75 64.45 125.45 65.4 124.45 M64.9 123.95 Q50.2 124.55 35.75 121.6 L35.3 121.45 35.2 121.4 35.15 121.4 35.1 121.35 35.0 121.3 34.55 121.15 34.5 121.15 Q30.95 119.65 25.2 115.4 M34.2 121.8 Q28.95 124.2 24.1 120.9 L23.1 120.3 Q15.15 124.45 7.2 121.0 M65.95 123.9 L70.95 116.45 M65.95 123.9 L65.4 124.45 M68.8 128.5 Q60.25 136.85 49.15 137.2 M20.05 146.1 L8.05 145.45 M8.0 145.45 L8.05 145.45 M51.55 174.65 Q54.85 172.05 58.35 172.0 L58.25 171.05 Q58.25 167.8 61.1 167.3 61.85 155.95 71.9 159.4 72.35 159.6 72.75 159.95 M96.15 192.3 Q92.1 196.45 85.1 192.15 L84.5 191.8 Q84.1 176.65 72.55 171.2 69.55 169.8 65.9 169.05 L61.1 167.3 M93.9 136.25 Q88.1 154.5 74.25 164.95 L73.1 165.45 73.45 168.7 M96.55 191.15 L97.1 188.3 95.25 186.9 97.1 186.9 97.1 181.8 94.75 179.45 94.8 179.0 Q94.65 172.95 89.5 169.2 85.5 173.2 80.5 169.0 L79.5 168.25 78.35 169.95 73.1 169.8 M51.5 174.75 L51.5 174.7 51.55 174.65 51.5 174.75 51.45 174.8 M51.85 189.85 L52.7 190.0 Q62.0 190.3 70.6 186.5 M24.2 150.95 L38.95 145.05 M161.85 138.75 L162.9 134.75 Q159.6 131.45 159.25 126.75 L159.2 125.45 Q155.7 123.45 155.1 119.55 154.8 117.45 155.55 115.3 152.85 118.2 149.15 119.5 145.8 120.75 143.25 118.3 L140.4 115.55 Q131.0 122.35 123.25 119.5 L122.95 119.35 Q118.45 126.55 110.55 130.55 L110.3 134.15 114.85 133.35 116.5 134.05 115.7 135.5 115.95 136.0 Q116.6 136.9 115.3 136.4 L114.2 139.65 Q110.95 138.85 109.7 141.8 L109.95 142.9 113.2 143.15 112.4 146.65 114.4 147.15 116.65 144.2 118.75 144.65 116.5 148.4 119.35 148.6 119.6 150.65 124.4 151.9 Q122.55 153.05 122.0 154.5 121.45 155.95 122.2 157.75 L124.8 157.9 125.0 156.3 124.9 157.85 124.85 157.9 124.8 157.9 124.9 157.9 127.95 157.7 129.1 154.5 129.05 157.7 129.0 159.3 132.15 159.6 Q129.5 161.55 130.55 164.3 L134.2 164.45 135.6 162.3 135.55 164.8 138.3 165.0 139.2 164.5 138.6 166.4 140.4 166.35 141.15 166.35 144.45 163.35 141.1 167.45 140.35 168.3 140.35 168.35 140.35 169.85 142.65 169.75 145.3 167.05 144.85 168.7 144.95 169.35 145.05 169.9 147.25 169.9 147.4 169.65 147.7 171.35 150.45 170.85 150.65 169.85 151.1 173.05 152.85 173.35 153.05 169.0 157.15 166.4 Q157.05 164.5 157.2 165.9 L157.15 166.4 Q157.2 167.9 158.0 168.8 L159.55 168.8 159.55 163.15 Q159.6 165.2 161.3 167.45 162.4 168.85 163.4 169.35 M136.7 130.55 Q137.55 130.1 137.0 129.3 135.35 126.95 135.1 126.05 L137.9 125.3 138.75 123.0 140.35 123.45 139.6 126.3 141.55 126.4 141.6 128.0 142.7 128.0 146.55 124.9 148.1 123.7 146.8 125.2 146.8 126.7 148.75 126.7 152.4 125.85 Q148.5 127.25 148.55 131.0 152.0 130.9 154.35 128.2 L154.15 130.35 152.4 131.8 151.95 134.5 156.5 133.85 153.7 135.9 153.5 136.85 155.45 136.85 158.0 135.35 156.55 138.45 159.7 138.75 161.5 138.75 161.85 138.75 M161.5 138.85 Q161.7 142.55 164.45 145.25 M136.7 130.55 L133.6 130.65 Q133.6 128.3 132.7 129.75 L130.85 129.65 128.9 134.45 134.5 140.25 134.5 141.4 133.75 141.4 133.85 141.7 Q135.25 145.15 137.95 147.65 141.05 150.6 145.35 151.15 L156.3 151.7 Q156.4 150.7 158.05 150.15 L155.8 149.45 155.95 147.9 157.35 147.25 159.65 147.5 M160.45 156.95 L160.05 157.55 159.75 159.05 157.8 161.25 154.85 161.25 154.85 160.4 157.15 157.55 152.65 158.2 153.25 153.5 150.25 157.95 148.1 158.2 148.75 156.2 144.7 157.4 144.5 155.85 146.25 154.8 144.85 153.45 142.5 152.75 142.9 154.95 138.1 153.75 134.9 153.65 135.15 147.85 133.2 152.05 130.85 152.2 130.85 150.65 134.1 144.8 131.75 143.15 132.35 142.05 131.05 139.05 M159.7 138.75 Q158.4 141.0 157.1 141.7 155.65 142.45 150.9 142.45 145.05 142.45 142.05 139.8 139.0 137.25 136.7 130.55 M161.5 138.85 L161.5 138.75 M94.35 127.4 L94.35 126.65 94.35 126.6 94.2 126.65 Q82.45 129.35 69.45 127.85 M94.35 127.4 L94.35 127.5 94.35 127.55 Q95.35 132.55 100.75 133.0 L101.3 133.0 101.45 133.0 106.2 132.4 110.55 130.55 M106.2 132.4 Q106.75 138.25 104.1 143.15 L102.25 145.9 101.1 147.45 Q102.5 151.5 102.1 156.0 101.6 161.0 97.1 161.75 96.45 162.0 95.85 162.9 95.1 164.05 93.6 163.95 92.7 163.9 92.0 163.45 L89.5 169.2 M110.2 173.4 L110.85 166.2 111.8 166.1 Q118.65 163.25 120.5 154.25 L120.7 153.05 M135.25 166.5 Q130.75 173.15 123.95 177.25 120.15 179.5 115.6 181.0 115.05 181.1 114.65 181.5 L115.95 189.2 125.85 186.3 125.85 186.25 125.9 186.1 126.0 185.8 126.3 185.3 126.3 185.25 Q128.65 181.1 131.55 177.25 135.2 172.25 139.6 167.7 L140.4 166.85 M109.55 173.35 L110.1 174.35 110.2 173.4 M109.55 173.35 Q104.3 160.85 110.55 148.3 M98.15 182.95 Q104.6 184.7 104.65 191.2 L104.6 191.35 103.0 191.7 105.35 193.55 Q107.35 195.15 106.85 197.75 107.45 196.6 109.15 195.35 109.8 191.25 115.95 189.2 M109.15 195.35 L120.0 191.6 M114.65 181.5 L110.1 174.35 M159.75 149.8 L158.05 150.15 M160.6 152.2 L159.25 153.0 Q158.65 153.4 158.0 154.1 L158.0 156.5 159.75 156.5 161.9 154.55 160.45 156.95 M156.3 151.7 L159.25 153.0 M147.9 154.75 L146.25 154.8 M144.4 169.45 Q141.7 173.7 138.3 177.25 133.35 182.3 127.05 185.75 L126.95 185.8 126.9 185.8 126.65 185.95 126.15 186.15 125.95 186.25 125.9 186.3 125.85 186.3 M144.4 169.45 L144.85 168.7 M132.0 205.05 L131.9 201.6 135.25 200.7 134.2 198.35 Q139.3 191.45 148.75 192.3 L152.6 187.95 152.75 186.75 Q153.65 180.95 157.25 177.25 159.45 174.9 162.65 173.4 M142.75 198.45 Q147.8 195.85 151.35 193.4 152.3 190.95 152.6 187.95 M36.35 96.65 Q41.35 100.75 47.7 103.2 M157.55 204.55 L157.45 203.65 157.1 203.95 Q156.2 204.6 155.0 204.8 152.7 205.35 151.7 203.25 L146.6 202.65 151.35 193.4 M157.55 204.55 Q162.0 215.75 174.1 206.65 M132.8 205.65 Q134.25 202.75 141.8 198.95 L142.0 198.85 142.2 198.75 M142.75 198.45 L142.65 198.5 142.45 198.65 142.2 198.75 M160.7 237.45 Q162.0 228.2 159.8 219.35 L159.65 218.85 M130.55 204.7 L126.6 202.85 126.7 197.55 Q118.25 197.7 108.7 202.65 L106.6 199.3 106.55 199.2 105.85 199.75 105.8 199.7 Q103.0 194.75 97.8 191.4 M125.45 219.45 L125.35 219.5 Q119.55 222.2 114.75 224.1 L133.05 236.65 M139.65 205.05 Q132.1 209.0 125.7 214.35 L125.0 215.0 Q117.45 214.6 111.5 218.75 110.05 219.75 109.3 221.35 98.4 222.1 93.65 230.7 L93.6 230.75 93.6 230.8 93.55 230.85 93.45 231.1 M136.1 225.3 Q134.25 220.45 137.35 214.55 L137.95 213.25 Q131.2 216.75 125.45 219.45 132.7 223.05 136.1 225.3 136.85 227.35 138.55 229.2 142.5 225.15 143.3 219.25 M137.95 213.25 Q141.8 206.9 142.75 199.85 M106.55 199.2 L106.85 197.75 M96.7 192.75 Q93.35 198.75 86.95 201.9 L85.45 202.75 67.65 211.5 M114.75 224.1 Q109.5 226.15 105.4 227.3 L98.05 229.3 M108.95 238.9 Q113.15 239.25 115.6 240.25 L120.25 242.45 Q123.95 244.25 128.0 245.8 M139.5 263.8 L130.0 263.1 Q127.3 263.05 124.3 264.95 L121.25 266.85 Q114.6 265.45 112.75 265.45 103.45 265.45 92.8 274.5 82.75 283.05 81.25 290.55 M144.15 264.3 L147.3 264.85 Q150.4 264.85 151.7 263.45 153.05 262.0 153.1 258.55 153.1 256.1 152.3 253.55 L151.4 251.45 Q127.45 249.45 138.55 229.2 M144.15 264.3 L142.6 264.15 Q141.7 264.1 140.7 264.65 L140.1 265.0 139.5 265.45 M145.1 268.8 Q145.75 268.35 146.7 268.1 L145.35 266.5 Q144.5 265.4 144.15 264.3 M136.3 269.65 L136.45 271.2 Q136.45 272.85 135.75 274.6 L134.45 277.9 Q136.05 276.95 137.1 277.0 L137.9 277.1 140.6 274.8 142.95 271.4 Q144.0 269.5 145.05 268.8 L145.1 268.8 Q144.65 268.2 143.05 268.2 L138.6 269.05 136.3 269.65 135.75 268.5 Q135.0 267.8 132.55 267.8 129.05 267.8 123.55 271.35 L122.85 271.8 122.5 272.05 M152.8 268.6 Q151.3 267.8 149.5 267.8 L146.7 268.1 M159.15 263.25 L157.15 265.5 Q154.9 267.65 152.8 268.6 L154.05 269.35 Q156.35 271.1 156.1 273.95 155.75 277.2 161.15 286.8 162.3 288.85 165.35 292.85 168.8 297.45 171.45 303.45 173.2 307.45 173.8 311.9 M160.1 271.75 L160.05 271.75 159.95 271.75 160.05 271.8 Q172.05 281.85 187.8 304.35 190.65 308.4 193.3 316.4 L196.35 326.4 M159.95 271.75 L157.8 270.0 156.85 270.0 Q158.9 269.45 160.8 267.35 L162.55 265.05 Q160.55 264.3 159.15 263.25 154.2 259.5 156.25 251.65 L151.4 251.45 M140.7 264.65 Q141.85 263.6 142.1 262.65 L142.25 259.35 Q142.25 257.5 141.7 256.25 L139.85 252.25 M134.45 277.9 Q130.5 280.1 123.05 287.7 111.45 299.5 101.55 314.6 97.2 321.15 92.2 332.15 L85.6 346.75 Q79.05 360.25 76.15 365.1 L75.25 366.45 M137.9 277.1 Q141.6 278.25 148.0 289.35 154.6 301.0 156.45 309.2 157.95 315.8 158.25 322.45 L158.4 332.5 Q158.55 337.8 159.65 341.75 160.05 343.25 161.2 345.5 M118.25 281.0 Q124.4 274.85 130.35 275.25 M58.25 288.2 Q71.1 271.85 92.85 264.25 114.35 256.75 140.85 259.05 M53.4 214.5 L57.35 214.2 Q59.15 213.4 61.9 209.1 M82.05 234.85 Q80.9 233.75 79.85 232.05 L79.6 231.25 M54.6 296.0 L57.1 292.5 Q60.0 287.95 64.0 286.45 66.7 285.45 68.3 284.0 L70.4 281.75 Q72.45 279.35 78.2 279.35 L80.8 279.4 M119.75 343.3 Q120.0 334.3 120.55 328.8 121.45 318.8 124.45 313.5 126.65 309.6 131.0 305.35 M73.1 221.55 L84.75 203.8 M295.45 209.7 Q300.35 207.65 307.65 205.3 L319.05 201.6 Q331.4 197.4 335.25 192.65 M330.0 226.5 Q325.8 226.85 316.35 226.2 L301.2 225.1 Q298.8 225.0 289.75 220.8 287.5 219.75 285.45 219.0 M298.05 229.75 Q293.45 223.75 287.85 223.8 283.75 223.75 282.05 224.4 280.55 224.95 280.0 226.4 L279.95 226.45 Q279.1 231.2 276.25 235.4 273.85 234.15 272.65 232.25 271.75 230.9 270.2 227.1 269.55 230.0 268.4 232.0 L268.2 233.8 273.35 239.1 273.65 238.4 M274.05 237.3 L278.45 236.9 284.95 237.65 289.75 238.8 M304.85 245.4 Q303.25 244.35 300.65 243.05 L295.0 239.95 M305.4 230.45 L305.2 230.2 304.5 230.25 304.4 230.2 304.2 230.25 M305.2 230.2 L304.4 230.2 M271.15 217.15 L271.15 217.2 270.9 222.45 276.85 225.0 280.0 226.4 M259.55 211.9 L256.55 213.65 Q254.7 220.2 253.45 223.05 250.0 230.6 239.55 245.0 230.3 257.75 219.85 269.85 210.45 280.75 209.35 282.45 M256.55 213.65 L254.95 214.3 254.85 212.9 Q251.5 212.05 243.55 215.7 239.45 217.55 225.55 225.1 M254.75 208.55 L254.85 212.9 M273.35 239.1 L276.2 242.0 Q283.3 249.15 287.9 254.75 302.35 272.45 305.15 289.8 M270.9 222.45 L270.2 227.1 M269.9 304.75 Q269.85 301.35 266.15 290.9 264.95 287.75 265.0 271.8 265.0 263.05 265.15 260.2 265.35 256.65 266.15 254.45 L268.75 249.05 273.35 239.1 M268.2 233.8 Q267.4 239.7 264.35 247.8 260.3 258.5 254.95 266.25 L254.1 267.4 M280.95 297.5 L280.05 295.15 Q279.25 292.35 279.25 284.7 279.25 277.1 280.65 272.9 282.0 268.9 281.9 260.9 M235.0 284.25 Q234.4 280.9 239.45 271.7 L250.45 252.25 Q256.25 241.55 256.25 220.15 M237.75 204.25 L234.1 207.1 222.0 213.45 M229.2 206.1 Q229.2 203.7 228.3 198.95 M220.05 226.05 L228.5 240.55 226.25 243.1 226.6 248.45 221.85 248.95 221.85 249.8 Q221.9 256.3 215.8 255.3 L215.45 259.65 213.85 260.3 Q214.7 273.2 202.75 271.5 L202.1 273.6 200.6 274.05 199.8 273.95 199.8 276.15 Q200.5 278.8 202.0 282.1 L204.1 287.2 205.9 287.0 Q207.8 287.0 209.95 287.7 L214.25 288.35 Q217.95 288.35 222.95 284.9 M190.15 261.55 Q190.15 238.1 177.8 212.6 176.95 210.85 176.5 208.95 M165.8 265.65 Q167.65 265.35 168.55 262.9 L173.3 263.7 175.15 259.6 179.25 260.05 180.8 264.25 187.75 264.35 187.95 261.65 190.15 261.55 194.85 273.05 199.8 273.95 M162.55 265.05 L163.9 265.5 165.8 265.65 163.0 273.0 163.2 273.1 Q180.6 268.8 191.9 269.8 M228.95 279.95 Q236.15 272.85 238.65 264.4 M215.8 255.3 Q215.2 250.65 209.25 244.5 M219.8 301.95 L217.85 300.9 M163.2 273.1 Q183.3 282.25 202.4 299.2 210.0 305.9 214.9 314.2 L219.35 322.6 M227.45 197.35 L220.55 204.8 M163.0 273.0 L160.1 271.75 M242.5 200.1 Q244.0 198.85 245.45 197.9" fill="none" stroke="#000000" stroke-linecap="round" stroke-linejoin="round" stroke-width="0.1"/>
  </g>
</svg>
