<?xml version="1.0" encoding="UTF-8" standalone="no"?>
<svg xmlns:xlink="http://www.w3.org/1999/xlink" height="148.15px" width="119.75px" xmlns="http://www.w3.org/2000/svg">
  <g transform="matrix(1.0, 0.0, 0.0, 1.0, 0.5, 0.5)">
    <path d="M11.2 18.95 L12.1 17.95 Q16.05 13.9 24.85 7.35 33.6 0.8 48.0 0.3 62.4 -0.2 68.2 0.2 74.05 0.55 84.75 5.3 95.4 10.05 100.55 15.85 105.7 21.65 111.8 32.35 117.9 43.05 118.55 50.35 119.15 57.65 117.8 68.8 116.4 79.95 114.4 84.6 112.4 89.25 108.2 95.8 L95.2 112.6 95.1 112.75 94.7 113.35 Q76.05 139.15 56.15 147.0 L55.85 147.1 Q49.05 147.3 45.95 146.15 46.2 146.05 53.6 146.3 L53.8 146.3 Q61.35 146.5 74.85 130.7 88.35 114.85 88.2 97.65 88.0 80.45 85.5 73.85 79.15 70.7 77.25 70.05 73.05 68.6 66.95 68.6 60.7 68.6 57.1 70.15 52.85 72.0 49.3 76.9 52.25 66.6 58.05 61.85 62.6 58.15 69.35 57.35 L69.45 57.85 69.55 57.35 73.45 57.1 79.15 57.55 Q78.5 51.2 71.3 39.4 67.05 32.5 64.15 29.3 67.45 34.6 68.75 38.8 70.15 43.35 70.15 49.45 70.15 53.1 69.55 57.35 L69.35 57.35 68.7 54.4 Q67.2 47.95 64.8 42.45 57.5 25.9 45.55 25.9 41.25 25.9 39.0 27.3 37.7 28.1 34.2 31.85 32.9 27.8 25.35 23.5 18.15 19.4 11.2 18.95 M33.5 103.6 L34.35 102.9 Q34.6 105.3 38.15 105.9 L45.05 106.85 Q44.2 107.25 42.25 109.0 40.75 110.35 39.7 110.35 38.15 110.35 35.8 108.65 34.05 107.35 33.55 106.2 L33.35 105.3 Q33.35 103.8 33.5 103.6 M40.0 108.4 L39.5 108.25 33.55 106.2 Q35.75 108.05 38.6 109.35 L40.0 108.4" fill="#ffceb7" fill-rule="evenodd" stroke="none"/>
    <path d="M5.55 81.6 L0.65 59.6 0.15 52.15 Q-0.3 45.1 0.85 39.65 1.95 34.2 5.05 28.1 7.8 22.7 11.2 18.95 18.15 19.4 25.35 23.5 32.9 27.8 34.2 31.85 37.7 28.1 39.0 27.3 41.25 25.9 45.55 25.9 57.5 25.9 64.8 42.45 67.2 47.95 68.7 54.4 L69.35 57.35 69.55 57.35 Q70.15 53.1 70.15 49.45 70.15 43.35 68.75 38.8 67.45 34.6 64.15 29.3 67.05 32.5 71.3 39.4 78.5 51.2 79.15 57.55 L73.45 57.1 69.55 57.35 69.45 57.85 69.35 57.35 Q62.6 58.15 58.05 61.85 52.25 66.6 49.3 76.9 52.85 72.0 57.1 70.15 60.7 68.6 66.95 68.6 73.05 68.6 77.25 70.05 79.15 70.7 85.5 73.85 88.0 80.45 88.2 97.65 88.35 114.85 74.85 130.7 61.35 146.5 53.8 146.3 L53.6 146.3 Q50.35 145.2 47.75 144.75 L37.35 137.45 Q35.15 135.95 28.35 129.15 21.5 122.35 17.9 116.25 14.3 110.15 11.2 98.9 8.0 87.65 5.55 81.6 M36.55 93.4 Q37.75 90.15 37.75 87.1 37.75 79.8 33.05 75.9 30.35 73.65 26.9 73.2 30.35 75.8 33.85 81.5 36.2 88.95 35.7 96.2 L35.3 99.6 34.85 102.1 Q36.3 96.4 36.5 93.6 L36.55 93.4 M33.5 103.6 Q33.35 103.8 33.35 105.3 L33.55 106.2 Q34.05 107.35 35.8 108.65 38.15 110.35 39.7 110.35 40.75 110.35 42.25 109.0 44.2 107.25 45.05 106.85 L38.15 105.9 Q34.6 105.3 34.35 102.9 L33.5 103.6" fill="#ffe2d5" fill-rule="evenodd" stroke="none"/>
    <path d="M45.95 146.15 L44.6 145.45 34.0 137.75 Q26.25 132.05 21.15 126.4 16.05 120.75 12.65 112.9 9.2 105.05 6.25 84.9 L5.55 81.6 Q8.0 87.65 11.2 98.9 14.3 110.15 17.9 116.25 21.5 122.35 28.35 129.15 35.15 135.95 37.35 137.45 L47.75 144.75 Q50.35 145.2 53.6 146.3 46.2 146.05 45.95 146.15 M33.85 81.5 Q30.35 75.8 26.9 73.2 30.35 73.65 33.05 75.9 37.75 79.8 37.75 87.1 37.75 90.15 36.55 93.4 L36.5 93.4 36.5 92.85 Q36.5 83.6 33.2 79.55 L33.85 81.5" fill="#ffffff" fill-rule="evenodd" stroke="none"/>
    <path d="M33.85 81.5 L33.2 79.55 Q36.5 83.6 36.5 92.85 L36.5 93.4 36.5 93.6 Q36.3 96.4 34.85 102.1 L35.3 99.6 35.7 96.2 Q36.2 88.95 33.85 81.5 M40.0 108.4 L38.6 109.35 Q35.75 108.05 33.55 106.2 L39.5 108.25 40.0 108.4" fill="#000000" fill-rule="evenodd" stroke="none"/>
    <path d="M11.2 18.95 L12.1 17.95 Q16.05 13.9 24.85 7.35 33.6 0.8 48.0 0.3 62.4 -0.2 68.2 0.2 74.05 0.55 84.75 5.3 95.4 10.05 100.55 15.85 105.7 21.65 111.8 32.35 117.9 43.05 118.55 50.35 119.15 57.65 117.8 68.8 116.4 79.95 114.4 84.6 112.4 89.25 108.2 95.8 L95.2 112.6 95.1 112.75 94.7 113.35 Q76.05 139.15 56.15 147.0 L55.85 147.1 Q49.05 147.3 45.95 146.15 L44.6 145.45 34.0 137.75 Q26.25 132.05 21.15 126.4 16.05 120.75 12.65 112.9 9.2 105.05 6.25 84.9 L5.55 81.6 0.65 59.6 0.15 52.15 Q-0.3 45.1 0.85 39.65 1.95 34.2 5.05 28.1 7.8 22.7 11.2 18.95 Z" fill="none" stroke="#000000" stroke-linecap="round" stroke-linejoin="round" stroke-width="1.0"/>
  </g>
</svg>
