<?xml version="1.0" encoding="UTF-8" standalone="no"?>
<svg xmlns:xlink="http://www.w3.org/1999/xlink" height="16.35px" width="86.55px" xmlns="http://www.w3.org/2000/svg">
  <g transform="matrix(1.0, 0.0, 0.0, 1.0, 0.0, 0.0)">
    <path d="M82.0 4.3 L86.55 3.8 Q84.7 6.2 79.6 9.4 78.7 9.9 77.7 10.5 81.5 7.55 81.5 5.5 81.55 4.8 81.2 4.4 L82.0 4.3 M0.95 4.75 Q1.9 4.55 2.9 3.8 L2.9 4.55 Q3.75 7.55 4.75 9.3 L5.2 9.95 4.45 9.3 0.0 4.85 0.95 4.75" fill="#000000" fill-rule="evenodd" stroke="none"/>
    <path d="M82.0 4.3 L81.2 4.4 Q81.55 4.8 81.5 5.5 81.5 7.55 77.7 10.5 78.7 9.9 79.6 9.4 L75.75 12.25 Q69.35 16.35 64.75 16.35 62.0 16.35 60.6 15.65 59.6 15.1 57.5 12.95 54.0 9.3 54.0 5.45 L54.45 2.25 58.95 1.0 Q62.95 0.0 67.0 0.0 L71.7 0.2 76.65 1.65 Q81.1 3.05 82.0 4.3 M0.95 4.75 L0.75 4.25 5.7 1.75 Q9.2 0.0 11.65 0.0 17.6 0.0 22.2 4.3 L23.45 5.55 24.2 7.2 24.4 8.85 Q24.55 10.35 24.25 11.4 L23.65 13.0 21.8 14.85 Q20.3 16.2 18.6 16.2 11.05 16.2 4.75 9.3 3.75 7.55 2.9 4.55 L2.9 3.8 Q1.9 4.55 0.95 4.75" fill="#ffffff" fill-rule="evenodd" stroke="none"/>
  </g>
</svg>
