<?xml version="1.0" encoding="UTF-8" standalone="no"?>
<svg xmlns:xlink="http://www.w3.org/1999/xlink" height="17.45px" width="16.9px" xmlns="http://www.w3.org/2000/svg">
  <g transform="matrix(1.0, 0.0, 0.0, 1.0, 0.0, 0.0)">
    <path d="M9.1 17.45 L8.45 17.45 Q4.95 17.45 2.45 14.9 -0.05 12.35 0.0 8.75 0.0 7.8 0.15 6.9 0.65 4.4 2.45 2.55 4.95 -0.05 8.45 0.0 11.95 -0.05 14.45 2.55 16.55 4.75 16.85 7.8 L15.45 7.8 15.5 8.6 Q15.5 10.9 13.9 12.55 12.4 14.2 10.25 14.2 8.05 14.2 6.5 12.55 4.95 10.9 4.95 8.6 4.95 7.7 5.2 6.9 3.65 4.75 1.8 5.65 1.3 7.95 1.35 8.75 1.3 12.35 3.8 14.9 6.05 17.2 9.1 17.45" fill="#000000" fill-rule="evenodd" stroke="none"/>
    <path d="M9.1 17.45 Q6.05 17.2 3.8 14.9 1.3 12.35 1.35 8.75 1.3 7.95 1.8 5.65 3.65 4.75 5.2 6.9 4.95 7.7 4.95 8.6 4.95 10.9 6.5 12.55 8.05 14.2 10.25 14.2 12.4 14.2 13.9 12.55 15.5 10.9 15.5 8.6 L15.45 7.8 16.85 7.8 16.9 8.75 Q16.9 12.35 14.45 14.9 12.2 17.2 9.1 17.45" fill="#fe8181" fill-rule="evenodd" stroke="none"/>
  </g>
</svg>
