<?xml version="1.0" encoding="UTF-8" standalone="no"?>
<svg xmlns:xlink="http://www.w3.org/1999/xlink" height="13.0px" width="42.05px" xmlns="http://www.w3.org/2000/svg">
  <g transform="matrix(1.0, 0.0, 0.0, 1.0, 0.0, 0.0)">
    <path d="M39.05 8.4 L33.75 5.0 Q29.05 2.2 21.35 2.15 13.65 2.1 6.4 7.9 L4.15 9.7 0.0 13.0 Q2.3 9.15 8.7 4.55 15.7 -0.5 21.9 0.05 28.05 0.6 32.4 3.0 36.0 4.95 40.45 9.0 L42.05 10.5 39.05 8.4" fill="#000000" fill-rule="evenodd" stroke="none"/>
    <path d="M39.05 8.4 L32.0 5.15 Q27.45 3.05 22.5 3.35 14.35 3.2 9.95 5.85 6.8 7.7 4.15 9.7 L6.4 7.9 Q13.65 2.1 21.35 2.15 29.05 2.2 33.75 5.0 L39.05 8.4" fill="#ffffff" fill-rule="evenodd" stroke="none"/>
  </g>
</svg>
