<?xml version="1.0" encoding="UTF-8" standalone="no"?>
<svg xmlns:xlink="http://www.w3.org/1999/xlink" height="16.8px" width="91.7px" xmlns="http://www.w3.org/2000/svg">
  <g transform="matrix(1.0, 0.0, 0.0, 1.0, 0.0, 0.0)">
    <path d="M68.75 0.0 L72.8 0.5 Q75.2 1.0 77.6 2.15 L77.65 2.15 85.4 5.75 Q81.65 4.65 77.6 2.85 L77.55 2.8 Q75.5 1.9 72.8 1.5 L66.6 1.3 66.55 1.3 Q63.65 1.45 60.9 2.25 57.2 3.35 53.8 5.6 58.0 2.5 60.9 1.3 L61.3 1.15 Q63.55 0.25 66.55 0.05 L68.75 0.0 M53.05 10.85 Q57.1 7.9 60.9 6.3 63.8 5.1 66.55 4.65 L70.1 4.35 72.8 4.5 77.6 5.15 Q80.3 5.75 82.3 6.8 86.55 9.05 88.0 9.25 L90.75 8.9 91.7 8.4 91.4 8.95 Q89.85 11.4 87.85 11.45 L84.85 11.25 79.25 9.15 77.6 8.6 Q75.5 8.0 72.8 7.7 L66.55 7.35 66.2 7.35 62.2 7.8 60.9 8.2 59.45 8.7 Q57.15 9.5 54.75 11.0 52.3 12.5 51.7 12.95 L52.2 11.9 52.25 11.8 52.5 11.25 53.05 10.85 M26.05 9.75 Q27.15 10.7 28.05 12.05 L28.75 13.15 30.45 16.8 Q27.45 11.95 22.65 10.15 17.85 8.35 13.7 8.55 9.55 8.75 8.1 9.75 6.65 10.75 5.35 11.05 L2.8 10.85 Q1.55 10.3 0.0 8.1 L1.75 9.0 2.45 9.05 3.1 9.05 3.15 9.05 Q4.55 9.0 8.1 7.05 11.65 5.05 15.4 5.55 L20.65 6.65 Q22.2 7.25 24.7 8.8 L26.05 9.75 M7.35 2.5 Q9.3 1.8 11.65 1.65 L16.35 2.1 Q18.75 2.7 23.85 7.05 22.55 6.6 19.5 4.75 16.4 2.85 12.5 2.6 8.6 2.3 6.3 3.55 4.15 4.7 1.45 6.6 5.35 3.15 7.35 2.5" fill="#000000" fill-rule="evenodd" stroke="none"/>
    <path d="M53.05 10.85 Q57.0 6.65 60.9 4.7 63.75 3.2 66.55 2.9 L67.3 2.85 72.8 3.15 Q75.25 3.55 77.6 4.5 79.2 5.1 80.8 5.95 87.3 9.45 90.75 8.9 L88.0 9.25 Q86.55 9.05 82.3 6.8 80.3 5.75 77.6 5.15 L72.8 4.5 70.1 4.35 66.55 4.65 Q63.8 5.1 60.9 6.3 57.1 7.9 53.05 10.85 M3.15 9.05 L8.85 6.05 Q11.6 4.6 15.2 4.65 18.8 4.7 20.35 5.55 L21.9 6.35 Q24.1 7.15 26.05 9.75 L24.7 8.8 Q22.2 7.25 20.65 6.65 L15.4 5.55 Q11.65 5.05 8.1 7.05 4.55 9.0 3.15 9.05" fill="#ffffff" fill-rule="evenodd" stroke="none"/>
  </g>
</svg>
