<?xml version="1.0" encoding="UTF-8" standalone="no"?>
<svg xmlns:xlink="http://www.w3.org/1999/xlink" height="214.0px" width="177.55px" xmlns="http://www.w3.org/2000/svg">
  <g transform="matrix(1.0, 0.0, 0.0, 1.0, 0.5, 0.5)">
    <path d="M103.85 15.15 L99.6 12.6 Q93.2 9.0 90.0 8.45 L88.1 8.15 90.5 7.55 95.65 6.75 Q93.45 5.6 91.4 5.15 L93.9 5.05 103.1 4.8 Q101.45 2.2 96.9 0.35 L96.0 0.0 100.6 0.35 Q105.8 1.1 119.65 8.95 L119.75 9.0 Q126.65 14.2 130.6 20.05 136.35 28.5 138.35 42.8 L138.4 43.2 137.05 43.0 137.0 42.15 Q136.25 32.6 129.5 23.15 121.0 11.05 107.45 8.0 110.9 9.3 114.6 15.45 L108.35 14.9 103.85 15.15 M44.85 13.95 Q38.2 17.95 34.25 22.6 37.55 19.9 42.65 17.7 L57.05 13.1 Q51.65 15.6 50.45 17.2 L55.85 15.95 64.35 14.95 Q61.45 15.35 59.3 16.25 57.65 16.9 53.4 19.65 L56.4 18.7 64.5 18.3 Q56.2 20.6 52.05 25.2 56.6 23.75 60.7 23.75 L67.6 24.6 67.65 24.6 67.6 24.9 Q65.1 25.0 61.95 25.8 L60.05 26.35 62.35 26.55 65.05 26.75 Q66.4 26.65 71.35 28.9 60.45 29.0 56.95 33.6 L56.9 33.7 Q54.6 34.35 52.2 35.35 48.55 36.9 46.35 38.3 48.55 36.9 52.2 35.35 54.6 34.35 56.9 33.7 L57.05 33.65 Q61.65 32.25 65.7 32.25 73.8 32.25 79.3 39.75 83.5 45.55 86.15 55.85 87.45 60.9 88.35 67.7 86.3 60.95 80.25 49.8 72.75 36.05 61.8 36.05 49.95 36.05 42.8 44.6 L40.7 46.7 40.2 45.6 40.0 45.4 Q37.85 42.85 34.45 40.65 30.05 37.8 25.8 37.8 21.45 37.8 15.85 44.25 10.65 50.25 9.55 55.2 6.4 68.65 6.4 83.7 6.4 94.9 9.5 110.85 10.65 116.9 11.9 121.15 12.3 128.6 14.35 133.9 L17.2 140.0 Q9.1 128.5 5.7 114.2 2.35 99.9 3.4 84.85 L4.6 65.8 Q4.8 61.9 7.85 49.2 L9.0 44.7 9.75 43.65 Q12.2 40.4 15.3 38.45 L16.1 37.95 16.65 37.7 18.1 35.9 Q20.75 33.0 23.95 31.55 28.75 18.75 44.85 13.95 M92.45 165.75 Q97.05 158.4 99.6 151.95 103.2 142.85 103.65 139.5 104.05 136.1 105.4 127.35 106.75 118.6 108.3 100.7 108.05 91.75 107.15 85.15 106.25 78.5 100.15 62.95 94.25 48.0 83.85 38.25 L82.85 37.45 78.2 33.6 78.25 33.45 Q81.7 34.5 85.0 35.95 82.6 30.6 75.35 27.9 77.7 27.6 81.3 29.0 78.85 26.4 74.6 24.0 69.85 21.25 66.65 21.05 L72.9 20.75 Q77.1 20.75 85.5 24.0 85.65 21.45 83.5 18.65 81.3 15.8 77.15 13.75 80.5 14.1 86.35 16.05 92.15 18.0 97.5 23.1 97.7 21.5 96.8 19.85 94.75 16.0 86.9 11.8 95.6 13.2 104.25 20.65 112.9 28.05 119.55 38.3 126.2 48.5 130.25 56.6 L131.25 58.9 Q133.45 65.05 135.75 79.05 L135.75 79.15 137.1 88.05 138.5 98.75 138.4 99.85 138.05 104.55 138.4 99.85 Q143.35 95.9 145.55 91.1 147.1 87.75 147.7 83.0 L148.3 81.95 Q149.5 79.8 150.45 76.35 L153.65 79.25 Q153.3 89.0 151.15 94.55 149.35 99.3 143.85 102.2 L138.05 104.55 137.85 106.75 137.85 106.8 Q136.95 116.85 135.55 126.9 133.0 144.7 122.15 169.7 117.5 180.35 111.15 189.8 114.95 183.25 118.05 176.2 128.9 151.2 131.45 133.4 132.85 123.35 133.75 113.3 L133.75 113.25 134.4 105.25 134.8 98.0 134.8 97.8 Q135.25 86.85 132.55 75.5 L132.5 75.55 Q134.15 83.4 132.75 103.05 L132.65 104.4 Q131.35 125.5 126.1 139.7 120.75 153.95 116.4 161.3 L116.2 161.65 Q111.75 169.0 106.2 176.7 100.6 184.4 95.7 190.05 90.75 195.7 84.35 201.2 77.95 206.65 74.3 209.85 80.65 204.05 86.8 193.15 L99.1 171.15 101.45 166.25 Q109.55 156.25 117.0 137.3 124.45 118.35 125.5 94.45 126.55 70.55 118.05 57.65 118.05 64.75 116.85 71.0 114.75 66.5 113.25 64.4 111.75 62.2 107.2 58.65 109.25 60.8 111.05 74.0 111.8 91.1 111.45 100.45 111.1 109.8 109.85 126.2 109.75 132.75 106.75 141.05 L104.7 146.5 99.7 155.3 Q96.9 160.3 92.45 165.75 M138.95 87.25 Q138.9 82.25 138.2 77.2 140.6 74.85 143.05 70.25 L143.3 69.85 147.45 73.6 146.95 74.9 Q143.7 84.55 138.95 87.25 M144.95 49.7 Q143.4 46.45 140.45 44.2 L139.05 43.2 140.7 43.05 Q140.6 40.0 139.9 36.5 146.3 39.75 148.75 45.0 151.15 50.2 151.5 52.8 L144.95 49.7 M100.4 26.5 L101.35 28.05 102.75 30.65 Q99.8 27.95 96.65 26.1 94.35 24.7 90.95 23.3 92.8 25.1 94.95 28.1 97.35 31.35 98.35 33.45 92.5 29.15 88.15 27.05 90.75 29.35 93.75 33.45 96.35 37.05 97.35 39.5 92.8 36.85 88.9 35.3 91.75 38.3 95.4 43.1 101.6 51.25 103.85 57.55 L103.95 53.1 Q103.95 50.0 103.55 48.0 105.85 49.7 108.45 52.7 111.5 56.25 113.95 60.3 L113.95 58.45 Q113.95 54.7 113.5 53.3 L111.6 47.45 116.7 52.2 Q114.8 36.6 100.4 26.5 M145.45 64.95 Q146.85 61.1 147.2 57.4 L150.85 59.45 Q150.6 63.15 149.75 66.5 L149.35 68.0 145.45 64.95 M47.85 30.6 Q48.6 28.65 49.1 27.65 L49.85 26.35 Q47.85 27.3 46.6 28.2 46.95 26.4 48.35 24.1 49.45 22.25 50.8 21.05 46.0 22.7 44.1 25.4 L44.9 23.2 Q46.1 20.85 49.05 17.8 41.15 20.35 38.05 26.2 36.3 29.5 36.2 33.35 L34.55 33.2 Q28.4 33.2 25.35 35.0 L27.7 35.05 Q29.05 35.5 32.75 37.1 L34.25 37.7 Q36.7 38.75 37.75 40.65 L40.05 45.35 41.2 43.7 43.7 40.3 44.2 39.85 46.35 38.3 Q47.35 36.45 48.9 34.9 52.25 31.45 58.25 29.45 51.2 29.45 47.85 30.6 M16.65 37.7 Q18.2 36.85 20.0 36.3 L25.35 35.0 20.0 36.3 Q18.2 36.85 16.65 37.7 M30.7 27.85 Q32.1 25.15 34.25 22.6 32.1 25.15 30.7 27.85" fill="#ff9999" fill-rule="evenodd" stroke="none"/>
    <path d="M103.85 15.15 Q107.4 17.5 109.95 20.05 113.9 23.95 119.05 29.75 122.0 33.05 125.8 40.65 L128.85 47.15 131.95 54.45 131.95 54.5 134.75 62.1 Q137.2 69.75 138.2 77.2 138.9 82.25 138.95 87.25 L138.9 91.3 138.95 87.25 Q143.7 84.55 146.95 74.9 L147.45 73.6 150.45 76.35 Q149.5 79.8 148.3 81.95 L147.7 83.0 Q145.95 85.9 144.35 87.25 L139.0 91.4 138.9 91.3 138.9 91.5 138.5 98.75 137.1 88.05 135.75 79.15 135.75 79.05 Q133.45 65.05 131.25 58.9 L130.25 56.6 Q126.2 48.5 119.55 38.3 112.9 28.05 104.25 20.65 95.6 13.2 86.9 11.8 94.75 16.0 96.8 19.85 97.7 21.5 97.5 23.1 92.15 18.0 86.35 16.05 80.5 14.1 77.15 13.75 81.3 15.8 83.5 18.65 85.65 21.45 85.5 24.0 77.1 20.75 72.9 20.75 L66.65 21.05 Q69.85 21.25 74.6 24.0 78.85 26.4 81.3 29.0 77.7 27.6 75.35 27.9 82.6 30.6 85.0 35.95 81.7 34.5 78.25 33.45 L78.2 33.4 78.2 33.6 82.85 37.45 83.85 38.25 Q94.25 48.0 100.15 62.95 106.25 78.5 107.15 85.15 108.05 91.75 108.3 100.7 106.75 118.6 105.4 127.35 104.05 136.1 103.65 139.5 103.2 142.85 99.6 151.95 97.05 158.4 92.45 165.75 89.05 169.9 84.75 174.3 92.45 163.4 96.0 154.35 99.6 145.25 100.05 141.9 100.45 138.5 101.8 129.75 103.15 121.0 104.7 103.1 104.45 94.15 103.55 87.55 102.65 80.9 96.55 65.35 90.4 49.75 79.3 39.75 73.8 32.25 65.7 32.25 61.65 32.25 57.05 33.65 L56.95 33.6 Q60.45 29.0 71.35 28.9 66.4 26.65 65.05 26.75 L62.35 26.55 60.05 26.35 61.95 25.8 Q65.1 25.0 67.6 24.9 L67.65 24.6 67.6 24.6 60.7 23.75 Q56.6 23.75 52.05 25.2 56.2 20.6 64.5 18.3 L56.4 18.7 53.4 19.65 Q57.65 16.9 59.3 16.25 61.45 15.35 64.35 14.95 L55.85 15.95 50.45 17.2 Q51.65 15.6 57.05 13.1 L42.65 17.7 Q37.55 19.9 34.25 22.6 38.2 17.95 44.85 13.95 L47.7 12.3 Q51.3 10.35 54.7 9.0 51.3 10.35 47.7 12.3 L44.85 13.95 Q28.75 18.75 23.95 31.55 20.75 33.0 18.1 35.9 L16.65 37.7 16.1 37.95 15.3 38.45 Q12.2 40.4 9.75 43.65 10.75 41.1 13.05 38.1 L14.05 36.75 22.3 26.4 Q25.65 20.85 32.1 16.15 42.15 8.85 54.65 8.85 L54.7 9.0 55.0 8.85 Q63.15 6.65 69.1 6.5 73.8 6.35 76.8 6.6 L78.25 6.8 84.1 7.6 88.1 8.15 84.1 7.6 78.25 6.8 76.8 6.6 Q80.5 1.45 86.25 0.7 L96.0 0.0 96.9 0.35 Q101.45 2.2 103.1 4.8 L93.9 5.05 91.4 5.15 Q93.45 5.6 95.65 6.75 L90.5 7.55 88.1 8.15 90.0 8.45 Q93.2 9.0 99.6 12.6 L103.85 15.15 M139.05 43.2 L138.4 43.2 138.35 42.8 Q136.35 28.5 130.6 20.05 126.65 14.2 119.75 9.0 133.5 16.85 137.35 27.55 139.05 32.35 139.9 36.5 140.6 40.0 140.7 43.05 L139.05 43.2 M137.85 106.75 L138.05 104.55 143.85 102.2 Q149.35 99.3 151.15 94.55 153.3 89.0 153.65 79.25 L156.4 81.75 Q154.9 107.8 137.85 106.75 M152.2 60.25 Q152.6 65.3 152.35 68.1 153.6 68.75 154.3 69.6 L156.5 72.8 156.55 73.6 152.1 70.15 152.0 70.05 149.35 68.0 149.75 66.5 Q150.6 63.15 150.85 59.45 L152.05 60.15 152.2 60.25 M152.35 68.1 L152.0 70.05 152.35 68.1 M86.95 5.35 L91.4 5.15 86.95 5.35 M42.8 44.6 Q49.95 36.05 61.8 36.05 72.75 36.05 80.25 49.8 86.3 60.95 88.35 67.7 89.5 76.25 89.95 87.6 L87.3 73.0 Q85.95 65.95 78.45 52.2 70.95 38.45 60.0 38.45 49.75 38.45 42.8 44.6 M17.2 140.0 Q16.3 138.0 16.85 139.0 L20.45 144.35 Q8.8 133.8 4.55 119.55 0.3 105.3 0.0 84.95 -0.35 64.6 5.15 51.85 6.9 47.75 9.0 44.7 L7.85 49.2 Q4.8 61.9 4.6 65.8 L3.4 84.85 Q2.35 99.9 5.7 114.2 9.1 128.5 17.2 140.0" fill="#ffffff" fill-rule="evenodd" stroke="none"/>
    <path d="M125.8 40.65 Q122.0 33.05 119.05 29.75 113.9 23.95 109.95 20.05 107.4 17.5 103.85 15.15 L108.35 14.9 114.6 15.45 Q110.9 9.3 107.45 8.0 121.0 11.05 129.5 23.15 136.25 32.6 137.0 42.15 L137.05 43.0 138.4 43.2 139.05 43.2 140.45 44.2 Q143.4 46.45 144.95 49.7 L125.8 40.65 M138.5 98.75 L138.9 91.5 139.0 91.4 144.35 87.25 Q145.95 85.9 147.7 83.0 147.1 87.75 145.55 91.1 143.35 95.9 138.4 99.85 L138.5 98.75 M138.2 77.2 Q137.2 69.75 134.75 62.1 L143.3 69.85 143.05 70.25 Q140.6 74.85 138.2 77.2 M131.95 54.45 L128.85 47.15 147.2 57.4 Q146.85 61.1 145.45 64.95 L132.0 54.45 131.95 54.45 M100.4 26.5 Q114.8 36.6 116.7 52.2 L111.6 47.45 113.5 53.3 Q113.95 54.7 113.95 58.45 L113.95 60.3 Q111.5 56.25 108.45 52.7 105.85 49.7 103.55 48.0 103.95 50.0 103.95 53.1 L103.85 57.55 Q101.6 51.25 95.4 43.1 91.75 38.3 88.9 35.3 92.8 36.85 97.35 39.5 96.35 37.05 93.75 33.45 90.75 29.35 88.15 27.05 92.5 29.15 98.35 33.45 97.35 31.35 94.95 28.1 92.8 25.1 90.95 23.3 94.35 24.7 96.65 26.1 99.8 27.95 102.75 30.65 L101.35 28.05 100.4 26.5 M104.7 146.5 L106.75 141.05 Q109.75 132.75 109.85 126.2 111.1 109.8 111.45 100.45 111.8 91.1 111.05 74.0 109.25 60.8 107.2 58.65 111.75 62.2 113.25 64.4 114.75 66.5 116.85 71.0 118.05 64.75 118.05 57.65 126.55 70.55 125.5 94.45 124.45 118.35 117.0 137.3 109.55 156.25 101.45 166.25 105.45 156.55 107.6 141.55 L104.7 146.5 M116.4 161.3 Q120.75 153.95 126.1 139.7 131.35 125.5 132.65 104.4 L132.75 103.05 Q134.15 83.4 132.5 75.55 L132.55 75.5 Q135.25 86.85 134.8 97.8 L134.8 98.0 134.4 105.25 133.75 113.25 133.75 113.3 Q132.85 123.35 131.45 133.4 128.9 151.2 118.05 176.2 114.95 183.25 111.15 189.8 102.55 202.45 90.8 213.0 97.95 205.35 106.45 188.8 113.75 174.55 116.4 161.3 M44.1 25.4 Q46.0 22.7 50.8 21.05 49.45 22.25 48.35 24.1 46.95 26.4 46.6 28.2 47.85 27.3 49.85 26.35 L49.1 27.65 Q48.6 28.65 47.85 30.6 51.2 29.45 58.25 29.45 52.25 31.45 48.9 34.9 47.35 36.45 46.35 38.3 L44.2 39.85 43.7 40.3 41.2 43.7 40.05 45.35 37.75 40.65 Q36.7 38.75 34.25 37.7 L32.75 37.1 Q29.05 35.5 27.7 35.05 L25.35 35.0 Q28.4 33.2 34.55 33.2 L36.2 33.35 Q36.3 29.5 38.05 26.2 41.15 20.35 49.05 17.8 46.1 20.85 44.9 23.2 L44.1 25.4 43.9 25.65 44.0 25.7 44.1 25.4 M47.85 30.6 L47.5 30.7 47.75 30.8 47.85 30.6 M11.9 121.15 Q10.65 116.9 9.5 110.85 6.4 94.9 6.4 83.7 6.4 68.65 9.55 55.2 10.65 50.25 15.85 44.25 21.45 37.8 25.8 37.8 30.05 37.8 34.45 40.65 37.85 42.85 40.0 45.4 L40.2 45.6 40.7 46.7 40.1 47.35 39.3 46.5 Q33.65 40.25 26.25 40.25 20.45 40.25 16.6 46.7 13.6 51.6 12.4 57.0 11.15 62.35 10.9 72.55 10.6 82.7 10.75 90.0 10.85 97.25 11.3 104.65 11.75 112.0 11.8 118.2 L11.9 121.15 M114.2 80.85 Q114.7 86.85 114.45 101.6 114.2 116.3 112.75 124.75 111.25 133.2 109.9 136.55 L107.6 141.55 109.9 136.55 Q111.25 133.2 112.75 124.75 114.2 116.3 114.45 101.6 114.7 86.85 114.2 80.85" fill="#fe7070" fill-rule="evenodd" stroke="none"/>
    <path d="M134.75 62.1 L131.95 54.5 132.0 54.45 145.45 64.95 149.35 68.0 152.0 70.05 151.8 70.5 152.1 70.15 156.55 73.6 169.4 83.65 176.55 99.95 156.4 81.75 153.65 79.25 150.45 76.35 147.45 73.6 143.3 69.85 134.75 62.1 M128.85 47.15 L125.8 40.65 144.95 49.7 151.5 52.8 157.2 55.5 164.55 67.15 152.2 60.25 152.2 59.85 152.05 60.15 150.85 59.45 147.2 57.4 128.85 47.15" fill="#99ff00" fill-rule="evenodd" stroke="none"/>
    <path d="M125.8 40.65 Q122.0 33.05 119.05 29.75 113.9 23.95 109.95 20.05 107.4 17.5 103.85 15.15 L99.6 12.6 Q93.2 9.0 90.0 8.45 L88.1 8.15 84.1 7.6 78.25 6.8 76.8 6.6 Q73.8 6.35 69.1 6.5 63.15 6.65 55.0 8.85 L54.7 9.0 Q51.3 10.35 47.7 12.3 L44.85 13.95 Q38.2 17.95 34.25 22.6 32.1 25.15 30.7 27.85 M57.05 33.65 Q61.65 32.25 65.7 32.25 73.8 32.25 79.3 39.75 M84.75 174.3 Q89.05 169.9 92.45 165.75 96.9 160.3 99.7 155.3 L104.7 146.5 107.6 141.55 Q105.45 156.55 101.45 166.25 L99.1 171.15 86.8 193.15 Q80.65 204.05 74.3 209.85 77.95 206.65 84.35 201.2 90.75 195.7 95.7 190.05 100.6 184.4 106.2 176.7 111.75 169.0 116.2 161.65 L116.4 161.3 Q120.75 153.95 126.1 139.7 131.35 125.5 132.65 104.4 L132.75 103.05 M138.5 98.75 L138.9 91.5 138.9 91.3 138.95 87.25 Q138.9 82.25 138.2 77.2 137.2 69.75 134.75 62.1 L131.95 54.5 131.95 54.45 128.85 47.15 125.8 40.65 144.95 49.7 151.5 52.8 157.2 55.5 164.55 67.15 152.2 60.25 Q152.6 65.3 152.35 68.1 153.6 68.75 154.3 69.6 L156.5 72.8 156.55 73.6 169.4 83.65 176.55 99.95 156.4 81.75 Q154.9 107.8 137.85 106.75 L138.05 104.55 138.4 99.85 138.5 98.75 M119.65 8.95 Q105.8 1.1 100.6 0.35 L96.0 0.0 86.25 0.7 Q80.5 1.45 76.8 6.6 M111.15 189.8 Q117.5 180.35 122.15 169.7 133.0 144.7 135.55 126.9 136.95 116.85 137.85 106.8 L137.85 106.75 M132.0 54.45 L131.95 54.45 M132.0 54.45 L145.45 64.95 M147.2 57.4 L128.85 47.15 M139.9 36.5 Q140.6 40.0 140.7 43.05 M119.75 9.0 Q133.5 16.85 137.35 27.55 139.05 32.35 139.9 36.5 146.3 39.75 148.75 45.0 151.15 50.2 151.5 52.8 M147.2 57.4 L150.85 59.45 152.05 60.15 M152.2 60.25 L152.05 60.15 M143.3 69.85 L134.75 62.1 M149.35 68.0 L152.0 70.05 152.35 68.1 M152.0 70.05 L152.1 70.15 156.55 73.6 M149.35 68.0 L145.45 64.95 M9.75 43.65 Q10.75 41.1 13.05 38.1 L14.05 36.75 22.3 26.4 Q25.65 20.85 32.1 16.15 42.15 8.85 54.65 8.85 L55.0 8.85 M25.35 35.0 L27.7 35.05 Q29.05 35.5 32.75 37.1 M44.2 39.85 L46.35 38.3 Q48.55 36.9 52.2 35.35 54.6 34.35 56.9 33.7 L57.05 33.65 M88.35 67.7 Q87.45 60.9 86.15 55.85 83.5 45.55 79.3 39.75 M40.1 47.35 L39.3 46.5 Q33.65 40.25 26.25 40.25 20.45 40.25 16.6 46.7 13.6 51.6 12.4 57.0 11.15 62.35 10.9 72.55 10.6 82.7 10.75 90.0 10.85 97.25 11.3 104.65 11.75 112.0 11.8 118.2 L11.9 121.15 Q12.3 128.6 14.35 133.9 L17.2 140.0 M16.85 139.0 L20.45 144.35 Q8.8 133.8 4.55 119.55 0.3 105.3 0.0 84.95 -0.35 64.6 5.15 51.85 6.9 47.75 9.0 44.7 L9.75 43.65 Q12.2 40.4 15.3 38.45 M16.1 37.95 L16.65 37.7 M25.35 35.0 L20.0 36.3 Q18.2 36.85 16.65 37.7 M89.95 87.6 Q89.5 76.25 88.35 67.7 M150.45 76.35 L153.65 79.25 156.4 81.75 M150.45 76.35 L147.45 73.6 M147.7 83.0 L148.3 81.95 Q149.5 79.8 150.45 76.35 M139.0 91.4 L138.9 91.5 M139.0 91.4 L144.35 87.25 Q145.95 85.9 147.7 83.0 M107.6 141.55 L109.9 136.55 Q111.25 133.2 112.75 124.75 114.2 116.3 114.45 101.6 114.7 86.85 114.2 80.85 M143.3 69.85 L147.45 73.6 M111.15 189.8 Q102.55 202.45 90.8 213.0 97.95 205.35 106.45 188.8 113.75 174.55 116.4 161.3" fill="none" stroke="#000000" stroke-linecap="round" stroke-linejoin="round" stroke-width="1.0"/>
    <path d="M79.3 39.75 Q90.4 49.75 96.55 65.35 102.65 80.9 103.55 87.55 104.45 94.15 104.7 103.1 103.15 121.0 101.8 129.75 100.45 138.5 100.05 141.9 99.6 145.25 96.0 154.35 92.45 163.4 84.75 174.3 M40.7 46.7 L42.8 44.6 Q49.75 38.45 60.0 38.45 70.95 38.45 78.45 52.2 85.95 65.95 87.3 73.0 L89.95 87.6 M40.7 46.7 L40.1 47.35" fill="none" stroke="#000000" stroke-linecap="round" stroke-linejoin="round" stroke-width="1.0"/>
  </g>
</svg>
