<?xml version="1.0" encoding="UTF-8" standalone="no"?>
<svg xmlns:xlink="http://www.w3.org/1999/xlink" height="482.6px" width="643.25px" xmlns="http://www.w3.org/2000/svg">
  <g transform="matrix(1.0, 0.0, 0.0, 1.0, 0.5, 0.5)">
    <path d="M425.8 320.85 L425.8 321.05 425.6 320.85 425.8 320.85 M503.7 294.35 L503.7 294.3 503.8 294.3 503.7 294.35 M547.05 319.05 L546.85 319.1 546.5 319.2 546.85 319.05 546.85 319.1 546.85 319.05 547.05 319.05 M554.9 325.2 L555.45 325.3 554.9 325.45 554.9 325.2 M149.7 74.9 L149.4 74.85 149.7 74.75 149.7 74.9 M122.55 82.5 L122.45 82.5 122.45 82.25 123.0 82.4 122.55 82.5 M164.8 246.6 L165.05 246.45 165.05 246.6 164.8 246.6 M207.3 356.55 L207.3 352.45 208.1 352.75 208.1 356.05 208.55 356.2 208.1 356.3 208.1 356.05 208.1 356.3 208.55 356.2 207.3 356.55 208.1 356.3 207.3 356.55 M248.4 356.35 L248.7 356.2 248.7 356.45 248.4 356.35 M248.7 365.85 L248.1 365.65 248.7 365.5 248.7 365.85 M303.35 367.45 L303.8 367.35 303.8 389.55 303.35 389.7 303.35 380.3 303.35 377.3 303.35 376.9 303.35 367.45 M249.2 371.55 L248.7 371.65 248.7 371.35 249.2 371.55" fill="#804000" fill-rule="evenodd" stroke="none"/>
    <path d="M539.7 299.95 L539.65 299.75 539.7 299.75 539.7 299.95 M153.5 61.2 L153.5 61.3 153.25 61.3 153.5 61.2 M146.55 63.3 L145.9 63.15 145.65 63.2 145.65 63.1 145.9 63.15 146.55 62.95 146.55 63.3 M122.55 67.65 L122.55 68.9 120.0 68.4 122.55 67.65 M41.55 26.75 L41.5 26.75 41.5 26.7 41.55 26.75 M60.7 207.05 L60.8 211.5 60.65 211.5 60.7 207.05 M272.95 331.35 L272.4 331.2 272.95 331.15 272.95 331.35" fill="#ffcc99" fill-rule="evenodd" stroke="none"/>
    <path d="M503.7 294.35 L503.4 294.4 503.4 294.25 503.7 294.3 503.7 294.35 M87.4 386.45 L87.1 386.35 87.4 386.25 87.4 386.45 M92.0 393.15 L92.35 393.05 92.35 393.3 92.0 393.15 M92.35 388.3 L92.3 388.05 92.35 388.05 92.35 388.3 M205.2 343.55 L205.0 343.5 205.2 343.45 205.2 343.55 M278.0 401.4 L277.6 401.5 277.8 401.45 278.0 401.4 277.8 401.45 277.6 401.5 277.8 401.35 277.8 401.45 277.8 401.35 278.0 401.4 M273.05 402.4 L273.3 402.5 273.05 402.4 273.05 402.05 273.3 402.5 273.05 402.55 273.05 402.4" fill="#bb5e00" fill-rule="evenodd" stroke="none"/>
    <path d="M31.7 76.95 L29.7 76.7 29.7 65.55 31.7 65.8 31.7 76.95" fill="#d9d9d9" fill-rule="evenodd" stroke="none"/>
    <path d="M145.65 63.2 L145.9 63.15 146.55 63.3 145.7 71.75 145.65 63.2 M137.9 78.55 L137.9 89.8 136.45 90.15 136.45 78.7 137.9 78.3 137.9 78.55 M314.45 355.3 L314.3 355.25 314.45 355.2 314.45 355.3" fill="#ffffff" fill-rule="evenodd" stroke="none"/>
    <path d="M92.7 283.6 L92.95 283.65 92.7 283.65 92.7 283.6 M180.95 299.5 L180.55 299.4 180.95 299.2 180.95 299.5 M180.95 304.3 L180.95 304.15 181.3 304.2 180.95 304.3 M102.45 357.5 L102.1 357.5 101.85 357.6 101.75 357.55 101.85 357.55 102.1 357.5 102.45 357.5 M102.1 348.7 L102.05 348.65 102.1 348.5 102.1 348.7 M50.4 396.8 L50.6 396.7 50.6 396.75 50.4 396.8 M101.95 362.05 L102.1 362.05 102.1 362.1 101.95 362.05 M157.9 352.9 L157.65 352.8 157.9 352.8 157.9 352.9 M101.85 357.6 L101.85 357.55 101.85 357.6 M86.35 394.4 L86.35 395.1 58.9 401.05 58.1 400.65 86.35 394.4 M285.05 290.55 L285.1 290.55 285.05 290.55 M180.95 289.8 L180.95 289.25 182.55 289.6 180.95 289.8 M264.35 330.35 L264.35 330.15 264.8 330.3 264.35 330.35" fill="#d8ebd8" fill-rule="evenodd" stroke="none"/>
    <path d="M194.6 200.8 L194.6 200.85 194.35 200.7 194.6 200.8 M308.95 327.55 L308.75 327.65 308.75 327.55 308.95 327.55 M311.3 353.8 L311.2 353.75 311.35 353.7 311.35 353.8 311.3 353.8" fill="#ffffcc" fill-rule="evenodd" stroke="none"/>
    <path d="M194.35 200.7 L194.6 200.7 194.6 200.8 194.35 200.7" fill="#999999" fill-rule="evenodd" stroke="none"/>
    <path d="M321.6 346.3 L321.5 346.95 321.15 347.2 321.6 346.3 M320.85 371.45 L321.05 371.55 321.0 371.6 320.85 371.45" fill="#cdd0e4" fill-rule="evenodd" stroke="none"/>
    <path d="M412.05 306.55 L411.8 307.6 411.2 308.0 411.2 306.55 412.05 306.55" fill="#b7bed9" fill-rule="evenodd" stroke="none"/>
    <path d="M380.8 224.95 L380.8 225.05 380.75 225.05 380.8 224.95" fill="#009900" fill-rule="evenodd" stroke="none"/>
    <path d="M396.55 222.15 L396.9 222.15 397.0 222.15 397.0 222.2 396.95 222.2 396.9 222.15 396.95 222.2 397.0 222.2 397.0 222.15 397.2 222.25 397.15 222.45 397.0 222.25 397.0 222.2 397.2 222.25 397.0 222.2 397.0 222.25 397.15 222.45 396.95 222.6 396.9 222.85 396.85 222.65 396.95 222.6 397.0 222.25 396.95 222.2 396.55 222.15 M556.5 246.1 L556.5 246.2 556.25 246.1 556.5 246.1 M567.95 279.85 L567.95 280.15 567.35 279.95 567.95 279.85 M423.75 247.05 L424.45 247.15 423.75 247.25 423.75 247.05 M493.4 256.35 L493.85 256.45 494.0 256.7 493.4 256.35 M493.4 253.85 L493.4 254.1 492.95 254.0 493.4 253.85 M451.65 298.8 L452.0 298.85 452.35 298.8 452.35 298.9 452.0 298.85 451.65 298.9 451.5 298.8 451.65 298.8 451.65 298.9 451.65 298.8 M396.85 222.65 L396.95 222.6 396.85 222.65 M360.95 235.9 L361.05 235.7 361.15 235.8 361.0 235.95 360.9 235.95 360.95 235.9 361.0 235.95 360.95 235.9 M371.55 252.35 L371.55 252.4 371.55 252.35 371.8 252.35 371.8 252.4 371.55 252.4 371.55 252.35 M403.9 318.35 L403.9 318.7 403.1 320.05 403.9 318.35 M451.65 302.3 L451.65 302.2 452.05 302.25 451.65 302.3 M451.65 300.95 L451.65 300.7 452.35 300.8 451.65 300.95 M493.4 258.15 L493.45 258.15 493.4 258.15 M503.0 278.0 L503.0 277.65 503.8 277.8 503.0 278.0" fill="url(#gradient0)" fill-rule="evenodd" stroke="none"/>
    <path d="M337.1 243.3 L337.3 243.1 337.3 243.25 337.1 243.3" fill="url(#gradient1)" fill-rule="evenodd" stroke="none"/>
    <path d="M408.55 326.0 L408.55 325.95 408.6 326.0 408.55 326.0 M450.6 347.8 L451.65 348.0 451.95 348.05 451.85 348.1 451.65 348.05 451.65 348.0 451.65 348.05 450.6 347.8 M377.85 343.75 L377.8 343.9 377.3 343.6 377.85 343.75 M352.45 337.7 L352.55 337.25 353.25 337.1 352.45 337.7 M348.7 348.0 L348.65 349.25 346.85 349.35 347.3 348.9 348.7 348.0 M348.65 349.25 L347.3 348.9 348.65 349.25 M475.55 340.85 L475.55 340.8 475.55 340.7 475.9 340.75 475.65 340.85 475.55 340.85 M460.4 324.85 L458.15 325.4 460.4 324.85 468.25 326.35 468.25 327.15 458.15 325.4 455.75 325.0 455.75 324.0 460.4 324.85 M458.4 337.4 L460.2 337.75 458.4 337.4 468.25 334.8 468.25 335.55 460.2 337.75 455.75 338.95 455.75 338.1 458.4 337.4 M468.25 328.75 L468.25 328.7 468.25 328.6 468.7 328.8 468.4 328.75 468.25 328.75 M468.25 328.7 L468.4 328.75 468.25 328.7 M475.65 340.85 L475.55 340.8 475.65 340.85 M429.4 321.7 L429.1 321.75 429.1 321.6 429.4 321.7 M429.05 324.8 L429.25 324.8 429.05 324.85 429.05 324.8 429.05 324.85 428.9 324.9 429.05 324.85 429.05 324.9 428.9 324.9 429.05 324.8 M432.05 321.15 L432.05 320.85 432.85 321.0 432.05 321.15 M411.2 325.25 L411.55 325.2 411.55 325.3 411.2 325.25 M579.75 291.25 L579.75 291.35 579.6 291.3 579.75 291.25 M539.65 299.75 L539.5 299.1 539.5 298.9 539.7 298.95 539.95 299.0 539.7 299.05 539.7 298.95 539.7 299.05 539.5 299.1 539.7 299.05 539.7 299.75 539.65 299.75 M563.95 304.5 L564.2 304.45 564.2 304.5 563.95 304.5 M550.4 313.3 L550.4 313.45 550.15 313.4 550.4 313.3 M539.7 305.75 L539.5 305.8 539.7 305.75 539.7 305.85 539.5 305.8 539.7 305.75 M539.7 307.55 L539.75 307.55 539.7 307.55 M534.9 306.9 L535.1 306.85 535.6 307.0 534.9 306.9 M509.4 328.4 L508.95 328.5 508.95 328.3 509.4 328.4 M501.7 341.8 L501.4 341.75 501.7 341.65 501.7 341.8 M508.95 333.8 L510.45 334.15 510.95 334.25 508.95 333.9 508.95 333.8 M641.45 314.9 L639.25 314.55 641.45 313.75 641.45 314.9 M641.45 357.45 L641.45 358.5 639.95 358.2 641.45 357.45 M578.3 335.9 L578.3 335.95 577.2 336.3 578.3 335.9 M147.35 412.45 L147.65 412.45 147.65 412.55 147.35 412.45 M215.55 417.45 L215.55 417.15 215.95 417.3 215.55 417.45 M215.55 383.9 L215.55 383.3 216.6 383.65 215.55 383.9 M314.45 428.35 L314.45 428.2 314.65 428.3 314.45 428.35 M314.45 360.05 L314.45 359.95 315.75 359.75 314.45 360.05 M248.7 451.3 L249.05 451.45 249.25 451.5 248.7 451.55 249.05 451.45 248.7 451.55 248.7 451.3 M313.8 355.0 L311.35 353.85 311.3 353.8 311.35 353.8 313.85 354.1 313.8 355.0 M311.35 353.85 L311.35 353.8 311.35 353.85 M321.0 371.6 L320.9 371.65 320.85 371.45 321.0 371.6 M298.95 376.25 L298.0 376.1 297.35 376.0 298.0 375.85 298.0 376.1 298.0 375.85 298.95 376.25 M303.0 377.0 L303.35 376.9 303.35 377.3 303.0 377.0 M293.6 382.85 L298.0 381.7 298.0 381.8 293.85 382.95 293.6 382.85 293.85 382.95 298.0 381.8 298.0 384.25 293.85 382.95 285.05 385.35 285.05 385.15 293.6 382.85 M303.8 413.05 L303.8 412.95 303.8 413.05 303.45 413.15 303.8 412.95 303.95 413.0 303.8 413.05 M266.9 400.05 L267.2 399.95 267.2 400.25 266.9 400.05 M273.05 408.55 L273.05 408.65 272.8 408.55 273.05 408.55 M277.7 410.45 L277.8 410.2 278.0 410.25 278.5 410.45 278.7 410.55 278.25 410.5 277.8 410.65 277.8 410.5 278.25 410.5 277.8 410.5 277.7 410.45 M273.25 416.0 L273.0 415.85 272.9 415.8 273.0 415.8 273.25 416.0 M273.0 415.85 L273.0 415.8 273.0 415.85 M278.5 410.45 L278.45 410.45 278.5 410.45 M278.45 410.45 L278.7 410.55 278.45 410.45 278.25 410.5 278.45 410.45 278.0 410.25 278.45 410.45 M277.8 410.2 L277.8 410.5 277.8 410.2 M210.65 434.6 L210.55 434.65 210.55 434.55 210.65 434.6 M188.8 437.3 L188.85 437.3 188.8 437.35 188.8 437.3 M147.65 424.25 L145.45 423.25 139.0 425.0 144.95 423.25 145.25 423.15 144.95 423.25 145.25 423.15 145.55 423.05 147.65 422.45 147.65 422.65 147.65 424.25 M108.75 447.35 L109.0 447.5 108.75 447.55 108.75 447.35 M145.25 423.15 L145.45 423.25 147.65 422.65 145.45 423.25 145.25 423.15 145.55 423.05 145.25 423.15 M50.6 417.1 L50.6 417.2 50.45 417.15 50.6 417.1 M102.1 435.95 L102.1 436.0 102.0 435.95 102.1 435.95 M45.55 418.6 L45.3 418.5 44.75 418.2 43.4 417.45 45.4 418.45 45.55 418.4 45.55 418.55 45.55 418.6 M45.3 418.5 L45.4 418.45 45.55 418.55 45.4 418.45 45.3 418.5" fill="url(#gradient2)" fill-rule="evenodd" stroke="none"/>
    <path d="M343.85 191.35 L347.95 191.3 347.35 1.45 293.2 1.45 293.2 313.4 308.75 317.1 310.9 317.5 Q324.8 319.15 338.5 316.8 L338.75 310.75 338.55 310.35 Q336.15 307.4 338.55 304.95 L347.95 302.6 347.95 255.9 345.95 257.3 345.95 252.85 320.85 264.65 322.5 258.4 324.3 239.95 329.2 234.65 331.2 229.15 Q332.65 227.7 334.9 226.9 L320.3 225.55 Q313.2 230.65 310.3 232.25 313.25 225.8 320.3 225.55 L322.5 223.75 Q333.85 213.85 343.0 214.8 L347.95 213.4 347.95 197.2 347.35 197.3 342.6 198.25 332.4 199.7 Q334.3 190.7 342.6 190.4 L343.85 191.35 343.9 193.1 345.8 194.15 Q347.25 195.3 347.35 197.3 M342.6 193.45 L343.85 193.1 343.55 192.9 342.6 193.45 342.5 193.55 342.6 198.25 M342.6 193.45 L342.4 193.45 342.5 193.55 332.4 199.7 M343.9 193.1 L343.85 193.1 M343.55 192.9 L343.85 191.35 M347.95 191.3 L350.55 191.45 Q351.1 191.7 352.1 193.5 L352.1 195.0 356.1 194.65 358.85 192.75 363.85 194.95 363.45 201.7 361.7 204.25 Q364.45 208.45 365.25 211.65 L367.55 202.7 369.95 196.0 379.25 195.95 380.5 200.5 381.15 199.35 Q390.3 185.2 399.1 199.6 401.4 199.5 403.6 201.8 405.2 203.4 407.2 206.8 L407.95 206.45 407.9 202.55 415.65 203.9 416.7 216.25 Q417.55 217.8 417.8 219.3 L417.85 219.85 414.3 216.4 413.8 216.25 Q405.55 217.4 399.4 212.35 L396.5 211.75 Q391.95 212.85 389.55 214.55 388.0 215.6 386.15 218.2 L393.45 219.25 393.25 221.95 396.55 222.15 396.9 222.15 397.0 222.15 Q401.0 215.4 408.8 220.45 L409.0 220.6 410.6 220.4 Q415.7 220.05 420.05 223.05 L420.95 222.9 Q435.4 220.0 431.15 234.2 L427.9 234.8 Q427.1 235.4 426.6 236.95 L488.6 230.3 560.05 236.75 560.3 243.2 556.5 243.8 556.5 246.1 556.5 246.2 559.9 247.1 560.3 270.0 571.15 271.55 571.15 277.4 567.95 278.0 567.95 279.85 567.95 280.15 570.5 280.85 571.15 283.0 582.65 284.75 582.65 287.15 641.45 274.35 642.25 207.65 641.45 0.6 347.35 1.45 M352.1 195.0 L350.85 196.7 349.85 210.05 358.15 206.5 356.1 196.45 356.1 194.65 M347.95 197.2 L350.85 196.7 M407.2 206.8 L407.35 207.05 407.55 207.05 Q407.95 206.9 407.95 206.45 L416.7 216.25 M399.4 212.35 Q399.4 210.15 401.65 208.6 403.85 207.0 407.0 207.0 L407.2 206.8 M407.35 207.05 L407.0 207.0 M409.0 220.6 L409.65 221.6 411.45 221.5 Q416.4 220.85 419.0 224.9 L420.05 223.05 M419.0 224.9 L419.1 225.45 Q419.2 228.1 420.2 230.75 L421.9 230.65 427.9 234.8 M419.1 225.45 L414.1 222.65 411.95 223.65 411.25 226.95 Q417.0 230.1 420.35 237.6 L424.35 237.2 420.2 230.75 M380.8 225.05 Q382.5 226.15 381.85 228.0 L382.5 228.3 388.85 230.5 Q390.15 230.95 391.25 231.45 399.65 237.6 410.3 237.7 L412.0 238.2 410.6 228.0 Q405.35 223.35 398.2 222.6 L397.2 222.25 397.0 222.2 397.0 222.25 397.15 222.45 397.35 222.7 408.25 236.5 M423.75 247.05 L424.45 247.15 493.4 256.35 M493.85 256.45 L493.9 253.75 493.4 253.85 493.4 254.1 492.95 254.0 423.75 245.0 423.75 247.05 423.75 247.25 424.45 247.15 M420.35 237.6 L419.05 237.75 493.4 245.95 560.05 236.75 M419.05 237.75 L418.7 244.35 423.75 245.0 M426.6 236.95 L424.35 237.2 M410.6 228.0 L409.65 221.6 M391.25 231.45 L388.9 233.1 390.2 234.15 395.05 241.7 397.25 249.45 397.3 249.75 397.6 249.0 397.65 245.65 400.1 241.8 400.8 241.5 Q409.1 242.35 413.6 250.5 L415.3 252.7 412.35 252.7 412.6 254.65 412.9 257.05 413.4 269.2 413.25 272.25 413.5 273.75 408.85 269.3 407.15 269.0 400.15 266.95 396.3 300.6 403.9 300.8 404.45 294.0 408.35 293.5 406.75 293.2 406.75 291.5 403.9 291.05 403.95 285.35 418.7 283.35 418.95 248.2 423.75 247.25 M413.6 250.5 L405.3 249.7 Q407.1 250.45 412.6 254.65 M413.4 269.2 L405.1 260.25 407.15 269.0 M408.85 269.3 L413.25 272.25 M418.7 283.35 L424.15 282.6 424.15 259.1 428.25 259.75 483.6 268.55 487.75 269.2 487.75 313.75 487.75 316.35 487.75 318.25 487.75 329.95 487.75 330.25 487.75 343.25 493.3 344.6 493.4 344.65 493.4 258.15 418.95 248.2 M424.15 282.6 L428.25 282.05 428.25 259.75 M428.25 282.05 L475.55 289.05 475.55 294.3 473.3 294.75 473.3 296.55 475.55 297.6 475.55 310.45 483.6 308.7 483.6 268.55 M475.55 289.05 L451.65 292.9 451.65 298.8 452.0 298.85 452.35 298.8 473.3 294.75 M399.1 199.6 L399.15 200.15 399.45 204.35 Q400.35 207.1 398.6 207.5 L397.7 207.6 395.1 210.2 Q395.0 210.75 395.25 211.4 L396.5 211.75 M399.1 199.6 L398.35 199.65 Q398.75 199.85 399.15 200.15 M399.45 204.35 L393.65 198.3 389.95 198.25 397.7 207.6 M391.4 212.4 L390.85 211.5 Q389.45 212.35 388.2 213.35 L391.4 212.4 395.25 211.4 M396.9 222.15 L396.95 222.2 397.0 222.2 397.0 222.15 397.2 222.25 M396.95 222.6 L396.9 222.85 M396.95 222.6 L397.0 222.25 396.95 222.2 396.55 222.15 M396.95 222.6 L396.85 222.65 M395.1 210.2 L388.95 203.65 390.85 211.5 M393.65 198.3 L398.35 199.65 M380.5 200.5 L380.0 201.2 380.0 201.55 Q380.0 209.8 379.7 211.5 378.85 215.3 375.25 217.0 M380.0 201.2 L378.9 201.5 379.25 201.55 379.25 201.95 380.0 201.55 M375.35 206.05 Q371.15 215.75 362.7 221.45 L360.85 223.6 Q362.05 222.65 366.25 221.45 L367.65 221.05 369.35 220.5 375.95 205.0 375.35 206.05 M379.25 201.95 Q377.5 202.95 375.95 205.0 M366.45 210.05 Q367.8 207.1 372.15 204.75 374.4 203.5 378.9 201.5 L367.55 202.7 M366.25 221.45 L368.9 230.35 371.15 230.15 371.15 219.75 369.35 220.5 369.3 225.1 367.65 221.05 M361.7 204.25 L360.8 205.05 Q364.35 211.0 364.5 216.6 L365.25 211.65 M377.9 218.45 L376.0 233.45 377.65 234.0 380.9 216.65 Q379.15 218.3 377.9 218.45 L371.15 219.75 M380.8 224.95 L380.75 225.05 380.8 225.05 380.8 224.95 381.35 224.35 Q386.4 220.25 393.25 221.95 M380.75 225.05 L379.7 223.7 383.25 218.95 Q385.15 215.8 388.2 213.35 L380.9 216.65 M382.5 228.3 L381.9 234.15 387.05 232.35 Q387.65 231.0 388.85 230.5 M347.95 255.9 L367.45 248.35 Q363.15 238.6 371.95 233.85 372.45 233.55 373.05 233.4 372.0 230.75 371.15 230.15 M377.75 251.65 Q381.7 245.5 380.4 238.85 L380.4 237.8 379.75 238.15 Q376.05 240.1 373.85 241.45 368.75 244.4 368.65 246.65 M380.4 237.8 L380.6 236.85 380.8 225.05 M377.65 234.0 L379.75 238.15 M381.9 234.15 L380.6 236.85 M376.0 233.45 L373.05 233.4 M371.8 252.35 L380.75 255.1 389.15 256.55 393.6 257.25 397.75 257.9 388.1 243.15 385.6 240.3 Q384.35 239.3 383.1 239.0 383.55 235.8 386.5 235.05 L390.2 234.15 M388.9 233.1 Q387.95 232.45 387.05 232.35 M397.25 249.45 Q395.7 246.8 393.4 245.4 L388.1 243.15 M395.05 241.7 L394.45 241.25 Q390.5 238.1 385.6 240.3 M397.35 222.7 L398.55 229.15 Q399.05 232.2 402.4 235.75 M386.15 218.2 Q384.4 218.4 383.25 218.95 M388.95 203.65 L381.15 201.0 389.95 198.25 M358.15 206.5 L360.8 205.05 M354.6 221.35 Q359.95 223.65 359.65 227.9 L361.2 228.1 Q360.9 226.15 360.0 224.45 358.65 221.8 355.85 219.75 L354.6 221.35 347.95 225.9 347.95 235.8 348.85 234.15 Q348.85 231.55 352.05 229.75 355.2 227.9 359.65 227.9 M355.85 219.75 L357.3 215.35 361.55 214.2 362.05 211.65 Q358.8 210.0 355.25 213.45 L347.95 213.4 M331.2 229.15 Q335.2 229.1 339.4 232.0 L345.3 236.1 Q346.05 232.75 343.7 229.8 342.55 228.35 341.05 227.45 L334.9 226.9 M326.6 246.9 L343.8 237.1 Q344.15 236.9 344.45 236.75 L344.65 236.6 Q334.35 234.6 325.2 239.65 L324.3 239.95 M345.95 252.85 L345.95 240.45 347.6 236.55 344.85 236.7 343.8 237.1 341.45 238.5 341.75 246.4 Q341.75 248.15 339.95 252.95 M337.3 243.25 L337.3 243.1 337.1 243.3 Q331.8 252.2 323.2 257.8 L322.5 258.4 M341.45 238.5 L337.3 243.1 M348.0 244.05 Q348.0 240.7 351.55 238.35 355.05 235.95 360.0 235.95 L358.7 233.75 358.1 233.5 Q353.4 232.7 348.85 234.15 M360.85 223.6 L360.0 224.45 M361.15 235.8 Q363.15 231.7 363.15 230.1 363.15 228.6 361.2 228.1 M344.45 236.75 L344.85 236.7 344.8 236.55 344.65 236.6 M344.8 236.55 L345.3 236.1 M347.95 235.8 L347.6 236.55 M346.95 248.5 L357.5 239.4 358.8 239.45 360.9 235.95 360.0 235.95 M361.15 235.8 L361.05 235.7 360.95 235.9 361.0 235.95 M361.15 235.8 L368.9 230.35 M360.95 235.9 L360.9 235.95 361.0 235.95 M343.0 214.8 L329.9 225.2 M347.95 225.9 Q344.7 227.3 341.05 227.45 M371.55 252.35 L368.8 251.75 356.35 256.1 356.35 257.4 359.55 257.95 360.35 259.5 360.95 262.35 365.5 273.15 Q365.6 267.4 371.9 265.95 373.75 265.55 375.05 264.2 L379.5 259.15 381.15 258.35 380.75 255.1 M360.35 259.5 Q353.85 259.85 353.2 260.65 L360.95 262.35 M405.1 260.25 Q401.95 255.65 399.1 253.4 L397.8 253.4 397.75 257.9 M397.8 253.4 L397.6 251.8 397.6 249.0 M397.6 251.8 L399.35 250.6 405.3 249.7 M393.6 257.25 L393.6 260.0 Q394.1 262.0 398.6 266.8 L400.15 266.95 M389.15 256.55 Q385.55 258.75 384.6 261.45 L391.25 264.4 398.6 266.8 M371.55 252.4 L371.55 252.35 M371.55 252.4 L371.8 252.4 M371.8 252.35 L371.55 252.35 M368.8 251.75 L367.45 248.35 M384.6 261.45 Q382.55 264.65 380.2 260.1 L379.5 259.15 M387.15 254.25 Q383.55 251.0 384.1 247.85 384.6 244.7 383.3 240.45 M375.05 264.2 L391.25 264.4 M371.55 252.4 L363.7 265.5 M358.8 239.45 L345.95 257.3 M364.5 216.6 L362.7 221.45 M396.3 300.6 L395.95 303.65 Q375.35 311.65 355.3 302.4 L355.2 300.4 347.95 302.6 M403.9 300.8 L403.9 308.6 403.9 318.35 403.9 318.7 403.9 321.95 403.9 326.05 403.9 337.55 405.9 338.0 408.55 338.25 408.55 330.45 408.55 326.0 408.55 325.95 408.55 301.1 411.2 301.55 418.7 302.85 424.15 303.8 425.8 304.1 429.15 304.7 432.05 305.25 447.95 308.05 447.95 316.45 447.95 323.65 447.95 325.0 447.95 328.35 447.95 332.3 447.95 333.7 447.95 338.45 447.95 341.05 448.0 347.25 M450.6 347.8 L451.65 348.0 451.65 302.3 451.65 302.2 404.45 294.0 M403.9 308.6 L397.0 310.35 395.7 309.15 386.95 310.15 389.5 311.2 389.3 323.3 379.05 325.75 M403.9 318.7 L403.1 320.05 403.9 318.35 M386.95 312.5 L377.05 314.3 376.75 319.5 M321.05 371.55 L321.2 371.3 321.6 369.1 325.6 366.0 325.45 363.95 321.15 358.45 323.9 355.25 324.35 354.65 Q324.45 354.25 324.7 354.0 327.9 351.75 330.0 354.4 L330.05 356.3 337.9 355.7 338.95 354.7 343.05 354.8 354.45 359.15 356.0 354.7 358.0 354.55 Q358.0 352.75 359.6 351.5 361.2 350.2 363.45 350.2 370.75 346.3 377.85 348.35 L379.95 347.05 381.0 344.45 381.0 344.0 382.9 340.0 382.35 334.05 382.5 333.55 M367.25 326.3 L367.25 326.7 M362.75 340.35 L365.45 342.75 367.5 341.4 Q367.5 338.95 366.6 337.25 365.65 335.5 364.35 335.5 L363.7 335.5 360.15 333.55 357.7 337.6 360.25 339.8 360.25 343.55 364.3 343.5 365.45 342.75 M362.75 340.35 L361.7 339.1 361.6 336.15 363.7 335.5 M377.85 343.75 L377.8 343.9 377.3 343.6 376.75 343.0 Q375.55 340.95 377.45 340.3 L377.85 343.75 M403.9 326.05 L398.6 327.2 398.35 334.15 390.95 334.85 389.85 338.8 382.9 340.0 M403.9 321.95 L398.6 322.75 398.6 327.2 M338.55 304.95 Q338.55 306.45 339.6 307.5 340.6 308.55 342.05 308.55 L345.35 308.8 349.9 309.5 348.8 311.35 357.3 311.35 359.65 313.25 373.9 314.1 M342.05 308.55 L342.05 308.6 342.15 311.65 345.35 313.85 345.35 308.8 M352.55 337.25 L353.1 332.65 348.6 329.55 348.05 326.9 341.6 327.1 340.35 328.75 337.4 324.7 338.5 323.35 338.5 316.8 M308.75 327.65 L308.75 340.35 314.4 341.75 314.45 344.9 324.85 341.25 325.85 344.95 Q333.85 347.8 342.45 346.1 L343.6 344.0 348.95 343.25 349.05 345.6 350.8 345.6 352.45 337.7 352.55 337.25 353.25 337.1 353.1 332.65 M364.35 335.5 L362.95 330.65 354.15 329.75 353.7 324.85 349.05 324.5 348.8 311.35 M352.45 337.7 L353.25 337.1 M350.8 345.6 L353.35 346.0 357.2 343.6 355.4 338.7 357.7 337.6 M357.2 343.6 L360.25 343.55 M358.0 354.55 L358.7 355.5 363.1 357.0 364.8 360.1 366.35 360.0 371.5 360.4 372.65 361.55 372.6 365.6 366.45 366.2 363.65 366.95 360.3 372.35 366.95 370.05 366.15 373.2 368.2 373.3 376.5 368.75 378.9 369.4 379.15 372.5 381.55 372.5 381.55 370.05 376.9 360.35 375.75 357.9 370.8 357.85 365.9 353.95 Q364.9 353.95 364.2 352.85 363.45 351.75 363.45 350.2 M365.25 363.55 L362.3 358.9 360.2 362.05 357.1 362.9 359.05 358.85 358.7 355.5 M346.85 349.35 Q345.9 346.95 348.5 347.85 L348.7 348.0 348.65 349.25 346.85 349.35 347.3 348.9 348.7 348.0 M348.45 353.75 Q348.45 354.2 349.1 354.55 L350.6 354.85 352.15 354.55 Q352.75 354.2 352.75 353.75 352.75 353.3 352.15 353.0 351.5 352.65 350.6 352.65 349.7 352.65 349.1 353.0 348.45 353.3 348.45 353.75 M330.0 354.4 L324.35 354.65 M365.25 363.55 L366.35 363.25 366.35 360.0 M379.95 347.05 L385.5 350.8 Q389.45 348.45 392.6 350.65 L395.9 350.15 396.85 353.55 399.2 354.3 M375.75 357.9 L377.0 356.05 381.5 353.6 386.05 355.15 384.8 357.9 384.8 358.25 Q384.75 359.35 385.1 360.45 385.4 361.55 385.95 361.75 386.5 361.9 386.95 361.05 387.35 360.15 387.35 358.55 L393.6 356.25 393.5 360.0 Q393.35 361.65 395.1 361.4 L395.35 361.15 395.5 360.5 396.9 357.75 403.1 359.45 402.95 357.45 399.2 354.3 M374.45 355.45 L375.75 353.85 375.95 350.7 Q371.3 349.7 367.55 352.65 L366.4 353.5 365.9 353.95 M374.45 355.45 L370.8 357.85 M475.55 340.7 L475.55 333.55 475.55 327.7 475.55 321.2 475.55 314.3 475.55 310.45 M483.6 308.7 L483.6 312.9 487.75 313.75 M455.75 324.0 L455.75 314.8 455.75 307.7 468.25 305.0 471.45 304.3 471.45 329.25 471.45 329.4 471.45 333.9 471.45 341.8 475.55 340.85 475.55 340.8 475.55 340.7 475.9 340.75 475.65 340.85 475.55 340.85 M455.75 314.8 L468.25 312.05 468.25 305.0 M452.0 298.85 L452.35 298.9 452.35 298.8 M452.0 298.85 L451.65 298.9 451.5 298.8 406.75 291.5 M451.65 298.9 L451.65 298.8 451.5 298.8 M451.65 302.3 L452.05 302.25 451.65 302.2 451.65 300.95 451.65 300.7 408.35 293.5 M451.65 300.7 L452.35 300.8 452.4 300.8 452.35 298.9 M451.65 300.95 L452.35 300.8 M455.75 324.0 L455.75 325.0 458.15 325.4 468.25 327.15 468.25 326.35 468.25 322.95 468.25 312.05 M455.75 338.1 L455.75 333.65 455.75 332.1 455.75 329.8 455.75 326.35 455.75 325.0 M455.75 332.1 L460.75 330.75 455.75 329.8 M447.95 328.35 L446.85 328.15 M437.75 330.35 L447.95 332.3 M458.4 337.4 L455.75 338.1 455.75 338.95 455.75 346.9 451.95 348.05 451.65 348.0 451.65 348.05 M468.25 335.55 L468.25 334.8 458.4 337.4 M468.25 328.75 L468.25 328.7 468.25 328.6 455.75 326.35 M468.4 328.75 L468.7 328.8 468.25 328.6 468.25 327.15 M468.25 328.75 L468.4 328.75 468.25 328.7 M471.45 329.25 L468.7 328.8 M468.25 339.35 L468.25 335.55 M471.45 341.8 L468.25 341.25 468.25 339.35 M468.25 334.8 L471.45 333.9 M460.75 330.75 L468.25 328.75 M471.45 329.4 L455.75 333.65 M452.05 302.25 L475.55 297.6 M425.8 320.85 L425.6 320.85 425.8 321.05 425.8 320.85 425.8 304.1 M425.8 321.05 L429.1 321.6 429.15 304.7 M429.4 321.7 L429.1 321.75 429.05 324.8 429.25 324.8 432.05 325.35 446.85 328.15 M429.1 321.6 L429.4 321.7 432.05 321.15 432.05 320.85 432.05 319.95 432.05 305.25 M429.1 321.75 L429.1 321.6 M432.85 321.0 L432.05 321.15 M432.05 320.85 L432.85 321.0 447.95 323.65 M411.2 306.55 L411.2 301.95 411.2 301.55 M411.2 308.0 L411.2 316.15 413.4 313.8 414.15 306.2 412.05 306.55 411.2 306.55 411.2 308.0 M414.15 306.2 Q414.15 304.45 413.3 303.2 412.4 301.95 411.2 301.95 M418.7 302.85 L418.7 322.3 424.15 321.15 424.15 303.8 M424.15 325.9 L419.6 326.85 424.15 327.75 424.15 325.9 425.8 325.55 428.9 324.9 429.05 324.8 429.05 324.85 429.25 324.8 M411.2 325.25 L411.55 325.2 429.1 321.75 M411.55 325.3 L411.2 325.25 411.2 323.9 411.2 316.15 M411.55 325.3 L419.6 326.85 M408.55 325.95 L408.6 326.0 411.55 325.3 M408.6 326.0 L447.95 333.7 M408.55 330.45 L411.2 330.95 424.1 333.6 447.95 338.45 M411.2 336.7 L411.2 337.55 410.9 337.7 408.55 338.25 M411.2 336.7 L411.2 330.95 M418.7 322.3 L411.2 323.9 M428.9 324.9 L429.05 324.85 429.05 324.9 429.05 328.65 432.05 329.25 432.05 325.35 M425.8 325.55 L425.8 328.05 429.05 328.65 M432.05 329.25 L437.75 330.35 M424.15 327.75 L425.8 328.05 M425.6 320.85 L424.15 321.15 M451.85 348.1 L451.95 348.05 M429.4 321.7 L447.95 325.0 M493.9 344.5 L493.4 344.65 M432.05 319.95 L447.95 316.45 M355.2 300.4 L353.2 260.65 M473.3 296.55 L452.4 300.8 M451.65 292.9 L403.95 285.35 M412.9 257.05 L399.35 250.6 M567.95 280.15 L567.35 279.95 560.3 281.3 560.3 281.65 564.05 282.15 570.5 280.85 M567.35 279.95 L567.95 279.85 M582.65 287.15 L582.65 289.6 579.75 290.25 579.75 291.25 579.75 291.35 582.6 292.2 582.65 294.5 M579.75 291.25 L579.6 291.3 579.75 291.35 M582.65 295.4 L582.65 304.5 582.65 306.15 582.65 317.25 582.65 318.55 582.65 332.45 M641.45 281.2 L641.45 274.35 M582.65 295.4 L582.65 294.5 M641.45 292.7 L641.45 288.5 641.45 281.2 M556.25 246.1 L556.5 246.1 M556.25 246.1 L556.5 246.2 M493.85 256.45 L556.25 246.1 M492.95 254.0 L493.4 253.85 493.4 245.95 M493.4 258.15 L493.45 258.15 493.4 258.15 M503.0 277.65 L503.0 276.05 499.5 275.5 499.65 270.0 526.55 265.65 550.4 268.7 550.4 259.9 498.3 269.2 498.3 305.5 499.8 305.2 499.7 278.65 503.0 278.0 503.0 277.65 503.8 277.8 531.2 282.1 536.7 281.1 503.0 276.05 M503.8 277.8 L503.0 278.0 M503.4 294.25 L503.4 292.7 501.7 292.4 501.7 287.35 503.65 287.0 503.65 283.65 506.9 284.15 513.55 285.25 526.85 282.85 499.7 278.65 M503.7 294.3 L503.4 294.25 503.4 294.4 503.7 294.35 503.7 294.3 503.8 294.3 539.7 300.4 539.7 299.95 539.65 299.75 539.5 299.1 539.5 298.9 503.4 292.7 M499.8 305.2 L499.85 312.95 501.7 313.35 501.7 295.0 503.4 294.4 M503.7 294.35 L503.8 294.3 M506.9 284.15 L506.9 286.4 513.55 285.25 M503.65 287.0 L506.9 286.4 M550.4 259.9 L554.9 259.05 554.9 281.0 560.3 281.65 M536.7 281.1 L545.45 279.8 545.45 276.25 499.65 270.0 M526.85 282.85 L531.2 282.1 M560.3 281.3 L560.3 279.5 560.3 273.55 560.3 270.0 M545.45 279.8 L550.4 280.4 550.4 275.35 545.45 276.25 M554.9 281.0 L550.4 280.4 M550.4 275.35 L550.4 268.7 M539.5 298.9 L539.5 293.7 501.7 287.35 M493.45 258.15 L559.9 247.1 M493.9 253.75 L556.5 243.8 M560.3 302.65 L564.2 303.2 564.2 301.65 560.3 302.55 560.3 302.65 560.3 303.95 563.95 304.5 564.2 304.45 564.2 303.2 M563.95 304.5 L560.3 305.4 560.3 306.8 567.35 304.95 567.35 304.9 564.2 304.5 563.95 304.5 M560.3 305.4 L560.3 303.95 M564.2 304.45 L564.2 304.5 M548.75 306.3 L550.4 306.55 550.4 304.95 548.75 305.35 548.75 306.3 548.75 308.15 550.4 307.75 550.4 306.55 M539.7 307.55 L539.7 349.3 543.55 347.9 543.55 340.3 543.55 339.7 543.55 334.55 543.55 332.6 543.55 331.05 543.55 323.75 543.55 320.2 543.55 319.9 543.35 306.65 546.85 305.85 548.75 305.35 M550.4 307.75 L550.4 309.35 550.4 313.3 550.4 313.45 550.4 319.5 554.9 320.05 554.9 303.85 550.4 304.95 M550.15 313.4 L550.4 313.3 M550.15 313.4 L548.75 313.75 548.75 319.3 550.4 319.5 M548.75 313.75 L548.75 309.75 548.75 308.15 M548.75 319.3 L547.05 319.05 546.85 319.1 546.5 319.2 543.55 319.9 M546.85 319.05 L546.85 319.1 M547.05 319.05 L546.85 319.05 546.85 305.85 M571.15 307.6 L571.15 313.7 567.35 314.75 564.2 314.35 564.2 309.65 560.3 310.7 560.3 315.0 560.3 320.75 568.0 321.7 574.75 322.55 574.75 323.7 574.1 323.9 543.55 320.2 M574.75 317.3 L574.75 306.65 M571.15 307.6 L571.15 304.45 571.15 299.95 567.35 300.85 567.35 304.9 M574.75 319.65 L574.75 317.3 M550.4 309.35 L548.75 309.75 M554.9 303.85 L560.3 302.55 M560.3 306.8 L560.3 310.7 M560.3 320.75 L554.9 320.05 M539.7 298.95 L539.7 299.05 539.95 299.0 539.7 298.95 539.5 298.9 M539.7 299.05 L539.5 299.1 M539.7 299.75 L539.7 299.95 M539.65 299.75 L539.7 299.75 539.7 299.05 M539.7 305.85 L539.7 305.75 539.7 301.7 501.7 295.0 M539.7 307.55 L539.75 307.55 539.7 307.55 M539.7 305.85 L539.7 307.55 M535.1 306.85 L529.65 305.8 529.65 306.2 534.9 306.9 535.6 307.0 535.6 308.85 535.6 313.2 535.6 317.25 535.6 319.45 535.6 321.45 535.6 325.25 535.6 331.65 535.6 333.1 535.6 334.9 535.6 339.75 535.6 348.5 539.7 349.3 M535.1 306.85 L535.6 307.0 M535.6 333.1 L532.65 332.55 518.6 330.05 509.4 328.4 508.95 328.5 505.6 329.3 505.6 329.4 535.6 334.9 M543.55 334.55 L578.3 324.45 578.3 324.4 574.75 324.0 574.1 323.9 565.0 326.5 558.5 328.35 543.55 332.6 M554.9 325.2 L554.9 325.45 555.45 325.3 554.9 325.2 546.85 324.2 546.85 326.35 M556.05 325.35 L555.45 325.3 M543.55 331.05 L546.85 329.9 546.85 328.2 546.85 326.35 M556.05 325.35 L565.0 326.5 M543.55 323.75 L546.85 324.2 M546.5 319.2 L546.85 319.05 M516.45 304.3 L522.6 305.2 522.6 304.45 519.2 303.8 516.45 304.3 508.95 303.25 508.95 304.75 535.6 308.85 M522.6 305.2 L526.15 305.7 526.15 305.15 522.6 304.45 M508.95 328.3 L508.95 326.5 508.95 324.5 508.95 319.95 508.95 313.15 508.95 308.75 508.95 304.75 M508.95 303.25 L508.95 302.85 508.95 301.8 505.3 301.1 505.6 329.3 M508.95 302.85 L511.55 302.3 508.95 301.8 M519.75 310.55 L508.95 308.75 M519.2 303.8 L511.55 302.3 M501.7 318.7 L501.7 314.9 M498.3 315.75 L498.3 318.15 498.3 327.4 498.3 331.9 498.3 343.05 493.9 344.5 M501.7 326.45 L501.7 318.7 M501.7 313.35 L501.7 314.9 M498.3 315.75 L498.3 305.5 M501.7 332.55 L501.7 326.45 M502.1 341.9 L501.7 341.8 501.4 341.75 501.7 341.65 501.7 332.55 M505.6 329.4 L505.6 333.2 508.95 333.8 510.45 334.15 520.25 336.35 535.6 339.75 M501.7 341.8 L501.7 341.65 M508.95 339.8 L508.95 341.5 505.6 342.5 502.1 341.9 M505.6 333.2 L505.6 342.5 M508.95 333.9 L508.95 333.8 M508.95 328.3 L509.4 328.4 535.6 321.45 M508.95 328.5 L508.95 328.3 M508.95 333.9 L508.95 339.8 M508.95 326.5 L524.1 322.5 535.6 319.45 M518.6 330.05 L535.6 325.25 M519.75 310.55 L535.6 313.2 M529.65 305.8 L526.15 305.15 M526.15 305.7 L529.65 306.2 M641.45 314.9 L641.45 313.75 641.45 302.8 641.45 299.2 641.45 292.7 M641.45 332.65 L641.45 327.75 M641.45 332.65 L641.45 342.4 641.45 357.45 641.45 358.5 641.45 374.0 641.45 392.95 641.45 403.35 641.45 481.6 0.0 481.6 1.05 413.65 1.05 267.1 1.05 260.55 1.05 0.0 6.25 0.05 9.4 0.05 13.0 0.1 18.65 0.15 23.95 0.2 29.7 0.25 51.3 0.4 55.75 0.45 60.65 0.45 65.15 0.5 69.05 0.55 72.2 0.55 81.45 0.65 88.0 0.7 111.35 0.85 115.55 0.9 118.1 0.95 120.0 0.95 122.55 0.95 126.3 1.0 129.5 1.0 146.55 1.1 149.7 1.15 153.5 1.2 156.05 1.2 158.55 1.2 165.05 1.3 167.5 1.3 170.6 1.3 176.35 1.3 182.95 1.4 186.45 1.4 188.95 1.45 190.95 1.45 194.6 1.45 198.55 1.45 214.9 1.45 218.35 1.45 221.7 1.45 224.95 1.45 227.95 1.45 230.2 1.45 236.95 1.45 242.95 1.45 293.2 1.45 M582.65 334.4 L578.3 335.95 575.25 337.0 M641.45 314.9 L641.45 327.75 M567.35 304.95 L567.35 308.8 567.35 314.75 M578.3 324.4 L578.3 298.05 574.75 299.05 574.75 304.95 574.75 306.65 M574.75 299.05 L571.15 299.95 M543.55 339.7 L572.65 330.75 574.8 330.05 578.3 329.0 578.3 324.45 M574.75 324.0 L574.75 323.7 M574.75 319.65 L574.75 322.55 M574.8 330.05 L574.8 331.1 574.85 334.8 578.3 335.7 578.3 329.0 M578.3 335.9 L578.3 335.95 M578.3 335.9 L578.3 335.7 M582.65 334.4 L582.65 332.45 M567.35 308.8 L564.2 309.65 M567.35 300.85 L564.2 301.65 M564.05 282.15 L571.15 283.0 M560.3 273.55 L571.15 271.55 M567.95 278.0 L560.3 279.5 M582.65 284.75 L539.5 293.7 M539.7 300.4 L579.6 291.3 M582.6 292.2 L539.7 301.7 M579.75 290.25 L539.95 299.0 M363.45 201.7 L356.1 196.45 M200.25 60.35 L204.2 61.05 204.2 70.2 200.25 69.45 198.55 69.1 198.55 60.05 200.25 60.35 200.25 69.45 M194.6 1.45 L194.6 53.8 190.95 53.05 188.95 52.65 188.95 1.45 M188.95 58.35 L188.95 97.7 190.85 97.95 190.85 84.0 194.6 84.5 200.25 85.2 200.25 75.55 194.6 74.45 191.05 73.85 191.05 58.75 188.95 58.35 M194.6 74.45 L194.6 59.35 191.05 58.75 M200.05 89.55 L204.2 90.15 204.2 99.8 200.05 99.2 198.55 99.0 198.55 89.35 200.05 89.55 200.05 99.2 M190.85 97.95 L194.6 98.45 194.6 84.5 M218.35 1.45 L218.35 58.6 214.9 57.9 211.0 57.2 211.0 71.5 207.55 70.85 207.55 57.0 198.55 54.4 198.55 1.45 M211.0 57.2 L207.55 57.0 M214.9 72.2 L214.9 62.9 218.35 63.5 218.35 72.85 214.9 72.2 M221.7 78.95 L221.7 64.1 225.1 64.7 225.1 102.65 221.7 102.2 221.7 88.2 214.9 87.25 214.9 77.9 221.7 78.95 221.7 88.2 M200.25 85.2 L204.2 85.75 204.2 76.2 200.25 75.55 M211.0 77.25 L211.0 86.7 207.55 86.2 207.55 76.7 211.0 77.25 M211.0 91.1 L211.0 105.4 214.9 105.9 218.35 106.35 218.35 185.0 214.9 184.95 211.0 184.95 211.0 196.55 207.55 196.55 207.55 184.9 198.55 184.85 198.55 103.8 207.55 104.85 207.55 90.6 211.0 91.1 M218.35 92.15 L218.35 101.75 214.9 101.25 214.9 91.65 218.35 92.15 M224.95 1.45 L225.1 59.95 221.7 59.25 221.7 1.45 M214.9 57.9 L214.9 1.45 M190.95 1.45 L190.95 53.05 M211.0 105.4 L207.55 104.85 M221.7 106.75 L221.7 185.05 225.1 185.05 225.1 107.2 221.7 106.75 M190.8 102.8 L190.8 184.8 194.6 184.8 194.5 103.3 190.8 102.8 188.95 102.55 188.95 184.75 190.8 184.8 M200.4 188.4 L198.55 188.4 198.55 196.55 200.4 196.55 200.4 188.4 204.2 188.45 204.2 196.55 200.4 196.55 M194.6 200.7 L194.6 188.35 190.75 188.35 190.75 200.4 194.35 200.7 194.6 200.8 194.6 200.85 200.4 200.8 204.2 200.75 204.2 210.35 200.4 210.4 188.95 210.55 189.75 188.3 M194.6 200.7 L194.6 200.8 M211.0 184.95 L207.55 184.9 M218.35 196.55 L218.35 188.5 214.9 188.5 214.9 196.55 218.35 196.55 M221.7 188.55 L221.7 199.95 221.65 200.6 221.65 210.1 225.1 210.05 225.1 188.55 221.7 188.55 M214.9 184.95 L214.9 105.9 M153.5 61.2 L153.5 61.3 153.5 75.8 153.5 75.95 153.5 87.05 153.5 99.4 149.7 100.2 149.7 86.95 145.8 87.9 142.45 88.7 142.6 77.0 149.7 74.9 149.4 74.85 149.7 74.75 149.7 62.15 149.7 60.7 153.5 59.4 153.5 61.2 153.25 61.3 153.5 61.3 M146.55 63.3 L145.9 63.15 145.65 63.2 145.7 71.75 146.55 63.3 146.55 62.95 145.9 63.15 145.65 63.1 145.65 63.2 M145.65 63.1 L142.5 62.3 142.45 72.75 145.7 71.75 M142.5 62.3 L146.55 61.25 146.55 62.95 M149.7 1.15 L149.7 56.05 153.5 54.9 153.5 1.2 M149.7 62.15 L153.25 61.3 149.7 60.7 M133.2 61.0 L133.2 75.65 136.6 74.6 136.6 61.65 133.2 61.0 129.5 62.1 126.3 63.05 126.3 1.0 M122.55 67.65 L120.0 68.4 122.55 68.9 122.55 67.65 M129.5 67.25 L129.5 76.8 126.3 77.8 126.3 66.8 129.5 65.75 129.5 67.25 126.3 66.8 M136.6 74.6 L137.9 74.15 137.9 59.55 146.55 56.95 146.55 1.1 M137.9 78.3 L136.45 78.7 136.45 90.15 137.9 89.8 137.9 78.55 M136.45 78.7 L133.2 79.6 133.2 90.95 136.45 90.15 M122.45 82.5 L122.55 83.0 122.55 82.5 122.45 82.5 122.45 82.25 122.55 68.9 M122.55 82.5 L123.0 82.4 122.45 82.25 M129.5 80.6 L123.0 82.4 129.5 81.85 129.5 80.6 M126.3 96.25 L126.3 105.2 129.5 104.55 129.5 95.5 126.3 96.25 M129.5 81.85 L129.5 91.85 122.55 93.5 122.55 106.0 120.0 106.55 120.0 111.95 122.55 111.35 122.55 184.55 120.0 184.55 120.0 111.95 M136.5 93.9 L137.9 93.55 137.9 107.9 146.55 106.0 146.55 184.45 138.1 184.4 138.1 198.35 136.3 198.35 132.75 198.35 132.75 184.35 129.5 184.3 126.3 184.3 126.3 110.5 129.5 109.8 133.2 108.95 133.2 94.65 136.5 93.9 136.5 108.25 133.2 108.95 M122.55 83.0 L122.55 93.5 M145.8 87.9 L145.75 77.85 142.6 77.0 M149.7 74.75 L149.7 74.9 153.5 75.8 M146.55 91.6 L146.55 100.85 142.45 101.75 142.45 92.55 146.55 91.6 M153.5 87.05 L149.7 86.95 M153.5 75.95 L145.75 77.85 M129.5 62.1 L129.5 1.0 M120.0 0.95 L120.0 64.9 122.55 64.15 122.55 0.95 M55.75 0.45 L55.75 29.3 51.3 28.5 45.55 27.5 45.55 45.35 41.5 44.7 41.5 26.75 29.7 24.7 29.7 0.25 M51.3 33.95 L51.3 46.25 55.75 46.95 55.75 34.75 51.3 33.95 M41.55 26.75 L41.5 26.7 41.5 26.75 41.55 26.75 45.55 27.5 M65.15 0.5 L65.15 30.8 60.65 29.95 60.65 0.45 M60.65 35.6 L60.65 53.6 60.65 65.45 60.65 80.7 65.15 81.25 65.15 36.45 60.65 35.6 M51.3 28.5 L51.3 0.4 M23.95 0.2 L23.95 23.65 18.65 22.75 13.0 21.75 13.0 0.1 M18.65 22.75 L18.65 0.15 M18.65 28.05 L13.0 27.0 13.0 74.55 18.65 75.3 18.65 59.6 23.95 60.35 31.7 61.4 31.7 49.0 23.95 47.75 18.65 46.95 18.65 28.05 23.95 29.0 23.95 47.75 M31.7 30.4 L31.7 43.15 36.6 43.95 36.6 31.25 31.7 30.4 29.7 30.05 29.7 42.85 31.7 43.15 M31.7 65.8 L36.6 66.5 36.6 77.6 31.7 76.95 29.7 76.7 29.7 65.55 31.7 65.8 31.7 76.95 M31.7 61.4 L36.6 62.1 36.6 49.8 31.7 49.0 M13.0 81.4 L18.65 82.05 23.95 82.7 23.95 183.5 18.65 183.45 13.0 183.4 13.0 81.4 13.0 74.55 M18.65 75.3 L23.95 75.95 23.95 60.35 M60.65 53.6 L51.3 52.1 51.3 64.15 60.65 65.45 M45.55 51.2 L45.55 63.35 41.5 62.75 41.5 50.55 45.55 51.2 M45.55 67.75 L45.55 85.3 51.3 86.0 55.75 86.55 55.75 183.75 51.3 183.7 45.55 183.65 45.55 197.55 41.5 197.6 41.5 183.65 29.7 183.55 29.7 83.4 41.5 84.85 41.5 67.2 45.55 67.75 M51.3 68.6 L51.3 79.5 55.75 80.1 55.75 69.2 51.3 68.6 M45.55 85.3 L41.5 84.85 M65.15 87.45 L65.15 183.8 60.65 183.8 60.65 86.9 65.15 87.45 M13.0 188.55 L13.0 212.0 31.7 211.8 31.7 202.65 23.95 202.7 18.65 202.75 18.65 188.55 13.0 188.55 M31.7 197.7 L36.6 197.65 36.6 188.5 31.7 188.5 31.7 197.7 29.7 197.7 29.7 188.5 31.7 188.5 M23.95 202.7 L23.95 188.5 18.65 188.55 M45.55 183.65 L41.5 183.65 M55.75 197.45 L51.3 197.5 51.3 188.45 55.75 188.45 55.75 197.45 M60.8 211.5 L65.15 211.45 65.15 188.45 60.65 188.45 60.65 202.3 60.7 207.05 60.8 211.5 60.65 211.5 50.95 211.6 51.3 202.4 60.65 202.3 M153.5 104.45 L153.5 184.5 149.7 184.45 149.7 105.3 153.5 104.45 M126.3 189.05 L126.3 198.35 129.5 198.35 129.5 189.05 126.3 189.05 M136.3 198.35 L136.3 184.25 132.75 184.35 M142.55 189.05 L142.55 198.35 145.5 198.35 145.5 189.05 142.55 189.05 M149.7 189.05 L149.7 201.35 153.5 200.85 153.5 189.05 149.7 189.05 M120.0 189.0 L120.0 212.5 122.55 212.5 122.55 201.65 122.55 189.0 120.0 189.0 M129.5 184.3 L129.5 109.8 M18.65 183.45 L18.65 82.05 M51.3 183.7 L51.3 86.0 M120.0 68.4 L120.0 106.55 M149.7 201.35 L145.5 201.4 145.5 212.65 153.5 212.75 153.5 200.85 M145.5 201.4 L142.55 201.45 142.55 212.65 145.5 212.65 M136.1 201.5 L138.1 201.5 138.1 212.6 136.1 212.6 132.75 212.55 132.75 201.55 136.1 201.5 136.1 212.6 M122.55 212.5 L129.5 212.55 129.5 201.6 122.55 201.65 M156.05 226.15 L118.1 226.3 118.1 236.3 156.05 236.15 156.05 226.15 M158.55 223.4 L115.55 223.65 115.55 239.25 158.55 239.0 158.55 223.4 M81.45 0.65 L81.45 254.05 88.0 253.5 88.0 250.35 88.0 0.7 M92.7 283.6 L92.95 283.65 180.95 304.15 180.95 299.5 180.55 299.4 92.7 279.75 92.7 283.6 92.7 283.65 92.95 283.65 M92.7 283.65 L86.75 284.35 180.95 306.55 180.95 306.2 180.95 304.3 180.95 304.15 181.3 304.2 278.35 289.55 278.55 284.5 180.95 299.2 180.95 299.5 M180.95 289.25 L86.35 269.15 86.35 278.35 92.7 279.75 M115.55 0.9 L115.55 218.1 158.55 218.35 158.55 1.2 M111.35 0.85 L111.35 245.4 145.3 246.15 164.8 246.6 165.05 246.45 165.05 1.3 M88.0 250.35 L145.3 246.15 M156.05 1.2 L156.05 215.8 118.1 215.55 118.1 0.95 M45.55 202.45 L45.55 211.65 41.5 211.7 41.5 202.5 45.55 202.45 M69.05 227.85 L9.4 229.9 9.4 244.1 69.05 240.9 69.05 227.85 M72.2 243.9 L6.25 247.8 6.25 227.0 72.2 224.75 72.2 243.9 M31.7 211.8 L36.6 211.75 36.6 202.55 31.7 202.65 M9.4 0.05 L9.4 216.2 69.05 215.0 69.05 0.55 M6.25 0.05 L6.25 219.9 72.2 218.45 72.2 0.55 M101.75 357.55 L42.5 334.4 42.55 337.55 102.45 360.55 102.45 357.5 102.1 357.5 101.85 357.6 101.75 357.55 101.85 357.55 102.1 357.5 102.1 348.7 102.05 348.65 40.2 325.15 40.2 333.5 42.5 334.4 M50.6 396.7 L50.6 393.5 50.6 351.55 45.55 349.5 45.55 397.65 50.4 396.8 50.6 396.7 91.8 388.15 87.4 386.45 87.1 386.35 86.35 386.5 50.6 393.5 M42.55 337.55 L40.2 338.0 101.95 362.05 102.1 362.05 160.65 353.95 157.9 352.9 157.65 352.8 102.45 360.55 M93.8 301.9 L93.8 322.3 99.85 322.85 99.85 303.55 93.8 301.9 M93.8 322.3 L86.35 322.65 40.2 325.15 M102.1 348.5 L160.65 341.55 99.85 322.85 M102.1 348.5 L102.1 348.7 M102.45 357.5 L157.9 350.35 160.65 350.0 160.65 341.55 M101.85 357.55 L101.85 357.6 M101.95 362.05 L102.1 362.1 102.1 362.05 M87.4 386.25 L87.4 366.7 86.35 366.25 86.35 386.5 M92.35 388.05 L92.35 368.75 87.4 366.7 M92.35 388.05 L95.85 387.35 95.85 370.15 92.35 368.75 M87.4 386.25 L87.4 386.45 M87.1 386.35 L87.4 386.25 M86.35 394.4 L58.1 400.65 58.9 401.05 86.35 395.1 86.35 394.4 87.4 394.15 92.0 393.15 92.35 393.05 92.35 388.3 92.35 388.05 92.3 388.05 91.8 388.15 M92.35 393.3 L92.35 405.25 92.5 405.65 95.85 404.7 95.85 395.05 92.35 393.3 92.0 393.15 M92.35 393.3 L92.35 393.05 M95.85 395.05 L95.85 389.85 92.35 388.3 M95.85 389.85 L95.85 387.35 M147.65 412.45 L147.65 407.15 137.4 402.75 108.75 390.5 108.75 395.55 147.35 412.45 147.65 412.55 152.35 414.65 154.35 414.1 154.35 364.05 147.65 365.15 147.65 381.8 147.65 400.25 147.65 407.15 M147.65 412.45 L147.65 412.55 M147.65 381.8 L108.75 390.25 108.75 390.5 M147.65 365.15 L108.75 371.4 108.75 390.25 M157.9 352.8 L157.9 350.35 M157.9 352.8 L157.9 352.9 M174.4 393.85 L174.4 376.0 160.65 379.0 160.65 391.15 M174.4 393.85 L174.4 396.75 174.4 415.35 174.4 436.6 180.95 439.7 180.95 306.55 M160.65 353.95 L160.65 379.0 M86.35 366.25 L50.6 351.55 M86.75 284.35 L86.35 322.65 M81.45 254.05 L1.05 260.55 M285.05 290.55 L285.1 290.55 285.05 290.55 278.35 289.55 M182.55 289.6 L284.5 276.1 284.5 276.05 188.55 258.0 86.35 269.15 M278.55 284.5 L284.5 283.6 284.5 276.1 M221.65 200.6 L214.9 200.65 214.9 210.2 221.65 210.1 M211.0 210.25 L211.0 200.7 207.55 200.7 207.55 210.3 211.0 210.25 M187.15 224.65 L227.95 222.9 227.95 232.6 185.9 234.9 186.3 224.65 M1.05 267.1 L242.95 248.25 242.95 241.15 236.95 241.65 176.35 246.45 170.65 246.85 165.05 247.35 88.0 253.5 M230.2 219.8 L182.95 221.9 182.95 237.55 230.2 234.8 230.2 219.8 M200.4 200.8 L200.4 210.4 M170.65 246.85 L170.65 246.6 167.5 245.15 165.05 246.45 165.05 246.6 165.05 247.35 M164.8 246.6 L165.05 246.6 M180.95 289.8 L180.95 289.25 182.55 289.6 180.95 289.8 180.95 299.2 180.55 299.4 M230.2 1.45 L230.2 215.0 183.25 216.95 M227.95 1.45 L227.95 212.3 185.9 214.2 186.45 1.4 M205.2 343.45 L207.3 343.1 207.3 329.0 211.65 330.15 238.9 337.25 261.35 333.1 210.4 320.0 202.95 321.25 202.95 369.8 202.95 378.55 205.35 379.4 205.25 357.5 207.3 356.55 207.3 352.45 205.25 351.8 205.2 343.55 205.0 343.5 205.2 343.45 205.2 343.55 248.4 356.35 248.7 356.2 314.4 341.75 M261.35 333.1 L268.7 331.75 264.35 332.4 213.3 319.55 210.4 320.0 M264.35 330.15 L218.55 318.65 213.3 319.55 M207.3 343.1 L211.65 342.3 211.65 330.15 M211.65 342.3 L238.9 337.25 M264.35 330.15 L264.35 324.25 234.15 316.1 218.55 318.65 M181.3 304.2 L180.95 304.3 M188.8 323.6 L188.8 377.95 194.35 375.8 194.35 371.7 194.35 322.65 188.8 323.6 M188.8 377.95 L188.8 390.35 188.8 402.6 188.8 411.45 188.8 437.3 188.85 437.3 188.8 437.35 181.05 439.65 180.95 439.7 M205.4 386.35 L205.35 379.7 205.35 379.4 M208.1 356.05 L208.1 356.3 208.55 356.2 208.1 356.05 208.1 352.75 207.3 352.45 M208.1 356.3 L207.3 356.55 M208.55 356.2 L248.7 368.95 248.7 365.85 248.1 365.65 208.1 352.75 M215.55 383.3 L215.55 374.45 215.55 371.2 210.55 369.5 210.55 418.95 215.55 417.45 215.55 417.15 215.55 413.35 215.55 404.2 215.55 383.9 215.55 383.3 M232.05 379.95 L215.55 374.45 M242.6 392.85 L242.6 383.45 232.05 379.95 M242.6 383.45 L242.6 380.25 215.55 371.2 M194.35 371.7 L202.95 369.8 M202.95 321.25 L194.35 322.65 M174.4 376.0 L174.4 323.65 99.85 303.55 M293.2 313.4 L285.05 311.6 285.05 321.2 308.75 317.7 308.75 317.1 M299.2 337.95 L303.35 339.0 303.35 337.2 299.2 337.95 285.05 334.4 278.95 332.85 272.95 331.35 272.4 331.2 268.7 331.75 M308.75 327.55 L285.05 331.0 285.05 334.4 M308.95 327.55 L306.7 326.1 285.05 329.35 285.05 331.0 M306.7 326.1 L306.7 324.05 285.05 327.3 285.05 329.35 M306.7 324.05 L308.75 323.75 308.75 317.7 M308.95 327.55 L308.75 327.65 308.75 327.55 308.95 327.55 M320.9 351.35 L316.0 347.9 318.9 346.8 Q318.75 344.65 321.4 345.35 322.05 345.5 321.6 346.3 L321.5 346.95 321.15 347.2 M308.75 340.35 L303.35 339.0 M285.05 321.2 L285.05 327.3 M278.95 332.85 L278.95 308.65 272.95 309.65 272.95 322.95 272.95 329.1 272.95 331.15 272.95 331.35 M264.35 332.4 L264.35 330.35 264.35 330.15 264.8 330.3 272.95 329.1 M264.8 330.3 L264.35 330.35 M272.95 331.15 L272.4 331.2 M272.95 322.95 L264.35 324.25 M248.4 356.35 L248.7 356.45 248.7 356.2 M248.7 365.85 L248.7 365.5 248.1 365.65 M248.7 356.45 L248.7 365.5 311.35 350.4 311.75 350.3 314.45 349.65 314.45 344.9 M255.55 380.7 L255.55 384.2 259.05 385.3 259.05 381.8 255.55 380.7 259.05 379.35 264.35 377.9 267.2 377.15 273.05 375.6 277.8 374.3 278.95 374.0 285.05 372.35 286.2 372.05 290.85 370.8 298.0 368.9 303.35 367.45 303.8 367.35 309.05 365.95 309.05 414.8 309.05 415.1 309.05 420.8 309.05 430.1 314.45 428.35 314.45 428.2 314.45 418.2 314.45 399.45 314.45 389.35 314.45 377.35 314.45 369.4 314.45 360.05 314.45 359.95 314.45 355.3 314.3 355.25 249.2 371.55 248.7 371.65 248.7 451.3 249.05 451.45 249.25 451.5 255.55 449.15 255.55 439.15 255.55 432.4 255.55 427.85 255.55 417.45 255.55 412.9 255.55 407.1 255.55 402.95 255.55 397.45 255.55 393.35 255.55 387.8 255.55 384.2 M259.05 379.35 L259.05 381.8 M249.2 371.55 L248.7 371.35 248.7 371.65 M255.55 387.8 L259.05 388.95 259.05 385.3 M259.05 392.4 L259.05 388.95 M314.45 355.3 L314.45 355.2 314.3 355.25 313.8 355.0 311.35 353.85 311.3 353.8 311.2 353.75 248.7 368.95 M313.85 354.1 Q313.85 352.55 313.25 351.45 312.6 350.3 311.75 350.3 M313.8 355.0 L313.85 354.1 311.35 353.8 311.35 353.85 M311.35 353.8 L311.35 353.7 311.2 353.75 M311.3 353.8 L311.35 353.8 M311.35 353.7 L311.35 350.4 M320.65 371.15 Q317.1 367.75 320.15 364.05 L320.35 363.9 318.85 362.7 318.45 360.75 315.75 359.75 314.45 359.95 M320.65 371.15 L320.85 371.45 M321.05 371.55 L321.0 371.6 320.9 371.65 320.85 371.45 M297.35 376.0 L292.25 377.25 285.05 379.0 285.05 381.7 302.75 377.05 298.95 376.25 298.0 376.1 297.35 376.0 298.0 375.85 286.2 372.05 M303.0 377.0 L302.75 377.05 M303.0 377.0 L303.35 376.9 303.35 367.45 M303.35 377.3 L303.0 377.0 M303.35 376.9 L303.35 377.3 303.35 380.3 303.35 389.7 303.8 389.55 303.8 367.35 M298.0 375.85 L298.0 376.1 M298.0 375.85 L298.0 372.9 290.85 370.8 M298.0 381.8 L298.0 381.7 293.6 382.85 285.05 385.15 285.05 385.35 285.05 403.7 278.95 401.7 278.0 401.4 277.8 401.45 277.6 401.5 277.8 401.35 277.8 374.3 M298.0 381.8 L298.0 384.25 298.0 388.4 303.35 389.7 M298.0 381.7 L303.35 380.3 M298.95 376.25 L298.0 375.85 M292.25 377.25 L285.05 375.05 285.05 379.0 M285.05 375.05 L285.05 372.35 M285.05 381.7 L285.05 385.15 M298.0 372.9 L298.0 368.9 M205.25 357.5 L248.7 371.35 M272.95 309.65 L234.15 316.1 M285.05 290.55 L285.05 311.6 M180.95 306.2 L285.05 290.55 M182.95 1.4 L182.95 217.05 M176.35 246.45 L176.35 1.3 M167.5 245.15 L167.5 1.3 M170.6 1.3 L170.65 246.6 M236.95 241.65 L236.95 1.45 M242.95 1.45 L242.95 241.15 M303.8 412.95 L303.8 413.05 303.95 413.0 303.8 412.95 303.8 409.75 292.6 406.15 285.05 403.7 M277.6 401.5 L273.3 402.5 303.45 413.15 303.8 413.05 M303.8 409.75 L303.8 402.7 303.8 389.55 M309.05 414.8 L303.95 413.0 M278.7 410.55 L293.6 416.15 303.45 413.15 M314.45 428.2 L314.65 428.3 314.45 428.35 M309.05 430.1 L303.8 428.1 303.8 424.2 301.6 423.35 268.25 434.8 255.55 439.15 M303.8 424.2 L303.8 422.6 301.6 423.35 M303.8 422.6 L309.05 420.8 M277.8 401.45 L277.8 401.35 278.0 401.4 M264.6 400.65 L265.1 400.5 264.35 400.25 259.05 398.35 259.05 392.4 M265.1 400.5 L266.9 400.05 267.2 377.15 M266.9 400.05 L267.2 399.95 267.2 400.25 273.05 402.05 273.05 375.6 M267.2 400.25 L266.9 400.05 M273.3 402.5 L273.05 402.4 273.05 402.55 273.3 402.5 M273.05 402.05 L273.05 402.4 M273.05 408.55 L273.05 408.65 277.7 410.45 277.8 410.5 277.8 410.2 278.0 410.25 278.45 410.45 M278.7 410.55 L278.25 410.5 277.8 410.5 277.8 410.65 277.8 414.7 273.25 416.0 273.0 415.85 272.9 415.8 267.45 413.65 267.2 410.0 255.55 412.9 M273.05 408.55 L273.05 402.55 255.55 407.1 M272.8 408.55 L273.05 408.65 273.0 415.8 273.0 415.85 M267.2 410.0 L272.8 408.55 M278.7 410.55 L278.45 410.45 M264.6 400.65 L255.55 402.95 M249.25 451.5 L248.7 451.55 M248.7 451.3 L248.7 451.55 M255.55 427.85 L293.6 416.15 M309.05 415.1 L255.55 432.4 M242.6 410.5 L216.3 417.45 224.15 420.6 229.85 419.2 242.6 416.1 242.6 410.5 242.6 406.35 215.55 413.35 M242.6 406.35 L242.6 396.85 242.6 392.85 M210.55 418.95 L210.55 419.3 242.6 432.1 242.6 428.1 233.25 424.3 224.15 420.6 M215.55 417.15 L215.95 417.3 216.3 417.45 M215.95 417.3 L215.55 417.45 M205.5 409.35 L205.5 406.9 205.4 386.35 M205.5 409.35 L206.1 432.6 210.55 434.55 210.55 425.6 210.55 419.3 M218.5 428.85 L215.55 427.65 215.55 429.75 215.55 433.0 210.65 434.6 210.55 434.65 210.55 434.55 210.65 434.6 M215.55 427.65 L210.55 425.6 M242.6 424.4 L242.6 421.45 242.6 416.1 M242.6 428.1 L242.6 424.4 M218.5 428.85 L242.6 438.6 242.6 432.1 M188.8 437.3 L188.8 437.35 M248.7 451.3 L242.6 448.6 242.6 438.6 M147.65 422.45 L154.35 420.45 154.35 414.1 M160.65 397.15 L160.65 419.1 160.65 430.25 154.35 433.05 147.65 430.4 147.65 424.25 147.65 422.65 147.65 422.45 145.55 423.05 145.25 423.15 144.95 423.25 139.0 425.0 108.75 433.95 108.75 447.35 109.0 447.5 108.75 447.55 102.25 449.4 102.1 449.45 95.85 445.9 95.85 436.7 95.85 432.2 72.0 418.5 50.6 406.25 50.6 417.1 50.6 417.2 50.45 417.15 45.65 418.4 M131.3 416.7 L140.0 414.4 122.05 406.45 108.75 400.55 108.75 406.3 108.75 409.65 108.75 422.7 108.75 426.8 152.35 414.65 M131.3 416.7 L108.75 422.7 M140.0 414.4 L147.35 412.45 M154.35 433.05 L154.35 420.45 M92.35 405.25 L87.4 403.15 87.4 396.5 86.35 396.05 86.35 395.1 M86.05 415.15 L95.85 420.2 95.85 412.75 95.85 404.7 M86.05 415.15 L58.9 401.05 M95.85 432.2 L95.85 425.65 45.55 398.15 45.55 403.35 50.6 406.25 M102.1 435.95 L102.0 435.95 102.1 436.0 102.1 435.95 102.1 362.1 M108.75 433.95 L108.75 426.8 M95.85 425.65 L95.85 420.2 M108.75 447.35 L108.75 447.55 M102.1 436.0 L102.1 449.45 M50.4 396.8 L50.6 396.75 50.6 396.7 M45.55 397.65 L45.55 398.15 M45.3 418.5 L45.55 418.6 M44.75 418.2 L45.3 418.5 M45.55 418.4 L45.55 418.55 45.55 418.6 M45.55 418.55 L45.4 418.45 45.3 418.5 M43.4 417.45 L45.4 418.45 45.55 418.4 45.55 403.35 M43.4 417.45 L44.75 418.2 M50.45 417.15 L50.6 417.1 M45.55 418.4 L45.65 418.4 M58.1 400.65 L50.6 396.75 M40.2 415.4 L40.2 405.1 1.05 413.65 M43.4 417.45 L40.2 415.4 M160.65 397.15 L160.65 391.15 M278.95 374.0 L278.95 401.7 M264.35 377.9 L264.35 400.25 M87.4 396.5 L87.4 394.15 M108.75 395.55 L108.75 400.55 M40.2 338.0 L40.2 405.1" fill="none" stroke="#ffffff" stroke-linecap="round" stroke-linejoin="round" stroke-width="1.0"/>
    <path d="M448.0 347.25 L450.6 347.8 M367.5 341.4 L362.75 340.35 M377.85 343.75 L377.3 343.6 M390.95 334.85 L405.65 338.05 405.9 338.0 M360.25 339.8 L355.4 338.7 M347.3 348.9 L348.65 349.25 M330.05 356.3 L328.95 356.55 360.8 364.75 365.25 363.55 M366.45 366.2 L360.8 364.75 328.8 373.45 365.5 383.75 397.1 374.1 381.55 370.05 M399.2 354.3 L410.85 351.15 381.0 344.45 M393.5 360.0 L387.35 358.55 M366.4 353.5 L374.45 355.45 M366.35 363.25 L372.65 361.55 M376.9 360.35 L384.8 358.25 M384.8 357.9 L377.0 356.05 M314.45 389.35 L330.75 394.4 365.5 383.75 407.9 395.7 438.9 384.8 397.1 374.1 421.3 366.65 395.5 360.5 M475.65 340.85 L487.75 343.25 M458.15 325.4 L460.4 324.85 455.75 324.0 M468.25 326.35 L460.4 324.85 468.25 322.95 M446.85 328.15 L437.75 330.35 M460.2 337.75 L458.4 337.4 M455.75 338.95 L460.2 337.75 468.25 335.55 M475.55 340.8 L475.65 340.85 M468.25 339.35 L460.2 337.75 M424.1 333.6 L411.2 336.7 M405.65 338.05 L435.3 344.5 447.95 341.05 M451.65 348.05 L451.85 348.1 469.5 351.9 493.3 344.6 M451.65 348.05 L450.6 347.8 M446.15 359.05 L486.5 368.1 508.6 360.4 469.5 351.9 446.15 359.05 410.85 351.15 435.3 344.5 448.0 347.25 M438.9 384.8 L486.2 397.0 508.8 387.65 462.5 376.55 438.9 384.8 M446.15 359.05 L421.3 366.65 462.5 376.55 486.5 368.1 531.5 378.25 551.95 369.75 508.6 360.4 532.1 352.1 493.9 344.5 M381.0 344.0 L405.65 338.05 M582.65 294.5 L584.9 294.85 610.95 288.55 592.8 286.1 M582.65 304.5 L606.85 297.9 584.9 294.85 582.65 295.4 M582.65 306.15 L607.0 309.75 633.45 301.65 606.85 297.9 631.15 291.3 610.95 288.55 641.45 281.2 M641.45 288.5 L631.15 291.3 641.45 292.7 M550.4 313.45 L550.15 313.4 M560.3 315.0 L574.75 317.3 M574.75 306.65 L571.15 307.6 M568.0 321.7 L574.75 319.65 M539.5 305.8 L539.7 305.75 M534.9 306.9 L535.1 306.85 M532.65 332.55 L535.6 331.65 M546.85 326.35 L550.7 327.0 556.05 325.35 M546.85 328.2 L550.7 327.0 558.5 328.35 M532.1 352.1 L558.05 343.0 543.55 340.3 M508.95 324.5 L519.25 321.7 508.95 319.95 M508.95 313.15 L519.75 310.55 M498.3 318.15 L501.7 318.7 M501.7 314.9 L498.3 315.75 M498.3 327.4 L501.7 326.45 M498.3 331.9 L501.7 332.55 M498.3 343.05 L502.1 341.9 M510.95 334.25 L508.95 333.9 M508.95 339.8 L520.25 336.35 M524.1 322.5 L519.25 321.7 535.6 317.25 M508.8 387.65 L558.1 399.5 579.1 388.9 531.5 378.25 508.8 387.65 M641.45 313.75 L639.25 314.55 641.45 314.9 M641.45 302.8 L633.45 301.65 641.45 299.2 M641.45 327.75 L613.9 323.4 586.4 333.05 624.8 339.55 641.45 332.65 M624.8 339.55 L641.45 342.4 M582.65 318.55 L613.9 323.4 639.25 314.55 607.0 309.75 582.65 317.25 M582.65 332.45 L586.4 333.05 582.65 334.4 M575.25 337.0 L558.05 343.0 598.4 350.5 624.8 339.55 M571.15 304.45 L574.75 304.95 M574.8 331.1 L572.65 330.75 M577.2 336.3 L578.3 335.9 M574.2 360.55 L617.95 369.3 639.95 358.2 598.4 350.5 574.2 360.55 532.1 352.1 M639.2 387.1 L597.45 379.65 579.1 388.9 629.65 400.6 641.45 392.95 M641.45 357.45 L639.95 358.2 641.45 358.5 M641.45 374.0 L617.95 369.3 597.45 379.65 551.95 369.75 574.2 360.55 M475.55 321.2 L487.75 318.25 M475.55 333.55 L487.75 330.25 M475.55 327.7 L487.75 329.95 M475.55 314.3 L487.75 316.35 M160.65 391.15 L169.9 394.9 174.4 393.85 M188.8 390.35 L205.4 386.35 M205.35 379.7 L194.35 375.8 M215.55 383.3 L216.6 383.65 232.05 379.95 M216.6 383.65 L215.55 383.9 M242.6 392.85 L216.6 383.65 M259.05 392.4 L255.55 393.35 M315.75 359.75 L314.45 360.05 M314.45 369.4 L320.65 371.15 M293.6 382.85 L293.85 382.95 298.0 381.8 M285.05 385.35 L293.85 382.95 298.0 384.25 M303.8 402.7 L292.6 406.15 M268.25 434.8 L281.3 440.1 329.0 423.35 314.45 418.2 M278.25 410.5 L277.8 410.65 M267.45 413.65 L255.55 417.45 M278.45 410.45 L278.5 410.45 M278.45 410.45 L278.25 410.5 M255.55 397.45 L264.6 400.65 M248.7 451.55 L224.9 459.9 264.9 478.35 M248.7 451.55 L249.05 451.45 M255.55 449.15 L281.3 440.1 332.3 460.8 379.5 441.2 329.0 423.35 373.55 407.75 330.75 394.4 314.45 399.45 M242.6 396.85 L215.55 404.2 M205.5 406.9 L201.9 407.9 205.5 409.35 M215.55 429.75 L218.5 428.85 M242.6 421.45 L238.45 422.7 242.6 424.4 M233.25 424.3 L238.45 422.7 229.85 419.2 M188.8 411.45 L201.9 407.9 188.8 402.6 M181.05 439.65 L181.85 440.05 206.1 432.6 M224.9 459.9 L186.25 473.45 M224.9 459.9 L181.85 440.05 119.85 459.05 155.05 478.35 M160.65 419.1 L174.4 415.35 M122.05 406.45 L113.5 408.5 131.3 416.7 M147.65 424.25 L145.45 423.25 139.0 425.0 M102.25 449.4 L119.85 459.05 69.85 474.4 M147.65 422.65 L145.45 423.25 145.25 423.15 M137.4 402.75 L147.65 400.25 M160.65 430.25 L174.4 436.6 M108.75 409.65 L113.5 408.5 108.75 406.3 M95.85 412.75 L86.05 415.15 M72.0 418.5 L53.9 422.9 84.65 439.75 95.85 436.7 M45.65 418.4 L53.9 422.9 16.9 431.8 M95.85 445.9 L84.65 439.75 19.7 457.4 M40.2 415.4 L27.85 408.6 M641.45 403.35 L629.65 400.6 611.65 412.3 636.45 417.55 M593.0 424.45 L537.1 410.1 509.1 424.2 567.95 440.75 593.0 424.45 611.65 412.3 558.1 399.5 537.1 410.1 486.2 397.0 456.4 409.35 509.1 424.2 477.5 440.15 539.3 459.35 567.95 440.75 630.45 458.95 M634.25 434.45 L593.0 424.45 M508.85 479.15 L539.3 459.35 594.25 476.5 M490.1 480.25 L435.85 461.1 407.6 475.35 M477.5 440.15 L435.85 461.1 379.5 441.2 423.05 423.15 373.55 407.75 407.9 395.7 456.4 409.35 423.05 423.15 477.5 440.15 M332.3 460.8 L380.35 480.25 M328.8 373.45 L314.45 377.35 M301.65 473.45 L332.3 460.8 M174.4 396.75 L169.9 394.9 160.65 397.15 M328.8 373.45 L321.2 371.3 M321.15 358.45 L328.95 356.55 323.9 355.25" fill="none" stroke="#ffffff" stroke-linecap="round" stroke-linejoin="round" stroke-width="1.0"/>
  </g>
  <defs>
    <radialGradient cx="0" cy="0" gradientTransform="matrix(0.7943, 0.0, 0.0, 0.7943, 3.6, 3.2)" gradientUnits="userSpaceOnUse" id="gradient0" r="819.2" spreadMethod="pad">
      <stop offset="0.6784313725490196" stop-color="#d8ebd8"/>
      <stop offset="1.0" stop-color="#b0d7b0"/>
    </radialGradient>
    <linearGradient gradientTransform="matrix(0.7943, 0.0, 0.0, 0.7943, 3.6, 3.2)" gradientUnits="userSpaceOnUse" id="gradient1" spreadMethod="pad" x1="-819.2" x2="819.2">
      <stop offset="0.7215686274509804" stop-color="#ff4444"/>
      <stop offset="0.8156862745098039" stop-color="#4b0101"/>
    </linearGradient>
    <radialGradient cx="0" cy="0" gradientTransform="matrix(0.7943, 0.0, 0.0, 0.7943, 3.6, 3.2)" gradientUnits="userSpaceOnUse" id="gradient2" r="819.2" spreadMethod="pad">
      <stop offset="0.7137254901960784" stop-color="#ffffff"/>
      <stop offset="1.0" stop-color="#ebe4b6"/>
    </radialGradient>
  </defs>
</svg>
