<?xml version="1.0" encoding="UTF-8" standalone="no"?>
<svg xmlns:xlink="http://www.w3.org/1999/xlink" height="12.75px" width="20.3px" xmlns="http://www.w3.org/2000/svg">
  <g transform="matrix(1.0, 0.0, 0.0, 1.0, 0.0, 0.0)">
    <path d="M20.1 1.35 L20.3 1.7 19.6 2.75 18.9 2.95 16.1 3.15 12.9 3.25 10.7 3.2 10.5 3.2 10.3 3.2 9.95 3.2 10.1 3.15 20.1 1.35 M4.1 2.7 L4.9 2.95 3.5 2.95 1.95 3.0 1.25 2.9 Q0.65 2.7 0.35 2.25 L0.0 1.55 0.85 1.8 4.1 2.7 M12.7 9.65 L12.3 9.85 10.15 10.75 7.05 10.55 Q6.1 10.05 5.6 9.4 L5.15 8.6 Q9.6 10.35 11.95 9.5 14.25 8.65 13.05 9.4 L12.7 9.65" fill="#000000" fill-rule="evenodd" stroke="none"/>
    <path d="M10.5 3.2 L10.55 3.25 10.3 3.2 10.5 3.2" fill="#ff6699" fill-rule="evenodd" stroke="none"/>
    <path d="M14.55 5.35 Q14.6 5.75 13.9 6.4 L13.5 6.45 13.05 6.1 Q12.45 5.4 13.45 4.75 14.45 4.9 14.55 5.35 M11.7 6.35 L11.65 6.9 11.25 7.45 Q9.8 8.1 8.6 7.25 L6.6 7.2 Q6.05 6.8 6.45 6.2 6.6 5.8 6.9 5.75 8.5 4.8 10.0 5.75 L10.1 5.8 Q11.65 5.3 11.7 6.35" fill="#ffffff" fill-rule="evenodd" stroke="none"/>
    <path d="M15.9 4.4 L16.35 4.3 18.25 3.45 17.2 5.1 16.25 6.7 Q15.65 7.7 13.85 8.45 12.05 9.2 10.15 9.25 L6.7 9.0 Q5.2 8.65 4.45 7.5 3.65 6.3 3.2 4.8 L3.85 4.35 6.9 5.75 Q6.6 5.8 6.45 6.2 6.05 6.8 6.6 7.2 L8.6 7.25 Q9.8 8.1 11.25 7.45 L11.65 6.9 11.7 6.35 13.05 6.1 13.5 6.45 13.9 6.4 Q14.6 5.75 14.55 5.35 L15.9 4.4 M12.7 9.65 L14.2 9.2 14.8 8.95 14.2 9.8 Q13.75 10.4 13.4 11.25 13.0 12.1 11.7 12.5 L9.15 12.75 Q7.9 12.65 6.8 11.8 5.7 10.95 5.6 9.4 6.1 10.05 7.05 10.55 L10.15 10.75 12.3 9.85 12.7 9.65" fill="#ffceb7" fill-rule="evenodd" stroke="none"/>
    <path d="M10.1 3.15 L7.8 2.95 6.05 3.0 4.1 2.7 0.85 1.8 Q3.4 0.35 5.7 0.15 L8.65 0.0 11.75 0.55 17.05 0.9 19.65 1.05 Q19.9 0.95 20.1 1.35 L10.1 3.15 M3.85 4.35 Q4.55 3.95 5.95 3.5 8.15 2.8 9.7 3.5 L12.6 4.15 14.25 4.05 Q14.45 3.85 15.15 4.3 L15.9 4.4 14.55 5.35 Q14.45 4.9 13.45 4.75 12.45 5.4 13.05 6.1 L11.7 6.35 Q11.65 5.3 10.1 5.8 L10.0 5.75 Q8.5 4.8 6.9 5.75 L3.85 4.35" fill="#febda3" fill-rule="evenodd" stroke="none"/>
  </g>
</svg>
