<?xml version="1.0" encoding="UTF-8" standalone="no"?>
<svg xmlns:xlink="http://www.w3.org/1999/xlink" height="52.15px" width="165.3px" xmlns="http://www.w3.org/2000/svg">
  <g transform="matrix(1.0, 0.0, 0.0, 1.0, 78.25, -47.7)">
    <path d="M62.0 99.35 L61.5 99.35 Q61.0 99.25 60.6 98.95 L59.7 98.35 Q56.05 95.35 54.65 85.3 53.85 79.55 53.85 71.6 53.85 59.15 59.2 53.0 63.85 47.7 71.75 47.7 79.15 47.7 84.5 51.05 L84.6 51.1 84.7 51.15 Q84.85 53.35 85.65 57.8 86.55 62.6 86.55 73.95 86.55 85.3 75.8 93.75 68.65 99.35 62.2 99.35 L62.0 99.35 M-77.7 78.1 L-75.85 76.0 Q-74.0 73.6 -72.75 72.75 -71.4 71.8 -65.3 70.9 L-59.1 70.2 Q-53.4 70.2 -52.05 71.15 -50.15 72.5 -50.15 77.9 -50.15 83.2 -57.05 86.25 -62.0 88.4 -66.3 88.4 L-67.55 88.35 -67.7 88.1 -69.15 88.1 -70.85 87.75 -71.25 87.8 -72.5 87.65 Q-73.35 87.7 -75.65 85.15 -77.7 82.85 -77.7 78.1" fill="#89dcfe" fill-rule="evenodd" stroke="none"/>
    <path d="M84.6 51.1 L84.7 51.15 Q84.85 53.35 85.65 57.8 86.55 62.6 86.55 73.95 86.55 85.3 75.8 93.75 68.65 99.35 62.2 99.35 L62.0 99.35" fill="none" stroke="#000000" stroke-linecap="round" stroke-linejoin="round" stroke-width="1.0"/>
    <path d="M-67.7 88.1 L-69.15 88.1 -70.5 88.1 -71.25 87.8 -72.5 87.65 Q-73.35 87.7 -75.65 85.15 -77.7 82.85 -77.7 78.1 L-77.7 76.8" fill="none" stroke="#000000" stroke-linecap="round" stroke-linejoin="round" stroke-width="1.0"/>
  </g>
</svg>
