<?xml version="1.0" encoding="UTF-8" standalone="no"?>
<svg xmlns:xlink="http://www.w3.org/1999/xlink" height="11.75px" width="27.1px" xmlns="http://www.w3.org/2000/svg">
  <g transform="matrix(1.0, 0.0, 0.0, 1.0, 13.55, 5.85)">
    <path d="M11.0 -4.0 L12.0 -2.05 12.8 -0.35 Q9.65 1.4 3.2 0.7 -3.3 0.0 -6.75 -1.1 L-9.35 -2.05 Q-11.3 -2.85 -12.95 -3.85 -12.6 -4.8 -11.85 -5.6 L-11.8 -5.65 -11.9 -5.55 -10.65 -5.5 -10.35 -5.5 -10.05 -5.5 -9.0 -5.4 -5.2 -4.8 -4.55 -4.65 -4.4 -4.6 0.9 -3.8 2.85 -3.7 5.75 -3.55 6.3 -3.55 9.15 -3.85 10.5 -3.95 10.65 -3.95 10.55 -3.95 11.0 -4.0" fill="#000000" fill-rule="evenodd" stroke="none"/>
    <path d="M12.8 -0.35 Q15.15 5.5 6.35 5.65 -3.7 5.8 -12.35 0.25 L-12.9 -0.1 -13.0 -0.35 -13.3 -2.05 Q-13.3 -3.0 -12.95 -3.85 -11.3 -2.85 -9.35 -2.05 L-6.75 -1.1 Q-3.3 0.0 3.2 0.7 9.65 1.4 12.8 -0.35" fill="#ffffff" fill-rule="evenodd" stroke="none"/>
    <path d="M11.0 -4.0 L12.0 -2.05 12.8 -0.35 Q15.15 5.5 6.35 5.65 -3.7 5.8 -12.35 0.25 L-12.9 -0.1 -13.0 -0.35 -13.3 -2.05 Q-13.3 -3.0 -12.95 -3.85 -12.6 -4.8 -11.85 -5.6" fill="none" stroke="#000000" stroke-linecap="round" stroke-linejoin="round" stroke-width="0.5"/>
  </g>
</svg>
