<?xml version="1.0" encoding="UTF-8" standalone="no"?>
<svg xmlns:xlink="http://www.w3.org/1999/xlink" height="109.4px" width="57.8px" xmlns="http://www.w3.org/2000/svg">
  <g transform="matrix(1.0, 0.0, 0.0, 1.0, 0.25, -72.45)">
    <path d="M37.1 77.9 L37.0 77.85 Q35.9 77.9 35.15 77.1 34.35 76.3 34.3 75.15 34.3 74.05 35.05 73.25 35.8 72.45 36.95 72.45 38.0 72.4 38.75 73.2 39.55 74.0 39.6 75.1 L39.55 75.55 Q39.4 76.4 38.8 77.05 38.1 77.8 37.1 77.9 M6.95 79.4 L6.85 79.4 Q5.75 79.4 5.0 78.6 4.2 77.8 4.2 76.7 4.15 75.55 4.95 74.75 5.65 73.95 6.75 73.95 7.85 73.9 8.65 74.7 9.4 75.5 9.4 76.65 L9.4 77.05 Q9.25 77.9 8.7 78.55 7.95 79.3 6.95 79.4 M23.4 98.45 L20.65 91.75 25.95 91.3 29.3 91.5 28.9 92.2 Q28.5 92.65 27.9 95.25 27.25 97.8 26.1 99.75 24.95 101.7 23.4 98.45 M16.75 107.45 Q18.2 105.75 18.15 103.6 L20.05 104.25 Q22.85 105.45 24.9 107.65 27.2 103.7 30.3 101.25 L30.35 101.15 30.65 100.9 30.8 100.8 Q31.8 103.1 33.35 104.75 L33.45 104.85 Q31.0 108.2 27.45 111.3 26.05 108.85 24.9 107.65 26.05 108.85 27.45 111.3 L25.4 113.05 Q20.0 110.7 16.75 107.45" fill="#ffffff" fill-rule="evenodd" stroke="none"/>
    <path d="M39.55 75.55 L40.4 75.85 Q40.85 76.05 41.3 76.4 L40.95 76.6 Q40.6 77.0 40.6 77.5 40.6 77.95 40.95 78.3 41.3 78.65 41.8 78.65 42.3 78.65 42.65 78.25 L42.75 78.1 Q43.5 79.45 43.5 80.85 43.45 82.35 42.55 82.95 L40.25 82.9 Q38.9 82.25 38.0 80.8 37.1 79.35 37.1 77.9 38.1 77.8 38.8 77.05 39.4 76.4 39.55 75.55 M9.4 77.05 L10.25 77.35 11.15 77.9 10.8 78.15 Q10.45 78.5 10.5 79.0 10.5 79.45 10.85 79.85 11.2 80.2 11.7 80.15 12.15 80.15 12.45 79.8 L12.6 79.65 Q13.35 81.0 13.35 82.4 13.3 83.55 12.7 84.15 L12.7 84.2 8.3 82.9 8.2 82.85 7.85 82.3 Q6.95 80.85 6.95 79.4 7.95 79.3 8.7 78.55 9.25 77.9 9.4 77.05" fill="#996600" fill-rule="evenodd" stroke="none"/>
    <path d="M40.65 105.75 L44.45 116.85 44.6 117.35 44.55 117.5 Q44.5 118.05 44.85 118.25 L46.6 124.95 Q52.4 148.35 52.35 152.45 L52.35 160.2 Q52.35 164.15 53.65 167.85 54.45 170.05 57.3 175.0 54.4 175.6 51.5 177.35 48.2 179.35 44.35 180.15 L36.85 181.05 29.05 181.5 21.5 181.3 13.95 180.55 13.95 180.3 14.8 180.15 16.85 179.7 Q27.35 177.1 27.35 171.0 27.3 163.9 29.4 156.4 L33.05 141.75 Q34.7 134.2 34.75 126.3 L34.45 113.9 Q37.9 109.9 40.65 105.75" fill="#89dcfe" fill-rule="evenodd" stroke="none"/>
    <path d="M6.1 130.75 L5.65 123.45 Q11.35 121.75 17.0 118.6 11.9 114.35 9.95 109.75 L16.25 106.95 16.75 107.45 Q20.0 110.7 25.4 113.05 L21.85 115.6 17.0 118.6 21.85 115.6 25.4 113.05 27.45 111.3 Q31.0 108.2 33.45 104.85 L33.75 104.45 40.65 105.75 Q37.9 109.9 34.45 113.9 L34.25 111.15 34.45 113.9 29.25 119.4 Q22.45 126.1 14.1 130.2 10.6 131.85 6.2 132.2 L6.1 130.75" fill="#000000" fill-rule="evenodd" stroke="none"/>
    <path d="M20.05 104.25 L21.85 104.35 23.75 104.15 25.65 103.7 27.2 103.05 28.65 102.15 Q29.4 101.6 30.25 101.2 L30.3 101.25 Q27.2 103.7 24.9 107.65 22.85 105.45 20.05 104.25" fill="#ff8746" fill-rule="evenodd" stroke="none"/>
    <path d="M13.05 180.45 Q9.6 179.6 6.85 177.45 3.75 175.05 0.0 176.5 L0.3 170.55 Q0.4 168.95 2.7 158.5 4.95 148.05 4.95 144.55 4.9 141.0 5.6 135.8 L5.85 132.95 5.95 132.2 6.2 132.2 Q10.6 131.85 14.1 130.2 22.45 126.1 29.25 119.4 L34.45 113.9 34.75 126.3 Q34.7 134.2 33.05 141.75 L29.4 156.4 Q27.3 163.9 27.35 171.0 27.35 177.1 16.85 179.7 L14.8 180.15 13.95 180.3 13.05 180.45 M5.65 123.45 L5.3 111.75 5.65 111.7 9.95 109.75 Q11.9 114.35 17.0 118.6 11.35 121.75 5.65 123.45" fill="#ccf0ff" fill-rule="evenodd" stroke="none"/>
    <path d="M13.25 180.5 L13.2 180.5 13.65 180.6 12.9 180.55 13.2 180.5 13.1 180.5 13.05 180.45 13.25 180.5 M5.95 132.2 L6.1 130.75 6.2 132.2 5.95 132.2" fill="#ff0000" fill-rule="evenodd" stroke="none"/>
    <path d="M13.95 180.55 L13.25 180.5 13.05 180.45 13.1 180.5 13.2 180.5 12.9 180.55 13.05 180.45 13.95 180.3 13.95 180.55" fill="#dd0000" fill-rule="evenodd" stroke="none"/>
    <path d="M23.4 98.45 Q24.95 101.7 26.1 99.75 27.25 97.8 27.9 95.25 28.5 92.65 28.9 92.2 L29.3 91.5 25.95 91.3 20.65 91.75 23.4 98.45 M44.85 118.25 L46.6 124.95 Q52.4 148.35 52.35 152.45 L52.35 160.2 Q52.35 164.15 53.65 167.85 54.45 170.05 57.3 175.0 54.4 175.6 51.5 177.35 48.2 179.35 44.35 180.15 L36.85 181.05 29.05 181.5 21.5 181.3 13.95 180.55 13.25 180.5 M13.2 180.5 L13.65 180.6 M13.05 180.45 Q9.6 179.6 6.85 177.45 3.75 175.05 0.0 176.5 L0.3 170.55 Q0.4 168.95 2.7 158.5 4.95 148.05 4.95 144.55 4.9 141.0 5.6 135.8 L5.85 132.95 5.95 132.2 6.1 130.75 5.65 123.45 Q11.35 121.75 17.0 118.6 11.9 114.35 9.95 109.75 L16.25 106.95 16.75 107.45 Q18.2 105.75 18.15 103.6 L20.05 104.25 M5.65 111.7 L9.95 109.75 M30.25 101.2 L30.35 101.15 30.65 100.9 30.8 100.8 Q31.8 103.1 33.35 104.75 L33.45 104.85 33.75 104.45 40.65 105.75 Q37.9 109.9 34.45 113.9 L34.25 111.15 M30.3 101.25 Q27.2 103.7 24.9 107.65 26.05 108.85 27.45 111.3 31.0 108.2 33.45 104.85 M17.0 118.6 L21.85 115.6 25.4 113.05 Q20.0 110.7 16.75 107.45 M25.4 113.05 L27.45 111.3 M34.45 113.9 L29.25 119.4 Q22.45 126.1 14.1 130.2 10.6 131.85 6.2 132.2 L6.1 130.75 M24.9 107.65 Q22.85 105.45 20.05 104.25 M13.2 180.5 L13.1 180.5 13.05 180.45 13.25 180.5" fill="none" stroke="#000000" stroke-linecap="round" stroke-linejoin="round" stroke-width="0.5"/>
  </g>
</svg>
