<?xml version="1.0" encoding="UTF-8" standalone="no"?>
<svg xmlns:xlink="http://www.w3.org/1999/xlink" height="17.85px" width="23.0px" xmlns="http://www.w3.org/2000/svg">
  <g transform="matrix(1.0, 0.0, 0.0, 1.0, 11.45, 9.05)">
    <path d="M-6.7 4.75 L-7.5 3.8 -7.8 3.4 -8.35 2.3 -8.55 1.5 Q-8.8 -0.35 -9.5 -2.05 -10.25 -3.75 -10.8 -4.45 -11.35 -5.15 -11.2 -8.8 -6.95 -8.35 -3.3 -6.15 L4.3 -1.0 Q7.95 1.75 10.25 5.2 L11.3 7.1 6.05 7.1 6.15 7.05 6.0 7.1 5.45 7.1 5.45 7.25 4.5 7.35 Q3.1 7.45 1.45 8.15 L-1.35 8.8 -1.65 8.8 -2.15 8.75 -2.45 8.7 -3.2 8.35 -3.5 8.05 -4.25 7.45 -4.55 7.15 -6.55 4.95 -6.7 4.75" fill="#89dcfe" fill-rule="evenodd" stroke="none"/>
    <path d="M-11.2 -8.8 Q-6.95 -8.35 -3.3 -6.15 L4.3 -1.0 Q7.95 1.75 10.25 5.2 L11.3 7.1" fill="none" stroke="#000000" stroke-linecap="round" stroke-linejoin="round" stroke-width="0.5"/>
    <path d="M-3.2 8.35 L-3.5 8.05 -4.25 7.45 -4.55 7.15 -6.55 4.95 -6.7 4.75" fill="none" stroke="#000000" stroke-linecap="round" stroke-linejoin="round" stroke-width="0.5"/>
  </g>
</svg>
