<?xml version="1.0" encoding="UTF-8" standalone="no"?>
<svg xmlns:xlink="http://www.w3.org/1999/xlink" height="66.45px" width="93.5px" xmlns="http://www.w3.org/2000/svg">
  <g transform="matrix(1.0, 0.0, 0.0, 1.0, 46.8, 34.45)">
    <path d="M36.9 -14.55 L37.95 -15.35 38.0 -15.4 38.0 -15.35 Q39.45 -16.15 41.35 -15.85 43.4 -15.55 44.55 -14.0 45.6 -12.55 46.0 -10.75 L46.45 -7.2 46.25 -6.5 46.2 -6.55 46.15 -6.35 Q45.1 -2.05 41.65 2.45 35.45 10.55 34.0 5.3 L34.55 1.55 Q35.8 0.9 37.75 0.0 39.7 -1.0 41.75 -4.9 L43.25 -8.3 43.55 -9.25 43.65 -9.15 43.65 -9.25 Q43.65 -10.6 42.95 -11.75 41.9 -13.4 39.85 -13.7 L39.5 -13.7 Q37.7 -13.6 36.55 -12.75 L36.55 -12.8 36.85 -14.25 36.9 -14.55 M-5.3 30.7 L-6.4 30.35 Q-11.6 28.45 -16.75 26.0 -21.95 23.55 -25.5 20.75 -29.0 18.0 -30.95 15.85 L-31.65 14.4 Q-32.75 11.9 -33.55 8.0 -35.45 13.8 -41.65 5.7 -47.85 -2.4 -46.2 -9.9 -44.6 -17.45 -36.4 -11.4 -37.35 -16.5 -38.55 -20.15 L-34.75 -24.25 Q-31.4 -27.5 -27.55 -29.95 -23.45 -32.6 -18.75 -33.2 L-9.25 -33.9 -1.75 -34.2 6.75 -34.45 7.45 -34.4 Q10.3 -33.8 12.7 -32.0 16.5 -29.15 19.7 -25.95 22.85 -22.8 23.45 -18.85 L24.7 -9.85 Q25.3 -4.8 25.25 -0.6 25.2 3.6 24.1 8.6 22.95 13.6 20.0 17.35 17.05 21.05 11.7 24.5 6.3 27.95 2.2 29.45 -1.95 30.9 -3.6 30.8 L-5.3 30.7 M38.0 -15.35 L37.95 -15.35 38.0 -15.35 M1.0 4.4 Q2.4 9.4 -1.15 10.55 L6.0 8.65 Q6.4 6.75 1.0 4.4 M-39.35 -10.85 L-40.65 -10.7 Q-43.85 -10.0 -42.95 -6.55 -42.05 -3.1 -40.65 -0.05 -39.25 3.0 -37.6 3.3 -35.95 3.6 -34.7 4.2 L-34.55 4.3 -34.7 3.1 Q-35.6 -4.5 -36.6 -10.0 -37.8 -10.9 -39.35 -10.85 M-33.55 8.0 Q-34.25 4.6 -34.75 0.15 -35.55 -6.4 -36.4 -11.4 -35.55 -6.4 -34.75 0.15 -34.25 4.6 -33.55 8.0" fill="#ffbe9b" fill-rule="evenodd" stroke="none"/>
    <path d="M7.45 -34.4 L14.25 -34.15 23.2 -33.25 Q27.95 -32.55 32.05 -30.75 35.6 -29.2 38.4 -26.0 L36.9 -14.55 36.85 -14.25 36.55 -12.8 36.55 -12.55 36.55 -12.75 Q37.7 -13.6 39.5 -13.7 L39.85 -13.7 Q41.9 -13.4 42.95 -11.75 43.65 -10.6 43.65 -9.25 L43.55 -9.25 43.25 -8.3 41.75 -4.9 Q39.7 -1.0 37.75 0.0 35.8 0.9 34.55 1.55 L34.0 5.3 Q33.05 11.05 32.2 13.05 31.35 15.0 29.85 16.4 L24.3 20.45 Q20.25 23.1 15.75 25.55 L8.35 29.45 Q5.4 30.95 2.1 31.6 -0.85 32.15 -5.3 30.7 L-3.6 30.8 Q-1.95 30.9 2.2 29.45 6.3 27.95 11.7 24.5 17.05 21.05 20.0 17.35 22.95 13.6 24.1 8.6 25.2 3.6 25.25 -0.6 25.3 -4.8 24.7 -9.85 L23.45 -18.85 Q22.85 -22.8 19.7 -25.95 16.5 -29.15 12.7 -32.0 10.3 -33.8 7.45 -34.4 M34.55 1.55 L34.7 0.35 Q35.55 -7.1 36.55 -12.55 35.55 -7.1 34.7 0.35 L34.55 1.55 M1.0 4.4 Q6.4 6.75 6.0 8.65 L-1.15 10.55 Q2.4 9.4 1.0 4.4 M-39.35 -10.85 Q-37.8 -10.9 -36.6 -10.0 -35.6 -4.5 -34.7 3.1 L-34.55 4.3 -34.7 4.2 Q-35.95 3.6 -37.6 3.3 -39.25 3.0 -40.65 -0.05 -42.05 -3.1 -42.95 -6.55 -43.85 -10.0 -40.65 -10.7 L-39.35 -10.85" fill="#ffa675" fill-rule="evenodd" stroke="none"/>
    <path d="M36.9 -14.55 L37.95 -15.35 38.0 -15.4 M46.15 -6.35 Q45.1 -2.05 41.65 2.45 35.45 10.55 34.0 5.3 M32.2 13.05 Q31.35 15.0 29.85 16.4 M-30.95 15.85 L-31.65 14.4 Q-32.75 11.9 -33.55 8.0 M-36.4 -11.4 Q-37.35 -16.5 -38.55 -20.15 M36.85 -14.25 L36.9 -14.55 M46.2 -6.55 L46.15 -6.35 M-36.4 -11.4 Q-35.55 -6.4 -34.75 0.15 -34.25 4.6 -33.55 8.0" fill="none" stroke="#000000" stroke-linecap="round" stroke-linejoin="round" stroke-width="0.5"/>
    <path d="M38.4 -26.0 L36.9 -14.55 M34.0 5.3 Q33.05 11.05 32.2 13.05 M-33.55 8.0 Q-35.45 13.8 -41.65 5.7 -47.85 -2.4 -46.2 -9.9 -44.6 -17.45 -36.4 -11.4 M36.55 -12.8 L36.85 -14.25 M36.55 -12.8 L36.55 -12.75 36.55 -12.55 Q35.55 -7.1 34.7 0.35 L34.55 1.55 34.0 5.3" fill="none" stroke="#000000" stroke-linecap="round" stroke-linejoin="round" stroke-width="0.5"/>
    <path d="M38.0 -15.35 Q39.45 -16.15 41.35 -15.85 43.4 -15.55 44.55 -14.0 45.6 -12.55 46.0 -10.75 L46.45 -7.2 46.25 -6.5 46.15 -6.35 M29.85 16.4 L24.3 20.45 Q20.25 23.1 15.75 25.55 L8.35 29.45 Q5.4 30.95 2.1 31.6 -0.85 32.15 -5.3 30.7 L-6.4 30.35 Q-11.6 28.45 -16.75 26.0 -21.95 23.55 -25.5 20.75 -29.0 18.0 -30.95 15.85 M36.55 -12.55 L36.55 -12.8 M37.95 -15.35 L38.0 -15.35" fill="none" stroke="#000000" stroke-linecap="round" stroke-linejoin="round" stroke-width="0.5"/>
  </g>
</svg>
