<?xml version="1.0" encoding="UTF-8" standalone="no"?>
<svg xmlns:xlink="http://www.w3.org/1999/xlink" height="91.95px" width="93.3px" xmlns="http://www.w3.org/2000/svg">
  <g transform="matrix(1.0, 0.0, 0.0, 1.0, 46.65, 46.1)">
    <path d="M-41.35 25.3 L-41.45 25.15 -41.3 25.3 -41.35 25.3 M-3.15 -39.2 L-3.0 -39.35 -3.0 -39.25 -3.15 -39.2" fill="#ff0000" fill-rule="evenodd" stroke="none"/>
    <path d="M-6.6 -5.6 Q-7.2 -6.5 -6.15 -6.85 -5.3 -7.1 -4.9 -6.35 L-4.75 -6.6 -4.0 -6.9 -3.25 -6.6 -2.95 -5.8 -2.6 -6.6 -1.85 -6.9 Q-1.4 -6.9 -1.1 -6.6 L-0.8 -5.8 -0.4 -6.6 0.35 -6.9 1.1 -6.6 1.4 -6.0 1.4 -5.85 1.5 -6.05 1.8 -6.6 2.55 -6.9 3.3 -6.6 3.45 -6.35 4.65 -6.45 5.3 -5.9 5.4 -5.9 5.5 -5.85 6.15 -5.6 6.3 -5.45 6.45 -4.85 6.4 -4.5 6.15 -4.1 Q5.85 -3.85 5.35 -3.8 L6.05 -3.5 6.15 -3.45 6.45 -2.8 6.45 -2.7 6.15 -1.95 Q5.85 -1.7 5.35 -1.65 L6.15 -1.25 6.35 -0.95 6.45 -0.5 6.35 0.0 6.2 0.2 6.15 0.25 5.6 0.5 5.4 0.55 5.65 0.65 6.15 0.95 6.3 1.1 6.45 1.7 6.45 1.8 6.15 2.45 5.65 2.6 5.3 2.5 Q5.55 3.1 5.1 3.45 L3.45 3.55 3.3 3.8 Q3.05 4.05 2.65 4.1 L2.55 4.1 1.95 3.95 1.8 3.8 1.4 3.05 1.1 3.8 1.05 3.85 0.35 4.1 Q-0.1 4.1 -0.4 3.8 L-0.8 3.0 -1.1 3.8 Q-1.4 4.1 -1.85 4.1 -2.3 4.1 -2.6 3.8 L-2.95 3.0 -3.25 3.8 Q-3.55 4.1 -4.0 4.1 L-4.75 3.8 -4.85 3.6 Q-5.05 4.15 -5.65 4.1 -6.7 4.0 -6.75 2.9 L-7.05 2.8 -7.7 2.1 -7.7 2.0 -7.5 1.4 -7.4 1.25 -6.65 0.85 Q-7.1 0.8 -7.4 0.55 L-7.45 0.5 -7.55 0.3 -7.7 -0.2 -7.6 -0.65 -7.4 -0.95 -6.65 -1.35 Q-7.1 -1.4 -7.4 -1.65 L-7.7 -2.4 -7.7 -2.5 -7.4 -3.15 -7.3 -3.2 Q-7.0 -3.45 -6.65 -3.5 -7.1 -3.55 -7.4 -3.8 L-7.65 -4.2 -7.7 -4.55 -7.4 -5.3 -6.75 -5.55 -6.6 -5.6 -5.9 -5.1 -6.6 -5.6 M-5.05 -5.55 L-5.9 -5.1 -6.05 -5.0 Q-6.65 -4.4 -6.65 -3.6 L-6.65 -3.5 -6.65 -1.35 -6.65 0.85 Q-6.65 1.6 -6.05 2.2 L-5.75 2.45 -5.05 2.75 -4.65 2.8 0.25 2.8 0.7 2.8 3.3 2.8 Q4.05 2.8 4.65 2.2 5.25 1.6 5.25 0.8 L5.25 -3.6 Q5.25 -4.4 4.65 -5.0 L4.35 -5.25 4.0 -5.45 3.55 -5.55 3.25 -5.6 1.5 -5.6 -3.35 -5.6 -4.65 -5.6 -5.05 -5.55 -4.9 -6.35 -5.05 -5.55 M4.1 -6.25 L4.05 -6.2 4.0 -6.2 3.95 -6.15 3.95 -5.95 4.3 -6.0 4.3 -6.05 4.1 -6.25 M2.25 -6.4 L2.2 -6.4 2.15 -6.35 2.15 -6.15 2.5 -6.2 2.5 -6.25 2.3 -6.45 2.25 -6.4 M0.3 -6.25 L0.1 -6.45 0.05 -6.4 0.0 -6.4 -0.05 -6.35 -0.05 -6.15 0.3 -6.2 0.3 -6.25 M5.75 -1.0 L5.7 -1.0 5.65 -0.95 5.65 -0.75 6.0 -0.8 6.0 -0.85 5.8 -1.05 5.75 -1.0 M5.7 -3.3 L5.65 -3.25 5.6 -3.25 5.55 -3.2 5.55 -3.0 5.9 -3.05 5.9 -3.1 5.7 -3.3 M5.35 -5.4 L5.3 -5.4 5.25 -5.35 5.25 -5.15 5.6 -5.2 5.6 -5.25 5.4 -5.45 5.35 -5.4 M3.45 -6.35 L3.55 -5.55 3.45 -6.35 M5.3 -5.9 L4.35 -5.25 5.3 -5.9 M0.1 3.1 L0.05 3.15 0.0 3.15 -0.05 3.2 -0.05 3.4 0.3 3.35 0.3 3.3 0.1 3.1 M2.3 3.15 L2.25 3.2 2.2 3.2 2.15 3.25 2.15 3.45 2.5 3.4 2.5 3.35 2.3 3.15 M4.25 3.05 L4.2 3.05 4.15 3.1 4.15 3.3 4.5 3.25 4.5 3.2 4.3 3.0 4.25 3.05 M5.65 1.3 L5.65 1.5 6.0 1.45 6.0 1.4 5.8 1.2 5.75 1.25 5.7 1.25 5.65 1.3 M3.45 3.55 L3.3 2.8 3.45 3.55 M-5.85 -6.3 L-6.05 -6.5 -6.1 -6.45 -6.15 -6.45 -6.2 -6.4 -6.2 -6.2 -5.85 -6.25 -5.85 -6.3 M-2.25 -6.4 L-2.25 -6.2 -1.9 -6.25 -1.9 -6.3 -2.1 -6.5 -2.15 -6.45 -2.2 -6.45 -2.25 -6.4 M-3.95 -6.25 L-4.15 -6.45 -4.2 -6.4 -4.25 -6.4 -4.3 -6.35 -4.3 -6.15 -3.95 -6.2 -3.95 -6.25 M-6.95 -0.4 L-7.15 -0.6 -7.2 -0.55 -7.25 -0.55 -7.3 -0.5 -7.3 -0.3 -6.95 -0.35 -6.95 -0.4 M-7.35 -2.8 L-7.35 -2.6 -7.0 -2.65 -7.0 -2.7 -7.2 -2.9 -7.25 -2.85 -7.3 -2.85 -7.35 -2.8 M-7.0 -5.1 L-7.05 -5.1 -7.1 -5.05 -7.1 -4.85 -6.75 -4.9 -6.75 -4.95 -6.95 -5.15 -7.0 -5.1 M-2.15 3.2 L-2.2 3.2 -2.25 3.25 -2.25 3.45 -1.9 3.4 -1.9 3.35 -2.1 3.15 -2.15 3.2 M-4.0 3.4 Q-4.05 3.2 -4.25 3.2 L-4.3 3.25 -4.35 3.25 -4.4 3.3 -4.4 3.5 -4.0 3.45 -4.0 3.4 M-5.05 2.75 L-4.85 3.6 -5.05 2.75 M-7.1 2.0 L-6.75 1.95 -6.75 1.9 -6.95 1.7 -7.0 1.75 -7.05 1.75 -7.1 1.8 -7.1 2.0 M-6.75 2.9 Q-6.25 2.95 -5.75 2.45 -6.25 2.95 -6.75 2.9 M-5.9 3.2 L-5.95 3.25 -6.0 3.25 -6.05 3.3 -6.05 3.5 -5.7 3.45 -5.7 3.4 -5.9 3.2" fill="#333366" fill-rule="evenodd" stroke="none"/>
    <path d="M0.3 -6.25 L0.3 -6.2 -0.05 -6.15 -0.05 -6.35 0.0 -6.4 0.05 -6.4 0.1 -6.45 0.3 -6.25 M2.25 -6.4 L2.3 -6.45 2.5 -6.25 2.5 -6.2 2.15 -6.15 2.15 -6.35 2.2 -6.4 2.25 -6.4 M4.1 -6.25 L4.3 -6.05 4.3 -6.0 3.95 -5.95 3.95 -6.15 4.0 -6.2 4.05 -6.2 4.1 -6.25 M5.35 -5.4 L5.4 -5.45 5.6 -5.25 5.6 -5.2 5.25 -5.15 5.25 -5.35 5.3 -5.4 5.35 -5.4 M5.7 -3.3 L5.9 -3.1 5.9 -3.05 5.55 -3.0 5.55 -3.2 5.6 -3.25 5.65 -3.25 5.7 -3.3 M5.75 -1.0 L5.8 -1.05 6.0 -0.85 6.0 -0.8 5.65 -0.75 5.65 -0.95 5.7 -1.0 5.75 -1.0 M5.65 1.3 L5.7 1.25 5.75 1.25 5.8 1.2 6.0 1.4 6.0 1.45 5.65 1.5 5.65 1.3 M4.25 3.05 L4.3 3.0 4.5 3.2 4.5 3.25 4.15 3.3 4.15 3.1 4.2 3.05 4.25 3.05 M2.3 3.15 L2.5 3.35 2.5 3.4 2.15 3.45 2.15 3.25 2.2 3.2 2.25 3.2 2.3 3.15 M0.1 3.1 L0.3 3.3 0.3 3.35 -0.05 3.4 -0.05 3.2 0.0 3.15 0.05 3.15 0.1 3.1 M-3.95 -6.25 L-3.95 -6.2 -4.3 -6.15 -4.3 -6.35 -4.25 -6.4 -4.2 -6.4 -4.15 -6.45 -3.95 -6.25 M-2.25 -6.4 L-2.2 -6.45 -2.15 -6.45 -2.1 -6.5 -1.9 -6.3 -1.9 -6.25 -2.25 -6.2 -2.25 -6.4 M-5.85 -6.3 L-5.85 -6.25 -6.2 -6.2 -6.2 -6.4 -6.15 -6.45 -6.1 -6.45 -6.05 -6.5 -5.85 -6.3 M-7.0 -5.1 L-6.95 -5.15 -6.75 -4.95 -6.75 -4.9 -7.1 -4.85 -7.1 -5.05 -7.05 -5.1 -7.0 -5.1 M-7.35 -2.8 L-7.3 -2.85 -7.25 -2.85 -7.2 -2.9 -7.0 -2.7 -7.0 -2.65 -7.35 -2.6 -7.35 -2.8 M-6.95 -0.4 L-6.95 -0.35 -7.3 -0.3 -7.3 -0.5 -7.25 -0.55 -7.2 -0.55 -7.15 -0.6 -6.95 -0.4 M-4.0 3.4 L-4.0 3.45 -4.4 3.5 -4.4 3.3 -4.35 3.25 -4.3 3.25 -4.25 3.2 Q-4.05 3.2 -4.0 3.4 M-2.15 3.2 L-2.1 3.15 -1.9 3.35 -1.9 3.4 -2.25 3.45 -2.25 3.25 -2.2 3.2 -2.15 3.2 M-7.1 2.0 L-7.1 1.8 -7.05 1.75 -7.0 1.75 -6.95 1.7 -6.75 1.9 -6.75 1.95 -7.1 2.0 M-5.9 3.2 L-5.7 3.4 -5.7 3.45 -6.05 3.5 -6.05 3.3 -6.0 3.25 -5.95 3.25 -5.9 3.2" fill="#3399cc" fill-rule="evenodd" stroke="none"/>
    <path d="M36.25 20.1 L40.45 23.15 39.65 23.25 Q39.0 27.8 37.7 31.8 L35.15 38.85 32.9 43.75 33.85 38.05 Q34.25 33.55 35.0 29.05 L36.25 20.1 M-38.45 22.55 Q-37.55 26.55 -36.8 31.15 -36.05 35.65 -35.65 40.15 L-34.7 45.85 -36.95 40.95 -39.45 33.9 Q-40.8 29.9 -41.4 25.35 L-41.35 25.3 -41.3 25.3 -38.45 22.55" fill="#000000" fill-rule="evenodd" stroke="none"/>
    <path d="M0.7 2.8 L1.2 2.45 1.65 1.55 Q1.2 1.15 1.25 0.5 L1.25 0.35 1.4 -0.25 Q2.05 -0.65 1.8 -1.2 L1.65 -1.8 1.75 -2.1 Q1.85 -2.5 2.3 -2.8 2.25 -2.4 2.35 -2.0 L2.45 -1.7 2.8 -1.15 3.0 -0.65 2.95 -0.5 2.7 -0.3 Q1.5 0.0 2.5 0.45 L3.85 1.55 3.95 1.35 4.2 0.4 4.25 -1.5 4.3 -1.8 4.25 -1.9 Q4.05 -2.6 4.1 -3.35 4.25 -4.45 3.2 -4.85 L1.5 -5.6 3.25 -5.6 3.55 -5.55 4.0 -5.45 4.35 -5.25 4.65 -5.0 Q5.25 -4.4 5.25 -3.6 L5.25 0.8 Q5.25 1.6 4.65 2.2 4.05 2.8 3.3 2.8 L0.7 2.8" fill="#00e3e3" fill-rule="evenodd" stroke="none"/>
    <path d="M1.5 -5.6 L3.2 -4.85 Q4.25 -4.45 4.1 -3.35 4.05 -2.6 4.25 -1.9 L4.3 -1.8 4.25 -1.5 4.2 0.4 3.95 1.35 3.85 1.55 2.5 0.45 Q1.5 0.0 2.7 -0.3 L2.95 -0.5 3.0 -0.65 2.8 -1.15 2.45 -1.7 2.35 -2.0 Q2.25 -2.4 2.3 -2.8 1.85 -2.5 1.75 -2.1 L1.65 -1.8 1.8 -1.2 Q2.05 -0.65 1.4 -0.25 L1.25 0.35 1.25 0.5 Q1.2 1.15 1.65 1.55 L1.2 2.45 0.7 2.8 0.25 2.8 0.35 2.65 -2.35 2.5 Q-5.3 2.6 -3.0 1.75 -0.7 0.85 -0.55 -0.15 -0.4 -1.15 0.4 -1.45 L0.75 -1.75 Q0.75 -2.0 0.1 -2.2 -0.45 -2.4 -0.6 -2.65 L-0.65 -3.05 -0.5 -3.2 0.2 -4.1 Q0.35 -4.4 -0.55 -4.6 L-2.5 -5.0 -2.75 -5.05 -3.35 -5.6 1.5 -5.6" fill="#ccffff" fill-rule="evenodd" stroke="none"/>
    <path d="M-5.9 -5.1 L-5.05 -5.55 -4.65 -5.6 -3.35 -5.6 -2.75 -5.05 -2.5 -5.0 -0.55 -4.6 Q0.35 -4.4 0.2 -4.1 L-0.5 -3.2 -0.65 -3.05 -0.6 -2.65 Q-0.45 -2.4 0.1 -2.2 0.75 -2.0 0.75 -1.75 L0.4 -1.45 Q-0.4 -1.15 -0.55 -0.15 -0.7 0.85 -3.0 1.75 -5.3 2.6 -2.35 2.5 L0.35 2.65 0.25 2.8 -4.65 2.8 -5.05 2.75 -5.75 2.45 -6.05 2.2 Q-6.65 1.6 -6.65 0.85 L-6.65 -1.35 -6.65 -3.5 -6.65 -3.6 Q-6.65 -4.4 -6.05 -5.0 L-5.9 -5.1" fill="#ffffff" fill-rule="evenodd" stroke="none"/>
    <path d="M1.3 -43.15 Q9.45 -49.05 15.25 -42.1 22.5 -33.35 25.2 -28.1 L28.5 -21.45 Q34.8 -19.85 39.95 -17.35 47.45 -13.75 46.2 0.15 44.95 14.05 43.25 18.25 41.7 21.9 40.4 23.1 L37.75 21.1 36.25 20.1 Q33.3 18.3 28.65 16.95 22.7 15.2 15.45 14.65 L0.25 14.0 -15.4 13.7 Q-19.9 13.6 -24.0 14.6 -18.75 11.65 -10.6 9.7 -2.15 7.6 6.95 7.95 L22.4 8.2 Q31.6 8.2 33.65 0.3 36.15 -9.1 31.0 -14.95 25.5 -21.15 17.8 -23.5 L17.55 -23.55 2.7 -24.55 -12.85 -23.75 -12.9 -24.0 -8.05 -24.8 Q0.75 -24.9 7.95 -27.9 17.1 -31.7 11.05 -38.7 6.8 -43.55 1.3 -43.15 M-17.75 -44.85 Q-15.15 -46.0 -12.3 -44.75 -5.65 -41.9 -3.15 -39.2 L-3.0 -39.25 Q-1.9 -35.8 -2.0 -31.15 -3.8 -36.2 -8.75 -40.55 -12.8 -44.15 -17.75 -44.85 M28.5 -21.45 L22.35 -22.8 17.8 -23.5 22.35 -22.8 28.5 -21.45" fill="#89dcfe" fill-rule="evenodd" stroke="none"/>
    <path d="M-24.0 14.6 L-24.35 14.7 Q-27.3 15.5 -30.05 16.85 -34.65 19.2 -38.35 22.45 L-38.45 22.55 -41.3 25.3 -41.45 25.15 Q-45.45 18.4 -46.05 8.0 -46.65 -1.55 -46.15 -9.35 -45.65 -17.15 -35.75 -19.65 L-33.35 -20.25 Q-30.55 -27.05 -24.75 -37.35 -21.4 -43.3 -17.75 -44.85 -12.8 -44.15 -8.75 -40.55 -3.8 -36.2 -2.0 -31.15 -1.9 -35.8 -3.0 -39.25 L-3.0 -39.35 Q-0.8 -41.65 1.3 -43.15 6.8 -43.55 11.05 -38.7 17.1 -31.7 7.95 -27.9 0.75 -24.9 -8.05 -24.8 L-12.9 -24.0 -12.85 -23.75 2.7 -24.55 17.55 -23.55 17.8 -23.5 Q25.5 -21.15 31.0 -14.95 36.15 -9.1 33.65 0.3 31.6 8.2 22.4 8.2 L6.95 7.95 Q-2.15 7.6 -10.6 9.7 -18.75 11.65 -24.0 14.6 M3.45 -6.35 L3.3 -6.6 2.55 -6.9 1.8 -6.6 1.5 -6.05 1.4 -5.85 1.4 -6.0 1.1 -6.6 0.35 -6.9 -0.4 -6.6 -0.8 -5.8 -1.1 -6.6 Q-1.4 -6.9 -1.85 -6.9 L-2.6 -6.6 -2.95 -5.8 -3.25 -6.6 -4.0 -6.9 -4.75 -6.6 -4.9 -6.35 Q-5.3 -7.1 -6.15 -6.85 -7.2 -6.5 -6.6 -5.6 L-6.75 -5.55 -7.4 -5.3 -7.7 -4.55 -7.65 -4.2 -7.4 -3.8 Q-7.1 -3.55 -6.65 -3.5 -7.0 -3.45 -7.3 -3.2 L-7.4 -3.15 -7.7 -2.5 -7.7 -2.4 -7.4 -1.65 Q-7.1 -1.4 -6.65 -1.35 L-7.4 -0.95 -7.6 -0.65 -7.7 -0.2 -7.55 0.3 -7.45 0.5 -7.4 0.55 Q-7.1 0.8 -6.65 0.85 L-7.4 1.25 -7.5 1.4 -7.7 2.0 -7.7 2.1 -7.05 2.8 -6.75 2.9 Q-6.7 4.0 -5.65 4.1 -5.05 4.15 -4.85 3.6 L-4.75 3.8 -4.0 4.1 Q-3.55 4.1 -3.25 3.8 L-2.95 3.0 -2.6 3.8 Q-2.3 4.1 -1.85 4.1 -1.4 4.1 -1.1 3.8 L-0.8 3.0 -0.4 3.8 Q-0.1 4.1 0.35 4.1 L1.05 3.85 1.1 3.8 1.4 3.05 1.8 3.8 1.95 3.95 2.55 4.1 2.65 4.1 Q3.05 4.05 3.3 3.8 L3.45 3.55 5.1 3.45 Q5.55 3.1 5.3 2.5 L5.65 2.6 6.15 2.45 6.45 1.8 6.45 1.7 6.3 1.1 6.15 0.95 5.65 0.65 5.4 0.55 5.6 0.5 6.15 0.25 6.2 0.2 6.35 0.0 6.45 -0.5 6.35 -0.95 6.15 -1.25 5.35 -1.65 Q5.85 -1.7 6.15 -1.95 L6.45 -2.7 6.45 -2.8 6.15 -3.45 6.05 -3.5 5.35 -3.8 Q5.85 -3.85 6.15 -4.1 L6.4 -4.5 6.45 -4.85 6.3 -5.45 6.15 -5.6 5.5 -5.85 5.4 -5.9 5.3 -5.9 4.65 -6.45 3.45 -6.35 M-33.35 -20.25 Q-24.7 -22.35 -16.4 -23.35 L-12.85 -23.75 -16.4 -23.35 Q-24.7 -22.35 -33.35 -20.25" fill="#ccf0ff" fill-rule="evenodd" stroke="none"/>
    <path d="M1.3 -43.15 Q9.45 -49.05 15.25 -42.1 22.5 -33.35 25.2 -28.1 L28.5 -21.45 Q34.8 -19.85 39.95 -17.35 47.45 -13.75 46.2 0.15 44.95 14.05 43.25 18.25 41.7 21.9 40.4 23.1 L37.75 21.1 M-24.0 14.6 L-24.35 14.7 M-38.35 22.45 L-38.45 22.55 M-41.35 25.3 L-41.45 25.15 Q-45.45 18.4 -46.05 8.0 -46.65 -1.55 -46.15 -9.35 -45.65 -17.15 -35.75 -19.65 L-33.35 -20.25 Q-30.55 -27.05 -24.75 -37.35 -21.4 -43.3 -17.75 -44.85 -15.15 -46.0 -12.3 -44.75 -5.65 -41.9 -3.15 -39.2 L-3.0 -39.35 Q-0.8 -41.65 1.3 -43.15 M-12.85 -23.75 L2.7 -24.55 17.55 -23.55 17.8 -23.5 22.35 -22.8 28.5 -21.45 M-6.6 -5.6 Q-7.2 -6.5 -6.15 -6.85 -5.3 -7.1 -4.9 -6.35 L-4.75 -6.6 -4.0 -6.9 -3.25 -6.6 -2.95 -5.8 -2.6 -6.6 -1.85 -6.9 Q-1.4 -6.9 -1.1 -6.6 L-0.8 -5.8 -0.4 -6.6 0.35 -6.9 1.1 -6.6 1.4 -6.0 1.4 -5.85 1.5 -6.05 1.8 -6.6 2.55 -6.9 3.3 -6.6 3.45 -6.35 M5.5 -5.85 L6.15 -5.6 6.3 -5.45 6.45 -4.85 6.4 -4.5 6.15 -4.1 Q5.85 -3.85 5.35 -3.8 L6.05 -3.5 6.15 -3.45 6.45 -2.8 6.45 -2.7 6.15 -1.95 Q5.85 -1.7 5.35 -1.65 L6.15 -1.25 6.35 -0.95 6.45 -0.5 6.35 0.0 6.2 0.2 6.15 0.25 5.6 0.5 5.4 0.55 5.65 0.65 6.15 0.95 6.3 1.1 6.45 1.7 6.45 1.8 6.15 2.45 5.65 2.6 5.3 2.5 M3.45 3.55 L3.3 3.8 Q3.05 4.05 2.65 4.1 L2.55 4.1 1.95 3.95 1.8 3.8 1.4 3.05 1.1 3.8 1.05 3.85 0.35 4.1 Q-0.1 4.1 -0.4 3.8 L-0.8 3.0 -1.1 3.8 Q-1.4 4.1 -1.85 4.1 -2.3 4.1 -2.6 3.8 L-2.95 3.0 -3.25 3.8 Q-3.55 4.1 -4.0 4.1 L-4.75 3.8 -4.85 3.6 Q-5.05 4.15 -5.65 4.1 -6.7 4.0 -6.75 2.9 M-5.9 -5.1 L-5.05 -5.55 M3.55 -5.55 L3.25 -5.6 M0.25 2.8 L0.7 2.8 M4.35 -5.25 L5.3 -5.9 M3.55 -5.55 L3.45 -6.35 M3.3 2.8 L3.45 3.55 M-3.0 -39.35 L-3.0 -39.25 M-12.85 -23.75 L-16.4 -23.35 Q-24.7 -22.35 -33.35 -20.25 M-5.9 -5.1 L-6.05 -5.0 Q-6.65 -4.4 -6.65 -3.6 L-6.65 -3.5 -6.65 -1.35 -6.65 0.85 Q-6.65 1.6 -6.05 2.2 L-5.75 2.45 M-5.05 2.75 L-4.65 2.8 M-3.35 -5.6 L-4.65 -5.6 -5.05 -5.55" fill="none" stroke="#000000" stroke-linecap="round" stroke-linejoin="round" stroke-width="0.5"/>
    <path d="M37.75 21.1 L36.25 20.1 Q33.3 18.3 28.65 16.95 22.7 15.2 15.45 14.65 L0.25 14.0 -15.4 13.7 Q-19.9 13.6 -24.0 14.6 M-24.35 14.7 Q-27.3 15.5 -30.05 16.85 -34.65 19.2 -38.35 22.45 M3.45 -6.35 L4.65 -6.45 5.3 -5.9 5.4 -5.9 5.5 -5.85 M5.3 2.5 Q5.55 3.1 5.1 3.45 L3.45 3.55 M-6.75 2.9 L-7.05 2.8 -7.7 2.1 -7.7 2.0 -7.5 1.4 -7.4 1.25 -6.65 0.85 Q-7.1 0.8 -7.4 0.55 L-7.45 0.5 -7.55 0.3 -7.7 -0.2 -7.6 -0.65 -7.4 -0.95 -6.65 -1.35 Q-7.1 -1.4 -7.4 -1.65 L-7.7 -2.4 -7.7 -2.5 -7.4 -3.15 -7.3 -3.2 Q-7.0 -3.45 -6.65 -3.5 -7.1 -3.55 -7.4 -3.8 L-7.65 -4.2 -7.7 -4.55 -7.4 -5.3 -6.75 -5.55 -6.6 -5.6 -5.9 -5.1 M-5.05 -5.55 L-4.9 -6.35 M0.7 2.8 L3.3 2.8 Q4.05 2.8 4.65 2.2 5.25 1.6 5.25 0.8 L5.25 -3.6 Q5.25 -4.4 4.65 -5.0 L4.35 -5.25 4.0 -5.45 3.55 -5.55 M3.25 -5.6 L1.5 -5.6 -3.35 -5.6 M-5.75 2.45 L-5.05 2.75 M-4.65 2.8 L0.25 2.8 M-4.85 3.6 L-5.05 2.75 M-5.75 2.45 Q-6.25 2.95 -6.75 2.9 M-41.35 25.3 L-41.3 25.3 -38.45 22.55" fill="none" stroke="#000000" stroke-linecap="round" stroke-linejoin="round" stroke-width="0.5"/>
  </g>
</svg>
