<?xml version="1.0" encoding="UTF-8" standalone="no"?>
<svg xmlns:xlink="http://www.w3.org/1999/xlink" height="11.45px" width="26.25px" xmlns="http://www.w3.org/2000/svg">
  <g transform="matrix(1.0, 0.0, 0.0, 1.0, 13.15, 5.45)">
    <path d="M2.35 -3.85 Q5.7 -3.6 8.15 -2.3 10.3 -1.15 12.9 1.15 L13.1 2.8 Q10.15 0.55 6.2 -0.05 L-1.5 0.15 Q-3.5 0.55 -5.8 1.55 -9.3 3.1 -13.15 6.0 L-12.7 3.2 Q-6.7 -2.15 -3.85 -3.1 -1.05 -4.1 2.35 -3.85" fill="#000000" fill-rule="evenodd" stroke="none"/>
    <path d="M-11.1 -0.75 Q-7.35 -3.5 -4.45 -4.4 -1.6 -5.35 1.05 -5.2 3.65 -5.1 6.9 -3.85 9.25 -2.95 10.75 -1.45" fill="none" stroke="#000000" stroke-linecap="round" stroke-linejoin="round" stroke-width="0.5"/>
  </g>
</svg>
