<?xml version="1.0" encoding="UTF-8" standalone="no"?>
<svg xmlns:xlink="http://www.w3.org/1999/xlink" height="9.75px" width="20.75px" xmlns="http://www.w3.org/2000/svg">
  <g transform="matrix(1.0, 0.0, 0.0, 1.0, 10.35, 4.9)">
    <path d="M10.2 -4.25 L10.4 -3.55 Q9.2 -1.05 7.95 0.5 6.55 2.2 4.15 3.45 1.75 4.65 -0.65 4.85 -3.05 5.0 -9.15 2.95 L-10.35 1.0 -3.5 2.0 0.1 1.7 Q3.15 1.05 5.85 -0.55 8.25 -2.05 9.7 -4.25 L10.05 -4.8 10.2 -4.25" fill="#000000" fill-rule="evenodd" stroke="none"/>
    <path d="M-8.8 -0.35 Q-5.3 0.95 -2.9 1.0 -0.5 1.1 1.55 0.4 3.5 -0.3 5.75 -1.95 7.1 -3.0 7.95 -4.25 L8.2 -4.65" fill="none" stroke="#000000" stroke-linecap="round" stroke-linejoin="round" stroke-width="0.5"/>
  </g>
</svg>
