<?xml version="1.0" encoding="UTF-8" standalone="no"?>
<svg xmlns:xlink="http://www.w3.org/1999/xlink" height="122.8px" width="142.8px" xmlns="http://www.w3.org/2000/svg">
  <g transform="matrix(1.0, 0.0, 0.0, 1.0, 0.5, 0.5)">
    <path d="M99.55 22.45 L70.9 23.4 Q41.5 23.4 20.75 20.0 7.25 17.75 2.55 14.9 L0.15 12.45 0.0 11.7 Q0.0 7.1 18.8 3.75 L20.75 3.4 20.8 3.7 Q114.8 2.65 105.25 22.0 L99.55 22.45" fill="#ffffff" fill-rule="evenodd" stroke="none"/>
    <path d="M90.45 114.5 L96.25 108.55 Q108.1 95.55 108.1 82.1 108.1 69.35 101.55 57.15 97.85 50.35 97.0 48.2 94.95 43.1 94.95 37.8 94.95 33.15 96.15 29.3 L98.6 29.15 Q111.45 28.35 124.15 25.95 111.45 28.35 98.6 29.15 L96.15 29.3 97.15 26.65 99.55 22.45 105.25 22.0 121.05 20.0 Q133.95 17.85 138.85 15.15 132.7 20.25 128.1 25.2 L124.15 25.95 123.4 34.6 Q122.25 49.9 128.05 64.0 133.3 76.7 129.45 89.55 124.95 104.5 110.65 111.35 L110.6 111.35 Q100.55 113.45 90.45 114.5 100.55 113.45 110.6 111.35 112.3 114.5 110.6 117.6 97.45 120.3 84.25 121.3 L87.15 117.95 90.45 114.5" fill="#71fdfc" fill-rule="evenodd" stroke="none"/>
    <path d="M96.15 29.3 Q94.95 33.15 94.95 37.8 94.95 43.1 97.0 48.2 97.85 50.35 101.55 57.15 108.1 69.35 108.1 82.1 108.1 95.55 96.25 108.55 L90.45 114.5 87.15 117.95 84.25 121.3 Q57.05 123.25 29.85 117.6 27.8 116.05 29.85 111.35 60.15 117.6 90.45 114.5 60.15 117.6 29.85 111.35 15.7 104.45 11.5 89.75 7.3 74.95 13.2 60.0 18.55 46.45 16.55 31.85 L15.55 25.55 12.65 24.95 Q8.35 19.95 2.55 14.9 7.25 17.75 20.75 20.0 41.5 23.4 70.9 23.4 L99.55 22.45 97.15 26.65 96.15 29.3 70.9 30.1 40.65 28.9 Q27.9 27.9 15.55 25.55 27.9 27.9 40.65 28.9 L70.9 30.1 96.15 29.3" fill="#b4fefd" fill-rule="evenodd" stroke="none"/>
    <path d="M105.25 22.0 Q114.8 2.65 20.8 3.7 L20.75 3.4 Q41.5 -0.05 70.9 0.0 100.3 -0.05 121.05 3.4 141.8 6.85 141.8 11.7 L141.8 12.05 141.5 12.9 138.85 15.15 Q133.95 17.85 121.05 20.0 L105.25 22.0" fill="#e6e6e6" fill-rule="evenodd" stroke="none"/>
    <path d="M90.45 114.5 Q100.55 113.45 110.6 111.35 L110.65 111.35 M124.15 25.95 Q111.45 28.35 98.6 29.15 L96.15 29.3 M99.55 22.45 L70.9 23.4 Q41.5 23.4 20.75 20.0 7.25 17.75 2.55 14.9 8.35 19.95 12.65 24.95 L15.55 25.55 Q27.9 27.9 40.65 28.9 L70.9 30.1 96.15 29.3 M99.55 22.45 L105.25 22.0 M20.75 3.4 L18.8 3.75 Q0.0 7.1 0.0 11.7 L0.15 12.45 2.55 14.9 Q0.6 13.75 0.15 12.45 M138.85 15.15 L141.5 12.9 141.8 12.05 141.8 11.7 Q141.8 6.85 121.05 3.4 100.3 -0.05 70.9 0.0 41.5 -0.05 20.75 3.4 M138.85 15.15 Q140.8 14.05 141.5 12.9 M124.15 25.95 L128.1 25.2 Q132.7 20.25 138.85 15.15 133.95 17.85 121.05 20.0 L105.25 22.0 M84.25 121.3 Q97.45 120.3 110.6 117.6 M29.85 117.6 Q57.05 123.25 84.25 121.3 M90.45 114.5 Q60.15 117.6 29.85 111.35" fill="none" stroke="#000000" stroke-linecap="round" stroke-linejoin="round" stroke-width="1.0"/>
    <path d="M110.65 111.35 Q124.95 104.5 129.45 89.55 133.3 76.7 128.05 64.0 122.25 49.9 123.4 34.6 L124.15 25.95 M110.6 117.6 Q112.3 114.5 110.6 111.35 M29.85 111.35 Q15.7 104.45 11.5 89.75 7.3 74.95 13.2 60.0 18.55 46.45 16.55 31.85 L15.55 25.55 M29.85 111.35 Q27.8 116.05 29.85 117.6" fill="none" stroke="#000000" stroke-linecap="round" stroke-linejoin="round" stroke-width="1.0"/>
  </g>
</svg>
