<?xml version="1.0" encoding="UTF-8" standalone="no"?>
<svg xmlns:xlink="http://www.w3.org/1999/xlink" height="13.6px" width="12.4px" xmlns="http://www.w3.org/2000/svg">
  <g transform="matrix(1.0, 0.0, 0.0, 1.0, 6.2, 6.8)">
    <path d="M5.35 1.05 L5.25 0.8 4.5 -0.65 4.2 -1.1 Q3.75 -1.8 2.9 -2.2 L1.25 -2.5 Q0.35 -2.5 0.7 -1.25 4.5 0.4 4.95 1.25 L5.15 1.5 Q6.0 2.7 5.0 3.95 L5.0 3.6 Q5.1 2.7 4.6 2.0 4.0 1.2 3.05 0.9 L1.25 0.85 Q0.45 1.05 0.55 1.9 4.3 2.95 4.95 3.95 L5.0 4.05 5.1 4.5 5.15 5.0 4.35 4.45 Q3.7 3.85 2.6 3.85 L1.05 3.95 -0.7 4.4 -1.9 4.65 -3.75 4.7 Q-4.7 4.55 -5.75 3.8 L-5.9 2.75 -5.95 1.0 -5.9 -0.6 -5.7 -2.15 -5.55 -2.35 Q-0.65 -8.5 3.25 -5.6 6.9 -2.9 5.65 -1.4 L5.5 -1.75 4.4 -3.25 3.0 -4.55 Q2.25 -5.2 1.15 -4.95 0.2 -4.75 0.65 -3.7 4.3 -3.1 5.3 -1.1 6.2 0.35 5.35 1.05" fill="#ffa675" fill-rule="evenodd" stroke="none"/>
    <path d="M0.7 -1.25 Q0.35 -2.5 1.25 -2.5 L2.9 -2.2 Q3.75 -1.8 4.2 -1.1 L4.5 -0.65 5.25 0.8 5.35 1.05 4.95 1.25 Q4.5 0.4 0.7 -1.25 M5.3 -1.1 Q4.3 -3.1 0.65 -3.7 0.2 -4.75 1.15 -4.95 2.25 -5.2 3.0 -4.55 L4.4 -3.25 5.5 -1.75 5.65 -1.4 5.3 -1.1 M-5.75 3.8 Q-4.7 4.55 -3.75 4.7 L-1.9 4.65 -0.7 4.4 1.05 3.95 2.6 3.85 Q3.7 3.85 4.35 4.45 L5.15 5.0 5.15 5.1 4.85 6.0 Q5.15 6.3 4.4 6.0 L2.7 5.1 1.05 5.0 -0.45 6.05 Q-1.25 6.65 -2.15 6.55 L-3.95 6.1 -5.0 5.5 -5.35 5.2 -5.65 4.65 -5.75 3.8 M4.95 3.95 Q4.3 2.95 0.55 1.9 0.45 1.05 1.25 0.85 L3.05 0.9 Q4.0 1.2 4.6 2.0 5.1 2.7 5.0 3.6 L5.0 3.95 4.95 3.95" fill="#ffbe9b" fill-rule="evenodd" stroke="none"/>
    <path d="M5.35 1.05 Q6.2 0.35 5.3 -1.1 4.3 -3.1 0.65 -3.7 M5.65 -1.4 Q6.9 -2.9 3.25 -5.6 -0.65 -8.5 -5.55 -2.35 L-5.7 -2.15 -5.9 -0.6 -5.95 1.0 -5.9 2.75 -5.75 3.8 -5.65 4.65 -5.35 5.2 -5.0 5.5 -3.95 6.1 -2.15 6.55 Q-1.25 6.65 -0.45 6.05 L1.05 5.0 2.7 5.1 4.4 6.0 Q5.15 6.3 4.85 6.0 L5.15 5.1 5.15 5.0 5.1 4.5 5.0 4.05 4.95 3.95 Q4.3 2.95 0.55 1.9 M5.0 3.95 Q6.0 2.7 5.15 1.5 L4.95 1.25 Q4.5 0.4 0.7 -1.25 M5.65 -1.4 L5.3 -1.1 M5.35 1.05 L5.15 1.5 M5.35 1.05 L4.95 1.25 M5.0 3.95 L5.0 4.05 M5.0 3.95 L4.95 3.95" fill="none" stroke="#000000" stroke-linecap="round" stroke-linejoin="round" stroke-width="0.5"/>
  </g>
</svg>
