<?xml version="1.0" encoding="UTF-8" standalone="no"?>
<svg xmlns:xlink="http://www.w3.org/1999/xlink" height="89.4px" width="157.55px" xmlns="http://www.w3.org/2000/svg">
  <g transform="matrix(1.0, 0.0, 0.0, 1.0, 73.1, 8.5)">
    <path d="M-22.4 5.85 L-18.85 1.95 Q-16.95 0.1 -14.85 -1.4 -11.95 -3.5 -8.75 -4.9 -7.0 -5.7 -5.15 -6.3 -0.2 -7.9 5.45 -8.0 L5.7 -8.0 5.95 -8.0 Q20.1 -7.7 30.25 1.95 L33.85 5.85 33.95 6.0 34.3 6.4 34.7 6.95 37.25 11.1 37.8 12.25 37.95 12.65 38.1 12.95 38.15 13.0 37.3 13.55 34.7 15.15 Q31.85 16.85 28.6 18.1 L26.95 18.7 Q23.4 19.9 19.35 20.65 13.2 21.8 5.95 21.95 L5.7 21.95 5.45 21.95 Q-7.75 21.7 -17.15 18.1 -20.45 16.85 -23.25 15.15 L-26.7 13.0 -26.55 12.65 Q-24.95 9.05 -22.4 5.85 M21.0 5.45 Q23.9 10.5 25.05 15.85 L32.75 13.05 Q30.3 7.8 25.9 3.6 L21.0 5.45 M19.55 3.1 L23.65 1.65 Q19.15 -2.0 13.05 -4.75 16.85 -0.9 19.55 3.1" fill="url(#gradient0)" fill-rule="evenodd" stroke="none"/>
    <path d="M49.6 2.25 L54.65 -1.6 Q58.0 -3.95 61.0 -5.35 L62.8 -6.1 Q72.65 -9.9 78.35 -2.7 81.4 1.1 83.3 8.05 88.55 37.05 52.4 68.65 L51.95 69.05 51.4 69.5 50.7 70.1 Q45.8 74.05 40.4 76.05 32.05 78.4 22.75 79.5 L5.95 80.4 5.45 80.4 Q-12.45 80.45 -27.35 76.5 -33.5 74.2 -36.45 72.1 L-39.5 69.95 Q-77.3 37.6 -71.9 8.05 -69.5 -0.8 -65.15 -4.6 L-63.4 -5.9 -62.9 -6.15 Q-53.95 -10.9 -38.2 2.25 L-38.15 2.3 -36.4 4.85 -36.15 5.15 -35.95 5.4 Q-33.75 7.9 -30.15 10.6 L-28.75 11.6 -28.15 12.05 -26.75 12.95 -26.7 13.0 -23.25 15.15 Q-20.45 16.85 -17.15 18.1 -7.75 21.7 5.45 21.95 L5.7 21.95 5.95 21.95 Q13.2 21.8 19.35 20.65 23.4 19.9 26.95 18.7 L28.6 18.1 Q31.85 16.85 34.7 15.15 L37.3 13.55 38.15 13.0 38.2 12.95 39.3 12.25 Q44.6 8.65 47.45 5.3 L49.6 2.3 49.6 2.25 M65.0 -6.1 L67.65 -5.5 Q70.65 -4.4 73.0 -1.45 76.05 2.35 77.95 9.35 82.45 34.15 56.55 60.9 84.4 33.9 79.95 9.35 78.05 2.4 75.0 -1.4 71.7 -5.5 67.1 -6.0 L65.0 -6.1 M49.65 6.45 L47.45 9.4 Q44.6 12.7 39.3 16.35 L38.2 17.05 34.7 19.25 Q31.85 20.9 28.6 22.2 19.15 25.75 5.95 26.0 L5.7 26.0 5.45 26.0 Q-7.75 25.75 -17.15 22.2 -20.45 20.9 -23.25 19.25 L-24.3 18.6 -26.7 17.1 -31.7 13.5 -32.85 12.55 -33.75 11.75 -37.05 8.15 -36.4 9.6 -36.35 9.7 -34.9 12.3 Q-31.95 16.95 -26.7 20.4 L-23.25 22.55 Q-20.45 24.2 -17.15 25.5 -7.75 29.05 5.45 29.3 L5.7 29.3 5.95 29.3 Q19.15 29.05 28.6 25.5 31.85 24.2 34.7 22.55 L38.2 20.35 39.3 19.65 Q44.6 16.0 47.7 10.15 L49.65 6.45 M45.1 64.05 L49.35 64.6 Q54.25 60.3 58.0 54.05 52.1 59.55 45.1 64.05 M47.0 66.5 L41.1 66.5 Q34.0 70.65 25.8 73.9 38.1 73.1 47.0 66.5" fill="url(#gradient1)" fill-rule="evenodd" stroke="none"/>
    <path d="M65.0 -6.1 L67.1 -6.0 Q71.7 -5.5 75.0 -1.4 78.05 2.4 79.95 9.35 84.4 33.9 56.55 60.9 82.45 34.15 77.95 9.35 76.05 2.35 73.0 -1.45 70.65 -4.4 67.65 -5.5 L65.0 -6.1 M49.65 6.45 L47.7 10.15 Q44.6 16.0 39.3 19.65 L38.2 20.35 34.7 22.55 Q31.85 24.2 28.6 25.5 19.15 29.05 5.95 29.3 L5.7 29.3 5.45 29.3 Q-7.75 29.05 -17.15 25.5 -20.45 24.2 -23.25 22.55 L-26.7 20.4 Q-31.95 16.95 -34.9 12.3 L-36.35 9.7 -36.4 9.6 -37.05 8.15 -33.75 11.75 -32.85 12.55 -31.7 13.5 -26.7 17.1 -24.3 18.6 -23.25 19.25 Q-20.45 20.9 -17.15 22.2 -7.75 25.75 5.45 26.0 L5.7 26.0 5.95 26.0 Q19.15 25.75 28.6 22.2 31.85 20.9 34.7 19.25 L38.2 17.05 39.3 16.35 Q44.6 12.7 47.45 9.4 L49.65 6.45 M21.0 5.45 L25.9 3.6 Q30.3 7.8 32.75 13.05 L25.05 15.85 Q23.9 10.5 21.0 5.45 M19.55 3.1 Q16.85 -0.9 13.05 -4.75 19.15 -2.0 23.65 1.65 L19.55 3.1 M45.1 64.05 Q52.1 59.55 58.0 54.05 54.25 60.3 49.35 64.6 L45.1 64.05 M47.0 66.5 Q38.1 73.1 25.8 73.9 34.0 70.65 41.1 66.5 L47.0 66.5" fill="#ffffcc" fill-rule="evenodd" stroke="none"/>
    <path d="M-38.15 2.25 Q-32.15 3.9 -26.1 5.1 L-24.35 5.45 -23.5 5.65 -22.4 5.85 Q-24.95 9.05 -26.55 12.65 L-26.75 12.95 -28.15 12.05 -28.75 11.6 -30.15 10.6 Q-33.75 7.9 -35.95 5.4 L-36.15 5.15 -36.4 4.85 -38.15 2.3 -38.15 2.25 M33.85 5.85 L35.1 5.6 40.55 4.5 44.15 3.65 47.0 2.95 48.8 2.5 49.6 2.25 49.6 2.3 47.45 5.3 Q44.6 8.65 39.3 12.25 L38.2 12.95 37.95 12.65 37.8 12.25 37.25 11.1 34.7 6.95 34.3 6.4 33.95 6.0 33.85 5.85" fill="url(#gradient2)" fill-rule="evenodd" stroke="none"/>
    <path d="M38.15 13.0 L37.3 13.55 38.15 13.0" fill="url(#gradient3)" fill-rule="evenodd" stroke="none"/>
    <path d="M49.6 2.25 L54.65 -1.6 Q58.0 -3.95 61.0 -5.35 L62.8 -6.1 Q72.65 -9.9 78.35 -2.7 81.4 1.1 83.3 8.05 88.55 37.05 52.4 68.65 L51.95 69.05 51.4 69.5 50.7 70.1 Q45.8 74.05 40.4 76.05 32.05 78.4 22.75 79.5 L5.95 80.4 5.45 80.4 Q-12.45 80.45 -27.35 76.5 -33.5 74.2 -36.45 72.1 L-39.5 69.95 Q-77.3 37.6 -71.9 8.05 -69.5 -0.8 -65.15 -4.6 L-63.4 -5.9 -62.9 -6.15 Q-53.95 -10.9 -38.2 2.25 L-38.15 2.25 Q-32.15 3.9 -26.1 5.1 L-24.35 5.45 -23.5 5.65 -22.4 5.85 -18.85 1.95 Q-16.95 0.1 -14.85 -1.4 -11.95 -3.5 -8.75 -4.9 -7.0 -5.7 -5.15 -6.3 -0.2 -7.9 5.45 -8.0 L5.7 -8.0 5.95 -8.0 Q20.1 -7.7 30.25 1.95 L33.85 5.85 35.1 5.6 40.55 4.5 44.15 3.65 47.0 2.95 48.8 2.5 49.6 2.25 49.6 2.3 47.45 5.3 Q44.6 8.65 39.3 12.25 L38.2 12.95 38.15 13.0 38.1 12.95 37.95 12.65 M37.3 13.55 L34.7 15.15 Q31.85 16.85 28.6 18.1 L26.95 18.7 Q23.4 19.9 19.35 20.65 13.2 21.8 5.95 21.95 L5.7 21.95 5.45 21.95 Q-7.75 21.7 -17.15 18.1 -20.45 16.85 -23.25 15.15 L-26.7 13.0 -26.75 12.95 -28.15 12.05 -28.75 11.6 -30.15 10.6 Q-33.75 7.9 -35.95 5.4 L-36.15 5.15 M-36.4 4.85 L-38.15 2.3 -38.2 2.25 M33.85 5.85 L33.95 6.0 34.3 6.4 34.7 6.95 37.25 11.1 37.8 12.25 37.95 12.65 M37.3 13.55 L38.15 13.0 M-26.7 13.0 L-26.55 12.65 Q-24.95 9.05 -22.4 5.85" fill="none" stroke="#000000" stroke-linecap="round" stroke-linejoin="round" stroke-width="1.0"/>
  </g>
  <defs>
    <radialGradient cx="0" cy="0" gradientTransform="matrix(0.0855, 0.0, 0.0, 0.0855, -7.55, -24.5)" gradientUnits="userSpaceOnUse" id="gradient0" r="819.2" spreadMethod="pad">
      <stop offset="0.0" stop-color="#ffffff"/>
      <stop offset="0.6901960784313725" stop-color="#f4ab02"/>
      <stop offset="1.0" stop-color="#d58b04"/>
    </radialGradient>
    <linearGradient gradientTransform="matrix(0.1885, 0.0, 0.0, 0.0627, -1.3, 9.35)" gradientUnits="userSpaceOnUse" id="gradient1" spreadMethod="pad" x1="-819.2" x2="819.2">
      <stop offset="0.0" stop-color="#fcefbe"/>
      <stop offset="0.6901960784313725" stop-color="#fdb91c"/>
      <stop offset="1.0" stop-color="#8d5603"/>
    </linearGradient>
    <linearGradient gradientTransform="matrix(0.1885, 0.0, 0.0, 0.0627, 2.3, -3.85)" gradientUnits="userSpaceOnUse" id="gradient2" spreadMethod="pad" x1="-819.2" x2="819.2">
      <stop offset="0.0" stop-color="#e8cb09"/>
      <stop offset="0.6901960784313725" stop-color="#eca500"/>
      <stop offset="1.0" stop-color="#d58b04"/>
    </linearGradient>
    <radialGradient cx="0" cy="0" gradientTransform="matrix(0.0855, 0.0, 0.0, 0.0855, -7.55, -24.5)" gradientUnits="userSpaceOnUse" id="gradient3" r="819.2" spreadMethod="pad">
      <stop offset="0.0" stop-color="#e8cb09"/>
      <stop offset="0.6901960784313725" stop-color="#eca500"/>
      <stop offset="1.0" stop-color="#d58b04"/>
    </radialGradient>
  </defs>
</svg>
