<?xml version="1.0" encoding="UTF-8" standalone="no"?>
<svg xmlns:xlink="http://www.w3.org/1999/xlink" height="235.9px" width="180.6px" xmlns="http://www.w3.org/2000/svg">
  <g transform="matrix(1.0, 0.0, 0.0, 1.0, 0.5, 0.5)">
    <path d="M179.6 119.75 L179.6 234.9 89.8 234.9 0.0 234.9 0.0 119.75 0.0 0.0 89.8 0.0 179.6 0.0 179.6 119.75 124.75 119.75 179.6 119.75 M124.25 119.75 Q121.25 122.65 120.05 127.15 119.1 128.2 119.55 128.7 119.7 129.75 120.65 129.95 121.35 130.1 121.35 129.5 121.45 127.85 124.25 125.5 L124.5 125.5 124.6 125.85 124.5 127.75 124.15 127.5 Q123.8 127.3 124.0 128.0 124.15 128.7 124.5 128.7 124.25 129.5 124.15 131.15 L124.25 134.45 124.15 137.25 Q123.9 137.45 124.4 137.8 L124.95 137.7 125.55 135.5 125.55 131.6 Q125.65 129.85 125.9 129.15 127.2 129.5 129.55 127.5 L131.5 125.4 Q132.45 123.75 131.15 122.95 129.2 122.25 127.4 122.45 L126.85 122.6 126.25 122.7 126.5 122.35 126.35 122.1 126.35 121.9 125.1 120.7 124.75 120.7 Q124.6 120.85 124.75 121.05 L124.75 123.4 Q123.55 123.9 121.55 125.5 122.05 121.95 124.75 119.75 126.0 118.7 127.75 118.0 L129.75 117.65 130.35 117.55 130.7 117.3 130.35 116.95 128.7 116.5 Q127.75 116.25 127.65 116.95 127.65 117.3 125.1 117.9 122.55 118.7 120.0 119.75 117.55 120.75 115.1 122.0 L113.85 122.25 Q113.6 122.1 113.5 122.25 113.35 122.45 113.6 122.6 114.2 123.55 115.45 123.2 L116.9 122.95 Q118.85 122.7 122.75 120.25 L123.55 119.75 124.25 119.75 123.55 119.75 124.5 119.3 125.1 118.95 124.25 119.75 M91.3 119.75 L120.0 119.75 91.3 119.75 92.1 116.75 Q92.6 115.2 90.95 114.6 90.35 114.5 90.35 114.75 L90.35 116.05 Q89.75 117.1 89.9 118.25 L89.8 118.75 89.8 87.3 89.8 118.75 89.6 119.75 85.25 119.75 89.6 119.75 Q89.0 122.2 88.25 123.75 87.9 124.7 88.7 125.3 L89.8 125.2 89.8 128.15 89.8 125.2 90.35 124.95 91.2 124.45 91.05 125.05 90.7 128.1 89.8 128.15 Q88.75 128.35 88.0 129.25 86.85 130.45 87.3 131.6 87.95 132.9 89.8 132.05 L91.3 131.15 Q93.05 132.1 94.45 134.3 94.6 134.8 95.75 134.9 97.15 134.9 97.25 134.55 L96.8 132.65 Q94.95 130.9 91.9 129.05 L92.0 128.0 92.35 126.2 Q92.45 125.4 91.65 124.45 92.35 124.35 93.05 123.55 L93.9 122.8 94.25 122.6 94.35 122.35 94.1 122.1 Q92.7 122.25 91.55 122.8 90.25 123.7 89.8 123.65 L89.8 123.55 89.8 123.65 89.75 123.65 89.8 123.55 Q90.55 122.2 91.3 119.75 M89.8 234.9 L89.8 132.05 89.8 234.9 M126.35 30.7 L126.6 30.7 Q127.2 32.8 127.9 34.1 124.95 35.5 121.1 38.35 L121.0 35.4 121.0 33.2 126.35 30.7 M130.95 34.25 Q131.3 35.15 130.25 36.8 129.65 35.75 129.2 34.25 130.35 33.55 130.95 34.25 M129.4 24.4 Q128.5 23.0 127.4 22.75 126.15 23.0 125.8 24.95 125.9 28.0 126.25 29.05 126.25 29.65 126.0 29.55 L120.85 31.75 Q120.65 30.5 119.7 29.55 118.75 29.8 119.35 31.65 119.45 32.35 119.2 32.45 116.5 33.55 115.95 33.3 114.4 32.6 116.9 29.3 118.5 27.45 120.05 26.6 121.45 26.05 121.9 24.4 121.45 23.45 120.75 23.7 L118.15 26.95 117.7 27.55 Q115.35 29.9 114.9 32.1 114.4 33.9 115.8 34.25 117.6 34.35 119.1 33.65 119.35 33.55 119.55 33.9 L119.55 36.1 119.7 39.25 119.1 39.6 118.05 40.1 Q115.7 41.4 115.35 42.8 115.1 45.15 118.05 46.9 L119.8 46.75 Q121.2 45.25 121.1 39.5 124.6 36.7 128.15 34.8 L128.5 36.0 129.4 38.2 Q125.3 44.3 124.25 43.5 123.55 43.95 123.65 44.3 124.5 45.35 126.0 43.95 L128.7 40.8 Q129.3 39.75 129.9 39.4 L132.35 45.5 132.95 46.55 Q133.85 47.35 134.55 46.55 134.2 45.0 133.85 45.0 133.4 45.0 130.6 38.1 132.25 35.85 132.45 34.35 132.35 33.2 130.8 33.2 129.75 33.3 129.05 33.75 128.25 32.0 127.75 30.15 127.65 29.9 128.0 29.65 L129.9 28.7 Q132.25 27.2 130.7 25.8 130.0 25.55 129.4 24.4 M133.5 23.1 Q132.8 23.2 133.05 23.45 L133.05 24.15 133.15 25.55 Q133.4 26.05 134.7 25.55 135.5 24.25 133.5 23.1 M127.3 24.25 Q127.55 23.55 128.35 24.25 130.0 26.75 129.9 27.45 L127.9 28.85 Q127.4 29.05 127.4 28.7 L127.4 28.6 Q126.5 25.2 127.3 24.25 M89.8 0.0 L89.8 24.65 89.8 0.0 M89.8 27.3 L90.7 26.4 Q91.55 26.15 91.05 25.2 90.5 24.75 89.8 24.65 88.95 24.5 87.9 24.95 L86.4 25.45 84.25 26.25 83.0 26.75 82.4 26.95 Q81.7 27.45 82.4 27.9 83.7 28.7 86.75 27.55 87.1 27.55 86.95 27.8 85.8 29.2 83.8 33.9 82.85 36.1 85.1 38.1 86.15 38.55 86.0 41.95 86.0 42.65 85.45 42.45 L83.8 41.95 83.45 42.1 83.7 42.3 Q85.45 43.7 86.15 45.15 86.0 45.5 87.3 45.5 88.5 45.5 88.15 42.65 88.25 38.9 86.95 37.85 85.65 36.95 85.2 36.2 84.6 35.4 85.1 34.1 87.85 29.45 89.8 27.3 L89.8 74.6 89.8 27.3 M91.55 36.1 L91.2 36.35 91.3 36.7 92.1 38.45 Q92.7 39.95 91.65 41.05 91.2 41.6 91.75 41.25 L92.8 40.7 94.8 40.8 Q95.3 39.95 95.05 39.05 93.65 36.1 91.55 36.1 M89.8 75.7 L91.05 75.7 92.1 75.85 Q94.6 75.85 96.0 75.0 97.4 73.6 96.45 72.2 L96.0 70.9 95.65 70.3 Q95.5 70.3 95.4 71.15 94.95 74.2 91.3 74.45 L89.8 74.6 87.9 74.55 Q87.3 74.45 87.2 73.95 L87.1 72.8 87.2 71.75 Q87.55 69.6 85.55 69.5 85.1 69.6 85.3 69.25 L85.65 68.0 85.9 67.05 86.15 66.95 86.95 68.45 Q87.8 70.1 88.7 69.05 89.55 68.2 89.4 66.2 L89.4 62.8 89.4 59.55 89.4 56.15 Q89.4 52.5 86.95 53.2 85.45 53.9 83.8 55.8 83.45 56.15 83.55 55.8 L83.45 54.95 83.55 54.5 Q83.7 54.05 83.35 53.8 83.0 53.7 82.85 54.05 80.65 59.55 80.75 63.9 80.75 66.7 82.15 66.2 83.0 66.1 82.85 65.15 L82.75 64.95 Q82.65 63.65 82.85 62.45 L83.0 61.55 83.35 59.05 Q83.45 57.9 84.25 56.75 85.2 55.45 87.2 54.4 87.55 54.15 87.8 54.6 88.35 59.05 87.9 66.95 87.55 68.2 87.2 67.75 L86.15 66.55 86.0 66.2 86.15 66.0 86.4 63.2 86.5 62.35 Q86.5 60.5 85.45 60.6 84.6 60.6 84.85 62.0 85.2 64.45 84.5 67.5 83.45 71.15 77.45 75.5 76.75 75.85 76.9 75.85 L78.15 75.7 Q82.05 75.5 84.85 70.45 84.95 70.1 85.2 70.1 85.65 70.1 85.55 70.9 85.2 74.05 86.0 74.65 87.1 75.6 88.85 75.7 L89.8 75.7 89.8 84.65 89.8 75.7 M89.8 87.3 L90.7 86.4 Q91.55 86.15 91.05 85.2 90.5 84.75 89.8 84.65 88.95 84.5 87.9 84.95 L86.4 85.45 84.25 86.25 83.0 86.75 82.4 86.95 Q81.7 87.45 82.4 87.9 83.7 88.7 86.75 87.55 87.1 87.55 86.95 87.8 85.8 89.2 83.8 93.9 82.85 96.1 85.1 98.1 86.15 98.55 86.0 101.95 86.0 102.65 85.45 102.45 L83.8 101.95 83.45 102.1 83.7 102.3 Q85.45 103.7 86.15 105.15 86.0 105.5 87.3 105.5 88.5 105.5 88.15 102.65 88.25 98.9 86.95 97.85 85.65 96.95 85.2 96.2 84.6 95.4 85.1 94.1 87.85 89.45 89.8 87.3 M85.25 119.75 L86.0 117.9 86.5 117.45 86.15 117.1 Q86.25 116.15 86.6 115.9 87.55 114.05 86.15 113.35 L84.15 113.7 Q83.2 114.75 83.0 115.8 L82.65 116.6 82.25 117.45 Q81.45 118.0 81.45 117.45 81.2 117.1 81.45 116.25 80.65 116.05 80.15 116.85 L79.8 117.9 79.6 118.7 78.5 119.05 Q77.5 119.25 76.5 119.75 L76.2 119.9 75.95 120.15 76.2 120.25 Q77.6 121.75 79.95 120.5 80.5 122.0 81.2 121.65 81.7 121.55 82.05 120.6 82.05 120.3 82.75 119.75 L83.5 119.75 82.75 119.75 83.55 119.2 Q83.8 119.05 83.8 119.3 L83.55 119.65 83.5 119.75 Q81.1 123.05 80.65 123.05 L80.5 123.2 Q80.05 123.3 80.05 123.55 79.7 124.0 79.45 123.9 78.9 124.1 79.0 124.8 79.0 125.4 79.6 125.05 80.4 124.7 81.7 124.45 L79.7 129.85 Q79.1 131.95 79.1 133.35 79.45 134.9 80.3 135.5 L80.85 135.35 80.85 134.45 80.75 133.25 80.85 130.9 Q81.0 129.6 81.7 128.2 81.8 127.75 83.35 126.35 L83.9 126.45 Q84.4 126.95 84.75 130.45 83.9 130.55 83.8 130.2 84.6 130.1 84.4 129.05 84.15 128.7 83.8 128.8 82.15 129.4 81.8 130.7 81.55 131.4 81.9 131.15 L82.4 130.45 83.1 131.05 83.35 131.15 83.1 131.6 Q82.85 131.95 83.35 131.85 L84.4 131.4 Q84.5 131.25 84.85 131.4 84.85 134.65 84.5 135.0 84.05 135.35 83.2 135.0 82.75 134.9 83.0 135.25 84.15 136.65 84.75 136.3 85.9 135.5 85.9 134.55 85.9 130.55 85.55 126.95 85.1 125.3 84.5 125.3 83.2 125.4 82.25 126.45 81.9 126.55 82.05 126.35 82.65 124.7 83.55 124.1 84.6 123.55 84.4 122.95 L81.9 123.2 Q81.45 123.3 81.7 123.05 L83.7 121.4 84.75 120.6 85.25 119.75 M78.4 99.4 Q77.25 101.25 79.7 102.65 80.5 103.0 81.2 102.3 81.9 101.75 81.45 100.9 81.2 100.55 81.7 99.95 81.9 99.5 81.55 99.85 80.05 101.05 79.7 100.2 L79.1 99.25 Q78.75 98.9 78.4 99.4 M126.0 98.35 Q125.8 98.45 125.55 98.2 L124.6 98.1 124.75 98.7 123.3 99.15 Q120.4 99.85 117.25 101.05 L112.75 102.45 112.4 102.45 Q111.85 102.65 112.05 103.0 113.85 104.45 116.15 103.5 L124.6 100.55 Q124.95 100.45 124.95 100.8 L125.1 102.55 Q123.2 103.5 121.45 104.55 121.0 104.8 120.5 103.85 L120.15 103.7 Q119.9 103.85 119.9 104.3 119.35 105.5 120.4 106.4 121.55 107.1 122.4 105.35 122.75 104.65 125.1 102.9 L124.85 105.7 123.9 105.85 Q123.55 105.7 123.8 105.95 124.6 106.55 124.6 107.35 124.5 108.05 125.9 107.95 126.95 107.6 126.7 105.95 126.5 105.35 126.6 102.2 128.6 101.4 129.65 101.95 130.1 102.45 128.6 104.45 128.35 104.65 128.7 104.55 L129.75 104.45 Q131.9 104.3 130.8 101.95 129.4 100.9 126.6 101.95 L126.5 100.2 Q126.35 99.95 126.95 99.75 130.6 98.55 133.3 98.9 134.0 99.15 134.35 98.7 134.55 98.2 134.1 97.65 132.35 96.95 126.0 98.35 M126.6 91.75 L126.6 92.8 Q126.15 93.4 126.35 93.9 L126.5 94.8 Q125.9 95.65 125.55 95.5 124.4 94.8 124.75 93.9 124.75 93.05 126.35 91.65 L126.6 91.75 M127.3 62.1 Q126.85 63.05 126.85 66.8 L123.2 69.25 122.95 69.5 123.3 69.6 Q125.2 69.05 126.25 69.05 L125.8 71.85 Q125.3 72.65 126.35 73.85 126.7 74.3 127.2 73.85 L127.75 73.6 129.4 73.15 Q129.05 74.9 127.65 76.05 127.2 76.55 127.9 76.2 L128.7 75.5 129.55 74.9 Q130.0 74.45 130.6 74.2 131.65 73.6 132.25 72.1 L131.65 71.4 128.25 71.75 Q127.9 71.95 128.0 71.5 128.85 70.2 128.95 68.55 128.95 68.2 129.3 67.85 130.6 67.05 130.45 65.65 130.1 65.05 129.3 65.3 L129.3 62.8 Q127.9 61.75 127.3 62.1 M121.1 81.55 Q118.05 85.55 119.0 87.2 119.35 88.15 120.5 87.9 L123.3 86.15 123.45 86.25 Q122.05 90.15 121.45 94.1 121.1 97.75 122.75 97.4 123.2 97.15 122.85 96.35 122.5 96.0 122.85 95.05 L123.2 91.9 123.3 91.2 124.75 90.35 126.25 89.55 126.6 89.65 126.6 90.7 Q124.85 91.65 124.5 93.65 124.4 94.8 125.2 95.85 L124.95 96.2 Q124.75 96.95 125.1 97.05 128.0 97.15 128.95 96.1 128.95 95.65 128.35 95.4 L127.75 95.5 127.2 95.65 127.2 95.05 Q127.2 94.8 127.65 94.7 L128.25 94.1 127.4 93.55 Q127.05 93.4 127.3 93.2 L128.35 91.3 Q128.25 90.6 127.3 90.5 L127.3 89.45 Q126.95 89.2 129.05 88.15 L129.3 87.8 129.05 87.45 Q127.9 87.45 127.75 86.5 127.65 86.05 127.3 86.15 126.35 86.75 126.5 88.35 L124.15 89.8 123.55 90.15 Q124.15 85.3 127.05 84.05 127.65 83.8 127.2 83.2 126.0 82.5 125.55 82.85 L122.5 84.25 Q122.25 83.45 122.75 82.85 122.85 82.5 122.05 81.55 121.55 81.2 121.1 81.55 M91.3 96.7 L92.1 98.45 Q92.7 99.95 91.65 101.05 91.2 101.6 91.75 101.25 L92.8 100.7 94.8 100.8 Q95.3 99.95 95.05 99.05 93.65 96.1 91.55 96.1 L91.2 96.35 91.3 96.7 M121.35 67.85 Q121.2 67.75 120.65 71.4 120.25 73.0 120.15 74.8 119.9 75.35 121.2 76.05 121.7 76.05 122.25 75.6 121.7 64.7 121.55 67.15 L121.55 67.3 121.35 67.85 M115.25 73.25 Q118.05 72.8 120.25 68.0 121.55 65.15 122.6 63.4 L124.0 60.25 124.6 58.85 Q126.25 58.25 127.2 57.65 L128.85 56.85 Q129.2 55.55 128.5 54.95 126.95 54.95 126.15 55.45 125.9 55.7 125.8 55.45 125.65 55.2 125.9 55.1 126.35 53.45 125.55 53.1 123.8 53.0 123.9 54.05 L122.95 56.95 Q120.25 58.0 118.75 59.05 118.4 59.3 118.75 59.3 L121.55 59.3 Q122.05 59.45 121.8 59.8 119.1 67.05 115.0 73.0 114.55 73.5 115.25 73.25 M119.55 43.6 Q119.2 45.6 118.65 45.5 117.35 45.15 116.5 44.2 115.8 43.5 116.4 42.65 L119.45 40.55 119.55 43.6 M81.2 42.3 Q81.9 41.75 81.45 40.9 81.2 40.55 81.7 39.95 81.9 39.5 81.55 39.85 80.05 41.05 79.7 40.2 L79.1 39.25 Q78.75 38.9 78.4 39.4 77.25 41.25 79.7 42.65 80.5 43.0 81.2 42.3 M0.0 119.75 L76.5 119.75 0.0 119.75 M84.5 114.6 Q84.75 116.5 84.4 116.95 L83.55 116.95 Q82.85 115.9 84.05 114.6 84.4 114.25 84.4 114.6 L84.5 114.6 M124.95 146.25 L124.0 146.95 122.6 147.9 Q122.25 147.45 121.45 147.3 121.45 146.5 120.75 145.3 120.4 144.95 120.15 145.1 L119.8 145.55 Q118.3 148.7 116.65 150.15 116.05 150.95 116.5 152.1 117.7 152.45 118.75 151.4 L119.0 151.2 120.25 149.3 Q120.5 148.95 120.75 149.05 121.8 150.5 122.5 149.9 L123.45 148.85 124.0 148.15 Q124.15 147.65 124.95 147.1 L125.3 146.75 125.55 146.5 126.15 145.9 Q128.25 143.7 128.6 143.8 128.7 144.25 128.15 144.95 127.65 145.55 127.55 146.05 L127.4 146.25 127.2 146.6 Q126.15 147.3 127.65 148.7 L126.5 150.0 125.55 150.95 125.2 151.3 124.85 151.05 Q124.5 151.2 124.4 151.9 123.55 152.45 123.1 153.2 123.2 153.05 123.65 152.8 L124.25 152.35 124.15 152.95 123.9 153.3 123.2 153.65 122.95 153.75 Q122.4 154.25 122.05 154.1 L121.7 154.35 Q121.55 154.45 121.9 154.7 122.6 155.5 123.45 155.3 L123.65 155.5 Q123.9 156.8 124.85 157.15 L126.15 157.5 Q128.15 157.75 128.7 160.1 128.95 161.75 126.35 163.5 124.95 164.3 123.45 164.45 122.05 164.55 120.85 163.85 L121.1 163.6 122.25 161.75 Q122.4 160.45 121.7 160.2 120.25 159.85 119.7 160.55 118.3 161.6 118.15 162.8 117.8 163.5 119.7 164.55 L119.7 164.8 Q119.55 165.0 120.05 164.8 L120.25 164.8 Q121.9 165.6 124.4 165.5 126.5 165.35 128.25 164.3 131.65 161.75 129.4 158.1 128.5 156.7 125.45 156.1 124.95 156.1 125.2 155.75 125.1 155.4 125.3 155.05 L125.55 154.7 126.5 154.0 Q127.3 153.2 127.55 152.35 127.3 151.65 126.25 152.1 126.15 152.1 126.0 152.25 L125.65 152.25 125.45 151.9 125.45 151.55 126.15 151.2 Q127.3 150.35 128.85 149.65 130.1 149.2 130.35 148.35 130.25 147.65 129.2 147.3 130.25 146.15 130.6 145.2 131.05 143.8 128.95 143.2 128.5 143.1 128.35 143.45 L128.15 143.8 124.95 146.25 M128.95 123.9 Q130.0 123.9 129.65 124.95 128.0 127.3 126.0 128.1 125.9 126.45 126.15 126.0 L126.25 124.35 Q127.65 123.75 128.95 123.9 M125.55 112.5 L124.25 112.3 122.4 112.15 Q122.05 112.4 122.4 112.65 L122.85 113.35 122.85 113.55 Q123.1 114.05 123.45 114.15 123.65 114.6 123.3 115.1 L122.95 115.3 122.6 115.55 Q122.15 115.8 122.75 115.8 L123.8 115.3 124.75 115.55 Q125.3 115.9 126.5 115.3 127.05 113.55 125.55 112.5 M133.75 203.45 Q130.35 203.7 130.1 207.1 130.25 210.35 133.85 210.6 137.15 210.5 137.4 207.1 137.15 203.7 133.75 203.45 M136.35 207.1 Q136.1 209.55 133.85 209.65 131.3 209.55 131.15 207.1 131.3 204.6 133.75 204.4 136.0 204.75 136.35 207.1 M123.45 190.1 Q122.95 189.85 122.75 190.45 122.5 191.25 122.75 192.3 123.1 193.5 124.5 193.15 125.65 192.65 125.55 191.6 125.45 190.9 125.8 190.55 125.9 190.3 125.65 190.45 124.85 191.25 124.5 190.8 L123.45 190.1 M131.3 188.7 L131.4 189.05 Q133.05 191.5 132.1 192.45 131.65 192.9 132.35 192.65 133.05 192.3 133.5 192.8 135.4 193.25 135.4 191.5 134.45 188.35 131.65 188.55 131.3 188.55 131.3 188.7 M128.7 184.1 L127.05 183.9 Q126.6 184.0 126.5 184.25 L126.85 184.6 Q127.2 184.8 127.4 186.55 127.65 189.25 127.4 193.6 L126.0 193.5 125.8 193.35 Q125.3 193.25 125.55 193.6 L126.85 195.5 127.2 195.95 Q127.55 196.4 128.25 195.7 129.3 194.2 129.05 190.1 L128.95 188.0 129.05 186.55 Q129.05 185.15 128.7 184.1 M132.6 180.15 Q133.5 180.5 133.4 180.95 132.35 183.3 129.9 184.25 129.55 184.45 129.55 184.7 L130.1 184.7 Q135.4 182.8 134.8 180.5 134.45 179.65 132.95 179.45 L129.75 179.65 124.85 181.65 Q124.95 181.2 126.6 179.05 127.75 177.3 127.4 173.8 127.3 173.35 126.7 173.2 126.15 173.1 126.15 173.55 126.15 174.15 125.2 176.15 123.55 179.65 122.95 181.4 122.5 183.2 122.85 184.0 122.95 184.7 123.65 184.1 L126.5 182.1 127.3 181.55 Q130.1 179.55 132.6 180.15 M117.6 186.35 L117.1 188.0 117.0 189.05 Q116.9 191.25 116.3 193.25 115.8 195.6 118.15 195.95 119.45 195.7 119.35 194.55 118.75 191.6 118.65 189.05 L118.05 186.55 Q117.6 186.1 117.6 186.35 M119.7 174.95 Q118.4 175.1 119.0 176.05 119.1 176.75 118.85 177.45 116.05 184.6 111.7 190.55 111.35 191.15 111.95 190.8 112.75 189.75 113.85 189.05 115.1 188.1 117.25 184.8 119.0 181.4 122.05 177.1 123.1 174.85 119.7 174.95 M120.85 161.25 Q120.75 162.55 120.25 163.5 119.45 163.15 119.7 162.55 120.4 161.25 120.85 161.25 M93.15 147.1 Q93.3 144.6 95.75 144.4 98.0 144.75 98.35 147.1 98.1 149.55 95.85 149.65 93.3 149.55 93.15 147.1 M99.4 147.1 Q99.15 143.7 95.75 143.45 92.35 143.7 92.1 147.1 92.25 150.35 95.85 150.6 99.15 150.5 99.4 147.1 M89.75 130.1 L88.6 131.05 Q88.25 131.05 88.25 130.7 88.0 129.85 88.85 129.5 89.3 129.5 89.75 130.1" fill="#ffffff" fill-rule="evenodd" stroke="none"/>
    <path d="M124.75 119.75 Q122.05 121.95 121.55 125.5 123.55 123.9 124.75 123.4 L124.75 121.05 Q124.6 120.85 124.75 120.7 L125.1 120.7 126.35 121.9 126.35 122.1 126.5 122.35 126.25 122.7 126.85 122.6 127.4 122.45 Q129.2 122.25 131.15 122.95 132.45 123.75 131.5 125.4 L129.55 127.5 Q127.2 129.5 125.9 129.15 125.65 129.85 125.55 131.6 L125.55 135.5 124.95 137.7 124.4 137.8 Q123.9 137.45 124.15 137.25 L124.25 134.45 124.15 131.15 Q124.25 129.5 124.5 128.7 124.15 128.7 124.0 128.0 123.8 127.3 124.15 127.5 L124.5 127.75 124.6 125.85 124.5 125.5 124.25 125.5 Q121.45 127.85 121.35 129.5 121.35 130.1 120.65 129.95 119.7 129.75 119.55 128.7 119.1 128.2 120.05 127.15 121.25 122.65 124.25 119.75 L125.1 118.95 124.5 119.3 123.55 119.75 122.75 120.25 Q118.85 122.7 116.9 122.95 L115.45 123.2 Q114.2 123.55 113.6 122.6 113.35 122.45 113.5 122.25 113.6 122.1 113.85 122.25 L115.1 122.0 Q117.55 120.75 120.0 119.75 122.55 118.7 125.1 117.9 127.65 117.3 127.65 116.95 127.75 116.25 128.7 116.5 L130.35 116.95 130.7 117.3 130.35 117.55 129.75 117.65 127.75 118.0 Q126.0 118.7 124.75 119.75 M91.3 119.75 Q90.55 122.2 89.8 123.55 L89.75 123.65 89.8 123.65 Q90.25 123.7 91.55 122.8 92.7 122.25 94.1 122.1 L94.35 122.35 94.25 122.6 93.9 122.8 93.05 123.55 Q92.35 124.35 91.65 124.45 92.45 125.4 92.35 126.2 L92.0 128.0 91.9 129.05 Q94.95 130.9 96.8 132.65 L97.25 134.55 Q97.15 134.9 95.75 134.9 94.6 134.8 94.45 134.3 93.05 132.1 91.3 131.15 L89.8 132.05 Q87.95 132.9 87.3 131.6 86.85 130.45 88.0 129.25 88.75 128.35 89.8 128.15 L90.7 128.1 91.05 125.05 91.2 124.45 90.35 124.95 89.8 125.2 88.7 125.3 Q87.9 124.7 88.25 123.75 89.0 122.2 89.6 119.75 L89.8 118.75 89.9 118.25 Q89.75 117.1 90.35 116.05 L90.35 114.75 Q90.35 114.5 90.95 114.6 92.6 115.2 92.1 116.75 L91.3 119.75 M127.3 24.25 Q126.5 25.2 127.4 28.6 L127.4 28.7 Q127.4 29.05 127.9 28.85 L129.9 27.45 Q130.0 26.75 128.35 24.25 127.55 23.55 127.3 24.25 M133.5 23.1 Q135.5 24.25 134.7 25.55 133.4 26.05 133.15 25.55 L133.05 24.15 133.05 23.45 Q132.8 23.2 133.5 23.1 M129.4 24.4 Q130.0 25.55 130.7 25.8 132.25 27.2 129.9 28.7 L128.0 29.65 Q127.65 29.9 127.75 30.15 128.25 32.0 129.05 33.75 129.75 33.3 130.8 33.2 132.35 33.2 132.45 34.35 132.25 35.85 130.6 38.1 133.4 45.0 133.85 45.0 134.2 45.0 134.55 46.55 133.85 47.35 132.95 46.55 L132.35 45.5 129.9 39.4 Q129.3 39.75 128.7 40.8 L126.0 43.95 Q124.5 45.35 123.65 44.3 123.55 43.95 124.25 43.5 125.3 44.3 129.4 38.2 L128.5 36.0 128.15 34.8 Q124.6 36.7 121.1 39.5 121.2 45.25 119.8 46.75 L118.05 46.9 Q115.1 45.15 115.35 42.8 115.7 41.4 118.05 40.1 L119.1 39.6 119.7 39.25 119.55 36.1 119.55 33.9 Q119.35 33.55 119.1 33.65 117.6 34.35 115.8 34.25 114.4 33.9 114.9 32.1 115.35 29.9 117.7 27.55 L118.15 26.95 120.75 23.7 Q121.45 23.45 121.9 24.4 121.45 26.05 120.05 26.6 118.5 27.45 116.9 29.3 114.4 32.6 115.95 33.3 116.5 33.55 119.2 32.45 119.45 32.35 119.35 31.65 118.75 29.8 119.7 29.55 120.65 30.5 120.85 31.75 L126.0 29.55 Q126.25 29.65 126.25 29.05 125.9 28.0 125.8 24.95 126.15 23.0 127.4 22.75 128.5 23.0 129.4 24.4 M130.95 34.25 Q130.35 33.55 129.2 34.25 129.65 35.75 130.25 36.8 131.3 35.15 130.95 34.25 M126.35 30.7 L121.0 33.2 121.0 35.4 121.1 38.35 Q124.95 35.5 127.9 34.1 127.2 32.8 126.6 30.7 L126.35 30.7 M91.55 36.1 Q93.65 36.1 95.05 39.05 95.3 39.95 94.8 40.8 L92.8 40.7 91.75 41.25 Q91.2 41.6 91.65 41.05 92.7 39.95 92.1 38.45 L91.3 36.7 91.2 36.35 91.55 36.1 M89.8 27.3 Q87.85 29.45 85.1 34.1 84.6 35.4 85.2 36.2 85.65 36.95 86.95 37.85 88.25 38.9 88.15 42.65 88.5 45.5 87.3 45.5 86.0 45.5 86.15 45.15 85.45 43.7 83.7 42.3 L83.45 42.1 83.8 41.95 85.45 42.45 Q86.0 42.65 86.0 41.95 86.15 38.55 85.1 38.1 82.85 36.1 83.8 33.9 85.8 29.2 86.95 27.8 87.1 27.55 86.75 27.55 83.7 28.7 82.4 27.9 81.7 27.45 82.4 26.95 L83.0 26.75 84.25 26.25 86.4 25.45 87.9 24.95 Q88.95 24.5 89.8 24.65 90.5 24.75 91.05 25.2 91.55 26.15 90.7 26.4 L89.8 27.3 M89.8 74.6 L91.3 74.45 Q94.95 74.2 95.4 71.15 95.5 70.3 95.65 70.3 L96.0 70.9 96.45 72.2 Q97.4 73.6 96.0 75.0 94.6 75.85 92.1 75.85 L91.05 75.7 89.8 75.7 88.85 75.7 Q87.1 75.6 86.0 74.65 85.2 74.05 85.55 70.9 85.65 70.1 85.2 70.1 84.95 70.1 84.85 70.45 82.05 75.5 78.15 75.7 L76.9 75.85 Q76.75 75.85 77.45 75.5 83.45 71.15 84.5 67.5 85.2 64.45 84.85 62.0 84.6 60.6 85.45 60.6 86.5 60.5 86.5 62.35 L86.4 63.2 86.15 66.0 86.0 66.2 86.15 66.55 87.2 67.75 Q87.55 68.2 87.9 66.95 88.35 59.05 87.8 54.6 87.55 54.15 87.2 54.4 85.2 55.45 84.25 56.75 83.45 57.9 83.35 59.05 L83.0 61.55 82.85 62.45 Q82.65 63.65 82.75 64.95 L82.85 65.15 Q83.0 66.1 82.15 66.2 80.75 66.7 80.75 63.9 80.65 59.55 82.85 54.05 83.0 53.7 83.35 53.8 83.7 54.05 83.55 54.5 L83.45 54.95 83.55 55.8 Q83.45 56.15 83.8 55.8 85.45 53.9 86.95 53.2 89.4 52.5 89.4 56.15 L89.4 59.55 89.4 62.8 89.4 66.2 Q89.55 68.2 88.7 69.05 87.8 70.1 86.95 68.45 L86.15 66.95 85.9 67.05 85.65 68.0 85.3 69.25 Q85.1 69.6 85.55 69.5 87.55 69.6 87.2 71.75 L87.1 72.8 87.2 73.95 Q87.3 74.45 87.9 74.55 L89.8 74.6 M89.8 84.65 Q90.5 84.75 91.05 85.2 91.55 86.15 90.7 86.4 L89.8 87.3 Q87.85 89.45 85.1 94.1 84.6 95.4 85.2 96.2 85.65 96.95 86.95 97.85 88.25 98.9 88.15 102.65 88.5 105.5 87.3 105.5 86.0 105.5 86.15 105.15 85.45 103.7 83.7 102.3 L83.45 102.1 83.8 101.95 85.45 102.45 Q86.0 102.65 86.0 101.95 86.15 98.55 85.1 98.1 82.85 96.1 83.8 93.9 85.8 89.2 86.95 87.8 87.1 87.55 86.75 87.55 83.7 88.7 82.4 87.9 81.7 87.45 82.4 86.95 L83.0 86.75 84.25 86.25 86.4 85.45 87.9 84.95 Q88.95 84.5 89.8 84.65 M81.2 42.3 Q80.5 43.0 79.7 42.65 77.25 41.25 78.4 39.4 78.75 38.9 79.1 39.25 L79.7 40.2 Q80.05 41.05 81.55 39.85 81.9 39.5 81.7 39.95 81.2 40.55 81.45 40.9 81.9 41.75 81.2 42.3 M119.55 43.6 L119.45 40.55 116.4 42.65 Q115.8 43.5 116.5 44.2 117.35 45.15 118.65 45.5 119.2 45.6 119.55 43.6 M115.25 73.25 Q114.55 73.5 115.0 73.0 119.1 67.05 121.8 59.8 122.05 59.45 121.55 59.3 L118.75 59.3 Q118.4 59.3 118.75 59.05 120.25 58.0 122.95 56.95 L123.9 54.05 Q123.8 53.0 125.55 53.1 126.35 53.45 125.9 55.1 125.65 55.2 125.8 55.45 125.9 55.7 126.15 55.45 126.95 54.95 128.5 54.95 129.2 55.55 128.85 56.85 L127.2 57.65 Q126.25 58.25 124.6 58.85 L124.0 60.25 122.6 63.4 Q121.55 65.15 120.25 68.0 118.05 72.8 115.25 73.25 M121.35 67.85 L121.55 67.3 121.55 67.15 Q121.7 64.7 122.25 75.6 121.7 76.05 121.2 76.05 119.9 75.35 120.15 74.8 120.25 73.0 120.65 71.4 121.2 67.75 121.35 67.85 M91.3 96.7 L91.2 96.35 91.55 96.1 Q93.65 96.1 95.05 99.05 95.3 99.95 94.8 100.8 L92.8 100.7 91.75 101.25 Q91.2 101.6 91.65 101.05 92.7 99.95 92.1 98.45 L91.3 96.7 M121.1 81.55 Q121.55 81.2 122.05 81.55 122.85 82.5 122.75 82.85 122.25 83.45 122.5 84.25 L125.55 82.85 Q126.0 82.5 127.2 83.2 127.65 83.8 127.05 84.05 124.15 85.3 123.55 90.15 L124.15 89.8 126.5 88.35 Q126.35 86.75 127.3 86.15 127.65 86.05 127.75 86.5 127.9 87.45 129.05 87.45 L129.3 87.8 129.05 88.15 Q126.95 89.2 127.3 89.45 L127.3 90.5 Q128.25 90.6 128.35 91.3 L127.3 93.2 Q127.05 93.4 127.4 93.55 L128.25 94.1 127.65 94.7 Q127.2 94.8 127.2 95.05 L127.2 95.65 127.75 95.5 128.35 95.4 Q128.95 95.65 128.95 96.1 128.0 97.15 125.1 97.05 124.75 96.95 124.95 96.2 L125.2 95.85 Q124.4 94.8 124.5 93.65 124.85 91.65 126.6 90.7 L126.6 89.65 126.25 89.55 124.75 90.35 123.3 91.2 123.2 91.9 122.85 95.05 Q122.5 96.0 122.85 96.35 123.2 97.15 122.75 97.4 121.1 97.75 121.45 94.1 122.05 90.15 123.45 86.25 L123.3 86.15 120.5 87.9 Q119.35 88.15 119.0 87.2 118.05 85.55 121.1 81.55 M127.3 62.1 Q127.9 61.75 129.3 62.8 L129.3 65.3 Q130.1 65.05 130.45 65.65 130.6 67.05 129.3 67.85 128.95 68.2 128.95 68.55 128.85 70.2 128.0 71.5 127.9 71.95 128.25 71.75 L131.65 71.4 132.25 72.1 Q131.65 73.6 130.6 74.2 130.0 74.45 129.55 74.9 L128.7 75.5 127.9 76.2 Q127.2 76.55 127.65 76.05 129.05 74.9 129.4 73.15 L127.75 73.6 127.2 73.85 Q126.7 74.3 126.35 73.85 125.3 72.65 125.8 71.85 L126.25 69.05 Q125.2 69.05 123.3 69.6 L122.95 69.5 123.2 69.25 126.85 66.8 Q126.85 63.05 127.3 62.1 M126.6 91.75 L126.35 91.65 Q124.75 93.05 124.75 93.9 124.4 94.8 125.55 95.5 125.9 95.65 126.5 94.8 L126.35 93.9 Q126.15 93.4 126.6 92.8 L126.6 91.75 M126.0 98.35 Q132.35 96.95 134.1 97.65 134.55 98.2 134.35 98.7 134.0 99.15 133.3 98.9 130.6 98.55 126.95 99.75 126.35 99.95 126.5 100.2 L126.6 101.95 Q129.4 100.9 130.8 101.95 131.9 104.3 129.75 104.45 L128.7 104.55 Q128.35 104.65 128.6 104.45 130.1 102.45 129.65 101.95 128.6 101.4 126.6 102.2 126.5 105.35 126.7 105.95 126.95 107.6 125.9 107.95 124.5 108.05 124.6 107.35 124.6 106.55 123.8 105.95 123.55 105.7 123.9 105.85 L124.85 105.7 125.1 102.9 Q122.75 104.65 122.4 105.35 121.55 107.1 120.4 106.4 119.35 105.5 119.9 104.3 119.9 103.85 120.15 103.7 L120.5 103.85 Q121.0 104.8 121.45 104.55 123.2 103.5 125.1 102.55 L124.95 100.8 Q124.95 100.45 124.6 100.55 L116.15 103.5 Q113.85 104.45 112.05 103.0 111.85 102.65 112.4 102.45 L112.75 102.45 117.25 101.05 Q120.4 99.85 123.3 99.15 L124.75 98.7 124.6 98.1 125.55 98.2 Q125.8 98.45 126.0 98.35 M78.4 99.4 Q78.75 98.9 79.1 99.25 L79.7 100.2 Q80.05 101.05 81.55 99.85 81.9 99.5 81.7 99.95 81.2 100.55 81.45 100.9 81.9 101.75 81.2 102.3 80.5 103.0 79.7 102.65 77.25 101.25 78.4 99.4 M76.5 119.75 Q77.5 119.25 78.5 119.05 L79.6 118.7 79.8 117.9 80.15 116.85 Q80.65 116.05 81.45 116.25 81.2 117.1 81.45 117.45 81.45 118.0 82.25 117.45 L82.65 116.6 83.0 115.8 Q83.2 114.75 84.15 113.7 L86.15 113.35 Q87.55 114.05 86.6 115.9 86.25 116.15 86.15 117.1 L86.5 117.45 86.0 117.9 85.25 119.75 84.75 120.6 83.7 121.4 81.7 123.05 Q81.45 123.3 81.9 123.2 L84.4 122.95 Q84.6 123.55 83.55 124.1 82.65 124.7 82.05 126.35 81.9 126.55 82.25 126.45 83.2 125.4 84.5 125.3 85.1 125.3 85.55 126.95 85.9 130.55 85.9 134.55 85.9 135.5 84.75 136.3 84.15 136.65 83.0 135.25 82.75 134.9 83.2 135.0 84.05 135.35 84.5 135.0 84.85 134.65 84.85 131.4 84.5 131.25 84.4 131.4 L83.35 131.85 Q82.85 131.95 83.1 131.6 L83.35 131.15 83.1 131.05 82.4 130.45 81.9 131.15 Q81.55 131.4 81.8 130.7 82.15 129.4 83.8 128.8 84.15 128.7 84.4 129.05 84.6 130.1 83.8 130.2 83.9 130.55 84.75 130.45 84.4 126.95 83.9 126.45 L83.35 126.35 Q81.8 127.75 81.7 128.2 81.0 129.6 80.85 130.9 L80.75 133.25 80.85 134.45 80.85 135.35 80.3 135.5 Q79.45 134.9 79.1 133.35 79.1 131.95 79.7 129.85 L81.7 124.45 Q80.4 124.7 79.6 125.05 79.0 125.4 79.0 124.8 78.9 124.1 79.45 123.9 79.7 124.0 80.05 123.55 80.05 123.3 80.5 123.2 L80.65 123.05 Q81.1 123.05 83.5 119.75 L83.55 119.65 83.8 119.3 Q83.8 119.05 83.55 119.2 L82.75 119.75 Q82.05 120.3 82.05 120.6 81.7 121.55 81.2 121.65 80.5 122.0 79.95 120.5 77.6 121.75 76.2 120.25 L75.95 120.15 76.2 119.9 76.5 119.75 M125.55 112.5 Q127.05 113.55 126.5 115.3 125.3 115.9 124.75 115.55 L123.8 115.3 122.75 115.8 Q122.15 115.8 122.6 115.55 L122.95 115.3 123.3 115.1 Q123.65 114.6 123.45 114.15 123.1 114.05 122.85 113.55 L122.85 113.35 122.4 112.65 Q122.05 112.4 122.4 112.15 L124.25 112.3 125.55 112.5 M128.95 123.9 Q127.65 123.75 126.25 124.35 L126.15 126.0 Q125.9 126.45 126.0 128.1 128.0 127.3 129.65 124.95 130.0 123.9 128.95 123.9 M124.95 146.25 L128.15 143.8 128.35 143.45 Q128.5 143.1 128.95 143.2 131.05 143.8 130.6 145.2 130.25 146.15 129.2 147.3 130.25 147.65 130.35 148.35 130.1 149.2 128.85 149.65 127.3 150.35 126.15 151.2 L125.45 151.55 125.45 151.9 125.65 152.25 126.0 152.25 Q126.15 152.1 126.25 152.1 127.3 151.65 127.55 152.35 127.3 153.2 126.5 154.0 L125.55 154.7 125.3 155.05 Q125.1 155.4 125.2 155.75 124.95 156.1 125.45 156.1 128.5 156.7 129.4 158.1 131.65 161.75 128.25 164.3 126.5 165.35 124.4 165.5 121.9 165.6 120.25 164.8 L120.05 164.8 Q119.55 165.0 119.7 164.8 L119.7 164.55 Q117.8 163.5 118.15 162.8 118.3 161.6 119.7 160.55 120.25 159.85 121.7 160.2 122.4 160.45 122.25 161.75 L121.1 163.6 120.85 163.85 Q122.05 164.55 123.45 164.45 124.95 164.3 126.35 163.5 128.95 161.75 128.7 160.1 128.15 157.75 126.15 157.5 L124.85 157.15 Q123.9 156.8 123.65 155.5 L123.45 155.3 Q122.6 155.5 121.9 154.7 121.55 154.45 121.7 154.35 L122.05 154.1 Q122.4 154.25 122.95 153.75 L123.2 153.65 123.9 153.3 124.15 152.95 124.25 152.35 123.65 152.8 Q123.2 153.05 123.1 153.2 123.55 152.45 124.4 151.9 124.5 151.2 124.85 151.05 L125.2 151.3 125.55 150.95 126.5 150.0 127.65 148.7 Q126.15 147.3 127.2 146.6 L127.4 146.25 127.55 146.05 Q127.65 145.55 128.15 144.95 128.7 144.25 128.6 143.8 128.25 143.7 126.15 145.9 L125.55 146.5 125.3 146.75 124.95 147.1 Q124.15 147.65 124.0 148.15 L123.45 148.85 122.5 149.9 Q121.8 150.5 120.75 149.05 120.5 148.95 120.25 149.3 L119.0 151.2 118.75 151.4 Q117.7 152.45 116.5 152.1 116.05 150.95 116.65 150.15 118.3 148.7 119.8 145.55 L120.15 145.1 Q120.4 144.95 120.75 145.3 121.45 146.5 121.45 147.3 122.25 147.45 122.6 147.9 L124.0 146.95 124.95 146.25 M84.5 114.6 L84.4 114.6 Q84.4 114.25 84.05 114.6 82.85 115.9 83.55 116.95 L84.4 116.95 Q84.75 116.5 84.5 114.6 M89.75 130.1 Q89.3 129.5 88.85 129.5 88.0 129.85 88.25 130.7 88.25 131.05 88.6 131.05 L89.75 130.1 M99.4 147.1 Q99.15 150.5 95.85 150.6 92.25 150.35 92.1 147.1 92.35 143.7 95.75 143.45 99.15 143.7 99.4 147.1 M93.15 147.1 Q93.3 149.55 95.85 149.65 98.1 149.55 98.35 147.1 98.0 144.75 95.75 144.4 93.3 144.6 93.15 147.1 M120.85 161.25 Q120.4 161.25 119.7 162.55 119.45 163.15 120.25 163.5 120.75 162.55 120.85 161.25 M119.7 174.95 Q123.1 174.85 122.05 177.1 119.0 181.4 117.25 184.8 115.1 188.1 113.85 189.05 112.75 189.75 111.95 190.8 111.35 191.15 111.7 190.55 116.05 184.6 118.85 177.45 119.1 176.75 119.0 176.05 118.4 175.1 119.7 174.95 M117.6 186.35 Q117.6 186.1 118.05 186.55 L118.65 189.05 Q118.75 191.6 119.35 194.55 119.45 195.7 118.15 195.95 115.8 195.6 116.3 193.25 116.9 191.25 117.0 189.05 L117.1 188.0 117.6 186.35 M132.6 180.15 Q130.1 179.55 127.3 181.55 L126.5 182.1 123.65 184.1 Q122.95 184.7 122.85 184.0 122.5 183.2 122.95 181.4 123.55 179.65 125.2 176.15 126.15 174.15 126.15 173.55 126.15 173.1 126.7 173.2 127.3 173.35 127.4 173.8 127.75 177.3 126.6 179.05 124.95 181.2 124.85 181.65 L129.75 179.65 132.95 179.45 Q134.45 179.65 134.8 180.5 135.4 182.8 130.1 184.7 L129.55 184.7 Q129.55 184.45 129.9 184.25 132.35 183.3 133.4 180.95 133.5 180.5 132.6 180.15 M128.7 184.1 Q129.05 185.15 129.05 186.55 L128.95 188.0 129.05 190.1 Q129.3 194.2 128.25 195.7 127.55 196.4 127.2 195.95 L126.85 195.5 125.55 193.6 Q125.3 193.25 125.8 193.35 L126.0 193.5 127.4 193.6 Q127.65 189.25 127.4 186.55 127.2 184.8 126.85 184.6 L126.5 184.25 Q126.6 184.0 127.05 183.9 L128.7 184.1 M131.3 188.7 Q131.3 188.55 131.65 188.55 134.45 188.35 135.4 191.5 135.4 193.25 133.5 192.8 133.05 192.3 132.35 192.65 131.65 192.9 132.1 192.45 133.05 191.5 131.4 189.05 L131.3 188.7 M123.45 190.1 L124.5 190.8 Q124.85 191.25 125.65 190.45 125.9 190.3 125.8 190.55 125.45 190.9 125.55 191.6 125.65 192.65 124.5 193.15 123.1 193.5 122.75 192.3 122.5 191.25 122.75 190.45 122.95 189.85 123.45 190.1 M136.35 207.1 Q136.0 204.75 133.75 204.4 131.3 204.6 131.15 207.1 131.3 209.55 133.85 209.65 136.1 209.55 136.35 207.1 M133.75 203.45 Q137.15 203.7 137.4 207.1 137.15 210.5 133.85 210.6 130.25 210.35 130.1 207.1 130.35 203.7 133.75 203.45" fill="#000000" fill-rule="evenodd" stroke="none"/>
    <path d="M179.6 119.75 L179.6 234.9 89.8 234.9 0.0 234.9 0.0 119.75 0.0 0.0 89.8 0.0 179.6 0.0 179.6 119.75" fill="none" stroke="#cccccc" stroke-linecap="round" stroke-linejoin="round" stroke-width="1.0"/>
    <path d="M179.6 119.75 L124.75 119.75 M124.25 119.75 L123.55 119.75 M120.0 119.75 L91.3 119.75 M89.8 123.55 L89.8 123.65 M89.8 132.05 L89.8 234.9 M89.8 24.65 L89.8 0.0 M89.8 27.3 L89.8 74.6 M89.8 75.7 L89.8 84.65 M89.8 87.3 L89.8 118.75 M85.25 119.75 L89.6 119.75 M76.5 119.75 L0.0 119.75 M83.5 119.75 L82.75 119.75 M89.8 128.15 L89.8 125.2" fill="none" stroke="#cccccc" stroke-linecap="round" stroke-linejoin="round" stroke-width="1.0"/>
  </g>
</svg>
