<?xml version="1.0" encoding="UTF-8" standalone="no"?>
<svg xmlns:xlink="http://www.w3.org/1999/xlink" height="124.1px" width="166.9px" xmlns="http://www.w3.org/2000/svg">
  <g transform="matrix(1.0, 0.0, 0.0, 1.0, 0.0, -12.4)">
    <path d="M103.25 67.4 Q104.3 66.7 105.25 66.4 107.65 65.6 110.1 66.9 110.55 66.4 110.5 65.35 L110.4 63.65 Q110.75 62.85 111.55 62.75 L113.1 62.6 Q114.8 61.2 114.35 59.35 115.85 56.5 119.7 54.3 L122.7 52.4 Q124.35 51.25 125.45 49.95 125.8 49.35 126.6 49.2 L128.05 49.0 Q129.9 48.85 130.4 47.4 L140.55 38.1 143.35 37.95 Q146.85 36.85 147.85 40.3 148.2 41.7 148.1 43.35 147.95 44.9 147.4 46.1 145.4 49.4 141.85 51.15 139.45 52.25 134.8 53.2 132.9 57.35 128.5 60.35 125.75 62.15 120.15 64.55 118.35 62.6 117.05 62.65 116.0 62.7 114.85 64.15 L112.85 66.9 Q111.55 68.45 110.2 68.8 109.55 70.0 111.1 71.45 L111.95 72.5 Q112.25 73.15 111.85 73.8 111.2 74.05 111.05 74.8 L110.9 76.1 Q110.75 77.75 109.25 77.6 L109.3 78.5 107.7 80.35 Q106.7 81.45 105.75 81.45 L103.65 85.35 103.3 86.4 103.3 67.4 103.25 67.4 103.3 67.4 103.3 86.4 103.3 89.6 103.4 89.9 Q105.2 92.55 109.5 91.95 115.15 88.35 120.8 87.2 122.65 88.15 122.9 91.35 L123.0 93.85 Q123.1 95.1 123.55 95.85 122.2 96.25 120.55 97.5 L117.85 99.85 Q114.45 102.8 111.45 102.45 109.5 103.3 109.0 104.95 108.55 106.15 109.0 108.35 L109.8 112.15 Q110.15 114.4 109.8 115.95 111.1 117.7 113.45 118.5 L117.75 119.45 Q120.65 119.85 121.85 120.5 123.95 121.45 125.0 123.5 L121.5 125.8 Q119.6 126.95 117.8 127.55 L113.65 127.45 109.85 126.6 Q109.95 128.55 107.8 130.9 L105.95 132.75 Q104.8 133.85 104.3 134.7 102.55 136.9 100.8 136.4 99.7 136.1 97.7 134.15 L38.55 134.15 38.55 102.05 37.6 102.05 Q36.45 102.1 35.6 102.6 35.9 104.1 35.05 105.65 L33.15 108.25 24.8 107.8 Q24.45 106.45 22.75 104.95 L20.4 102.9 19.35 104.0 Q18.75 104.6 19.15 105.3 L18.2 105.3 18.25 106.25 14.15 106.1 7.65 105.5 5.1 104.65 2.35 102.7 Q-0.7 100.1 0.2 97.0 0.95 93.75 4.0 92.95 L6.8 92.35 9.65 92.25 13.15 92.55 Q15.55 93.05 17.55 94.55 L22.15 97.45 Q25.1 97.1 31.95 98.55 L37.3 99.75 38.55 99.95 38.55 67.4 71.85 67.4 Q72.7 66.2 72.55 63.95 L72.4 61.65 Q72.35 60.35 72.75 59.55 73.6 58.9 74.05 57.65 L74.7 55.35 Q75.05 54.0 75.65 53.45 76.45 52.7 77.95 52.8 79.8 51.65 78.85 49.75 L77.9 48.15 Q77.45 47.05 77.65 46.35 78.85 45.05 79.6 43.05 L80.5 39.25 Q80.95 36.7 81.4 35.55 82.1 33.5 83.4 32.2 L83.75 26.85 Q83.95 23.75 84.55 21.3 86.05 15.1 90.65 12.45 L90.7 12.4 91.85 12.45 Q94.65 12.85 95.4 16.1 95.8 18.1 95.4 22.8 94.4 23.65 94.0 25.2 L93.3 27.9 Q92.95 29.5 92.35 30.35 91.5 31.45 89.85 31.9 89.65 32.45 90.05 32.9 L90.85 33.7 Q90.95 38.2 89.9 43.95 L87.55 53.75 Q86.1 59.65 85.75 63.75 L85.65 67.4 103.25 67.4 M166.8 72.4 Q167.2 74.65 165.95 76.85 164.65 79.0 162.95 80.2 157.5 83.35 152.55 83.3 151.45 81.55 149.5 81.25 147.8 80.95 146.0 81.8 145.4 83.0 142.65 84.45 139.8 85.9 138.9 87.65 L135.9 87.7 132.8 88.2 Q129.0 88.65 127.25 85.95 129.5 83.3 130.8 82.35 132.85 80.75 135.35 80.95 137.65 78.55 140.95 78.55 L144.05 78.85 147.25 79.4 Q148.95 76.5 153.15 73.7 L156.75 71.45 160.15 69.05 Q161.4 68.1 162.35 68.25 163.0 68.35 163.8 69.3 L165.05 71.05 Q165.85 72.05 166.8 72.4 M83.45 70.85 L73.0 70.85 73.0 87.6 90.6 87.6 90.6 89.35 Q90.55 90.9 89.0 90.95 L73.0 90.95 73.0 126.0 Q73.0 132.1 79.15 132.15 L102.3 132.15 102.3 125.9 85.05 125.9 Q83.45 125.9 83.45 124.35 L83.45 122.7 100.8 122.7 100.8 117.3 83.45 117.3 83.45 114.45 100.8 114.45 100.8 109.0 83.45 109.0 83.45 105.95 100.8 105.95 100.8 100.45 83.45 100.45 83.45 97.4 94.9 97.4 Q100.95 97.4 101.05 91.3 L101.05 81.2 83.45 81.2 83.45 78.35 101.3 78.35 101.3 72.9 83.45 72.9 83.45 70.85 M61.2 70.85 L50.75 70.85 50.75 73.65 41.65 73.65 41.65 80.65 43.85 80.65 44.8 85.7 41.4 85.7 41.4 92.65 70.7 92.65 70.7 85.7 67.1 85.7 68.45 80.65 70.2 80.65 70.2 73.65 61.2 73.65 61.2 70.85 M54.25 85.7 L53.3 80.65 59.0 80.65 57.65 85.7 54.25 85.7 M42.2 95.2 L42.2 111.8 Q42.05 112.7 42.2 114.25 L42.2 132.25 52.7 132.25 52.7 122.25 59.75 122.25 59.75 124.2 Q59.7 125.75 58.15 125.8 L56.25 125.8 57.6 132.25 64.05 132.25 Q70.15 132.25 70.2 126.1 L70.2 95.2 42.2 95.2 M52.7 102.65 L59.75 102.65 59.75 106.0 52.7 106.0 52.7 102.65 M52.7 115.75 L52.7 112.45 59.75 112.45 59.75 115.75 52.7 115.75 M38.55 99.95 L38.55 102.05 38.55 99.95 M133.35 120.2 Q137.05 119.95 139.25 121.4 151.1 118.85 160.1 122.65 161.4 124.4 159.4 127.35 154.7 132.0 146.6 129.8 L143.15 128.05 Q141.05 126.9 139.5 126.95 137.95 128.7 134.95 128.5 L132.35 128.15 129.85 127.9 Q127.8 127.15 127.45 124.85 L127.2 121.1 133.35 120.2 M71.85 67.4 L85.65 67.4 71.85 67.4 M97.7 134.15 L103.3 134.15 103.3 89.6 103.3 134.15 97.7 134.15" fill="#000000" fill-rule="evenodd" stroke="none"/>
    <path d="M52.7 115.75 L59.75 115.75 59.75 112.45 52.7 112.45 52.7 115.75 M52.7 102.65 L52.7 106.0 59.75 106.0 59.75 102.65 52.7 102.65 M42.2 95.2 L70.2 95.2 70.2 126.1 Q70.15 132.25 64.05 132.25 L57.6 132.25 56.25 125.8 58.15 125.8 Q59.7 125.75 59.75 124.2 L59.75 122.25 52.7 122.25 52.7 132.25 42.2 132.25 42.2 114.25 Q42.05 112.7 42.2 111.8 L42.2 95.2 M54.25 85.7 L57.65 85.7 59.0 80.65 53.3 80.65 54.25 85.7 M61.2 70.85 L61.2 73.65 70.2 73.65 70.2 80.65 68.45 80.65 67.1 85.7 70.7 85.7 70.7 92.65 41.4 92.65 41.4 85.7 44.8 85.7 43.85 80.65 41.65 80.65 41.65 73.65 50.75 73.65 50.75 70.85 61.2 70.85 M83.45 70.85 L83.45 72.9 101.3 72.9 101.3 78.35 83.45 78.35 83.45 81.2 101.05 81.2 101.05 91.3 Q100.95 97.4 94.9 97.4 L83.45 97.4 83.45 100.45 100.8 100.45 100.8 105.95 83.45 105.95 83.45 109.0 100.8 109.0 100.8 114.45 83.45 114.45 83.45 117.3 100.8 117.3 100.8 122.7 83.45 122.7 83.45 124.35 Q83.45 125.9 85.05 125.9 L102.3 125.9 102.3 132.15 79.15 132.15 Q73.0 132.1 73.0 126.0 L73.0 90.95 89.0 90.95 Q90.55 90.9 90.6 89.35 L90.6 87.6 73.0 87.6 73.0 70.85 83.45 70.85" fill="#ff6600" fill-rule="evenodd" stroke="none"/>
    <path d="M103.25 67.4 L103.3 67.4 103.3 86.4 103.3 89.6 103.3 134.15 97.7 134.15 38.55 134.15 38.55 102.05 38.55 99.95 38.55 67.4 71.85 67.4 M85.65 67.4 L103.25 67.4 M85.65 67.4 L71.85 67.4" fill="none" stroke="#000000" stroke-linecap="round" stroke-linejoin="round" stroke-width="1.0"/>
  </g>
</svg>
