<?xml version="1.0" encoding="UTF-8" standalone="no"?>
<svg xmlns:xlink="http://www.w3.org/1999/xlink" height="158.5px" width="43.95px" xmlns="http://www.w3.org/2000/svg">
  <g transform="matrix(1.0, 0.0, 0.0, 1.0, -441.65, -235.05)">
    <path d="M442.15 235.55 Q443.35 236.7 448.3 244.25 453.8 252.7 454.4 255.55 454.9 257.65 454.45 262.4 454.55 265.95 457.5 265.2 L457.5 270.3 Q461.25 269.3 463.9 271.1 466.25 272.65 466.7 275.4 L468.7 287.15 Q468.55 290.0 470.65 293.5 472.8 297.15 472.85 297.9 L472.85 311.7 Q473.25 320.1 473.85 321.9 474.4 323.5 477.7 327.6 480.4 330.95 480.45 334.65 480.5 338.9 485.1 357.9 485.1 362.3 482.5 364.3 478.85 367.15 471.95 379.4 L464.35 393.05" fill="none" stroke="#00cc00" stroke-linecap="round" stroke-linejoin="round" stroke-width="1.0"/>
  </g>
</svg>
