<?xml version="1.0" encoding="UTF-8" standalone="no"?>
<svg xmlns:xlink="http://www.w3.org/1999/xlink" height="403.15px" width="336.05px" xmlns="http://www.w3.org/2000/svg">
  <g transform="matrix(1.0, 0.0, 0.0, 1.0, 0.5, 0.5)">
    <path d="M306.4 163.5 L306.7 163.45 306.5 163.6 306.4 163.5 M309.1 172.85 L308.8 173.15 308.7 172.95 309.1 172.85 M265.3 301.6 L263.85 301.6 251.0 301.2 249.45 301.1 249.5 300.85 251.0 300.9 Q258.2 301.05 265.25 300.7 L265.3 301.6 M41.85 187.6 L24.75 175.25 Q13.55 167.6 5.9 158.0 L1.75 152.25 9.15 156.5 11.6 159.75 Q19.25 169.35 30.45 177.0 L40.25 184.05 Q31.8 180.05 24.75 175.25 31.8 180.05 40.25 184.05 L47.55 189.35 51.25 192.4 52.35 193.3 Q73.25 210.2 103.5 229.25 L97.8 227.45 Q67.55 208.45 46.65 191.55 L45.6 190.7 45.55 190.65 45.2 190.35 41.85 187.6 M40.2 143.75 Q41.55 140.8 43.25 138.75 47.3 133.9 52.1 130.45 56.35 127.3 67.6 125.65 L67.95 125.05 68.0 125.55 69.75 125.3 70.15 125.25 70.95 125.3 Q81.95 125.9 89.0 130.45 L90.2 131.25 89.25 130.7 Q83.95 128.05 76.8 127.25 L72.7 126.9 69.75 127.35 66.25 127.95 Q58.15 129.55 54.65 132.1 49.9 135.55 45.9 140.4 41.85 145.15 39.65 154.9 L39.05 157.8 Q37.85 165.35 40.0 171.9 L37.65 171.0 Q35.35 164.6 36.3 157.2 36.55 155.25 37.05 153.25 38.3 147.7 40.2 143.75 M105.8 87.0 L107.3 86.4 Q110.4 82.85 115.05 82.5 117.05 80.95 119.55 80.4 L123.9 80.25 124.6 80.3 126.1 80.55 126.7 81.05 Q117.7 92.15 113.55 104.35 110.75 112.5 110.15 121.1 L110.1 122.4 Q109.85 126.95 110.2 131.65 107.05 136.4 105.25 140.35 104.2 142.2 103.5 144.2 L103.35 144.2 Q102.5 138.15 102.0 132.75 99.9 112.0 101.9 99.85 L102.5 96.55 102.55 96.35 102.6 96.15 Q102.85 94.8 103.4 93.4 L104.2 91.45 104.25 91.4 Q105.2 89.1 106.45 87.4 L105.8 87.0 M131.45 80.05 L131.65 79.55 131.75 79.4 132.6 77.65 132.6 77.6 132.75 77.35 133.7 75.2 133.7 75.1 134.45 73.35 134.55 73.15 135.05 71.85 Q136.5 67.9 137.25 64.35 L137.65 62.15 137.65 61.9 137.9 60.05 137.9 59.95 138.0 56.2 137.6 52.65 137.6 52.6 137.2 50.85 Q136.65 48.7 135.75 46.75 L137.55 46.95 139.2 52.5 139.55 54.2 139.55 54.25 139.9 56.95 139.85 61.55 139.85 61.65 139.65 63.55 139.55 63.8 139.2 65.95 Q138.45 69.55 137.0 73.5 L136.5 74.75 136.45 74.95 135.65 76.75 135.65 76.8 134.7 78.95 134.55 79.3 134.2 79.95 133.7 81.0 133.65 81.15 132.95 82.5 131.85 85.1 127.5 92.05 Q127.25 92.4 125.15 96.7 122.95 101.0 122.45 108.25 L122.4 110.0 122.4 114.3 122.45 115.55 Q122.65 119.0 123.3 122.45 124.55 129.45 127.65 137.85 L132.0 150.3 133.8 156.25 134.15 157.5 Q134.85 160.45 135.15 164.55 L134.95 165.6 134.3 169.65 133.2 175.15 133.35 170.45 Q133.4 162.5 132.5 157.45 L132.5 157.3 131.85 154.6 130.7 150.9 Q128.4 143.5 125.7 136.25 122.6 127.85 121.3 120.85 L121.15 120.0 120.65 116.25 120.5 114.2 Q120.25 110.45 120.5 106.65 121.0 99.4 123.15 95.1 L125.55 90.45 129.9 83.5 Q130.35 82.1 131.0 80.85 L131.45 80.05 M124.4 79.5 L124.3 79.5 124.05 79.45 Q122.75 79.2 122.15 78.45 L121.75 77.75 Q121.55 77.15 121.6 76.4 L122.05 75.2 122.8 73.2 122.85 73.15 122.85 73.05 121.2 71.95 Q120.45 71.05 120.35 69.45 L120.35 68.25 120.4 67.9 Q120.5 66.9 121.05 66.35 L121.6 65.9 122.85 65.0 Q121.6 63.6 121.4 62.05 L121.35 61.4 121.4 61.05 Q121.5 59.2 121.9 58.1 122.2 57.15 123.1 57.15 L123.35 57.15 125.15 57.3 125.1 57.05 125.1 56.7 Q125.2 55.3 127.0 53.85 L127.15 53.7 127.6 53.4 128.2 53.0 Q129.75 51.9 130.5 51.9 L130.75 51.9 131.8 52.45 130.65 53.05 129.4 53.9 128.8 54.3 128.05 55.0 Q126.95 56.1 126.9 57.2 L126.9 57.8 125.2 57.65 125.15 57.3 125.2 57.65 125.1 57.65 124.9 57.65 Q124.0 57.6 123.65 58.6 L123.25 60.25 123.25 60.3 123.25 60.35 123.15 61.55 123.15 61.9 Q123.15 62.85 123.55 63.8 L123.7 64.1 124.65 65.45 124.0 65.95 123.9 66.0 122.85 65.0 123.9 66.0 123.35 66.4 122.8 66.85 122.55 67.25 122.45 67.3 122.5 67.3 Q122.2 67.8 122.15 68.6 L122.1 68.75 122.1 69.95 Q122.2 71.55 122.95 72.45 L123.65 73.05 124.25 73.35 124.2 73.45 123.05 73.15 122.85 73.05 123.05 73.15 124.2 73.45 124.25 73.45 124.65 73.55 124.5 73.85 123.85 75.7 123.85 75.75 123.8 75.85 123.4 76.85 123.5 78.1 123.55 78.2 124.35 79.35 124.4 79.4 124.4 79.5 M266.55 58.55 Q278.3 66.15 281.6 71.95 284.8 77.75 284.1 85.05 283.3 92.25 279.6 94.6 L274.85 97.55 269.4 99.05 263.5 99.75 263.3 99.75 263.1 99.75 262.9 99.75 262.75 99.75 259.35 99.55 259.5 99.45 260.3 99.45 265.4 98.75 270.85 97.25 275.6 94.3 Q279.3 91.95 280.1 84.75 280.8 77.45 277.6 71.65 274.3 65.85 262.6 58.15 L264.65 58.65 266.55 58.55 M185.55 11.85 Q186.85 26.65 194.55 43.75 198.3 52.0 203.55 60.75 L204.6 62.5 Q209.25 70.1 215.05 78.15 L218.45 85.6 220.5 90.9 Q221.65 94.4 222.05 96.9 223.75 108.8 221.65 117.8 L220.85 120.8 Q218.8 129.0 215.25 140.75 211.0 154.75 210.8 158.1 210.65 160.6 210.8 166.1 L210.95 170.0 Q210.1 169.2 209.45 165.85 L209.35 165.45 Q208.4 160.7 208.55 157.55 L208.9 154.0 Q209.5 151.4 210.65 147.45 L210.7 147.35 212.65 140.55 218.3 120.65 219.05 117.6 Q221.15 108.65 219.45 96.75 218.55 90.6 212.45 78.0 203.35 65.3 197.05 53.65 193.35 46.85 190.65 40.45 188.2 34.6 186.5 29.0 184.7 23.2 183.75 17.7 L183.75 17.65 183.75 17.5 183.5 16.15 183.85 13.9 185.55 11.85 M212.3 63.2 L229.95 65.25 230.65 66.6 234.55 74.15 231.35 73.6 229.75 73.35 Q227.65 71.8 227.0 71.75 L226.55 71.75 Q226.05 71.8 225.75 72.05 225.3 72.4 225.2 73.15 L225.15 73.55 Q225.0 75.65 226.35 76.85 L227.35 77.7 227.65 77.95 229.35 79.25 228.85 79.6 Q227.85 80.3 227.25 81.35 226.2 83.05 226.05 85.5 225.85 88.1 227.5 88.55 L228.35 88.65 228.75 88.65 228.75 88.7 228.75 89.45 Q228.9 90.9 230.1 91.9 230.8 92.45 231.85 92.85 L232.35 93.0 232.65 93.1 232.65 93.15 232.6 93.25 232.6 93.4 232.55 93.8 232.55 93.85 Q232.45 95.05 233.5 96.2 234.25 97.05 236.1 97.3 236.15 98.7 237.4 99.6 L238.0 99.95 Q239.5 100.7 242.25 100.9 L243.05 100.9 Q244.45 100.8 244.7 99.8 L247.25 105.35 Q256.4 126.4 257.25 143.35 L255.8 140.15 254.3 137.5 250.2 130.4 230.25 96.15 211.0 63.05 212.3 63.2 M218.25 210.7 L220.4 202.95 223.2 194.4 223.35 194.0 224.05 192.15 234.0 196.05 239.6 198.35 238.95 200.5 Q234.35 215.4 231.9 230.2 229.3 245.8 229.0 261.25 L228.95 265.3 Q225.55 261.65 222.6 255.85 220.5 251.7 213.7 235.45 L214.05 232.6 Q214.55 228.85 215.2 225.2 L215.5 223.35 216.4 218.85 217.0 216.1 217.3 214.6 218.25 210.7 M255.0 138.7 L254.3 137.5 255.0 138.7 Q252.4 123.55 239.55 103.4 252.4 123.55 255.0 138.7 L255.8 140.15 255.0 138.7 M106.3 127.65 L106.25 126.2 Q106.0 119.45 106.7 112.7 107.75 103.1 110.8 93.6 112.6 88.05 115.05 82.5 112.6 88.05 110.8 93.6 107.75 103.1 106.7 112.7 106.0 119.45 106.25 126.2 L106.3 127.65 M106.45 87.4 L107.3 86.4 106.45 87.4 M67.6 125.65 L68.0 125.55 67.6 125.65 M152.4 238.4 L162.35 239.05 166.95 239.25 169.3 239.3 170.95 243.75 Q174.5 253.85 176.65 263.8 L177.45 267.6 177.85 270.0 Q181.85 293.7 177.7 316.4 L155.7 319.95 Q162.4 279.7 152.4 238.4 M49.1 209.6 L49.05 209.1 49.3 209.6 49.1 209.6 M248.6 309.85 L248.2 309.95 248.3 308.95 248.6 309.85" fill="#ffffff" fill-rule="evenodd" stroke="none"/>
    <path d="M308.8 173.15 L308.7 173.25 Q309.95 174.35 310.7 176.2 L311.15 176.05 313.7 183.6 Q315.9 190.8 315.85 197.35 318.2 203.45 318.25 207.0 318.3 209.7 317.65 216.25 317.65 219.6 321.45 224.85 L324.4 228.55 Q326.35 230.85 326.85 234.7 L327.0 236.55 323.85 234.5 323.8 238.9 Q328.15 242.75 327.95 245.95 327.7 250.0 326.65 253.1 329.75 277.75 306.65 292.75 L305.5 293.15 Q286.6 299.5 265.5 300.65 266.75 300.5 270.8 298.25 275.3 295.75 277.85 289.1 L279.7 285.7 Q276.25 287.05 270.7 290.85 267.05 293.35 262.85 293.35 242.6 293.35 235.4 283.3 231.3 277.65 229.55 265.95 L229.0 261.25 Q229.3 245.8 231.9 230.2 234.35 215.4 238.95 200.5 L239.6 198.35 241.9 199.35 Q248.2 202.0 253.9 204.65 L260.25 207.6 260.5 207.75 260.65 207.1 Q263.05 195.95 258.0 184.35 L260.7 180.7 Q268.15 173.3 269.5 165.5 L269.45 165.5 269.15 165.4 Q269.1 164.3 269.7 159.8 L266.55 167.8 Q265.25 171.05 262.2 174.6 L259.7 177.2 258.35 172.35 Q260.65 167.4 261.05 161.5 261.3 157.5 260.65 153.85 L260.4 152.8 259.15 148.5 257.25 143.35 Q256.4 126.4 247.25 105.35 248.45 104.85 249.05 104.05 249.7 103.1 252.05 103.1 255.45 103.1 261.35 105.3 L272.35 105.3 Q271.85 103.95 272.2 102.9 281.95 116.65 290.85 135.3 L302.6 151.0 302.6 152.1 301.4 152.2 301.5 155.2 301.25 157.65 300.85 158.4 300.95 158.45 300.6 158.65 299.7 159.35 296.9 162.05 Q293.15 166.1 287.95 169.65 L281.35 173.9 Q277.6 176.85 274.4 182.5 272.1 186.65 269.8 193.45 L268.8 196.4 Q270.65 194.05 273.6 191.55 280.7 185.55 287.95 182.3 L288.1 182.4 288.3 182.6 Q294.55 177.15 296.3 172.55 298.0 167.95 300.9 164.1 L303.7 160.55 306.4 163.5 306.5 163.6 306.7 163.45 Q309.3 165.9 312.55 167.6 312.0 169.9 310.0 172.05 L309.1 172.85 308.7 172.95 308.8 173.15 M93.75 321.55 L93.3 319.45 92.75 316.6 Q99.45 319.8 106.85 322.85 111.6 330.35 121.65 335.95 123.95 340.0 126.5 347.8 130.65 356.95 141.5 366.15 150.45 373.7 169.0 379.05 184.35 383.5 193.45 383.5 L200.05 383.2 195.9 385.1 Q189.85 387.55 183.5 388.85 L176.4 389.9 Q170.8 390.35 165.0 390.0 L159.55 389.45 Q146.3 387.55 135.0 381.05 128.1 377.1 121.95 371.4 115.8 365.65 110.4 358.25 L108.65 355.75 Q105.65 351.4 103.2 346.9 98.65 338.5 95.8 329.35 94.6 325.5 93.75 321.55 M126.9 80.5 L129.8 80.2 130.95 80.1 129.8 80.2 130.95 80.1 131.0 80.85 Q130.35 82.1 129.9 83.5 L125.55 90.45 123.15 95.1 Q121.0 99.4 120.5 106.65 120.25 110.45 120.5 114.2 L120.65 116.25 121.15 120.0 118.2 122.25 117.65 122.7 122.15 134.4 117.65 122.7 118.2 122.25 121.15 120.0 121.3 120.85 Q122.6 127.85 125.7 136.25 128.4 143.5 130.7 150.9 L131.85 154.6 132.5 157.3 132.5 157.45 128.0 157.55 125.6 157.8 124.2 158.0 112.35 158.65 112.5 157.6 Q112.8 154.9 112.25 153.1 111.35 150.35 109.5 148.75 107.8 147.2 106.55 146.65 L106.45 146.55 105.9 145.15 108.2 144.45 105.75 144.95 Q105.05 144.2 103.85 144.2 104.35 142.4 105.25 140.35 107.05 136.4 110.2 131.65 109.85 126.95 110.1 122.4 L110.15 121.1 Q110.75 112.5 113.55 104.35 117.7 92.15 126.7 81.05 L126.95 80.75 126.9 80.5 M258.5 99.4 L258.95 99.5 259.35 99.55 258.9 99.5 258.5 99.4 M210.0 81.35 L210.2 81.7 209.75 81.65 Q208.5 81.95 207.6 81.35 L210.0 81.35 M211.85 84.8 L213.95 88.7 215.6 92.45 216.6 95.95 217.5 100.95 Q217.95 103.8 217.9 108.7 L217.45 118.6 217.2 120.6 Q216.6 124.6 215.15 129.05 L212.5 137.05 Q211.75 139.5 210.25 146.9 L210.15 147.25 210.15 147.3 208.9 154.0 208.55 157.55 Q208.4 160.7 209.35 165.45 205.0 163.5 201.1 161.4 202.5 144.3 207.55 130.45 210.55 122.1 212.65 111.75 214.75 101.4 214.15 96.2 213.55 90.95 212.25 86.15 L211.85 84.8 M175.15 56.8 L179.8 56.5 179.8 56.45 Q185.3 54.55 189.35 58.5 191.85 60.95 195.65 68.25 197.7 72.2 199.35 74.75 200.8 77.05 201.95 78.25 203.15 79.5 204.5 80.25 206.1 83.05 207.0 86.4 208.4 91.8 208.4 101.85 208.4 112.3 206.95 118.4 206.35 120.8 203.75 127.2 199.5 137.65 199.3 160.4 193.0 156.8 188.05 152.8 175.0 144.05 163.05 152.95 158.8 158.05 154.75 160.6 148.2 159.1 142.65 158.35 L139.85 158.0 139.6 155.55 138.45 147.6 Q137.8 144.1 137.2 142.5 L133.4 132.0 Q130.95 125.15 129.2 118.5 L128.8 116.5 128.75 116.15 128.4 112.95 128.35 112.35 128.3 110.4 128.35 108.6 128.5 106.5 Q128.4 103.1 131.0 97.35 L137.7 86.3 Q148.55 70.55 147.1 57.65 L149.2 58.5 Q158.35 61.9 160.9 66.4 163.45 70.9 165.0 76.0 165.85 78.85 167.7 80.8 L168.8 81.75 169.45 82.25 169.65 82.35 169.95 82.45 170.0 82.2 170.1 81.7 170.1 81.65 170.75 80.65 Q171.9 78.5 172.15 76.45 L172.45 67.5 Q172.5 63.15 173.05 60.65 173.4 58.95 175.15 56.8 M250.2 130.4 Q265.05 174.75 227.9 171.75 L226.85 171.65 225.35 171.2 Q217.5 168.95 210.8 166.1 210.65 160.6 210.8 158.1 211.0 154.75 215.25 140.75 218.8 129.0 220.85 120.8 L221.65 117.8 Q223.75 108.8 222.05 96.9 221.65 94.4 220.5 90.9 L218.45 85.6 Q220.7 86.85 221.6 89.15 223.05 92.7 223.85 93.4 225.75 95.0 230.25 96.15 L250.2 130.4 M185.25 80.9 L170.1 81.7 185.25 80.9 M184.15 82.4 L169.75 83.3 169.95 82.45 169.75 83.3 184.15 82.4 M157.05 82.4 L168.8 81.75 157.05 82.4 M263.7 209.3 L260.5 207.75 263.7 209.3 265.6 210.25 Q268.9 206.3 276.4 198.3 278.1 196.25 284.55 193.55 L287.55 192.35 Q290.8 191.05 291.8 191.1 293.9 191.25 294.45 192.15 L294.65 193.35 300.1 192.5 Q301.75 191.05 304.35 190.05 L309.4 188.0 309.4 186.2 304.25 186.2 299.5 187.95 295.95 188.3 290.9 187.7 Q281.85 187.7 273.7 196.9 267.15 205.9 263.7 209.3 M275.1 212.75 L279.65 209.45 Q284.75 205.55 288.7 201.8 294.5 196.25 294.65 194.35 L294.65 193.35 Q289.55 194.25 287.65 195.05 286.65 195.5 284.4 197.1 L281.6 199.4 274.4 206.85 269.0 212.0 272.3 213.75 273.05 214.2 275.1 212.75 282.35 210.4 285.3 209.55 286.0 209.8 286.05 209.8 286.0 209.8 285.3 209.55 282.35 210.4 275.1 212.75 M316.65 220.5 L316.35 216.1 315.3 215.8 309.4 213.75 302.9 213.25 Q299.55 212.35 295.95 210.3 293.4 208.8 290.2 208.8 287.4 208.8 286.1 209.7 L286.05 209.8 301.8 215.6 Q315.1 220.7 316.65 220.8 317.05 220.8 316.65 220.5 M276.05 215.85 L273.05 214.2 276.05 215.85 Q291.35 224.6 298.65 232.45 L298.4 232.8 298.4 233.85 Q299.9 233.95 301.8 236.85 303.85 240.05 306.25 240.9 309.4 242.05 319.05 252.65 319.05 251.1 320.5 249.55 321.9 247.95 321.9 247.2 320.5 240.15 319.3 238.55 318.5 237.45 312.95 235.3 L306.75 232.8 293.2 221.85 Q285.1 215.6 279.7 215.6 L276.05 215.85 M269.0 212.0 L268.75 211.85 268.5 211.75 265.6 210.25 268.5 211.75 268.75 211.85 269.0 212.0 M104.2 91.45 L103.4 93.4 Q102.85 94.8 102.6 96.15 L102.55 96.35 102.5 96.55 101.9 99.85 Q96.85 102.35 94.9 107.15 93.45 110.8 93.45 117.5 L93.35 128.35 Q93.1 130.95 92.4 133.05 L90.2 131.25 89.0 130.45 Q81.95 125.9 70.95 125.3 82.3 106.95 95.2 97.15 99.45 93.9 104.2 91.45 M139.45 99.75 L146.5 108.25 141.95 110.7 Q137.35 113.0 132.05 115.2 L128.35 108.6 132.05 115.2 Q137.35 113.0 141.95 110.7 L146.5 108.25 139.45 99.75 M157.7 84.0 L169.75 83.3 Q167.55 91.6 159.6 98.95 L151.25 92.7 159.6 98.95 Q167.55 91.6 169.75 83.3 L157.7 84.0 M103.5 229.25 Q124.0 235.5 146.8 237.9 L152.4 238.4 Q162.4 279.7 155.7 319.95 L154.0 320.05 Q152.6 320.05 140.7 315.4 128.8 310.7 122.55 310.7 121.95 310.7 116.8 312.55 111.65 314.4 105.9 314.4 101.35 314.4 91.05 311.35 L89.8 310.25 Q86.9 307.9 79.35 303.2 71.6 298.45 68.0 295.55 62.0 290.8 59.05 285.7 57.15 282.4 53.0 277.05 48.6 271.25 46.8 268.3 42.5 261.4 40.9 253.0 L40.9 252.85 Q40.9 248.7 43.1 244.65 45.75 239.8 50.25 238.1 L41.35 236.8 Q35.15 235.25 35.15 231.4 L37.05 224.1 Q37.05 222.8 36.5 221.35 35.9 219.95 35.9 218.3 L35.65 218.2 36.1 216.65 36.35 216.75 Q36.75 215.95 37.55 215.3 L40.65 212.5 Q41.75 211.1 44.9 210.15 47.6 209.35 49.1 209.6 L49.3 209.6 49.05 209.1 45.8 205.45 Q44.0 203.35 44.0 201.0 L44.0 194.35 43.9 194.35 44.0 194.05 45.15 191.55 45.35 191.0 45.55 190.65 45.6 190.7 45.35 191.0 Q46.9 196.85 50.25 201.55 53.0 205.45 57.85 209.9 60.1 210.0 62.65 210.8 67.05 212.2 69.95 213.3 74.0 214.75 75.1 215.4 L79.5 219.6 79.6 219.75 79.7 219.8 79.6 219.8 79.6 219.75 76.7 219.3 73.75 218.75 68.05 219.4 62.9 220.75 Q54.7 223.65 52.2 223.65 50.9 223.65 49.7 222.95 48.6 222.3 48.6 221.65 L48.7 221.05 50.45 220.05 Q53.55 218.4 55.9 218.15 L56.3 218.1 61.0 218.4 Q58.65 216.8 56.55 214.95 L48.4 214.8 Q45.4 216.45 43.4 218.75 41.0 221.5 41.0 223.65 41.0 225.3 44.6 228.0 48.5 230.9 51.85 230.9 52.95 230.9 55.95 227.6 58.4 224.9 59.8 224.3 L60.35 224.1 65.75 222.4 Q70.35 221.05 74.15 220.4 L78.65 219.85 80.65 220.8 82.65 221.65 83.2 221.9 Q90.35 224.9 97.8 227.45 L103.5 229.25 M155.7 119.4 L146.5 108.25 Q152.3 104.95 156.75 101.45 L159.6 98.95 170.15 106.75 159.6 98.95 156.75 101.45 Q152.3 104.95 146.5 108.25 L155.7 119.4 M113.4 113.35 L117.65 122.7 115.25 124.85 112.75 127.55 Q111.15 129.55 110.2 131.65 111.15 129.55 112.75 127.55 L115.25 124.85 117.65 122.7 113.4 113.35 M139.05 127.6 L132.05 115.2 128.8 116.5 132.05 115.2 139.05 127.6 M61.85 218.45 L62.95 218.55 61.85 218.45 M53.2 210.6 Q54.2 210.2 55.3 210.05 L57.85 209.9 55.3 210.05 Q54.2 210.2 53.2 210.6 M152.2 336.45 L152.3 336.05 152.2 336.45 M323.85 234.5 L323.6 230.95 323.35 229.5 309.75 224.45 299.75 220.5 Q301.7 221.6 304.0 223.25 310.7 228.05 312.55 228.7 L312.5 228.95 Q318.7 231.4 323.85 234.5" fill="#0099cc" fill-rule="evenodd" stroke="none"/>
    <path d="M259.8 71.7 L261.7 70.55 265.25 70.4 Q271.5 70.4 274.4 72.25 275.6 73.0 277.1 75.0 277.3 75.3 277.3 78.0 L277.3 81.7 Q276.2 78.1 274.05 76.0 L271.4 73.7 270.95 73.5 Q265.75 71.2 260.35 71.65 L259.8 71.7 M260.3 99.45 L259.5 99.45 259.35 99.55 258.95 99.5 258.5 99.4 257.5 99.1 257.4 99.05 256.7 98.75 258.05 96.6 Q260.55 92.0 259.5 86.3 258.6 81.6 255.8 78.5 L254.45 77.15 252.7 75.85 253.7 75.85 Q257.25 78.25 259.55 81.45 L261.3 81.25 266.0 82.1 265.8 82.3 Q263.3 82.05 261.95 84.6 L261.7 85.1 Q263.7 89.4 263.1 92.95 L267.25 92.75 268.1 92.75 Q268.15 94.05 266.45 95.25 264.8 96.4 263.1 96.55 262.2 96.6 261.05 98.5 L260.3 99.45 M257.65 72.05 Q255.25 72.55 250.5 74.55 L250.3 74.6 250.15 74.6 246.7 72.6 Q240.25 69.1 233.5 67.25 246.95 59.4 253.2 57.5 258.85 62.15 262.75 68.05 260.25 69.05 258.35 71.2 L257.65 72.05" fill="#77b33c" fill-rule="evenodd" stroke="none"/>
    <path d="M270.95 73.5 L271.4 73.7 274.05 76.0 Q276.2 78.1 277.3 81.7 L277.3 78.0 Q277.3 75.3 277.1 75.0 275.6 73.0 274.4 72.25 271.5 70.4 265.25 70.4 L261.7 70.55 259.8 71.7 260.35 71.65 Q265.75 71.2 270.95 73.5 M253.2 57.5 Q255.5 56.75 256.8 56.85 259.45 57.0 261.55 57.8 L262.6 58.15 Q274.3 65.85 277.6 71.65 280.8 77.45 280.1 84.75 279.3 91.95 275.6 94.3 L270.85 97.25 265.4 98.75 260.3 99.45 261.05 98.5 Q262.2 96.6 263.1 96.55 264.8 96.4 266.45 95.25 268.15 94.05 268.1 92.75 L267.25 92.75 263.1 92.95 Q263.7 89.4 261.7 85.1 L261.95 84.6 Q263.3 82.05 265.8 82.3 L266.0 82.1 261.3 81.25 259.55 81.45 Q257.25 78.25 253.7 75.85 L252.7 75.85 250.55 74.85 250.35 74.75 250.3 74.6 250.5 74.55 Q255.25 72.55 257.65 72.05 L258.35 71.2 Q260.25 69.05 262.75 68.05 258.85 62.15 253.2 57.5 M257.65 72.05 L259.8 71.7 257.65 72.05 M267.55 67.1 Q264.9 67.15 262.75 68.05 264.9 67.15 267.55 67.1" fill="#99cc66" fill-rule="evenodd" stroke="none"/>
    <path d="M250.55 74.85 L252.7 75.85 254.45 77.15 255.8 78.5 Q258.6 81.6 259.5 86.3 260.55 92.0 258.05 96.6 L256.7 98.75 256.25 99.1 255.95 99.35 Q254.2 100.4 252.95 99.0 L252.9 98.95 Q255.75 97.15 256.35 95.15 L256.6 89.4 Q256.6 83.85 255.55 82.2 254.15 80.0 246.85 74.45 L250.1 74.75 250.55 74.85" fill="#99cc33" fill-rule="evenodd" stroke="none"/>
    <path d="M250.3 74.6 L250.35 74.75 250.25 74.7 250.3 74.6 250.2 74.65 250.15 74.6 250.3 74.6 M37.65 171.0 L40.0 171.9 40.2 171.95 46.25 174.0 Q55.95 177.1 64.9 178.4 L64.9 179.1 Q68.3 180.7 81.05 182.6 90.65 184.0 90.65 186.95 90.65 189.7 87.4 190.05 82.3 190.6 81.45 191.05 81.4 193.05 83.5 194.9 L85.6 196.6 85.4 196.6 77.65 195.9 70.3 194.7 Q58.55 191.65 48.5 187.65 L42.6 185.15 40.25 184.05 30.45 177.0 Q19.25 169.35 11.6 159.75 L9.15 156.5 Q19.9 162.55 29.65 167.25 L37.65 171.0" fill="#ff9900" fill-rule="evenodd" stroke="none"/>
    <path d="M303.75 160.5 L303.7 160.55 300.9 164.1 Q298.0 167.95 296.3 172.55 294.55 177.15 288.3 182.6 L288.1 182.4 287.95 182.3 Q280.7 185.55 273.6 191.55 270.65 194.05 268.8 196.4 L269.8 193.45 Q272.1 186.65 274.4 182.5 277.6 176.85 281.35 173.9 L287.95 169.65 Q293.15 166.1 296.9 162.05 L299.7 159.35 300.6 158.65 300.95 158.45 301.55 158.15 302.15 157.95 Q302.5 158.95 303.3 160.0 L303.45 160.2 303.75 160.5 M265.5 300.65 L265.25 300.7 Q258.2 301.05 251.0 300.9 L249.5 300.85 249.45 301.1 244.55 300.7 248.2 309.95 247.75 313.3 247.15 317.85 246.55 321.85 246.25 323.75 245.05 329.8 244.35 332.15 Q242.4 337.3 240.0 342.15 L238.25 345.4 Q235.45 350.4 232.1 355.05 L226.3 362.35 223.4 365.5 223.25 365.65 Q218.45 370.7 213.35 374.7 L206.4 379.65 200.05 383.2 193.45 383.5 Q184.35 383.5 169.0 379.05 150.45 373.7 141.5 366.15 130.65 356.95 126.5 347.8 123.95 340.0 121.65 335.95 111.6 330.35 106.85 322.85 124.05 329.85 145.1 335.9 L151.85 337.75 163.35 340.75 170.05 342.35 Q175.25 329.55 177.7 316.4 181.85 293.7 177.85 270.0 L183.8 268.2 Q194.5 269.2 205.35 266.35 L212.4 264.1 Q212.7 278.95 215.05 294.55 219.2 297.5 223.15 298.65 227.0 299.8 230.65 299.25 L231.7 299.05 231.8 299.05 241.9 300.4 242.35 300.45 244.55 300.7 242.35 300.45 241.9 300.4 231.8 299.05 231.7 299.05 Q228.9 282.25 228.95 265.3 L229.0 261.25 229.55 265.95 Q231.3 277.65 235.4 283.3 242.6 293.35 262.85 293.35 267.05 293.35 270.7 290.85 276.25 287.05 279.7 285.7 L277.85 289.1 Q275.3 295.75 270.8 298.25 266.75 300.5 265.5 300.65 M259.35 99.55 L262.75 99.75 262.9 99.75 263.1 99.75 263.3 99.75 263.5 99.75 269.4 99.05 272.2 102.9 Q271.85 103.95 272.35 105.3 L261.35 105.3 Q255.45 103.1 252.05 103.1 249.7 103.1 249.05 104.05 248.45 104.85 247.25 105.35 L244.7 99.8 244.7 99.55 244.75 99.45 244.25 98.7 247.1 98.7 249.15 98.45 249.95 98.3 252.1 97.55 252.6 98.5 252.9 98.95 252.95 99.0 Q254.2 100.4 255.95 99.35 L256.25 99.1 256.7 98.75 257.4 99.05 257.5 99.1 258.5 99.4 258.9 99.5 259.35 99.55 M233.5 67.25 Q240.25 69.1 246.7 72.6 L250.15 74.6 250.1 74.75 246.85 74.45 245.95 74.6 245.1 74.9 244.2 75.35 237.6 74.45 235.25 74.25 234.55 74.15 230.65 66.6 233.5 67.25 M194.55 43.75 L212.3 63.2 211.0 63.05 230.25 96.15 Q225.75 95.0 223.85 93.4 223.05 92.7 221.6 89.15 220.7 86.85 218.45 85.6 L215.05 78.15 Q209.25 70.1 204.6 62.5 L203.55 60.75 Q198.3 52.0 194.55 43.75 M176.5 55.3 L177.0 54.75 178.65 53.15 183.85 47.3 184.3 46.8 187.45 43.05 188.85 41.5 191.4 47.45 194.85 54.25 207.55 77.0 208.6 78.85 210.0 81.35 207.6 81.35 Q208.5 81.95 209.75 81.65 L210.2 81.7 Q211.0 82.1 211.85 84.8 L212.25 86.15 Q213.55 90.95 214.15 96.2 214.75 101.4 212.65 111.75 210.55 122.1 207.55 130.45 202.5 144.3 201.1 161.4 205.0 163.5 209.35 165.45 L209.45 165.85 Q210.1 169.2 210.95 170.0 L210.8 166.1 Q217.5 168.95 225.35 171.2 L226.85 171.65 227.9 171.75 Q265.05 174.75 250.2 130.4 L254.3 137.5 255.8 140.15 257.25 143.35 259.15 148.5 260.4 152.8 260.65 153.85 Q261.3 157.5 261.05 161.5 260.65 167.4 258.35 172.35 256.5 176.2 253.45 179.55 L249.85 182.9 Q247.3 185.0 244.55 186.55 239.9 189.1 234.7 190.05 L225.65 190.55 221.1 189.95 216.5 188.8 221.1 189.95 225.65 190.55 234.7 190.05 Q239.9 189.1 244.55 186.55 239.0 192.65 241.9 199.35 L239.6 198.35 234.0 196.05 224.05 192.15 223.35 194.0 223.2 194.4 221.5 193.25 217.35 189.8 216.5 188.8 Q208.7 177.15 190.0 166.2 L172.1 165.25 170.95 164.9 170.8 164.9 169.55 164.5 158.55 161.5 154.75 160.6 Q158.8 158.05 163.05 152.95 175.0 144.05 188.05 152.8 193.0 156.8 199.3 160.4 199.5 137.65 203.75 127.2 206.35 120.8 206.95 118.4 208.4 112.3 208.4 101.85 208.4 91.8 207.0 86.4 206.1 83.05 204.5 80.25 203.15 79.5 201.95 78.25 200.8 77.05 199.35 74.75 197.7 72.2 195.65 68.25 191.85 60.95 189.35 58.5 185.3 54.55 179.8 56.45 L179.8 56.5 175.15 56.8 176.5 55.3 M210.2 81.7 L211.85 84.8 210.2 81.7 M269.45 165.5 L269.5 165.5 Q268.15 173.3 260.7 180.7 L259.7 177.2 262.2 174.6 Q265.25 171.05 266.55 167.8 L269.7 159.8 Q269.1 164.3 269.15 165.4 L269.45 165.5 M263.7 209.3 Q267.15 205.9 273.7 196.9 281.85 187.7 290.9 187.7 L295.95 188.3 299.5 187.95 304.25 186.2 309.4 186.2 309.4 188.0 304.35 190.05 Q301.75 191.05 300.1 192.5 L294.65 193.35 294.65 194.35 Q294.5 196.25 288.7 201.8 284.75 205.55 279.65 209.45 L275.1 212.75 272.3 213.75 269.0 212.0 274.4 206.85 281.6 199.4 284.4 197.1 Q286.65 195.5 287.65 195.05 289.55 194.25 294.65 193.35 L294.45 192.15 Q293.9 191.25 291.8 191.1 290.8 191.05 287.55 192.35 L284.55 193.55 Q278.1 196.25 276.4 198.3 268.9 206.3 265.6 210.25 L263.7 209.3 M286.05 209.8 L286.1 209.7 Q287.4 208.8 290.2 208.8 293.4 208.8 295.95 210.3 299.55 212.35 302.9 213.25 L309.4 213.75 315.3 215.8 316.35 216.1 316.65 220.5 Q317.05 220.8 316.65 220.8 315.1 220.7 301.8 215.6 L286.05 209.8 M276.05 215.85 L279.7 215.6 Q285.1 215.6 293.2 221.85 L306.75 232.8 312.95 235.3 Q318.5 237.45 319.3 238.55 320.5 240.15 321.9 247.2 321.9 247.95 320.5 249.55 319.05 251.1 319.05 252.65 309.4 242.05 306.25 240.9 303.85 240.05 301.8 236.85 299.9 233.95 298.4 233.85 L298.4 232.8 298.65 232.45 Q291.35 224.6 276.05 215.85 M135.05 157.55 L133.9 149.65 Q133.25 146.15 132.65 144.55 L128.85 134.05 Q126.4 127.2 124.65 120.55 L124.2 118.2 123.85 115.0 123.8 114.4 123.75 112.45 123.95 108.55 Q123.85 105.15 126.45 99.4 L133.15 88.35 Q144.0 72.6 142.5 59.85 L142.65 58.05 142.7 55.9 147.1 57.65 Q148.55 70.55 137.7 86.3 L131.0 97.35 Q128.4 103.1 128.5 106.5 L128.35 108.6 126.85 105.95 128.35 108.6 128.3 110.4 128.35 112.35 128.4 112.95 128.75 116.15 128.8 116.5 129.2 118.5 Q130.95 125.15 133.4 132.0 L137.2 142.5 Q137.8 144.1 138.45 147.6 L139.6 155.55 139.85 158.0 137.4 157.75 135.05 157.55 M101.9 99.85 Q99.9 112.0 102.0 132.75 102.5 138.15 103.35 144.2 100.1 145.4 97.8 140.5 L97.8 140.45 97.4 139.55 95.35 136.35 92.4 133.05 Q93.1 130.95 93.35 128.35 L93.45 117.5 Q93.45 110.8 94.9 107.15 96.85 102.35 101.9 99.85 M45.6 190.7 L46.65 191.55 Q67.55 208.45 97.8 227.45 90.35 224.9 83.2 221.9 L82.65 221.65 80.65 220.8 79.7 219.8 79.6 219.75 79.5 219.6 75.1 215.4 Q74.0 214.75 69.95 213.3 67.05 212.2 62.65 210.8 60.1 210.0 57.85 209.9 53.0 205.45 50.25 201.55 46.9 196.85 45.35 191.0 L45.6 190.7 M124.2 118.2 L126.55 117.35 128.8 116.5 126.55 117.35 124.2 118.2 M48.7 221.05 L48.6 221.65 Q48.6 222.3 49.7 222.95 50.9 223.65 52.2 223.65 54.7 223.65 62.9 220.75 L68.05 219.4 73.75 218.75 76.7 219.3 79.6 219.75 79.6 219.8 78.65 219.85 74.15 220.4 Q70.35 221.05 65.75 222.4 L60.35 224.1 59.8 224.3 Q58.4 224.9 55.95 227.6 52.95 230.9 51.85 230.9 48.5 230.9 44.6 228.0 41.0 225.3 41.0 223.65 41.0 221.5 43.4 218.75 45.4 216.45 48.4 214.8 L56.55 214.95 Q58.65 216.8 61.0 218.4 L56.3 218.1 55.9 218.15 Q53.55 218.4 50.45 220.05 L48.7 221.05 Q46.6 222.5 46.45 223.8 L46.35 225.55 46.35 225.65 51.8 226.6 59.8 224.3 51.8 226.6 46.35 225.65 46.35 225.55 46.45 223.8 Q46.6 222.5 48.7 221.05 M91.05 311.35 Q101.35 314.4 105.9 314.4 111.65 314.4 116.8 312.55 121.95 310.7 122.55 310.7 128.8 310.7 140.7 315.4 152.6 320.05 154.0 320.05 L155.7 319.95 Q154.35 328.0 152.3 336.05 L152.2 336.45 150.8 336.05 145.45 334.45 Q118.4 326.4 97.9 316.6 L94.25 314.8 Q93.0 313.05 91.05 311.35 M215.15 295.4 L215.05 294.55 215.15 295.4 M299.15 233.0 L298.65 232.45 299.15 233.0 M312.5 228.95 L312.55 228.7 Q310.7 228.05 304.0 223.25 301.7 221.6 299.75 220.5 L309.75 224.45 323.35 229.5 323.6 230.95 323.85 234.5 Q318.7 231.4 312.5 228.95" fill="#0182a0" fill-rule="evenodd" stroke="none"/>
    <path d="M246.85 74.45 Q254.15 80.0 255.55 82.2 256.6 83.85 256.6 89.4 L256.35 95.15 Q255.75 97.15 252.9 98.95 L252.6 98.5 252.1 97.55 252.4 97.4 Q254.8 96.2 255.15 91.2 255.5 86.2 252.65 82.4 250.05 78.9 248.45 77.55 L248.2 77.35 246.65 76.25 245.8 75.65 244.2 75.35 245.1 74.9 245.95 74.6 246.85 74.45" fill="#89b02d" fill-rule="evenodd" stroke="none"/>
    <path d="M133.5 53.75 L135.2 55.15 135.2 55.2 135.15 55.3 135.3 57.15 134.95 57.1 134.25 57.0 133.15 56.85 133.1 56.85 132.85 56.8 131.3 56.45 133.2 59.25 Q134.4 61.2 134.25 63.1 L133.95 64.25 133.0 64.95 130.75 61.0 130.65 60.75 Q128.8 57.6 128.95 56.0 129.0 55.0 129.65 55.05 L130.85 55.2 131.7 55.25 131.95 55.2 133.25 54.05 133.5 53.75 M246.65 76.25 L248.2 77.35 248.45 77.55 Q250.05 78.9 252.65 82.4 255.5 86.2 255.15 91.2 254.8 96.2 252.4 97.4 L252.1 97.55 249.95 98.3 249.15 98.45 247.1 98.7 244.25 98.7 243.05 97.6 242.85 97.4 242.1 96.8 242.85 97.4 243.05 97.6 244.25 98.7 244.75 99.45 Q244.65 99.6 244.7 99.8 244.65 99.6 244.75 99.45 L244.7 99.55 244.7 99.8 Q244.45 100.8 243.05 100.9 L243.25 100.3 242.75 99.45 241.4 98.2 241.3 97.95 Q241.35 97.55 242.1 96.8 L244.65 96.8 245.3 96.75 Q247.75 96.5 249.95 95.45 252.3 94.35 252.7 89.65 L252.7 89.3 Q252.9 86.2 251.9 83.6 251.25 81.95 250.15 80.5 L246.65 76.25 M142.35 50.35 Q156.75 58.85 166.35 58.75 170.8 58.7 174.2 56.85 L176.5 55.3 175.15 56.8 Q173.4 58.95 173.05 60.65 172.5 63.15 172.45 67.5 L172.15 76.45 Q171.9 78.5 170.75 80.65 L170.1 81.65 170.1 81.7 169.75 82.2 169.65 82.35 169.45 82.25 168.8 81.75 170.1 81.7 168.8 81.75 167.7 80.8 Q165.85 78.85 165.0 76.0 163.45 70.9 160.9 66.4 158.35 61.9 149.2 58.5 L147.1 57.65 142.7 55.9 Q142.7 53.1 142.35 50.35 M227.35 77.7 L226.35 76.85 Q225.0 75.65 225.15 73.55 L225.2 73.15 Q225.3 72.4 225.75 72.05 225.85 72.65 226.35 73.35 227.55 74.95 231.1 76.75 L234.85 78.45 234.15 78.3 231.0 78.55 Q230.1 78.8 229.35 79.25 L227.65 77.95 227.35 77.7 M228.35 88.65 L228.15 87.8 228.1 87.0 228.1 86.95 Q228.3 84.8 230.75 82.3 L232.15 81.0 Q233.3 80.05 235.35 80.55 L236.2 82.0 Q233.95 81.7 232.8 82.7 231.45 83.8 230.6 84.9 L229.3 86.8 Q228.8 87.75 228.75 88.65 L228.35 88.65 M232.35 93.0 L232.3 92.95 232.05 92.65 Q231.25 91.65 231.3 90.55 L231.35 90.2 231.4 89.95 231.4 89.9 Q231.75 88.2 233.25 86.2 235.15 83.55 237.15 83.55 L239.2 87.0 238.15 86.9 Q236.4 86.75 234.45 89.4 233.55 90.6 233.1 91.7 L232.65 93.1 232.35 93.0 M236.1 97.25 Q235.3 96.85 234.9 96.25 234.4 95.55 234.35 94.65 L234.35 94.35 Q234.4 93.8 236.3 91.8 238.0 90.0 238.7 89.55 L240.7 89.45 242.35 92.15 240.4 92.15 238.0 94.45 Q236.1 96.4 236.05 96.95 L236.05 97.05 236.1 97.25 M151.85 172.35 L151.85 172.2 153.65 172.25 Q158.15 172.25 165.05 171.05 L170.0 169.6 175.8 169.4 181.55 169.6 Q183.35 169.55 187.15 172.1 L189.55 172.0 Q191.4 172.1 193.85 174.55 L195.2 175.85 189.9 173.1 175.8 170.75 158.95 173.0 159.65 174.3 167.95 174.8 179.95 174.3 180.05 174.25 184.95 174.5 Q186.05 174.75 190.7 176.9 193.8 178.25 194.5 178.9 L195.45 180.75 191.15 178.0 176.2 175.75 168.55 178.3 166.4 178.2 Q164.35 178.0 162.8 177.2 L161.2 176.1 155.95 175.45 Q152.8 174.55 151.85 172.35 M159.65 174.3 Q160.3 175.3 161.2 176.1 160.3 175.3 159.65 174.3 M185.65 182.05 L179.55 181.8 179.05 181.9 179.0 181.9 169.6 181.45 Q168.3 180.95 167.5 180.2 L170.6 180.8 174.5 180.15 Q176.35 179.5 178.25 179.45 L178.45 179.45 Q184.75 178.95 188.7 180.6 192.9 182.45 199.85 189.05 L205.15 195.15 Q208.0 198.75 209.3 199.55 212.75 201.7 217.8 202.55 L220.4 202.95 218.25 210.7 207.8 206.75 Q201.4 203.9 199.55 197.7 197.65 191.45 186.45 182.95 L185.85 182.05 185.65 182.05 M103.35 144.2 L103.5 144.2 103.85 144.2 Q105.05 144.2 105.75 144.95 L103.5 145.25 103.35 145.25 103.1 145.3 100.3 145.15 Q99.3 144.8 97.15 142.25 L97.0 142.05 96.5 141.45 95.75 139.65 Q94.45 136.95 92.1 133.95 L89.25 130.7 90.2 131.25 92.4 133.05 95.35 136.35 97.4 139.55 97.8 140.45 97.8 140.5 Q100.1 145.4 103.35 144.2 M130.1 64.1 L131.65 65.7 Q131.15 66.55 130.05 66.6 L129.95 66.55 129.45 66.5 Q128.7 66.3 127.8 65.6 L126.35 64.4 126.2 64.2 125.65 63.6 Q123.95 61.85 123.25 60.35 L123.25 60.3 123.25 60.25 123.65 58.6 Q124.0 57.6 124.9 57.65 L125.1 57.65 125.2 57.65 125.2 57.75 125.25 57.9 Q125.6 59.3 127.05 61.1 L127.95 62.05 128.65 62.85 130.05 64.05 130.1 64.1 M129.85 73.8 L131.25 74.3 131.45 74.4 132.15 74.7 132.55 75.0 Q131.8 75.95 129.55 76.2 L126.45 76.2 125.9 76.15 125.8 76.15 123.8 75.85 123.85 75.75 123.85 75.7 124.5 73.85 124.65 73.55 126.7 73.8 126.9 73.8 129.85 73.8 M123.9 66.0 L124.0 66.05 124.4 66.35 125.65 67.25 127.4 68.5 128.7 69.05 129.6 69.35 130.2 69.45 131.7 69.65 132.25 69.5 132.4 70.0 132.45 70.15 132.45 70.65 132.15 71.75 Q131.9 72.1 131.45 72.05 L127.95 71.3 127.1 70.9 126.15 70.2 124.45 68.95 124.15 68.75 122.6 67.4 122.55 67.35 122.5 67.3 122.45 67.3 122.55 67.25 122.8 66.85 123.35 66.4 123.9 66.0 M64.9 178.4 Q55.95 177.1 46.25 174.0 L40.2 171.95 46.65 172.8 Q65.3 174.55 82.4 168.4 L82.7 168.35 Q94.05 171.95 101.6 170.95 L105.6 170.0 Q108.5 168.95 110.65 166.95 111.15 165.2 111.15 163.75 111.15 162.2 110.65 160.9 L110.8 157.7 110.7 153.75 Q110.4 150.9 107.9 149.1 106.2 147.85 102.55 147.1 L100.65 146.7 98.6 146.4 106.55 146.65 Q107.8 147.2 109.5 148.75 111.35 150.35 112.25 153.1 112.8 154.9 112.5 157.6 L112.35 158.65 111.95 160.65 112.7 162.2 Q113.3 164.1 112.5 166.65 111.9 168.4 110.7 170.5 L108.7 171.6 107.2 172.4 Q89.35 181.6 66.2 178.55 L64.9 178.4 M177.85 270.0 L177.45 267.6 176.65 263.8 Q187.55 262.7 188.55 261.8 L191.85 259.2 Q194.65 257.0 197.6 253.6 L205.55 243.2 Q210.6 236.15 212.95 233.7 L213.7 235.45 Q212.05 249.4 212.4 264.1 L205.35 266.35 Q194.5 269.2 183.8 268.2 L177.85 270.0 M215.5 223.35 L215.2 225.2 204.7 230.75 Q194.85 235.55 192.3 235.55 188.85 235.55 187.6 233.25 186.65 231.5 186.65 227.3 186.65 219.3 190.75 216.85 190.1 218.95 190.5 221.3 191.1 225.1 194.15 226.45 195.55 227.05 197.5 227.1 203.35 227.3 207.85 226.05 L208.15 225.95 Q212.75 224.6 215.5 223.35" fill="#ffd5c1" fill-rule="evenodd" stroke="none"/>
    <path d="M132.65 77.3 L132.5 77.55 131.55 78.3 Q129.95 79.2 126.45 79.5 L124.65 79.5 124.4 79.5 124.4 79.4 124.35 79.35 123.55 78.2 123.5 78.1 123.4 76.85 123.8 75.85 125.8 76.15 125.9 76.15 126.45 76.2 129.55 76.2 Q131.8 75.95 132.55 75.0 L132.9 75.3 Q133.45 76.05 132.65 77.3 M131.8 52.45 L131.9 52.5 133.5 53.75 133.25 54.05 131.95 55.2 131.7 55.25 130.85 55.2 129.65 55.05 Q129.0 55.0 128.95 56.0 128.8 57.6 130.65 60.75 L130.75 61.0 133.0 64.95 132.6 65.05 132.4 65.05 132.35 65.05 132.25 65.05 131.9 65.0 Q131.1 64.8 130.1 64.1 L130.05 64.05 128.65 62.85 127.95 62.05 127.05 61.1 Q125.6 59.3 125.25 57.9 L125.2 57.75 125.2 57.65 126.9 57.8 126.9 57.2 Q126.95 56.1 128.05 55.0 L128.8 54.3 129.4 53.9 130.65 53.05 131.8 52.45 M135.2 55.15 L135.25 54.3 135.25 54.2 135.45 52.75 135.55 52.6 136.45 51.45 137.2 50.85 137.6 52.6 137.6 52.65 138.0 56.2 137.9 59.95 137.9 60.05 137.65 61.9 137.65 62.15 Q136.05 59.55 135.5 58.0 L135.3 57.15 135.15 55.3 135.2 55.2 135.2 55.15 M244.2 75.35 L245.8 75.65 246.65 76.25 250.15 80.5 Q251.25 81.95 251.9 83.6 252.9 86.2 252.7 89.3 L252.7 89.65 Q252.3 94.35 249.95 95.45 247.75 96.5 245.3 96.75 L244.65 96.8 242.1 96.8 Q241.35 97.55 241.3 97.95 L241.4 98.2 242.75 99.45 243.25 100.3 243.05 100.9 242.25 100.9 Q239.5 100.7 238.0 99.95 L237.4 99.6 Q236.15 98.7 236.1 97.3 234.25 97.05 233.5 96.2 232.45 95.05 232.55 93.85 L232.55 93.8 232.6 93.4 232.6 93.25 232.65 93.15 232.65 93.1 233.1 91.7 Q233.55 90.6 234.45 89.4 236.4 86.75 238.15 86.9 L239.2 87.0 237.15 83.55 Q235.15 83.55 233.25 86.2 231.75 88.2 231.4 89.9 L231.4 89.95 231.35 90.2 231.3 90.55 Q231.25 91.65 232.05 92.65 L232.3 92.95 232.35 93.0 231.85 92.85 Q230.8 92.45 230.1 91.9 228.9 90.9 228.75 89.45 L228.75 88.7 228.75 88.65 Q228.8 87.75 229.3 86.8 L230.6 84.9 Q231.45 83.8 232.8 82.7 233.95 81.7 236.2 82.0 L235.35 80.55 Q233.3 80.05 232.15 81.0 L230.75 82.3 Q228.3 84.8 228.1 86.95 L228.1 87.0 228.15 87.8 228.35 88.65 227.5 88.55 Q225.85 88.1 226.05 85.5 226.2 83.05 227.25 81.35 227.85 80.3 228.85 79.6 L229.35 79.25 Q230.1 78.8 231.0 78.55 L234.15 78.3 234.85 78.45 231.1 76.75 Q227.55 74.95 226.35 73.35 225.85 72.65 225.75 72.05 226.05 71.8 226.55 71.75 L227.0 71.75 Q227.65 71.8 229.75 73.35 L231.35 73.6 234.55 74.15 235.25 74.25 237.6 74.45 244.2 75.35 M172.1 165.25 L190.0 166.2 Q208.7 177.15 216.5 188.8 L217.35 189.8 221.5 193.25 223.2 194.4 220.4 202.95 217.8 202.55 Q212.75 201.7 209.3 199.55 208.0 198.75 205.15 195.15 L199.85 189.05 Q192.9 182.45 188.7 180.6 184.75 178.95 178.45 179.45 L178.25 179.45 Q176.35 179.5 174.5 180.15 L170.6 180.8 167.5 180.2 Q166.9 179.65 166.6 178.9 L168.55 178.3 176.2 175.75 191.15 178.0 195.45 180.75 194.5 178.9 Q193.8 178.25 190.7 176.9 186.05 174.75 184.95 174.5 L180.05 174.25 179.95 174.3 167.95 174.8 159.65 174.3 158.95 173.0 175.8 170.75 189.9 173.1 195.2 175.85 193.85 174.55 Q191.4 172.1 189.55 172.0 L187.15 172.1 Q183.35 169.55 181.55 169.6 L175.8 169.4 170.0 169.6 165.05 171.05 Q158.15 172.25 153.65 172.25 L151.85 172.2 151.85 172.35 151.8 172.2 151.55 171.35 159.3 169.9 Q156.35 170.05 155.85 168.55 L155.75 167.95 169.45 165.2 172.1 165.25 M236.1 97.25 L236.1 97.3 236.1 97.25 236.05 97.05 236.05 96.95 Q236.1 96.4 238.0 94.45 L240.4 92.15 242.35 92.15 240.7 89.45 238.7 89.55 Q238.0 90.0 236.3 91.8 234.4 93.8 234.35 94.35 L234.35 94.65 Q234.4 95.55 234.9 96.25 235.3 96.85 236.1 97.25 M193.75 171.6 L184.35 168.65 171.45 167.6 159.3 169.9 171.45 167.6 184.35 168.65 193.75 171.6 M198.1 182.45 L195.45 180.75 198.1 182.45 M131.65 65.7 L132.6 67.45 132.75 68.25 132.45 69.3 133.05 70.1 133.1 70.2 133.25 71.5 Q133.2 72.15 132.8 72.6 132.0 73.55 129.85 73.8 L126.9 73.8 126.7 73.8 124.65 73.55 124.25 73.45 124.2 73.45 124.25 73.35 123.65 73.05 122.95 72.45 Q122.2 71.55 122.1 69.95 L122.1 68.75 122.15 68.6 Q122.2 67.8 122.5 67.3 L122.55 67.35 122.6 67.4 124.15 68.75 124.45 68.95 126.15 70.2 127.1 70.9 127.95 71.3 131.45 72.05 Q131.9 72.1 132.15 71.75 L132.45 70.65 132.45 70.15 132.4 70.0 132.25 69.5 131.7 69.65 130.2 69.45 129.6 69.35 128.7 69.05 127.4 68.5 125.65 67.25 124.4 66.35 124.0 66.05 123.9 66.0 124.0 65.95 124.65 65.45 123.7 64.1 123.55 63.8 Q123.15 62.85 123.15 61.9 L123.15 61.55 123.25 60.35 Q123.95 61.85 125.65 63.6 L126.2 64.2 126.35 64.4 127.8 65.6 Q128.7 66.3 129.45 66.5 L129.95 66.55 130.05 66.6 Q131.15 66.55 131.65 65.7 M132.45 69.3 L132.25 69.5 132.45 69.3 M40.0 171.9 Q37.85 165.35 39.05 157.8 L39.65 154.9 Q41.85 145.15 45.9 140.4 49.9 135.55 54.65 132.1 58.15 129.55 66.25 127.95 L69.75 127.35 72.7 126.9 76.8 127.25 Q83.95 128.05 89.25 130.7 L92.1 133.95 Q94.45 136.95 95.75 139.65 L96.5 141.45 97.0 142.05 97.15 142.25 Q99.3 144.8 100.3 145.15 L103.1 145.3 103.35 145.25 103.5 145.25 105.75 144.95 105.9 145.15 105.75 144.95 108.2 144.45 105.9 145.15 106.45 146.55 106.55 146.65 98.6 146.4 100.65 146.7 102.55 147.1 Q106.2 147.85 107.9 149.1 110.4 150.9 110.7 153.75 L110.8 157.7 110.65 160.9 Q111.15 162.2 111.15 163.75 111.15 165.2 110.65 166.95 108.5 168.95 105.6 170.0 L101.6 170.95 Q94.05 171.95 82.7 168.35 L82.4 168.4 Q65.3 174.55 46.65 172.8 L40.2 171.95 40.0 171.9 M170.95 243.75 Q173.75 241.2 176.35 235.5 L178.75 229.4 181.35 220.7 181.55 219.9 Q182.7 216.15 184.6 213.9 L185.55 212.85 Q188.35 210.25 189.0 209.05 189.6 207.8 190.7 207.25 L193.25 205.25 194.4 204.25 196.65 201.9 197.35 204.15 Q197.65 206.3 196.55 208.4 L195.75 209.65 194.3 211.25 Q191.55 213.85 190.75 216.85 186.65 219.3 186.65 227.3 186.65 231.5 187.6 233.25 188.85 235.55 192.3 235.55 194.85 235.55 204.7 230.75 L215.2 225.2 Q214.55 228.85 214.05 232.6 L213.7 235.45 212.95 233.7 Q210.6 236.15 205.55 243.2 L197.6 253.6 Q194.65 257.0 191.85 259.2 L188.55 261.8 Q187.55 262.7 176.65 263.8 174.5 253.85 170.95 243.75" fill="#ffe2d5" fill-rule="evenodd" stroke="none"/>
    <path d="M183.2 18.35 L183.2 17.65 183.75 17.65 183.75 17.7 183.2 18.35 183.75 17.7 Q184.7 23.2 186.5 29.0 188.2 34.6 190.65 40.45 193.35 46.85 197.05 53.65 203.35 65.3 212.45 78.0 218.55 90.6 219.45 96.75 221.15 108.65 219.05 117.6 L218.3 120.65 212.65 140.55 210.7 147.35 210.15 147.25 210.25 146.9 Q211.75 139.5 212.5 137.05 L215.15 129.05 Q216.6 124.6 217.2 120.6 L217.45 118.6 217.9 108.7 Q217.95 103.8 217.5 100.95 L216.6 95.95 215.6 92.45 213.95 88.7 211.85 84.8 Q211.0 82.1 210.2 81.7 L210.0 81.35 208.6 78.85 207.55 77.0 194.85 54.25 191.4 47.45 188.85 41.5 187.8 38.85 Q186.3 34.95 185.3 31.55 183.0 23.75 183.2 18.35 M141.25 44.6 Q142.0 47.45 142.35 50.35 142.7 53.1 142.7 55.9 L142.65 58.05 142.5 59.85 Q144.0 72.6 133.15 88.35 L126.45 99.4 Q123.85 105.15 123.95 108.55 L123.75 112.45 123.8 114.4 123.85 115.0 124.2 118.2 124.65 120.55 Q126.4 127.2 128.85 134.05 L132.65 144.55 Q133.25 146.15 133.9 149.65 L135.05 157.55 135.05 157.6 135.45 161.25 135.15 164.55 Q134.85 160.45 134.15 157.5 L133.8 156.25 132.0 150.3 127.65 137.85 Q124.55 129.45 123.3 122.45 122.65 119.0 122.45 115.55 L122.4 114.3 122.4 110.0 122.45 108.25 Q122.95 101.0 125.15 96.7 127.25 92.4 127.5 92.05 L131.85 85.1 132.95 82.5 133.65 81.15 133.7 81.0 134.2 79.95 134.55 79.3 134.7 78.95 135.65 76.8 135.65 76.75 136.45 74.95 136.5 74.75 137.0 73.5 Q138.45 69.55 139.2 65.95 L139.55 63.8 139.65 63.55 139.85 61.65 139.85 61.55 139.9 56.95 139.55 54.25 139.55 54.2 139.2 52.5 137.55 46.95 141.0 43.85 141.25 44.6" fill="#fedf76" fill-rule="evenodd" stroke="none"/>
    <path d="M141.25 44.6 Q151.8 46.15 166.9 34.1 171.65 30.2 176.8 25.0 L178.0 23.8 180.1 21.65 183.2 18.35 Q183.0 23.75 185.3 31.55 186.3 34.95 187.8 38.85 L188.85 41.5 187.45 43.05 184.3 46.8 183.85 47.3 178.65 53.15 177.0 54.75 176.5 55.3 174.2 56.85 Q170.8 58.7 166.35 58.75 156.75 58.85 142.35 50.35 142.0 47.45 141.25 44.6" fill="#feb89a" fill-rule="evenodd" stroke="none"/>
    <path d="M169.65 82.35 L169.95 82.45 169.65 82.35" fill="#fea3e3" fill-rule="evenodd" stroke="none"/>
    <path d="M158.55 161.5 L169.55 164.5 169.45 165.2 155.75 167.95 155.85 168.55 Q156.35 170.05 159.3 169.9 L151.55 171.35 151.8 172.2 151.85 172.35 Q152.8 174.55 155.95 175.45 154.9 175.95 153.4 176.9 150.45 178.8 149.45 180.1 L158.05 181.05 Q160.1 181.5 161.1 183.55 161.95 185.35 164.25 185.4 L170.0 185.85 Q170.0 189.15 172.9 189.25 L178.0 189.15 182.9 189.75 Q188.2 191.65 189.4 196.0 L190.15 199.6 Q190.65 201.8 191.55 203.1 L193.25 205.25 190.7 207.25 Q189.6 207.8 189.0 209.05 188.35 210.25 185.55 212.85 L184.6 213.9 Q182.7 216.15 181.55 219.9 L181.35 220.7 178.75 229.4 Q176.75 228.35 174.9 228.35 L173.5 229.3 171.55 229.95 171.6 230.2 171.35 229.95 167.0 230.25 Q162.25 230.25 160.9 228.55 160.15 227.7 160.05 224.9 L160.0 224.15 Q159.75 222.1 158.65 221.2 156.65 219.5 150.85 219.5 L145.15 219.95 Q144.0 220.3 142.6 221.0 139.5 222.6 135.3 226.05 L132.6 226.05 Q132.6 225.0 133.6 222.65 L134.55 219.9 134.25 218.95 128.45 217.45 Q125.1 218.75 121.25 218.75 119.3 218.75 117.6 217.95 115.3 216.9 115.3 214.9 115.3 213.25 116.7 210.8 117.45 209.35 118.75 207.6 L118.75 204.9 113.75 204.9 Q112.85 205.2 110.55 206.35 108.55 207.3 105.5 208.95 101.6 211.05 95.85 211.05 95.35 211.05 90.35 203.4 L86.15 197.45 85.4 196.6 85.6 196.6 97.45 196.25 Q113.5 194.4 125.7 185.3 L131.55 180.3 Q143.55 165.8 156.2 162.1 L158.55 161.5" fill="#febb56" fill-rule="evenodd" stroke="none"/>
    <path d="M155.95 175.45 L161.2 176.1 162.8 177.2 Q164.35 178.0 166.4 178.2 L166.6 178.9 Q166.9 179.65 167.5 180.2 168.3 180.95 169.6 181.45 L179.0 181.9 179.05 181.9 179.55 181.8 185.65 182.05 186.45 182.95 Q197.65 191.45 199.55 197.7 201.4 203.9 207.8 206.75 L218.25 210.7 217.3 214.6 217.0 216.1 216.4 218.85 215.5 223.35 Q212.75 224.6 208.15 225.95 L207.85 226.05 Q203.35 227.3 197.5 227.1 195.55 227.05 194.15 226.45 191.1 225.1 190.5 221.3 190.1 218.95 190.75 216.85 191.55 213.85 194.3 211.25 L195.75 209.65 198.1 209.65 196.55 208.4 Q197.65 206.3 197.35 204.15 L196.65 201.9 194.4 204.25 193.25 205.25 191.55 203.1 Q190.65 201.8 190.15 199.6 L189.4 196.0 Q188.2 191.65 182.9 189.75 L178.0 189.15 172.9 189.25 Q170.0 189.15 170.0 185.85 L164.25 185.4 Q161.95 185.35 161.1 183.55 160.1 181.5 158.05 181.05 L149.45 180.1 Q150.45 178.8 153.4 176.9 154.9 175.95 155.95 175.45" fill="#fda31c" fill-rule="evenodd" stroke="none"/>
    <path d="M132.75 77.35 L132.65 77.3 Q133.45 76.05 132.9 75.3 L132.55 75.0 132.15 74.7 131.45 74.4 131.25 74.3 129.85 73.8 Q132.0 73.55 132.8 72.6 133.2 72.15 133.25 71.5 L133.1 70.2 133.05 70.1 132.45 69.3 132.75 68.25 132.6 67.45 131.65 65.7 130.1 64.1 Q131.1 64.8 131.9 65.0 L132.25 65.05 132.35 65.05 132.4 65.05 132.6 65.05 133.0 64.95 133.95 64.25 134.25 63.1 Q134.4 61.2 133.2 59.25 L131.3 56.45 132.85 56.8 133.1 56.85 133.15 56.85 134.25 57.0 134.95 57.1 135.3 57.15 135.5 58.0 Q136.05 59.55 137.65 62.15 L137.25 64.35 Q136.5 67.9 135.05 71.85 L134.55 73.15 134.45 73.35 133.7 75.1 133.7 75.2 132.75 77.35" fill="#fec1ab" fill-rule="evenodd" stroke="none"/>
    <path d="M0.0 149.1 Q10.2 147.8 19.75 144.6 L32.8 143.7 40.2 143.75 Q38.3 147.7 37.05 153.25 36.55 155.25 36.3 157.2 32.7 157.4 29.15 157.2 14.7 156.45 0.1 149.55 L0.0 149.1" fill="#ffffcc" fill-rule="evenodd" stroke="none"/>
    <path d="M1.75 152.25 L0.9 151.75 0.55 151.55 0.35 150.55 0.1 149.55 Q14.7 156.45 29.15 157.2 32.7 157.4 36.3 157.2 35.35 164.6 37.65 171.0 L29.65 167.25 Q19.9 162.55 9.15 156.5 L1.75 152.25 M112.35 158.65 L124.2 158.0 Q116.4 167.0 110.7 170.5 111.9 168.4 112.5 166.65 113.3 164.1 112.7 162.2 L111.95 160.65 112.35 158.65" fill="#fefda3" fill-rule="evenodd" stroke="none"/>
    <path d="M40.25 184.05 L42.6 185.15 48.5 187.65 Q58.55 191.65 70.3 194.7 L77.65 195.9 85.4 196.6 86.15 197.45 90.35 203.4 Q95.35 211.05 95.85 211.05 101.6 211.05 105.5 208.95 108.55 207.3 110.55 206.35 112.85 205.2 113.75 204.9 L118.75 204.9 118.75 207.6 Q117.45 209.35 116.7 210.8 115.3 213.25 115.3 214.9 115.3 216.9 117.6 217.95 119.3 218.75 121.25 218.75 125.1 218.75 128.45 217.45 L134.25 218.95 134.55 219.9 133.6 222.65 Q132.6 225.0 132.6 226.05 L135.3 226.05 Q139.5 222.6 142.6 221.0 144.0 220.3 145.15 219.95 L150.85 219.5 Q156.65 219.5 158.65 221.2 159.75 222.1 160.0 224.15 L160.05 224.9 Q160.15 227.7 160.9 228.55 162.25 230.25 167.0 230.25 L171.35 229.95 171.6 230.2 171.55 229.95 173.5 229.3 174.9 228.35 Q176.75 228.35 178.75 229.4 L176.35 235.5 Q173.75 241.2 170.95 243.75 L169.3 239.3 166.95 239.25 162.35 239.05 152.4 238.4 146.8 237.9 Q124.0 235.5 103.5 229.25 73.25 210.2 52.35 193.3 L51.25 192.4 47.55 189.35 40.25 184.05 M195.75 209.65 L196.55 208.4 198.1 209.65 195.75 209.65" fill="#ffcc66" fill-rule="evenodd" stroke="none"/>
    <path d="M154.75 160.6 L158.55 161.5 156.2 162.1 Q143.55 165.8 131.55 180.3 L125.7 185.3 Q113.5 194.4 97.45 196.25 L85.6 196.6 83.5 194.9 Q81.4 193.05 81.45 191.05 82.3 190.6 87.4 190.05 90.65 189.7 90.65 186.95 90.65 184.0 81.05 182.6 68.3 180.7 64.9 179.1 L64.9 178.4 66.2 178.55 Q89.35 181.6 107.2 172.4 L108.7 171.6 110.7 170.5 Q116.4 167.0 124.2 158.0 L125.6 157.8 128.0 157.55 132.5 157.45 Q133.4 162.5 133.35 170.45 L133.2 175.15 134.3 169.65 134.95 165.6 135.15 164.55 135.45 161.25 135.05 157.6 135.05 157.55 137.4 157.75 139.85 158.0 142.65 158.35 Q148.2 159.1 154.75 160.6" fill="#e38902" fill-rule="evenodd" stroke="none"/>
    <path d="M152.3 336.05 Q154.35 328.0 155.7 319.95 L177.7 316.4 Q175.25 329.55 170.05 342.35 L163.35 340.75 151.85 337.75 152.2 336.45 152.3 336.05 M231.7 299.05 L230.65 299.25 Q227.0 299.8 223.15 298.65 219.2 297.5 215.05 294.55 212.7 278.95 212.4 264.1 212.05 249.4 213.7 235.45 220.5 251.7 222.6 255.85 225.55 261.65 228.95 265.3 228.9 282.25 231.7 299.05" fill="#d9d9d9" fill-rule="evenodd" stroke="none"/>
    <path d="M265.1 402.15 L261.4 402.15 245.05 329.8 246.25 323.75 246.55 321.85 Q252.9 341.35 257.3 359.4 L257.7 361.1 259.95 370.85 Q263.0 385.35 265.1 402.15 M251.7 402.15 L244.15 402.15 Q244.55 370.3 238.25 345.4 L240.0 342.15 Q242.4 337.3 244.35 332.15 253.1 361.9 251.7 402.15 M235.0 402.15 L225.6 402.15 Q225.95 382.2 223.45 365.65 L223.25 365.65 223.4 365.5 226.3 362.35 232.1 355.05 Q235.95 375.75 235.0 402.15 M214.05 402.15 L196.35 402.15 195.9 385.1 200.05 383.2 206.4 379.65 213.35 374.7 214.05 402.15 M183.4 402.15 L133.05 402.15 135.0 381.05 Q146.3 387.55 159.55 389.45 L165.0 390.0 Q170.8 390.35 176.4 389.9 L183.5 388.85 183.4 402.15 M120.75 402.15 L100.3 402.15 Q101.8 382.05 106.9 362.2 L108.65 355.75 110.4 358.25 Q115.8 365.65 121.95 371.4 L120.75 402.15 M90.35 402.15 L73.1 402.15 Q78.95 360.95 95.6 329.75 L95.8 329.35 Q98.65 338.5 103.2 346.9 L98.3 360.85 Q93.75 373.2 90.35 402.15" fill="#bfbfea" fill-rule="evenodd" stroke="none"/>
    <path d="M261.4 402.15 L251.7 402.15 Q253.1 361.9 244.35 332.15 L245.05 329.8 261.4 402.15 M244.15 402.15 L235.0 402.15 Q235.95 375.75 232.1 355.05 235.45 350.4 238.25 345.4 244.55 370.3 244.15 402.15 M225.6 402.15 L214.05 402.15 213.35 374.7 Q218.45 370.7 223.25 365.65 L223.45 365.65 Q225.95 382.2 225.6 402.15 M196.35 402.15 L183.4 402.15 183.5 388.85 Q189.85 387.55 195.9 385.1 L196.35 402.15 M133.05 402.15 L120.75 402.15 121.95 371.4 Q128.1 377.1 135.0 381.05 L133.05 402.15 M100.3 402.15 L90.35 402.15 Q93.75 373.2 98.3 360.85 L103.2 346.9 Q105.65 351.4 108.65 355.75 L106.9 362.2 Q101.8 382.05 100.3 402.15" fill="#9f9fdf" fill-rule="evenodd" stroke="none"/>
    <path d="M327.0 236.55 L326.85 234.7 Q326.35 230.85 324.4 228.55 L321.45 224.85 Q317.65 219.6 317.65 216.25 318.3 209.7 318.25 207.0 318.2 203.45 315.85 197.35 315.9 190.8 313.7 183.6 L311.15 176.05 310.7 176.2 Q309.95 174.35 308.7 173.25 L308.8 173.15 309.1 172.85 310.0 172.05 Q312.0 169.9 312.55 167.6 309.3 165.9 306.7 163.45 L306.4 163.5 303.7 160.55 303.75 160.5 303.8 160.5 Q305.3 158.7 306.9 157.2 L308.35 155.75 306.9 157.2 Q305.3 158.7 303.8 160.5 L303.75 160.5 303.45 160.2 303.3 160.0 Q302.5 158.95 302.15 157.95 L301.55 158.15 300.95 158.45 300.85 158.4 301.25 157.65 301.5 155.2 301.4 152.2 302.6 152.1 302.6 151.0 290.85 135.3 Q281.95 116.65 272.2 102.9 L269.4 99.05 274.85 97.55 276.65 99.85 Q289.9 117.45 301.65 143.95 303.2 144.45 306.15 146.4 L306.7 147.85 309.6 154.2 308.95 155.1 308.35 155.75 Q308.75 156.0 309.0 157.6 309.2 159.2 310.55 160.85 L313.5 164.15 Q315.15 165.75 314.8 168.05 314.65 170.6 316.95 176.9 L320.9 187.3 Q322.2 191.0 322.8 204.1 L323.45 217.1 Q323.7 221.15 323.9 222.6 329.9 225.3 330.7 231.6 331.05 234.45 330.9 239.55 335.25 243.4 335.05 246.6 334.8 250.65 333.75 253.75 336.85 278.4 313.75 293.4 L312.6 293.8 Q290.45 301.25 265.3 301.6 L265.25 300.7 265.5 300.65 Q286.6 299.5 305.5 293.15 L306.65 292.75 Q329.75 277.75 326.65 253.1 327.7 250.0 327.95 245.95 328.15 242.75 323.8 238.9 L323.85 234.5 327.0 236.55 327.3 236.75 330.9 239.55 327.3 236.75 327.0 236.55 M249.45 301.1 Q263.15 329.45 264.5 366.35 268.0 382.75 270.15 402.15 L265.1 402.15 Q263.0 385.35 259.95 370.85 L257.7 361.1 257.3 359.4 Q252.9 341.35 246.55 321.85 L247.15 317.85 247.75 313.3 248.2 309.95 244.55 300.7 249.45 301.1 M73.1 402.15 L66.55 402.15 Q72.4 360.95 89.05 329.75 L93.75 321.55 Q94.6 325.5 95.8 329.35 L95.6 329.75 Q78.95 360.95 73.1 402.15 M92.75 316.6 L89.1 314.8 Q87.45 312.55 84.65 310.25 L82.4 308.55 74.2 303.2 Q66.45 298.45 62.85 295.55 56.85 290.8 53.9 285.7 52.0 282.4 47.85 277.05 43.45 271.25 41.65 268.3 L40.95 267.1 Q35.7 258.0 34.9 246.45 33.25 243.3 31.95 239.8 L28.45 229.45 28.45 226.1 Q33.3 206.1 40.1 191.35 L41.85 187.6 45.2 190.35 45.55 190.65 45.35 191.0 45.15 191.55 44.0 194.05 43.9 194.35 44.0 194.35 44.0 201.0 Q44.0 203.35 45.8 205.45 L49.05 209.1 49.1 209.6 Q47.6 209.35 44.9 210.15 41.75 211.1 40.65 212.5 L37.55 215.3 Q36.75 215.95 36.35 216.75 L36.1 216.65 35.65 218.2 35.9 218.3 Q35.9 219.95 36.5 221.35 37.05 222.8 37.05 224.1 L35.15 231.4 Q35.15 235.25 41.35 236.8 L50.25 238.1 Q45.75 239.8 43.1 244.65 40.9 248.7 40.9 252.85 L40.9 253.0 Q42.5 261.4 46.8 268.3 48.6 271.25 53.0 277.05 57.15 282.4 59.05 285.7 62.0 290.8 68.0 295.55 71.6 298.45 79.35 303.2 86.9 307.9 89.8 310.25 L91.05 311.35 Q93.0 313.05 94.25 314.8 L97.9 316.6 Q118.4 326.4 145.45 334.45 L150.8 336.05 152.2 336.45 151.85 337.75 145.1 335.9 Q124.05 329.85 106.85 322.85 99.45 319.8 92.75 316.6 M67.95 125.05 Q81.15 102.6 96.6 92.15 101.1 89.05 105.8 87.0 L106.45 87.4 Q105.2 89.1 104.25 91.4 L104.2 91.45 Q99.45 93.9 95.2 97.15 82.3 106.95 70.95 125.3 L70.15 125.25 69.75 125.3 68.0 125.55 67.95 125.05 M248.2 309.95 L248.6 309.85 248.3 308.95 248.2 309.95 M248.6 309.85 Q258.75 339.75 264.5 366.35 258.75 339.75 248.6 309.85" fill="#f4f4df" fill-rule="evenodd" stroke="none"/>
    <path d="M327.0 236.55 L327.3 236.75 330.9 239.55 Q331.05 234.45 330.7 231.6 329.9 225.3 323.9 222.6 323.7 221.15 323.45 217.1 L322.8 204.1 Q322.2 191.0 320.9 187.3 L316.95 176.9 Q314.65 170.6 314.8 168.05 315.15 165.75 313.5 164.15 L310.55 160.85 Q309.2 159.2 309.0 157.6 308.75 156.0 308.35 155.75 L306.9 157.2 Q305.3 158.7 303.8 160.5 L303.75 160.5 303.7 160.55 300.9 164.1 Q298.0 167.95 296.3 172.55 294.55 177.15 288.3 182.6 M330.9 239.55 Q335.25 243.4 335.05 246.6 334.8 250.65 333.75 253.75 336.85 278.4 313.75 293.4 L312.6 293.8 Q290.45 301.25 265.3 301.6 L263.85 301.6 251.0 301.2 249.45 301.1 Q263.15 329.45 264.5 366.35 268.0 382.75 270.15 402.15 M66.55 402.15 Q72.4 360.95 89.05 329.75 L93.75 321.55 93.3 319.45 92.75 316.6 89.1 314.8 M28.45 226.1 Q33.3 206.1 40.1 191.35 L41.85 187.6 24.75 175.25 Q13.55 167.6 5.9 158.0 L1.75 152.25 0.9 151.75 0.55 151.55 0.35 150.55 0.0 149.1 Q10.2 147.8 19.75 144.6 L32.8 143.7 40.2 143.75 Q41.55 140.8 43.25 138.75 47.3 133.9 52.1 130.45 56.35 127.3 67.6 125.65 L67.95 125.05 Q81.15 102.6 96.6 92.15 101.1 89.05 105.8 87.0 L107.3 86.4 Q110.4 82.85 115.05 82.5 117.05 80.95 119.55 80.4 L123.9 80.25 124.6 80.3 126.1 80.55 126.9 80.5 129.8 80.2 130.95 80.1 131.45 80.05 131.65 79.55 131.75 79.4 132.6 77.65 132.6 77.6 132.75 77.35 M132.65 77.3 L132.5 77.55 131.55 78.3 Q129.95 79.2 126.45 79.5 L124.65 79.5 124.4 79.5 124.3 79.5 124.05 79.45 Q122.75 79.2 122.15 78.45 L121.75 77.75 Q121.55 77.15 121.6 76.4 L122.05 75.2 122.8 73.2 122.85 73.15 122.85 73.05 121.2 71.95 Q120.45 71.05 120.35 69.45 L120.35 68.25 120.4 67.9 Q120.5 66.9 121.05 66.35 L121.6 65.9 122.85 65.0 Q121.6 63.6 121.4 62.05 L121.35 61.4 121.4 61.05 Q121.5 59.2 121.9 58.1 122.2 57.15 123.1 57.15 L123.35 57.15 125.15 57.3 125.1 57.05 125.1 56.7 Q125.2 55.3 127.0 53.85 L127.15 53.7 127.6 53.4 128.2 53.0 Q129.75 51.9 130.5 51.9 L130.75 51.9 131.8 52.45 131.9 52.5 133.5 53.75 135.2 55.15 135.25 54.3 135.25 54.2 135.45 52.75 135.55 52.6 136.45 51.45 137.2 50.85 Q136.65 48.7 135.75 46.75 L135.4 46.15 M259.8 71.7 L260.35 71.65 Q265.75 71.2 270.95 73.5 M266.55 58.55 Q278.3 66.15 281.6 71.95 284.8 77.75 284.1 85.05 283.3 92.25 279.6 94.6 L274.85 97.55 276.65 99.85 Q289.9 117.45 301.65 143.95 303.2 144.45 306.15 146.4 L306.7 147.85 309.6 154.2 308.95 155.1 308.35 155.75 M259.35 99.55 L262.75 99.75 262.9 99.75 263.1 99.75 263.3 99.75 263.5 99.75 269.4 99.05 274.85 97.55 M259.8 71.7 L257.65 72.05 Q255.25 72.55 250.5 74.55 L250.3 74.6 250.2 74.65 250.15 74.6 M250.35 74.75 L250.55 74.85 252.7 75.85 254.45 77.15 255.8 78.5 Q258.6 81.6 259.5 86.3 260.55 92.0 258.05 96.6 L256.7 98.75 257.4 99.05 257.5 99.1 258.5 99.4 M257.65 72.05 L258.35 71.2 Q260.25 69.05 262.75 68.05 264.9 67.15 267.55 67.1 M233.5 67.25 Q240.25 69.1 246.7 72.6 L250.15 74.6 M250.25 74.7 L250.35 74.75 M259.35 99.55 L258.9 99.5 258.5 99.4 M250.25 74.7 L250.2 74.65 250.1 74.75 250.55 74.85 M250.1 74.75 L246.85 74.45 M252.9 98.95 L252.95 99.0 Q254.2 100.4 255.95 99.35 L256.25 99.1 256.7 98.75 M246.65 76.25 L248.2 77.35 248.45 77.55 Q250.05 78.9 252.65 82.4 255.5 86.2 255.15 91.2 254.8 96.2 252.4 97.4 M252.1 97.55 L252.6 98.5 252.9 98.95 M244.2 75.35 L245.8 75.65 246.65 76.25 M242.1 96.8 L242.85 97.4 243.05 97.6 244.25 98.7 247.1 98.7 249.15 98.45 249.95 98.3 252.1 97.55 252.4 97.4 M244.2 75.35 L245.1 74.9 245.95 74.6 246.85 74.45 M185.6 0.0 Q185.05 5.7 185.55 11.85 186.85 26.65 194.55 43.75 L212.3 63.2 229.95 65.25 230.65 66.6 233.5 67.25 M183.2 17.65 L183.2 18.35 183.75 17.7 M183.2 17.65 L183.2 17.6 183.25 17.5 183.5 16.15 183.85 13.9 M141.25 44.6 Q142.0 47.45 142.35 50.35 M176.5 55.3 L177.0 54.75 178.65 53.15 183.85 47.3 184.3 46.8 187.45 43.05 188.85 41.5 187.8 38.85 Q186.3 34.95 185.3 31.55 183.0 23.75 183.2 18.35 M188.85 41.5 L191.4 47.45 194.85 54.25 207.55 77.0 208.6 78.85 210.0 81.35 210.2 81.7 M211.85 84.8 L213.95 88.7 215.6 92.45 216.6 95.95 217.5 100.95 Q217.95 103.8 217.9 108.7 L217.45 118.6 217.2 120.6 Q216.6 124.6 215.15 129.05 L212.5 137.05 Q211.75 139.5 210.25 146.9 L210.15 147.25 210.15 147.3 208.9 154.0 208.55 157.55 Q208.4 160.7 209.35 165.45 M154.75 160.6 L158.55 161.5 169.55 164.5 170.8 164.9 170.95 164.9 172.1 165.25 190.0 166.2 Q208.7 177.15 216.5 188.8 L221.1 189.95 225.65 190.55 234.7 190.05 Q239.9 189.1 244.55 186.55 247.3 185.0 249.85 182.9 L253.45 179.55 Q256.5 176.2 258.35 172.35 260.65 167.4 261.05 161.5 261.3 157.5 260.65 153.85 L260.4 152.8 259.15 148.5 257.25 143.35 255.8 140.15 M254.3 137.5 L250.2 130.4 M210.8 166.1 L210.95 170.0 Q210.1 169.2 209.45 165.85 L209.35 165.45 M211.85 84.8 L210.2 81.7 M176.5 55.3 L175.15 56.8 Q173.4 58.95 173.05 60.65 172.5 63.15 172.45 67.5 L172.15 76.45 Q171.9 78.5 170.75 80.65 L170.1 81.65 170.1 81.7 185.25 80.9 M170.1 81.65 L170.1 81.7 170.0 82.2 169.95 82.45 169.75 83.3 184.15 82.4 M169.65 82.35 L169.75 82.2 170.1 81.7 168.8 81.75 169.45 82.25 169.65 82.35 M147.1 57.65 L149.2 58.5 Q158.35 61.9 160.9 66.4 163.45 70.9 165.0 76.0 165.85 78.85 167.7 80.8 L168.8 81.75 157.05 82.4 M227.35 77.7 L226.35 76.85 Q225.0 75.65 225.15 73.55 L225.2 73.15 Q225.3 72.4 225.75 72.05 226.05 71.8 226.55 71.75 L227.0 71.75 Q227.65 71.8 229.75 73.35 L231.35 73.6 234.55 74.15 230.65 66.6 M234.85 78.45 L234.15 78.3 231.0 78.55 Q230.1 78.8 229.35 79.25 L228.85 79.6 Q227.85 80.3 227.25 81.35 226.2 83.05 226.05 85.5 225.85 88.1 227.5 88.55 L228.35 88.65 228.75 88.65 228.75 88.7 228.75 89.45 Q228.9 90.9 230.1 91.9 230.8 92.45 231.85 92.85 L232.35 93.0 232.65 93.1 232.65 93.15 232.6 93.25 232.6 93.4 232.55 93.8 232.55 93.85 Q232.45 95.05 233.5 96.2 234.25 97.05 236.1 97.3 L236.1 97.25 M236.2 82.0 Q233.95 81.7 232.8 82.7 231.45 83.8 230.6 84.9 L229.3 86.8 Q228.8 87.75 228.75 88.65 M239.2 87.0 L238.15 86.9 Q236.4 86.75 234.45 89.4 233.55 90.6 233.1 91.7 L232.65 93.1 M242.35 92.15 L240.4 92.15 238.0 94.45 Q236.1 96.4 236.05 96.95 L236.05 97.05 236.1 97.25 M234.55 74.15 L235.25 74.25 237.6 74.45 244.2 75.35 M218.45 85.6 L215.05 78.15 Q209.25 70.1 204.6 62.5 L203.55 60.75 Q198.3 52.0 194.55 43.75 M212.3 63.2 L211.0 63.05 230.25 96.15 250.2 130.4 M210.8 166.1 Q210.65 160.6 210.8 158.1 211.0 154.75 215.25 140.75 218.8 129.0 220.85 120.8 L221.65 117.8 Q223.75 108.8 222.05 96.9 221.65 94.4 220.5 90.9 L218.45 85.6 M229.35 79.25 L227.65 77.95 M236.1 97.3 Q236.15 98.7 237.4 99.6 L238.0 99.95 Q239.5 100.7 242.25 100.9 L243.05 100.9 Q244.45 100.8 244.7 99.8 244.65 99.6 244.75 99.45 L244.25 98.7 M195.2 175.85 L189.9 173.1 175.8 170.75 158.95 173.0 159.65 174.3 M195.45 180.75 L198.1 182.45 M159.3 169.9 L171.45 167.6 184.35 168.65 193.75 171.6 M172.1 165.25 L169.45 165.2 155.75 167.95 155.85 168.55 Q156.35 170.05 159.3 169.9 L151.55 171.35 151.8 172.2 151.85 172.35 Q152.8 174.55 155.95 175.45 L161.2 176.1 Q160.3 175.3 159.65 174.3 M170.8 164.9 L169.45 165.2 M167.5 180.2 Q168.3 180.95 169.6 181.45 L179.0 181.9 179.05 181.9 179.55 181.8 185.65 182.05 185.85 182.05 186.45 182.95 Q197.65 191.45 199.55 197.7 201.4 203.9 207.8 206.75 L218.25 210.7 220.4 202.95 M167.5 180.2 Q166.9 179.65 166.6 178.9 L166.4 178.2 Q164.35 178.0 162.8 177.2 L161.2 176.1 M166.6 178.9 L168.55 178.3 166.4 178.2 M168.55 178.3 L176.2 175.75 191.15 178.0 195.45 180.75 M185.65 182.05 L186.45 182.95 M223.2 194.4 L221.5 193.25 217.35 189.8 216.5 188.8 M239.6 198.35 L234.0 196.05 224.05 192.15 223.35 194.0 223.2 194.4 220.4 202.95 M244.7 99.8 L247.25 105.35 Q256.4 126.4 257.25 143.35 M244.7 99.8 L244.7 99.55 244.75 99.45 M239.55 103.4 Q252.4 123.55 255.0 138.7 L255.8 140.15 M254.3 137.5 L255.0 138.7 M269.45 165.5 L269.5 165.5 Q268.15 173.3 260.7 180.7 L258.0 184.35 Q263.05 195.95 260.65 207.1 L260.5 207.75 263.7 209.3 M294.65 193.35 L294.65 194.35 Q294.5 196.25 288.7 201.8 284.75 205.55 279.65 209.45 L275.1 212.75 282.35 210.4 285.3 209.55 286.0 209.8 286.05 209.8 M316.65 220.5 Q317.05 220.8 316.65 220.8 315.1 220.7 301.8 215.6 L286.05 209.8 M260.7 180.7 L259.7 177.2 258.35 172.35 M269.0 212.0 L272.3 213.75 275.1 212.75 273.05 214.2 276.05 215.85 M298.65 232.45 Q291.35 224.6 276.05 215.85 M294.65 193.35 L294.45 192.15 Q293.9 191.25 291.8 191.1 290.8 191.05 287.55 192.35 L284.55 193.55 Q278.1 196.25 276.4 198.3 268.9 206.3 265.6 210.25 L268.5 211.75 268.75 211.85 269.0 212.0 M135.15 164.55 L135.45 161.25 135.05 157.6 135.05 157.55 133.9 149.65 Q133.25 146.15 132.65 144.55 L128.85 134.05 Q126.4 127.2 124.65 120.55 L124.2 118.2 123.85 115.0 123.8 114.4 123.75 112.45 123.95 108.55 Q123.85 105.15 126.45 99.4 L133.15 88.35 Q144.0 72.6 142.5 59.85 L142.65 58.05 142.7 55.9 Q142.7 53.1 142.35 50.35 M141.25 44.6 L141.0 43.85 M106.45 87.4 Q105.2 89.1 104.25 91.4 M102.5 96.55 L101.9 99.85 Q99.9 112.0 102.0 132.75 102.5 138.15 103.35 144.2 L103.5 144.2 Q104.2 142.2 105.25 140.35 107.05 136.4 110.2 131.65 109.85 126.95 110.1 122.4 L110.15 121.1 Q110.75 112.5 113.55 104.35 117.7 92.15 126.7 81.05 M126.1 80.55 L126.95 80.75 126.7 81.05 M107.3 86.4 L106.45 87.4 M115.05 82.5 Q112.6 88.05 110.8 93.6 107.75 103.1 106.7 112.7 106.0 119.45 106.25 126.2 L106.3 127.65 M70.95 125.3 Q81.95 125.9 89.0 130.45 L90.2 131.25 92.4 133.05 95.35 136.35 97.4 139.55 97.8 140.45 97.8 140.5 Q100.1 145.4 103.35 144.2 M142.7 55.9 L147.1 57.65 M128.35 108.6 L132.05 115.2 Q137.35 113.0 141.95 110.7 L146.5 108.25 139.45 99.75 M137.2 50.85 L137.6 52.6 137.6 52.65 138.0 56.2 137.9 59.95 137.9 60.05 137.65 61.9 137.65 62.15 137.25 64.35 Q136.5 67.9 135.05 71.85 L134.55 73.15 134.45 73.35 133.7 75.1 133.7 75.2 132.75 77.35 M135.2 55.15 L135.2 55.2 135.15 55.3 135.3 57.15 135.5 58.0 Q136.05 59.55 137.65 62.15 M131.3 56.45 L133.2 59.25 Q134.4 61.2 134.25 63.1 L133.95 64.25 133.0 64.95 132.6 65.05 132.4 65.05 132.35 65.05 132.25 65.05 131.9 65.0 Q131.1 64.8 130.1 64.1 L131.65 65.7 132.6 67.45 132.75 68.25 132.45 69.3 133.05 70.1 133.1 70.2 133.25 71.5 Q133.2 72.15 132.8 72.6 132.0 73.55 129.85 73.8 L131.25 74.3 131.45 74.4 132.15 74.7 132.55 75.0 132.9 75.3 Q133.45 76.05 132.65 77.3 M125.2 57.65 L125.2 57.75 125.25 57.9 Q125.6 59.3 127.05 61.1 L127.95 62.05 128.65 62.85 130.05 64.05 130.1 64.1 M125.2 57.65 L125.15 57.3 M122.85 65.0 L123.9 66.0 124.0 66.05 124.4 66.35 125.65 67.25 127.4 68.5 128.7 69.05 129.6 69.35 130.2 69.45 131.7 69.65 132.25 69.5 132.45 69.3 M122.85 73.05 L123.05 73.15 124.2 73.45 124.25 73.45 124.65 73.55 126.7 73.8 126.9 73.8 129.85 73.8 M131.0 80.85 L131.45 80.05 M121.15 120.0 L120.65 116.25 120.5 114.2 Q120.25 110.45 120.5 106.65 121.0 99.4 123.15 95.1 L125.55 90.45 129.9 83.5 Q130.35 82.1 131.0 80.85 M151.25 92.7 L159.6 98.95 Q167.55 91.6 169.75 83.3 L157.7 84.0 M70.95 125.3 L70.15 125.25 69.75 125.3 68.0 125.55 67.6 125.65 M40.0 171.9 L37.65 171.0 29.65 167.25 Q19.9 162.55 9.15 156.5 M40.25 184.05 L42.6 185.15 48.5 187.65 Q58.55 191.65 70.3 194.7 L77.65 195.9 85.4 196.6 85.6 196.6 M64.9 178.4 Q55.95 177.1 46.25 174.0 L40.2 171.95 40.0 171.9 M37.65 171.0 Q35.35 164.6 36.3 157.2 36.55 155.25 37.05 153.25 38.3 147.7 40.2 143.75 M1.75 152.25 L9.15 156.5 M24.75 175.25 Q31.8 180.05 40.25 184.05 M103.5 229.25 Q124.0 235.5 146.8 237.9 L152.4 238.4 162.35 239.05 166.95 239.25 169.3 239.3 170.95 243.75 Q173.75 241.2 176.35 235.5 L178.75 229.4 M97.8 227.45 Q67.55 208.45 46.65 191.55 L45.6 190.7 45.55 190.65 45.2 190.35 41.85 187.6 M57.85 209.9 Q60.1 210.0 62.65 210.8 67.05 212.2 69.95 213.3 74.0 214.75 75.1 215.4 L79.5 219.6 79.6 219.75 79.7 219.8 80.65 220.8 82.65 221.65 83.2 221.9 Q90.35 224.9 97.8 227.45 L103.5 229.25 M110.7 170.5 L108.7 171.6 107.2 172.4 Q89.35 181.6 66.2 178.55 L64.9 178.4 M170.15 106.75 L159.6 98.95 156.75 101.45 Q152.3 104.95 146.5 108.25 L155.7 119.4 M128.35 108.6 L126.85 105.95 M128.8 116.5 L126.55 117.35 124.2 118.2 M128.8 116.5 L132.05 115.2 139.05 127.6 M121.15 120.0 L118.2 122.25 117.65 122.7 122.15 134.4 M110.2 131.65 Q111.15 129.55 112.75 127.55 L115.25 124.85 117.65 122.7 113.4 113.35 M132.5 157.45 L132.5 157.3 131.85 154.6 130.7 150.9 Q128.4 143.5 125.7 136.25 122.6 127.85 121.3 120.85 L121.15 120.0 M105.75 144.95 Q105.05 144.2 103.85 144.2 L103.5 144.2 M105.75 144.95 L105.9 145.15 106.45 146.55 106.55 146.65 Q107.8 147.2 109.5 148.75 111.35 150.35 112.25 153.1 112.8 154.9 112.5 157.6 L112.35 158.65 124.2 158.0 125.6 157.8 128.0 157.55 132.5 157.45 Q133.4 162.5 133.35 170.45 L133.2 175.15 134.3 169.65 134.95 165.6 135.15 164.55 M103.85 144.2 Q104.35 142.4 105.25 140.35 M110.7 170.5 Q111.9 168.4 112.5 166.65 113.3 164.1 112.7 162.2 L111.95 160.65 112.35 158.65 M158.55 161.5 L156.2 162.1 Q143.55 165.8 131.55 180.3 L125.7 185.3 Q113.5 194.4 97.45 196.25 L85.6 196.6 M139.85 158.0 L142.65 158.35 Q148.2 159.1 154.75 160.6 M135.05 157.55 L137.4 157.75 139.85 158.0 M124.2 158.0 Q116.4 167.0 110.7 170.5 M62.95 218.55 L61.85 218.45 M79.6 219.8 L79.7 219.8 M79.6 219.8 L78.65 219.85 80.65 220.8 M78.65 219.85 L74.15 220.4 Q70.35 221.05 65.75 222.4 L60.35 224.1 M61.0 218.4 L56.3 218.1 55.9 218.15 Q53.55 218.4 50.45 220.05 L48.7 221.05 Q46.6 222.5 46.45 223.8 L46.35 225.55 46.35 225.65 51.8 226.6 59.8 224.3 M57.85 209.9 L55.3 210.05 Q54.2 210.2 53.2 210.6 M155.7 319.95 Q162.4 279.7 152.4 238.4 M152.3 336.05 Q154.35 328.0 155.7 319.95 M177.7 316.4 Q181.85 293.7 177.85 270.0 L177.45 267.6 176.65 263.8 Q174.5 253.85 170.95 243.75 M152.3 336.05 L152.2 336.45 151.85 337.75 163.35 340.75 170.05 342.35 Q175.25 329.55 177.7 316.4 M151.85 337.75 L145.1 335.9 Q124.05 329.85 106.85 322.85 99.45 319.8 92.75 316.6 M200.05 383.2 L206.4 379.65 213.35 374.7 Q218.45 370.7 223.25 365.65 L223.4 365.5 226.3 362.35 232.1 355.05 Q235.45 350.4 238.25 345.4 L240.0 342.15 Q242.4 337.3 244.35 332.15 L245.05 329.8 246.25 323.75 246.55 321.85 247.15 317.85 247.75 313.3 248.2 309.95 M244.55 300.7 L242.35 300.45 241.9 300.4 231.8 299.05 231.7 299.05 230.65 299.25 Q227.0 299.8 223.15 298.65 219.2 297.5 215.05 294.55 L215.15 295.4 M95.8 329.35 Q94.6 325.5 93.75 321.55 M108.65 355.75 Q105.65 351.4 103.2 346.9 M121.95 371.4 Q115.8 365.65 110.4 358.25 L108.65 355.75 106.9 362.2 Q101.8 382.05 100.3 402.15 M135.0 381.05 Q128.1 377.1 121.95 371.4 M183.5 388.85 L176.4 389.9 Q170.8 390.35 165.0 390.0 L159.55 389.45 Q146.3 387.55 135.0 381.05 L133.05 402.15 M95.8 329.35 Q98.65 338.5 103.2 346.9 M298.65 232.45 L299.15 233.0 M323.85 234.5 L327.0 236.55 M323.85 234.5 Q318.7 231.4 312.5 228.95 M265.6 210.25 L263.7 209.3 M273.05 214.2 L272.3 213.75 M241.9 199.35 Q248.2 202.0 253.9 204.65 L260.25 207.6 260.5 207.75 M229.0 261.25 L228.95 265.3 Q228.9 282.25 231.7 299.05 M239.6 198.35 L241.9 199.35 Q239.0 192.65 244.55 186.55 M229.0 261.25 Q229.3 245.8 231.9 230.2 234.35 215.4 238.95 200.5 L239.6 198.35 M218.25 210.7 L217.3 214.6 217.0 216.1 216.4 218.85 215.5 223.35 215.2 225.2 Q214.55 228.85 214.05 232.6 L213.7 235.45 M190.75 216.85 Q190.1 218.95 190.5 221.3 191.1 225.1 194.15 226.45 195.55 227.05 197.5 227.1 203.35 227.3 207.85 226.05 L208.15 225.95 Q212.75 224.6 215.5 223.35 M190.75 216.85 Q191.55 213.85 194.3 211.25 L195.75 209.65 196.55 208.4 Q197.65 206.3 197.35 204.15 L196.65 201.9 194.4 204.25 193.25 205.25 190.7 207.25 Q189.6 207.8 189.0 209.05 188.35 210.25 185.55 212.85 L184.6 213.9 Q182.7 216.15 181.55 219.9 L181.35 220.7 178.75 229.4 M177.85 270.0 L183.8 268.2 Q194.5 269.2 205.35 266.35 L212.4 264.1 Q212.05 249.4 213.7 235.45 M212.4 264.1 Q212.7 278.95 215.05 294.55 M200.05 383.2 L195.9 385.1 Q189.85 387.55 183.5 388.85 L183.4 402.15 M249.45 301.1 L244.55 300.7 M248.6 309.85 L248.3 308.95 248.2 309.95 M264.5 366.35 Q258.75 339.75 248.6 309.85 M244.35 332.15 Q253.1 361.9 251.7 402.15 M214.05 402.15 L213.35 374.7 M232.1 355.05 Q235.95 375.75 235.0 402.15" fill="none" stroke="#000000" stroke-linecap="round" stroke-linejoin="round" stroke-width="1.0"/>
    <path d="M89.1 314.8 Q87.45 312.55 84.65 310.25 L82.4 308.55 74.2 303.2 Q66.45 298.45 62.85 295.55 56.85 290.8 53.9 285.7 52.0 282.4 47.85 277.05 43.45 271.25 41.65 268.3 L40.95 267.1 Q35.7 258.0 34.9 246.45 33.25 243.3 31.95 239.8 L28.45 229.45 28.45 226.1 M104.25 91.4 L104.2 91.45 103.4 93.4 Q102.85 94.8 102.6 96.15 L102.55 96.35 102.5 96.55" fill="none" stroke="#000000" stroke-linecap="round" stroke-linejoin="round" stroke-width="1.0"/>
  </g>
</svg>
