<?xml version="1.0" encoding="UTF-8" standalone="no"?>
<svg xmlns:xlink="http://www.w3.org/1999/xlink" height="21.9px" width="13.2px" xmlns="http://www.w3.org/2000/svg">
  <g transform="matrix(1.0, 0.0, 0.0, 1.0, 0.5, 0.45)">
    <path d="M10.8 0.65 L10.7 0.8 9.5 0.7 8.45 0.75 Q7.1 0.9 6.15 1.65 4.5 2.9 3.3 4.7 2.05 6.45 1.55 12.45 1.4 13.7 1.55 14.8 1.65 16.0 2.05 17.05 L2.6 18.3 Q3.3 19.55 4.45 20.6 L4.25 20.95 Q2.2 19.55 1.15 17.65 L0.6 16.4 Q0.2 15.35 0.1 14.15 -0.05 13.05 0.1 11.8 0.6 5.8 1.85 4.05 3.05 2.25 4.7 1.0 5.65 0.25 7.0 0.1 L8.05 0.05 9.25 0.15 Q10.15 0.25 10.8 0.65" fill="#ffffff" fill-rule="evenodd" stroke="none"/>
    <path d="M4.45 20.6 Q3.3 19.55 2.6 18.3 L2.05 17.05 Q1.65 16.0 1.55 14.8 1.4 13.7 1.55 12.45 2.05 6.45 3.3 4.7 4.5 2.9 6.15 1.65 7.1 0.9 8.45 0.75 L9.5 0.7 10.7 0.8 10.8 0.65 11.1 0.85 Q11.8 1.35 12.2 2.2 L10.85 6.4 Q10.5 5.8 9.8 5.6 L9.65 5.55 9.6 5.5 9.4 5.0 Q9.0 4.25 8.05 4.15 L6.4 4.25 Q6.05 4.35 5.8 4.55 5.6 4.65 5.5 4.8 4.85 5.35 4.35 6.05 3.85 6.8 3.6 9.2 L3.55 9.95 3.5 10.25 Q3.45 11.15 3.7 12.0 4.05 13.15 4.95 14.0 L5.65 14.45 6.4 15.4 7.05 15.9 5.35 18.9 4.45 20.6" fill="#ffe2d5" fill-rule="evenodd" stroke="none"/>
    <path d="M7.05 15.9 L6.4 15.4 5.65 14.45 5.15 13.4 Q4.9 12.55 4.95 11.65 L5.0 11.35 5.05 10.6 Q5.3 8.2 5.8 7.45 6.3 6.75 6.95 6.2 L7.25 5.95 7.85 5.65 9.5 5.55 9.65 5.55 9.8 5.6 Q10.5 5.8 10.85 6.4 8.95 12.1 7.05 15.9" fill="#ffd5c4" fill-rule="evenodd" stroke="none"/>
    <path d="M5.65 14.45 L4.95 14.0 Q4.05 13.15 3.7 12.0 3.45 11.15 3.5 10.25 L3.55 9.95 3.6 9.2 Q3.85 6.8 4.35 6.05 4.85 5.35 5.5 4.8 5.6 4.65 5.8 4.55 6.05 4.35 6.4 4.25 L8.05 4.15 Q9.0 4.25 9.4 5.0 L9.6 5.5 9.65 5.55 9.5 5.55 7.85 5.65 7.25 5.95 6.95 6.2 Q6.3 6.75 5.8 7.45 5.3 8.2 5.05 10.6 L5.0 11.35 4.95 11.65 Q4.9 12.55 5.15 13.4 L5.65 14.45" fill="#feb89a" fill-rule="evenodd" stroke="none"/>
    <path d="M5.65 14.45 L4.95 14.0 Q4.05 13.15 3.7 12.0 3.45 11.15 3.5 10.25 L3.55 9.95 3.6 9.2 Q3.85 6.8 4.35 6.05 4.85 5.35 5.5 4.8 5.6 4.65 5.8 4.55 6.05 4.35 6.4 4.25 L8.05 4.15 Q9.0 4.25 9.4 5.0 L9.6 5.5 9.65 5.55 M12.2 2.2 Q11.8 1.35 11.1 0.85 L10.8 0.65 Q10.15 0.25 9.25 0.15 L8.05 0.05 7.0 0.1 Q5.65 0.25 4.7 1.0 3.05 2.25 1.85 4.05 0.6 5.8 0.1 11.8 -0.05 13.05 0.1 14.15 0.2 15.35 0.6 16.4 L1.15 17.65 Q2.2 19.55 4.25 20.95" fill="none" stroke="#000000" stroke-linecap="round" stroke-linejoin="round" stroke-width="1.0"/>
  </g>
</svg>
