<?xml version="1.0" encoding="UTF-8" standalone="no"?>
<svg xmlns:xlink="http://www.w3.org/1999/xlink" height="88.75px" width="88.45px" xmlns="http://www.w3.org/2000/svg">
  <g transform="matrix(1.0, 0.0, 0.0, 1.0, -2.15, 0.5)">
    <path d="M55.15 1.25 Q66.7 3.8 74.8 10.5 84.9 18.8 89.75 33.35 L89.8 33.55 89.8 33.7 Q91.45 43.5 83.25 55.8 L80.05 60.25 79.5 60.9 79.4 61.05 76.95 63.35 76.9 63.4 76.3 64.0 74.75 65.5 74.1 66.25 73.9 66.45 Q70.7 69.8 67.9 73.6 L67.7 73.85 64.2 78.85 64.0 79.15 63.95 79.25 63.75 79.55 62.2 81.3 Q56.15 87.45 47.05 87.75 41.25 87.95 34.2 85.75 L34.25 85.65 Q41.4 86.95 47.05 85.5 52.65 84.05 56.8 79.8 L58.35 78.05 58.8 77.35 Q63.5 70.05 69.35 64.0 L70.9 62.5 74.0 59.55 Q86.55 43.75 84.35 31.85 77.65 11.7 60.95 3.6 58.2 2.25 55.15 1.25" fill="#ffd5c4" fill-rule="evenodd" stroke="none"/>
    <path d="M34.2 85.75 L28.7 85.5 Q24.5 85.65 21.65 84.0 L21.4 83.85 20.0 82.1 Q19.5 80.65 17.1 78.3 11.85 73.15 7.95 66.6 1.85 54.5 5.85 45.8 L6.05 45.35 6.95 43.75 7.6 42.75 8.15 41.75 10.5 36.6 10.7 36.1 12.5 31.15 13.4 28.35 13.8 27.05 13.85 26.75 13.95 26.6 14.0 26.45 15.05 24.15 Q25.4 2.4 44.6 1.3 L54.45 2.0 Q57.85 2.65 60.95 3.6 77.65 11.7 84.35 31.85 86.55 43.75 74.0 59.55 L70.9 62.5 69.35 64.0 Q63.5 70.05 58.8 77.35 L58.35 78.05 56.8 79.8 Q52.65 84.05 47.05 85.5 41.4 86.95 34.25 85.65 L34.2 85.75" fill="#ffe2d5" fill-rule="evenodd" stroke="none"/>
    <path d="M21.4 83.85 Q19.6 82.7 18.4 80.85 17.9 79.4 15.5 77.05 10.25 71.9 6.35 65.35 0.25 53.25 4.25 44.55 L4.45 44.2 5.35 42.5 7.05 39.5 Q8.95 35.7 10.85 30.0 L12.2 25.8 12.25 25.5 12.45 25.05 Q21.45 4.5 37.6 0.8 44.55 -0.75 52.85 0.75 L55.15 1.25 Q58.2 2.25 60.95 3.6 57.85 2.65 54.45 2.0 L44.6 1.3 Q25.4 2.4 15.05 24.15 L14.0 26.45 13.95 26.6 13.85 26.75 13.8 27.05 13.4 28.35 12.5 31.15 10.7 36.1 10.5 36.6 8.15 41.75 7.6 42.75 6.95 43.75 6.05 45.35 5.85 45.8 Q1.85 54.5 7.95 66.6 11.85 73.15 17.1 78.3 19.5 80.65 20.0 82.1 L21.4 83.85" fill="#ffffff" fill-rule="evenodd" stroke="none"/>
    <path d="M55.15 1.25 Q66.7 3.8 74.8 10.5 84.9 18.8 89.75 33.35 L89.8 33.55 89.8 33.7 Q91.45 43.5 83.25 55.8 L80.05 60.25 79.4 61.05 76.95 63.35 76.9 63.4 76.3 64.0 74.75 65.5 74.1 66.25 73.9 66.45 Q70.7 69.8 67.9 73.6 L67.7 73.85 64.2 78.85 64.0 79.15 63.95 79.25 63.75 79.55 62.2 81.3 Q56.15 87.45 47.05 87.75 41.25 87.95 34.2 85.75 L28.7 85.5 Q24.5 85.65 21.65 84.0 L21.4 83.85 Q19.6 82.7 18.4 80.85 17.9 79.4 15.5 77.05 10.25 71.9 6.35 65.35 0.25 53.25 4.25 44.55 L4.45 44.2 5.35 42.5 7.05 39.5 Q8.95 35.7 10.85 30.0 L12.2 25.8 12.25 25.5 M52.85 0.75 L55.15 1.25" fill="none" stroke="#000000" stroke-linecap="round" stroke-linejoin="round" stroke-width="1.0"/>
    <path d="M12.25 25.5 L12.45 25.05 Q21.45 4.5 37.6 0.8 44.55 -0.75 52.85 0.75" fill="none" stroke="#000000" stroke-linecap="round" stroke-linejoin="round" stroke-width="1.0"/>
    <path d="M35.3 65.9 Q33.85 62.95 30.8 62.8 36.7 60.55 35.3 65.9" fill="#fec1ab" fill-rule="evenodd" stroke="none"/>
  </g>
</svg>
