<?xml version="1.0" encoding="UTF-8" standalone="no"?>
<svg xmlns:xlink="http://www.w3.org/1999/xlink" height="7.0px" width="7.0px" xmlns="http://www.w3.org/2000/svg">
  <g transform="matrix(1.0, 0.0, 0.0, 1.0, 0.0, 0.0)">
    <path d="M4.2 6.7 L4.15 6.7 Q2.9 6.65 2.05 5.8 1.2 4.95 1.2 3.75 1.2 2.7 1.9 1.9 L2.05 1.7 Q2.4 1.35 2.8 1.15 L2.95 1.15 Q4.0 1.15 4.8 1.85 L5.15 2.4 5.3 3.2 5.25 3.65 4.65 4.7 4.35 4.95 Q5.05 4.8 5.6 4.25 L5.65 4.2 5.8 4.05 5.85 4.05 5.75 4.9 5.1 6.0 4.95 6.1 4.55 6.45 4.2 6.7 M1.75 3.4 L1.7 3.45 Q1.4 3.75 1.45 4.25 L1.5 4.45 1.7 4.7 1.7 4.75 1.85 4.85 2.9 5.25 3.0 5.2 3.2 5.3 Q3.85 5.3 4.35 4.95 L4.1 5.0 3.8 5.0 3.65 5.0 3.45 5.0 3.55 4.95 3.5 4.95 3.6 4.9 3.65 4.85 3.9 4.6 Q4.3 4.25 4.3 3.7 L4.05 2.9 3.9 2.75 Q3.55 2.4 3.0 2.4 2.45 2.4 2.05 2.75 L1.75 3.4 M2.85 5.3 L2.9 5.3 2.9 5.25 2.85 5.3 M2.6 4.85 L2.5 4.8 2.55 4.8 2.6 4.85" fill="#9393fd" fill-rule="evenodd" stroke="none"/>
    <path d="M5.75 0.85 L5.95 1.0 Q6.95 2.0 7.0 3.35 L7.0 3.5 Q7.0 4.75 6.25 5.7 L6.1 5.8 5.95 5.95 5.75 6.15 4.9 6.55 4.2 6.7 4.55 6.45 4.95 6.1 5.1 6.0 5.75 4.9 5.85 4.05 5.8 4.05 5.65 4.2 5.6 4.25 Q5.05 4.8 4.35 4.95 L4.65 4.7 5.25 3.65 5.3 3.2 5.15 2.4 4.8 1.85 Q4.0 1.15 2.95 1.15 L2.8 1.15 3.65 0.9 4.15 0.85 Q5.2 0.85 6.0 1.55 L6.15 1.7 6.3 1.8 5.75 0.85 M3.45 5.0 L3.65 5.0 3.8 5.0 4.1 5.0 4.35 4.95 Q3.85 5.3 3.2 5.3 L3.0 5.2 2.9 5.25 1.85 4.85 1.7 4.75 1.7 4.7 1.5 4.45 1.45 4.25 Q1.4 3.75 1.7 3.45 L1.75 3.4 1.75 3.45 1.7 3.7 1.7 3.8 1.75 3.95 1.75 4.0 1.9 4.25 2.0 4.4 Q2.2 4.6 3.35 5.0 L3.35 4.95 3.45 5.0 M3.3 5.0 L3.3 5.05 3.3 5.0 M2.6 4.85 L2.55 4.8 2.5 4.8 2.6 4.85 M2.85 5.3 L2.9 5.25 2.9 5.3 2.85 5.3" fill="#ccccff" fill-rule="evenodd" stroke="none"/>
    <path d="M5.75 6.15 L4.45 6.9 3.5 7.0 3.05 7.0 Q1.85 6.8 1.0 5.95 0.1 5.05 0.0 3.8 L0.0 3.5 Q0.0 2.95 0.15 2.45 0.4 1.65 1.0 1.0 1.85 0.2 2.95 0.05 L3.5 0.0 Q4.8 0.0 5.75 0.85 L6.3 1.8 6.15 1.7 6.0 1.55 Q5.2 0.85 4.15 0.85 L3.65 0.9 2.8 1.15 Q2.4 1.35 2.05 1.7 L1.9 1.9 Q1.2 2.7 1.2 3.75 1.2 4.95 2.05 5.8 2.9 6.65 4.15 6.7 L4.2 6.7 4.9 6.55 5.75 6.15" fill="#ffffff" fill-rule="evenodd" stroke="none"/>
    <path d="M3.45 5.0 L3.35 4.95 3.35 5.0 Q2.2 4.6 2.0 4.4 L1.9 4.25 1.75 4.0 1.8 4.0 1.75 3.95 1.7 3.8 1.7 3.7 1.75 3.45 1.75 3.4 2.05 2.75 Q2.45 2.4 3.0 2.4 3.55 2.4 3.9 2.75 L4.05 2.9 4.3 3.7 Q4.3 4.25 3.9 4.6 L3.65 4.85 3.6 4.9 3.5 4.95 3.55 4.95 3.45 5.0 M3.3 5.0 L3.3 5.05 3.3 5.0" fill="#abacfe" fill-rule="evenodd" stroke="none"/>
  </g>
</svg>
