<?xml version="1.0" encoding="UTF-8" standalone="no"?>
<svg xmlns:xlink="http://www.w3.org/1999/xlink" height="86.9px" width="100.1px" xmlns="http://www.w3.org/2000/svg">
  <g transform="matrix(1.0, 0.0, 0.0, 1.0, -0.05, 0.0)">
    <path d="M92.55 18.05 L93.6 21.35 Q96.0 29.9 95.55 39.9 97.5 37.2 98.25 33.0 101.2 55.6 98.0 66.75 94.65 78.25 91.8 82.6 90.95 83.85 89.5 84.7 103.0 51.45 80.95 19.1 68.6 11.75 58.8 31.35 54.5 19.9 66.75 11.95 16.35 -3.6 2.4 10.05 0.1 25.0 10.9 46.5 L11.75 47.85 Q24.6 24.55 47.0 36.85 22.25 36.65 18.7 56.75 40.9 80.9 86.25 85.85 L78.5 86.1 Q57.2 88.3 32.1 73.1 L41.5 74.2 Q31.8 72.55 22.8 66.55 L18.75 63.65 Q17.35 61.05 15.6 58.9 L15.1 58.35 15.05 58.25 Q10.75 51.25 7.7 44.95 -2.05 24.95 0.6 12.1 L1.05 10.35 2.05 9.2 Q18.0 -7.55 61.0 6.25 74.95 13.5 85.6 16.5 89.25 17.55 92.55 18.05" fill="#ffd5c1" fill-rule="evenodd" stroke="none"/>
    <path d="M98.25 33.0 Q97.5 37.2 95.55 39.9 96.0 29.9 93.6 21.35 L92.55 18.05 97.8 18.55 Q99.2 27.2 98.25 33.0 M18.75 63.65 L22.8 66.55 Q31.8 72.55 41.5 74.2 L32.1 73.1 Q25.5 71.85 21.25 69.6 L21.15 69.25 Q20.15 66.2 18.75 63.65" fill="#fedf76" fill-rule="evenodd" stroke="none"/>
    <path d="M86.25 85.85 Q40.9 80.9 18.7 56.75 22.25 36.65 47.0 36.85 24.6 24.55 11.75 47.85 L10.9 46.5 Q0.1 25.0 2.4 10.05 16.35 -3.6 66.75 11.95 54.5 19.9 58.8 31.35 68.6 11.75 80.95 19.1 103.0 51.45 89.5 84.7 88.15 85.45 86.25 85.85 M72.85 55.5 Q68.4 59.8 63.2 61.05 72.15 61.75 73.75 55.5 L74.0 54.35 72.85 55.5" fill="#ffe2d5" fill-rule="evenodd" stroke="none"/>
    <path d="M72.85 55.5 L74.0 54.35 73.75 55.5 Q72.15 61.75 63.2 61.05 68.4 59.8 72.85 55.5" fill="#feb89a" fill-rule="evenodd" stroke="none"/>
    <path d="M32.1 73.1 Q57.2 88.3 78.5 86.1 L86.25 85.85 Q88.15 85.45 89.5 84.7 90.95 83.85 91.8 82.6 94.65 78.25 98.0 66.75 101.2 55.6 98.25 33.0" fill="none" stroke="#000000" stroke-linecap="round" stroke-linejoin="round" stroke-width="1.0"/>
  </g>
</svg>
