<?xml version="1.0" encoding="UTF-8" standalone="no"?>
<svg xmlns:xlink="http://www.w3.org/1999/xlink" height="20.0px" width="29.4px" xmlns="http://www.w3.org/2000/svg">
  <g transform="matrix(1.0, 0.0, 0.0, 1.0, -1.4, 0.0)">
    <path d="M26.55 2.7 L28.7 0.9 29.25 0.0 29.1 0.9 Q28.5 3.6 27.3 4.05 29.1 3.85 30.6 1.05 L30.8 0.65 30.6 1.95 Q29.85 5.05 26.75 6.35 L26.7 8.5 Q26.45 10.7 25.3 12.65 L25.5 11.6 Q25.7 10.0 25.3 8.5 L24.5 6.6 24.35 6.4 17.05 6.85 Q11.8 7.95 7.25 11.25 4.15 13.5 1.4 16.7 L1.8 15.55 1.85 15.3 Q5.25 5.85 17.05 3.9 L23.75 3.4 Q25.35 3.25 26.55 2.7 M22.05 17.25 L22.75 16.85 22.7 16.95 21.35 18.0 20.2 18.7 17.9 19.6 20.95 17.9 21.7 17.45 21.85 17.4 22.05 17.25 M24.9 1.0 L22.35 0.75 21.95 0.75 20.8 0.7 18.8 0.75 17.35 0.85 16.6 0.95 Q13.2 1.35 10.4 2.5 L8.9 3.15 8.65 3.3 8.0 3.65 Q4.3 5.7 1.65 9.25 6.35 1.1 15.5 0.25 L18.85 0.15 20.75 0.3 24.9 1.0" fill="#000000" fill-rule="evenodd" stroke="none"/>
    <path d="M25.5 11.6 L25.4 11.8 25.35 12.0 25.3 12.15 25.2 12.4 25.15 12.5 25.05 12.7 25.05 12.8 24.95 13.0 24.85 13.1 24.65 13.4 24.55 13.5 24.45 13.8 24.35 14.05 24.2 14.5 24.15 14.7 24.1 14.85 24.0 15.0 23.6 15.65 23.4 15.85 23.3 16.0 23.2 16.25 22.8 16.7 22.65 16.8 22.2 17.15 22.05 17.2 22.05 17.25 21.85 17.4 21.75 17.4 21.7 17.45 20.95 17.9 20.7 17.95 20.5 18.05 20.15 18.2 Q19.85 18.2 19.65 18.45 L19.55 18.5 19.15 18.65 18.7 18.9 18.5 18.95 18.3 19.05 18.1 19.05 Q17.6 19.15 17.2 19.4 L16.8 19.55 16.55 19.65 16.45 19.65 16.25 19.65 Q16.0 19.65 15.85 19.8 L15.75 19.9 15.4 20.0 15.05 20.0 13.2 19.5 12.95 19.35 12.85 19.3 12.5 19.05 12.35 18.95 12.15 18.8 11.95 18.65 11.5 18.3 11.2 18.05 10.9 17.9 10.6 17.65 10.4 17.35 10.2 17.0 9.8 16.45 9.6 16.2 9.45 16.0 9.3 15.8 8.95 15.35 Q8.55 15.0 8.4 14.45 L8.3 14.15 7.95 13.25 7.75 12.65 7.6 12.35 7.5 12.05 7.45 11.9 7.35 11.65 7.25 11.35 7.25 11.25 Q11.8 7.95 17.05 6.85 L24.35 6.4 24.5 6.6 25.3 8.5 Q25.7 10.0 25.5 11.6" fill="#ffffff" fill-rule="evenodd" stroke="none"/>
    <path d="M1.85 15.3 Q1.65 12.3 2.75 9.75 7.0 1.2 19.9 1.7 L26.55 2.7 Q25.35 3.25 23.75 3.4 L17.05 3.9 Q5.25 5.85 1.85 15.3" fill="#fec1ab" fill-rule="evenodd" stroke="none"/>
  </g>
</svg>
