<?xml version="1.0" encoding="UTF-8" standalone="no"?>
<svg xmlns:xlink="http://www.w3.org/1999/xlink" height="14.65px" width="17.25px" xmlns="http://www.w3.org/2000/svg">
  <g transform="matrix(1.0, 0.0, 0.0, 1.0, 0.0, 0.0)">
    <path d="M1.2 11.4 L0.95 11.4 0.2 11.3 0.0 10.9 0.2 10.75 0.25 10.75 0.7 10.55 0.8 10.45 0.85 10.45 1.95 9.95 4.4 8.85 Q8.0 7.2 10.8 5.0 L12.35 3.7 12.8 3.25 16.0 0.2 16.4 0.15 16.45 0.2 15.3 3.45 14.0 5.55 Q11.3 9.15 6.5 10.55 L1.2 11.4 M14.8 3.85 L14.85 3.7 15.2 2.85 15.9 1.15 12.8 3.7 10.85 5.15 Q7.15 7.75 2.95 10.05 L1.35 10.95 3.2 10.85 4.6 10.65 Q11.95 9.5 14.8 3.85" fill="#000000" fill-rule="evenodd" stroke="none"/>
    <path d="M1.2 11.4 L6.5 10.55 Q11.3 9.15 14.0 5.55 L15.3 3.45 16.45 0.2 16.65 0.6 17.0 2.3 17.15 3.7 17.25 4.55 Q17.3 5.75 16.95 7.0 16.55 8.2 15.4 9.6 L12.75 11.9 11.95 12.45 10.9 12.85 9.5 13.1 6.85 13.25 3.5 12.75 Q1.75 12.25 1.2 11.4 M14.5 6.45 Q13.95 6.45 13.85 6.95 L13.6 7.65 Q12.75 7.95 12.9 8.85 11.3 8.9 11.3 10.15 11.3 11.1 11.9 11.15 12.45 11.15 12.5 10.05 14.7 9.75 14.3 8.7 15.1 8.05 15.1 7.05 15.0 6.45 14.5 6.45 M15.5 5.0 L15.1 5.6 Q15.1 6.15 15.8 6.2 16.7 6.2 16.7 5.25 16.75 4.55 16.15 4.55 L15.5 5.0 M2.85 12.45 L2.8 12.45 3.05 12.5 2.85 12.45" fill="#ffd5c1" fill-rule="evenodd" stroke="none"/>
    <path d="M16.0 0.2 L12.8 3.25 12.35 3.7 10.8 5.0 Q8.0 7.2 4.4 8.85 L1.95 9.95 0.85 10.45 0.8 10.4 0.85 10.25 0.95 10.2 0.95 10.15 1.15 9.95 1.2 9.9 1.3 9.8 1.35 9.7 1.45 9.6 1.6 9.55 1.7 9.4 Q1.65 9.2 1.8 9.25 L2.0 9.0 2.05 8.95 2.3 8.75 2.4 8.7 2.6 8.5 2.75 8.4 2.9 8.25 3.05 8.1 Q3.1 8.0 3.2 8.0 L3.4 7.8 3.55 7.65 3.7 7.45 3.8 7.35 3.9 7.3 3.95 7.15 4.15 6.95 4.3 6.8 4.45 6.65 4.55 6.55 Q4.65 6.4 4.8 6.35 L4.85 6.3 5.5 5.85 Q8.25 6.0 8.9 3.65 L9.0 3.35 9.1 3.3 9.65 2.95 9.85 2.9 10.1 2.8 10.2 2.7 10.35 2.65 10.85 2.55 11.05 2.5 11.15 2.4 11.25 2.35 11.45 2.25 11.55 2.2 11.85 2.05 12.2 1.95 12.3 1.9 12.4 1.85 12.5 1.75 13.1 1.55 13.4 1.45 Q13.55 1.35 13.85 1.2 L14.2 1.0 14.3 0.9 14.45 0.8 15.05 0.55 Q15.05 0.45 15.15 0.5 L15.25 0.45 15.5 0.2 15.6 0.15 15.7 0.05 15.7 0.0 16.0 0.2 M16.8 9.7 Q16.85 15.9 9.25 14.35 13.45 14.4 16.8 9.7" fill="#feb89a" fill-rule="evenodd" stroke="none"/>
    <path d="M4.6 10.65 L3.2 10.85 1.35 10.95 2.95 10.05 Q7.15 7.75 10.85 5.15 L12.8 3.7 15.9 1.15 15.2 2.85 14.85 3.7 14.8 3.85 9.8 7.65 6.35 9.75 4.6 10.65 M15.5 5.0 L16.15 4.55 Q16.75 4.55 16.7 5.25 16.7 6.2 15.8 6.2 15.1 6.15 15.1 5.6 L15.5 5.0 M14.5 6.45 Q15.0 6.45 15.1 7.05 15.1 8.05 14.3 8.7 14.7 9.75 12.5 10.05 12.45 11.15 11.9 11.15 11.3 11.1 11.3 10.15 11.3 8.9 12.9 8.85 12.75 7.95 13.6 7.65 L13.85 6.95 Q13.95 6.45 14.5 6.45" fill="#ffffff" fill-rule="evenodd" stroke="none"/>
    <path d="M14.8 3.85 Q11.95 9.5 4.6 10.65 L6.35 9.75 9.8 7.65 14.8 3.85" fill="#870101" fill-rule="evenodd" stroke="none"/>
  </g>
</svg>
