<?xml version="1.0" encoding="UTF-8" standalone="no"?>
<svg xmlns:xlink="http://www.w3.org/1999/xlink" height="76.85px" width="73.65px" xmlns="http://www.w3.org/2000/svg">
  <g transform="matrix(1.0, 0.0, 0.0, 1.0, 0.5, 0.5)">
    <path d="M45.3 15.0 Q41.35 16.9 38.0 19.1 10.45 21.55 10.1 47.3 L11.0 47.95 Q11.1 52.8 13.1 58.3 12.7 61.4 12.7 64.55 12.75 67.35 13.15 70.15 8.65 67.65 7.0 62.45 L5.35 57.0 5.35 56.5 Q-0.9 27.0 26.0 13.0 L27.8 12.5 26.0 13.0 25.85 13.05 25.95 13.0 26.0 12.95 26.1 12.7 26.1 12.9 Q38.75 -0.55 58.45 2.6 L59.55 2.8 60.1 2.9 61.65 3.3 Q67.6 4.95 70.55 8.85 L61.05 9.6 59.7 9.8 Q41.15 -0.15 27.8 12.5 32.7 11.6 37.7 12.55 41.45 13.25 45.3 15.0" fill="#fedf76" fill-rule="evenodd" stroke="none"/>
    <path d="M26.0 13.0 Q-0.9 27.0 5.35 56.5 L5.35 57.0 7.0 62.45 Q8.65 67.65 13.15 70.15 13.55 73.0 14.35 75.85 -9.5 59.2 6.25 25.85 L6.85 25.2 Q14.4 17.3 22.2 14.15 L22.95 13.85 Q32.6 0.5 48.9 0.05 L49.45 0.05 Q65.5 -0.65 72.65 8.85 L70.55 8.85 Q67.6 4.95 61.65 3.3 L60.1 2.9 59.55 2.8 58.45 2.6 Q38.75 -0.55 26.1 12.9 L26.1 12.7 26.0 12.95 25.95 13.0 25.85 13.05 26.0 13.0 M21.3 36.7 L19.55 39.65 Q16.95 35.95 18.6 30.25 19.65 29.25 20.85 28.35 19.15 33.1 21.3 36.7 M25.85 13.05 L22.95 13.85 25.85 13.05" fill="#ffffff" fill-rule="evenodd" stroke="none"/>
    <path d="M37.7 12.55 Q32.7 11.6 27.8 12.5 41.15 -0.15 59.7 9.8 L58.5 10.0 58.25 10.05 57.8 10.1 Q48.3 4.45 37.7 12.55 M11.0 47.95 L10.1 47.3 Q10.45 21.55 38.0 19.1 34.25 21.45 31.25 24.2 28.65 26.5 26.6 29.0 L26.3 29.4 Q23.5 33.05 21.3 36.7 19.15 33.1 20.85 28.35 19.65 29.25 18.6 30.25 10.65 37.6 11.0 47.95 M20.85 28.35 Q22.65 26.95 24.75 25.7 29.15 23.6 31.25 24.2 29.15 23.6 24.75 25.7 22.65 26.95 20.85 28.35" fill="#fdba1e" fill-rule="evenodd" stroke="none"/>
    <path d="M45.3 15.0 Q41.45 13.25 37.7 12.55 32.7 11.6 27.8 12.5 L26.0 13.0 M13.1 58.3 Q11.1 52.8 11.0 47.95 M19.55 39.65 Q16.95 35.95 18.6 30.25 10.65 37.6 11.0 47.95 M72.65 8.85 Q65.5 -0.65 49.45 0.05 L48.9 0.05 Q32.6 0.5 22.95 13.85 L25.85 13.05 26.0 13.0 M37.7 12.55 Q48.3 4.45 57.8 10.1 L58.25 10.05 58.5 10.0 M22.95 13.85 L22.2 14.15 Q14.4 17.3 6.85 25.2 L6.25 25.85 Q-9.5 59.2 14.35 75.85 M31.25 24.2 Q29.15 23.6 24.75 25.7 22.65 26.95 20.85 28.35 M18.6 30.25 Q19.65 29.25 20.85 28.35" fill="none" stroke="#000000" stroke-linecap="round" stroke-linejoin="round" stroke-width="1.0"/>
  </g>
</svg>
