<?xml version="1.0" encoding="UTF-8" standalone="no"?>
<svg xmlns:xlink="http://www.w3.org/1999/xlink" height="124.75px" width="133.05px" xmlns="http://www.w3.org/2000/svg">
  <g transform="matrix(1.0, 0.0, 0.0, 1.0, 0.5, 0.5)">
    <path d="M117.5 49.2 L117.45 49.25 116.2 49.2 114.8 48.9 Q104.1 46.3 95.4 40.2 L94.75 39.75 Q79.95 28.3 63.0 22.85 L67.6 23.1 Q56.15 18.0 39.15 18.15 53.75 15.5 63.25 17.3 54.95 13.65 43.4 12.85 57.65 10.55 74.3 16.55 64.25 11.4 52.45 9.2 64.6 8.95 73.75 11.8 62.7 5.95 43.3 5.15 52.65 1.75 64.1 3.35 57.95 0.85 47.65 1.15 L47.35 1.15 45.8 1.2 45.55 1.2 47.0 0.95 48.35 0.75 57.85 0.0 59.95 0.0 Q95.65 0.6 111.25 38.95 L119.9 39.25 119.75 39.4 Q102.6 42.2 89.05 32.55 L88.95 32.5 88.2 31.95 Q98.6 40.05 106.5 44.5 111.05 47.0 114.8 48.35 L117.5 49.2 M82.15 27.05 L88.95 32.5 82.15 27.05 M98.75 30.9 Q104.75 37.2 111.25 38.95 104.75 37.2 98.75 30.9" fill="#fdba1e" fill-rule="evenodd" stroke="none"/>
    <path d="M116.2 49.2 L114.8 49.15 Q105.15 48.35 95.85 42.75 L95.2 42.35 Q83.55 34.55 70.2 28.4 L69.2 27.95 65.3 26.25 Q59.45 23.7 51.6 22.05 L63.0 22.85 Q79.95 28.3 94.75 39.75 L95.4 40.2 Q104.1 46.3 114.8 48.9 L116.2 49.2 M119.3 50.45 L120.15 50.15 120.8 50.4 121.75 50.7 Q126.9 52.4 132.05 52.8 122.9 53.9 114.9 51.9 L113.75 51.6 114.9 51.45 116.3 51.25 119.3 50.45 M106.5 44.5 Q98.6 40.05 88.2 31.95 L88.95 32.5 89.05 32.55 Q102.6 42.2 119.75 39.4 116.4 42.35 112.1 43.6 109.45 44.35 106.5 44.5 M114.8 48.9 L114.8 49.15 114.8 48.9 M114.9 51.9 L114.9 51.45 114.9 51.9" fill="#f7a002" fill-rule="evenodd" stroke="none"/>
    <path d="M117.45 49.25 L117.75 49.25 123.0 48.9 120.15 50.15 119.3 50.45 116.05 50.7 114.85 50.85 109.8 50.7 Q106.5 50.2 102.85 49.15 92.2 46.15 79.7 40.35 52.15 30.0 36.25 31.05 26.25 31.7 22.0 33.4 30.8 27.0 44.7 27.7 25.55 22.95 14.05 35.6 24.75 21.0 41.95 22.1 26.45 19.1 15.5 25.85 28.0 16.05 37.8 14.95 28.1 14.45 18.8 19.25 25.0 13.7 37.25 9.2 28.5 10.3 21.15 14.8 17.35 17.05 13.95 20.2 L13.9 20.15 Q15.95 17.65 18.55 15.35 21.55 12.6 25.3 10.25 28.65 8.05 32.6 6.15 37.15 3.9 42.45 2.0 L43.95 1.45 45.1 1.25 45.55 1.2 45.8 1.2 47.35 1.15 47.65 1.15 Q57.95 0.85 64.1 3.35 52.65 1.75 43.3 5.15 62.7 5.95 73.75 11.8 64.6 8.95 52.45 9.2 64.25 11.4 74.3 16.55 57.65 10.55 43.4 12.85 54.95 13.65 63.25 17.3 53.75 15.5 39.15 18.15 56.15 18.0 67.6 23.1 L63.0 22.85 51.6 22.05 Q59.45 23.7 65.3 26.25 67.25 27.1 69.0 28.05 L70.2 28.4 Q83.55 34.55 95.2 42.35 L95.85 42.75 Q105.15 48.35 114.8 49.15 L116.2 49.2 117.45 49.25 M12.9 43.5 L12.45 45.25 Q9.8 58.1 19.55 78.1 22.6 84.4 26.9 91.4 L26.95 91.5 27.45 92.05 Q29.2 94.2 30.6 96.8 32.0 99.35 33.0 102.4 L33.1 102.75 34.2 106.75 Q34.9 110.0 35.2 113.65 35.55 117.55 35.45 121.9 34.95 118.7 34.05 115.5 32.45 109.85 29.5 104.0 L27.55 100.35 25.8 97.9 Q24.2 95.65 18.75 86.4 14.0 78.25 8.5 58.3 L8.45 58.05 8.5 58.25 Q10.45 77.2 19.25 92.05 L17.95 93.6 Q5.4 80.5 1.65 67.0 0.85 64.15 0.45 61.3 0.05 58.5 0.0 55.7 L1.2 52.15 Q4.1 44.05 7.55 40.85 2.1 52.9 5.3 63.75 5.2 57.95 7.75 50.85 L8.1 53.45 8.15 54.1 8.2 53.4 Q8.5 45.55 12.9 43.5 M13.15 4.2 L13.3 4.15 13.15 4.2" fill="#fedf76" fill-rule="evenodd" stroke="none"/>
    <path d="M114.8 48.35 Q111.05 47.0 106.5 44.5 109.45 44.35 112.1 43.6 114.55 45.55 114.8 48.35 M41.7 105.8 Q38.8 108.05 34.2 106.75 L33.1 102.75 Q36.6 104.6 41.7 105.8 M113.75 51.6 L114.9 51.9 Q116.05 71.6 110.35 69.95 L109.25 69.45 110.1 66.15 Q111.05 60.35 109.65 51.7 L113.75 51.6 M17.95 93.6 L19.25 92.05 Q22.0 96.7 25.45 101.0 L25.75 101.45 28.0 104.9 Q24.95 104.3 23.0 103.45 21.05 102.55 19.45 100.6 17.75 98.65 17.25 96.55 16.9 95.15 17.95 93.6" fill="#ffd5c1" fill-rule="evenodd" stroke="none"/>
    <path d="M13.9 20.15 L13.95 20.2 Q17.35 17.05 21.15 14.8 28.5 10.3 37.25 9.2 25.0 13.7 18.8 19.25 28.1 14.45 37.8 14.95 28.0 16.05 15.5 25.85 26.45 19.1 41.95 22.1 24.75 21.0 14.05 35.6 25.55 22.95 44.7 27.7 30.8 27.0 22.0 33.4 26.25 31.7 36.25 31.05 52.15 30.0 79.7 40.35 92.2 46.15 102.85 49.15 106.5 50.2 109.8 50.7 L114.85 50.85 116.05 50.7 119.3 50.45 116.3 51.25 114.9 51.45 113.75 51.6 109.65 51.7 104.4 51.2 97.45 49.65 Q86.8 46.65 72.85 39.4 51.75 32.6 37.15 33.2 22.0 33.8 13.9 42.35 L12.9 43.5 Q8.5 45.55 8.2 53.4 L8.1 53.45 7.75 50.85 Q5.2 57.95 5.3 63.75 2.1 52.9 7.55 40.85 4.1 44.05 1.2 52.15 L0.0 55.7 Q0.0 52.55 0.4 49.45 1.65 40.2 6.85 30.8 L8.6 27.85 Q10.8 24.2 13.6 20.55 L13.9 20.15 M35.45 121.9 L35.25 121.95 Q33.2 113.55 28.0 104.9 L25.75 101.45 25.45 101.0 Q22.0 96.7 19.25 92.05 10.45 77.2 8.5 58.25 L8.45 58.05 8.5 58.3 Q14.0 78.25 18.75 86.4 24.2 95.65 25.8 97.9 L27.55 100.35 29.5 104.0 Q32.45 109.85 34.05 115.5 34.95 118.7 35.45 121.9 M8.5 58.3 L8.5 58.25 8.5 58.3" fill="#ffffff" fill-rule="evenodd" stroke="none"/>
    <path d="M117.45 49.25 L117.75 49.25 M116.2 49.2 L114.8 49.15 Q105.15 48.35 95.85 42.75 L95.2 42.35 Q83.55 34.55 70.2 28.4 L69.2 27.95 65.3 26.25 M45.55 1.2 L45.1 1.25 43.95 1.45 42.45 2.0 Q37.15 3.9 32.6 6.15 28.65 8.05 25.3 10.25 21.55 12.6 18.55 15.35 15.95 17.65 13.9 20.15 L13.6 20.55 Q10.8 24.2 8.6 27.85 L6.85 30.8 Q1.65 40.2 0.4 49.45 0.0 52.55 0.0 55.7 0.05 58.5 0.45 61.3 0.85 64.15 1.65 67.0 5.4 80.5 17.95 93.6 M123.0 48.9 L117.75 49.25 M112.1 43.6 Q109.45 44.35 106.5 44.5 M35.25 121.95 L35.35 122.4 M114.9 51.9 Q122.9 53.9 132.05 52.8 M114.9 51.9 L113.75 51.6 M119.75 39.4 L119.9 39.25 111.25 38.95 Q104.75 37.2 98.75 30.9 M112.1 43.6 Q116.4 42.35 119.75 39.4 M111.25 38.95 Q95.65 0.6 59.95 0.0 L57.85 0.0 48.35 0.75 47.0 0.95 45.55 1.2 M19.25 92.05 Q10.45 77.2 8.5 58.25 L8.45 58.05 M28.0 104.9 L25.75 101.45 25.45 101.0 Q22.0 96.7 19.25 92.05 M35.25 121.95 Q33.2 113.55 28.0 104.9" fill="none" stroke="#000000" stroke-linecap="round" stroke-linejoin="round" stroke-width="1.0"/>
    <path d="M117.75 49.25 L117.5 49.2 114.8 48.35 Q111.05 47.0 106.5 44.5 98.6 40.05 88.2 31.95 M119.3 50.45 L120.15 50.15 123.0 48.9 M88.95 32.5 L82.15 27.05 M114.8 49.15 L114.8 48.9 M114.8 48.35 Q114.55 45.55 112.1 43.6 M109.25 69.45 L109.2 69.65 Q108.5 71.55 107.4 73.05 107.85 63.05 105.45 54.5 L104.4 51.2 97.45 49.65 Q86.8 46.65 72.85 39.4 51.75 32.6 37.15 33.2 22.0 33.8 13.9 42.35 L12.9 43.5 12.45 45.25 Q9.8 58.1 19.55 78.1 22.6 84.4 26.9 91.4 L26.95 91.5 27.45 92.05 Q29.2 94.2 30.6 96.8 L34.65 99.7 Q43.65 105.7 53.35 107.35 L43.95 106.25 41.7 105.8 Q38.8 108.05 34.2 106.75 34.9 110.0 35.2 113.65 35.55 117.55 35.45 121.9 M35.35 122.4 L35.4 122.75 35.35 123.75 M119.3 50.45 L116.3 51.25 114.9 51.45 114.9 51.9 M132.05 52.8 Q126.9 52.4 121.75 50.7 L120.8 50.4 120.15 50.15 M113.75 51.6 L109.65 51.7 Q111.05 60.35 110.1 66.15 L109.25 69.45 M110.35 69.95 Q116.05 71.6 114.9 51.9 M114.9 51.45 L113.75 51.6 M104.4 51.2 L109.65 51.7 M89.05 32.55 L88.95 32.5 M17.95 93.6 L19.25 92.05 M8.5 58.25 L8.5 58.3 M17.95 93.6 Q16.9 95.15 17.25 96.55 17.75 98.65 19.45 100.6 21.05 102.55 23.0 103.45 24.95 104.3 28.0 104.9 M30.6 96.8 Q32.0 99.35 33.0 102.4 L33.1 102.75 Q36.6 104.6 41.7 105.8 M33.1 102.75 L34.2 106.75" fill="none" stroke="#000000" stroke-linecap="round" stroke-linejoin="round" stroke-width="1.0"/>
  </g>
</svg>
