<?xml version="1.0" encoding="UTF-8" standalone="no"?>
<svg xmlns:xlink="http://www.w3.org/1999/xlink" height="44.05px" width="38.5px" xmlns="http://www.w3.org/2000/svg">
  <g transform="matrix(1.0, 0.0, 0.0, 1.0, 0.45, 0.5)">
    <path d="M33.7 8.65 L34.15 9.4 35.1 11.45 Q39.1 20.7 36.55 29.95 32.3 39.45 23.0 39.95 L23.85 39.45 Q30.15 37.4 33.5 29.95 36.35 19.7 31.1 9.4 28.95 5.5 26.2 3.5 30.5 4.35 33.7 8.65 M17.95 41.75 L17.0 42.0 Q22.9 37.95 21.7 28.1 19.35 39.0 10.9 42.8 L11.2 41.9 Q20.55 34.85 21.4 18.35 31.5 30.75 20.7 39.55 L18.6 41.3 Q18.25 41.5 17.95 41.75" fill="#fdba1e" fill-rule="evenodd" stroke="none"/>
    <path d="M10.9 42.8 L10.3 43.05 10.5 42.6 Q12.4 37.25 8.65 31.9 L8.6 31.85 Q1.75 23.25 5.1 13.8 L5.2 13.25 6.65 11.7 Q3.4 21.25 10.25 29.85 L10.3 29.9 Q13.55 34.55 11.2 41.9 L10.9 42.8 M1.9 24.4 L1.95 28.65 Q-2.1 12.75 2.4 6.45 7.55 -3.05 17.5 1.45 L17.9 1.6 18.45 1.9 20.95 1.4 Q28.85 0.5 33.7 8.65 30.5 4.35 26.2 3.5 L22.25 3.35 19.75 3.85 19.2 3.55 18.8 3.4 Q8.85 -1.1 3.7 8.4 0.15 13.4 1.9 24.4" fill="#ffffff" fill-rule="evenodd" stroke="none"/>
    <path d="M23.0 39.95 Q20.2 41.15 17.95 41.75 18.25 41.5 18.6 41.3 L20.7 39.55 Q31.5 30.75 21.4 18.35 20.55 34.85 11.2 41.9 13.55 34.55 10.3 29.9 L10.25 29.85 Q3.4 21.25 6.65 11.7 L5.2 13.25 5.1 13.8 5.0 13.9 Q2.25 18.1 1.9 24.4 0.15 13.4 3.7 8.4 8.85 -1.1 18.8 3.4 L19.2 3.55 19.75 3.85 22.25 3.35 26.2 3.5 Q28.95 5.5 31.1 9.4 36.35 19.7 33.5 29.95 30.15 37.4 23.85 39.45 L23.0 39.95 M29.1 32.55 Q27.9 36.95 23.85 39.45 27.9 36.95 29.1 32.55" fill="#fedf76" fill-rule="evenodd" stroke="none"/>
    <path d="M33.7 8.65 L34.15 9.4 35.1 11.45 Q39.1 20.7 36.55 29.95 32.3 39.45 23.0 39.95 20.2 41.15 17.95 41.75 L17.0 42.0 Q22.9 37.95 21.7 28.1 19.35 39.0 10.9 42.8 L10.3 43.05 10.5 42.6 Q12.4 37.25 8.65 31.9 L8.6 31.85 Q1.75 23.25 5.1 13.8 L5.0 13.9 Q2.25 18.1 1.9 24.4 L1.95 28.65 Q-2.1 12.75 2.4 6.45 7.55 -3.05 17.5 1.45 L17.9 1.6 18.45 1.9 20.95 1.4 Q28.85 0.5 33.7 8.65 M23.85 39.45 L23.0 39.95 M5.1 13.8 L5.2 13.25 M23.85 39.45 Q27.9 36.95 29.1 32.55" fill="none" stroke="#000000" stroke-linecap="round" stroke-linejoin="round" stroke-width="1.0"/>
  </g>
</svg>
