<?xml version="1.0" encoding="UTF-8" standalone="no"?>
<svg xmlns:xlink="http://www.w3.org/1999/xlink" height="13.25px" width="18.95px" xmlns="http://www.w3.org/2000/svg">
  <g transform="matrix(1.0, 0.0, 0.0, 1.0, -0.55, -2.6)">
    <path d="M19.1 8.0 L19.35 8.15 19.5 8.45 19.5 8.55 19.3 8.9 18.35 8.8 Q12.15 12.9 7.2 12.6 2.65 9.85 1.3 4.75 L1.0 3.5 0.55 3.2 0.55 3.0 0.65 2.8 Q0.75 2.6 0.95 2.6 L1.2 2.65 5.95 4.3 14.35 6.7 19.1 8.0 M16.35 9.65 L17.15 9.1 17.7 8.7 Q17.6 8.3 13.0 6.75 8.4 5.15 5.45 4.65 L1.85 3.9 2.0 4.75 2.0 4.8 Q2.75 8.25 4.6 10.25 5.85 11.6 7.55 12.3 12.45 12.1 16.35 9.65" fill="#000000" fill-rule="evenodd" stroke="none"/>
    <path d="M9.25 14.75 L9.45 15.05 9.4 15.45 9.1 15.65 Q5.5 16.45 3.6 13.95 L3.5 13.6 3.7 13.25 4.05 13.15 5.05 14.45 Q5.8 15.7 7.45 15.2 L9.25 14.75" fill="#fec1ab" fill-rule="evenodd" stroke="none"/>
    <path d="M17.15 9.1 Q10.1 6.25 2.0 4.8 L2.0 4.75 1.85 3.9 5.45 4.65 Q8.4 5.15 13.0 6.75 17.6 8.3 17.7 8.7 L17.15 9.1" fill="#cc3366" fill-rule="evenodd" stroke="none"/>
    <path d="M17.15 9.1 L16.35 9.65 Q7.8 4.85 4.6 10.25 2.75 8.25 2.0 4.8 10.1 6.25 17.15 9.1" fill="#990033" fill-rule="evenodd" stroke="none"/>
    <path d="M4.6 10.25 Q7.8 4.85 16.35 9.65 12.45 12.1 7.55 12.3 5.85 11.6 4.6 10.25" fill="#e085aa" fill-rule="evenodd" stroke="none"/>
  </g>
</svg>
