<?xml version="1.0" encoding="UTF-8" standalone="no"?>
<svg xmlns:xlink="http://www.w3.org/1999/xlink" height="23.45px" width="98.0px" xmlns="http://www.w3.org/2000/svg">
  <g transform="matrix(1.0, 0.0, 0.0, 1.0, 39.0, 11.55)">
    <path d="M2.35 -4.6 Q1.35 -4.6 0.9 -3.55 0.45 -2.6 0.5 0.1 0.45 2.8 0.95 3.85 1.4 4.8 2.35 4.8 L3.35 4.35 Q3.8 3.95 4.05 3.05 L4.25 0.2 Q4.25 -2.65 3.75 -3.6 3.25 -4.6 2.35 -4.6 M6.3 -5.9 L7.25 -4.75 7.75 -3.25 Q8.15 -1.7 8.15 0.05 8.15 3.9 6.85 5.7 5.55 7.5 2.35 7.5 0.5 7.5 -0.55 6.9 -1.7 6.35 -2.35 5.25 -2.9 4.45 -3.15 3.1 L-3.45 0.1 Q-3.45 -3.95 -1.95 -5.55 -0.55 -7.2 2.45 -7.15 L4.8 -6.85 6.3 -5.9 M15.6 -4.6 Q14.6 -4.6 14.2 -3.55 13.75 -2.6 13.75 0.1 13.75 2.8 14.25 3.85 14.65 4.8 15.6 4.8 16.15 4.8 16.6 4.35 L17.3 3.05 17.5 0.2 Q17.5 -2.65 17.0 -3.6 16.5 -4.6 15.6 -4.6 M19.55 -5.9 L20.5 -4.75 21.05 -3.25 Q21.4 -1.7 21.4 0.05 21.4 3.9 20.1 5.7 18.8 7.5 15.6 7.5 13.75 7.5 12.7 6.9 11.6 6.35 10.9 5.25 10.35 4.45 10.1 3.1 9.8 1.7 9.85 0.1 9.8 -3.95 11.3 -5.55 12.7 -7.2 15.7 -7.15 L18.05 -6.85 19.55 -5.9 M28.8 -4.6 Q27.8 -4.6 27.4 -3.55 26.95 -2.6 26.95 0.1 26.95 2.8 27.45 3.85 27.85 4.8 28.8 4.8 L29.85 4.35 30.5 3.05 30.7 0.2 Q30.7 -2.65 30.2 -3.6 29.7 -4.6 28.8 -4.6 M28.9 -7.15 L31.25 -6.85 32.75 -5.9 33.7 -4.75 34.25 -3.25 Q34.6 -1.7 34.6 0.05 34.6 3.9 33.3 5.7 32.05 7.5 28.8 7.5 27.0 7.5 25.9 6.9 24.8 6.35 24.1 5.25 23.55 4.45 23.35 3.1 23.05 1.7 23.05 0.1 23.0 -3.95 24.5 -5.55 25.9 -7.2 28.9 -7.15 M-36.15 -6.35 L-36.15 -8.8 -27.0 -8.8 -27.0 -6.35 -27.95 -6.35 -27.95 5.7 -27.4 5.7 -27.4 8.25 -27.95 8.25 -27.95 9.15 -30.45 9.15 -30.45 8.25 -36.25 8.25 -36.25 5.7 -35.3 5.7 -35.3 -6.35 -36.15 -6.35 M-30.45 -3.9 L-30.45 -6.35 -32.8 -6.35 -32.8 -3.9 -30.45 -3.9 M-32.8 -1.6 L-32.8 0.8 -30.45 0.8 -30.45 -1.6 -32.8 -1.6 M-26.7 -5.9 L-26.7 -8.4 -18.7 -8.4 -18.7 -5.8 -21.8 2.3 -20.4 5.75 Q-20.25 6.3 -19.85 6.35 L-18.65 6.35 -18.65 8.85 -21.15 8.85 Q-22.25 8.85 -22.75 7.0 L-23.2 5.9 -23.55 6.9 Q-24.3 8.8 -25.3 8.8 L-27.1 8.8 -27.1 6.25 -26.55 6.25 -25.85 5.7 -24.55 2.25 -27.15 -4.45 -24.45 -4.45 -23.25 -1.4 -21.55 -5.9 -26.7 -5.9 M-7.7 -7.15 L-7.7 7.25 -11.7 7.25 -11.7 -2.25 -13.55 -1.0 -15.85 -0.15 -15.85 -3.4 Q-13.85 -4.05 -12.7 -4.9 -11.6 -5.85 -10.95 -7.15 L-7.7 -7.15 M-32.8 5.7 L-30.45 5.7 -30.45 3.15 -32.8 3.15 -32.8 5.7" fill="#003399" fill-rule="evenodd" stroke="none"/>
    <path d="M38.8 -2.8 L56.1 -2.8 56.1 -0.35 52.15 -0.35 52.15 5.4 Q52.15 6.0 52.85 6.0 L56.25 6.0 56.25 8.35 52.15 8.35 Q49.35 8.35 49.35 6.0 L49.35 -0.35 38.8 -0.35 38.8 -2.8 M39.25 -8.5 L55.65 -8.5 55.65 -6.0 39.25 -6.0 39.25 -8.5 M45.15 6.15 Q44.6 8.2 42.65 8.2 L38.65 8.2 38.65 5.8 41.65 5.8 Q42.1 5.8 42.35 4.9 L43.35 0.35 46.4 0.35 45.15 6.15" fill="#ff0000" fill-rule="evenodd" stroke="none"/>
    <path d="M2.35 -4.6 Q1.35 -4.6 0.9 -3.55 0.45 -2.6 0.5 0.1 0.45 2.8 0.95 3.85 1.4 4.8 2.35 4.8 L3.35 4.35 Q3.8 3.95 4.05 3.05 L4.25 0.2 Q4.25 -2.65 3.75 -3.6 3.25 -4.6 2.35 -4.6 M6.3 -5.9 L7.25 -4.75 7.75 -3.25 Q8.15 -1.7 8.15 0.05 8.15 3.9 6.85 5.7 5.55 7.5 2.35 7.5 0.5 7.5 -0.55 6.9 -1.7 6.35 -2.35 5.25 -2.9 4.45 -3.15 3.1 L-3.45 0.1 Q-3.45 -3.95 -1.95 -5.55 -0.55 -7.2 2.45 -7.15 L4.8 -6.85 6.3 -5.9 M15.6 -4.6 Q14.6 -4.6 14.2 -3.55 13.75 -2.6 13.75 0.1 13.75 2.8 14.25 3.85 14.65 4.8 15.6 4.8 16.15 4.8 16.6 4.35 L17.3 3.05 17.5 0.2 Q17.5 -2.65 17.0 -3.6 16.5 -4.6 15.6 -4.6 M19.55 -5.9 L20.5 -4.75 21.05 -3.25 Q21.4 -1.7 21.4 0.05 21.4 3.9 20.1 5.7 18.8 7.5 15.6 7.5 13.75 7.5 12.7 6.9 11.6 6.35 10.9 5.25 10.35 4.45 10.1 3.1 9.8 1.7 9.85 0.1 9.8 -3.95 11.3 -5.55 12.7 -7.2 15.7 -7.15 L18.05 -6.85 19.55 -5.9 M28.8 -4.6 Q27.8 -4.6 27.4 -3.55 26.95 -2.6 26.95 0.1 26.95 2.8 27.45 3.85 27.85 4.8 28.8 4.8 L29.85 4.35 30.5 3.05 30.7 0.2 Q30.7 -2.65 30.2 -3.6 29.7 -4.6 28.8 -4.6 M28.9 -7.15 L31.25 -6.85 32.75 -5.9 33.7 -4.75 34.25 -3.25 Q34.6 -1.7 34.6 0.05 34.6 3.9 33.3 5.7 32.05 7.5 28.8 7.5 27.0 7.5 25.9 6.9 24.8 6.35 24.1 5.25 23.55 4.45 23.35 3.1 23.05 1.7 23.05 0.1 23.0 -3.95 24.5 -5.55 25.9 -7.2 28.9 -7.15 M38.8 -2.8 L56.1 -2.8 56.1 -0.35 52.15 -0.35 52.15 5.4 Q52.15 6.0 52.85 6.0 L56.25 6.0 56.25 8.35 52.15 8.35 Q49.35 8.35 49.35 6.0 L49.35 -0.35 38.8 -0.35 38.8 -2.8 M39.25 -8.5 L55.65 -8.5 55.65 -6.0 39.25 -6.0 39.25 -8.5 M45.15 6.15 Q44.6 8.2 42.65 8.2 L38.65 8.2 38.65 5.8 41.65 5.8 Q42.1 5.8 42.35 4.9 L43.35 0.35 46.4 0.35 45.15 6.15 M-36.15 -6.35 L-36.15 -8.8 -27.0 -8.8 -27.0 -6.35 -27.95 -6.35 -27.95 5.7 -27.4 5.7 -27.4 8.25 -27.95 8.25 -27.95 9.15 -30.45 9.15 -30.45 8.25 -36.25 8.25 -36.25 5.7 -35.3 5.7 -35.3 -6.35 -36.15 -6.35 M-30.45 -3.9 L-30.45 -6.35 -32.8 -6.35 -32.8 -3.9 -30.45 -3.9 M-32.8 -1.6 L-32.8 0.8 -30.45 0.8 -30.45 -1.6 -32.8 -1.6 M-26.7 -5.9 L-26.7 -8.4 -18.7 -8.4 -18.7 -5.8 -21.8 2.3 -20.4 5.75 Q-20.25 6.3 -19.85 6.35 L-18.65 6.35 -18.65 8.85 -21.15 8.85 Q-22.25 8.85 -22.75 7.0 L-23.2 5.9 -23.55 6.9 Q-24.3 8.8 -25.3 8.8 L-27.1 8.8 -27.1 6.25 -26.55 6.25 -25.85 5.7 -24.55 2.25 -27.15 -4.45 -24.45 -4.45 -23.25 -1.4 -21.55 -5.9 -26.7 -5.9 M-7.7 -7.15 L-7.7 7.25 -11.7 7.25 -11.7 -2.25 -13.55 -1.0 -15.85 -0.15 -15.85 -3.4 Q-13.85 -4.05 -12.7 -4.9 -11.6 -5.85 -10.95 -7.15 L-7.7 -7.15 M-32.8 5.7 L-30.45 5.7 -30.45 3.15 -32.8 3.15 -32.8 5.7" fill="none" stroke="#ffffff" stroke-linecap="round" stroke-linejoin="round" stroke-width="5.5"/>
    <path d="M-36.15 -6.35 L-36.15 -8.8 -27.0 -8.8 -27.0 -6.35 -27.95 -6.35 -27.95 5.7 -27.4 5.7 -27.4 8.25 -27.95 8.25 -27.95 9.15 -30.45 9.15 -30.45 8.25 -36.25 8.25 -36.25 5.7 -35.3 5.7 -35.3 -6.35 -36.15 -6.35 M-32.8 -1.6 L-32.8 0.8 -30.45 0.8 -30.45 -1.6 -32.8 -1.6 M-30.45 -3.9 L-30.45 -6.35 -32.8 -6.35 -32.8 -3.9 -30.45 -3.9 M-26.7 -5.9 L-26.7 -8.4 -18.7 -8.4 -18.7 -5.8 -21.8 2.3 -20.4 5.75 Q-20.25 6.3 -19.85 6.35 L-18.65 6.35 -18.65 8.85 -21.15 8.85 Q-22.25 8.85 -22.75 7.0 L-23.2 5.9 -23.55 6.9 Q-24.3 8.8 -25.3 8.8 L-27.1 8.8 -27.1 6.25 -26.55 6.25 -25.85 5.7 -24.55 2.25 -27.15 -4.45 -24.45 -4.45 -23.25 -1.4 -21.55 -5.9 -26.7 -5.9 M-32.8 5.7 L-30.45 5.7 -30.45 3.15 -32.8 3.15 -32.8 5.7" fill="#003399" fill-rule="evenodd" stroke="none"/>
    <path d="M2.35 -4.6 Q1.35 -4.6 0.9 -3.55 0.45 -2.6 0.5 0.1 0.45 2.8 0.95 3.85 1.4 4.8 2.35 4.8 L3.35 4.35 Q3.8 3.95 4.05 3.05 L4.25 0.2 Q4.25 -2.65 3.75 -3.6 3.25 -4.6 2.35 -4.6 M6.3 -5.9 L7.25 -4.75 7.75 -3.25 Q8.15 -1.7 8.15 0.05 8.15 3.9 6.85 5.7 5.55 7.5 2.35 7.5 0.5 7.5 -0.55 6.9 -1.7 6.35 -2.35 5.25 -2.9 4.45 -3.15 3.1 L-3.45 0.1 Q-3.45 -3.95 -1.95 -5.55 -0.55 -7.2 2.45 -7.15 L4.8 -6.85 6.3 -5.9 M15.6 -4.6 Q14.6 -4.6 14.2 -3.55 13.75 -2.6 13.75 0.1 13.75 2.8 14.25 3.85 14.65 4.8 15.6 4.8 16.15 4.8 16.6 4.35 L17.3 3.05 17.5 0.2 Q17.5 -2.65 17.0 -3.6 16.5 -4.6 15.6 -4.6 M19.55 -5.9 L20.5 -4.75 21.05 -3.25 Q21.4 -1.7 21.4 0.05 21.4 3.9 20.1 5.7 18.8 7.5 15.6 7.5 13.75 7.5 12.7 6.9 11.6 6.35 10.9 5.25 10.35 4.45 10.1 3.1 9.8 1.7 9.85 0.1 9.8 -3.95 11.3 -5.55 12.7 -7.2 15.7 -7.15 L18.05 -6.85 19.55 -5.9 M28.8 -4.6 Q27.8 -4.6 27.4 -3.55 26.95 -2.6 26.95 0.1 26.95 2.8 27.45 3.85 27.85 4.8 28.8 4.8 L29.85 4.35 30.5 3.05 30.7 0.2 Q30.7 -2.65 30.2 -3.6 29.7 -4.6 28.8 -4.6 M28.9 -7.15 L31.25 -6.85 32.75 -5.9 33.7 -4.75 34.25 -3.25 Q34.6 -1.7 34.6 0.05 34.6 3.9 33.3 5.7 32.05 7.5 28.8 7.5 27.0 7.5 25.9 6.9 24.8 6.35 24.1 5.25 23.55 4.45 23.35 3.1 23.05 1.7 23.05 0.1 23.0 -3.95 24.5 -5.55 25.9 -7.2 28.9 -7.15 M39.25 -8.5 L55.65 -8.5 55.65 -6.0 39.25 -6.0 39.25 -8.5 M38.8 -2.8 L56.1 -2.8 56.1 -0.35 52.15 -0.35 52.15 5.4 Q52.15 6.0 52.85 6.0 L56.25 6.0 56.25 8.35 52.15 8.35 Q49.35 8.35 49.35 6.0 L49.35 -0.35 38.8 -0.35 38.8 -2.8 M43.35 0.35 L46.4 0.35 45.15 6.15 Q44.6 8.2 42.65 8.2 L38.65 8.2 38.65 5.8 41.65 5.8 Q42.1 5.8 42.35 4.9 L43.35 0.35 M-7.7 -7.15 L-7.7 7.25 -11.7 7.25 -11.7 -2.25 -13.55 -1.0 -15.85 -0.15 -15.85 -3.4 Q-13.85 -4.05 -12.7 -4.9 -11.6 -5.85 -10.95 -7.15 L-7.7 -7.15" fill="#ff0000" fill-rule="evenodd" stroke="none"/>
  </g>
</svg>
