<?xml version="1.0" encoding="UTF-8" standalone="no"?>
<svg xmlns:xlink="http://www.w3.org/1999/xlink" height="93.6px" width="287.7px" xmlns="http://www.w3.org/2000/svg">
  <g transform="matrix(1.0, 0.0, 0.0, 1.0, 143.85, 46.8)">
    <path d="M56.85 -12.55 L64.1 -12.55 64.1 -15.55 67.15 -15.55 67.15 -12.55 74.35 -12.55 74.35 -9.9 67.6 -9.9 71.4 -0.85 Q71.75 0.05 72.15 0.05 L74.45 0.05 74.45 2.7 70.35 2.7 Q69.7 2.7 69.3 1.6 L65.7 -7.45 62.3 1.25 Q61.7 2.7 60.95 2.7 L56.75 2.7 56.75 0.05 59.1 0.05 Q59.7 0.05 60.4 -1.85 L63.45 -9.9 56.85 -9.9 56.85 -12.55 M76.8 -15.25 L79.35 -15.25 79.75 -14.05 Q79.8 -13.45 80.25 -13.45 L80.55 -13.45 80.55 -11.4 79.0 -11.4 Q77.85 -11.4 77.55 -12.6 L76.8 -15.25 M76.5 -4.1 L83.55 -4.1 83.55 -5.15 86.55 -5.15 86.55 -4.1 94.0 -4.1 94.0 -1.8 87.55 -1.8 89.25 0.2 90.15 0.45 93.7 0.45 93.7 2.8 88.55 2.8 87.45 2.5 85.0 -0.6 82.6 2.5 81.55 2.8 76.8 2.8 76.8 0.45 79.9 0.45 80.85 0.2 82.55 -1.8 76.5 -1.8 76.5 -4.1 M76.8 -7.65 L77.4 -7.65 Q77.8 -7.65 78.0 -8.15 L78.6 -9.8 81.15 -9.8 81.15 -15.4 83.75 -15.4 83.75 -5.55 81.15 -5.55 81.15 -9.8 79.8 -6.6 Q79.35 -5.55 78.35 -5.55 L76.8 -5.55 76.8 -7.65 M101.4 -10.85 L101.4 2.5 99.2 2.5 99.2 -9.45 98.7 -0.55 Q98.6 0.45 98.15 0.95 97.55 1.45 96.8 1.45 L96.05 1.45 96.05 -0.7 96.1 -0.7 Q96.6 -0.7 96.65 -1.5 L97.2 -10.85 99.2 -10.85 99.2 -11.65 96.4 -11.65 96.4 -13.95 99.2 -13.95 99.2 -15.7 101.4 -15.7 101.4 -13.95 103.95 -13.95 103.95 -11.65 101.4 -11.65 101.4 -10.85 103.5 -10.85 104.0 -2.85 Q104.1 -2.2 104.5 -2.2 L104.65 -2.2 104.65 -0.05 103.35 -0.05 Q102.1 -0.05 102.0 -1.8 L101.4 -10.85 M85.25 -13.7 L85.6 -13.95 86.45 -15.4 89.15 -15.4 88.7 -14.5 93.75 -14.5 93.75 -11.85 92.3 -7.45 Q91.7 -5.55 89.75 -5.55 L84.5 -5.55 84.5 -7.8 86.45 -7.8 86.15 -8.7 Q85.9 -9.0 85.5 -9.0 L84.55 -9.0 84.55 -10.75 86.7 -10.75 Q87.5 -10.75 88.1 -9.9 L89.05 -7.85 Q89.6 -8.05 89.85 -8.75 L90.85 -12.1 87.4 -12.1 Q87.1 -11.55 86.55 -11.55 L84.4 -11.55 84.4 -13.7 85.25 -13.7 M119.55 -15.25 L129.9 -15.25 131.2 -12.65 Q131.5 -11.7 131.95 -11.7 L133.3 -11.7 133.3 -9.4 130.8 -9.4 Q130.05 -9.4 129.55 -10.2 L127.9 -12.9 121.45 -12.9 119.8 -10.2 Q119.3 -9.4 118.55 -9.4 L116.05 -9.4 116.05 -11.7 117.4 -11.7 Q117.8 -11.7 118.15 -12.65 L119.55 -15.25 M107.8 -12.55 L107.8 0.65 Q107.75 2.7 105.95 2.75 L104.2 2.75 104.2 0.25 104.95 0.25 105.2 -0.15 105.2 -15.15 112.8 -15.15 112.8 -0.3 Q112.8 0.25 113.25 0.25 L113.75 0.25 113.75 2.75 111.9 2.75 Q110.1 2.75 110.1 0.6 L110.1 -12.55 107.8 -12.55 M116.25 -8.35 L132.85 -8.35 132.85 -5.95 116.25 -5.95 116.25 -8.35 M116.05 -2.3 L116.05 -4.7 133.3 -4.7 133.3 -2.3 122.4 -2.3 120.3 0.35 129.55 0.35 Q129.95 0.35 130.0 -0.05 L130.0 -1.25 132.7 -1.25 132.7 0.9 Q132.7 1.45 132.15 2.0 131.4 2.7 130.45 2.7 L116.45 2.7 116.45 1.0 116.85 0.35 118.95 -2.3 116.05 -2.3 M137.65 -2.7 L141.1 -2.7 141.1 1.0 137.65 1.0 137.65 -2.7 M137.65 -13.65 L141.1 -13.65 141.1 -10.65 140.2 -4.15 138.5 -4.15 137.65 -10.65 137.65 -13.65 M57.05 28.7 L58.35 28.7 Q58.8 28.7 59.15 27.75 L60.55 25.15 70.9 25.15 72.15 27.75 Q72.5 28.7 72.95 28.7 L74.3 28.7 74.3 31.0 71.8 31.0 Q71.05 31.0 70.55 30.2 L68.9 27.5 62.45 27.5 60.8 30.2 Q60.3 31.0 59.55 31.0 L57.05 31.0 57.05 28.7 M57.2 32.05 L73.85 32.05 73.85 34.45 57.2 34.45 57.2 32.05 M44.45 29.55 L44.95 37.55 Q45.05 38.2 45.45 38.2 L45.6 38.2 45.6 40.35 44.3 40.35 Q43.05 40.35 42.95 38.6 L42.35 29.55 42.35 42.9 40.15 42.9 40.15 30.95 39.65 39.85 Q39.55 40.85 39.1 41.35 38.5 41.85 37.75 41.85 L36.95 41.85 36.95 39.7 37.05 39.7 Q37.55 39.7 37.6 38.9 L38.15 29.55 40.15 29.55 40.15 28.75 37.35 28.75 37.35 26.45 40.15 26.45 40.15 24.7 42.35 24.7 42.35 26.45 44.9 26.45 44.9 28.75 42.35 28.75 42.35 29.55 44.45 29.55 M46.9 43.15 L45.15 43.15 45.15 40.65 45.9 40.65 46.15 40.25 46.15 25.25 53.75 25.25 53.75 40.1 Q53.75 40.65 54.2 40.65 L54.65 40.65 54.65 43.15 52.85 43.15 Q51.05 43.15 51.05 41.0 L51.05 27.85 48.75 27.85 48.75 41.05 Q48.7 43.1 46.9 43.15 M57.05 38.1 L57.05 35.7 74.3 35.7 74.3 38.1 63.35 38.1 61.3 40.75 70.55 40.75 Q70.95 40.75 70.95 40.35 L70.95 39.15 73.7 39.15 73.7 41.3 Q73.7 41.85 73.15 42.4 72.4 43.1 71.45 43.1 L57.45 43.1 57.45 41.4 57.85 40.75 59.95 38.1 57.05 38.1 M19.75 26.45 Q20.2 26.45 20.35 26.1 L20.9 24.9 23.95 24.9 23.7 25.4 34.45 25.4 34.45 27.55 33.2 31.85 Q32.75 33.4 30.9 33.4 L18.45 33.4 18.45 30.9 23.85 30.9 22.6 28.9 25.55 28.9 26.8 30.9 29.95 30.9 Q30.5 30.9 30.6 30.55 L31.55 27.8 22.45 27.8 Q21.95 28.7 20.9 28.7 L18.05 28.7 18.05 26.45 19.75 26.45 M15.2 27.4 L7.85 27.4 7.85 28.2 14.9 28.2 14.9 35.0 Q14.9 36.9 13.05 36.9 L7.85 36.9 7.85 37.2 7.65 37.85 6.2 39.7 7.2 40.4 8.85 40.85 15.4 40.85 15.4 43.15 7.05 43.15 Q6.3 43.15 5.7 42.75 L4.45 41.8 3.75 42.75 Q3.4 43.15 2.8 43.15 L-2.3 43.15 -2.3 40.85 1.6 40.85 2.1 40.6 2.35 40.25 -1.15 37.65 3.1 37.65 3.9 38.1 4.75 36.9 -1.8 36.9 -1.8 28.2 5.15 28.2 5.15 27.4 -2.15 27.4 -2.15 25.1 15.2 25.1 15.2 27.4 M12.3 33.55 L7.85 33.55 7.85 34.65 11.75 34.65 Q12.3 34.65 12.3 33.95 L12.3 33.55 M19.55 35.3 Q19.95 35.3 20.1 35.0 L20.7 33.85 23.7 33.85 23.25 34.65 34.7 34.65 34.7 36.85 33.4 41.45 Q32.9 43.1 31.0 43.1 L17.5 43.1 17.5 40.6 23.6 40.6 22.3 38.35 25.3 38.35 26.6 40.6 30.0 40.6 Q30.6 40.6 30.75 40.15 L31.7 37.1 22.0 37.1 Q21.5 37.65 20.7 37.65 L17.55 37.65 17.55 35.3 19.55 35.3 M12.3 30.45 L7.85 30.45 7.85 31.55 12.3 31.55 12.3 30.45 M0.8 34.65 L5.15 34.65 5.15 33.55 0.8 33.55 0.8 34.65 M5.15 31.55 L5.15 30.45 0.8 30.45 0.8 31.55 5.15 31.55 M-129.8 -14.25 L-123.75 -14.25 -123.75 0.6 Q-123.75 2.75 -126.2 2.75 L-129.8 2.75 -129.8 0.25 -127.1 0.25 Q-126.5 0.25 -126.5 -0.3 L-126.5 -11.8 -130.75 -11.8 -130.85 -11.6 Q-131.4 -10.25 -132.6 -10.25 L-134.15 -10.25 -134.15 -12.6 -133.75 -12.6 Q-133.25 -12.6 -133.05 -13.3 L-132.25 -15.55 -129.3 -15.55 -129.8 -14.25 M-136.6 -15.55 L-136.6 -13.0 -134.55 -13.0 -134.55 -10.45 -136.6 -10.45 -136.6 0.05 -134.45 0.05 -134.45 2.6 -141.1 2.6 -141.1 0.05 -139.2 0.05 -139.2 -10.45 -141.0 -10.45 -141.0 -13.0 -139.2 -13.0 -139.2 -15.55 -136.6 -15.55 M-133.8 -9.55 L-130.7 -9.55 -130.35 -8.7 -129.9 -8.45 -127.5 -8.45 -127.5 -6.05 -131.45 -6.05 Q-132.1 -6.05 -132.6 -6.95 L-133.8 -9.55 M-134.3 -2.45 L-132.0 -2.45 -131.65 -2.9 -131.05 -5.15 -128.1 -5.15 -129.15 -1.4 Q-129.55 -0.05 -131.05 -0.05 L-134.3 -0.05 -134.3 -2.45 M-81.6 -43.35 Q-80.6 -42.8 -80.1 -41.8 -79.7 -40.8 -79.7 -39.3 L-83.55 -39.3 -83.6 -40.7 -83.8 -41.2 -84.35 -41.4 -84.9 -41.2 -85.05 -40.7 -85.1 -39.5 -85.1 -36.95 -84.25 -37.9 -82.8 -38.25 Q-81.75 -38.25 -80.95 -37.65 -80.15 -37.05 -79.9 -36.2 L-79.7 -33.95 -79.7 -32.65 -79.8 -30.1 Q-79.95 -29.3 -80.45 -28.55 -81.0 -27.85 -81.95 -27.5 -82.9 -27.1 -84.15 -27.1 L-86.7 -27.55 Q-87.75 -28.0 -88.25 -28.85 -88.85 -29.7 -88.9 -30.6 L-89.0 -34.2 -89.0 -36.45 -88.9 -40.3 Q-88.85 -41.3 -88.25 -42.15 -87.7 -43.05 -86.65 -43.45 L-84.3 -43.9 -81.6 -43.35 M-90.4 -38.1 L-90.4 -32.7 -90.6 -30.05 Q-90.8 -29.2 -91.4 -28.45 -92.0 -27.75 -92.85 -27.4 L-94.8 -27.1 -97.1 -27.4 Q-98.0 -27.75 -98.6 -28.45 L-99.35 -29.95 -99.6 -32.45 -99.6 -38.1 Q-99.6 -40.35 -99.2 -41.45 -98.85 -42.55 -97.7 -43.2 -96.6 -43.9 -95.05 -43.9 L-92.75 -43.4 -91.25 -42.3 -90.6 -40.8 -90.4 -38.1 M-101.0 -38.1 L-101.0 -32.7 -101.2 -30.05 Q-101.4 -29.2 -102.0 -28.45 -102.6 -27.75 -103.45 -27.4 L-105.35 -27.1 -107.65 -27.4 Q-108.6 -27.75 -109.15 -28.45 L-109.95 -29.95 -110.15 -32.45 -110.15 -38.1 Q-110.2 -40.35 -109.8 -41.45 -109.4 -42.55 -108.3 -43.2 -107.2 -43.9 -105.65 -43.9 L-103.35 -43.4 Q-102.35 -42.95 -101.85 -42.3 L-101.2 -40.8 -101.0 -38.1 M-95.0 -41.4 Q-95.45 -41.4 -95.55 -41.05 L-95.7 -39.45 -95.7 -31.55 -95.55 -29.85 Q-95.45 -29.6 -95.0 -29.6 L-94.45 -29.9 Q-94.3 -30.25 -94.3 -31.45 L-94.3 -39.45 -94.4 -41.05 Q-94.55 -41.4 -95.0 -41.4 M-84.95 -35.45 L-85.1 -34.25 -85.1 -31.3 -84.95 -29.9 Q-84.75 -29.6 -84.35 -29.6 -84.1 -29.6 -83.8 -29.85 -83.55 -30.1 -83.55 -31.2 L-83.55 -34.25 Q-83.55 -35.1 -83.7 -35.4 -83.9 -35.75 -84.35 -35.75 L-84.95 -35.45 M-105.55 -41.4 Q-106.0 -41.4 -106.15 -41.05 L-106.3 -39.45 -106.3 -31.55 -106.15 -29.85 Q-106.0 -29.6 -105.55 -29.6 -105.15 -29.6 -105.05 -29.9 -104.9 -30.25 -104.9 -31.45 L-104.9 -39.45 -105.0 -41.05 Q-105.15 -41.4 -105.55 -41.4 M-119.4 -42.35 Q-118.9 -43.1 -118.0 -43.5 L-116.0 -43.9 Q-113.7 -43.9 -112.5 -42.7 -111.3 -41.5 -111.3 -39.65 -111.3 -38.3 -111.95 -36.75 -112.65 -35.2 -115.9 -30.15 L-111.65 -30.15 -111.65 -27.4 -120.2 -27.4 -120.2 -29.7 Q-116.4 -36.15 -115.65 -37.7 -114.95 -39.25 -114.95 -40.1 -114.95 -40.75 -115.2 -41.05 -115.4 -41.4 -115.85 -41.4 -116.3 -41.4 -116.45 -41.05 L-116.7 -39.6 -116.7 -38.05 -120.2 -38.05 -120.2 -38.65 -120.05 -40.8 -119.4 -42.35 M-116.65 -14.25 L-116.0 -15.55 -112.95 -15.55 -113.65 -14.25 -103.85 -14.25 -103.85 -11.85 -114.95 -11.85 -115.55 -10.75 -104.2 -10.75 -104.2 0.75 Q-104.25 2.8 -106.7 2.8 L-112.8 2.8 -112.8 0.5 -107.6 0.5 Q-107.0 0.5 -107.0 0.05 L-107.0 -0.75 -116.9 -0.75 -116.9 2.8 -119.6 2.8 -119.6 -5.9 -121.45 -5.9 -121.45 -8.6 -119.9 -8.6 Q-119.55 -8.6 -119.25 -9.2 L-117.9 -11.85 -121.15 -11.85 -121.15 -14.25 -116.65 -14.25 M-116.9 -8.3 L-116.9 -6.85 -107.0 -6.85 -107.0 -8.35 -116.85 -8.35 -116.9 -8.3 M-116.9 -3.1 L-107.0 -3.1 -107.0 -4.55 -116.9 -4.55 -116.9 -3.1 M-102.2 -4.15 L-102.2 -5.45 -98.3 -5.45 -98.3 -2.8 -98.2 -1.45 Q-98.1 -1.2 -97.7 -1.2 -97.2 -1.2 -97.05 -1.55 L-96.9 -3.4 -96.9 -4.55 -97.1 -5.9 -97.75 -6.45 -99.25 -6.6 -99.25 -8.95 -97.55 -9.05 -97.05 -9.55 -96.9 -10.7 -96.9 -11.6 -97.1 -12.75 -97.65 -13.0 Q-98.05 -13.0 -98.15 -12.7 L-98.3 -11.5 -98.3 -10.15 -102.2 -10.15 -102.2 -11.55 Q-102.2 -13.85 -101.2 -14.7 -100.2 -15.5 -97.9 -15.5 -95.2 -15.5 -94.15 -14.35 -93.2 -13.25 -93.2 -11.25 -93.2 -9.85 -93.55 -9.25 -93.9 -8.65 -94.8 -8.15 -93.95 -7.85 -93.5 -7.15 -93.05 -6.45 -93.05 -3.85 -93.1 -1.9 -93.45 -0.85 -93.9 0.2 -94.95 0.75 -95.95 1.3 -97.6 1.3 -99.4 1.3 -100.45 0.7 -101.55 0.05 -101.85 -0.9 -102.2 -1.85 -102.2 -4.15 M-87.15 -15.5 Q-85.85 -15.5 -84.85 -15.0 -83.85 -14.55 -83.35 -13.9 L-82.7 -12.4 -82.5 -9.7 -82.5 -4.3 -82.7 -1.65 Q-82.9 -0.8 -83.5 -0.05 -84.1 0.65 -84.95 1.0 L-86.85 1.3 -89.15 1.0 Q-90.1 0.65 -90.65 -0.05 L-91.45 -1.55 -91.65 -4.05 -91.65 -9.7 Q-91.7 -11.95 -91.3 -13.05 -90.9 -14.15 -89.8 -14.8 -88.7 -15.5 -87.15 -15.5 M-87.05 -13.0 Q-87.5 -13.0 -87.65 -12.65 L-87.8 -11.05 -87.8 -3.15 -87.65 -1.45 Q-87.5 -1.2 -87.05 -1.2 -86.65 -1.2 -86.55 -1.5 -86.4 -1.85 -86.4 -3.05 L-86.4 -11.05 -86.5 -12.65 -87.05 -13.0 M-44.15 -38.65 L-33.75 -38.65 -33.75 -41.05 -44.15 -41.05 -44.15 -38.65 M-50.15 -41.0 L-54.95 -41.0 -54.95 -38.25 Q-54.1 -39.35 -52.65 -39.35 -51.1 -39.35 -50.25 -38.4 -49.45 -37.5 -49.45 -34.85 L-49.45 -32.5 Q-49.45 -30.8 -49.6 -30.0 -49.75 -29.2 -50.25 -28.5 -50.8 -27.8 -51.7 -27.45 -52.6 -27.1 -53.95 -27.1 -55.45 -27.1 -56.6 -27.65 -57.75 -28.2 -58.25 -29.25 -58.75 -30.35 -58.7 -32.6 L-58.7 -33.5 -54.8 -33.5 -54.8 -32.45 -54.7 -30.25 Q-54.65 -29.6 -54.0 -29.6 L-53.5 -29.75 Q-53.35 -29.95 -53.35 -30.2 L-53.3 -32.1 -53.3 -35.3 Q-53.3 -36.2 -53.45 -36.55 L-54.1 -36.85 -54.55 -36.7 -54.75 -36.35 -54.8 -35.45 -58.65 -35.45 -58.5 -43.6 -50.15 -43.6 -50.15 -41.0 M-60.7 -40.35 L-66.8 -40.35 -66.8 -37.95 -61.05 -37.95 -61.05 -35.5 -66.8 -35.5 -66.8 -32.15 -60.3 -32.15 -60.3 -29.65 -66.8 -29.65 -66.8 -25.6 -69.65 -25.6 -69.65 -29.65 -78.0 -29.65 -78.0 -32.15 -76.2 -32.15 -76.2 -37.95 -69.65 -37.95 -69.65 -40.35 -74.15 -40.35 -74.2 -40.2 Q-74.6 -38.9 -76.1 -38.9 L-77.85 -38.9 -77.85 -41.3 -77.1 -41.3 Q-76.85 -41.3 -76.7 -41.75 L-76.15 -43.9 -73.25 -43.9 -73.55 -42.75 -60.7 -42.75 -60.7 -40.35 M-44.15 -33.65 L-33.75 -33.65 -33.75 -36.1 -44.15 -36.1 -44.15 -33.65 M-47.1 -28.55 Q-46.85 -28.55 -46.85 -28.95 L-46.85 -43.65 -31.05 -43.65 -31.05 -28.2 Q-31.1 -26.5 -32.4 -26.05 L-33.45 -25.9 -39.4 -25.9 -39.4 -28.55 -34.4 -28.55 Q-33.75 -28.55 -33.75 -29.1 L-33.75 -31.1 -44.15 -31.1 -44.15 -28.15 Q-44.2 -26.5 -45.25 -26.05 L-46.05 -25.9 -47.75 -25.9 -47.75 -28.55 -47.1 -28.55 M-73.5 -32.15 L-69.65 -32.15 -69.65 -35.5 -73.5 -35.5 -73.5 -32.15 M-70.25 -13.55 L-63.0 -13.55 -63.3 -9.0 -66.1 -9.0 -65.9 -11.05 -71.15 -11.05 -71.9 -8.8 Q-72.25 -7.8 -72.9 -7.8 L-75.1 -7.8 -75.1 -10.35 -74.45 -10.35 Q-74.05 -10.35 -73.85 -11.2 L-72.55 -15.65 -69.55 -15.65 -70.25 -13.55 M-77.55 -15.0 L-76.75 -12.05 Q-76.7 -11.4 -76.15 -11.4 L-75.55 -11.4 -75.55 -8.9 -77.55 -8.9 Q-78.9 -8.9 -79.2 -10.25 L-80.45 -15.0 -77.55 -15.0 M-75.55 -7.15 L-76.7 1.2 Q-76.95 2.8 -78.05 2.8 L-80.75 2.8 -80.75 0.35 -80.0 0.35 Q-79.5 0.35 -79.4 -0.65 L-78.4 -7.15 -75.55 -7.15 M-61.35 -3.55 Q-60.75 -3.55 -60.45 -4.4 L-59.0 -8.5 -59.0 -11.7 -61.1 -11.7 -61.1 -14.1 -59.0 -14.1 -59.0 -15.5 -56.45 -15.5 -56.45 -14.1 -54.8 -14.1 -54.8 -11.7 -56.45 -11.7 -56.45 -10.25 -55.2 -10.25 -55.2 -7.8 -56.45 -7.8 -56.45 0.5 Q-56.45 1.55 -57.1 2.25 -57.65 2.8 -58.55 2.8 L-60.55 2.8 -60.55 0.6 -59.5 0.6 Q-59.0 0.6 -59.0 -0.45 L-59.0 -2.3 -59.05 -2.1 Q-59.5 -1.1 -60.05 -1.1 L-61.4 -1.1 -61.4 -3.55 -61.35 -3.55 M-64.95 -0.3 Q-64.85 0.45 -64.4 0.45 L-63.0 0.45 -63.0 2.9 -65.85 2.9 Q-67.35 2.9 -67.55 0.85 L-68.75 -5.75 -70.75 1.5 Q-71.15 2.9 -72.0 2.9 L-75.6 2.9 -75.6 0.35 -73.6 0.35 Q-73.35 0.35 -73.25 -0.1 L-70.45 -9.9 -67.65 -9.9 -68.3 -7.5 -66.45 -7.5 -64.95 -0.3 M-47.65 -13.65 L-43.4 -13.65 -43.4 1.0 Q-43.4 2.75 -45.3 2.75 L-54.3 2.75 -54.3 -13.65 -50.25 -13.65 -50.25 -15.5 -47.65 -15.5 -47.65 -13.65 M-51.7 -6.7 L-50.25 -6.7 -50.25 -11.25 -51.7 -11.25 -51.7 -6.7 M-47.65 -6.7 L-46.05 -6.7 -46.05 -11.25 -47.65 -11.25 -47.65 -6.7 M-47.65 -4.55 L-47.65 0.35 -46.65 0.35 Q-46.05 0.35 -46.05 -0.2 L-46.05 -4.55 -47.65 -4.55 M-51.7 -4.55 L-51.7 0.35 -50.25 0.35 -50.25 -4.55 -51.7 -4.55 M-28.05 -39.1 L-28.6 -39.1 -29.0 -39.1 -29.0 -41.0 -28.05 -41.25 -28.05 -39.1 M-29.7 36.85 L-29.7 40.5 -27.65 40.5 Q-27.05 40.5 -27.05 39.95 L-27.05 36.85 -29.7 36.85 M-27.55 30.2 L-27.55 27.95 -37.8 27.95 -37.8 30.85 -28.3 30.85 Q-27.6 30.85 -27.55 30.2 M-24.85 31.5 Q-24.85 33.4 -26.9 33.4 L-40.5 33.4 -40.5 25.4 -24.85 25.4 -24.85 31.5 M-38.6 36.85 L-38.6 40.5 -36.55 40.5 Q-36.0 40.5 -36.0 39.95 L-36.0 36.85 -38.6 36.85 M-35.25 42.9 L-41.2 42.9 -41.2 34.45 -33.3 34.45 -33.3 41.15 Q-33.3 42.9 -35.25 42.9 M-20.5 44.05 L-20.5 42.65 -18.1 42.65 -18.1 41.4 -19.8 41.4 -19.8 37.8 -16.45 37.8 -16.45 42.1 Q-16.45 44.05 -18.55 44.05 L-20.5 44.05 M-26.35 42.9 L-32.3 42.9 -32.3 34.45 -24.35 34.45 -24.35 41.15 Q-24.35 42.9 -26.35 42.9 M-60.95 25.3 L-51.85 25.3 -51.85 27.75 -60.95 27.75 -60.95 25.3 M-66.9 27.8 L-76.0 27.8 Q-76.5 28.7 -77.55 28.7 L-80.35 28.7 -80.35 26.45 -78.7 26.45 -78.1 26.1 -77.55 24.9 -74.5 24.9 -74.75 25.4 -63.95 25.4 -63.95 27.55 -65.2 31.85 Q-65.65 33.4 -67.55 33.4 L-80.0 33.4 -80.0 30.9 -74.6 30.9 -75.85 28.9 -72.9 28.9 -71.65 30.9 -68.5 30.9 Q-67.9 30.9 -67.8 30.55 L-66.9 27.8 M-61.15 29.35 L-51.6 29.35 -51.6 31.8 -55.05 31.8 -55.05 43.3 -57.6 43.3 -57.6 31.8 -61.15 31.8 -61.15 29.35 M-63.75 36.85 L-65.05 41.45 Q-65.55 43.1 -67.45 43.1 L-80.95 43.1 -80.95 40.6 -74.85 40.6 -76.15 38.35 -73.15 38.35 -71.85 40.6 -68.45 40.6 Q-67.8 40.6 -67.65 40.15 L-66.75 37.1 -76.45 37.1 Q-76.95 37.65 -77.75 37.65 L-80.9 37.65 -80.9 35.3 -78.9 35.3 Q-78.5 35.3 -78.35 35.0 L-77.75 33.85 -74.75 33.85 -75.2 34.65 -63.75 34.65 -63.75 36.85 M-61.15 40.75 L-60.95 40.75 Q-60.6 40.75 -60.6 40.35 L-60.6 32.9 -58.4 32.9 -58.4 41.65 Q-58.4 42.9 -59.7 42.9 L-61.15 42.9 -61.15 40.75 M-47.7 24.85 L-47.7 40.25 Q-47.75 40.65 -47.2 40.65 L-43.85 40.65 -43.85 43.1 -48.8 43.1 Q-50.45 43.1 -50.45 41.65 L-50.45 24.85 -47.7 24.85 M-52.15 32.85 L-52.15 40.45 Q-52.15 40.85 -51.75 40.85 L-51.6 40.85 -51.6 43.0 -53.05 43.0 Q-54.4 43.0 -54.4 41.7 L-54.4 32.85 -52.15 32.85 M-83.2 27.4 L-90.55 27.4 -90.55 28.2 -83.5 28.2 -83.5 35.0 Q-83.5 36.9 -85.3 36.9 L-90.55 36.9 -90.55 37.2 -90.75 37.85 -92.2 39.7 -91.2 40.4 Q-90.5 40.85 -89.55 40.85 L-83.0 40.85 -83.0 43.15 -91.35 43.15 Q-92.1 43.15 -92.7 42.75 L-93.95 41.8 -94.65 42.75 Q-95.0 43.15 -95.6 43.15 L-100.7 43.15 -100.7 40.85 -96.8 40.85 -96.3 40.6 -96.05 40.25 -99.55 37.65 -95.3 37.65 -94.5 38.1 -93.65 36.9 -100.2 36.9 -100.2 28.2 -93.25 28.2 -93.25 27.4 -100.55 27.4 -100.55 25.1 -83.2 25.1 -83.2 27.4 M-90.55 30.45 L-90.55 31.55 -86.1 31.55 -86.1 30.45 -90.55 30.45 M-90.55 34.65 L-86.6 34.65 Q-86.1 34.65 -86.1 33.95 L-86.1 33.55 -90.55 33.55 -90.55 34.65 M-97.6 34.65 L-93.25 34.65 -93.25 33.55 -97.6 33.55 -97.6 34.65 M-93.25 31.55 L-93.25 30.45 -97.6 30.45 -97.6 31.55 -93.25 31.55" fill="#003399" fill-rule="evenodd" stroke="none"/>
    <path d="M56.85 -12.55 L64.1 -12.55 64.1 -15.55 67.15 -15.55 67.15 -12.55 74.35 -12.55 74.35 -9.9 67.6 -9.9 71.4 -0.85 Q71.75 0.05 72.15 0.05 L74.45 0.05 74.45 2.7 70.35 2.7 Q69.7 2.7 69.3 1.6 L65.7 -7.45 62.3 1.25 Q61.7 2.7 60.95 2.7 L56.75 2.7 56.75 0.05 59.1 0.05 Q59.7 0.05 60.4 -1.85 L63.45 -9.9 56.85 -9.9 56.85 -12.55 M76.8 -15.25 L79.35 -15.25 79.75 -14.05 Q79.8 -13.45 80.25 -13.45 L80.55 -13.45 80.55 -11.4 79.0 -11.4 Q77.85 -11.4 77.55 -12.6 L76.8 -15.25 M76.5 -4.1 L83.55 -4.1 83.55 -5.15 86.55 -5.15 86.55 -4.1 94.0 -4.1 94.0 -1.8 87.55 -1.8 89.25 0.2 90.15 0.45 93.7 0.45 93.7 2.8 88.55 2.8 87.45 2.5 85.0 -0.6 82.6 2.5 81.55 2.8 76.8 2.8 76.8 0.45 79.9 0.45 80.85 0.2 82.55 -1.8 76.5 -1.8 76.5 -4.1 M76.8 -7.65 L77.4 -7.65 Q77.8 -7.65 78.0 -8.15 L78.6 -9.8 81.15 -9.8 81.15 -15.4 83.75 -15.4 83.75 -5.55 81.15 -5.55 81.15 -9.8 79.8 -6.6 Q79.35 -5.55 78.35 -5.55 L76.8 -5.55 76.8 -7.65 M101.4 -10.85 L101.4 2.5 99.2 2.5 99.2 -9.45 98.7 -0.55 Q98.6 0.45 98.15 0.95 97.55 1.45 96.8 1.45 L96.05 1.45 96.05 -0.7 96.1 -0.7 Q96.6 -0.7 96.65 -1.5 L97.2 -10.85 99.2 -10.85 99.2 -11.65 96.4 -11.65 96.4 -13.95 99.2 -13.95 99.2 -15.7 101.4 -15.7 101.4 -13.95 103.95 -13.95 103.95 -11.65 101.4 -11.65 101.4 -10.85 M85.25 -13.7 L85.6 -13.95 86.45 -15.4 89.15 -15.4 88.7 -14.5 93.75 -14.5 93.75 -11.85 92.3 -7.45 Q91.7 -5.55 89.75 -5.55 L84.5 -5.55 84.5 -7.8 86.45 -7.8 86.15 -8.7 Q85.9 -9.0 85.5 -9.0 L84.55 -9.0 84.55 -10.75 86.7 -10.75 Q87.5 -10.75 88.1 -9.9 L89.05 -7.85 Q89.6 -8.05 89.85 -8.75 L90.85 -12.1 87.4 -12.1 Q87.1 -11.55 86.55 -11.55 L84.4 -11.55 84.4 -13.7 85.25 -13.7 M119.55 -15.25 L129.9 -15.25 131.2 -12.65 Q131.5 -11.7 131.95 -11.7 L133.3 -11.7 133.3 -9.4 130.8 -9.4 Q130.05 -9.4 129.55 -10.2 L127.9 -12.9 121.45 -12.9 119.8 -10.2 Q119.3 -9.4 118.55 -9.4 L116.05 -9.4 116.05 -11.7 117.4 -11.7 Q117.8 -11.7 118.15 -12.65 L119.55 -15.25 M107.8 -12.55 L107.8 0.65 Q107.75 2.7 105.95 2.75 L104.2 2.75 104.2 0.25 104.95 0.25 105.2 -0.15 105.2 -15.15 112.8 -15.15 112.8 -0.3 Q112.8 0.25 113.25 0.25 L113.75 0.25 113.75 2.75 111.9 2.75 Q110.1 2.75 110.1 0.6 L110.1 -12.55 107.8 -12.55 M116.25 -8.35 L132.85 -8.35 132.85 -5.95 116.25 -5.95 116.25 -8.35 M116.05 -2.3 L116.05 -4.7 133.3 -4.7 133.3 -2.3 122.4 -2.3 120.3 0.35 129.55 0.35 Q129.95 0.35 130.0 -0.05 L130.0 -1.25 132.7 -1.25 132.7 0.9 Q132.7 1.45 132.15 2.0 131.4 2.7 130.45 2.7 L116.45 2.7 116.45 1.0 116.85 0.35 118.95 -2.3 116.05 -2.3 M137.65 -13.65 L137.65 -10.65 138.5 -4.15 140.2 -4.15 141.1 -10.65 141.1 -13.65 137.65 -13.65 M137.65 -2.7 L137.65 1.0 141.1 1.0 141.1 -2.7 137.65 -2.7 M57.05 28.7 L58.35 28.7 Q58.8 28.7 59.15 27.75 L60.55 25.15 70.9 25.15 72.15 27.75 Q72.5 28.7 72.95 28.7 L74.3 28.7 74.3 31.0 71.8 31.0 Q71.05 31.0 70.55 30.2 L68.9 27.5 62.45 27.5 60.8 30.2 Q60.3 31.0 59.55 31.0 L57.05 31.0 57.05 28.7 M57.2 32.05 L73.85 32.05 73.85 34.45 57.2 34.45 57.2 32.05 M44.45 29.55 L44.95 37.55 Q45.05 38.2 45.45 38.2 L45.6 38.2 45.6 40.35 44.3 40.35 Q43.05 40.35 42.95 38.6 L42.35 29.55 42.35 42.9 40.15 42.9 40.15 30.95 39.65 39.85 Q39.55 40.85 39.1 41.35 38.5 41.85 37.75 41.85 L36.95 41.85 36.95 39.7 37.05 39.7 Q37.55 39.7 37.6 38.9 L38.15 29.55 40.15 29.55 40.15 28.75 37.35 28.75 37.35 26.45 40.15 26.45 40.15 24.7 42.35 24.7 42.35 26.45 44.9 26.45 44.9 28.75 42.35 28.75 42.35 29.55 44.45 29.55 M46.9 43.15 L45.15 43.15 45.15 40.65 45.9 40.65 46.15 40.25 46.15 25.25 53.75 25.25 53.75 40.1 Q53.75 40.65 54.2 40.65 L54.65 40.65 54.65 43.15 52.85 43.15 Q51.05 43.15 51.05 41.0 L51.05 27.85 48.75 27.85 48.75 41.05 Q48.7 43.1 46.9 43.15 M57.05 38.1 L57.05 35.7 74.3 35.7 74.3 38.1 63.35 38.1 61.3 40.75 70.55 40.75 Q70.95 40.75 70.95 40.35 L70.95 39.15 73.7 39.15 73.7 41.3 Q73.7 41.85 73.15 42.4 72.4 43.1 71.45 43.1 L57.45 43.1 57.45 41.4 57.85 40.75 59.95 38.1 57.05 38.1 M19.75 26.45 Q20.2 26.45 20.35 26.1 L20.9 24.9 23.95 24.9 23.7 25.4 34.45 25.4 34.45 27.55 33.2 31.85 Q32.75 33.4 30.9 33.4 L18.45 33.4 18.45 30.9 23.85 30.9 22.6 28.9 25.55 28.9 26.8 30.9 29.95 30.9 Q30.5 30.9 30.6 30.55 L31.55 27.8 22.45 27.8 Q21.95 28.7 20.9 28.7 L18.05 28.7 18.05 26.45 19.75 26.45 M15.2 27.4 L7.85 27.4 7.85 28.2 14.9 28.2 14.9 35.0 Q14.9 36.9 13.05 36.9 L7.85 36.9 7.85 37.2 7.65 37.85 6.2 39.7 7.2 40.4 8.85 40.85 15.4 40.85 15.4 43.15 7.05 43.15 Q6.3 43.15 5.7 42.75 L4.45 41.8 3.75 42.75 Q3.4 43.15 2.8 43.15 L-2.3 43.15 -2.3 40.85 1.6 40.85 2.1 40.6 2.35 40.25 -1.15 37.65 3.1 37.65 3.9 38.1 4.75 36.9 -1.8 36.9 -1.8 28.2 5.15 28.2 5.15 27.4 -2.15 27.4 -2.15 25.1 15.2 25.1 15.2 27.4 M12.3 33.55 L7.85 33.55 7.85 34.65 11.75 34.65 Q12.3 34.65 12.3 33.95 L12.3 33.55 M19.55 35.3 Q19.95 35.3 20.1 35.0 L20.7 33.85 23.7 33.85 23.25 34.65 34.7 34.65 34.7 36.85 33.4 41.45 Q32.9 43.1 31.0 43.1 L17.5 43.1 17.5 40.6 23.6 40.6 22.3 38.35 25.3 38.35 26.6 40.6 30.0 40.6 Q30.6 40.6 30.75 40.15 L31.7 37.1 22.0 37.1 Q21.5 37.65 20.7 37.65 L17.55 37.65 17.55 35.3 19.55 35.3 M12.3 30.45 L7.85 30.45 7.85 31.55 12.3 31.55 12.3 30.45 M0.8 34.65 L5.15 34.65 5.15 33.55 0.8 33.55 0.8 34.65 M5.15 31.55 L5.15 30.45 0.8 30.45 0.8 31.55 5.15 31.55 M-129.8 -14.25 L-123.75 -14.25 -123.75 0.6 Q-123.75 2.75 -126.2 2.75 L-129.8 2.75 -129.8 0.25 -127.1 0.25 Q-126.5 0.25 -126.5 -0.3 L-126.5 -11.8 -130.75 -11.8 -130.85 -11.6 Q-131.4 -10.25 -132.6 -10.25 L-134.15 -10.25 -134.15 -12.6 -133.75 -12.6 Q-133.25 -12.6 -133.05 -13.3 L-132.25 -15.55 -129.3 -15.55 -129.8 -14.25 M-136.6 -15.55 L-136.6 -13.0 -134.55 -13.0 -134.55 -10.45 -136.6 -10.45 -136.6 0.05 -134.45 0.05 -134.45 2.6 -141.1 2.6 -141.1 0.05 -139.2 0.05 -139.2 -10.45 -141.0 -10.45 -141.0 -13.0 -139.2 -13.0 -139.2 -15.55 -136.6 -15.55 M-133.8 -9.55 L-130.7 -9.55 -130.35 -8.7 -129.9 -8.45 -127.5 -8.45 -127.5 -6.05 -131.45 -6.05 Q-132.1 -6.05 -132.6 -6.95 L-133.8 -9.55 M-134.3 -2.45 L-132.0 -2.45 -131.65 -2.9 -131.05 -5.15 -128.1 -5.15 -129.15 -1.4 Q-129.55 -0.05 -131.05 -0.05 L-134.3 -0.05 -134.3 -2.45 M-81.6 -43.35 Q-80.6 -42.8 -80.1 -41.8 -79.7 -40.8 -79.7 -39.3 L-83.55 -39.3 -83.6 -40.7 -83.8 -41.2 -84.35 -41.4 -84.9 -41.2 -85.05 -40.7 -85.1 -39.5 -85.1 -36.95 -84.25 -37.9 -82.8 -38.25 Q-81.75 -38.25 -80.95 -37.65 -80.15 -37.05 -79.9 -36.2 L-79.7 -33.95 -79.7 -32.65 -79.8 -30.1 Q-79.95 -29.3 -80.45 -28.55 -81.0 -27.85 -81.95 -27.5 -82.9 -27.1 -84.15 -27.1 L-86.7 -27.55 Q-87.75 -28.0 -88.25 -28.85 -88.85 -29.7 -88.9 -30.6 L-89.0 -34.2 -89.0 -36.45 -88.9 -40.3 Q-88.85 -41.3 -88.25 -42.15 -87.7 -43.05 -86.65 -43.45 L-84.3 -43.9 -81.6 -43.35 M-90.4 -38.1 L-90.4 -32.7 -90.6 -30.05 Q-90.8 -29.2 -91.4 -28.45 -92.0 -27.75 -92.85 -27.4 L-94.8 -27.1 -97.1 -27.4 Q-98.0 -27.75 -98.6 -28.45 L-99.35 -29.95 -99.6 -32.45 -99.6 -38.1 Q-99.6 -40.35 -99.2 -41.45 -98.85 -42.55 -97.7 -43.2 -96.6 -43.9 -95.05 -43.9 L-92.75 -43.4 -91.25 -42.3 -90.6 -40.8 -90.4 -38.1 M-101.0 -38.1 L-101.0 -32.7 -101.2 -30.05 Q-101.4 -29.2 -102.0 -28.45 -102.6 -27.75 -103.45 -27.4 L-105.35 -27.1 -107.65 -27.4 Q-108.6 -27.75 -109.15 -28.45 L-109.95 -29.95 -110.15 -32.45 -110.15 -38.1 Q-110.2 -40.35 -109.8 -41.45 -109.4 -42.55 -108.3 -43.2 -107.2 -43.9 -105.65 -43.9 L-103.35 -43.4 Q-102.35 -42.95 -101.85 -42.3 L-101.2 -40.8 -101.0 -38.1 M-95.0 -41.4 Q-95.45 -41.4 -95.55 -41.05 L-95.7 -39.45 -95.7 -31.55 -95.55 -29.85 Q-95.45 -29.6 -95.0 -29.6 L-94.45 -29.9 Q-94.3 -30.25 -94.3 -31.45 L-94.3 -39.45 -94.4 -41.05 Q-94.55 -41.4 -95.0 -41.4 M-84.95 -35.45 L-85.1 -34.25 -85.1 -31.3 -84.95 -29.9 Q-84.75 -29.6 -84.35 -29.6 -84.1 -29.6 -83.8 -29.85 -83.55 -30.1 -83.55 -31.2 L-83.55 -34.25 Q-83.55 -35.1 -83.7 -35.4 -83.9 -35.75 -84.35 -35.75 L-84.95 -35.45 M-105.55 -41.4 Q-106.0 -41.4 -106.15 -41.05 L-106.3 -39.45 -106.3 -31.55 -106.15 -29.85 Q-106.0 -29.6 -105.55 -29.6 -105.15 -29.6 -105.05 -29.9 -104.9 -30.25 -104.9 -31.45 L-104.9 -39.45 -105.0 -41.05 Q-105.15 -41.4 -105.55 -41.4 M-119.4 -42.35 Q-118.9 -43.1 -118.0 -43.5 L-116.0 -43.9 Q-113.7 -43.9 -112.5 -42.7 -111.3 -41.5 -111.3 -39.65 -111.3 -38.3 -111.95 -36.75 -112.65 -35.2 -115.9 -30.15 L-111.65 -30.15 -111.65 -27.4 -120.2 -27.4 -120.2 -29.7 Q-116.4 -36.15 -115.65 -37.7 -114.95 -39.25 -114.95 -40.1 -114.95 -40.75 -115.2 -41.05 -115.4 -41.4 -115.85 -41.4 -116.3 -41.4 -116.45 -41.05 L-116.7 -39.6 -116.7 -38.05 -120.2 -38.05 -120.2 -38.65 -120.05 -40.8 -119.4 -42.35 M-116.65 -14.25 L-116.0 -15.55 -112.95 -15.55 -113.65 -14.25 -103.85 -14.25 -103.85 -11.85 -114.95 -11.85 -115.55 -10.75 -104.2 -10.75 -104.2 0.75 Q-104.25 2.8 -106.7 2.8 L-112.8 2.8 -112.8 0.5 -107.6 0.5 Q-107.0 0.5 -107.0 0.05 L-107.0 -0.75 -116.9 -0.75 -116.9 2.8 -119.6 2.8 -119.6 -5.9 -121.45 -5.9 -121.45 -8.6 -119.9 -8.6 Q-119.55 -8.6 -119.25 -9.2 L-117.9 -11.85 -121.15 -11.85 -121.15 -14.25 -116.65 -14.25 M-116.9 -8.3 L-116.9 -6.85 -107.0 -6.85 -107.0 -8.35 -116.85 -8.35 -116.9 -8.3 M-116.9 -3.1 L-107.0 -3.1 -107.0 -4.55 -116.9 -4.55 -116.9 -3.1 M-102.2 -4.15 L-102.2 -5.45 -98.3 -5.45 -98.3 -2.8 -98.2 -1.45 Q-98.1 -1.2 -97.7 -1.2 -97.2 -1.2 -97.05 -1.55 L-96.9 -3.4 -96.9 -4.55 -97.1 -5.9 -97.75 -6.45 -99.25 -6.6 -99.25 -8.95 -97.55 -9.05 -97.05 -9.55 -96.9 -10.7 -96.9 -11.6 -97.1 -12.75 -97.65 -13.0 Q-98.05 -13.0 -98.15 -12.7 L-98.3 -11.5 -98.3 -10.15 -102.2 -10.15 -102.2 -11.55 Q-102.2 -13.85 -101.2 -14.7 -100.2 -15.5 -97.9 -15.5 -95.2 -15.5 -94.15 -14.35 -93.2 -13.25 -93.2 -11.25 -93.2 -9.85 -93.55 -9.25 -93.9 -8.65 -94.8 -8.15 -93.95 -7.85 -93.5 -7.15 -93.05 -6.45 -93.05 -3.85 -93.1 -1.9 -93.45 -0.85 -93.9 0.2 -94.95 0.75 -95.95 1.3 -97.6 1.3 -99.4 1.3 -100.45 0.7 -101.55 0.05 -101.85 -0.9 -102.2 -1.85 -102.2 -4.15 M-87.15 -15.5 Q-85.85 -15.5 -84.85 -15.0 -83.85 -14.55 -83.35 -13.9 L-82.7 -12.4 -82.5 -9.7 -82.5 -4.3 -82.7 -1.65 Q-82.9 -0.8 -83.5 -0.05 -84.1 0.65 -84.95 1.0 L-86.85 1.3 -89.15 1.0 Q-90.1 0.65 -90.65 -0.05 L-91.45 -1.55 -91.65 -4.05 -91.65 -9.7 Q-91.7 -11.95 -91.3 -13.05 -90.9 -14.15 -89.8 -14.8 -88.7 -15.5 -87.15 -15.5 M-87.05 -13.0 Q-87.5 -13.0 -87.65 -12.65 L-87.8 -11.05 -87.8 -3.15 -87.65 -1.45 Q-87.5 -1.2 -87.05 -1.2 -86.65 -1.2 -86.55 -1.5 -86.4 -1.85 -86.4 -3.05 L-86.4 -11.05 -86.5 -12.65 -87.05 -13.0 M-44.15 -38.65 L-33.75 -38.65 -33.75 -41.05 -44.15 -41.05 -44.15 -38.65 M-50.15 -41.0 L-54.95 -41.0 -54.95 -38.25 Q-54.1 -39.35 -52.65 -39.35 -51.1 -39.35 -50.25 -38.4 -49.45 -37.5 -49.45 -34.85 L-49.45 -32.5 Q-49.45 -30.8 -49.6 -30.0 -49.75 -29.2 -50.25 -28.5 -50.8 -27.8 -51.7 -27.45 -52.6 -27.1 -53.95 -27.1 -55.45 -27.1 -56.6 -27.65 -57.75 -28.2 -58.25 -29.25 -58.75 -30.35 -58.7 -32.6 L-58.7 -33.5 -54.8 -33.5 -54.8 -32.45 -54.7 -30.25 Q-54.65 -29.6 -54.0 -29.6 L-53.5 -29.75 Q-53.35 -29.95 -53.35 -30.2 L-53.3 -32.1 -53.3 -35.3 Q-53.3 -36.2 -53.45 -36.55 L-54.1 -36.85 -54.55 -36.7 -54.75 -36.35 -54.8 -35.45 -58.65 -35.45 -58.5 -43.6 -50.15 -43.6 -50.15 -41.0 M-60.7 -40.35 L-66.8 -40.35 -66.8 -37.95 -61.05 -37.95 -61.05 -35.5 -66.8 -35.5 -66.8 -32.15 -60.3 -32.15 -60.3 -29.65 -66.8 -29.65 -66.8 -25.6 -69.65 -25.6 -69.65 -29.65 -78.0 -29.65 -78.0 -32.15 -76.2 -32.15 -76.2 -37.95 -69.65 -37.95 -69.65 -40.35 -74.15 -40.35 -74.2 -40.2 Q-74.6 -38.9 -76.1 -38.9 L-77.85 -38.9 -77.85 -41.3 -77.1 -41.3 Q-76.85 -41.3 -76.7 -41.75 L-76.15 -43.9 -73.25 -43.9 -73.55 -42.75 -60.7 -42.75 -60.7 -40.35 M-44.15 -33.65 L-33.75 -33.65 -33.75 -36.1 -44.15 -36.1 -44.15 -33.65 M-47.1 -28.55 Q-46.85 -28.55 -46.85 -28.95 L-46.85 -43.65 -31.05 -43.65 -31.05 -28.2 Q-31.1 -26.5 -32.4 -26.05 L-33.45 -25.9 -39.4 -25.9 -39.4 -28.55 -34.4 -28.55 Q-33.75 -28.55 -33.75 -29.1 L-33.75 -31.1 -44.15 -31.1 -44.15 -28.15 Q-44.2 -26.5 -45.25 -26.05 L-46.05 -25.9 -47.75 -25.9 -47.75 -28.55 -47.1 -28.55 M-73.5 -32.15 L-69.65 -32.15 -69.65 -35.5 -73.5 -35.5 -73.5 -32.15 M-70.25 -13.55 L-63.0 -13.55 -63.3 -9.0 -66.1 -9.0 -65.9 -11.05 -71.15 -11.05 -71.9 -8.8 Q-72.25 -7.8 -72.9 -7.8 L-75.1 -7.8 -75.1 -10.35 -74.45 -10.35 Q-74.05 -10.35 -73.85 -11.2 L-72.55 -15.65 -69.55 -15.65 -70.25 -13.55 M-77.55 -15.0 L-76.75 -12.05 Q-76.7 -11.4 -76.15 -11.4 L-75.55 -11.4 -75.55 -8.9 -77.55 -8.9 Q-78.9 -8.9 -79.2 -10.25 L-80.45 -15.0 -77.55 -15.0 M-75.55 -7.15 L-76.7 1.2 Q-76.95 2.8 -78.05 2.8 L-80.75 2.8 -80.75 0.35 -80.0 0.35 Q-79.5 0.35 -79.4 -0.65 L-78.4 -7.15 -75.55 -7.15 M-61.35 -3.55 Q-60.75 -3.55 -60.45 -4.4 L-59.0 -8.5 -59.0 -11.7 -61.1 -11.7 -61.1 -14.1 -59.0 -14.1 -59.0 -15.5 -56.45 -15.5 -56.45 -14.1 -54.8 -14.1 -54.8 -11.7 -56.45 -11.7 -56.45 -10.25 -55.2 -10.25 -55.2 -7.8 -56.45 -7.8 -56.45 0.5 Q-56.45 1.55 -57.1 2.25 -57.65 2.8 -58.55 2.8 L-60.55 2.8 -60.55 0.6 -59.5 0.6 Q-59.0 0.6 -59.0 -0.45 L-59.0 -2.3 -59.05 -2.1 Q-59.5 -1.1 -60.05 -1.1 L-61.4 -1.1 -61.4 -3.55 -61.35 -3.55 M-64.95 -0.3 Q-64.85 0.45 -64.4 0.45 L-63.0 0.45 -63.0 2.9 -65.85 2.9 Q-67.35 2.9 -67.55 0.85 L-68.75 -5.75 -70.75 1.5 Q-71.15 2.9 -72.0 2.9 L-75.6 2.9 -75.6 0.35 -73.6 0.35 Q-73.35 0.35 -73.25 -0.1 L-70.45 -9.9 -67.65 -9.9 -68.3 -7.5 -66.45 -7.5 -64.95 -0.3 M-47.65 -13.65 L-43.4 -13.65 -43.4 1.0 Q-43.4 2.75 -45.3 2.75 L-54.3 2.75 -54.3 -13.65 -50.25 -13.65 -50.25 -15.5 -47.65 -15.5 -47.65 -13.65 M-51.7 -6.7 L-50.25 -6.7 -50.25 -11.25 -51.7 -11.25 -51.7 -6.7 M-47.65 -6.7 L-46.05 -6.7 -46.05 -11.25 -47.65 -11.25 -47.65 -6.7 M-47.65 -4.55 L-47.65 0.35 -46.65 0.35 Q-46.05 0.35 -46.05 -0.2 L-46.05 -4.55 -47.65 -4.55 M-51.7 -4.55 L-51.7 0.35 -50.25 0.35 -50.25 -4.55 -51.7 -4.55 M-28.6 -39.1 L-28.05 -39.1 M-28.05 -41.25 L-29.0 -41.0 M-29.7 36.85 L-29.7 40.5 -27.65 40.5 Q-27.05 40.5 -27.05 39.95 L-27.05 36.85 -29.7 36.85 M-27.55 30.2 L-27.55 27.95 -37.8 27.95 -37.8 30.85 -28.3 30.85 Q-27.6 30.85 -27.55 30.2 M-24.85 31.5 Q-24.85 33.4 -26.9 33.4 L-40.5 33.4 -40.5 25.4 -24.85 25.4 -24.85 31.5 M-38.6 36.85 L-38.6 40.5 -36.55 40.5 Q-36.0 40.5 -36.0 39.95 L-36.0 36.85 -38.6 36.85 M-35.25 42.9 L-41.2 42.9 -41.2 34.45 -33.3 34.45 -33.3 41.15 Q-33.3 42.9 -35.25 42.9 M-20.5 44.05 L-18.55 44.05 Q-16.45 44.05 -16.45 42.1 L-16.45 37.8 -19.8 37.8 -19.8 41.4 -18.1 41.4 -18.1 42.65 -20.5 42.65 -20.5 44.05 M-26.35 42.9 L-32.3 42.9 -32.3 34.45 -24.35 34.45 -24.35 41.15 Q-24.35 42.9 -26.35 42.9 M-60.95 25.3 L-51.85 25.3 -51.85 27.75 -60.95 27.75 -60.95 25.3 M-66.9 27.8 L-76.0 27.8 Q-76.5 28.7 -77.55 28.7 L-80.35 28.7 -80.35 26.45 -78.7 26.45 -78.1 26.1 -77.55 24.9 -74.5 24.9 -74.75 25.4 -63.95 25.4 -63.95 27.55 -65.2 31.85 Q-65.65 33.4 -67.55 33.4 L-80.0 33.4 -80.0 30.9 -74.6 30.9 -75.85 28.9 -72.9 28.9 -71.65 30.9 -68.5 30.9 Q-67.9 30.9 -67.8 30.55 L-66.9 27.8 M-61.15 29.35 L-51.6 29.35 -51.6 31.8 -55.05 31.8 -55.05 43.3 -57.6 43.3 -57.6 31.8 -61.15 31.8 -61.15 29.35 M-63.75 36.85 L-65.05 41.45 Q-65.55 43.1 -67.45 43.1 L-80.95 43.1 -80.95 40.6 -74.85 40.6 -76.15 38.35 -73.15 38.35 -71.85 40.6 -68.45 40.6 Q-67.8 40.6 -67.65 40.15 L-66.75 37.1 -76.45 37.1 Q-76.95 37.65 -77.75 37.65 L-80.9 37.65 -80.9 35.3 -78.9 35.3 Q-78.5 35.3 -78.35 35.0 L-77.75 33.85 -74.75 33.85 -75.2 34.65 -63.75 34.65 -63.75 36.85 M-61.15 40.75 L-60.95 40.75 Q-60.6 40.75 -60.6 40.35 L-60.6 32.9 -58.4 32.9 -58.4 41.65 Q-58.4 42.9 -59.7 42.9 L-61.15 42.9 -61.15 40.75 M-47.7 24.85 L-47.7 40.25 Q-47.75 40.65 -47.2 40.65 L-43.85 40.65 -43.85 43.1 -48.8 43.1 Q-50.45 43.1 -50.45 41.65 L-50.45 24.85 -47.7 24.85 M-52.15 32.85 L-52.15 40.45 Q-52.15 40.85 -51.75 40.85 L-51.6 40.85 -51.6 43.0 -53.05 43.0 Q-54.4 43.0 -54.4 41.7 L-54.4 32.85 -52.15 32.85 M-83.2 27.4 L-90.55 27.4 -90.55 28.2 -83.5 28.2 -83.5 35.0 Q-83.5 36.9 -85.3 36.9 L-90.55 36.9 -90.55 37.2 -90.75 37.85 -92.2 39.7 -91.2 40.4 Q-90.5 40.85 -89.55 40.85 L-83.0 40.85 -83.0 43.15 -91.35 43.15 Q-92.1 43.15 -92.7 42.75 L-93.95 41.8 -94.65 42.75 Q-95.0 43.15 -95.6 43.15 L-100.7 43.15 -100.7 40.85 -96.8 40.85 -96.3 40.6 -96.05 40.25 -99.55 37.65 -95.3 37.65 -94.5 38.1 -93.65 36.9 -100.2 36.9 -100.2 28.2 -93.25 28.2 -93.25 27.4 -100.55 27.4 -100.55 25.1 -83.2 25.1 -83.2 27.4 M-90.55 30.45 L-90.55 31.55 -86.1 31.55 -86.1 30.45 -90.55 30.45 M-90.55 34.65 L-86.6 34.65 Q-86.1 34.65 -86.1 33.95 L-86.1 33.55 -90.55 33.55 -90.55 34.65 M-97.6 34.65 L-93.25 34.65 -93.25 33.55 -97.6 33.55 -97.6 34.65 M-93.25 31.55 L-93.25 30.45 -97.6 30.45 -97.6 31.55 -93.25 31.55" fill="none" stroke="#ffffff" stroke-linecap="round" stroke-linejoin="round" stroke-width="5.5"/>
    <path d="M32.95 -41.0 L30.7 -41.0 30.7 -36.45 32.55 -36.45 32.55 -34.2 30.7 -34.2 30.7 -28.3 32.95 -28.3 32.95 -27.8 33.85 -27.8 Q34.25 -27.8 34.5 -28.85 L35.4 -34.15 38.0 -34.15 36.85 -27.7 Q36.65 -26.6 36.1 -26.05 35.55 -25.5 34.7 -25.5 L32.75 -25.5 32.75 -26.05 25.8 -26.05 25.8 -28.3 28.15 -28.3 28.15 -34.2 26.1 -34.2 26.1 -36.45 28.15 -36.45 28.15 -41.0 25.8 -41.0 25.8 -43.25 32.95 -43.25 32.95 -41.0 M34.2 -43.65 L42.85 -43.65 42.85 -41.3 34.2 -41.3 34.2 -43.65 M19.3 -38.35 L19.3 -29.25 16.85 -29.25 16.85 -38.35 19.3 -38.35 M23.6 -39.9 L6.2 -39.9 6.2 -42.35 9.1 -42.35 8.45 -44.05 11.35 -44.05 12.0 -42.35 17.8 -42.35 18.55 -44.05 21.35 -44.05 20.65 -42.35 23.6 -42.35 23.6 -39.9 M23.15 -39.4 L23.15 -27.95 Q23.1 -26.85 22.45 -26.15 L22.4 -26.05 Q21.8 -25.5 20.95 -25.5 L17.15 -25.5 17.15 -27.95 19.9 -27.95 Q20.45 -27.95 20.45 -29.15 L20.45 -39.4 23.15 -39.4 M33.15 -37.55 L43.7 -37.55 43.7 -35.25 41.95 -35.25 41.95 -28.55 Q41.95 -27.95 42.55 -27.95 L43.55 -27.95 43.55 -25.6 41.95 -25.6 Q40.75 -25.6 40.15 -26.05 39.3 -26.65 39.3 -27.95 L39.3 -35.25 33.15 -35.25 33.15 -37.55 M0.15 -29.0 L0.15 -33.4 -10.0 -33.4 -10.0 -28.35 -0.5 -28.35 Q0.15 -28.35 0.15 -29.0 M2.25 -26.05 Q1.7 -25.7 0.85 -25.7 L-12.75 -25.7 -12.75 -43.7 2.95 -43.7 2.95 -27.65 Q2.9 -26.55 2.25 -26.05 M13.15 -36.75 L9.2 -36.75 9.2 -35.35 13.15 -35.35 13.15 -36.75 M13.15 -33.1 L9.2 -33.1 9.2 -31.65 13.15 -31.65 13.15 -33.1 M9.2 -25.6 L6.6 -25.6 6.6 -39.1 15.7 -39.1 15.7 -27.65 Q15.65 -26.55 15.05 -26.05 14.5 -25.6 13.45 -25.6 L11.85 -25.6 11.85 -27.9 12.6 -27.9 Q13.15 -27.9 13.15 -28.35 L13.15 -29.4 9.2 -29.4 9.2 -25.6 M0.15 -41.05 L-10.0 -41.05 -10.0 -36.05 0.15 -36.05 0.15 -41.05 M71.95 -42.3 L71.95 -43.9 74.5 -43.9 74.5 -42.3 76.5 -42.3 76.5 -40.05 72.7 -40.05 72.7 -38.1 76.1 -38.1 76.1 -27.4 Q76.1 -26.5 75.7 -26.05 75.2 -25.5 74.2 -25.5 L73.1 -25.5 73.1 -27.65 73.5 -27.65 Q73.95 -27.65 74.0 -28.15 L74.0 -36.1 72.7 -36.1 72.7 -27.65 Q72.7 -26.7 72.05 -26.1 L72.0 -26.05 Q71.55 -25.6 70.75 -25.6 L69.45 -25.6 69.45 -27.8 69.9 -27.8 Q70.3 -27.8 70.3 -28.85 L70.3 -40.05 69.55 -40.05 69.55 -42.3 71.95 -42.3 M69.25 -41.3 L69.25 -39.0 67.7 -39.0 Q66.55 -39.0 66.15 -40.7 L65.15 -43.7 67.6 -43.7 68.2 -41.8 Q68.35 -41.3 68.75 -41.3 L69.25 -41.3 M77.3 -41.35 L77.7 -43.95 80.05 -43.95 79.75 -42.6 82.85 -42.6 82.85 -40.35 79.3 -40.35 79.25 -40.05 Q78.95 -38.65 77.8 -38.65 L76.8 -38.65 76.8 -40.85 77.0 -40.85 77.3 -41.35 M60.6 -39.4 L62.2 -29.4 Q62.3 -28.7 62.8 -28.7 L63.3 -28.7 63.3 -26.15 61.45 -26.15 Q60.15 -26.15 59.85 -27.55 L57.75 -39.4 55.65 -39.4 55.65 -30.6 58.55 -30.6 58.55 -28.05 55.65 -28.05 55.65 -25.5 52.8 -25.5 52.8 -28.05 50.1 -28.05 50.1 -30.6 52.8 -30.6 52.8 -39.4 51.25 -39.4 48.55 -27.75 Q48.2 -26.15 47.4 -26.15 L45.2 -26.15 45.2 -28.7 45.75 -28.7 46.1 -29.2 48.4 -39.4 45.45 -39.4 45.45 -42.05 52.8 -42.05 52.8 -44.05 55.65 -44.05 55.65 -42.05 63.15 -42.05 63.15 -39.4 60.6 -39.4 M65.15 -25.7 L65.15 -28.05 65.75 -28.05 Q66.1 -28.05 66.35 -28.8 L67.2 -32.5 69.65 -32.5 68.6 -27.5 Q68.35 -26.5 67.75 -26.05 67.25 -25.7 66.55 -25.7 L65.15 -25.7 M76.5 -33.75 L79.15 -33.75 79.9 -35.8 76.65 -35.8 76.65 -38.05 82.75 -38.05 82.75 -36.35 81.6 -33.75 83.0 -33.75 83.0 -31.4 81.3 -31.4 81.3 -27.15 81.0 -26.05 Q80.65 -25.6 80.0 -25.6 L77.25 -25.6 77.25 -27.75 78.55 -27.75 Q78.95 -27.75 79.0 -28.55 L79.0 -31.4 76.5 -31.4 76.5 -33.75 M68.6 -35.9 L69.35 -35.9 69.35 -33.55 67.5 -33.55 Q66.4 -33.55 66.0 -35.25 L65.05 -38.3 67.5 -38.3 68.05 -36.35 Q68.2 -35.9 68.6 -35.9 M100.9 -39.55 L97.6 -39.55 98.45 -31.5 98.6 -31.5 Q99.1 -31.5 99.25 -32.5 L100.0 -38.5 102.45 -38.5 101.65 -31.0 Q101.35 -28.95 100.05 -28.95 L98.7 -28.95 98.75 -28.6 Q98.85 -27.95 99.35 -27.95 L102.55 -27.95 102.55 -25.65 97.85 -25.65 Q97.1 -25.65 96.7 -26.05 96.2 -26.5 96.05 -27.55 L95.9 -28.95 93.35 -28.95 93.35 -31.5 95.65 -31.5 94.9 -39.55 93.2 -39.55 93.2 -41.95 94.65 -41.95 94.45 -44.05 97.15 -44.05 97.35 -41.95 99.6 -41.95 Q99.9 -41.95 99.9 -42.35 L99.9 -43.65 102.3 -43.65 102.3 -41.0 Q102.3 -39.55 100.9 -39.55 M90.15 -41.25 L85.1 -41.25 85.1 -43.55 92.7 -43.55 92.7 -40.85 90.25 -33.65 91.9 -29.0 Q92.2 -28.05 92.6 -28.05 L93.05 -28.05 93.05 -25.65 91.0 -25.65 90.4 -26.05 90.05 -26.8 88.95 -29.8 87.75 -26.25 87.65 -26.05 Q87.35 -25.65 86.8 -25.65 L84.95 -25.65 84.95 -28.05 85.45 -28.05 Q85.85 -28.05 86.05 -28.55 L87.65 -33.5 85.3 -40.1 87.9 -40.1 88.9 -37.4 90.15 -41.25 M-21.05 -43.8 L-20.05 -43.9 -19.85 -43.9 Q-17.3 -43.9 -16.35 -42.8 -15.35 -41.65 -15.35 -39.6 -15.35 -38.3 -15.65 -37.7 -16.0 -37.15 -16.95 -36.55 -16.15 -36.2 -15.65 -35.5 -15.25 -34.8 -15.25 -32.1 -15.25 -30.15 -15.55 -29.2 -15.95 -28.3 -17.0 -27.7 -18.1 -27.1 -19.85 -27.1 L-20.05 -27.1 -21.05 -27.15 -21.05 -43.8 M-19.85 -41.4 L-20.05 -41.35 -20.4 -41.1 -20.45 -40.05 -20.45 -38.8 -20.35 -37.8 -20.05 -37.55 -19.8 -37.55 Q-19.4 -37.55 -19.3 -37.8 L-19.15 -38.95 -19.15 -40.05 -19.3 -41.15 -19.85 -41.4 M-20.4 -34.55 L-20.55 -33.35 -20.55 -31.25 -20.4 -29.9 -20.05 -29.6 -19.8 -29.6 Q-19.35 -29.6 -19.2 -29.9 L-19.1 -31.25 -19.1 -33.35 Q-19.1 -34.25 -19.25 -34.55 L-19.85 -34.85 -20.05 -34.8 -20.4 -34.55" fill="#003399" fill-rule="evenodd" stroke="none"/>
    <path d="M32.95 -41.0 L30.7 -41.0 30.7 -36.45 32.55 -36.45 32.55 -34.2 30.7 -34.2 30.7 -28.3 32.95 -28.3 32.95 -27.8 33.85 -27.8 Q34.25 -27.8 34.5 -28.85 L35.4 -34.15 38.0 -34.15 36.85 -27.7 Q36.65 -26.6 36.1 -26.05 35.55 -25.5 34.7 -25.5 L32.75 -25.5 32.75 -26.05 25.8 -26.05 25.8 -28.3 28.15 -28.3 28.15 -34.2 26.1 -34.2 26.1 -36.45 28.15 -36.45 28.15 -41.0 25.8 -41.0 25.8 -43.25 32.95 -43.25 32.95 -41.0 M34.2 -43.65 L42.85 -43.65 42.85 -41.3 34.2 -41.3 34.2 -43.65 M19.3 -38.35 L19.3 -29.25 16.85 -29.25 16.85 -38.35 19.3 -38.35 M23.6 -39.9 L6.2 -39.9 6.2 -42.35 9.1 -42.35 8.45 -44.05 11.35 -44.05 12.0 -42.35 17.8 -42.35 18.55 -44.05 21.35 -44.05 20.65 -42.35 23.6 -42.35 23.6 -39.9 M23.15 -39.4 L23.15 -27.95 Q23.1 -26.85 22.45 -26.15 L22.4 -26.05 Q21.8 -25.5 20.95 -25.5 L17.15 -25.5 17.15 -27.95 19.9 -27.95 Q20.45 -27.95 20.45 -29.15 L20.45 -39.4 23.15 -39.4 M33.15 -37.55 L43.7 -37.55 43.7 -35.25 41.95 -35.25 41.95 -28.55 Q41.95 -27.95 42.55 -27.95 L43.55 -27.95 43.55 -25.6 41.95 -25.6 Q40.75 -25.6 40.15 -26.05 39.3 -26.65 39.3 -27.95 L39.3 -35.25 33.15 -35.25 33.15 -37.55 M0.15 -29.0 L0.15 -33.4 -10.0 -33.4 -10.0 -28.35 -0.5 -28.35 Q0.15 -28.35 0.15 -29.0 M2.25 -26.05 Q1.7 -25.7 0.85 -25.7 L-12.75 -25.7 -12.75 -43.7 2.95 -43.7 2.95 -27.65 Q2.9 -26.55 2.25 -26.05 M13.15 -36.75 L9.2 -36.75 9.2 -35.35 13.15 -35.35 13.15 -36.75 M13.15 -33.1 L9.2 -33.1 9.2 -31.65 13.15 -31.65 13.15 -33.1 M9.2 -25.6 L6.6 -25.6 6.6 -39.1 15.7 -39.1 15.7 -27.65 Q15.65 -26.55 15.05 -26.05 14.5 -25.6 13.45 -25.6 L11.85 -25.6 11.85 -27.9 12.6 -27.9 Q13.15 -27.9 13.15 -28.35 L13.15 -29.4 9.2 -29.4 9.2 -25.6 M0.15 -41.05 L-10.0 -41.05 -10.0 -36.05 0.15 -36.05 0.15 -41.05 M71.95 -42.3 L71.95 -43.9 74.5 -43.9 74.5 -42.3 76.5 -42.3 76.5 -40.05 72.7 -40.05 72.7 -38.1 76.1 -38.1 76.1 -27.4 Q76.1 -26.5 75.7 -26.05 75.2 -25.5 74.2 -25.5 L73.1 -25.5 73.1 -27.65 73.5 -27.65 Q73.95 -27.65 74.0 -28.15 L74.0 -36.1 72.7 -36.1 72.7 -27.65 Q72.7 -26.7 72.05 -26.1 L72.0 -26.05 Q71.55 -25.6 70.75 -25.6 L69.45 -25.6 69.45 -27.8 69.9 -27.8 Q70.3 -27.8 70.3 -28.85 L70.3 -40.05 69.55 -40.05 69.55 -42.3 71.95 -42.3 M69.25 -41.3 L69.25 -39.0 67.7 -39.0 Q66.55 -39.0 66.15 -40.7 L65.15 -43.7 67.6 -43.7 68.2 -41.8 Q68.35 -41.3 68.75 -41.3 L69.25 -41.3 M77.3 -41.35 L77.7 -43.95 80.05 -43.95 79.75 -42.6 82.85 -42.6 82.85 -40.35 79.3 -40.35 79.25 -40.05 Q78.95 -38.65 77.8 -38.65 L76.8 -38.65 76.8 -40.85 77.0 -40.85 77.3 -41.35 M60.6 -39.4 L62.2 -29.4 Q62.3 -28.7 62.8 -28.7 L63.3 -28.7 63.3 -26.15 61.45 -26.15 Q60.15 -26.15 59.85 -27.55 L57.75 -39.4 55.65 -39.4 55.65 -30.6 58.55 -30.6 58.55 -28.05 55.65 -28.05 55.65 -25.5 52.8 -25.5 52.8 -28.05 50.1 -28.05 50.1 -30.6 52.8 -30.6 52.8 -39.4 51.25 -39.4 48.55 -27.75 Q48.2 -26.15 47.4 -26.15 L45.2 -26.15 45.2 -28.7 45.75 -28.7 46.1 -29.2 48.4 -39.4 45.45 -39.4 45.45 -42.05 52.8 -42.05 52.8 -44.05 55.65 -44.05 55.65 -42.05 63.15 -42.05 63.15 -39.4 60.6 -39.4 M65.15 -25.7 L65.15 -28.05 65.75 -28.05 Q66.1 -28.05 66.35 -28.8 L67.2 -32.5 69.65 -32.5 68.6 -27.5 Q68.35 -26.5 67.75 -26.05 67.25 -25.7 66.55 -25.7 L65.15 -25.7 M76.5 -33.75 L79.15 -33.75 79.9 -35.8 76.65 -35.8 76.65 -38.05 82.75 -38.05 82.75 -36.35 81.6 -33.75 83.0 -33.75 83.0 -31.4 81.3 -31.4 81.3 -27.15 81.0 -26.05 Q80.65 -25.6 80.0 -25.6 L77.25 -25.6 77.25 -27.75 78.55 -27.75 Q78.95 -27.75 79.0 -28.55 L79.0 -31.4 76.5 -31.4 76.5 -33.75 M68.6 -35.9 L69.35 -35.9 69.35 -33.55 67.5 -33.55 Q66.4 -33.55 66.0 -35.25 L65.05 -38.3 67.5 -38.3 68.05 -36.35 Q68.2 -35.9 68.6 -35.9 M100.9 -39.55 L97.6 -39.55 98.45 -31.5 98.6 -31.5 Q99.1 -31.5 99.25 -32.5 L100.0 -38.5 102.45 -38.5 101.65 -31.0 Q101.35 -28.95 100.05 -28.95 L98.7 -28.95 98.75 -28.6 Q98.85 -27.95 99.35 -27.95 L102.55 -27.95 102.55 -25.65 97.85 -25.65 Q97.1 -25.65 96.7 -26.05 96.2 -26.5 96.05 -27.55 L95.9 -28.95 93.35 -28.95 93.35 -31.5 95.65 -31.5 94.9 -39.55 93.2 -39.55 93.2 -41.95 94.65 -41.95 94.45 -44.05 97.15 -44.05 97.35 -41.95 99.6 -41.95 Q99.9 -41.95 99.9 -42.35 L99.9 -43.65 102.3 -43.65 102.3 -41.0 Q102.3 -39.55 100.9 -39.55 M90.15 -41.25 L85.1 -41.25 85.1 -43.55 92.7 -43.55 92.7 -40.85 90.25 -33.65 91.9 -29.0 Q92.2 -28.05 92.6 -28.05 L93.05 -28.05 93.05 -25.65 91.0 -25.65 90.4 -26.05 90.05 -26.8 88.95 -29.8 87.75 -26.25 87.65 -26.05 Q87.35 -25.65 86.8 -25.65 L84.95 -25.65 84.95 -28.05 85.45 -28.05 Q85.85 -28.05 86.05 -28.55 L87.65 -33.5 85.3 -40.1 87.9 -40.1 88.9 -37.4 90.15 -41.25 M-21.05 -43.8 L-20.05 -43.9 -19.85 -43.9 Q-17.3 -43.9 -16.35 -42.8 -15.35 -41.65 -15.35 -39.6 -15.35 -38.3 -15.65 -37.7 -16.0 -37.15 -16.95 -36.55 -16.15 -36.2 -15.65 -35.5 -15.25 -34.8 -15.25 -32.1 -15.25 -30.15 -15.55 -29.2 -15.95 -28.3 -17.0 -27.7 -18.1 -27.1 -19.85 -27.1 L-20.05 -27.1 -21.05 -27.15 M-19.85 -41.4 L-20.05 -41.35 -20.4 -41.1 -20.45 -40.05 -20.45 -38.8 -20.35 -37.8 -20.05 -37.55 -19.8 -37.55 Q-19.4 -37.55 -19.3 -37.8 L-19.15 -38.95 -19.15 -40.05 -19.3 -41.15 -19.85 -41.4 M-20.4 -34.55 L-20.55 -33.35 -20.55 -31.25 -20.4 -29.9 -20.05 -29.6 -19.8 -29.6 Q-19.35 -29.6 -19.2 -29.9 L-19.1 -31.25 -19.1 -33.35 Q-19.1 -34.25 -19.25 -34.55 L-19.85 -34.85 -20.05 -34.8 -20.4 -34.55" fill="none" stroke="#ffffff" stroke-linecap="round" stroke-linejoin="round" stroke-width="5.5"/>
  </g>
</svg>
