<?xml version="1.0" encoding="UTF-8" standalone="no"?>
<svg xmlns:xlink="http://www.w3.org/1999/xlink" height="88.1px" width="282.2px" xmlns="http://www.w3.org/2000/svg">
  <g transform="matrix(1.0, 0.0, 0.0, 1.0, 141.3, 46.85)">
    <path d="M32.0 -46.45 L40.65 -46.45 40.65 -44.1 32.0 -44.1 32.0 -46.45 M30.95 -40.35 L41.5 -40.35 41.5 -38.05 39.75 -38.05 39.75 -31.35 Q39.75 -30.75 40.35 -30.75 L41.35 -30.75 41.35 -28.4 39.75 -28.4 Q38.55 -28.4 37.95 -28.85 37.1 -29.45 37.1 -30.75 L37.1 -38.05 30.95 -38.05 30.95 -40.35 M30.75 -43.8 L28.5 -43.8 28.5 -39.25 30.35 -39.25 30.35 -37.0 28.5 -37.0 28.5 -31.1 30.75 -31.1 30.75 -30.6 31.65 -30.6 Q32.05 -30.6 32.3 -31.65 L33.2 -36.95 35.8 -36.95 34.65 -30.5 Q34.45 -29.4 33.9 -28.85 33.35 -28.3 32.5 -28.3 L30.55 -28.3 30.55 -28.85 23.6 -28.85 23.6 -31.1 25.95 -31.1 25.95 -37.0 23.9 -37.0 23.9 -39.25 25.95 -39.25 25.95 -43.8 23.6 -43.8 23.6 -46.05 30.75 -46.05 30.75 -43.8 M21.4 -42.7 L4.0 -42.7 4.0 -45.15 6.9 -45.15 6.25 -46.85 9.15 -46.85 9.8 -45.15 15.6 -45.15 16.35 -46.85 19.15 -46.85 18.45 -45.15 21.4 -45.15 21.4 -42.7 M20.25 -28.95 L20.2 -28.85 Q19.6 -28.3 18.75 -28.3 L14.95 -28.3 14.95 -30.75 17.7 -30.75 Q18.25 -30.75 18.25 -31.95 L18.25 -42.2 20.95 -42.2 20.95 -30.75 Q20.9 -29.65 20.25 -28.95 M17.1 -41.15 L17.1 -32.05 14.65 -32.05 14.65 -41.15 17.1 -41.15 M10.95 -39.55 L7.0 -39.55 7.0 -38.15 10.95 -38.15 10.95 -39.55 M0.05 -28.85 Q-0.5 -28.5 -1.35 -28.5 L-14.95 -28.5 -14.95 -46.5 0.75 -46.5 0.75 -30.45 Q0.7 -29.35 0.05 -28.85 M7.0 -34.45 L10.95 -34.45 10.95 -35.9 7.0 -35.9 7.0 -34.45 M4.4 -28.4 L4.4 -41.9 13.5 -41.9 13.5 -30.45 Q13.45 -29.35 12.85 -28.85 12.3 -28.4 11.25 -28.4 L9.65 -28.4 9.65 -30.7 10.4 -30.7 Q10.95 -30.7 10.95 -31.15 L10.95 -32.2 7.0 -32.2 7.0 -28.4 4.4 -28.4 M77.55 -45.4 L80.65 -45.4 80.65 -43.15 77.1 -43.15 77.05 -42.85 Q76.75 -41.45 75.6 -41.45 L74.6 -41.45 74.6 -43.65 74.8 -43.65 Q75.0 -43.65 75.1 -44.15 L75.5 -46.75 77.85 -46.75 77.55 -45.4 M72.3 -45.1 L74.3 -45.1 74.3 -42.85 70.5 -42.85 70.5 -40.9 73.9 -40.9 73.9 -30.2 Q73.9 -29.3 73.5 -28.85 73.0 -28.3 72.0 -28.3 L70.9 -28.3 70.9 -30.45 71.3 -30.45 Q71.75 -30.45 71.8 -30.95 L71.8 -38.9 70.5 -38.9 70.5 -30.45 Q70.5 -29.5 69.85 -28.9 L69.8 -28.85 Q69.35 -28.4 68.55 -28.4 L67.25 -28.4 67.25 -30.6 67.7 -30.6 Q68.1 -30.6 68.1 -31.65 L68.1 -42.85 67.35 -42.85 67.35 -45.1 69.75 -45.1 69.75 -46.7 72.3 -46.7 72.3 -45.1 M74.45 -40.85 L80.55 -40.85 80.55 -39.15 79.4 -36.55 80.8 -36.55 80.8 -34.2 79.1 -34.2 79.1 -29.95 78.8 -28.85 Q78.45 -28.4 77.8 -28.4 L75.05 -28.4 75.05 -30.55 76.35 -30.55 Q76.75 -30.55 76.8 -31.35 L76.8 -34.2 74.3 -34.2 74.3 -36.55 76.95 -36.55 77.7 -38.6 74.45 -38.6 74.45 -40.85 M67.05 -44.1 L67.05 -41.8 65.5 -41.8 Q64.35 -41.8 63.95 -43.5 L62.95 -46.5 65.4 -46.5 66.0 -44.6 Q66.15 -44.1 66.55 -44.1 L67.05 -44.1 M65.3 -41.1 L65.85 -39.15 Q66.0 -38.7 66.4 -38.7 L67.15 -38.7 67.15 -36.35 65.3 -36.35 Q64.2 -36.35 63.8 -38.05 L62.85 -41.1 65.3 -41.1 M60.95 -42.2 L58.4 -42.2 60.0 -32.2 Q60.1 -31.5 60.6 -31.5 L61.1 -31.5 61.1 -28.95 59.25 -28.95 Q57.95 -28.95 57.65 -30.35 L55.55 -42.2 53.45 -42.2 53.45 -33.4 56.35 -33.4 56.35 -30.85 53.45 -30.85 53.45 -28.3 50.6 -28.3 50.6 -30.85 47.9 -30.85 47.9 -33.4 50.6 -33.4 50.6 -42.2 49.05 -42.2 46.35 -30.55 Q46.0 -28.95 45.2 -28.95 L43.0 -28.95 43.0 -31.5 43.55 -31.5 43.9 -32.0 46.2 -42.2 43.25 -42.2 43.25 -44.85 50.6 -44.85 50.6 -46.85 53.45 -46.85 53.45 -44.85 60.95 -44.85 60.95 -42.2 M65.0 -35.3 L67.45 -35.3 66.4 -30.3 Q66.15 -29.3 65.55 -28.85 65.05 -28.5 64.35 -28.5 L62.95 -28.5 62.95 -30.85 63.55 -30.85 Q63.9 -30.85 64.15 -31.6 L65.0 -35.3 M58.9 -2.75 Q59.5 -2.75 60.2 -4.65 L63.25 -12.7 56.65 -12.7 56.65 -15.35 63.9 -15.35 63.9 -18.35 66.95 -18.35 66.95 -15.35 74.15 -15.35 74.15 -12.7 67.4 -12.7 71.2 -3.65 Q71.55 -2.75 71.95 -2.75 L74.25 -2.75 74.25 -0.1 70.15 -0.1 Q69.5 -0.1 69.1 -1.2 L65.5 -10.25 62.1 -1.55 Q61.5 -0.1 60.75 -0.1 L56.55 -0.1 56.55 -2.75 58.9 -2.75 M80.35 -16.25 L80.35 -14.2 78.8 -14.2 Q77.65 -14.2 77.35 -15.4 L76.6 -18.05 79.15 -18.05 79.55 -16.85 Q79.6 -16.25 80.05 -16.25 L80.35 -16.25 M78.4 -12.6 L80.95 -12.6 79.6 -9.4 Q79.15 -8.35 78.15 -8.35 L76.6 -8.35 76.6 -10.45 77.2 -10.45 Q77.6 -10.45 77.8 -10.95 L78.4 -12.6 M80.95 -12.6 L80.95 -18.2 83.55 -18.2 83.55 -8.35 80.95 -8.35 80.95 -12.6 M80.65 -2.6 L82.35 -4.6 76.3 -4.6 76.3 -6.9 83.35 -6.9 83.35 -7.95 86.35 -7.95 86.35 -6.9 93.8 -6.9 93.8 -4.6 87.35 -4.6 89.05 -2.6 Q89.3 -2.35 89.95 -2.35 L93.5 -2.35 93.5 0.0 88.35 0.0 Q87.7 0.0 87.25 -0.3 L84.8 -3.4 82.4 -0.3 Q81.95 0.0 81.35 0.0 L76.6 0.0 76.6 -2.35 79.7 -2.35 Q80.35 -2.35 80.65 -2.6 M97.7 -45.15 L97.7 -46.45 100.1 -46.45 100.1 -43.8 Q100.1 -42.35 98.7 -42.35 L95.4 -42.35 96.25 -34.3 96.4 -34.3 Q96.9 -34.3 97.05 -35.3 L97.8 -41.3 100.25 -41.3 99.45 -33.8 Q99.15 -31.75 97.85 -31.75 L96.5 -31.75 96.55 -31.4 Q96.65 -30.75 97.15 -30.75 L100.35 -30.75 100.35 -28.45 95.65 -28.45 Q94.9 -28.45 94.5 -28.85 94.0 -29.3 93.85 -30.35 L93.7 -31.75 91.15 -31.75 91.15 -34.3 93.45 -34.3 92.7 -42.35 91.0 -42.35 91.0 -44.75 92.45 -44.75 92.25 -46.85 94.95 -46.85 95.15 -44.75 97.4 -44.75 Q97.7 -44.75 97.7 -45.15 M90.5 -46.35 L90.5 -43.65 88.05 -36.45 89.7 -31.8 Q90.0 -30.85 90.4 -30.85 L90.85 -30.85 90.85 -28.45 88.8 -28.45 88.2 -28.85 87.85 -29.6 86.75 -32.6 85.55 -29.05 85.45 -28.85 Q85.15 -28.45 84.6 -28.45 L82.75 -28.45 82.75 -30.85 83.25 -30.85 Q83.65 -30.85 83.85 -31.35 L85.45 -36.3 83.1 -42.9 85.7 -42.9 86.7 -40.2 87.95 -44.05 82.9 -44.05 82.9 -46.35 90.5 -46.35 M93.55 -14.65 L92.1 -10.25 Q91.5 -8.35 89.55 -8.35 L84.3 -8.35 84.3 -10.6 86.25 -10.6 85.95 -11.5 85.3 -11.8 84.35 -11.8 84.35 -13.55 86.5 -13.55 Q87.3 -13.55 87.9 -12.7 L88.85 -10.65 Q89.4 -10.85 89.65 -11.55 L90.65 -14.9 87.2 -14.9 Q86.9 -14.35 86.35 -14.35 L84.2 -14.35 84.2 -16.5 85.05 -16.5 85.4 -16.75 86.25 -18.2 88.95 -18.2 88.5 -17.3 93.55 -17.3 93.55 -14.65 M99.0 -18.5 L101.2 -18.5 101.2 -16.75 103.75 -16.75 103.75 -14.45 101.2 -14.45 101.2 -13.65 103.3 -13.65 103.8 -5.65 Q103.9 -5.0 104.3 -5.0 L104.45 -5.0 104.45 -2.85 103.15 -2.85 Q101.9 -2.85 101.8 -4.6 L101.2 -13.65 101.2 -0.3 99.0 -0.3 99.0 -12.25 98.5 -3.35 Q98.4 -2.35 97.95 -1.85 97.35 -1.35 96.6 -1.35 L95.85 -1.35 95.85 -3.5 95.9 -3.5 Q96.4 -3.5 96.45 -4.3 L97.0 -13.65 99.0 -13.65 99.0 -14.45 96.2 -14.45 96.2 -16.75 99.0 -16.75 99.0 -18.5 M119.35 -18.05 L129.7 -18.05 131.0 -15.45 Q131.3 -14.5 131.75 -14.5 L133.1 -14.5 133.1 -12.2 130.6 -12.2 Q129.85 -12.2 129.35 -13.0 L127.7 -15.7 121.25 -15.7 119.6 -13.0 Q119.1 -12.2 118.35 -12.2 L115.85 -12.2 115.85 -14.5 117.2 -14.5 Q117.6 -14.5 117.95 -15.45 L119.35 -18.05 M107.6 -15.35 L107.6 -2.15 Q107.55 -0.1 105.75 -0.05 L104.0 -0.05 104.0 -2.55 104.75 -2.55 105.0 -2.95 105.0 -17.95 112.6 -17.95 112.6 -3.1 Q112.6 -2.55 113.05 -2.55 L113.55 -2.55 113.55 -0.05 111.7 -0.05 Q109.9 -0.05 109.9 -2.2 L109.9 -15.35 107.6 -15.35 M116.05 -11.15 L132.65 -11.15 132.65 -8.75 116.05 -8.75 116.05 -11.15 M116.25 -1.8 L116.65 -2.45 118.75 -5.1 115.85 -5.1 115.85 -7.5 133.1 -7.5 133.1 -5.1 122.2 -5.1 120.1 -2.45 129.35 -2.45 129.8 -2.85 129.8 -4.05 132.5 -4.05 132.5 -1.9 Q132.5 -1.35 131.95 -0.8 131.2 -0.1 130.25 -0.1 L116.25 -0.1 116.25 -1.8 M140.9 -1.8 L137.45 -1.8 137.45 -5.5 140.9 -5.5 140.9 -1.8 M137.45 -16.45 L140.9 -16.45 140.9 -13.45 140.0 -6.95 138.3 -6.95 137.45 -13.45 137.45 -16.45 M62.25 24.7 L60.6 27.4 Q60.1 28.2 59.35 28.2 L56.85 28.2 56.85 25.9 58.15 25.9 Q58.6 25.9 58.95 24.95 L60.35 22.35 70.7 22.35 71.95 24.95 Q72.3 25.9 72.75 25.9 L74.1 25.9 74.1 28.2 71.6 28.2 Q70.85 28.2 70.35 27.4 L68.7 24.7 62.25 24.7 M44.7 23.65 L44.7 25.95 42.15 25.95 42.15 26.75 44.25 26.75 44.75 34.75 Q44.85 35.4 45.25 35.4 L45.4 35.4 45.4 37.55 44.1 37.55 Q42.85 37.55 42.75 35.8 L42.15 26.75 42.15 40.1 39.95 40.1 39.95 28.15 39.45 37.05 Q39.35 38.05 38.9 38.55 38.3 39.05 37.55 39.05 L36.75 39.05 36.75 36.9 36.85 36.9 Q37.35 36.9 37.4 36.1 L37.95 26.75 39.95 26.75 39.95 25.95 37.15 25.95 37.15 23.65 39.95 23.65 39.95 21.9 42.15 21.9 42.15 23.65 44.7 23.65 M53.55 22.45 L53.55 37.3 Q53.55 37.85 54.0 37.85 L54.45 37.85 54.45 40.35 52.65 40.35 Q50.85 40.35 50.85 38.2 L50.85 25.05 48.55 25.05 48.55 38.25 Q48.5 40.3 46.7 40.35 L44.95 40.35 44.95 37.85 45.7 37.85 45.95 37.45 45.95 22.45 53.55 22.45 M57.0 29.25 L73.65 29.25 73.65 31.65 57.0 31.65 57.0 29.25 M56.85 32.9 L74.1 32.9 74.1 35.3 63.15 35.3 61.1 37.95 70.35 37.95 Q70.75 37.95 70.75 37.55 L70.75 36.35 73.5 36.35 73.5 38.5 Q73.5 39.05 72.95 39.6 72.2 40.3 71.25 40.3 L57.25 40.3 57.25 38.6 57.65 37.95 59.75 35.3 56.85 35.3 56.85 32.9 M23.75 22.1 L23.5 22.6 34.25 22.6 34.25 24.75 33.0 29.05 Q32.55 30.6 30.7 30.6 L18.25 30.6 18.25 28.1 23.65 28.1 22.4 26.1 25.35 26.1 26.6 28.1 29.75 28.1 Q30.3 28.1 30.4 27.75 L31.35 25.0 22.25 25.0 Q21.75 25.9 20.7 25.9 L17.85 25.9 17.85 23.65 19.55 23.65 20.15 23.3 20.7 22.1 23.75 22.1 M15.0 24.6 L7.65 24.6 7.65 25.4 14.7 25.4 14.7 32.2 Q14.7 34.1 12.85 34.1 L7.65 34.1 7.65 34.4 7.45 35.05 6.0 36.9 7.0 37.6 8.65 38.05 15.2 38.05 15.2 40.35 6.85 40.35 Q6.1 40.35 5.5 39.95 L4.25 39.0 3.55 39.95 Q3.2 40.35 2.6 40.35 L-2.5 40.35 -2.5 38.05 1.4 38.05 1.9 37.8 2.15 37.45 -1.35 34.85 2.9 34.85 3.7 35.3 4.55 34.1 -2.0 34.1 -2.0 25.4 4.95 25.4 4.95 24.6 -2.35 24.6 -2.35 22.3 15.0 22.3 15.0 24.6 M12.1 27.65 L7.65 27.65 7.65 28.75 12.1 28.75 12.1 27.65 M12.1 31.15 L12.1 30.75 7.65 30.75 7.65 31.85 11.55 31.85 Q12.1 31.85 12.1 31.15 M19.9 32.2 L20.5 31.05 23.5 31.05 23.05 31.85 34.5 31.85 34.5 34.05 33.2 38.65 Q32.7 40.3 30.8 40.3 L17.3 40.3 17.3 37.8 23.4 37.8 22.1 35.55 25.1 35.55 26.4 37.8 29.8 37.8 30.55 37.35 31.5 34.3 21.8 34.3 Q21.3 34.85 20.5 34.85 L17.35 34.85 17.35 32.5 19.35 32.5 19.9 32.2 M0.6 30.75 L0.6 31.85 4.95 31.85 4.95 30.75 0.6 30.75 M0.6 28.75 L4.95 28.75 4.95 27.65 0.6 27.65 0.6 28.75 M-123.95 -17.05 L-123.95 -2.2 Q-123.95 -0.05 -126.4 -0.05 L-130.0 -0.05 -130.0 -2.55 -127.3 -2.55 Q-126.7 -2.55 -126.7 -3.1 L-126.7 -14.6 -130.95 -14.6 -131.05 -14.4 Q-131.6 -13.05 -132.8 -13.05 L-134.35 -13.05 -134.35 -15.4 -133.95 -15.4 Q-133.45 -15.4 -133.25 -16.1 L-132.45 -18.35 -129.5 -18.35 -130.0 -17.05 -123.95 -17.05 M-136.8 -15.8 L-134.75 -15.8 -134.75 -13.25 -136.8 -13.25 -136.8 -2.75 -134.65 -2.75 -134.65 -0.2 -141.3 -0.2 -141.3 -2.75 -139.4 -2.75 -139.4 -13.25 -141.2 -13.25 -141.2 -15.8 -139.4 -15.8 -139.4 -18.35 -136.8 -18.35 -136.8 -15.8 M-132.8 -9.75 L-134.0 -12.35 -130.9 -12.35 -130.55 -11.5 -130.1 -11.25 -127.7 -11.25 -127.7 -8.85 -131.65 -8.85 Q-132.3 -8.85 -132.8 -9.75 M-132.2 -5.25 L-131.85 -5.7 -131.25 -7.95 -128.3 -7.95 -129.35 -4.2 Q-129.75 -2.85 -131.25 -2.85 L-134.5 -2.85 -134.5 -5.25 -132.2 -5.25 M-121.65 -11.4 L-120.1 -11.4 Q-119.75 -11.4 -119.45 -12.0 L-118.1 -14.65 -121.35 -14.65 -121.35 -17.05 -116.85 -17.05 -116.2 -18.35 -113.15 -18.35 -113.85 -17.05 -104.05 -17.05 -104.05 -14.65 -115.15 -14.65 -115.75 -13.55 -104.4 -13.55 -104.4 -2.05 Q-104.45 0.0 -106.9 0.0 L-113.0 0.0 -113.0 -2.3 -107.8 -2.3 Q-107.2 -2.3 -107.2 -2.75 L-107.2 -3.55 -117.1 -3.55 -117.1 0.0 -119.8 0.0 -119.8 -8.7 -121.65 -8.7 -121.65 -11.4 M-84.55 -44.2 L-85.1 -44.0 -85.25 -43.5 -85.3 -42.3 -85.3 -39.75 Q-85.05 -40.4 -84.45 -40.7 L-83.0 -41.05 Q-81.95 -41.05 -81.15 -40.45 -80.35 -39.85 -80.1 -39.0 L-79.9 -36.75 -79.9 -35.45 -80.0 -32.9 Q-80.15 -32.1 -80.65 -31.35 -81.2 -30.65 -82.15 -30.3 -83.1 -29.9 -84.35 -29.9 -85.95 -29.9 -86.9 -30.35 -87.95 -30.8 -88.45 -31.65 -89.05 -32.5 -89.1 -33.4 L-89.2 -37.0 -89.2 -39.25 -89.1 -43.1 Q-89.05 -44.1 -88.45 -44.95 -87.9 -45.85 -86.85 -46.25 L-84.5 -46.7 Q-82.9 -46.7 -81.8 -46.15 -80.8 -45.6 -80.3 -44.6 -79.9 -43.6 -79.9 -42.1 L-83.75 -42.1 -83.8 -43.5 -84.0 -44.0 Q-84.2 -44.2 -84.55 -44.2 M-84.55 -38.55 L-85.15 -38.25 -85.3 -37.05 -85.3 -34.1 -85.15 -32.7 Q-84.95 -32.4 -84.55 -32.4 -84.3 -32.4 -84.0 -32.65 -83.75 -32.9 -83.75 -34.0 L-83.75 -37.05 Q-83.75 -37.9 -83.9 -38.2 L-84.55 -38.55 M-90.6 -40.9 L-90.6 -35.5 -90.8 -32.85 Q-91.0 -32.0 -91.6 -31.25 -92.2 -30.55 -93.05 -30.2 L-95.0 -29.9 -97.3 -30.2 Q-98.2 -30.55 -98.8 -31.25 L-99.55 -32.75 -99.8 -35.25 -99.8 -40.9 Q-99.8 -43.15 -99.4 -44.25 -99.05 -45.35 -97.9 -46.0 -96.8 -46.7 -95.25 -46.7 -94.0 -46.7 -92.95 -46.2 -91.95 -45.75 -91.45 -45.1 L-90.8 -43.6 -90.6 -40.9 M-95.75 -43.85 L-95.9 -42.25 -95.9 -34.35 -95.75 -32.65 Q-95.65 -32.4 -95.2 -32.4 -94.75 -32.4 -94.65 -32.7 -94.5 -33.05 -94.5 -34.25 L-94.5 -42.25 -94.6 -43.85 Q-94.75 -44.2 -95.2 -44.2 -95.65 -44.2 -95.75 -43.85 M-101.2 -35.5 L-101.4 -32.85 Q-101.6 -32.0 -102.2 -31.25 -102.8 -30.55 -103.65 -30.2 L-105.55 -29.9 -107.85 -30.2 Q-108.8 -30.55 -109.35 -31.25 L-110.15 -32.75 -110.35 -35.25 -110.35 -40.9 Q-110.4 -43.15 -110.0 -44.25 -109.6 -45.35 -108.5 -46.0 -107.4 -46.7 -105.85 -46.7 L-103.55 -46.2 Q-102.55 -45.75 -102.05 -45.1 L-101.4 -43.6 -101.2 -40.9 -101.2 -35.5 M-105.75 -44.2 Q-106.2 -44.2 -106.35 -43.85 L-106.5 -42.25 -106.5 -34.35 -106.35 -32.65 Q-106.2 -32.4 -105.75 -32.4 -105.35 -32.4 -105.25 -32.7 -105.1 -33.05 -105.1 -34.25 L-105.1 -42.25 -105.2 -43.85 -105.75 -44.2 M-116.05 -44.2 Q-116.5 -44.2 -116.65 -43.85 L-116.9 -42.4 -116.9 -40.85 -120.4 -40.85 -120.4 -41.45 -120.25 -43.6 -119.6 -45.15 Q-119.1 -45.9 -118.2 -46.3 L-116.2 -46.7 Q-113.9 -46.7 -112.7 -45.5 -111.5 -44.3 -111.5 -42.45 -111.5 -41.1 -112.15 -39.55 -112.85 -38.0 -116.1 -32.95 L-111.85 -32.95 -111.85 -30.2 -120.4 -30.2 -120.4 -32.5 Q-116.6 -38.95 -115.85 -40.5 -115.15 -42.05 -115.15 -42.9 -115.15 -43.55 -115.4 -43.85 L-116.05 -44.2 M-102.4 -14.35 Q-102.4 -16.65 -101.4 -17.5 -100.4 -18.3 -98.1 -18.3 -95.4 -18.3 -94.35 -17.15 -93.4 -16.05 -93.4 -14.05 -93.4 -12.65 -93.75 -12.05 -94.1 -11.45 -95.0 -10.95 -94.15 -10.65 -93.7 -9.95 -93.25 -9.25 -93.25 -6.65 -93.3 -4.7 -93.65 -3.65 -94.1 -2.6 -95.15 -2.05 -96.15 -1.5 -97.8 -1.5 -99.6 -1.5 -100.65 -2.1 -101.75 -2.75 -102.05 -3.7 -102.4 -4.65 -102.4 -6.95 L-102.4 -8.25 -98.5 -8.25 -98.5 -5.6 -98.4 -4.25 Q-98.3 -4.0 -97.9 -4.0 -97.4 -4.0 -97.25 -4.35 L-97.1 -6.2 -97.1 -7.35 -97.3 -8.7 Q-97.55 -9.15 -97.95 -9.25 L-99.45 -9.4 -99.45 -11.75 -97.75 -11.85 -97.25 -12.35 -97.1 -13.5 -97.1 -14.4 -97.3 -15.55 Q-97.45 -15.8 -97.85 -15.8 -98.25 -15.8 -98.35 -15.5 L-98.5 -14.3 -98.5 -12.95 -102.4 -12.95 -102.4 -14.35 M-117.1 -9.65 L-107.2 -9.65 -107.2 -11.15 -117.05 -11.15 -117.1 -11.1 -117.1 -9.65 M-117.1 -5.9 L-107.2 -5.9 -107.2 -7.35 -117.1 -7.35 -117.1 -5.9 M-87.35 -18.3 Q-86.05 -18.3 -85.05 -17.8 L-83.55 -16.7 -82.9 -15.2 -82.7 -12.5 -82.7 -7.1 -82.9 -4.45 Q-83.1 -3.6 -83.7 -2.85 -84.3 -2.15 -85.15 -1.8 L-87.05 -1.5 -89.35 -1.8 Q-90.3 -2.15 -90.85 -2.85 L-91.65 -4.35 -91.85 -6.85 -91.85 -12.5 Q-91.9 -14.75 -91.5 -15.85 -91.1 -16.95 -90.0 -17.6 -88.9 -18.3 -87.35 -18.3 M-87.25 -15.8 L-87.85 -15.45 -88.0 -13.85 -88.0 -5.95 -87.85 -4.25 Q-87.7 -4.0 -87.25 -4.0 -86.85 -4.0 -86.75 -4.3 -86.6 -4.65 -86.6 -5.85 L-86.6 -13.85 -86.7 -15.45 Q-86.85 -15.8 -87.25 -15.8 M-50.35 -43.8 L-55.15 -43.8 -55.15 -41.05 Q-54.3 -42.15 -52.85 -42.15 -51.3 -42.15 -50.45 -41.2 -49.65 -40.3 -49.65 -37.65 L-49.65 -35.3 Q-49.65 -33.6 -49.8 -32.8 -49.95 -32.0 -50.45 -31.3 -51.0 -30.6 -51.9 -30.25 L-54.15 -29.9 Q-55.65 -29.9 -56.8 -30.45 -57.95 -31.0 -58.45 -32.05 -58.95 -33.15 -58.9 -35.4 L-58.9 -36.3 -55.0 -36.3 -55.0 -35.25 -54.9 -33.05 Q-54.85 -32.4 -54.2 -32.4 L-53.7 -32.55 Q-53.55 -32.75 -53.55 -33.0 L-53.5 -34.9 -53.5 -38.1 Q-53.5 -39.0 -53.65 -39.35 -53.85 -39.65 -54.3 -39.65 L-54.75 -39.5 -54.95 -39.15 -55.0 -38.25 -58.85 -38.25 -58.7 -46.4 -50.35 -46.4 -50.35 -43.8 M-44.35 -41.45 L-33.95 -41.45 -33.95 -43.85 -44.35 -43.85 -44.35 -41.45 M-60.5 -32.45 L-67.0 -32.45 -67.0 -28.4 -69.85 -28.4 -69.85 -32.45 -78.2 -32.45 -78.2 -34.95 -76.4 -34.95 -76.4 -40.75 -69.85 -40.75 -69.85 -43.15 -74.35 -43.15 -74.4 -43.0 Q-74.8 -41.7 -76.3 -41.7 L-78.05 -41.7 -78.05 -44.1 -77.3 -44.1 Q-77.05 -44.1 -76.9 -44.55 L-76.35 -46.7 -73.45 -46.7 -73.75 -45.55 -60.9 -45.55 -60.9 -43.15 -67.0 -43.15 -67.0 -40.75 -61.25 -40.75 -61.25 -38.3 -67.0 -38.3 -67.0 -34.95 -60.5 -34.95 -60.5 -32.45 M-44.35 -30.95 Q-44.4 -29.3 -45.45 -28.85 L-46.25 -28.7 -47.95 -28.7 -47.95 -31.35 -47.3 -31.35 Q-47.05 -31.35 -47.05 -31.75 L-47.05 -46.45 -31.25 -46.45 -31.25 -31.0 Q-31.3 -29.3 -32.6 -28.85 L-33.65 -28.7 -39.6 -28.7 -39.6 -31.35 -34.6 -31.35 Q-33.95 -31.35 -33.95 -31.9 L-33.95 -33.9 -44.35 -33.9 -44.35 -30.95 M-44.35 -36.45 L-33.95 -36.45 -33.95 -38.9 -44.35 -38.9 -44.35 -36.45 M-73.7 -34.95 L-69.85 -34.95 -69.85 -38.3 -73.7 -38.3 -73.7 -34.95 M-61.3 -16.9 L-59.2 -16.9 -59.2 -18.3 -56.65 -18.3 -56.65 -16.9 -55.0 -16.9 -55.0 -14.5 -56.65 -14.5 -56.65 -13.05 -55.4 -13.05 -55.4 -10.6 -56.65 -10.6 -56.65 -2.3 Q-56.65 -1.25 -57.3 -0.55 -57.85 0.0 -58.75 0.0 L-60.75 0.0 -60.75 -2.2 -59.7 -2.2 Q-59.2 -2.2 -59.2 -3.25 L-59.2 -5.1 -59.25 -4.9 Q-59.7 -3.9 -60.25 -3.9 L-61.6 -3.9 -61.6 -6.35 -61.55 -6.35 Q-60.95 -6.35 -60.65 -7.2 L-59.2 -11.3 -59.2 -14.5 -61.3 -14.5 -61.3 -16.9 M-67.85 -12.7 L-68.5 -10.3 -66.65 -10.3 -65.15 -3.1 Q-65.05 -2.35 -64.6 -2.35 L-63.2 -2.35 -63.2 0.1 -66.05 0.1 Q-67.55 0.1 -67.75 -1.95 L-68.95 -8.55 -70.95 -1.3 Q-71.35 0.1 -72.2 0.1 L-75.8 0.1 -75.8 -2.45 -73.8 -2.45 Q-73.55 -2.45 -73.45 -2.9 L-70.65 -12.7 -67.85 -12.7 M-70.45 -16.35 L-63.2 -16.35 -63.5 -11.8 -66.3 -11.8 -66.1 -13.85 -71.35 -13.85 -72.1 -11.6 Q-72.45 -10.6 -73.1 -10.6 L-75.3 -10.6 -75.3 -13.15 -74.65 -13.15 Q-74.25 -13.15 -74.05 -14.0 L-72.75 -18.45 -69.75 -18.45 -70.45 -16.35 M-75.75 -14.2 L-75.75 -11.7 -77.75 -11.7 Q-79.1 -11.7 -79.4 -13.05 L-80.65 -17.8 -77.75 -17.8 -76.95 -14.85 Q-76.9 -14.2 -76.35 -14.2 L-75.75 -14.2 M-79.6 -3.45 L-78.6 -9.95 -75.75 -9.95 -76.9 -1.6 Q-77.15 0.0 -78.25 0.0 L-80.95 0.0 -80.95 -2.45 -80.2 -2.45 Q-79.7 -2.45 -79.6 -3.45 M-47.85 -16.45 L-43.6 -16.45 -43.6 -1.8 Q-43.6 -0.05 -45.5 -0.05 L-54.5 -0.05 -54.5 -16.45 -50.45 -16.45 -50.45 -18.3 -47.85 -18.3 -47.85 -16.45 M-47.85 -14.05 L-47.85 -9.5 -46.25 -9.5 -46.25 -14.05 -47.85 -14.05 M-51.9 -2.45 L-50.45 -2.45 -50.45 -7.35 -51.9 -7.35 -51.9 -2.45 M-47.85 -2.45 L-46.85 -2.45 Q-46.25 -2.45 -46.25 -3.0 L-46.25 -7.35 -47.85 -7.35 -47.85 -2.45 M-50.45 -14.05 L-51.9 -14.05 -51.9 -9.5 -50.45 -9.5 -50.45 -14.05 M-2.05 -43.85 L-12.2 -43.85 -12.2 -38.85 -2.05 -38.85 -2.05 -43.85 M-17.85 -38.3 Q-17.45 -37.6 -17.45 -34.9 -17.45 -32.95 -17.75 -32.0 -18.15 -31.1 -19.2 -30.5 -20.3 -29.9 -22.05 -29.9 -23.8 -29.9 -24.8 -30.45 -25.8 -31.05 -26.25 -31.95 -26.7 -32.9 -26.65 -35.1 L-26.4 -37.65 Q-26.25 -38.75 -25.1 -39.35 -25.8 -39.75 -26.15 -40.5 -26.55 -41.3 -26.5 -42.5 -26.55 -44.6 -25.4 -45.65 -24.3 -46.7 -22.05 -46.7 -19.5 -46.7 -18.55 -45.6 -17.55 -44.45 -17.55 -42.4 -17.55 -41.1 -17.85 -40.5 -18.2 -39.95 -19.15 -39.35 -18.35 -39.0 -17.85 -38.3 M-12.2 -31.15 L-2.7 -31.15 Q-2.05 -31.15 -2.05 -31.8 L-2.05 -36.2 -12.2 -36.2 -12.2 -31.15 M-22.6 -43.9 L-22.65 -42.85 -22.65 -41.6 -22.55 -40.6 Q-22.4 -40.35 -22.0 -40.35 -21.6 -40.35 -21.5 -40.6 L-21.35 -41.75 -21.35 -42.85 -21.5 -43.95 -22.05 -44.2 -22.6 -43.9 M-22.6 -37.35 L-22.75 -36.15 -22.75 -34.05 -22.6 -32.7 Q-22.4 -32.4 -22.0 -32.4 -21.55 -32.4 -21.4 -32.7 L-21.3 -34.05 -21.3 -36.15 Q-21.3 -37.05 -21.45 -37.35 L-22.05 -37.65 -22.6 -37.35 M-29.9 34.05 L-29.9 37.7 -27.85 37.7 Q-27.25 37.7 -27.25 37.15 L-27.25 34.05 -29.9 34.05 M-27.1 30.6 L-40.7 30.6 -40.7 22.6 -25.05 22.6 -25.05 28.7 Q-25.05 30.6 -27.1 30.6 M-27.75 25.15 L-38.0 25.15 -38.0 28.05 -28.5 28.05 Q-27.8 28.05 -27.75 27.4 L-27.75 25.15 M-38.8 34.05 L-38.8 37.7 -36.75 37.7 Q-36.2 37.7 -36.2 37.15 L-36.2 34.05 -38.8 34.05 M-35.45 40.1 L-41.4 40.1 -41.4 31.65 -33.5 31.65 -33.5 38.35 Q-33.5 40.1 -35.45 40.1 M-20.7 41.25 L-20.7 39.85 -18.3 39.85 -18.3 38.6 -20.0 38.6 -20.0 35.0 -16.65 35.0 -16.65 39.3 Q-16.65 41.25 -18.75 41.25 L-20.7 41.25 M-26.55 40.1 L-32.5 40.1 -32.5 31.65 -24.55 31.65 -24.55 38.35 Q-24.55 40.1 -26.55 40.1 M-47.9 22.05 L-47.9 37.45 Q-47.95 37.85 -47.4 37.85 L-44.05 37.85 -44.05 40.3 -49.0 40.3 Q-50.65 40.3 -50.65 38.85 L-50.65 22.05 -47.9 22.05 M-74.7 22.1 L-74.95 22.6 -64.15 22.6 -64.15 24.75 -65.4 29.05 Q-65.85 30.6 -67.75 30.6 L-80.2 30.6 -80.2 28.1 -74.8 28.1 -76.05 26.1 -73.1 26.1 -71.85 28.1 -68.7 28.1 Q-68.1 28.1 -68.0 27.75 L-67.1 25.0 -76.2 25.0 Q-76.7 25.9 -77.75 25.9 L-80.55 25.9 -80.55 23.65 -78.9 23.65 Q-78.45 23.65 -78.3 23.3 L-77.75 22.1 -74.7 22.1 M-63.95 34.05 L-65.25 38.65 Q-65.75 40.3 -67.65 40.3 L-81.15 40.3 -81.15 37.8 -75.05 37.8 -76.35 35.55 -73.35 35.55 -72.05 37.8 -68.65 37.8 Q-68.0 37.8 -67.85 37.35 L-66.95 34.3 -76.65 34.3 Q-77.15 34.85 -77.95 34.85 L-81.1 34.85 -81.1 32.5 -79.1 32.5 Q-78.7 32.5 -78.55 32.2 L-77.95 31.05 -74.95 31.05 -75.4 31.85 -63.95 31.85 -63.95 34.05 M-61.35 26.55 L-51.8 26.55 -51.8 29.0 -55.25 29.0 -55.25 40.5 -57.8 40.5 -57.8 29.0 -61.35 29.0 -61.35 26.55 M-61.35 37.95 L-61.15 37.95 Q-60.8 37.95 -60.8 37.55 L-60.8 30.1 -58.6 30.1 -58.6 38.85 Q-58.6 40.1 -59.9 40.1 L-61.35 40.1 -61.35 37.95 M-52.35 30.05 L-52.35 37.65 Q-52.35 38.05 -51.95 38.05 L-51.8 38.05 -51.8 40.2 -53.25 40.2 Q-54.6 40.2 -54.6 38.9 L-54.6 30.05 -52.35 30.05 M-61.15 24.95 L-61.15 22.5 -52.05 22.5 -52.05 24.95 -61.15 24.95 M-90.75 24.6 L-90.75 25.4 -83.7 25.4 -83.7 32.2 Q-83.7 34.1 -85.5 34.1 L-90.75 34.1 -90.75 34.4 -90.95 35.05 -92.4 36.9 -91.4 37.6 -89.75 38.05 -83.2 38.05 -83.2 40.35 -91.55 40.35 -92.9 39.95 -94.15 39.0 -94.85 39.95 Q-95.2 40.35 -95.8 40.35 L-100.9 40.35 -100.9 38.05 -97.0 38.05 -96.5 37.8 -96.25 37.45 -99.75 34.85 -95.5 34.85 -94.7 35.3 -93.85 34.1 -100.4 34.1 -100.4 25.4 -93.45 25.4 -93.45 24.6 -100.75 24.6 -100.75 22.3 -83.4 22.3 -83.4 24.6 -90.75 24.6 M-90.75 27.65 L-90.75 28.75 -86.3 28.75 -86.3 27.65 -90.75 27.65 M-90.75 30.75 L-90.75 31.85 -86.8 31.85 Q-86.3 31.85 -86.3 31.15 L-86.3 30.75 -90.75 30.75 M-93.45 27.65 L-97.8 27.65 -97.8 28.75 -93.45 28.75 -93.45 27.65 M-97.8 30.75 L-97.8 31.85 -93.45 31.85 -93.45 30.75 -97.8 30.75" fill="#003399" fill-rule="evenodd" stroke="none"/>
  </g>
</svg>
