<?xml version="1.0" encoding="UTF-8" standalone="no"?>
<svg xmlns:xlink="http://www.w3.org/1999/xlink" height="312.25px" width="185.95px" xmlns="http://www.w3.org/2000/svg">
  <g transform="matrix(1.0, 0.0, 0.0, 1.0, 0.5, 0.5)">
    <path d="M150.6 207.6 Q152.15 205.55 155.2 205.3 157.7 205.15 162.6 205.35 166.95 193.3 172.05 184.75 176.7 176.85 170.2 167.85 L172.9 169.7 Q175.2 171.2 178.35 171.0 181.45 170.8 180.5 169.15 179.5 167.5 182.45 167.15 178.8 155.95 174.8 152.15 L175.05 151.9 176.1 152.6 177.6 152.15 177.6 147.85 Q175.15 135.5 175.5 124.75 175.8 113.95 176.25 110.25 176.65 106.5 175.65 103.35 174.6 100.15 175.5 97.15 L171.7 97.45 Q173.65 96.15 175.65 92.65 L175.7 91.65 Q176.45 73.35 170.6 62.7 164.7 52.0 155.3 49.1 L152.4 46.65 153.25 45.45 153.4 45.2 Q158.15 47.1 162.6 49.85 L162.6 50.15 Q178.15 61.6 178.3 81.95 178.3 85.3 178.65 89.45 178.4 91.9 178.55 106.0 L178.1 129.35 Q177.9 135.5 179.3 140.55 180.8 145.8 180.8 147.9 180.95 152.15 182.95 157.5 184.95 162.6 184.95 166.75 184.95 170.6 183.65 172.0 182.3 173.45 178.1 173.95 178.1 179.75 173.95 189.75 168.5 202.9 168.0 204.8 162.95 207.9 159.5 208.55 L157.7 208.95 Q155.9 209.4 154.55 210.1 155.9 209.4 157.7 208.95 L160.6 216.9 Q171.65 250.95 172.55 311.25 L167.45 311.25 167.45 301.1 168.7 290.4 Q168.7 284.0 166.1 262.7 163.65 242.25 163.75 240.95 164.05 237.75 162.3 231.5 L160.05 223.25 Q159.9 222.1 158.15 218.15 L156.8 215.2 154.55 210.1 153.9 210.45 Q151.75 211.75 150.35 212.35 L150.6 207.6 M88.15 19.1 Q88.55 22.6 88.35 25.55 L88.35 25.6 88.25 27.0 87.9 29.0 88.05 29.65 Q87.75 29.6 87.65 30.0 L86.95 32.1 86.3 33.4 Q84.65 36.3 81.05 38.95 L79.4 40.0 79.3 40.05 75.25 41.1 72.0 42.05 68.1 43.5 67.35 43.9 67.3 41.6 67.35 43.9 67.35 44.15 Q57.6 46.35 57.05 49.4 L56.95 45.65 57.05 49.4 57.05 50.35 Q50.8 48.4 44.9 56.6 43.45 58.8 40.6 61.2 37.75 63.6 35.5 66.55 33.2 69.5 31.8 75.65 31.0 79.15 29.8 86.55 L28.9 86.55 Q29.0 85.9 28.3 85.05 L28.0 84.4 Q24.55 90.65 24.7 94.2 24.25 96.45 21.4 100.95 L18.7 105.45 Q18.7 106.05 20.0 106.9 21.25 107.75 21.25 108.3 21.25 109.75 19.5 111.5 L16.45 114.1 Q15.0 115.45 14.5 117.5 L14.15 120.2 19.8 116.7 16.55 122.2 Q13.4 123.75 11.7 125.3 7.9 128.8 7.75 129.25 L4.65 130.9 7.75 129.25 Q10.3 127.95 14.15 126.2 L11.65 130.45 8.15 132.25 Q5.35 133.75 5.05 134.65 L2.85 140.75 Q2.2 142.95 2.2 146.3 2.2 148.6 3.35 151.7 L4.55 154.85 Q4.75 158.8 5.3 162.5 0.0 150.35 0.0 147.4 L2.5 132.7 Q2.5 132.15 4.65 130.9 4.6 130.45 7.7 126.45 L10.6 122.95 11.7 121.9 Q12.35 119.05 12.6 116.6 12.85 113.5 16.0 111.15 19.1 108.8 17.5 106.65 17.3 105.15 18.35 102.35 19.35 99.55 22.5 92.85 25.6 86.1 24.95 81.5 L29.75 73.7 29.75 72.05 Q30.35 68.4 37.3 60.55 44.2 52.7 50.25 48.25 L51.95 47.6 56.95 45.65 67.3 41.6 73.3 39.7 77.75 37.95 78.6 37.5 78.8 37.25 Q79.65 36.45 81.25 35.55 L84.5 33.2 86.3 31.35 87.25 29.1 88.05 25.55 88.05 25.5 Q88.4 23.5 88.15 19.1 M29.75 82.2 L29.75 73.7 29.75 82.2 M14.15 120.2 L12.3 121.4 11.7 121.9 12.3 121.4 14.15 120.2 M42.65 121.6 L44.2 123.45 Q45.85 137.05 40.85 143.45 40.75 149.4 39.3 153.6 L39.05 153.55 38.7 150.8 37.45 144.45 38.7 150.8 39.05 153.55 39.3 162.45 36.6 175.7 Q34.35 187.1 33.95 194.35 L33.65 194.25 Q32.05 187.55 31.1 181.35 31.7 178.8 33.2 176.35 33.85 175.25 33.85 172.95 33.9 170.7 35.35 168.85 36.8 166.95 36.35 154.2 35.9 141.45 34.85 136.2 L34.85 130.45 35.1 131.85 37.1 142.7 37.45 144.45 Q39.25 150.85 39.45 135.6 L39.45 129.45 40.2 134.3 40.65 138.3 40.85 143.45 40.65 138.3 Q42.55 135.45 42.45 131.15 42.3 125.0 42.65 121.6 M59.25 148.15 L59.65 147.95 Q64.2 163.9 64.2 171.0 64.2 178.85 62.55 182.4 61.9 180.7 61.9 179.5 61.35 178.95 60.75 178.95 59.3 183.1 56.75 191.35 55.35 195.8 55.95 198.9 L55.9 198.8 Q55.55 197.2 55.1 196.55 L53.3 196.55 Q53.3 200.6 50.3 217.5 46.3 239.75 44.25 255.85 L42.65 311.25 39.75 311.25 Q40.35 242.65 46.9 216.5 53.5 189.9 59.5 177.1 63.7 168.1 59.25 148.15" fill="#ffffff" fill-rule="evenodd" stroke="none"/>
    <path d="M152.4 46.65 L155.3 49.1 Q164.7 52.0 170.6 62.7 176.45 73.35 175.7 91.65 L175.65 92.65 Q173.65 96.15 171.7 97.45 L175.5 97.15 Q174.6 100.15 175.65 103.35 176.65 106.5 176.25 110.25 175.8 113.95 175.5 124.75 175.15 135.5 177.6 147.85 L177.6 152.15 176.1 152.6 175.05 151.9 174.8 152.15 Q178.8 155.95 182.45 167.15 179.5 167.5 180.5 169.15 181.45 170.8 178.35 171.0 175.2 171.2 172.9 169.7 L170.2 167.85 Q176.7 176.85 172.05 184.75 166.95 193.3 162.6 205.35 157.7 205.15 155.2 205.3 152.15 205.55 150.6 207.6 151.45 187.6 149.1 162.15 L149.35 161.9 149.25 161.5 Q147.75 140.9 144.25 137.25 L143.6 136.7 143.35 136.4 142.2 134.95 145.35 134.6 Q148.4 134.6 150.65 136.35 L152.15 137.8 Q153.7 139.65 154.7 142.6 154.7 144.25 156.55 154.85 L156.6 155.15 157.35 159.65 157.4 159.7 157.35 159.65 157.35 159.55 157.4 159.7 158.35 166.55 158.4 166.6 Q158.65 166.55 159.0 163.45 159.4 159.95 158.8 147.4 158.15 134.9 151.55 134.35 L142.05 134.8 140.85 133.4 143.0 132.0 143.3 131.8 143.25 131.85 142.95 131.95 Q141.9 130.35 144.9 127.7 147.05 125.75 147.15 124.7 L154.6 121.75 Q157.2 120.7 159.9 116.85 L161.75 114.2 153.8 118.9 Q149.1 121.75 146.3 122.25 146.3 120.95 147.0 118.8 L148.3 114.5 148.4 113.95 Q150.1 112.3 157.05 109.15 168.45 104.2 170.6 99.75 165.05 103.9 159.0 104.7 L154.8 106.05 Q151.8 107.05 149.95 108.75 L149.8 108.85 147.85 110.8 147.8 110.4 Q147.8 109.0 148.5 106.85 140.8 124.45 119.45 116.5 L118.15 115.75 116.6 114.75 Q127.5 80.5 152.25 46.85 L152.4 46.65 M151.2 94.95 L150.95 97.45 Q150.95 99.55 150.1 102.3 L149.4 104.25 148.5 106.85 149.4 104.25 150.1 102.3 Q150.95 99.55 150.95 97.45 L151.2 94.95 151.7 89.55 151.75 88.7 Q152.9 87.0 157.45 82.95 163.1 77.85 162.6 75.65 L162.2 75.85 Q160.75 77.65 156.75 79.6 153.25 81.25 153.0 82.3 150.25 76.95 150.2 75.7 L150.2 75.85 150.5 80.5 Q150.4 82.95 149.55 84.0 L143.75 80.65 Q149.8 87.8 151.2 94.95 M153.35 130.65 Q156.15 130.7 159.25 132.75 L162.05 134.85 170.9 141.15 Q163.1 127.9 153.0 127.9 145.15 127.9 143.3 131.8 L143.7 131.8 144.35 131.8 144.85 131.7 144.85 131.85 Q155.65 132.05 158.85 136.65 L163.3 142.9 Q167.45 148.2 175.2 160.75 L175.35 160.75 Q174.9 156.65 170.55 149.2 166.35 141.8 163.15 138.9 L157.8 133.65 Q155.25 131.4 153.35 130.65 L153.2 130.65 146.35 131.4 151.65 130.3 Q152.45 130.3 153.35 130.65 M144.35 131.8 L144.85 131.85 144.35 131.8 M47.45 85.75 L46.6 85.25 Q42.6 83.15 40.65 84.55 L40.6 84.6 Q36.9 84.0 35.3 85.6 L38.65 86.85 37.95 87.45 37.85 87.55 37.8 87.55 Q34.6 85.25 30.4 89.9 25.7 105.4 20.5 115.5 L19.8 116.7 14.15 120.2 14.5 117.5 Q15.0 115.45 16.45 114.1 L19.5 111.5 Q21.25 109.75 21.25 108.3 21.25 107.75 20.0 106.9 18.7 106.05 18.7 105.45 L21.4 100.95 Q24.25 96.45 24.7 94.2 24.55 90.65 28.0 84.4 L28.3 85.05 Q29.0 85.9 28.9 86.55 L29.8 86.55 Q31.0 79.15 31.8 75.65 33.2 69.5 35.5 66.55 37.75 63.6 40.6 61.2 43.45 58.8 44.9 56.6 50.8 48.4 57.05 50.35 57.6 66.85 60.25 83.35 L56.5 84.4 49.05 85.45 47.45 85.75 M30.75 88.7 L30.4 89.9 30.75 88.7 M63.45 99.8 Q65.45 108.7 68.05 117.6 L68.45 118.95 68.5 119.1 68.7 119.6 69.2 120.95 69.55 121.8 Q64.9 122.7 59.9 121.7 53.45 120.45 49.65 116.9 45.8 113.35 44.35 108.75 43.65 106.55 43.45 104.2 46.3 102.75 50.55 101.7 56.65 100.2 63.45 99.8 M75.1 138.6 Q76.7 145.4 77.8 153.45 L77.9 154.25 Q80.25 255.95 71.0 311.25 L42.65 311.25 44.25 255.85 Q46.3 239.75 50.3 217.5 53.3 200.6 53.3 196.55 L55.1 196.55 Q55.55 197.2 55.9 198.8 L55.95 198.9 Q55.35 195.8 56.75 191.35 59.3 183.1 60.75 178.95 61.35 178.95 61.9 179.5 61.9 180.7 62.55 182.4 64.2 178.85 64.2 171.0 64.2 163.9 59.65 147.95 L59.25 148.15 58.75 145.95 Q59.6 141.25 61.65 138.9 64.15 136.0 69.15 136.0 69.95 136.0 72.6 137.5 73.8 138.2 75.1 138.6 M40.2 134.3 L40.95 131.45 Q41.8 129.35 41.8 127.9 L39.85 122.1 39.45 119.05 39.45 118.9 40.0 116.6 Q40.9 119.25 42.65 121.6 42.3 125.0 42.45 131.15 42.55 135.45 40.65 138.3 L40.2 134.3 M39.45 129.45 L39.45 135.6 Q39.25 150.85 37.45 144.45 L37.1 142.7 37.2 140.95 37.0 138.75 Q37.0 137.3 37.7 135.55 L38.35 133.15 37.8 131.7 Q37.5 130.8 37.5 129.85 L38.2 126.7 39.35 129.45 39.45 129.45 M29.4 156.2 L33.65 150.95 Q34.5 149.75 34.5 146.75 34.5 144.45 33.85 140.55 33.2 136.65 33.2 132.45 L33.2 128.1 Q33.4 126.25 34.3 124.75 L34.3 127.8 Q34.65 128.85 34.8 130.4 L34.85 130.45 34.85 136.2 Q35.9 141.45 36.35 154.2 36.8 166.95 35.35 168.85 33.9 170.7 33.85 172.95 33.85 175.25 33.2 176.35 31.7 178.8 31.1 181.35 28.95 167.95 29.4 156.8 L29.4 156.2 M7.75 129.25 Q7.9 128.8 11.7 125.3 13.4 123.75 16.55 122.2 L14.15 126.2 Q10.3 127.95 7.75 129.25 M4.55 154.85 L3.35 151.7 Q2.2 148.6 2.2 146.3 2.2 142.95 2.85 140.75 L5.05 134.65 Q5.35 133.75 8.15 132.25 L11.65 130.45 7.55 137.4 4.8 142.0 4.85 142.1 Q4.25 148.75 4.55 154.85 M33.65 194.25 L33.95 194.35 33.9 195.3 33.6 195.3 33.65 194.25 M105.65 138.15 L106.6 139.75 111.0 147.45 Q114.7 152.8 120.1 159.4 121.25 160.8 126.0 164.25 130.3 167.35 130.8 168.45 131.9 170.8 132.6 179.1 133.3 187.7 135.35 192.75 137.95 199.2 143.4 207.55 148.35 215.15 149.75 219.55 L156.35 219.55 Q157.2 218.75 158.15 218.15 159.9 222.1 160.05 223.25 L162.3 231.5 Q164.05 237.75 163.75 240.95 163.65 242.25 166.1 262.7 168.7 284.0 168.7 290.4 L167.45 301.1 167.45 311.25 107.4 311.25 Q96.1 267.55 97.9 219.8 99.7 172.05 100.5 160.75 101.2 151.0 105.65 138.15" fill="#cc0000" fill-rule="evenodd" stroke="none"/>
    <path d="M150.35 212.35 Q151.75 211.75 153.9 210.45 L154.55 210.1 156.8 215.2 158.15 218.15 Q157.2 218.75 156.35 219.55 L149.75 219.55 Q148.35 215.15 143.4 207.55 137.95 199.2 135.35 192.75 133.3 187.7 132.6 179.1 131.9 170.8 130.8 168.45 130.3 167.35 126.0 164.25 121.25 160.8 120.1 159.4 114.7 152.8 111.0 147.45 L106.6 139.75 105.65 138.15 107.15 133.95 Q115.05 144.85 121.6 151.2 L121.8 151.4 Q130.3 156.7 137.9 160.1 137.95 172.75 142.35 181.5 144.55 203.1 150.1 212.45 L150.15 212.4 150.35 212.35 M119.45 116.5 Q140.8 124.45 148.5 106.85 147.8 109.0 147.8 110.4 L147.85 110.8 149.8 108.85 149.95 108.75 Q151.8 107.05 154.8 106.05 L159.0 104.7 Q165.05 103.9 170.6 99.75 168.45 104.2 157.05 109.15 150.1 112.3 148.4 113.95 L148.5 113.35 148.2 112.55 147.85 110.8 148.2 112.55 148.5 113.35 148.4 113.95 148.3 114.5 147.0 118.8 Q146.3 120.95 146.3 122.25 149.1 121.75 153.8 118.9 L161.75 114.2 159.9 116.85 Q157.2 120.7 154.6 121.75 L147.15 124.7 Q147.05 125.75 144.9 127.7 141.9 130.35 142.95 131.95 L143.0 132.0 140.85 133.4 Q137.5 129.65 133.35 126.2 L128.1 122.1 127.4 121.6 119.45 116.5 M151.2 94.95 Q149.8 87.8 143.75 80.65 L149.55 84.0 Q150.4 82.95 150.5 80.5 L150.2 75.85 150.2 75.7 Q150.25 76.95 153.0 82.3 153.25 81.25 156.75 79.6 160.75 77.65 162.2 75.85 L162.6 75.65 Q163.1 77.85 157.45 82.95 152.9 87.0 151.75 88.7 L151.7 89.55 151.2 94.95 M170.9 141.15 L162.05 134.85 159.25 132.75 Q156.15 130.7 153.35 130.65 152.45 130.3 151.65 130.3 L146.35 131.4 144.85 131.7 146.35 131.4 153.2 130.65 153.35 130.65 Q155.25 131.4 157.8 133.65 L163.15 138.9 Q166.35 141.8 170.55 149.2 174.9 156.65 175.35 160.75 L175.2 160.75 Q167.45 148.2 163.3 142.9 L158.85 136.65 Q155.65 132.05 144.85 131.85 L144.85 131.7 144.35 131.8 143.7 131.8 143.3 131.8 Q145.15 127.9 153.0 127.9 163.1 127.9 170.9 141.15 M48.75 91.05 L50.55 92.65 59.5 93.9 62.2 94.05 63.45 99.8 Q56.65 100.2 50.55 101.7 46.3 102.75 43.45 104.2 43.65 106.55 44.35 108.75 45.8 113.35 49.65 116.9 53.45 120.45 59.9 121.7 64.9 122.7 69.55 121.8 L71.45 126.4 71.7 127.05 Q73.65 132.3 75.1 138.6 73.8 138.2 72.6 137.5 69.95 136.0 69.15 136.0 64.15 136.0 61.65 138.9 59.6 141.25 58.75 145.95 56.85 138.15 53.8 128.85 48.5 127.45 45.2 124.4 L44.2 123.45 42.65 121.6 Q40.9 119.25 40.0 116.6 L39.45 118.9 39.45 119.05 39.85 122.1 41.8 127.9 Q41.8 129.35 40.95 131.45 L40.2 134.3 39.45 129.45 39.35 129.45 38.2 126.7 37.5 129.85 Q37.5 130.8 37.8 131.7 L38.35 133.15 37.7 135.55 Q37.0 137.3 37.0 138.75 L37.2 140.95 37.1 142.7 35.1 131.85 34.85 130.45 34.8 130.4 Q34.65 128.85 34.3 127.8 L34.3 124.75 Q33.4 126.25 33.2 128.1 L33.2 132.45 Q33.2 136.65 33.85 140.55 34.5 144.45 34.5 146.75 34.5 149.75 33.65 150.95 L29.4 156.2 Q29.65 150.2 30.7 144.85 L30.9 144.2 Q31.0 140.8 31.55 136.4 32.1 131.8 33.15 126.05 34.55 118.45 36.75 108.95 L37.2 107.25 37.6 106.0 38.2 104.35 Q39.8 100.15 42.35 95.75 40.4 89.4 37.85 87.55 L37.95 87.45 46.5 90.3 46.65 90.35 48.75 91.05 M152.4 83.85 L152.05 84.35 152.0 85.45 151.75 88.7 152.0 85.45 152.05 84.35 152.4 83.85 M43.05 94.6 L42.35 95.75 43.05 94.6 M63.45 129.15 Q58.85 129.85 55.45 129.2 L55.15 129.15 53.8 128.85 55.15 129.15 55.45 129.2 Q58.85 129.85 63.45 129.15 M44.85 94.25 Q40.7 99.25 39.0 107.35 L39.0 107.45 Q38.6 111.85 39.75 115.75 L39.9 116.25 40.0 116.6 39.9 116.25 39.75 115.75 Q38.6 111.85 39.0 107.45 L39.0 107.35 Q40.7 99.25 44.85 94.25 M142.05 134.8 L151.55 134.35 Q158.15 134.9 158.8 147.4 159.4 159.95 159.0 163.45 158.65 166.55 158.4 166.6 L158.35 166.55 157.4 159.7 157.35 159.55 157.35 159.65 156.6 155.15 156.55 154.85 Q154.7 144.25 154.7 142.6 153.7 139.65 152.15 137.8 L150.65 136.35 Q148.4 134.6 145.35 134.6 L142.2 134.95 142.05 134.8 M146.3 122.25 Q146.25 123.5 146.85 124.0 L147.15 124.7 146.85 124.0 Q146.25 123.5 146.3 122.25" fill="#990000" fill-rule="evenodd" stroke="none"/>
    <path d="M117.7 0.0 L117.7 8.55 118.05 12.1 118.55 17.35 Q118.95 21.95 120.25 25.0 L121.85 28.4 122.1 28.9 122.85 30.15 124.2 32.0 124.7 32.55 128.75 36.4 130.05 37.5 130.1 37.8 Q131.45 48.35 124.05 55.1 118.0 60.55 110.9 61.9 L108.85 62.15 106.5 62.25 102.1 62.05 Q105.7 61.75 108.85 60.7 111.7 59.8 114.25 58.3 117.55 56.3 120.25 52.95 123.65 48.6 123.65 44.5 L123.65 43.9 Q121.25 46.85 117.3 49.7 113.2 52.7 109.55 53.8 L113.8 46.7 Q118.1 38.95 118.1 36.7 L118.05 34.8 Q107.15 46.9 100.45 50.85 L105.0 41.75 108.25 34.9 110.55 28.9 110.85 28.05 109.85 28.9 108.65 29.85 Q105.9 31.85 103.75 32.5 L106.05 28.9 Q109.15 23.6 109.45 19.85 L106.8 22.65 102.7 25.85 99.05 28.15 97.55 28.9 Q95.35 29.9 93.85 29.9 L88.05 29.65 87.9 29.0 88.25 27.0 88.35 25.6 88.35 25.55 Q88.55 22.6 88.15 19.1 L88.05 17.8 89.6 17.95 90.15 17.9 Q91.25 17.6 92.95 16.3 L95.1 14.4 98.75 12.1 102.05 10.2 110.15 4.5 111.15 3.8 Q114.65 1.45 117.7 0.0 M130.4 57.6 L127.15 62.6 Q121.0 72.25 116.15 81.85 L112.8 82.25 114.9 78.4 Q118.75 73.75 119.35 70.2 119.55 69.0 121.25 66.55 L122.65 64.75 120.55 65.5 Q115.1 67.35 112.4 67.35 L110.7 67.35 Q109.35 69.75 109.35 69.9 109.35 70.7 109.9 72.2 L109.05 74.25 Q108.15 76.05 108.15 77.4 L108.2 78.05 108.3 79.4 108.3 79.45 108.5 80.7 108.5 81.45 108.1 83.05 99.6 84.9 98.25 85.2 Q92.25 86.55 91.75 86.8 L90.3 87.55 91.2 85.8 Q91.2 85.5 89.3 83.95 L85.85 81.55 85.15 79.15 84.35 77.05 84.2 76.7 82.9 73.95 82.55 73.25 81.7 71.75 Q82.3 69.65 83.9 68.75 L82.6 63.9 Q81.9 61.65 77.65 59.15 76.5 58.5 73.2 53.6 71.4 50.9 71.15 49.9 L71.05 46.45 Q71.05 44.65 71.7 43.05 L72.0 42.05 75.25 41.1 Q74.95 43.15 74.95 45.85 74.95 51.2 79.8 55.6 L82.2 57.5 85.15 60.75 86.8 63.55 86.75 59.85 88.9 60.4 Q89.55 60.5 93.25 62.05 96.25 63.3 99.55 63.25 L110.55 63.6 110.7 63.65 110.7 63.6 Q116.2 63.55 121.05 61.7 124.05 60.5 130.4 57.2 L130.4 57.6 M86.8 63.55 L86.85 66.5 Q87.25 68.75 89.95 68.75 90.6 68.75 93.35 70.0 L97.6 70.0 105.0 70.55 Q107.65 70.55 109.35 67.35 L102.0 66.85 90.15 65.1 89.4 65.0 88.4 65.0 87.15 64.2 86.8 63.55 M77.1 74.55 L77.5 75.3 77.35 76.9 77.35 77.05 Q77.0 79.35 75.75 81.0 L75.0 81.9 73.85 82.85 73.6 83.05 65.5 87.9 65.2 87.85 Q63.4 87.8 61.15 88.55 59.95 88.9 58.65 89.55 54.5 88.8 52.85 89.65 L49.9 87.4 49.75 87.25 47.45 85.75 49.05 85.45 56.5 84.4 60.25 83.35 65.2 81.75 68.9 80.3 70.2 79.7 72.1 78.75 72.9 78.3 75.35 76.55 75.5 76.35 77.1 74.55 M138.85 160.5 Q151.1 159.55 133.35 126.2 137.5 129.65 140.85 133.4 L142.05 134.8 142.2 134.95 143.35 136.4 143.6 136.7 144.25 137.25 Q147.75 140.9 149.25 161.5 L149.1 162.15 147.1 163.6 141.1 161.45 138.85 160.5 M62.0 84.05 L60.4 84.25 Q57.5 84.75 56.0 86.1 52.2 85.05 49.05 85.45 52.2 85.05 56.0 86.1 57.5 84.75 60.4 84.25 L62.0 84.05 M63.1 85.7 L60.65 85.8 Q58.9 86.15 56.8 87.35 52.5 86.45 49.9 87.4 52.5 86.45 56.8 87.35 58.9 86.15 60.65 85.8 L63.1 85.7 M33.15 126.05 Q32.1 131.8 31.55 136.4 31.0 140.8 30.9 144.2 L30.7 144.85 Q26.4 157.5 15.0 163.5 7.4 163.55 4.85 142.1 L4.8 142.0 7.55 137.4 Q8.0 139.5 9.85 153.55 L9.8 151.4 Q13.3 154.05 15.75 154.05 16.5 154.05 17.9 152.0 19.4 149.9 19.4 148.4 19.4 147.8 22.3 143.65 25.2 139.5 25.2 137.95 25.2 135.95 29.9 130.1 L33.15 126.05" fill="#ffceb7" fill-rule="evenodd" stroke="none"/>
    <path d="M116.6 114.75 L118.15 115.75 119.45 116.5 127.4 121.6 128.1 122.1 133.35 126.2 Q151.1 159.55 138.85 160.5 L137.9 160.1 Q130.3 156.7 121.8 151.4 L121.6 151.2 Q115.05 144.85 107.15 133.95 L102.15 126.1 99.8 122.25 Q90.6 107.7 77.1 96.15 L76.65 95.75 72.9 95.05 69.7 94.4 62.2 94.05 59.5 93.9 50.55 92.65 48.75 91.05 46.05 88.6 43.35 86.3 Q41.6 84.95 40.9 84.65 41.6 84.95 43.35 86.3 L46.05 88.6 48.75 91.05 46.65 90.35 46.5 90.3 37.95 87.45 38.65 86.85 35.3 85.6 Q36.9 84.0 40.6 84.6 L40.65 84.6 40.9 84.65 40.65 84.55 Q42.6 83.15 46.6 85.25 L47.45 85.75 49.75 87.25 49.9 87.4 52.85 89.65 Q54.5 88.8 58.65 89.55 59.95 88.9 61.15 88.55 63.4 87.8 65.2 87.85 L65.5 87.9 73.6 83.05 73.85 82.85 75.0 81.9 75.75 81.0 Q77.0 79.35 77.35 77.05 L77.35 76.9 77.5 75.3 77.1 74.55 75.55 71.5 77.1 74.55 75.5 76.35 75.35 76.55 72.9 78.3 72.1 78.75 70.2 79.7 Q67.5 61.9 67.35 44.15 L67.35 43.9 68.1 43.5 72.0 42.05 71.7 43.05 Q71.05 44.65 71.05 46.45 L71.15 49.9 Q71.4 50.9 73.2 53.6 76.5 58.5 77.65 59.15 81.9 61.65 82.6 63.9 L83.9 68.75 Q82.3 69.65 81.7 71.75 L82.55 73.25 82.9 73.95 84.2 76.7 84.35 77.05 85.15 79.15 85.85 81.55 89.3 83.95 Q91.2 85.5 91.2 85.8 L90.3 87.55 Q88.75 88.25 87.65 88.45 L88.75 89.8 90.25 91.5 94.2 95.55 95.2 96.55 99.05 100.2 105.85 106.2 Q110.55 111.1 116.6 114.75 M88.05 29.65 L93.85 29.9 Q95.35 29.9 97.55 28.9 L99.05 28.15 102.7 25.85 106.8 22.65 109.45 19.85 Q109.15 23.6 106.05 28.9 L103.75 32.5 Q105.9 31.85 108.65 29.85 L109.85 28.9 110.85 28.05 110.55 28.9 108.25 34.9 105.0 41.75 100.45 50.85 Q107.15 46.9 118.05 34.8 L118.1 36.7 Q118.1 38.95 113.8 46.7 L109.55 53.8 Q113.2 52.7 117.3 49.7 121.25 46.85 123.65 43.9 L123.65 44.5 Q123.65 48.6 120.25 52.95 117.55 56.3 114.25 58.3 111.7 59.8 108.85 60.7 105.7 61.75 102.1 62.05 L106.5 62.25 108.85 62.15 110.9 61.9 Q118.0 60.55 124.05 55.1 131.45 48.35 130.1 37.8 L141.35 41.85 141.4 41.85 141.5 41.9 141.6 41.9 141.55 42.0 Q135.55 49.8 130.4 57.6 L130.4 57.2 Q124.05 60.5 121.05 61.7 116.2 63.55 110.7 63.6 L110.7 63.65 110.55 63.6 99.55 63.25 Q96.25 63.3 93.25 62.05 89.55 60.5 88.9 60.4 L86.75 59.85 86.8 63.55 85.15 60.75 82.2 57.5 79.8 55.6 Q74.95 51.2 74.95 45.85 74.95 43.15 75.25 41.1 L79.3 40.05 79.3 40.1 79.4 40.0 81.05 38.95 Q84.65 36.3 86.3 33.4 L86.95 32.1 87.65 30.0 Q87.75 29.6 88.05 29.65 M108.1 83.05 L108.5 81.45 108.5 80.7 108.3 79.45 108.3 79.4 108.2 78.05 108.15 77.4 Q108.15 76.05 109.05 74.25 L109.9 72.2 Q109.35 70.7 109.35 69.9 109.35 69.75 110.7 67.35 L112.4 67.35 Q115.1 67.35 120.55 65.5 L122.65 64.75 121.25 66.55 Q119.55 69.0 119.35 70.2 118.75 73.75 114.9 78.4 L112.8 82.25 108.1 83.05 M86.8 63.55 L87.15 64.2 88.4 65.0 89.4 65.0 90.15 65.1 102.0 66.85 109.35 67.35 Q107.65 70.55 105.0 70.55 L97.6 70.0 93.35 70.0 Q90.6 68.75 89.95 68.75 87.25 68.75 86.85 66.5 L86.8 63.55 M75.55 71.5 L72.1 70.05 Q68.1 68.3 69.1 62.55 70.65 64.15 72.1 65.0 73.55 65.9 74.9 66.05 L76.3 66.2 77.35 66.45 Q78.1 66.65 78.55 67.0 79.45 67.65 80.65 69.8 L81.7 71.75 80.65 69.8 Q79.45 67.65 78.55 67.0 78.1 66.65 77.35 66.45 L76.3 66.2 74.9 66.05 Q73.55 65.9 72.1 65.0 70.65 64.15 69.1 62.55 68.1 68.3 72.1 70.05 L75.55 71.5 M85.85 81.55 L85.9 81.9 86.75 86.4 Q86.85 87.15 87.45 88.15 L87.65 88.45 87.45 88.15 Q86.85 87.15 86.75 86.4 L85.9 81.9 85.85 81.55 M19.8 116.7 L20.5 115.5 Q25.7 105.4 30.4 89.9 34.6 85.25 37.8 87.55 L37.85 87.55 Q40.4 89.4 42.35 95.75 39.8 100.15 38.2 104.35 L37.6 106.0 37.2 107.25 36.75 108.95 Q34.55 118.45 33.15 126.05 L29.9 130.1 Q25.2 135.95 25.2 137.95 25.2 139.5 22.3 143.65 19.4 147.8 19.4 148.4 19.4 149.9 17.9 152.0 16.5 154.05 15.75 154.05 13.3 154.05 9.8 151.4 L9.85 153.55 Q8.0 139.5 7.55 137.4 L11.65 130.45 14.15 126.2 16.55 122.2 19.8 116.7 M38.65 86.85 Q41.1 85.1 43.35 86.3 41.1 85.1 38.65 86.85" fill="#ffe2d5" fill-rule="evenodd" stroke="none"/>
    <path d="M153.25 45.45 L152.4 46.65 152.25 46.85 Q127.5 80.5 116.6 114.75 110.55 111.1 105.85 106.2 108.15 99.45 111.1 92.65 113.4 87.25 116.15 81.85 121.0 72.25 127.15 62.6 L130.4 57.6 Q135.55 49.8 141.55 42.0 L141.65 41.9 Q147.7 42.95 153.35 45.2 L153.25 45.45 M57.05 49.4 Q57.6 46.35 67.35 44.15 67.5 61.9 70.2 79.7 L68.9 80.3 65.2 81.75 60.25 83.35 Q57.6 66.85 57.05 50.35 L57.05 49.4 M74.05 100.3 Q75.95 108.65 78.4 117.0 L78.45 117.2 78.85 118.55 79.05 119.2 79.2 119.7 80.35 122.05 Q88.75 139.85 89.7 166.1 L89.8 168.7 Q89.45 206.45 88.15 246.55 L87.75 256.5 88.15 246.55 Q89.45 206.45 89.8 168.7 L89.8 166.1 Q91.0 150.8 98.0 128.05 L98.4 128.5 Q102.95 133.9 105.65 138.15 101.2 151.0 100.5 160.75 99.7 172.05 97.9 219.8 96.1 267.55 107.4 311.25 L95.4 311.25 95.4 311.2 Q87.8 279.6 87.75 256.5 86.6 285.3 84.4 311.2 L84.4 311.25 71.0 311.25 Q80.25 255.95 77.9 154.25 L77.8 153.45 Q76.7 145.4 75.1 138.6 73.65 132.3 71.7 127.05 L71.45 126.4 69.55 121.8 69.2 120.95 68.7 119.6 68.5 119.1 68.45 118.95 68.05 117.6 Q65.45 108.7 63.45 99.8 L68.5 99.65 74.0 100.1 74.05 100.3" fill="#336600" fill-rule="evenodd" stroke="none"/>
    <path d="M116.15 81.85 Q113.4 87.25 111.1 92.65 108.15 99.45 105.85 106.2 L99.05 100.2 Q98.35 98.0 98.25 94.3 L98.0 94.35 97.95 88.85 Q97.95 86.95 98.25 85.2 L99.6 84.9 108.1 83.05 112.8 82.25 116.15 81.85 M74.05 100.3 Q74.9 100.4 76.2 101.1 77.7 101.95 79.0 102.25 L79.0 115.45 78.4 117.0 Q75.95 108.65 74.05 100.3 M80.35 122.05 L82.7 120.55 81.55 122.95 Q83.25 122.95 85.0 123.85 L91.9 123.85 91.9 122.35 Q93.6 122.95 95.65 124.75 97.3 126.2 98.1 127.6 L98.0 128.05 Q91.0 150.8 89.8 166.1 L89.7 166.1 Q88.75 139.85 80.35 122.05 M84.4 311.2 Q86.6 285.3 87.75 256.5 87.8 279.6 95.4 311.2 L84.4 311.2" fill="#ff6600" fill-rule="evenodd" stroke="none"/>
    <path d="M90.3 87.55 L91.75 86.8 Q92.25 86.55 98.25 85.2 97.95 86.95 97.95 88.85 L98.0 94.35 98.25 94.3 Q98.35 98.0 99.05 100.2 L95.2 96.55 94.2 95.55 90.25 91.5 88.75 89.8 87.65 88.45 Q88.75 88.25 90.3 87.55 M72.9 95.05 L76.65 95.75 77.1 96.15 Q90.6 107.7 99.8 122.25 L98.1 127.6 Q97.3 126.2 95.65 124.75 93.6 122.95 91.9 122.35 L91.9 123.85 85.0 123.85 Q83.25 122.95 81.55 122.95 L82.7 120.55 80.35 122.05 79.2 119.7 79.05 119.2 78.85 118.55 78.45 117.2 78.4 117.0 79.0 115.45 79.0 102.25 Q77.7 101.95 76.2 101.1 74.9 100.4 74.05 100.3 L74.0 100.1 72.9 95.05" fill="#e35b02" fill-rule="evenodd" stroke="none"/>
    <path d="M62.2 94.05 L69.7 94.4 72.9 95.05 74.0 100.1 68.5 99.65 63.45 99.8 62.2 94.05 M99.8 122.25 L102.15 126.1 107.15 133.95 105.65 138.15 Q102.95 133.9 98.4 128.5 L98.0 128.05 98.1 127.6 99.8 122.25" fill="#2b5401" fill-rule="evenodd" stroke="none"/>
    <path d="M150.6 207.6 L150.35 212.35 150.15 212.4 150.1 212.45 Q144.55 203.1 142.35 181.5 141.45 172.5 141.1 161.45 L147.1 163.6 149.1 162.15 Q151.45 187.6 150.6 207.6 M30.7 144.85 Q29.65 150.2 29.4 156.2 L29.4 156.8 Q28.95 167.95 31.1 181.35 32.05 187.55 33.65 194.25 L33.6 195.3 Q33.05 207.8 17.95 190.85 7.8 179.5 5.3 162.5 4.75 158.8 4.55 154.85 4.25 148.75 4.85 142.1 7.4 163.55 15.0 163.5 26.4 157.5 30.7 144.85" fill="#8f0101" fill-rule="evenodd" stroke="none"/>
    <path d="M89.7 166.1 L89.8 166.1 89.7 166.1" fill="#ffcc00" fill-rule="evenodd" stroke="none"/>
    <path d="M150.6 207.6 L150.35 212.35 Q151.75 211.75 153.9 210.45 L154.55 210.1 Q155.9 209.4 157.7 208.95 L159.5 208.55 Q162.95 207.9 168.0 204.8 168.5 202.9 173.95 189.75 178.1 179.75 178.1 173.95 182.3 173.45 183.65 172.0 184.95 170.6 184.95 166.75 184.95 162.6 182.95 157.5 180.95 152.15 180.8 147.9 180.8 145.8 179.3 140.55 177.9 135.5 178.1 129.35 L178.55 106.0 Q178.4 91.9 178.65 89.45 178.3 85.3 178.3 81.95 178.15 61.6 162.6 50.15 M153.25 45.45 L152.4 46.65 M152.25 46.85 Q127.5 80.5 116.6 114.75 L118.15 115.75 119.45 116.5 M148.5 106.85 L149.4 104.25 150.1 102.3 Q150.95 99.55 150.95 97.45 L151.2 94.95 M151.7 89.55 L151.2 94.95 M141.35 41.85 L130.1 37.8 M141.65 41.9 L141.55 42.0 Q135.55 49.8 130.4 57.6 L127.15 62.6 Q121.0 72.25 116.15 81.85 113.4 87.25 111.1 92.65 108.15 99.45 105.85 106.2 110.55 111.1 116.6 114.75 M78.6 37.5 L77.75 37.95 M73.3 39.7 L67.3 41.6 56.95 45.65 57.05 49.4 M75.55 71.5 L77.1 74.55 77.5 75.3 M77.1 96.15 Q90.6 107.7 99.8 122.25 L102.15 126.1 107.15 133.95 Q115.05 144.85 121.6 151.2 L121.8 151.4 Q130.3 156.7 137.9 160.1 L138.85 160.5 M133.35 126.2 L128.1 122.1 127.4 121.6 119.45 116.5 M90.25 91.5 L94.2 95.55 95.2 96.55 99.05 100.2 105.85 106.2 M151.75 88.7 L152.0 85.45 152.05 84.35 152.4 83.85 M56.95 45.65 L51.95 47.6 M20.5 115.5 Q25.7 105.4 30.4 89.9 L30.75 88.7 M60.25 83.35 Q57.6 66.85 57.05 50.35 M79.2 119.7 L80.35 122.05 M98.1 127.6 L99.8 122.25 M63.45 99.8 Q65.45 108.7 68.05 117.6 L68.45 118.95 68.5 119.1 68.7 119.6 69.2 120.95 69.55 121.8 71.45 126.4 71.7 127.05 Q73.65 132.3 75.1 138.6 76.7 145.4 77.8 153.45 L77.9 154.25 Q80.25 255.95 71.0 311.25 M84.4 311.25 L84.4 311.2 Q86.6 285.3 87.75 256.5 L88.15 246.55 Q89.45 206.45 89.8 168.7 L89.7 166.1 Q88.75 139.85 80.35 122.05 M42.65 121.6 L44.2 123.45 45.2 124.4 Q48.5 127.45 53.8 128.85 L55.15 129.15 55.45 129.2 Q58.85 129.85 63.45 129.15 M40.0 116.6 L39.9 116.25 39.75 115.75 Q38.6 111.85 39.0 107.45 L39.0 107.35 Q40.7 99.25 44.85 94.25 M40.85 143.45 L40.65 138.3 40.2 134.3 39.45 129.45 M37.45 144.45 L38.7 150.8 39.05 153.55 M39.3 153.6 Q40.75 149.4 40.85 143.45 45.85 137.05 44.2 123.45 M58.75 145.95 L59.25 148.15 Q63.7 168.1 59.5 177.1 53.5 189.9 46.9 216.5 40.35 242.65 39.75 311.25 M42.65 121.6 Q40.9 119.25 40.0 116.6 M58.75 145.95 Q56.85 138.15 53.8 128.85 M34.85 130.45 L35.1 131.85 37.1 142.7 M37.45 144.45 L37.1 142.7 M33.95 194.35 Q34.35 187.1 36.6 175.7 L39.3 162.45 39.05 153.55 M33.95 194.35 L33.9 195.3 33.9 195.4 33.85 197.5 M147.85 110.8 L148.2 112.55 148.5 113.35 148.4 113.95 M148.3 114.5 L147.0 118.8 Q146.3 120.95 146.3 122.25 M147.15 124.7 Q147.05 125.75 144.9 127.7 141.9 130.35 142.95 131.95 M143.0 132.0 L140.85 133.4 142.05 134.8 142.2 134.95 143.35 136.4 143.6 136.7 144.25 137.25 Q147.75 140.9 149.25 161.5 L149.35 161.9 149.1 162.15 Q151.45 187.6 150.6 207.6 M158.4 166.6 L158.35 166.55 157.4 159.7 157.35 159.65 156.6 155.15 156.55 154.85 Q154.7 144.25 154.7 142.6 153.7 139.65 152.15 137.8 L150.65 136.35 Q148.4 134.6 145.35 134.6 L142.2 134.95 M147.85 110.8 L147.8 110.4 Q147.8 109.0 148.5 106.85 M133.35 126.2 Q137.5 129.65 140.85 133.4 M147.15 124.7 L146.85 124.0 Q146.25 123.5 146.3 122.25 M143.0 132.0 L142.95 131.95 M98.1 127.6 L98.0 128.05 M105.65 138.15 L107.15 133.95 M89.8 166.1 L89.8 168.7 M141.1 161.45 L147.1 163.6 149.1 162.15 149.25 161.5 M141.1 161.45 L138.85 160.5 M137.9 160.1 Q137.95 172.75 142.35 181.5 141.45 172.5 141.1 161.45 M105.65 138.15 Q101.2 151.0 100.5 160.75 99.7 172.05 97.9 219.8 96.1 267.55 107.4 311.25 M89.8 166.1 Q91.0 150.8 98.0 128.05 M62.2 94.05 L63.45 99.8 M142.35 181.5 Q144.55 203.1 150.1 212.45 L150.15 212.4 150.35 212.35 M172.55 311.25 Q171.65 250.95 160.6 216.9 L157.7 208.95 M95.4 311.2 Q87.8 279.6 87.75 256.5 M95.4 311.2 L95.4 311.25" fill="none" stroke="#000000" stroke-linecap="round" stroke-linejoin="round" stroke-width="1.0"/>
    <path d="M162.6 49.85 Q158.15 47.1 153.4 45.2 M153.35 130.65 Q156.15 130.7 159.25 132.75 L162.05 134.85 170.9 141.15 M143.3 131.8 L143.7 131.8 144.35 131.8 144.85 131.7 146.35 131.4 153.2 130.65 153.35 130.65 M175.2 160.75 Q167.45 148.2 163.3 142.9 L158.85 136.65 Q155.65 132.05 144.85 131.85 L144.35 131.8 M130.05 37.5 L128.75 36.4 124.7 32.55 124.2 32.0 122.85 30.15 122.1 28.9 121.85 28.4 120.25 25.0 Q118.95 21.95 118.55 17.35 L118.05 12.1 117.7 8.55 117.7 0.0 M141.6 41.9 L141.5 41.9 141.4 41.85 141.35 41.85 M141.6 41.9 L141.65 41.9 Q147.7 42.95 153.35 45.2 L153.4 45.2 M88.15 19.1 Q88.4 23.5 88.05 25.5 L88.05 25.55 87.25 29.1 86.3 31.35 84.5 33.2 81.25 35.55 Q79.65 36.45 78.8 37.25 L78.6 37.5 M67.3 41.6 L67.35 43.9 M112.8 82.25 L116.15 81.85 M81.7 71.75 L82.55 73.25 82.9 73.95 84.2 76.7 84.35 77.05 85.15 79.15 85.85 81.55 M90.3 87.55 L91.75 86.8 Q92.25 86.55 98.25 85.2 L99.6 84.9 108.1 83.05 112.8 82.25 M81.7 71.75 L80.65 69.8 Q79.45 67.65 78.55 67.0 78.1 66.65 77.35 66.45 L76.3 66.2 74.9 66.05 Q73.55 65.9 72.1 65.0 70.65 64.15 69.1 62.55 68.1 68.3 72.1 70.05 L75.55 71.5 M77.5 75.3 L77.35 76.9 77.35 77.05 Q77.0 79.35 75.75 81.0 L75.0 81.9 73.85 82.85 73.6 83.05 65.5 87.9 65.2 87.85 Q63.4 87.8 61.15 88.55 59.95 88.9 58.65 89.55 54.5 88.8 52.85 89.65 L49.9 87.4 49.75 87.25 47.45 85.75 46.6 85.25 Q42.6 83.15 40.65 84.55 L40.9 84.65 Q41.6 84.95 43.35 86.3 L46.05 88.6 48.75 91.05 50.55 92.65 59.5 93.9 62.2 94.05 69.7 94.4 72.9 95.05 76.65 95.75 77.1 96.15 M87.65 88.45 L87.45 88.15 Q86.85 87.15 86.75 86.4 L85.9 81.9 85.85 81.55 M90.3 87.55 Q88.75 88.25 87.65 88.45 L88.75 89.8 90.25 91.5 M67.35 44.15 L67.35 43.9 M51.95 47.6 L50.25 48.25 Q44.2 52.7 37.3 60.55 30.35 68.4 29.75 72.05 L29.75 73.7 29.75 82.2 M14.15 120.2 L19.8 116.7 20.5 115.5 M37.95 87.45 L38.65 86.85 35.3 85.6 Q36.9 84.0 40.6 84.6 L40.65 84.6 40.9 84.65 M42.35 95.75 L43.05 94.6 M29.75 73.7 L24.95 81.5 Q25.6 86.1 22.5 92.85 19.35 99.55 18.35 102.35 17.3 105.15 17.5 106.65 19.1 108.8 16.0 111.15 12.85 113.5 12.6 116.6 12.35 119.05 11.7 121.9 L12.3 121.4 14.15 120.2 M60.25 83.35 L56.5 84.4 49.05 85.45 Q52.2 85.05 56.0 86.1 57.5 84.75 60.4 84.25 L62.0 84.05 M47.45 85.75 L49.05 85.45 M46.65 90.35 L48.75 91.05 M49.9 87.4 Q52.5 86.45 56.8 87.35 58.9 86.15 60.65 85.8 L63.1 85.7 M77.1 74.55 L75.5 76.35 75.35 76.55 72.9 78.3 72.1 78.75 70.2 79.7 68.9 80.3 65.2 81.75 60.25 83.35 M70.2 79.7 Q67.5 61.9 67.35 44.15 M43.35 86.3 Q41.1 85.1 38.65 86.85 M37.95 87.45 L46.5 90.3 M74.05 100.3 Q75.95 108.65 78.4 117.0 L78.45 117.2 78.85 118.55 79.05 119.2 79.2 119.7 M74.0 100.1 L74.05 100.3 M42.35 95.75 Q39.8 100.15 38.2 104.35 L37.6 106.0 37.2 107.25 36.75 108.95 Q34.55 118.45 33.15 126.05 32.1 131.8 31.55 136.4 31.0 140.8 30.9 144.2 L30.7 144.85 Q29.65 150.2 29.4 156.2 M11.7 121.9 L10.6 122.95 7.7 126.45 Q4.6 130.45 4.65 130.9 L7.75 129.25 M16.55 122.2 L19.8 116.7 M11.65 130.45 L14.15 126.2 Q10.3 127.95 7.75 129.25 M11.65 130.45 L7.55 137.4 M4.65 130.9 Q2.5 132.15 2.5 132.7 L0.0 147.4 Q0.0 150.35 5.3 162.5 4.75 158.8 4.55 154.85 4.25 148.75 4.85 142.1 L4.8 142.0 7.55 137.4 M14.15 126.2 L16.55 122.2 M29.4 156.8 Q28.95 167.95 31.1 181.35 32.05 187.55 33.65 194.25 M33.6 195.3 Q33.05 207.8 17.95 190.85 7.8 179.5 5.3 162.5 M33.6 195.3 L33.65 194.25 M30.7 144.85 Q26.4 157.5 15.0 163.5 7.4 163.55 4.85 142.1 M72.9 95.05 L74.0 100.1" fill="none" stroke="#000000" stroke-linecap="round" stroke-linejoin="round" stroke-width="1.0"/>
  </g>
</svg>
