<?xml version="1.0" encoding="UTF-8" standalone="no"?>
<svg xmlns:xlink="http://www.w3.org/1999/xlink" height="151.05px" width="100.95px" xmlns="http://www.w3.org/2000/svg">
  <g transform="matrix(1.0, 0.0, 0.0, 1.0, 0.5, 0.5)">
    <path d="M75.85 3.45 Q80.8 4.4 83.8 5.5 L86.0 6.45 Q88.2 7.6 90.5 9.3 94.5 12.25 95.85 17.65 96.5 20.35 96.5 23.75 L96.5 24.15 Q96.25 32.5 91.25 39.85 L89.45 42.25 89.4 42.25 87.85 44.0 87.25 44.6 87.8 43.95 89.25 42.1 90.85 39.6 Q94.8 32.95 94.9 25.45 L94.85 23.4 Q94.6 19.65 93.45 16.85 91.9 13.2 88.9 11.0 L87.4 9.95 Q85.6 8.7 83.8 7.85 80.4 6.15 77.15 5.7 L76.45 4.6 75.85 3.45 M22.1 4.7 L20.15 7.45 19.4 8.3 Q12.25 11.15 9.3 16.35 6.35 21.55 5.9 29.1 5.4 36.35 10.95 41.85 9.35 40.7 6.9 37.7 4.4 34.65 3.8 30.5 3.3 27.1 3.8 24.35 L4.05 23.15 Q4.9 19.9 8.1 14.6 9.95 11.35 13.5 8.65 17.6 5.55 22.1 4.7 M26.55 49.7 Q28.3 51.05 28.3 53.1 L25.9 52.4 25.7 52.5 Q24.2 53.3 23.5 54.75 L23.4 55.0 23.4 56.6 25.9 57.5 23.4 56.6 23.4 55.0 23.5 54.75 Q25.8 56.5 31.9 57.6 L40.8 58.95 51.45 60.0 59.05 60.85 59.6 60.8 59.95 60.8 60.15 58.75 Q60.15 57.25 59.6 56.2 L57.2 56.1 Q57.6 53.55 59.05 53.45 L60.25 53.15 60.95 54.3 Q62.0 56.25 62.0 58.05 62.0 60.8 61.15 62.4 L59.5 62.25 Q58.3 61.9 57.75 60.85 L48.5 61.0 48.05 61.0 Q39.6 60.95 32.1 59.25 L25.9 57.5 24.3 58.75 22.3 58.8 21.85 58.8 21.5 58.2 Q20.7 56.7 20.7 56.0 20.7 53.85 22.35 52.05 23.9 50.3 26.55 49.7 M59.05 60.85 L57.75 60.85 59.05 60.85 M18.8 54.35 Q13.6 51.65 9.25 47.65 12.6 49.85 14.65 50.95 17.4 52.15 19.35 53.1 18.95 53.75 18.8 54.35 M59.05 55.45 L59.6 56.2 59.05 55.45" fill="#e3b602" fill-rule="evenodd" stroke="none"/>
    <path d="M87.25 44.6 L87.85 44.0 89.4 42.25 89.45 42.25 91.25 39.85 Q96.25 32.5 96.5 24.15 L96.5 23.75 Q96.5 20.35 95.85 17.65 94.5 12.25 90.5 9.3 88.2 7.6 86.0 6.45 L83.8 5.5 Q80.8 4.4 75.85 3.45 L75.75 3.2 75.5 2.65 74.55 0.0 Q79.7 0.6 83.8 2.25 89.6 4.5 93.4 8.75 97.05 12.8 98.65 18.45 99.6 21.75 99.85 25.65 L99.95 28.25 Q100.0 40.55 90.6 49.4 87.5 52.3 83.8 54.35 76.7 58.2 67.3 58.95 L65.45 58.85 65.5 58.2 Q65.5 56.35 64.5 54.75 65.5 56.35 65.5 58.2 L65.45 58.85 Q65.3 60.2 64.45 61.4 63.35 62.5 61.7 62.45 L61.15 62.4 Q62.0 60.8 62.0 58.05 62.0 56.25 60.95 54.3 L60.25 53.15 63.2 53.2 63.5 53.5 64.5 54.75 66.55 54.55 Q76.95 53.55 83.8 47.95 L87.25 44.6 M23.55 2.15 L23.2 2.85 22.1 4.7 Q17.6 5.55 13.5 8.65 9.95 11.35 8.1 14.6 4.9 19.9 4.05 23.15 L3.8 24.35 Q3.3 27.1 3.8 30.5 4.4 34.65 6.9 37.7 9.35 40.7 10.95 41.85 L11.35 42.3 Q16.8 47.5 21.85 49.9 L22.5 49.2 Q24.15 48.6 25.85 49.2 L26.55 49.7 Q23.9 50.3 22.35 52.05 20.7 53.85 20.7 56.0 20.7 56.7 21.5 58.2 L21.85 58.8 Q20.8 58.6 19.95 57.85 18.7 56.7 18.7 55.0 L18.8 54.35 Q18.95 53.75 19.35 53.1 17.4 52.15 14.65 50.95 12.6 49.85 9.25 47.65 L5.95 44.35 Q1.95 39.95 0.65 35.6 0.0 33.45 0.0 31.35 0.0 28.55 0.3 26.05 L0.65 23.5 1.25 20.8 Q5.05 6.75 20.05 2.85 L20.25 2.8 23.55 2.15 M28.3 53.1 Q40.45 56.55 49.5 56.55 L55.95 56.4 57.2 56.1 59.6 56.2 Q60.15 57.25 60.15 58.75 L59.95 60.8 59.6 60.8 59.05 60.85 51.45 60.0 40.8 58.95 31.9 57.6 Q25.8 56.5 23.5 54.75 24.2 53.3 25.7 52.5 L25.9 52.4 28.3 53.1 M21.85 49.9 Q20.1 51.7 19.35 53.1 20.1 51.7 21.85 49.9 M35.15 103.5 L35.0 103.8 Q33.65 104.3 33.5 105.45 L30.85 104.7 30.75 104.65 31.85 102.7 32.0 102.75 Q33.35 103.75 35.15 103.5" fill="#ffcc00" fill-rule="evenodd" stroke="none"/>
    <path d="M21.85 58.8 L22.3 58.8 22.3 58.85 19.95 58.8 19.95 57.85 Q20.8 58.6 21.85 58.8 M21.0 61.3 Q21.1 60.25 22.0 60.25 23.1 60.25 23.1 61.3 L22.95 61.85 Q22.7 62.35 22.05 62.35 21.0 62.35 21.0 61.3 M25.3 72.25 L25.75 72.25 26.25 71.75 28.0 70.2 28.5 69.8 28.85 69.5 29.75 70.1 30.0 70.45 29.7 70.7 29.2 71.1 28.5 71.7 27.15 72.95 26.75 72.95 26.5 72.95 25.55 73.05 25.3 72.25 M53.9 68.6 Q52.8 68.9 51.95 69.65 L50.1 69.95 49.8 69.7 50.1 69.35 50.55 68.9 Q52.3 67.35 54.8 67.35 57.3 67.35 59.1 68.9 L59.1 69.0 Q57.7 68.25 56.0 68.25 L53.9 68.6 M21.65 81.6 L21.1 81.2 20.6 80.8 20.5 80.7 Q18.5 79.05 18.5 77.35 18.5 74.9 21.1 73.4 L21.2 73.35 Q20.8 72.6 20.7 71.75 L20.65 70.95 Q20.65 68.65 22.4 67.0 24.1 65.35 26.55 65.35 29.0 65.35 30.75 67.0 L30.8 67.05 Q29.4 66.25 27.75 66.25 25.3 66.25 23.6 67.9 21.9 69.5 21.85 71.75 L21.85 71.85 Q21.85 73.15 22.4 74.25 L22.3 74.3 Q19.7 75.8 19.7 78.25 19.7 79.45 20.65 80.6 L20.8 80.75 21.65 81.6 M31.6 67.6 Q34.55 66.1 39.7 66.2 45.8 66.3 49.55 69.55 46.05 67.2 40.9 67.1 35.55 67.0 32.6 68.6 L31.95 67.9 31.6 67.6 M35.15 95.15 Q34.9 95.65 34.25 95.65 33.2 95.65 33.2 94.55 33.3 93.55 34.2 93.55 35.3 93.55 35.3 94.6 L35.15 95.15 M58.55 63.5 Q59.65 63.5 59.65 64.55 L59.5 65.1 Q59.25 65.6 58.6 65.6 57.55 65.6 57.55 64.5 57.65 63.5 58.55 63.5" fill="#ffffff" fill-rule="evenodd" stroke="none"/>
    <path d="M21.0 61.3 Q21.0 62.35 22.05 62.35 22.7 62.35 22.95 61.85 L23.1 61.3 Q23.1 60.25 22.0 60.25 21.1 60.25 21.0 61.3 M22.95 59.2 Q24.15 59.2 25.0 60.0 25.85 60.85 25.85 62.05 25.85 63.25 25.0 64.05 24.15 64.9 22.95 64.9 21.75 64.9 20.9 64.05 20.05 63.25 20.05 62.05 20.05 60.85 20.9 60.0 21.75 59.2 22.95 59.2 M24.3 72.3 L24.85 72.25 25.0 72.25 25.3 72.25 25.55 73.05 26.5 72.95 26.75 72.95 26.8 73.15 26.95 73.65 27.85 73.6 28.45 73.6 Q29.5 72.55 30.25 71.95 L30.5 71.75 30.65 71.6 31.0 71.35 30.75 71.0 30.0 70.5 30.05 70.45 30.0 70.45 29.75 70.1 28.85 69.5 28.95 69.45 28.85 69.3 28.6 69.05 27.35 68.3 29.1 68.0 Q31.05 68.0 32.5 69.35 L33.0 69.95 Q35.45 68.65 39.75 68.7 44.75 68.8 47.75 71.5 L47.85 71.55 48.55 70.9 48.75 70.7 50.1 69.95 51.95 69.65 54.2 70.1 Q53.0 70.1 52.1 71.0 L51.95 71.15 Q51.4 71.3 50.95 71.75 L50.9 71.85 50.75 72.0 49.8 72.6 49.35 73.2 Q50.1 74.3 50.45 75.9 L52.6 76.65 53.25 76.15 53.35 76.1 54.0 76.35 54.45 76.05 54.75 75.8 54.85 75.7 55.55 76.05 56.4 75.4 56.65 75.1 55.85 76.5 55.45 76.9 Q54.85 77.4 54.15 77.7 55.6 79.0 55.6 81.05 55.6 83.1 53.6 84.4 L48.55 86.5 47.8 87.35 Q46.6 88.7 44.95 89.3 L41.0 90.2 37.05 90.4 Q34.5 89.8 32.55 88.65 L32.05 88.35 30.5 87.1 Q27.9 84.75 27.6 82.3 26.4 82.05 24.85 81.0 L24.7 80.85 24.4 80.65 Q22.55 79.2 22.55 77.75 22.55 75.75 24.7 74.55 L24.75 74.5 Q24.3 73.6 24.3 72.55 L24.3 72.3 M35.9 92.85 L36.7 93.4 Q37.5 94.2 37.5 95.35 37.5 96.5 36.7 97.3 L36.5 97.5 Q35.75 98.1 34.8 98.1 L34.05 98.0 33.4 97.7 33.15 97.5 32.9 97.3 Q32.1 96.5 32.1 95.35 32.1 94.2 32.9 93.4 33.7 92.6 34.8 92.6 L35.15 92.65 35.9 92.85 M35.15 95.15 L35.3 94.6 Q35.3 93.55 34.2 93.55 33.3 93.55 33.2 94.55 33.2 95.65 34.25 95.65 34.9 95.65 35.15 95.15 M61.85 65.3 Q61.85 66.45 61.05 67.25 60.25 68.05 59.15 68.05 58.05 68.05 57.25 67.25 56.45 66.45 56.45 65.3 56.45 64.15 57.25 63.35 57.5 63.1 57.85 62.9 58.4 62.55 59.15 62.55 L59.45 62.6 Q60.35 62.65 61.05 63.35 L61.45 63.8 Q61.85 64.45 61.85 65.3 M58.55 63.5 Q57.65 63.5 57.55 64.5 57.55 65.6 58.6 65.6 59.25 65.6 59.5 65.1 L59.65 64.55 Q59.65 63.5 58.55 63.5" fill="#99ff00" fill-rule="evenodd" stroke="none"/>
    <path d="M27.35 68.3 L26.55 68.2 Q25.35 68.2 24.5 69.05 23.65 69.9 23.65 71.1 L23.75 71.75 23.95 72.35 24.3 72.3 24.3 72.55 Q24.3 73.6 24.75 74.5 L24.7 74.55 Q22.55 75.75 22.55 77.75 22.55 79.2 24.4 80.65 L24.7 80.85 24.85 81.0 Q26.4 82.05 27.6 82.3 27.9 84.75 30.5 87.1 L32.05 88.35 32.55 88.65 Q34.5 89.8 37.05 90.4 L41.0 90.2 44.95 89.3 Q46.6 88.7 47.8 87.35 L48.55 86.5 53.6 84.4 Q55.6 83.1 55.6 81.05 55.6 79.0 54.15 77.7 54.85 77.4 55.45 76.9 L55.85 76.5 56.65 75.1 Q57.3 74.3 57.3 73.2 57.3 72.4 56.95 71.75 L56.6 71.25 56.4 71.0 Q55.5 70.1 54.25 70.1 L54.2 70.1 51.95 69.65 Q52.8 68.9 53.9 68.6 55.75 68.75 57.2 69.95 58.1 70.75 58.5 71.75 L58.75 73.3 Q58.75 74.25 58.35 75.1 L57.2 76.6 56.75 76.95 55.75 77.5 Q57.35 79.0 57.35 81.2 57.35 83.5 55.1 84.95 54.0 85.6 49.5 87.3 L48.7 88.25 Q47.35 89.75 45.55 90.4 42.95 91.3 41.1 91.4 L36.75 91.6 Q34.1 91.0 32.05 89.85 L30.95 89.2 29.45 88.0 Q26.6 85.35 26.2 82.6 24.8 82.35 23.0 81.05 L22.45 80.6 21.6 79.8 Q20.65 78.65 20.65 77.55 20.65 75.35 23.0 74.0 L23.1 73.95 Q22.6 72.95 22.6 71.8 L22.6 71.75 Q22.6 69.7 24.15 68.25 25.7 66.75 27.9 66.75 30.1 66.75 31.65 68.25 L32.25 68.9 Q34.9 67.45 39.75 67.55 45.3 67.6 48.7 70.65 L48.75 70.7 48.55 70.9 47.85 71.55 47.75 71.5 Q44.75 68.8 39.75 68.7 35.45 68.65 33.0 69.95 L32.5 69.35 Q31.05 68.0 29.1 68.0 L27.35 68.3 M49.75 69.75 L49.8 69.7 50.1 69.95 48.75 70.7 49.5 69.95 49.75 69.75 M28.5 71.7 Q28.85 71.35 29.2 71.15 L29.65 70.75 30.0 70.5 30.75 71.0 31.0 71.35 30.65 71.6 30.5 71.75 30.25 71.95 Q29.5 72.55 28.45 73.6 L27.85 73.6 26.95 73.65 26.8 73.15 26.75 72.95 27.15 72.95 28.5 71.7 M53.35 76.1 L53.25 76.15 52.6 76.65 50.45 75.9 Q50.1 74.3 49.35 73.2 L49.8 72.6 50.75 72.0 50.4 72.5 Q51.2 73.75 51.65 75.5 L53.35 76.1" fill="#8eec02" fill-rule="evenodd" stroke="none"/>
    <path d="M48.75 70.7 L48.7 70.65 Q45.3 67.6 39.75 67.55 34.9 67.45 32.25 68.9 L31.65 68.25 Q30.1 66.75 27.9 66.75 25.7 66.75 24.15 68.25 22.6 69.7 22.6 71.75 L22.6 71.8 Q22.6 72.95 23.1 73.95 L23.0 74.0 Q20.65 75.35 20.65 77.55 20.65 78.65 21.6 79.8 L22.45 80.6 23.0 81.05 Q24.8 82.35 26.2 82.6 26.6 85.35 29.45 88.0 L30.95 89.2 32.05 89.85 Q34.1 91.0 36.75 91.6 L41.1 91.4 Q42.95 91.3 45.55 90.4 47.35 89.75 48.7 88.25 L49.5 87.3 Q54.0 85.6 55.1 84.95 57.35 83.5 57.35 81.2 57.35 79.0 55.75 77.5 L56.75 76.95 57.2 76.6 58.35 75.1 Q58.75 74.25 58.75 73.3 L58.5 71.75 Q58.1 70.75 57.2 69.95 55.75 68.75 53.9 68.6 L56.0 68.25 Q57.7 68.25 59.1 69.0 L59.1 68.9 59.3 69.1 Q60.5 70.25 60.8 71.75 L60.85 72.6 Q60.85 74.75 59.1 76.3 L57.5 77.3 Q59.3 78.95 59.3 81.4 59.3 83.95 56.8 85.55 55.55 86.3 50.55 88.2 L49.65 89.2 Q48.2 90.9 46.15 91.6 43.3 92.65 41.25 92.75 L36.4 92.95 35.9 92.85 35.15 92.65 Q33.2 92.05 31.6 91.25 L30.05 90.3 29.8 90.15 28.3 88.95 Q25.4 86.3 24.8 83.55 L24.7 83.0 Q23.35 82.75 21.65 81.6 L20.8 80.75 20.65 80.6 Q19.7 79.45 19.7 78.25 19.7 75.8 22.3 74.3 L22.4 74.25 Q21.85 73.15 21.85 71.85 L21.85 71.75 Q21.9 69.5 23.6 67.9 25.3 66.25 27.75 66.25 29.4 66.25 30.8 67.05 L31.4 67.7 31.6 67.6 31.95 67.9 32.6 68.6 Q35.55 67.0 40.9 67.1 46.05 67.2 49.55 69.55 L49.7 69.7 49.75 69.75 49.5 69.95 48.75 70.7 M28.5 71.7 L29.2 71.1 29.7 70.7 30.0 70.45 30.05 70.45 30.0 70.5 29.65 70.75 29.2 71.15 Q28.85 71.35 28.5 71.7 M53.35 76.1 L51.65 75.5 Q51.2 73.75 50.4 72.5 L50.75 72.0 50.9 71.85 50.95 71.75 Q51.4 71.3 51.95 71.15 L51.55 71.75 51.65 71.85 Q52.5 73.25 52.95 75.1 L53.8 75.35 54.0 75.4 54.85 75.7 54.75 75.8 54.45 76.05 54.0 76.35 53.35 76.1" fill="#d0fe89" fill-rule="evenodd" stroke="none"/>
    <path d="M34.1 98.15 L35.5 101.4 Q35.5 102.55 35.15 103.5 33.35 103.75 32.0 102.75 L31.85 102.65 Q32.85 100.55 33.25 98.4 33.8 98.2 34.1 98.15 M33.5 105.45 L33.45 105.8 32.7 108.15 30.2 105.5 30.7 104.75 30.75 104.65 30.85 104.7 33.5 105.45 M23.0 126.25 L30.25 134.3 31.0 136.15 31.65 137.65 Q35.3 145.45 39.8 148.1 L35.25 149.1 32.65 149.55 31.9 148.5 29.35 144.05 Q28.65 143.1 26.7 138.2 26.6 138.4 26.65 140.2 26.65 141.95 27.0 145.05 27.35 148.1 27.2 149.65 L21.35 150.05 19.3 150.05 18.5 150.05 16.55 150.05 18.95 148.1 Q24.0 143.1 23.2 136.2 L22.9 130.95 23.0 126.25" fill="#b10101" fill-rule="evenodd" stroke="none"/>
    <path d="M30.2 105.5 L27.7 102.95 28.1 102.95 28.5 102.85 Q29.35 104.0 30.65 104.6 L30.75 104.65 30.7 104.75 30.2 105.5 M29.45 100.5 L30.25 99.2 30.35 99.05 30.4 99.0 33.25 98.4 Q32.85 100.55 31.85 102.65 L30.3 101.3 29.45 100.5 M16.55 150.05 L13.0 149.9 12.95 149.9 Q14.3 147.5 14.85 143.95 L15.25 139.15 Q15.55 126.8 16.2 124.1 16.7 122.0 17.35 120.0 L23.0 126.25 22.9 130.95 23.2 136.2 Q24.0 143.1 18.95 148.1 L16.55 150.05" fill="#ff3300" fill-rule="evenodd" stroke="none"/>
    <path d="M28.3 102.55 L29.45 100.5 30.3 101.3 31.85 102.65 32.0 102.75 31.85 102.7 30.75 104.65 30.65 104.6 Q29.35 104.0 28.5 102.85 L28.3 102.55" fill="#ffff00" fill-rule="evenodd" stroke="none"/>
    <path d="M28.1 102.95 L28.3 102.55 28.5 102.85 28.1 102.95" fill="#f402ac" fill-rule="evenodd" stroke="none"/>
    <path d="M77.15 5.7 Q80.4 6.15 83.8 7.85 85.6 8.7 87.4 9.95 L88.9 11.0 Q91.9 13.2 93.45 16.85 94.6 19.65 94.85 23.4 L94.9 25.45 Q94.8 32.95 90.85 39.6 L89.25 42.1 87.8 43.95 87.25 44.6 83.8 47.95 Q76.95 53.55 66.55 54.55 L64.5 54.75 Q65.5 56.35 65.5 58.2 L65.45 58.85 67.3 58.95 Q76.7 58.2 83.8 54.35 87.5 52.3 90.6 49.4 100.0 40.55 99.95 28.25 L99.85 25.65 Q99.6 21.75 98.65 18.45 97.05 12.8 93.4 8.75 89.6 4.5 83.8 2.25 79.7 0.6 74.55 0.0 M19.4 8.3 Q12.25 11.15 9.3 16.35 6.35 21.55 5.9 29.1 5.4 36.35 10.95 41.85 L11.35 42.3 Q16.8 47.5 21.85 49.9 L22.5 49.2 Q24.15 48.6 25.85 49.2 L26.55 49.7 Q28.3 51.05 28.3 53.1 40.45 56.55 49.5 56.55 L55.95 56.4 57.2 56.1 Q57.6 53.55 59.05 53.45 L60.25 53.15 63.2 53.2 63.5 53.5 64.5 54.75 M9.25 47.65 L5.95 44.35 Q1.95 39.95 0.65 35.6 0.0 33.45 0.0 31.35 0.0 28.55 0.3 26.05 L0.65 23.5 1.25 20.8 Q5.05 6.75 20.05 2.85 L20.25 2.8 23.55 2.15 M23.5 54.75 Q24.2 53.3 25.7 52.5 L25.9 52.4 28.3 53.1 M25.9 57.5 L23.4 56.6 23.4 55.0 23.5 54.75 M59.6 60.8 L59.95 60.8 60.15 58.75 Q60.15 57.25 59.6 56.2 L57.2 56.1 M22.3 58.8 L24.3 58.75 25.9 57.5 32.1 59.25 Q39.6 60.95 48.05 61.0 L48.5 61.0 57.75 60.85 59.05 60.85 M19.95 57.85 Q18.7 56.7 18.7 55.0 L18.8 54.35 Q13.6 51.65 9.25 47.65 M19.35 53.1 Q20.1 51.7 21.85 49.9 M22.95 59.2 Q21.75 59.2 20.9 60.0 20.05 60.85 20.05 62.05 20.05 63.25 20.9 64.05 21.75 64.9 22.95 64.9 24.15 64.9 25.0 64.05 25.85 63.25 25.85 62.05 25.85 60.85 25.0 60.0 24.15 59.2 22.95 59.2 M27.35 68.3 L26.55 68.2 Q25.35 68.2 24.5 69.05 23.65 69.9 23.65 71.1 L23.75 71.75 23.95 72.35 24.3 72.3 24.85 72.25 25.0 72.25 25.3 72.25 25.75 72.25 26.25 71.75 28.0 70.2 28.5 69.8 28.85 69.5 28.95 69.45 28.85 69.3 28.6 69.05 27.35 68.3 M54.2 70.1 L54.25 70.1 Q55.5 70.1 56.4 71.0 L56.6 71.25 56.95 71.75 Q57.3 72.4 57.3 73.2 57.3 74.3 56.65 75.1 M30.8 67.05 L30.75 67.0 Q29.0 65.35 26.55 65.35 24.1 65.35 22.4 67.0 20.65 68.65 20.65 70.95 L20.7 71.75 Q20.8 72.6 21.2 73.35 L21.1 73.4 Q18.5 74.9 18.5 77.35 18.5 79.05 20.5 80.7 L20.6 80.8 21.1 81.2 21.65 81.6 Q23.35 82.75 24.7 83.0 L24.8 83.55 Q25.4 86.3 28.3 88.95 L29.8 90.15 30.05 90.3 31.6 91.25 Q33.2 92.05 35.15 92.65 L35.9 92.85 36.7 93.4 Q37.5 94.2 37.5 95.35 37.5 96.5 36.7 97.3 L36.5 97.5 Q35.75 98.1 34.8 98.1 L34.05 98.0 34.1 98.15 35.5 101.4 Q35.5 102.55 35.15 103.5 L35.0 103.8 Q33.65 104.3 33.5 105.45 L33.45 105.8 32.7 108.15 M30.8 67.05 L31.4 67.7 31.6 67.6 Q34.55 66.1 39.7 66.2 45.8 66.3 49.55 69.55 L49.7 69.7 49.75 69.75 M49.8 69.7 L50.1 69.35 50.55 68.9 Q52.3 67.35 54.8 67.35 57.3 67.35 59.1 68.9 L59.3 69.1 Q60.5 70.25 60.8 71.75 L60.85 72.6 Q60.85 74.75 59.1 76.3 L57.5 77.3 Q59.3 78.95 59.3 81.4 59.3 83.95 56.8 85.55 55.55 86.3 50.55 88.2 L49.65 89.2 Q48.2 90.9 46.15 91.6 43.3 92.65 41.25 92.75 L36.4 92.95 35.9 92.85 M27.7 102.95 L28.1 102.95 28.3 102.55 29.45 100.5 30.25 99.2 30.35 99.05 30.4 99.0 33.25 98.4 Q33.8 98.2 34.1 98.15 M19.35 53.1 Q18.95 53.75 18.8 54.35 M35.15 92.65 L34.8 92.6 Q33.7 92.6 32.9 93.4 32.1 94.2 32.1 95.35 32.1 96.5 32.9 97.3 L33.15 97.5 33.4 97.7 34.05 98.0 M21.85 58.8 Q20.8 58.6 19.95 57.85 M65.45 58.85 Q65.3 60.2 64.45 61.4 63.35 62.5 61.7 62.45 L61.15 62.4 59.5 62.25 Q58.3 61.9 57.75 60.85 M61.85 65.3 Q61.85 64.45 61.45 63.8 L61.05 63.35 Q60.35 62.65 59.45 62.6 L59.15 62.55 Q58.4 62.55 57.85 62.9 57.5 63.1 57.25 63.35 56.45 64.15 56.45 65.3 56.45 66.45 57.25 67.25 58.05 68.05 59.15 68.05 60.25 68.05 61.05 67.25 61.85 66.45 61.85 65.3 M59.6 56.2 L59.05 55.45 M51.95 71.15 L52.1 71.0 Q53.0 70.1 54.2 70.1 M51.95 71.15 L51.55 71.75 51.65 71.85 Q52.5 73.25 52.95 75.1 L53.8 75.35 54.0 75.4 54.85 75.7 55.55 76.05 56.4 75.4 56.65 75.1 M30.75 104.65 L30.85 104.7 33.5 105.45 M30.75 104.65 L30.65 104.6 Q29.35 104.0 28.5 102.85 L28.1 102.95 M32.0 102.75 Q33.35 103.75 35.15 103.5 M31.85 102.65 L32.0 102.75 M28.5 102.85 L28.3 102.55 M31.85 102.65 L30.3 101.3 29.45 100.5 M16.55 150.05 L13.0 149.9 12.95 149.9 Q14.3 147.5 14.85 143.95 L15.25 139.15 Q15.55 126.8 16.2 124.1 16.7 122.0 17.35 120.0 M30.25 134.3 L31.0 136.15 31.65 137.65 Q35.3 145.45 39.8 148.1 L35.25 149.1 32.65 149.55 31.9 148.5 29.35 144.05 Q28.65 143.1 26.7 138.2 26.6 138.4 26.65 140.2 26.65 141.95 27.0 145.05 27.35 148.1 27.2 149.65 L21.35 150.05 19.3 150.05 18.5 150.05 16.55 150.05" fill="none" stroke="#000000" stroke-linecap="round" stroke-linejoin="round" stroke-width="1.0"/>
  </g>
</svg>
