<?xml version="1.0" encoding="UTF-8" standalone="no"?>
<svg xmlns:xlink="http://www.w3.org/1999/xlink" height="39.65px" width="7.8px" xmlns="http://www.w3.org/2000/svg">
  <g transform="matrix(1.0, 0.0, 0.0, 1.0, 0.5, 0.0)">
    <path d="M4.1 25.5 L4.1 25.45 Q3.85 25.1 3.95 24.7 6.45 12.1 4.45 1.2 4.35 0.75 4.6 0.45 4.8 0.1 5.25 0.05 L6.0 0.2 6.4 0.85 Q8.45 12.1 5.9 25.1 L5.45 25.75 5.3 25.8 Q9.05 34.55 1.35 39.15 -2.35 31.65 4.1 25.5 M2.75 37.1 Q6.6 33.5 5.2 28.3 L2.75 37.1" fill="#336600" fill-rule="evenodd" stroke="none"/>
    <path d="M2.75 37.1 L5.2 28.3 Q6.6 33.5 2.75 37.1" fill="#ffffff" fill-rule="evenodd" stroke="none"/>
    <path d="M4.1 25.5 Q-2.35 31.65 1.35 39.15 9.05 34.55 5.3 25.8" fill="none" stroke="#000000" stroke-linecap="round" stroke-linejoin="round" stroke-width="1.0"/>
  </g>
</svg>
