<?xml version="1.0" encoding="UTF-8" standalone="no"?>
<svg xmlns:xlink="http://www.w3.org/1999/xlink" height="23.0px" width="17.8px" xmlns="http://www.w3.org/2000/svg">
  <g transform="matrix(1.0, 0.0, 0.0, 1.0, 0.5, 0.5)">
    <path d="M4.5 14.15 Q2.5 11.75 0.7 8.85 L0.0 7.7 2.6 9.05 1.05 4.15 3.6 6.65 2.7 2.35 5.75 5.55 5.4 2.0 7.05 4.15 6.7 0.9 9.1 4.05 9.3 0.15 11.45 3.9 13.25 0.0 14.8 4.45 15.95 0.45 16.35 3.35 16.45 4.3 16.8 9.9 15.35 5.75 13.55 9.65 11.4 5.9 11.2 9.8 8.8 6.65 9.15 9.9 7.5 7.75 7.85 11.3 4.8 8.1 5.7 12.4 3.15 9.9 4.5 14.15" fill="#fd3e3e" fill-rule="evenodd" stroke="none"/>
    <path d="M16.8 9.9 Q16.95 18.1 14.3 22.0 9.0 19.55 4.5 14.15 L3.15 9.9 5.7 12.4 4.8 8.1 7.85 11.3 7.5 7.75 9.15 9.9 8.8 6.65 11.2 9.8 11.4 5.9 13.55 9.65 15.35 5.75 16.8 9.9" fill="#cc0000" fill-rule="evenodd" stroke="none"/>
    <path d="M4.5 14.15 Q2.5 11.75 0.7 8.85 L0.0 7.7 2.6 9.05 1.05 4.15 3.6 6.65 2.7 2.35 5.75 5.55 5.4 2.0 7.05 4.15 6.7 0.9 9.1 4.05 9.3 0.15 11.45 3.9 13.25 0.0 14.8 4.45 15.95 0.45 16.35 3.35 16.45 4.3 16.8 9.9 Q16.95 18.1 14.3 22.0 9.0 19.55 4.5 14.15 Z" fill="none" stroke="#000000" stroke-linecap="round" stroke-linejoin="round" stroke-width="1.0"/>
  </g>
</svg>
