<?xml version="1.0" encoding="UTF-8" standalone="no"?>
<svg xmlns:xlink="http://www.w3.org/1999/xlink" height="3.5px" width="2.85px" xmlns="http://www.w3.org/2000/svg">
  <g transform="matrix(1.0, 0.0, 0.0, 1.0, 0.0, -0.05)">
    <path d="M0.8 3.3 L0.4 2.8 Q0.0 2.0 0.0 1.45 0.0 0.85 0.4 0.45 0.8 0.0 1.4 0.05 2.0 0.0 2.4 0.45 2.8 0.85 2.85 1.45 L2.5 2.65 2.45 2.15 Q2.45 1.3 2.15 1.1 L1.65 2.45 Q1.65 1.25 1.25 1.0 1.0 1.25 1.0 2.35 L0.55 1.1 0.5 1.2 0.5 2.45 0.8 3.3" fill="#fe8989" fill-rule="evenodd" stroke="none"/>
    <path d="M0.8 3.3 L0.5 2.45 0.5 1.2 0.55 1.1 1.0 2.35 Q1.0 1.25 1.25 1.0 1.65 1.25 1.65 2.45 L2.15 1.1 Q2.45 1.3 2.45 2.15 L2.5 2.65 2.4 2.8 Q2.0 3.55 1.4 3.55 L1.0 3.45 0.8 3.3" fill="#fe5f5f" fill-rule="evenodd" stroke="none"/>
  </g>
</svg>
