<?xml version="1.0" encoding="UTF-8" standalone="no"?>
<svg xmlns:xlink="http://www.w3.org/1999/xlink" height="35.85px" width="46.4px" xmlns="http://www.w3.org/2000/svg">
  <g transform="matrix(1.0, 0.0, 0.0, 1.0, 0.5, 0.5)">
    <path d="M10.25 10.5 Q15.8 6.5 16.95 6.2 18.1 5.85 23.35 0.0 25.5 2.65 20.8 7.7 14.35 8.0 10.25 10.5 14.35 8.0 20.8 7.7 29.0 5.3 31.3 4.1 34.9 2.15 38.2 0.95 41.55 -0.35 45.1 1.05 L44.45 1.35 45.4 2.2 42.95 3.55 Q44.0 3.35 44.8 4.05 42.0 6.3 38.8 11.8 L25.45 22.0 24.65 23.75 Q27.0 26.1 31.05 26.5 L35.3 26.45 Q38.5 24.85 40.7 26.25 36.75 27.75 34.75 29.7 L34.65 29.85 34.55 29.85 28.4 29.8 14.95 31.95 9.15 34.85 9.1 34.8 0.15 24.75 0.0 24.6 Q3.9 15.9 10.25 10.5 M37.4 7.7 L36.15 8.9 30.65 12.65 35.5 9.95 37.4 7.7 Q38.7 6.2 39.9 5.25 L42.95 3.55 39.9 5.25 Q38.7 6.2 37.4 7.7 M17.55 12.95 L27.15 10.45 33.8 6.25 44.45 1.35 33.8 6.25 27.15 10.45 17.55 12.95 M20.5 17.6 L29.75 13.45 30.65 12.65 29.75 13.45 20.5 17.6" fill="#ffe2d5" fill-rule="evenodd" stroke="none"/>
    <path d="M20.8 7.7 Q25.5 2.65 23.35 0.0 18.1 5.85 16.95 6.2 15.8 6.5 10.25 10.5 14.35 8.0 20.8 7.7 29.0 5.3 31.3 4.1 34.9 2.15 38.2 0.95 41.55 -0.35 45.1 1.05 L44.45 1.35 45.4 2.2 42.95 3.55 Q44.0 3.35 44.8 4.05 42.0 6.3 38.8 11.8 L25.45 22.0 24.65 23.75 Q27.0 26.1 31.05 26.5 L35.3 26.45 Q38.5 24.85 40.7 26.25 36.75 27.75 34.75 29.7 L34.65 29.85 34.55 29.85 28.4 29.8 14.95 31.95 9.15 34.85 9.1 34.8 M0.15 24.75 L0.0 24.6 Q3.9 15.9 10.25 10.5 M30.65 12.65 L36.15 8.9 37.4 7.7 Q38.7 6.2 39.9 5.25 L42.95 3.55 M37.4 7.7 L35.5 9.95 30.65 12.65 29.75 13.45 20.5 17.6 M44.45 1.35 L33.8 6.25 27.15 10.45 17.55 12.95" fill="none" stroke="#000000" stroke-linecap="round" stroke-linejoin="round" stroke-width="1.0"/>
  </g>
</svg>
