<?xml version="1.0" encoding="UTF-8" standalone="no"?>
<svg xmlns:xlink="http://www.w3.org/1999/xlink" height="102.5px" width="69.75px" xmlns="http://www.w3.org/2000/svg">
  <g transform="matrix(1.0, 0.0, 0.0, 1.0, 0.5, 0.5)">
    <path d="M55.1 3.7 Q55.8 3.65 55.8 2.4 L55.75 2.25 55.8 2.4 Q55.8 3.65 55.1 3.7 L54.2 3.6 54.2 2.75 54.2 2.45 54.2 2.3 54.15 2.0 54.05 1.5 54.0 1.3 53.8 0.1 Q53.75 0.35 53.5 0.0 53.75 0.35 53.8 0.1 L54.0 1.3 54.05 1.5 54.15 2.0 54.2 2.3 54.2 2.45 54.2 2.75 54.2 3.6 52.6 3.7 52.5 3.2 52.6 3.7 54.2 3.6 Q54.15 6.95 53.55 12.95 54.95 17.25 49.7 35.35 44.6 53.0 44.9 55.2 45.5 59.55 42.8 64.75 41.45 67.4 40.7 69.45 39.5 78.8 38.5 80.1 36.9 82.0 36.1 86.35 35.25 91.1 34.65 92.35 33.4 95.0 33.3 97.4 32.95 98.65 29.0 99.55 L20.75 101.3 Q25.35 99.6 30.9 88.45 L32.85 84.15 Q35.75 76.9 37.45 67.75 35.75 76.9 32.85 84.15 L28.9 88.35 Q21.3 95.65 16.8 95.95 17.3 94.65 16.25 94.4 L12.7 94.3 Q8.65 94.3 0.0 97.3 25.75 85.65 30.55 79.65 35.3 73.65 36.35 70.75 L37.45 67.75 39.9 57.7 Q41.45 51.65 42.85 48.2 43.65 46.1 44.4 44.95 45.95 42.45 46.0 38.65 L46.65 33.75 49.2 25.85 Q51.5 18.6 50.6 13.65 L51.6 10.9 Q51.6 6.45 52.35 3.55 51.6 6.45 51.6 10.9 L50.6 13.65 Q48.65 18.95 46.55 26.7 44.45 34.2 42.85 48.2 L41.95 57.35 40.7 69.45 41.95 57.35 42.85 48.2 Q41.45 51.65 39.9 57.7 L37.45 67.75 Q38.75 60.5 39.35 52.1 40.8 29.75 52.35 3.55 L52.5 3.2 52.85 2.35 52.9 2.3 52.35 2.85 Q51.9 1.4 51.5 1.05 L51.2 1.05 51.5 1.05 Q51.9 1.4 52.35 2.85 49.5 5.85 48.8 7.55 43.35 20.45 40.4 20.45 39.9 20.45 38.75 19.65 37.55 18.8 37.4 18.25 L35.9 13.95 Q35.3 12.15 37.0 8.9 38.7 5.6 40.65 4.05 42.6 2.45 51.2 1.05 51.6 0.35 52.75 0.1 L53.5 0.0 Q53.85 0.0 53.85 0.15 L55.4 0.35 55.4 0.5 58.35 0.1 Q61.95 0.1 64.05 2.6 66.15 5.05 67.7 7.65 69.25 10.25 68.5 15.0 67.7 19.75 64.75 19.6 61.75 19.4 59.7 15.7 57.65 11.95 58.25 11.3 56.9 9.4 56.6 8.35 L55.85 6.2 55.15 3.9 55.1 3.7 M55.65 2.0 Q55.4 1.35 55.4 0.5 55.4 1.35 55.65 2.0 L55.75 2.25 57.05 3.15 Q58.15 4.3 60.5 11.15 62.8 18.0 64.6 15.3 65.05 15.3 65.65 13.05 66.25 10.8 65.0 8.75 L63.0 5.05 Q62.2 3.4 55.65 2.0 M54.2 2.3 L54.15 2.65 54.2 2.75 54.15 2.65 54.2 2.3 M49.75 3.0 L46.2 3.95 Q43.55 4.65 41.85 6.55 40.1 8.4 39.35 12.3 38.55 16.2 39.95 16.2 41.0 16.2 42.85 12.85 L45.85 7.25 49.75 3.0 M54.2 2.45 L54.15 2.65 54.2 2.45" fill="#336600" fill-rule="evenodd" stroke="none"/>
    <path d="M55.75 2.25 L55.8 2.4 Q55.8 3.65 55.1 3.7 L55.15 3.9 55.85 6.2 56.6 8.35 Q56.9 9.4 58.25 11.3 57.65 11.95 59.7 15.7 61.75 19.4 64.75 19.6 67.7 19.75 68.5 15.0 69.25 10.25 67.7 7.65 66.15 5.05 64.05 2.6 61.95 0.1 58.35 0.1 L55.4 0.5 Q55.4 1.35 55.65 2.0 62.2 3.4 63.0 5.05 L65.0 8.75 Q66.25 10.8 65.65 13.05 65.05 15.3 64.6 15.3 62.8 18.0 60.5 11.15 58.15 4.3 57.05 3.15 L55.75 2.25 55.65 2.0 M55.4 0.5 L55.4 0.35 53.85 0.15 Q53.85 0.0 53.5 0.0 53.75 0.35 53.8 0.1 L54.0 1.3 54.05 1.5 54.15 2.0 54.2 2.3 54.2 2.45 54.2 2.75 54.2 3.6 55.1 3.7 M52.35 2.85 Q51.9 1.4 51.5 1.05 L51.2 1.05 Q42.6 2.45 40.65 4.05 38.7 5.6 37.0 8.9 35.3 12.15 35.9 13.95 L37.4 18.25 Q37.55 18.8 38.75 19.65 39.9 20.45 40.4 20.45 43.35 20.45 48.8 7.55 49.5 5.85 52.35 2.85 L52.5 3.2 52.6 3.7 54.2 3.6 54.2 2.75 54.15 2.65 54.2 2.3 M51.2 1.05 Q51.6 0.35 52.75 0.1 L53.5 0.0 M49.75 3.0 L46.2 3.95 Q43.55 4.65 41.85 6.55 40.1 8.4 39.35 12.3 38.55 16.2 39.95 16.2 41.0 16.2 42.85 12.85 L45.85 7.25 49.75 3.0 M54.2 3.6 Q54.15 6.95 53.55 12.95 54.95 17.25 49.7 35.35 44.6 53.0 44.9 55.2 45.5 59.55 42.8 64.75 41.45 67.4 40.7 69.45 39.5 78.8 38.5 80.1 36.9 82.0 36.1 86.35 35.25 91.1 34.65 92.35 33.4 95.0 33.3 97.4 32.95 98.65 29.0 99.55 L20.75 101.3 18.5 101.5 M52.5 3.2 L52.35 3.55 Q51.6 6.45 51.6 10.9 L50.6 13.65 Q51.5 18.6 49.2 25.85 L46.65 33.75 46.0 38.65 Q45.95 42.45 44.4 44.95 43.65 46.1 42.85 48.2 L41.95 57.35 40.7 69.45 M54.15 2.65 L54.2 2.45 M37.45 67.75 L39.9 57.7 Q41.45 51.65 42.85 48.2 44.45 34.2 46.55 26.7 48.65 18.95 50.6 13.65 M52.35 3.55 Q40.8 29.75 39.35 52.1 38.75 60.5 37.45 67.75 35.75 76.9 32.85 84.15 L30.9 88.45 Q25.35 99.6 20.75 101.3 M37.45 67.75 L36.35 70.75 Q35.3 73.65 30.55 79.65 25.75 85.65 0.0 97.3 8.65 94.3 12.7 94.3 L16.25 94.4 Q17.3 94.65 16.8 95.95 21.3 95.65 28.9 88.35 L32.85 84.15" fill="none" stroke="#000000" stroke-linecap="round" stroke-linejoin="round" stroke-width="1.0"/>
  </g>
</svg>
