<?xml version="1.0" encoding="UTF-8" standalone="no"?>
<svg xmlns:xlink="http://www.w3.org/1999/xlink" height="22.95px" width="128.65px" xmlns="http://www.w3.org/2000/svg">
  <g transform="matrix(1.0, 0.0, 0.0, 1.0, 64.35, 11.5)">
    <path d="M7.95 -5.05 L5.95 -5.05 5.95 -7.3 7.95 -7.3 7.95 -8.6 10.45 -8.6 10.45 -7.3 12.1 -7.3 12.1 -5.05 10.45 -5.05 10.45 -3.7 11.65 -3.7 11.65 -1.35 10.45 -1.35 10.45 6.45 Q10.45 7.4 9.8 8.05 9.35 8.6 8.4 8.6 L6.45 8.6 6.45 6.5 7.5 6.5 Q7.95 6.5 7.95 5.55 L7.95 3.8 7.9 4.0 Q7.5 4.95 6.95 4.95 L5.65 4.95 5.65 2.6 5.7 2.6 Q6.25 2.6 6.55 1.8 L7.95 -2.05 7.95 -5.05 M19.05 -8.6 L19.05 -6.85 23.2 -6.85 23.2 6.9 Q23.2 8.55 21.35 8.55 L12.55 8.55 12.55 -6.85 16.55 -6.85 16.55 -8.6 19.05 -8.6 M15.1 -0.3 L16.55 -0.3 16.55 -4.6 15.1 -4.6 15.1 -0.3 M19.05 -0.3 L20.65 -0.3 20.65 -4.6 19.05 -4.6 19.05 -0.3 M32.35 -5.8 L32.35 -8.65 35.25 -8.65 35.25 -5.8 42.3 -5.8 42.3 -3.35 35.75 -3.35 39.45 5.15 Q39.8 6.0 40.2 6.0 L42.4 6.0 42.4 8.5 38.4 8.5 Q37.8 8.5 37.4 7.45 L33.9 -1.0 30.6 7.15 Q30.0 8.5 29.25 8.5 L25.15 8.5 25.15 6.0 27.45 6.0 Q28.05 6.0 28.7 4.25 L31.7 -3.35 25.2 -3.35 25.2 -5.8 32.35 -5.8 M48.45 -6.7 L48.45 -4.75 46.95 -4.75 Q45.8 -4.75 45.5 -5.85 L44.75 -8.35 47.25 -8.35 47.6 -7.25 Q47.7 -6.7 48.15 -6.7 L48.45 -6.7 M45.35 -1.2 Q45.75 -1.2 45.95 -1.7 L46.55 -3.25 49.05 -3.25 49.05 -8.5 51.6 -8.5 51.6 0.75 49.05 0.75 49.05 -3.25 47.7 -0.25 Q47.25 0.75 46.25 0.75 L44.75 0.75 44.75 -1.2 45.35 -1.2 M56.4 -7.65 L61.35 -7.65 61.35 -5.2 59.95 -1.05 Q59.3 0.75 57.4 0.75 L52.25 0.75 52.25 -1.35 54.2 -1.35 53.9 -2.2 53.25 -2.5 52.35 -2.5 52.35 -4.15 54.45 -4.15 Q55.25 -4.15 55.8 -3.35 L56.75 -1.45 Q57.3 -1.6 57.55 -2.25 L58.5 -5.45 55.15 -5.45 Q54.9 -4.9 54.3 -4.9 L52.2 -4.9 52.2 -6.95 53.0 -6.95 53.35 -7.15 54.25 -8.5 56.85 -8.5 56.4 -7.65 M61.55 4.25 L55.3 4.25 56.9 6.15 57.8 6.35 61.3 6.35 61.3 8.6 56.25 8.6 55.2 8.35 52.8 5.4 50.45 8.35 49.4 8.6 44.75 8.6 44.75 6.35 47.8 6.35 Q48.45 6.35 48.7 6.15 L50.4 4.25 44.45 4.25 44.45 2.1 51.35 2.1 51.35 1.1 54.3 1.1 54.3 2.1 61.55 2.1 61.55 4.25 M20.65 1.7 L19.05 1.7 19.05 6.3 20.05 6.3 Q20.65 6.3 20.65 5.75 L20.65 1.7 M16.55 1.7 L15.1 1.7 15.1 6.3 16.55 6.3 16.55 1.7 M-61.6 -8.0 L-54.65 -8.0 -54.65 -5.85 -56.8 -5.85 -56.8 -1.6 -55.0 -1.6 -55.0 0.5 -56.8 0.5 -56.8 6.05 -54.65 6.05 -54.65 6.5 -53.75 6.5 Q-53.35 6.5 -53.1 5.5 L-52.25 0.55 -49.7 0.55 -50.8 6.6 Q-51.2 8.7 -52.9 8.7 L-54.8 8.7 -54.8 8.15 -61.6 8.15 -61.6 6.05 -59.3 6.05 -59.3 0.5 -61.35 0.5 -61.35 -1.6 -59.3 -1.6 -59.3 -5.85 -61.6 -5.85 -61.6 -8.0 M-54.4 -2.65 L-44.1 -2.65 -44.1 -0.45 -45.85 -0.45 -45.85 5.85 Q-45.85 6.35 -45.25 6.35 L-44.25 6.35 -44.25 8.6 -45.85 8.6 Q-48.4 8.6 -48.4 6.35 L-48.4 -0.45 -54.4 -0.45 -54.4 -2.65 M-53.35 -8.35 L-44.95 -8.35 -44.95 -6.2 -53.35 -6.2 -53.35 -8.35 M-42.45 -3.35 L-40.05 -3.35 -39.5 -1.5 Q-39.35 -1.05 -39.0 -1.05 L-38.25 -1.05 -38.25 1.1 -40.05 1.1 Q-41.1 1.1 -41.55 -0.45 L-42.45 -3.35 M-42.35 -8.4 L-39.95 -8.4 -39.35 -6.65 Q-39.2 -6.2 -38.85 -6.2 L-38.3 -6.2 -38.3 -4.0 -39.9 -4.0 Q-40.95 -4.0 -41.4 -5.6 L-42.35 -8.4 M-31.25 -7.1 L-31.25 -5.0 -35.0 -5.0 -35.0 -3.15 -31.65 -3.15 -31.65 6.9 Q-31.65 8.7 -33.5 8.7 L-34.55 8.7 -34.55 6.65 -34.2 6.65 Q-33.75 6.65 -33.75 6.2 L-33.75 -1.3 -35.0 -1.3 -35.0 6.65 Q-35.0 7.55 -35.6 8.1 -36.05 8.6 -36.9 8.6 L-38.15 8.6 -38.15 6.5 -37.7 6.5 Q-37.3 6.5 -37.3 5.55 L-37.3 -5.0 -38.05 -5.0 -38.05 -7.1 -35.7 -7.1 -35.7 -8.6 -33.2 -8.6 -33.2 -7.1 -31.25 -7.1 M-31.1 -3.1 L-25.2 -3.1 -25.2 -1.5 -26.25 0.95 -24.85 0.95 -24.85 3.15 -26.6 3.15 -26.6 7.1 Q-26.6 8.6 -27.85 8.6 L-30.5 8.6 -30.5 6.6 -29.25 6.6 Q-28.85 6.6 -28.85 5.85 L-28.85 3.15 -31.25 3.15 -31.25 0.95 -28.65 0.95 -27.95 -1.0 -31.1 -1.0 -31.1 -3.1 M-30.95 -5.75 L-30.75 -5.75 -30.5 -6.2 -30.1 -8.65 -27.8 -8.65 -28.05 -7.4 -25.0 -7.4 -25.0 -5.25 -28.5 -5.25 -28.55 -5.0 Q-28.85 -3.7 -30.0 -3.7 L-30.95 -3.7 -30.95 -5.75 M-20.15 -5.05 L-19.2 -2.5 -18.0 -6.1 -22.95 -6.1 -22.95 -8.25 -15.5 -8.25 -15.5 -5.75 -17.9 1.05 -16.25 5.4 -15.6 6.3 -15.15 6.3 -15.15 8.55 -17.15 8.55 Q-17.75 8.55 -18.1 7.45 L-19.15 4.65 -20.35 8.0 Q-20.6 8.55 -21.25 8.55 L-23.1 8.55 -23.1 6.3 -22.55 6.3 Q-22.15 6.3 -22.0 5.8 L-20.45 1.15 -22.7 -5.05 -20.15 -5.05 M-10.95 -6.75 L-8.75 -6.75 Q-8.45 -6.75 -8.45 -7.15 L-8.45 -8.35 -6.1 -8.35 -6.1 -5.85 Q-6.1 -4.55 -7.5 -4.55 L-10.7 -4.55 -9.9 3.05 -9.75 3.05 Q-9.25 3.05 -9.05 2.15 L-8.4 -3.55 -6.0 -3.55 -6.8 3.5 Q-7.05 5.45 -8.3 5.45 L-9.6 5.45 -9.6 5.75 Q-9.45 6.35 -9.0 6.35 L-5.9 6.35 -5.9 8.55 -10.5 8.55 Q-12.0 8.55 -12.2 6.75 L-12.35 5.45 -14.85 5.45 -14.85 3.05 -12.55 3.05 -13.35 -4.55 -15.0 -4.55 -15.0 -6.75 -13.6 -6.75 -13.8 -8.75 -11.15 -8.75 -10.95 -6.75 M-37.95 2.1 L-38.95 6.8 Q-39.35 8.5 -40.95 8.5 L-42.35 8.5 -42.35 6.3 -41.75 6.3 Q-41.4 6.3 -41.2 5.6 L-40.35 2.1 -37.95 2.1" fill="url(#gradient0)" fill-rule="evenodd" stroke="none"/>
    <path d="M7.95 -5.05 L5.95 -5.05 5.95 -7.3 7.95 -7.3 7.95 -8.6 10.45 -8.6 10.45 -7.3 12.1 -7.3 12.1 -5.05 10.45 -5.05 10.45 -3.7 11.65 -3.7 11.65 -1.35 10.45 -1.35 10.45 6.45 Q10.45 7.4 9.8 8.05 9.35 8.6 8.4 8.6 L6.45 8.6 6.45 6.5 7.5 6.5 Q7.95 6.5 7.95 5.55 L7.95 3.8 7.9 4.0 Q7.5 4.95 6.95 4.95 L5.65 4.95 5.65 2.6 5.7 2.6 Q6.25 2.6 6.55 1.8 L7.95 -2.05 7.95 -5.05 M19.05 -8.6 L19.05 -6.85 23.2 -6.85 23.2 6.9 Q23.2 8.55 21.35 8.55 L12.55 8.55 12.55 -6.85 16.55 -6.85 16.55 -8.6 19.05 -8.6 M15.1 -0.3 L16.55 -0.3 16.55 -4.6 15.1 -4.6 15.1 -0.3 M19.05 -0.3 L20.65 -0.3 20.65 -4.6 19.05 -4.6 19.05 -0.3 M32.35 -5.8 L32.35 -8.65 35.25 -8.65 35.25 -5.8 42.3 -5.8 42.3 -3.35 35.75 -3.35 39.45 5.15 Q39.8 6.0 40.2 6.0 L42.4 6.0 42.4 8.5 38.4 8.5 Q37.8 8.5 37.4 7.45 L33.9 -1.0 30.6 7.15 Q30.0 8.5 29.25 8.5 L25.15 8.5 25.15 6.0 27.45 6.0 Q28.05 6.0 28.7 4.25 L31.7 -3.35 25.2 -3.35 25.2 -5.8 32.35 -5.8 M48.45 -6.7 L48.45 -4.75 46.95 -4.75 Q45.8 -4.75 45.5 -5.85 L44.75 -8.35 47.25 -8.35 47.6 -7.25 Q47.7 -6.7 48.15 -6.7 L48.45 -6.7 M45.35 -1.2 Q45.75 -1.2 45.95 -1.7 L46.55 -3.25 49.05 -3.25 49.05 -8.5 51.6 -8.5 51.6 0.75 49.05 0.75 49.05 -3.25 47.7 -0.25 Q47.25 0.75 46.25 0.75 L44.75 0.75 44.75 -1.2 45.35 -1.2 M56.4 -7.65 L61.35 -7.65 61.35 -5.2 59.95 -1.05 Q59.3 0.75 57.4 0.75 L52.25 0.75 52.25 -1.35 54.2 -1.35 53.9 -2.2 53.25 -2.5 52.35 -2.5 52.35 -4.15 54.45 -4.15 Q55.25 -4.15 55.8 -3.35 L56.75 -1.45 Q57.3 -1.6 57.55 -2.25 L58.5 -5.45 55.15 -5.45 Q54.9 -4.9 54.3 -4.9 L52.2 -4.9 52.2 -6.95 53.0 -6.95 53.35 -7.15 54.25 -8.5 56.85 -8.5 56.4 -7.65 M61.55 4.25 L55.3 4.25 56.9 6.15 57.8 6.35 61.3 6.35 61.3 8.6 56.25 8.6 55.2 8.35 52.8 5.4 50.45 8.35 49.4 8.6 44.75 8.6 44.75 6.35 47.8 6.35 Q48.45 6.35 48.7 6.15 L50.4 4.25 44.45 4.25 44.45 2.1 51.35 2.1 51.35 1.1 54.3 1.1 54.3 2.1 61.55 2.1 61.55 4.25 M20.65 1.7 L19.05 1.7 19.05 6.3 20.05 6.3 Q20.65 6.3 20.65 5.75 L20.65 1.7 M16.55 1.7 L15.1 1.7 15.1 6.3 16.55 6.3 16.55 1.7 M-61.6 -8.0 L-54.65 -8.0 -54.65 -5.85 -56.8 -5.85 -56.8 -1.6 -55.0 -1.6 -55.0 0.5 -56.8 0.5 -56.8 6.05 -54.65 6.05 -54.65 6.5 -53.75 6.5 Q-53.35 6.5 -53.1 5.5 L-52.25 0.55 -49.7 0.55 -50.8 6.6 Q-51.2 8.7 -52.9 8.7 L-54.8 8.7 -54.8 8.15 -61.6 8.15 -61.6 6.05 -59.3 6.05 -59.3 0.5 -61.35 0.5 -61.35 -1.6 -59.3 -1.6 -59.3 -5.85 -61.6 -5.85 -61.6 -8.0 M-54.4 -2.65 L-44.1 -2.65 -44.1 -0.45 -45.85 -0.45 -45.85 5.85 Q-45.85 6.35 -45.25 6.35 L-44.25 6.35 -44.25 8.6 -45.85 8.6 Q-48.4 8.6 -48.4 6.35 L-48.4 -0.45 -54.4 -0.45 -54.4 -2.65 M-53.35 -8.35 L-44.95 -8.35 -44.95 -6.2 -53.35 -6.2 -53.35 -8.35 M-42.45 -3.35 L-40.05 -3.35 -39.5 -1.5 Q-39.35 -1.05 -39.0 -1.05 L-38.25 -1.05 -38.25 1.1 -40.05 1.1 Q-41.1 1.1 -41.55 -0.45 L-42.45 -3.35 M-42.35 -8.4 L-39.95 -8.4 -39.35 -6.65 Q-39.2 -6.2 -38.85 -6.2 L-38.3 -6.2 -38.3 -4.0 -39.9 -4.0 Q-40.95 -4.0 -41.4 -5.6 L-42.35 -8.4 M-31.25 -7.1 L-31.25 -5.0 -35.0 -5.0 -35.0 -3.15 -31.65 -3.15 -31.65 6.9 Q-31.65 8.7 -33.5 8.7 L-34.55 8.7 -34.55 6.65 -34.2 6.65 Q-33.75 6.65 -33.75 6.2 L-33.75 -1.3 -35.0 -1.3 -35.0 6.65 Q-35.0 7.55 -35.6 8.1 -36.05 8.6 -36.9 8.6 L-38.15 8.6 -38.15 6.5 -37.7 6.5 Q-37.3 6.5 -37.3 5.55 L-37.3 -5.0 -38.05 -5.0 -38.05 -7.1 -35.7 -7.1 -35.7 -8.6 -33.2 -8.6 -33.2 -7.1 -31.25 -7.1 M-31.1 -3.1 L-25.2 -3.1 -25.2 -1.5 -26.25 0.95 -24.85 0.95 -24.85 3.15 -26.6 3.15 -26.6 7.1 Q-26.6 8.6 -27.85 8.6 L-30.5 8.6 -30.5 6.6 -29.25 6.6 Q-28.85 6.6 -28.85 5.85 L-28.85 3.15 -31.25 3.15 -31.25 0.95 -28.65 0.95 -27.95 -1.0 -31.1 -1.0 -31.1 -3.1 M-30.95 -5.75 L-30.75 -5.75 -30.5 -6.2 -30.1 -8.65 -27.8 -8.65 -28.05 -7.4 -25.0 -7.4 -25.0 -5.25 -28.5 -5.25 -28.55 -5.0 Q-28.85 -3.7 -30.0 -3.7 L-30.95 -3.7 -30.95 -5.75 M-20.15 -5.05 L-19.2 -2.5 -18.0 -6.1 -22.95 -6.1 -22.95 -8.25 -15.5 -8.25 -15.5 -5.75 -17.9 1.05 -16.25 5.4 -15.6 6.3 -15.15 6.3 -15.15 8.55 -17.15 8.55 Q-17.75 8.55 -18.1 7.45 L-19.15 4.65 -20.35 8.0 Q-20.6 8.55 -21.25 8.55 L-23.1 8.55 -23.1 6.3 -22.55 6.3 Q-22.15 6.3 -22.0 5.8 L-20.45 1.15 -22.7 -5.05 -20.15 -5.05 M-10.95 -6.75 L-8.75 -6.75 Q-8.45 -6.75 -8.45 -7.15 L-8.45 -8.35 -6.1 -8.35 -6.1 -5.85 Q-6.1 -4.55 -7.5 -4.55 L-10.7 -4.55 -9.9 3.05 -9.75 3.05 Q-9.25 3.05 -9.05 2.15 L-8.4 -3.55 -6.0 -3.55 -6.8 3.5 Q-7.05 5.45 -8.3 5.45 L-9.6 5.45 -9.6 5.75 Q-9.45 6.35 -9.0 6.35 L-5.9 6.35 -5.9 8.55 -10.5 8.55 Q-12.0 8.55 -12.2 6.75 L-12.35 5.45 -14.85 5.45 -14.85 3.05 -12.55 3.05 -13.35 -4.55 -15.0 -4.55 -15.0 -6.75 -13.6 -6.75 -13.8 -8.75 -11.15 -8.75 -10.95 -6.75 M-37.95 2.1 L-38.95 6.8 Q-39.35 8.5 -40.95 8.5 L-42.35 8.5 -42.35 6.3 -41.75 6.3 Q-41.4 6.3 -41.2 5.6 L-40.35 2.1 -37.95 2.1" fill="none" stroke="#000000" stroke-linecap="round" stroke-linejoin="round" stroke-width="5.5"/>
  </g>
  <defs>
    <linearGradient gradientTransform="matrix(0.0, -0.0107, 0.0752, 0.0, -0.05, 0.0)" gradientUnits="userSpaceOnUse" id="gradient0" spreadMethod="pad" x1="-819.2" x2="819.2">
      <stop offset="0.0" stop-color="#ffff99"/>
      <stop offset="0.6784313725490196" stop-color="#ff9900"/>
      <stop offset="0.7450980392156863" stop-color="#ffff99"/>
    </linearGradient>
  </defs>
</svg>
