<?xml version="1.0" encoding="UTF-8" standalone="no"?>
<svg xmlns:xlink="http://www.w3.org/1999/xlink" height="22.95px" width="128.65px" xmlns="http://www.w3.org/2000/svg">
  <g transform="matrix(1.0, 0.0, 0.0, 1.0, 64.5, 11.5)">
    <path d="M7.8 -8.6 L10.3 -8.6 10.3 -7.3 11.95 -7.3 11.95 -5.05 10.3 -5.05 10.3 -3.7 11.5 -3.7 11.5 -1.35 10.3 -1.35 10.3 6.45 Q10.3 7.4 9.65 8.05 9.2 8.6 8.25 8.6 L6.3 8.6 6.3 6.5 7.35 6.5 Q7.8 6.5 7.8 5.55 L7.8 3.8 7.75 4.0 Q7.35 4.95 6.8 4.95 L5.5 4.95 5.5 2.6 5.55 2.6 Q6.1 2.6 6.4 1.8 L7.8 -2.05 7.8 -5.05 5.8 -5.05 5.8 -7.3 7.8 -7.3 7.8 -8.6 M18.9 -8.6 L18.9 -6.85 23.05 -6.85 23.05 6.9 Q23.05 8.55 21.2 8.55 L12.4 8.55 12.4 -6.85 16.4 -6.85 16.4 -8.6 18.9 -8.6 M14.95 -0.3 L16.4 -0.3 16.4 -4.6 14.95 -4.6 14.95 -0.3 M18.9 -0.3 L20.5 -0.3 20.5 -4.6 18.9 -4.6 18.9 -0.3 M25.05 -5.8 L32.2 -5.8 32.2 -8.65 35.1 -8.65 35.1 -5.8 42.15 -5.8 42.15 -3.35 35.6 -3.35 39.3 5.15 Q39.65 6.0 40.05 6.0 L42.25 6.0 42.25 8.5 38.25 8.5 Q37.65 8.5 37.25 7.45 L33.75 -1.0 30.45 7.15 Q29.85 8.5 29.1 8.5 L25.0 8.5 25.0 6.0 27.3 6.0 Q27.9 6.0 28.55 4.25 L31.55 -3.35 25.05 -3.35 25.05 -5.8 M47.45 -7.25 Q47.55 -6.7 48.0 -6.7 L48.3 -6.7 48.3 -4.75 46.8 -4.75 Q45.65 -4.75 45.35 -5.85 L44.6 -8.35 47.1 -8.35 47.45 -7.25 M45.2 -1.2 Q45.6 -1.2 45.8 -1.7 L46.4 -3.25 48.9 -3.25 48.9 -8.5 51.45 -8.5 51.45 0.75 48.9 0.75 48.9 -3.25 47.55 -0.25 Q47.1 0.75 46.1 0.75 L44.6 0.75 44.6 -1.2 45.2 -1.2 M56.25 -7.65 L61.2 -7.65 61.2 -5.2 59.8 -1.05 Q59.15 0.75 57.25 0.75 L52.1 0.75 52.1 -1.35 54.05 -1.35 53.75 -2.2 Q53.5 -2.5 53.1 -2.5 L52.2 -2.5 52.2 -4.15 54.3 -4.15 Q55.1 -4.15 55.65 -3.35 L56.6 -1.45 Q57.15 -1.6 57.4 -2.25 L58.35 -5.45 55.0 -5.45 Q54.75 -4.9 54.15 -4.9 L52.05 -4.9 52.05 -6.95 52.85 -6.95 53.2 -7.15 54.1 -8.5 56.7 -8.5 56.25 -7.65 M61.4 4.25 L55.15 4.25 56.75 6.15 57.65 6.35 61.15 6.35 61.15 8.6 56.1 8.6 55.05 8.35 52.65 5.4 50.3 8.35 49.25 8.6 44.6 8.6 44.6 6.35 47.65 6.35 48.55 6.15 50.25 4.25 44.3 4.25 44.3 2.1 51.2 2.1 51.2 1.1 54.15 1.1 54.15 2.1 61.4 2.1 61.4 4.25 M20.5 1.7 L18.9 1.7 18.9 6.3 19.9 6.3 Q20.5 6.3 20.5 5.75 L20.5 1.7 M16.4 1.7 L14.95 1.7 14.95 6.3 16.4 6.3 16.4 1.7 M-61.75 -8.0 L-54.8 -8.0 -54.8 -5.85 -56.95 -5.85 -56.95 -1.6 -55.15 -1.6 -55.15 0.5 -56.95 0.5 -56.95 6.05 -54.8 6.05 -54.8 6.5 -53.9 6.5 Q-53.5 6.5 -53.25 5.5 L-52.4 0.55 -49.85 0.55 -50.95 6.6 Q-51.35 8.7 -53.05 8.7 L-54.95 8.7 -54.95 8.15 -61.75 8.15 -61.75 6.05 -59.45 6.05 -59.45 0.5 -61.5 0.5 -61.5 -1.6 -59.45 -1.6 -59.45 -5.85 -61.75 -5.85 -61.75 -8.0 M-53.5 -8.35 L-45.1 -8.35 -45.1 -6.2 -53.5 -6.2 -53.5 -8.35 M-54.55 -2.65 L-44.25 -2.65 -44.25 -0.45 -46.0 -0.45 -46.0 5.85 Q-46.0 6.35 -45.4 6.35 L-44.4 6.35 -44.4 8.6 -46.0 8.6 Q-48.55 8.6 -48.55 6.35 L-48.55 -0.45 -54.55 -0.45 -54.55 -2.65 M-42.6 -3.35 L-40.2 -3.35 -39.65 -1.5 -39.15 -1.05 -38.4 -1.05 -38.4 1.1 -40.2 1.1 Q-41.25 1.1 -41.7 -0.45 L-42.6 -3.35 M-42.5 -8.4 L-40.1 -8.4 -39.5 -6.65 Q-39.35 -6.2 -39.0 -6.2 L-38.45 -6.2 -38.45 -4.0 -40.05 -4.0 Q-41.1 -4.0 -41.55 -5.6 L-42.5 -8.4 M-31.4 -7.1 L-31.4 -5.0 -35.15 -5.0 -35.15 -3.15 -31.8 -3.15 -31.8 6.9 Q-31.8 8.7 -33.65 8.7 L-34.7 8.7 -34.7 6.65 -34.35 6.65 Q-33.9 6.65 -33.9 6.2 L-33.9 -1.3 -35.15 -1.3 -35.15 6.65 Q-35.15 7.55 -35.75 8.1 -36.2 8.6 -37.05 8.6 L-38.3 8.6 -38.3 6.5 -37.85 6.5 Q-37.45 6.5 -37.45 5.55 L-37.45 -5.0 -38.2 -5.0 -38.2 -7.1 -35.85 -7.1 -35.85 -8.6 -33.35 -8.6 -33.35 -7.1 -31.4 -7.1 M-30.9 -5.75 L-30.65 -6.2 -30.25 -8.65 -27.95 -8.65 -28.2 -7.4 -25.15 -7.4 -25.15 -5.25 -28.65 -5.25 -28.7 -5.0 Q-29.0 -3.7 -30.15 -3.7 L-31.1 -3.7 -31.1 -5.75 -30.9 -5.75 M-31.25 -3.1 L-25.35 -3.1 -25.35 -1.5 -26.4 0.95 -25.0 0.95 -25.0 3.15 -26.75 3.15 -26.75 7.1 Q-26.75 8.6 -28.0 8.6 L-30.65 8.6 -30.65 6.6 -29.4 6.6 Q-29.0 6.6 -29.0 5.85 L-29.0 3.15 -31.4 3.15 -31.4 0.95 -28.8 0.95 -28.1 -1.0 -31.25 -1.0 -31.25 -3.1 M-20.3 -5.05 L-19.35 -2.5 -18.15 -6.1 -23.1 -6.1 -23.1 -8.25 -15.65 -8.25 -15.65 -5.75 -18.05 1.05 -16.4 5.4 Q-16.1 6.3 -15.75 6.3 L-15.3 6.3 -15.3 8.55 -17.3 8.55 Q-17.9 8.55 -18.25 7.45 L-19.3 4.65 -20.5 8.0 Q-20.75 8.55 -21.4 8.55 L-23.25 8.55 -23.25 6.3 -22.7 6.3 Q-22.3 6.3 -22.15 5.8 L-20.6 1.15 -22.85 -5.05 -20.3 -5.05 M-11.1 -6.75 L-8.9 -6.75 Q-8.6 -6.75 -8.6 -7.15 L-8.6 -8.35 -6.25 -8.35 -6.25 -5.85 Q-6.25 -4.55 -7.65 -4.55 L-10.85 -4.55 -10.05 3.05 -9.9 3.05 Q-9.4 3.05 -9.2 2.15 L-8.55 -3.55 -6.15 -3.55 -6.95 3.5 Q-7.2 5.45 -8.45 5.45 L-9.75 5.45 -9.75 5.75 Q-9.6 6.35 -9.15 6.35 L-6.05 6.35 -6.05 8.55 -10.65 8.55 Q-12.15 8.55 -12.35 6.75 L-12.5 5.45 -15.0 5.45 -15.0 3.05 -12.7 3.05 -13.5 -4.55 -15.15 -4.55 -15.15 -6.75 -13.75 -6.75 -13.95 -8.75 -11.3 -8.75 -11.1 -6.75 M-38.1 2.1 L-39.1 6.8 Q-39.5 8.5 -41.1 8.5 L-42.5 8.5 -42.5 6.3 -41.9 6.3 Q-41.55 6.3 -41.35 5.6 L-40.5 2.1 -38.1 2.1" fill="url(#gradient0)" fill-rule="evenodd" stroke="none"/>
    <path d="M7.8 -8.6 L10.3 -8.6 10.3 -7.3 11.95 -7.3 11.95 -5.05 10.3 -5.05 10.3 -3.7 11.5 -3.7 11.5 -1.35 10.3 -1.35 10.3 6.45 Q10.3 7.4 9.65 8.05 9.2 8.6 8.25 8.6 L6.3 8.6 6.3 6.5 7.35 6.5 Q7.8 6.5 7.8 5.55 L7.8 3.8 7.75 4.0 Q7.35 4.95 6.8 4.95 L5.5 4.95 5.5 2.6 5.55 2.6 Q6.1 2.6 6.4 1.8 L7.8 -2.05 7.8 -5.05 5.8 -5.05 5.8 -7.3 7.8 -7.3 7.8 -8.6 M18.9 -8.6 L18.9 -6.85 23.05 -6.85 23.05 6.9 Q23.05 8.55 21.2 8.55 L12.4 8.55 12.4 -6.85 16.4 -6.85 16.4 -8.6 18.9 -8.6 M14.95 -0.3 L16.4 -0.3 16.4 -4.6 14.95 -4.6 14.95 -0.3 M18.9 -0.3 L20.5 -0.3 20.5 -4.6 18.9 -4.6 18.9 -0.3 M25.05 -5.8 L32.2 -5.8 32.2 -8.65 35.1 -8.65 35.1 -5.8 42.15 -5.8 42.15 -3.35 35.6 -3.35 39.3 5.15 Q39.65 6.0 40.05 6.0 L42.25 6.0 42.25 8.5 38.25 8.5 Q37.65 8.5 37.25 7.45 L33.75 -1.0 30.45 7.15 Q29.85 8.5 29.1 8.5 L25.0 8.5 25.0 6.0 27.3 6.0 Q27.9 6.0 28.55 4.25 L31.55 -3.35 25.05 -3.35 25.05 -5.8 M47.45 -7.25 Q47.55 -6.7 48.0 -6.7 L48.3 -6.7 48.3 -4.75 46.8 -4.75 Q45.65 -4.75 45.35 -5.85 L44.6 -8.35 47.1 -8.35 47.45 -7.25 M45.2 -1.2 Q45.6 -1.2 45.8 -1.7 L46.4 -3.25 48.9 -3.25 48.9 -8.5 51.45 -8.5 51.45 0.75 48.9 0.75 48.9 -3.25 47.55 -0.25 Q47.1 0.75 46.1 0.75 L44.6 0.75 44.6 -1.2 45.2 -1.2 M56.25 -7.65 L61.2 -7.65 61.2 -5.2 59.8 -1.05 Q59.15 0.75 57.25 0.75 L52.1 0.75 52.1 -1.35 54.05 -1.35 53.75 -2.2 Q53.5 -2.5 53.1 -2.5 L52.2 -2.5 52.2 -4.15 54.3 -4.15 Q55.1 -4.15 55.65 -3.35 L56.6 -1.45 Q57.15 -1.6 57.4 -2.25 L58.35 -5.45 55.0 -5.45 Q54.75 -4.9 54.15 -4.9 L52.05 -4.9 52.05 -6.95 52.85 -6.95 53.2 -7.15 54.1 -8.5 56.7 -8.5 56.25 -7.65 M61.4 4.25 L55.15 4.25 56.75 6.15 57.65 6.35 61.15 6.35 61.15 8.6 56.1 8.6 55.05 8.35 52.65 5.4 50.3 8.35 49.25 8.6 44.6 8.6 44.6 6.35 47.65 6.35 48.55 6.15 50.25 4.25 44.3 4.25 44.3 2.1 51.2 2.1 51.2 1.1 54.15 1.1 54.15 2.1 61.4 2.1 61.4 4.25 M20.5 1.7 L18.9 1.7 18.9 6.3 19.9 6.3 Q20.5 6.3 20.5 5.75 L20.5 1.7 M16.4 1.7 L14.95 1.7 14.95 6.3 16.4 6.3 16.4 1.7 M-61.75 -8.0 L-54.8 -8.0 -54.8 -5.85 -56.95 -5.85 -56.95 -1.6 -55.15 -1.6 -55.15 0.5 -56.95 0.5 -56.95 6.05 -54.8 6.05 -54.8 6.5 -53.9 6.5 Q-53.5 6.5 -53.25 5.5 L-52.4 0.55 -49.85 0.55 -50.95 6.6 Q-51.35 8.7 -53.05 8.7 L-54.95 8.7 -54.95 8.15 -61.75 8.15 -61.75 6.05 -59.45 6.05 -59.45 0.5 -61.5 0.5 -61.5 -1.6 -59.45 -1.6 -59.45 -5.85 -61.75 -5.85 -61.75 -8.0 M-53.5 -8.35 L-45.1 -8.35 -45.1 -6.2 -53.5 -6.2 -53.5 -8.35 M-54.55 -2.65 L-44.25 -2.65 -44.25 -0.45 -46.0 -0.45 -46.0 5.85 Q-46.0 6.35 -45.4 6.35 L-44.4 6.35 -44.4 8.6 -46.0 8.6 Q-48.55 8.6 -48.55 6.35 L-48.55 -0.45 -54.55 -0.45 -54.55 -2.65 M-42.6 -3.35 L-40.2 -3.35 -39.65 -1.5 -39.15 -1.05 -38.4 -1.05 -38.4 1.1 -40.2 1.1 Q-41.25 1.1 -41.7 -0.45 L-42.6 -3.35 M-42.5 -8.4 L-40.1 -8.4 -39.5 -6.65 Q-39.35 -6.2 -39.0 -6.2 L-38.45 -6.2 -38.45 -4.0 -40.05 -4.0 Q-41.1 -4.0 -41.55 -5.6 L-42.5 -8.4 M-31.4 -7.1 L-31.4 -5.0 -35.15 -5.0 -35.15 -3.15 -31.8 -3.15 -31.8 6.9 Q-31.8 8.7 -33.65 8.7 L-34.7 8.7 -34.7 6.65 -34.35 6.65 Q-33.9 6.65 -33.9 6.2 L-33.9 -1.3 -35.15 -1.3 -35.15 6.65 Q-35.15 7.55 -35.75 8.1 -36.2 8.6 -37.05 8.6 L-38.3 8.6 -38.3 6.5 -37.85 6.5 Q-37.45 6.5 -37.45 5.55 L-37.45 -5.0 -38.2 -5.0 -38.2 -7.1 -35.85 -7.1 -35.85 -8.6 -33.35 -8.6 -33.35 -7.1 -31.4 -7.1 M-30.9 -5.75 L-30.65 -6.2 -30.25 -8.65 -27.95 -8.65 -28.2 -7.4 -25.15 -7.4 -25.15 -5.25 -28.65 -5.25 -28.7 -5.0 Q-29.0 -3.7 -30.15 -3.7 L-31.1 -3.7 -31.1 -5.75 -30.9 -5.75 M-31.25 -3.1 L-25.35 -3.1 -25.35 -1.5 -26.4 0.95 -25.0 0.95 -25.0 3.15 -26.75 3.15 -26.75 7.1 Q-26.75 8.6 -28.0 8.6 L-30.65 8.6 -30.65 6.6 -29.4 6.6 Q-29.0 6.6 -29.0 5.85 L-29.0 3.15 -31.4 3.15 -31.4 0.95 -28.8 0.95 -28.1 -1.0 -31.25 -1.0 -31.25 -3.1 M-20.3 -5.05 L-19.35 -2.5 -18.15 -6.1 -23.1 -6.1 -23.1 -8.25 -15.65 -8.25 -15.65 -5.75 -18.05 1.05 -16.4 5.4 Q-16.1 6.3 -15.75 6.3 L-15.3 6.3 -15.3 8.55 -17.3 8.55 Q-17.9 8.55 -18.25 7.45 L-19.3 4.65 -20.5 8.0 Q-20.75 8.55 -21.4 8.55 L-23.25 8.55 -23.25 6.3 -22.7 6.3 Q-22.3 6.3 -22.15 5.8 L-20.6 1.15 -22.85 -5.05 -20.3 -5.05 M-11.1 -6.75 L-8.9 -6.75 Q-8.6 -6.75 -8.6 -7.15 L-8.6 -8.35 -6.25 -8.35 -6.25 -5.85 Q-6.25 -4.55 -7.65 -4.55 L-10.85 -4.55 -10.05 3.05 -9.9 3.05 Q-9.4 3.05 -9.2 2.15 L-8.55 -3.55 -6.15 -3.55 -6.95 3.5 Q-7.2 5.45 -8.45 5.45 L-9.75 5.45 -9.75 5.75 Q-9.6 6.35 -9.15 6.35 L-6.05 6.35 -6.05 8.55 -10.65 8.55 Q-12.15 8.55 -12.35 6.75 L-12.5 5.45 -15.0 5.45 -15.0 3.05 -12.7 3.05 -13.5 -4.55 -15.15 -4.55 -15.15 -6.75 -13.75 -6.75 -13.95 -8.75 -11.3 -8.75 -11.1 -6.75 M-38.1 2.1 L-39.1 6.8 Q-39.5 8.5 -41.1 8.5 L-42.5 8.5 -42.5 6.3 -41.9 6.3 Q-41.55 6.3 -41.35 5.6 L-40.5 2.1 -38.1 2.1" fill="none" stroke="#ff9900" stroke-linecap="round" stroke-linejoin="round" stroke-width="5.5"/>
    <path d="M7.8 -8.6 L10.3 -8.6 10.3 -7.3 11.95 -7.3 11.95 -5.05 10.3 -5.05 10.3 -3.7 11.5 -3.7 11.5 -1.35 10.3 -1.35 10.3 6.45 Q10.3 7.4 9.65 8.05 9.2 8.6 8.25 8.6 L6.3 8.6 6.3 6.5 7.35 6.5 Q7.8 6.5 7.8 5.55 L7.8 3.8 7.75 4.0 Q7.35 4.95 6.8 4.95 L5.5 4.95 5.5 2.6 5.55 2.6 Q6.1 2.6 6.4 1.8 L7.8 -2.05 7.8 -5.05 5.8 -5.05 5.8 -7.3 7.8 -7.3 7.8 -8.6 M18.9 -8.6 L18.9 -6.85 23.05 -6.85 23.05 6.9 Q23.05 8.55 21.2 8.55 L12.4 8.55 12.4 -6.85 16.4 -6.85 16.4 -8.6 18.9 -8.6 M14.95 -0.3 L16.4 -0.3 16.4 -4.6 14.95 -4.6 14.95 -0.3 M18.9 -0.3 L20.5 -0.3 20.5 -4.6 18.9 -4.6 18.9 -0.3 M25.05 -5.8 L32.2 -5.8 32.2 -8.65 35.1 -8.65 35.1 -5.8 42.15 -5.8 42.15 -3.35 35.6 -3.35 39.3 5.15 Q39.65 6.0 40.05 6.0 L42.25 6.0 42.25 8.5 38.25 8.5 Q37.65 8.5 37.25 7.45 L33.75 -1.0 30.45 7.15 Q29.85 8.5 29.1 8.5 L25.0 8.5 25.0 6.0 27.3 6.0 Q27.9 6.0 28.55 4.25 L31.55 -3.35 25.05 -3.35 25.05 -5.8 M48.3 -6.7 L48.3 -4.75 46.8 -4.75 Q45.65 -4.75 45.35 -5.85 L44.6 -8.35 47.1 -8.35 47.45 -7.25 Q47.55 -6.7 48.0 -6.7 L48.3 -6.7 M45.2 -1.2 Q45.6 -1.2 45.8 -1.7 L46.4 -3.25 48.9 -3.25 48.9 -8.5 51.45 -8.5 51.45 0.75 48.9 0.75 48.9 -3.25 47.55 -0.25 Q47.1 0.75 46.1 0.75 L44.6 0.75 44.6 -1.2 45.2 -1.2 M56.25 -7.65 L61.2 -7.65 61.2 -5.2 59.8 -1.05 Q59.15 0.75 57.25 0.75 L52.1 0.75 52.1 -1.35 54.05 -1.35 53.75 -2.2 Q53.5 -2.5 53.1 -2.5 L52.2 -2.5 52.2 -4.15 54.3 -4.15 Q55.1 -4.15 55.65 -3.35 L56.6 -1.45 Q57.15 -1.6 57.4 -2.25 L58.35 -5.45 55.0 -5.45 Q54.75 -4.9 54.15 -4.9 L52.05 -4.9 52.05 -6.95 52.85 -6.95 53.2 -7.15 54.1 -8.5 56.7 -8.5 56.25 -7.65 M61.4 4.25 L55.15 4.25 56.75 6.15 57.65 6.35 61.15 6.35 61.15 8.6 56.1 8.6 55.05 8.35 52.65 5.4 50.3 8.35 49.25 8.6 44.6 8.6 44.6 6.35 47.65 6.35 48.55 6.15 50.25 4.25 44.3 4.25 44.3 2.1 51.2 2.1 51.2 1.1 54.15 1.1 54.15 2.1 61.4 2.1 61.4 4.25 M20.5 1.7 L18.9 1.7 18.9 6.3 19.9 6.3 Q20.5 6.3 20.5 5.75 L20.5 1.7 M16.4 1.7 L14.95 1.7 14.95 6.3 16.4 6.3 16.4 1.7 M-61.75 -8.0 L-54.8 -8.0 -54.8 -5.85 -56.95 -5.85 -56.95 -1.6 -55.15 -1.6 -55.15 0.5 -56.95 0.5 -56.95 6.05 -54.8 6.05 -54.8 6.5 -53.9 6.5 Q-53.5 6.5 -53.25 5.5 L-52.4 0.55 -49.85 0.55 -50.95 6.6 Q-51.35 8.7 -53.05 8.7 L-54.95 8.7 -54.95 8.15 -61.75 8.15 -61.75 6.05 -59.45 6.05 -59.45 0.5 -61.5 0.5 -61.5 -1.6 -59.45 -1.6 -59.45 -5.85 -61.75 -5.85 -61.75 -8.0 M-54.55 -2.65 L-44.25 -2.65 -44.25 -0.45 -46.0 -0.45 -46.0 5.85 Q-46.0 6.35 -45.4 6.35 L-44.4 6.35 -44.4 8.6 -46.0 8.6 Q-48.55 8.6 -48.55 6.35 L-48.55 -0.45 -54.55 -0.45 -54.55 -2.65 M-53.5 -8.35 L-45.1 -8.35 -45.1 -6.2 -53.5 -6.2 -53.5 -8.35 M-42.5 -8.4 L-40.1 -8.4 -39.5 -6.65 Q-39.35 -6.2 -39.0 -6.2 L-38.45 -6.2 -38.45 -4.0 -40.05 -4.0 Q-41.1 -4.0 -41.55 -5.6 L-42.5 -8.4 M-42.6 -3.35 L-40.2 -3.35 -39.65 -1.5 -39.15 -1.05 -38.4 -1.05 -38.4 1.1 -40.2 1.1 Q-41.25 1.1 -41.7 -0.45 L-42.6 -3.35 M-31.4 -7.1 L-31.4 -5.0 -35.15 -5.0 -35.15 -3.15 -31.8 -3.15 -31.8 6.9 Q-31.8 8.7 -33.65 8.7 L-34.7 8.7 -34.7 6.65 -34.35 6.65 Q-33.9 6.65 -33.9 6.2 L-33.9 -1.3 -35.15 -1.3 -35.15 6.65 Q-35.15 7.55 -35.75 8.1 -36.2 8.6 -37.05 8.6 L-38.3 8.6 -38.3 6.5 -37.85 6.5 Q-37.45 6.5 -37.45 5.55 L-37.45 -5.0 -38.2 -5.0 -38.2 -7.1 -35.85 -7.1 -35.85 -8.6 -33.35 -8.6 -33.35 -7.1 -31.4 -7.1 M-31.25 -3.1 L-25.35 -3.1 -25.35 -1.5 -26.4 0.95 -25.0 0.95 -25.0 3.15 -26.75 3.15 -26.75 7.1 Q-26.75 8.6 -28.0 8.6 L-30.65 8.6 -30.65 6.6 -29.4 6.6 Q-29.0 6.6 -29.0 5.85 L-29.0 3.15 -31.4 3.15 -31.4 0.95 -28.8 0.95 -28.1 -1.0 -31.25 -1.0 -31.25 -3.1 M-30.9 -5.75 L-30.65 -6.2 -30.25 -8.65 -27.95 -8.65 -28.2 -7.4 -25.15 -7.4 -25.15 -5.25 -28.65 -5.25 -28.7 -5.0 Q-29.0 -3.7 -30.15 -3.7 L-31.1 -3.7 -31.1 -5.75 -30.9 -5.75 M-20.3 -5.05 L-19.35 -2.5 -18.15 -6.1 -23.1 -6.1 -23.1 -8.25 -15.65 -8.25 -15.65 -5.75 -18.05 1.05 -16.4 5.4 Q-16.1 6.3 -15.75 6.3 L-15.3 6.3 -15.3 8.55 -17.3 8.55 Q-17.9 8.55 -18.25 7.45 L-19.3 4.65 -20.5 8.0 Q-20.75 8.55 -21.4 8.55 L-23.25 8.55 -23.25 6.3 -22.7 6.3 Q-22.3 6.3 -22.15 5.8 L-20.6 1.15 -22.85 -5.05 -20.3 -5.05 M-11.1 -6.75 L-8.9 -6.75 Q-8.6 -6.75 -8.6 -7.15 L-8.6 -8.35 -6.25 -8.35 -6.25 -5.85 Q-6.25 -4.55 -7.65 -4.55 L-10.85 -4.55 -10.05 3.05 -9.9 3.05 Q-9.4 3.05 -9.2 2.15 L-8.55 -3.55 -6.15 -3.55 -6.95 3.5 Q-7.2 5.45 -8.45 5.45 L-9.75 5.45 -9.75 5.75 Q-9.6 6.35 -9.15 6.35 L-6.05 6.35 -6.05 8.55 -10.65 8.55 Q-12.15 8.55 -12.35 6.75 L-12.5 5.45 -15.0 5.45 -15.0 3.05 -12.7 3.05 -13.5 -4.55 -15.15 -4.55 -15.15 -6.75 -13.75 -6.75 -13.95 -8.75 -11.3 -8.75 -11.1 -6.75 M-38.1 2.1 L-39.1 6.8 Q-39.5 8.5 -41.1 8.5 L-42.5 8.5 -42.5 6.3 -41.9 6.3 Q-41.55 6.3 -41.35 5.6 L-40.5 2.1 -38.1 2.1" fill="url(#gradient1)" fill-rule="evenodd" stroke="none"/>
    <path d="M7.8 -8.6 L10.3 -8.6 10.3 -7.3 11.95 -7.3 11.95 -5.05 10.3 -5.05 10.3 -3.7 11.5 -3.7 11.5 -1.35 10.3 -1.35 10.3 6.45 Q10.3 7.4 9.65 8.05 9.2 8.6 8.25 8.6 L6.3 8.6 6.3 6.5 7.35 6.5 Q7.8 6.5 7.8 5.55 L7.8 3.8 7.75 4.0 Q7.35 4.95 6.8 4.95 L5.5 4.95 5.5 2.6 5.55 2.6 Q6.1 2.6 6.4 1.8 L7.8 -2.05 7.8 -5.05 5.8 -5.05 5.8 -7.3 7.8 -7.3 7.8 -8.6 M18.9 -8.6 L18.9 -6.85 23.05 -6.85 23.05 6.9 Q23.05 8.55 21.2 8.55 L12.4 8.55 12.4 -6.85 16.4 -6.85 16.4 -8.6 18.9 -8.6 M14.95 -0.3 L16.4 -0.3 16.4 -4.6 14.95 -4.6 14.95 -0.3 M18.9 -0.3 L20.5 -0.3 20.5 -4.6 18.9 -4.6 18.9 -0.3 M25.05 -5.8 L32.2 -5.8 32.2 -8.65 35.1 -8.65 35.1 -5.8 42.15 -5.8 42.15 -3.35 35.6 -3.35 39.3 5.15 Q39.65 6.0 40.05 6.0 L42.25 6.0 42.25 8.5 38.25 8.5 Q37.65 8.5 37.25 7.45 L33.75 -1.0 30.45 7.15 Q29.85 8.5 29.1 8.5 L25.0 8.5 25.0 6.0 27.3 6.0 Q27.9 6.0 28.55 4.25 L31.55 -3.35 25.05 -3.35 25.05 -5.8 M48.3 -6.7 L48.3 -4.75 46.8 -4.75 Q45.65 -4.75 45.35 -5.85 L44.6 -8.35 47.1 -8.35 47.45 -7.25 Q47.55 -6.7 48.0 -6.7 L48.3 -6.7 M45.2 -1.2 Q45.6 -1.2 45.8 -1.7 L46.4 -3.25 48.9 -3.25 48.9 -8.5 51.45 -8.5 51.45 0.75 48.9 0.75 48.9 -3.25 47.55 -0.25 Q47.1 0.75 46.1 0.75 L44.6 0.75 44.6 -1.2 45.2 -1.2 M56.25 -7.65 L61.2 -7.65 61.2 -5.2 59.8 -1.05 Q59.15 0.75 57.25 0.75 L52.1 0.75 52.1 -1.35 54.05 -1.35 53.75 -2.2 Q53.5 -2.5 53.1 -2.5 L52.2 -2.5 52.2 -4.15 54.3 -4.15 Q55.1 -4.15 55.65 -3.35 L56.6 -1.45 Q57.15 -1.6 57.4 -2.25 L58.35 -5.45 55.0 -5.45 Q54.75 -4.9 54.15 -4.9 L52.05 -4.9 52.05 -6.95 52.85 -6.95 53.2 -7.15 54.1 -8.5 56.7 -8.5 56.25 -7.65 M61.4 4.25 L55.15 4.25 56.75 6.15 57.65 6.35 61.15 6.35 61.15 8.6 56.1 8.6 55.05 8.35 52.65 5.4 50.3 8.35 49.25 8.6 44.6 8.6 44.6 6.35 47.65 6.35 48.55 6.15 50.25 4.25 44.3 4.25 44.3 2.1 51.2 2.1 51.2 1.1 54.15 1.1 54.15 2.1 61.4 2.1 61.4 4.25 M20.5 1.7 L18.9 1.7 18.9 6.3 19.9 6.3 Q20.5 6.3 20.5 5.75 L20.5 1.7 M16.4 1.7 L14.95 1.7 14.95 6.3 16.4 6.3 16.4 1.7 M-61.75 -8.0 L-54.8 -8.0 -54.8 -5.85 -56.95 -5.85 -56.95 -1.6 -55.15 -1.6 -55.15 0.5 -56.95 0.5 -56.95 6.05 -54.8 6.05 -54.8 6.5 -53.9 6.5 Q-53.5 6.5 -53.25 5.5 L-52.4 0.55 -49.85 0.55 -50.95 6.6 Q-51.35 8.7 -53.05 8.7 L-54.95 8.7 -54.95 8.15 -61.75 8.15 -61.75 6.05 -59.45 6.05 -59.45 0.5 -61.5 0.5 -61.5 -1.6 -59.45 -1.6 -59.45 -5.85 -61.75 -5.85 -61.75 -8.0 M-54.55 -2.65 L-44.25 -2.65 -44.25 -0.45 -46.0 -0.45 -46.0 5.85 Q-46.0 6.35 -45.4 6.35 L-44.4 6.35 -44.4 8.6 -46.0 8.6 Q-48.55 8.6 -48.55 6.35 L-48.55 -0.45 -54.55 -0.45 -54.55 -2.65 M-53.5 -8.35 L-45.1 -8.35 -45.1 -6.2 -53.5 -6.2 -53.5 -8.35 M-42.5 -8.4 L-40.1 -8.4 -39.5 -6.65 Q-39.35 -6.2 -39.0 -6.2 L-38.45 -6.2 -38.45 -4.0 -40.05 -4.0 Q-41.1 -4.0 -41.55 -5.6 L-42.5 -8.4 M-42.6 -3.35 L-40.2 -3.35 -39.65 -1.5 -39.15 -1.05 -38.4 -1.05 -38.4 1.1 -40.2 1.1 Q-41.25 1.1 -41.7 -0.45 L-42.6 -3.35 M-31.4 -7.1 L-31.4 -5.0 -35.15 -5.0 -35.15 -3.15 -31.8 -3.15 -31.8 6.9 Q-31.8 8.7 -33.65 8.7 L-34.7 8.7 -34.7 6.65 -34.35 6.65 Q-33.9 6.65 -33.9 6.2 L-33.9 -1.3 -35.15 -1.3 -35.15 6.65 Q-35.15 7.55 -35.75 8.1 -36.2 8.6 -37.05 8.6 L-38.3 8.6 -38.3 6.5 -37.85 6.5 Q-37.45 6.5 -37.45 5.55 L-37.45 -5.0 -38.2 -5.0 -38.2 -7.1 -35.85 -7.1 -35.85 -8.6 -33.35 -8.6 -33.35 -7.1 -31.4 -7.1 M-31.25 -3.1 L-25.35 -3.1 -25.35 -1.5 -26.4 0.95 -25.0 0.95 -25.0 3.15 -26.75 3.15 -26.75 7.1 Q-26.75 8.6 -28.0 8.6 L-30.65 8.6 -30.65 6.6 -29.4 6.6 Q-29.0 6.6 -29.0 5.85 L-29.0 3.15 -31.4 3.15 -31.4 0.95 -28.8 0.95 -28.1 -1.0 -31.25 -1.0 -31.25 -3.1 M-30.9 -5.75 L-30.65 -6.2 -30.25 -8.65 -27.95 -8.65 -28.2 -7.4 -25.15 -7.4 -25.15 -5.25 -28.65 -5.25 -28.7 -5.0 Q-29.0 -3.7 -30.15 -3.7 L-31.1 -3.7 -31.1 -5.75 -30.9 -5.75 M-20.3 -5.05 L-19.35 -2.5 -18.15 -6.1 -23.1 -6.1 -23.1 -8.25 -15.65 -8.25 -15.65 -5.75 -18.05 1.05 -16.4 5.4 Q-16.1 6.3 -15.75 6.3 L-15.3 6.3 -15.3 8.55 -17.3 8.55 Q-17.9 8.55 -18.25 7.45 L-19.3 4.65 -20.5 8.0 Q-20.75 8.55 -21.4 8.55 L-23.25 8.55 -23.25 6.3 -22.7 6.3 Q-22.3 6.3 -22.15 5.8 L-20.6 1.15 -22.85 -5.05 -20.3 -5.05 M-11.1 -6.75 L-8.9 -6.75 Q-8.6 -6.75 -8.6 -7.15 L-8.6 -8.35 -6.25 -8.35 -6.25 -5.85 Q-6.25 -4.55 -7.65 -4.55 L-10.85 -4.55 -10.05 3.05 -9.9 3.05 Q-9.4 3.05 -9.2 2.15 L-8.55 -3.55 -6.15 -3.55 -6.95 3.5 Q-7.2 5.45 -8.45 5.45 L-9.75 5.45 -9.75 5.75 Q-9.6 6.35 -9.15 6.35 L-6.05 6.35 -6.05 8.55 -10.65 8.55 Q-12.15 8.55 -12.35 6.75 L-12.5 5.45 -15.0 5.45 -15.0 3.05 -12.7 3.05 -13.5 -4.55 -15.15 -4.55 -15.15 -6.75 -13.75 -6.75 -13.95 -8.75 -11.3 -8.75 -11.1 -6.75 M-38.1 2.1 L-39.1 6.8 Q-39.5 8.5 -41.1 8.5 L-42.5 8.5 -42.5 6.3 -41.9 6.3 Q-41.55 6.3 -41.35 5.6 L-40.5 2.1 -38.1 2.1" fill="none" stroke="#ffffff" stroke-linecap="round" stroke-linejoin="round" stroke-width="3.75"/>
    <path d="M7.8 -7.3 L7.8 -8.6 10.3 -8.6 10.3 -7.3 11.95 -7.3 11.95 -5.05 10.3 -5.05 10.3 -3.7 11.5 -3.7 11.5 -1.35 10.3 -1.35 10.3 6.45 Q10.3 7.4 9.65 8.05 9.2 8.6 8.25 8.6 L6.3 8.6 6.3 6.5 7.35 6.5 Q7.8 6.5 7.8 5.55 L7.8 3.8 7.75 4.0 Q7.35 4.95 6.8 4.95 L5.5 4.95 5.5 2.6 5.55 2.6 Q6.1 2.6 6.4 1.8 L7.8 -2.05 7.8 -5.05 5.8 -5.05 5.8 -7.3 7.8 -7.3 M16.4 -8.6 L18.9 -8.6 18.9 -6.85 23.05 -6.85 23.05 6.9 Q23.05 8.55 21.2 8.55 L12.4 8.55 12.4 -6.85 16.4 -6.85 16.4 -8.6 M14.95 -0.3 L16.4 -0.3 16.4 -4.6 14.95 -4.6 14.95 -0.3 M18.9 -0.3 L20.5 -0.3 20.5 -4.6 18.9 -4.6 18.9 -0.3 M25.05 -5.8 L32.2 -5.8 32.2 -8.65 35.1 -8.65 35.1 -5.8 42.15 -5.8 42.15 -3.35 35.6 -3.35 39.3 5.15 Q39.65 6.0 40.05 6.0 L42.25 6.0 42.25 8.5 38.25 8.5 Q37.65 8.5 37.25 7.45 L33.75 -1.0 30.45 7.15 Q29.85 8.5 29.1 8.5 L25.0 8.5 25.0 6.0 27.3 6.0 Q27.9 6.0 28.55 4.25 L31.55 -3.35 25.05 -3.35 25.05 -5.8 M48.3 -6.7 L48.3 -4.75 46.8 -4.75 Q45.65 -4.75 45.35 -5.85 L44.6 -8.35 47.1 -8.35 47.45 -7.25 Q47.55 -6.7 48.0 -6.7 L48.3 -6.7 M45.2 -1.2 Q45.6 -1.2 45.8 -1.7 L46.4 -3.25 48.9 -3.25 48.9 -8.5 51.45 -8.5 51.45 0.75 48.9 0.75 48.9 -3.25 47.55 -0.25 Q47.1 0.75 46.1 0.75 L44.6 0.75 44.6 -1.2 45.2 -1.2 M56.25 -7.65 L61.2 -7.65 61.2 -5.2 59.8 -1.05 Q59.15 0.75 57.25 0.75 L52.1 0.75 52.1 -1.35 54.05 -1.35 53.75 -2.2 Q53.5 -2.5 53.1 -2.5 L52.2 -2.5 52.2 -4.15 54.3 -4.15 Q55.1 -4.15 55.65 -3.35 L56.6 -1.45 Q57.15 -1.6 57.4 -2.25 L58.35 -5.45 55.0 -5.45 Q54.75 -4.9 54.15 -4.9 L52.05 -4.9 52.05 -6.95 52.85 -6.95 53.2 -7.15 54.1 -8.5 56.7 -8.5 56.25 -7.65 M61.15 8.6 L56.1 8.6 55.05 8.35 52.65 5.4 50.3 8.35 49.25 8.6 44.6 8.6 44.6 6.35 47.65 6.35 48.55 6.15 50.25 4.25 44.3 4.25 44.3 2.1 51.2 2.1 51.2 1.1 54.15 1.1 54.15 2.1 61.4 2.1 61.4 4.25 55.15 4.25 56.75 6.15 57.65 6.35 61.15 6.35 61.15 8.6 M20.5 1.7 L18.9 1.7 18.9 6.3 19.9 6.3 Q20.5 6.3 20.5 5.75 L20.5 1.7 M16.4 6.3 L16.4 1.7 14.95 1.7 14.95 6.3 16.4 6.3 M-61.75 -8.0 L-54.8 -8.0 -54.8 -5.85 -56.95 -5.85 -56.95 -1.6 -55.15 -1.6 -55.15 0.5 -56.95 0.5 -56.95 6.05 -54.8 6.05 -54.8 6.5 -53.9 6.5 Q-53.5 6.5 -53.25 5.5 L-52.4 0.55 -49.85 0.55 -50.95 6.6 Q-51.35 8.7 -53.05 8.7 L-54.95 8.7 -54.95 8.15 -61.75 8.15 -61.75 6.05 -59.45 6.05 -59.45 0.5 -61.5 0.5 -61.5 -1.6 -59.45 -1.6 -59.45 -5.85 -61.75 -5.85 -61.75 -8.0 M-53.5 -8.35 L-45.1 -8.35 -45.1 -6.2 -53.5 -6.2 -53.5 -8.35 M-54.55 -2.65 L-44.25 -2.65 -44.25 -0.45 -46.0 -0.45 -46.0 5.85 Q-46.0 6.35 -45.4 6.35 L-44.4 6.35 -44.4 8.6 -46.0 8.6 Q-48.55 8.6 -48.55 6.35 L-48.55 -0.45 -54.55 -0.45 -54.55 -2.65 M-42.6 -3.35 L-40.2 -3.35 -39.65 -1.5 -39.15 -1.05 -38.4 -1.05 -38.4 1.1 -40.2 1.1 Q-41.25 1.1 -41.7 -0.45 L-42.6 -3.35 M-42.5 -8.4 L-40.1 -8.4 -39.5 -6.65 Q-39.35 -6.2 -39.0 -6.2 L-38.45 -6.2 -38.45 -4.0 -40.05 -4.0 Q-41.1 -4.0 -41.55 -5.6 L-42.5 -8.4 M-33.35 -7.1 L-31.4 -7.1 -31.4 -5.0 -35.15 -5.0 -35.15 -3.15 -31.8 -3.15 -31.8 6.9 Q-31.8 8.7 -33.65 8.7 L-34.7 8.7 -34.7 6.65 -34.35 6.65 Q-33.9 6.65 -33.9 6.2 L-33.9 -1.3 -35.15 -1.3 -35.15 6.65 Q-35.15 7.55 -35.75 8.1 -36.2 8.6 -37.05 8.6 L-38.3 8.6 -38.3 6.5 -37.85 6.5 Q-37.45 6.5 -37.45 5.55 L-37.45 -5.0 -38.2 -5.0 -38.2 -7.1 -35.85 -7.1 -35.85 -8.6 -33.35 -8.6 -33.35 -7.1 M-31.1 -5.75 L-30.9 -5.75 -30.65 -6.2 -30.25 -8.65 -27.95 -8.65 -28.2 -7.4 -25.15 -7.4 -25.15 -5.25 -28.65 -5.25 -28.7 -5.0 Q-29.0 -3.7 -30.15 -3.7 L-31.1 -3.7 -31.1 -5.75 M-31.25 -3.1 L-25.35 -3.1 -25.35 -1.5 -26.4 0.95 -25.0 0.95 -25.0 3.15 -26.75 3.15 -26.75 7.1 Q-26.75 8.6 -28.0 8.6 L-30.65 8.6 -30.65 6.6 -29.4 6.6 Q-29.0 6.6 -29.0 5.85 L-29.0 3.15 -31.4 3.15 -31.4 0.95 -28.8 0.95 -28.1 -1.0 -31.25 -1.0 -31.25 -3.1 M-20.3 -5.05 L-19.35 -2.5 -18.15 -6.1 -23.1 -6.1 -23.1 -8.25 -15.65 -8.25 -15.65 -5.75 -18.05 1.05 -16.4 5.4 Q-16.1 6.3 -15.75 6.3 L-15.3 6.3 -15.3 8.55 -17.3 8.55 Q-17.9 8.55 -18.25 7.45 L-19.3 4.65 -20.5 8.0 Q-20.75 8.55 -21.4 8.55 L-23.25 8.55 -23.25 6.3 -22.7 6.3 Q-22.3 6.3 -22.15 5.8 L-20.6 1.15 -22.85 -5.05 -20.3 -5.05 M-13.75 -6.75 L-13.95 -8.75 -11.3 -8.75 -11.1 -6.75 -8.9 -6.75 Q-8.6 -6.75 -8.6 -7.15 L-8.6 -8.35 -6.25 -8.35 -6.25 -5.85 Q-6.25 -4.55 -7.65 -4.55 L-10.85 -4.55 -10.05 3.05 -9.9 3.05 Q-9.4 3.05 -9.2 2.15 L-8.55 -3.55 -6.15 -3.55 -6.95 3.5 Q-7.2 5.45 -8.45 5.45 L-9.75 5.45 -9.75 5.75 Q-9.6 6.35 -9.15 6.35 L-6.05 6.35 -6.05 8.55 -10.65 8.55 Q-12.15 8.55 -12.35 6.75 L-12.5 5.45 -15.0 5.45 -15.0 3.05 -12.7 3.05 -13.5 -4.55 -15.15 -4.55 -15.15 -6.75 -13.75 -6.75 M-38.1 2.1 L-39.1 6.8 Q-39.5 8.5 -41.1 8.5 L-42.5 8.5 -42.5 6.3 -41.9 6.3 Q-41.55 6.3 -41.35 5.6 L-40.5 2.1 -38.1 2.1" fill="url(#gradient2)" fill-rule="evenodd" stroke="none"/>
    <path d="M7.8 -7.3 L7.8 -8.6 10.3 -8.6 10.3 -7.3 11.95 -7.3 11.95 -5.05 10.3 -5.05 10.3 -3.7 11.5 -3.7 11.5 -1.35 10.3 -1.35 10.3 6.45 Q10.3 7.4 9.65 8.05 9.2 8.6 8.25 8.6 L6.3 8.6 6.3 6.5 7.35 6.5 Q7.8 6.5 7.8 5.55 L7.8 3.8 7.75 4.0 Q7.35 4.95 6.8 4.95 L5.5 4.95 5.5 2.6 5.55 2.6 Q6.1 2.6 6.4 1.8 L7.8 -2.05 7.8 -5.05 5.8 -5.05 5.8 -7.3 7.8 -7.3 M16.4 -8.6 L18.9 -8.6 18.9 -6.85 23.05 -6.85 23.05 6.9 Q23.05 8.55 21.2 8.55 L12.4 8.55 12.4 -6.85 16.4 -6.85 16.4 -8.6 M14.95 -0.3 L16.4 -0.3 16.4 -4.6 14.95 -4.6 14.95 -0.3 M18.9 -0.3 L20.5 -0.3 20.5 -4.6 18.9 -4.6 18.9 -0.3 M25.05 -5.8 L32.2 -5.8 32.2 -8.65 35.1 -8.65 35.1 -5.8 42.15 -5.8 42.15 -3.35 35.6 -3.35 39.3 5.15 Q39.65 6.0 40.05 6.0 L42.25 6.0 42.25 8.5 38.25 8.5 Q37.65 8.5 37.25 7.45 L33.75 -1.0 30.45 7.15 Q29.85 8.5 29.1 8.5 L25.0 8.5 25.0 6.0 27.3 6.0 Q27.9 6.0 28.55 4.25 L31.55 -3.35 25.05 -3.35 25.05 -5.8 M48.3 -6.7 L48.3 -4.75 46.8 -4.75 Q45.65 -4.75 45.35 -5.85 L44.6 -8.35 47.1 -8.35 47.45 -7.25 Q47.55 -6.7 48.0 -6.7 L48.3 -6.7 M45.2 -1.2 Q45.6 -1.2 45.8 -1.7 L46.4 -3.25 48.9 -3.25 48.9 -8.5 51.45 -8.5 51.45 0.75 48.9 0.75 48.9 -3.25 47.55 -0.25 Q47.1 0.75 46.1 0.75 L44.6 0.75 44.6 -1.2 45.2 -1.2 M56.25 -7.65 L61.2 -7.65 61.2 -5.2 59.8 -1.05 Q59.15 0.75 57.25 0.75 L52.1 0.75 52.1 -1.35 54.05 -1.35 53.75 -2.2 Q53.5 -2.5 53.1 -2.5 L52.2 -2.5 52.2 -4.15 54.3 -4.15 Q55.1 -4.15 55.65 -3.35 L56.6 -1.45 Q57.15 -1.6 57.4 -2.25 L58.35 -5.45 55.0 -5.45 Q54.75 -4.9 54.15 -4.9 L52.05 -4.9 52.05 -6.95 52.85 -6.95 53.2 -7.15 54.1 -8.5 56.7 -8.5 56.25 -7.65 M61.15 8.6 L56.1 8.6 55.05 8.35 52.65 5.4 50.3 8.35 49.25 8.6 44.6 8.6 44.6 6.35 47.65 6.35 48.55 6.15 50.25 4.25 44.3 4.25 44.3 2.1 51.2 2.1 51.2 1.1 54.15 1.1 54.15 2.1 61.4 2.1 61.4 4.25 55.15 4.25 56.75 6.15 57.65 6.35 61.15 6.35 61.15 8.6 M20.5 1.7 L18.9 1.7 18.9 6.3 19.9 6.3 Q20.5 6.3 20.5 5.75 L20.5 1.7 M16.4 6.3 L16.4 1.7 14.95 1.7 14.95 6.3 16.4 6.3 M-61.75 -8.0 L-54.8 -8.0 -54.8 -5.85 -56.95 -5.85 -56.95 -1.6 -55.15 -1.6 -55.15 0.5 -56.95 0.5 -56.95 6.05 -54.8 6.05 -54.8 6.5 -53.9 6.5 Q-53.5 6.5 -53.25 5.5 L-52.4 0.55 -49.85 0.55 -50.95 6.6 Q-51.35 8.7 -53.05 8.7 L-54.95 8.7 -54.95 8.15 -61.75 8.15 -61.75 6.05 -59.45 6.05 -59.45 0.5 -61.5 0.5 -61.5 -1.6 -59.45 -1.6 -59.45 -5.85 -61.75 -5.85 -61.75 -8.0 M-53.5 -8.35 L-45.1 -8.35 -45.1 -6.2 -53.5 -6.2 -53.5 -8.35 M-54.55 -2.65 L-44.25 -2.65 -44.25 -0.45 -46.0 -0.45 -46.0 5.85 Q-46.0 6.35 -45.4 6.35 L-44.4 6.35 -44.4 8.6 -46.0 8.6 Q-48.55 8.6 -48.55 6.35 L-48.55 -0.45 -54.55 -0.45 -54.55 -2.65 M-42.6 -3.35 L-40.2 -3.35 -39.65 -1.5 -39.15 -1.05 -38.4 -1.05 -38.4 1.1 -40.2 1.1 Q-41.25 1.1 -41.7 -0.45 L-42.6 -3.35 M-42.5 -8.4 L-40.1 -8.4 -39.5 -6.65 Q-39.35 -6.2 -39.0 -6.2 L-38.45 -6.2 -38.45 -4.0 -40.05 -4.0 Q-41.1 -4.0 -41.55 -5.6 L-42.5 -8.4 M-33.35 -7.1 L-31.4 -7.1 -31.4 -5.0 -35.15 -5.0 -35.15 -3.15 -31.8 -3.15 -31.8 6.9 Q-31.8 8.7 -33.65 8.7 L-34.7 8.7 -34.7 6.65 -34.35 6.65 Q-33.9 6.65 -33.9 6.2 L-33.9 -1.3 -35.15 -1.3 -35.15 6.65 Q-35.15 7.55 -35.75 8.1 -36.2 8.6 -37.05 8.6 L-38.3 8.6 -38.3 6.5 -37.85 6.5 Q-37.45 6.5 -37.45 5.55 L-37.45 -5.0 -38.2 -5.0 -38.2 -7.1 -35.85 -7.1 -35.85 -8.6 -33.35 -8.6 -33.35 -7.1 M-31.1 -5.75 L-30.9 -5.75 -30.65 -6.2 -30.25 -8.65 -27.95 -8.65 -28.2 -7.4 -25.15 -7.4 -25.15 -5.25 -28.65 -5.25 -28.7 -5.0 Q-29.0 -3.7 -30.15 -3.7 L-31.1 -3.7 -31.1 -5.75 M-31.25 -3.1 L-25.35 -3.1 -25.35 -1.5 -26.4 0.95 -25.0 0.95 -25.0 3.15 -26.75 3.15 -26.75 7.1 Q-26.75 8.6 -28.0 8.6 L-30.65 8.6 -30.65 6.6 -29.4 6.6 Q-29.0 6.6 -29.0 5.85 L-29.0 3.15 -31.4 3.15 -31.4 0.95 -28.8 0.95 -28.1 -1.0 -31.25 -1.0 -31.25 -3.1 M-20.3 -5.05 L-19.35 -2.5 -18.15 -6.1 -23.1 -6.1 -23.1 -8.25 -15.65 -8.25 -15.65 -5.75 -18.05 1.05 -16.4 5.4 Q-16.1 6.3 -15.75 6.3 L-15.3 6.3 -15.3 8.55 -17.3 8.55 Q-17.9 8.55 -18.25 7.45 L-19.3 4.65 -20.5 8.0 Q-20.75 8.55 -21.4 8.55 L-23.25 8.55 -23.25 6.3 -22.7 6.3 Q-22.3 6.3 -22.15 5.8 L-20.6 1.15 -22.85 -5.05 -20.3 -5.05 M-13.75 -6.75 L-13.95 -8.75 -11.3 -8.75 -11.1 -6.75 -8.9 -6.75 Q-8.6 -6.75 -8.6 -7.15 L-8.6 -8.35 -6.25 -8.35 -6.25 -5.85 Q-6.25 -4.55 -7.65 -4.55 L-10.85 -4.55 -10.05 3.05 -9.9 3.05 Q-9.4 3.05 -9.2 2.15 L-8.55 -3.55 -6.15 -3.55 -6.95 3.5 Q-7.2 5.45 -8.45 5.45 L-9.75 5.45 -9.75 5.75 Q-9.6 6.35 -9.15 6.35 L-6.05 6.35 -6.05 8.55 -10.65 8.55 Q-12.15 8.55 -12.35 6.75 L-12.5 5.45 -15.0 5.45 -15.0 3.05 -12.7 3.05 -13.5 -4.55 -15.15 -4.55 -15.15 -6.75 -13.75 -6.75 M-38.1 2.1 L-39.1 6.8 Q-39.5 8.5 -41.1 8.5 L-42.5 8.5 -42.5 6.3 -41.9 6.3 Q-41.55 6.3 -41.35 5.6 L-40.5 2.1 -38.1 2.1" fill="none" stroke="#ff9900" stroke-linecap="round" stroke-linejoin="round" stroke-width="1.25"/>
    <path d="M7.8 -8.6 L10.3 -8.6 10.3 -7.3 11.95 -7.3 11.95 -5.05 10.3 -5.05 10.3 -3.7 11.5 -3.7 11.5 -1.35 10.3 -1.35 10.3 6.45 Q10.3 7.4 9.65 8.05 9.2 8.6 8.25 8.6 L6.3 8.6 6.3 6.5 7.35 6.5 Q7.8 6.5 7.8 5.55 L7.8 3.8 7.75 4.0 Q7.35 4.95 6.8 4.95 L5.5 4.95 5.5 2.6 5.55 2.6 Q6.1 2.6 6.4 1.8 L7.8 -2.05 7.8 -5.05 5.8 -5.05 5.8 -7.3 7.8 -7.3 7.8 -8.6 M18.9 -6.85 L23.05 -6.85 23.05 6.9 Q23.05 8.55 21.2 8.55 L12.4 8.55 12.4 -6.85 16.4 -6.85 16.4 -8.6 18.9 -8.6 18.9 -6.85 M14.95 -0.3 L16.4 -0.3 16.4 -4.6 14.95 -4.6 14.95 -0.3 M18.9 -0.3 L20.5 -0.3 20.5 -4.6 18.9 -4.6 18.9 -0.3 M35.1 -5.8 L42.15 -5.8 42.15 -3.35 35.6 -3.35 39.3 5.15 Q39.65 6.0 40.05 6.0 L42.25 6.0 42.25 8.5 38.25 8.5 Q37.65 8.5 37.25 7.45 L33.75 -1.0 30.45 7.15 Q29.85 8.5 29.1 8.5 L25.0 8.5 25.0 6.0 27.3 6.0 Q27.9 6.0 28.55 4.25 L31.55 -3.35 25.05 -3.35 25.05 -5.8 32.2 -5.8 32.2 -8.65 35.1 -8.65 35.1 -5.8 M48.0 -6.7 L48.3 -6.7 48.3 -4.75 46.8 -4.75 Q45.65 -4.75 45.35 -5.85 L44.6 -8.35 47.1 -8.35 47.45 -7.25 Q47.55 -6.7 48.0 -6.7 M45.2 -1.2 Q45.6 -1.2 45.8 -1.7 L46.4 -3.25 48.9 -3.25 48.9 -8.5 51.45 -8.5 51.45 0.75 48.9 0.75 48.9 -3.25 47.55 -0.25 Q47.1 0.75 46.1 0.75 L44.6 0.75 44.6 -1.2 45.2 -1.2 M56.25 -7.65 L61.2 -7.65 61.2 -5.2 59.8 -1.05 Q59.15 0.75 57.25 0.75 L52.1 0.75 52.1 -1.35 54.05 -1.35 53.75 -2.2 Q53.5 -2.5 53.1 -2.5 L52.2 -2.5 52.2 -4.15 54.3 -4.15 Q55.1 -4.15 55.65 -3.35 L56.6 -1.45 Q57.15 -1.6 57.4 -2.25 L58.35 -5.45 55.0 -5.45 Q54.75 -4.9 54.15 -4.9 L52.05 -4.9 52.05 -6.95 52.85 -6.95 53.2 -7.15 54.1 -8.5 56.7 -8.5 56.25 -7.65 M61.4 4.25 L55.15 4.25 56.75 6.15 57.65 6.35 61.15 6.35 61.15 8.6 56.1 8.6 55.05 8.35 52.65 5.4 50.3 8.35 49.25 8.6 44.6 8.6 44.6 6.35 47.65 6.35 48.55 6.15 50.25 4.25 44.3 4.25 44.3 2.1 51.2 2.1 51.2 1.1 54.15 1.1 54.15 2.1 61.4 2.1 61.4 4.25 M20.5 1.7 L18.9 1.7 18.9 6.3 19.9 6.3 Q20.5 6.3 20.5 5.75 L20.5 1.7 M16.4 1.7 L14.95 1.7 14.95 6.3 16.4 6.3 16.4 1.7 M-61.75 -8.0 L-54.8 -8.0 -54.8 -5.85 -56.95 -5.85 -56.95 -1.6 -55.15 -1.6 -55.15 0.5 -56.95 0.5 -56.95 6.05 -54.8 6.05 -54.8 6.5 -53.9 6.5 Q-53.5 6.5 -53.25 5.5 L-52.4 0.55 -49.85 0.55 -50.95 6.6 Q-51.35 8.7 -53.05 8.7 L-54.95 8.7 -54.95 8.15 -61.75 8.15 -61.75 6.05 -59.45 6.05 -59.45 0.5 -61.5 0.5 -61.5 -1.6 -59.45 -1.6 -59.45 -5.85 -61.75 -5.85 -61.75 -8.0 M-53.5 -8.35 L-45.1 -8.35 -45.1 -6.2 -53.5 -6.2 -53.5 -8.35 M-54.55 -2.65 L-44.25 -2.65 -44.25 -0.45 -46.0 -0.45 -46.0 5.85 Q-46.0 6.35 -45.4 6.35 L-44.4 6.35 -44.4 8.6 -46.0 8.6 Q-48.55 8.6 -48.55 6.35 L-48.55 -0.45 -54.55 -0.45 -54.55 -2.65 M-42.6 -3.35 L-40.2 -3.35 -39.65 -1.5 -39.15 -1.05 -38.4 -1.05 -38.4 1.1 -40.2 1.1 Q-41.25 1.1 -41.7 -0.45 L-42.6 -3.35 M-42.5 -8.4 L-40.1 -8.4 -39.5 -6.65 Q-39.35 -6.2 -39.0 -6.2 L-38.45 -6.2 -38.45 -4.0 -40.05 -4.0 Q-41.1 -4.0 -41.55 -5.6 L-42.5 -8.4 M-31.4 -7.1 L-31.4 -5.0 -35.15 -5.0 -35.15 -3.15 -31.8 -3.15 -31.8 6.9 Q-31.8 8.7 -33.65 8.7 L-34.7 8.7 -34.7 6.65 -34.35 6.65 Q-33.9 6.65 -33.9 6.2 L-33.9 -1.3 -35.15 -1.3 -35.15 6.65 Q-35.15 7.55 -35.75 8.1 -36.2 8.6 -37.05 8.6 L-38.3 8.6 -38.3 6.5 -37.85 6.5 Q-37.45 6.5 -37.45 5.55 L-37.45 -5.0 -38.2 -5.0 -38.2 -7.1 -35.85 -7.1 -35.85 -8.6 -33.35 -8.6 -33.35 -7.1 -31.4 -7.1 M-30.9 -5.75 L-30.65 -6.2 -30.25 -8.65 -27.95 -8.65 -28.2 -7.4 -25.15 -7.4 -25.15 -5.25 -28.65 -5.25 -28.7 -5.0 Q-29.0 -3.7 -30.15 -3.7 L-31.1 -3.7 -31.1 -5.75 -30.9 -5.75 M-31.25 -3.1 L-25.35 -3.1 -25.35 -1.5 -26.4 0.95 -25.0 0.95 -25.0 3.15 -26.75 3.15 -26.75 7.1 Q-26.75 8.6 -28.0 8.6 L-30.65 8.6 -30.65 6.6 -29.4 6.6 Q-29.0 6.6 -29.0 5.85 L-29.0 3.15 -31.4 3.15 -31.4 0.95 -28.8 0.95 -28.1 -1.0 -31.25 -1.0 -31.25 -3.1 M-20.3 -5.05 L-19.35 -2.5 -18.15 -6.1 -23.1 -6.1 -23.1 -8.25 -15.65 -8.25 -15.65 -5.75 -18.05 1.05 -16.4 5.4 Q-16.1 6.3 -15.75 6.3 L-15.3 6.3 -15.3 8.55 -17.3 8.55 Q-17.9 8.55 -18.25 7.45 L-19.3 4.65 -20.5 8.0 Q-20.75 8.55 -21.4 8.55 L-23.25 8.55 -23.25 6.3 -22.7 6.3 Q-22.3 6.3 -22.15 5.8 L-20.6 1.15 -22.85 -5.05 -20.3 -5.05 M-11.1 -6.75 L-8.9 -6.75 Q-8.6 -6.75 -8.6 -7.15 L-8.6 -8.35 -6.25 -8.35 -6.25 -5.85 Q-6.25 -4.55 -7.65 -4.55 L-10.85 -4.55 -10.05 3.05 -9.9 3.05 Q-9.4 3.05 -9.2 2.15 L-8.55 -3.55 -6.15 -3.55 -6.95 3.5 Q-7.2 5.45 -8.45 5.45 L-9.75 5.45 -9.75 5.75 Q-9.6 6.35 -9.15 6.35 L-6.05 6.35 -6.05 8.55 -10.65 8.55 Q-12.15 8.55 -12.35 6.75 L-12.5 5.45 -15.0 5.45 -15.0 3.05 -12.7 3.05 -13.5 -4.55 -15.15 -4.55 -15.15 -6.75 -13.75 -6.75 -13.95 -8.75 -11.3 -8.75 -11.1 -6.75 M-38.1 2.1 L-39.1 6.8 Q-39.5 8.5 -41.1 8.5 L-42.5 8.5 -42.5 6.3 -41.9 6.3 Q-41.55 6.3 -41.35 5.6 L-40.5 2.1 -38.1 2.1" fill="url(#gradient3)" fill-rule="evenodd" stroke="none"/>
  </g>
  <defs>
    <linearGradient gradientTransform="matrix(0.0, -0.0107, 0.0752, 0.0, -0.2, 0.0)" gradientUnits="userSpaceOnUse" id="gradient0" spreadMethod="pad" x1="-819.2" x2="819.2">
      <stop offset="0.0" stop-color="#ffff99"/>
      <stop offset="0.6784313725490196" stop-color="#ff9900"/>
      <stop offset="0.7450980392156863" stop-color="#ffff99"/>
    </linearGradient>
    <linearGradient gradientTransform="matrix(0.0, -0.0107, 0.0752, 0.0, -0.2, 0.0)" gradientUnits="userSpaceOnUse" id="gradient1" spreadMethod="pad" x1="-819.2" x2="819.2">
      <stop offset="0.0" stop-color="#ffff99"/>
      <stop offset="0.6784313725490196" stop-color="#ff9900"/>
      <stop offset="0.7450980392156863" stop-color="#ffff99"/>
    </linearGradient>
    <linearGradient gradientTransform="matrix(0.0, -0.0107, 0.0752, 0.0, -0.2, 0.0)" gradientUnits="userSpaceOnUse" id="gradient2" spreadMethod="pad" x1="-819.2" x2="819.2">
      <stop offset="0.0" stop-color="#ffff99"/>
      <stop offset="0.6784313725490196" stop-color="#ff9900"/>
      <stop offset="0.7450980392156863" stop-color="#ffff99"/>
    </linearGradient>
    <linearGradient gradientTransform="matrix(0.0, -0.0107, 0.0752, 0.0, -0.2, 0.0)" gradientUnits="userSpaceOnUse" id="gradient3" spreadMethod="pad" x1="-819.2" x2="819.2">
      <stop offset="0.0" stop-color="#ffff99"/>
      <stop offset="0.6784313725490196" stop-color="#ff9900"/>
      <stop offset="0.7450980392156863" stop-color="#ffff99"/>
    </linearGradient>
  </defs>
</svg>
