<?xml version="1.0" encoding="UTF-8" standalone="no"?>
<svg xmlns:xlink="http://www.w3.org/1999/xlink" height="80.15px" width="132.2px" xmlns="http://www.w3.org/2000/svg">
  <g transform="matrix(1.0, 0.0, 0.0, 1.0, 0.0, 0.0)">
    <path d="M132.2 32.35 L129.8 32.95 122.65 35.3 112.85 37.85 104.5 39.95 Q101.75 40.85 100.7 42.0 106.8 42.3 118.65 37.85 L132.2 32.8 132.2 80.15 0.0 80.15 0.0 0.0 132.2 0.0 132.2 32.35 M130.35 46.05 Q126.4 45.95 124.35 46.15 116.1 47.8 112.1 47.65 99.15 47.1 96.45 49.85 L107.9 50.55 Q123.15 50.55 130.35 46.05 M102.3 37.35 Q114.5 37.35 132.0 26.5 121.35 29.2 111.8 32.0 L95.0 36.85 102.3 37.35" fill="#ffffcc" fill-opacity="0.7019608" fill-rule="evenodd" stroke="none"/>
    <path d="M130.35 46.05 Q123.15 50.55 107.9 50.55 L96.45 49.85 Q99.15 47.1 112.1 47.65 116.1 47.8 124.35 46.15 126.4 45.95 130.35 46.05 M132.2 32.8 L118.65 37.85 Q106.8 42.3 100.7 42.0 101.75 40.85 104.5 39.95 L112.85 37.85 122.65 35.3 129.8 32.95 132.2 32.35 132.2 32.8 M102.3 37.35 L95.0 36.85 111.8 32.0 Q121.35 29.2 132.0 26.5 114.5 37.35 102.3 37.35" fill="#cccc66" fill-opacity="0.7019608" fill-rule="evenodd" stroke="none"/>
  </g>
</svg>
