<?xml version="1.0" encoding="UTF-8" standalone="no"?>
<svg xmlns:xlink="http://www.w3.org/1999/xlink" height="2.5px" width="2.65px" xmlns="http://www.w3.org/2000/svg">
  <g transform="matrix(1.0, 0.0, 0.0, 1.0, 0.0, 0.0)">
    <path d="M1.2 1.75 Q0.7 1.75 0.7 1.25 0.7 0.75 1.25 0.75 1.7 0.75 1.7 1.25 1.7 1.75 1.2 1.75 M1.9 0.7 L1.6 0.4 Q1.6 0.1 1.95 0.1 L2.2 0.4 1.9 0.7 M1.0 0.6 L0.7 0.3 Q0.7 0.0 1.05 0.0 L1.3 0.3 1.0 0.6 M0.35 0.6 Q0.6 0.6 0.6 0.9 L0.3 1.2 0.0 0.9 Q0.0 0.6 0.35 0.6 M0.05 1.85 Q0.05 1.55 0.4 1.55 L0.65 1.85 0.35 2.15 0.05 1.85 M1.75 2.0 Q1.75 1.7 2.1 1.7 2.3 1.7 2.35 2.0 L2.05 2.3 1.75 2.0 M1.2 2.5 L0.9 2.2 Q0.9 1.9 1.25 1.9 L1.5 2.2 1.2 2.5 M2.35 1.5 L2.05 1.2 Q2.05 0.9 2.4 0.9 L2.65 1.2 2.35 1.5" fill="#ffcc00" fill-rule="evenodd" stroke="none"/>
  </g>
</svg>
