<?xml version="1.0" encoding="UTF-8" standalone="no"?>
<svg xmlns:xlink="http://www.w3.org/1999/xlink" height="282.95px" width="321.1px" xmlns="http://www.w3.org/2000/svg">
  <g transform="matrix(1.0, 0.0, 0.0, 1.0, 0.0, 0.0)">
    <path d="M278.7 123.95 L278.5 124.0 278.5 124.85 Q276.5 120.75 273.75 116.55 L268.0 108.5 Q274.35 103.6 273.65 101.7 272.95 99.8 272.4 99.75 L266.05 96.3 Q269.15 91.0 271.4 85.45 L273.65 79.0 275.05 73.7 275.8 69.7 Q278.35 56.4 281.25 46.45 282.5 42.1 283.65 35.75 L285.3 24.0 285.35 23.9 287.0 7.95 287.0 7.75 287.1 6.85 287.4 4.2 284.2 0.0 289.95 0.0 Q292.3 6.25 299.0 16.15 L305.2 25.0 304.15 27.6 Q307.25 31.85 314.8 51.55 L318.95 54.15 Q319.4 57.1 320.35 60.8 321.1 63.7 321.1 68.85 321.1 71.3 319.5 73.4 L315.55 77.35 Q308.6 83.75 305.2 92.1 297.95 109.8 296.55 121.6 L296.55 131.85 293.55 130.9 Q293.4 127.8 292.85 124.6 292.1 120.1 293.6 113.0 L296.15 100.05 Q298.1 90.75 300.3 81.75 302.5 72.7 308.75 67.75 312.6 64.65 315.3 63.8 306.85 64.85 302.4 71.85 300.45 74.95 298.7 80.05 L295.9 89.15 Q293.9 95.4 290.85 108.15 287.95 118.4 282.8 127.55 L280.05 126.8 Q279.05 125.15 278.7 125.25 L278.75 125.0 278.55 124.95 278.55 124.9 278.8 124.95 282.55 114.3 Q287.0 102.7 289.95 93.1 299.7 61.8 316.05 55.6 313.4 56.3 307.15 59.15 299.55 62.6 298.2 62.6 L296.25 62.3 Q295.9 61.9 295.9 59.0 295.9 51.25 298.75 43.3 301.6 36.7 301.6 35.6 L301.6 34.45 301.1 34.95 Q296.1 39.7 292.4 46.7 290.3 50.6 286.95 58.9 L286.95 59.45 286.95 59.7 Q286.7 63.0 280.0 95.1 278.5 103.1 278.6 114.75 L278.5 123.95 278.7 123.95 M137.45 13.8 L140.6 15.8 Q151.95 23.55 159.9 36.05 162.9 40.85 165.45 46.3 L168.85 54.5 168.95 54.85 Q172.6 65.0 174.85 77.15 L175.4 80.35 173.55 80.45 170.15 80.5 168.5 80.5 167.9 80.5 Q167.6 74.85 164.9 67.65 162.55 61.45 160.3 58.05 L159.55 57.0 149.95 46.4 149.9 46.35 149.35 45.7 149.05 45.3 147.6 43.75 146.3 42.55 145.8 42.2 Q139.4 37.55 126.75 29.2 L126.5 28.7 126.35 25.05 126.05 17.25 Q126.05 9.7 129.95 8.25 L141.0 7.65 139.7 10.0 132.15 10.85 137.45 13.8 M163.75 79.55 L158.65 77.5 158.3 77.35 158.25 77.2 155.65 71.1 152.2 63.7 Q150.6 60.45 148.5 57.9 145.55 54.3 141.55 52.1 134.7 48.2 132.25 47.25 130.3 46.5 125.3 46.3 L121.0 46.2 117.8 46.25 115.4 46.4 113.7 46.45 113.65 46.5 114.2 47.95 113.6 48.9 Q112.3 51.05 110.75 54.35 L110.45 51.6 110.65 48.5 Q111.0 45.65 112.15 44.2 L119.05 37.1 Q121.65 34.15 122.15 31.1 L122.15 29.15 Q122.25 27.9 123.35 27.3 L124.0 26.85 Q123.85 30.1 126.45 31.95 L132.85 36.15 Q136.45 39.5 143.9 44.8 161.95 61.4 163.75 79.55 M4.35 238.05 L3.4 237.05 Q0.0 233.4 0.0 230.1 0.0 225.15 4.35 216.1 L9.65 206.2 Q12.75 200.3 15.05 197.8 16.9 195.8 22.35 192.25 L36.25 183.35 51.75 173.25 Q58.75 168.5 62.1 166.9 L62.35 166.75 62.7 166.55 68.35 163.3 Q74.3 160.1 78.05 159.75 L88.85 158.1 Q97.85 156.7 101.9 157.25 L110.55 158.35 Q115.2 158.85 123.4 162.0 131.55 165.1 139.4 165.8 147.25 166.5 152.9 162.0 L150.2 166.3 150.05 166.55 150.0 166.35 138.6 169.55 Q127.45 172.7 122.1 172.7 L108.9 171.95 88.45 170.45 88.1 170.4 79.5 170.85 71.6 171.65 Q66.6 171.9 61.75 174.05 72.25 172.3 76.65 172.3 82.15 172.3 94.05 174.85 100.45 176.2 112.95 176.35 L113.7 176.35 126.2 176.35 Q130.85 176.0 135.6 173.7 L149.85 166.8 149.4 167.4 Q144.45 174.2 138.1 178.45 L93.7 189.55 Q90.85 188.1 90.95 186.05 L89.3 186.05 89.3 190.6 84.3 191.85 Q77.45 191.55 74.35 190.4 74.05 190.15 73.75 190.15 69.85 188.7 61.55 186.65 52.7 184.45 44.8 187.65 36.9 190.85 33.65 198.3 30.4 205.7 30.0 211.9 29.65 217.1 28.0 220.4 L27.35 221.55 Q26.5 224.1 21.45 232.65 L19.45 235.95 Q13.35 246.0 13.35 249.1 13.35 254.9 15.85 260.25 9.65 250.1 8.75 242.95 L8.55 240.5 Q8.55 236.45 11.0 229.45 13.6 222.05 17.55 215.8 L14.4 218.3 Q9.9 221.9 8.65 224.75 6.65 229.3 4.35 238.05 M165.05 150.75 L167.8 150.4 169.1 148.0 Q170.7 144.65 171.25 141.5 171.7 138.85 171.9 132.95 L173.3 130.65 175.45 126.65 Q177.2 134.1 175.45 147.5 L172.85 156.4 Q171.25 161.7 169.65 163.6 173.65 159.65 174.5 156.95 175.2 152.9 176.05 149.0 L177.3 144.95 Q178.25 141.4 177.85 139.65 178.55 135.45 178.55 129.3 L178.4 124.95 Q178.1 123.1 177.1 121.1 L176.65 117.25 176.5 115.75 176.1 111.65 175.95 110.1 175.1 102.3 175.1 99.25 177.85 99.0 Q178.3 102.05 179.5 104.6 L179.65 104.85 179.7 104.95 180.05 111.6 Q181.1 118.8 181.05 122.6 L181.2 132.5 Q181.35 138.55 180.6 144.65 179.8 150.75 177.6 158.7 175.35 166.65 172.75 169.45 L172.35 169.85 164.25 171.9 Q167.4 167.85 168.1 162.9 168.4 160.75 168.3 157.5 L168.3 156.05 167.2 158.85 Q164.8 164.55 160.15 170.2 L156.55 173.8 145.85 176.5 153.65 170.35 Q161.2 165.25 165.05 150.75 M125.45 34.15 Q125.35 36.5 123.45 37.8 L120.0 39.8 126.05 39.8 Q134.6 41.25 144.85 48.7 138.85 42.3 135.15 39.7 130.9 36.8 125.45 34.15" fill="#ffffcc" fill-opacity="0.7019608" fill-rule="evenodd" stroke="none"/>
    <path d="M293.55 130.9 L282.8 127.55 Q287.95 118.4 290.85 108.15 293.9 95.4 295.9 89.15 L298.7 80.05 Q300.45 74.95 302.4 71.85 306.85 64.85 315.3 63.8 312.6 64.65 308.75 67.75 302.5 72.7 300.3 81.75 298.1 90.75 296.15 100.05 L293.6 113.0 Q292.1 120.1 292.85 124.6 293.4 127.8 293.55 130.9 M278.55 124.9 L278.7 123.95 278.5 123.95 278.6 114.75 Q278.5 103.1 280.0 95.1 286.7 63.0 286.95 59.7 L286.95 59.45 286.95 58.9 Q290.3 50.6 292.4 46.7 296.1 39.7 301.1 34.95 L301.6 34.45 301.6 35.6 Q301.6 36.7 298.75 43.3 295.9 51.25 295.9 59.0 295.9 61.9 296.25 62.3 L298.2 62.6 Q299.55 62.6 307.15 59.15 313.4 56.3 316.05 55.6 299.7 61.8 289.95 93.1 287.0 102.7 282.55 114.3 L278.8 124.95 278.55 124.9 M137.45 13.8 L132.15 10.85 139.7 10.0 137.45 13.8 M126.35 25.05 L126.5 28.7 126.55 29.05 126.75 29.2 Q139.4 37.55 145.8 42.2 L146.3 42.55 147.6 43.75 149.05 45.3 149.35 45.7 149.9 46.35 149.95 46.4 159.55 57.0 160.3 58.05 Q162.55 61.45 164.9 67.65 167.6 74.85 167.9 80.5 L163.75 79.55 Q161.95 61.4 143.9 44.8 136.45 39.5 132.85 36.15 L126.45 31.95 Q123.85 30.1 124.0 26.85 L126.35 25.05 M152.9 162.0 Q155.8 156.65 156.95 151.1 L162.7 150.95 165.05 150.75 Q161.2 165.25 153.65 170.35 L145.85 176.5 138.1 178.45 Q144.45 174.2 149.4 167.4 L149.85 166.8 135.6 173.7 Q130.85 176.0 126.2 176.35 L113.7 176.35 112.95 176.35 Q100.45 176.2 94.05 174.85 82.15 172.3 76.65 172.3 72.25 172.3 61.75 174.05 66.6 171.9 71.6 171.65 L79.5 170.85 88.1 170.4 88.45 170.45 108.9 171.95 122.1 172.7 Q127.45 172.7 138.6 169.55 L150.0 166.35 150.05 166.55 150.2 166.3 152.9 162.0 M175.45 126.65 L177.45 123.4 177.4 123.05 177.1 121.1 Q178.1 123.1 178.4 124.95 L178.55 129.3 Q178.55 135.45 177.85 139.65 178.25 141.4 177.3 144.95 L176.05 149.0 Q175.2 152.9 174.5 156.95 173.65 159.65 169.65 163.6 171.25 161.7 172.85 156.4 L175.45 147.5 Q177.2 134.1 175.45 126.65 M164.25 171.9 L156.55 173.8 160.15 170.2 Q164.8 164.55 167.2 158.85 L168.3 156.05 168.3 157.5 Q168.4 160.75 168.1 162.9 167.4 167.85 164.25 171.9 M73.75 190.15 L58.3 190.7 Q46.8 192.35 43.05 196.5 40.5 199.35 38.1 203.2 L34.2 209.65 Q33.35 210.95 30.6 216.15 L28.0 220.4 Q29.65 217.1 30.0 211.9 30.4 205.7 33.65 198.3 36.9 190.85 44.8 187.65 52.7 184.45 61.55 186.65 69.85 188.7 73.75 190.15 M21.45 232.65 L21.65 236.1 Q23.3 240.85 28.9 247.8 L28.15 248.45 Q26.5 249.75 25.95 254.85 25.35 259.95 27.85 262.95 L36.1 269.65 Q38.0 271.2 42.75 277.65 45.9 282.0 50.15 282.95 45.55 283.15 39.75 280.95 33.2 278.5 27.3 273.85 19.25 267.5 15.85 260.25 13.35 254.9 13.35 249.1 13.35 246.0 19.45 235.95 L21.45 232.65 M8.75 242.95 L4.35 238.05 Q6.65 229.3 8.65 224.75 9.9 221.9 14.4 218.3 L17.55 215.8 Q13.6 222.05 11.0 229.45 8.55 236.45 8.55 240.5 L8.75 242.95 M125.45 34.15 Q130.9 36.8 135.15 39.7 138.85 42.3 144.85 48.7 134.6 41.25 126.05 39.8 L120.0 39.8 123.45 37.8 Q125.35 36.5 125.45 34.15" fill="#cccc66" fill-opacity="0.7019608" fill-rule="evenodd" stroke="none"/>
  </g>
</svg>
