<?xml version="1.0" encoding="UTF-8" standalone="no"?>
<svg xmlns:xlink="http://www.w3.org/1999/xlink" height="27.9px" width="60.8px" xmlns="http://www.w3.org/2000/svg">
  <g transform="matrix(1.0, 0.0, 0.0, 1.0, 30.4, 13.95)">
    <path d="M8.4 -12.45 L8.65 -11.15 11.45 -11.15 11.45 -9.6 8.7 -9.6 8.7 -7.55 11.3 -7.55 11.3 -6.0 8.7 -6.0 8.7 -3.3 11.55 -3.3 11.55 -1.7 4.1 -1.7 4.1 -3.3 7.0 -3.3 7.0 -6.0 4.4 -6.0 4.4 -7.55 7.0 -7.55 7.0 -9.6 4.25 -9.6 4.25 -11.15 6.9 -11.15 6.65 -12.45 8.4 -12.45 M3.1 -10.85 Q3.2 -10.45 3.45 -10.45 L3.9 -10.45 3.9 -8.9 2.65 -8.9 2.5 -8.9 Q1.8 -9.0 1.6 -9.8 L1.05 -12.3 2.8 -12.3 3.1 -10.85 M0.75 -8.85 L2.5 -8.85 2.75 -7.65 Q2.8 -7.25 3.1 -7.25 L4.05 -7.25 4.05 -5.7 2.25 -5.7 Q1.5 -5.7 1.3 -6.6 L0.75 -8.85 M1.6 -3.2 L1.95 -3.55 2.4 -5.3 4.2 -5.3 3.5 -2.55 Q3.25 -1.6 2.2 -1.6 L0.7 -1.6 0.7 -3.2 1.6 -3.2 M20.0 -7.7 L21.25 -7.7 21.25 -10.9 20.0 -10.9 20.0 -7.7 M16.15 -10.85 L15.0 -10.85 15.0 -7.7 16.15 -7.7 16.15 -10.85 M18.5 -12.25 L22.75 -12.25 22.75 -7.7 23.5 -7.7 23.5 -6.15 22.75 -6.15 22.75 -2.7 Q22.75 -1.55 21.4 -1.55 L20.55 -1.55 20.55 -2.85 20.9 -2.85 21.25 -3.1 21.25 -6.15 20.0 -6.15 20.0 -2.5 Q20.0 -1.55 19.05 -1.55 L18.0 -1.55 18.0 -2.8 18.25 -2.8 18.5 -3.05 18.5 -6.15 17.65 -6.15 17.65 -2.65 Q17.65 -1.55 16.3 -1.55 L15.55 -1.55 15.55 -2.8 15.8 -2.8 16.15 -3.05 16.15 -6.15 15.0 -6.15 15.0 -2.5 Q15.0 -1.55 14.0 -1.55 L13.15 -1.55 13.15 -2.8 13.25 -2.8 13.5 -3.05 13.5 -6.15 12.7 -6.15 12.7 -7.7 13.5 -7.7 13.5 -12.25 17.65 -12.25 17.65 -7.7 18.5 -7.7 18.5 -12.25 M28.6 5.1 L28.9 7.1 28.6 9.0 Q28.25 10.05 27.45 10.9 L25.3 12.45 25.25 12.35 27.05 10.65 Q27.8 9.8 28.0 9.0 L28.3 7.1 28.0 5.15 Q27.8 4.3 27.05 3.45 L25.25 1.8 25.3 1.65 Q26.65 2.3 27.45 3.3 28.25 4.1 28.6 5.1 M21.75 2.2 L22.7 4.1 Q22.9 4.5 23.2 4.5 L23.5 4.5 23.5 6.2 22.6 6.2 21.8 5.6 20.45 3.5 20.0 3.35 14.0 3.35 14.0 1.85 21.05 1.85 Q21.45 1.85 21.75 2.2 M21.35 10.65 L21.35 8.1 16.9 8.1 15.45 11.85 Q15.25 12.45 14.8 12.45 L13.0 12.45 13.0 10.95 13.9 10.95 14.05 10.85 15.1 8.1 13.05 8.1 13.05 6.65 23.0 6.65 23.0 11.15 Q23.0 12.45 21.5 12.45 L17.75 12.45 17.75 10.95 20.95 10.95 Q21.35 10.95 21.35 10.65 M14.35 6.15 L13.1 6.15 13.1 4.7 13.7 4.7 13.9 4.5 14.15 3.8 15.9 3.8 15.15 5.55 Q14.9 6.15 14.35 6.15 M10.3 8.15 L6.1 8.15 6.1 1.95 11.45 1.95 11.45 7.1 Q11.45 8.15 10.3 8.15 M11.65 11.15 L11.65 12.45 10.75 12.45 Q9.95 12.45 9.7 11.55 L8.95 8.65 10.45 8.65 11.0 10.75 Q11.1 11.15 11.3 11.15 L11.65 11.15 M7.65 3.45 L7.65 6.7 9.5 6.7 Q9.9 6.7 9.9 6.4 L9.9 3.45 7.65 3.45 M5.8 2.25 Q5.8 3.55 4.3 3.55 L4.05 3.55 4.05 4.5 5.9 4.5 5.9 5.9 4.05 5.9 4.05 6.5 5.3 6.5 5.65 9.45 Q5.65 9.65 5.8 9.65 L5.95 9.65 5.95 10.95 5.2 10.95 Q4.4 10.95 4.3 10.0 L4.05 7.0 4.05 12.45 2.6 12.45 2.6 7.2 2.3 11.3 1.95 12.0 1.2 12.25 0.55 12.25 0.55 10.95 0.75 10.95 1.05 10.6 1.3 6.5 2.6 6.5 2.6 5.9 0.7 5.9 0.7 4.5 2.6 4.5 2.6 3.55 0.9 3.55 0.9 2.15 3.95 2.15 4.25 1.95 4.25 1.7 5.8 1.7 5.8 2.25 M6.15 11.25 L6.45 10.8 6.85 8.65 8.35 8.65 7.75 11.5 Q7.55 12.45 6.65 12.45 L5.6 12.45 5.6 11.25 6.15 11.25 M-20.5 -11.45 L-19.45 -11.45 -19.45 -10.05 -20.5 -10.05 -20.5 -9.2 -19.7 -9.2 -19.7 -7.75 -20.5 -7.75 -20.5 -2.9 Q-20.5 -2.3 -20.85 -1.9 -21.15 -1.55 -21.75 -1.55 L-22.95 -1.55 -22.95 -2.85 -22.3 -2.85 Q-22.05 -2.85 -22.05 -3.45 L-22.05 -4.4 Q-22.3 -3.8 -22.65 -3.8 L-23.5 -3.8 -23.5 -5.3 -23.45 -5.3 Q-23.05 -5.3 -22.9 -5.75 L-22.05 -8.2 -22.05 -10.05 -23.3 -10.05 -23.3 -11.45 -22.05 -11.45 -22.05 -12.25 -20.5 -12.25 -20.5 -11.45 M-11.05 -12.1 L-9.5 -12.1 -9.25 -11.4 -8.95 -11.1 -8.75 -11.1 -8.75 -9.85 -9.7 -9.85 Q-10.4 -9.85 -10.6 -10.55 L-11.05 -12.1 M-15.1 -9.8 L-15.1 -7.1 -14.1 -7.1 -14.1 -9.8 -15.1 -9.8 M-15.1 -11.2 L-12.5 -11.2 -12.5 -2.6 Q-12.5 -1.55 -13.7 -1.55 L-19.15 -1.55 -19.15 -11.2 -16.7 -11.2 -16.7 -12.25 -15.1 -12.25 -15.1 -11.2 M-10.3 -7.95 L-9.95 -8.95 -8.4 -8.95 -8.4 -12.2 -6.8 -12.2 -6.8 -6.45 -8.4 -6.45 -8.4 -8.95 -9.2 -7.05 Q-9.5 -6.45 -10.1 -6.45 L-11.05 -6.45 -11.05 -7.65 -10.7 -7.65 Q-10.4 -7.65 -10.3 -7.95 M-17.6 -9.8 L-17.6 -7.1 -16.7 -7.1 -16.7 -9.8 -17.6 -9.8 M-17.6 -5.85 L-17.6 -3.0 -16.7 -3.0 -16.7 -5.85 -17.6 -5.85 M-11.25 -5.6 L-6.95 -5.6 -6.95 -6.2 -5.1 -6.2 -5.1 -5.6 -0.55 -5.6 -0.55 -4.25 -4.5 -4.25 -3.45 -3.05 -2.9 -2.95 -0.75 -2.95 -0.75 -1.55 -3.9 -1.55 -4.55 -1.7 -6.05 -3.55 -7.5 -1.7 Q-7.75 -1.55 -8.15 -1.55 L-11.05 -1.55 -11.05 -2.95 -9.15 -2.95 -8.6 -3.05 -7.55 -4.25 -11.25 -4.25 -11.25 -5.6 M-14.5 -3.0 Q-14.1 -3.0 -14.1 -3.3 L-14.1 -5.85 -15.1 -5.85 -15.1 -3.0 -14.5 -3.0 M-0.7 -10.15 L-1.55 -7.55 Q-1.95 -6.45 -3.2 -6.45 L-6.35 -6.45 -6.35 -7.75 -5.15 -7.75 -5.35 -8.3 -5.75 -8.45 -6.3 -8.45 -6.3 -9.5 -5.0 -9.5 Q-4.5 -9.5 -4.15 -9.0 L-3.55 -7.8 Q-3.2 -7.9 -3.1 -8.3 L-2.5 -10.3 -4.55 -10.3 Q-4.75 -9.95 -5.1 -9.95 L-6.4 -9.95 -6.4 -11.25 -5.9 -11.25 Q-5.75 -11.25 -5.7 -11.35 L-5.15 -12.2 -3.5 -12.2 -3.8 -11.7 -0.7 -11.7 -0.7 -10.15 M-0.75 2.6 L-0.75 4.05 -4.4 4.05 -4.85 5.0 -0.5 5.0 -0.5 6.45 -5.45 6.45 -5.9 7.45 -0.6 7.45 -0.6 8.4 Q-0.6 8.85 -0.85 9.1 L-2.55 11.05 -0.65 11.05 -0.65 12.45 -5.05 12.45 -5.55 12.25 -8.15 10.0 -5.6 10.0 -4.55 10.8 -3.0 8.85 -8.1 8.85 -8.1 8.1 -7.95 7.55 -7.45 6.45 -8.5 6.45 -8.5 5.0 -6.8 5.0 -6.35 4.05 -8.15 4.05 -8.15 2.6 -5.65 2.6 -5.3 1.75 -3.4 1.75 -3.75 2.6 -0.75 2.6 M-7.85 1.75 L-9.0 4.45 -9.0 12.45 -10.65 12.45 -10.65 5.65 -11.25 5.65 -11.25 4.1 -10.8 4.1 Q-10.55 4.1 -10.4 3.7 L-9.55 1.75 -7.85 1.75 M-13.45 5.95 L-17.75 5.95 -17.75 10.75 -12.45 10.75 -12.45 12.3 -23.3 12.3 -23.3 10.75 -19.55 10.75 -19.55 1.7 -17.75 1.7 -17.75 4.4 -13.45 4.4 -13.45 5.95 M-25.2 1.8 L-27.05 3.45 Q-27.8 4.3 -28.0 5.15 L-28.3 7.1 -28.05 9.0 -27.1 10.7 -25.25 12.35 -25.3 12.45 -27.45 10.85 Q-28.25 10.05 -28.6 9.0 L-28.9 7.1 -28.6 5.1 Q-28.25 4.1 -27.45 3.3 -26.65 2.3 -25.3 1.65 L-25.2 1.8" fill="#ffffff" fill-rule="evenodd" stroke="none"/>
    <path d="M8.4 -12.45 L8.65 -11.15 11.45 -11.15 11.45 -9.6 8.7 -9.6 8.7 -7.55 11.3 -7.55 11.3 -6.0 8.7 -6.0 8.7 -3.3 11.55 -3.3 11.55 -1.7 4.1 -1.7 4.1 -3.3 7.0 -3.3 7.0 -6.0 4.4 -6.0 4.4 -7.55 7.0 -7.55 7.0 -9.6 4.25 -9.6 4.25 -11.15 6.9 -11.15 6.65 -12.45 8.4 -12.45 M3.1 -10.85 Q3.2 -10.45 3.45 -10.45 L3.9 -10.45 3.9 -8.9 2.65 -8.9 2.5 -8.9 Q1.8 -9.0 1.6 -9.8 L1.05 -12.3 2.8 -12.3 3.1 -10.85 M0.75 -8.85 L2.5 -8.85 2.75 -7.65 Q2.8 -7.25 3.1 -7.25 L4.05 -7.25 4.05 -5.7 2.25 -5.7 Q1.5 -5.7 1.3 -6.6 L0.75 -8.85 M1.6 -3.2 L1.95 -3.55 2.4 -5.3 4.2 -5.3 3.5 -2.55 Q3.25 -1.6 2.2 -1.6 L0.7 -1.6 0.7 -3.2 1.6 -3.2 M20.0 -7.7 L21.25 -7.7 21.25 -10.9 20.0 -10.9 20.0 -7.7 M16.15 -10.85 L15.0 -10.85 15.0 -7.7 16.15 -7.7 16.15 -10.85 M18.5 -12.25 L22.75 -12.25 22.75 -7.7 23.5 -7.7 23.5 -6.15 22.75 -6.15 22.75 -2.7 Q22.75 -1.55 21.4 -1.55 L20.55 -1.55 20.55 -2.85 20.9 -2.85 21.25 -3.1 21.25 -6.15 20.0 -6.15 20.0 -2.5 Q20.0 -1.55 19.05 -1.55 L18.0 -1.55 18.0 -2.8 18.25 -2.8 18.5 -3.05 18.5 -6.15 17.65 -6.15 17.65 -2.65 Q17.65 -1.55 16.3 -1.55 L15.55 -1.55 15.55 -2.8 15.8 -2.8 16.15 -3.05 16.15 -6.15 15.0 -6.15 15.0 -2.5 Q15.0 -1.55 14.0 -1.55 L13.15 -1.55 13.15 -2.8 13.25 -2.8 13.5 -3.05 13.5 -6.15 12.7 -6.15 12.7 -7.7 13.5 -7.7 13.5 -12.25 17.65 -12.25 17.65 -7.7 18.5 -7.7 18.5 -12.25 M28.6 5.1 L28.9 7.1 28.6 9.0 Q28.25 10.05 27.45 10.9 L25.3 12.45 25.25 12.35 27.05 10.65 Q27.8 9.8 28.0 9.0 L28.3 7.1 28.0 5.15 Q27.8 4.3 27.05 3.45 L25.25 1.8 25.3 1.65 Q26.65 2.3 27.45 3.3 28.25 4.1 28.6 5.1 M21.75 2.2 L22.7 4.1 Q22.9 4.5 23.2 4.5 L23.5 4.5 23.5 6.2 22.6 6.2 21.8 5.6 20.45 3.5 20.0 3.35 14.0 3.35 14.0 1.85 21.05 1.85 Q21.45 1.85 21.75 2.2 M21.35 10.65 L21.35 8.1 16.9 8.1 15.45 11.85 Q15.25 12.45 14.8 12.45 L13.0 12.45 13.0 10.95 13.9 10.95 14.05 10.85 15.1 8.1 13.05 8.1 13.05 6.65 23.0 6.65 23.0 11.15 Q23.0 12.45 21.5 12.45 L17.75 12.45 17.75 10.95 20.95 10.95 Q21.35 10.95 21.35 10.65 M14.35 6.15 L13.1 6.15 13.1 4.7 13.7 4.7 13.9 4.5 14.15 3.8 15.9 3.8 15.15 5.55 Q14.9 6.15 14.35 6.15 M10.3 8.15 L6.1 8.15 6.1 1.95 11.45 1.95 11.45 7.1 Q11.45 8.15 10.3 8.15 M11.65 11.15 L11.65 12.45 10.75 12.45 Q9.95 12.45 9.7 11.55 L8.95 8.65 10.45 8.65 11.0 10.75 Q11.1 11.15 11.3 11.15 L11.65 11.15 M7.65 3.45 L7.65 6.7 9.5 6.7 Q9.9 6.7 9.9 6.4 L9.9 3.45 7.65 3.45 M5.8 2.25 Q5.8 3.55 4.3 3.55 L4.05 3.55 4.05 4.5 5.9 4.5 5.9 5.9 4.05 5.9 4.05 6.5 5.3 6.5 5.65 9.45 Q5.65 9.65 5.8 9.65 L5.95 9.65 5.95 10.95 5.2 10.95 Q4.4 10.95 4.3 10.0 L4.05 7.0 4.05 12.45 2.6 12.45 2.6 7.2 2.3 11.3 1.95 12.0 1.2 12.25 0.55 12.25 0.55 10.95 0.75 10.95 1.05 10.6 1.3 6.5 2.6 6.5 2.6 5.9 0.7 5.9 0.7 4.5 2.6 4.5 2.6 3.55 0.9 3.55 0.9 2.15 3.95 2.15 4.25 1.95 4.25 1.7 5.8 1.7 5.8 2.25 M6.15 11.25 L6.45 10.8 6.85 8.65 8.35 8.65 7.75 11.5 Q7.55 12.45 6.65 12.45 L5.6 12.45 5.6 11.25 6.15 11.25 M-20.5 -11.45 L-19.45 -11.45 -19.45 -10.05 -20.5 -10.05 -20.5 -9.2 -19.7 -9.2 -19.7 -7.75 -20.5 -7.75 -20.5 -2.9 Q-20.5 -2.3 -20.85 -1.9 -21.15 -1.55 -21.75 -1.55 L-22.95 -1.55 -22.95 -2.85 -22.3 -2.85 Q-22.05 -2.85 -22.05 -3.45 L-22.05 -4.4 Q-22.3 -3.8 -22.65 -3.8 L-23.5 -3.8 -23.5 -5.3 -23.45 -5.3 Q-23.05 -5.3 -22.9 -5.75 L-22.05 -8.2 -22.05 -10.05 -23.3 -10.05 -23.3 -11.45 -22.05 -11.45 -22.05 -12.25 -20.5 -12.25 -20.5 -11.45 M-11.05 -12.1 L-9.5 -12.1 -9.25 -11.4 -8.95 -11.1 -8.75 -11.1 -8.75 -9.85 -9.7 -9.85 Q-10.4 -9.85 -10.6 -10.55 L-11.05 -12.1 M-15.1 -9.8 L-15.1 -7.1 -14.1 -7.1 -14.1 -9.8 -15.1 -9.8 M-15.1 -11.2 L-12.5 -11.2 -12.5 -2.6 Q-12.5 -1.55 -13.7 -1.55 L-19.15 -1.55 -19.15 -11.2 -16.7 -11.2 -16.7 -12.25 -15.1 -12.25 -15.1 -11.2 M-10.3 -7.95 L-9.95 -8.95 -8.4 -8.95 -8.4 -12.2 -6.8 -12.2 -6.8 -6.45 -8.4 -6.45 -8.4 -8.95 -9.2 -7.05 Q-9.5 -6.45 -10.1 -6.45 L-11.05 -6.45 -11.05 -7.65 -10.7 -7.65 Q-10.4 -7.65 -10.3 -7.95 M-17.6 -9.8 L-17.6 -7.1 -16.7 -7.1 -16.7 -9.8 -17.6 -9.8 M-17.6 -5.85 L-17.6 -3.0 -16.7 -3.0 -16.7 -5.85 -17.6 -5.85 M-11.25 -5.6 L-6.95 -5.6 -6.95 -6.2 -5.1 -6.2 -5.1 -5.6 -0.55 -5.6 -0.55 -4.25 -4.5 -4.25 -3.45 -3.05 -2.9 -2.95 -0.75 -2.95 -0.75 -1.55 -3.9 -1.55 -4.55 -1.7 -6.05 -3.55 -7.5 -1.7 Q-7.75 -1.55 -8.15 -1.55 L-11.05 -1.55 -11.05 -2.95 -9.15 -2.95 -8.6 -3.05 -7.55 -4.25 -11.25 -4.25 -11.25 -5.6 M-14.5 -3.0 Q-14.1 -3.0 -14.1 -3.3 L-14.1 -5.85 -15.1 -5.85 -15.1 -3.0 -14.5 -3.0 M-0.7 -10.15 L-1.55 -7.55 Q-1.95 -6.45 -3.2 -6.45 L-6.35 -6.45 -6.35 -7.75 -5.15 -7.75 -5.35 -8.3 -5.75 -8.45 -6.3 -8.45 -6.3 -9.5 -5.0 -9.5 Q-4.5 -9.5 -4.15 -9.0 L-3.55 -7.8 Q-3.2 -7.9 -3.1 -8.3 L-2.5 -10.3 -4.55 -10.3 Q-4.75 -9.95 -5.1 -9.95 L-6.4 -9.95 -6.4 -11.25 -5.9 -11.25 Q-5.75 -11.25 -5.7 -11.35 L-5.15 -12.2 -3.5 -12.2 -3.8 -11.7 -0.7 -11.7 -0.7 -10.15 M-0.75 2.6 L-0.75 4.05 -4.4 4.05 -4.85 5.0 -0.5 5.0 -0.5 6.45 -5.45 6.45 -5.9 7.45 -0.6 7.45 -0.6 8.4 Q-0.6 8.85 -0.85 9.1 L-2.55 11.05 -0.65 11.05 -0.65 12.45 -5.05 12.45 -5.55 12.25 -8.15 10.0 -5.6 10.0 -4.55 10.8 -3.0 8.85 -8.1 8.85 -8.1 8.1 -7.95 7.55 -7.45 6.45 -8.5 6.45 -8.5 5.0 -6.8 5.0 -6.35 4.05 -8.15 4.05 -8.15 2.6 -5.65 2.6 -5.3 1.75 -3.4 1.75 -3.75 2.6 -0.75 2.6 M-7.85 1.75 L-9.0 4.45 -9.0 12.45 -10.65 12.45 -10.65 5.65 -11.25 5.65 -11.25 4.1 -10.8 4.1 Q-10.55 4.1 -10.4 3.7 L-9.55 1.75 -7.85 1.75 M-13.45 5.95 L-17.75 5.95 -17.75 10.75 -12.45 10.75 -12.45 12.3 -23.3 12.3 -23.3 10.75 -19.55 10.75 -19.55 1.7 -17.75 1.7 -17.75 4.4 -13.45 4.4 -13.45 5.95 M-25.2 1.8 L-27.05 3.45 Q-27.8 4.3 -28.0 5.15 L-28.3 7.1 -28.05 9.0 -27.1 10.7 -25.25 12.35 -25.3 12.45 -27.45 10.85 Q-28.25 10.05 -28.6 9.0 L-28.9 7.1 -28.6 5.1 Q-28.25 4.1 -27.45 3.3 -26.65 2.3 -25.3 1.65 L-25.2 1.8" fill="none" stroke="#003399" stroke-linecap="round" stroke-linejoin="round" stroke-width="3.0"/>
    <path d="M8.4 -12.45 L8.65 -11.15 11.45 -11.15 11.45 -9.6 8.7 -9.6 8.7 -7.55 11.3 -7.55 11.3 -6.0 8.7 -6.0 8.7 -3.3 11.55 -3.3 11.55 -1.7 4.1 -1.7 4.1 -3.3 7.0 -3.3 7.0 -6.0 4.4 -6.0 4.4 -7.55 7.0 -7.55 7.0 -9.6 4.25 -9.6 4.25 -11.15 6.9 -11.15 6.65 -12.45 8.4 -12.45 M3.9 -10.45 L3.9 -8.9 2.65 -8.9 Q1.8 -8.9 1.6 -9.8 L1.05 -12.3 2.8 -12.3 3.1 -10.85 Q3.2 -10.45 3.45 -10.45 L3.9 -10.45 M0.75 -8.85 L2.5 -8.85 2.75 -7.65 Q2.8 -7.25 3.1 -7.25 L4.05 -7.25 4.05 -5.7 2.25 -5.7 Q1.5 -5.7 1.3 -6.6 L0.75 -8.85 M1.6 -3.2 L1.95 -3.55 2.4 -5.3 4.2 -5.3 3.5 -2.55 Q3.25 -1.6 2.2 -1.6 L0.7 -1.6 0.7 -3.2 1.6 -3.2 M18.5 -12.25 L22.75 -12.25 22.75 -7.7 23.5 -7.7 23.5 -6.15 22.75 -6.15 22.75 -2.7 Q22.75 -1.55 21.4 -1.55 L20.55 -1.55 20.55 -2.85 20.9 -2.85 21.25 -3.1 21.25 -6.15 20.0 -6.15 20.0 -2.5 Q20.0 -1.55 19.05 -1.55 L18.0 -1.55 18.0 -2.8 18.25 -2.8 18.5 -3.05 18.5 -6.15 17.65 -6.15 17.65 -2.65 Q17.65 -1.55 16.3 -1.55 L15.55 -1.55 15.55 -2.8 15.8 -2.8 16.15 -3.05 16.15 -6.15 15.0 -6.15 15.0 -2.5 Q15.0 -1.55 14.0 -1.55 L13.15 -1.55 13.15 -2.8 13.25 -2.8 13.5 -3.05 13.5 -6.15 12.7 -6.15 12.7 -7.7 13.5 -7.7 13.5 -12.25 17.65 -12.25 17.65 -7.7 18.5 -7.7 18.5 -12.25 M20.0 -7.7 L21.25 -7.7 21.25 -10.9 20.0 -10.9 20.0 -7.7 M16.15 -10.85 L15.0 -10.85 15.0 -7.7 16.15 -7.7 16.15 -10.85 M28.6 5.1 L28.9 7.1 28.6 9.0 Q28.25 10.05 27.45 10.9 L25.3 12.45 25.25 12.35 27.05 10.65 Q27.8 9.8 28.0 9.0 L28.3 7.1 28.0 5.15 Q27.8 4.3 27.05 3.45 L25.25 1.8 25.3 1.65 Q26.65 2.3 27.45 3.3 28.25 4.1 28.6 5.1 M21.75 2.2 L22.7 4.1 Q22.9 4.5 23.2 4.5 L23.5 4.5 23.5 6.2 22.6 6.2 21.8 5.6 20.45 3.5 20.0 3.35 14.0 3.35 14.0 1.85 21.05 1.85 Q21.45 1.85 21.75 2.2 M21.35 10.65 L21.35 8.1 16.9 8.1 15.45 11.85 Q15.25 12.45 14.8 12.45 L13.0 12.45 13.0 10.95 13.9 10.95 14.05 10.85 15.1 8.1 13.05 8.1 13.05 6.65 23.0 6.65 23.0 11.15 Q23.0 12.45 21.5 12.45 L17.75 12.45 17.75 10.95 20.95 10.95 Q21.35 10.95 21.35 10.65 M14.35 6.15 L13.1 6.15 13.1 4.7 13.7 4.7 13.9 4.5 14.15 3.8 15.9 3.8 15.15 5.55 Q14.9 6.15 14.35 6.15 M10.3 8.15 L6.1 8.15 6.1 1.95 11.45 1.95 11.45 7.1 Q11.45 8.15 10.3 8.15 M11.65 11.15 L11.65 12.45 10.75 12.45 Q9.95 12.45 9.7 11.55 L8.95 8.65 10.45 8.65 11.0 10.75 Q11.1 11.15 11.3 11.15 L11.65 11.15 M5.8 2.25 Q5.8 3.55 4.3 3.55 L4.05 3.55 4.05 4.5 5.9 4.5 5.9 5.9 4.05 5.9 4.05 6.5 5.3 6.5 5.65 9.45 Q5.65 9.65 5.8 9.65 L5.95 9.65 5.95 10.95 5.2 10.95 Q4.4 10.95 4.3 10.0 L4.05 7.0 4.05 12.45 2.6 12.45 2.6 7.2 2.3 11.3 1.95 12.0 1.2 12.25 0.55 12.25 0.55 10.95 0.75 10.95 1.05 10.6 1.3 6.5 2.6 6.5 2.6 5.9 0.7 5.9 0.7 4.5 2.6 4.5 2.6 3.55 0.9 3.55 0.9 2.15 3.95 2.15 4.25 1.95 4.25 1.7 5.8 1.7 5.8 2.25 M7.65 3.45 L7.65 6.7 9.5 6.7 Q9.9 6.7 9.9 6.4 L9.9 3.45 7.65 3.45 M6.15 11.25 L6.45 10.8 6.85 8.65 8.35 8.65 7.75 11.5 Q7.55 12.45 6.65 12.45 L5.6 12.45 5.6 11.25 6.15 11.25 M-20.5 -11.45 L-19.45 -11.45 -19.45 -10.05 -20.5 -10.05 -20.5 -9.2 -19.7 -9.2 -19.7 -7.75 -20.5 -7.75 -20.5 -2.9 Q-20.5 -2.3 -20.85 -1.9 -21.15 -1.55 -21.75 -1.55 L-22.95 -1.55 -22.95 -2.85 -22.3 -2.85 Q-22.05 -2.85 -22.05 -3.45 L-22.05 -4.4 Q-22.3 -3.8 -22.65 -3.8 L-23.5 -3.8 -23.5 -5.3 -23.45 -5.3 Q-23.05 -5.3 -22.9 -5.75 L-22.05 -8.2 -22.05 -10.05 -23.3 -10.05 -23.3 -11.45 -22.05 -11.45 -22.05 -12.25 -20.5 -12.25 -20.5 -11.45 M-11.05 -12.1 L-9.5 -12.1 -9.25 -11.4 -8.95 -11.1 -8.75 -11.1 -8.75 -9.85 -9.7 -9.85 Q-10.4 -9.85 -10.6 -10.55 L-11.05 -12.1 M-15.1 -9.8 L-15.1 -7.1 -14.1 -7.1 -14.1 -9.8 -15.1 -9.8 M-15.1 -11.2 L-12.5 -11.2 -12.5 -2.6 Q-12.5 -1.55 -13.7 -1.55 L-19.15 -1.55 -19.15 -11.2 -16.7 -11.2 -16.7 -12.25 -15.1 -12.25 -15.1 -11.2 M-10.3 -7.95 L-9.95 -8.95 -8.4 -8.95 -8.4 -12.2 -6.8 -12.2 -6.8 -6.45 -8.4 -6.45 -8.4 -8.95 -9.2 -7.05 Q-9.5 -6.45 -10.1 -6.45 L-11.05 -6.45 -11.05 -7.65 -10.7 -7.65 Q-10.4 -7.65 -10.3 -7.95 M-16.7 -9.8 L-17.6 -9.8 -17.6 -7.1 -16.7 -7.1 -16.7 -9.8 M-17.6 -5.85 L-17.6 -3.0 -16.7 -3.0 -16.7 -5.85 -17.6 -5.85 M-11.25 -5.6 L-6.95 -5.6 -6.95 -6.2 -5.1 -6.2 -5.1 -5.6 -0.55 -5.6 -0.55 -4.25 -4.5 -4.25 -3.45 -3.05 -2.9 -2.95 -0.75 -2.95 -0.75 -1.55 -3.9 -1.55 -4.55 -1.7 -6.05 -3.55 -7.5 -1.7 Q-7.75 -1.55 -8.15 -1.55 L-11.05 -1.55 -11.05 -2.95 -9.15 -2.95 -8.6 -3.05 -7.55 -4.25 -11.25 -4.25 -11.25 -5.6 M-14.5 -3.0 Q-14.1 -3.0 -14.1 -3.3 L-14.1 -5.85 -15.1 -5.85 -15.1 -3.0 -14.5 -3.0 M-0.7 -10.15 L-1.55 -7.55 Q-1.95 -6.45 -3.2 -6.45 L-6.35 -6.45 -6.35 -7.75 -5.15 -7.75 -5.35 -8.3 -5.75 -8.45 -6.3 -8.45 -6.3 -9.5 -5.0 -9.5 Q-4.5 -9.5 -4.15 -9.0 L-3.55 -7.8 Q-3.2 -7.9 -3.1 -8.3 L-2.5 -10.3 -4.55 -10.3 Q-4.75 -9.95 -5.1 -9.95 L-6.4 -9.95 -6.4 -11.25 -5.9 -11.25 Q-5.75 -11.25 -5.7 -11.35 L-5.15 -12.2 -3.5 -12.2 -3.8 -11.7 -0.7 -11.7 -0.7 -10.15 M-0.75 2.6 L-0.75 4.05 -4.4 4.05 -4.85 5.0 -0.5 5.0 -0.5 6.45 -5.45 6.45 -5.9 7.45 -0.6 7.45 -0.6 8.4 Q-0.6 8.85 -0.85 9.1 L-2.55 11.05 -0.65 11.05 -0.65 12.45 -5.05 12.45 -5.55 12.25 -8.15 10.0 -5.6 10.0 -4.55 10.8 -3.0 8.85 -8.1 8.85 -8.1 8.1 -7.95 7.55 -7.45 6.45 -8.5 6.45 -8.5 5.0 -6.8 5.0 -6.35 4.05 -8.15 4.05 -8.15 2.6 -5.65 2.6 -5.3 1.75 -3.4 1.75 -3.75 2.6 -0.75 2.6 M-9.0 4.45 L-9.0 12.45 -10.65 12.45 -10.65 5.65 -11.25 5.65 -11.25 4.1 -10.8 4.1 Q-10.55 4.1 -10.4 3.7 L-9.55 1.75 -7.85 1.75 -9.0 4.45 M-13.45 5.95 L-17.75 5.95 -17.75 10.75 -12.45 10.75 -12.45 12.3 -23.3 12.3 -23.3 10.75 -19.55 10.75 -19.55 1.7 -17.75 1.7 -17.75 4.4 -13.45 4.4 -13.45 5.95 M-25.2 1.8 L-27.05 3.45 Q-27.8 4.3 -28.0 5.15 L-28.3 7.1 -28.05 9.0 -27.1 10.7 -25.25 12.35 -25.3 12.45 -27.45 10.85 Q-28.25 10.05 -28.6 9.0 L-28.9 7.1 -28.6 5.1 Q-28.25 4.1 -27.45 3.3 -26.65 2.3 -25.3 1.65 L-25.2 1.8" fill="#ffffff" fill-rule="evenodd" stroke="none"/>
  </g>
</svg>
