<?xml version="1.0" encoding="UTF-8" standalone="no"?>
<svg xmlns:xlink="http://www.w3.org/1999/xlink" height="13.85px" width="49.8px" xmlns="http://www.w3.org/2000/svg">
  <g transform="matrix(1.0, 0.0, 0.0, 1.0, 24.9, 6.95)">
    <path d="M2.15 -5.2 L9.0 -5.2 Q9.45 -5.2 9.6 -4.85 L10.45 -1.9 Q10.65 -1.55 11.15 -1.55 L11.4 -1.55 11.4 -0.05 10.25 -0.05 Q9.25 -0.05 8.9 -0.9 L8.35 -3.35 7.9 -3.6 2.15 -3.6 2.15 -5.2 M2.9 -0.4 Q2.55 0.45 1.8 0.45 L0.6 0.45 0.6 -1.05 1.15 -1.05 1.6 -1.5 2.1 -3.0 3.9 -3.0 2.9 -0.4 M6.65 -2.0 L3.55 3.8 8.9 3.8 9.05 3.6 8.4 1.05 10.05 1.05 10.9 3.95 10.6 4.9 9.95 5.25 1.6 5.25 1.6 4.25 1.85 3.4 4.75 -2.0 6.65 -2.0 M13.0 -3.75 L13.3 -4.0 13.85 -5.2 15.7 -5.2 15.35 -4.5 17.35 -4.5 17.35 -5.45 19.1 -5.45 19.1 -4.5 23.0 -4.5 23.0 -2.95 19.1 -2.95 19.1 -1.35 23.4 -1.35 23.4 0.15 12.6 0.15 12.6 -1.35 17.35 -1.35 17.35 -2.95 14.6 -2.95 14.45 -2.65 13.9 -2.25 12.7 -2.25 12.7 -3.75 13.0 -3.75 M21.15 2.35 L14.75 2.35 14.75 3.9 20.7 3.9 21.15 3.6 21.15 2.35 M21.6 5.35 L13.1 5.35 13.1 0.9 22.85 0.9 22.85 4.3 Q22.85 5.35 21.6 5.35 M-21.7 -2.15 Q-21.95 -1.65 -22.2 -1.65 L-23.4 -1.65 -23.4 -3.1 -22.95 -3.1 Q-22.85 -3.1 -22.7 -3.65 L-22.25 -5.2 -18.9 -5.2 -18.4 -3.65 -18.1 -3.1 -17.8 -3.1 -17.8 -2.85 -16.3 -2.85 -16.1 -3.85 -18.15 -3.85 -18.15 -5.2 -12.65 -5.2 -12.65 -3.85 -14.45 -3.85 -14.7 -2.85 -12.7 -2.85 -12.7 2.75 -14.15 2.75 -14.15 -1.55 -16.4 -1.55 -16.4 2.75 -17.85 2.75 -17.85 -1.65 -18.85 -1.65 -19.4 -2.15 -20.1 -3.85 -21.05 -3.85 -21.7 -2.15 M-10.8 -0.7 Q-10.5 -0.7 -10.4 -1.0 L-10.05 -2.0 -8.5 -2.0 -8.5 -5.25 -6.9 -5.25 -6.9 0.5 -8.5 0.5 -8.5 -2.0 -9.3 -0.1 Q-9.6 0.5 -10.2 0.5 L-11.15 0.5 -11.15 -0.7 -10.8 -0.7 M-11.15 -5.15 L-9.6 -5.15 -9.35 -4.45 -9.05 -4.15 -8.85 -4.15 -8.85 -2.9 -9.8 -2.9 Q-10.5 -2.9 -10.7 -3.6 L-11.15 -5.15 M-14.55 -0.8 L-14.55 2.2 -14.45 2.4 -13.6 3.95 -13.2 4.1 -12.65 4.1 -12.65 5.4 -13.85 5.4 Q-14.45 5.4 -14.7 4.95 L-15.3 3.9 -15.95 5.0 -16.65 5.4 -17.85 5.4 -17.85 4.1 -17.3 4.1 -16.9 3.95 -16.05 2.4 -16.0 2.2 -16.0 -0.8 -14.55 -0.8 M-5.8 -4.4 L-5.25 -5.25 -3.6 -5.25 -3.9 -4.75 -0.8 -4.75 -0.8 -3.2 -1.65 -0.6 Q-2.05 0.5 -3.3 0.5 L-6.45 0.5 -6.45 -0.8 -5.25 -0.8 -5.45 -1.35 -5.85 -1.5 -6.4 -1.5 -6.4 -2.55 -5.1 -2.55 Q-4.6 -2.55 -4.25 -2.05 L-3.65 -0.85 Q-3.3 -0.95 -3.2 -1.35 L-2.6 -3.35 -4.65 -3.35 Q-4.85 -3.0 -5.2 -3.0 L-6.5 -3.0 -6.5 -4.3 -6.0 -4.3 Q-5.85 -4.3 -5.8 -4.4 M-18.2 -1.2 L-18.2 0.15 -23.1 0.15 -23.1 -1.2 -18.2 -1.2 M-0.65 2.7 L-4.6 2.7 -3.55 3.9 -3.0 4.0 -0.85 4.0 -0.85 5.4 -4.0 5.4 -4.65 5.25 -6.15 3.4 -7.6 5.25 -8.25 5.4 -11.15 5.4 -11.15 4.0 -9.25 4.0 -8.7 3.9 -7.65 2.7 -11.35 2.7 -11.35 1.35 -7.05 1.35 -7.05 0.75 -5.2 0.75 -5.2 1.35 -0.65 1.35 -0.65 2.7 M-18.25 2.5 L-19.25 4.05 -18.1 4.05 -18.1 5.35 -20.95 5.35 Q-21.15 5.35 -21.35 5.15 L-23.25 2.95 -21.35 2.95 -20.75 3.65 -19.8 2.25 -23.05 2.25 -23.05 0.85 -18.25 0.85 -18.25 2.5" fill="#ffffff" fill-rule="evenodd" stroke="none"/>
    <path d="M2.15 -5.2 L9.0 -5.2 Q9.45 -5.2 9.6 -4.85 L10.45 -1.9 Q10.65 -1.55 11.15 -1.55 L11.4 -1.55 11.4 -0.05 10.25 -0.05 Q9.25 -0.05 8.9 -0.9 L8.35 -3.35 7.9 -3.6 2.15 -3.6 2.15 -5.2 M2.9 -0.4 Q2.55 0.45 1.8 0.45 L0.6 0.45 0.6 -1.05 1.15 -1.05 1.6 -1.5 2.1 -3.0 3.9 -3.0 2.9 -0.4 M6.65 -2.0 L3.55 3.8 8.9 3.8 9.05 3.6 8.4 1.05 10.05 1.05 10.9 3.95 10.6 4.9 9.95 5.25 1.6 5.25 1.6 4.25 1.85 3.4 4.75 -2.0 6.65 -2.0 M13.0 -3.75 L13.3 -4.0 13.85 -5.2 15.7 -5.2 15.35 -4.5 17.35 -4.5 17.35 -5.45 19.1 -5.45 19.1 -4.5 23.0 -4.5 23.0 -2.95 19.1 -2.95 19.1 -1.35 23.4 -1.35 23.4 0.15 12.6 0.15 12.6 -1.35 17.35 -1.35 17.35 -2.95 14.6 -2.95 14.45 -2.65 13.9 -2.25 12.7 -2.25 12.7 -3.75 13.0 -3.75 M21.15 2.35 L14.75 2.35 14.75 3.9 20.7 3.9 21.15 3.6 21.15 2.35 M21.6 5.35 L13.1 5.35 13.1 0.9 22.85 0.9 22.85 4.3 Q22.85 5.35 21.6 5.35 M-21.7 -2.15 Q-21.95 -1.65 -22.2 -1.65 L-23.4 -1.65 -23.4 -3.1 -22.95 -3.1 Q-22.85 -3.1 -22.7 -3.65 L-22.25 -5.2 -18.9 -5.2 -18.4 -3.65 -18.1 -3.1 -17.8 -3.1 -17.8 -2.85 -16.3 -2.85 -16.1 -3.85 -18.15 -3.85 -18.15 -5.2 -12.65 -5.2 -12.65 -3.85 -14.45 -3.85 -14.7 -2.85 -12.7 -2.85 -12.7 2.75 -14.15 2.75 -14.15 -1.55 -16.4 -1.55 -16.4 2.75 -17.85 2.75 -17.85 -1.65 -18.85 -1.65 -19.4 -2.15 -20.1 -3.85 -21.05 -3.85 -21.7 -2.15 M-10.8 -0.7 Q-10.5 -0.7 -10.4 -1.0 L-10.05 -2.0 -8.5 -2.0 -8.5 -5.25 -6.9 -5.25 -6.9 0.5 -8.5 0.5 -8.5 -2.0 -9.3 -0.1 Q-9.6 0.5 -10.2 0.5 L-11.15 0.5 -11.15 -0.7 -10.8 -0.7 M-11.15 -5.15 L-9.6 -5.15 -9.35 -4.45 -9.05 -4.15 -8.85 -4.15 -8.85 -2.9 -9.8 -2.9 Q-10.5 -2.9 -10.7 -3.6 L-11.15 -5.15 M-14.55 -0.8 L-14.55 2.2 -14.45 2.4 -13.6 3.95 -13.2 4.1 -12.65 4.1 -12.65 5.4 -13.85 5.4 Q-14.45 5.4 -14.7 4.95 L-15.3 3.9 -15.95 5.0 -16.65 5.4 -17.85 5.4 -17.85 4.1 -17.3 4.1 -16.9 3.95 -16.05 2.4 -16.0 2.2 -16.0 -0.8 -14.55 -0.8 M-5.8 -4.4 L-5.25 -5.25 -3.6 -5.25 -3.9 -4.75 -0.8 -4.75 -0.8 -3.2 -1.65 -0.6 Q-2.05 0.5 -3.3 0.5 L-6.45 0.5 -6.45 -0.8 -5.25 -0.8 -5.45 -1.35 -5.85 -1.5 -6.4 -1.5 -6.4 -2.55 -5.1 -2.55 Q-4.6 -2.55 -4.25 -2.05 L-3.65 -0.85 Q-3.3 -0.95 -3.2 -1.35 L-2.6 -3.35 -4.65 -3.35 Q-4.85 -3.0 -5.2 -3.0 L-6.5 -3.0 -6.5 -4.3 -6.0 -4.3 Q-5.85 -4.3 -5.8 -4.4 M-18.2 -1.2 L-18.2 0.15 -23.1 0.15 -23.1 -1.2 -18.2 -1.2 M-0.65 2.7 L-4.6 2.7 -3.55 3.9 -3.0 4.0 -0.85 4.0 -0.85 5.4 -4.0 5.4 -4.65 5.25 -6.15 3.4 -7.6 5.25 -8.25 5.4 -11.15 5.4 -11.15 4.0 -9.25 4.0 -8.7 3.9 -7.65 2.7 -11.35 2.7 -11.35 1.35 -7.05 1.35 -7.05 0.75 -5.2 0.75 -5.2 1.35 -0.65 1.35 -0.65 2.7 M-18.25 2.5 L-19.25 4.05 -18.1 4.05 -18.1 5.35 -20.95 5.35 Q-21.15 5.35 -21.35 5.15 L-23.25 2.95 -21.35 2.95 -20.75 3.65 -19.8 2.25 -23.05 2.25 -23.05 0.85 -18.25 0.85 -18.25 2.5" fill="none" stroke="#003399" stroke-linecap="round" stroke-linejoin="round" stroke-width="3.0"/>
    <path d="M2.9 -0.4 Q2.55 0.45 1.8 0.45 L0.6 0.45 0.6 -1.05 1.15 -1.05 1.6 -1.5 2.1 -3.0 3.9 -3.0 2.9 -0.4 M2.15 -5.2 L9.0 -5.2 Q9.45 -5.2 9.6 -4.85 L10.45 -1.9 Q10.65 -1.55 11.15 -1.55 L11.4 -1.55 11.4 -0.05 10.25 -0.05 Q9.25 -0.05 8.9 -0.9 L8.35 -3.35 7.9 -3.6 2.15 -3.6 2.15 -5.2 M6.65 -2.0 L3.55 3.8 8.9 3.8 9.05 3.6 8.4 1.05 10.05 1.05 10.9 3.95 10.6 4.9 9.95 5.25 1.6 5.25 1.6 4.25 1.85 3.4 4.75 -2.0 6.65 -2.0 M13.0 -3.75 L13.3 -4.0 13.85 -5.2 15.7 -5.2 15.35 -4.5 17.35 -4.5 17.35 -5.45 19.1 -5.45 19.1 -4.5 23.0 -4.5 23.0 -2.95 19.1 -2.95 19.1 -1.35 23.4 -1.35 23.4 0.15 12.6 0.15 12.6 -1.35 17.35 -1.35 17.35 -2.95 14.6 -2.95 14.45 -2.65 13.9 -2.25 12.7 -2.25 12.7 -3.75 13.0 -3.75 M21.6 5.35 L13.1 5.35 13.1 0.9 22.85 0.9 22.85 4.3 Q22.85 5.35 21.6 5.35 M21.15 2.35 L14.75 2.35 14.75 3.9 20.7 3.9 21.15 3.6 21.15 2.35 M-22.25 -5.2 L-18.9 -5.2 -18.4 -3.65 -18.1 -3.1 -17.8 -3.1 -17.8 -2.85 -16.3 -2.85 -16.1 -3.85 -18.15 -3.85 -18.15 -5.2 -12.65 -5.2 -12.65 -3.85 -14.45 -3.85 -14.7 -2.85 -12.7 -2.85 -12.7 2.75 -14.15 2.75 -14.15 -1.55 -16.4 -1.55 -16.4 2.75 -17.85 2.75 -17.85 -1.65 -18.85 -1.65 -19.4 -2.15 -20.1 -3.85 -21.05 -3.85 -21.7 -2.15 Q-21.95 -1.65 -22.2 -1.65 L-23.4 -1.65 -23.4 -3.1 -22.95 -3.1 Q-22.85 -3.1 -22.7 -3.65 L-22.25 -5.2 M-11.15 -5.15 L-9.6 -5.15 -9.35 -4.45 -9.05 -4.15 -8.85 -4.15 -8.85 -2.9 -9.8 -2.9 Q-10.5 -2.9 -10.7 -3.6 L-11.15 -5.15 M-10.4 -1.0 L-10.05 -2.0 -8.5 -2.0 -8.5 -5.25 -6.9 -5.25 -6.9 0.5 -8.5 0.5 -8.5 -2.0 -9.3 -0.1 Q-9.6 0.5 -10.2 0.5 L-11.15 0.5 -11.15 -0.7 -10.8 -0.7 Q-10.5 -0.7 -10.4 -1.0 M-14.55 -0.8 L-14.55 2.2 -14.45 2.4 -13.6 3.95 -13.2 4.1 -12.65 4.1 -12.65 5.4 -13.85 5.4 Q-14.45 5.4 -14.7 4.95 L-15.3 3.9 -15.95 5.0 -16.65 5.4 -17.85 5.4 -17.85 4.1 -17.3 4.1 -16.9 3.95 -16.05 2.4 -16.0 2.2 -16.0 -0.8 -14.55 -0.8 M-5.8 -4.4 L-5.25 -5.25 -3.6 -5.25 -3.9 -4.75 -0.8 -4.75 -0.8 -3.2 -1.65 -0.6 Q-2.05 0.5 -3.3 0.5 L-6.45 0.5 -6.45 -0.8 -5.25 -0.8 -5.45 -1.35 -5.85 -1.5 -6.4 -1.5 -6.4 -2.55 -5.1 -2.55 Q-4.6 -2.55 -4.25 -2.05 L-3.65 -0.85 Q-3.3 -0.95 -3.2 -1.35 L-2.6 -3.35 -4.65 -3.35 Q-4.85 -3.0 -5.2 -3.0 L-6.5 -3.0 -6.5 -4.3 -6.0 -4.3 Q-5.85 -4.3 -5.8 -4.4 M-18.2 -1.2 L-18.2 0.15 -23.1 0.15 -23.1 -1.2 -18.2 -1.2 M-0.65 2.7 L-4.6 2.7 -3.55 3.9 -3.0 4.0 -0.85 4.0 -0.85 5.4 -4.0 5.4 -4.65 5.25 -6.15 3.4 -7.6 5.25 -8.25 5.4 -11.15 5.4 -11.15 4.0 -9.25 4.0 -8.7 3.9 -7.65 2.7 -11.35 2.7 -11.35 1.35 -7.05 1.35 -7.05 0.75 -5.2 0.75 -5.2 1.35 -0.65 1.35 -0.65 2.7 M-18.25 2.5 L-19.25 4.05 -18.1 4.05 -18.1 5.35 -20.95 5.35 Q-21.15 5.35 -21.35 5.15 L-23.25 2.95 -21.35 2.95 -20.75 3.65 -19.8 2.25 -23.05 2.25 -23.05 0.85 -18.25 0.85 -18.25 2.5" fill="#ffffff" fill-rule="evenodd" stroke="none"/>
  </g>
</svg>
