<?xml version="1.0" encoding="UTF-8" standalone="no"?>
<svg xmlns:xlink="http://www.w3.org/1999/xlink" height="13.8px" width="61.95px" xmlns="http://www.w3.org/2000/svg">
  <g transform="matrix(1.0, 0.0, 0.0, 1.0, 31.0, 6.9)">
    <path d="M3.9 -1.35 L5.2 -1.35 5.2 0.15 3.9 0.15 3.9 1.75 5.45 1.75 5.45 3.25 3.9 3.25 3.9 5.4 2.3 5.4 2.3 -5.4 3.9 -5.4 3.9 -4.3 5.4 -4.3 5.4 -2.85 3.9 -2.85 3.9 -1.35 M8.2 -5.4 L10.1 -5.4 9.05 -3.0 8.9 -2.7 10.25 -2.7 9.15 -0.05 9.1 0.05 9.1 5.35 7.4 5.35 7.4 0.85 6.6 0.85 6.6 -0.65 7.25 -0.65 Q7.6 -0.65 7.8 -1.15 L8.2 -2.2 7.95 -2.15 6.7 -2.15 6.7 -3.65 7.25 -3.65 7.7 -4.1 8.2 -5.4 M10.75 -5.15 L17.25 -5.15 17.25 -3.8 10.75 -3.8 10.75 -5.15 M10.55 -1.15 L10.55 -2.55 17.35 -2.55 17.35 -1.15 16.65 -1.15 16.65 3.95 Q16.65 5.35 14.95 5.35 L11.8 5.35 11.8 3.9 14.55 3.9 14.85 3.6 14.85 -1.15 10.55 -1.15 M21.4 -2.4 L21.4 5.35 20.05 5.35 20.05 -2.4 19.8 4.05 19.55 4.95 18.9 5.3 18.4 5.3 18.4 3.95 18.45 3.95 18.7 3.5 18.95 -2.4 20.05 -2.4 20.05 -3.05 18.75 -3.05 18.75 -4.45 20.05 -4.45 20.05 -5.35 21.4 -5.35 21.4 -4.45 22.85 -4.45 22.85 -3.05 21.4 -3.05 21.4 -2.4 22.5 -2.4 22.85 2.15 Q22.85 2.5 23.05 2.5 L23.25 2.5 23.25 3.85 22.45 3.85 Q21.85 3.85 21.75 2.75 L21.4 -2.4 M22.9 -4.7 L25.4 -4.7 25.4 -5.35 27.15 -5.35 27.15 -4.7 29.45 -4.7 29.45 -3.45 22.9 -3.45 22.9 -4.7 M25.0 -3.1 L25.35 -2.2 26.9 -2.2 27.25 -3.1 28.9 -3.1 28.55 -2.2 29.35 -2.2 29.35 -0.2 27.95 -0.2 27.95 -1.0 24.35 -1.0 24.35 -0.2 22.9 -0.2 22.9 -2.2 23.7 -2.2 23.35 -3.1 25.0 -3.1 M27.0 -0.6 L27.0 0.15 29.3 0.15 29.3 1.45 25.3 1.45 25.25 1.95 29.25 1.95 29.25 4.3 Q29.25 5.35 27.95 5.35 L26.3 5.35 26.3 4.15 27.4 4.15 27.75 3.9 27.75 3.2 25.05 3.2 24.9 4.6 Q24.8 5.35 24.35 5.35 L23.0 5.35 23.0 4.05 23.4 4.05 23.55 3.65 23.8 1.45 22.95 1.45 22.95 0.15 25.3 0.15 25.3 -0.6 27.0 -0.6 M1.45 5.4 L-0.15 5.4 -0.15 3.25 -1.5 3.25 -1.5 1.75 -0.15 1.75 -0.15 0.15 -1.3 0.15 -1.3 -1.35 -0.15 -1.35 -0.15 -2.85 -1.4 -2.85 -1.4 -4.3 -0.15 -4.3 -0.15 -5.4 1.45 -5.4 1.45 5.4 M-25.8 -5.1 L-25.8 -5.35 -24.25 -5.35 -24.25 -4.8 Q-24.25 -3.5 -25.75 -3.5 L-26.0 -3.5 -26.0 -2.55 -24.15 -2.55 -24.15 -1.15 -26.0 -1.15 -26.0 -0.55 -24.75 -0.55 -24.4 2.4 -24.25 2.6 -24.1 2.6 -24.1 3.9 -24.85 3.9 Q-25.65 3.9 -25.75 2.95 L-26.0 -0.05 -26.0 5.4 -27.45 5.4 -27.45 0.15 -27.75 4.25 Q-27.8 4.7 -28.1 4.95 L-28.85 5.2 -29.5 5.2 -29.5 3.9 -29.3 3.9 Q-29.05 3.9 -29.0 3.55 L-28.75 -0.55 -27.45 -0.55 -27.45 -1.15 -29.35 -1.15 -29.35 -2.55 -27.45 -2.55 -27.45 -3.5 -29.15 -3.5 -29.15 -4.9 -26.1 -4.9 -25.8 -5.1 M-22.4 -0.35 L-20.55 -0.35 Q-20.15 -0.35 -20.15 -0.65 L-20.15 -3.6 -22.4 -3.6 -22.4 -0.35 M-16.05 -5.2 L-9.0 -5.2 Q-8.6 -5.2 -8.3 -4.85 L-7.35 -2.95 -6.85 -2.55 -6.55 -2.55 -6.55 -0.85 -7.45 -0.85 -8.25 -1.45 -9.6 -3.55 -10.05 -3.7 -16.05 -3.7 -16.05 -5.2 M-15.9 -3.25 L-14.15 -3.25 -14.9 -1.5 Q-15.15 -0.9 -15.7 -0.9 L-16.95 -0.9 -16.95 -2.35 -16.35 -2.35 -16.15 -2.55 -15.9 -3.25 M-5.25 -4.2 L-4.0 -4.2 -4.0 -5.3 -2.45 -5.3 -2.45 -4.2 -1.7 -4.2 -1.7 -2.8 -2.45 -2.8 -2.45 -2.05 -1.8 -2.05 -1.8 -0.55 -2.45 -0.55 -2.45 4.05 Q-2.45 4.65 -2.8 5.05 -3.1 5.4 -3.7 5.4 L-4.95 5.4 -4.95 4.1 -4.25 4.1 Q-4.0 4.1 -4.0 3.5 L-4.0 2.35 -4.05 2.6 Q-4.3 3.15 -4.6 3.15 L-5.45 3.15 -5.45 1.65 -5.4 1.65 -4.9 1.2 -4.0 -1.3 -4.0 -2.8 -5.25 -2.8 -5.25 -4.2 M-7.05 -0.4 L-7.05 4.1 Q-7.05 5.4 -8.55 5.4 L-12.3 5.4 -12.3 3.9 -9.1 3.9 Q-8.7 3.9 -8.7 3.6 L-8.7 1.05 -13.15 1.05 -14.6 4.8 Q-14.8 5.4 -15.25 5.4 L-17.05 5.4 -17.05 3.9 -16.15 3.9 -16.0 3.8 -14.95 1.05 -17.0 1.05 -17.0 -0.4 -7.05 -0.4 M-18.6 -5.1 L-18.6 0.05 Q-18.6 1.1 -19.75 1.1 L-23.95 1.1 -23.95 -5.1 -18.6 -5.1 M-19.3 5.4 Q-20.1 5.4 -20.35 4.5 L-21.1 1.6 -19.6 1.6 -19.05 3.7 -18.75 4.1 -18.4 4.1 -18.4 5.4 -19.3 5.4 M-23.6 3.75 L-23.2 1.6 -21.7 1.6 -22.3 4.45 Q-22.5 5.4 -23.4 5.4 L-24.45 5.4 -24.45 4.2 -23.9 4.2 -23.6 3.75" fill="#ffffff" fill-rule="evenodd" stroke="none"/>
    <path d="M3.9 -1.35 L5.2 -1.35 5.2 0.15 3.9 0.15 3.9 1.75 5.45 1.75 5.45 3.25 3.9 3.25 3.9 5.4 2.3 5.4 2.3 -5.4 3.9 -5.4 3.9 -4.3 5.4 -4.3 5.4 -2.85 3.9 -2.85 3.9 -1.35 M8.2 -5.4 L10.1 -5.4 9.05 -3.0 8.9 -2.7 10.25 -2.7 9.15 -0.05 9.1 0.05 9.1 5.35 7.4 5.35 7.4 0.85 6.6 0.85 6.6 -0.65 7.25 -0.65 Q7.6 -0.65 7.8 -1.15 L8.2 -2.2 7.95 -2.15 6.7 -2.15 6.7 -3.65 7.25 -3.65 7.7 -4.1 8.2 -5.4 M10.75 -5.15 L17.25 -5.15 17.25 -3.8 10.75 -3.8 10.75 -5.15 M10.55 -1.15 L10.55 -2.55 17.35 -2.55 17.35 -1.15 16.65 -1.15 16.65 3.95 Q16.65 5.35 14.95 5.35 L11.8 5.35 11.8 3.9 14.55 3.9 14.85 3.6 14.85 -1.15 10.55 -1.15 M21.4 -2.4 L21.4 5.35 20.05 5.35 20.05 -2.4 19.8 4.05 19.55 4.95 18.9 5.3 18.4 5.3 18.4 3.95 18.45 3.95 18.7 3.5 18.95 -2.4 20.05 -2.4 20.05 -3.05 18.75 -3.05 18.75 -4.45 20.05 -4.45 20.05 -5.35 21.4 -5.35 21.4 -4.45 22.85 -4.45 22.85 -3.05 21.4 -3.05 21.4 -2.4 M22.9 -4.7 L25.4 -4.7 25.4 -5.35 27.15 -5.35 27.15 -4.7 29.45 -4.7 29.45 -3.45 22.9 -3.45 22.9 -4.7 M25.0 -3.1 L25.35 -2.2 26.9 -2.2 27.25 -3.1 28.9 -3.1 28.55 -2.2 29.35 -2.2 29.35 -0.2 27.95 -0.2 27.95 -1.0 24.35 -1.0 24.35 -0.2 22.9 -0.2 22.9 -2.2 23.7 -2.2 23.35 -3.1 25.0 -3.1 M27.0 -0.6 L27.0 0.15 29.3 0.15 29.3 1.45 25.3 1.45 25.25 1.95 29.25 1.95 29.25 4.3 Q29.25 5.35 27.95 5.35 L26.3 5.35 26.3 4.15 27.4 4.15 27.75 3.9 27.75 3.2 25.05 3.2 24.9 4.6 Q24.8 5.35 24.35 5.35 L23.0 5.35 23.0 4.05 23.4 4.05 23.55 3.65 23.8 1.45 22.95 1.45 22.95 0.15 25.3 0.15 25.3 -0.6 27.0 -0.6 M1.45 5.4 L-0.15 5.4 -0.15 3.25 -1.5 3.25 -1.5 1.75 -0.15 1.75 -0.15 0.15 -1.3 0.15 -1.3 -1.35 -0.15 -1.35 -0.15 -2.85 -1.4 -2.85 -1.4 -4.3 -0.15 -4.3 -0.15 -5.4 1.45 -5.4 1.45 5.4 M-25.8 -5.1 L-25.8 -5.35 -24.25 -5.35 -24.25 -4.8 Q-24.25 -3.5 -25.75 -3.5 L-26.0 -3.5 -26.0 -2.55 -24.15 -2.55 -24.15 -1.15 -26.0 -1.15 -26.0 -0.55 -24.75 -0.55 -24.4 2.4 -24.25 2.6 -24.1 2.6 -24.1 3.9 -24.85 3.9 Q-25.65 3.9 -25.75 2.95 L-26.0 -0.05 -26.0 5.4 -27.45 5.4 -27.45 0.15 -27.75 4.25 Q-27.8 4.7 -28.1 4.95 L-28.85 5.2 -29.5 5.2 -29.5 3.9 -29.3 3.9 Q-29.05 3.9 -29.0 3.55 L-28.75 -0.55 -27.45 -0.55 -27.45 -1.15 -29.35 -1.15 -29.35 -2.55 -27.45 -2.55 -27.45 -3.5 -29.15 -3.5 -29.15 -4.9 -26.1 -4.9 -25.8 -5.1 M-22.4 -0.35 L-20.55 -0.35 Q-20.15 -0.35 -20.15 -0.65 L-20.15 -3.6 -22.4 -3.6 -22.4 -0.35 M-16.05 -5.2 L-9.0 -5.2 Q-8.6 -5.2 -8.3 -4.85 L-7.35 -2.95 -6.85 -2.55 -6.55 -2.55 -6.55 -0.85 -7.45 -0.85 -8.25 -1.45 -9.6 -3.55 -10.05 -3.7 -16.05 -3.7 -16.05 -5.2 M-15.9 -3.25 L-14.15 -3.25 -14.9 -1.5 Q-15.15 -0.9 -15.7 -0.9 L-16.95 -0.9 -16.95 -2.35 -16.35 -2.35 -16.15 -2.55 -15.9 -3.25 M-5.25 -4.2 L-4.0 -4.2 -4.0 -5.3 -2.45 -5.3 -2.45 -4.2 -1.7 -4.2 -1.7 -2.8 -2.45 -2.8 -2.45 -2.05 -1.8 -2.05 -1.8 -0.55 -2.45 -0.55 -2.45 4.05 Q-2.45 4.65 -2.8 5.05 -3.1 5.4 -3.7 5.4 L-4.95 5.4 -4.95 4.1 -4.25 4.1 Q-4.0 4.1 -4.0 3.5 L-4.0 2.35 -4.05 2.6 Q-4.3 3.15 -4.6 3.15 L-5.45 3.15 -5.45 1.65 -5.4 1.65 -4.9 1.2 -4.0 -1.3 -4.0 -2.8 -5.25 -2.8 -5.25 -4.2 M-7.05 -0.4 L-7.05 4.1 Q-7.05 5.4 -8.55 5.4 L-12.3 5.4 -12.3 3.9 -9.1 3.9 Q-8.7 3.9 -8.7 3.6 L-8.7 1.05 -13.15 1.05 -14.6 4.8 Q-14.8 5.4 -15.25 5.4 L-17.05 5.4 -17.05 3.9 -16.15 3.9 -16.0 3.8 -14.95 1.05 -17.0 1.05 -17.0 -0.4 -7.05 -0.4 M-18.6 -5.1 L-18.6 0.05 Q-18.6 1.1 -19.75 1.1 L-23.95 1.1 -23.95 -5.1 -18.6 -5.1 M-19.3 5.4 Q-20.1 5.4 -20.35 4.5 L-21.1 1.6 -19.6 1.6 -19.05 3.7 -18.75 4.1 -18.4 4.1 -18.4 5.4 -19.3 5.4 M-23.6 3.75 L-23.2 1.6 -21.7 1.6 -22.3 4.45 Q-22.5 5.4 -23.4 5.4 L-24.45 5.4 -24.45 4.2 -23.9 4.2 -23.6 3.75" fill="none" stroke="#003399" stroke-linecap="round" stroke-linejoin="round" stroke-width="3.0"/>
    <path d="M3.9 -5.4 L3.9 -4.3 5.4 -4.3 5.4 -2.85 3.9 -2.85 3.9 -1.35 5.2 -1.35 5.2 0.15 3.9 0.15 3.9 1.75 5.45 1.75 5.45 3.25 3.9 3.25 3.9 5.4 2.3 5.4 2.3 -5.4 3.9 -5.4 M8.2 -5.4 L10.1 -5.4 9.05 -3.0 8.9 -2.7 10.25 -2.7 9.15 -0.05 9.1 0.05 9.1 5.35 7.4 5.35 7.4 0.85 6.6 0.85 6.6 -0.65 7.25 -0.65 Q7.6 -0.65 7.8 -1.15 L8.2 -2.2 7.95 -2.15 6.7 -2.15 6.7 -3.65 7.25 -3.65 7.7 -4.1 8.2 -5.4 M10.75 -5.15 L17.25 -5.15 17.25 -3.8 10.75 -3.8 10.75 -5.15 M10.55 -2.55 L17.35 -2.55 17.35 -1.15 16.65 -1.15 16.65 3.95 Q16.65 5.35 14.95 5.35 L11.8 5.35 11.8 3.9 14.55 3.9 14.85 3.6 14.85 -1.15 10.55 -1.15 10.55 -2.55 M20.05 -5.35 L21.4 -5.35 21.4 -4.45 22.85 -4.45 22.85 -3.05 21.4 -3.05 21.4 -2.4 22.5 -2.4 22.85 2.15 Q22.85 2.5 23.05 2.5 L23.25 2.5 23.25 3.85 22.45 3.85 Q21.85 3.85 21.75 2.75 L21.4 -2.4 21.4 5.35 20.05 5.35 20.05 -2.4 19.8 4.05 19.55 4.95 18.9 5.3 18.4 5.3 18.4 3.95 18.45 3.95 18.7 3.5 18.95 -2.4 20.05 -2.4 20.05 -3.05 18.75 -3.05 18.75 -4.45 20.05 -4.45 20.05 -5.35 M22.9 -4.7 L25.4 -4.7 25.4 -5.35 27.15 -5.35 27.15 -4.7 29.45 -4.7 29.45 -3.45 22.9 -3.45 22.9 -4.7 M25.0 -3.1 L25.35 -2.2 26.9 -2.2 27.25 -3.1 28.9 -3.1 28.55 -2.2 29.35 -2.2 29.35 -0.2 27.95 -0.2 27.95 -1.0 24.35 -1.0 24.35 -0.2 22.9 -0.2 22.9 -2.2 23.7 -2.2 23.35 -3.1 25.0 -3.1 M27.0 -0.6 L27.0 0.15 29.3 0.15 29.3 1.45 25.3 1.45 25.25 1.95 29.25 1.95 29.25 4.3 Q29.25 5.35 27.95 5.35 L26.3 5.35 26.3 4.15 27.4 4.15 27.75 3.9 27.75 3.2 25.05 3.2 24.9 4.6 Q24.8 5.35 24.35 5.35 L23.0 5.35 23.0 4.05 23.4 4.05 23.55 3.65 23.8 1.45 22.95 1.45 22.95 0.15 25.3 0.15 25.3 -0.6 27.0 -0.6 M1.45 5.4 L-0.15 5.4 -0.15 3.25 -1.5 3.25 -1.5 1.75 -0.15 1.75 -0.15 0.15 -1.3 0.15 -1.3 -1.35 -0.15 -1.35 -0.15 -2.85 -1.4 -2.85 -1.4 -4.3 -0.15 -4.3 -0.15 -5.4 1.45 -5.4 1.45 5.4 M-25.8 -5.1 L-25.8 -5.35 -24.25 -5.35 -24.25 -4.8 Q-24.25 -3.5 -25.75 -3.5 L-26.0 -3.5 -26.0 -2.55 -24.15 -2.55 -24.15 -1.15 -26.0 -1.15 -26.0 -0.55 -24.75 -0.55 -24.4 2.4 -24.25 2.6 -24.1 2.6 -24.1 3.9 -24.85 3.9 Q-25.65 3.9 -25.75 2.95 L-26.0 -0.05 -26.0 5.4 -27.45 5.4 -27.45 0.15 -27.75 4.25 Q-27.8 4.7 -28.1 4.95 L-28.85 5.2 -29.5 5.2 -29.5 3.9 -29.3 3.9 Q-29.05 3.9 -29.0 3.55 L-28.75 -0.55 -27.45 -0.55 -27.45 -1.15 -29.35 -1.15 -29.35 -2.55 -27.45 -2.55 -27.45 -3.5 -29.15 -3.5 -29.15 -4.9 -26.1 -4.9 -25.8 -5.1 M-22.4 -0.35 L-20.55 -0.35 Q-20.15 -0.35 -20.15 -0.65 L-20.15 -3.6 -22.4 -3.6 -22.4 -0.35 M-16.05 -5.2 L-9.0 -5.2 Q-8.6 -5.2 -8.3 -4.85 L-7.35 -2.95 -6.85 -2.55 -6.55 -2.55 -6.55 -0.85 -7.45 -0.85 -8.25 -1.45 -9.6 -3.55 -10.05 -3.7 -16.05 -3.7 -16.05 -5.2 M-15.9 -3.25 L-14.15 -3.25 -14.9 -1.5 Q-15.15 -0.9 -15.7 -0.9 L-16.95 -0.9 -16.95 -2.35 -16.35 -2.35 -16.15 -2.55 -15.9 -3.25 M-5.25 -4.2 L-4.0 -4.2 -4.0 -5.3 -2.45 -5.3 -2.45 -4.2 -1.7 -4.2 -1.7 -2.8 -2.45 -2.8 -2.45 -2.05 -1.8 -2.05 -1.8 -0.55 -2.45 -0.55 -2.45 4.05 Q-2.45 4.65 -2.8 5.05 -3.1 5.4 -3.7 5.4 L-4.95 5.4 -4.95 4.1 -4.25 4.1 Q-4.0 4.1 -4.0 3.5 L-4.0 2.35 -4.05 2.6 Q-4.3 3.15 -4.6 3.15 L-5.45 3.15 -5.45 1.65 -5.4 1.65 -4.9 1.2 -4.0 -1.3 -4.0 -2.8 -5.25 -2.8 -5.25 -4.2 M-7.05 -0.4 L-7.05 4.1 Q-7.05 5.4 -8.55 5.4 L-12.3 5.4 -12.3 3.9 -9.1 3.9 Q-8.7 3.9 -8.7 3.6 L-8.7 1.05 -13.15 1.05 -14.6 4.8 Q-14.8 5.4 -15.25 5.4 L-17.05 5.4 -17.05 3.9 -16.15 3.9 -16.0 3.8 -14.95 1.05 -17.0 1.05 -17.0 -0.4 -7.05 -0.4 M-18.6 -5.1 L-18.6 0.05 Q-18.6 1.1 -19.75 1.1 L-23.95 1.1 -23.95 -5.1 -18.6 -5.1 M-19.3 5.4 Q-20.1 5.4 -20.35 4.5 L-21.1 1.6 -19.6 1.6 -19.05 3.7 -18.75 4.1 -18.4 4.1 -18.4 5.4 -19.3 5.4 M-23.6 3.75 L-23.2 1.6 -21.7 1.6 -22.3 4.45 Q-22.5 5.4 -23.4 5.4 L-24.45 5.4 -24.45 4.2 -23.9 4.2 -23.6 3.75" fill="#ffffff" fill-rule="evenodd" stroke="none"/>
  </g>
</svg>
