<?xml version="1.0" encoding="UTF-8" standalone="no"?>
<svg xmlns:xlink="http://www.w3.org/1999/xlink" height="13.8px" width="49.8px" xmlns="http://www.w3.org/2000/svg">
  <g transform="matrix(1.0, 0.0, 0.0, 1.0, 24.9, 6.9)">
    <path d="M3.5 -2.9 L1.8 -2.9 1.8 -5.25 3.5 -5.25 3.5 -2.9 M0.75 -0.75 L0.75 -2.35 3.45 -2.35 3.45 3.55 Q3.45 3.85 3.6 3.85 L4.2 3.85 4.2 5.35 2.55 5.35 Q1.85 5.35 1.85 4.65 L1.85 -0.75 0.75 -0.75 M8.85 -5.4 L10.55 -5.4 10.15 -4.1 11.1 -4.1 11.1 -0.3 Q11.1 0.75 9.9 0.75 L9.9 3.8 10.2 4.0 11.4 4.0 11.4 5.4 9.25 5.4 Q8.3 5.4 8.3 4.6 L8.3 0.75 4.75 0.75 4.75 -4.1 5.65 -4.1 5.25 -5.4 6.95 -5.4 7.3 -4.1 8.45 -4.1 8.85 -5.4 M6.4 -0.65 L9.1 -0.65 Q9.5 -0.65 9.5 -1.0 L9.5 -2.7 6.4 -2.7 6.4 -0.65 M14.8 -0.8 L15.6 -0.8 15.6 -3.6 14.8 -3.6 14.8 -0.8 M19.5 -2.0 L21.75 -2.0 21.75 -3.8 19.5 -3.8 19.5 -2.0 M17.2 -5.0 L17.2 3.9 Q17.2 4.95 16.05 4.95 L13.2 4.95 13.2 -5.0 17.2 -5.0 M23.4 -5.2 L23.4 4.15 Q23.4 5.35 21.95 5.35 L20.7 5.35 20.7 3.95 21.4 3.95 21.75 3.65 21.75 2.4 19.5 2.4 19.5 4.15 Q19.5 5.35 18.35 5.35 L17.4 5.35 17.4 3.95 17.75 3.95 17.9 3.75 17.9 -5.2 23.4 -5.2 M19.5 -0.65 L19.5 1.05 21.75 1.05 21.75 -0.65 19.5 -0.65 M15.6 3.2 L15.6 0.65 14.8 0.65 14.8 3.55 15.25 3.55 15.6 3.2 M6.05 5.35 L4.6 5.35 4.6 4.1 5.05 4.1 5.3 3.75 5.75 1.35 7.35 1.35 6.75 4.7 Q6.6 5.35 6.05 5.35 M-20.4 -2.3 L-19.6 -2.3 -19.6 -0.85 -20.4 -0.85 -20.4 4.0 Q-20.4 4.6 -20.75 5.0 -21.05 5.35 -21.65 5.35 L-22.85 5.35 -22.85 4.05 -22.2 4.05 Q-21.95 4.05 -21.95 3.45 L-21.95 2.5 Q-22.2 3.1 -22.55 3.1 L-23.4 3.1 -23.4 1.6 -23.35 1.6 -22.8 1.15 -21.95 -1.3 -21.95 -3.15 -23.2 -3.15 -23.2 -4.55 -21.95 -4.55 -21.95 -5.35 -20.4 -5.35 -20.4 -4.55 -19.35 -4.55 -19.35 -3.15 -20.4 -3.15 -20.4 -2.3 M-17.5 -2.9 L-17.5 -0.2 -16.6 -0.2 -16.6 -2.9 -17.5 -2.9 M-16.6 -4.3 L-16.6 -5.35 -15.0 -5.35 -15.0 -4.3 -12.4 -4.3 -12.4 4.3 Q-12.4 5.35 -13.6 5.35 L-19.05 5.35 -19.05 -4.3 -16.6 -4.3 M-10.95 -5.2 L-9.4 -5.2 -9.15 -4.5 -8.85 -4.2 -8.65 -4.2 -8.65 -2.95 -9.6 -2.95 Q-10.3 -2.95 -10.5 -3.65 L-10.95 -5.2 M-15.0 -0.2 L-14.0 -0.2 -14.0 -2.9 -15.0 -2.9 -15.0 -0.2 M-10.6 -0.75 L-10.2 -1.05 -9.85 -2.05 -8.3 -2.05 -8.3 -5.3 -6.7 -5.3 -6.7 0.45 -8.3 0.45 -8.3 -2.05 -9.1 -0.15 Q-9.4 0.45 -10.0 0.45 L-10.95 0.45 -10.95 -0.75 -10.6 -0.75 M-5.6 -4.45 L-5.05 -5.3 -3.4 -5.3 -3.7 -4.8 -0.6 -4.8 -0.6 -3.25 -1.45 -0.65 Q-1.85 0.45 -3.1 0.45 L-6.25 0.45 -6.25 -0.85 -5.05 -0.85 -5.25 -1.4 -5.65 -1.55 -6.2 -1.55 -6.2 -2.6 -4.9 -2.6 Q-4.4 -2.6 -4.05 -2.1 L-3.45 -0.9 Q-3.1 -1.0 -3.0 -1.4 L-2.4 -3.4 -4.45 -3.4 Q-4.65 -3.05 -5.0 -3.05 L-6.3 -3.05 -6.3 -4.35 -5.8 -4.35 Q-5.65 -4.35 -5.6 -4.45 M-0.45 2.65 L-4.4 2.65 -3.35 3.85 -2.8 3.95 -0.65 3.95 -0.65 5.35 -3.8 5.35 -4.45 5.2 -5.95 3.35 -7.4 5.2 -8.05 5.35 -10.95 5.35 -10.95 3.95 -9.05 3.95 -8.5 3.85 -7.45 2.65 -11.15 2.65 -11.15 1.3 -6.85 1.3 -6.85 0.7 -5.0 0.7 -5.0 1.3 -0.45 1.3 -0.45 2.65 M-15.0 1.05 L-15.0 3.9 -14.4 3.9 -14.0 3.6 -14.0 1.05 -15.0 1.05 M-17.5 1.05 L-17.5 3.9 -16.6 3.9 -16.6 1.05 -17.5 1.05" fill="#ffffff" fill-rule="evenodd" stroke="none"/>
    <path d="M3.5 -2.9 L1.8 -2.9 1.8 -5.25 3.5 -5.25 3.5 -2.9 M0.75 -0.75 L0.75 -2.35 3.45 -2.35 3.45 3.55 Q3.45 3.85 3.6 3.85 L4.2 3.85 4.2 5.35 2.55 5.35 Q1.85 5.35 1.85 4.65 L1.85 -0.75 0.75 -0.75 M8.85 -5.4 L10.55 -5.4 10.15 -4.1 11.1 -4.1 11.1 -0.3 Q11.1 0.75 9.9 0.75 L9.9 3.8 10.2 4.0 11.4 4.0 11.4 5.4 9.25 5.4 Q8.3 5.4 8.3 4.6 L8.3 0.75 4.75 0.75 4.75 -4.1 5.65 -4.1 5.25 -5.4 6.95 -5.4 7.3 -4.1 8.45 -4.1 8.85 -5.4 M6.4 -0.65 L9.1 -0.65 Q9.5 -0.65 9.5 -1.0 L9.5 -2.7 6.4 -2.7 6.4 -0.65 M14.8 -0.8 L15.6 -0.8 15.6 -3.6 14.8 -3.6 14.8 -0.8 M19.5 -2.0 L21.75 -2.0 21.75 -3.8 19.5 -3.8 19.5 -2.0 M17.2 -5.0 L17.2 3.9 Q17.2 4.95 16.05 4.95 L13.2 4.95 13.2 -5.0 17.2 -5.0 M23.4 -5.2 L23.4 4.15 Q23.4 5.35 21.95 5.35 L20.7 5.35 20.7 3.95 21.4 3.95 21.75 3.65 21.75 2.4 19.5 2.4 19.5 4.15 Q19.5 5.35 18.35 5.35 L17.4 5.35 17.4 3.95 17.75 3.95 17.9 3.75 17.9 -5.2 23.4 -5.2 M19.5 -0.65 L19.5 1.05 21.75 1.05 21.75 -0.65 19.5 -0.65 M15.6 3.2 L15.6 0.65 14.8 0.65 14.8 3.55 15.25 3.55 15.6 3.2 M6.05 5.35 L4.6 5.35 4.6 4.1 5.05 4.1 5.3 3.75 5.75 1.35 7.35 1.35 6.75 4.7 Q6.6 5.35 6.05 5.35 M-20.4 -2.3 L-19.6 -2.3 -19.6 -0.85 -20.4 -0.85 -20.4 4.0 Q-20.4 4.6 -20.75 5.0 -21.05 5.35 -21.65 5.35 L-22.85 5.35 -22.85 4.05 -22.2 4.05 Q-21.95 4.05 -21.95 3.45 L-21.95 2.5 Q-22.2 3.1 -22.55 3.1 L-23.4 3.1 -23.4 1.6 -23.35 1.6 -22.8 1.15 -21.95 -1.3 -21.95 -3.15 -23.2 -3.15 -23.2 -4.55 -21.95 -4.55 -21.95 -5.35 -20.4 -5.35 -20.4 -4.55 -19.35 -4.55 -19.35 -3.15 -20.4 -3.15 -20.4 -2.3 M-17.5 -2.9 L-17.5 -0.2 -16.6 -0.2 -16.6 -2.9 -17.5 -2.9 M-16.6 -4.3 L-16.6 -5.35 -15.0 -5.35 -15.0 -4.3 -12.4 -4.3 -12.4 4.3 Q-12.4 5.35 -13.6 5.35 L-19.05 5.35 -19.05 -4.3 -16.6 -4.3 M-10.95 -5.2 L-9.4 -5.2 -9.15 -4.5 -8.85 -4.2 -8.65 -4.2 -8.65 -2.95 -9.6 -2.95 Q-10.3 -2.95 -10.5 -3.65 L-10.95 -5.2 M-15.0 -0.2 L-14.0 -0.2 -14.0 -2.9 -15.0 -2.9 -15.0 -0.2 M-10.6 -0.75 L-10.2 -1.05 -9.85 -2.05 -8.3 -2.05 -8.3 -5.3 -6.7 -5.3 -6.7 0.45 -8.3 0.45 -8.3 -2.05 -9.1 -0.15 Q-9.4 0.45 -10.0 0.45 L-10.95 0.45 -10.95 -0.75 -10.6 -0.75 M-5.6 -4.45 L-5.05 -5.3 -3.4 -5.3 -3.7 -4.8 -0.6 -4.8 -0.6 -3.25 -1.45 -0.65 Q-1.85 0.45 -3.1 0.45 L-6.25 0.45 -6.25 -0.85 -5.05 -0.85 -5.25 -1.4 -5.65 -1.55 -6.2 -1.55 -6.2 -2.6 -4.9 -2.6 Q-4.4 -2.6 -4.05 -2.1 L-3.45 -0.9 Q-3.1 -1.0 -3.0 -1.4 L-2.4 -3.4 -4.45 -3.4 Q-4.65 -3.05 -5.0 -3.05 L-6.3 -3.05 -6.3 -4.35 -5.8 -4.35 Q-5.65 -4.35 -5.6 -4.45 M-0.45 2.65 L-4.4 2.65 -3.35 3.85 -2.8 3.95 -0.65 3.95 -0.65 5.35 -3.8 5.35 -4.45 5.2 -5.95 3.35 -7.4 5.2 -8.05 5.35 -10.95 5.35 -10.95 3.95 -9.05 3.95 -8.5 3.85 -7.45 2.65 -11.15 2.65 -11.15 1.3 -6.85 1.3 -6.85 0.7 -5.0 0.7 -5.0 1.3 -0.45 1.3 -0.45 2.65 M-15.0 1.05 L-15.0 3.9 -14.4 3.9 -14.0 3.6 -14.0 1.05 -15.0 1.05 M-17.5 1.05 L-17.5 3.9 -16.6 3.9 -16.6 1.05 -17.5 1.05" fill="none" stroke="#003399" stroke-linecap="round" stroke-linejoin="round" stroke-width="3.0"/>
    <path d="M1.8 -2.9 L1.8 -5.25 3.5 -5.25 3.5 -2.9 1.8 -2.9 M0.75 -2.35 L3.45 -2.35 3.45 3.55 Q3.45 3.85 3.6 3.85 L4.2 3.85 4.2 5.35 2.55 5.35 Q1.85 5.35 1.85 4.65 L1.85 -0.75 0.75 -0.75 0.75 -2.35 M8.85 -5.4 L10.55 -5.4 10.15 -4.1 11.1 -4.1 11.1 -0.3 Q11.1 0.75 9.9 0.75 L9.9 3.8 10.2 4.0 11.4 4.0 11.4 5.4 9.25 5.4 Q8.3 5.4 8.3 4.6 L8.3 0.75 4.75 0.75 4.75 -4.1 5.65 -4.1 5.25 -5.4 6.95 -5.4 7.3 -4.1 8.45 -4.1 8.85 -5.4 M6.4 -0.65 L9.1 -0.65 Q9.5 -0.65 9.5 -1.0 L9.5 -2.7 6.4 -2.7 6.4 -0.65 M14.8 -0.8 L15.6 -0.8 15.6 -3.6 14.8 -3.6 14.8 -0.8 M19.5 -2.0 L21.75 -2.0 21.75 -3.8 19.5 -3.8 19.5 -2.0 M17.2 -5.0 L17.2 3.9 Q17.2 4.95 16.05 4.95 L13.2 4.95 13.2 -5.0 17.2 -5.0 M19.5 -0.65 L19.5 1.05 21.75 1.05 21.75 -0.65 19.5 -0.65 M23.4 -5.2 L23.4 4.15 Q23.4 5.35 21.95 5.35 L20.7 5.35 20.7 3.95 21.4 3.95 21.75 3.65 21.75 2.4 19.5 2.4 19.5 4.15 Q19.5 5.35 18.35 5.35 L17.4 5.35 17.4 3.95 17.75 3.95 17.9 3.75 17.9 -5.2 23.4 -5.2 M15.6 3.2 L15.6 0.65 14.8 0.65 14.8 3.55 15.25 3.55 15.6 3.2 M6.05 5.35 L4.6 5.35 4.6 4.1 5.05 4.1 5.3 3.75 5.75 1.35 7.35 1.35 6.75 4.7 Q6.6 5.35 6.05 5.35 M-20.4 -2.3 L-19.6 -2.3 -19.6 -0.85 -20.4 -0.85 -20.4 4.0 Q-20.4 4.6 -20.75 5.0 -21.05 5.35 -21.65 5.35 L-22.85 5.35 -22.85 4.05 -22.2 4.05 Q-21.95 4.05 -21.95 3.45 L-21.95 2.5 Q-22.2 3.1 -22.55 3.1 L-23.4 3.1 -23.4 1.6 -23.35 1.6 -22.8 1.15 -21.95 -1.3 -21.95 -3.15 -23.2 -3.15 -23.2 -4.55 -21.95 -4.55 -21.95 -5.35 -20.4 -5.35 -20.4 -4.55 -19.35 -4.55 -19.35 -3.15 -20.4 -3.15 -20.4 -2.3 M-17.5 -2.9 L-17.5 -0.2 -16.6 -0.2 -16.6 -2.9 -17.5 -2.9 M-16.6 -4.3 L-16.6 -5.35 -15.0 -5.35 -15.0 -4.3 -12.4 -4.3 -12.4 4.3 Q-12.4 5.35 -13.6 5.35 L-19.05 5.35 -19.05 -4.3 -16.6 -4.3 M-10.95 -5.2 L-9.4 -5.2 -9.15 -4.5 -8.85 -4.2 -8.65 -4.2 -8.65 -2.95 -9.6 -2.95 Q-10.3 -2.95 -10.5 -3.65 L-10.95 -5.2 M-15.0 -0.2 L-14.0 -0.2 -14.0 -2.9 -15.0 -2.9 -15.0 -0.2 M-10.6 -0.75 L-10.2 -1.05 -9.85 -2.05 -8.3 -2.05 -8.3 -5.3 -6.7 -5.3 -6.7 0.45 -8.3 0.45 -8.3 -2.05 -9.1 -0.15 Q-9.4 0.45 -10.0 0.45 L-10.95 0.45 -10.95 -0.75 -10.6 -0.75 M-5.6 -4.45 L-5.05 -5.3 -3.4 -5.3 -3.7 -4.8 -0.6 -4.8 -0.6 -3.25 -1.45 -0.65 Q-1.85 0.45 -3.1 0.45 L-6.25 0.45 -6.25 -0.85 -5.05 -0.85 -5.25 -1.4 -5.65 -1.55 -6.2 -1.55 -6.2 -2.6 -4.9 -2.6 Q-4.4 -2.6 -4.05 -2.1 L-3.45 -0.9 Q-3.1 -1.0 -3.0 -1.4 L-2.4 -3.4 -4.45 -3.4 Q-4.65 -3.05 -5.0 -3.05 L-6.3 -3.05 -6.3 -4.35 -5.8 -4.35 Q-5.65 -4.35 -5.6 -4.45 M-0.45 2.65 L-4.4 2.65 -3.35 3.85 -2.8 3.95 -0.65 3.95 -0.65 5.35 -3.8 5.35 -4.45 5.2 -5.95 3.35 -7.4 5.2 -8.05 5.35 -10.95 5.35 -10.95 3.95 -9.05 3.95 -8.5 3.85 -7.45 2.65 -11.15 2.65 -11.15 1.3 -6.85 1.3 -6.85 0.7 -5.0 0.7 -5.0 1.3 -0.45 1.3 -0.45 2.65 M-15.0 1.05 L-15.0 3.9 -14.4 3.9 -14.0 3.6 -14.0 1.05 -15.0 1.05 M-17.5 1.05 L-17.5 3.9 -16.6 3.9 -16.6 1.05 -17.5 1.05" fill="#ffffff" fill-rule="evenodd" stroke="none"/>
  </g>
</svg>
