<?xml version="1.0" encoding="UTF-8" standalone="no"?>
<svg xmlns:xlink="http://www.w3.org/1999/xlink" height="15.65px" width="7.5px" xmlns="http://www.w3.org/2000/svg">
  <g transform="matrix(1.0, 0.0, 0.0, 1.0, 0.0, 0.0)">
    <path d="M2.65 15.15 Q1.95 14.75 1.35 14.1 L0.6 12.95 Q0.15 12.05 0.05 11.05 L0.0 10.65 0.0 5.65 0.0 5.35 Q0.0 4.6 0.15 3.9 0.45 2.6 1.3 1.6 L1.35 1.55 Q2.35 0.35 3.75 0.1 L4.55 0.0 7.5 0.0 7.5 1.6 6.25 1.6 5.35 1.7 Q4.55 1.9 3.9 2.4 L3.1 3.15 Q1.7 4.7 1.7 6.95 L1.7 7.25 1.7 12.25 1.75 12.65 1.95 13.65 Q2.15 14.45 2.65 15.15" fill="#bfb340" fill-rule="evenodd" stroke="none"/>
    <path d="M1.95 13.65 L1.75 12.65 1.7 12.25 1.7 7.25 1.7 6.95 Q1.7 4.7 3.1 3.15 L3.9 2.4 Q4.55 1.9 5.35 1.7 L6.25 1.6 7.5 1.6 7.5 13.8 3.0 13.8 1.95 13.65" fill="#dbd393" fill-rule="evenodd" stroke="none"/>
    <path d="M2.65 15.15 Q2.15 14.45 1.95 13.65 L3.0 13.8 7.5 13.8 7.5 15.65 4.55 15.65 3.1 15.35 2.85 15.25 2.65 15.15" fill="#ffffff" fill-rule="evenodd" stroke="none"/>
  </g>
</svg>
