<?xml version="1.0" encoding="UTF-8" standalone="no"?>
<svg xmlns:xlink="http://www.w3.org/1999/xlink" height="15.65px" width="6.5px" xmlns="http://www.w3.org/2000/svg">
  <g transform="matrix(1.0, 0.0, 0.0, 1.0, 0.0, 0.0)">
    <path d="M0.0 1.6 L0.0 0.0 1.8 0.0 Q3.2 0.0 4.35 0.85 L5.15 1.55 5.25 1.65 5.45 1.95 5.35 2.0 4.7 1.75 3.5 1.6 0.0 1.6" fill="#bfb340" fill-rule="evenodd" stroke="none"/>
    <path d="M4.7 1.75 L5.35 2.0 5.45 1.95 5.55 2.1 Q6.5 3.5 6.5 5.35 L6.5 5.65 6.35 10.65 Q6.25 12.65 5.0 14.1 3.6 15.65 1.65 15.65 L0.0 15.65 0.0 13.8 0.1 13.8 Q2.05 13.8 3.45 12.25 4.7 10.8 4.8 8.8 L4.95 3.8 4.95 3.5 4.7 1.75" fill="#ffffff" fill-rule="evenodd" stroke="none"/>
    <path d="M0.0 1.6 L3.5 1.6 4.7 1.75 4.95 3.5 4.95 3.8 4.8 8.8 Q4.7 10.8 3.45 12.25 2.05 13.8 0.1 13.8 L0.0 13.8 0.0 1.6" fill="#dbd393" fill-rule="evenodd" stroke="none"/>
  </g>
</svg>
