<?xml version="1.0" encoding="UTF-8" standalone="no"?>
<svg xmlns:xlink="http://www.w3.org/1999/xlink" height="23.45px" width="341.75px" xmlns="http://www.w3.org/2000/svg">
  <g transform="matrix(1.0, 0.0, 0.0, 1.0, 0.0, 0.0)">
    <path d="M3.95 22.7 Q2.9 22.15 2.05 21.15 L0.9 19.45 Q0.2 18.1 0.05 16.55 L0.0 16.0 0.0 8.45 0.0 8.0 Q-0.05 6.9 0.25 5.85 0.65 3.9 1.95 2.4 L2.05 2.3 Q3.55 0.55 5.6 0.15 L6.85 0.0 334.7 0.0 Q336.85 0.0 338.55 1.25 L339.7 2.3 339.9 2.5 340.15 2.9 340.05 3.0 Q339.55 2.75 339.05 2.65 L337.25 2.4 9.4 2.4 8.0 2.55 Q6.85 2.85 5.85 3.6 5.2 4.05 4.65 4.7 2.55 7.05 2.55 10.4 L2.55 10.85 2.55 18.4 2.6 18.95 2.9 20.45 Q3.25 21.65 3.95 22.7" fill="#ffffff" fill-rule="evenodd" stroke="none"/>
    <path d="M2.9 20.45 L2.6 18.95 2.55 18.4 2.55 10.85 2.55 10.4 Q2.55 7.05 4.65 4.7 5.2 4.05 5.85 3.6 6.85 2.85 8.0 2.55 L9.4 2.4 337.25 2.4 339.05 2.65 339.45 5.25 339.45 5.7 339.2 13.2 Q339.05 16.2 337.15 18.4 335.1 20.7 332.15 20.7 L4.5 20.7 2.9 20.45" fill="#ffcc00" fill-rule="evenodd" stroke="none"/>
    <path d="M3.95 22.7 Q3.25 21.65 2.9 20.45 L4.5 20.7 332.15 20.7 Q335.1 20.7 337.15 18.4 339.05 16.2 339.2 13.2 L339.45 5.7 339.45 5.25 339.05 2.65 Q339.55 2.75 340.05 3.0 L340.15 2.9 340.35 3.15 Q341.75 5.25 341.75 8.0 L341.75 8.45 341.55 16.0 Q341.4 19.0 339.5 21.15 337.4 23.45 334.5 23.45 L6.85 23.45 4.65 23.05 4.3 22.9 3.95 22.7" fill="#ff9900" fill-rule="evenodd" stroke="none"/>
  </g>
</svg>
