<?xml version="1.0" encoding="UTF-8" standalone="no"?>
<svg xmlns:xlink="http://www.w3.org/1999/xlink" height="99.25px" width="174.95px" xmlns="http://www.w3.org/2000/svg">
  <g transform="matrix(1.0, 0.0, 0.0, 1.0, 81.75, 13.4)">
    <path d="M40.85 11.05 L41.75 10.45 40.85 11.05" fill="url(#gradient0)" fill-rule="evenodd" stroke="none"/>
    <path d="M73.95 -10.7 L73.85 -10.3 71.6 -10.75 73.95 -10.7" fill="#ffffcc" fill-rule="evenodd" stroke="none"/>
    <path d="M-25.5 2.5 L-21.55 -1.85 Q-19.4 -3.9 -17.1 -5.55 -13.9 -7.9 -10.35 -9.45 L-6.35 -11.0 Q-0.8 -12.8 5.45 -12.9 L5.75 -12.9 6.0 -12.9 Q21.75 -12.55 33.0 -1.85 L37.0 2.5 37.15 2.65 37.5 3.1 37.95 3.75 40.75 8.35 41.35 9.6 41.55 10.05 41.75 10.35 41.75 10.45 40.85 11.05 37.95 12.85 Q34.8 14.7 31.15 16.1 L29.3 16.8 Q25.35 18.1 20.9 18.95 14.1 20.2 6.0 20.35 L5.75 20.35 5.45 20.35 Q-9.25 20.1 -19.7 16.1 -23.35 14.7 -26.45 12.85 L-30.3 10.45 -26.45 12.85 Q-23.35 14.7 -19.7 16.1 -9.25 20.1 5.45 20.35 L5.75 20.35 6.0 20.35 Q14.1 20.2 20.9 18.95 25.35 18.1 29.3 16.8 L31.15 16.1 Q34.8 14.7 37.95 12.85 L40.85 11.05 41.75 10.45 41.8 10.4 43.05 9.6 Q48.9 5.6 52.1 1.9 L54.5 -1.45 54.5 -1.5 60.1 -5.8 Q63.8 -8.4 67.15 -9.95 L69.2 -10.8 Q80.1 -14.95 86.45 -7.0 89.85 -2.8 91.95 4.95 97.8 37.15 57.65 72.3 L57.15 72.7 56.5 73.25 55.7 73.9 Q50.25 78.3 44.25 80.5 35.0 83.1 24.65 84.35 L6.0 85.35 5.45 85.35 Q-14.45 85.4 -31.0 81.0 -37.85 78.45 -41.1 76.15 L-44.5 73.75 Q-86.5 37.8 -80.5 4.95 -77.85 -4.9 -73.0 -9.1 L-71.05 -10.55 -70.5 -10.85 Q-60.55 -16.1 -43.05 -1.5 L-43.0 -1.45 -41.05 1.4 -40.8 1.7 -40.55 2.0 Q-38.1 4.8 -34.15 7.8 L-32.55 8.9 -31.9 9.4 -30.35 10.4 -30.3 10.45 -30.1 10.05 Q-28.35 6.05 -25.5 2.5 M21.1 -0.55 L25.65 -2.2 Q20.65 -6.2 13.85 -9.3 18.1 -5.0 21.1 -0.55 M73.95 -10.7 L71.6 -10.75 73.85 -10.3 74.55 -10.1 Q77.9 -8.9 80.5 -5.6 83.9 -1.4 86.0 6.35 91.0 33.95 62.25 63.7 93.15 33.7 88.2 6.4 86.1 -1.35 82.7 -5.55 79.05 -10.1 73.95 -10.7 M52.35 7.25 L54.55 3.15 52.1 6.45 Q48.9 10.15 43.05 14.15 L41.8 14.95 37.95 17.4 Q34.8 19.25 31.15 20.65 20.7 24.65 6.0 24.9 L5.75 24.9 5.45 24.9 Q-9.25 24.65 -19.7 20.65 -23.35 19.25 -26.45 17.4 L-27.6 16.7 -30.3 15.0 -35.85 11.0 -37.1 9.95 -38.1 9.05 -41.75 5.05 -41.05 6.65 -41.0 6.75 -39.4 9.65 Q-36.1 14.85 -30.3 18.65 L-26.45 21.05 Q-23.35 22.9 -19.7 24.3 -9.25 28.3 5.45 28.55 L5.75 28.55 6.0 28.55 Q20.7 28.3 31.15 24.3 34.8 22.9 37.95 21.05 L41.8 18.6 43.05 17.8 Q48.9 13.8 52.35 7.25 M22.7 2.05 Q25.95 7.65 27.25 13.6 L35.8 10.5 Q33.05 4.65 28.15 0.0 L22.7 2.05 M51.6 69.9 L45.05 69.9 Q37.15 74.5 28.05 78.15 41.7 77.2 51.6 69.9 M49.5 67.2 L54.25 67.75 Q59.65 63.0 63.85 56.05 57.25 62.15 49.5 67.2" fill="#cccccc" fill-rule="evenodd" stroke="none"/>
    <path d="M37.0 2.5 L38.4 2.2 44.45 1.0 48.45 0.05 51.6 -0.7 53.6 -1.25 54.5 -1.5 54.5 -1.45 52.1 1.9 Q48.9 5.6 43.05 9.6 L41.8 10.4 41.55 10.05 41.35 9.6 40.75 8.35 37.95 3.75 37.5 3.1 37.15 2.65 37.0 2.5 M-43.0 -1.5 Q-36.3 0.3 -29.6 1.7 L-27.7 2.05 -26.7 2.25 -25.5 2.5 Q-28.35 6.05 -30.1 10.05 L-30.35 10.4 -31.9 9.4 -32.55 8.9 -34.15 7.8 Q-38.1 4.8 -40.55 2.0 L-40.8 1.7 -41.05 1.4 -43.0 -1.45 -43.0 -1.5" fill="#999999" fill-rule="evenodd" stroke="none"/>
    <path d="M21.1 -0.55 Q18.1 -5.0 13.85 -9.3 20.65 -6.2 25.65 -2.2 L21.1 -0.55 M73.85 -10.3 L73.95 -10.7 Q79.05 -10.1 82.7 -5.55 86.1 -1.35 88.2 6.4 93.15 33.7 62.25 63.7 91.0 33.95 86.0 6.35 83.9 -1.4 80.5 -5.6 77.9 -8.9 74.55 -10.1 L73.85 -10.3 M52.35 7.25 Q48.9 13.8 43.05 17.8 L41.8 18.6 37.95 21.05 Q34.8 22.9 31.15 24.3 20.7 28.3 6.0 28.55 L5.75 28.55 5.45 28.55 Q-9.25 28.3 -19.7 24.3 -23.35 22.9 -26.45 21.05 L-30.3 18.65 Q-36.1 14.85 -39.4 9.65 L-41.0 6.75 -41.05 6.65 -41.75 5.05 -38.1 9.05 -37.1 9.95 -35.85 11.0 -30.3 15.0 -27.6 16.7 -26.45 17.4 Q-23.35 19.25 -19.7 20.65 -9.25 24.65 5.45 24.9 L5.75 24.9 6.0 24.9 Q20.7 24.65 31.15 20.65 34.8 19.25 37.95 17.4 L41.8 14.95 43.05 14.15 Q48.9 10.15 52.1 6.45 L54.55 3.15 52.35 7.25 M22.7 2.05 L28.15 0.0 Q33.05 4.65 35.8 10.5 L27.25 13.6 Q25.95 7.65 22.7 2.05 M49.5 67.2 Q57.25 62.15 63.85 56.05 59.65 63.0 54.25 67.75 L49.5 67.2 M51.6 69.9 Q41.7 77.2 28.05 78.15 37.15 74.5 45.05 69.9 L51.6 69.9" fill="#ffffff" fill-rule="evenodd" stroke="none"/>
    <path d="M-25.5 2.5 L-21.55 -1.85 Q-19.4 -3.9 -17.1 -5.55 -13.9 -7.9 -10.35 -9.45 L-6.35 -11.0 Q-0.8 -12.8 5.45 -12.9 L5.75 -12.9 6.0 -12.9 Q21.75 -12.55 33.0 -1.85 L37.0 2.5 38.4 2.2 44.45 1.0 48.45 0.05 51.6 -0.7 53.6 -1.25 54.5 -1.5 60.1 -5.8 Q63.8 -8.4 67.15 -9.95 L69.2 -10.8 Q80.1 -14.95 86.45 -7.0 89.85 -2.8 91.95 4.95 97.8 37.15 57.65 72.3 L57.15 72.7 56.5 73.25 55.7 73.9 Q50.25 78.3 44.25 80.5 35.0 83.1 24.65 84.35 L6.0 85.35 5.45 85.35 Q-14.45 85.4 -31.0 81.0 -37.85 78.45 -41.1 76.15 L-44.5 73.75 Q-86.5 37.8 -80.5 4.95 -77.85 -4.9 -73.0 -9.1 L-71.05 -10.55 -70.5 -10.85 Q-60.55 -16.1 -43.05 -1.5 L-43.0 -1.5 Q-36.3 0.3 -29.6 1.7 L-27.7 2.05 -26.7 2.25 -25.5 2.5 Q-28.35 6.05 -30.1 10.05 L-30.3 10.45 -26.45 12.85 Q-23.35 14.7 -19.7 16.1 -9.25 20.1 5.45 20.35 L5.75 20.35 6.0 20.35 Q14.1 20.2 20.9 18.95 25.35 18.1 29.3 16.8 L31.15 16.1 Q34.8 14.7 37.95 12.85 L40.85 11.05 41.75 10.45 41.75 10.35 41.55 10.05 41.35 9.6 40.75 8.35 37.95 3.75 37.5 3.1 37.15 2.65 37.0 2.5 M54.5 -1.45 L54.5 -1.5 M54.5 -1.45 L52.1 1.9 Q48.9 5.6 43.05 9.6 L41.8 10.4 M41.75 10.45 L41.8 10.4 M-43.05 -1.5 L-43.0 -1.45 M-30.3 10.45 L-30.35 10.4 -31.9 9.4 -32.55 8.9 -34.15 7.8 Q-38.1 4.8 -40.55 2.0 L-40.8 1.7 M-41.05 1.4 L-43.0 -1.45" fill="none" stroke="#000000" stroke-linecap="round" stroke-linejoin="round" stroke-width="1.0"/>
  </g>
  <defs>
    <radialGradient cx="0" cy="0" gradientTransform="matrix(0.095, 0.0, 0.0, 0.095, -9.0, -31.2)" gradientUnits="userSpaceOnUse" id="gradient0" r="819.2" spreadMethod="pad">
      <stop offset="0.0" stop-color="#e8cb09"/>
      <stop offset="0.6901960784313725" stop-color="#eca500"/>
      <stop offset="1.0" stop-color="#d58b04"/>
    </radialGradient>
  </defs>
</svg>
