<?xml version="1.0" encoding="UTF-8" standalone="no"?>
<svg xmlns:xlink="http://www.w3.org/1999/xlink" height="37.35px" width="82.2px" xmlns="http://www.w3.org/2000/svg">
  <g transform="matrix(1.0, 0.0, 0.0, 1.0, 0.0, 0.0)">
    <path d="M12.35 0.0 L69.45 0.0 Q74.75 0.0 78.5 3.7 82.2 7.4 82.2 12.7 L82.2 13.45 81.8 25.35 Q81.55 30.15 78.1 33.65 74.35 37.35 69.05 37.35 L12.35 37.35 Q9.8 37.25 7.65 36.35 L7.6 36.35 Q6.35 35.8 5.25 34.95 L4.3 34.2 4.05 33.95 3.7 33.65 Q0.6 30.55 0.05 26.35 L0.0 25.35 0.0 13.45 0.0 12.7 Q-0.05 11.35 0.2 10.15 0.9 6.5 3.7 3.7 L3.95 3.45 5.8 2.0 6.65 1.45 Q8.5 0.45 10.6 0.15 L11.95 0.0 12.2 0.0 12.35 0.0 M73.7 7.75 Q74.15 9.15 74.15 10.75 L74.15 11.3 73.9 20.0 Q73.75 23.5 71.5 26.05 69.1 28.75 65.7 28.75 L10.05 28.75 8.15 28.45 7.85 26.75 7.8 26.05 7.8 17.3 7.8 16.8 Q7.75 12.9 10.15 10.15 L11.6 8.85 Q12.75 8.0 14.1 7.7 L15.7 7.45 71.6 7.45 73.7 7.75 M9.4 31.1 L9.8 31.3 10.25 31.5 12.75 32.0 68.4 32.0 Q71.8 32.0 74.2 29.3 76.45 26.8 76.6 23.3 L76.85 14.55 76.85 14.0 Q76.85 10.8 75.2 8.35 L75.0 8.1 74.65 7.6 74.45 7.4 73.1 6.15 Q71.1 4.65 68.6 4.7 L12.75 4.7 11.3 4.85 Q8.95 5.35 7.2 7.4 L7.1 7.5 Q5.6 9.25 5.1 11.45 4.8 12.7 4.8 14.0 L4.8 14.55 4.8 23.3 4.85 23.95 Q5.05 25.75 5.85 27.3 L7.2 29.3 Q8.2 30.45 9.4 31.1" fill="#dbd393" fill-opacity="0.8509804" fill-rule="evenodd" stroke="none"/>
    <path d="M8.15 28.45 Q8.55 29.85 9.4 31.1 8.2 30.45 7.2 29.3 L5.85 27.3 Q5.05 25.75 4.85 23.95 L4.8 23.3 4.8 14.55 4.8 14.0 Q4.8 12.7 5.1 11.45 5.6 9.25 7.1 7.5 L7.2 7.4 Q8.95 5.35 11.3 4.85 L12.75 4.7 68.6 4.7 Q71.1 4.65 73.1 6.15 L74.45 7.4 74.65 7.6 75.0 8.1 74.85 8.15 73.7 7.75 71.6 7.45 15.7 7.45 14.1 7.7 Q12.75 8.0 11.6 8.85 L10.15 10.15 Q7.75 12.9 7.8 16.8 L7.8 17.3 7.8 26.05 7.85 26.75 8.15 28.45" fill="#ffffff" fill-opacity="0.8509804" fill-rule="evenodd" stroke="none"/>
    <path d="M8.15 28.45 L10.05 28.75 65.7 28.75 Q69.1 28.75 71.5 26.05 73.75 23.5 73.9 20.0 L74.15 11.3 74.15 10.75 Q74.15 9.15 73.7 7.75 L74.85 8.15 75.0 8.1 75.2 8.35 Q76.85 10.8 76.85 14.0 L76.85 14.55 76.6 23.3 Q76.45 26.8 74.2 29.3 71.8 32.0 68.4 32.0 L12.75 32.0 10.25 31.5 9.8 31.3 9.4 31.1 Q8.55 29.85 8.15 28.45" fill="#bfb340" fill-opacity="0.8509804" fill-rule="evenodd" stroke="none"/>
  </g>
</svg>
