<?xml version="1.0" encoding="UTF-8" standalone="no"?>
<svg xmlns:xlink="http://www.w3.org/1999/xlink" height="37.35px" width="82.2px" xmlns="http://www.w3.org/2000/svg">
  <g transform="matrix(1.0, 0.0, 0.0, 1.0, 0.0, 0.0)">
    <path d="M12.2 0.0 L12.35 0.0 69.45 0.0 Q74.75 0.0 78.5 3.7 82.2 7.4 82.2 12.7 L82.2 13.45 81.8 25.35 Q81.55 30.15 78.1 33.65 74.35 37.35 69.05 37.35 L12.35 37.35 Q9.8 37.25 7.65 36.35 L7.6 36.35 Q5.85 35.55 4.3 34.2 L4.05 33.95 3.7 33.65 Q0.6 30.55 0.05 26.35 L0.0 25.35 0.0 13.45 0.0 12.7 Q-0.05 11.35 0.2 10.15 0.9 6.5 3.7 3.7 L3.95 3.45 5.8 2.0 6.65 1.45 Q8.5 0.45 10.6 0.15 L11.95 0.0 12.2 0.0" fill="#cccccc" fill-rule="evenodd" stroke="none"/>
  </g>
</svg>
