<?xml version="1.0" encoding="UTF-8" standalone="no"?>
<svg xmlns:xlink="http://www.w3.org/1999/xlink" height="610.3px" width="810.85px" xmlns="http://www.w3.org/2000/svg">
  <g transform="matrix(1.0, 0.0, 0.0, 1.0, 0.5, 0.5)">
    <path d="M809.85 594.1 L809.85 607.4 0.0 607.4 0.0 426.6 183.5 408.0 183.6 407.7 809.85 594.1" fill="url(#gradient0)" fill-rule="evenodd" stroke="none"/>
    <path d="M183.5 0.0 L809.85 0.0 809.85 594.1 183.6 407.7 183.5 407.7 183.5 0.0" fill="url(#gradient1)" fill-rule="evenodd" stroke="none"/>
    <path d="M0.0 426.6 L0.0 0.0 183.5 0.0 183.5 407.7 183.5 408.0 0.0 426.6" fill="url(#gradient2)" fill-rule="evenodd" stroke="none"/>
    <path d="M653.7 547.6 L584.65 560.3 686.65 595.5 756.9 578.3 653.7 547.6 569.7 522.6 505.85 533.15 584.65 560.3 502.1 575.5 581.4 607.4 637.9 607.4 686.65 595.5 721.3 607.4 809.85 607.4 809.85 594.1 756.9 578.3 M581.4 607.4 L452.0 607.4 328.85 607.4 313.95 607.4 182.35 607.4 56.45 607.4 45.1 609.3 43.3 607.4 0.0 607.4 0.0 575.65 0.0 561.8 0.0 541.45 0.0 517.15 0.0 492.2 0.0 474.85 0.0 472.8 0.0 454.05 0.0 441.25 0.0 427.05 0.0 426.6 0.0 0.0 183.5 0.0 809.85 0.0 809.85 594.1 M262.65 431.25 L220.65 434.9 257.6 447.6 301.95 442.9 262.65 431.25 221.8 419.1 185.4 422.75 220.65 434.9 164.5 439.75 199.3 453.75 257.6 447.6 297.35 461.3 346.5 456.2 301.95 442.9 M183.5 408.0 L152.0 411.2 185.4 422.75 134.75 427.8 164.5 439.75 104.75 444.95 137.5 460.3 199.3 453.75 234.3 467.85 297.35 461.3 331.3 473.0 380.85 466.4 346.5 456.2 M168.3 474.7 L96.0 482.2 127.3 500.2 201.6 490.3 168.3 474.7 137.5 460.3 70.25 467.4 96.0 482.2 23.0 489.8 50.9 510.4 127.3 500.2 162.05 520.15 242.75 509.55 201.6 490.3 268.1 481.45 234.3 467.85 168.3 474.7 M221.8 419.1 L183.5 407.7 M162.05 520.15 L205.55 545.15 291.55 532.35 242.75 509.55 314.55 500.1 268.1 481.45 331.3 473.0 383.6 491.05 439.05 483.75 380.85 466.4 M205.55 545.15 L116.0 558.45 159.35 590.4 256.45 574.35 205.55 545.15 M152.0 411.2 L105.25 415.95 134.75 427.8 79.75 433.3 104.75 444.95 40.85 450.5 70.25 467.4 2.4 474.6 23.0 489.8 0.0 492.2 M0.0 427.05 L21.05 439.15 79.75 433.3 53.8 421.15 0.0 426.6 M0.0 454.05 L40.85 450.5 21.05 439.15 0.0 441.25 M0.0 474.85 L2.4 474.6 0.0 472.8 M0.0 541.45 L78.95 531.1 50.9 510.4 0.0 517.15 M43.3 607.4 L11.55 573.95 0.0 575.65 M0.0 561.8 L11.55 573.95 116.0 558.45 78.95 531.1 162.05 520.15 M105.25 415.95 L53.8 421.15 M56.45 607.4 L43.3 607.4 M313.95 607.4 L256.45 574.35 348.75 559.1 291.55 532.35 366.95 521.15 314.55 500.1 383.6 491.05 439.7 510.35 498.95 501.55 439.05 483.75 M182.35 607.4 L159.35 590.4 56.45 607.4 M569.7 522.6 L498.95 501.55 M366.95 521.15 L439.7 510.35 505.85 533.15 428.5 545.95 502.1 575.5 417.2 591.15 452.0 607.4 M328.85 607.4 L417.2 591.15 348.75 559.1 428.5 545.95 366.95 521.15 M721.3 607.4 L637.9 607.4" fill="none" stroke="#666666" stroke-linecap="round" stroke-linejoin="round" stroke-width="1.0"/>
    <path d="M183.5 407.7 L183.5 408.0 M183.5 407.7 L183.5 0.0" fill="none" stroke="#666666" stroke-linecap="round" stroke-linejoin="round" stroke-width="1.0"/>
  </g>
  <defs>
    <radialGradient cx="0" cy="0" gradientTransform="matrix(0.7862, 0.0, 0.0, 0.7862, 624.9, 582.4)" gradientUnits="userSpaceOnUse" id="gradient0" r="819.2" spreadMethod="pad">
      <stop offset="0.0" stop-color="#cccc66"/>
      <stop offset="1.0" stop-color="#cc9966"/>
    </radialGradient>
    <radialGradient cx="0" cy="0" gradientTransform="matrix(0.7438, 0.0, 0.0, 0.7438, 329.45, 219.3)" gradientUnits="userSpaceOnUse" id="gradient1" r="819.2" spreadMethod="pad">
      <stop offset="0.0" stop-color="#ffffff"/>
      <stop offset="1.0" stop-color="#cccccc"/>
    </radialGradient>
    <radialGradient cx="0" cy="0" gradientTransform="matrix(0.3243, 0.0, 0.0, 0.3243, 121.3, 190.2)" gradientUnits="userSpaceOnUse" id="gradient2" r="819.2" spreadMethod="pad">
      <stop offset="0.0" stop-color="#ffffff"/>
      <stop offset="1.0" stop-color="#cccccc"/>
    </radialGradient>
  </defs>
</svg>
