<?xml version="1.0" encoding="UTF-8" standalone="no"?>
<svg xmlns:xlink="http://www.w3.org/1999/xlink" height="110.3px" width="89.1px" xmlns="http://www.w3.org/2000/svg">
  <g transform="matrix(1.0, 0.0, 0.0, 1.0, 0.5, 0.5)">
    <path d="M9.4 94.85 L7.95 91.7 Q19.5 97.05 32.1 98.6 44.1 100.15 56.5 98.65 L64.65 97.2 63.6 100.15 56.4 101.35 Q44.0 102.85 32.0 101.3 19.0 99.7 9.4 94.85 M7.5 17.3 L8.4 15.05 Q19.7 22.7 43.3 22.7 55.45 22.9 64.5 21.05 L65.1 22.95 Q55.5 24.9 43.2 24.8 20.65 24.65 7.5 17.3" fill="#ff6600" fill-rule="evenodd" stroke="none"/>
    <path d="M60.8 107.2 Q54.6 108.8 48.05 109.2 44.0 109.4 40.05 109.15 25.5 108.2 12.8 101.35 L9.4 94.85 Q19.0 99.7 32.0 101.3 44.0 102.85 56.4 101.35 L63.6 100.15 60.8 107.2 M7.95 91.7 L7.7 91.15 Q6.15 87.55 4.9 83.9 19.65 90.45 32.0 92.0 44.0 93.55 56.4 92.05 61.4 91.4 66.95 89.8 L64.65 97.2 56.5 98.65 Q44.1 100.15 32.1 98.6 19.5 97.05 7.95 91.7 M4.15 26.95 Q5.55 22.15 7.5 17.3 20.65 24.65 43.2 24.8 55.5 24.9 65.1 22.95 66.7 27.9 67.9 32.9 57.1 35.3 43.55 35.15 19.2 35.1 4.15 26.95 M8.4 15.05 L8.8 14.05 Q11.1 9.45 14.7 5.75 L15.05 5.4 Q25.0 0.35 40.05 0.05 L46.85 0.1 48.05 0.15 Q63.1 0.45 73.05 5.5 L73.4 5.85 Q70.65 9.15 60.4 10.4 L59.65 10.45 Q45.45 11.5 30.9 10.65 17.85 9.5 14.7 5.75 17.85 9.5 30.9 10.65 45.45 11.5 59.65 10.45 L60.4 10.4 Q62.7 15.7 64.5 21.05 55.45 22.9 43.3 22.7 19.7 22.7 8.4 15.05" fill="#ffffcc" fill-rule="evenodd" stroke="none"/>
    <path d="M4.9 83.9 L4.7 83.35 Q-4.45 56.1 4.15 26.95 19.2 35.1 43.55 35.15 57.1 35.3 67.9 32.9 74.65 61.6 66.95 89.8 61.4 91.4 56.4 92.05 44.0 93.55 32.0 92.0 19.65 90.45 4.9 83.9" fill="#990000" fill-rule="evenodd" stroke="none"/>
    <path d="M83.4 83.45 Q82.1 87.35 80.4 91.25 L80.05 92.1 Q72.35 95.4 64.65 97.2 L66.95 89.8 Q74.6 87.55 83.4 83.45 M78.7 94.95 L75.3 101.45 Q68.35 105.25 60.8 107.2 L63.6 100.15 Q72.0 98.35 78.7 94.95 M73.4 5.85 Q77.0 9.55 79.3 14.15 L79.75 15.15 Q73.8 19.15 64.5 21.05 62.7 15.7 60.4 10.4 70.65 9.15 73.4 5.85 M80.65 17.4 Q82.55 22.25 83.95 27.05 76.9 30.9 67.9 32.9 66.7 27.9 65.1 22.95 74.0 21.05 80.65 17.4" fill="#fefd89" fill-rule="evenodd" stroke="none"/>
    <path d="M83.95 27.05 Q92.55 56.2 83.4 83.45 74.6 87.55 66.95 89.8 74.65 61.6 67.9 32.9 76.9 30.9 83.95 27.05" fill="#740101" fill-rule="evenodd" stroke="none"/>
    <path d="M80.05 92.1 L78.7 94.95 Q72.0 98.35 63.6 100.15 L64.65 97.2 Q72.35 95.4 80.05 92.1 M79.75 15.15 L80.65 17.4 Q74.0 21.05 65.1 22.95 L64.5 21.05 Q73.8 19.15 79.75 15.15" fill="#e05401" fill-rule="evenodd" stroke="none"/>
    <path d="M83.4 83.45 Q82.1 87.35 80.4 91.25 L80.05 92.1 78.7 94.95 75.3 101.45 Q68.35 105.25 60.8 107.2 54.6 108.8 48.05 109.2 44.0 109.4 40.05 109.15 25.5 108.2 12.8 101.35 L9.4 94.85 7.95 91.7 7.7 91.15 Q6.15 87.55 4.9 83.9 L4.7 83.35 Q-4.45 56.1 4.15 26.95 5.55 22.15 7.5 17.3 L8.4 15.05 8.8 14.05 Q11.1 9.45 14.7 5.75 L15.05 5.4 Q25.0 0.35 40.05 0.05 L46.85 0.1 48.05 0.15 Q63.1 0.45 73.05 5.5 L73.4 5.85 Q77.0 9.55 79.3 14.15 L79.75 15.15 80.65 17.4 Q82.55 22.25 83.95 27.05 92.55 56.2 83.4 83.45 74.6 87.55 66.95 89.8 61.4 91.4 56.4 92.05 44.0 93.55 32.0 92.0 19.65 90.45 4.9 83.9 M64.65 97.2 Q72.35 95.4 80.05 92.1 M65.1 22.95 Q74.0 21.05 80.65 17.4 M64.5 21.05 Q73.8 19.15 79.75 15.15 M14.7 5.75 Q17.85 9.5 30.9 10.65 45.45 11.5 59.65 10.45 L60.4 10.4 Q70.65 9.15 73.4 5.85 M8.4 15.05 Q19.7 22.7 43.3 22.7 55.45 22.9 64.5 21.05 M4.15 26.95 Q19.2 35.1 43.55 35.15 57.1 35.3 67.9 32.9 76.9 30.9 83.95 27.05 M65.1 22.95 Q55.5 24.9 43.2 24.8 20.65 24.65 7.5 17.3 M7.95 91.7 Q19.5 97.05 32.1 98.6 44.1 100.15 56.5 98.65 L64.65 97.2 M63.6 100.15 Q72.0 98.35 78.7 94.95 M9.4 94.85 Q19.0 99.7 32.0 101.3 44.0 102.85 56.4 101.35 L63.6 100.15" fill="none" stroke="#000000" stroke-linecap="round" stroke-linejoin="round" stroke-width="1.0"/>
  </g>
</svg>
