<?xml version="1.0" encoding="UTF-8" standalone="no"?>
<svg xmlns:xlink="http://www.w3.org/1999/xlink" height="362.8px" width="420.25px" xmlns="http://www.w3.org/2000/svg">
  <g transform="matrix(1.0, 0.0, 0.0, 1.0, 0.5, 0.5)">
    <path d="M293.5 259.75 L293.55 259.5 293.55 259.75 293.5 259.75" fill="url(#gradient0)" fill-rule="evenodd" stroke="none"/>
    <path d="M225.85 284.7 L225.85 274.3 235.5 277.7 235.5 283.55 225.85 284.7 M225.85 219.65 L225.85 188.15 235.5 190.0 235.5 216.4 235.5 218.85 225.85 219.65 M293.55 200.95 L301.3 202.45 301.3 213.45 301.3 213.5 293.55 214.15 293.55 200.95 M0.0 213.55 L25.35 224.8 25.35 228.25 21.4 228.5 20.55 228.55 0.0 219.3 0.0 213.55 M25.35 241.75 L25.35 243.75 21.4 244.4 21.4 242.75 21.4 242.45 25.35 241.75 M47.85 242.3 L47.85 239.3 51.5 238.8 51.5 234.85 64.7 240.8 47.85 242.3 M62.75 226.55 L73.05 225.85 73.05 233.4 73.05 233.5 62.75 233.9 62.75 226.55 M62.75 279.75 L73.7 278.9 73.7 281.95 73.6 281.95 62.8 282.85 62.75 282.85 62.75 279.75 M62.75 290.5 L73.7 297.0 73.7 301.65 62.75 301.65 62.75 290.5 M293.55 245.85 L301.3 248.0 301.3 258.3 301.35 259.05 294.35 259.65 293.55 259.5 293.55 245.85 M225.85 265.45 L225.85 227.45 235.5 230.05 235.5 262.15 235.5 264.4 235.55 264.65 225.85 265.45 M294.75 264.95 L301.3 266.95 301.3 275.9 293.55 276.8 293.55 265.1 294.75 264.95" fill="#333366" fill-rule="evenodd" stroke="none"/>
    <path d="M21.4 262.8 L21.4 262.25 25.35 262.5 21.4 262.8" fill="#0099ff" fill-rule="evenodd" stroke="none"/>
    <path d="M188.7 138.05 Q174.25 143.3 157.25 136.85 156.95 135.3 157.05 133.95 157.4 129.25 162.1 126.55 173.8 130.6 184.75 127.5 187.35 129.25 188.7 138.05 M306.9 95.95 L309.6 95.95 312.15 95.95 313.05 95.95 316.35 95.95 318.2 95.95 319.0 95.95 322.05 95.95 322.05 127.8 299.95 126.85 299.95 95.95 301.2 95.95 303.0 95.95 304.25 95.95 304.75 95.95 306.9 95.95 M180.8 75.3 L186.7 74.5 Q186.8 79.0 181.75 82.2 L181.35 82.2 181.35 82.45 Q181.15 86.75 177.9 88.65 L168.3 88.65 177.9 88.65 177.9 114.8 Q172.85 115.75 168.25 113.45 L168.25 88.65 168.3 88.65 168.25 88.65 Q163.85 86.7 164.65 82.2 157.4 79.2 159.25 72.65 163.35 74.25 169.1 74.95 L173.05 75.3 176.75 75.4 180.8 75.3 M181.35 82.2 L164.65 82.2 181.35 82.2 M168.2 116.65 L168.25 116.7 Q173.6 118.9 179.0 117.65 182.2 119.9 181.5 122.9 L183.05 123.7 Q173.75 127.0 164.5 122.65 163.55 119.65 168.2 116.65" fill="#d3d375" fill-rule="evenodd" stroke="none"/>
    <path d="M324.35 77.85 L328.2 78.5 328.25 78.8 327.5 81.2 323.5 80.4 324.25 77.8 324.35 77.85 M304.55 71.05 L306.6 70.9 306.65 71.25 306.9 95.95 304.75 95.95 304.5 71.65 304.55 71.05 M316.7 80.7 L318.1 80.7 318.2 81.95 318.2 95.95 316.35 95.95 316.6 81.5 316.7 80.7" fill="#996600" fill-rule="evenodd" stroke="none"/>
    <path d="M327.5 81.2 L322.85 95.95 322.05 95.95 319.0 95.95 321.3 87.95 323.5 80.4 327.5 81.2 M309.6 95.95 L309.6 76.7 309.9 76.7 311.8 76.7 312.3 76.7 312.15 95.95 309.6 95.95 M300.95 81.45 L303.0 95.95 301.2 95.95 298.85 82.75 298.8 82.2 300.75 81.0 300.95 81.45" fill="#663300" fill-rule="evenodd" stroke="none"/>
    <path d="M306.75 66.5 Q306.45 64.25 305.25 62.25 304.7 63.85 304.45 65.5 304.05 68.15 304.55 71.05 L304.5 71.05 304.5 71.65 304.75 95.95 304.25 95.95 301.05 60.35 Q305.7 55.5 312.35 59.4 L312.9 76.7 312.3 76.7 311.8 76.7 Q312.05 74.85 311.7 73.15 311.4 71.45 310.55 69.9 L309.9 72.2 Q309.4 74.45 309.9 76.7 L309.6 76.7 309.6 95.95 306.9 95.95 306.65 71.25 306.65 70.9 306.6 70.9 Q307.05 68.55 306.75 66.5 M314.3 68.1 Q319.3 64.45 323.35 69.05 L321.3 87.95 319.0 95.95 318.2 95.95 318.2 81.95 318.2 80.7 318.1 80.7 Q318.7 77.7 318.25 75.45 317.95 74.15 317.3 73.05 316.55 74.9 316.4 76.75 316.2 78.7 316.7 80.7 L316.6 80.7 316.6 81.5 316.35 95.95 313.05 95.95 313.3 89.65 313.8 76.7 314.2 68.2 314.3 68.1" fill="#ead5bf" fill-rule="evenodd" stroke="none"/>
    <path d="M330.5 69.1 L326.15 70.2 Q327.45 67.55 329.75 64.6 330.4 66.85 330.5 69.1 M332.95 131.05 L332.95 134.15 296.5 136.45 296.5 133.25 296.35 132.1 332.95 131.05 M306.75 66.5 L304.45 65.5 Q304.7 63.85 305.25 62.25 306.45 64.25 306.75 66.5 M309.9 72.2 L310.55 69.9 Q311.4 71.45 311.7 73.15 L309.9 72.2 M298.0 75.95 Q298.05 74.3 298.4 72.7 L299.5 74.65 298.0 75.95 M318.25 75.45 L316.4 76.75 Q316.55 74.9 317.3 73.05 317.95 74.15 318.25 75.45" fill="#333333" fill-rule="evenodd" stroke="none"/>
    <path d="M326.15 70.2 L330.5 69.1 Q330.7 73.95 328.2 78.5 L324.35 77.85 Q323.95 74.45 326.15 70.2 M304.45 65.5 L306.75 66.5 Q307.05 68.55 306.6 70.9 L304.55 71.05 Q304.05 68.15 304.45 65.5 M309.9 76.7 Q309.4 74.45 309.9 72.2 L311.7 73.15 Q312.05 74.85 311.8 76.7 L309.9 76.7 M298.8 82.2 Q297.85 79.05 298.0 75.95 L299.5 74.65 Q300.6 77.3 300.75 81.0 L298.8 82.2 M316.4 76.75 L318.25 75.45 Q318.7 77.7 318.1 80.7 L316.7 80.7 Q316.2 78.7 316.4 76.75" fill="#cccccc" fill-rule="evenodd" stroke="none"/>
    <path d="M328.9 128.4 L332.95 128.85 332.95 129.3 332.95 131.05 296.35 132.1 296.2 132.0 273.15 130.7 272.35 130.6 272.35 128.75 297.3 126.85 299.95 126.85 322.05 127.8 328.9 128.4" fill="#666666" fill-rule="evenodd" stroke="none"/>
    <path d="M296.5 136.45 L272.35 134.15 272.35 130.7 273.15 130.7 296.2 132.0 296.35 132.1 296.5 133.25 296.5 136.45" fill="#999999" fill-rule="evenodd" stroke="none"/>
    <path d="M159.25 72.65 Q156.45 71.55 154.45 70.05 137.55 38.65 153.05 7.65 162.25 -0.7 179.15 0.05 190.8 0.6 198.1 5.45 216.1 38.45 198.1 69.7 194.85 72.0 190.8 73.4 L186.7 74.5 180.8 75.3 181.3 52.55 Q183.25 50.6 181.4 48.7 L181.55 41.5 175.8 41.75 168.75 42.05 168.85 53.2 Q167.75 54.1 167.0 56.15 L168.9 57.65 169.1 74.95 Q163.35 74.25 159.25 72.65 M176.5 33.45 L175.8 41.75 176.5 33.45" fill="#ffffcc" fill-rule="evenodd" stroke="none"/>
    <path d="M176.75 56.55 Q178.6 56.2 179.75 53.7 L181.3 52.55 180.8 75.3 176.75 75.4 176.75 56.55 M25.35 228.25 L25.35 241.75 21.4 242.45 21.4 228.5 25.35 228.25 M25.35 243.75 L25.35 252.3 25.35 256.45 25.35 260.5 25.35 262.5 21.4 262.25 21.4 260.9 21.4 256.8 21.4 252.3 21.4 244.4 25.35 243.75 M47.85 260.75 L47.85 245.1 47.85 242.3 64.7 240.8 64.8 240.85 64.8 243.35 64.8 246.85 64.8 250.55 64.8 254.4 64.8 259.05 47.85 260.75 M47.85 239.3 L47.85 227.6 51.5 227.35 51.5 228.85 51.5 229.05 51.5 234.85 51.5 238.8 47.85 239.3 M47.85 245.1 L64.8 243.35 47.85 245.1 M25.35 252.3 L21.4 252.3 25.35 252.3 M25.35 256.45 L21.4 256.8 25.35 256.45 M25.35 260.5 L21.4 260.9 25.35 260.5 M52.65 255.2 L64.8 254.4 52.65 255.2 M54.4 251.7 L64.8 250.55 54.4 251.7 M51.5 248.25 L64.8 246.85 51.5 248.25" fill="#ccffff" fill-rule="evenodd" stroke="none"/>
    <path d="M192.65 132.95 Q192.95 134.45 192.9 136.25 190.8 137.3 188.7 138.05 187.35 129.25 184.75 127.5 L187.65 126.55 187.95 126.7 Q191.7 128.65 192.65 132.95 M190.8 73.4 Q191.45 78.6 185.5 82.2 185.3 86.5 182.05 88.4 181.85 88.55 181.6 88.65 L177.9 88.65 181.6 88.65 182.05 88.65 182.05 113.45 177.9 114.8 177.85 116.95 179.0 117.65 182.0 116.7 Q186.45 119.2 185.65 122.65 L183.05 123.7 181.5 122.9 Q182.2 119.9 179.0 117.65 173.6 118.9 168.25 116.7 L168.25 116.6 168.25 113.45 Q172.85 115.75 177.9 114.8 L177.9 88.65 Q181.15 86.75 181.35 82.45 L181.75 82.2 Q186.8 79.0 186.7 74.5 L190.8 73.4 M185.5 82.2 L181.75 82.2 185.5 82.2 M164.5 122.65 Q173.75 127.0 183.05 123.7 185.0 125.05 183.8 126.95 L184.75 127.5 Q173.8 130.6 162.1 126.55 L162.05 126.55 Q161.05 124.2 164.5 122.65" fill="#bcbc3d" fill-rule="evenodd" stroke="none"/>
    <path d="M322.85 95.95 L328.9 95.95 328.9 128.4 322.05 127.8 322.05 95.95 322.85 95.95 M182.05 113.45 L182.05 116.45 182.0 116.7 179.0 117.65 177.85 116.95 177.9 114.8 182.05 113.45 M185.65 122.65 Q189.45 124.15 188.05 126.55 L187.65 126.55 184.75 127.5 183.8 126.95 Q185.0 125.05 183.05 123.7 L185.65 122.65" fill="#999831" fill-rule="evenodd" stroke="none"/>
    <path d="M0.0 219.3 L20.55 228.55 21.4 228.5 21.4 242.45 20.85 242.55 21.4 242.75 21.4 244.4 21.4 252.3 21.4 256.8 21.4 260.9 21.4 262.25 20.4 262.2 0.0 249.25 0.0 232.05 0.0 219.3 M20.85 242.55 L0.0 232.05 20.85 242.55" fill="#494994" fill-rule="evenodd" stroke="none"/>
    <path d="M397.95 283.55 L397.95 286.95 396.55 287.1 397.95 287.5 407.25 289.9 407.25 290.0 338.7 298.6 338.7 293.75 376.65 289.4 396.5 287.1 338.7 272.15 338.7 268.1 397.95 283.55 M396.5 287.1 L396.55 287.1 396.5 287.1 M25.35 283.4 L25.35 286.0 0.0 288.15 0.0 285.5 25.35 283.4 M25.35 318.9 L25.35 327.5 0.0 309.25 0.0 299.45 25.35 318.9 M139.55 324.0 L47.85 334.9 47.85 327.2 113.0 320.5 130.25 318.7 131.05 319.15 139.55 324.0 M47.85 284.1 L47.85 281.0 57.75 280.2 62.75 282.85 47.85 284.1 M131.05 310.35 L131.05 318.6 130.25 318.7 62.8 282.85 73.6 281.95 73.7 282.05 131.05 310.35 M319.35 263.05 L319.35 267.1 294.1 260.55 294.35 259.65 301.35 259.05 303.5 258.9 319.35 263.05 M319.35 293.1 L319.35 298.0 225.85 265.65 225.85 265.45 235.55 264.65 236.1 264.6 251.75 269.95 319.35 293.1 M286.5 257.75 L293.55 259.5 293.5 259.75 236.1 264.6 235.5 264.4 235.5 262.15 286.15 257.8 286.5 257.8 286.5 257.75" fill="#a2a6ce" fill-rule="evenodd" stroke="none"/>
    <path d="M407.2 310.95 L406.8 311.0 398.7 307.55 397.95 301.65 407.2 300.5 407.2 310.95 M407.2 239.9 L406.35 240.0 397.95 238.05 397.95 236.3 397.95 199.2 407.2 198.45 407.2 239.9 M407.25 285.9 L407.05 285.95 407.25 286.0 407.25 289.9 397.95 287.5 397.95 286.95 397.95 283.55 397.95 249.55 407.2 248.8 407.25 285.9 M338.7 278.1 L338.7 272.15 396.5 287.1 376.65 289.4 338.7 278.1 M329.0 147.9 L329.0 321.45 319.35 318.0 319.35 307.55 235.5 277.7 225.85 274.3 225.85 284.7 216.8 281.45 216.8 152.4 225.85 152.05 225.85 180.2 319.35 196.25 319.35 157.0 260.75 150.65 329.0 147.9 M235.5 190.0 L225.85 188.15 225.85 219.65 225.85 219.7 319.35 243.05 319.35 217.75 319.35 205.85 301.3 202.45 293.55 200.95 286.5 199.65 293.55 200.95 293.55 214.15 291.05 214.35 286.5 213.2 286.5 213.05 286.5 199.65 235.5 190.0 M33.5 159.8 L34.3 159.95 34.3 361.4 25.35 353.15 25.35 339.95 0.0 320.5 0.0 309.25 25.35 327.5 25.35 318.9 25.35 294.35 25.35 286.0 25.35 294.35 0.0 297.1 0.0 288.15 25.35 286.0 25.35 283.4 25.35 278.35 0.0 262.35 0.0 253.95 25.35 268.65 25.35 262.5 25.35 260.5 25.35 256.45 25.35 252.3 25.35 243.75 25.35 241.75 25.35 228.25 25.35 224.8 0.0 213.55 0.0 204.5 25.35 213.65 25.35 169.25 0.0 163.35 0.0 152.8 33.5 159.8 M131.05 221.85 L140.45 221.2 140.45 262.35 131.05 259.0 131.05 254.9 131.05 221.85 M51.5 227.35 L62.75 226.55 62.75 233.9 62.45 233.9 51.5 229.05 51.5 228.85 51.5 227.35 M131.05 274.05 L140.45 273.3 140.45 323.9 139.55 324.0 131.05 319.15 131.05 318.6 131.05 310.35 131.05 274.05 M47.85 291.95 L47.85 284.1 62.75 282.85 62.8 282.85 130.25 318.7 113.0 320.5 73.7 297.0 62.75 290.5 62.75 290.35 62.75 282.85 62.75 290.35 62.5 290.35 62.75 290.5 62.75 301.65 61.9 301.65 52.4 296.55 52.4 291.45 47.85 291.95 M57.75 280.2 L62.75 279.75 62.75 282.85 57.75 280.2 M62.5 290.35 L52.4 291.45 62.5 290.35 M131.05 335.4 L140.1 334.4 140.1 347.95 131.05 341.7 131.05 335.4 M293.55 245.85 L286.5 243.95 293.55 245.85 293.55 259.5 286.5 257.75 286.5 243.95 235.5 230.05 225.85 227.45 225.85 265.45 225.85 265.65 319.35 298.0 319.35 293.1 319.35 272.35 319.35 267.1 319.35 272.35 301.3 266.95 294.75 264.95 293.55 264.7 293.55 260.55 293.55 264.7 293.55 265.1 286.5 265.9 293.55 265.1 293.55 276.8 292.2 276.95 286.5 274.6 286.5 265.9 251.75 269.95 236.1 264.6 293.5 259.75 293.55 260.4 293.55 260.55 294.1 260.55 319.35 267.1 319.35 263.05 319.35 252.9 301.3 248.0 293.55 245.85" fill="#8991c0" fill-rule="evenodd" stroke="none"/>
    <path d="M0.0 143.1 L33.9 148.85 34.3 148.9 34.3 159.75 33.5 159.8 0.0 152.8 0.0 143.1" fill="#7a83b8" fill-rule="evenodd" stroke="none"/>
    <path d="M419.25 133.9 L419.25 144.2 417.55 144.25 329.0 147.9 260.75 150.65 319.35 157.0 319.35 196.25 225.85 180.2 225.85 152.05 216.8 152.4 152.35 155.0 34.3 159.75 34.3 148.9 34.3 148.8 418.55 133.9 419.25 133.9 M260.75 150.65 L225.85 152.05 260.75 150.65 M0.0 163.35 L25.35 169.25 25.35 213.65 0.0 204.5 0.0 163.35" fill="#6872ae" fill-rule="evenodd" stroke="none"/>
    <path d="M338.7 159.0 L407.2 156.1 407.2 192.2 338.7 196.8 338.7 159.0 M140.9 168.2 L140.9 211.0 47.85 216.85 47.85 171.5 140.9 168.2" fill="#475087" fill-rule="evenodd" stroke="none"/>
    <path d="M332.95 129.3 L418.55 133.9 34.3 148.8 33.9 148.85 0.0 143.1 0.0 138.4 157.05 133.95 Q156.95 135.3 157.25 136.85 174.25 143.3 188.7 138.05 190.8 137.3 192.9 136.25 192.95 134.45 192.65 132.95 L272.35 130.7 272.35 134.15 296.5 136.45 332.95 134.15 332.95 131.05 332.95 129.3" fill="#cdd0e4" fill-rule="evenodd" stroke="none"/>
    <path d="M397.95 236.3 L397.95 238.05 406.35 240.0 338.7 245.75 338.7 222.3 397.95 236.3 M319.35 217.75 L319.35 243.05 225.85 219.7 225.85 219.65 235.5 218.85 235.5 216.4 285.9 213.05 286.5 213.2 291.05 214.35 293.55 214.95 293.55 214.15 301.3 213.5 301.45 213.5 319.35 217.75 M25.35 262.5 L25.35 268.65 0.0 253.95 0.0 249.25 20.4 262.2 21.35 262.8 21.4 262.85 21.4 262.8 25.35 262.5 M140.45 262.35 L140.45 262.95 47.85 272.0 47.85 260.75 64.8 259.05 64.8 254.4 64.8 250.55 64.8 246.85 64.8 243.35 64.8 240.85 64.8 240.8 64.7 240.8 51.5 234.85 51.5 229.05 62.45 233.9 62.75 234.05 62.75 233.9 73.05 233.5 73.25 233.5 131.05 254.9 131.05 259.0 140.45 262.35 M64.05 234.6 L62.75 234.05 64.05 234.6" fill="#bcc1da" fill-rule="evenodd" stroke="none"/>
    <path d="M417.55 144.25 L417.55 309.4 407.2 310.95 407.2 300.5 397.95 301.65 338.7 309.1 338.7 321.05 331.1 322.2 329.0 321.45 329.0 147.9 417.55 144.25 M338.7 159.0 L338.7 196.8 407.2 192.2 407.2 156.1 338.7 159.0 M407.2 239.9 L407.2 198.45 397.95 199.2 338.7 204.1 338.7 222.3 338.7 245.75 406.35 240.0 407.15 240.15 407.2 239.9 M407.25 285.9 L407.2 248.8 397.95 249.55 338.7 254.65 338.7 268.1 338.7 272.15 338.7 278.1 338.7 293.75 338.7 298.6 407.25 290.0 407.25 289.9 407.25 286.0 407.25 285.9 M34.3 159.75 L152.35 155.0 150.5 346.1 140.15 348.0 140.1 347.95 140.1 334.4 131.05 335.4 47.9 345.05 47.9 359.45 34.65 361.75 34.3 361.4 34.3 159.95 34.3 159.75 M140.9 168.2 L47.85 171.5 47.85 216.85 140.9 211.0 140.9 168.2 M140.45 262.35 L140.45 221.2 131.05 221.85 73.05 225.85 62.75 226.55 51.5 227.35 47.85 227.6 47.85 239.3 47.85 242.3 47.85 245.1 47.85 260.75 47.85 272.0 140.45 262.95 140.45 262.35 M139.55 324.0 L140.45 323.9 140.45 273.3 131.05 274.05 73.7 278.9 62.75 279.75 57.75 280.2 47.85 281.0 47.85 284.1 47.85 291.95 47.85 327.2 47.85 334.9 139.55 324.0" fill="#4a568a" fill-rule="evenodd" stroke="none"/>
    <path d="M330.5 69.1 Q330.4 66.85 329.75 64.6 327.45 67.55 326.15 70.2 323.95 74.45 324.35 77.85 L328.2 78.5 Q330.7 73.95 330.5 69.1 M328.25 78.8 L327.5 81.2 322.85 95.95 328.9 95.95 328.9 128.4 332.95 128.85 332.95 129.3 332.95 131.05 332.95 134.15 296.5 136.45 272.35 134.15 272.35 130.7 272.35 130.6 273.15 130.7 M323.5 80.4 L324.25 77.8 324.35 77.85 M328.2 78.5 L328.25 78.8 328.35 78.5 328.2 78.5 M192.65 132.95 Q192.95 134.45 192.9 136.25 190.8 137.3 188.7 138.05 174.25 143.3 157.25 136.85 156.95 135.3 157.05 133.95 M0.0 138.4 L0.0 143.1 0.0 152.8 0.0 163.35 0.0 204.5 0.0 213.55 0.0 219.3 20.55 228.55 21.4 228.5 25.35 228.25 M306.75 66.5 Q306.45 64.25 305.25 62.25 304.7 63.85 304.45 65.5 304.05 68.15 304.55 71.05 L306.6 70.9 Q307.05 68.55 306.75 66.5 M306.65 71.25 L306.6 70.9 306.65 70.9 306.65 71.25 306.9 95.95 309.6 95.95 309.6 76.7 309.9 76.7 Q309.4 74.45 309.9 72.2 L310.55 69.9 Q311.4 71.45 311.7 73.15 312.05 74.85 311.8 76.7 L312.3 76.7 312.9 76.7 312.35 59.4 Q305.7 55.5 301.05 60.35 L304.25 95.95 304.75 95.95 304.5 71.65 304.5 71.05 304.55 71.05 304.5 71.65 M323.35 69.05 L321.3 87.95 323.5 80.4 327.5 81.2 M313.8 76.7 L314.2 68.2 314.3 68.1 M298.85 82.75 L298.75 82.25 298.8 82.2 Q297.85 79.05 298.0 75.95 298.05 74.3 298.4 72.7 L299.5 74.65 Q300.6 77.3 300.75 81.0 L300.85 80.9 300.95 81.45 303.0 95.95 304.25 95.95 M300.75 81.0 L298.8 82.2 298.85 82.75 301.2 95.95 303.0 95.95 M300.95 81.45 L300.75 81.0 M299.95 126.85 L299.95 95.95 301.2 95.95 M318.25 75.45 Q317.95 74.15 317.3 73.05 316.55 74.9 316.4 76.75 316.2 78.7 316.7 80.7 L318.1 80.7 Q318.7 77.7 318.25 75.45 M318.2 80.7 L318.2 81.95 318.2 95.95 319.0 95.95 321.3 87.95 M318.1 80.7 L318.2 80.7 M318.1 80.7 L318.2 81.95 M316.7 80.7 L316.6 81.5 316.35 95.95 318.2 95.95 M316.6 81.5 L316.6 80.7 316.7 80.7 M312.9 76.7 L313.8 76.7 313.3 89.65 313.05 95.95 316.35 95.95 M309.9 76.7 L311.8 76.7 M304.75 95.95 L306.9 95.95 M309.6 95.95 L312.15 95.95 312.3 76.7 M312.15 95.95 L313.05 95.95 M319.0 95.95 L322.05 95.95 322.85 95.95 M313.3 89.65 L312.9 76.7 M159.25 72.65 Q156.45 71.55 154.45 70.05 137.55 38.65 153.05 7.65 162.25 -0.7 179.15 0.05 190.8 0.6 198.1 5.45 216.1 38.45 198.1 69.7 194.85 72.0 190.8 73.4 191.45 78.6 185.5 82.2 185.3 86.5 182.05 88.4 L182.05 88.65 182.05 113.45 182.05 116.45 182.05 116.7 182.0 116.7 Q186.45 119.2 185.65 122.65 189.45 124.15 188.05 126.55 L187.95 126.7 Q191.7 128.65 192.65 132.95 M181.3 52.55 Q183.25 50.6 181.4 48.7 L181.55 41.5 175.8 41.75 168.75 42.05 168.85 53.2 Q167.75 54.1 167.0 56.15 L168.9 57.65 Q171.45 59.0 171.9 54.6 174.75 56.9 176.75 56.55 178.6 56.2 179.75 53.7 L181.3 52.55 180.8 75.3 186.7 74.5 190.8 73.4 M175.8 41.75 L176.5 33.45 M181.35 82.45 L181.75 82.2 185.5 82.2 M180.8 75.3 L176.75 75.4 173.05 75.3 169.1 74.95 Q163.35 74.25 159.25 72.65 157.4 79.2 164.65 82.2 L181.35 82.2 M168.3 88.65 L168.25 88.65 Q163.85 86.7 164.65 82.2 M168.3 88.65 L177.9 88.65 181.6 88.65 Q181.85 88.55 182.05 88.4 M169.1 74.95 L168.9 57.65 M183.05 123.7 L185.65 122.65 M168.25 116.7 L168.25 116.6 168.2 116.65 Q163.55 119.65 164.5 122.65 173.75 127.0 183.05 123.7 M179.0 117.65 Q173.6 118.9 168.25 116.7 M168.25 116.6 L168.25 113.45 168.25 88.65 M179.0 117.65 L182.0 116.7 182.05 116.45 M177.9 114.8 L182.05 113.45 M168.25 113.45 Q172.85 115.75 177.9 114.8 M162.1 126.55 L162.05 126.55 Q161.05 124.2 164.5 122.65 M187.65 126.55 L187.95 126.7 M188.05 126.55 L187.65 126.55 184.75 127.5 Q173.8 130.6 162.1 126.55 157.4 129.25 157.05 133.95 M272.35 130.6 L272.35 128.75 297.3 126.85 299.95 126.85 322.05 127.8 328.9 128.4 M296.35 132.1 L296.2 132.0 273.15 130.7 M296.5 136.45 L296.5 133.25 296.35 132.1 332.95 131.05 M0.0 253.95 L0.0 262.35 0.0 285.5 0.0 288.15 0.0 297.1 0.0 299.45 0.0 309.25 0.0 320.5 M51.5 227.35 L51.5 228.85 M51.5 229.05 L51.5 234.85 64.7 240.8 64.8 240.8 64.8 240.85 64.8 243.35 64.8 246.85 64.8 250.55 64.8 254.4 64.8 259.05 47.85 260.75 M47.85 239.3 L51.5 238.8 51.5 234.85 M64.7 240.8 L64.8 240.85 M47.85 242.3 L64.7 240.8 M64.8 243.35 L47.85 245.1 M25.35 241.75 L21.4 242.45 21.4 242.75 21.4 244.4 25.35 243.75 M21.4 242.45 L20.85 242.55 21.4 242.75 M21.4 228.5 L21.4 242.45 M0.0 232.05 L20.85 242.55 M0.0 219.3 L0.0 232.05 0.0 249.25 20.4 262.2 21.35 262.8 M21.4 262.25 L21.4 260.9 21.4 256.8 21.4 252.3 21.4 244.4 M21.4 256.8 L25.35 256.45 M21.4 252.3 L25.35 252.3 M21.4 262.8 L21.4 262.25 M21.4 262.8 L21.4 262.85 21.35 262.8 M21.4 260.9 L25.35 260.5 M0.0 249.25 L0.0 253.95 M64.8 250.55 L54.4 251.7 M64.8 254.4 L52.65 255.2 M64.8 246.85 L51.5 248.25" fill="none" stroke="#000000" stroke-linecap="round" stroke-linejoin="round" stroke-width="1.0"/>
    <path d="M332.95 129.3 L418.55 133.9 419.25 133.85 419.25 133.9 419.25 144.2 417.55 144.25 417.55 309.4 407.2 310.95 406.8 311.0 398.7 307.55 397.95 301.65 338.7 309.1 338.7 321.05 331.1 322.2 328.3 322.65 M272.35 130.7 L192.65 132.95 M157.05 133.95 L0.0 138.4 M0.0 143.1 L33.9 148.85 34.3 148.8 418.55 133.9 M338.7 159.0 L407.2 156.1 407.2 192.2 338.7 196.8 338.7 159.0 M329.0 147.9 L417.55 144.25 M406.35 240.0 L407.2 239.9 407.2 198.45 397.95 199.2 397.95 236.3 397.95 238.05 406.35 240.0 407.15 240.15 407.2 239.9 M407.25 286.0 L407.05 285.95 407.25 285.9 407.2 248.8 397.95 249.55 397.95 283.55 397.95 286.95 397.95 287.5 407.25 289.9 407.25 286.0 407.25 285.9 M407.25 289.9 L407.25 290.0 338.7 298.6 338.7 293.75 338.7 278.1 338.7 272.15 338.7 268.1 338.7 254.65 397.95 249.55 M338.7 222.3 L338.7 204.1 397.95 199.2 M406.35 240.0 L338.7 245.75 338.7 222.3 397.95 236.3 M397.95 286.95 L396.55 287.1 397.95 287.5 M396.5 287.1 L396.55 287.1 396.5 287.1 376.65 289.4 338.7 293.75 M338.7 272.15 L396.5 287.1 M376.65 289.4 L338.7 278.1 M397.95 283.55 L338.7 268.1 M329.0 321.45 L331.1 322.2 M397.95 301.65 L407.2 300.5 407.2 310.95 M329.0 321.45 L329.0 147.9 260.75 150.65 319.35 157.0 319.35 196.25 225.85 180.2 225.85 152.05 216.8 152.4 216.8 281.45 225.85 284.7 225.85 274.3 235.5 277.7 319.35 307.55 319.35 318.0 329.0 321.45 M314.3 68.1 Q319.3 64.45 323.35 69.05 M225.85 219.65 L225.85 188.15 235.5 190.0 286.5 199.65 293.55 200.95 301.3 202.45 319.35 205.85 319.35 217.75 319.35 243.05 225.85 219.7 225.85 219.65 235.5 218.85 235.5 216.4 235.5 190.0 M273.15 130.7 L272.35 130.7 M225.85 152.05 L260.75 150.65 M34.3 148.8 L34.3 148.9 34.3 159.75 152.35 155.0 216.8 152.4 M34.3 148.9 L33.9 148.85 M33.5 159.8 L34.3 159.95 34.3 159.75 33.5 159.8 0.0 152.8 M0.0 163.35 L25.35 169.25 25.35 213.65 0.0 204.5 M0.0 213.55 L25.35 224.8 25.35 228.25 25.35 241.75 25.35 243.75 25.35 252.3 25.35 256.45 25.35 260.5 25.35 262.5 25.35 268.65 0.0 253.95 M0.0 262.35 L25.35 278.35 25.35 283.4 25.35 286.0 25.35 294.35 25.35 318.9 25.35 327.5 0.0 309.25 M0.0 320.5 L25.35 339.95 25.35 353.15 34.3 361.4 34.3 159.95 M140.9 168.2 L140.9 211.0 47.85 216.85 47.85 171.5 140.9 168.2 M131.05 221.85 L140.45 221.2 140.45 262.35 140.45 262.95 47.85 272.0 47.85 260.75 47.85 245.1 47.85 242.3 47.85 239.3 47.85 227.6 51.5 227.35 62.75 226.55 73.05 225.85 131.05 221.85 131.05 254.9 131.05 259.0 140.45 262.35 M131.05 274.05 L140.45 273.3 140.45 323.9 139.55 324.0 47.85 334.9 47.85 327.2 47.85 291.95 47.85 284.1 47.85 281.0 57.75 280.2 62.75 279.75 73.7 278.9 131.05 274.05 131.05 310.35 131.05 318.6 131.05 319.15 139.55 324.0 M51.5 228.85 L51.5 229.05 62.45 233.9 62.75 233.9 62.75 226.55 M73.05 225.85 L73.05 233.4 73.25 233.5 131.05 254.9 M73.05 233.5 L73.25 233.5 M62.75 234.05 L62.45 233.9 M62.75 233.9 L62.75 234.05 64.05 234.6 M73.05 233.5 L62.75 233.9 M21.35 262.8 L21.4 262.8 M25.35 262.5 L21.4 262.8 M0.0 288.15 L25.35 286.0 M0.0 285.5 L25.35 283.4 M61.9 301.65 L52.4 296.55 52.4 291.45 47.85 291.95 M131.05 310.35 L73.7 282.05 73.6 281.95 62.8 282.85 130.25 318.7 131.05 318.6 M73.7 281.95 L73.7 282.05 M73.6 281.95 L73.7 281.95 73.7 278.9 M62.75 282.85 L62.8 282.85 62.75 282.85 62.75 290.35 62.75 290.5 73.7 297.0 113.0 320.5 130.25 318.7 131.05 319.15 M62.75 279.75 L62.75 282.85 57.75 280.2 M62.75 290.35 L62.5 290.35 62.75 290.5 62.75 301.65 73.7 301.65 73.7 297.0 M62.75 282.85 L47.85 284.1 M52.4 291.45 L62.5 290.35 M61.9 301.65 L62.75 301.65 62.75 302.15 61.9 301.65 M0.0 299.45 L25.35 318.9 M34.3 361.4 L34.3 361.8 34.65 361.75 34.3 361.4 M34.65 361.75 L47.9 359.45 47.9 345.05 131.05 335.4 140.1 334.4 140.1 347.95 140.15 348.0 150.5 346.1 152.35 155.0 M131.05 335.4 L131.05 341.7 140.1 347.95 140.1 348.0 140.15 348.0 M0.0 297.1 L25.35 294.35 M113.0 320.5 L47.85 327.2 M293.55 214.15 L293.55 214.95 291.05 214.35 286.5 213.2 285.9 213.05 235.5 216.4 M286.5 199.65 L286.5 213.05 286.5 213.2 M285.9 213.05 L286.5 213.05 M291.05 214.35 L293.55 214.15 293.55 200.95 M301.45 213.5 L301.3 213.45 301.3 213.5 301.45 213.5 319.35 217.75 M301.3 202.45 L301.3 213.45 M293.55 214.15 L301.3 213.5 M286.5 243.95 L293.55 245.85 301.3 248.0 319.35 252.9 319.35 263.05 319.35 267.1 319.35 272.35 319.35 293.1 319.35 298.0 225.85 265.65 225.85 265.45 225.85 227.45 235.5 230.05 286.5 243.95 286.5 257.75 293.55 259.5 293.55 245.85 M301.35 259.05 L303.5 258.9 301.3 258.3 301.3 248.0 M301.35 259.05 L294.35 259.65 293.55 259.75 293.55 260.4 294.1 260.55 319.35 267.1 M286.5 257.75 L286.5 257.8 286.15 257.8 235.5 262.15 235.5 264.4 236.1 264.6 293.5 259.75 293.55 259.75 293.55 259.5 294.35 259.65 M293.55 260.55 L293.55 264.7 294.75 264.95 301.3 266.95 319.35 272.35 M286.15 257.8 L286.5 257.75 M286.5 265.9 L293.55 265.1 293.55 264.7 M293.55 260.55 L293.55 260.4 M293.55 265.1 L294.75 264.95 M301.3 266.95 L301.3 275.9 293.55 276.8 292.2 276.95 286.5 274.6 286.5 265.9 251.75 269.95 319.35 293.1 M293.55 265.1 L293.55 276.8 M303.5 258.9 L319.35 263.05 M235.55 264.65 L236.1 264.6 251.75 269.95 M225.85 265.45 L235.55 264.65 M235.5 277.7 L235.5 283.55 225.85 284.7 M235.5 230.05 L235.5 262.15" fill="none" stroke="#000000" stroke-linecap="round" stroke-linejoin="round" stroke-width="1.0"/>
  </g>
  <defs>
    <radialGradient cx="0" cy="0" gradientTransform="matrix(1.0, 0.0, 0.0, 1.0, 0.0, 0.0)" gradientUnits="userSpaceOnUse" id="gradient0" r="819.2" spreadMethod="pad">
      <stop offset="0.0" stop-color="#ffd9d9"/>
      <stop offset="1.0" stop-color="#ff9999"/>
    </radialGradient>
  </defs>
</svg>
