<?xml version="1.0" encoding="UTF-8" standalone="no"?>
<svg xmlns:xlink="http://www.w3.org/1999/xlink" height="597.85px" width="354.85px" xmlns="http://www.w3.org/2000/svg">
  <g transform="matrix(1.0, 0.0, 0.0, 1.0, 0.5, 0.5)">
    <path d="M52.25 28.3 L52.95 28.2 52.95 28.4 52.25 28.3" fill="#99ccff" fill-rule="evenodd" stroke="none"/>
    <path d="M48.35 27.9 L52.25 28.3 48.35 29.05 48.35 27.9" fill="#9999ff" fill-rule="evenodd" stroke="none"/>
    <path d="M179.15 0.95 L210.4 0.95 210.4 518.95 210.4 519.7 202.75 521.35 202.45 521.4 Q188.8 523.25 174.25 518.2 L174.25 0.95 179.15 0.95" fill="url(#gradient0)" fill-rule="evenodd" stroke="none"/>
    <path d="M266.75 36.75 L266.7 37.0 266.2 36.9 266.75 36.75" fill="url(#gradient1)" fill-rule="evenodd" stroke="none"/>
    <path d="M308.25 78.7 L308.45 78.65 308.45 78.75 308.25 78.7" fill="url(#gradient2)" fill-rule="evenodd" stroke="none"/>
    <path d="M95.2 0.15 L102.15 0.25 95.2 0.3 95.2 0.15" fill="url(#gradient3)" fill-rule="evenodd" stroke="none"/>
    <path d="M210.75 519.15 L210.4 519.7 210.75 519.1 210.75 519.15" fill="url(#gradient4)" fill-rule="evenodd" stroke="none"/>
    <path d="M202.35 554.35 Q186.3 557.25 169.15 549.85 L168.25 544.3 Q166.3 529.95 169.3 523.0 170.9 519.35 174.25 518.2 188.8 523.25 202.45 521.4 L202.85 522.2 Q208.05 531.5 202.35 554.35" fill="#ffffcc" fill-rule="evenodd" stroke="none"/>
    <path d="M304.8 13.95 L304.9 13.95 304.8 14.0 304.8 13.95" fill="#0188a9" fill-rule="evenodd" stroke="none"/>
    <path d="M233.0 0.9 L233.3 287.35 333.55 290.5 331.8 0.65 343.85 0.6 343.85 573.35 343.8 573.5 223.25 539.45 222.85 0.95 233.0 0.9 M77.2 559.45 L67.3 555.6 Q62.95 548.85 65.9 544.95 L77.0 549.3 Q73.6 552.9 77.2 559.45 M68.3 542.5 Q62.35 537.9 66.55 531.1 L66.8 530.85 77.2 534.8 77.4 534.75 77.45 535.0 Q72.2 539.9 75.75 546.15 L68.6 542.55 68.45 542.5 68.35 542.45 68.3 542.5 M69.65 528.5 L69.3 528.4 69.3 79.95 70.25 79.5 76.95 76.15 78.35 531.3 69.65 528.5 M87.3 0.1 L95.2 0.15 95.2 0.3 95.2 284.9 143.8 283.4 143.8 0.45 151.7 0.5 151.45 291.95 87.3 293.9 87.3 0.1 M236.7 313.35 L332.15 318.9 332.15 300.05 236.7 295.15 232.55 294.9 232.55 313.1 236.7 313.35 M236.7 321.45 L231.8 321.1 234.0 505.85 236.7 506.55 332.9 531.3 332.15 328.4 236.7 321.45 M236.7 516.7 L234.0 516.0 234.1 530.1 236.7 530.85 333.65 558.25 333.65 541.45 236.7 516.7" fill="#454689" fill-rule="evenodd" stroke="none"/>
    <path d="M264.2 40.25 L264.25 39.95 264.2 40.25 M58.3 29.1 L58.3 29.5 58.15 29.15 58.3 29.1" fill="#02b4d2" fill-rule="evenodd" stroke="none"/>
    <path d="M37.3 77.0 L37.35 76.65 37.45 76.95 37.3 77.0" fill="#0fdafd" fill-rule="evenodd" stroke="none"/>
    <path d="M65.9 544.95 Q66.85 543.75 68.45 542.8 L68.6 542.55 75.75 546.15 81.55 546.55 Q78.55 547.6 77.0 549.3 L65.9 544.95 M66.8 530.85 L69.65 528.5 78.35 531.3 78.4 531.35 161.35 519.0 159.1 0.55 159.1 0.35 161.95 0.35 161.95 0.6 161.95 0.95 164.2 521.1 77.75 534.7 77.4 534.75 77.2 534.8 66.8 530.85 M236.7 313.35 L232.55 313.1 232.55 294.9 236.7 295.15 236.7 313.35 M236.7 506.55 L234.0 505.85 231.8 321.1 236.7 321.45 236.7 506.55 M236.7 530.85 L234.1 530.1 234.0 516.0 236.7 516.7 236.7 530.85" fill="#6f75b5" fill-rule="evenodd" stroke="none"/>
    <path d="M318.6 3.75 L324.85 2.1 324.85 0.65 331.8 0.65 333.55 290.5 233.3 287.35 233.0 0.9 238.1 0.9 238.2 22.95 243.7 21.55 245.8 21.05 245.8 4.45 254.3 0.85 262.6 0.85 262.6 5.65 252.7 9.15 252.7 9.25 252.7 26.3 238.2 29.75 238.2 29.8 238.25 60.25 244.65 58.95 251.4 57.6 251.4 33.55 260.65 31.5 260.65 14.4 274.6 10.85 274.55 0.8 280.65 0.75 280.65 9.35 287.45 7.65 295.7 5.55 296.2 5.45 296.5 5.5 296.5 23.1 302.0 21.7 308.45 20.0 308.45 45.9 315.8 44.4 325.05 42.5 324.9 12.6 324.85 9.2 304.9 13.95 304.8 13.95 304.8 0.7 312.6 0.65 312.6 5.35 318.6 3.75 M11.3 0.05 L17.75 0.05 17.75 6.0 22.9 6.0 22.9 0.05 28.75 0.05 28.75 17.45 28.75 18.9 36.4 20.05 46.75 21.65 46.75 15.3 45.95 15.1 34.9 13.45 34.9 13.15 34.9 0.05 41.1 0.05 41.1 9.1 46.75 9.95 47.1 0.05 52.4 0.05 52.4 10.8 58.3 11.7 58.3 0.05 74.7 0.05 76.7 0.05 76.95 76.0 48.0 73.15 47.55 73.1 47.55 48.25 50.8 48.55 52.95 48.75 52.95 42.3 35.7 40.2 34.9 40.1 34.9 27.1 34.9 27.0 22.9 25.05 22.9 24.75 22.9 11.9 22.9 11.05 11.3 10.7 11.3 0.05 M325.2 82.7 L325.1 53.65 325.05 50.45 308.45 53.7 308.45 53.8 308.45 78.65 308.25 78.7 297.15 80.8 297.1 80.8 297.1 98.7 296.85 98.75 281.35 101.2 281.05 101.2 281.2 129.3 287.7 128.4 294.35 127.55 294.35 105.7 305.7 104.0 305.7 86.25 325.2 82.7 325.25 89.25 325.2 82.7 M325.3 92.5 L325.25 89.25 313.1 91.3 313.1 91.35 313.1 109.6 313.1 109.65 301.35 111.3 301.1 111.35 301.1 126.65 307.2 125.85 325.4 123.45 325.3 92.5 M325.45 132.95 L325.45 131.15 301.4 134.6 301.0 134.65 301.0 148.9 307.25 148.15 312.65 147.5 312.8 147.5 312.8 166.15 319.1 165.55 325.65 164.95 325.45 132.95 M288.05 283.2 L293.8 283.4 293.8 264.05 305.65 264.05 305.65 246.45 326.0 246.45 325.85 213.1 315.75 213.6 310.05 213.9 310.05 238.2 310.05 238.35 304.3 238.35 298.85 238.35 298.85 256.35 288.0 256.5 281.75 256.6 281.85 283.0 288.05 283.2 M306.65 283.85 L326.2 284.55 326.05 253.9 320.5 253.9 313.7 253.9 313.7 270.5 313.0 270.5 306.65 270.5 299.85 270.5 299.85 283.65 306.65 283.85 M315.75 206.25 L325.8 205.7 325.65 172.35 305.7 174.0 305.7 156.5 305.7 155.2 294.05 156.45 293.95 156.4 293.95 137.35 293.95 135.65 281.2 137.45 281.2 137.6 281.35 166.6 287.8 166.05 297.6 165.15 297.6 182.25 303.1 181.75 310.05 181.1 310.05 206.6 315.75 206.25 M280.7 17.35 L280.9 51.55 287.55 50.2 302.0 47.25 302.0 30.8 302.0 27.95 290.05 30.95 290.05 18.15 290.05 14.7 280.7 17.0 280.7 17.35 M274.65 21.1 L274.65 18.45 267.15 20.25 266.75 20.4 266.75 36.75 266.2 36.9 258.15 38.9 258.15 56.2 264.25 54.95 274.75 52.8 274.65 21.1 M302.0 58.3 L302.0 54.95 280.9 59.1 280.9 59.15 281.05 95.45 287.65 94.45 290.35 94.1 290.35 75.15 302.0 72.85 302.0 58.3 M275.0 96.3 L281.05 95.45 275.0 96.3 274.85 63.6 274.8 60.3 258.35 63.6 258.15 63.6 258.15 81.4 264.25 80.25 266.95 79.7 267.05 79.7 267.05 97.5 272.9 96.6 275.0 96.3 M251.4 68.25 L251.4 64.9 238.3 67.5 238.35 98.5 244.65 97.35 252.35 95.95 252.65 95.95 252.65 111.85 258.45 111.0 263.0 110.3 263.05 110.3 263.05 131.65 268.9 130.9 275.15 130.1 275.0 104.8 275.0 102.15 261.05 104.35 260.9 104.3 260.9 90.35 260.9 87.7 251.45 89.45 251.4 89.45 251.4 68.25 M238.5 143.6 L238.45 143.6 238.5 173.1 244.75 172.5 246.85 172.3 246.85 155.5 256.5 154.3 256.5 142.6 256.5 141.0 238.5 143.6 M238.55 179.4 L238.5 173.1 238.55 179.4 238.6 210.75 244.35 210.4 250.75 210.05 250.75 186.5 260.7 185.6 260.7 168.5 275.3 167.15 275.2 139.95 275.2 138.35 263.35 140.05 263.35 140.25 263.35 159.8 263.3 159.8 252.85 160.9 252.85 160.95 252.85 178.25 244.65 178.9 238.55 179.4 M244.65 102.85 L238.35 103.95 238.4 134.9 244.65 134.1 256.3 132.55 256.3 119.4 256.3 117.5 246.2 118.9 246.2 102.6 244.65 102.85 M266.4 190.65 L263.65 190.95 257.85 191.5 257.85 209.65 263.65 209.3 275.5 208.6 275.35 173.15 273.0 173.4 266.95 174.0 266.95 190.6 266.4 190.65 M287.85 207.9 L302.6 207.0 302.75 189.1 291.05 189.6 291.05 171.6 287.8 171.9 281.35 172.55 281.55 208.25 287.85 207.9 M58.5 23.5 L69.85 25.3 69.85 7.0 63.95 6.85 63.95 17.25 62.8 17.75 52.95 16.2 52.95 21.7 52.95 25.65 52.95 28.2 52.25 28.3 48.35 27.9 41.1 27.15 41.1 30.3 41.1 34.5 53.2 36.05 63.65 37.4 63.65 30.4 62.55 30.2 58.3 29.5 58.3 29.1 58.3 23.6 58.5 23.5 M69.55 44.3 L58.0 42.9 58.0 49.2 59.55 49.35 64.7 49.8 64.7 63.05 63.9 63.3 58.25 62.5 58.25 62.35 58.3 56.8 53.5 56.6 53.5 63.75 53.5 66.8 53.5 66.95 53.8 66.85 69.85 68.55 69.85 44.35 69.85 44.15 69.55 44.3 M69.85 25.3 L69.85 44.15 69.85 25.3 M287.95 248.5 L291.05 248.5 291.05 231.55 302.6 231.55 302.6 214.25 287.9 215.0 281.55 215.35 281.7 248.5 287.95 248.5 M273.45 248.85 L275.65 248.85 275.5 215.65 263.65 216.25 257.85 216.55 257.85 231.9 263.65 231.9 267.35 231.9 267.35 248.85 273.45 248.85 M269.4 282.55 L275.85 282.75 275.7 256.7 261.25 256.9 261.25 238.65 250.75 238.65 250.75 216.9 244.3 217.25 238.6 217.55 238.65 247.15 244.0 247.15 254.15 247.15 254.15 247.2 254.15 264.05 259.25 264.05 263.65 264.05 263.65 264.3 263.65 282.35 269.4 282.55 M243.65 281.65 L256.5 282.1 256.5 269.5 247.05 269.5 247.05 254.25 243.9 254.25 238.7 254.25 238.8 281.5 243.65 281.65" fill="#a2a6ce" fill-rule="evenodd" stroke="none"/>
    <path d="M202.45 521.4 L202.75 521.35 202.85 522.2 202.45 521.4" fill="#fe8d8d" fill-rule="evenodd" stroke="none"/>
    <path d="M304.9 13.95 L324.85 9.2 324.9 12.6 314.6 14.95 304.9 13.95 M238.2 29.8 L238.2 29.75 252.7 26.3 259.0 27.45 259.0 27.65 244.65 30.9 238.2 29.8 M252.7 9.25 L252.7 9.15 262.6 5.65 267.95 7.2 259.25 10.5 259.0 10.45 252.7 9.25 M69.3 79.35 L37.3 77.0 37.45 76.95 47.55 73.3 48.0 73.15 76.95 76.0 76.95 76.15 70.25 79.5 69.3 79.35 M47.4 47.95 L25.65 44.9 35.7 40.2 52.95 42.3 52.95 48.75 50.8 48.55 47.55 47.95 47.55 47.9 47.4 47.95 M25.55 30.0 L14.0 27.95 22.8 24.8 22.9 25.05 34.9 27.0 34.9 27.1 25.6 30.1 25.55 30.0 M13.2 16.2 L0.5 14.4 11.3 10.8 11.3 10.7 22.9 11.05 22.9 11.9 13.45 16.75 13.2 16.2 M325.25 89.25 L325.3 92.5 320.45 93.4 320.45 93.25 313.1 91.35 313.1 91.3 325.25 89.25 M301.35 111.3 L313.1 109.65 313.1 109.6 320.0 110.75 307.2 112.5 307.2 112.55 301.35 111.3 M308.45 53.8 L308.45 53.7 325.05 50.45 325.1 53.65 315.8 55.45 315.75 55.55 308.45 53.8 M315.8 80.3 L315.8 80.5 303.55 82.7 297.15 80.8 308.25 78.7 308.45 78.75 315.8 80.3 M303.55 100.6 L303.55 100.65 287.8 102.9 287.65 102.9 281.35 101.2 296.85 98.75 297.1 98.85 303.55 100.6 M301.4 134.6 L325.45 131.15 325.45 132.95 307.7 135.4 307.3 135.35 301.4 134.6 M281.2 137.6 L281.2 137.45 293.95 135.65 293.95 137.35 288.1 138.15 287.75 138.2 287.7 138.4 281.2 137.6 M294.05 156.45 L305.7 155.2 305.7 156.5 300.1 157.15 294.05 156.45 M287.25 18.9 L280.7 17.35 280.7 17.0 290.05 14.7 290.05 18.15 287.25 18.9 M302.0 30.8 L297.35 31.95 290.05 30.95 302.0 27.95 302.0 30.8 M272.25 21.65 L267.15 20.25 274.65 18.45 274.65 21.1 272.25 21.65 M266.7 37.0 L272.15 38.0 264.25 39.95 264.2 40.25 258.15 38.9 266.2 36.9 266.7 37.0 M280.9 59.15 L280.9 59.1 302.0 54.95 302.0 58.3 287.55 61.35 280.9 59.15 M258.35 63.6 L274.8 60.3 274.85 63.6 264.25 65.7 264.2 65.8 258.35 63.6 M251.4 68.25 L244.65 69.55 244.55 69.75 238.3 67.5 251.4 64.9 251.4 68.25 M275.0 104.8 L267.15 105.9 261.05 104.35 275.0 102.15 275.0 104.8 M260.9 90.35 L257.75 90.9 251.45 89.45 260.9 87.7 260.9 90.35 M238.5 143.6 L256.5 141.0 256.5 142.6 244.55 144.45 238.5 143.6 M252.85 160.95 L252.85 160.9 263.3 159.8 263.35 159.8 269.05 160.8 258.9 162.0 258.85 162.15 252.85 160.95 M263.35 140.25 L263.35 140.05 275.2 138.35 275.2 139.95 269.35 140.8 269.1 140.8 269.05 141.05 263.35 140.25 M246.2 118.9 L256.3 117.5 256.3 119.4 251.35 120.05 246.2 118.9 M62.8 17.75 L52.95 21.7 52.95 16.2 62.8 17.75 M58.3 29.5 L62.55 30.2 54.3 33.2 53.2 33.1 48.35 32.55 58.15 29.15 58.3 29.5 M41.1 30.3 L41.1 27.15 48.35 27.9 48.35 29.05 41.1 30.3 M45.95 15.1 L36.4 20.05 28.75 18.9 28.75 17.45 34.75 13.25 34.9 13.45 45.95 15.1 M59.55 49.35 L58.0 49.2 58.0 42.9 69.55 44.3 59.55 49.35 M63.9 63.3 L53.8 66.85 53.5 66.8 53.5 63.75 57.9 62.45 58.25 62.5 63.9 63.3" fill="#bbbfdb" fill-rule="evenodd" stroke="none"/>
    <path d="M318.6 3.75 L312.6 5.35 312.6 0.65 318.6 0.65 318.6 3.75 M315.8 44.4 L308.45 45.9 308.45 20.0 315.8 20.9 315.8 44.4 M302.0 21.7 L296.5 23.1 296.5 5.5 302.0 6.55 302.0 21.7 M287.45 7.65 L280.65 9.35 280.65 0.75 287.45 0.7 287.45 7.65 M244.65 58.95 L238.25 60.25 238.2 29.8 244.65 30.9 244.65 58.95 M252.7 26.3 L252.7 9.25 259.0 10.45 259.0 10.6 259.0 27.45 252.7 26.3 M262.6 5.65 L262.6 0.85 268.3 0.85 268.3 7.1 267.95 7.2 262.6 5.65 M243.7 21.55 L238.2 22.95 238.1 0.9 243.7 0.9 243.7 21.55 M37.35 76.65 L37.35 52.1 46.75 48.2 47.55 48.25 47.55 73.1 47.55 73.3 37.45 76.95 37.35 76.65 M25.65 44.9 L25.55 44.85 25.55 30.1 25.6 30.1 34.9 27.1 34.9 40.1 35.7 40.2 25.65 44.9 M14.0 27.95 L13.2 27.85 13.2 16.9 13.45 16.75 22.9 11.9 22.9 24.75 22.8 24.8 14.0 27.95 M0.0 14.35 L0.0 0.05 11.3 0.05 11.3 10.7 11.3 10.8 0.5 14.4 0.0 14.35 M17.75 0.05 L22.9 0.05 22.9 6.0 17.75 6.0 17.75 0.05 M28.75 0.05 L34.9 0.05 34.9 13.15 34.75 13.25 28.75 17.45 28.75 0.05 M41.1 0.05 L47.1 0.05 46.75 9.95 41.1 9.1 41.1 0.05 M52.4 0.05 L58.3 0.05 58.3 11.7 52.4 10.8 52.4 0.05 M307.2 125.85 L301.1 126.65 301.1 111.35 301.35 111.3 307.2 112.55 307.2 125.85 M313.1 109.6 L313.1 91.35 320.45 93.25 320.45 93.4 320.45 110.7 320.4 110.7 320.0 110.75 313.1 109.6 M315.8 55.55 L315.8 80.3 308.45 78.75 308.45 78.65 308.45 53.8 315.75 55.55 315.8 55.55 M303.55 82.7 L303.55 100.6 297.1 98.85 297.1 98.7 297.1 80.8 297.15 80.8 303.55 82.7 M287.65 102.95 L287.7 128.4 281.2 129.3 281.05 101.2 281.35 101.2 287.65 102.9 287.65 102.95 M319.1 165.55 L312.8 166.15 312.8 147.5 319.1 148.0 319.1 165.55 M307.25 148.15 L301.0 148.9 301.0 134.65 301.4 134.6 307.3 135.35 307.25 135.45 307.25 148.15 M288.05 283.2 L281.85 283.0 281.75 256.6 288.0 256.5 288.05 283.2 M298.85 256.35 L298.85 238.35 304.3 238.35 304.3 256.45 298.85 256.35 M310.05 238.2 L310.05 213.9 315.75 213.6 316.1 237.75 310.05 238.2 M306.65 283.85 L299.85 283.65 299.85 270.5 306.65 270.5 306.65 283.85 M313.7 270.5 L313.7 253.9 320.5 253.9 320.5 270.55 313.7 270.5 M315.75 206.25 L310.05 206.6 310.05 181.1 315.75 181.85 315.75 206.25 M303.1 181.75 L297.6 182.25 297.6 165.15 303.1 165.2 303.1 181.75 M287.8 166.05 L281.35 166.6 281.2 137.6 287.7 138.4 287.75 138.4 287.8 166.05 M287.25 18.9 L287.5 18.95 287.55 50.2 280.9 51.55 280.7 17.35 287.25 18.9 M267.15 20.25 L272.25 21.65 272.25 38.0 272.15 38.0 266.7 37.0 266.75 36.75 266.75 20.4 267.15 20.25 M264.25 54.95 L258.15 56.2 258.15 38.9 264.2 40.25 264.25 40.25 264.25 54.95 M280.9 59.15 L287.55 61.35 287.65 94.45 281.05 95.45 280.9 59.15 M272.9 96.6 L267.05 97.5 267.05 79.7 272.9 80.5 272.9 96.6 M264.25 80.25 L258.15 81.4 258.15 63.6 258.35 63.6 264.2 65.8 264.25 65.8 264.25 80.25 M238.3 67.5 L244.55 69.75 244.65 69.8 244.65 97.35 238.35 98.5 238.3 67.5 M252.65 95.95 L258.45 96.1 258.45 111.0 252.65 111.85 252.65 95.95 M263.05 110.3 L268.9 110.9 268.9 130.9 263.05 131.65 263.05 110.3 M238.5 173.1 L238.45 143.6 238.5 143.6 244.55 144.45 244.75 144.45 244.75 172.5 238.5 173.1 M238.55 179.4 L244.65 178.9 244.35 210.4 238.6 210.75 238.55 179.4 M252.85 178.25 L252.85 160.95 258.85 162.15 258.9 162.15 258.9 177.75 252.85 178.25 M263.35 159.8 L263.35 140.25 269.05 141.05 269.1 141.05 269.1 158.4 269.05 159.15 269.05 160.8 263.35 159.8 M244.65 134.1 L238.4 134.9 238.35 103.95 244.65 102.85 244.65 134.1 M263.65 190.95 L263.65 209.3 257.85 209.65 257.85 191.5 263.65 190.95 M273.0 173.4 L273.0 190.3 266.95 190.65 266.95 190.6 266.95 174.0 273.0 173.4 M287.85 207.9 L281.55 208.25 281.35 172.55 287.8 171.9 287.85 207.9 M63.95 17.25 L63.95 6.85 69.85 7.0 69.85 25.3 58.5 23.5 58.3 23.5 58.3 23.6 58.3 29.1 58.15 29.15 48.35 32.55 48.35 29.05 52.25 28.3 52.95 28.4 52.95 28.2 52.95 25.65 52.95 21.7 62.8 17.75 63.95 17.9 63.95 17.25 M58.3 23.6 L52.95 25.65 58.3 23.6 M62.55 30.2 L63.65 30.4 63.65 37.4 53.2 36.05 53.2 33.6 54.3 33.2 62.55 30.2 M45.95 15.1 L46.75 15.3 46.75 21.65 36.4 20.05 45.95 15.1 M59.55 49.35 L69.55 44.3 69.85 44.35 69.85 68.55 53.8 66.85 63.9 63.3 64.7 63.4 64.7 63.05 64.7 49.8 59.55 49.35 M53.5 63.75 L53.5 56.6 58.3 56.8 58.25 62.35 57.9 62.45 53.5 63.75 M287.95 248.5 L281.7 248.5 281.55 215.35 287.9 215.0 287.95 248.5 M273.45 248.85 L267.35 248.85 267.35 231.9 273.45 232.1 273.45 248.85 M263.65 231.9 L257.85 231.9 257.85 216.55 263.65 216.25 263.65 231.9 M269.4 282.55 L263.65 282.35 263.65 264.3 269.4 264.15 269.4 282.55 M259.25 264.05 L254.15 264.05 254.15 247.2 259.25 247.2 259.25 264.05 M244.0 247.15 L238.65 247.15 238.6 217.55 244.3 217.25 244.0 247.15 M243.65 281.65 L238.8 281.5 238.7 254.25 243.9 254.25 243.65 281.65" fill="#d7d9ea" fill-rule="evenodd" stroke="none"/>
    <path d="M211.95 551.6 L211.2 551.9 Q206.8 553.5 202.35 554.35 208.05 531.5 202.85 522.2 L202.75 521.35 210.4 519.7 210.75 519.15 Q212.4 519.8 213.1 521.55 218.65 531.45 212.8 551.25 L211.95 551.6" fill="#fedca0" fill-rule="evenodd" stroke="none"/>
    <path d="M102.15 0.25 L135.95 0.35 143.8 0.45 143.8 283.4 95.2 284.9 95.2 0.3 102.15 0.25 M151.05 325.2 L152.8 508.4 88.4 518.5 87.3 327.75 151.05 325.2 M236.7 321.45 L332.15 328.4 332.9 531.3 236.7 506.55 236.7 321.45" fill="#8c94c1" fill-rule="evenodd" stroke="none"/>
    <path d="M236.7 295.15 L332.15 300.05 332.15 318.9 236.7 313.35 236.7 295.15 M151.7 316.4 L87.35 319.85 87.35 301.8 151.7 299.85 151.7 316.4 M236.7 516.7 L333.65 541.45 333.65 558.25 236.7 530.85 236.7 516.7" fill="#6a74b0" fill-rule="evenodd" stroke="none"/>
    <path d="M343.85 0.6 L353.85 0.55 353.85 576.2 353.85 596.85 212.4 551.45 212.8 551.25 Q218.65 531.45 213.1 521.55 212.4 519.8 210.75 519.15 L210.75 519.1 210.4 518.95 210.4 0.95 222.85 0.95 223.25 539.45 343.8 573.5 343.85 573.55 343.85 573.35 343.85 0.6 M168.25 544.3 L77.55 559.6 77.2 559.45 Q73.6 552.9 77.0 549.3 78.55 547.6 81.55 546.55 L75.75 546.15 Q72.2 539.9 77.45 535.0 L77.75 534.7 164.2 521.1 161.95 0.95 174.25 0.95 174.25 518.2 Q170.9 519.35 169.3 523.0 166.3 529.95 168.25 544.3 M76.7 0.0 L87.3 0.1 87.3 293.9 151.45 291.95 151.7 0.5 159.1 0.55 161.35 519.0 78.4 531.35 78.35 531.3 76.95 76.15 77.2 76.0 76.95 76.0 76.7 0.05 76.7 0.0 M151.7 316.4 L151.7 299.85 87.35 301.8 87.35 319.85 151.7 316.4 M151.05 325.2 L87.3 327.75 88.4 518.5 152.8 508.4 151.05 325.2 M174.25 518.2 L173.45 517.9 174.25 518.2 M353.85 576.2 L343.85 573.35 353.85 576.2" fill="#383972" fill-rule="evenodd" stroke="none"/>
    <path d="M331.8 0.65 L324.85 0.65 324.85 2.1 318.6 3.75 312.6 5.35 312.6 0.65 304.8 0.7 304.8 13.95 M304.9 13.95 L324.85 9.2 324.9 12.6 325.05 42.5 315.8 44.4 308.45 45.9 308.45 20.0 302.0 21.7 296.5 23.1 296.5 5.5 296.2 5.45 296.5 5.35 296.5 5.5 302.0 6.55 302.0 21.7 M295.7 5.55 L287.45 7.65 280.65 9.35 280.65 0.75 274.55 0.8 274.6 10.85 260.65 14.4 260.65 31.5 251.4 33.55 251.4 57.6 244.65 58.95 238.25 60.25 238.2 29.8 238.2 29.75 252.7 26.3 252.7 9.25 252.7 9.15 262.6 5.65 262.6 0.85 254.3 0.85 245.8 4.45 245.8 21.05 243.7 21.55 238.2 22.95 238.1 0.9 233.0 0.9 233.3 287.35 333.55 290.5 331.8 0.65 343.85 0.6 353.85 0.55 353.85 576.2 353.85 596.85 212.4 551.45 211.95 551.6 211.2 551.9 Q206.8 553.5 202.35 554.35 186.3 557.25 169.15 549.85 L168.25 544.3 77.55 559.6 77.2 559.45 67.3 555.6 Q62.95 548.85 65.9 544.95 66.85 543.75 68.45 542.8 L68.4 542.6 68.3 542.5 Q62.35 537.9 66.55 531.1 L66.8 530.85 69.65 528.5 69.3 528.4 69.3 79.95 69.3 79.35 37.3 77.0 37.35 76.65 37.35 52.1 46.75 48.2 47.4 47.95 25.65 44.9 25.55 44.85 25.55 30.1 25.55 30.0 14.0 27.95 13.2 27.85 13.2 16.9 13.2 16.2 0.5 14.4 0.0 14.6 0.0 14.35 0.0 0.05 11.3 0.05 17.75 0.05 22.9 0.05 28.75 0.05 34.9 0.05 41.1 0.05 47.1 0.05 52.4 0.05 58.3 0.05 74.7 0.05 76.7 0.05 76.7 0.0 M135.95 0.35 L143.8 0.3 143.8 0.45 143.8 283.4 95.2 284.9 95.2 0.3 102.15 0.25 M159.1 0.55 L159.1 0.35 161.95 0.35 161.95 0.6 161.95 0.95 174.25 0.95 174.25 518.2 Q188.8 523.25 202.45 521.4 L202.75 521.35 210.4 519.7 210.4 518.95 210.4 0.95 222.85 0.95 233.0 0.9 M179.15 0.95 L210.4 0.95 M325.1 53.65 L325.2 82.7 325.25 89.25 325.3 92.5 325.4 123.45 307.2 125.85 301.1 126.65 301.1 111.35 301.35 111.3 313.1 109.65 313.1 109.6 313.1 91.35 313.1 91.3 325.25 89.25 M308.45 53.8 L308.45 53.7 325.05 50.45 325.1 53.65 315.8 55.45 315.8 55.55 315.8 80.3 315.8 80.5 303.55 82.7 303.55 100.6 303.55 100.65 287.8 102.9 287.65 102.95 287.7 128.4 294.35 127.55 294.35 105.7 305.7 104.0 305.7 86.25 325.2 82.7 M301.4 134.6 L325.45 131.15 325.45 132.95 325.65 164.95 319.1 165.55 312.8 166.15 312.8 147.5 312.65 147.5 307.25 148.15 301.0 148.9 301.0 134.65 301.4 134.6 307.3 135.35 307.7 135.4 325.45 132.95 M315.75 213.6 L325.85 213.1 326.0 246.45 305.65 246.45 305.65 264.05 293.8 264.05 293.8 283.4 288.05 283.2 281.85 283.0 281.75 256.6 288.0 256.5 298.85 256.35 298.85 238.35 304.3 238.35 310.05 238.35 310.05 238.2 310.05 213.9 315.75 213.6 316.1 237.75 310.05 238.2 M320.5 253.9 L326.05 253.9 326.2 284.55 306.65 283.85 299.85 283.65 299.85 270.5 306.65 270.5 313.0 270.5 M313.7 270.5 L313.7 253.9 320.5 253.9 320.5 270.55 M236.7 295.15 L332.15 300.05 332.15 318.9 236.7 313.35 232.55 313.1 232.55 294.9 236.7 295.15 236.7 313.35 M305.7 156.5 L305.7 174.0 325.65 172.35 325.8 205.7 315.75 206.25 310.05 206.6 310.05 181.1 303.1 181.75 297.6 182.25 297.6 165.15 287.8 166.05 281.35 166.6 281.2 137.6 281.2 137.45 293.95 135.65 293.95 137.35 293.95 156.4 294.05 156.45 305.7 155.2 305.7 156.5 300.1 157.15 294.05 156.45 293.95 156.45 293.95 156.4 M318.6 3.75 L318.6 0.65 312.6 0.65 M304.9 13.95 L304.8 14.0 304.8 13.95 M308.45 20.0 L315.8 20.9 315.8 44.4 M314.6 14.95 L324.9 12.6 M287.45 0.7 L287.45 7.65 M287.55 50.2 L287.5 18.95 287.25 18.9 280.7 17.35 280.9 51.55 287.55 50.2 302.0 47.25 302.0 30.8 297.35 31.95 290.05 30.95 290.05 18.15 287.25 18.9 M290.05 18.15 L290.05 14.7 280.7 17.0 280.7 17.35 M302.0 30.8 L302.0 27.95 290.05 30.95 M287.45 0.7 L304.8 0.7 M268.3 0.85 L268.3 7.1 267.95 7.2 259.25 10.5 259.0 10.6 259.0 27.45 259.0 27.65 244.65 30.9 244.65 58.95 M267.15 20.25 L272.25 21.65 274.65 21.1 274.65 18.45 267.15 20.25 266.75 20.4 266.75 36.75 M266.7 37.0 L272.15 38.0 272.25 38.0 272.25 21.65 M268.3 0.85 L274.55 0.8 M259.0 10.45 L259.25 10.5 M243.7 0.9 L243.7 21.55 M252.7 9.25 L259.0 10.45 M243.7 0.9 L254.3 0.85 M252.7 26.3 L259.0 27.45 M264.25 54.95 L258.15 56.2 258.15 38.9 266.2 36.9 266.75 36.75 M266.7 37.0 L266.2 36.9 M264.25 39.95 L272.15 38.0 M264.25 39.95 L264.25 40.25 264.25 54.95 274.75 52.8 274.65 21.1 M264.2 40.25 L258.15 38.9 M264.2 40.25 L264.25 40.25 M262.6 5.65 L267.95 7.2 M262.6 0.85 L268.3 0.85 M302.0 58.3 L302.0 54.95 280.9 59.1 280.9 59.15 287.55 61.35 302.0 58.3 302.0 72.85 290.35 75.15 290.35 94.1 287.65 94.45 281.05 95.45 275.0 96.3 272.9 96.6 267.05 97.5 267.05 79.7 266.95 79.7 264.25 80.25 258.15 81.4 258.15 63.6 258.35 63.6 274.8 60.3 274.85 63.6 275.0 96.3 M264.2 65.8 L264.25 65.8 264.25 65.7 274.85 63.6 M264.2 65.8 L258.35 63.6 M244.65 69.55 L251.4 68.25 251.4 64.9 238.3 67.5 244.55 69.75 244.65 69.8 244.65 97.35 252.35 95.95 252.65 95.9 252.65 95.95 258.45 96.1 258.45 111.0 263.0 110.3 263.05 110.3 268.9 110.9 268.9 130.9 275.15 130.1 275.0 104.8 267.15 105.9 261.05 104.35 260.9 104.35 260.9 104.3 260.9 90.35 257.75 90.9 251.45 89.45 251.4 89.5 251.4 89.45 251.4 68.25 M244.65 69.55 L244.65 69.8 M251.4 89.45 L251.45 89.45 260.9 87.7 260.9 90.35 M252.65 95.95 L252.35 95.95 M267.05 79.7 L272.9 80.5 272.9 96.6 M264.25 65.8 L264.25 80.25 M280.9 59.15 L281.05 95.45 M308.45 53.8 L315.75 55.55 315.8 55.55 M297.1 98.7 L297.1 80.8 297.15 80.8 308.25 78.7 308.45 78.65 308.45 53.8 M297.15 80.8 L303.55 82.7 M296.85 98.75 L297.1 98.7 M297.1 98.85 L303.55 100.6 M296.85 98.75 L297.1 98.85 M308.45 78.75 L308.25 78.7 M308.45 78.75 L315.8 80.3 M320.45 93.25 L320.45 93.4 325.3 92.5 M320.45 93.25 L313.1 91.35 M287.65 94.45 L287.55 61.35 M280.65 0.75 L287.45 0.7 M174.25 0.95 L179.15 0.95 M244.65 97.35 L238.35 98.5 238.3 67.5 M238.5 173.1 L238.45 143.6 238.5 143.6 256.5 141.0 256.5 142.6 256.5 154.3 246.85 155.5 246.85 172.3 244.75 172.5 238.5 173.1 238.55 179.4 244.65 178.9 252.85 178.25 252.85 160.95 252.85 160.9 263.3 159.8 263.35 159.8 263.35 140.25 263.35 140.05 275.2 138.35 275.2 139.95 275.3 167.15 260.7 168.5 260.7 185.6 250.75 186.5 250.75 210.05 244.35 210.4 238.6 210.75 238.55 179.4 M244.65 134.1 L238.4 134.9 238.35 103.95 244.65 102.85 246.2 102.6 246.2 118.9 256.3 117.5 256.3 119.4 256.3 132.55 244.65 134.1 244.65 102.85 M320.0 110.75 L320.4 110.7 320.45 110.7 320.45 93.4 M313.1 109.6 L320.0 110.75 307.2 112.5 307.2 112.55 307.2 125.85 M307.2 112.55 L301.35 111.3 M287.65 102.9 L287.8 102.9 M287.7 138.4 L287.75 138.4 287.75 138.2 288.1 138.15 293.95 137.35 M287.75 138.4 L288.1 138.15 M307.7 135.4 L307.25 135.45 307.25 148.15 M312.65 147.5 L312.8 147.45 312.8 147.5 319.1 148.0 319.1 165.55 M287.7 128.4 L281.2 129.3 281.05 101.2 281.35 101.2 296.85 98.75 M261.05 104.35 L275.0 102.15 275.0 104.8 M260.9 104.3 L261.05 104.35 M246.2 118.9 L251.35 120.05 256.3 119.4 M258.45 111.0 L252.65 111.85 252.65 95.95 M244.55 144.45 L244.75 144.45 244.75 172.5 M256.5 142.6 L244.55 144.45 238.5 143.6 M269.05 141.05 L263.35 140.25 M269.35 140.8 L269.1 140.8 269.1 141.05 269.35 140.8 275.2 139.95 M269.05 141.05 L269.1 141.05 269.1 158.4 269.1 159.15 269.05 159.15 269.05 160.8 258.9 162.0 258.9 162.15 258.9 177.75 252.85 178.25 M268.9 130.9 L263.05 131.65 263.05 110.3 M269.05 159.15 L269.1 158.4 M263.35 159.8 L269.05 160.8 M252.85 160.95 L258.85 162.15 258.9 162.15 M266.95 190.65 L266.4 190.65 263.65 190.95 263.65 209.3 275.5 208.6 275.35 173.15 273.0 173.4 273.0 190.3 266.95 190.65 M266.95 190.6 L266.4 190.65 M266.95 190.6 L266.95 174.0 273.0 173.4 M263.65 209.3 L257.85 209.65 257.85 191.5 263.65 190.95 M297.6 165.15 L303.1 165.2 303.1 181.75 M287.8 171.9 L291.05 171.6 291.05 189.6 302.75 189.1 302.6 207.0 287.85 207.9 281.55 208.25 281.35 172.55 287.8 171.9 287.85 207.9 M310.05 181.1 L315.75 181.85 315.75 206.25 M287.75 138.4 L287.8 166.05 M281.2 137.6 L287.7 138.4 M281.35 101.2 L287.65 102.9 M244.65 30.9 L238.2 29.8 M238.1 0.9 L243.7 0.9 M58.5 23.5 L69.85 25.3 69.85 7.0 63.95 6.85 63.95 17.25 63.95 17.9 62.8 17.75 52.95 21.7 52.95 25.65 58.3 23.6 58.3 23.5 58.5 23.5 58.3 23.6 58.3 29.1 58.3 29.5 62.55 30.2 63.65 30.4 63.65 37.4 53.2 36.05 41.1 34.5 41.1 30.3 41.1 27.15 48.35 27.9 52.25 28.3 52.95 28.2 52.95 25.65 M63.95 17.25 L62.8 17.75 52.95 16.2 52.95 21.7 M52.4 0.05 L52.4 10.8 58.3 11.7 58.3 0.05 M41.1 0.05 L41.1 9.1 46.75 9.95 47.1 0.05 M36.4 20.05 L46.75 21.65 46.75 15.3 45.95 15.1 36.4 20.05 28.75 18.9 28.75 17.45 28.75 0.05 M58.15 29.15 L58.3 29.1 M52.25 28.3 L48.35 29.05 48.35 32.55 58.15 29.15 M53.2 33.1 L53.2 33.6 54.3 33.2 53.2 33.1 48.35 32.55 M53.2 33.6 L53.2 36.05 M48.35 29.05 L41.1 30.3 M48.35 27.9 L48.35 29.05 M47.55 48.25 L47.55 47.95 47.4 47.95 47.55 47.9 47.55 47.95 50.8 48.55 52.95 48.75 52.95 42.3 35.7 40.2 25.65 44.9 M46.75 48.2 L47.55 48.25 50.8 48.55 M69.55 44.3 L58.0 42.9 58.0 49.2 59.55 49.35 69.55 44.3 69.85 44.15 69.85 25.3 M69.55 44.3 L69.85 44.35 69.85 44.15 M54.3 33.2 L62.55 30.2 M22.9 11.9 L22.9 11.05 11.3 10.7 11.3 10.8 0.5 14.4 0.0 14.35 M17.75 0.05 L17.75 6.0 22.9 6.0 22.9 0.05 M34.9 13.45 L34.9 13.15 34.75 13.25 M34.9 13.45 L45.95 15.1 M22.9 11.9 L22.9 24.75 22.9 25.05 34.9 27.0 34.9 27.1 34.9 40.1 35.7 40.2 M28.75 17.45 L34.75 13.25 M34.9 0.05 L34.9 13.15 M11.3 10.7 L11.3 0.05 M13.2 16.9 L13.45 16.75 22.9 11.9 M25.55 30.1 L25.6 30.1 34.9 27.1 M22.8 24.8 L14.0 27.95 M22.9 24.75 L22.8 24.8 M37.3 77.0 L37.45 76.95 47.55 73.3 48.0 73.15 47.55 73.1 47.55 48.25 M64.7 63.05 L64.7 63.4 63.9 63.3 53.8 66.85 69.85 68.55 69.85 44.35 M64.7 63.05 L64.7 49.8 59.55 49.35 M63.9 63.3 L64.7 63.05 M53.5 63.75 L53.5 56.6 58.3 56.8 58.25 62.35 58.25 62.5 63.9 63.3 M47.55 73.1 L47.55 73.3 M53.5 66.8 L53.5 63.75 57.9 62.45 58.25 62.35 M57.9 62.45 L58.25 62.5 M53.5 66.8 L53.5 66.95 53.8 66.85 53.5 66.8 M69.3 79.95 L70.25 79.5 69.3 79.35 M70.25 79.5 L76.95 76.15 76.95 76.0 48.0 73.15 M76.95 76.0 L77.2 76.0 76.95 76.15 78.35 531.3 78.4 531.35 161.35 519.0 159.1 0.55 M76.95 76.0 L76.7 0.05 M87.3 0.1 L87.3 293.9 151.45 291.95 151.7 0.5 M151.7 316.4 L87.35 319.85 87.35 301.8 151.7 299.85 151.7 316.4 M151.05 325.2 L152.8 508.4 88.4 518.5 87.3 327.75 151.05 325.2 M287.9 215.0 L302.6 214.25 302.6 231.55 291.05 231.55 291.05 248.5 287.95 248.5 281.7 248.5 281.55 215.35 287.9 215.0 287.95 248.5 M263.65 216.25 L275.5 215.65 275.65 248.85 273.45 248.85 267.35 248.85 267.35 231.9 263.65 231.9 257.85 231.9 257.85 216.55 263.65 216.25 263.65 231.9 M244.3 217.25 L250.75 216.9 250.75 238.65 261.25 238.65 261.25 256.9 275.7 256.7 275.85 282.75 269.4 282.55 263.65 282.35 263.65 264.3 263.65 264.05 259.25 264.05 254.15 264.05 254.15 247.2 254.15 247.15 244.0 247.15 238.65 247.15 238.6 217.55 244.3 217.25 244.0 247.15 M254.15 247.2 L259.25 247.2 259.25 264.05 M273.45 248.85 L273.45 232.1 267.35 231.9 M263.65 264.3 L269.4 264.15 269.4 282.55 M243.9 254.25 L247.05 254.25 247.05 269.5 256.5 269.5 256.5 282.1 243.65 281.65 238.8 281.5 238.7 254.25 243.9 254.25 243.65 281.65 M306.65 270.5 L306.65 283.85 M304.3 238.35 L304.3 256.45 298.85 256.35 M288.0 256.5 L288.05 283.2 M236.7 506.55 L234.0 505.85 231.8 321.1 236.7 321.45 332.15 328.4 332.9 531.3 236.7 506.55 236.7 321.45 M244.65 178.9 L244.35 210.4 M236.7 530.85 L234.1 530.1 234.0 516.0 236.7 516.7 333.65 541.45 333.65 558.25 236.7 530.85 236.7 516.7 M210.75 519.15 L210.75 519.1 210.4 518.95 M212.8 551.25 Q218.65 531.45 213.1 521.55 212.4 519.8 210.75 519.15 M174.25 518.2 Q170.9 519.35 169.3 523.0 166.3 529.95 168.25 544.3 M174.25 518.2 L173.45 517.9 174.25 518.2 M212.4 551.45 L212.8 551.25 M68.35 542.45 L68.45 542.5 68.6 542.55 75.75 546.15 Q72.2 539.9 77.45 535.0 L77.75 534.7 77.4 534.75 77.2 534.8 66.8 530.85 M68.35 542.45 L68.4 542.6 M69.65 528.5 L78.35 531.3 M77.0 549.3 Q73.6 552.9 77.2 559.45 M65.9 544.95 L77.0 549.3 Q78.55 547.6 81.55 546.55 L75.75 546.15 M161.95 0.95 L164.2 521.1 77.75 534.7 M343.85 573.35 L353.85 576.2 M343.8 573.5 L343.85 573.55 343.85 573.35 343.85 0.6 M343.8 573.5 L223.25 539.45 222.85 0.95 M318.6 0.65 L324.85 0.65" fill="none" stroke="#000000" stroke-linecap="round" stroke-linejoin="round" stroke-width="1.0"/>
    <path d="M74.7 0.05 L76.7 0.0 87.3 0.1 95.2 0.15 102.15 0.25 135.95 0.35 143.8 0.45 151.7 0.5 159.1 0.55 M161.95 0.6 L179.15 0.95 M313.0 270.5 L313.7 270.5 M320.5 270.55 L313.7 270.5 M304.9 13.95 L314.6 14.95" fill="none" stroke="#000000" stroke-linecap="round" stroke-linejoin="round" stroke-width="1.0"/>
  </g>
  <defs>
    <linearGradient gradientTransform="matrix(0.0221, 0.0, 0.0, 0.318, 192.3, 261.4)" gradientUnits="userSpaceOnUse" id="gradient0" spreadMethod="pad" x1="-819.2" x2="819.2">
      <stop offset="0.0" stop-color="#cc0000"/>
      <stop offset="0.5098039215686274" stop-color="#ff6600"/>
      <stop offset="1.0" stop-color="#cc0000"/>
    </linearGradient>
    <radialGradient cx="0" cy="0" gradientTransform="matrix(0.0149, 0.0, 0.0, 0.0149, 269.05, 26.25)" gradientUnits="userSpaceOnUse" id="gradient1" r="819.2" spreadMethod="pad">
      <stop offset="0.0" stop-color="#ff9999"/>
      <stop offset="1.0" stop-color="#cc3333"/>
    </radialGradient>
    <radialGradient cx="0" cy="0" gradientTransform="matrix(0.0206, 0.0, 0.0, 0.0206, 313.05, 70.05)" gradientUnits="userSpaceOnUse" id="gradient2" r="819.2" spreadMethod="pad">
      <stop offset="0.0" stop-color="#ff9999"/>
      <stop offset="1.0" stop-color="#cc3333"/>
    </radialGradient>
    <radialGradient cx="0" cy="0" gradientTransform="matrix(0.0208, 0.0, 0.0, 0.0208, 42.0, 60.6)" gradientUnits="userSpaceOnUse" id="gradient3" r="819.2" spreadMethod="pad">
      <stop offset="0.0" stop-color="#ff9999"/>
      <stop offset="1.0" stop-color="#cc3333"/>
    </radialGradient>
    <linearGradient gradientTransform="matrix(1.0, 0.0, 0.0, 1.0, 0.0, 0.0)" gradientUnits="userSpaceOnUse" id="gradient4" spreadMethod="pad" x1="-819.2" x2="819.2">
      <stop offset="0.0" stop-color="#660000"/>
      <stop offset="0.5294117647058824" stop-color="#a90101"/>
      <stop offset="1.0" stop-color="#660000"/>
    </linearGradient>
  </defs>
</svg>
