<?xml version="1.0" encoding="UTF-8" standalone="no"?>
<svg xmlns:xlink="http://www.w3.org/1999/xlink" height="31.45px" width="10.05px" xmlns="http://www.w3.org/2000/svg">
  <g transform="matrix(1.0, 0.0, 0.0, 1.0, 7.3, 20.1)">
    <path d="M-3.8 -20.1 Q1.5 -14.9 2.3 -9.5 3.05 -4.15 2.55 3.2 2.05 10.55 -1.6 11.15 -5.25 11.7 -6.25 10.65 -7.25 9.65 -7.3 7.05 -7.4 4.45 -5.85 -0.85 -4.3 -6.15 -4.85 -13.95 -2.35 -10.8 -2.05 -9.8 L-1.1 -7.15 -1.0 -8.45 -1.4 -12.15 Q-1.65 -14.8 -3.8 -20.1" fill="#ff9900" fill-rule="evenodd" stroke="none"/>
    <path d="M-0.7 0.6 Q-0.3 2.95 -0.7 6.35 -1.15 9.75 -2.85 10.0 -4.55 10.25 -5.0 9.1 -5.5 7.9 -5.2 6.8 L-3.5 2.8 Q-2.1 -0.1 -2.6 -4.3 L-0.7 0.6" fill="#ff0000" fill-rule="evenodd" stroke="none"/>
  </g>
</svg>
