<?xml version="1.0" encoding="UTF-8" standalone="no"?>
<svg xmlns:xlink="http://www.w3.org/1999/xlink" height="31.65px" width="12.0px" xmlns="http://www.w3.org/2000/svg">
  <g transform="matrix(1.0, 0.0, 0.0, 1.0, 7.25, 19.95)">
    <path d="M1.0 -19.95 Q4.75 -14.1 4.75 -7.3 4.75 -3.1 2.75 3.7 0.4 11.7 -2.25 11.7 -5.25 11.7 -6.25 10.65 -7.25 9.65 -7.25 6.7 -7.25 4.3 -4.3 -2.7 -1.45 -9.5 -1.25 -13.05 L-0.3 -9.95 -0.3 -7.1 -0.3 -6.9 Q1.3 -8.5 1.2 -13.65 L1.0 -19.95" fill="#ffff00" fill-rule="evenodd" stroke="none"/>
    <path d="M-5.15 6.8 Q-4.85 5.65 -2.5 1.85 L0.0 -2.1 0.0 0.0 Q0.65 1.3 -0.2 5.35 -1.15 9.75 -2.85 10.0 -4.55 10.25 -5.0 9.1 -5.5 7.9 -5.15 6.8" fill="#ff9900" fill-rule="evenodd" stroke="none"/>
  </g>
</svg>
