<?xml version="1.0" encoding="UTF-8" standalone="no"?>
<svg xmlns:xlink="http://www.w3.org/1999/xlink" height="21.75px" width="10.75px" xmlns="http://www.w3.org/2000/svg">
  <g transform="matrix(1.0, 0.0, 0.0, 1.0, 7.25, 9.9)">
    <path d="M-2.55 -9.9 Q-0.95 -8.4 1.9 -0.6 4.75 7.15 2.6 9.55 0.4 11.95 -2.4 11.85 -5.25 11.7 -6.25 10.65 -7.25 9.65 -7.25 6.7 -7.25 4.3 -4.3 -2.7 -2.95 -5.95 -3.35 -7.75 L-2.35 -5.75 -2.05 -2.5 Q-1.4 -4.55 -1.75 -6.7 L-2.55 -9.9" fill="#ff9900" fill-rule="evenodd" stroke="none"/>
    <path d="M-1.95 0.25 L-1.4 2.0 Q0.4 5.1 0.55 7.95 0.7 10.8 -1.45 11.0 -3.6 11.2 -4.1 9.9 -4.6 8.6 -4.2 7.5 L-2.6 3.15 Q-1.85 1.3 -1.95 0.25" fill="#ff0000" fill-rule="evenodd" stroke="none"/>
  </g>
</svg>
