<?xml version="1.0" encoding="UTF-8" standalone="no"?>
<svg xmlns:xlink="http://www.w3.org/1999/xlink" height="23.75px" width="23.75px" xmlns="http://www.w3.org/2000/svg">
  <g transform="matrix(1.0, 0.0, 0.0, 1.0, 0.5, 0.5)">
    <path d="M10.6 5.75 L11.5 5.75 11.5 0.0 M5.75 3.5 L5.75 5.75 7.1 5.75 M3.5 5.75 L3.5 3.5 5.75 3.5 M3.5 5.75 L5.75 5.75 M5.75 9.3 L5.75 11.5 0.0 11.5 0.0 15.0 3.5 15.0 M3.5 18.5 L0.0 18.5 M3.5 9.25 L0.0 9.25" fill="none" stroke="#ffff00" stroke-linecap="round" stroke-linejoin="round" stroke-width="1.0"/>
    <path d="M11.5 0.0 L15.0 0.0 15.0 3.5 18.5 3.5 18.5 0.0 22.75 0.0 M5.75 3.5 L5.75 0.0 9.25 0.0 9.25 3.5 5.75 3.5 M7.1 5.75 L10.6 5.75 M3.5 3.5 L0.0 3.5 0.0 0.0 3.5 0.0 3.5 3.5 M0.0 9.25 L0.0 5.75 3.5 5.75 3.5 9.25 M5.75 5.75 L5.75 9.3 M3.5 15.0 L3.5 18.5 M0.0 18.5 L0.0 22.75" fill="none" stroke="#ffff00" stroke-linecap="round" stroke-linejoin="round" stroke-width="1.0"/>
  </g>
</svg>
