<?xml version="1.0" encoding="UTF-8" standalone="no"?>
<svg xmlns:xlink="http://www.w3.org/1999/xlink" height="137.4px" width="87.2px" xmlns="http://www.w3.org/2000/svg">
  <g transform="matrix(1.0, 0.0, 0.0, 1.0, 0.0, 0.0)">
    <path d="M81.35 5.45 L81.55 5.65 Q87.1 11.25 87.2 19.0 L87.2 118.4 Q87.1 126.15 81.55 131.75 76.0 137.25 68.25 137.4 L67.85 137.4 19.35 137.4 18.95 137.4 Q12.95 137.3 8.25 133.95 L8.05 133.8 6.5 132.55 6.45 132.5 5.65 131.75 4.7 130.75 Q0.1 125.45 0.0 118.4 L0.0 19.0 Q0.1 11.25 5.65 5.65 11.2 0.15 18.95 0.0 L19.35 0.0 67.85 0.0 68.25 0.0 Q75.3 0.15 80.55 4.7 L80.95 5.1 81.35 5.45" fill="#000000" fill-rule="evenodd" stroke="none"/>
  </g>
</svg>
