<?xml version="1.0" encoding="UTF-8" standalone="no"?>
<svg xmlns:xlink="http://www.w3.org/1999/xlink" height="26.0px" width="26.0px" xmlns="http://www.w3.org/2000/svg">
  <g transform="matrix(1.0, 0.0, 0.0, 1.0, 13.0, 13.0)">
    <path d="M4.85 -11.55 Q7.1 -10.6 8.85 -8.85 10.6 -7.1 11.55 -4.85 12.5 -2.55 12.5 0.0 12.5 2.5 11.55 4.85 10.6 7.1 8.85 8.85 7.1 10.6 4.85 11.55 2.5 12.5 0.0 12.5 -2.55 12.5 -4.85 11.55 -7.1 10.6 -8.85 8.85 -10.6 7.1 -11.55 4.85 -12.5 2.5 -12.5 0.0 -12.5 -2.55 -11.55 -4.85 -10.6 -7.1 -8.85 -8.85 -7.1 -10.6 -4.85 -11.55 -2.55 -12.5 0.0 -12.5 2.5 -12.5 4.85 -11.55 Z" fill="none" stroke="#ffffff" stroke-linecap="round" stroke-linejoin="round" stroke-width="1.0"/>
    <path d="M9.2 -3.85 Q10.0 -2.0 10.0 0.05 10.0 2.05 9.2 3.9 8.5 5.7 7.1 7.1 5.7 8.5 3.9 9.2 2.05 10.0 0.0 10.0 -2.05 10.0 -3.85 9.2 -5.7 8.5 -7.05 7.1 -8.45 5.7 -9.2 3.9 -10.0 2.05 -10.0 0.05 -10.0 -2.0 -9.2 -3.85 -8.45 -5.65 -7.05 -7.05 -5.7 -8.45 -3.85 -9.15 -2.05 -10.0 0.0 -10.0 2.05 -10.0 3.9 -9.15 5.7 -8.45 7.1 -7.05 8.5 -5.65 9.2 -3.85" fill="#ffffff" fill-rule="evenodd" stroke="none"/>
  </g>
</svg>
