<?xml version="1.0" encoding="UTF-8" standalone="no"?>
<svg xmlns:xlink="http://www.w3.org/1999/xlink" height="26.0px" width="26.0px" xmlns="http://www.w3.org/2000/svg">
  <g transform="matrix(1.0, 0.0, 0.0, 1.0, 13.0, 13.0)">
    <path d="M11.5 -4.85 Q12.45 -2.55 12.5 0.0 12.5 2.5 11.5 4.85 10.55 7.1 8.85 8.85 7.1 10.55 4.85 11.5 2.5 12.45 0.0 12.5 -2.55 12.5 -4.85 11.5 -7.15 10.55 -8.85 8.85 -10.6 7.1 -11.5 4.85 -12.5 2.5 -12.5 0.0 -12.5 -2.55 -11.5 -4.85 -10.6 -7.1 -8.85 -8.85 -7.15 -10.6 -4.85 -11.5 -2.55 -12.5 0.0 -12.5 2.5 -12.5 4.85 -11.5 7.1 -10.6 8.85 -8.85 10.55 -7.1 11.5 -4.85 Z" fill="none" stroke="#6f6f6f" stroke-linecap="round" stroke-linejoin="round" stroke-width="1.0"/>
    <path d="M7.1 -7.05 Q8.45 -5.65 9.2 -3.85 10.0 -2.0 10.0 0.05 10.0 2.05 9.2 3.9 8.45 5.7 7.1 7.1 5.7 8.45 3.9 9.25 2.05 10.0 0.0 10.0 -2.05 10.0 -3.9 9.25 -5.7 8.45 -7.05 7.1 -8.45 5.7 -9.2 3.9 -10.0 2.05 -10.0 0.05 -10.0 -2.0 -9.2 -3.85 -8.45 -5.65 -7.05 -7.05 -5.7 -8.45 -3.9 -9.2 -2.05 -10.0 0.0 -10.0 2.05 -10.0 3.9 -9.2 5.7 -8.45 7.1 -7.05" fill="#6f6f6f" fill-rule="evenodd" stroke="none"/>
    <path d="M9.2 -3.9 Q10.0 -2.05 10.0 0.0 10.0 2.05 9.2 3.9 8.45 5.7 7.05 7.05 5.7 8.45 3.9 9.2 2.0 10.0 0.0 10.0 -2.05 10.0 -3.9 9.2 -5.7 8.45 -7.05 7.05 -8.45 5.7 -9.2 3.9 -10.0 2.05 -10.0 0.0 -10.0 -2.05 -9.2 -3.9 -8.45 -5.7 -7.05 -7.05 -5.7 -8.45 -3.9 -9.2 -2.05 -10.0 0.0 -10.0 2.0 -10.0 3.9 -9.2 5.7 -8.45 7.05 -7.05 8.45 -5.7 9.2 -3.9 Z" fill="none" stroke="#e7f2f6" stroke-linecap="round" stroke-linejoin="round" stroke-width="1.0"/>
    <path d="M4.0 4.05 L-4.0 4.05 -4.0 -3.95 4.0 -3.95 4.0 4.05" fill="#ffffff" fill-rule="evenodd" stroke="none"/>
  </g>
</svg>
