<?xml version="1.0" encoding="UTF-8" standalone="no"?>
<svg xmlns:xlink="http://www.w3.org/1999/xlink" height="25.0px" width="25.0px" xmlns="http://www.w3.org/2000/svg">
  <g transform="matrix(1.0, 0.0, 0.0, 1.0, 12.5, 12.5)">
    <path d="M4.85 -11.5 Q7.1 -10.6 8.8 -8.85 10.55 -7.1 11.5 -4.85 12.5 -2.55 12.5 0.0 12.5 2.55 11.5 4.85 10.55 7.1 8.8 8.85 7.1 10.55 4.85 11.5 2.55 12.5 0.0 12.5 -2.55 12.5 -4.85 11.5 -7.15 10.55 -8.85 8.85 -10.6 7.1 -11.55 4.85 -12.5 2.55 -12.5 0.0 -12.5 -2.55 -11.55 -4.85 -10.6 -7.1 -8.85 -8.85 -7.15 -10.6 -4.85 -11.5 -2.55 -12.5 0.0 -12.5 2.55 -12.5 4.85 -11.5" fill="#e7f2f6" fill-rule="evenodd" stroke="none"/>
  </g>
</svg>
