<?xml version="1.0" encoding="UTF-8" standalone="no"?>
<svg xmlns:xlink="http://www.w3.org/1999/xlink" height="16.45px" width="16.25px" xmlns="http://www.w3.org/2000/svg">
  <g transform="matrix(1.0, 0.0, 0.0, 1.0, 0.5, 0.5)">
    <path d="M7.9 15.45 Q4.65 15.45 2.3 13.1 -0.05 10.75 0.0 7.5 -0.05 4.2 2.3 1.9 3.65 0.55 5.3 0.0 2.95 2.4 2.7 5.6 2.5 8.8 4.65 10.95 6.75 13.1 10.0 12.85 L11.9 12.5 Q13.7 11.95 15.25 10.6 14.75 11.75 13.85 12.75 L13.55 13.1 Q11.2 15.45 7.9 15.45" fill="#ffffcc" fill-rule="evenodd" stroke="none"/>
    <path d="M7.9 15.45 Q4.65 15.45 2.3 13.1 -0.05 10.75 0.0 7.5 -0.05 4.2 2.3 1.9 3.65 0.55 5.3 0.0 2.95 2.4 2.7 5.6 2.5 8.8 4.65 10.95 6.75 13.1 10.0 12.85 L11.9 12.5 Q13.7 11.95 15.25 10.6 14.75 11.75 13.85 12.75 L13.55 13.1 Q11.2 15.45 7.9 15.45 Z" fill="none" stroke="#000000" stroke-linecap="round" stroke-linejoin="round" stroke-width="1.0"/>
  </g>
</svg>
