<?xml version="1.0" encoding="UTF-8" standalone="no"?>
<svg xmlns:xlink="http://www.w3.org/1999/xlink" height="12.05px" width="27.1px" xmlns="http://www.w3.org/2000/svg">
  <g transform="matrix(1.0, 0.0, 0.0, 1.0, 0.5, 0.5)">
    <path d="M12.35 3.05 Q13.55 3.75 13.6 4.75 L13.65 4.75 Q16.65 4.3 19.8 6.35 21.6 7.45 26.1 7.35 L21.15 8.25 18.2 8.2 16.35 7.95 16.35 8.05 Q16.35 9.3 14.7 10.15 13.1 11.05 10.8 11.05 8.5 11.05 6.85 10.15 L6.35 9.85 5.0 9.95 Q2.95 9.95 1.45 8.9 0.0 7.85 0.0 6.4 0.0 4.95 1.45 3.9 L2.4 3.4 2.2 2.6 Q2.2 1.5 3.4 0.75 4.65 0.0 6.35 0.0 8.05 0.0 9.25 0.75 10.35 1.4 10.5 2.4 11.55 2.55 12.35 3.05 M6.4 6.65 Q7.65 7.4 9.4 7.4 L9.8 7.4 Q11.3 7.3 12.35 6.65 13.25 6.1 13.5 5.4 L13.6 4.85 13.6 4.75 13.6 4.85 13.5 5.4 Q13.25 6.1 12.35 6.65 11.3 7.3 9.8 7.4 L9.4 7.4 Q7.65 7.4 6.4 6.65" fill="#ffffff" fill-rule="evenodd" stroke="none"/>
    <path d="M12.35 3.05 Q13.55 3.75 13.6 4.75 L13.65 4.75 Q16.65 4.3 19.8 6.35 21.6 7.45 26.1 7.35 L21.15 8.25 18.2 8.2 16.35 7.95 16.35 8.05 Q16.35 9.3 14.7 10.15 13.1 11.05 10.8 11.05 8.5 11.05 6.85 10.15 L6.35 9.85 5.0 9.95 Q2.95 9.95 1.45 8.9 0.0 7.85 0.0 6.4 0.0 4.95 1.45 3.9 L2.4 3.4 2.2 2.6 Q2.2 1.5 3.4 0.75 4.65 0.0 6.35 0.0 8.05 0.0 9.25 0.75 10.35 1.4 10.5 2.4 11.55 2.55 12.35 3.05 M13.6 4.75 L13.6 4.85 13.5 5.4 Q13.25 6.1 12.35 6.65 11.3 7.3 9.8 7.4 L9.4 7.4 Q7.65 7.4 6.4 6.65" fill="none" stroke="#000000" stroke-linecap="round" stroke-linejoin="round" stroke-width="1.0"/>
  </g>
</svg>
