<?xml version="1.0" encoding="UTF-8" standalone="no"?>
<svg xmlns:xlink="http://www.w3.org/1999/xlink" height="45.4px" width="90.75px" xmlns="http://www.w3.org/2000/svg">
  <g transform="matrix(1.0, 0.0, 0.0, 1.0, 15.15, 7.55)">
    <path d="M62.5 29.8 L12.9 29.8 Q13.75 30.25 14.55 30.8 17.25 32.45 24.0 32.3 L16.6 33.65 12.15 33.55 9.4 33.2 9.4 33.35 Q9.4 35.2 6.9 36.5 4.5 37.85 1.05 37.85 -2.4 37.85 -4.85 36.5 L-5.6 36.05 -7.65 36.2 Q-10.7 36.2 -12.95 34.6 -15.15 33.05 -15.15 30.85 -15.15 28.7 -12.95 27.1 -12.3 26.65 -11.55 26.35 L-11.85 25.15 Q-11.85 23.5 -10.05 22.4 -8.3 21.35 -5.9 21.25 L-6.5 18.85 -6.6 17.8 -6.6 5.95 -6.6 5.2 -6.35 2.65 Q-5.7 -1.0 -2.85 -3.8 L-2.6 -4.1 -0.75 -5.5 0.1 -6.05 Q1.9 -7.1 4.05 -7.4 L5.4 -7.55 5.65 -7.55 5.8 -7.55 62.85 -7.55 Q68.2 -7.55 71.95 -3.8 75.6 -0.1 75.6 5.2 L75.6 5.95 75.25 17.8 Q75.0 22.6 71.55 26.15 67.8 29.8 62.5 29.8" fill="#cccccc" fill-rule="evenodd" stroke="none"/>
  </g>
</svg>
