<?xml version="1.0" encoding="UTF-8" standalone="no"?>
<svg xmlns:xlink="http://www.w3.org/1999/xlink" height="20.9px" width="26.3px" xmlns="http://www.w3.org/2000/svg">
  <g transform="matrix(1.0, 0.0, 0.0, 1.0, 0.5, 0.5)">
    <path d="M1.15 16.3 L1.0 16.1 Q0.3 14.85 0.1 13.55 -0.25 11.45 0.7 9.15 2.2 5.4 6.15 3.15 10.1 0.85 14.1 1.4 L15.25 1.65 16.35 0.8 Q18.5 -0.45 20.9 0.2 23.25 0.85 24.5 3.0 25.7 5.1 25.1 7.5 24.45 9.85 22.3 11.1 L21.8 11.4 20.35 11.85 19.65 13.3 Q18.05 16.2 14.8 18.1 10.85 20.4 6.8 19.8 2.95 19.2 1.15 16.3 M22.6 4.05 L21.25 2.7 20.25 2.3 18.6 2.2 17.75 2.45 17.35 2.65 Q16.5 3.15 16.05 3.95 L15.9 4.15 16.2 3.95 16.6 3.75 Q17.0 3.55 17.45 3.5 L19.1 3.6 20.1 4.0 21.45 5.35 Q22.2 6.7 21.8 8.25 L21.5 9.05 21.5 9.1 21.9 8.75 22.4 8.15 22.45 8.1 22.65 7.75 22.95 6.95 Q23.35 5.4 22.6 4.05 M21.5 9.1 L21.45 9.1 21.2 9.25 21.05 9.35 20.85 9.45 18.3 9.65 Q16.75 9.2 16.0 7.85 15.2 6.5 15.6 4.95 L15.65 4.8 15.9 4.2 15.9 4.15 15.9 4.2 15.65 4.8 15.6 4.95 Q15.2 6.5 16.0 7.85 16.75 9.2 18.3 9.65 L20.85 9.45 21.05 9.35 21.2 9.25 21.45 9.1 21.5 9.1 M14.15 3.4 L13.3 3.25 Q10.1 2.8 7.0 4.6 L6.95 4.6 Q3.75 6.4 2.55 9.45 1.35 12.45 2.8 14.95 4.25 17.45 7.45 17.95 L11.9 17.5 13.85 16.6 Q16.45 15.05 17.75 12.75 L18.2 11.6 18.1 11.6 Q15.95 11.6 14.4 10.15 12.85 8.7 12.85 6.65 12.85 4.75 14.15 3.4" fill="#666666" fill-rule="evenodd" stroke="none"/>
    <path d="M21.25 2.7 L21.8 3.15 22.6 4.05 Q23.35 5.4 22.95 6.95 L22.65 7.75 22.45 8.1 22.4 8.15 21.9 8.75 21.5 9.1 21.5 9.05 21.8 8.25 Q22.2 6.7 21.45 5.35 L20.1 4.0 19.1 3.6 17.45 3.5 Q17.0 3.55 16.6 3.75 L16.2 3.95 15.9 4.15 16.05 3.95 Q16.5 3.15 17.35 2.65 L17.75 2.45 18.6 2.2 20.25 2.3 21.25 2.7 M11.9 17.5 L7.45 17.95 Q4.25 17.45 2.8 14.95 1.35 12.45 2.55 9.45 3.75 6.4 6.95 4.6 L7.0 4.6 Q9.15 3.8 11.35 4.15 L12.2 4.3 Q10.9 5.65 10.9 7.55 10.9 9.6 12.45 11.05 14.0 12.5 16.15 12.5 L16.25 12.5 15.8 13.65 Q14.5 15.95 11.9 17.5" fill="#333333" fill-rule="evenodd" stroke="none"/>
    <path d="M7.0 4.6 Q10.1 2.8 13.3 3.25 L14.15 3.4 Q12.85 4.75 12.85 6.65 12.85 8.7 14.4 10.15 15.95 11.6 18.1 11.6 L18.2 11.6 17.75 12.75 Q16.45 15.05 13.85 16.6 L11.9 17.5 Q14.5 15.95 15.8 13.65 L16.25 12.5 16.15 12.5 Q14.0 12.5 12.45 11.05 10.9 9.6 10.9 7.55 10.9 5.65 12.2 4.3 L11.35 4.15 Q9.15 3.8 7.0 4.6" fill="#000000" fill-rule="evenodd" stroke="none"/>
    <path d="M1.15 16.3 L1.0 16.1 Q0.3 14.85 0.1 13.55 -0.25 11.45 0.7 9.15 2.2 5.4 6.15 3.15 10.1 0.85 14.1 1.4 L15.25 1.65 16.35 0.8 Q18.5 -0.45 20.9 0.2 23.25 0.85 24.5 3.0 25.7 5.1 25.1 7.5 24.45 9.85 22.3 11.1 L21.8 11.4 20.35 11.85 19.65 13.3 Q18.05 16.2 14.8 18.1 10.85 20.4 6.8 19.8 2.95 19.2 1.15 16.3 M22.6 4.05 L21.25 2.7 20.25 2.3 18.6 2.2 17.75 2.45 17.35 2.65 Q16.5 3.15 16.05 3.95 L15.9 4.15 15.9 4.2 15.65 4.8 15.6 4.95 Q15.2 6.5 16.0 7.85 16.75 9.2 18.3 9.65 L20.85 9.45 21.05 9.35 21.2 9.25 21.45 9.1 21.5 9.1 21.9 8.75 22.4 8.15 22.45 8.1 22.65 7.75 22.95 6.95 Q23.35 5.4 22.6 4.05 M7.0 4.6 Q10.1 2.8 13.3 3.25 L14.15 3.4 M18.2 11.6 L17.75 12.75 Q16.45 15.05 13.85 16.6 L11.9 17.5 7.45 17.95 Q4.25 17.45 2.8 14.95 1.35 12.45 2.55 9.45 3.75 6.4 6.95 4.6 L7.0 4.6" fill="none" stroke="#000000" stroke-linecap="round" stroke-linejoin="round" stroke-width="1.0"/>
    <path d="M21.25 2.7 L21.8 3.15 22.6 4.05 M14.15 3.4 Q12.85 4.75 12.85 6.65 12.85 8.7 14.4 10.15 15.95 11.6 18.1 11.6 L18.2 11.6" fill="none" stroke="#000000" stroke-linecap="round" stroke-linejoin="round" stroke-width="1.0"/>
  </g>
</svg>
