<?xml version="1.0" encoding="UTF-8" standalone="no"?>
<svg xmlns:xlink="http://www.w3.org/1999/xlink" height="28.2px" width="38.95px" xmlns="http://www.w3.org/2000/svg">
  <g transform="matrix(1.0, 0.0, 0.0, 1.0, 2.2, 1.75)">
    <path d="M6.65 3.7 L28.45 19.3 28.5 19.35 27.45 20.7 5.3 5.15 5.35 5.05 6.65 3.7" fill="#ffcc00" fill-rule="evenodd" stroke="none"/>
    <path d="M28.5 19.35 L35.35 24.1 35.5 24.2 34.45 25.5 34.4 25.5 27.45 20.7 28.5 19.35" fill="#ff9900" fill-rule="evenodd" stroke="none"/>
    <path d="M5.35 5.05 Q2.0 4.25 0.05 2.0 L3.15 1.75 2.55 0.0 Q5.45 1.4 6.65 3.7 L5.35 5.05" fill="#ffffff" fill-rule="evenodd" stroke="none"/>
    <path d="M0.05 2.0 Q-1.1 0.6 -1.7 -1.25 0.7 -0.8 2.55 0.0 L3.15 1.75 0.05 2.0" fill="#333333" fill-rule="evenodd" stroke="none"/>
    <path d="M6.65 3.7 L28.45 19.3 28.5 19.35 35.35 24.1 35.5 24.2 Q36.4 24.65 36.2 25.35 35.9 26.05 35.25 25.95 34.6 25.85 34.45 25.5 L34.4 25.5 27.45 20.7 5.3 5.15 5.35 5.05 Q2.0 4.25 0.05 2.0 -1.1 0.6 -1.7 -1.25 0.7 -0.8 2.55 0.0 5.45 1.4 6.65 3.7 L5.35 5.05 M28.5 19.35 L27.45 20.7 M34.45 25.5 L35.5 24.2" fill="none" stroke="#000000" stroke-linecap="round" stroke-linejoin="round" stroke-width="1.0"/>
  </g>
</svg>
