<?xml version="1.0" encoding="UTF-8" standalone="no"?>
<svg xmlns:xlink="http://www.w3.org/1999/xlink" height="49.9px" width="90.2px" xmlns="http://www.w3.org/2000/svg">
  <g transform="matrix(1.0, 0.0, 0.0, 1.0, 0.0, 0.0)">
    <path d="M10.75 4.75 L11.7 3.7 11.95 3.45 13.8 2.0 14.65 1.45 Q16.5 0.45 18.6 0.15 L19.95 0.0 20.2 0.0 20.35 0.0 77.45 0.0 Q82.75 0.0 86.5 3.7 L87.45 4.75 10.75 4.75" fill="#ffffff" fill-rule="evenodd" stroke="none"/>
    <path d="M87.45 4.75 Q90.2 8.15 90.2 12.7 L90.2 13.45 89.8 25.35 Q89.55 30.15 86.1 33.65 82.35 37.35 77.05 37.35 L20.35 37.35 20.25 37.35 20.2 37.45 19.5 38.6 27.4 44.3 27.45 44.35 33.7 48.65 33.8 48.75 32.85 49.9 32.8 49.9 18.45 39.9 Q17.15 41.2 15.35 42.25 11.4 44.55 7.35 43.95 3.5 43.35 1.7 40.45 L1.55 40.25 Q0.85 39.0 0.65 37.7 0.3 35.6 1.25 33.3 1.95 31.5 3.25 30.05 L1.6 28.55 Q0.55 27.3 0.0 25.6 2.2 26.0 3.85 26.75 L5.75 27.9 Q6.2 27.55 6.7 27.3 L8.1 26.6 8.05 26.35 8.0 25.35 8.0 13.45 8.0 12.7 Q7.95 11.35 8.2 10.15 8.8 7.15 10.75 4.75 L87.45 4.75" fill="#cccccc" fill-rule="evenodd" stroke="none"/>
  </g>
</svg>
