<?xml version="1.0" encoding="UTF-8" standalone="no"?>
<svg xmlns:xlink="http://www.w3.org/1999/xlink" height="44.8px" width="24.75px" xmlns="http://www.w3.org/2000/svg">
  <g transform="matrix(1.0, 0.0, 0.0, 1.0, 0.5, 0.5)">
    <path d="M6.95 0.0 L7.65 2.05 Q9.35 2.05 10.2 3.65 L10.35 4.05 10.4 4.2 10.4 4.3 14.35 23.6 23.75 41.2 Q19.95 44.5 16.15 43.6 L10.55 24.7 10.5 24.65 0.55 7.7 0.35 7.4 Q-0.85 5.0 2.15 2.95 L6.95 0.0 M6.55 5.45 Q5.95 6.25 5.15 6.35 4.35 6.4 3.95 5.9 3.5 5.35 4.9 4.65 6.6 3.75 7.35 5.1 8.0 6.45 5.25 7.15 2.5 7.85 1.65 6.35 0.8 4.85 4.5 2.95 6.3 2.0 7.65 2.05 6.3 2.0 4.5 2.95 0.8 4.85 1.65 6.35 2.5 7.85 5.25 7.15 8.0 6.45 7.35 5.1 6.6 3.75 4.9 4.65 3.5 5.35 3.95 5.9 4.35 6.4 5.15 6.35 5.95 6.25 6.55 5.45 M0.55 7.7 Q1.2 8.65 2.45 9.0 4.3 9.55 6.75 8.35 10.7 6.3 10.4 4.3 10.7 6.3 6.75 8.35 4.3 9.55 2.45 9.0 1.2 8.65 0.55 7.7 M14.35 23.6 Q13.75 24.55 10.55 24.7 13.75 24.55 14.35 23.6" fill="#eeeddd" fill-rule="evenodd" stroke="none"/>
    <path d="M6.95 0.0 L7.65 2.05 M10.35 4.05 L10.4 4.2 10.4 4.3 14.35 23.6 23.75 41.2 Q19.95 44.5 16.15 43.6 L10.55 24.7 10.5 24.65 0.55 7.7" fill="none" stroke="#000000" stroke-linecap="round" stroke-linejoin="round" stroke-width="1.0"/>
    <path d="M7.65 2.05 Q9.35 2.05 10.2 3.65 L10.35 4.05 M0.55 7.7 L0.35 7.4 Q-0.85 5.0 2.15 2.95 L6.95 0.0 M10.4 4.3 Q10.7 6.3 6.75 8.35 4.3 9.55 2.45 9.0 1.2 8.65 0.55 7.7 M7.65 2.05 Q6.3 2.0 4.5 2.95 0.8 4.85 1.65 6.35 2.5 7.85 5.25 7.15 8.0 6.45 7.35 5.1 6.6 3.75 4.9 4.65 3.5 5.35 3.95 5.9 4.35 6.4 5.15 6.35 5.95 6.25 6.55 5.45" fill="none" stroke="#000000" stroke-linecap="round" stroke-linejoin="round" stroke-width="1.0"/>
    <path d="M10.55 24.7 Q13.75 24.55 14.35 23.6" fill="none" stroke="#cc0000" stroke-linecap="round" stroke-linejoin="round" stroke-width="1.0"/>
  </g>
</svg>
