<?xml version="1.0" encoding="UTF-8" standalone="no"?>
<svg xmlns:xlink="http://www.w3.org/1999/xlink" height="46.6px" width="89.3px" xmlns="http://www.w3.org/2000/svg">
  <g transform="matrix(1.0, 0.0, 0.0, 1.0, -1.55, 0.0)">
    <path d="M21.0 0.0 L78.1 0.0 Q83.4 0.0 87.15 3.7 90.85 7.4 90.85 12.7 L90.85 13.45 90.45 25.35 Q90.2 30.15 86.75 33.65 83.0 37.35 77.7 37.35 L29.4 37.35 30.85 38.75 29.4 40.7 31.45 44.1 Q28.3 47.1 25.0 46.5 L22.1 38.3 21.45 37.35 21.0 37.35 Q18.45 37.25 16.3 36.35 L16.25 36.35 Q14.5 35.55 12.95 34.2 L12.7 33.95 12.35 33.65 Q9.25 30.55 8.7 26.35 L8.65 25.35 8.65 22.75 2.55 17.45 2.3 17.2 Q0.65 15.55 2.55 13.05 L5.75 9.3 6.85 10.8 8.75 10.95 8.85 10.15 Q9.55 6.5 12.35 3.7 L12.6 3.45 Q13.5 2.6 14.45 2.0 L15.3 1.45 Q17.15 0.45 19.25 0.15 L20.6 0.0 20.85 0.0 21.0 0.0" fill="#eeeddd" fill-rule="evenodd" stroke="none"/>
  </g>
</svg>
