<?xml version="1.0" encoding="UTF-8" standalone="no"?>
<svg xmlns:xlink="http://www.w3.org/1999/xlink" height="8.95px" width="10.95px" xmlns="http://www.w3.org/2000/svg">
  <g transform="matrix(1.0, 0.0, 0.0, 1.0, 0.5, 0.5)">
    <path d="M6.25 2.2 Q8.55 4.1 9.85 7.1 L9.95 7.25 Q9.25 8.0 7.9 7.95 6.5 7.85 4.4 5.15 2.3 2.4 0.0 0.1 L0.6 0.0 Q3.25 -0.25 6.25 2.2" fill="#006600" fill-rule="evenodd" stroke="none"/>
    <path d="M6.25 2.2 Q3.25 -0.25 0.6 0.0 L0.0 0.1 Q2.3 2.4 4.4 5.15 6.5 7.85 7.9 7.95 9.25 8.0 9.95 7.25 L9.85 7.1 Q8.55 4.1 6.25 2.2 Z" fill="none" stroke="#000000" stroke-linecap="round" stroke-linejoin="round" stroke-width="1.0"/>
  </g>
</svg>
