<?xml version="1.0" encoding="UTF-8" standalone="no"?>
<svg xmlns:xlink="http://www.w3.org/1999/xlink" height="23.15px" width="24.8px" xmlns="http://www.w3.org/2000/svg">
  <g transform="matrix(1.0, 0.0, 0.0, 1.0, 0.5, 0.5)">
    <path d="M8.2 1.5 Q8.9 2.2 9.65 3.8 10.35 5.35 9.65 6.1 9.05 6.65 7.85 6.4 L7.4 6.2 6.3 5.85 4.8 4.9 Q4.05 4.2 4.05 3.2 4.05 2.2 4.8 1.5 5.45 0.75 6.5 0.8 7.5 0.75 8.2 1.5 M9.85 1.95 Q9.85 1.15 10.4 0.6 10.95 0.0 11.8 0.0 12.6 0.0 13.2 0.6 13.75 1.15 13.75 1.95 L13.25 4.15 Q12.75 5.4 11.95 5.45 11.15 5.4 10.5 4.15 9.85 2.75 9.85 1.95 M14.05 5.9 Q13.45 5.15 14.15 3.7 14.9 2.15 15.65 1.4 16.3 0.7 17.35 0.7 18.35 0.7 19.05 1.4 19.75 2.15 19.75 3.15 19.75 4.15 19.05 4.85 L17.5 5.8 16.4 6.1 15.9 6.35 14.65 6.35 14.6 6.3 14.05 5.9 M15.65 8.35 Q15.65 7.2 17.6 6.25 19.65 5.25 20.85 5.25 22.05 5.25 22.95 6.1 23.8 6.95 23.8 8.2 23.8 9.4 22.95 10.25 22.05 11.1 20.85 11.1 L19.15 10.85 20.4 11.5 21.05 12.0 21.15 12.05 21.2 12.1 Q22.1 13.05 22.1 14.35 22.1 15.7 21.2 16.65 20.25 17.6 18.9 17.55 17.6 17.6 16.65 16.65 15.7 15.7 14.7 13.6 13.7 11.5 14.65 10.55 L14.7 10.5 14.9 10.3 15.05 10.3 15.05 10.25 16.45 10.05 17.1 10.15 17.6 10.35 19.1 10.85 18.15 10.5 17.9 10.4 17.85 10.35 17.6 10.3 17.1 10.15 Q15.65 9.45 15.65 8.45 L15.65 8.4 15.65 8.35 M12.1 11.25 Q13.7 11.4 14.65 13.95 15.65 16.65 15.65 18.25 15.65 19.9 14.45 21.0 13.35 22.15 11.7 22.15 10.1 22.15 8.95 21.0 7.8 19.9 7.8 18.25 7.8 17.1 8.5 15.4 L7.45 16.8 Q6.5 17.75 5.15 17.7 3.85 17.75 2.9 16.8 1.95 15.85 1.95 14.5 1.95 13.25 2.9 12.25 3.85 11.35 6.15 10.55 L9.4 10.7 9.45 10.75 Q10.15 11.5 9.7 13.0 10.7 11.3 12.0 11.25 L12.1 11.25 M19.1 10.85 L19.15 10.85 19.1 10.85 M8.2 8.45 Q8.15 9.65 6.15 10.35 4.15 11.1 2.95 11.1 1.7 11.1 0.9 10.25 0.0 9.4 0.0 8.2 0.0 6.95 0.9 6.1 1.7 5.25 2.95 5.25 4.15 5.25 6.15 6.25 8.15 7.2 8.2 8.4 L8.2 8.45 M8.5 15.4 L9.35 13.75 9.7 13.0 9.15 13.95 8.5 15.4" fill="#ff6600" fill-rule="evenodd" stroke="none"/>
    <path d="M14.65 6.35 Q15.65 7.2 15.65 8.35 L15.65 8.4 15.65 8.45 Q15.6 9.6 14.6 10.4 13.55 11.25 12.1 11.25 L12.0 11.25 Q10.5 11.2 9.5 10.4 8.5 9.55 8.5 8.35 8.5 7.15 9.5 6.3 10.55 5.45 12.05 5.45 13.2 5.45 14.05 5.9 L14.15 6.05 14.65 6.35" fill="#ffcc00" fill-rule="evenodd" stroke="none"/>
    <path d="M9.85 1.95 Q9.85 2.75 10.5 4.15 11.15 5.4 11.95 5.45 12.75 5.4 13.25 4.15 L13.75 1.95 Q13.75 1.15 13.2 0.6 12.6 0.0 11.8 0.0 10.95 0.0 10.4 0.6 9.85 1.15 9.85 1.95 M8.2 1.5 Q7.5 0.75 6.5 0.8 5.45 0.75 4.8 1.5 4.05 2.2 4.05 3.2 4.05 4.2 4.8 4.9 L6.3 5.85 7.4 6.2 7.85 6.4 Q9.05 6.65 9.65 6.1 10.35 5.35 9.65 3.8 8.9 2.2 8.2 1.5 M14.05 5.9 Q13.45 5.15 14.15 3.7 14.9 2.15 15.65 1.4 16.3 0.7 17.35 0.7 18.35 0.7 19.05 1.4 19.75 2.15 19.75 3.15 19.75 4.15 19.05 4.85 L17.5 5.8 16.4 6.1 15.9 6.35 14.65 6.35 14.15 6.05 14.05 5.9 M15.65 8.35 Q15.65 7.2 17.6 6.25 19.65 5.25 20.85 5.25 22.05 5.25 22.95 6.1 23.8 6.95 23.8 8.2 23.8 9.4 22.95 10.25 22.05 11.1 20.85 11.1 L19.15 10.85 20.4 11.5 21.05 12.0 21.15 12.05 21.2 12.1 Q22.1 13.05 22.1 14.35 22.1 15.7 21.2 16.65 20.25 17.6 18.9 17.55 17.6 17.6 16.65 16.65 15.7 15.7 14.7 13.6 13.7 11.5 14.65 10.55 L14.7 10.5 14.9 10.3 15.05 10.3 15.05 10.25 16.45 10.05 17.1 10.15 Q15.65 9.45 15.65 8.45 M12.1 11.25 Q13.7 11.4 14.65 13.95 15.65 16.65 15.65 18.25 15.65 19.9 14.45 21.0 13.35 22.15 11.7 22.15 10.1 22.15 8.95 21.0 7.8 19.9 7.8 18.25 7.8 17.1 8.5 15.4 L7.45 16.8 Q6.5 17.75 5.15 17.7 3.85 17.75 2.9 16.8 1.95 15.85 1.95 14.5 1.95 13.25 2.9 12.25 3.85 11.35 6.15 10.55 L9.4 10.7 9.45 10.75 Q10.15 11.5 9.7 13.0 10.7 11.3 12.0 11.25 M19.15 10.85 L19.1 10.85 17.6 10.35 17.1 10.15 16.45 10.05 M19.1 10.85 L18.15 10.5 17.9 10.4 17.85 10.35 17.6 10.3 17.1 10.15 17.6 10.3 M15.65 8.35 L15.65 8.4 15.65 8.45 M8.2 8.45 Q8.15 9.65 6.15 10.35 4.15 11.1 2.95 11.1 1.7 11.1 0.9 10.25 0.0 9.4 0.0 8.2 0.0 6.95 0.9 6.1 1.7 5.25 2.95 5.25 4.15 5.25 6.15 6.25 8.15 7.2 8.2 8.4 L8.2 8.45 M8.5 15.4 L9.15 13.95 9.7 13.0 9.35 13.75 8.5 15.4 M12.1 11.25 L12.0 11.25" fill="none" stroke="#000000" stroke-linecap="round" stroke-linejoin="round" stroke-width="1.0"/>
    <path d="M14.65 6.35 Q15.65 7.2 15.65 8.35 M15.65 8.45 Q15.6 9.6 14.6 10.4 13.55 11.25 12.1 11.25 M12.0 11.25 Q10.5 11.2 9.5 10.4 8.5 9.55 8.5 8.35 8.5 7.15 9.5 6.3 10.55 5.45 12.05 5.45 13.2 5.45 14.05 5.9 L14.6 6.3 14.65 6.35" fill="none" stroke="#000000" stroke-linecap="round" stroke-linejoin="round" stroke-width="1.0"/>
  </g>
</svg>
