<?xml version="1.0" encoding="UTF-8" standalone="no"?>
<svg xmlns:xlink="http://www.w3.org/1999/xlink" height="44.6px" width="78.25px" xmlns="http://www.w3.org/2000/svg">
  <g transform="matrix(1.0, 0.0, 0.0, 1.0, 37.45, 11.3)">
    <path d="M23.3 -5.75 L25.8 -7.65 28.95 -9.5 29.85 -9.85 Q34.7 -11.75 37.5 -8.2 39.0 -6.3 39.95 -2.9 42.55 11.45 24.7 27.0 L24.5 27.2 24.2 27.45 23.85 27.75 Q21.45 29.7 18.8 30.65 14.65 31.85 10.05 32.35 L1.8 32.8 1.55 32.8 Q-7.3 32.85 -14.65 30.9 -17.7 29.75 -19.15 28.7 L-20.65 27.65 Q-39.3 11.7 -36.6 -2.9 -35.45 -7.25 -33.3 -9.1 L-32.45 -9.75 -32.2 -9.9 Q-27.75 -12.25 -20.0 -5.75 L-19.95 -5.7 -19.1 -4.45 -19.0 -4.3 -18.9 -4.2 -16.05 -1.6 -15.35 -1.15 -15.05 -0.9 -14.35 -0.45 -14.3 -0.45 -12.6 0.6 Q-11.25 1.45 -9.6 2.1 -4.95 3.85 1.55 4.0 L1.65 4.0 1.8 4.0 8.4 3.35 12.15 2.4 12.95 2.1 Q14.55 1.45 15.95 0.6 L17.25 -0.15 17.65 -0.45 17.7 -0.45 18.25 -0.8 Q20.85 -2.6 22.25 -4.25 L23.3 -5.7 23.3 -5.75 M32.25 -9.55 Q33.7 -9.0 34.85 -7.55 36.35 -5.7 37.3 -2.25 39.55 10.0 26.75 23.2 40.5 9.9 38.3 -2.25 37.35 -5.65 35.85 -7.55 34.25 -9.55 31.95 -9.8 L30.9 -9.85 32.25 -9.55 M23.35 -3.65 L22.25 -2.2 Q20.85 -0.6 18.25 1.2 L17.7 1.55 15.95 2.65 12.95 4.1 Q8.3 5.85 1.8 6.0 L1.65 6.0 1.55 6.0 Q-4.95 5.85 -9.6 4.1 L-12.6 2.65 -13.15 2.35 Q-13.75 1.95 -14.3 1.6 L-16.8 -0.2 -17.35 -0.65 -17.8 -1.05 -19.45 -2.85 -19.1 -2.1 -19.1 -2.05 -18.35 -0.8 Q-16.9 1.5 -14.3 3.2 L-12.6 4.3 -9.6 5.75 Q-4.95 7.5 1.55 7.6 L1.65 7.6 1.8 7.6 Q8.3 7.5 12.95 5.75 L15.95 4.3 17.7 3.2 18.25 2.85 Q20.85 1.05 22.4 -1.85 L23.35 -3.65 M22.05 25.95 L19.15 25.95 Q15.6 28.0 11.6 29.6 17.65 29.2 22.05 25.95 M27.45 19.8 Q24.55 22.55 21.1 24.75 L23.2 25.0 Q25.6 22.9 27.45 19.8" fill="url(#gradient0)" fill-rule="evenodd" stroke="none"/>
    <path d="M-12.2 -3.95 L-10.45 -5.9 -8.5 -7.55 Q-7.05 -8.6 -5.45 -9.25 L-3.7 -9.95 Q-1.25 -10.75 1.55 -10.8 L1.65 -10.8 1.8 -10.8 Q8.75 -10.65 13.75 -5.9 L15.55 -3.95 15.6 -3.9 15.75 -3.7 15.95 -3.4 17.25 -1.35 17.5 -0.8 17.55 -0.6 17.65 -0.45 17.25 -0.15 15.95 0.6 Q14.55 1.45 12.95 2.1 L12.15 2.4 8.4 3.35 1.8 4.0 1.65 4.0 1.55 4.0 Q-4.95 3.85 -9.6 2.1 -11.25 1.45 -12.6 0.6 L-14.3 -0.45 -14.25 -0.6 -12.2 -3.95 M9.2 -4.15 Q10.65 -1.65 11.2 0.95 L15.0 -0.4 Q13.8 -3.0 11.65 -5.05 L9.2 -4.15 M8.5 -5.3 L10.5 -6.05 Q8.3 -7.85 5.3 -9.2 L8.5 -5.3" fill="url(#gradient1)" fill-rule="evenodd" stroke="none"/>
    <path d="M32.25 -9.55 L30.9 -9.85 31.95 -9.8 Q34.25 -9.55 35.85 -7.55 37.35 -5.65 38.3 -2.25 40.5 9.9 26.75 23.2 39.55 10.0 37.3 -2.25 36.35 -5.7 34.85 -7.55 33.7 -9.0 32.25 -9.55 M23.35 -3.65 L22.4 -1.85 Q20.85 1.05 18.25 2.85 L17.7 3.2 15.95 4.3 12.95 5.75 Q8.3 7.5 1.8 7.6 L1.65 7.6 1.55 7.6 Q-4.95 7.5 -9.6 5.75 L-12.6 4.3 -14.3 3.2 Q-16.9 1.5 -18.35 -0.8 L-19.1 -2.05 -19.1 -2.1 -19.45 -2.85 -17.8 -1.05 -17.35 -0.65 -16.8 -0.2 -14.3 1.6 Q-13.75 1.95 -13.15 2.35 L-12.6 2.65 -9.6 4.1 Q-4.95 5.85 1.55 6.0 L1.65 6.0 1.8 6.0 Q8.3 5.85 12.95 4.1 L15.95 2.65 17.7 1.55 18.25 1.2 Q20.85 -0.6 22.25 -2.2 L23.35 -3.65 M9.2 -4.15 L11.65 -5.05 Q13.8 -3.0 15.0 -0.4 L11.2 0.95 Q10.65 -1.65 9.2 -4.15 M8.5 -5.3 L5.3 -9.2 Q8.3 -7.85 10.5 -6.05 L8.5 -5.3 M22.05 25.95 Q17.65 29.2 11.6 29.6 15.6 28.0 19.15 25.95 L22.05 25.95 M27.45 19.8 Q25.6 22.9 23.2 25.0 L21.1 24.75 Q24.55 22.55 27.45 19.8" fill="#ffffcc" fill-rule="evenodd" stroke="none"/>
    <path d="M-19.95 -5.75 L-14.05 -4.35 -13.15 -4.15 -12.75 -4.05 -12.2 -3.95 -14.25 -0.6 -14.35 -0.45 -15.05 -0.9 -15.35 -1.15 -16.05 -1.6 -18.9 -4.2 -19.0 -4.3 -19.1 -4.45 -19.95 -5.7 -19.95 -5.75 M15.55 -3.95 L16.15 -4.1 18.85 -4.65 20.65 -5.05 22.05 -5.4 22.95 -5.6 23.3 -5.75 23.3 -5.7 22.25 -4.25 Q20.85 -2.6 18.25 -0.8 L17.7 -0.45 17.55 -0.6 17.5 -0.8 17.25 -1.35 15.95 -3.4 15.75 -3.7 15.6 -3.9 15.55 -3.95" fill="url(#gradient2)" fill-rule="evenodd" stroke="none"/>
    <path d="M17.65 -0.45 L17.25 -0.15 17.65 -0.45" fill="url(#gradient3)" fill-rule="evenodd" stroke="none"/>
    <path d="M23.3 -5.75 L25.8 -7.65 28.95 -9.5 29.85 -9.85 Q34.7 -11.75 37.5 -8.2 39.0 -6.3 39.95 -2.9 42.55 11.45 24.7 27.0 L24.5 27.2 24.2 27.45 23.85 27.75 Q21.45 29.7 18.8 30.65 14.65 31.85 10.05 32.35 L1.8 32.8 1.55 32.8 Q-7.3 32.85 -14.65 30.9 -17.7 29.75 -19.15 28.7 L-20.65 27.65 Q-39.3 11.7 -36.6 -2.9 -35.45 -7.25 -33.3 -9.1 L-32.45 -9.75 -32.2 -9.9 Q-27.75 -12.25 -20.0 -5.75 L-19.95 -5.75 -14.05 -4.35 -13.15 -4.15 -12.75 -4.05 -12.2 -3.95 -10.45 -5.9 -8.5 -7.55 Q-7.05 -8.6 -5.45 -9.25 L-3.7 -9.95 Q-1.25 -10.75 1.55 -10.8 L1.65 -10.8 1.8 -10.8 Q8.75 -10.65 13.75 -5.9 L15.55 -3.95 16.15 -4.1 18.85 -4.65 20.65 -5.05 22.05 -5.4 22.95 -5.6 23.3 -5.75 23.3 -5.7 22.25 -4.25 Q20.85 -2.6 18.25 -0.8 L17.7 -0.45 17.65 -0.45 17.25 -0.15 15.95 0.6 Q14.55 1.45 12.95 2.1 L12.15 2.4 8.4 3.35 1.8 4.0 1.65 4.0 1.55 4.0 Q-4.95 3.85 -9.6 2.1 -11.25 1.45 -12.6 0.6 L-14.3 -0.45 -14.35 -0.45 -15.05 -0.9 -15.35 -1.15 -16.05 -1.6 -18.9 -4.2 -19.0 -4.3 M-19.1 -4.45 L-19.95 -5.7 -20.0 -5.75 M15.55 -3.95 L15.6 -3.9 15.75 -3.7 15.95 -3.4 17.25 -1.35 17.5 -0.8 17.55 -0.6 17.65 -0.45 M-14.25 -0.6 L-12.2 -3.95 M-14.3 -0.45 L-14.25 -0.6" fill="none" stroke="#000000" stroke-linecap="round" stroke-linejoin="round" stroke-width="1.0"/>
  </g>
  <defs>
    <linearGradient gradientTransform="matrix(0.093, 0.0, 0.0, 0.0309, -1.8, -2.25)" gradientUnits="userSpaceOnUse" id="gradient0" spreadMethod="pad" x1="-819.2" x2="819.2">
      <stop offset="0.0" stop-color="#fcefbe"/>
      <stop offset="0.6901960784313725" stop-color="#fdb91c"/>
      <stop offset="1.0" stop-color="#8d5603"/>
    </linearGradient>
    <radialGradient cx="0" cy="0" gradientTransform="matrix(0.0422, 0.0, 0.0, 0.0422, -4.9, -18.95)" gradientUnits="userSpaceOnUse" id="gradient1" r="819.2" spreadMethod="pad">
      <stop offset="0.0" stop-color="#ffffff"/>
      <stop offset="0.6901960784313725" stop-color="#f4ab02"/>
      <stop offset="1.0" stop-color="#d58b04"/>
    </radialGradient>
    <linearGradient gradientTransform="matrix(0.093, 0.0, 0.0, 0.0309, 0.0, -8.75)" gradientUnits="userSpaceOnUse" id="gradient2" spreadMethod="pad" x1="-819.2" x2="819.2">
      <stop offset="0.0" stop-color="#e8cb09"/>
      <stop offset="0.6901960784313725" stop-color="#eca500"/>
      <stop offset="1.0" stop-color="#d58b04"/>
    </linearGradient>
    <radialGradient cx="0" cy="0" gradientTransform="matrix(0.0422, 0.0, 0.0, 0.0422, -4.9, -18.95)" gradientUnits="userSpaceOnUse" id="gradient3" r="819.2" spreadMethod="pad">
      <stop offset="0.0" stop-color="#e8cb09"/>
      <stop offset="0.6901960784313725" stop-color="#eca500"/>
      <stop offset="1.0" stop-color="#d58b04"/>
    </radialGradient>
  </defs>
</svg>
