<?xml version="1.0" encoding="UTF-8" standalone="no"?>
<svg xmlns:xlink="http://www.w3.org/1999/xlink" height="259.9px" width="667.25px" xmlns="http://www.w3.org/2000/svg">
  <g transform="matrix(1.0, 0.0, 0.0, 1.0, 0.5, 0.5)">
    <path d="M513.25 0.0 L617.55 0.0 665.75 0.0 665.75 258.3 617.55 218.6 617.55 74.2 617.55 57.1 617.55 74.2 617.55 218.6 579.2 187.0 513.25 132.7 513.25 0.0 M657.45 15.85 L657.45 58.05 657.45 15.85 M617.55 57.1 L657.45 74.1 657.45 58.05 617.55 40.35 617.55 57.1 M617.55 74.2 L579.2 55.35 579.2 187.0 579.2 55.35 617.55 74.2 M609.6 110.3 L589.15 97.35 589.15 174.7 609.6 189.75 609.6 110.3 M630.25 80.45 L630.25 110.05 657.45 125.5 657.45 93.85 630.25 80.45 M568.25 157.75 L568.25 118.15 540.05 103.65 540.05 137.5 546.2 141.45 546.2 140.9 550.65 144.3 568.25 157.75 568.25 158.3 568.25 157.75 M546.2 141.45 L550.65 144.3 546.2 141.45 M627.75 203.7 L657.45 226.0 657.45 139.35 627.75 121.0 627.75 203.7 M617.55 40.35 L617.55 0.0 617.55 40.35" fill="#d2a679" fill-rule="evenodd" stroke="none"/>
    <path d="M617.55 57.1 L617.55 40.35 657.45 58.05 657.45 74.1 617.55 57.1 M589.15 97.35 L609.6 110.3 609.6 189.75 589.15 174.7 589.15 97.35 M568.25 157.75 L550.65 144.3 546.2 140.9 546.2 141.45 540.05 137.5 540.05 103.65 568.25 118.15 568.25 157.75 M630.25 80.45 L657.45 93.85 657.45 125.5 630.25 110.05 630.25 80.45 M627.75 121.0 L657.45 139.35 657.45 226.0 627.75 203.7 627.75 121.0" fill="#a66f37" fill-rule="evenodd" stroke="none"/>
    <path d="M617.55 218.6 L665.75 258.3 665.75 258.9 513.25 258.9 513.25 132.7 579.2 187.0 617.55 218.6" fill="#cccccc" fill-rule="evenodd" stroke="none"/>
    <path d="M513.25 258.9 L0.0 258.9 0.0 0.0 513.25 0.0 513.25 132.7 513.25 258.9" fill="#ffffcc" fill-rule="evenodd" stroke="none"/>
    <path d="M513.25 0.0 L617.55 0.0 665.75 0.0 665.75 258.3 666.25 258.7 M657.45 58.05 L657.45 15.85 M617.55 57.1 L657.45 74.1 657.45 58.05 617.55 40.35 617.55 57.1 617.55 74.2 617.55 218.6 665.75 258.3 665.75 258.9 M0.0 258.9 L0.0 0.0 513.25 0.0 M513.25 132.7 L579.2 187.0 579.2 55.35 617.55 74.2 M609.6 110.3 L589.15 97.35 M589.15 174.7 L609.6 189.75 M630.25 80.45 L630.25 110.05 657.45 125.5 657.45 93.85 630.25 80.45 M568.25 157.75 L568.25 118.15 540.05 103.65 540.05 137.5 546.2 141.45 546.2 140.9 550.65 144.3 568.25 157.75 568.25 158.3 M550.65 144.3 L546.2 141.45 M627.75 203.7 L657.45 226.0 657.45 139.35 627.75 121.0 M617.55 218.6 L579.2 187.0 M617.55 0.0 L617.55 40.35" fill="none" stroke="#000000" stroke-linecap="round" stroke-linejoin="round" stroke-width="1.0"/>
    <path d="M589.15 97.35 L589.15 174.7 M609.6 189.75 L609.6 110.3 M627.75 121.0 L627.75 203.7" fill="none" stroke="#000000" stroke-linecap="round" stroke-linejoin="round" stroke-width="1.0"/>
    <path d="M665.75 258.9 L513.25 258.9 0.0 258.9" fill="none" stroke="#000000" stroke-linecap="round" stroke-linejoin="round" stroke-width="1.0"/>
  </g>
</svg>
