<?xml version="1.0" encoding="UTF-8" standalone="no"?>
<svg xmlns:xlink="http://www.w3.org/1999/xlink" height="246.1px" width="174.95px" xmlns="http://www.w3.org/2000/svg">
  <g transform="matrix(1.0, 0.0, 0.0, 1.0, 0.5, 0.5)">
    <path d="M7.6 245.1 L7.6 235.75 19.6 235.75 7.6 245.1" fill="#c4874d" fill-rule="evenodd" stroke="none"/>
    <path d="M7.6 156.1 L7.6 153.1 10.6 156.1 7.6 153.1 152.3 153.1 152.3 156.1 152.3 214.75 152.3 217.75 7.6 217.75 7.6 214.75 7.6 156.1 M10.6 214.75 L7.6 217.75 10.6 214.75 149.3 214.75 149.3 156.1 10.6 156.1 10.6 214.75 M152.3 153.1 L149.3 156.1 152.3 153.1 M152.3 217.75 L149.3 214.75 152.3 217.75" fill="#cc6600" fill-rule="evenodd" stroke="none"/>
    <path d="M151.15 73.25 L151.15 8.25 7.0 8.25 7.0 73.55 151.15 73.25 M7.6 153.1 L7.6 156.1 7.6 214.75 7.6 217.75 152.3 217.75 152.3 214.75 152.3 156.1 152.3 153.1 7.6 153.1 M151.15 146.05 L151.15 81.15 7.0 81.15 7.0 146.05 151.15 146.05 M0.0 0.0 L160.1 0.0 160.1 245.1 153.35 245.1 153.35 235.75 19.6 235.75 7.6 235.75 7.6 245.1 0.0 245.1 0.0 235.75 0.0 0.0" fill="#6d0101" fill-rule="evenodd" stroke="none"/>
    <path d="M160.1 245.1 L160.1 0.0 173.95 4.25 173.95 233.45 160.1 245.1" fill="#7d0202" fill-rule="evenodd" stroke="none"/>
    <path d="M10.6 214.75 L10.6 156.1 149.3 156.1 149.3 214.75 10.6 214.75" fill="#860202" fill-rule="evenodd" stroke="none"/>
    <path d="M151.15 73.25 L7.0 73.55 7.0 8.25 151.15 8.25 151.15 73.25 M7.6 156.1 L7.6 214.75 M10.6 214.75 L10.6 156.1 149.3 156.1 149.3 214.75 M7.6 153.1 L152.3 153.1 M152.3 156.1 L152.3 214.75 M152.3 217.75 L7.6 217.75 M151.15 146.05 L7.0 146.05 M160.1 0.0 L0.0 0.0 M153.35 245.1 L160.1 245.1 160.1 0.0 M10.6 214.75 L149.3 214.75" fill="none" stroke="#000000" stroke-linecap="round" stroke-linejoin="round" stroke-width="1.0"/>
    <path d="M7.6 217.75 L10.6 214.75 M10.6 156.1 L7.6 153.1 M149.3 156.1 L152.3 153.1 M0.0 235.75 L0.0 245.1 7.6 245.1 7.6 235.75 M149.3 214.75 L152.3 217.75 M7.6 245.1 L19.6 235.75" fill="none" stroke="#000000" stroke-linecap="round" stroke-linejoin="round" stroke-width="1.0"/>
    <path d="M7.6 153.1 L7.6 156.1 M7.6 214.75 L7.6 217.75 M152.3 153.1 L152.3 156.1 M152.3 214.75 L152.3 217.75 M7.0 146.05 L7.0 81.15 151.15 81.15 151.15 146.05 M0.0 0.0 L0.0 235.75 M7.6 235.75 L19.6 235.75 153.35 235.75 153.35 245.1 M160.1 0.0 L173.95 4.25 173.95 233.45 160.1 245.1" fill="none" stroke="#000000" stroke-linecap="round" stroke-linejoin="round" stroke-width="1.0"/>
  </g>
</svg>
