<?xml version="1.0" encoding="UTF-8" standalone="no"?>
<svg xmlns:xlink="http://www.w3.org/1999/xlink" height="33.0px" width="49.0px" xmlns="http://www.w3.org/2000/svg">
  <g transform="matrix(1.0, 0.0, 0.0, 1.0, 0.5, 0.5)">
    <path d="M45.75 20.5 L45.75 15.7 45.75 11.4 45.75 6.8 45.75 2.4 2.25 2.4 2.25 6.8 2.25 11.4 2.25 15.7 2.25 20.5 2.25 25.1 2.25 29.75 45.75 29.75 45.75 25.1 45.75 20.5 45.75 25.1 45.75 29.75 2.25 29.75 2.25 25.1 2.25 20.5 2.25 15.7 2.25 11.4 2.25 6.8 2.25 2.4 45.75 2.4 45.75 6.8 45.75 11.4 45.75 15.7 45.75 20.5 2.25 20.5 45.75 20.5 M2.25 11.4 L45.75 11.4 2.25 11.4 M39.75 13.95 L11.85 13.95 39.75 13.95 M39.3 16.9 L11.4 16.9 39.3 16.9 M37.95 18.25 L10.05 18.25 37.95 18.25 M32.8 8.45 L4.9 8.45 32.8 8.45 M33.85 9.8 L5.95 9.8 33.85 9.8 M31.2 12.6 L3.3 12.6 31.2 12.6 M32.25 23.35 L4.35 23.35 32.25 23.35 M31.2 22.0 L3.3 22.0 31.2 22.0 M31.2 26.6 L3.3 26.6 31.2 26.6 M32.25 27.95 L4.35 27.95 32.25 27.95 M31.2 4.0 L3.3 4.0 31.2 4.0 M32.25 5.35 L4.35 5.35 32.25 5.35 M48.0 0.0 L48.0 32.0 0.0 32.0 0.0 0.0 48.0 0.0 M2.25 6.8 L45.75 6.8 2.25 6.8 M2.25 15.7 L45.75 15.7 2.25 15.7 M2.25 25.1 L45.75 25.1 2.25 25.1" fill="#ffffff" fill-rule="evenodd" stroke="none"/>
    <path d="M45.75 20.5 L45.75 25.1 45.75 29.75 2.25 29.75 2.25 25.1 2.25 20.5 2.25 15.7 2.25 11.4 2.25 6.8 2.25 2.4 45.75 2.4 45.75 6.8 45.75 11.4 45.75 15.7 45.75 20.5 M48.0 0.0 L48.0 32.0 0.0 32.0 0.0 0.0 48.0 0.0" fill="none" stroke="#000000" stroke-linecap="round" stroke-linejoin="round" stroke-width="1.0"/>
    <path d="M10.05 18.25 L37.95 18.25 M11.4 16.9 L39.3 16.9 M11.85 13.95 L39.75 13.95 M4.35 5.35 L32.25 5.35 M3.3 4.0 L31.2 4.0" fill="none" stroke="#cccccc" stroke-linecap="round" stroke-linejoin="round" stroke-width="1.0"/>
    <path d="M4.35 27.95 L32.25 27.95 M3.3 26.6 L31.2 26.6 M3.3 22.0 L31.2 22.0 M4.35 23.35 L32.25 23.35 M3.3 12.6 L31.2 12.6 M5.95 9.8 L33.85 9.8 M4.9 8.45 L32.8 8.45" fill="none" stroke="#cccccc" stroke-linecap="round" stroke-linejoin="round" stroke-width="1.0"/>
    <path d="M45.75 20.5 L2.25 20.5 M45.75 11.4 L2.25 11.4 M45.75 25.1 L2.25 25.1 M45.75 15.7 L2.25 15.7 M45.75 6.8 L2.25 6.8" fill="none" stroke="#000000" stroke-linecap="round" stroke-linejoin="round" stroke-width="1.0"/>
  </g>
</svg>
