<?xml version="1.0" encoding="UTF-8" standalone="no"?>
<svg xmlns:xlink="http://www.w3.org/1999/xlink" height="146.45px" width="264.85px" xmlns="http://www.w3.org/2000/svg">
  <g transform="matrix(1.0, 0.0, 0.0, 1.0, 0.5, 0.5)">
    <path d="M241.3 104.35 L241.3 99.2 241.6 99.2 243.35 104.35 241.3 104.35" fill="#cc9966" fill-rule="evenodd" stroke="none"/>
    <path d="M241.3 99.2 L241.3 98.3 241.6 99.2 241.3 99.2 M94.45 96.2 L94.5 96.1 94.5 96.2 94.45 96.2" fill="#333333" fill-rule="evenodd" stroke="none"/>
    <path d="M31.2 65.45 L31.45 65.25 31.45 65.8 31.2 65.45" fill="#ffffcc" fill-rule="evenodd" stroke="none"/>
    <path d="M253.35 145.45 L249.95 133.8 253.35 133.8 253.35 145.45" fill="#80552b" fill-rule="evenodd" stroke="none"/>
    <path d="M241.3 65.8 L250.3 65.8 250.3 61.6 252.55 65.8 253.35 67.3 253.35 86.85 195.9 86.85 195.9 61.6 239.0 61.6 241.3 65.8 M253.35 102.4 L253.35 119.45 253.35 124.8 195.9 124.8 195.9 119.45 248.5 119.45 253.35 119.45 244.2 96.2 250.6 96.2 253.35 102.4 M94.5 65.8 L78.65 83.65 78.65 61.6 84.9 61.6 84.9 65.8 94.5 65.8 M84.9 86.85 L94.5 86.85 84.9 103.8 84.65 104.25 78.65 114.8 78.65 97.1 79.2 96.2 84.9 86.85 M15.65 77.4 L31.2 65.45 31.45 65.8 40.95 65.8 44.7 61.6 64.45 61.6 64.45 86.85 11.45 86.85 15.65 82.45 15.65 77.4 M23.25 96.2 L33.95 96.2 15.65 119.45 19.8 119.45 64.45 119.45 64.45 124.8 11.45 124.8 15.65 119.45 15.65 105.4 23.25 96.2" fill="#ca9460" fill-rule="evenodd" stroke="none"/>
    <path d="M0.0 22.7 L35.45 0.05 248.6 0.05 263.85 22.7 0.0 22.7" fill="#dfbf9f" fill-rule="evenodd" stroke="none"/>
    <path d="M0.0 22.7 L263.85 22.7 263.85 145.45 253.35 145.45 253.35 133.8 249.95 133.8 195.9 133.8 195.9 145.45 184.55 145.45 184.55 58.45 96.85 58.45 94.5 58.45 84.9 58.45 94.5 58.45 94.5 65.8 84.9 65.8 84.9 61.6 84.9 58.45 78.65 58.45 76.0 58.45 76.0 145.45 64.45 145.45 64.45 133.8 15.65 133.8 11.45 133.8 11.45 145.45 0.0 145.45 0.0 22.7 M94.5 104.4 L90.3 104.4 94.45 96.2 94.5 96.2 94.5 104.35 94.5 104.4 M250.3 58.45 L250.3 61.6 250.3 65.8 241.3 65.8 241.3 58.45 250.3 58.45 241.3 58.45 239.0 58.45 195.9 58.45 195.9 61.6 195.9 86.85 253.35 86.85 253.35 67.3 253.35 65.8 253.35 58.45 250.3 58.45 M253.35 102.4 L253.35 96.2 250.6 96.2 244.2 96.2 239.75 96.2 195.9 96.2 195.9 119.45 195.9 124.8 253.35 124.8 253.35 119.45 253.35 102.4 M253.35 33.95 L195.9 33.95 195.9 49.75 253.35 49.75 253.35 33.95 M184.55 49.75 L184.55 33.95 76.0 33.95 76.0 49.75 184.55 49.75 M84.9 86.85 L84.9 83.25 94.5 70.85 94.5 86.85 84.9 86.85 M31.45 65.25 L31.45 58.45 15.65 58.45 11.45 58.45 11.45 86.85 64.45 86.85 64.45 61.6 64.45 58.45 44.7 58.45 40.95 58.45 40.95 65.8 31.45 65.8 31.45 65.25 M31.45 58.45 L40.95 58.45 31.45 58.45 M15.65 96.2 L11.45 96.2 11.45 124.8 64.45 124.8 64.45 119.45 64.45 96.2 44.7 96.2 40.95 96.2 38.45 96.2 40.95 96.2 40.95 104.4 31.85 104.4 38.45 96.2 33.95 96.2 23.25 96.2 15.65 96.2 M64.45 33.95 L11.45 33.95 11.45 49.75 64.45 49.75 64.45 33.95" fill="#6d0101" fill-rule="evenodd" stroke="none"/>
    <path d="M96.85 58.45 L96.85 99.15 96.85 99.2 94.5 104.35 94.5 96.2 94.5 96.1 94.45 96.2 90.3 104.4 78.65 127.15 78.65 139.55 78.65 139.6 76.0 145.45 76.0 58.45 78.65 58.45 78.65 61.6 78.65 83.65 94.5 65.8 94.5 58.45 96.85 58.45 M15.65 133.8 L15.65 139.6 11.45 145.45 11.45 133.8 15.65 133.8 M241.3 58.45 L241.3 65.8 239.0 61.6 239.0 58.45 241.3 58.45 M239.75 96.2 L244.2 96.2 253.35 119.45 248.5 119.45 243.35 104.35 241.6 99.2 241.3 98.3 241.3 99.2 241.3 104.35 239.8 99.2 239.75 96.2 M94.5 86.85 L94.5 70.85 84.9 83.25 78.65 92.35 78.65 96.2 78.65 97.1 78.65 114.8 84.65 104.25 84.9 104.4 84.9 103.8 94.5 86.85 M15.65 58.45 L15.65 77.4 15.65 82.45 11.45 86.85 11.45 58.45 15.65 58.45 M40.95 65.8 L40.95 58.45 44.7 58.45 44.7 61.6 40.95 65.8 M11.45 96.2 L15.65 96.2 15.65 105.4 15.65 119.45 11.45 124.8 11.45 96.2 M33.95 96.2 L38.45 96.2 31.85 104.4 19.8 119.45 15.65 119.45 33.95 96.2 M40.95 96.2 L44.7 96.2 44.7 99.2 40.95 104.4 40.95 96.2" fill="#870101" fill-rule="evenodd" stroke="none"/>
    <path d="M253.35 33.95 L253.35 49.75 195.9 49.75 195.9 33.95 253.35 33.95 M184.55 49.75 L76.0 49.75 76.0 33.95 184.55 33.95 184.55 49.75 M64.45 33.95 L64.45 49.75 11.45 49.75 11.45 33.95 64.45 33.95" fill="#860202" fill-rule="evenodd" stroke="none"/>
    <path d="M263.85 22.7 L248.6 0.05 35.45 0.05 0.0 22.7 263.85 22.7 263.85 145.45 253.35 145.45 249.95 133.8 195.9 133.8 195.9 145.45 184.55 145.45 184.55 58.45 96.85 58.45 96.85 99.15 96.85 99.2 94.5 104.35 94.5 104.4 90.3 104.4 78.65 127.15 78.65 139.55 78.65 139.6 76.0 145.45 64.45 145.45 64.45 133.8 M15.65 133.8 L15.65 139.6 11.45 145.45 0.0 145.45 0.0 22.7 M250.3 61.6 L250.3 58.45 241.3 58.45 241.3 65.8 250.3 65.8 250.3 61.6 252.55 65.8 253.35 65.8 253.35 58.45 250.3 58.45 M253.35 65.8 L253.35 67.3 253.35 86.85 195.9 86.85 195.9 61.6 195.9 58.45 239.0 58.45 241.3 58.45 M253.35 67.3 L252.55 65.8 M250.6 96.2 L253.35 96.2 253.35 102.4 253.35 119.45 253.35 124.8 195.9 124.8 195.9 119.45 195.9 96.2 239.75 96.2 244.2 96.2 250.6 96.2 253.35 102.4 M253.35 33.95 L195.9 33.95 195.9 49.75 253.35 49.75 253.35 33.95 M239.0 61.6 L241.3 65.8 M239.0 58.45 L239.0 61.6 195.9 61.6 M184.55 49.75 L76.0 49.75 76.0 33.95 184.55 33.95 184.55 49.75 M239.75 96.2 L239.8 99.2 241.3 104.35 241.3 99.2 241.3 98.3 241.6 99.2 243.35 104.35 248.5 119.45 253.35 119.45 244.2 96.2 M241.6 99.2 L241.3 99.2 M249.95 133.8 L253.35 133.8 253.35 145.45 M248.5 119.45 L195.9 119.45 M241.3 104.35 L243.35 104.35 M94.5 58.45 L96.85 58.45 M84.9 58.45 L94.5 58.45 94.5 65.8 78.65 83.65 78.65 61.6 78.65 58.45 76.0 58.45 76.0 145.45 M84.9 61.6 L84.9 58.45 78.65 58.45 M84.9 61.6 L84.9 65.8 94.5 65.8 M94.45 96.2 L94.5 96.1 94.5 96.2 94.5 104.35 94.5 104.4 M94.5 96.2 L94.45 96.2 90.3 104.4 M84.9 83.25 L84.9 86.85 94.5 86.85 94.5 70.85 84.9 83.25 78.65 92.35 78.65 96.2 79.2 96.2 84.9 86.85 M35.45 0.05 L35.45 0.0 35.45 0.05 M31.45 65.25 L31.45 58.45 15.65 58.45 15.65 77.4 31.2 65.45 31.45 65.25 31.45 65.8 40.95 65.8 40.95 58.45 31.45 58.45 M11.45 86.85 L11.45 58.45 15.65 58.45 M15.65 77.4 L15.65 82.45 11.45 86.85 M64.45 86.85 L64.45 61.6 44.7 61.6 40.95 65.8 M64.45 96.2 L64.45 119.45 64.45 124.8 M11.45 124.8 L11.45 96.2 M64.45 61.6 L64.45 58.45 44.7 58.45 44.7 61.6 M44.7 58.45 L40.95 58.45 M78.65 96.2 L78.65 97.1 79.2 96.2 M64.45 33.95 L11.45 33.95 11.45 49.75 64.45 49.75 64.45 33.95 M40.95 104.4 L44.7 99.2 44.7 96.2 M78.65 139.6 L78.65 139.55 M11.45 124.8 L15.65 119.45 15.65 105.4 15.65 96.2 M19.8 119.45 L15.65 119.45 33.95 96.2 M11.45 145.45 L11.45 133.8 M31.85 104.4 L19.8 119.45 64.45 119.45 M40.95 104.4 L31.85 104.4 38.45 96.2 M96.85 99.2 L96.85 99.15 M84.9 104.4 L84.9 103.8 84.65 104.25 M15.65 105.4 L23.25 96.2 M40.95 96.2 L40.95 104.4 M84.9 103.8 L94.5 86.85 M78.65 97.1 L78.65 114.8 84.65 104.25 M78.65 61.6 L84.9 61.6" fill="none" stroke="#000000" stroke-linecap="round" stroke-linejoin="round" stroke-width="1.0"/>
    <path d="M64.45 133.8 L15.65 133.8 M11.45 86.85 L64.45 86.85 M11.45 96.2 L15.65 96.2 23.25 96.2 33.95 96.2 38.45 96.2 40.95 96.2 44.7 96.2 64.45 96.2 M64.45 124.8 L11.45 124.8 M11.45 133.8 L15.65 133.8" fill="none" stroke="#000000" stroke-linecap="round" stroke-linejoin="round" stroke-width="1.0"/>
  </g>
</svg>
