<?xml version="1.0" encoding="UTF-8" standalone="no"?>
<svg xmlns:xlink="http://www.w3.org/1999/xlink" height="214.25px" width="131.5px" xmlns="http://www.w3.org/2000/svg">
  <g transform="matrix(1.0, 0.0, 0.0, 1.0, 0.5, 0.5)">
    <path d="M130.5 11.1 L130.5 24.8 87.25 55.45 130.5 24.8 130.5 67.15 130.5 158.75 125.65 164.85 125.65 144.6 117.35 155.8 95.1 185.75 95.1 203.35 87.25 213.25 87.25 55.45 87.25 39.35 130.5 11.1 M0.0 95.9 L0.0 63.7 78.4 63.7 78.4 95.9 0.0 95.9 M93.45 90.65 L93.45 59.15 93.45 90.65 125.9 63.05 125.85 35.25 93.45 59.15 125.85 35.25 125.9 63.05 93.45 90.65 M117.35 78.75 L95.1 98.45 95.1 129.7 95.1 135.35 95.1 145.15 95.1 163.15 95.1 173.85 125.65 135.35 125.65 71.45 117.7 78.5 117.35 78.75 M130.5 67.15 L125.65 71.45 130.5 67.15" fill="#860202" fill-rule="evenodd" stroke="none"/>
    <path d="M130.5 11.1 L87.25 39.35 0.0 39.35 0.0 11.1 130.5 11.1" fill="#dfbf9f" fill-rule="evenodd" stroke="none"/>
    <path d="M87.25 39.35 L87.25 55.45 0.0 55.45 0.0 39.35 87.25 39.35 M125.65 164.85 L117.35 164.85 117.35 155.8 125.65 144.6 125.65 164.85 M87.25 213.25 L78.4 213.25 78.4 196.6 0.0 196.6 0.0 185.25 78.4 185.25 78.4 180.05 78.4 145.15 78.4 135.35 78.4 145.15 0.0 145.15 0.0 135.35 78.4 135.35 78.4 129.7 78.4 105.35 0.0 105.35 0.0 95.9 78.4 95.9 78.4 63.7 0.0 63.7 0.0 55.45 87.25 55.45 87.25 213.25 M117.35 78.75 L117.7 78.5 125.65 71.45 125.65 135.35 117.35 135.35 109.5 145.15 95.1 145.15 95.1 135.35 117.35 135.35 117.35 129.7 117.35 78.75" fill="#6d0101" fill-rule="evenodd" stroke="none"/>
    <path d="M0.0 185.25 L0.0 180.05 78.4 180.05 78.4 185.25 0.0 185.25 M0.0 135.35 L0.0 129.7 78.4 129.7 78.4 135.35 0.0 135.35 M95.1 135.35 L95.1 129.7 117.35 129.7 117.35 135.35 95.1 135.35 M109.5 145.15 L117.35 135.35 125.65 135.35 95.1 173.85 95.1 163.15 109.5 145.15" fill="#ca9460" fill-rule="evenodd" stroke="none"/>
    <path d="M130.5 0.0 L130.45 0.0 130.5 0.0 M130.5 24.8 L130.5 11.1 87.25 39.35 87.25 55.45 130.5 24.8 130.5 67.15 130.5 158.75 125.65 164.85 117.35 164.85 M95.1 185.75 L95.1 203.35 87.25 213.25 78.4 213.25 78.4 196.6 0.0 196.6 0.0 185.25 0.0 180.05 0.0 145.15 0.0 135.35 0.0 129.7 0.0 105.35 0.0 95.9 0.0 63.7 0.0 55.45 0.0 39.35 0.0 11.1 130.5 11.1 M87.25 39.35 L0.0 39.35 M93.45 90.65 L125.9 63.05 125.85 35.25 93.45 59.15 M95.1 129.7 L95.1 98.45 117.35 78.75 M117.7 78.5 L125.65 71.45 130.5 67.15 M78.4 63.7 L78.4 95.9 M78.4 135.35 L78.4 145.15 78.4 180.05 78.4 185.25 0.0 185.25 M78.4 129.7 L78.4 135.35 0.0 135.35 M78.4 105.35 L78.4 129.7 0.0 129.7 M78.4 180.05 L0.0 180.05 M0.0 145.15 L78.4 145.15 M95.1 129.7 L95.1 135.35 117.35 135.35 M117.35 129.7 L95.1 129.7 M95.1 145.15 L109.5 145.15 M95.1 135.35 L95.1 145.15 95.1 163.15 M95.1 173.85 L95.1 163.15 M87.25 55.45 L0.0 55.45 M87.25 213.25 L87.25 55.45" fill="none" stroke="#000000" stroke-linecap="round" stroke-linejoin="round" stroke-width="1.0"/>
    <path d="M117.35 164.85 L117.35 155.8 95.1 185.75 M93.45 59.15 L93.45 90.65 M117.35 78.75 L117.7 78.5 M78.4 95.9 L0.0 95.9 M0.0 63.7 L78.4 63.7 M0.0 105.35 L78.4 105.35 M117.35 135.35 L117.35 129.7 M109.5 145.15 L117.35 135.35 125.65 135.35 125.65 71.45 M95.1 163.15 L109.5 145.15 M125.65 135.35 L95.1 173.85 M125.65 164.85 L125.65 144.6 117.35 155.8 M117.35 78.75 L117.35 129.7" fill="none" stroke="#000000" stroke-linecap="round" stroke-linejoin="round" stroke-width="1.0"/>
  </g>
</svg>
