<?xml version="1.0" encoding="UTF-8" standalone="no"?>
<svg xmlns:xlink="http://www.w3.org/1999/xlink" height="50.05px" width="23.65px" xmlns="http://www.w3.org/2000/svg">
  <g transform="matrix(1.0, 0.0, 0.0, 1.0, 0.45, 0.5)">
    <path d="M0.05 12.75 L1.1 11.85 Q1.85 13.7 1.95 16.3 L0.6 17.1 Q-0.05 14.95 0.05 12.75 M18.4 14.1 Q18.15 11.7 19.65 8.75 L22.7 8.0 Q22.85 11.35 21.1 14.55 L18.4 14.1 M16.85 48.7 Q6.9 49.85 1.4 47.15 L1.4 26.7 2.3 26.7 3.55 26.7 4.4 26.7 4.75 26.7 6.25 26.7 8.15 26.7 9.9 26.7 10.55 26.7 12.85 26.7 14.15 26.7 14.7 26.7 16.85 26.7 16.85 48.7 M4.55 5.45 L6.15 6.15 Q6.35 7.6 6.05 9.25 L4.6 9.35 Q4.25 7.35 4.55 5.45 M9.7 13.3 L8.35 13.3 Q8.0 11.7 8.35 10.15 L9.6 10.8 Q9.85 12.0 9.7 13.3 M12.85 13.3 L14.15 12.45 Q14.5 14.0 14.05 16.05 L14.05 16.1 13.1 16.1 Q12.7 14.7 12.85 13.3" fill="#cccccc" fill-rule="evenodd" stroke="none"/>
    <path d="M1.1 11.85 L0.05 12.75 Q0.05 11.6 0.3 10.5 L1.1 11.85 M19.65 8.75 Q20.6 6.9 22.2 4.85 22.65 6.45 22.7 8.0 L19.65 8.75 M6.15 6.15 L4.55 5.45 5.1 3.2 Q5.95 4.6 6.15 6.15 M8.35 10.15 L8.8 8.55 Q9.4 9.65 9.6 10.8 L8.35 10.15 M12.85 13.3 Q12.95 12.0 13.5 10.75 L14.15 12.45 12.85 13.3" fill="#333333" fill-rule="evenodd" stroke="none"/>
    <path d="M11.05 13.3 L11.35 7.35 11.4 7.3 Q14.9 4.75 17.7 7.95 L16.3 21.15 14.7 26.7 14.15 26.7 14.15 16.95 14.15 16.1 14.05 16.05 Q14.5 14.0 14.15 12.45 L13.5 10.75 Q12.95 12.0 12.85 13.3 12.7 14.7 13.1 16.1 L13.05 16.1 13.0 16.65 12.85 26.7 10.55 26.7 10.7 22.35 11.05 13.3 M6.15 6.15 Q5.95 4.6 5.1 3.2 L4.55 5.45 Q4.25 7.35 4.6 9.35 L4.6 9.8 4.75 26.7 4.4 26.7 2.2 1.9 Q5.4 -1.5 10.05 1.2 L10.45 13.3 10.05 13.3 9.7 13.3 Q9.85 12.0 9.6 10.8 9.4 9.65 8.8 8.55 L8.35 10.15 Q8.0 11.7 8.35 13.3 L8.15 13.3 8.15 26.7 6.25 26.7 6.1 9.5 6.1 9.25 6.05 9.25 Q6.35 7.6 6.15 6.15" fill="#ead5bf" fill-rule="evenodd" stroke="none"/>
    <path d="M17.85 15.9 L18.35 14.05 18.4 14.1 21.1 14.55 21.15 14.75 20.6 16.45 17.85 15.9 M4.6 9.35 L6.05 9.25 6.1 9.5 6.25 26.7 4.75 26.7 4.6 9.8 4.6 9.35 M14.15 16.95 L14.15 26.7 12.85 26.7 13.0 16.65 13.1 16.1 14.05 16.1 14.15 16.95" fill="#996600" fill-rule="evenodd" stroke="none"/>
    <path d="M0.6 17.1 L1.95 16.3 2.1 16.6 3.55 26.7 2.3 26.7 0.65 17.5 0.6 17.1 M16.3 21.15 L17.85 15.9 20.6 16.45 17.35 26.7 16.85 26.7 14.7 26.7 16.3 21.15 M8.15 26.7 L8.15 13.3 8.35 13.3 9.7 13.3 10.05 13.3 9.9 26.7 8.15 26.7" fill="#663300" fill-rule="evenodd" stroke="none"/>
    <path d="M17.35 26.7 L21.6 26.7 21.6 47.15 16.85 48.7 16.85 26.7 17.35 26.7" fill="#999999" fill-rule="evenodd" stroke="none"/>
    <path d="M1.1 11.85 L0.3 10.5 Q0.05 11.6 0.05 12.75 -0.05 14.95 0.6 17.1 L1.95 16.3 Q1.85 13.7 1.1 11.85 M11.05 13.3 L11.35 7.35 11.4 7.3 Q14.9 4.75 17.7 7.95 L16.3 21.15 17.85 15.9 18.35 14.05 18.4 14.1 Q18.15 11.7 19.65 8.75 20.6 6.9 22.2 4.85 22.65 6.45 22.7 8.0 22.85 11.35 21.1 14.55 L21.2 14.55 21.15 14.75 20.6 16.45 17.35 26.7 21.6 26.7 21.6 47.15 M1.4 47.15 L1.4 26.7 2.3 26.7 0.65 17.5 0.55 17.15 0.6 17.1 0.65 17.5 M6.15 6.15 Q5.95 4.6 5.1 3.2 L4.55 5.45 Q4.25 7.35 4.6 9.35 L6.05 9.25 Q6.35 7.6 6.15 6.15 M4.6 9.8 L4.6 9.35 4.6 9.8 4.75 26.7 6.25 26.7 6.1 9.5 6.05 9.25 6.1 9.25 6.1 9.5 M8.35 13.3 L8.15 13.3 8.15 26.7 9.9 26.7 10.05 13.3 9.7 13.3 8.35 13.3 Q8.0 11.7 8.35 10.15 L8.8 8.55 Q9.4 9.65 9.6 10.8 9.85 12.0 9.7 13.3 M14.15 12.45 L13.5 10.75 Q12.95 12.0 12.85 13.3 12.7 14.7 13.1 16.1 L13.0 16.65 12.85 26.7 14.15 26.7 14.7 26.7 16.3 21.15 M14.15 12.45 Q14.5 14.0 14.05 16.05 L14.05 16.1 14.15 16.95 14.15 26.7 M14.15 16.1 L14.15 16.95 M10.45 13.3 L10.05 13.3 M11.05 13.3 L10.45 13.3 10.7 22.35 11.05 13.3 M4.4 26.7 L2.2 1.9 Q5.4 -1.5 10.05 1.2 L10.45 13.3 M14.05 16.1 L14.15 16.1 M14.05 16.1 L13.1 16.1 13.05 16.1 13.0 16.65 M8.15 26.7 L6.25 26.7 M4.75 26.7 L4.4 26.7 3.55 26.7 2.3 26.7 M10.55 26.7 L10.7 22.35 M12.85 26.7 L10.55 26.7 9.9 26.7 M1.95 16.3 L2.1 16.6 2.05 16.25 1.95 16.3 M2.1 16.6 L3.55 26.7 M21.15 14.75 L21.1 14.55 18.4 14.1 M14.7 26.7 L16.85 26.7 17.35 26.7 M17.85 15.9 L20.6 16.45" fill="none" stroke="#000000" stroke-linecap="round" stroke-linejoin="round" stroke-width="1.0"/>
    <path d="M21.6 47.15 L16.85 48.7 Q6.9 49.85 1.4 47.15" fill="none" stroke="#000000" stroke-linecap="round" stroke-linejoin="round" stroke-width="1.0"/>
  </g>
</svg>
