<?xml version="1.0" encoding="UTF-8" standalone="no"?>
<svg xmlns:xlink="http://www.w3.org/1999/xlink" height="261.75px" width="41.9px" xmlns="http://www.w3.org/2000/svg">
  <g transform="matrix(1.0, 0.0, 0.0, 1.0, 0.5, 0.5)">
    <path d="M2.6 0.0 L37.9 0.0 37.9 236.55 Q20.25 240.15 2.6 236.55 L2.6 0.0" fill="#990000" fill-rule="evenodd" stroke="none"/>
    <path d="M37.9 236.55 Q43.9 247.75 37.9 258.9 19.8 262.65 2.6 258.9 -2.55 247.75 2.6 236.55 20.25 240.15 37.9 236.55" fill="#fda92d" fill-rule="evenodd" stroke="none"/>
    <path d="M2.6 258.9 Q-2.55 247.75 2.6 236.55 L2.6 0.0" fill="none" stroke="#000000" stroke-linecap="round" stroke-linejoin="round" stroke-width="1.0"/>
    <path d="M37.9 0.0 L37.9 236.55 Q43.9 247.75 37.9 258.9 M37.9 236.55 Q20.25 240.15 2.6 236.55" fill="none" stroke="#000000" stroke-linecap="round" stroke-linejoin="round" stroke-width="1.0"/>
    <path d="M37.9 258.9 Q19.8 262.65 2.6 258.9 Z" fill="none" stroke="#000000" stroke-linecap="round" stroke-linejoin="round" stroke-width="1.0"/>
  </g>
</svg>
