<?xml version="1.0" encoding="UTF-8" standalone="no"?>
<svg xmlns:xlink="http://www.w3.org/1999/xlink" height="143.3px" width="48.6px" xmlns="http://www.w3.org/2000/svg">
  <g transform="matrix(1.0, 0.0, 0.0, 1.0, -13.95, 13.6)">
    <path d="M44.25 7.4 L45.6 2.05 48.1 2.6 51.05 3.3 51.8 3.45 45.45 24.9 39.9 24.9 44.25 7.4 M33.0 24.9 L33.0 -8.5 35.6 -8.5 38.55 -8.5 39.45 -8.5 39.45 24.9 33.0 24.9 M30.7 59.4 L37.1 59.4 36.45 61.25 35.3 64.9 28.2 64.9 Q28.45 62.15 30.7 59.4 M34.4 68.6 Q33.4 74.15 34.45 78.2 L26.25 78.2 Q25.35 74.2 26.6 68.65 L30.7 68.65 30.7 68.6 34.4 68.6" fill="#ffffff" fill-rule="evenodd" stroke="none"/>
    <path d="M43.9 54.0 L43.85 54.0 43.8 54.0 43.9 54.0" fill="#92fefd" fill-rule="evenodd" stroke="none"/>
    <path d="M28.5 52.15 L28.65 52.15 28.5 53.25 28.4 53.85 28.35 53.85 28.3 53.95 28.5 52.15 M27.95 54.65 Q27.75 55.35 28.25 56.1 L28.35 56.2 28.25 56.35 Q27.6 55.45 27.95 54.65" fill="#99cc00" fill-rule="evenodd" stroke="none"/>
    <path d="M49.55 24.9 L51.65 24.9 Q50.2 25.65 49.05 26.75 43.7 31.5 43.25 42.15 L43.2 43.95 43.2 46.1 Q43.3 49.75 43.9 54.0 L43.8 54.0 43.85 54.0 Q44.7 55.25 43.6 56.45 L43.55 56.5 43.2 56.5 43.55 56.75 44.45 57.55 45.5 58.55 45.8 58.85 47.9 61.25 49.8 64.3 Q50.85 66.4 51.45 68.75 L52.05 72.7 Q52.6 83.4 43.65 97.75 38.45 109.15 43.05 121.25 L44.0 122.15 Q45.15 123.55 45.1 125.35 L45.85 126.2 Q46.2 126.75 46.0 128.55 34.2 130.2 25.25 127.65 25.1 125.95 26.45 125.4 25.65 122.5 28.3 121.25 32.9 109.2 27.7 97.8 19.55 80.8 22.05 68.65 L22.65 66.05 23.05 64.85 Q19.55 64.75 17.05 62.25 14.45 59.65 14.45 56.0 14.45 52.35 17.05 49.75 L17.35 49.5 17.3 49.1 Q17.3 48.25 17.9 47.6 18.35 47.2 18.9 47.05 17.4 44.9 20.2 40.75 18.8 44.0 21.3 46.2 L22.6 47.2 Q24.7 48.6 27.3 49.4 L28.75 49.85 Q30.35 30.8 19.35 24.9 L33.0 24.9 39.45 24.9 39.9 24.9 45.45 24.9 49.55 24.9 M47.7 50.0 L49.2 49.5 Q51.8 48.7 53.9 47.3 L55.2 46.3 Q57.7 44.1 56.3 40.85 59.05 44.9 57.65 47.05 L57.65 47.1 57.7 47.1 58.7 47.65 Q59.35 48.3 59.35 49.15 L59.35 49.4 59.3 49.7 59.45 49.85 Q62.05 52.45 62.05 56.1 62.05 59.75 59.45 62.35 56.95 64.85 53.45 64.95 L52.35 62.4 51.8 61.25 50.45 59.15 Q51.95 60.2 53.85 60.2 56.3 60.2 58.0 58.45 59.75 56.75 59.75 54.3 59.75 52.3 58.6 50.75 58.0 51.25 57.25 51.25 56.45 51.25 55.8 50.65 L55.75 50.6 Q55.3 50.15 55.2 49.55 L55.15 49.4 55.15 49.3 55.1 49.35 Q53.95 50.35 53.85 51.15 53.65 52.1 50.9 52.15 L47.9 52.25 47.7 50.0 M30.7 59.4 Q28.45 62.15 28.2 64.9 L35.3 64.9 36.45 61.25 37.1 59.4 30.7 59.4 M28.4 53.85 L28.5 53.25 28.65 52.15 28.5 52.15 25.6 52.05 Q22.85 52.0 22.7 51.05 22.55 50.3 21.5 49.35 21.4 50.05 20.85 50.55 20.25 51.2 19.4 51.2 18.6 51.2 17.95 50.6 16.75 52.15 16.75 54.2 16.75 56.65 18.5 58.35 20.2 60.1 22.65 60.1 24.55 60.1 26.05 59.05 L28.15 56.45 28.2 56.35 28.25 56.35 28.35 56.2 28.25 56.1 Q27.75 55.35 27.95 54.65 L28.3 53.95 28.4 53.85 M34.4 68.6 L30.7 68.6 30.7 68.65 26.6 68.65 Q25.35 74.2 26.25 78.2 L34.45 78.2 Q33.4 74.15 34.4 68.6 M26.45 125.4 Q36.15 127.55 45.85 126.2 36.15 127.55 26.45 125.4 M28.3 121.25 Q36.15 123.3 44.0 122.15 36.15 123.3 28.3 121.25" fill="#ddddff" fill-rule="evenodd" stroke="none"/>
    <path d="M51.65 24.9 L55.85 24.9 Q49.55 28.3 47.95 37.4 L47.75 38.7 47.45 42.15 Q47.35 43.5 47.4 44.95 L47.45 47.15 47.5 47.7 47.6 49.3 47.65 49.65 47.65 49.8 47.7 50.0 47.9 52.25 48.05 53.35 48.1 53.95 48.2 53.95 Q49.0 55.1 48.25 56.2 L48.2 56.3 48.3 56.45 48.4 56.55 50.45 59.15 51.8 61.25 52.35 62.4 53.45 64.95 53.85 66.15 54.5 68.75 55.0 72.7 Q55.55 83.5 48.8 97.75 43.6 109.15 48.2 121.25 50.35 122.95 50.1 125.4 51.4 126.05 51.3 127.65 L46.0 128.55 Q46.2 126.75 45.85 126.2 L45.1 125.35 Q45.15 123.55 44.0 122.15 L43.05 121.25 Q38.45 109.15 43.65 97.75 52.6 83.4 52.05 72.7 L51.45 68.75 Q50.85 66.4 49.8 64.3 L47.9 61.25 45.8 58.85 45.5 58.55 44.45 57.55 43.55 56.75 43.55 56.5 43.6 56.45 Q44.7 55.25 43.85 54.0 L43.9 54.0 Q43.3 49.75 43.2 46.1 L43.2 43.95 43.25 42.15 Q43.7 31.5 49.05 26.75 50.2 25.65 51.65 24.9 M48.2 121.25 L44.0 122.15 48.2 121.25 M50.1 125.4 L45.85 126.2 50.1 125.4" fill="#bcbdfe" fill-rule="evenodd" stroke="none"/>
    <path d="M41.7 -8.5 L44.25 -8.5 44.25 7.4 39.9 24.9 39.45 24.9 39.45 -8.5 41.7 -8.5 M53.85 3.95 L55.4 4.3 49.55 24.9 45.45 24.9 51.8 3.45 53.85 3.95" fill="#e6e6e6" fill-rule="evenodd" stroke="none"/>
    <path d="M48.1 2.6 Q48.25 1.85 48.85 1.2 49.6 0.5 50.5 0.4 L50.6 0.45 Q51.6 1.1 51.6 2.0 51.6 2.55 51.05 3.3 L48.1 2.6 M35.6 -8.5 Q35.35 -9.1 35.35 -9.8 35.35 -11.15 36.3 -12.15 L36.9 -12.6 39.2 -9.8 Q39.2 -9.3 38.55 -8.5 L35.6 -8.5" fill="#ffcc66" fill-rule="evenodd" stroke="none"/>
    <path d="M36.9 -12.6 Q37.7 -13.1 38.65 -13.1 40.0 -13.1 40.95 -12.15 41.95 -11.15 41.95 -9.8 L41.7 -8.5 39.45 -8.5 38.55 -8.5 Q39.2 -9.3 39.2 -9.8 L36.9 -12.6 M50.6 0.45 L50.6 0.4 50.95 0.35 Q51.85 0.35 52.6 0.85 L53.0 1.2 Q53.9 2.1 53.9 3.3 L53.85 3.95 51.8 3.45 51.05 3.3 Q51.6 2.55 51.6 2.0 51.6 1.1 50.6 0.45" fill="#fda92d" fill-rule="evenodd" stroke="none"/>
    <path d="M53.45 64.95 L53.85 66.15 54.5 68.75 55.0 72.7 Q55.55 83.5 48.8 97.75 43.6 109.15 48.2 121.25 50.35 122.95 50.1 125.4 51.4 126.05 51.3 127.65 L46.0 128.55 Q34.2 130.2 25.25 127.65 25.1 125.95 26.45 125.4 25.65 122.5 28.3 121.25 32.9 109.2 27.7 97.8 19.55 80.8 22.05 68.65 M48.2 53.95 Q49.0 55.1 48.25 56.2 L48.2 56.3 48.3 56.45 48.4 56.55 50.45 59.15 M27.95 54.65 Q27.6 55.45 28.25 56.35 M44.0 122.15 L48.2 121.25 M45.85 126.2 L50.1 125.4 M44.0 122.15 Q36.15 123.3 28.3 121.25 M45.85 126.2 Q36.15 127.55 26.45 125.4" fill="none" stroke="#000000" stroke-linecap="round" stroke-linejoin="round" stroke-width="1.0"/>
    <path d="M36.9 -12.6 Q37.7 -13.1 38.65 -13.1 40.0 -13.1 40.95 -12.15 41.95 -11.15 41.95 -9.8 L41.7 -8.5 44.25 -8.5 44.25 7.4 45.6 2.05 48.1 2.6 51.05 3.3 51.8 3.45 53.85 3.95 55.4 4.3 49.55 24.9 51.65 24.9 55.85 24.9 M59.3 49.7 L59.45 49.85 Q62.05 52.45 62.05 56.1 62.05 59.75 59.45 62.35 56.95 64.85 53.45 64.95 M23.05 64.85 Q19.55 64.75 17.05 62.25 14.45 59.65 14.45 56.0 14.45 52.35 17.05 49.75 L17.35 49.5 17.3 49.1 Q17.3 48.25 17.9 47.6 18.35 47.2 18.9 47.05 M28.75 49.85 Q30.35 30.8 19.35 24.9 L33.0 24.9 33.0 -8.5 35.6 -8.5 Q35.35 -9.1 35.35 -9.8 35.35 -11.15 36.3 -12.15 L36.9 -12.6 M38.55 -8.5 L39.45 -8.5 41.7 -8.5 M35.6 -8.5 L38.55 -8.5 M45.45 24.9 L49.55 24.9 M50.45 59.15 Q51.95 60.2 53.85 60.2 56.3 60.2 58.0 58.45 59.75 56.75 59.75 54.3 59.75 52.3 58.6 50.75 M45.45 24.9 L39.9 24.9 39.45 24.9 33.0 24.9 M28.5 52.15 L28.3 53.95 M26.05 59.05 Q24.55 60.1 22.65 60.1 20.2 60.1 18.5 58.35 16.75 56.65 16.75 54.2 16.75 52.15 17.95 50.6 18.6 51.2 19.4 51.2 20.25 51.2 20.85 50.55 21.4 50.05 21.5 49.35 M39.9 24.9 L44.25 7.4" fill="none" stroke="#000000" stroke-linecap="round" stroke-linejoin="round" stroke-width="1.0"/>
    <path d="M48.1 2.6 Q48.25 1.85 48.85 1.2 49.6 0.5 50.5 0.4 M50.6 0.4 L50.95 0.35 Q51.85 0.35 52.6 0.85 L53.0 1.2 Q53.9 2.1 53.9 3.3 L53.85 3.95 M55.85 24.9 Q49.55 28.3 47.95 37.4 L47.75 38.7 47.45 42.15 Q47.35 43.5 47.4 44.95 L47.45 47.15 47.5 47.7 47.6 49.3 47.65 49.65 M47.65 49.8 L47.7 50.0 49.2 49.5 Q51.8 48.7 53.9 47.3 L55.2 46.3 Q57.7 44.1 56.3 40.85 59.05 44.9 57.65 47.05 L57.65 47.1 57.7 47.1 58.7 47.65 Q59.35 48.3 59.35 49.15 L59.35 49.4 59.3 49.7 M18.9 47.05 Q17.4 44.9 20.2 40.75 18.8 44.0 21.3 46.2 L22.6 47.2 Q24.7 48.6 27.3 49.4 L28.75 49.85 M58.6 50.75 Q58.0 51.25 57.25 51.25 56.45 51.25 55.8 50.65 L55.75 50.6 Q55.3 50.15 55.2 49.55 L55.15 49.4 55.15 49.3 55.1 49.35 Q53.95 50.35 53.85 51.15 53.65 52.1 50.9 52.15 L47.9 52.25 48.05 53.35 48.1 53.95 M28.4 53.85 L28.5 53.25 28.65 52.15 28.5 52.15 M21.5 49.35 Q22.55 50.3 22.7 51.05 22.85 52.0 25.6 52.05 L28.5 52.15" fill="none" stroke="#000000" stroke-linecap="round" stroke-linejoin="round" stroke-width="1.0"/>
    <path d="M22.05 68.65 L22.65 66.05 23.05 64.85 M28.3 53.95 L28.35 53.85 M28.3 53.95 L27.95 54.65 Q27.75 55.35 28.25 56.1 L28.35 56.2 28.25 56.35 28.2 56.35 28.15 56.45 26.05 59.05" fill="none" stroke="#000000" stroke-linecap="round" stroke-linejoin="round" stroke-width="1.0"/>
  </g>
</svg>
