<?xml version="1.0" encoding="UTF-8" standalone="no"?>
<svg xmlns:xlink="http://www.w3.org/1999/xlink" height="203.15px" width="460.9px" xmlns="http://www.w3.org/2000/svg">
  <g transform="matrix(1.0, 0.0, 0.0, 1.0, 0.5, 0.5)">
    <path d="M459.9 28.25 L459.9 44.35 459.9 52.6 415.35 52.6 415.35 84.8 459.9 84.8 459.9 94.25 415.35 94.25 415.35 118.25 415.35 124.2 459.9 124.2 459.9 133.8 415.35 133.8 415.35 168.6 415.35 174.1 459.9 174.1 459.9 185.15 415.35 185.15 415.35 202.15 401.0 202.15 401.0 44.35 401.0 28.25 459.9 28.25 M381.6 155.9 L372.05 155.9 372.05 141.55 381.6 155.9 M459.9 44.35 L401.0 44.35 459.9 44.35 M393.65 124.2 L393.65 133.8 384.1 133.8 382.8 132.15 382.8 124.2 382.8 132.15 372.35 132.15 373.5 133.8 372.05 133.8 372.05 132.15 372.05 131.75 372.35 132.15 372.05 132.15 372.35 132.15 372.05 131.75 372.05 61.7 382.8 73.75 382.8 118.25 382.8 124.2 393.65 124.2 M415.35 133.8 L415.35 124.2 415.35 133.8 M415.35 185.15 L415.35 174.1 415.35 185.15 M0.0 28.25 L314.8 28.25 314.8 44.35 314.8 202.15 298.65 202.15 298.65 185.15 298.65 174.1 298.65 185.15 295.7 185.15 17.2 185.15 15.2 185.15 15.2 174.1 15.2 185.15 15.2 202.15 0.0 202.15 0.0 44.35 0.0 28.25 M293.75 94.25 L284.25 94.25 293.75 94.25 293.75 124.2 284.25 124.2 284.25 133.8 289.45 155.55 284.25 155.55 284.25 133.8 279.9 133.8 36.95 133.8 33.45 133.8 33.45 155.55 25.4 155.55 33.45 133.8 33.45 124.2 21.45 124.2 21.45 94.25 17.2 94.25 15.2 94.25 15.2 174.1 298.65 174.1 298.65 160.4 298.65 160.35 298.65 94.25 296.15 94.25 293.75 94.25 M15.2 84.8 L298.65 84.8 298.65 52.6 15.2 52.6 15.2 84.8 M284.25 94.25 L279.9 94.25 36.95 94.25 33.45 94.25 33.45 124.2 284.25 124.2 284.25 94.25 M33.45 94.25 L21.45 94.25 33.45 94.25 M314.8 44.35 L0.0 44.35 314.8 44.35" fill="#6d0101" fill-rule="evenodd" stroke="none"/>
    <path d="M366.9 0.0 L459.9 0.0 459.9 28.25 401.0 28.25 366.9 0.0 M0.0 28.25 L26.55 0.0 293.7 0.0 314.8 28.25 0.0 28.25" fill="#dfbf9f" fill-rule="evenodd" stroke="none"/>
    <path d="M459.9 52.6 L459.9 84.8 415.35 84.8 415.35 52.6 459.9 52.6 M401.0 202.15 L393.65 190.4 393.65 174.1 381.6 155.9 372.05 141.55 372.05 155.9 366.9 147.65 366.9 13.65 366.9 0.0 401.0 28.25 401.0 44.35 366.9 13.65 401.0 44.35 401.0 202.15 M393.65 45.7 L372.05 25.35 393.65 45.7 393.65 76.85 393.65 45.7 M372.05 53.4 L393.65 76.85 372.05 53.4 372.05 52.6 371.35 52.6 372.05 53.4 M372.05 25.35 L372.05 52.6 372.05 25.35 M393.65 86.0 L382.8 73.75 372.05 61.7 372.05 131.75 372.05 132.15 372.05 133.8 373.5 133.8 393.65 163.35 393.65 146.15 393.65 133.8 393.65 124.2 393.65 118.25 393.65 86.0 M393.65 174.1 L393.65 163.35 393.65 174.1 393.7 174.1 393.65 174.1 393.7 174.1 393.65 174.1 M298.65 202.15 L295.7 193.6 295.7 185.15 298.65 185.15 298.65 202.15 M17.2 185.15 L17.2 197.05 15.2 202.15 15.2 185.15 17.2 185.15 M296.15 94.25 L298.65 94.25 298.65 160.35 298.65 160.4 298.65 174.1 296.15 168.6 296.15 137.65 296.15 94.25 M15.2 52.6 L298.65 52.6 298.65 84.8 15.2 84.8 15.2 52.6 M279.9 94.25 L284.25 94.25 284.25 124.2 296.15 168.6 292.55 168.6 289.45 155.55 284.25 133.8 284.25 124.2 279.9 118.25 279.9 94.25 M36.95 118.25 L33.45 124.2 33.45 133.8 25.4 155.55 20.6 168.6 17.2 168.6 33.45 124.2 33.45 94.25 36.95 94.25 36.95 118.25 M284.25 155.55 L279.9 147.65 279.9 133.8 284.25 133.8 284.25 155.55 M36.95 133.8 L36.95 147.65 33.45 155.55 33.45 133.8 36.95 133.8 M15.2 94.25 L17.2 94.25 17.2 136.2 17.2 168.6 15.2 174.1 15.2 94.25" fill="#860202" fill-rule="evenodd" stroke="none"/>
    <path d="M415.35 118.25 L459.9 118.25 459.9 124.2 415.35 124.2 415.35 118.25 M415.35 168.6 L459.9 168.6 459.9 174.1 415.35 174.1 415.35 168.6 M393.65 118.25 L393.65 124.2 382.8 124.2 382.8 118.25 393.65 118.25 M393.65 146.15 L393.65 163.35 373.5 133.8 372.35 132.15 382.8 132.15 384.1 133.8 393.65 146.15 M284.25 124.2 L293.75 124.2 296.15 137.65 296.15 168.6 298.65 174.1 15.2 174.1 17.2 168.6 17.2 136.2 20.15 127.9 20.15 127.0 21.45 124.2 33.45 124.2 36.95 118.25 279.9 118.25 284.25 124.2 33.45 124.2 17.2 168.6 20.6 168.6 292.55 168.6 296.15 168.6 284.25 124.2 M20.15 127.9 L21.45 124.2 20.15 127.9" fill="#ca9460" fill-rule="evenodd" stroke="none"/>
    <path d="M366.9 0.0 L459.9 0.0 459.9 28.25 459.9 44.35 459.9 52.6 459.9 84.8 459.9 94.25 415.35 94.25 415.35 118.25 415.35 124.2 415.35 133.8 415.35 168.6 459.9 168.6 459.9 174.1 459.9 185.15 M459.9 118.25 L459.9 124.2 459.9 133.8 M415.35 185.15 L415.35 202.15 401.0 202.15 393.65 190.4 M393.65 174.1 L381.6 155.9 372.05 155.9 366.9 147.65 366.9 13.65 366.9 0.0 401.0 28.25 459.9 28.25 M415.35 52.6 L415.35 84.8 459.9 84.8 M372.05 25.35 L393.65 45.7 M393.65 76.85 L372.05 53.4 M401.0 44.35 L366.9 13.65 M401.0 28.25 L401.0 44.35 459.9 44.35 M382.8 73.75 L393.65 86.0 M393.65 174.1 L393.7 174.1 M372.05 61.7 L382.8 73.75 M382.8 132.15 L384.1 133.8 393.65 146.15 M372.05 132.15 L372.35 132.15 372.05 131.75 M373.5 133.8 L372.35 132.15 382.8 132.15 M393.65 163.35 L373.5 133.8 M372.05 141.55 L381.6 155.9 M415.35 168.6 L415.35 174.1 415.35 185.15 M401.0 44.35 L401.0 202.15 M314.8 28.25 L293.7 0.0 26.55 0.0 0.0 28.25 314.8 28.25 314.8 44.35 314.8 202.15 298.65 202.15 295.7 193.6 295.7 185.15 M17.2 185.15 L17.2 197.05 15.2 202.15 0.0 202.15 0.0 44.35 0.0 28.25 M15.2 84.8 L15.2 52.6 M284.25 94.25 L284.25 124.2 284.25 133.8 289.45 155.55 292.55 168.6 296.15 168.6 284.25 124.2 279.9 118.25 279.9 94.25 M293.75 124.2 L293.75 94.25 M36.95 118.25 L33.45 124.2 17.2 168.6 20.6 168.6 25.4 155.55 33.45 155.55 36.95 147.65 279.9 147.65 284.25 155.55 284.25 133.8 M296.15 137.65 L293.75 124.2 M279.9 133.8 L279.9 147.65 M36.95 133.8 L36.95 147.65 M284.25 155.55 L289.45 155.55 M298.65 160.35 L298.65 160.4 M296.15 137.65 L296.15 168.6 298.65 174.1 M15.2 174.1 L15.2 185.15 M296.15 137.65 L296.15 94.25 M36.95 94.25 L36.95 118.25 M17.2 136.2 L20.15 127.9 M21.45 124.2 L21.45 94.25 M33.45 133.8 L33.45 155.55 M25.4 155.55 L33.45 133.8 33.45 124.2 21.45 124.2 20.15 127.9 M15.2 174.1 L17.2 168.6 17.2 136.2 17.2 94.25 M33.45 94.25 L33.45 124.2 M15.2 174.1 L15.2 94.25 M15.2 202.15 L15.2 185.15 M20.6 168.6 L292.55 168.6 M0.0 44.35 L314.8 44.35" fill="none" stroke="#000000" stroke-linecap="round" stroke-linejoin="round" stroke-width="1.0"/>
    <path d="M415.35 118.25 L459.9 118.25 M459.9 133.8 L415.35 133.8 M459.9 185.15 L415.35 185.15 M393.65 190.4 L393.65 174.1 M459.9 52.6 L415.35 52.6 M393.65 45.7 L393.65 76.85 M372.05 52.6 L372.05 25.35 M372.05 53.4 L372.05 52.6 M393.65 86.0 L393.65 118.25 393.65 124.2 393.65 133.8 393.65 146.15 393.65 163.35 393.65 174.1 M393.7 174.1 L393.65 174.1 M382.8 73.75 L382.8 118.25 393.65 118.25 M382.8 132.15 L382.8 124.2 382.8 118.25 M384.1 133.8 L393.65 133.8 M372.05 131.75 L372.05 132.15 M372.05 131.75 L372.05 61.7 M393.65 124.2 L382.8 124.2 M372.05 155.9 L372.05 141.55 M415.35 124.2 L459.9 124.2 M415.35 174.1 L459.9 174.1 M295.7 185.15 L17.2 185.15 M284.25 94.25 L293.75 94.25 296.15 94.25 298.65 94.25 298.65 160.35 298.65 160.4 298.65 174.1 298.65 185.15 298.65 202.15 M15.2 52.6 L298.65 52.6 298.65 84.8 15.2 84.8 M279.9 94.25 L284.25 94.25 M284.25 124.2 L293.75 124.2 M279.9 118.25 L36.95 118.25 M33.45 124.2 L284.25 124.2 M284.25 133.8 L279.9 133.8 36.95 133.8 33.45 133.8 M295.7 185.15 L298.65 185.15 M298.65 174.1 L15.2 174.1 M15.2 185.15 L17.2 185.15 M279.9 94.25 L36.95 94.25 M15.2 94.25 L17.2 94.25 21.45 94.25 33.45 94.25 36.95 94.25" fill="none" stroke="#000000" stroke-linecap="round" stroke-linejoin="round" stroke-width="1.0"/>
  </g>
</svg>
