<?xml version="1.0" encoding="UTF-8" standalone="no"?>
<svg xmlns:xlink="http://www.w3.org/1999/xlink" height="267.65px" width="151.8px" xmlns="http://www.w3.org/2000/svg">
  <g transform="matrix(1.0, 0.0, 0.0, 1.0, 0.5, 0.5)">
    <path d="M0.0 127.1 L0.0 0.0 46.6 0.0 Q44.95 30.15 40.0 40.45 26.55 68.25 23.0 75.95 17.8 87.05 17.8 89.75 L18.7 89.75 25.5 80.75 Q32.5 71.3 39.15 60.6 56.25 33.25 69.9 0.0 L103.75 0.0 Q98.55 11.9 91.75 24.15 77.25 50.35 57.75 74.75 40.2 96.75 23.3 111.5 8.65 124.4 0.0 127.1 M119.8 0.0 L138.0 0.0 Q132.75 26.6 117.35 52.65 111.5 62.5 101.6 76.55 L86.8 97.95 Q77.55 112.15 43.2 123.35 L43.25 123.4 42.75 123.5 39.0 124.5 38.95 124.7 38.9 124.5 33.25 125.8 28.6 126.75 33.25 125.8 Q32.4 129.3 29.4 133.9 27.4 137.0 25.5 138.95 23.5 140.85 21.6 141.5 L10.1 144.65 0.0 147.25 0.0 142.65 Q2.55 141.7 6.25 139.8 L10.8 139.2 15.65 138.1 Q19.25 136.2 23.65 132.25 27.0 129.2 28.6 126.75 L23.55 127.65 14.35 129.0 5.6 129.95 0.0 130.35 5.6 129.95 14.35 129.0 7.8 133.2 Q3.6 135.9 0.0 136.3 L0.0 130.35 10.4 126.6 10.7 127.3 Q13.3 126.15 16.15 125.35 21.3 123.9 32.6 122.65 39.9 121.9 53.1 113.5 58.25 110.2 70.4 101.25 85.85 89.85 95.9 65.1 L99.9 54.3 Q107.6 40.15 112.15 23.95 L111.4 23.8 111.5 23.25 Q111.5 16.1 117.75 4.0 L119.8 0.0 M48.1 259.35 L47.65 260.35 Q45.9 263.55 42.2 263.8 L40.95 263.7 41.3 260.35 Q41.3 257.65 29.3 198.35 L28.9 197.15 27.9 216.9 Q26.85 236.55 26.75 246.25 L26.65 264.9 26.1 265.0 Q19.5 266.65 16.2 266.65 L7.2 265.9 6.65 265.7 7.35 264.05 Q11.0 255.65 12.2 249.25 L13.15 241.45 13.9 232.15 13.9 219.05 13.65 200.45 Q12.3 194.5 10.1 183.4 L10.1 146.8 Q19.6 144.75 26.1 140.85 L32.2 161.1 Q36.7 176.85 40.45 194.5 41.65 200.15 41.6 205.0 L41.3 210.75 Q41.3 213.95 43.25 218.65 45.15 223.3 45.15 227.0 45.15 227.85 46.45 237.2 47.7 248.35 47.7 258.0 L47.7 259.35 48.1 259.35 M112.8 21.55 L112.15 23.95 112.8 21.55 M39.0 124.5 L38.9 124.5 39.0 124.5 M7.9 136.8 L8.85 136.45 8.85 136.8 7.9 136.8 M7.1 136.8 L6.65 136.8 7.1 136.35 7.1 136.8 M28.9 197.1 L28.9 197.15 28.9 197.1" fill="#e3e7f0" fill-rule="evenodd" stroke="none"/>
    <path d="M103.75 0.0 L119.8 0.0 117.75 4.0 Q111.5 16.1 111.5 23.25 L111.4 23.8 112.15 23.95 Q107.6 40.15 99.9 54.3 73.55 102.4 10.4 126.6 L0.0 130.35 0.0 127.1 Q8.65 124.4 23.3 111.5 40.2 96.75 57.75 74.75 77.25 50.35 91.75 24.15 98.55 11.9 103.75 0.0 M138.0 0.0 L150.8 0.0 Q130.9 99.4 43.25 123.4 L43.2 123.35 Q77.55 112.15 86.8 97.95 L101.6 76.55 Q111.5 62.5 117.35 52.65 132.75 26.6 138.0 0.0 M38.95 124.7 Q36.85 131.8 31.5 136.8 52.15 197.85 48.85 258.9 L48.1 259.35 47.7 259.35 47.7 258.0 Q47.7 248.35 46.45 237.2 45.15 227.85 45.15 227.0 45.15 223.3 43.25 218.65 41.3 213.95 41.3 210.75 L41.6 205.0 Q41.65 200.15 40.45 194.5 36.7 176.85 32.2 161.1 L26.1 140.85 Q19.6 144.75 10.1 146.8 L0.0 148.35 0.0 147.25 10.1 144.65 21.6 141.5 Q23.5 140.85 25.5 138.95 27.4 137.0 29.4 133.9 32.4 129.3 33.25 125.8 L38.9 124.5 38.95 124.7 M31.5 136.8 Q29.1 139.05 26.1 140.85 29.1 139.05 31.5 136.8" fill="#f4f7f9" fill-rule="evenodd" stroke="none"/>
    <path d="M46.6 0.0 L69.9 0.0 Q56.25 33.25 39.15 60.6 32.5 71.3 25.5 80.75 L18.7 89.75 17.8 89.75 Q17.8 87.05 23.0 75.95 26.55 68.25 40.0 40.45 44.95 30.15 46.6 0.0 M40.95 263.7 L34.9 263.3 Q32.8 263.3 26.65 264.9 L26.75 246.25 Q26.85 236.55 27.9 216.9 L28.9 197.15 29.3 198.35 Q41.3 257.65 41.3 260.35 L40.95 263.7 M6.65 265.7 Q2.95 264.2 0.0 259.7 L0.0 148.35 10.1 146.8 10.1 183.4 Q12.3 194.5 13.65 200.45 L13.9 219.05 13.9 232.15 13.15 241.45 12.2 249.25 Q11.0 255.65 7.35 264.05 L6.65 265.7 M99.9 54.3 L95.9 65.1 Q85.85 89.85 70.4 101.25 58.25 110.2 53.1 113.5 39.9 121.9 32.6 122.65 21.3 123.9 16.15 125.35 13.3 126.15 10.7 127.3 L10.4 126.6 Q73.55 102.4 99.9 54.3 M14.35 129.0 L23.55 127.65 28.6 126.75 Q27.0 129.2 23.65 132.25 19.25 136.2 15.65 138.1 L10.8 139.2 6.25 139.8 Q2.55 141.7 0.0 142.65 L0.0 136.3 Q3.6 135.9 7.8 133.2 L14.35 129.0 M23.55 127.65 L22.55 128.9 Q18.95 132.65 8.85 136.45 18.95 132.65 22.55 128.9 L23.55 127.65 M8.85 136.45 L7.9 136.8 8.85 136.8 8.85 136.45 M7.1 136.8 L7.1 136.35 6.65 136.8 7.1 136.8" fill="#c8d0e1" fill-rule="evenodd" stroke="none"/>
    <path d="M0.0 127.1 L0.0 0.0 46.6 0.0 69.9 0.0 103.75 0.0 119.8 0.0 138.0 0.0 150.8 0.0 M48.1 259.35 L47.65 260.35 Q45.9 263.55 42.2 263.8 L40.95 263.7 34.9 263.3 Q32.8 263.3 26.65 264.9 L26.1 265.0 Q19.5 266.65 16.2 266.65 L7.2 265.9 6.65 265.7 Q2.95 264.2 0.0 259.7 L0.0 260.75 M0.0 127.1 L0.0 130.35 0.0 136.3 M0.0 147.25 L0.0 148.35 M8.85 136.45 Q18.95 132.65 22.55 128.9 L23.55 127.65 M8.85 136.45 L7.9 136.8 M0.0 147.25 L0.0 142.65 0.0 136.3 M0.0 259.7 L0.0 148.35" fill="none" stroke="#000000" stroke-linecap="round" stroke-linejoin="round" stroke-width="1.0"/>
    <path d="M150.8 0.0 Q130.9 99.4 43.25 123.4 L42.75 123.5 39.0 124.5 38.95 124.7 Q36.85 131.8 31.5 136.8 52.15 197.85 48.85 258.9 M112.15 23.95 L112.8 21.55 M10.4 126.6 L0.0 130.35 5.6 129.95 14.35 129.0 23.55 127.65 28.6 126.75 33.25 125.8 38.9 124.5 39.0 124.5 M99.9 54.3 Q107.6 40.15 112.15 23.95 M0.0 148.35 L10.1 146.8 Q19.6 144.75 26.1 140.85 29.1 139.05 31.5 136.8 M10.4 126.6 Q73.55 102.4 99.9 54.3" fill="none" stroke="#000000" stroke-linecap="round" stroke-linejoin="round" stroke-width="1.0"/>
  </g>
</svg>
