<?xml version="1.0" encoding="UTF-8" standalone="no"?>
<svg xmlns:xlink="http://www.w3.org/1999/xlink" height="87.8px" width="79.85px" xmlns="http://www.w3.org/2000/svg">
  <g transform="matrix(1.0, 0.0, 0.0, 1.0, -3.95, 0.2)">
    <path d="M81.1 71.7 L81.15 72.2 81.1 72.75 81.1 71.7 M6.65 71.6 L6.65 72.65 6.6 72.1 6.65 71.6" fill="#ffcc00" fill-rule="evenodd" stroke="none"/>
    <path d="M72.7 10.25 L72.35 10.05 72.4 10.0 72.7 10.25 M16.75 78.55 L15.6 77.55 15.75 77.35 16.8 78.5 16.75 78.55" fill="#d8d8b1" fill-rule="evenodd" stroke="none"/>
    <path d="M72.6 10.35 L72.7 10.25 72.7 10.3 72.6 10.35" fill="url(#gradient0)" fill-rule="evenodd" stroke="none"/>
    <path d="M72.7 10.25 L72.6 10.35 Q74.65 12.95 75.3 16.1 L75.65 18.9 75.65 54.6 75.6 54.6 Q75.35 57.1 74.35 59.25 73.3 61.6 71.35 63.6 L70.3 64.55 Q66.35 67.8 61.2 67.9 L60.9 67.9 23.9 67.9 23.6 67.9 Q19.2 67.8 15.75 65.5 L15.05 64.55 Q13.35 62.1 12.8 59.25 12.5 57.95 12.5 56.6 L12.5 21.95 Q12.55 18.75 13.85 16.1 14.9 13.85 16.8 11.95 21.0 7.75 26.95 7.65 L27.25 7.65 64.25 7.65 64.55 7.65 Q68.9 7.75 72.35 10.05 L72.7 10.25" fill="#e3e3c7" fill-rule="evenodd" stroke="none"/>
    <path d="M15.75 65.5 Q19.2 67.8 23.6 67.9 L23.9 67.9 60.9 67.9 61.2 67.9 Q66.35 67.8 70.3 64.55 L71.35 63.6 Q73.3 61.6 74.35 59.25 75.35 57.1 75.6 54.6 L75.65 54.6 75.65 18.9 75.3 16.1 Q74.65 12.95 72.6 10.35 L72.7 10.3 72.85 10.45 Q75.35 12.95 76.4 16.1 77.1 18.15 77.2 20.5 L77.15 55.7 77.15 56.05 Q77.0 57.7 76.5 59.25 L75.65 61.3 Q74.8 63.0 73.4 64.55 L72.85 65.1 Q68.6 69.3 62.7 69.4 L62.4 69.4 25.4 69.4 25.1 69.4 Q20.5 69.3 16.95 66.8 L16.8 66.65 15.75 65.5" fill="#ffffff" fill-rule="evenodd" stroke="none"/>
    <path d="M21.35 -0.2 L21.7 -0.2 66.1 -0.2 66.45 -0.2 Q72.9 -0.1 77.75 4.1 L78.1 4.45 78.4 4.75 78.45 4.8 78.65 4.95 Q81.65 8.0 82.9 11.75 83.75 14.25 83.8 17.05 L83.8 71.15 Q83.55 74.75 82.0 77.85 80.95 79.9 79.3 81.75 L78.65 82.45 Q73.55 87.45 66.45 87.6 L66.1 87.6 21.7 87.6 21.35 87.6 Q15.8 87.5 11.5 84.45 L11.3 84.3 9.9 83.15 9.85 83.1 9.15 82.45 8.5 81.75 8.3 81.5 Q7.05 80.1 6.2 78.55 4.25 75.15 4.0 71.05 L3.95 17.05 Q4.0 14.25 4.9 11.75 6.15 8.0 9.15 4.95 14.25 -0.1 21.35 -0.2 M81.1 71.7 L81.1 72.75 81.15 72.2 81.1 71.7 M72.7 10.3 L72.7 10.25 72.4 10.0 72.1 9.7 Q68.1 6.2 62.7 6.15 L62.4 6.15 25.4 6.15 25.1 6.15 Q19.2 6.25 14.95 10.45 12.45 12.95 11.4 16.1 10.7 18.15 10.65 20.5 L10.65 55.6 10.65 56.3 10.7 56.3 Q10.85 57.85 11.35 59.25 11.75 60.6 12.5 61.85 L14.25 64.35 14.4 64.55 14.95 65.1 15.55 65.7 15.75 65.5 16.8 66.65 16.95 66.8 Q20.5 69.3 25.1 69.4 L25.4 69.4 62.4 69.4 62.7 69.4 Q68.6 69.3 72.85 65.1 L73.4 64.55 Q74.8 63.0 75.65 61.3 L76.5 59.25 Q77.0 57.7 77.15 56.05 L77.15 55.7 77.2 20.5 Q77.1 18.15 76.4 16.1 75.35 12.95 72.85 10.45 L72.7 10.3 M6.65 71.6 L6.6 72.1 6.65 72.65 6.65 71.6 M16.75 78.55 L16.95 78.65 16.8 78.5 15.75 77.35 15.55 77.55 15.6 77.55 16.75 78.55" fill="#b8b872" fill-rule="evenodd" stroke="none"/>
    <path d="M15.6 77.55 L15.55 77.55 15.75 77.35 15.6 77.55" fill="#cccc99" fill-rule="evenodd" stroke="none"/>
    <path d="M72.35 10.05 Q68.9 7.75 64.55 7.65 L64.25 7.65 27.25 7.65 26.95 7.65 Q21.0 7.75 16.8 11.95 14.9 13.85 13.85 16.1 12.55 18.75 12.5 21.95 L12.5 56.6 Q12.5 57.95 12.8 59.25 13.35 62.1 15.05 64.55 L15.75 65.5 15.55 65.7 14.95 65.1 14.4 64.55 14.25 64.35 12.5 61.85 Q11.75 60.6 11.35 59.25 10.85 57.85 10.7 56.3 L10.65 55.6 10.65 20.5 Q10.7 18.15 11.4 16.1 12.45 12.95 14.95 10.45 19.2 6.25 25.1 6.15 L25.4 6.15 62.4 6.15 62.7 6.15 Q68.1 6.2 72.1 9.7 L72.4 10.0 72.35 10.05" fill="#9c9b52" fill-rule="evenodd" stroke="none"/>
    <path d="M16.8 78.5 L16.95 78.65 16.75 78.55 16.8 78.5" fill="url(#gradient1)" fill-rule="evenodd" stroke="none"/>
  </g>
  <defs>
    <radialGradient cx="0" cy="0" gradientTransform="matrix(0.763, 0.0, 0.0, 0.763, -28.55, -5.15)" gradientUnits="userSpaceOnUse" id="gradient0" r="819.2" spreadMethod="pad">
      <stop offset="0.0" stop-color="#ffffff"/>
      <stop offset="1.0" stop-color="#cccc99"/>
    </radialGradient>
    <radialGradient cx="0" cy="0" gradientTransform="matrix(0.763, 0.0, 0.0, 0.763, -28.55, -34.85)" gradientUnits="userSpaceOnUse" id="gradient1" r="819.2" spreadMethod="pad">
      <stop offset="0.0" stop-color="#ffffff"/>
      <stop offset="1.0" stop-color="#cccc99"/>
    </radialGradient>
  </defs>
</svg>
