<?xml version="1.0" encoding="UTF-8" standalone="no"?>
<svg xmlns:xlink="http://www.w3.org/1999/xlink" height="75.95px" width="79.85px" xmlns="http://www.w3.org/2000/svg">
  <g transform="matrix(1.0, 0.0, 0.0, 1.0, 0.0, 0.0)">
    <path d="M74.7 5.15 Q77.7 8.2 78.95 11.95 79.8 14.45 79.85 17.25 L79.85 59.5 Q79.6 63.1 78.05 66.2 77.0 68.25 75.35 70.1 L74.7 70.8 Q69.6 75.8 62.5 75.95 L62.15 75.95 17.75 75.95 17.4 75.95 Q11.85 75.85 7.55 72.8 L7.35 72.65 5.95 71.5 5.9 71.45 5.2 70.8 4.55 70.1 4.35 69.85 Q3.1 68.45 2.25 66.9 0.3 63.5 0.05 59.4 L0.0 17.25 Q0.05 14.45 0.95 11.95 2.2 8.2 5.2 5.15 10.3 0.1 17.4 0.0 L17.75 0.0 62.15 0.0 62.5 0.0 Q68.95 0.1 73.8 4.3 L74.15 4.65 74.45 4.95 74.5 5.0 74.7 5.15" fill="#cccccc" fill-rule="evenodd" stroke="none"/>
  </g>
</svg>
