<?xml version="1.0" encoding="UTF-8" standalone="no"?>
<svg xmlns:xlink="http://www.w3.org/1999/xlink" height="93.05px" width="133.5px" xmlns="http://www.w3.org/2000/svg">
  <g transform="matrix(1.0, 0.0, 0.0, 1.0, 0.5, 0.45)">
    <path d="M131.8 43.45 L129.35 46.65 119.85 59.85 119.55 60.3 Q115.35 65.65 104.55 63.4 93.7 61.1 82.55 52.5 73.85 45.8 68.9 38.35 70.05 41.6 70.2 45.25 L70.2 45.6 70.2 46.9 70.15 47.95 69.8 50.8 69.65 51.5 69.45 52.25 68.05 64.3 67.7 67.25 67.65 67.75 Q65.95 76.65 58.2 83.45 48.3 92.05 34.3 92.1 20.25 92.05 10.4 83.45 1.45 75.7 0.6 65.05 L0.05 48.15 0.05 48.0 0.0 47.6 0.0 47.5 0.0 47.35 0.0 46.75 0.0 46.15 0.0 45.65 Q0.2 34.15 10.4 26.45 20.55 18.75 35.1 18.75 49.6 18.7 59.7 26.4 63.15 29.0 65.5 32.1 62.4 24.95 64.8 17.85 L76.75 3.7 Q73.5 7.9 75.9 14.9 76.5 16.8 77.6 18.9 82.55 28.8 93.75 37.45 104.9 46.05 115.75 48.35 L120.45 49.0 Q126.15 49.3 129.35 46.65 126.15 49.3 120.45 49.0 L115.75 48.35 Q104.9 46.05 93.75 37.45 82.55 28.8 77.6 18.9 76.5 16.8 75.9 14.9 73.5 7.9 76.75 3.7 L77.45 2.9 Q81.75 -1.6 91.75 0.95 101.75 3.45 112.8 12.2 123.8 20.95 129.0 29.65 134.1 38.3 131.8 43.45 M9.0 34.55 Q6.05 38.7 5.95 43.85 L5.95 44.25 5.95 44.7 6.0 45.15 6.0 45.25 6.0 45.35 6.0 45.65 6.0 45.75 Q6.2 48.55 7.35 51.1 9.35 55.8 14.3 59.55 22.7 65.9 34.55 65.9 46.35 65.9 54.75 59.55 L56.9 57.75 58.3 56.3 60.9 52.8 62.5 49.35 Q63.05 47.8 63.25 43.8 L63.15 43.55 63.1 43.4 63.1 43.3 63.1 43.2 Q62.6 34.95 54.55 29.25 46.35 23.4 34.55 23.45 22.7 23.45 14.4 29.3 11.05 31.65 9.0 34.55 M69.45 52.25 Q68.8 54.9 67.5 57.4 64.9 62.25 59.9 66.3 49.6 74.65 35.1 74.65 20.55 74.65 10.25 66.3 4.15 61.35 1.7 55.2 0.35 51.85 0.05 48.15 0.35 51.85 1.7 55.2 4.15 61.35 10.25 66.3 20.55 74.65 35.1 74.65 49.6 74.65 59.9 66.3 64.9 62.25 67.5 57.4 68.8 54.9 69.45 52.25 M65.5 32.1 L66.4 33.95 Q67.5 36.15 68.9 38.35 67.5 36.15 66.4 33.95 L65.5 32.1" fill="#cc0000" fill-rule="evenodd" stroke="none"/>
    <path d="M9.0 34.55 L11.5 32.55 Q19.8 26.7 31.65 26.7 43.45 26.65 51.65 32.5 59.7 38.2 60.2 46.45 L60.2 46.55 60.2 46.65 Q60.2 46.85 60.35 47.05 60.15 51.05 59.6 52.6 L58.0 56.05 56.9 57.75 54.75 59.55 Q46.35 65.9 34.55 65.9 22.7 65.9 14.3 59.55 9.35 55.8 7.35 51.1 6.2 48.55 6.0 45.75 L6.0 45.65 6.0 45.35 6.0 45.25 6.0 45.15 5.95 44.7 5.95 44.25 5.95 43.85 Q6.05 38.7 9.0 34.55" fill="#fe78ae" fill-rule="evenodd" stroke="none"/>
    <path d="M56.9 57.75 L58.0 56.05 58.3 56.3 56.9 57.75" fill="#ff6699" fill-rule="evenodd" stroke="none"/>
    <path d="M58.0 56.05 L59.6 52.6 Q60.15 51.05 60.35 47.05 60.2 46.85 60.2 46.65 L60.2 46.55 60.2 46.45 Q59.7 38.2 51.65 32.5 43.45 26.65 31.65 26.7 19.8 26.7 11.5 32.55 L9.0 34.55 Q11.05 31.65 14.4 29.3 22.7 23.45 34.55 23.45 46.35 23.4 54.55 29.25 62.6 34.95 63.1 43.2 L63.1 43.3 63.1 43.4 63.15 43.55 63.25 43.8 Q63.05 47.8 62.5 49.35 L60.9 52.8 58.3 56.3 58.0 56.05" fill="#fe458f" fill-rule="evenodd" stroke="none"/>
    <path d="M131.8 43.45 L129.35 46.65 119.85 59.85 119.55 60.3 M70.2 45.25 L70.2 45.6 M70.15 47.95 L69.8 50.8 69.65 51.5 M69.45 52.25 L68.05 64.3 M64.8 17.85 L76.75 3.7 77.45 2.9 M63.25 43.8 L63.15 43.55 M67.7 67.25 L67.65 67.75 M67.7 67.3 L67.7 67.25 68.05 64.3" fill="none" stroke="#000000" stroke-linecap="round" stroke-linejoin="round" stroke-width="1.0"/>
    <path d="M119.55 60.3 Q115.35 65.65 104.55 63.4 93.7 61.1 82.55 52.5 73.85 45.8 68.9 38.35 70.05 41.6 70.2 45.25 M70.2 45.6 L70.2 46.9 70.15 47.95 M69.65 51.5 L69.45 52.25 M68.05 64.3 L67.7 67.3 67.65 67.75 Q65.95 76.65 58.2 83.45 48.3 92.05 34.3 92.1 20.25 92.05 10.4 83.45 1.45 75.7 0.6 65.05 L0.05 48.15 0.05 48.0 0.0 47.6 0.0 47.5 0.0 47.35 0.0 46.75 0.0 46.15 0.0 45.65 Q0.2 34.15 10.4 26.45 20.55 18.75 35.1 18.75 49.6 18.7 59.7 26.4 63.15 29.0 65.5 32.1 62.4 24.95 64.8 17.85 M76.75 3.7 L76.8 3.65 77.45 2.9 Q81.75 -1.6 91.75 0.95 101.75 3.45 112.8 12.2 123.8 20.95 129.0 29.65 134.1 38.3 131.8 43.45 M129.35 46.65 Q126.15 49.3 120.45 49.0 L115.75 48.35 Q104.9 46.05 93.75 37.45 82.55 28.8 77.6 18.9 76.5 16.8 75.9 14.9 73.5 7.9 76.75 3.7 M9.0 34.55 Q6.05 38.7 5.95 43.85 L5.95 44.25 5.95 44.7 6.0 45.15 6.0 45.25 6.0 45.35 6.0 45.65 6.0 45.75 Q6.2 48.55 7.35 51.1 9.35 55.8 14.3 59.55 22.7 65.9 34.55 65.9 46.35 65.9 54.75 59.55 L56.9 57.75 M58.3 56.3 L60.9 52.8 62.5 49.35 Q63.05 47.8 63.25 43.8 M63.15 43.55 L63.1 43.4 63.1 43.3 63.1 43.2 Q62.6 34.95 54.55 29.25 46.35 23.4 34.55 23.45 22.7 23.45 14.4 29.3 11.05 31.65 9.0 34.55 M68.9 38.35 Q67.5 36.15 66.4 33.95 L65.5 32.1 M0.05 48.15 Q0.35 51.85 1.7 55.2 4.15 61.35 10.25 66.3 20.55 74.65 35.1 74.65 49.6 74.65 59.9 66.3 64.9 62.25 67.5 57.4 68.8 54.9 69.45 52.25 M58.3 56.3 L56.9 57.75" fill="none" stroke="#000000" stroke-linecap="round" stroke-linejoin="round" stroke-width="1.0"/>
  </g>
</svg>
