<?xml version="1.0" encoding="UTF-8" standalone="no"?>
<svg xmlns:xlink="http://www.w3.org/1999/xlink" height="14.2px" width="15.6px" xmlns="http://www.w3.org/2000/svg">
  <g transform="matrix(1.0, 0.0, 0.0, 1.0, 0.5, 0.5)">
    <path d="M2.4 0.0 L5.2 2.1 9.4 5.2 Q9.4 2.8 10.85 0.95 L11.05 2.2 Q11.9 4.8 13.45 7.25 15.2 10.0 14.3 12.55 11.75 11.75 9.7 9.8 7.55 7.7 5.85 5.4 4.0 2.95 2.7 0.6 L2.4 0.0 2.7 0.6 Q4.0 2.95 5.85 5.4 7.55 7.7 9.7 9.8 11.75 11.75 14.3 12.55 L9.0 13.15 Q6.1 13.0 3.8 11.4 L0.0 9.15 4.35 8.65 Q3.45 7.0 2.9 4.95 2.35 2.5 2.4 0.0" fill="#99cc00" fill-rule="evenodd" stroke="none"/>
    <path d="M14.3 12.55 Q15.2 10.0 13.45 7.25 11.9 4.8 11.05 2.2 L10.85 0.95 Q9.4 2.8 9.4 5.2 L5.2 2.1 2.4 0.0 2.7 0.6 Q4.0 2.95 5.85 5.4 7.55 7.7 9.7 9.8 11.75 11.75 14.3 12.55 L9.0 13.15 Q6.1 13.0 3.8 11.4 L0.0 9.15 4.35 8.65 Q3.45 7.0 2.9 4.95 2.35 2.5 2.4 0.0" fill="none" stroke="#000000" stroke-linecap="round" stroke-linejoin="round" stroke-width="1.0"/>
  </g>
</svg>
