<?xml version="1.0" encoding="UTF-8" standalone="no"?>
<svg xmlns:xlink="http://www.w3.org/1999/xlink" height="8.05px" width="8.3px" xmlns="http://www.w3.org/2000/svg">
  <g transform="matrix(1.0, 0.0, 0.0, 1.0, 0.5, 0.5)">
    <path d="M5.75 4.4 L2.15 5.3 2.5 1.2 Q3.85 0.5 7.3 0.0 6.7 2.7 5.75 4.4" fill="#ff6600" fill-rule="evenodd" stroke="none"/>
    <path d="M2.5 1.2 L2.15 5.3 5.75 4.4 Q3.8 7.6 0.3 6.95 L0.05 5.85 Q-0.4 2.65 2.5 1.2" fill="#99cc33" fill-rule="evenodd" stroke="none"/>
    <path d="M5.75 4.4 L2.15 5.3 2.5 1.2 Q-0.4 2.65 0.05 5.85 L0.3 6.95 Q3.8 7.6 5.75 4.4 6.7 2.7 7.3 0.0 3.85 0.5 2.5 1.2" fill="none" stroke="#000000" stroke-linecap="round" stroke-linejoin="round" stroke-width="1.0"/>
  </g>
</svg>
