<?xml version="1.0" encoding="UTF-8" standalone="no"?>
<svg xmlns:xlink="http://www.w3.org/1999/xlink" height="146.9px" width="85.25px" xmlns="http://www.w3.org/2000/svg">
  <g transform="matrix(1.0, 0.0, 0.0, 1.0, 0.5, 0.5)">
    <path d="M83.85 77.15 L84.25 77.4 Q81.2 77.85 77.85 80.15 73.5 83.1 69.4 83.1 65.4 83.1 57.1 79.0 51.45 83.1 48.8 86.8 L47.35 88.6 45.75 90.8 46.75 89.5 52.4 89.1 Q55.55 89.05 60.45 91.35 L60.45 91.4 60.1 91.65 Q53.8 89.85 51.2 90.15 L47.9 90.5 Q47.2 90.5 45.25 91.65 L44.35 93.6 Q43.15 96.55 42.55 99.5 L42.15 95.55 Q43.2 92.0 45.55 88.75 48.35 84.75 53.1 81.3 L57.15 78.7 Q58.45 77.95 60.15 77.45 68.1 74.9 83.85 77.15 M39.0 64.9 L39.8 72.8 40.1 75.75 44.0 113.45 44.35 117.15 46.95 142.4 44.6 145.9 43.6 136.35 43.3 133.5 41.1 112.3 40.1 109.35 39.1 107.3 37.5 105.0 36.25 103.45 Q33.9 100.25 29.05 96.7 21.9 100.25 18.45 100.25 16.15 100.25 13.8 99.2 L11.15 97.7 Q8.25 95.7 5.65 95.35 L6.0 95.1 13.8 94.3 Q21.7 93.85 26.45 95.35 27.9 95.8 29.05 96.45 L32.55 98.7 Q36.6 101.7 39.05 105.1 L40.65 107.7 39.6 97.75 39.35 95.15 36.25 65.0 36.65 65.0 38.15 65.0 39.0 64.9 M61.55 91.9 L70.15 96.05 Q72.75 97.3 74.3 99.3 76.65 102.4 76.35 107.25 L76.2 107.35 76.25 107.45 74.55 109.25 74.55 108.7 Q74.55 106.1 73.55 103.35 72.9 102.85 72.2 102.5 L70.5 101.75 66.1 100.0 Q62.4 98.65 61.3 96.55 60.65 95.35 60.45 91.75 L61.55 91.9 M73.55 103.35 Q74.75 104.25 76.2 107.35 74.75 104.25 73.55 103.35" fill="#006600" fill-rule="evenodd" stroke="none"/>
    <path d="M59.1 24.4 L63.8 24.05 67.2 23.85 Q70.9 24.1 70.9 27.85 L70.75 29.75 Q70.5 30.15 69.25 30.15 67.15 30.15 65.1 28.5 L64.05 27.5 Q61.55 24.95 59.1 24.4 M15.85 49.95 L17.1 48.7 Q18.1 47.75 19.6 46.75 23.2 44.2 29.55 40.85 36.8 37.05 51.8 29.75 L52.05 32.65 Q51.9 34.1 50.05 35.65 48.7 36.75 45.4 38.5 43.4 39.5 42.55 41.4 40.95 44.75 37.45 47.35 35.1 49.05 32.7 49.8 L32.5 49.85 32.45 49.85 29.35 50.25 19.4 49.85 15.85 49.95 M0.15 24.65 Q0.55 22.3 2.1 20.45 L5.55 16.55 Q6.9 14.3 7.65 11.3 8.45 9.45 11.6 9.45 L15.1 9.7 15.0 8.55 Q15.0 6.2 16.55 4.35 L16.75 4.4 16.55 6.25 Q16.55 10.15 17.7 13.4 18.4 15.3 19.55 17.0 L20.05 17.75 21.8 19.7 Q23.8 21.7 27.0 23.85 L30.9 24.0 31.1 24.0 44.15 24.45 45.3 24.5 47.15 24.6 49.65 24.9 Q52.2 25.25 53.85 26.05 L53.85 26.35 52.95 27.2 45.5 27.2 Q42.7 27.25 41.1 27.8 L40.45 28.0 Q38.85 28.8 36.05 28.8 L29.65 28.2 Q28.25 28.8 23.35 28.8 19.4 28.8 17.55 27.9 15.55 26.9 15.95 24.85 14.0 24.95 12.5 23.65 L12.35 23.5 Q10.65 21.95 10.65 19.7 10.65 17.8 11.2 16.4 9.1 16.45 7.95 17.25 6.95 17.95 6.0 20.25 5.0 22.5 3.7 23.4 2.35 24.35 0.15 24.65 M40.7 10.1 L41.4 8.25 Q43.05 8.85 44.45 10.35 46.1 12.1 46.1 13.75 46.1 16.0 44.9 18.4 41.9 18.7 41.0 19.3 39.8 20.1 36.95 20.3 34.65 20.5 32.7 21.6 L37.0 16.0 39.15 12.95 40.7 10.1 M11.2 16.4 Q12.25 13.75 15.3 12.85 L15.8 18.95 Q15.75 22.8 24.45 23.65 L27.0 23.85 24.45 23.65 Q15.75 22.8 15.8 18.95 L15.3 12.85 Q12.25 13.75 11.2 16.4 M15.1 9.7 L15.3 12.85 15.1 9.7" fill="#febda3" fill-rule="evenodd" stroke="none"/>
    <path d="M65.1 28.5 L61.8 30.7 59.9 30.6 Q57.25 30.6 55.95 32.0 55.0 32.95 54.1 35.6 51.7 42.65 47.65 46.05 44.45 48.75 40.25 50.85 35.8 52.85 33.95 53.75 L33.9 53.8 Q33.0 52.25 32.7 50.05 L32.7 49.8 Q35.1 49.05 37.45 47.35 40.95 44.75 42.55 41.4 43.4 39.5 45.4 38.5 48.7 36.75 50.05 35.65 51.9 34.1 52.05 32.65 L51.8 29.75 Q36.8 37.05 29.55 40.85 23.2 44.2 19.6 46.75 18.1 47.75 17.1 48.7 14.5 48.6 12.4 47.6 L12.4 47.05 11.65 28.25 Q11.65 25.9 12.5 23.65 14.0 24.95 15.95 24.85 15.55 26.9 17.55 27.9 L17.55 32.3 Q18.2 39.05 18.95 43.4 25.95 40.8 33.35 35.0 38.55 30.95 41.1 27.8 42.7 27.25 45.5 27.2 L52.95 27.2 53.85 26.35 54.0 26.2 54.1 26.15 Q55.8 24.65 57.55 24.35 L59.1 24.4 Q61.55 24.95 64.05 27.5 L65.1 28.5 M27.9 62.1 Q21.85 60.75 19.65 59.4 14.8 56.45 14.8 52.1 14.8 51.2 15.85 49.95 L19.4 49.85 29.35 50.25 32.45 49.85 32.5 50.05 Q32.15 52.85 31.0 55.6 27.95 58.2 27.9 62.1 M44.9 18.4 Q46.1 16.0 46.1 13.75 46.1 12.1 44.45 10.35 43.05 8.85 41.4 8.25 L40.7 10.1 38.8 8.1 37.6 7.1 Q35.9 5.9 34.25 5.9 31.2 5.9 29.65 7.65 L27.95 10.45 29.65 7.65 Q31.2 5.9 34.25 5.9 35.9 5.9 37.6 7.1 L38.8 8.1 40.7 10.1 39.15 12.95 35.05 13.2 36.5 10.1 37.6 7.1 36.5 10.1 Q32.45 10.0 29.7 11.65 L28.6 10.75 27.95 10.45 Q26.75 9.9 25.1 9.85 L24.6 9.85 Q20.1 9.85 19.85 11.95 19.7 12.7 19.7 14.95 L19.55 17.0 19.7 14.95 Q19.7 12.7 19.85 11.95 20.1 9.85 24.6 9.85 L25.1 9.85 23.55 13.0 Q21.65 17.05 21.65 18.25 L21.8 19.7 20.05 17.75 19.55 17.0 Q18.4 15.3 17.7 13.4 L18.25 11.1 Q19.15 9.35 24.0 8.7 24.95 8.6 26.0 8.1 27.95 7.2 30.15 5.1 33.4 4.05 35.3 4.05 50.25 4.05 50.25 19.65 L50.1 24.05 49.65 24.9 47.15 24.6 45.65 21.35 44.55 19.1 44.9 18.4 44.55 19.1 45.65 21.35 47.15 24.6 45.3 24.5 44.15 24.45 31.1 24.0 30.95 23.95 32.2 22.25 32.7 21.6 Q34.65 20.5 36.95 20.3 39.8 20.1 41.0 19.3 41.9 18.7 44.9 18.4 M52.95 27.2 Q51.8 28.5 51.8 29.75 51.8 28.5 52.95 27.2 M28.3 22.05 L27.15 21.2 Q26.8 20.05 26.8 18.7 26.8 15.8 30.95 14.2 L31.9 13.9 33.5 13.45 33.25 17.2 Q32.7 19.35 28.3 22.05 M19.6 46.75 L18.95 43.4 19.6 46.75" fill="#fe8856" fill-rule="evenodd" stroke="none"/>
    <path d="M61.8 30.7 L59.45 32.45 Q58.7 33.2 58.7 36.25 L58.5 45.05 Q58.35 48.8 57.0 51.2 56.3 52.5 55.25 53.4 52.2 56.0 45.75 60.2 L45.5 60.1 43.7 59.35 37.85 56.95 Q35.25 56.1 33.9 53.8 L33.95 53.75 Q35.8 52.85 40.25 50.85 44.45 48.75 47.65 46.05 51.7 42.65 54.1 35.6 55.0 32.95 55.95 32.0 57.25 30.6 59.9 30.6 L61.8 30.7 M30.15 62.55 L27.9 62.1 Q27.95 58.2 31.0 55.6 L30.75 56.2 Q29.55 58.9 29.55 60.15 29.55 61.55 30.15 62.55 M12.4 47.6 Q8.6 45.75 6.3 40.95 L2.85 34.9 Q0.0 29.4 0.0 26.35 0.0 25.45 0.15 24.65 2.35 24.35 3.7 23.4 5.0 22.5 6.0 20.25 6.95 17.95 7.95 17.25 9.1 16.45 11.2 16.4 10.65 17.8 10.65 19.7 10.65 21.95 12.35 23.5 L12.5 23.65 Q11.65 25.9 11.65 28.25 L12.4 47.05 12.4 47.6 M16.85 4.05 Q18.4 2.4 20.5 2.4 21.65 2.4 23.65 3.2 25.6 3.95 26.8 3.95 28.5 3.95 30.2 2.0 31.9 0.0 34.55 0.0 37.2 0.0 39.9 1.8 42.6 3.55 43.85 3.55 L47.55 3.0 Q51.05 3.0 52.7 7.45 54.05 11.1 53.8 16.15 53.55 21.0 53.85 26.05 52.2 25.25 49.65 24.9 L50.1 24.05 50.25 19.65 Q50.25 4.05 35.3 4.05 33.4 4.05 30.15 5.1 27.95 7.2 26.0 8.1 24.95 8.6 24.0 8.7 19.15 9.35 18.25 11.1 L17.7 13.4 Q16.55 10.15 16.55 6.25 L16.75 4.4 16.85 4.05 M17.55 27.9 Q19.4 28.8 23.35 28.8 28.25 28.8 29.65 28.2 L36.05 28.8 Q38.85 28.8 40.45 28.0 L41.1 27.8 Q38.55 30.95 33.35 35.0 25.95 40.8 18.95 43.4 18.2 39.05 17.55 32.3 L17.55 27.9" fill="url(#gradient0)" fill-rule="evenodd" stroke="none"/>
    <path d="M25.1 9.85 Q26.75 9.9 27.95 10.45 L28.6 10.75 29.7 11.65 Q32.45 10.0 36.5 10.1 L35.05 13.2 39.15 12.95 37.0 16.0 32.7 21.6 32.2 22.25 30.95 23.95 28.3 22.05 Q32.7 19.35 33.25 17.2 L33.5 13.45 31.9 13.9 30.95 14.2 Q26.8 15.8 26.8 18.7 26.8 20.05 27.15 21.2 L28.3 22.05 30.95 23.95 30.9 24.0 27.0 23.85 Q23.8 21.7 21.8 19.7 L21.65 18.25 Q21.65 17.05 23.55 13.0 L25.1 9.85 M35.05 13.2 L33.5 13.45 35.05 13.2 M31.9 13.9 L29.7 11.65 31.9 13.9" fill="#fd773e" fill-rule="evenodd" stroke="none"/>
    <path d="M16.55 4.35 L16.85 4.05 16.75 4.4 16.55 4.35" fill="#fe6767" fill-rule="evenodd" stroke="none"/>
    <path d="M57.15 78.7 Q57.85 73.7 61.05 71.75 63.65 70.2 69.05 70.2 72.7 70.2 76.8 72.5 L83.85 77.15 Q68.1 74.9 60.15 77.45 58.45 77.95 57.15 78.7 M57.0 51.2 L58.5 51.55 61.8 53.05 63.85 54.3 Q56.1 55.1 52.6 58.55 50.3 60.8 49.35 61.35 47.45 62.5 45.05 62.0 43.8 64.45 39.0 64.9 L38.15 65.0 36.65 65.0 36.25 65.0 36.2 65.0 Q31.55 64.9 30.15 62.55 29.55 61.55 29.55 60.15 29.55 58.9 30.75 56.2 L31.0 55.6 Q32.15 52.85 32.5 50.05 L32.7 50.05 Q33.0 52.25 33.9 53.8 35.25 56.1 37.85 56.95 L43.7 59.35 45.5 60.1 45.5 60.35 45.75 60.2 Q52.2 56.0 55.25 53.4 56.3 52.5 57.0 51.2 M39.8 72.8 Q41.05 72.25 41.95 71.2 41.95 72.25 40.1 75.75 L39.8 72.8 M44.0 113.45 L46.05 113.05 Q45.55 115.9 44.35 117.15 L44.0 113.45 M43.6 136.35 L43.3 136.0 Q42.45 134.95 40.9 133.95 L39.4 133.05 Q41.9 133.85 43.3 133.5 L43.6 136.35 M6.0 95.1 Q11.0 91.65 12.05 91.1 12.9 90.6 13.8 90.25 16.35 89.1 18.75 89.1 23.4 89.1 25.65 90.45 28.4 92.15 29.05 96.45 27.9 95.8 26.45 95.35 21.7 93.85 13.8 94.3 L6.0 95.1 M39.6 97.75 Q38.4 97.1 37.5 95.45 L37.5 93.25 Q38.2 94.75 39.35 95.15 L39.6 97.75 M45.05 62.0 Q45.45 61.25 45.5 60.35 45.45 61.25 45.05 62.0 M60.45 91.4 Q63.45 89.95 66.8 89.95 71.0 89.95 74.55 93.7 77.05 96.35 77.75 99.3 L78.0 101.5 Q78.0 104.8 76.35 107.25 76.65 102.4 74.3 99.3 72.75 97.3 70.15 96.05 L61.55 91.9 60.45 91.4" fill="#017e01" fill-rule="evenodd" stroke="none"/>
    <path d="M32.7 50.05 L32.5 50.05 32.45 49.85 32.5 49.85 32.7 49.8 32.7 50.05" fill="#fd0b0b" fill-rule="evenodd" stroke="none"/>
    <path d="M83.85 77.15 L84.25 77.4 Q81.2 77.85 77.85 80.15 73.5 83.1 69.4 83.1 65.4 83.1 57.1 79.0 51.45 83.1 48.8 86.8 L47.35 88.6 45.75 90.8 M45.25 91.65 L44.35 93.6 Q43.15 96.55 42.55 99.5 M42.15 95.55 Q43.2 92.0 45.55 88.75 48.35 84.75 53.1 81.3 L57.15 78.7 Q57.85 73.7 61.05 71.75 63.65 70.2 69.05 70.2 72.7 70.2 76.8 72.5 L83.85 77.15 Q68.1 74.9 60.15 77.45 58.45 77.95 57.15 78.7 M59.1 24.4 L63.8 24.05 67.2 23.85 Q70.9 24.1 70.9 27.85 L70.75 29.75 Q70.5 30.15 69.25 30.15 67.15 30.15 65.1 28.5 L61.8 30.7 59.45 32.45 Q58.7 33.2 58.7 36.25 L58.5 45.05 Q58.35 48.8 57.0 51.2 L58.5 51.55 61.8 53.05 63.85 54.3 Q56.1 55.1 52.6 58.55 50.3 60.8 49.35 61.35 47.45 62.5 45.05 62.0 43.8 64.45 39.0 64.9 L38.15 65.0 36.65 65.0 36.25 65.0 36.2 65.0 Q31.55 64.9 30.15 62.55 M39.8 72.8 Q41.05 72.25 41.95 71.2 41.95 72.25 40.1 75.75 M44.0 113.45 L46.05 113.05 Q45.55 115.9 44.35 117.15 M46.95 142.4 L44.6 145.9 43.6 136.35 43.3 136.0 Q42.45 134.95 40.9 133.95 L39.4 133.05 Q41.9 133.85 43.3 133.5 L41.1 112.3 M40.65 107.7 L39.6 97.75 Q38.4 97.1 37.5 95.45 L37.5 93.25 Q38.2 94.75 39.35 95.15 L36.25 65.0 M17.1 48.7 Q14.5 48.6 12.4 47.6 8.6 45.75 6.3 40.95 L2.85 34.9 Q0.0 29.4 0.0 26.35 0.0 25.45 0.15 24.65 0.55 22.3 2.1 20.45 L5.55 16.55 Q6.9 14.3 7.65 11.3 8.45 9.45 11.6 9.45 L15.1 9.7 15.0 8.55 Q15.0 6.2 16.55 4.35 L16.85 4.05 Q18.4 2.4 20.5 2.4 21.65 2.4 23.65 3.2 25.6 3.95 26.8 3.95 28.5 3.95 30.2 2.0 31.9 0.0 34.55 0.0 37.2 0.0 39.9 1.8 42.6 3.55 43.85 3.55 L47.55 3.0 Q51.05 3.0 52.7 7.45 54.05 11.1 53.8 16.15 53.55 21.0 53.85 26.05 L54.1 26.15 Q55.8 24.65 57.55 24.35 L58.5 24.25 58.7 24.3 59.1 24.4 Q61.55 24.95 64.05 27.5 L65.1 28.5 M40.7 10.1 L41.4 8.25 Q43.05 8.85 44.45 10.35 46.1 12.1 46.1 13.75 46.1 16.0 44.9 18.4 L44.55 19.1 45.65 21.35 47.15 24.6 49.65 24.9 M17.7 13.4 Q18.4 15.3 19.55 17.0 L19.7 14.95 Q19.7 12.7 19.85 11.95 20.1 9.85 24.6 9.85 L25.1 9.85 Q26.75 9.9 27.95 10.45 L29.65 7.65 Q31.2 5.9 34.25 5.9 35.9 5.9 37.6 7.1 L38.8 8.1 40.7 10.1 39.15 12.95 37.0 16.0 32.7 21.6 Q34.65 20.5 36.95 20.3 39.8 20.1 41.0 19.3 41.9 18.7 44.9 18.4 M47.15 24.6 L45.3 24.5 44.15 24.45 31.1 24.0 30.9 24.0 27.0 23.85 24.45 23.65 Q15.75 22.8 15.8 18.95 L15.3 12.85 Q12.25 13.75 11.2 16.4 10.65 17.8 10.65 19.7 10.65 21.95 12.35 23.5 L12.5 23.65 Q14.0 24.95 15.95 24.85 15.55 26.9 17.55 27.9 19.4 28.8 23.35 28.8 28.25 28.8 29.65 28.2 L36.05 28.8 Q38.85 28.8 40.45 28.0 L41.1 27.8 Q42.7 27.25 45.5 27.2 L52.95 27.2 53.85 26.35 53.85 26.05 Q52.2 25.25 49.65 24.9 M59.1 24.4 L57.55 24.35 M51.8 29.75 Q51.8 28.5 52.95 27.2 M53.85 26.35 L54.0 26.2 54.1 26.15 M32.7 49.8 Q35.1 49.05 37.45 47.35 40.95 44.75 42.55 41.4 43.4 39.5 45.4 38.5 48.7 36.75 50.05 35.65 51.9 34.1 52.05 32.65 L51.8 29.75 M33.9 53.8 Q35.25 56.1 37.85 56.95 L43.7 59.35 45.5 60.1 45.75 60.2 Q52.2 56.0 55.25 53.4 56.3 52.5 57.0 51.2 M36.5 10.1 L37.6 7.1 M27.95 10.45 L28.6 10.75 29.7 11.65 31.9 13.9 30.95 14.2 Q26.8 15.8 26.8 18.7 26.8 20.05 27.15 21.2 L28.3 22.05 30.95 23.95 30.9 24.0 M36.5 10.1 L35.05 13.2 39.15 12.95 M27.0 23.85 Q23.8 21.7 21.8 19.7 L20.05 17.75 19.55 17.0 M33.5 13.45 L31.9 13.9 M33.5 13.45 L35.05 13.2 M32.7 21.6 L32.2 22.25 30.95 23.95 31.1 24.0 M17.7 13.4 Q16.55 10.15 16.55 6.25 L16.75 4.4 16.85 4.05 M11.2 16.4 Q9.1 16.45 7.95 17.25 6.95 17.95 6.0 20.25 5.0 22.5 3.7 23.4 2.35 24.35 0.15 24.65 M15.3 12.85 L15.1 9.7 M17.55 27.9 L17.55 32.3 Q18.2 39.05 18.95 43.4 L19.6 46.75 M33.9 53.8 Q33.0 52.25 32.7 50.05 L32.5 50.05 Q32.15 52.85 31.0 55.6 L30.75 56.2 Q29.55 58.9 29.55 60.15 29.55 61.55 30.15 62.55 M32.7 50.05 L32.7 49.8 32.5 49.85 32.45 49.85 29.35 50.25 19.4 49.85 15.85 49.95 M39.35 95.15 L39.6 97.75 M45.5 60.1 L45.5 60.35 45.75 60.2 M45.5 60.35 Q45.45 61.25 45.05 62.0 M43.3 133.5 L43.6 136.35" fill="none" stroke="#000000" stroke-linecap="round" stroke-linejoin="round" stroke-width="1.0"/>
    <path d="M46.75 89.5 L52.4 89.1 Q55.55 89.05 60.45 91.35 M60.1 91.65 Q53.8 89.85 51.2 90.15 L47.9 90.5 Q47.2 90.5 45.25 91.65 M39.0 64.9 L39.8 72.8 M40.1 75.75 L44.0 113.45 M44.35 117.15 L46.95 142.4 M41.1 112.3 L40.1 109.35 39.1 107.3 37.5 105.0 36.25 103.45 Q33.9 100.25 29.05 96.7 21.9 100.25 18.45 100.25 16.15 100.25 13.8 99.2 L11.15 97.7 Q8.25 95.7 5.65 95.35 M6.0 95.1 Q11.0 91.65 12.05 91.1 12.9 90.6 13.8 90.25 16.35 89.1 18.75 89.1 23.4 89.1 25.65 90.45 28.4 92.15 29.05 96.45 L32.55 98.7 Q36.6 101.7 39.05 105.1 L40.65 107.7 M30.15 62.55 L27.9 62.1 Q21.85 60.75 19.65 59.4 14.8 56.45 14.8 52.1 14.8 51.2 15.85 49.95 L17.1 48.7 M51.8 29.75 Q36.8 37.05 29.55 40.85 23.2 44.2 19.6 46.75 18.1 47.75 17.1 48.7 M29.05 96.45 Q27.9 95.8 26.45 95.35 21.7 93.85 13.8 94.3 L6.0 95.1 M40.1 75.75 L39.8 72.8 M76.35 107.25 Q78.0 104.8 78.0 101.5 L77.75 99.3 Q77.05 96.35 74.55 93.7 71.0 89.95 66.8 89.95 63.45 89.95 60.45 91.4 M61.55 91.9 L70.15 96.05 Q72.75 97.3 74.3 99.3 76.65 102.4 76.35 107.25 L76.25 107.45 74.55 109.25 74.55 108.7 Q74.55 106.1 73.55 103.35 72.9 102.85 72.2 102.5 L70.5 101.75 66.1 100.0 Q62.4 98.65 61.3 96.55 60.65 95.35 60.45 91.75 L61.55 91.9 M76.25 107.45 L76.2 107.35 Q74.75 104.25 73.55 103.35 M44.35 117.15 L44.0 113.45" fill="none" stroke="#000000" stroke-linecap="round" stroke-linejoin="round" stroke-width="1.0"/>
  </g>
  <defs>
    <radialGradient cx="0" cy="0" gradientTransform="matrix(1.0, 0.0, 0.0, 1.0, -242.6, -103.2)" gradientUnits="userSpaceOnUse" id="gradient0" r="819.2" spreadMethod="pad">
      <stop offset="0.0" stop-color="#fe8856"/>
      <stop offset="1.0" stop-color="#febda3"/>
    </radialGradient>
  </defs>
</svg>
