<?xml version="1.0" encoding="UTF-8" standalone="no"?>
<svg xmlns:xlink="http://www.w3.org/1999/xlink" height="180.65px" width="167.6px" xmlns="http://www.w3.org/2000/svg">
  <g transform="matrix(1.0, 0.0, 0.0, 1.0, 0.45, 0.5)">
    <path d="M40.8 24.15 L44.5 28.4 Q48.5 32.45 56.3 37.5 L69.2 45.7 Q85.3 55.85 102.6 81.05 119.9 106.25 136.15 131.95 L166.65 179.65 164.15 179.1 134.8 133.15 Q118.55 107.45 101.25 82.25 83.95 57.05 67.85 46.9 L54.95 38.7 Q47.15 33.65 43.15 29.6 L39.45 25.35 35.75 19.6 36.5 19.6 37.0 19.8 Q37.5 21.15 38.9 22.55 L40.8 24.15 M15.95 1.45 Q18.2 -0.9 21.35 0.6 24.95 1.65 32.75 13.0 L34.9 15.95 Q37.85 14.15 39.45 13.75 L43.15 13.45 Q45.3 13.6 48.55 14.95 51.75 16.3 59.6 20.95 67.85 25.45 73.15 25.6 L81.2 25.6 76.55 27.15 72.45 27.05 Q67.15 26.9 58.9 22.4 51.05 17.75 47.85 16.4 44.6 15.05 42.45 14.9 L38.75 15.2 Q37.15 15.6 34.2 17.4 L32.05 14.45 Q24.25 3.1 20.65 2.05 L16.55 1.9 15.95 1.45" fill="#ffffff" fill-rule="evenodd" stroke="none"/>
    <path d="M36.8 18.65 L36.7 18.8 36.75 18.65 36.8 18.65" fill="#99cc00" fill-rule="evenodd" stroke="none"/>
    <path d="M15.7 4.0 Q15.7 4.95 14.95 5.65 14.25 6.4 13.25 6.45 12.25 6.4 11.5 5.65 10.8 4.95 10.8 4.0 10.8 3.0 11.5 2.2 12.25 1.5 13.25 1.5 14.25 1.5 14.95 2.2 L15.35 2.75 Q15.7 3.3 15.7 4.0 M14.1 3.05 Q13.7 2.7 13.25 2.7 12.75 2.7 12.35 3.05 12.0 3.45 12.0 3.95 12.0 4.45 12.35 4.8 12.75 5.15 13.25 5.2 L14.1 4.8 14.45 3.95 14.3 3.35 14.1 3.05" fill="#cc9900" fill-rule="evenodd" stroke="none"/>
    <path d="M16.05 25.7 Q16.8 25.55 17.5 26.35 18.15 27.15 18.0 28.5 17.85 29.85 16.95 30.65 13.1 33.9 8.0 28.7 L9.65 29.15 10.8 30.25 13.3 30.6 Q14.15 30.6 14.9 30.0 L15.75 29.5 15.95 28.7 16.05 28.1 16.05 28.0 Q16.0 28.2 15.6 28.2 15.0 28.2 15.0 26.95 15.0 26.2 16.05 25.7 M6.95 30.7 L7.65 28.95 Q8.75 36.1 3.85 37.25 2.65 37.5 1.5 36.85 0.3 36.1 0.1 35.1 -0.3 33.45 1.6 33.0 L2.55 32.95 2.6 33.7 Q2.6 34.65 1.4 34.7 2.05 35.8 3.6 35.8 4.7 35.8 5.75 34.45 6.9 32.95 6.95 30.7" fill="#ffff00" fill-rule="evenodd" stroke="none"/>
    <path d="M37.0 19.8 L36.5 19.6 35.75 19.6 39.45 25.35 43.15 29.6 Q47.15 33.65 54.95 38.7 L67.85 46.9 Q83.95 57.05 101.25 82.25 118.55 107.45 134.8 133.15 L164.15 179.1 163.05 178.85 146.6 154.1 122.9 116.6 Q107.15 91.4 98.0 78.9 84.75 60.85 76.7 56.75 73.2 54.95 51.4 45.45 38.8 39.95 33.95 34.75 29.05 29.5 25.9 16.7 23.5 7.1 16.55 1.9 L20.65 2.05 Q24.25 3.1 32.05 14.45 L34.2 17.4 Q37.15 15.6 38.75 15.2 L42.45 14.9 Q44.6 15.05 47.85 16.4 51.05 17.75 58.9 22.4 67.15 26.9 72.45 27.05 L76.55 27.15 68.65 28.0 Q62.3 27.9 55.75 26.0 49.2 24.1 46.35 22.9 L41.0 20.7 Q38.55 19.65 36.8 18.65 L36.75 18.65 36.7 18.8 37.0 19.8" fill="#ffcc00" fill-rule="evenodd" stroke="none"/>
    <path d="M16.05 25.7 Q15.0 26.2 15.0 26.95 15.0 28.2 15.6 28.2 16.0 28.2 16.05 28.0 L16.05 28.1 15.95 28.7 15.75 29.5 14.9 30.0 Q14.15 30.6 13.3 30.6 L10.8 30.25 9.65 29.15 11.45 29.55 Q13.9 29.65 14.8 28.8 L14.65 28.6 Q13.6 27.4 14.9 26.3 15.5 25.8 16.05 25.7 M2.55 32.95 Q3.35 33.15 3.6 34.2 L3.65 34.45 Q4.9 34.25 6.25 32.2 L6.95 30.7 Q6.9 32.95 5.75 34.45 4.7 35.8 3.6 35.8 2.05 35.8 1.4 34.7 2.6 34.65 2.6 33.7 L2.55 32.95" fill="#ff9900" fill-rule="evenodd" stroke="none"/>
    <path d="M40.8 24.15 L38.9 22.55 Q37.5 21.15 37.0 19.8 L36.7 18.8 36.8 18.65 Q38.55 19.65 41.0 20.7 L46.35 22.9 Q49.2 24.1 55.75 26.0 62.3 27.9 68.65 28.0 L76.55 27.15 81.2 25.6 84.45 25.45 80.5 27.05 79.4 27.45 Q72.15 29.95 65.3 29.65 58.4 29.3 51.8 27.6 45.0 25.3 39.8 22.85 L40.8 24.15 M163.05 178.85 L160.05 178.15 144.6 154.7 120.9 117.2 Q105.15 92.0 96.0 79.5 82.75 61.45 74.7 57.35 71.2 55.55 49.4 46.05 36.8 40.55 31.95 35.35 27.05 30.1 23.9 17.3 20.9 5.25 16.3 2.1 L16.25 2.05 15.85 1.55 15.95 1.45 16.55 1.9 Q23.5 7.1 25.9 16.7 29.05 29.5 33.95 34.75 38.8 39.95 51.4 45.45 73.2 54.95 76.7 56.75 84.75 60.85 98.0 78.9 107.15 91.4 122.9 116.6 L146.6 154.1 163.05 178.85" fill="#ff6600" fill-rule="evenodd" stroke="none"/>
    <path d="M164.15 179.1 L166.65 179.65 136.15 131.95 Q119.9 106.25 102.6 81.05 85.3 55.85 69.2 45.7 L56.3 37.5 Q48.5 32.45 44.5 28.4 L40.8 24.15 M164.15 179.1 L163.05 178.85 160.05 178.15 M15.7 1.7 L15.85 1.55 15.95 1.45 Q18.2 -0.9 21.35 0.6 24.95 1.65 32.75 13.0 L34.9 15.95 Q37.85 14.15 39.45 13.75 L43.15 13.45 Q45.3 13.6 48.55 14.95 51.75 16.3 59.6 20.95 67.85 25.45 73.15 25.6 L81.2 25.6 84.45 25.45 80.5 27.05 79.4 27.45 Q72.15 29.95 65.3 29.65 58.4 29.3 51.8 27.6 45.0 25.3 39.8 22.85 L40.8 24.15" fill="none" stroke="#003300" stroke-linecap="round" stroke-linejoin="round" stroke-width="1.0"/>
    <path d="M160.05 178.15 L144.6 154.7 120.9 117.2 Q105.15 92.0 96.0 79.5 82.75 61.45 74.7 57.35 71.2 55.55 49.4 46.05 36.8 40.55 31.95 35.35 27.05 30.1 23.9 17.3 20.9 5.25 16.3 2.1 M16.25 2.05 L15.7 1.7" fill="none" stroke="#003300" stroke-linecap="round" stroke-linejoin="round" stroke-width="1.0"/>
    <path d="M15.7 4.0 Q15.7 4.95 14.95 5.65 14.25 6.4 13.25 6.45 12.25 6.4 11.5 5.65 10.8 4.95 10.8 4.0 10.8 3.0 11.5 2.2 12.25 1.5 13.25 1.5 14.25 1.5 14.95 2.2 L15.35 2.75 Q15.7 3.3 15.7 4.0 M14.1 3.05 L14.3 3.35 14.45 3.95 14.1 4.8 13.25 5.2 Q12.75 5.15 12.35 4.8 12.0 4.45 12.0 3.95 12.0 3.45 12.35 3.05 12.75 2.7 13.25 2.7 13.7 2.7 14.1 3.05 M9.6 8.8 Q6.45 14.1 6.45 20.65 6.45 26.3 8.6 30.65 9.95 33.35 13.4 37.3 16.9 41.4 18.15 43.75 19.55 46.45 20.05 49.6" fill="none" stroke="#663300" stroke-linecap="round" stroke-linejoin="round" stroke-width="1.0"/>
    <path d="M9.65 29.15 L8.0 28.7 Q13.1 33.9 16.95 30.65 17.85 29.85 18.0 28.5 18.15 27.15 17.5 26.35 16.8 25.55 16.05 25.7 M9.65 29.15 L11.45 29.55 Q13.9 29.65 14.8 28.8 L14.65 28.6 Q13.6 27.4 14.9 26.3 15.5 25.8 16.05 25.7 M6.95 30.7 L7.65 28.95 Q8.75 36.1 3.85 37.25 2.65 37.5 1.5 36.85 0.3 36.1 0.1 35.1 -0.3 33.45 1.6 33.0 L2.55 32.95 Q3.35 33.15 3.6 34.2 L3.65 34.45 Q4.9 34.25 6.25 32.2 L6.95 30.7 M7.3 39.85 L9.5 43.35 Q11.45 46.95 11.45 50.55 M18.3 33.9 Q21.05 35.8 23.65 40.7 L25.3 44.35" fill="none" stroke="#663300" stroke-linecap="round" stroke-linejoin="round" stroke-width="1.0"/>
  </g>
</svg>
