<?xml version="1.0" encoding="UTF-8" standalone="no"?>
<svg xmlns:xlink="http://www.w3.org/1999/xlink" height="4.1px" width="4.1px" xmlns="http://www.w3.org/2000/svg">
  <g transform="matrix(1.0, 0.0, 0.0, 1.0, 0.0, 0.0)">
    <path d="M3.45 1.55 Q3.45 2.45 2.55 2.45 1.65 2.45 1.65 1.55 1.65 0.65 2.6 0.65 3.3 0.65 3.45 1.55" fill="#ffffff" fill-rule="evenodd" stroke="none"/>
    <path d="M3.45 1.55 Q3.3 0.65 2.6 0.65 1.65 0.65 1.65 1.55 1.65 2.45 2.55 2.45 3.45 2.45 3.45 1.55 M4.1 2.05 Q4.1 2.9 3.5 3.5 2.9 4.1 2.05 4.1 1.2 4.1 0.6 3.5 0.0 2.9 0.0 2.05 0.0 1.2 0.6 0.6 1.2 0.0 2.05 0.0 2.9 0.0 3.5 0.6 4.1 1.2 4.1 2.05" fill="url(#gradient0)" fill-rule="evenodd" stroke="none"/>
  </g>
  <defs>
    <radialGradient cx="0" cy="0" gradientTransform="matrix(0.0032, 0.0, 0.0, 0.0032, 2.05, 2.05)" gradientUnits="userSpaceOnUse" id="gradient0" r="819.2" spreadMethod="pad">
      <stop offset="0.0" stop-color="#ffcc00"/>
      <stop offset="1.0" stop-color="#993300"/>
    </radialGradient>
  </defs>
</svg>
