<?xml version="1.0" encoding="UTF-8" standalone="no"?>
<svg xmlns:xlink="http://www.w3.org/1999/xlink" height="10.15px" width="7.1px" xmlns="http://www.w3.org/2000/svg">
  <g transform="matrix(1.0, 0.0, 0.0, 1.0, -0.05, 0.0)">
    <path d="M2.55 6.2 L5.05 4.05 Q4.15 5.9 3.15 6.75 L2.55 6.75 2.55 6.2 M1.8 7.3 L2.0 6.85 2.15 6.85 2.65 7.45 1.8 7.7 1.8 7.3" fill="#ffffff" fill-rule="evenodd" stroke="none"/>
    <path d="M0.3 10.0 Q2.35 9.75 3.7 8.65 5.0 7.55 5.35 6.1 L6.4 2.35 4.4 6.1 Q4.05 6.85 2.85 7.6 L1.0 8.9 2.2 5.45 3.75 4.0 Q5.5 2.6 6.4 1.3 L7.05 0.0 7.1 0.2 7.15 0.45 7.15 0.55 Q7.15 3.5 5.95 6.35 4.75 9.2 2.0 9.95 L0.3 10.0 M1.8 7.3 L1.8 7.7 2.65 7.45 2.15 6.85 2.0 6.85 1.8 7.3 M2.55 6.2 L2.55 6.75 3.15 6.75 Q4.15 5.9 5.05 4.05 L2.55 6.2" fill="#ffcc00" fill-rule="evenodd" stroke="none"/>
    <path d="M2.2 5.45 L1.0 8.9 2.85 7.6 Q4.05 6.85 4.4 6.1 L6.4 2.35 5.35 6.1 Q5.0 7.55 3.7 8.65 2.35 9.75 0.3 10.0 -0.25 9.6 0.35 8.3 1.0 6.75 2.2 5.45" fill="#ff9900" fill-rule="evenodd" stroke="none"/>
  </g>
</svg>
