<?xml version="1.0" encoding="UTF-8" standalone="no"?>
<svg xmlns:xlink="http://www.w3.org/1999/xlink" height="75.95px" width="79.85px" xmlns="http://www.w3.org/2000/svg">
  <g transform="matrix(1.0, 0.0, 0.0, 1.0, 0.0, 0.0)">
    <path d="M74.7 5.15 Q77.7 8.2 78.95 11.95 79.8 14.45 79.85 17.25 L79.85 59.5 Q79.6 63.1 78.05 66.2 77.0 68.25 75.35 70.1 L74.7 70.8 Q69.6 75.8 62.5 75.95 L62.15 75.95 17.75 75.95 17.4 75.95 Q11.85 75.85 7.55 72.8 L7.35 72.65 5.95 71.5 5.9 71.45 5.2 70.8 4.55 70.1 4.35 69.85 Q3.1 68.45 2.25 66.9 0.3 63.5 0.05 59.4 L0.0 17.25 Q0.05 14.45 0.95 11.95 2.2 8.2 5.2 5.15 10.3 0.1 17.4 0.0 L17.75 0.0 62.15 0.0 62.5 0.0 Q68.95 0.1 73.8 4.3 L74.15 4.65 74.45 4.95 74.5 5.0 74.7 5.15 M68.75 10.45 L68.45 10.2 68.15 9.9 Q64.15 6.4 58.75 6.35 L58.45 6.35 21.45 6.35 21.15 6.35 Q15.25 6.45 11.0 10.65 8.5 13.15 7.45 16.3 6.75 18.35 6.7 20.7 L6.7 55.8 6.75 56.5 Q7.05 59.5 8.55 62.05 L10.3 64.55 10.45 64.75 11.0 65.3 11.6 65.9 11.65 65.9 12.8 66.9 13.0 67.0 Q16.55 69.5 21.15 69.6 L21.45 69.6 58.45 69.6 58.75 69.6 Q64.65 69.5 68.9 65.3 L69.45 64.75 Q70.85 63.2 71.7 61.5 72.95 59.05 73.2 56.25 L73.2 55.9 73.25 20.7 Q73.15 18.35 72.45 16.3 71.4 13.15 68.9 10.65 L68.75 10.5 68.75 10.45 M2.65 60.45 L2.7 61.0 2.7 59.95 2.65 60.45 M77.2 60.55 L77.15 60.05 77.15 61.1 77.2 60.55" fill="#b8b872" fill-rule="evenodd" stroke="none"/>
    <path d="M68.4 10.25 L68.75 10.45 68.65 10.55 Q70.7 13.15 71.35 16.3 L71.7 19.1 71.7 54.8 71.65 54.8 Q71.15 59.95 67.4 63.8 L66.35 64.75 Q62.4 68.0 57.25 68.1 L56.95 68.1 19.95 68.1 19.65 68.1 Q15.25 68.0 11.8 65.7 L11.1 64.75 Q8.65 61.25 8.55 56.8 L8.55 22.15 Q8.6 18.95 9.9 16.3 10.95 14.05 12.85 12.15 17.05 7.95 23.0 7.85 L23.3 7.85 60.3 7.85 60.6 7.85 Q64.95 7.95 68.4 10.25" fill="#e3e3c7" fill-rule="evenodd" stroke="none"/>
    <path d="M68.75 10.45 L68.4 10.25 68.45 10.2 68.75 10.45 M11.8 65.7 L12.85 66.85 12.8 66.9 11.65 65.9 11.8 65.7" fill="#d8d8b1" fill-rule="evenodd" stroke="none"/>
    <path d="M11.8 65.7 Q15.25 68.0 19.65 68.1 L19.95 68.1 56.95 68.1 57.25 68.1 Q62.4 68.0 66.35 64.75 L67.4 63.8 Q71.15 59.95 71.65 54.8 L71.7 54.8 71.7 19.1 71.35 16.3 Q70.7 13.15 68.65 10.55 L68.75 10.5 68.9 10.65 Q71.4 13.15 72.45 16.3 73.15 18.35 73.25 20.7 L73.2 55.9 73.2 56.25 Q72.95 59.05 71.7 61.5 70.85 63.2 69.45 64.75 L68.9 65.3 Q64.65 69.5 58.75 69.6 L58.45 69.6 21.45 69.6 21.15 69.6 Q16.55 69.5 13.0 67.0 L12.85 66.85 11.8 65.7" fill="#ffffff" fill-rule="evenodd" stroke="none"/>
    <path d="M68.65 10.55 L68.75 10.45 68.75 10.5 68.65 10.55" fill="url(#gradient0)" fill-rule="evenodd" stroke="none"/>
    <path d="M68.4 10.25 Q64.95 7.95 60.6 7.85 L60.3 7.85 23.3 7.85 23.0 7.85 Q17.05 7.95 12.85 12.15 10.95 14.05 9.9 16.3 8.6 18.95 8.55 22.15 L8.55 56.8 Q8.65 61.25 11.1 64.75 L11.8 65.7 11.6 65.9 11.0 65.3 10.45 64.75 10.3 64.55 8.55 62.05 Q7.05 59.5 6.75 56.5 L6.7 55.8 6.7 20.7 Q6.75 18.35 7.45 16.3 8.5 13.15 11.0 10.65 15.25 6.45 21.15 6.35 L21.45 6.35 58.45 6.35 58.75 6.35 Q64.15 6.4 68.15 9.9 L68.45 10.2 68.4 10.25" fill="#9c9b52" fill-rule="evenodd" stroke="none"/>
    <path d="M2.65 60.45 L2.7 59.95 2.7 61.0 2.65 60.45 M77.2 60.55 L77.15 61.1 77.15 60.05 77.2 60.55" fill="#ffcc00" fill-rule="evenodd" stroke="none"/>
    <path d="M11.6 65.9 L11.8 65.7 11.65 65.9 11.6 65.9" fill="#cccc99" fill-rule="evenodd" stroke="none"/>
    <path d="M12.85 66.85 L13.0 67.0 12.8 66.9 12.85 66.85" fill="url(#gradient1)" fill-rule="evenodd" stroke="none"/>
  </g>
  <defs>
    <radialGradient cx="0" cy="0" gradientTransform="matrix(0.763, 0.0, 0.0, 0.763, -32.5, -4.95)" gradientUnits="userSpaceOnUse" id="gradient0" r="819.2" spreadMethod="pad">
      <stop offset="0.0" stop-color="#ffffff"/>
      <stop offset="1.0" stop-color="#cccc99"/>
    </radialGradient>
    <radialGradient cx="0" cy="0" gradientTransform="matrix(0.763, 0.0, 0.0, 0.763, -32.5, -46.5)" gradientUnits="userSpaceOnUse" id="gradient1" r="819.2" spreadMethod="pad">
      <stop offset="0.0" stop-color="#ffffff"/>
      <stop offset="1.0" stop-color="#cccc99"/>
    </radialGradient>
  </defs>
</svg>
