<?xml version="1.0" encoding="UTF-8" standalone="no"?>
<svg xmlns:xlink="http://www.w3.org/1999/xlink" height="79.65px" width="132.4px" xmlns="http://www.w3.org/2000/svg">
  <g transform="matrix(1.0, 0.0, 0.0, 1.0, 0.5, 0.5)">
    <path d="M106.7 11.95 L105.8 11.55 Q93.6 6.4 77.7 4.9 78.95 4.85 82.65 3.2 L88.2 4.35 Q93.5 5.6 95.6 6.5 97.95 7.5 101.9 8.7 103.95 9.7 106.7 11.95 M54.45 4.55 L50.6 5.45 38.2 8.05 28.35 9.7 Q39.85 5.55 54.45 4.55 M9.9 47.9 Q18.9 57.2 40.9 62.95 L44.6 65.9 Q23.65 64.4 7.25 48.2 L9.9 47.9 M78.15 56.45 L80.25 56.5 Q83.75 57.1 86.9 58.2 82.95 59.3 80.0 59.5 76.4 59.4 74.1 59.6 L73.65 59.65 Q43.75 57.1 22.8 46.85 47.65 55.9 78.15 56.45" fill="#ffffff" fill-rule="evenodd" stroke="none"/>
    <path d="M99.65 24.75 Q85.1 17.9 65.05 17.85 45.0 17.8 31.5 23.9 17.95 30.0 14.25 38.4 18.4 42.85 26.4 46.5 42.4 53.75 65.95 53.75 89.5 53.75 105.7 46.5 112.8 43.3 116.85 39.55 114.2 31.55 99.65 24.75 M77.7 4.9 Q93.6 6.4 105.8 11.55 L106.7 11.95 Q103.95 9.7 101.9 8.7 97.95 7.5 95.6 6.5 93.5 5.6 88.2 4.35 L82.65 3.2 Q78.95 4.85 77.7 4.9 L65.55 4.25 54.45 4.55 65.55 4.25 77.7 4.9 M28.35 9.7 L38.2 8.05 50.6 5.45 54.45 4.55 Q39.85 5.55 28.35 9.7 L25.4 10.85 Q8.8 17.7 9.6 28.45 9.95 33.85 14.25 38.4 9.95 33.85 9.6 28.45 8.8 17.7 25.4 10.85 L28.35 9.7 M131.4 39.15 Q131.05 55.5 112.2 67.1 93.25 78.65 65.8 78.65 38.35 78.65 19.65 67.1 0.9 55.5 0.05 38.45 -0.85 21.4 18.5 10.5 37.85 -0.4 65.35 0.0 92.85 0.4 112.3 11.6 131.7 22.8 131.4 39.15 M116.85 39.55 Q122.0 34.7 122.15 28.9 122.4 18.9 106.7 11.95 122.4 18.9 122.15 28.9 122.0 34.7 116.85 39.55 M9.9 47.9 L7.25 48.2 Q23.65 64.4 44.6 65.9 L40.9 62.95 Q18.9 57.2 9.9 47.9 M78.15 56.45 Q47.65 55.9 22.8 46.85 43.75 57.1 73.65 59.65 L74.1 59.6 Q76.4 59.4 80.0 59.5 82.95 59.3 86.9 58.2 83.75 57.1 80.25 56.5 L78.15 56.45" fill="url(#gradient0)" fill-rule="evenodd" stroke="none"/>
    <path d="M99.65 24.75 Q85.1 17.9 65.05 17.85 45.0 17.8 31.5 23.9 17.95 30.0 14.25 38.4 18.4 42.85 26.4 46.5 42.4 53.75 65.95 53.75 89.5 53.75 105.7 46.5 112.8 43.3 116.85 39.55 114.2 31.55 99.65 24.75 M77.7 4.9 Q93.6 6.4 105.8 11.55 L106.7 11.95 Q122.4 18.9 122.15 28.9 122.0 34.7 116.85 39.55 M77.7 4.9 L65.55 4.25 54.45 4.55 Q39.85 5.55 28.35 9.7 L25.4 10.85 Q8.8 17.7 9.6 28.45 9.95 33.85 14.25 38.4 M131.4 39.15 Q131.05 55.5 112.2 67.1 93.25 78.65 65.8 78.65 38.35 78.65 19.65 67.1 0.9 55.5 0.05 38.45 -0.85 21.4 18.5 10.5 37.85 -0.4 65.35 0.0 92.85 0.4 112.3 11.6 131.7 22.8 131.4 39.15" fill="none" stroke="#000000" stroke-linecap="round" stroke-linejoin="round" stroke-width="1.0"/>
  </g>
  <defs>
    <radialGradient cx="0" cy="0" gradientTransform="matrix(0.0815, 0.0, 0.0, 0.0815, 65.7, 39.3)" gradientUnits="userSpaceOnUse" id="gradient0" r="819.2" spreadMethod="pad">
      <stop offset="0.0" stop-color="#ffffff"/>
      <stop offset="1.0" stop-color="#99cccc"/>
    </radialGradient>
  </defs>
</svg>
