<?xml version="1.0" encoding="UTF-8" standalone="no"?>
<svg xmlns:xlink="http://www.w3.org/1999/xlink" height="76.15px" width="56.7px" xmlns="http://www.w3.org/2000/svg">
  <g transform="matrix(1.0, 0.0, 0.0, 1.0, 0.0, 0.0)">
    <path d="M18.8 7.1 L21.5 9.05 Q25.65 7.7 30.4 7.7 L36.55 8.3 35.45 5.05 Q43.65 6.45 49.9 12.55 L51.75 14.55 Q50.65 15.15 49.85 15.15 L49.75 15.15 Q49.35 12.6 48.4 12.6 48.1 12.6 48.1 12.85 L49.2 15.1 48.65 14.75 Q48.5 14.25 47.25 14.25 46.15 15.9 45.15 15.9 L44.75 15.25 Q44.45 14.6 43.4 14.6 L42.55 15.4 Q41.75 16.2 40.1 16.25 L39.75 15.35 Q39.4 14.45 36.55 14.45 35.95 14.45 35.95 15.1 L35.85 15.9 Q36.5 14.9 38.95 14.9 L39.2 15.8 Q39.4 16.7 41.75 16.7 L42.7 15.9 Q43.5 15.05 44.1 15.1 L45.15 16.3 Q46.15 16.3 46.6 15.55 47.05 14.8 47.7 14.8 48.15 14.8 48.35 15.25 L49.35 15.6 49.6 18.05 49.35 19.85 48.3 20.3 Q44.85 21.7 44.85 22.8 44.85 23.55 45.6 24.3 46.25 25.0 46.3 25.6 45.4 26.25 44.6 27.25 42.9 29.35 42.9 32.2 L46.1 35.3 45.75 36.9 Q45.75 38.3 47.05 39.65 43.05 40.35 42.2 41.15 37.9 44.95 30.95 46.05 L26.25 46.45 26.25 46.4 Q27.0 44.55 28.55 43.2 29.6 42.2 29.6 40.8 29.6 40.2 28.6 38.55 L28.15 37.7 Q27.6 36.65 27.6 35.9 27.6 35.2 29.0 34.15 L28.25 34.0 Q27.2 34.0 27.2 35.95 L27.25 36.35 27.1 36.35 24.8 41.15 Q23.55 43.15 21.75 43.8 20.5 44.25 20.5 45.6 L20.5 46.55 20.45 46.55 19.9 46.2 Q12.2 41.3 11.8 41.3 L9.85 42.25 9.9 42.05 8.9 39.15 Q8.9 38.55 10.25 37.55 11.55 36.5 11.55 35.9 L11.1 34.8 12.6 34.5 13.1 34.0 12.6 33.8 10.65 34.05 10.15 33.35 Q8.7 31.45 8.75 30.6 L9.3 28.15 12.0 27.95 12.05 27.6 Q11.1 26.95 10.15 26.95 8.95 26.85 8.85 28.0 L8.7 28.9 Q8.3 29.75 8.3 30.6 8.3 31.6 9.75 33.45 L10.2 34.05 8.5 34.15 6.7 34.45 Q5.1 32.3 3.9 32.3 3.5 32.3 2.85 32.8 L2.85 31.65 Q2.85 25.3 5.45 20.0 L7.75 20.05 9.05 19.3 Q10.45 18.55 11.15 18.55 L11.55 19.4 11.85 19.8 Q11.6 20.3 11.65 21.05 11.6 21.65 12.35 22.4 L12.65 23.35 Q12.85 23.95 13.85 24.0 L15.7 23.6 Q18.2 23.6 18.5 24.4 L18.5 25.8 19.95 27.0 Q21.2 28.05 21.2 28.5 21.2 29.85 18.35 32.85 20.6 34.25 22.6 35.25 L18.9 32.6 Q21.65 29.95 21.65 28.5 21.65 27.75 20.7 27.3 19.5 26.65 18.95 25.75 L18.8 24.15 Q18.4 23.1 15.55 23.1 15.3 23.55 13.4 23.6 L12.05 21.05 12.65 20.1 14.05 20.2 14.7 19.5 Q15.05 18.75 15.8 18.75 16.2 18.75 16.5 19.5 16.75 20.15 17.55 20.15 18.35 20.15 19.8 18.95 21.3 17.7 22.45 17.75 L22.95 18.65 Q23.3 19.5 23.7 19.5 24.8 19.45 25.4 18.65 L25.5 19.25 Q25.65 19.65 26.3 19.65 26.85 19.65 27.4 19.25 29.05 20.0 31.2 20.0 L31.45 19.85 31.4 19.75 28.05 18.8 29.6 18.95 Q30.6 19.15 32.4 18.95 34.45 18.75 35.2 18.05 35.55 17.7 35.7 16.8 34.75 18.55 29.7 18.6 L27.8 18.75 Q24.55 17.45 24.05 15.4 24.35 12.05 23.1 10.75 L20.9 11.55 20.15 11.55 20.15 11.0 Q20.4 10.6 20.15 10.45 L17.15 10.35 17.75 9.15 Q17.75 8.3 16.7 8.15 17.7 7.55 18.8 7.1 M52.1 14.95 L53.95 17.5 54.55 18.5 Q56.2 21.4 56.5 24.65 L56.65 29.75 55.8 34.8 53.75 36.55 Q53.85 35.9 54.9 34.95 56.0 33.85 56.0 32.8 55.95 31.85 54.9 31.3 53.85 30.7 53.85 29.95 L53.75 26.15 Q53.1 23.85 49.6 22.65 L51.25 23.8 Q53.6 25.25 53.6 28.05 L53.45 30.35 Q53.5 31.2 54.55 31.75 55.55 32.3 55.55 32.8 55.55 33.65 54.45 34.6 53.3 35.45 53.3 36.75 L53.3 36.85 49.0 39.35 47.9 39.5 47.15 38.45 Q46.2 37.5 46.2 36.85 L46.55 35.3 Q46.55 34.55 43.35 32.15 43.3 31.05 44.05 28.9 46.65 26.2 46.65 25.65 46.65 24.95 46.0 24.1 45.3 23.3 45.3 22.8 45.3 21.8 48.8 20.55 L49.05 20.45 Q48.9 20.95 48.9 21.65 48.85 21.95 49.3 22.4 L49.3 20.75 49.6 20.25 Q52.3 19.15 52.3 18.2 L52.2 17.65 51.95 17.65 Q51.8 18.55 49.85 19.6 L50.05 18.05 49.85 15.65 50.6 15.7 Q51.25 15.65 52.1 14.95 M15.85 8.7 L16.65 8.6 Q17.3 8.5 17.35 9.2 L16.65 10.55 Q16.65 10.95 16.75 10.8 L19.65 11.0 19.7 11.35 Q19.7 11.95 19.8 11.95 L20.7 12.0 23.4 11.25 23.5 11.3 Q22.55 14.7 24.85 17.35 L27.05 19.1 26.1 19.25 25.9 19.15 25.6 18.15 Q24.7 18.8 23.65 19.05 23.1 17.25 21.75 17.25 21.15 17.25 19.7 18.5 L17.65 19.7 Q17.1 19.7 16.75 19.0 16.45 18.3 15.8 18.35 14.9 18.3 14.6 19.05 14.3 19.7 12.8 19.75 L13.1 18.95 Q13.1 18.8 12.75 18.75 L12.1 19.35 11.85 18.9 11.35 18.0 Q10.75 18.0 9.1 18.9 7.6 19.65 5.65 19.6 L6.4 18.3 8.35 18.45 Q9.5 16.95 10.95 15.6 L13.35 13.5 10.95 12.6 10.95 12.55 Q13.25 10.3 15.85 8.7 M20.9 45.7 Q20.9 44.55 22.2 43.9 24.05 43.0 24.9 41.85 L27.15 37.75 27.6 37.75 28.2 38.8 Q29.15 40.1 29.15 40.8 29.15 42.55 27.5 43.6 25.85 44.6 25.85 46.1 L25.9 46.45 21.05 46.55 20.9 45.7 M31.0 35.9 Q31.15 35.4 31.85 35.1 L32.85 35.1 32.85 35.15 32.2 36.85 Q32.3 37.9 35.25 37.9 36.0 37.9 36.25 37.15 36.45 36.4 37.45 36.4 38.75 36.4 39.5 38.5 L39.65 38.5 39.8 37.9 Q40.1 36.05 37.1 36.05 36.25 36.0 36.05 36.75 35.8 37.45 34.8 37.45 34.25 37.45 33.65 36.95 33.1 36.45 33.1 36.15 L33.3 34.65 31.95 34.65 Q31.1 34.9 30.35 36.95 L30.1 37.35 Q30.85 37.1 30.95 36.7 L31.0 35.9 M22.95 35.5 L22.65 35.3 Q23.4 35.85 23.4 37.35 23.4 38.1 22.4 38.9 21.35 39.6 21.4 40.55 21.35 41.9 22.05 43.5 L22.4 43.4 Q21.8 41.4 21.8 40.6 21.8 39.55 22.8 39.1 23.8 38.65 23.8 37.35 23.75 36.0 22.95 35.5 M27.4 37.45 L27.4 37.3 27.5 37.45 27.4 37.45 M2.9 33.4 Q3.65 32.8 4.3 32.8 L5.5 33.85 Q6.35 34.9 8.0 34.9 L10.7 34.8 11.15 35.95 9.85 37.25 Q8.45 38.25 8.45 39.05 8.45 39.7 9.0 40.3 9.5 40.9 9.5 42.05 L9.45 42.45 8.75 42.6 Q5.65 42.6 3.0 36.85 L2.9 33.4" fill="#39ce92" fill-rule="evenodd" stroke="none"/>
    <path d="M35.45 5.05 L36.55 8.3 30.4 7.7 Q25.65 7.7 21.5 9.05 L18.8 7.1 Q24.05 4.65 30.4 4.65 L35.45 5.05 M10.95 12.6 L13.35 13.5 10.95 15.6 Q9.5 16.95 8.35 18.45 L6.4 18.3 Q8.2 15.25 10.9 12.6 L10.95 12.6 M21.85 73.95 Q20.05 73.05 19.2 71.95 L18.6 68.8 18.45 68.55 18.0 67.75 17.75 66.7 17.75 66.65 17.75 66.45 17.75 66.3 18.05 65.1 Q17.75 64.5 17.75 63.85 L17.75 63.75 Q17.75 61.65 20.15 60.0 L18.5 55.4 Q18.15 54.95 18.15 54.45 L18.15 54.4 20.5 55.2 20.05 55.65 20.25 56.6 21.5 59.65 Q21.2 60.05 21.2 60.65 L21.35 61.6 21.2 60.65 Q21.2 60.05 21.5 59.65 L22.1 60.9 Q22.1 61.25 21.35 61.6 L20.8 61.8 20.6 61.85 Q19.1 62.35 19.1 63.9 L19.15 66.3 19.2 66.65 19.2 66.95 19.45 68.4 19.45 69.05 19.75 69.15 19.95 69.45 20.55 70.4 20.9 71.5 21.1 72.25 21.85 73.95 M18.5 55.4 Q19.0 56.05 20.25 56.6 19.0 56.05 18.5 55.4 M20.8 61.8 L20.75 61.6 20.15 60.0 20.75 61.6 20.8 61.8 M18.6 68.8 L20.55 70.4 18.6 68.8 M18.05 65.1 Q18.35 65.95 19.2 66.65 18.35 65.95 18.05 65.1 M17.75 66.65 Q18.7 66.65 18.7 67.15 L18.0 67.75 18.7 67.15 Q18.7 66.65 17.75 66.65 M19.75 69.15 L19.45 69.05 19.45 68.4 19.75 69.15 M19.65 70.85 L20.9 72.25 21.1 72.25 20.9 72.25 19.65 70.85" fill="#ffffff" fill-rule="evenodd" stroke="none"/>
    <path d="M16.7 8.15 Q17.75 8.3 17.75 9.15 L17.15 10.35 20.15 10.45 Q20.4 10.6 20.15 11.0 L20.15 11.55 20.9 11.55 23.1 10.75 Q24.35 12.05 24.05 15.4 24.55 17.45 27.8 18.75 L29.7 18.6 Q34.75 18.55 35.7 16.8 35.55 17.7 35.2 18.05 34.45 18.75 32.4 18.95 30.6 19.15 29.6 18.95 L28.05 18.8 31.4 19.75 31.45 19.85 31.2 20.0 Q29.05 20.0 27.4 19.25 26.85 19.65 26.3 19.65 25.65 19.65 25.5 19.25 L25.4 18.65 Q24.8 19.45 23.7 19.5 23.3 19.5 22.95 18.65 L22.45 17.75 Q21.3 17.7 19.8 18.95 18.35 20.15 17.55 20.15 16.75 20.15 16.5 19.5 16.2 18.75 15.8 18.75 15.05 18.75 14.7 19.5 L14.05 20.2 12.65 20.1 12.05 21.05 13.4 23.6 Q15.3 23.55 15.55 23.1 18.4 23.1 18.8 24.15 L18.95 25.75 Q19.5 26.65 20.7 27.3 21.65 27.75 21.65 28.5 21.65 29.95 18.9 32.6 L22.6 35.25 Q20.6 34.25 18.35 32.85 21.2 29.85 21.2 28.5 21.2 28.05 19.95 27.0 L18.5 25.8 18.5 24.4 Q18.2 23.6 15.7 23.6 L13.85 24.0 Q12.85 23.95 12.65 23.35 L12.35 22.4 Q11.6 21.65 11.65 21.05 11.6 20.3 11.85 19.8 L11.55 19.4 11.15 18.55 Q10.45 18.55 9.05 19.3 L7.75 20.05 5.45 20.0 5.05 20.0 4.95 19.5 5.25 18.5 5.5 18.5 5.4 19.55 5.65 19.6 Q7.6 19.65 9.1 18.9 10.75 18.0 11.35 18.0 L11.85 18.9 12.1 19.35 12.75 18.75 Q13.1 18.8 13.1 18.95 L12.8 19.75 Q14.3 19.7 14.6 19.05 14.9 18.3 15.8 18.35 16.45 18.3 16.75 19.0 17.1 19.7 17.65 19.7 L19.7 18.5 Q21.15 17.25 21.75 17.25 23.1 17.25 23.65 19.05 24.7 18.8 25.6 18.15 L25.9 19.15 26.1 19.25 27.05 19.1 24.85 17.35 Q22.55 14.7 23.5 11.3 L23.4 11.25 20.7 12.0 19.8 11.95 Q19.7 11.95 19.7 11.35 L19.65 11.0 16.75 10.8 Q16.65 10.95 16.65 10.55 L17.35 9.2 Q17.3 8.5 16.65 8.6 L15.85 8.7 14.4 8.85 Q12.35 8.85 11.9 8.3 L11.85 8.0 11.8 7.7 Q11.8 7.15 12.5 6.85 13.1 6.45 13.15 5.95 13.15 5.85 14.05 5.25 L13.8 4.6 12.9 4.45 12.8 4.45 13.15 4.25 13.2 4.25 Q14.55 4.5 14.45 5.3 L14.1 5.85 14.0 5.9 14.65 6.05 14.8 6.1 14.3 6.25 13.2 6.85 Q12.25 7.4 12.25 7.7 12.2 8.4 13.05 8.35 L16.05 8.1 16.7 8.15 M2.85 32.8 Q3.5 32.3 3.9 32.3 5.1 32.3 6.7 34.45 L8.5 34.15 10.2 34.05 9.75 33.45 Q8.3 31.6 8.3 30.6 8.3 29.75 8.7 28.9 L8.85 28.0 Q8.95 26.85 10.15 26.95 11.1 26.95 12.05 27.6 L12.0 27.95 9.3 28.15 8.75 30.6 Q8.7 31.45 10.15 33.35 L10.65 34.05 12.6 33.8 13.1 34.0 12.6 34.5 11.1 34.8 11.55 35.9 Q11.55 36.5 10.25 37.55 8.9 38.55 8.9 39.15 L9.9 42.05 9.85 42.25 Q9.65 43.3 8.05 45.05 7.95 45.25 7.95 44.85 9.25 43.45 9.45 42.45 L9.5 42.05 Q9.5 40.9 9.0 40.3 8.45 39.7 8.45 39.05 8.45 38.25 9.85 37.25 L11.15 35.95 10.7 34.8 8.0 34.9 Q6.35 34.9 5.5 33.85 L4.3 32.8 Q3.65 32.8 2.9 33.4 L2.85 33.45 2.5 33.75 1.95 34.3 1.05 35.05 Q1.1 34.4 1.8 33.7 L2.1 33.4 Q2.5 33.0 2.85 32.8 M20.45 46.55 L20.5 46.55 20.5 45.6 Q20.5 44.25 21.75 43.8 23.55 43.15 24.8 41.15 L27.1 36.35 27.25 36.35 27.2 35.95 Q27.2 34.0 28.25 34.0 L29.0 34.15 Q27.6 35.2 27.6 35.9 27.6 36.65 28.15 37.7 L28.6 38.55 Q29.6 40.2 29.6 40.8 29.6 42.2 28.55 43.2 27.0 44.55 26.25 46.4 L26.25 46.45 30.95 46.05 Q37.9 44.95 42.2 41.15 43.05 40.35 47.05 39.65 45.75 38.3 45.75 36.9 L46.1 35.3 42.9 32.2 Q42.9 29.35 44.6 27.25 45.4 26.25 46.3 25.6 46.25 25.0 45.6 24.3 44.85 23.55 44.85 22.8 44.85 21.7 48.3 20.3 L49.35 19.85 49.6 18.05 49.35 15.6 48.35 15.25 Q48.15 14.8 47.7 14.8 47.05 14.8 46.6 15.55 46.15 16.3 45.15 16.3 L44.1 15.1 Q43.5 15.05 42.7 15.9 L41.75 16.7 Q39.4 16.7 39.2 15.8 L38.95 14.9 Q36.5 14.9 35.85 15.9 L35.95 15.1 Q35.95 14.45 36.55 14.45 39.4 14.45 39.75 15.35 L40.1 16.25 Q41.75 16.2 42.55 15.4 L43.4 14.6 Q44.45 14.6 44.75 15.25 L45.15 15.9 Q46.15 15.9 47.25 14.25 48.5 14.25 48.65 14.75 L49.2 15.1 48.1 12.85 Q48.1 12.6 48.4 12.6 49.35 12.6 49.75 15.15 L49.85 15.15 Q50.65 15.15 51.75 14.55 L52.1 14.35 52.75 13.9 52.8 13.9 53.0 14.2 52.95 14.25 52.4 14.75 52.1 14.95 Q51.25 15.65 50.6 15.7 L49.85 15.65 50.05 18.05 49.85 19.6 Q51.8 18.55 51.95 17.65 L52.2 17.65 52.3 18.2 Q52.3 19.15 49.6 20.25 L49.3 20.75 49.3 22.4 Q48.85 21.95 48.9 21.65 48.9 20.95 49.05 20.45 L48.8 20.55 Q45.3 21.8 45.3 22.8 45.3 23.3 46.0 24.1 46.65 24.95 46.65 25.65 46.65 26.2 44.05 28.9 43.3 31.05 43.35 32.15 46.55 34.55 46.55 35.3 L46.2 36.85 Q46.2 37.5 47.15 38.45 L47.9 39.5 49.0 39.35 53.3 36.85 53.3 36.75 Q53.3 35.45 54.45 34.6 55.55 33.65 55.55 32.8 55.55 32.3 54.55 31.75 53.5 31.2 53.45 30.35 L53.6 28.05 Q53.6 25.25 51.25 23.8 L49.6 22.65 Q53.1 23.85 53.75 26.15 L53.85 29.95 Q53.85 30.7 54.9 31.3 55.95 31.85 56.0 32.8 56.0 33.85 54.9 34.95 53.85 35.9 53.75 36.55 L55.8 34.8 54.8 37.95 54.9 38.0 54.75 38.1 53.35 41.25 Q50.7 42.75 49.85 43.95 L46.9 47.35 41.0 49.55 37.75 50.85 34.9 51.15 34.35 51.15 32.95 51.05 31.1 50.8 Q26.75 49.9 21.2 46.9 L21.4 47.3 21.8 48.4 21.6 48.7 20.55 46.9 20.5 46.55 20.45 46.55 M22.95 35.5 Q23.75 36.0 23.8 37.35 23.8 38.65 22.8 39.1 21.8 39.55 21.8 40.6 21.8 41.4 22.4 43.4 L22.05 43.5 Q21.35 41.9 21.4 40.55 21.35 39.6 22.4 38.9 23.4 38.1 23.4 37.35 23.4 35.85 22.65 35.3 L22.95 35.5 M31.0 35.9 L30.95 36.7 Q30.85 37.1 30.1 37.35 L30.35 36.95 Q31.1 34.9 31.95 34.65 L33.3 34.65 33.1 36.15 Q33.1 36.45 33.65 36.95 34.25 37.45 34.8 37.45 35.8 37.45 36.05 36.75 36.25 36.0 37.1 36.05 40.1 36.05 39.8 37.9 L39.65 38.5 39.5 38.5 Q38.75 36.4 37.45 36.4 36.45 36.4 36.25 37.15 36.0 37.9 35.25 37.9 32.3 37.9 32.2 36.85 L32.85 35.15 32.85 35.1 31.85 35.1 Q31.15 35.4 31.0 35.9 M20.9 45.7 L21.05 46.55 25.9 46.45 25.85 46.1 Q25.85 44.6 27.5 43.6 29.15 42.55 29.15 40.8 29.15 40.1 28.2 38.8 L27.6 37.75 27.15 37.75 24.9 41.85 Q24.05 43.0 22.2 43.9 20.9 44.55 20.9 45.7 M27.4 37.45 L27.5 37.45 27.4 37.3 27.4 37.45" fill="#7ddfb8" fill-rule="evenodd" stroke="none"/>
    <path d="M18.8 7.1 Q17.7 7.55 16.7 8.15 L16.05 8.1 13.05 8.35 Q12.2 8.4 12.25 7.7 L14.3 6.25 14.8 6.1 14.65 6.05 Q21.0 2.15 29.0 2.15 40.4 2.15 48.5 10.1 50.55 12.1 52.1 14.35 L51.75 14.55 49.9 12.55 Q43.65 6.45 35.45 5.05 L30.4 4.65 Q24.05 4.65 18.8 7.1 M5.45 20.0 Q2.85 25.3 2.85 31.65 L2.85 32.8 Q2.5 33.0 2.1 33.4 L1.8 33.7 Q1.45 31.5 1.45 29.15 1.4 18.0 9.5 10.1 L11.85 8.0 11.9 8.3 Q12.35 8.85 14.4 8.85 L15.85 8.7 Q13.25 10.3 10.95 12.55 L10.9 12.6 Q8.2 15.25 6.4 18.3 L5.65 19.6 5.4 19.55 5.5 18.5 5.25 18.5 4.95 19.5 5.05 20.0 5.45 20.0 M52.1 14.95 L52.4 14.75 53.95 17.5 52.1 14.95 M1.95 34.3 L2.5 33.75 2.85 33.45 2.85 34.7 2.9 36.7 1.95 34.3" fill="#5bd7a5" fill-rule="evenodd" stroke="none"/>
    <path d="M9.85 42.25 L11.8 41.3 Q12.2 41.3 19.9 46.2 L20.45 46.55 20.5 46.55 20.55 46.9 21.6 48.7 21.8 48.4 21.4 47.3 21.2 46.9 Q26.75 49.9 31.1 50.8 L32.95 51.05 34.35 51.15 34.9 51.15 37.75 50.85 41.0 49.55 46.9 47.35 49.85 43.95 Q50.7 42.75 53.35 41.25 51.35 44.8 48.25 47.95 44.8 51.35 40.8 53.35 37.6 54.9 34.1 55.65 L29.0 56.2 28.85 56.2 28.45 56.2 28.25 56.2 Q24.15 56.15 20.5 55.2 L18.15 54.4 Q12.7 52.35 8.3 47.95 0.0 39.7 0.0 28.1 0.0 16.45 8.3 8.2 10.45 6.05 12.9 4.45 L13.8 4.6 14.05 5.25 Q13.15 5.85 13.15 5.95 13.1 6.45 12.5 6.85 11.8 7.15 11.8 7.7 L11.85 8.0 9.5 10.1 Q1.4 18.0 1.45 29.15 1.45 31.5 1.8 33.7 1.1 34.4 1.05 35.05 L1.95 34.3 2.9 36.7 2.85 34.7 2.85 33.45 2.9 33.4 3.0 36.85 Q5.65 42.6 8.75 42.6 L9.45 42.45 Q9.25 43.45 7.95 44.85 7.95 45.25 8.05 45.05 9.65 43.3 9.85 42.25 M52.75 13.9 L52.1 14.35 Q50.55 12.1 48.5 10.1 40.4 2.15 29.0 2.15 21.0 2.15 14.65 6.05 L14.0 5.9 14.1 5.85 14.45 5.3 Q14.55 4.5 13.2 4.25 19.85 -0.05 28.25 0.0 39.95 -0.05 48.25 8.2 50.9 10.9 52.75 13.9 M14.3 6.25 L12.25 7.7 Q12.25 7.4 13.2 6.85 L14.3 6.25 M53.95 17.5 L52.4 14.75 52.95 14.25 Q54.6 17.05 55.5 20.25 L54.55 18.5 53.95 17.5" fill="#99e6c7" fill-rule="evenodd" stroke="none"/>
    <path d="M40.8 53.35 Q41.25 53.85 41.25 54.45 L41.25 54.6 41.2 54.9 40.4 58.45 40.25 59.15 40.35 59.2 Q44.2 61.1 44.25 63.75 L43.95 65.1 44.35 64.2 44.05 67.6 43.95 68.2 43.45 68.65 43.0 71.65 Q42.1 72.95 39.95 74.0 L38.75 74.55 38.75 74.05 38.5 73.05 38.45 73.0 36.3 72.65 36.15 72.3 Q35.55 71.15 34.7 70.95 L34.45 70.9 34.0 70.8 32.15 70.1 31.8 69.65 Q31.8 69.3 32.3 68.75 32.75 68.25 32.75 67.25 L32.55 65.35 32.65 64.95 33.3 64.0 33.95 62.85 34.05 62.05 34.05 61.8 Q34.0 61.0 33.6 60.3 L33.2 59.75 33.05 59.55 Q32.35 58.7 32.35 58.45 L32.7 58.05 33.9 57.95 35.3 57.7 37.85 57.05 Q40.75 56.15 41.2 54.9 40.75 56.15 37.85 57.05 L35.3 57.7 33.9 57.95 32.7 58.05 Q33.8 56.6 34.1 55.65 37.6 54.9 40.8 53.35 M39.25 61.35 Q38.3 61.1 37.9 59.85 37.55 58.7 35.8 58.7 33.8 58.7 33.05 59.55 33.8 58.7 35.8 58.7 37.55 58.7 37.9 59.85 38.3 61.1 39.25 61.35 M33.95 62.85 L34.85 62.85 Q37.05 62.85 37.05 61.15 37.05 59.45 35.15 59.45 33.75 59.45 33.6 60.3 33.75 59.45 35.15 59.45 37.05 59.45 37.05 61.15 37.05 62.85 34.85 62.85 L33.95 62.85 M39.4 62.35 Q38.75 63.25 36.9 63.95 L34.8 64.6 32.65 64.95 34.8 64.6 36.9 63.95 Q38.75 63.25 39.4 62.35 L39.7 61.35 39.7 61.2 39.4 62.35 M39.95 60.25 L39.7 61.2 39.95 60.25 Q38.7 59.95 38.7 58.9 38.7 58.45 39.65 57.5 L40.2 57.5 39.65 57.5 Q38.7 58.45 38.7 58.9 38.7 59.95 39.95 60.25 L40.25 59.15 39.95 60.25 M39.8 59.45 L39.65 58.9 Q39.65 58.25 40.4 58.45 39.65 58.25 39.65 58.9 L39.8 59.45 M34.65 61.1 L35.45 60.45 Q36.15 60.45 36.15 61.3 36.15 62.0 34.9 62.0 L34.05 61.8 34.9 62.0 Q36.15 62.0 36.15 61.3 36.15 60.45 35.45 60.45 L34.65 61.1 M43.95 65.1 Q43.55 66.05 42.55 66.85 L40.35 68.2 Q36.9 69.9 32.15 70.1 36.9 69.9 40.35 68.2 L42.55 66.85 Q43.55 66.05 43.95 65.1 M36.6 70.65 L36.7 70.3 Q37.6 70.3 37.7 71.05 L37.15 71.05 36.6 70.65 37.15 71.05 37.7 71.05 Q37.6 70.3 36.7 70.3 L36.6 70.65 M43.45 68.65 Q42.5 69.9 40.35 70.9 38.45 71.85 36.15 72.3 38.45 71.85 40.35 70.9 42.5 69.9 43.45 68.65 M42.6 70.7 Q41.7 72.25 40.65 72.2 L40.6 72.2 39.95 72.05 Q39.15 72.05 38.65 72.8 L38.5 73.05 38.65 72.8 Q39.15 72.05 39.95 72.05 L40.6 72.2 40.65 72.2 Q41.7 72.25 42.6 70.7 M42.5 68.75 L42.0 68.85 Q41.4 68.85 41.4 68.45 41.4 68.1 41.75 68.1 42.3 68.1 42.5 68.75 42.3 68.1 41.75 68.1 41.4 68.1 41.4 68.45 41.4 68.85 42.0 68.85 L42.5 68.75 M40.2 69.95 L40.1 70.25 39.65 70.25 39.15 70.05 Q39.15 69.4 39.5 69.4 L40.2 69.5 40.2 69.95 40.2 69.5 39.5 69.4 Q39.15 69.4 39.15 70.05 L39.65 70.25 40.1 70.25 40.2 69.95 M44.05 67.6 L42.95 67.45 43.15 66.9 42.95 67.45 44.05 67.6" fill="#015401" fill-rule="evenodd" stroke="none"/>
    <path d="M38.75 74.55 Q35.4 75.9 31.0 75.9 25.7 75.9 22.0 74.0 L21.85 73.95 21.1 72.25 20.9 71.5 20.55 70.4 21.6 70.9 Q25.5 72.8 31.0 72.8 L36.15 72.3 31.0 72.8 Q25.5 72.8 21.6 70.9 L20.55 70.4 19.95 69.45 19.75 69.15 20.0 69.2 20.75 69.2 20.8 68.75 20.75 68.45 19.8 68.1 19.45 68.2 19.45 68.4 19.45 68.2 19.8 68.1 20.75 68.45 20.8 68.75 20.75 69.2 20.0 69.2 19.75 69.15 19.45 68.4 19.2 66.95 19.4 66.85 19.2 66.65 19.15 66.3 19.1 63.9 Q19.1 62.35 20.6 61.85 L20.8 61.8 21.0 62.3 20.8 61.8 21.35 61.6 Q22.1 61.25 22.1 60.9 L21.5 59.65 20.25 56.6 21.5 57.05 25.5 57.9 26.15 58.0 29.7 58.15 32.7 58.05 29.7 58.15 26.15 58.0 25.5 57.9 21.5 57.05 20.25 56.6 20.05 55.65 20.5 55.2 Q24.15 56.15 28.25 56.2 L28.45 56.2 28.85 56.2 29.0 56.2 34.1 55.65 Q33.8 56.6 32.7 58.05 L32.35 58.45 Q32.35 58.7 33.05 59.55 L33.2 59.75 33.6 60.3 33.55 60.6 Q33.55 61.45 34.05 61.8 33.55 61.45 33.55 60.6 L33.6 60.3 Q34.0 61.0 34.05 61.8 L34.05 62.05 33.95 62.85 33.3 64.0 32.65 64.95 32.55 65.35 32.75 67.25 Q32.75 68.25 32.3 68.75 31.8 69.3 31.8 69.65 L32.15 70.1 31.0 70.1 Q25.5 70.1 21.6 68.2 20.25 67.6 19.4 66.85 20.25 67.6 21.6 68.2 25.5 70.1 31.0 70.1 L32.15 70.1 34.0 70.8 34.45 70.9 34.7 70.95 Q35.55 71.15 36.15 72.3 L36.3 72.65 38.45 73.0 38.5 73.05 38.75 74.05 38.75 74.55 M29.1 61.45 L28.3 61.45 Q28.1 61.5 28.1 61.0 28.1 60.45 28.75 60.45 29.85 60.45 29.85 61.7 29.85 62.65 29.25 62.65 27.35 62.65 27.35 61.05 27.35 59.55 28.85 59.55 30.7 59.55 30.7 61.85 30.7 63.95 28.95 63.95 26.55 63.95 26.3 61.35 26.0 58.7 24.6 58.7 22.2 58.7 21.5 59.65 22.2 58.7 24.6 58.7 26.0 58.7 26.3 61.35 26.55 63.95 28.95 63.95 30.7 63.95 30.7 61.85 30.7 59.55 28.85 59.55 27.35 59.55 27.35 61.05 27.35 62.65 29.25 62.65 29.85 62.65 29.85 61.7 29.85 60.45 28.75 60.45 28.1 60.45 28.1 61.0 28.1 61.5 28.3 61.45 L29.1 61.45 M33.95 62.85 L32.9 62.5 Q32.55 62.2 32.55 61.0 32.55 60.1 33.05 59.55 32.55 60.1 32.55 61.0 32.55 62.2 32.9 62.5 L33.95 62.85 M21.0 62.3 Q21.6 63.25 23.45 63.95 L26.75 64.8 30.2 65.05 32.65 64.95 30.2 65.05 26.75 64.8 23.45 63.95 Q21.6 63.25 21.0 62.3 M34.0 70.8 L33.55 70.85 33.55 71.45 34.1 71.7 34.95 71.7 34.95 71.25 34.45 70.9 34.95 71.25 34.95 71.7 34.1 71.7 33.55 71.45 33.55 70.85 34.0 70.8 M38.5 73.05 L37.75 73.55 36.7 73.2 Q36.05 73.2 35.65 73.8 35.2 74.4 34.8 74.4 L33.6 73.7 31.9 74.85 Q30.4 73.75 29.75 73.75 29.25 73.75 29.05 74.2 L28.5 74.65 Q27.65 73.55 27.15 73.55 L25.9 73.95 Q25.4 73.95 24.95 73.3 24.45 72.65 24.15 72.65 L23.1 73.25 Q22.65 73.25 21.95 71.85 L21.1 72.25 21.95 71.85 Q22.65 73.25 23.1 73.25 L24.15 72.65 Q24.45 72.65 24.95 73.3 25.4 73.95 25.9 73.95 L27.15 73.55 Q27.65 73.55 28.5 74.65 L29.05 74.2 Q29.25 73.75 29.75 73.75 30.4 73.75 31.9 74.85 L33.6 73.7 34.8 74.4 Q35.2 74.4 35.65 73.8 36.05 73.2 36.7 73.2 L37.75 73.55 38.5 73.05 M23.15 60.9 L23.95 60.9 24.3 61.7 Q24.3 62.3 23.4 62.3 22.2 62.3 22.2 60.85 22.2 59.9 23.75 59.9 25.15 59.9 25.15 61.6 25.15 62.95 23.35 62.95 21.7 62.95 21.35 61.6 21.7 62.95 23.35 62.95 25.15 62.95 25.15 61.6 25.15 59.9 23.75 59.9 22.2 59.9 22.2 60.85 22.2 62.3 23.4 62.3 24.3 62.3 24.3 61.7 L23.95 60.9 23.15 60.9 M21.75 69.2 L22.2 69.2 22.65 69.6 22.65 70.25 22.2 70.25 21.65 70.05 21.75 69.2 21.65 70.05 22.2 70.25 22.65 70.25 22.65 69.6 22.2 69.2 21.75 69.2 M31.6 71.65 L31.45 72.15 30.05 71.7 30.05 71.15 30.65 70.9 Q31.6 71.05 31.6 71.65 31.6 71.05 30.65 70.9 L30.05 71.15 30.05 71.7 31.45 72.15 31.6 71.65 M27.0 71.45 L27.0 70.85 28.3 70.85 28.3 71.45 27.8 71.7 27.0 71.45 27.8 71.7 28.3 71.45 28.3 70.85 27.0 70.85 27.0 71.45 M24.05 70.55 L24.15 70.25 25.25 70.5 25.25 71.05 24.6 71.05 24.05 70.55 24.6 71.05 25.25 71.05 25.25 70.5 24.15 70.25 24.05 70.55" fill="#006600" fill-rule="evenodd" stroke="none"/>
    <path d="M19.2 66.65 L19.4 66.85 19.2 66.95 19.2 66.65" fill="#666666" fill-rule="evenodd" stroke="none"/>
    <path d="M40.8 53.35 Q41.25 53.85 41.25 54.45 L41.25 54.6 M40.25 59.15 L40.35 59.2 Q44.2 61.1 44.25 63.75 L43.95 65.1 44.35 64.2 M43.95 68.2 L43.45 68.65 M43.0 71.65 Q42.1 72.95 39.95 74.0 L38.75 74.55 Q35.4 75.9 31.0 75.9 25.7 75.9 22.0 74.0 L21.85 73.95 Q20.05 73.05 19.2 71.95 M18.6 68.8 L18.45 68.55 18.0 67.75 17.75 66.7 M17.75 63.75 Q17.75 61.65 20.15 60.0 M18.5 55.4 Q18.15 54.95 18.15 54.45 L18.15 54.4 M41.2 54.9 Q40.75 56.15 37.85 57.05 L35.3 57.7 33.9 57.95 32.7 58.05 29.7 58.15 26.15 58.0 25.5 57.9 21.5 57.05 20.25 56.6 Q19.0 56.05 18.5 55.4 M32.65 64.95 L34.8 64.6 36.9 63.95 Q38.75 63.25 39.4 62.35 M39.7 61.2 L39.7 61.35 39.4 62.35 M32.65 64.95 L30.2 65.05 26.75 64.8 23.45 63.95 Q21.6 63.25 21.0 62.3 M19.2 66.65 L19.4 66.85 Q20.25 67.6 21.6 68.2 25.5 70.1 31.0 70.1 L32.15 70.1 Q36.9 69.9 40.35 68.2 L42.55 66.85 Q43.55 66.05 43.95 65.1 M36.15 72.3 Q38.45 71.85 40.35 70.9 42.5 69.9 43.45 68.65 M36.15 72.3 L31.0 72.8 Q25.5 72.8 21.6 70.9 L20.55 70.4 18.6 68.8 M17.75 66.3 L18.05 65.1 Q17.75 64.5 17.75 63.85 M19.2 66.65 Q18.35 65.95 18.05 65.1" fill="none" stroke="#000000" stroke-linecap="round" stroke-linejoin="round" stroke-width="0.5"/>
    <path d="M41.25 54.6 L41.2 54.9 40.4 58.45 40.25 59.15 M44.35 64.2 L44.05 67.6 43.95 68.2 M43.45 68.65 L43.0 71.65 M19.2 71.95 L18.6 68.8 M17.75 66.7 L17.75 66.65 17.75 66.45 17.75 66.3 17.75 63.85 17.75 63.75 M20.15 60.0 L18.5 55.4 M39.4 62.35 L39.7 61.2 39.95 60.25 40.25 59.15 M21.0 62.3 L20.8 61.8 M20.15 60.0 L20.75 61.6 20.8 61.8" fill="none" stroke="#000000" stroke-linecap="round" stroke-linejoin="round" stroke-width="0.5"/>
    <path d="M33.05 59.55 Q33.8 58.7 35.8 58.7 37.55 58.7 37.9 59.85 38.3 61.1 39.25 61.35 M21.5 59.65 Q22.2 58.7 24.6 58.7 26.0 58.7 26.3 61.35 26.55 63.95 28.95 63.95 30.7 63.95 30.7 61.85 30.7 59.55 28.85 59.55 27.35 59.55 27.35 61.05 27.35 62.65 29.25 62.65 29.85 62.65 29.85 61.7 29.85 60.45 28.75 60.45 28.1 60.45 28.1 61.0 28.1 61.5 28.3 61.45 L29.1 61.45 M34.05 61.8 Q33.55 61.45 33.55 60.6 L33.6 60.3 Q33.75 59.45 35.15 59.45 37.05 59.45 37.05 61.15 37.05 62.85 34.85 62.85 L33.95 62.85 M33.05 59.55 Q32.55 60.1 32.55 61.0 32.55 62.2 32.9 62.5 L33.95 62.85 M39.95 60.25 Q38.7 59.95 38.7 58.9 38.7 58.45 39.65 57.5 L40.2 57.5 M34.05 61.8 L34.9 62.0 Q36.15 62.0 36.15 61.3 36.15 60.45 35.45 60.45 L34.65 61.1 M40.4 58.45 Q39.65 58.25 39.65 58.9 L39.8 59.45 M36.6 70.65 L37.15 71.05 37.7 71.05 Q37.6 70.3 36.7 70.3 L36.6 70.65 M34.0 70.8 L34.45 70.9 34.95 71.25 34.95 71.7 34.1 71.7 33.55 71.45 33.55 70.85 34.0 70.8 M21.1 72.25 L21.95 71.85 Q22.65 73.25 23.1 73.25 L24.15 72.65 Q24.45 72.65 24.95 73.3 25.4 73.95 25.9 73.95 L27.15 73.55 Q27.65 73.55 28.5 74.65 L29.05 74.2 Q29.25 73.75 29.75 73.75 30.4 73.75 31.9 74.85 L33.6 73.7 34.8 74.4 Q35.2 74.4 35.65 73.8 36.05 73.2 36.7 73.2 L37.75 73.55 38.5 73.05 38.65 72.8 Q39.15 72.05 39.95 72.05 L40.6 72.2 40.65 72.2 Q41.7 72.25 42.6 70.7 M40.2 69.95 L40.2 69.5 39.5 69.4 Q39.15 69.4 39.15 70.05 L39.65 70.25 40.1 70.25 40.2 69.95 M42.5 68.75 Q42.3 68.1 41.75 68.1 41.4 68.1 41.4 68.45 41.4 68.85 42.0 68.85 L42.5 68.75 M43.15 66.9 L42.95 67.45 44.05 67.6 M21.35 61.6 Q21.7 62.95 23.35 62.95 25.15 62.95 25.15 61.6 25.15 59.9 23.75 59.9 22.2 59.9 22.2 60.85 22.2 62.3 23.4 62.3 24.3 62.3 24.3 61.7 L23.95 60.9 23.15 60.9 M21.35 61.6 L21.2 60.65 Q21.2 60.05 21.5 59.65 M19.45 68.4 L19.45 68.2 19.8 68.1 20.75 68.45 20.8 68.75 20.75 69.2 20.0 69.2 19.75 69.15 M18.0 67.75 L18.7 67.15 Q18.7 66.65 17.75 66.65 M21.75 69.2 L21.65 70.05 22.2 70.25 22.65 70.25 22.65 69.6 22.2 69.2 21.75 69.2 M19.45 68.4 L19.45 69.05 19.75 69.15 M21.1 72.25 L20.9 72.25 19.65 70.85 M24.05 70.55 L24.6 71.05 25.25 71.05 25.25 70.5 24.15 70.25 24.05 70.55 M27.0 71.45 L27.8 71.7 28.3 71.45 28.3 70.85 27.0 70.85 27.0 71.45 M31.6 71.65 Q31.6 71.05 30.65 70.9 L30.05 71.15 30.05 71.7 31.45 72.15 31.6 71.65" fill="none" stroke="#009900" stroke-linecap="round" stroke-linejoin="round" stroke-width="0.5"/>
  </g>
</svg>
