<?xml version="1.0" encoding="UTF-8" standalone="no"?>
<svg xmlns:xlink="http://www.w3.org/1999/xlink" height="16.65px" width="19.55px" xmlns="http://www.w3.org/2000/svg">
  <g transform="matrix(1.0, 0.0, 0.0, 1.0, 0.0, 0.0)">
    <path d="M3.3 10.55 L2.65 9.95 Q0.6 7.95 0.1 5.1 -0.4 2.25 1.5 0.95 3.35 -0.4 5.15 0.2 6.8 0.7 8.5 2.2 L8.55 2.2 Q10.2 0.7 11.9 0.2 13.65 -0.4 15.55 0.95 L16.6 2.05 Q14.8 0.9 13.15 1.45 11.45 1.95 9.8 3.45 L9.75 3.45 Q8.05 1.95 6.4 1.45 4.6 0.85 2.75 2.2 0.85 3.5 1.35 6.35 1.75 8.75 3.3 10.55" fill="#bfb340" fill-rule="evenodd" stroke="none"/>
    <path d="M3.3 10.55 Q1.75 8.75 1.35 6.35 0.85 3.5 2.75 2.2 4.6 0.85 6.4 1.45 8.05 1.95 9.75 3.45 L9.8 3.45 Q11.45 1.95 13.15 1.45 14.8 0.9 16.6 2.05 L16.8 2.2 17.85 3.25 Q18.55 4.45 18.2 6.35 17.7 9.2 15.65 11.2 L12.45 13.85 9.8 15.4 7.1 13.85 4.55 11.8 4.5 11.75 3.9 11.2 3.3 10.55" fill="#dbd393" fill-rule="evenodd" stroke="none"/>
    <path d="M17.85 3.25 L17.85 3.3 18.05 3.45 Q19.95 4.75 19.45 7.6 18.95 10.45 16.9 12.45 L13.7 15.1 11.05 16.65 8.35 15.1 5.15 12.45 4.55 11.8 7.1 13.85 9.8 15.4 12.45 13.85 15.65 11.2 Q17.7 9.2 18.2 6.35 18.55 4.45 17.85 3.25" fill="#ffffff" fill-rule="evenodd" stroke="none"/>
  </g>
</svg>
