<?xml version="1.0" encoding="UTF-8" standalone="no"?>
<svg xmlns:xlink="http://www.w3.org/1999/xlink" height="26.2px" width="31.65px" xmlns="http://www.w3.org/2000/svg">
  <g transform="matrix(1.0, 0.0, 0.0, 1.0, 0.0, 0.0)">
    <path d="M15.85 4.05 Q18.95 1.25 22.1 0.3 25.35 -0.7 28.9 1.7 32.4 4.15 31.45 9.45 30.55 14.7 26.7 18.4 22.9 22.1 20.8 23.35 18.9 24.4 15.85 26.2 L10.9 23.35 Q8.75 22.1 4.95 18.4 1.1 14.7 0.2 9.45 -0.75 4.15 2.8 1.7 6.3 -0.7 9.55 0.3 12.7 1.25 15.8 4.05 L15.85 4.05" fill="url(#gradient0)" fill-rule="evenodd" stroke="none"/>
  </g>
  <defs>
    <radialGradient cx="0" cy="0" gradientTransform="matrix(0.0266, 0.0, 0.0, 0.0266, 10.15, 9.15)" gradientUnits="userSpaceOnUse" id="gradient0" r="819.2" spreadMethod="pad">
      <stop offset="0.0" stop-color="#fe7070"/>
      <stop offset="1.0" stop-color="#990000"/>
    </radialGradient>
  </defs>
</svg>
