<?xml version="1.0" encoding="UTF-8" standalone="no"?>
<svg xmlns:xlink="http://www.w3.org/1999/xlink" height="479.55px" width="170.75px" xmlns="http://www.w3.org/2000/svg">
  <g transform="matrix(1.0, 0.0, 0.0, 1.0, 0.5, 0.5)">
    <path d="M74.25 24.05 L75.9 23.8 77.8 23.6 78.25 23.6 79.9 23.55 83.8 23.6 90.85 24.45 97.75 26.15 96.25 22.25 Q94.4 18.4 91.35 14.15 85.15 5.55 82.0 4.5 78.8 3.4 76.85 3.85 75.7 4.1 73.95 5.35 L73.2 5.9 72.75 5.1 72.65 4.95 73.8 3.95 Q76.75 1.55 78.4 1.2 80.3 0.75 83.5 1.8 86.65 2.85 92.85 11.45 97.25 17.5 99.05 22.75 L100.1 26.95 100.8 27.2 103.2 28.2 Q104.85 28.95 106.4 29.85 110.05 31.95 113.15 34.65 L114.5 35.9 Q119.45 40.75 122.35 47.45 L124.05 52.05 Q124.85 54.6 125.5 59.25 L125.45 59.25 122.95 57.65 121.1 56.3 120.55 55.95 121.1 56.3 122.95 57.65 125.45 59.25 125.5 59.25 125.5 59.4 125.5 59.25 125.45 59.25 125.5 59.25 125.5 59.3 125.5 59.25 125.5 59.3 125.5 59.4 125.5 59.65 Q125.5 64.2 123.55 67.65 L123.5 67.65 123.35 67.55 121.45 66.3 123.35 67.55 123.5 67.65 123.55 67.65 123.5 67.65 124.3 70.0 125.45 73.0 126.4 75.05 127.2 76.4 127.45 76.75 128.85 78.4 125.05 76.05 125.05 76.0 124.25 74.7 123.3 72.7 Q122.8 71.7 122.75 71.0 L121.8 67.8 121.45 66.3 Q119.85 65.05 118.2 63.95 116.2 62.6 114.15 61.55 L112.45 58.4 112.9 60.95 111.5 60.3 112.9 60.95 113.35 63.35 113.6 64.45 113.8 65.15 Q114.5 67.5 115.3 68.2 L113.05 66.8 112.95 66.7 112.9 66.6 112.7 66.0 112.5 65.3 112.25 64.25 111.5 60.3 108.15 59.0 106.4 58.45 105.6 58.2 103.45 57.7 Q98.85 56.6 93.75 56.45 L92.05 56.4 89.65 56.4 89.6 56.4 87.4 56.5 85.85 56.6 Q86.55 58.2 87.6 59.75 L88.35 60.8 88.7 61.25 90.75 63.45 90.6 63.35 Q86.45 61.25 84.3 56.75 L81.2 57.15 80.25 57.25 77.6 57.7 73.55 58.55 72.4 58.8 72.65 60.05 Q72.9 61.15 73.5 62.3 L74.55 64.35 73.45 63.0 73.3 62.8 Q72.15 61.0 71.5 59.05 L70.95 59.2 70.75 59.25 68.6 59.8 64.95 60.9 Q64.6 64.45 65.15 67.5 66.45 74.7 71.6 80.05 L74.15 82.9 74.5 83.35 Q76.8 86.3 77.9 89.05 76.65 87.35 73.1 83.5 69.4 79.4 67.65 76.7 62.8 69.65 62.9 61.55 L64.95 60.9 62.9 61.55 58.7 63.05 57.95 63.3 56.3 63.9 53.35 65.15 Q52.5 63.7 51.9 61.55 L50.6 56.75 50.65 56.7 Q56.35 54.3 61.85 52.55 L64.4 51.75 64.4 51.85 64.5 51.75 66.7 51.1 68.65 50.55 71.15 49.95 73.1 49.5 74.1 49.3 74.6 49.2 77.2 48.7 81.6 48.05 82.65 47.95 84.65 47.75 88.15 47.55 89.9 47.5 100.75 48.35 102.5 48.65 106.4 49.6 110.0 50.7 111.4 51.25 113.8 52.25 Q116.95 53.7 119.9 55.55 L120.55 55.95 119.75 52.65 117.8 47.45 Q114.9 41.15 110.25 36.6 L108.85 35.25 106.4 33.3 Q102.95 30.7 98.9 28.85 L96.7 27.9 96.5 27.8 95.8 27.6 Q89.9 25.65 86.55 25.05 L79.55 24.25 75.65 24.2 74.25 24.25 74.25 24.05 M97.75 26.15 L98.05 26.25 100.1 26.95 98.05 26.25 97.75 26.15 M100.7 83.7 Q99.45 79.4 105.05 73.6 L105.45 73.2 105.1 73.65 Q102.15 77.45 101.3 80.5 100.75 82.1 100.7 83.7 M116.9 71.0 L117.25 71.6 117.65 72.3 118.4 73.4 119.1 74.35 119.2 74.45 119.3 74.35 119.25 74.5 Q117.5 79.1 116.0 84.6 L114.2 90.35 113.8 91.5 113.7 91.8 113.8 91.5 114.2 90.35 Q116.4 92.1 118.8 95.05 120.45 98.2 120.15 100.8 119.9 103.35 119.0 103.8 L119.2 101.95 118.8 99.8 Q118.55 97.95 117.45 95.8 L113.7 91.8 113.2 93.15 113.15 93.25 112.35 95.1 Q111.0 98.3 109.5 100.8 108.05 103.25 106.4 105.3 103.85 108.45 100.75 110.8 L99.3 111.85 97.0 113.55 95.65 114.5 97.0 113.55 99.5 116.15 105.4 121.6 106.4 122.5 108.15 124.0 Q113.45 128.65 114.45 130.3 L117.5 134.5 117.6 134.55 118.45 135.6 Q113.75 135.5 107.6 128.35 L106.6 127.2 106.4 126.95 105.8 126.2 105.25 125.5 104.9 125.05 104.8 125.05 95.65 114.5 94.45 115.45 92.55 117.1 91.4 117.75 88.2 117.9 88.15 117.9 88.05 117.7 88.15 117.9 87.8 117.85 87.75 117.85 Q86.3 117.7 85.15 117.15 84.35 116.75 83.7 116.15 L82.15 114.75 83.7 116.15 Q84.35 116.75 85.15 117.15 86.3 117.7 87.75 117.85 L88.3 118.2 Q91.15 119.85 93.25 120.4 L94.3 120.55 95.05 120.65 98.65 120.95 96.8 121.1 95.25 120.95 94.45 120.85 92.5 120.65 91.25 120.4 89.0 119.55 85.75 117.8 Q83.7 116.5 82.15 114.75 L79.55 112.85 79.4 112.75 79.0 112.35 78.3 111.7 78.45 111.65 79.15 112.1 79.95 112.6 81.25 113.75 81.45 113.9 83.75 116.0 Q84.75 116.9 86.0 117.25 L87.3 117.55 88.05 117.7 88.6 117.8 Q89.95 117.95 91.8 117.1 L92.35 116.8 Q93.85 115.95 95.3 114.2 L95.35 114.15 95.4 114.1 98.7 111.2 101.15 109.1 Q104.1 106.5 106.4 103.2 L109.2 98.4 Q110.5 95.8 111.6 92.55 L113.05 87.65 114.4 81.7 115.55 76.1 116.9 71.0 M98.65 63.55 L95.75 60.85 95.7 60.75 95.6 60.65 Q93.45 58.4 92.05 56.4 L93.75 56.45 Q95.15 58.55 97.4 60.9 L97.6 61.1 98.5 61.95 98.75 62.25 101.25 64.5 99.5 64.0 98.9 63.8 98.65 63.55 M85.0 53.55 L84.8 53.25 84.9 53.65 85.0 53.55 M85.85 56.6 L84.3 56.75 85.85 56.6 M77.95 89.35 L78.2 90.0 77.8 89.55 76.65 88.5 76.9 88.25 77.85 89.2 77.95 89.35 M101.5 94.05 Q100.1 96.05 97.4 96.05 L97.45 96.05 Q99.75 95.3 101.7 93.75 L101.5 94.05 M69.5 1.35 Q64.0 0.4 56.65 7.2 52.25 11.2 48.4 17.65 43.95 25.0 42.45 32.2 L41.35 37.6 Q40.6 41.25 40.4 47.45 L40.35 51.85 Q40.35 59.0 40.95 61.2 L40.05 61.65 39.95 61.7 39.35 61.95 38.75 62.2 38.55 62.2 38.2 60.2 Q37.5 58.2 37.55 50.6 L37.6 47.45 Q37.7 40.4 38.55 36.4 L39.65 31.0 Q41.15 23.75 45.6 16.45 49.45 10.05 53.85 6.0 61.25 -0.85 66.75 0.15 68.2 0.4 69.5 1.35 M12.7 124.8 Q13.5 123.0 17.3 118.2 L21.05 113.6 Q28.45 104.6 32.25 98.75 36.0 92.9 37.95 89.3 41.05 83.4 44.5 75.55 L46.95 78.9 47.05 79.1 46.85 79.2 46.1 78.15 39.2 92.55 Q36.7 98.15 30.65 108.05 L27.45 114.3 25.25 118.75 24.25 120.5 23.85 121.2 23.0 122.7 Q19.5 128.5 16.15 131.1 L16.15 131.05 Q12.1 134.4 8.15 134.95 9.95 130.0 12.5 125.1 L12.7 124.8 M71.15 49.95 L71.15 50.0 71.15 49.95 M71.5 59.05 L72.4 58.8 71.5 59.05 M65.4 80.05 L65.5 80.2 65.25 79.9 65.4 80.05 M53.75 82.55 L54.05 82.75 53.15 84.35 53.15 83.75 53.2 83.45 53.25 83.4 53.3 83.3 53.45 83.0 53.75 82.55 M54.4 83.2 L54.55 83.35 54.65 83.45 54.95 83.5 54.9 84.35 54.9 84.5 54.9 86.45 54.9 86.6 54.95 87.45 54.95 87.95 55.2 91.05 Q55.25 92.3 55.7 94.0 56.4 96.7 58.05 100.55 L60.0 104.8 61.0 106.8 61.75 108.3 Q65.0 114.7 66.65 118.6 L66.8 119.0 67.8 121.6 68.25 123.35 68.35 124.75 68.25 125.95 68.15 126.55 68.1 126.55 Q67.9 125.35 66.55 121.5 L64.75 118.2 Q66.25 119.85 64.65 116.75 L63.75 115.0 59.8 107.75 58.25 104.8 56.05 100.0 Q54.85 97.4 54.6 96.4 L53.95 92.9 53.55 89.75 53.6 87.45 53.65 86.85 Q53.75 85.45 54.35 83.45 L54.4 83.2 M41.65 116.35 L43.1 114.9 45.85 111.2 48.4 106.45 50.25 101.65 52.3 103.8 53.95 108.05 52.8 110.65 47.95 121.15 Q54.2 126.4 60.55 133.7 L62.65 136.15 63.45 137.15 70.8 146.2 Q65.8 151.35 60.85 155.6 65.8 151.35 70.8 146.2 L70.95 146.35 71.4 145.75 73.8 142.45 73.95 142.2 74.25 141.8 Q77.55 136.95 79.75 132.45 L82.15 126.65 83.95 127.3 Q87.4 128.3 93.4 128.5 L93.55 128.75 92.9 130.8 93.1 130.85 92.8 131.5 91.8 133.65 89.05 139.75 Q88.5 140.15 88.05 140.9 85.4 145.3 81.8 150.05 L81.55 150.35 81.2 150.8 Q60.75 170.8 35.05 184.9 35.3 183.85 35.9 182.15 L37.05 178.3 Q37.05 175.35 35.0 172.2 47.65 167.0 60.85 155.6 L50.85 143.9 46.85 139.15 42.0 134.0 47.95 121.15 42.95 117.25 41.65 116.35 M3.5 154.1 L3.45 154.5 2.9 158.65 2.9 158.95 2.9 160.0 Q3.15 160.9 3.6 161.3 4.45 162.0 5.5 162.1 L6.05 162.0 6.3 161.95 6.3 168.6 Q8.1 173.65 8.45 180.05 L8.65 190.85 Q9.05 204.0 16.6 213.2 L16.6 217.2 15.8 217.2 Q12.4 211.6 9.4 211.6 9.4 215.45 11.8 223.8 14.2 232.2 14.2 236.7 14.2 248.65 14.6 252.2 14.95 255.55 16.5 258.45 23.2 270.9 29.4 292.2 L27.0 292.2 22.5 285.65 Q20.75 282.9 19.9 280.25 L19.8 277.8 Q19.05 276.3 19.0 275.5 19.05 277.8 19.9 280.25 20.15 285.05 21.4 290.65 23.0 297.65 23.0 300.1 23.0 320.6 21.05 327.15 L17.85 336.6 Q15.5 343.85 13.15 353.8 L6.35 355.7 4.65 355.7 Q7.1 346.25 6.1 328.9 5.85 323.55 9.15 307.55 12.55 291.0 12.55 287.5 L11.25 270.8 Q10.15 264.75 7.3 258.45 4.4 252.1 3.5 223.0 2.9 205.2 0.95 189.4 L0.55 186.45 Q-1.6 154.1 4.3 142.35 L5.6 143.05 Q4.7 146.6 4.15 150.15 L4.05 151.05 3.7 153.15 3.5 154.1 M73.55 141.95 L73.95 142.2 73.8 142.45 73.55 141.95 M124.9 159.3 L124.7 159.35 124.65 159.2 124.9 159.3 M122.3 158.45 Q123.85 162.25 123.75 167.85 L123.75 168.6 123.65 170.1 123.35 175.55 123.25 178.95 123.35 184.3 121.35 206.1 120.25 218.75 Q119.0 227.6 119.35 231.35 119.7 234.9 120.5 237.95 121.1 240.4 122.05 242.6 124.1 247.45 125.8 253.6 128.05 261.65 135.2 278.25 142.35 294.85 147.65 302.9 L146.15 304.0 142.75 306.3 Q139.1 296.3 128.2 281.0 125.7 277.5 125.05 272.85 124.7 270.65 124.7 264.95 124.75 260.2 123.95 257.85 122.85 254.35 119.5 252.3 119.5 258.95 118.85 263.55 L118.7 263.5 Q118.7 261.1 117.05 252.4 115.4 243.85 115.5 239.6 L114.7 239.6 Q114.7 242.7 113.9 249.9 112.15 244.6 111.7 237.95 L111.5 232.8 Q111.5 227.9 111.85 227.4 112.25 226.75 116.3 226.0 L116.3 212.7 116.85 204.0 117.45 195.3 117.25 195.15 117.6 194.6 Q120.15 190.5 120.15 185.05 120.15 180.1 118.05 176.25 L118.1 176.25 119.85 179.05 119.95 176.8 120.15 170.1 120.25 165.3 Q120.25 163.55 118.85 157.4 L119.15 156.9 120.1 157.4 122.3 158.45 M168.45 313.5 L168.95 313.35 168.85 314.2 168.8 314.6 168.8 314.95 164.1 316.4 163.65 315.75 168.85 314.2 163.65 315.75 163.2 315.15 163.15 315.1 168.45 313.5 M132.05 333.7 L132.7 337.35 Q134.55 339.65 134.55 342.9 134.55 344.5 134.1 345.85 140.95 389.85 146.8 470.85 L146.9 472.1 146.35 470.85 136.55 449.75 135.1 444.05 Q135.4 431.35 135.3 420.95 135.15 405.65 130.95 369.35 L131.05 368.75 130.8 367.7 130.6 366.3 130.6 361.6 Q133.3 363.25 134.0 363.25 134.95 363.25 135.1 362.7 L135.1 360.9 134.9 358.55 133.15 358.55 130.6 359.95 133.15 358.55 134.9 358.55 135.1 360.9 135.1 362.7 Q134.95 363.25 134.0 363.25 133.3 363.25 130.6 361.6 L130.6 359.95 130.6 350.25 128.65 350.9 128.6 350.65 Q129.7 350.25 130.6 349.5 L131.5 348.6 Q133.45 346.25 133.45 342.9 133.45 339.55 131.5 337.2 L130.6 336.3 Q129.6 335.45 128.45 335.1 L127.75 334.95 127.75 334.85 127.8 334.85 128.85 334.95 130.6 335.55 130.6 334.25 132.05 333.7 M106.4 169.8 L106.2 169.35 Q104.35 165.15 100.3 159.05 L106.4 166.8 108.25 169.3 108.85 170.1 111.5 174.25 Q111.15 173.5 112.6 175.1 L112.75 176.45 112.75 177.75 Q112.75 179.6 111.5 180.15 L107.4 181.8 106.4 181.95 106.1 181.7 Q105.75 181.1 106.4 179.2 L107.4 176.85 Q108.4 174.7 106.55 170.1 L106.4 169.8 M60.5 215.35 L60.15 215.35 Q60.45 215.15 60.8 215.05 L60.5 215.35 M57.3 340.5 L54.15 342.5 48.25 346.25 Q46.25 347.75 42.9 348.25 38.3 349.4 34.65 349.4 L34.15 349.45 34.1 349.4 Q34.6 346.8 34.55 339.85 34.45 332.85 43.5 336.65 51.45 340.0 49.4 331.65 54.1 337.55 57.3 340.5 M36.4 353.65 L65.2 345.0 59.4 346.9 59.45 347.0 70.55 344.35 70.65 344.4 70.65 344.45 60.25 347.95 60.3 347.95 71.4 345.15 71.5 345.25 38.75 355.45 38.65 355.15 37.65 354.5 36.4 353.65 M23.95 351.25 L23.05 358.55 Q21.4 372.0 19.35 392.5 16.6 420.55 18.65 425.0 20.7 429.4 20.15 445.4 19.75 447.65 20.85 470.85 L20.85 471.2 13.95 471.4 13.95 470.85 Q13.0 401.65 14.8 363.15 L15.35 353.15 Q18.25 352.2 20.35 352.1 L20.55 352.05 20.9 352.0 21.15 351.9 23.95 351.25 M70.65 344.4 L37.65 354.5 70.65 344.4 M130.6 337.9 L131.2 338.5 Q132.55 340.2 132.55 342.6 L132.3 344.65 Q131.95 345.75 131.2 346.7 L130.6 347.3 130.6 337.9 M134.1 345.85 Q133.6 347.35 132.55 348.6 131.65 349.65 130.6 350.25 131.65 349.65 132.55 348.6 133.6 347.35 134.1 345.85 M132.7 337.35 L132.55 337.2 Q131.65 336.1 130.6 335.55 131.65 336.1 132.55 337.2 L132.7 337.35 M128.2 368.3 Q128.15 367.3 129.15 367.35 130.05 367.3 130.1 368.3 130.1 369.25 129.15 369.25 128.55 369.25 128.35 368.8 L128.2 368.3" fill="#ffffff" fill-rule="evenodd" stroke="none"/>
    <path d="M96.25 22.25 L92.1 21.6 91.8 21.55 Q81.0 19.6 75.15 21.0 69.3 22.35 65.25 26.25 L67.4 25.75 Q69.9 24.9 72.6 24.35 L73.5 24.2 74.25 24.05 74.25 24.25 75.65 24.2 79.55 24.25 86.55 25.05 Q89.9 25.65 95.8 27.6 L96.5 27.8 96.7 27.9 98.9 28.85 Q102.95 30.7 106.4 33.3 L108.85 35.25 110.25 36.6 Q114.9 41.15 117.8 47.45 L119.75 52.65 120.55 55.95 119.9 55.55 Q116.95 53.7 113.8 52.25 L111.4 51.25 110.0 50.7 106.4 49.6 102.5 48.65 100.75 48.35 89.9 47.5 88.15 47.55 84.65 47.75 82.65 47.95 81.6 48.05 77.2 48.7 74.6 49.2 74.1 49.3 73.1 49.5 71.15 49.95 68.65 50.55 66.7 51.1 64.5 51.75 64.4 51.75 61.85 52.55 Q56.35 54.3 50.65 56.7 L50.35 55.6 Q49.35 51.7 49.25 47.45 49.15 42.6 50.1 37.25 52.1 26.45 53.9 21.45 55.7 16.4 60.1 9.75 64.45 3.05 65.9 2.8 L69.85 1.65 Q71.35 2.85 72.65 4.95 L72.55 5.1 72.75 5.1 73.2 5.9 74.75 9.25 75.95 12.7 75.8 13.3 Q76.1 14.75 77.0 15.25 L79.1 15.8 81.75 15.6 Q82.2 15.15 82.7 12.8 83.55 7.95 77.1 5.9 L73.95 5.35 Q75.7 4.1 76.85 3.85 78.8 3.4 82.0 4.5 85.15 5.55 91.35 14.15 94.4 18.4 96.25 22.25 M92.55 117.1 L94.45 115.45 95.65 114.5 104.8 125.05 104.9 125.05 105.25 125.5 105.8 126.2 106.4 126.95 106.6 127.2 107.6 128.35 Q113.75 135.5 118.45 135.6 L118.6 135.8 119.1 136.45 Q121.75 140.1 124.7 148.35 L124.9 148.95 126.15 152.5 121.65 150.1 118.6 148.1 118.3 147.9 117.2 147.15 99.7 127.25 99.75 127.2 98.6 125.6 101.9 124.3 97.55 124.15 95.45 121.2 96.8 121.1 98.65 120.95 95.05 120.65 92.55 117.1 M8.15 134.95 Q12.1 134.4 16.15 131.05 L16.15 131.1 Q19.5 128.5 23.0 122.7 L23.85 121.2 24.25 120.5 25.25 118.75 27.45 114.3 30.65 108.05 Q36.7 98.15 39.2 92.55 L46.1 78.15 46.85 79.2 47.65 80.3 41.7 95.35 38.5 104.05 37.9 104.2 38.4 104.25 34.2 115.5 Q33.2 118.2 30.25 123.55 L30.1 123.85 29.85 124.25 29.7 124.55 28.55 126.65 27.8 128.0 25.9 131.7 24.85 134.05 23.05 137.35 19.8 141.6 19.55 141.9 19.6 141.95 Q14.45 148.15 7.25 153.25 L7.2 153.35 7.1 153.4 6.3 153.85 4.9 154.25 3.5 154.1 3.7 153.15 4.05 151.05 4.15 150.15 Q4.7 146.6 5.6 143.05 L6.9 138.5 8.15 134.95 M6.95 161.9 L8.1 161.35 8.05 162.4 Q8.05 168.6 13.15 168.6 20.6 168.6 27.65 162.0 L28.6 161.0 Q32.65 156.8 34.8 151.4 37.0 144.7 39.15 140.1 L42.0 134.0 46.85 139.15 50.85 143.9 60.85 155.6 Q47.65 167.0 35.0 172.2 L32.8 169.4 Q30.45 166.75 28.65 165.55 L28.2 165.25 Q29.5 173.9 29.5 176.6 L29.4 178.35 31.55 183.55 31.95 184.45 32.65 186.15 35.45 193.85 36.1 195.9 36.6 197.85 37.55 207.1 Q38.35 215.5 39.35 222.4 40.3 229.25 42.9 238.65 44.55 244.6 45.55 247.1 L44.65 247.5 Q43.05 248.25 42.05 248.25 38.55 248.25 34.3 243.55 30.8 239.7 23.45 228.65 23.95 232.25 27.95 237.95 31.25 242.7 33.9 244.95 40.95 250.9 43.55 251.8 L47.8 251.8 48.55 254.7 48.8 255.95 48.95 256.2 Q45.15 256.1 37.95 252.9 45.3 259.2 53.45 263.0 58.2 270.4 60.5 274.9 62.35 278.6 67.6 287.45 72.85 296.25 74.35 297.55 75.85 298.85 79.6 308.9 L80.55 311.3 Q83.2 317.85 85.3 319.8 L84.85 320.45 84.3 321.25 Q80.6 326.85 70.0 333.45 L64.6 336.6 57.5 340.35 57.3 340.5 Q54.1 337.55 49.4 331.65 51.45 340.0 43.5 336.65 34.45 332.85 34.55 339.85 34.6 346.8 34.1 349.4 L34.15 349.45 34.05 349.45 Q31.25 349.6 23.95 351.25 L21.15 351.9 20.55 352.05 20.35 352.1 Q18.25 352.2 15.35 353.15 L13.15 353.8 Q15.5 343.85 17.85 336.6 L21.05 327.15 Q23.0 320.6 23.0 300.1 23.0 297.65 21.4 290.65 20.15 285.05 19.9 280.25 19.05 277.8 19.0 275.5 19.05 276.3 19.8 277.8 L19.9 280.25 Q20.75 282.9 22.5 285.65 L27.0 292.2 29.4 292.2 Q23.2 270.9 16.5 258.45 14.95 255.55 14.6 252.2 14.2 248.65 14.2 236.7 14.2 232.2 11.8 223.8 9.4 215.45 9.4 211.6 12.4 211.6 15.8 217.2 L16.6 217.2 16.6 213.2 Q9.05 204.0 8.65 190.85 L8.45 180.05 Q8.1 173.65 6.3 168.6 L6.3 161.95 6.95 161.9 M27.55 175.5 L28.2 175.5 29.4 178.35 28.2 175.5 27.55 175.5 M42.35 196.25 Q41.4 195.95 41.5 195.7 39.5 194.25 37.7 191.65 34.75 187.4 34.75 186.25 L35.05 184.9 Q60.75 170.8 81.2 150.8 L81.55 150.35 81.8 150.05 Q85.4 145.3 88.05 140.9 88.5 140.15 89.05 139.75 L91.8 133.65 Q93.95 137.75 102.9 149.85 104.05 151.35 105.55 152.2 L106.4 152.7 107.5 153.65 Q108.35 154.85 110.7 156.9 L111.15 156.4 111.05 157.2 Q110.4 163.15 112.25 167.15 L113.0 168.6 113.35 169.2 113.9 170.1 115.95 173.1 113.9 170.1 113.35 169.2 114.25 170.1 116.55 173.0 Q117.1 173.85 117.45 175.25 L117.65 176.15 118.05 178.9 Q118.4 183.0 115.7 184.45 112.95 185.9 108.7 186.15 L106.4 186.0 104.2 185.6 Q101.05 184.8 96.9 182.9 L95.05 182.1 94.95 182.05 Q88.7 179.7 84.5 181.65 L84.2 181.65 84.2 181.7 Q79.1 183.95 77.65 185.8 76.2 187.65 72.2 191.35 68.1 194.95 61.4 196.9 54.65 198.75 49.5 197.85 L42.35 196.25 M115.95 173.1 L116.65 174.05 117.45 175.25 116.65 174.05 115.95 173.1 M52.3 181.75 L52.5 181.6 51.7 180.7 52.3 181.75 M131.25 329.55 L132.05 333.7 130.6 334.25 130.6 328.25 130.8 328.2 131.25 329.55 M146.35 470.85 L143.4 470.85 Q141.1 465.1 138.95 457.95 L137.15 451.95 136.55 449.75 146.35 470.85 M118.7 156.6 L119.15 156.9 118.85 157.4 118.7 156.6 M116.85 204.0 L116.3 212.7 115.95 212.7 116.85 204.0 M106.4 169.8 L106.55 170.1 Q108.4 174.7 107.4 176.85 L106.4 179.2 Q105.75 181.1 106.1 181.7 L106.4 181.95 107.4 181.8 111.5 180.15 Q112.75 179.6 112.75 177.75 L112.75 176.45 112.6 175.1 Q111.15 173.5 111.5 174.25 L108.85 170.1 108.25 169.3 106.4 166.8 100.3 159.05 Q104.35 165.15 106.2 169.35 L106.4 169.8 M99.4 167.1 L99.4 167.2 99.45 167.3 99.45 167.1 99.4 167.1 M23.05 358.55 Q25.85 357.5 29.0 357.5 31.2 357.5 32.75 362.2 L34.2 367.9 38.1 367.9 50.2 361.85 Q57.3 358.3 62.4 358.3 L74.8 359.9 87.2 352.35 Q100.35 344.8 105.1 344.8 108.7 344.8 121.0 338.6 L122.45 337.9 Q121.0 340.0 121.0 342.9 121.0 346.25 123.0 348.6 124.9 350.85 127.55 350.95 L127.8 350.95 128.0 350.95 128.65 350.9 130.6 350.25 130.6 359.95 130.6 361.6 130.6 366.3 130.8 367.7 130.4 367.2 Q129.8 366.6 128.95 366.6 L128.6 361.05 129.25 360.7 129.4 360.85 130.6 361.6 129.4 360.85 129.25 360.7 128.6 361.05 128.95 366.6 128.85 366.6 Q127.95 366.55 127.3 367.2 126.65 367.85 126.7 368.75 126.65 369.65 127.3 370.3 L127.8 370.65 Q126.75 379.3 126.2 385.8 L125.95 389.35 124.3 404.4 Q123.25 411.9 123.85 428.1 124.25 438.95 125.3 449.75 L126.5 460.35 Q127.35 467.15 128.2 470.85 L22.55 470.85 20.85 471.2 20.85 470.85 Q19.75 447.65 20.15 445.4 20.7 429.4 18.65 425.0 16.6 420.55 19.35 392.5 21.4 372.0 23.05 358.55 M127.45 336.85 L127.85 336.8 Q129.4 336.8 130.6 337.9 L130.6 347.3 Q129.6 348.2 128.35 348.35 L127.85 348.4 Q125.9 348.4 124.5 346.7 123.15 345.0 123.15 342.6 L123.25 341.5 Q123.45 339.8 124.5 338.5 125.75 337.0 127.45 336.85 M130.6 334.25 L130.6 335.55 128.85 334.95 130.6 334.25 M130.95 369.35 Q135.15 405.65 135.3 420.95 135.4 431.35 135.1 444.05 134.45 441.5 134.15 439.55 133.05 433.35 131.95 418.45 130.85 403.55 130.95 391.3 L130.35 370.35 130.4 370.3 130.95 369.35 M130.6 359.95 L129.25 360.7 128.55 360.3 128.5 358.7 128.45 357.1 128.0 350.95 128.45 357.1 128.5 358.7 128.55 360.3 129.25 360.7 130.6 359.95 M128.55 360.3 L128.6 361.05 Q123.3 363.85 122.85 363.85 121.85 363.85 121.75 362.85 L121.75 361.0 121.75 358.95 Q121.9 358.35 123.3 358.35 125.35 358.35 128.55 360.3 125.35 358.35 123.3 358.35 121.9 358.35 121.75 358.95 L121.75 361.0 121.75 362.85 Q121.85 363.85 122.85 363.85 123.3 363.85 128.6 361.05 L128.55 360.3 M133.25 470.85 Q129.8 459.9 128.4 449.75 L127.8 444.8 Q126.35 430.4 126.7 416.2 127.0 401.95 127.85 391.3 L128.3 385.8 129.2 375.85 129.0 382.6 128.9 385.8 128.65 398.2 128.65 409.4 130.05 425.85 Q130.3 430.2 133.15 449.75 L133.25 450.25 Q134.8 460.05 137.15 469.25 L137.6 470.85 133.25 470.85 M22.55 470.85 L20.85 470.85 22.55 470.85" fill="#ebd8d8" fill-rule="evenodd" stroke="none"/>
    <path d="M97.75 26.15 L90.85 24.45 83.8 23.6 79.9 23.55 78.25 23.6 77.8 23.6 75.9 23.8 74.25 24.05 73.5 24.2 72.6 24.35 Q69.9 24.9 67.4 25.75 L65.25 26.25 Q69.3 22.35 75.15 21.0 81.0 19.6 91.8 21.55 L92.1 21.6 96.25 22.25 97.75 26.15 M69.85 1.65 L65.9 2.8 Q64.45 3.05 60.1 9.75 55.7 16.4 53.9 21.45 52.1 26.45 50.1 37.25 49.15 42.6 49.25 47.45 49.35 51.7 50.35 55.6 L50.65 56.7 50.6 56.75 Q47.4 58.05 44.2 59.6 42.95 60.1 40.95 61.2 40.35 59.0 40.35 51.85 L40.4 47.45 Q40.6 41.25 41.35 37.6 L42.45 32.2 Q43.95 25.0 48.4 17.65 52.25 11.2 56.65 7.2 64.0 0.4 69.5 1.35 L69.85 1.65 M88.2 117.9 L91.4 117.75 92.55 117.1 95.05 120.65 94.3 120.55 93.25 120.4 Q91.15 119.85 88.3 118.2 L88.2 118.0 88.2 117.9 M46.85 79.2 L47.05 79.1 47.4 79.5 47.65 79.6 48.2 80.0 48.5 80.2 49.8 81.1 51.35 82.3 Q47.8 90.05 45.55 97.2 L44.25 101.5 44.0 102.5 43.4 104.4 42.75 106.8 42.7 107.1 41.6 107.05 42.65 107.2 41.1 112.65 40.65 114.3 39.75 117.35 39.65 117.6 Q37.65 124.2 36.05 128.5 L35.0 131.25 34.45 132.45 34.0 133.4 Q32.1 137.25 29.3 141.25 L29.15 141.45 28.45 142.45 27.35 143.85 27.05 144.3 23.55 148.55 23.5 148.6 21.55 151.1 18.35 154.3 18.1 154.5 Q13.45 158.7 8.1 161.35 L6.95 161.9 6.9 161.8 6.3 161.95 6.05 162.0 5.5 162.1 Q4.45 162.0 3.6 161.3 3.15 160.9 2.9 160.0 L2.9 158.95 2.9 158.65 3.45 154.5 3.5 154.1 4.9 154.25 6.3 153.85 7.1 153.4 7.2 153.35 7.25 153.25 Q14.45 148.15 19.6 141.95 L19.55 141.9 19.8 141.6 23.05 137.35 24.85 134.05 25.9 131.7 27.8 128.0 28.55 126.65 29.7 124.55 29.85 124.25 30.1 123.85 30.25 123.55 Q33.2 118.2 34.2 115.5 L38.4 104.25 38.5 104.25 38.5 104.05 41.7 95.35 47.65 80.3 46.85 79.2 M92.35 126.4 L93.7 126.45 94.15 126.45 95.2 126.4 97.0 126.15 97.75 125.9 98.6 125.6 99.75 127.2 99.7 127.25 117.2 147.15 118.3 147.9 118.6 148.1 121.65 150.1 126.15 152.5 126.5 153.45 126.65 153.9 127.65 156.85 127.75 157.2 127.35 158.1 125.9 159.05 124.9 159.3 124.65 159.2 122.3 158.45 120.1 157.4 119.15 156.9 118.7 156.6 115.7 154.6 114.25 153.45 113.25 152.6 111.25 150.95 108.6 148.7 106.75 147.05 106.4 146.75 105.15 145.5 104.15 144.5 Q101.25 141.5 99.15 138.55 L98.55 137.6 98.15 137.0 94.75 131.05 94.0 129.65 93.55 128.75 93.4 128.5 92.35 126.4 M97.55 124.15 L96.9 124.1 Q93.3 123.65 90.4 122.45 L89.6 120.8 94.3 121.3 94.45 121.3 95.45 121.2 97.55 124.15" fill="#ddbbbb" fill-rule="evenodd" stroke="none"/>
    <path d="M73.95 5.35 L77.1 5.9 Q83.55 7.95 82.7 12.8 82.2 15.15 81.75 15.6 L79.1 15.8 77.0 15.25 Q76.1 14.75 75.8 13.3 L76.15 13.15 75.95 12.85 75.95 12.7 74.75 9.25 73.2 5.9 73.95 5.35 M8.1 161.35 Q13.45 158.7 18.1 154.5 L18.35 154.3 21.55 151.1 23.5 148.6 23.55 148.55 27.05 144.3 27.35 143.85 28.45 142.45 29.15 141.45 29.3 141.25 Q32.1 137.25 34.0 133.4 L34.45 132.45 35.0 131.25 36.05 128.5 42.0 134.0 39.15 140.1 Q37.0 144.7 34.8 151.4 32.65 156.8 28.6 161.0 L27.65 162.0 Q20.6 168.6 13.15 168.6 8.05 168.6 8.05 162.4 L8.1 161.35 M28.65 165.55 Q30.45 166.75 32.8 169.4 L35.0 172.2 31.1 173.6 Q30.55 169.45 28.65 165.55 30.55 169.45 31.1 173.6 L31.15 174.0 Q31.6 177.5 31.55 183.55 L29.4 178.35 29.5 176.6 Q29.5 173.9 28.2 165.25 L28.65 165.55 M32.65 186.15 L35.05 184.9 34.75 186.25 Q34.75 187.4 37.7 191.65 39.5 194.25 41.5 195.7 41.4 195.95 42.35 196.25 L42.7 207.9 Q42.9 217.85 43.75 223.95 44.4 228.8 45.4 233.3 47.1 234.7 50.35 239.75 53.45 244.5 60.4 244.4 L57.55 244.5 50.75 243.9 48.15 243.35 48.45 244.2 Q54.65 254.9 59.7 260.65 58.7 260.75 57.4 259.0 54.9 255.75 53.1 254.75 L53.3 255.1 65.1 275.65 Q69.75 283.6 72.2 286.3 74.65 289.0 78.55 299.9 80.65 305.85 80.55 311.3 L79.6 308.9 Q75.85 298.85 74.35 297.55 72.85 296.25 67.6 287.45 62.35 278.6 60.5 274.9 58.2 270.4 53.45 263.0 L50.0 257.8 48.95 256.2 50.0 257.8 53.45 263.0 Q45.3 259.2 37.95 252.9 45.15 256.1 48.95 256.2 L48.8 255.95 48.55 254.7 47.8 251.8 43.55 251.8 Q40.95 250.9 33.9 244.95 31.25 242.7 27.95 237.95 23.95 232.25 23.45 228.65 30.8 239.7 34.3 243.55 38.55 248.25 42.05 248.25 43.05 248.25 44.65 247.5 L45.55 247.1 Q44.55 244.6 42.9 238.65 40.3 229.25 39.35 222.4 38.35 215.5 37.55 207.1 L36.6 197.85 36.1 195.9 35.45 193.85 32.65 186.15 M113.35 169.2 L113.0 168.6 112.25 167.15 Q110.4 163.15 111.05 157.2 L111.15 156.4 110.7 156.9 Q108.35 154.85 107.5 153.65 L106.4 152.7 105.55 152.2 Q104.05 151.35 102.9 149.85 93.95 137.75 91.8 133.65 L92.8 131.5 93.1 130.85 94.75 131.05 98.15 137.0 98.55 137.6 99.15 138.55 Q101.25 141.5 104.15 144.5 L105.15 145.5 106.4 146.75 106.75 147.05 108.6 148.7 111.25 150.95 113.25 152.6 114.25 153.45 115.7 154.6 118.7 156.6 118.85 157.4 Q120.25 163.55 120.25 165.3 L120.15 170.1 119.95 176.8 119.85 179.05 118.1 176.25 117.45 175.25 Q117.1 173.85 116.55 173.0 L114.25 170.1 113.35 169.2 M111.2 156.15 L111.15 156.4 111.3 156.25 111.2 156.15 111.3 155.35 111.2 156.15 M47.8 251.8 Q47.15 249.75 46.5 248.8 46.15 248.5 45.55 247.1 46.15 248.5 46.5 248.8 47.15 249.75 47.8 251.8 M62.4 263.35 L62.2 263.85 62.2 263.2 62.4 263.35 M34.15 349.45 L35.05 354.05 36.4 353.65 37.65 354.5 38.65 355.15 38.75 355.45 39.7 357.85 70.15 348.0 70.2 348.1 65.5 350.35 71.4 352.9 74.6 351.2 77.9 349.2 78.4 348.9 Q82.9 349.85 84.3 345.9 88.7 346.0 90.5 341.85 93.25 343.15 94.7 340.95 L94.85 339.9 126.9 329.45 130.6 328.25 130.6 334.25 128.85 334.95 127.8 334.85 127.75 334.85 127.25 334.9 126.85 334.9 126.7 334.95 Q124.6 335.3 123.0 337.2 L122.45 337.9 121.0 338.6 Q108.7 344.8 105.1 344.8 100.35 344.8 87.2 352.35 L74.8 359.9 62.4 358.3 Q57.3 358.3 50.2 361.85 L38.1 367.9 34.2 367.9 32.75 362.2 Q31.2 357.5 29.0 357.5 25.85 357.5 23.05 358.55 L23.95 351.25 Q31.25 349.6 34.05 349.45 L34.15 349.45 M126.9 329.45 L126.85 334.85 126.85 334.9 126.85 334.85 126.9 329.45" fill="#d1a5a5" fill-rule="evenodd" stroke="none"/>
    <path d="M112.9 60.95 L114.15 61.55 116.45 66.0 117.85 68.7 118.3 69.4 119.0 70.5 120.2 72.0 120.1 72.15 119.3 74.35 119.2 74.45 119.1 74.35 118.4 73.4 117.65 72.3 117.25 71.6 116.9 71.0 116.95 70.85 116.95 70.8 116.95 70.85 116.75 70.75 113.8 65.15 113.6 64.45 113.35 63.35 112.9 60.95 M103.45 57.7 L105.6 58.2 106.4 59.7 108.75 62.95 109.4 63.7 112.85 66.65 112.85 66.75 Q113.65 70.25 114.65 71.1 112.45 69.9 110.7 68.35 L109.9 67.65 Q107.9 65.85 106.4 63.6 104.6 60.95 103.45 57.7 M87.4 56.5 L88.15 57.2 Q89.95 58.95 92.05 60.35 L92.35 60.6 Q93.85 61.55 95.45 62.35 L95.55 62.45 98.3 65.3 100.35 67.2 100.65 67.4 100.45 67.35 98.7 66.85 95.1 65.4 Q91.65 63.75 88.7 61.25 L88.35 60.8 87.6 59.75 Q86.55 58.2 85.85 56.6 L87.4 56.5 M86.35 61.65 L86.45 61.75 Q87.85 64.15 90.1 66.35 L89.1 66.0 Q82.25 63.6 78.65 59.1 L77.6 57.7 80.25 57.25 Q81.9 59.0 84.05 60.4 L86.35 61.65 M73.65 86.0 L73.9 86.35 Q76.6 89.8 77.6 92.95 L73.95 89.65 73.4 89.2 73.3 89.1 68.7 85.85 68.7 85.7 Q67.8 83.75 66.15 81.8 L65.0 80.65 Q62.35 78.0 61.2 75.7 L60.55 74.3 60.25 72.95 60.2 72.05 60.2 71.9 Q60.35 73.15 60.9 74.45 61.55 75.9 63.2 77.65 L65.2 79.8 65.4 80.05 65.25 79.9 65.5 80.2 68.4 82.25 72.35 85.0 73.65 86.0 M50.9 66.15 Q51.35 65.75 51.9 65.65 L52.15 65.65 50.9 66.15 52.15 65.65 52.4 65.65 52.4 65.5 53.15 65.2 53.3 65.45 53.4 65.9 53.4 66.05 Q53.9 69.65 55.3 72.8 56.75 75.9 59.6 78.6 L62.1 80.95 62.55 81.55 64.4 83.6 67.15 86.9 67.35 87.25 67.45 89.5 67.35 89.6 67.25 89.5 66.5 88.65 65.3 87.4 60.55 83.05 59.0 81.55 57.6 80.15 56.85 80.3 56.05 80.2 55.6 79.75 55.55 79.75 55.1 79.3 54.0 78.3 52.5 77.15 Q51.45 76.45 50.65 74.7 49.85 73.0 49.85 71.45 L49.7 69.25 49.7 69.05 Q49.6 67.9 50.05 67.15 L50.75 66.3 50.9 66.15 M71.4 60.15 L71.5 60.3 71.5 60.45 71.55 60.65 72.0 62.95 Q72.25 64.05 72.85 65.25 L73.2 66.0 73.35 66.3 73.2 66.4 72.85 65.9 Q70.3 62.65 68.7 59.95 L68.6 59.8 70.75 59.25 71.4 60.15 M67.05 102.0 Q71.75 107.3 74.1 108.95 L75.2 109.75 77.8 111.6 78.5 112.05 78.95 112.4 78.05 113.85 77.0 115.9 76.5 117.2 75.8 119.45 70.6 108.95 Q68.5 104.9 65.6 100.85 L67.05 102.0" fill="#fda682" fill-rule="evenodd" stroke="none"/>
    <path d="M108.75 62.95 L106.4 59.7 105.6 58.2 106.4 58.45 108.15 59.0 108.3 60.15 108.75 62.95 M118.2 63.95 L118.5 65.6 Q118.9 68.05 120.55 72.35 L120.2 72.0 119.0 70.5 118.3 69.4 117.85 68.7 116.45 66.0 114.15 61.55 Q116.2 62.6 118.2 63.95 M112.35 95.1 L113.15 93.25 113.3 93.45 Q115.3 95.1 117.4 97.7 L117.45 97.85 Q116.15 96.6 113.9 95.4 L112.35 95.1 M89.65 56.4 L93.05 59.2 93.35 59.35 95.6 60.7 95.7 60.75 95.75 60.85 98.65 63.55 98.6 63.7 97.95 63.45 95.75 62.5 95.45 62.35 Q93.85 61.55 92.35 60.6 L92.05 60.35 Q89.95 58.95 88.15 57.2 L87.4 56.5 89.6 56.4 89.65 56.4 M81.2 57.15 Q83.6 60.05 88.05 62.45 L86.6 61.8 86.35 61.65 84.05 60.4 Q81.9 59.0 80.25 57.25 L81.2 57.15 M69.2 87.05 L69.65 90.05 Q69.15 87.95 67.35 85.9 L67.1 85.7 67.0 85.55 65.9 84.5 62.75 81.6 62.1 80.95 59.6 78.6 Q56.75 75.9 55.3 72.8 53.9 69.65 53.4 66.05 L53.4 65.9 53.3 65.45 53.15 65.2 53.3 65.15 53.35 65.15 56.3 63.9 Q56.15 66.5 56.5 68.1 57.2 71.4 61.1 77.85 62.5 79.75 65.4 82.2 68.25 84.65 69.2 87.05 M70.95 59.2 L71.4 60.15 70.75 59.25 70.95 59.2 M57.95 63.3 L58.7 63.05 58.4 67.45 57.95 63.3 M53.3 65.15 L53.3 65.45 53.3 65.15 M51.0 98.65 L50.9 98.15 50.85 97.7 50.8 97.3 50.8 96.95 50.7 95.0 50.7 94.4 50.7 93.2 50.8 91.65 51.15 89.2 51.4 88.25 51.5 88.25 51.5 90.2 51.6 91.2 51.6 91.75 51.85 94.9 51.85 95.25 52.35 97.8 Q53.1 100.5 54.75 104.35 L55.15 106.15 55.25 106.9 55.35 107.35 55.35 107.4 55.5 107.75 55.8 108.6 Q56.75 110.95 59.05 114.2 L60.2 115.75 60.4 116.0 60.55 116.2 60.9 116.7 Q64.85 122.05 64.95 123.65 L62.8 121.1 62.75 121.05 61.9 120.0 Q58.2 115.45 55.95 111.7 L55.4 110.8 55.25 110.55 53.95 108.05 52.3 103.8 Q51.5 101.3 51.0 98.65 M77.0 115.9 L78.05 113.85 Q81.0 120.9 87.7 123.15 L91.15 123.95 92.15 124.1 94.75 124.2 96.9 124.1 97.55 124.15 101.9 124.3 98.6 125.6 97.75 125.9 97.0 126.15 95.2 126.4 94.15 126.45 93.7 126.45 92.35 126.4 91.2 126.3 87.7 125.7 Q85.1 124.95 83.05 123.6 79.05 121.0 77.0 115.9 M154.4 310.5 L158.0 309.45 157.95 309.45 166.45 307.1 166.55 307.2 Q167.35 307.25 168.25 307.95 169.6 309.0 169.75 310.45 169.85 311.75 169.0 312.9 L168.45 313.5 163.15 315.1 163.2 315.15 158.2 316.65 158.45 316.1 Q158.2 313.4 154.4 310.5 M92.35 327.35 L96.7 326.2 96.7 326.1 126.05 318.55 128.7 317.85 128.75 317.9 132.85 316.8 Q133.5 318.6 136.6 323.2 L95.1 335.8 Q95.05 332.0 94.05 329.6 L92.35 327.35 M34.15 349.45 L34.65 349.4 Q38.3 349.4 42.9 348.25 46.25 347.75 48.25 346.25 L54.15 342.5 57.3 340.5 57.5 340.35 64.6 336.6 66.05 338.95 Q67.65 341.4 69.8 343.6 L65.2 345.0 36.4 353.65 35.05 354.05 34.15 349.45 M164.45 311.05 Q164.55 311.65 165.05 312.0 165.5 312.35 166.1 312.3 L167.05 311.75 Q167.4 311.25 167.35 310.65 167.3 310.05 166.8 309.7 166.3 309.3 165.75 309.4 165.15 309.45 164.8 309.95 164.4 310.45 164.45 311.05" fill="#663300" fill-rule="evenodd" stroke="none"/>
    <path d="M64.4 51.75 L64.5 51.75 64.4 51.85 64.4 51.75 M111.5 60.3 L112.25 64.25 112.5 65.3 112.7 66.0 112.9 66.6 112.85 66.65 109.4 63.7 108.75 62.95 108.3 60.15 108.15 59.0 111.5 60.3 M118.2 63.95 Q119.85 65.05 121.45 66.3 L121.8 67.8 122.75 71.0 Q122.8 71.7 123.3 72.7 L124.25 74.7 125.05 76.0 124.8 75.9 123.6 75.1 120.55 72.35 Q118.9 68.05 118.5 65.6 L118.2 63.95 M113.15 93.25 L113.2 93.15 113.7 91.8 117.45 95.8 Q118.55 97.95 118.8 99.8 L118.45 99.1 117.45 97.85 117.4 97.7 Q115.3 95.1 113.3 93.45 L113.15 93.25 M95.6 60.7 L93.35 59.35 93.05 59.2 89.65 56.4 92.05 56.4 Q93.45 58.4 95.6 60.65 L95.6 60.7 M81.2 57.15 L84.3 56.75 Q86.45 61.25 90.6 63.35 L88.3 62.55 88.05 62.45 Q83.6 60.05 81.2 57.15 M76.65 88.5 L74.6 86.75 74.1 86.4 73.65 86.0 72.35 85.0 68.4 82.25 65.5 80.2 65.4 80.05 65.2 79.8 63.2 77.65 Q61.55 75.9 60.9 74.45 60.35 73.15 60.2 71.9 L60.2 71.8 59.9 71.8 60.2 72.05 60.25 72.95 60.55 74.3 61.2 75.7 Q62.35 78.0 65.0 80.65 L66.15 81.8 Q67.8 83.75 68.7 85.7 L68.7 85.85 69.2 87.05 Q68.25 84.65 65.4 82.2 62.5 79.75 61.1 77.85 57.2 71.4 56.5 68.1 56.15 66.5 56.3 63.9 L57.95 63.3 58.4 67.45 58.7 63.05 62.9 61.55 Q62.8 69.65 67.65 76.7 69.4 79.4 73.1 83.5 76.65 87.35 77.9 89.05 L77.85 89.2 76.9 88.25 76.65 88.5 M42.25 70.45 Q44.4 69.05 46.0 68.35 L46.45 70.3 47.3 72.95 48.0 75.0 Q48.65 77.45 50.45 79.45 L50.9 79.8 51.9 80.8 53.05 81.85 53.4 82.25 52.45 83.2 52.3 83.1 52.15 83.0 52.1 82.9 51.35 82.3 49.8 81.1 48.5 80.2 48.2 80.0 47.65 79.6 47.4 79.5 47.05 79.1 46.95 78.9 44.5 75.55 Q43.25 73.1 42.35 70.7 L42.25 70.45 M71.15 49.95 L71.15 50.0 71.15 49.95 M71.4 60.15 L70.95 59.2 71.5 59.05 Q72.15 61.0 73.3 62.8 L71.8 60.8 71.75 60.65 71.5 60.3 71.4 60.15 M54.05 82.75 L54.1 82.8 54.1 82.85 54.4 83.15 54.4 83.2 54.35 83.45 Q53.75 85.45 53.65 86.85 L53.6 87.45 53.55 89.75 53.95 92.9 54.6 96.4 Q54.85 97.4 56.05 100.0 L58.25 104.8 59.8 107.75 63.75 115.0 64.65 116.75 Q66.25 119.85 64.75 118.2 L63.5 116.35 61.45 113.6 60.65 112.55 Q56.75 107.45 54.55 103.25 L54.75 104.35 Q53.1 100.5 52.35 97.8 L51.85 95.25 51.85 94.9 51.6 91.75 51.6 91.2 51.5 90.2 51.5 88.25 51.5 88.2 51.5 88.1 51.6 87.6 52.1 86.1 52.6 84.75 52.65 84.7 53.1 83.75 53.15 83.75 53.15 84.35 54.05 82.75 M78.95 112.4 L79.4 112.75 79.55 112.85 82.15 114.75 Q83.7 116.5 85.75 117.8 L89.0 119.55 91.25 120.4 92.5 120.65 94.45 120.85 95.25 120.95 96.8 121.1 95.45 121.2 94.45 121.3 94.3 121.3 89.6 120.8 88.75 120.5 88.45 120.4 88.4 120.35 Q86.15 119.4 82.85 116.75 84.85 119.3 87.6 121.0 L87.7 121.05 90.4 122.45 Q93.3 123.65 96.9 124.1 L94.75 124.2 92.15 124.1 91.15 123.95 87.7 123.15 Q81.0 120.9 78.05 113.85 L78.95 112.4" fill="#a05001" fill-rule="evenodd" stroke="none"/>
    <path d="M112.95 66.7 L113.05 66.8 115.3 68.2 Q114.5 67.5 113.8 65.15 L116.75 70.75 116.95 70.85 116.95 70.8 116.95 70.85 116.9 71.0 115.55 76.1 114.4 81.7 113.05 87.65 111.6 92.55 Q110.5 95.8 109.2 98.4 L106.4 103.2 Q104.1 106.5 101.15 109.1 L98.7 111.2 95.4 114.1 95.35 114.15 95.3 114.2 Q93.85 115.95 92.35 116.8 L91.8 117.1 Q89.95 117.95 88.6 117.8 L88.05 117.7 87.3 117.55 86.0 117.25 Q84.75 116.9 83.75 116.0 L81.45 113.9 81.25 113.75 79.95 112.6 79.15 112.1 78.45 111.65 78.3 111.7 78.0 111.45 75.65 108.85 74.5 107.45 Q68.25 99.5 67.45 89.8 L67.45 89.5 67.35 87.25 67.35 86.95 67.35 85.9 Q69.15 87.95 69.65 90.05 L69.2 87.05 68.7 85.85 73.3 89.1 73.4 89.2 73.95 89.65 77.6 92.95 Q76.6 89.8 73.9 86.35 L73.65 86.0 74.1 86.4 74.6 86.75 76.65 88.5 77.8 89.55 78.2 90.0 77.95 89.35 77.9 89.05 Q76.8 86.3 74.5 83.35 L74.15 82.9 Q73.85 80.35 73.7 77.65 73.4 72.4 73.45 66.6 L73.4 66.45 73.4 66.4 73.4 66.05 73.45 63.0 74.55 64.35 73.5 62.3 73.55 60.15 73.55 58.55 77.6 57.7 78.65 59.1 Q82.25 63.6 89.1 66.0 L90.1 66.35 Q87.85 64.15 86.45 61.75 L86.35 61.65 86.6 61.8 88.05 62.45 88.3 62.55 90.6 63.35 90.75 63.45 88.7 61.25 Q91.65 63.75 95.1 65.4 L98.7 66.85 100.45 67.35 100.65 67.4 100.35 67.2 98.3 65.3 95.55 62.45 95.45 62.35 95.75 62.5 97.95 63.45 98.6 63.7 98.9 63.8 99.5 64.0 101.25 64.5 98.75 62.25 98.5 61.95 97.6 61.1 97.4 60.9 Q95.15 58.55 93.75 56.45 98.85 56.6 103.45 57.7 104.6 60.95 106.4 63.6 107.9 65.85 109.9 67.65 L110.7 68.35 Q112.45 69.9 114.65 71.1 113.65 70.25 112.85 66.75 L112.85 66.65 112.95 66.7 M101.3 80.5 Q102.15 77.45 105.1 73.65 L105.45 73.2 105.05 73.6 Q99.45 79.4 100.7 83.7 100.65 85.3 101.15 86.85 L101.15 84.95 101.2 84.45 Q101.6 79.45 104.15 75.5 102.15 78.05 101.3 80.5 M69.8 90.9 L69.65 90.05 69.8 90.9 M97.65 94.1 L97.6 94.05 97.05 94.1 97.65 94.1 M97.45 96.05 L96.9 96.1 Q100.9 96.2 101.9 93.7 L101.5 94.05 101.7 93.75 Q99.75 95.3 97.45 96.05" fill="#ffd5c4" fill-rule="evenodd" stroke="none"/>
    <path d="M101.3 80.5 Q102.15 78.05 104.15 75.5 101.6 79.45 101.2 84.45 L101.15 84.95 101.15 86.85 Q100.65 85.3 100.7 83.7 100.75 82.1 101.3 80.5 M97.45 96.05 L97.4 96.05 Q100.1 96.05 101.5 94.05 L101.9 93.7 Q100.9 96.2 96.9 96.1 L97.45 96.05" fill="#000000" fill-rule="evenodd" stroke="none"/>
    <path d="M40.95 61.2 Q42.95 60.1 44.2 59.6 47.4 58.05 50.6 56.75 L51.9 61.55 Q52.5 63.7 53.35 65.15 L53.3 65.15 53.15 65.2 52.4 65.5 52.15 65.65 51.9 65.65 Q51.35 65.75 50.9 66.15 L46.0 68.35 Q44.4 69.05 42.25 70.45 L42.15 70.2 42.0 70.4 41.45 69.95 Q38.6 67.25 38.5 62.7 L38.6 62.4 38.8 62.3 Q39.0 62.15 38.8 62.2 L38.75 62.2 38.6 62.25 38.75 62.2 39.35 61.95 39.95 61.7 40.05 61.65 40.95 61.2" fill="#e1e1e1" fill-rule="evenodd" stroke="none"/>
    <path d="M73.55 58.55 L73.55 60.15 73.5 62.3 Q72.9 61.15 72.65 60.05 L72.4 58.8 73.55 58.55 M73.45 63.0 L73.4 66.05 73.4 66.4 73.4 66.45 73.45 66.6 Q73.4 72.4 73.7 77.65 73.85 80.35 74.15 82.9 L71.6 80.05 Q66.45 74.7 65.15 67.5 64.6 64.45 64.95 60.9 L68.6 59.8 68.7 59.95 Q70.3 62.65 72.85 65.9 L73.2 66.4 73.35 66.3 73.2 66.0 72.85 65.25 Q72.25 64.05 72.0 62.95 L71.55 60.65 71.5 60.45 71.5 60.3 71.75 60.65 71.8 60.8 73.3 62.8 73.45 63.0 M46.0 68.35 L50.9 66.15 50.75 66.3 50.05 67.15 Q49.6 67.9 49.7 69.05 L49.7 69.25 49.85 71.45 Q49.85 73.0 50.65 74.7 51.45 76.45 52.5 77.15 L54.0 78.3 55.1 79.3 55.55 79.75 55.6 79.75 56.05 80.2 56.85 80.3 57.6 80.15 59.0 81.55 60.55 83.05 65.3 87.4 66.5 88.65 67.25 89.5 67.35 89.6 67.45 89.5 67.45 89.8 Q68.25 99.5 74.5 107.45 L75.65 108.85 78.0 111.45 78.3 111.7 79.0 112.35 79.4 112.75 78.95 112.4 78.5 112.05 77.8 111.6 75.2 109.75 74.1 108.95 Q71.75 107.3 67.05 102.0 L64.8 99.5 64.75 99.35 Q61.9 96.05 60.0 92.25 58.05 88.3 57.15 83.8 L57.05 83.35 56.5 83.7 55.85 83.65 54.95 83.5 55.85 83.65 56.5 83.7 57.05 83.35 57.15 83.8 Q58.05 88.3 60.0 92.25 61.9 96.05 64.75 99.35 L64.8 99.5 67.05 102.0 65.6 100.85 Q68.5 104.9 70.6 108.95 L75.8 119.45 75.65 119.95 74.7 123.55 74.45 124.35 73.65 126.15 66.8 119.0 66.65 118.6 Q65.0 114.7 61.75 108.3 L61.0 106.8 60.0 104.8 58.05 100.55 Q56.4 96.7 55.7 94.0 55.25 92.3 55.2 91.05 L54.95 87.95 54.95 87.45 54.9 86.6 54.95 86.5 54.9 86.45 54.9 84.5 54.9 84.35 54.95 83.5 54.65 83.45 54.55 83.35 54.4 83.2 54.4 83.15 54.1 82.85 54.1 82.8 54.05 82.75 53.75 82.55 53.4 82.25 53.05 81.85 51.9 80.8 50.9 79.8 50.45 79.45 Q48.65 77.45 48.0 75.0 L47.3 72.95 46.45 70.3 46.0 68.35 M52.15 65.65 L52.4 65.5 52.4 65.65 52.15 65.65 M67.35 87.25 L67.15 86.9 64.4 83.6 62.55 81.55 62.1 80.95 62.75 81.6 65.9 84.5 67.0 85.55 67.1 85.7 67.35 85.9 67.35 86.95 67.35 87.25 M54.75 104.35 L54.55 103.25 Q56.75 107.45 60.65 112.55 L55.65 107.3 55.15 106.15 54.75 104.35 M68.1 126.55 L68.15 126.55 68.1 126.6 68.1 126.55 M73.55 141.95 L74.25 141.8 73.95 142.2 73.55 141.95" fill="#fec4ab" fill-rule="evenodd" stroke="none"/>
    <path d="M75.65 119.95 L75.8 119.45 76.5 117.2 77.0 115.9 Q79.05 121.0 83.05 123.6 L82.15 126.65 Q77.25 124.55 75.65 119.95 M60.65 112.55 L61.45 113.6 63.5 116.35 64.75 118.2 66.55 121.5 Q67.9 125.35 68.1 126.55 L68.1 126.6 68.15 126.55 68.25 125.95 68.45 125.8 Q68.65 128.55 67.65 132.9 67.8 128.5 66.45 124.25 64.65 118.85 60.9 116.7 L60.55 116.2 60.4 116.0 60.2 115.75 59.05 114.2 Q56.75 110.95 55.8 108.6 L55.5 107.75 55.35 107.4 55.35 107.35 55.65 107.3 60.65 112.55 M53.95 108.05 L55.25 110.55 55.4 110.8 55.95 111.7 Q58.2 115.45 61.9 120.0 L62.75 121.05 62.8 121.1 Q64.15 124.2 63.5 127.7 63.25 126.15 58.3 119.05 54.05 112.85 52.8 110.65 L53.95 108.05" fill="#fefd89" fill-rule="evenodd" stroke="none"/>
    <path d="M66.8 119.0 L73.65 126.15 74.45 124.35 74.7 123.55 75.65 119.95 Q77.25 124.55 82.15 126.65 L79.75 132.45 Q77.55 136.95 74.25 141.8 L73.55 141.95 73.8 142.45 71.4 145.75 70.95 146.35 70.8 146.2 63.45 137.15 62.65 136.15 60.55 133.7 Q54.2 126.4 47.95 121.15 L52.8 110.65 Q54.05 112.85 58.3 119.05 63.25 126.15 63.5 127.7 64.15 124.2 62.8 121.1 L64.95 123.65 Q64.85 122.05 60.9 116.7 64.65 118.85 66.45 124.25 67.8 128.5 67.65 132.9 68.65 128.55 68.45 125.8 L68.25 125.95 68.35 124.75 68.25 123.35 67.8 121.6 66.8 119.0 M73.65 126.15 L71.4 129.75 Q69.15 132.75 66.3 135.1 L64.95 136.15 63.45 137.15 64.95 136.15 66.3 135.1 Q69.15 132.75 71.4 129.75 L73.65 126.15 M71.4 145.75 L70.8 146.2 71.4 145.75 M57.5 200.85 L57.5 200.4 57.65 200.85 57.5 200.85" fill="#ffffcc" fill-rule="evenodd" stroke="none"/>
    <path d="M39.65 117.6 L41.65 116.35 42.95 117.25 47.95 121.15 42.0 134.0 36.05 128.5 Q37.65 124.2 39.65 117.6 M83.05 123.6 Q85.1 124.95 87.7 125.7 L91.2 126.3 92.35 126.4 93.4 128.5 Q87.4 128.3 83.95 127.3 L82.15 126.65 83.05 123.6 M31.1 173.6 L35.0 172.2 Q37.05 175.35 37.05 178.3 L35.9 182.15 Q35.3 183.85 35.05 184.9 L32.65 186.15 31.95 184.45 32.15 184.25 31.55 183.55 Q31.6 177.5 31.15 174.0 L31.1 173.6" fill="#d9d9d9" fill-rule="evenodd" stroke="none"/>
    <path d="M52.3 181.75 L51.7 180.7 52.5 181.6 52.3 181.75" fill="#feb4b4" fill-rule="evenodd" stroke="none"/>
    <path d="M42.35 196.25 L49.5 197.85 Q54.65 198.75 61.4 196.9 68.1 194.95 72.2 191.35 76.2 187.65 77.65 185.8 79.1 183.95 84.2 181.7 L84.2 181.65 84.5 181.65 Q88.7 179.7 94.95 182.05 L95.05 182.1 96.9 182.9 Q101.05 184.8 104.2 185.6 L106.4 186.0 108.7 186.15 Q112.95 185.9 115.7 184.45 118.4 183.0 118.05 178.9 L117.65 176.15 117.45 175.25 118.05 176.25 Q120.15 180.1 120.15 185.05 120.15 190.5 117.6 194.6 L117.25 195.15 117.45 195.3 116.85 204.0 115.95 212.7 116.3 212.7 116.3 226.0 Q112.25 226.75 111.85 227.4 111.5 227.9 111.5 232.8 L111.7 237.95 Q112.15 244.6 113.9 249.9 114.7 242.7 114.7 239.6 L115.5 239.6 Q115.4 243.85 117.05 252.4 118.7 261.1 118.7 263.5 L118.85 263.55 Q119.5 258.95 119.5 252.3 122.85 254.35 123.95 257.85 124.75 260.2 124.7 264.95 124.7 270.65 125.05 272.85 125.7 277.5 128.2 281.0 139.1 296.3 142.75 306.3 134.7 311.35 127.45 312.75 123.25 293.85 120.3 284.2 L119.05 280.45 Q115.8 271.15 112.4 263.1 109.05 255.15 107.2 237.95 L107.1 237.25 107.3 232.6 107.1 237.25 107.2 237.95 Q109.05 255.15 112.4 263.1 115.8 271.15 119.05 280.45 L120.3 284.2 Q123.25 293.85 127.45 312.75 L128.7 317.85 126.05 318.55 96.7 326.1 96.7 326.2 92.35 327.35 Q88.85 323.0 84.85 320.45 L85.3 319.8 Q83.2 317.85 80.55 311.3 80.65 305.85 78.55 299.9 74.65 289.0 72.2 286.3 69.75 283.6 65.1 275.65 L53.3 255.1 53.1 254.75 Q54.9 255.75 57.4 259.0 58.7 260.75 59.7 260.65 54.65 254.9 48.45 244.2 L48.15 243.35 50.75 243.9 57.55 244.5 60.4 244.4 Q53.45 244.5 50.35 239.75 47.1 234.7 45.4 233.3 44.4 228.8 43.75 223.95 42.9 217.85 42.7 207.9 L42.35 196.25 M116.35 196.35 Q116.9 195.4 117.6 194.6 116.9 195.4 116.35 196.35 L116.45 196.2 117.25 195.15 116.45 196.2 116.35 196.35 Q107.4 211.45 107.3 232.6 107.4 211.45 116.35 196.35 M59.5 215.55 L59.45 215.65 60.15 215.35 59.5 215.55 M60.5 215.35 L60.8 215.05 Q60.45 215.15 60.15 215.35 L60.5 215.35 M57.5 200.85 L57.65 200.85 57.5 200.4 57.5 200.85 M120.3 284.2 Q124.8 301.35 126.05 318.55 124.8 301.35 120.3 284.2 M62.4 263.35 L62.2 263.2 62.2 263.85 62.4 263.35" fill="#e2c7c7" fill-rule="evenodd" stroke="none"/>
    <path d="M93.55 128.75 L94.0 129.65 94.75 131.05 93.1 130.85 92.9 130.8 93.55 128.75" fill="#cccccc" fill-rule="evenodd" stroke="none"/>
    <path d="M111.15 156.4 L111.2 156.15 111.3 156.25 111.15 156.4 M59.5 215.55 L60.15 215.35 59.45 215.65 59.5 215.55" fill="#dfdf9f" fill-rule="evenodd" stroke="none"/>
    <path d="M99.4 167.1 L99.45 167.2 99.4 167.2 99.4 167.1" fill="#ff6600" fill-rule="evenodd" stroke="none"/>
    <path d="M99.45 167.2 L99.4 167.1 99.45 167.1 99.45 167.3 99.45 167.2" fill="#e38902" fill-rule="evenodd" stroke="none"/>
    <path d="M99.4 167.2 L99.45 167.2 99.45 167.3 99.4 167.2" fill="#ff9900" fill-rule="evenodd" stroke="none"/>
    <path d="M146.15 304.0 L154.05 310.25 154.4 310.5 Q158.2 313.4 158.45 316.1 L158.2 316.65 157.85 317.5 157.45 318.45 156.95 319.7 156.2 321.45 Q155.65 322.65 152.9 323.35 L151.9 325.25 Q150.35 326.55 147.65 327.05 L146.95 328.35 Q144.5 330.85 140.5 329.9 L140.35 330.05 139.45 331.1 134.9 331.65 131.25 329.55 130.95 328.15 137.3 326.2 137.35 326.05 137.85 325.15 137.55 324.65 137.05 323.95 136.6 323.2 Q133.5 318.6 132.85 316.8 L132.8 316.7 132.65 316.0 132.8 316.7 132.85 316.8 128.75 317.9 128.7 317.85 127.45 312.75 Q134.7 311.35 142.75 306.3 L146.15 304.0 M84.85 320.45 Q88.85 323.0 92.35 327.35 L94.05 329.6 Q95.05 332.0 95.1 335.8 L95.05 336.9 95.0 337.9 94.85 339.9 94.7 340.95 Q93.25 343.15 90.5 341.85 88.7 346.0 84.3 345.9 82.9 349.85 78.4 348.9 L77.9 349.2 74.6 351.2 71.4 352.9 65.5 350.35 70.2 348.1 70.5 347.85 72.2 345.85 71.5 345.25 71.4 345.15 70.65 344.45 70.65 344.4 70.55 344.35 69.8 343.6 Q67.65 341.4 66.05 338.95 L64.6 336.6 70.0 333.45 Q80.6 326.85 84.3 321.25 L84.85 320.45 M77.5 339.6 L77.9 341.1 78.05 342.15 78.15 343.15 78.15 345.35 77.9 349.2 78.15 345.35 78.15 343.15 78.05 342.15 77.9 341.1 77.5 339.6 M152.9 323.35 L154.1 320.65 154.45 319.4 154.65 318.5 154.7 317.7 154.65 317.2 154.7 317.7 154.65 318.5 154.45 319.4 154.1 320.65 152.9 323.35 M150.35 319.85 L150.15 320.75 149.7 322.05 147.65 327.05 149.7 322.05 150.15 320.75 150.35 319.85 M135.9 328.95 L137.1 326.7 137.3 326.2 137.1 326.7 135.9 328.95 M144.65 322.65 L144.25 323.8 Q143.05 326.7 140.5 329.9 143.05 326.7 144.25 323.8 L144.65 322.65 M83.8 336.4 L84.15 339.2 84.25 340.25 84.25 341.25 84.3 343.35 84.3 345.9 84.3 343.35 84.25 341.25 84.25 340.25 84.15 339.2 83.8 336.4 M90.45 341.35 L90.65 339.25 90.7 338.25 90.7 337.15 90.4 332.95 90.7 337.15 90.7 338.25 90.65 339.25 90.45 341.35" fill="#ffe2d5" fill-rule="evenodd" stroke="none"/>
    <path d="M168.8 314.95 L168.9 315.55 164.6 317.15 156.95 319.7 157.45 318.45 164.1 316.4 168.8 314.95 M126.9 329.45 L94.85 339.9 95.0 337.9 137.55 324.65 137.85 325.15 137.35 326.05 130.8 328.2 130.6 328.25 126.9 329.45 M70.15 348.0 L39.7 357.85 38.75 355.45 71.5 345.25 72.2 345.85 70.5 347.85 70.15 348.0" fill="#a2a6ce" fill-rule="evenodd" stroke="none"/>
    <path d="M143.4 470.85 Q145.05 475.05 146.85 478.5 L146.8 478.55 139.0 475.95 138.95 475.9 137.6 470.85 137.15 469.25 Q134.8 460.05 133.25 450.25 L133.15 449.75 Q130.3 430.2 130.05 425.85 L128.65 409.4 128.65 398.2 128.9 385.8 129.0 382.6 129.2 375.85 128.3 385.8 127.85 391.3 Q127.0 401.95 126.7 416.2 126.35 430.4 127.8 444.8 L128.4 449.75 Q129.8 459.9 133.25 470.85 L134.65 475.15 130.75 475.25 130.4 475.15 Q130.0 475.4 129.6 474.95 128.9 474.05 128.2 470.85 127.35 467.15 126.5 460.35 L125.3 449.75 Q124.25 438.95 123.85 428.1 123.25 411.9 124.3 404.4 L125.95 389.35 126.2 385.8 Q126.75 379.3 127.8 370.65 L127.3 370.3 Q126.65 369.65 126.7 368.75 126.65 367.85 127.3 367.2 127.95 366.55 128.85 366.6 L128.95 366.6 Q129.8 366.6 130.4 367.2 L130.8 367.7 131.05 368.75 130.95 369.35 130.4 370.3 130.35 370.35 129.3 370.9 128.85 370.95 127.8 370.65 128.85 370.95 129.3 370.9 130.35 370.35 130.95 391.3 Q130.85 403.55 131.95 418.45 133.05 433.35 134.15 439.55 134.45 441.5 135.1 444.05 L136.55 449.75 137.15 451.95 138.95 457.95 Q141.1 465.1 143.4 470.85 M128.2 368.3 L128.35 368.8 Q128.55 369.25 129.15 369.25 130.1 369.25 130.1 368.3 130.05 367.3 129.15 367.35 128.15 367.3 128.2 368.3 M129.2 375.85 L129.25 374.55 129.3 370.9 129.25 374.55 129.2 375.85" fill="#0066cc" fill-rule="evenodd" stroke="none"/>
    <path d="M122.45 337.9 L123.0 337.2 Q124.6 335.3 126.7 334.95 L126.85 334.9 127.25 334.9 127.75 334.85 127.75 334.95 128.45 335.1 Q129.6 335.45 130.6 336.3 L131.5 337.2 Q133.45 339.55 133.45 342.9 133.45 346.25 131.5 348.6 L130.6 349.5 Q129.7 350.25 128.6 350.65 L128.5 349.3 128.6 350.65 128.65 350.9 128.0 350.95 127.8 350.95 127.55 350.95 Q124.9 350.85 123.0 348.6 121.0 346.25 121.0 342.9 121.0 340.0 122.45 337.9 M127.45 336.85 L127.7 335.45 127.75 334.95 127.7 335.45 127.45 336.85 Q125.75 337.0 124.5 338.5 123.45 339.8 123.25 341.5 122.95 342.45 122.95 343.6 122.95 345.95 124.3 347.65 125.7 349.35 127.65 349.4 L128.1 349.35 128.5 349.3 Q129.65 349.0 130.6 348.05 L130.95 347.65 Q132.0 346.35 132.3 344.65 L132.55 342.6 Q132.55 340.2 131.2 338.5 L130.6 337.9 Q129.4 336.8 127.85 336.8 L127.45 336.85" fill="#99ff00" fill-rule="evenodd" stroke="none"/>
    <path d="M132.3 344.65 Q132.0 346.35 130.95 347.65 L130.6 348.05 Q129.65 349.0 128.5 349.3 L128.1 349.35 127.65 349.4 Q125.7 349.35 124.3 347.65 122.95 345.95 122.95 343.6 122.95 342.45 123.25 341.5 L123.15 342.6 Q123.15 345.0 124.5 346.7 125.9 348.4 127.85 348.4 L128.35 348.35 128.5 349.3 128.35 348.35 Q129.6 348.2 130.6 347.3 L131.2 346.7 Q131.95 345.75 132.3 344.65" fill="#70b803" fill-rule="evenodd" stroke="none"/>
    <path d="M75.95 12.7 L74.75 9.25 73.2 5.9 72.75 5.1 72.65 4.95 Q71.35 2.85 69.85 1.65 L69.5 1.35 Q68.2 0.4 66.75 0.15 61.25 -0.85 53.85 6.0 49.45 10.05 45.6 16.45 41.15 23.75 39.65 31.0 L38.55 36.4 Q37.7 40.4 37.6 47.45 L37.55 50.6 Q37.5 58.2 38.2 60.2 L38.55 62.2 38.55 62.25 M72.65 4.95 L73.8 3.95 Q76.75 1.55 78.4 1.2 80.3 0.75 83.5 1.8 86.65 2.85 92.85 11.45 97.25 17.5 99.05 22.75 L100.1 26.95 M112.9 60.95 L114.15 61.55 Q116.2 62.6 118.2 63.95 119.85 65.05 121.45 66.3 L123.35 67.55 123.5 67.65 123.55 67.65 M112.9 60.95 L111.5 60.3 M105.6 58.2 L103.45 57.7 Q98.85 56.6 93.75 56.45 L92.05 56.4 89.65 56.4 89.6 56.4 87.4 56.5 M105.6 58.2 L106.4 58.45 108.15 59.0 111.5 60.3 M125.5 59.25 L125.45 59.25 M84.3 56.75 L81.2 57.15 80.25 57.25 77.6 57.7 73.55 58.55 72.4 58.8 71.5 59.05 70.95 59.2 70.75 59.25 68.6 59.8 64.95 60.9 62.9 61.55 M84.3 56.75 L85.85 56.6 87.4 56.5 M125.5 59.25 L125.5 59.3 M75.95 12.7 L75.95 12.85 76.15 13.15 M38.8 62.3 L38.6 62.4 38.5 62.7 M42.0 70.4 L42.15 70.2 M42.25 70.45 Q44.4 69.05 46.0 68.35 L50.9 66.15 M52.15 65.65 L52.4 65.5 53.15 65.2 53.3 65.15 53.35 65.15 56.3 63.9 M42.15 70.55 L42.25 70.45 M58.7 63.05 L57.95 63.3 56.3 63.9 M58.7 63.05 L62.9 61.55 M52.15 65.65 L50.9 66.15 M66.8 119.0 L73.65 126.15 M55.65 107.3 L60.65 112.55 M55.25 106.9 L55.65 107.3 M47.95 121.15 L42.95 117.25 41.65 116.35 M50.25 101.65 L52.3 103.8 M47.95 121.15 Q54.2 126.4 60.55 133.7 L62.65 136.15 63.45 137.15 M42.0 134.0 L46.85 139.15 50.85 143.9 60.85 155.6 M70.8 146.2 L63.45 137.15 M70.95 146.35 L70.8 146.2 M42.0 134.0 L36.05 128.5 M0.95 189.4 Q2.9 205.2 3.5 223.0 4.4 252.1 7.3 258.45 10.15 264.75 11.25 270.8 L12.55 287.5 Q12.55 291.0 9.15 307.55 5.85 323.55 6.1 328.9 7.1 346.25 4.65 355.7 L6.35 355.7 13.15 353.8 15.35 353.15 Q18.25 352.2 20.35 352.1 L20.55 352.05 20.9 352.0 21.15 351.9 23.95 351.25 M28.65 165.55 Q30.55 169.45 31.1 173.6 M28.65 165.55 L28.2 165.25 M29.4 178.35 L31.55 183.55 Q31.6 177.5 31.15 174.0 L31.1 173.6 M31.55 183.55 L31.95 184.45 32.65 186.15 M29.4 178.35 L28.2 175.5 27.55 175.5 M117.45 175.25 L116.65 174.05 115.95 173.1 M45.55 247.1 Q44.55 244.6 42.9 238.65 40.3 229.25 39.35 222.4 38.35 215.5 37.55 207.1 L36.6 197.85 36.1 195.9 35.45 193.85 32.65 186.15 M122.3 158.45 Q123.85 162.25 123.75 167.85 L123.75 168.6 123.65 170.1 123.35 175.55 123.25 178.95 123.35 184.3 121.35 206.1 120.25 218.75 Q119.0 227.6 119.35 231.35 119.7 234.9 120.5 237.95 121.1 240.4 122.05 242.6 124.1 247.45 125.8 253.6 128.05 261.65 135.2 278.25 142.35 294.85 147.65 302.9 L146.15 304.0 154.05 310.25 154.4 310.5 158.0 309.45 M157.95 309.45 L166.45 307.1 M166.55 307.2 Q167.35 307.25 168.25 307.95 169.6 309.0 169.75 310.45 169.85 311.75 169.0 312.9 L168.45 313.5 M168.95 313.35 L168.85 314.2 168.8 314.6 168.8 314.95 168.9 315.55 164.6 317.15 156.95 319.7 156.2 321.45 Q155.65 322.65 152.9 323.35 L151.9 325.25 Q150.35 326.55 147.65 327.05 L146.95 328.35 Q144.5 330.85 140.5 329.9 L140.35 330.05 139.45 331.1 134.9 331.65 131.25 329.55 132.05 333.7 132.7 337.35 Q134.55 339.65 134.55 342.9 134.55 344.5 134.1 345.85 140.95 389.85 146.8 470.85 L146.9 472.1 M143.4 470.85 Q145.05 475.05 146.85 478.5 L146.85 478.55 146.8 478.55 139.0 475.95 139.2 476.6 M88.75 120.5 L87.6 121.0 M118.05 176.25 Q120.15 180.1 120.15 185.05 120.15 190.5 117.6 194.6 L117.25 195.15 M142.75 306.3 L146.15 304.0 M117.45 175.25 L118.05 176.25 M116.35 196.35 L116.45 196.2 117.25 195.15 M107.3 232.6 L107.1 237.25 107.2 237.95 Q109.05 255.15 112.4 263.1 115.8 271.15 119.05 280.45 L120.3 284.2 Q123.25 293.85 127.45 312.75 134.7 311.35 142.75 306.3 M80.55 311.3 Q83.2 317.85 85.3 319.8 L84.85 320.45 Q88.85 323.0 92.35 327.35 L96.7 326.2 M96.7 326.1 L126.05 318.55 M45.55 247.1 Q46.15 248.5 46.5 248.8 47.15 249.75 47.8 251.8 L48.55 254.7 48.8 255.95 48.95 256.2 50.0 257.8 53.45 263.0 Q58.2 270.4 60.5 274.9 62.35 278.6 67.6 287.45 72.85 296.25 74.35 297.55 75.85 298.85 79.6 308.9 L80.55 311.3 M57.3 340.5 L54.15 342.5 48.25 346.25 Q46.25 347.75 42.9 348.25 38.3 349.4 34.65 349.4 L34.15 349.45 35.05 354.05 36.4 353.65 65.2 345.0 69.8 343.6 Q67.65 341.4 66.05 338.95 L64.6 336.6 57.5 340.35 57.3 340.5 M34.15 349.45 L34.05 349.45 Q31.25 349.6 23.95 351.25 M122.45 337.9 L123.0 337.2 Q124.6 335.3 126.7 334.95 L126.85 334.9 126.85 334.85 126.9 329.45 94.85 339.9 94.7 340.95 Q93.25 343.15 90.5 341.85 88.7 346.0 84.3 345.9 82.9 349.85 78.4 348.9 L77.9 349.2 74.6 351.2 71.4 352.9 65.5 350.35 70.2 348.1 M70.15 348.0 L39.7 357.85 38.75 355.45 38.65 355.15 37.65 354.5 36.4 353.65 M69.8 343.6 L70.55 344.35 70.65 344.4 70.65 344.45 71.4 345.15 71.5 345.25 72.2 345.85 70.5 347.85 70.2 348.1 M77.9 349.2 L78.15 345.35 78.15 343.15 78.05 342.15 77.9 341.1 77.5 339.6 M64.6 336.6 L70.0 333.45 Q80.6 326.85 84.3 321.25 L84.85 320.45 M70.5 347.85 L70.15 348.0 M38.75 355.45 L71.5 345.25 M37.65 354.5 L70.65 344.4 M147.65 327.05 L149.7 322.05 150.15 320.75 150.35 319.85 M154.65 317.2 L154.7 317.7 154.65 318.5 154.45 319.4 154.1 320.65 152.9 323.35 M158.2 316.65 L158.45 316.1 Q158.2 313.4 154.4 310.5 M157.45 318.45 L157.85 317.5 158.2 316.65 163.2 315.15 M163.15 315.1 L168.45 313.5 M156.95 319.7 L157.45 318.45 164.1 316.4 M163.65 315.75 L157.85 317.5 M132.65 316.0 L132.8 316.7 132.85 316.8 Q133.5 318.6 136.6 323.2 L137.05 323.95 137.55 324.65 137.85 325.15 137.35 326.05 137.3 326.2 137.1 326.7 135.9 328.95 M132.85 316.8 L128.75 317.9 128.7 317.85 126.05 318.55 M128.7 317.85 L127.45 312.75 M130.6 328.25 L126.9 329.45 M137.3 326.2 L130.95 328.15 131.25 329.55 M130.8 328.2 L130.6 328.25 M127.75 334.95 L127.7 335.45 127.45 336.85 127.85 336.8 Q129.4 336.8 130.6 337.9 L131.2 338.5 Q132.55 340.2 132.55 342.6 L132.3 344.65 Q131.95 345.75 131.2 346.7 L130.6 347.3 Q129.6 348.2 128.35 348.35 L127.85 348.4 Q125.9 348.4 124.5 346.7 123.15 345.0 123.15 342.6 L123.25 341.5 Q123.45 339.8 124.5 338.5 125.75 337.0 127.45 336.85 M128.5 349.3 L128.6 350.65 128.65 350.9 130.6 350.25 Q131.65 349.65 132.55 348.6 133.6 347.35 134.1 345.85 M128.85 334.95 L130.6 335.55 Q131.65 336.1 132.55 337.2 L132.7 337.35 M127.75 334.95 L127.75 334.85 127.25 334.9 126.85 334.9 M127.75 334.85 L127.8 334.85 128.85 334.95 M128.5 349.3 L128.35 348.35 M137.35 326.05 L130.8 328.2 M140.5 329.9 Q143.05 326.7 144.25 323.8 L144.65 322.65 M92.35 327.35 L94.05 329.6 Q95.05 332.0 95.1 335.8 L136.6 323.2 M90.4 332.95 L90.7 337.15 90.7 338.25 90.65 339.25 90.45 341.35 M84.3 345.9 L84.3 343.35 84.25 341.25 84.25 340.25 84.15 339.2 83.8 336.4 M95.0 337.9 L95.05 336.9 95.1 335.8 M95.0 337.9 L94.85 339.9 M130.6 359.95 L133.15 358.55 134.9 358.55 135.1 360.9 135.1 362.7 Q134.95 363.25 134.0 363.25 133.3 363.25 130.6 361.6 L129.4 360.85 129.25 360.7 128.6 361.05 128.95 366.6 Q129.8 366.6 130.4 367.2 L130.8 367.7 131.05 368.75 130.95 369.35 M135.1 444.05 L136.55 449.75 137.15 451.95 138.95 457.95 Q141.1 465.1 143.4 470.85 M128.65 350.9 L128.0 350.95 128.45 357.1 128.5 358.7 128.55 360.3 129.25 360.7 130.6 359.95 M128.0 350.95 L127.8 350.95 127.55 350.95 Q124.9 350.85 123.0 348.6 121.0 346.25 121.0 342.9 121.0 340.0 122.45 337.9 M128.55 360.3 Q125.35 358.35 123.3 358.35 121.9 358.35 121.75 358.95 L121.75 361.0 121.75 362.85 Q121.85 363.85 122.85 363.85 123.3 363.85 128.6 361.05 L128.55 360.3 M128.2 470.85 Q127.35 467.15 126.5 460.35 L125.3 449.75 Q124.25 438.95 123.85 428.1 123.25 411.9 124.3 404.4 L125.95 389.35 126.2 385.8 Q126.75 379.3 127.8 370.65 L127.3 370.3 Q126.65 369.65 126.7 368.75 126.65 367.85 127.3 367.2 127.95 366.55 128.85 366.6 L128.95 366.6 M127.8 370.65 L128.85 370.95 129.3 370.9 130.35 370.35 130.4 370.3 130.95 369.35 M137.6 470.85 L137.15 469.25 Q134.8 460.05 133.25 450.25 L133.15 449.75 Q130.3 430.2 130.05 425.85 L128.65 409.4 128.65 398.2 128.9 385.8 129.0 382.6 129.2 375.85 128.3 385.8 127.85 391.3 Q127.0 401.95 126.7 416.2 126.35 430.4 127.8 444.8 L128.4 449.75 Q129.8 459.9 133.25 470.85 L134.65 475.15 130.75 475.25 130.4 475.15 Q130.0 475.4 129.6 474.95 128.9 474.05 128.2 470.85 M137.6 470.85 L138.95 475.9 139.0 475.95 M129.3 370.9 L129.25 374.55 129.2 375.85 M135.1 444.05 Q134.45 441.5 134.15 439.55 133.05 433.35 131.95 418.45 130.85 403.55 130.95 391.3 L130.35 370.35 M137.05 323.95 L95.05 336.9 M137.55 324.65 L95.0 337.9 M164.45 311.05 Q164.55 311.65 165.05 312.0 165.5 312.35 166.1 312.3 L167.05 311.75 Q167.4 311.25 167.35 310.65 167.3 310.05 166.8 309.7 166.3 309.3 165.75 309.4 165.15 309.45 164.8 309.95 164.4 310.45 164.45 311.05 M168.8 314.95 L164.1 316.4 M163.65 315.75 L168.85 314.2" fill="none" stroke="#000000" stroke-linecap="round" stroke-linejoin="round" stroke-width="1.0"/>
    <path d="M74.25 24.05 L75.9 23.8 77.8 23.6 78.25 23.6 79.9 23.55 83.8 23.6 90.85 24.45 97.75 26.15 M65.25 26.25 L67.4 25.75 Q69.9 24.9 72.6 24.35 L73.5 24.2 74.25 24.05 M120.55 55.95 L121.1 56.3 122.95 57.65 125.45 59.25 125.5 59.25 Q124.85 54.6 124.05 52.05 L122.35 47.45 Q119.45 40.75 114.5 35.9 L113.15 34.65 Q110.05 31.95 106.4 29.85 104.85 28.95 103.2 28.2 L100.8 27.2 100.1 26.95 98.05 26.25 97.75 26.15 M50.65 56.7 Q56.35 54.3 61.85 52.55 L64.4 51.75 64.5 51.75 66.7 51.1 68.65 50.55 71.15 49.95 73.1 49.5 74.1 49.3 74.6 49.2 77.2 48.7 81.6 48.05 82.65 47.95 84.65 47.75 88.15 47.55 89.9 47.5 100.75 48.35 102.5 48.65 106.4 49.6 110.0 50.7 111.4 51.25 113.8 52.25 Q116.95 53.7 119.9 55.55 L120.55 55.95 M112.95 66.7 L113.05 66.8 115.3 68.2 Q114.5 67.5 113.8 65.15 L113.6 64.45 113.35 63.35 112.9 60.95 M112.85 66.65 L109.4 63.7 108.75 62.95 106.4 59.7 105.6 58.2 M123.55 67.65 Q125.5 64.2 125.5 59.65 L125.5 59.4 125.5 59.25 M120.55 72.35 L123.6 75.1 124.8 75.9 125.05 76.0 M112.85 66.65 L112.95 66.7 M114.15 61.55 L116.45 66.0 117.85 68.7 118.3 69.4 119.0 70.5 120.2 72.0 120.55 72.35 M88.05 117.7 L88.15 117.9 88.2 117.9 91.4 117.75 92.55 117.1 94.45 115.45 95.65 114.5 97.0 113.55 99.3 111.85 100.75 110.8 Q103.85 108.45 106.4 105.3 108.05 103.25 109.5 100.8 111.0 98.3 112.35 95.1 L113.15 93.25 M113.2 93.15 L113.7 91.8 113.8 91.5 114.2 90.35 116.0 84.6 Q117.5 79.1 119.25 74.5 L119.3 74.35 120.1 72.15 120.2 72.0 M87.4 56.5 L88.15 57.2 Q89.95 58.95 92.05 60.35 L92.35 60.6 Q93.85 61.55 95.45 62.35 L95.75 62.5 97.95 63.45 98.6 63.7 M93.75 56.45 Q95.15 58.55 97.4 60.9 L97.6 61.1 98.5 61.95 M98.75 62.25 L101.25 64.5 99.5 64.0 M98.9 63.8 L98.6 63.7 M88.3 62.55 L90.6 63.35 M88.7 61.25 L88.35 60.8 87.6 59.75 Q86.55 58.2 85.85 56.6 M88.05 62.45 L86.6 61.8 86.35 61.65 84.05 60.4 Q81.9 59.0 80.25 57.25 M73.5 62.3 L74.55 64.35 73.45 63.0 73.3 62.8 M74.15 82.9 L74.5 83.35 Q76.8 86.3 77.9 89.05 L77.95 89.35 78.2 90.0 77.8 89.55 76.65 88.5 74.6 86.75 74.1 86.4 73.65 86.0 M68.7 85.85 L69.2 87.05 69.65 90.05 69.8 90.9 M90.75 63.45 L88.7 61.25 M117.45 97.85 L118.45 99.1 118.8 99.8 M117.45 97.85 Q116.15 96.6 113.9 95.4 L112.35 95.1 M114.2 90.35 Q116.4 92.1 118.8 95.05 120.45 98.2 120.15 100.8 119.9 103.35 119.0 103.8 L119.2 101.95 118.8 99.8 M125.5 59.3 L125.5 59.25 M125.5 59.3 L125.5 59.4 M123.5 67.65 L124.3 70.0 125.45 73.0 126.4 75.05 127.2 76.4 127.45 76.75 128.85 78.4 125.05 76.05 125.05 76.0 M40.95 61.2 Q42.95 60.1 44.2 59.6 47.4 58.05 50.6 56.75 L50.65 56.7 M38.75 62.2 L39.35 61.95 39.95 61.7 40.05 61.65 40.95 61.2 M38.5 62.7 Q38.6 67.25 41.45 69.95 L42.0 70.4 M42.15 70.2 L42.25 70.45 42.35 70.7 42.15 70.55 42.0 70.4 M38.55 62.25 L38.6 62.25 38.75 62.2 M38.6 62.4 L38.5 62.45 38.5 62.7 M44.5 75.55 Q41.05 83.4 37.95 89.3 36.0 92.9 32.25 98.75 28.45 104.6 21.05 113.6 L17.3 118.2 Q13.5 123.0 12.7 124.8 M12.5 125.1 Q9.95 130.0 8.15 134.95 M47.05 79.1 L46.95 78.9 44.5 75.55 Q43.25 73.1 42.35 70.7 M72.4 58.8 L72.65 60.05 Q72.9 61.15 73.5 62.3 M71.4 60.15 L71.5 60.3 71.75 60.65 71.8 60.8 73.3 62.8 M70.75 59.25 L71.4 60.15 M64.95 60.9 Q64.6 64.45 65.15 67.5 66.45 74.7 71.6 80.05 L74.15 82.9 M62.1 80.95 L59.6 78.6 Q56.75 75.9 55.3 72.8 53.9 69.65 53.4 66.05 L53.4 65.9 53.3 65.45 53.15 65.2 M53.4 82.25 L53.05 81.85 51.9 80.8 50.9 79.8 50.45 79.45 Q48.65 77.45 48.0 75.0 L47.3 72.95 46.45 70.3 46.0 68.35 M53.3 65.45 L53.3 65.15 M60.2 71.9 Q60.35 73.15 60.9 74.45 61.55 75.9 63.2 77.65 L65.2 79.8 M65.5 80.2 L68.4 82.25 72.35 85.0 73.65 86.0 M60.2 72.05 L60.25 72.95 60.55 74.3 61.2 75.7 Q62.35 78.0 65.0 80.65 L66.15 81.8 Q67.8 83.75 68.7 85.7 L68.7 85.85 M53.4 82.25 L53.75 82.55 54.05 82.75 54.1 82.8 54.1 82.85 54.4 83.15 54.4 83.2 54.55 83.35 54.65 83.45 54.95 83.5 55.85 83.65 56.5 83.7 57.05 83.35 57.15 83.8 Q58.05 88.3 60.0 92.25 61.9 96.05 64.75 99.35 L64.8 99.5 67.05 102.0 Q71.75 107.3 74.1 108.95 L75.2 109.75 77.8 111.6 78.5 112.05 78.95 112.4 79.4 112.75 79.55 112.85 82.15 114.75 83.7 116.15 Q84.35 116.75 85.15 117.15 86.3 117.7 87.75 117.85 L87.8 117.85 88.15 117.9 88.2 118.0 88.3 118.2 Q91.15 119.85 93.25 120.4 L94.3 120.55 95.05 120.65 98.65 120.95 96.8 121.1 M53.75 82.55 L53.45 83.0 53.3 83.3 53.25 83.4 53.2 83.45 M52.15 83.0 L52.3 83.1 52.45 83.2 53.4 82.25 M51.35 82.3 L52.1 82.9 M51.6 87.6 L52.1 86.1 52.6 84.75 52.65 84.7 53.1 83.75 53.2 83.45 M54.95 83.5 L54.9 84.35 54.9 84.5 54.9 86.45 54.9 86.6 54.95 87.45 54.95 87.95 55.2 91.05 Q55.25 92.3 55.7 94.0 56.4 96.7 58.05 100.55 L60.0 104.8 61.0 106.8 61.75 108.3 Q65.0 114.7 66.65 118.6 L66.8 119.0 M73.65 126.15 L74.45 124.35 74.7 123.55 75.65 119.95 75.8 119.45 M47.05 79.1 L47.4 79.5 47.65 79.6 48.2 80.0 48.5 80.2 49.8 81.1 51.35 82.3 Q47.8 90.05 45.55 97.2 L44.25 101.5 44.0 102.5 43.4 104.4 42.75 106.8 42.7 107.1 M42.65 107.2 L41.1 112.65 40.65 114.3 39.75 117.35 39.65 117.6 41.65 116.35 43.1 114.9 45.85 111.2 48.4 106.45 50.25 101.65 51.0 98.65 50.9 98.15 50.85 97.7 50.8 97.3 50.8 96.95 50.7 95.0 50.7 94.4 50.7 93.2 50.8 91.65 51.15 89.2 51.4 88.25 51.45 88.05 51.6 87.6 M54.75 104.35 L54.55 103.25 Q56.75 107.45 60.65 112.55 L61.45 113.6 63.5 116.35 64.75 118.2 66.55 121.5 Q67.9 125.35 68.1 126.55 M68.15 126.55 L68.25 125.95 68.35 124.75 68.25 123.35 67.8 121.6 66.8 119.0 M3.5 154.1 L3.45 154.5 2.9 158.65 2.9 158.95 2.9 160.0 Q3.15 160.9 3.6 161.3 4.45 162.0 5.5 162.1 L6.05 162.0 6.3 161.95 6.9 161.8 M6.95 161.9 L8.1 161.35 Q13.45 158.7 18.1 154.5 L18.35 154.3 21.55 151.1 23.5 148.6 M23.55 148.55 L27.05 144.3 27.35 143.85 28.45 142.45 29.15 141.45 29.3 141.25 Q32.1 137.25 34.0 133.4 L34.45 132.45 35.0 131.25 36.05 128.5 Q37.65 124.2 39.65 117.6 M65.5 80.2 L65.25 79.9 M67.1 85.7 L67.0 85.55 65.9 84.5 62.75 81.6 62.1 80.95 M67.35 85.9 Q69.15 87.95 69.65 90.05 M53.95 108.05 L55.25 110.55 55.4 110.8 55.95 111.7 Q58.2 115.45 61.9 120.0 L62.75 121.05 62.8 121.1 64.95 123.65 Q64.85 122.05 60.9 116.7 M60.55 116.2 L60.4 116.0 60.2 115.75 59.05 114.2 Q56.75 110.95 55.8 108.6 L55.5 107.75 55.35 107.4 55.35 107.35 55.25 106.9 55.15 106.15 54.75 104.35 M77.0 115.9 L76.5 117.2 75.8 119.45 M78.05 113.85 L77.0 115.9 Q79.05 121.0 83.05 123.6 85.1 124.95 87.7 125.7 L91.2 126.3 92.35 126.4 93.7 126.45 94.15 126.45 95.2 126.4 97.0 126.15 97.75 125.9 98.6 125.6 101.9 124.3 97.55 124.15 96.9 124.1 Q93.3 123.65 90.4 122.45 L87.7 121.05 87.6 121.0 Q84.85 119.3 82.85 116.75 86.15 119.4 88.4 120.35 L88.45 120.4 88.75 120.5 89.6 120.8 94.3 121.3 94.45 121.3 95.45 121.2 96.8 121.1 M78.05 113.85 L78.95 112.4 M52.3 103.8 L53.95 108.05 M52.3 103.8 Q51.5 101.3 51.0 98.65 M63.45 137.15 L64.95 136.15 66.3 135.1 Q69.15 132.75 71.4 129.75 L73.65 126.15 M60.85 155.6 Q65.8 151.35 70.8 146.2 L71.4 145.75 70.95 146.35 M68.15 126.55 L68.1 126.6 68.1 126.55 M73.95 142.2 L74.25 141.8 Q77.55 136.95 79.75 132.45 L82.15 126.65 83.05 123.6 M73.8 142.45 L71.4 145.75 M73.8 142.45 L73.95 142.2 M4.3 142.35 Q5.45 140.0 6.9 138.5 L8.15 134.95 M6.9 138.5 L5.6 143.05 Q4.7 146.6 4.15 150.15 L4.05 151.05 3.7 153.15 3.5 154.1 M4.3 142.35 Q-1.6 154.1 0.55 186.45 L0.95 189.4 M31.1 173.6 L35.0 172.2 Q47.65 167.0 60.85 155.6 M32.65 186.15 L35.05 184.9 M115.95 173.1 L113.9 170.1 113.35 169.2 113.0 168.6 112.25 167.15 Q110.4 163.15 111.05 157.2 L111.15 156.4 M91.8 133.65 L89.05 139.75 Q88.5 140.15 88.05 140.9 85.4 145.3 81.8 150.05 L81.55 150.35 81.2 150.8 Q60.75 170.8 35.05 184.9 M97.0 113.55 L99.5 116.15 105.4 121.6 106.4 122.5 108.15 124.0 Q113.45 128.65 114.45 130.3 L117.5 134.5 117.6 134.55 118.45 135.6 118.6 135.8 119.1 136.45 Q121.75 140.1 124.7 148.35 L124.9 148.95 126.15 152.5 126.5 153.45 126.65 153.9 127.65 156.85 127.75 157.2 127.35 158.1 125.9 159.05 124.9 159.3 124.7 159.35 M124.65 159.2 L122.3 158.45 M146.35 470.85 L143.4 470.85 M87.75 117.85 L88.3 118.2 M90.4 122.45 L89.6 120.8 M93.55 128.75 L93.4 128.5 M93.55 128.75 L94.0 129.65 94.75 131.05 98.15 137.0 98.55 137.6 99.15 138.55 Q101.25 141.5 104.15 144.5 L105.15 145.5 106.4 146.75 106.75 147.05 108.6 148.7 111.25 150.95 113.25 152.6 114.25 153.45 115.7 154.6 118.7 156.6 119.15 156.9 120.1 157.4 122.3 158.45 M92.35 126.4 L93.4 128.5 M93.1 130.85 L92.8 131.5 91.8 133.65 M92.9 130.8 L93.55 128.75 M111.2 156.15 L111.15 156.4 M111.2 156.15 L111.3 155.35 M117.6 194.6 Q116.9 195.4 116.35 196.35 107.4 211.45 107.3 232.6 M124.9 159.3 L124.65 159.2 M15.35 353.15 L14.8 363.15 Q13.0 401.65 13.95 470.85 L13.95 471.4 M13.95 470.85 L12.95 470.85 M20.85 470.85 L22.55 470.85" fill="none" stroke="#000000" stroke-linecap="round" stroke-linejoin="round" stroke-width="1.0"/>
    <path d="M126.05 318.55 Q124.8 301.35 120.3 284.2" fill="none" stroke="#000000" stroke-linecap="round" stroke-linejoin="round" stroke-width="1.0"/>
  </g>
</svg>
