<?xml version="1.0" encoding="UTF-8" standalone="no"?>
<svg xmlns:xlink="http://www.w3.org/1999/xlink" height="25.05px" width="50.9px" xmlns="http://www.w3.org/2000/svg">
  <g transform="matrix(1.0, 0.0, 0.0, 1.0, 0.0, 0.0)">
    <path d="M48.9 4.1 L49.55 4.1 50.9 3.8 Q48.9 5.4 47.55 5.4 L47.3 5.4 46.9 5.35 44.3 4.85 Q42.25 4.25 41.45 4.2 40.65 4.15 38.6 5.15 36.8 6.0 35.9 7.35 L35.65 7.75 35.8 6.65 35.9 6.35 Q36.35 4.7 37.7 3.65 39.6 2.15 41.6 2.0 43.55 1.8 45.5 2.95 47.45 4.1 48.85 4.1 L48.9 4.1 M47.0 1.1 Q39.95 0.1 36.9 2.75 L36.5 3.15 37.1 2.25 37.65 1.65 Q38.35 0.95 39.2 0.6 41.75 -0.65 45.95 0.7 L46.95 1.1 47.0 1.1 M6.0 9.6 Q4.1 7.1 1.85 6.15 L1.5 6.0 0.0 5.55 0.8 5.55 3.05 5.45 5.55 4.9 Q8.05 3.4 9.25 3.05 L11.8 2.45 13.35 2.25 14.65 2.35 14.9 2.4 16.8 2.85 17.35 3.05 Q18.55 3.5 19.5 4.1 20.3 4.6 21.7 6.4 19.95 5.1 18.2 4.8 L16.5 4.55 14.2 4.45 12.65 4.55 9.4 5.3 6.75 6.35 Q5.85 6.8 5.75 7.2 L5.7 7.75 Q5.75 8.55 6.25 9.7 L6.7 11.0 6.0 9.6 M18.65 1.3 Q11.2 0.0 3.2 4.4 8.7 -0.05 14.1 0.25 L17.2 0.75 18.65 1.3" fill="#000000" fill-rule="evenodd" stroke="none"/>
    <path d="M46.9 5.35 Q45.75 6.15 45.75 8.25 45.7 9.35 44.9 11.4 43.7 14.0 40.85 14.0 37.2 14.0 36.4 11.05 L36.4 11.0 Q35.9 8.8 35.9 7.4 L35.9 7.35 Q36.8 6.0 38.6 5.15 40.65 4.15 41.45 4.2 42.25 4.25 44.3 4.85 L46.9 5.35 M16.5 4.55 L17.8 4.8 Q18.55 6.05 18.55 7.35 18.75 8.95 18.5 10.35 L17.9 12.35 16.0 14.2 Q14.5 15.4 12.25 15.35 9.95 15.3 8.8 14.05 7.5 12.75 6.25 10.3 L6.0 9.6 6.7 11.0 6.25 9.7 Q5.75 8.55 5.7 7.75 L5.75 7.2 Q5.85 6.8 6.75 6.35 L9.4 5.3 12.65 4.55 14.2 4.45 16.5 4.55" fill="#ffffff" fill-rule="evenodd" stroke="none"/>
    <path d="M35.9 6.35 L35.8 6.35 Q35.8 4.6 36.9 2.85 37.2 2.25 39.3 1.45 L42.8 1.2 44.1 1.5 Q45.3 1.8 46.6 2.85 47.85 3.85 48.9 4.1 L48.85 4.1 Q47.45 4.1 45.5 2.95 43.55 1.8 41.6 2.0 39.6 2.15 37.7 3.65 36.35 4.7 35.9 6.35 M1.85 6.15 L0.8 6.15 1.5 6.0 1.85 6.15 M3.05 5.45 L6.75 3.6 Q10.3 1.5 12.9 1.35 15.5 1.2 18.2 2.4 20.75 3.55 21.7 5.1 L19.5 4.1 Q18.55 3.5 17.35 3.05 L16.8 2.85 14.9 2.4 14.65 2.35 13.35 2.25 11.8 2.45 9.25 3.05 Q8.05 3.4 5.55 4.9 L3.05 5.45" fill="#feb89a" fill-rule="evenodd" stroke="none"/>
    <path d="M31.7 23.35 Q34.0 23.15 34.75 22.3 33.65 25.05 31.15 25.05 29.5 25.05 27.95 22.85 29.35 23.5 31.7 23.35" fill="#fec4ab" fill-rule="evenodd" stroke="none"/>
  </g>
</svg>
