<?xml version="1.0" encoding="UTF-8" standalone="no"?>
<svg xmlns:xlink="http://www.w3.org/1999/xlink" height="7.8px" width="12.4px" xmlns="http://www.w3.org/2000/svg">
  <g transform="matrix(1.0, 0.0, 0.0, 1.0, 0.0, 0.0)">
    <path d="M11.9 1.1 L12.4 0.95 12.2 1.35 11.65 1.8 11.2 1.85 10.3 1.8 9.4 1.8 9.9 1.65 11.9 1.1 M6.25 1.9 L6.35 1.95 6.1 1.95 6.0 1.95 5.9 1.95 4.55 2.0 2.55 1.95 1.2 1.85 0.85 1.8 0.45 1.7 0.0 1.05 0.1 0.85 6.25 1.9 M4.65 5.9 L4.45 5.75 Q3.7 5.3 5.1 5.8 L6.1 6.0 8.25 5.65 9.3 5.25 9.0 5.75 8.1 6.45 6.2 6.55 4.9 6.0 4.65 5.9" fill="#000000" fill-rule="evenodd" stroke="none"/>
    <path d="M6.1 1.95 L5.95 2.0 6.0 1.95 6.1 1.95" fill="#ff6699" fill-rule="evenodd" stroke="none"/>
    <path d="M3.5 3.3 Q3.55 3.0 4.2 2.9 4.8 3.3 4.45 3.75 L4.15 3.95 3.9 3.9 3.5 3.3 M5.25 3.9 Q5.3 3.25 6.25 3.55 L6.3 3.55 8.2 3.5 8.45 3.8 Q8.7 4.15 8.35 4.4 L7.15 4.45 5.55 4.55 5.3 4.25 5.25 3.9" fill="#ffffff" fill-rule="evenodd" stroke="none"/>
    <path d="M9.0 5.75 Q8.9 6.7 8.25 7.2 7.55 7.75 6.8 7.8 L5.25 7.65 Q4.45 7.4 4.25 6.9 L3.75 6.0 3.35 5.5 3.75 5.65 4.65 5.9 4.9 6.0 6.2 6.55 8.1 6.45 9.0 5.75" fill="#ffceb7" fill-rule="evenodd" stroke="none"/>
    <path d="M11.9 1.1 L9.9 1.65 8.75 1.85 8.0 1.9 7.65 1.8 6.25 1.9 0.1 0.85 Q0.2 0.6 0.4 0.65 L2.0 0.55 5.2 0.35 7.1 0.0 8.95 0.1 Q10.3 0.2 11.9 1.1 M2.7 2.7 L3.5 3.3 3.9 3.9 4.15 3.95 4.45 3.75 5.25 3.9 5.3 4.25 5.55 4.55 7.15 4.45 8.35 4.4 Q8.7 4.15 8.45 3.8 L8.2 3.5 10.05 2.65 10.45 2.95 9.7 4.6 8.3 5.5 6.2 5.65 3.95 5.2 Q2.85 4.7 2.45 4.1 L1.9 3.1 1.25 2.1 2.45 2.65 2.7 2.7" fill="#ffe2d5" fill-rule="evenodd" stroke="none"/>
    <path d="M2.7 2.7 L3.15 2.65 Q3.55 2.35 3.7 2.45 L4.7 2.55 6.5 2.15 8.0 2.0 8.8 2.15 10.05 2.65 8.2 3.5 6.3 3.55 6.25 3.55 Q5.3 3.25 5.25 3.9 L4.45 3.75 Q4.8 3.3 4.2 2.9 3.55 3.0 3.5 3.3 L2.7 2.7" fill="#ffd5c4" fill-rule="evenodd" stroke="none"/>
  </g>
</svg>
