<?xml version="1.0" encoding="UTF-8" standalone="no"?>
<svg xmlns:xlink="http://www.w3.org/1999/xlink" height="14.0px" width="35.6px" xmlns="http://www.w3.org/2000/svg">
  <g transform="matrix(1.0, 0.0, 0.0, 1.0, 0.0, 0.0)">
    <path d="M9.7 1.7 Q8.3 1.7 6.7 2.5 6.0 2.85 5.65 3.15 7.45 0.75 8.55 0.25 L11.9 0.0 Q15.4 0.0 19.6 3.85 L19.6 5.85 21.8 5.45 21.95 5.25 Q26.3 0.0 31.7 0.0 33.25 0.0 34.9 1.3 L35.6 1.85 33.25 1.55 Q27.35 1.55 25.3 3.7 L24.05 5.3 24.7 5.3 Q25.9 5.3 28.85 6.5 L25.8 6.15 Q24.55 6.15 22.85 7.1 L22.4 7.75 19.7 12.1 19.6 12.05 19.6 8.5 18.9 9.85 18.8 10.1 18.6 10.55 19.6 12.05 19.6 12.25 19.55 12.35 19.1 12.3 18.7 12.3 18.2 12.3 18.15 12.3 16.9 12.45 15.95 10.75 16.35 8.9 15.35 8.5 15.3 7.95 Q15.45 5.3 12.45 5.3 10.3 5.3 8.45 7.3 12.65 7.5 15.35 8.5 L15.75 10.55 Q14.9 9.65 13.65 9.45 L7.4 8.75 7.4 8.6 7.3 8.75 3.65 14.0 Q4.75 10.7 5.75 8.6 2.05 8.7 0.0 11.35 1.5 7.8 1.85 7.55 L6.35 7.25 6.4 7.3 6.45 7.25 Q7.15 6.0 8.1 5.0 9.05 4.0 12.6 4.65 16.1 5.3 16.25 5.85 16.35 6.4 18.0 6.9 L18.1 7.75 18.15 6.65 Q17.4 4.35 16.05 3.25 14.05 1.7 9.7 1.7 M23.7 9.35 Q24.75 8.2 26.85 8.2 28.75 8.2 31.0 10.05 L28.65 9.6 Q23.7 9.6 23.65 12.95 L21.9 12.55 23.7 9.35" fill="#006600" fill-rule="evenodd" stroke="none"/>
  </g>
</svg>
