<?xml version="1.0" encoding="UTF-8" standalone="no"?>
<svg xmlns:xlink="http://www.w3.org/1999/xlink" height="607.3px" width="809.55px" xmlns="http://www.w3.org/2000/svg">
  <g transform="matrix(1.0, 0.0, 0.0, 1.0, 0.5, 0.5)">
    <path d="M369.1 1.8 L397.0 1.8 413.6 1.8 437.25 1.8 438.05 108.6 438.05 382.15 438.05 382.65 437.85 394.85 438.05 382.65 438.05 395.2 437.85 394.85 Q434.7 396.95 429.7 398.15 L422.4 399.3 Q410.85 401.1 398.75 400.4 386.65 399.7 369.1 394.65 L369.1 394.6 369.1 1.8" fill="url(#gradient0)" fill-rule="evenodd" stroke="none"/>
    <path d="M305.85 1.8 L313.45 1.8 329.3 1.8 369.1 1.8 369.1 394.6 369.1 394.65 369.0 394.7 369.1 394.6 369.0 394.7 Q365.55 396.2 363.55 400.75 358.15 421.0 366.4 441.1 L366.85 441.25 366.55 441.4 1.3 520.75 1.3 336.25 249.05 316.7 258.2 316.0 305.85 312.5 305.85 303.6 305.85 1.8 M366.4 441.1 L366.55 441.4 366.4 441.1" fill="#d8ebd8" fill-rule="evenodd" stroke="none"/>
    <path d="M807.55 0.75 L808.55 261.4 808.5 265.45 807.55 345.4 443.8 424.55 Q445.15 416.1 444.45 407.15 443.7 398.2 438.05 395.2 L438.05 382.65 438.05 382.15 438.05 108.6 437.25 1.8 807.55 0.75" fill="url(#gradient1)" fill-rule="evenodd" stroke="none"/>
    <path d="M369.1 394.65 Q386.65 399.7 398.75 400.4 410.85 401.1 422.4 399.3 L429.7 398.15 Q438.05 417.75 429.9 443.55 420.95 446.7 404.55 446.4 L392.95 445.55 380.15 443.95 Q374.25 443.15 366.85 441.25 L366.4 441.1 Q358.15 421.0 363.55 400.75 365.55 396.2 369.0 394.7 L369.1 394.65 M244.7 252.65 L244.95 252.75 244.95 252.85 244.7 252.65" fill="#ffffcc" fill-rule="evenodd" stroke="none"/>
    <path d="M429.7 398.15 Q434.7 396.95 437.85 394.85 L438.05 395.2 Q443.7 398.2 444.45 407.15 445.15 416.1 443.8 424.55 L442.7 431.25 441.7 434.85 Q441.0 437.0 437.25 439.25 L435.2 440.95 Q433.0 442.45 429.9 443.55 438.05 417.75 429.7 398.15" fill="#fefe78" fill-rule="evenodd" stroke="none"/>
    <path d="M289.8 1.8 L289.8 5.5 289.8 251.45 289.8 270.65 230.7 273.1 230.3 273.25 230.3 251.45 230.3 5.5 230.3 1.8 234.05 1.8 234.05 5.5 234.05 251.45 234.05 269.65 286.95 267.3 286.95 251.45 286.95 5.5 286.95 1.8 289.8 1.8 M298.3 1.8 L305.85 1.8 305.85 303.6 305.85 312.5 258.2 316.0 249.05 316.7 1.3 336.25 1.3 328.05 102.55 319.85 102.55 0.8 110.75 0.85 110.75 315.2 110.75 319.15 102.55 319.85 110.75 319.15 207.75 311.4 213.65 310.95 214.85 310.85 214.85 310.75 214.85 310.45 214.75 1.65 222.0 1.65 222.0 310.25 214.85 310.75 222.0 310.25 223.35 310.15 297.2 304.3 298.3 304.25 298.3 304.2 305.85 303.6 298.3 304.2 298.3 1.8 M196.45 1.5 L199.6 1.55 199.6 274.9 188.45 274.85 184.85 274.8 163.7 274.7 163.0 274.7 162.35 274.7 145.45 274.6 145.45 1.15 148.65 1.15 148.65 271.4 196.45 271.7 196.45 1.5 M11.8 0.1 L11.8 272.2 86.9 270.65 86.9 0.65 90.85 0.7 90.85 275.0 7.85 276.8 7.85 0.05 11.8 0.1 M145.45 301.2 L145.45 281.55 199.6 281.2 199.6 300.85 145.45 301.2 M90.85 282.95 L90.85 307.05 7.85 312.0 7.85 285.75 90.85 282.95 M86.9 303.25 L86.9 286.85 11.8 289.45 11.8 307.3 86.9 303.25 M148.65 297.5 L196.45 297.3 196.45 284.7 148.65 284.85 148.65 297.5 M230.3 287.55 L230.3 279.35 289.8 276.7 289.8 295.6 230.3 299.05 230.3 288.2 230.3 287.55 M234.05 288.2 L234.05 295.7 286.95 292.8 286.95 280.6 235.6 282.8 234.55 282.85 234.05 282.85 234.05 287.55 234.05 288.2 M188.45 274.85 L188.45 274.75 184.85 274.8 188.45 274.75 188.45 274.85" fill="#bb5e00" fill-rule="evenodd" stroke="none"/>
    <path d="M289.8 5.5 L289.8 1.8 298.3 1.8 298.3 304.2 297.2 304.3 298.3 304.2 298.3 304.25 297.2 304.3 223.35 310.15 222.0 310.25 222.0 1.65 230.3 1.75 230.3 1.8 230.3 5.5 230.3 251.45 230.3 273.25 230.7 273.1 289.8 270.65 289.8 251.45 289.8 5.5 M286.95 1.8 L286.95 5.5 286.95 251.45 286.95 267.3 234.05 269.65 234.05 251.45 234.05 5.5 234.05 1.8 234.75 1.8 237.3 1.8 237.85 1.8 237.85 5.5 237.85 66.25 240.35 66.75 241.45 67.0 244.95 67.7 244.95 5.5 244.95 1.8 249.95 1.8 249.95 5.5 249.95 22.0 249.95 68.5 249.95 68.75 261.3 71.0 261.3 71.75 261.3 89.15 265.6 90.0 265.6 72.05 265.65 71.9 270.55 72.9 274.85 73.75 274.85 5.5 274.85 1.8 279.1 1.8 279.1 5.5 279.1 74.6 283.35 75.5 283.3 15.85 283.35 14.75 283.3 13.65 283.25 5.5 283.2 1.8 286.95 1.8 M252.1 75.95 L249.95 75.6 249.95 87.0 252.1 87.4 257.05 88.35 257.05 76.85 252.1 75.95 M252.1 95.15 L244.95 94.05 244.95 93.7 244.95 74.7 240.5 73.95 237.85 73.45 237.85 122.95 240.25 123.3 244.95 123.95 244.95 106.35 245.0 106.25 252.1 107.25 257.05 107.95 257.05 95.9 252.1 95.15 M270.55 79.2 L270.55 90.9 274.85 91.75 274.85 79.95 270.55 79.2 M279.1 111.0 L279.1 128.65 283.35 129.25 283.35 81.45 279.1 80.7 279.1 99.4 270.55 98.05 270.55 109.8 279.1 111.0 M261.3 96.6 L261.3 108.55 265.6 109.15 265.6 97.25 261.3 96.6 M223.35 310.15 L222.0 310.25 223.35 310.15 M207.8 1.6 L207.8 306.3 207.8 307.85 207.75 307.85 207.75 308.1 207.75 310.3 207.45 310.45 207.75 310.3 207.75 310.45 207.45 310.45 182.9 309.9 140.15 308.9 140.15 1.1 145.45 1.15 145.45 274.6 162.35 274.7 163.0 274.7 163.7 274.7 162.35 274.7 163.7 274.7 184.85 274.8 188.45 274.85 199.6 274.9 199.6 1.55 207.8 1.6 M184.5 1.4 L188.45 1.45 188.45 70.55 193.25 69.1 193.25 1.5 196.45 1.5 196.45 271.7 148.65 271.4 148.65 1.15 151.05 1.2 151.05 81.7 154.25 80.75 154.25 1.2 159.0 1.25 159.0 79.35 163.0 78.15 167.65 76.75 167.65 95.2 171.95 93.9 173.6 93.35 173.6 75.0 184.5 71.7 184.5 1.4 M184.5 79.7 L184.5 79.25 184.5 77.1 184.45 77.1 179.4 78.45 179.3 78.45 179.3 91.6 183.4 90.35 184.5 90.0 184.5 79.7 M163.0 84.65 L163.0 82.8 159.0 83.85 159.0 84.1 159.0 97.9 163.0 96.65 163.0 84.65 M179.55 96.95 L179.3 97.0 179.3 111.65 183.5 110.65 183.55 110.65 188.45 109.45 188.45 126.15 193.25 125.1 193.25 109.6 193.25 95.6 193.25 95.4 193.25 77.2 193.25 77.05 193.25 74.75 188.45 76.05 188.45 76.4 188.45 78.25 188.45 94.1 188.05 94.2 188.45 94.3 188.05 94.2 188.45 94.1 188.45 94.3 188.45 94.5 179.55 96.95 M173.6 98.85 L173.6 98.6 171.75 99.1 167.65 100.2 167.65 114.5 171.75 113.5 173.6 113.05 173.6 98.85 M240.2 129.4 L237.85 129.1 237.85 232.6 240.2 232.65 244.95 232.65 244.95 130.0 244.85 130.0 240.2 129.4 M163.0 103.05 L163.0 101.45 154.85 103.7 154.15 103.55 154.85 103.7 154.25 103.85 154.15 103.9 154.15 103.55 154.15 99.4 154.25 99.4 155.1 99.15 154.25 99.0 154.25 97.9 154.25 86.75 154.25 85.15 151.05 86.0 151.05 86.15 151.05 134.15 154.25 133.45 154.25 117.75 163.0 115.6 163.0 103.05 M151.05 140.9 L151.05 134.15 151.05 140.9 151.05 232.3 154.25 232.3 154.25 140.2 151.05 140.9 M171.8 118.2 L167.65 119.15 167.65 137.2 163.0 138.25 159.0 139.15 159.0 232.0 163.0 232.05 167.1 232.05 167.1 249.7 171.55 249.7 173.85 249.7 173.85 232.1 184.5 232.2 184.5 133.4 173.6 135.85 173.6 117.8 171.8 118.2 M179.3 128.1 L184.5 127.0 184.5 115.3 179.3 116.5 179.3 128.1 M163.0 131.6 L163.0 120.25 159.0 121.15 159.0 132.45 163.0 131.6 M193.25 131.45 L188.45 132.55 188.45 232.2 193.25 232.25 193.25 131.45 M270.55 115.35 L270.55 127.45 274.85 128.05 274.85 116.0 270.55 115.35 M251.85 124.9 L257.05 125.6 257.05 113.45 251.85 112.75 249.95 112.45 249.95 124.65 251.85 124.9 M260.8 132.05 L255.45 131.35 250.2 130.7 249.95 130.65 249.95 232.7 261.3 232.8 261.3 247.45 265.6 247.45 265.6 232.8 270.55 232.85 274.85 232.9 274.85 133.85 270.55 133.3 265.6 132.7 265.6 114.65 261.3 114.05 261.3 132.0 260.8 132.05 M283.35 134.95 L279.1 134.4 279.1 232.95 283.35 232.95 283.35 134.95 M82.0 38.95 L82.0 38.8 82.0 0.65 86.9 0.65 86.9 270.65 11.8 272.2 11.8 0.1 16.35 0.1 16.35 27.35 23.45 28.6 30.15 29.8 30.15 0.25 37.35 0.3 37.35 31.05 52.25 33.7 52.25 56.3 57.35 57.1 57.35 34.6 64.55 35.85 70.2 36.85 70.2 0.55 76.35 0.6 76.35 37.7 76.35 37.95 82.0 38.95 M90.85 0.7 L102.55 0.8 102.55 319.85 1.3 328.05 1.3 0.0 7.85 0.05 7.85 276.8 90.85 275.0 90.85 0.7 M70.2 43.75 L64.55 42.7 64.55 58.2 70.2 59.1 70.2 43.75 M39.9 38.25 L37.35 37.8 37.35 53.95 39.9 54.35 46.05 55.3 46.05 39.35 39.9 38.25 M30.15 36.5 L23.45 35.3 16.35 34.0 16.35 93.85 23.45 94.8 30.15 95.65 30.15 75.95 39.9 77.3 46.05 78.15 46.05 62.65 39.9 61.7 30.15 60.15 30.15 36.5 M39.9 82.85 L37.35 82.5 37.35 96.55 39.9 96.9 46.05 97.7 46.05 83.75 39.9 82.85 M76.35 67.45 L64.55 65.6 64.55 80.75 76.35 82.4 76.35 101.55 82.0 102.3 82.0 45.85 76.35 44.85 76.35 67.45 M57.35 64.45 L52.25 63.65 52.25 79.0 57.35 79.75 57.35 64.45 M57.35 85.3 L52.25 84.6 52.25 106.8 37.35 105.0 37.35 231.05 52.25 231.2 52.25 248.75 57.35 248.7 57.35 231.2 64.55 231.25 70.2 231.3 70.2 108.95 64.55 108.25 57.35 107.4 57.35 85.3 M70.2 87.15 L64.55 86.35 64.55 100.1 70.2 100.8 70.2 87.15 M30.15 231.0 L30.15 104.1 23.45 103.3 16.35 102.45 16.35 230.9 23.45 230.95 30.15 231.0 M16.35 93.85 L16.35 102.45 16.35 93.85 M82.0 110.05 L76.35 109.4 76.35 231.35 82.0 231.4 82.0 110.05 M154.25 253.9 L154.25 237.95 151.05 237.95 151.05 267.5 154.25 267.55 163.0 267.6 163.0 253.8 154.25 253.9 M76.5 266.25 L82.0 266.2 82.0 237.2 76.35 237.25 76.35 254.7 64.55 254.8 64.15 266.35 76.35 266.25 76.5 266.25 M159.0 249.7 L163.0 249.7 163.0 238.0 159.0 238.0 159.0 249.7 M70.2 237.25 L64.55 237.25 64.55 248.6 70.2 248.55 70.2 237.25 M23.45 237.35 L16.35 237.35 16.35 266.85 39.9 266.6 46.05 266.55 46.05 255.0 39.9 255.1 30.15 255.2 30.15 237.3 23.45 237.35 M39.9 237.3 L37.35 237.3 37.35 248.9 39.9 248.85 46.05 248.8 46.05 237.3 39.9 237.3 M57.35 254.9 L52.25 254.95 52.25 266.5 57.35 266.45 57.35 254.9 M86.9 303.25 L11.8 307.3 11.8 289.45 86.9 286.85 86.9 303.25 M90.85 282.95 L7.85 285.75 7.85 312.0 90.85 307.05 90.85 282.95 M145.45 301.2 L199.6 300.85 199.6 281.2 145.45 281.55 145.45 301.2 M148.65 297.5 L148.65 284.85 196.45 284.7 196.45 297.3 148.65 297.5 M252.25 237.2 L249.95 237.15 249.95 247.45 252.25 247.45 257.05 247.45 257.05 237.2 252.25 237.2 M279.05 264.5 L283.35 264.45 283.35 237.35 279.1 237.35 279.1 251.7 279.05 252.5 270.55 252.6 270.55 264.65 279.05 264.5 M270.55 237.3 L270.55 247.45 274.85 247.45 274.85 237.3 270.55 237.3 M265.6 264.7 L265.6 252.65 261.3 252.7 261.3 264.75 265.6 264.7 M244.95 252.75 L244.95 252.65 244.95 237.1 240.15 237.1 239.35 237.1 238.9 237.05 237.85 237.05 237.85 265.1 252.25 264.9 257.05 264.8 257.05 252.75 252.25 252.8 244.95 252.85 244.95 252.75 M230.3 288.2 L230.3 299.05 289.8 295.6 289.8 276.7 230.3 279.35 230.3 287.55 230.3 288.2 M235.6 282.8 L286.95 280.6 286.95 292.8 234.05 295.7 234.05 288.2 234.05 287.55 234.05 282.85 234.55 282.85 235.6 282.8 M183.15 238.0 L179.45 238.0 179.45 249.7 183.15 249.7 184.5 249.7 184.5 238.0 183.15 238.0 M193.25 252.85 L193.25 238.0 188.45 238.0 188.45 253.5 183.15 253.55 179.45 253.6 179.45 267.7 183.15 267.75 193.25 267.8 193.25 252.85 M171.35 253.7 L167.1 253.75 167.1 267.6 171.35 267.65 173.85 267.65 173.85 253.65 171.35 253.7 M207.75 307.85 L207.8 306.3 207.75 307.85" fill="#804000" fill-rule="evenodd" stroke="none"/>
    <path d="M274.85 1.8 L274.85 5.5 274.85 73.75 270.55 72.9 270.55 5.5 270.55 1.8 274.85 1.8 M265.6 72.05 L265.6 90.0 261.3 89.15 261.3 71.75 265.6 72.05 M244.95 1.8 L244.95 5.5 244.95 67.7 241.45 67.0 240.35 66.75 240.35 14.75 240.35 5.5 240.35 1.8 244.95 1.8 M279.1 5.5 L279.1 1.8 283.2 1.8 283.25 5.5 283.3 13.65 283.3 15.85 283.35 75.5 279.1 74.6 279.1 5.5 M252.1 87.4 L252.1 75.95 257.05 76.85 257.05 88.35 252.1 87.4 M252.1 95.15 L257.05 95.9 257.05 107.95 252.1 107.25 252.1 95.15 M244.95 106.35 L244.95 123.95 240.25 123.3 240.25 122.75 240.25 105.75 244.95 106.35 M240.5 73.95 L244.95 74.7 244.95 93.7 240.5 93.0 240.5 73.95 M279.1 99.4 L279.1 80.7 283.35 81.45 283.35 129.25 279.1 128.65 279.1 111.0 279.1 99.4 M270.55 79.2 L274.85 79.95 274.85 91.75 270.55 90.9 270.55 79.2 M261.3 96.6 L265.6 97.25 265.6 109.15 261.3 108.55 261.3 96.6 M214.75 1.65 L214.85 310.45 214.85 310.75 213.65 310.95 207.75 311.4 207.75 310.45 207.75 311.4 110.75 319.15 110.75 315.2 182.9 309.9 207.45 310.45 207.75 310.45 207.75 310.3 207.75 308.1 207.8 308.1 207.85 308.1 207.8 307.85 207.8 306.3 207.8 1.6 210.85 1.65 214.75 1.65 M214.85 310.45 L210.85 308.6 210.85 1.65 210.85 308.6 214.85 310.45 M210.85 308.6 L210.85 308.65 207.75 310.3 210.85 308.65 210.85 308.6 M188.45 1.45 L193.25 1.5 193.25 69.1 188.45 70.55 188.45 1.45 M171.95 93.9 L167.65 95.2 167.65 76.75 171.95 77.65 171.95 93.9 M163.0 78.15 L159.0 79.35 159.0 1.25 163.0 1.25 163.0 78.15 M154.25 1.2 L154.25 80.75 151.05 81.7 151.05 1.2 154.25 1.2 M183.4 90.35 L179.3 91.6 179.3 78.45 179.4 78.45 184.45 77.1 184.5 77.1 184.5 79.25 184.5 79.7 183.65 79.5 183.35 79.55 183.4 90.35 M179.4 78.45 L183.35 79.4 183.35 79.55 183.35 79.4 179.4 78.45 M159.0 84.1 L159.0 83.85 163.0 82.8 163.0 84.65 159.0 84.1 163.0 84.65 163.0 96.65 159.0 97.9 159.0 84.1 M183.55 110.65 L183.5 110.65 179.3 111.65 179.3 97.0 179.55 96.95 183.5 98.0 179.55 96.95 188.45 94.5 188.5 94.3 188.45 94.3 188.45 94.1 188.45 78.25 188.45 76.4 188.45 76.05 193.25 74.75 193.25 77.05 193.25 77.2 193.25 95.4 193.25 95.6 183.5 98.0 183.55 110.65 M193.25 109.6 L193.25 125.1 188.45 126.15 188.45 109.45 193.25 109.6 M171.75 113.5 L167.65 114.5 167.65 100.2 171.75 99.1 171.75 113.5 M193.25 77.2 L192.9 77.15 193.25 77.05 192.9 77.15 193.25 77.2 M184.5 79.25 L183.65 79.5 183.35 79.4 183.65 79.5 184.5 79.25 M188.5 94.3 L193.25 95.4 188.5 94.3 M188.45 76.4 L192.9 77.15 188.45 78.25 192.9 77.15 188.45 76.4 M240.2 129.4 L244.85 130.0 244.95 130.0 244.95 232.65 240.2 232.65 240.2 129.4 M154.85 103.7 L163.0 101.45 163.0 103.05 157.95 104.3 154.85 103.7 M154.25 117.75 L154.25 133.45 151.05 134.15 151.05 86.15 151.05 86.0 154.25 85.15 154.25 86.75 151.05 86.15 154.25 86.75 154.25 97.9 154.15 99.0 154.15 99.4 154.15 103.55 154.15 103.9 154.25 104.45 154.25 117.75 M151.05 140.9 L154.25 140.2 154.25 232.3 151.05 232.3 151.05 140.9 M167.65 137.2 L167.65 119.15 171.8 118.2 171.85 136.3 167.65 137.2 M171.55 249.7 L167.1 249.7 167.1 232.05 171.55 231.95 171.55 249.7 M163.0 232.05 L159.0 232.0 159.0 139.15 163.0 138.25 163.0 232.05 M193.25 131.45 L193.25 232.25 188.45 232.2 188.45 132.55 193.25 131.45 M163.0 131.6 L159.0 132.45 159.0 121.15 163.0 120.25 163.0 131.6 M179.3 128.1 L179.3 116.5 184.5 115.3 184.5 127.0 179.3 128.1 M270.55 115.35 L274.85 116.0 274.85 128.05 270.55 127.45 270.55 115.35 M251.85 112.75 L257.05 113.45 257.05 125.6 251.85 124.9 251.85 112.75 M261.3 132.0 L261.3 114.05 265.6 114.65 265.6 132.7 261.3 132.0 M270.55 133.3 L274.85 133.85 274.85 232.9 270.55 232.85 270.55 133.3 M265.6 232.8 L265.6 247.45 261.3 247.45 261.3 232.8 265.6 232.8 M283.35 134.95 L283.35 232.95 279.1 232.95 279.1 134.4 283.35 134.95 M82.0 0.65 L82.0 38.8 82.0 38.95 76.35 37.95 76.35 37.7 76.35 0.6 82.0 0.65 M70.2 0.55 L70.2 36.85 64.55 35.85 64.55 0.5 70.2 0.55 M57.35 34.6 L57.35 57.1 52.25 56.3 52.25 33.7 52.25 33.6 52.3 33.7 57.35 34.6 M30.15 0.25 L30.15 29.8 23.45 28.6 23.45 0.2 30.15 0.25 M52.25 33.7 L52.3 33.7 52.25 33.7 M64.55 42.7 L70.2 43.75 70.2 59.1 64.55 58.2 64.55 42.7 M39.9 54.35 L39.9 38.25 46.05 39.35 46.05 55.3 39.9 54.35 M23.45 35.3 L30.15 36.5 30.15 60.15 23.45 59.1 23.45 35.3 M23.45 94.8 L23.45 75.0 30.15 75.95 30.15 95.65 23.45 94.8 M39.9 77.3 L39.9 61.7 46.05 62.65 46.05 78.15 39.9 77.3 M39.9 96.9 L39.9 82.85 46.05 83.75 46.05 97.7 39.9 96.9 M76.35 82.4 L76.35 67.45 76.35 44.85 82.0 45.85 82.0 102.3 76.35 101.55 76.35 82.4 M52.25 63.65 L57.35 64.45 57.35 79.75 52.25 79.0 52.25 63.65 M52.25 84.6 L57.35 85.3 57.35 107.4 52.25 106.8 52.25 84.6 M64.55 108.25 L70.2 108.95 70.2 231.3 64.55 231.25 64.55 108.25 M57.35 231.2 L57.35 248.7 52.25 248.75 52.25 231.2 57.35 231.2 M64.55 86.35 L70.2 87.15 70.2 100.8 64.55 100.1 64.55 86.35 M23.45 103.3 L30.15 104.1 30.15 231.0 23.45 230.95 23.45 103.3 M76.35 37.7 L82.0 38.8 76.35 37.7 M76.35 231.35 L76.35 109.4 82.0 110.05 82.0 231.4 76.35 231.35 M154.25 267.55 L151.05 267.5 151.05 237.95 154.25 237.95 154.25 253.9 154.25 267.55 M82.0 237.2 L82.0 266.2 76.5 266.25 76.4 259.75 76.5 266.25 76.35 266.25 76.4 259.75 76.35 254.7 76.35 237.25 82.0 237.2 M159.0 249.7 L159.0 238.0 163.0 238.0 163.0 249.7 159.0 249.7 M70.2 237.25 L70.2 248.55 64.55 248.6 64.55 237.25 70.2 237.25 M23.45 237.35 L30.15 237.3 30.15 255.2 23.45 255.25 23.45 237.35 M39.9 255.1 L46.05 255.0 46.05 266.55 39.9 266.6 39.9 255.1 M39.9 237.3 L46.05 237.3 46.05 248.8 39.9 248.85 39.9 237.3 M52.25 254.95 L57.35 254.9 57.35 266.45 52.25 266.5 52.25 254.95 M252.25 237.2 L257.05 237.2 257.05 247.45 252.25 247.45 252.25 237.2 M270.55 237.3 L274.85 237.3 274.85 247.45 270.55 247.45 270.55 237.3 M279.1 251.7 L279.1 237.35 283.35 237.35 283.35 264.45 279.05 264.5 279.05 252.5 279.1 252.5 279.1 251.7 M265.6 264.7 L261.3 264.75 261.3 252.7 265.6 252.65 265.6 264.7 M244.95 252.65 L244.7 252.65 240.15 252.3 240.15 237.1 244.95 237.1 244.95 252.65 M252.25 252.8 L257.05 252.75 257.05 264.8 252.25 264.9 252.25 252.8 M183.15 249.7 L179.45 249.7 179.45 238.0 183.15 238.0 183.15 249.7 M188.45 253.5 L188.45 238.0 193.25 238.0 193.25 252.85 188.45 253.5 M183.15 267.75 L179.45 267.7 179.45 253.6 183.15 253.55 183.15 267.75 M171.35 267.65 L167.1 267.6 167.1 253.75 171.35 253.7 171.35 267.65" fill="#ffcc99" fill-rule="evenodd" stroke="none"/>
    <path d="M270.55 72.9 L265.65 71.9 265.6 71.9 265.6 72.05 261.3 71.75 261.3 71.0 249.95 68.75 249.95 68.5 249.95 22.0 249.95 5.5 249.95 1.8 270.55 1.8 270.55 5.5 270.55 72.9 M240.35 66.75 L237.85 66.25 237.85 5.5 237.85 1.8 240.35 1.8 240.35 5.5 240.35 14.75 240.35 66.75 M252.1 87.4 L249.95 87.0 249.95 75.6 252.1 75.95 252.1 87.4 M244.95 93.7 L244.95 94.05 252.1 95.15 252.1 107.25 245.0 106.25 244.95 106.25 244.95 106.35 240.25 105.75 240.25 122.75 240.25 123.3 237.85 122.95 237.85 73.45 240.5 73.95 240.5 93.0 244.95 93.7 M279.1 99.4 L279.1 111.0 270.55 109.8 270.55 98.05 279.1 99.4 M240.2 232.65 L237.85 232.6 237.85 129.1 240.2 129.4 240.2 232.65 M251.85 124.9 L249.95 124.65 249.95 112.45 251.85 112.75 251.85 124.9 M255.45 131.35 L260.8 132.05 261.3 132.15 261.3 132.0 265.6 132.7 270.55 133.3 270.55 232.85 265.6 232.8 261.3 232.8 249.95 232.7 249.95 130.65 250.2 130.7 255.45 131.35 M64.55 35.85 L57.35 34.6 52.3 33.7 52.25 33.6 52.25 33.7 37.35 31.05 37.35 0.3 64.55 0.5 64.55 35.85 M23.45 28.6 L16.35 27.35 16.35 0.1 23.45 0.2 23.45 28.6 M37.35 37.8 L39.9 38.25 39.9 54.35 37.35 53.95 37.35 37.8 M23.45 35.3 L23.45 59.1 30.15 60.15 39.9 61.7 39.9 77.3 30.15 75.95 23.45 75.0 23.45 94.8 16.35 93.85 16.35 34.0 23.45 35.3 M37.35 82.5 L39.9 82.85 39.9 96.9 37.35 96.55 37.35 82.5 M64.55 65.6 L76.35 67.45 76.35 82.4 64.55 80.75 64.55 65.6 M57.35 107.4 L64.55 108.25 64.55 231.25 57.35 231.2 52.25 231.2 37.35 231.05 37.35 105.0 52.25 106.8 57.35 107.4 M23.45 230.95 L16.35 230.9 16.35 102.45 23.45 103.3 23.45 230.95 M76.35 254.7 L76.4 259.75 76.35 266.25 64.15 266.35 64.55 254.8 76.35 254.7 M16.35 237.35 L23.45 237.35 23.45 255.25 30.15 255.2 39.9 255.1 39.9 266.6 16.35 266.85 16.35 237.35 M39.9 248.85 L37.35 248.9 37.35 237.3 39.9 237.3 39.9 248.85 M279.05 264.5 L270.55 264.65 270.55 252.6 279.05 252.5 279.05 264.5 M240.15 237.1 L240.15 252.3 244.7 252.65 244.95 252.85 252.25 252.8 252.25 264.9 237.85 265.1 237.85 237.05 238.9 237.05 239.35 237.1 240.15 237.1" fill="#d9d9d9" fill-rule="evenodd" stroke="none"/>
    <path d="M163.0 1.25 L184.5 1.4 184.5 71.7 173.6 75.0 173.6 93.35 171.95 93.9 171.95 77.65 167.65 76.75 163.0 78.15 163.0 1.25 M184.5 79.7 L184.5 90.0 183.4 90.35 183.35 79.55 183.65 79.5 184.5 79.7 M183.55 110.65 L183.5 98.0 193.25 95.6 193.25 109.6 188.45 109.45 183.55 110.65 M173.6 98.6 L173.6 98.85 173.6 113.05 171.75 113.5 171.75 99.1 173.6 98.6 M163.0 103.05 L163.0 115.6 154.25 117.75 154.25 104.45 154.25 103.85 154.85 103.7 157.95 104.3 163.0 103.05 M171.8 118.2 L173.6 117.8 173.6 135.85 184.5 133.4 184.5 232.2 173.85 232.1 173.85 249.7 171.55 249.7 171.55 231.95 167.1 232.05 163.0 232.05 163.0 138.25 167.65 137.2 171.85 136.3 171.8 118.2 M110.75 0.85 L140.15 1.1 140.15 308.9 182.9 309.9 110.75 315.2 110.75 0.85 M154.25 267.55 L154.25 253.9 163.0 253.8 163.0 267.6 154.25 267.55 M188.45 253.5 L193.25 252.85 193.25 267.8 183.15 267.75 183.15 253.55 188.45 253.5 M171.35 253.7 L173.85 253.65 173.85 267.65 171.35 267.65 171.35 253.7" fill="#ffffff" fill-rule="evenodd" stroke="none"/>
    <path d="M279.05 252.5 L279.1 251.7 279.1 252.5 279.05 252.5" fill="#cccccc" fill-rule="evenodd" stroke="none"/>
    <path d="M244.7 252.65 L244.95 252.65 244.95 252.75 244.7 252.65" fill="#999999" fill-rule="evenodd" stroke="none"/>
    <path d="M807.55 345.4 L807.55 354.0 807.55 363.2 807.55 368.5 807.55 376.65 807.55 381.2 807.55 395.0 807.55 396.4 807.55 412.6 807.55 418.75 807.55 431.05 807.55 450.0 807.55 451.3 807.55 470.8 807.55 494.65 807.55 507.75 807.55 606.3 0.0 606.3 0.0 521.05 1.3 521.05 1.3 520.75 366.55 441.4 366.85 441.25 Q374.25 443.15 380.15 443.95 L392.95 445.55 404.55 446.4 Q420.95 446.7 429.9 443.55 433.0 442.45 435.2 440.95 L437.25 439.25 Q441.0 437.0 441.7 434.85 L442.7 431.25 443.8 424.55 807.55 345.4 M728.6 384.65 L692.35 394.5 728.6 384.65 698.85 380.25 728.6 384.65 764.2 389.95 728.6 384.65 763.95 375.05 728.6 384.65 M660.45 389.5 L698.85 380.25 660.45 389.5 692.35 394.5 730.0 400.45 692.35 394.5 660.45 389.5 619.9 399.25 579.6 409.0 614.9 415.55 579.6 409.0 542.75 417.85 579.6 409.0 619.9 399.25 589.75 394.15 619.9 399.25 660.45 389.5 631.95 385.0 660.45 389.5 M764.2 389.95 L730.0 400.45 764.2 389.95 804.75 396.0 807.55 395.0 804.75 396.0 807.55 396.4 804.75 396.0 764.2 389.95 797.45 379.75 807.55 376.65 797.45 379.75 807.55 381.2 797.45 379.75 764.2 389.95 M736.35 371.2 L763.95 375.05 736.35 371.2 698.85 380.25 736.35 371.2 769.15 363.3 736.35 371.2 711.65 367.7 736.35 371.2 M672.2 376.3 L698.85 380.25 672.2 376.3 M807.55 368.5 L794.55 366.75 807.55 368.5 M746.3 360.2 L769.15 363.3 746.3 360.2 M807.55 363.2 L794.55 366.75 807.55 363.2 M807.55 354.0 L769.15 363.3 807.55 354.0 M772.85 407.15 L804.75 396.0 772.85 407.15 807.55 412.6 772.85 407.15 738.25 419.3 772.85 407.15 730.0 400.45 772.85 407.15 M763.95 375.05 L797.45 379.75 763.95 375.05 794.55 366.75 763.95 375.05 M769.15 363.3 L794.55 366.75 769.15 363.3 M786.55 427.5 L807.55 418.75 786.55 427.5 807.55 431.05 786.55 427.5 738.25 419.3 693.25 411.7 738.25 419.3 786.55 427.5 753.35 441.25 805.65 450.95 753.35 441.25 722.85 453.9 753.35 441.25 786.55 427.5 M805.65 450.95 L807.55 450.0 805.65 450.95 807.55 451.3 805.65 450.95 777.95 464.9 805.65 450.95 M807.55 494.65 L792.7 504.3 729.0 489.6 752.15 477.95 804.7 487.3 752.15 477.95 729.0 489.6 792.7 504.3 807.55 494.65 M807.55 470.8 L777.95 464.9 807.55 470.8 M777.95 464.9 L722.85 453.9 777.95 464.9 752.15 477.95 694.85 465.5 669.15 476.15 729.0 489.6 702.6 502.9 770.05 519.05 792.7 504.3 807.55 507.75 792.7 504.3 770.05 519.05 702.6 502.9 729.0 489.6 669.15 476.15 694.85 465.5 752.15 477.95 777.95 464.9 M693.25 411.7 L730.0 400.45 693.25 411.7 655.85 423.15 702.55 431.8 655.85 423.15 621.65 433.65 655.85 423.15 693.25 411.7 653.7 405.0 693.25 411.7 M702.55 431.8 L753.35 441.25 702.55 431.8 669.9 443.3 702.55 431.8 738.25 419.3 702.55 431.8 M722.85 453.9 L669.9 443.3 722.85 453.9 694.85 465.5 640.25 453.7 612.45 463.45 669.15 476.15 640.5 488.0 702.6 502.9 676.15 516.25 746.55 534.35 770.05 519.05 801.25 525.65 770.05 519.05 746.55 534.35 676.15 516.25 702.6 502.9 640.5 488.0 669.15 476.15 612.45 463.45 640.25 453.7 694.85 465.5 722.85 453.9 M669.9 443.3 L621.65 433.65 669.9 443.3 640.25 453.7 591.05 443.0 561.65 452.05 612.45 463.45 582.25 474.05 640.5 488.0 612.1 499.8 676.15 516.25 640.95 534.0 715.0 554.85 746.55 534.35 798.45 546.95 746.55 534.35 715.0 554.85 640.95 534.0 676.15 516.25 612.1 499.8 640.5 488.0 582.25 474.05 612.45 463.45 561.65 452.05 591.05 443.0 640.25 453.7 669.9 443.3 M614.9 415.55 L653.7 405.0 614.9 415.55 655.85 423.15 614.9 415.55 579.35 425.2 614.9 415.55 M692.35 394.5 L653.7 405.0 692.35 394.5 M640.6 603.2 L678.9 578.3 748.1 599.85 678.9 578.3 640.6 603.2 M793.65 577.75 L715.0 554.85 678.9 578.3 601.1 554.1 640.95 534.0 601.1 554.1 678.9 578.3 715.0 554.85 793.65 577.75 M254.2 513.5 L183.1 532.85 228.95 554.0 150.9 577.9 106.55 553.6 183.1 532.85 106.55 553.6 150.9 577.9 228.95 554.0 183.1 532.85 142.9 514.3 67.85 532.4 106.55 553.6 24.8 575.8 106.55 553.6 67.85 532.4 142.9 514.3 183.1 532.85 254.2 513.5 313.5 497.4 359.95 513.85 300.15 532.15 254.2 513.5 300.15 532.15 359.95 513.85 313.5 497.4 254.2 513.5 213.9 497.15 142.9 514.3 108.65 498.45 142.9 514.3 213.9 497.15 254.2 513.5 M237.4 470.55 L272.65 483.0 313.5 497.4 369.95 482.1 416.4 496.55 359.95 513.85 414.2 533.0 354.15 554.05 300.15 532.15 228.95 554.0 300.15 532.15 354.15 554.05 414.2 533.0 359.95 513.85 416.4 496.55 369.95 482.1 313.5 497.4 272.65 483.0 213.9 497.15 179.3 483.15 213.9 497.15 272.65 483.0 237.4 470.55 M228.95 554.0 L283.1 579.0 234.45 596.05 283.1 579.0 228.95 554.0 M1.3 525.9 L1.3 521.05 1.3 525.9 M87.9 597.2 L150.9 577.9 195.2 602.2 150.9 577.9 87.9 597.2 M35.05 514.4 L67.85 532.4 21.25 543.6 67.85 532.4 35.05 514.4 M621.65 433.65 L579.35 425.2 542.75 417.85 579.35 425.2 621.65 433.65 591.05 443.0 548.05 433.7 517.2 442.05 561.65 452.05 530.4 461.6 582.25 474.05 552.5 484.45 612.1 499.8 574.6 515.35 640.95 534.0 574.6 515.35 612.1 499.8 552.5 484.45 582.25 474.05 530.4 461.6 561.65 452.05 517.2 442.05 548.05 433.7 591.05 443.0 621.65 433.65 M617.0 604.6 L548.7 580.5 601.1 554.1 532.6 532.75 574.6 515.35 513.5 498.15 552.5 484.45 499.95 470.95 530.4 461.6 499.95 470.95 552.5 484.45 513.5 498.15 574.6 515.35 532.6 532.75 601.1 554.1 548.7 580.5 617.0 604.6 M510.25 411.4 L542.75 417.85 510.25 411.4 M579.35 425.2 L548.05 433.7 510.7 425.6 542.75 417.85 510.7 425.6 548.05 433.7 579.35 425.2 M548.2 403.15 L579.6 409.0 548.2 403.15 M444.25 425.7 L478.5 433.35 445.65 441.3 437.25 439.25 445.65 441.3 478.5 433.35 444.25 425.7 M513.15 598.4 L548.7 580.5 477.8 555.45 532.6 532.75 470.25 513.3 513.5 498.15 460.15 483.1 413.95 470.1 454.2 459.2 499.95 470.95 460.15 483.1 499.95 470.95 454.2 459.2 413.95 470.1 460.15 483.1 513.5 498.15 470.25 513.3 532.6 532.75 477.8 555.45 548.7 580.5 513.15 598.4 M477.7 418.45 L510.7 425.6 478.5 433.35 517.2 442.05 485.2 450.75 454.2 459.2 414.15 448.9 445.65 441.3 485.2 450.75 445.65 441.3 414.15 448.9 454.2 459.2 485.2 450.75 517.2 442.05 478.5 433.35 510.7 425.6 477.7 418.45 M333.45 602.2 L283.1 579.0 354.15 554.05 418.3 580.1 477.8 555.45 414.2 533.0 470.25 513.3 416.4 496.55 460.15 483.1 416.4 496.55 470.25 513.3 414.2 533.0 477.8 555.45 418.3 580.1 354.15 554.05 283.1 579.0 333.45 602.2 M329.15 469.4 L272.65 483.0 329.15 469.4 293.7 458.35 329.15 469.4 373.4 458.7 337.95 448.75 373.4 458.7 329.15 469.4 369.95 482.1 413.95 470.1 373.4 458.7 414.15 448.9 404.55 446.4 414.15 448.9 373.4 458.7 413.95 470.1 369.95 482.1 329.15 469.4 M530.4 461.6 L485.2 450.75 530.4 461.6 M379.75 596.05 L418.3 580.1 478.8 604.6 418.3 580.1 379.75 596.05 M653.7 405.0 L619.9 399.25 653.7 405.0" fill="url(#gradient2)" fill-rule="evenodd" stroke="none"/>
    <path d="M369.1 1.8 L397.0 1.8 413.6 1.8 437.25 1.8 807.55 0.75 M305.85 1.8 L313.45 1.8 329.3 1.8 369.1 1.8 M438.05 382.15 L438.05 108.6 437.25 1.8 M289.8 1.8 L286.95 1.8 M286.95 5.5 L286.95 251.45 M234.05 251.45 L234.05 5.5 M230.3 5.5 L230.3 251.45 M289.8 251.45 L289.8 5.5 M289.8 1.8 L298.3 1.8 305.85 1.8 305.85 303.6 305.85 312.5 258.2 316.0 249.05 316.7 1.3 336.25 1.3 520.75 M274.85 5.5 L274.85 73.75 270.55 72.9 265.65 71.9 M265.6 72.05 L265.6 90.0 261.3 89.15 261.3 71.75 261.3 71.0 249.95 68.75 249.95 68.5 249.95 22.0 249.95 5.5 M249.95 1.8 L244.95 1.8 M244.95 5.5 L244.95 67.7 241.45 67.0 240.35 66.75 237.85 66.25 237.85 5.5 M237.85 1.8 L237.3 1.8 234.75 1.8 234.05 1.8 M279.1 1.8 L274.85 1.8 270.55 1.8 M270.55 5.5 L270.55 72.9 M279.1 1.8 L283.2 1.8 286.95 1.8 M283.25 5.5 L283.3 13.65 283.35 14.75 M283.3 15.85 L283.35 75.5 279.1 74.6 279.1 5.5 M283.3 13.65 L283.3 15.85 M249.95 1.8 L270.55 1.8 M265.6 72.05 L265.6 71.9 265.65 71.9 M252.1 75.95 L249.95 75.6 249.95 87.0 252.1 87.4 252.1 75.95 257.05 76.85 257.05 88.35 252.1 87.4 M244.95 93.7 L244.95 94.05 252.1 95.15 257.05 95.9 257.05 107.95 252.1 107.25 245.0 106.25 244.95 106.25 244.95 106.35 244.95 123.95 240.25 123.3 237.85 122.95 237.85 73.45 240.5 73.95 244.95 74.7 244.95 93.7 M240.5 93.0 L240.5 73.95 M270.55 79.2 L270.55 90.9 274.85 91.75 274.85 79.95 270.55 79.2 M279.1 111.0 L279.1 128.65 283.35 129.25 283.35 81.45 279.1 80.7 279.1 99.4 279.1 111.0 270.55 109.8 270.55 98.05 279.1 99.4 M261.3 71.75 L265.6 72.05 M261.3 96.6 L261.3 108.55 265.6 109.15 265.6 97.25 261.3 96.6 M240.35 5.5 L240.35 14.75 M237.85 1.8 L240.35 1.8 244.95 1.8 M234.75 1.8 L230.3 1.75 222.0 1.65 222.0 310.25 223.35 310.15 297.2 304.3 298.3 304.2 298.3 1.8 M222.0 1.65 L214.75 1.65 214.85 310.45 214.85 310.75 222.0 310.25 223.35 310.15 M214.75 1.65 L210.85 1.65 210.85 308.6 214.85 310.45 M210.85 1.65 L207.8 1.6 207.8 306.3 207.8 307.85 207.75 307.85 207.75 308.1 207.75 310.3 210.85 308.65 210.85 308.6 M207.85 308.1 L207.8 308.1 207.8 307.85 M184.5 1.4 L188.45 1.45 193.25 1.5 196.45 1.5 199.6 1.55 207.8 1.6 M163.0 1.25 L184.5 1.4 184.5 71.7 173.6 75.0 173.6 93.35 171.95 93.9 167.65 95.2 167.65 76.75 163.0 78.15 159.0 79.35 159.0 1.25 154.25 1.2 154.25 80.75 151.05 81.7 151.05 1.2 148.65 1.15 148.65 271.4 196.45 271.7 196.45 1.5 M193.25 1.5 L193.25 69.1 188.45 70.55 188.45 1.45 M183.4 90.35 L179.3 91.6 179.3 78.45 179.4 78.45 184.45 77.1 184.5 77.1 184.5 79.25 184.5 79.7 184.5 90.0 183.4 90.35 183.35 79.55 183.35 79.4 179.4 78.45 M171.95 93.9 L171.95 77.65 167.65 76.75 M163.0 84.65 L163.0 82.8 159.0 83.85 159.0 84.1 163.0 84.65 163.0 96.65 159.0 97.9 159.0 84.1 M179.55 96.95 L179.3 97.0 179.3 111.65 183.5 110.65 183.55 110.65 183.5 98.0 179.55 96.95 188.45 94.5 188.45 94.3 188.05 94.2 188.45 94.1 188.45 78.25 188.45 76.4 188.45 76.05 193.25 74.75 193.25 77.05 193.25 77.2 193.25 95.4 193.25 95.6 193.25 109.6 193.25 125.1 188.45 126.15 188.45 109.45 183.55 110.65 M173.6 98.85 L173.6 113.05 171.75 113.5 167.65 114.5 167.65 100.2 171.75 99.1 173.6 98.6 M193.25 77.05 L192.9 77.15 193.25 77.2 M183.35 79.55 L183.65 79.5 183.35 79.4 M183.65 79.5 L184.5 79.25 M183.65 79.5 L184.5 79.7 M188.45 94.3 L188.45 94.1 M188.5 94.3 L188.45 94.3 M183.5 98.0 L193.25 95.6 M188.45 78.25 L192.9 77.15 188.45 76.4 M193.25 95.4 L188.5 94.3 M163.0 78.15 L163.0 1.25 159.0 1.25 M240.2 232.65 L237.85 232.6 237.85 129.1 240.2 129.4 244.85 130.0 M244.95 130.0 L244.95 232.65 240.2 232.65 M240.25 122.75 L240.25 123.3 M244.95 106.35 L240.25 105.75 240.25 122.75 M188.45 109.45 L193.25 109.6 M154.85 103.7 L163.0 101.45 163.0 103.05 163.0 115.6 154.25 117.75 154.25 133.45 151.05 134.15 151.05 140.9 154.25 140.2 154.25 232.3 151.05 232.3 151.05 140.9 M167.65 137.2 L167.65 119.15 171.8 118.2 173.6 117.8 173.6 135.85 184.5 133.4 184.5 232.2 173.85 232.1 173.85 249.7 171.55 249.7 167.1 249.7 167.1 232.05 163.0 232.05 159.0 232.0 159.0 139.15 163.0 138.25 167.65 137.2 171.85 136.3 171.8 118.2 M171.75 113.5 L171.75 99.1 M193.25 131.45 L193.25 232.25 188.45 232.2 188.45 132.55 193.25 131.45 M163.0 131.6 L159.0 132.45 159.0 121.15 163.0 120.25 163.0 131.6 M179.3 128.1 L179.3 116.5 184.5 115.3 184.5 127.0 179.3 128.1 M270.55 115.35 L270.55 127.45 274.85 128.05 274.85 116.0 270.55 115.35 M251.85 112.75 L257.05 113.45 257.05 125.6 251.85 124.9 249.95 124.65 249.95 112.45 251.85 112.75 251.85 124.9 M255.45 131.35 L260.8 132.05 261.3 132.0 261.3 114.05 265.6 114.65 265.6 132.7 270.55 133.3 274.85 133.85 274.85 232.9 270.55 232.85 265.6 232.8 265.6 247.45 261.3 247.45 261.3 232.8 249.95 232.7 249.95 130.65 250.2 130.7 M261.3 132.0 L261.3 132.15 260.8 132.05 M283.35 134.95 L283.35 232.95 279.1 232.95 279.1 134.4 283.35 134.95 M261.3 132.0 L265.6 132.7 M252.1 95.15 L252.1 107.25 M140.15 1.1 L145.45 1.15 148.65 1.15 M151.05 1.2 L154.25 1.2 M82.0 0.65 L82.0 38.8 82.0 38.95 M76.35 0.6 L70.2 0.55 64.55 0.5 37.35 0.3 30.15 0.25 23.45 0.2 16.35 0.1 11.8 0.1 11.8 272.2 86.9 270.65 86.9 0.65 82.0 0.65 76.35 0.6 M16.35 27.35 L16.35 0.1 M102.55 0.8 L110.75 0.85 140.15 1.1 140.15 308.9 182.9 309.9 207.45 310.45 207.75 310.3 207.75 310.45 207.75 311.4 213.65 310.95 214.85 310.75 214.85 310.85 213.65 310.95 M90.85 0.7 L102.55 0.8 102.55 319.85 110.75 319.15 110.75 315.2 110.75 0.85 M86.9 0.65 L90.85 0.7 90.85 275.0 7.85 276.8 7.85 0.05 1.3 0.0 1.3 328.05 102.55 319.85 M154.25 86.75 L154.25 85.15 151.05 86.0 151.05 86.15 154.25 86.75 154.25 97.9 154.25 99.0 154.25 99.4 154.15 99.4 154.15 103.55 154.85 103.7 157.95 104.3 163.0 103.05 M154.15 99.4 L154.15 99.0 154.25 97.9 M52.25 33.6 L52.3 33.7 M70.2 43.75 L64.55 42.7 M11.8 0.1 L7.85 0.05 M39.9 38.25 L37.35 37.8 M39.9 38.25 L46.05 39.35 M30.15 36.5 L23.45 35.3 16.35 34.0 16.35 93.85 M23.45 59.1 L30.15 60.15 M39.9 61.7 L30.15 60.15 M39.9 82.85 L37.35 82.5 M39.9 82.85 L46.05 83.75 M76.35 67.45 L64.55 65.6 M76.35 44.85 L82.0 45.85 82.0 102.3 M52.25 63.65 L57.35 64.45 M52.25 84.6 L57.35 85.3 M70.2 231.3 L64.55 231.25 57.35 231.2 52.25 231.2 37.35 231.05 M70.2 87.15 L64.55 86.35 M39.9 61.7 L46.05 62.65 M30.15 231.0 L23.45 230.95 16.35 230.9 16.35 102.45 16.35 93.85 M154.25 104.45 L154.25 103.85 154.15 103.9 154.25 104.45 154.25 117.75 M154.15 103.9 L154.15 103.55 M154.85 103.7 L154.25 103.85 M151.05 86.15 L151.05 134.15 M82.0 110.05 L82.0 231.4 76.35 231.35 M154.25 253.9 L154.25 237.95 151.05 237.95 151.05 267.5 154.25 267.55 154.25 253.9 163.0 253.8 163.0 267.6 154.25 267.55 M76.5 266.25 L82.0 266.2 82.0 237.2 M76.5 266.25 L76.35 266.25 64.15 266.35 M64.55 254.8 L76.35 254.7 M159.0 249.7 L163.0 249.7 163.0 238.0 159.0 238.0 159.0 249.7 M30.15 255.2 L39.9 255.1 46.05 255.0 M46.05 266.55 L39.9 266.6 16.35 266.85 16.35 237.35 M23.45 255.25 L30.15 255.2 M52.25 254.95 L57.35 254.9 M57.35 266.45 L52.25 266.5 M1.3 328.05 L1.3 336.25 M86.9 303.25 L11.8 307.3 11.8 289.45 86.9 286.85 86.9 303.25 M90.85 282.95 L7.85 285.75 7.85 312.0 90.85 307.05 90.85 282.95 M145.45 301.2 L199.6 300.85 199.6 281.2 145.45 281.55 145.45 301.2 M148.65 297.5 L196.45 297.3 196.45 284.7 148.65 284.85 148.65 297.5 M252.25 247.45 L249.95 247.45 249.95 237.15 252.25 237.2 257.05 237.2 257.05 247.45 252.25 247.45 252.25 237.2 M270.55 237.3 L274.85 237.3 274.85 247.45 270.55 247.45 270.55 237.3 M279.1 251.7 L279.1 237.35 283.35 237.35 283.35 264.45 279.05 264.5 270.55 264.65 270.55 252.6 279.05 252.5 279.1 251.7 279.1 252.5 279.05 252.5 279.05 264.5 M265.6 232.8 L261.3 232.8 M265.6 264.7 L261.3 264.75 261.3 252.7 265.6 252.65 265.6 264.7 M244.7 252.65 L244.95 252.75 244.95 252.65 244.95 237.1 240.15 237.1 240.15 252.3 244.7 252.65 M244.95 252.85 L244.95 252.75 M252.25 252.8 L244.95 252.85 M252.25 252.8 L257.05 252.75 257.05 264.8 252.25 264.9 237.85 265.1 237.85 237.05 238.9 237.05 M239.35 237.1 L240.15 237.1 M252.25 264.9 L252.25 252.8 M230.3 288.2 L230.3 287.55 M234.05 287.55 L234.05 288.2 M183.15 249.7 L179.45 249.7 179.45 238.0 183.15 238.0 184.5 238.0 184.5 249.7 183.15 249.7 183.15 238.0 M193.25 252.85 L193.25 238.0 188.45 238.0 188.45 253.5 193.25 252.85 193.25 267.8 183.15 267.75 179.45 267.7 179.45 253.6 183.15 253.55 188.45 253.5 M167.1 232.05 L171.55 231.95 171.55 249.7 M183.15 267.75 L183.15 253.55 M171.35 267.65 L167.1 267.6 167.1 253.75 171.35 253.7 173.85 253.65 173.85 267.65 171.35 267.65 171.35 253.7 M163.0 274.7 L162.35 274.7 163.7 274.7 184.85 274.8 188.45 274.75 188.45 274.85 199.6 274.9 199.6 1.55 M207.8 306.3 L207.75 307.85 M207.45 310.45 L207.75 310.45 M298.3 304.2 L298.3 304.25 297.2 304.3 M305.85 303.6 L298.3 304.2 M163.0 138.25 L163.0 232.05 M207.75 311.4 L110.75 319.15 M145.45 1.15 L145.45 274.6 162.35 274.7 M270.55 133.3 L270.55 232.85 M182.9 309.9 L110.75 315.2 M1.3 521.05 L1.3 525.9 M1.3 521.05 L1.3 520.75 M429.9 443.55 Q433.0 442.45 435.2 440.95 L437.25 439.25 Q441.0 437.0 441.7 434.85 M366.4 441.1 L366.85 441.25 Q374.25 443.15 380.15 443.95 L392.95 445.55 404.55 446.4 Q420.95 446.7 429.9 443.55" fill="none" stroke="#000000" stroke-linecap="round" stroke-linejoin="round" stroke-width="1.0"/>
    <path d="M807.55 0.75 L808.55 261.4 808.5 265.45 807.55 345.4 807.55 354.0 807.55 363.2 807.55 368.5 807.55 376.65 807.55 381.2 807.55 395.0 807.55 396.4 807.55 412.6 807.55 418.75 807.55 431.05 807.55 450.0 807.55 451.3 807.55 470.8 807.55 494.65 807.55 507.75 807.55 606.3 0.0 606.3 0.0 521.05 0.0 515.75 M369.1 1.8 L369.1 394.6 369.1 394.65 Q386.65 399.7 398.75 400.4 410.85 401.1 422.4 399.3 L429.7 398.15 Q434.7 396.95 437.85 394.85 L438.05 382.65 438.05 382.15 M369.1 394.6 L369.0 394.7 369.1 394.65 M437.85 394.85 L438.05 395.2 M289.8 5.5 L289.8 1.8 M286.95 1.8 L286.95 5.5 M286.95 251.45 L286.95 267.3 234.05 269.65 234.05 251.45 M234.05 5.5 L234.05 1.8 M230.3 1.8 L230.3 5.5 M230.3 251.45 L230.3 273.25 M230.7 273.1 L289.8 270.65 289.8 251.45 M1.3 520.75 L366.55 441.4 366.4 441.1 Q358.15 421.0 363.55 400.75 365.55 396.2 369.0 394.7 M274.85 1.8 L274.85 5.5 M249.95 5.5 L249.95 1.8 M244.95 1.8 L244.95 5.5 M237.85 5.5 L237.85 1.8 M270.55 1.8 L270.55 5.5 M279.1 5.5 L279.1 1.8 M283.2 1.8 L283.25 5.5 M283.35 14.75 L283.3 15.85 M244.95 93.7 L240.5 93.0 M240.35 1.8 L240.35 5.5 M240.35 14.75 L240.35 66.75 M240.2 232.65 L240.2 129.4 M250.2 130.7 L255.45 131.35 M76.35 37.7 L76.35 0.6 M70.2 0.55 L70.2 36.85 64.55 35.85 57.35 34.6 57.35 57.1 52.25 56.3 52.25 33.7 37.35 31.05 37.35 0.3 M30.15 0.25 L30.15 29.8 23.45 28.6 16.35 27.35 M64.55 0.5 L64.55 35.85 M52.25 33.7 L52.25 33.6 M52.3 33.7 L57.35 34.6 M52.3 33.7 L52.25 33.7 M64.55 42.7 L64.55 58.2 70.2 59.1 70.2 43.75 M23.45 0.2 L23.45 28.6 M37.35 37.8 L37.35 53.95 39.9 54.35 39.9 38.25 M46.05 39.35 L46.05 55.3 39.9 54.35 M23.45 35.3 L23.45 59.1 M30.15 60.15 L30.15 36.5 M16.35 93.85 L23.45 94.8 23.45 75.0 30.15 75.95 39.9 77.3 39.9 61.7 M37.35 82.5 L37.35 96.55 39.9 96.9 39.9 82.85 M46.05 83.75 L46.05 97.7 39.9 96.9 M30.15 75.95 L30.15 95.65 23.45 94.8 M64.55 65.6 L64.55 80.75 76.35 82.4 76.35 67.45 76.35 44.85 M82.0 102.3 L76.35 101.55 76.35 82.4 M57.35 64.45 L57.35 79.75 52.25 79.0 52.25 63.65 M57.35 85.3 L57.35 107.4 64.55 108.25 70.2 108.95 70.2 231.3 M57.35 231.2 L57.35 248.7 52.25 248.75 52.25 231.2 M37.35 231.05 L37.35 105.0 52.25 106.8 52.25 84.6 M64.55 86.35 L64.55 100.1 70.2 100.8 70.2 87.15 M46.05 62.65 L46.05 78.15 39.9 77.3 M57.35 107.4 L52.25 106.8 M23.45 103.3 L30.15 104.1 30.15 231.0 M23.45 103.3 L16.35 102.45 M82.0 38.8 L76.35 37.7 M76.35 231.35 L76.35 109.4 82.0 110.05 M82.0 237.2 L76.35 237.25 76.35 254.7 76.4 259.75 76.5 266.25 M64.15 266.35 L64.55 254.8 M70.2 237.25 L70.2 248.55 64.55 248.6 64.55 237.25 70.2 237.25 M16.35 237.35 L23.45 237.35 30.15 237.3 30.15 255.2 M46.05 255.0 L46.05 266.55 M39.9 248.85 L37.35 248.9 37.35 237.3 39.9 237.3 46.05 237.3 46.05 248.8 39.9 248.85 39.9 237.3 M39.9 266.6 L39.9 255.1 M57.35 254.9 L57.35 266.45 M52.25 266.5 L52.25 254.95 M23.45 237.35 L23.45 255.25 M230.3 287.55 L230.3 279.35 289.8 276.7 289.8 295.6 230.3 299.05 230.3 288.2 M234.05 288.2 L234.05 295.7 286.95 292.8 286.95 280.6 235.6 282.8 M234.55 282.85 L234.05 282.85 234.05 287.55 M64.55 108.25 L64.55 231.25 M23.45 230.95 L23.45 103.3 M1.3 520.75 L0.0 521.05 M441.7 434.85 L442.7 431.25 443.8 424.55 Q445.15 416.1 444.45 407.15 443.7 398.2 438.05 395.2 M807.55 345.4 L443.8 424.55" fill="none" stroke="#000000" stroke-linecap="round" stroke-linejoin="round" stroke-width="1.0"/>
    <path d="M692.35 394.5 L728.6 384.65 763.95 375.05 794.55 366.75 807.55 363.2 M698.85 380.25 L660.45 389.5 619.9 399.25 M730.0 400.45 L764.2 389.95 797.45 379.75 M736.35 371.2 L698.85 380.25 M736.35 371.2 L769.15 363.3 807.55 354.0 M807.55 376.65 L797.45 379.75 M807.55 395.0 L804.75 396.0 772.85 407.15 M807.55 418.75 L786.55 427.5 753.35 441.25 722.85 453.9 694.85 465.5 640.25 453.7 612.45 463.45 669.15 476.15 640.5 488.0 702.6 502.9 676.15 516.25 746.55 534.35 770.05 519.05 801.25 525.65 M804.7 487.3 L752.15 477.95 729.0 489.6 792.7 504.3 807.55 494.65 M807.55 450.0 L805.65 450.95 M777.95 464.9 L805.65 450.95 M777.95 464.9 L752.15 477.95 694.85 465.5 669.15 476.15 729.0 489.6 702.6 502.9 770.05 519.05 792.7 504.3 807.55 507.75 M738.25 419.3 L772.85 407.15 M730.0 400.45 L693.25 411.7 M702.55 431.8 L669.9 443.3 640.25 453.7 591.05 443.0 561.65 452.05 612.45 463.45 582.25 474.05 640.5 488.0 612.1 499.8 676.15 516.25 640.95 534.0 715.0 554.85 746.55 534.35 798.45 546.95 M655.85 423.15 L621.65 433.65 591.05 443.0 548.05 433.7 517.2 442.05 561.65 452.05 530.4 461.6 582.25 474.05 552.5 484.45 612.1 499.8 574.6 515.35 640.95 534.0 601.1 554.1 678.9 578.3 715.0 554.85 793.65 577.75 M655.85 423.15 L693.25 411.7 M653.7 405.0 L614.9 415.55 M738.25 419.3 L702.55 431.8 M748.1 599.85 L678.9 578.3 640.6 603.2 M653.7 405.0 L692.35 394.5 M183.1 532.85 L106.55 553.6 150.9 577.9 228.95 554.0 183.1 532.85 142.9 514.3 67.85 532.4 106.55 553.6 24.8 575.8 M254.2 513.5 L300.15 532.15 359.95 513.85 313.5 497.4 254.2 513.5 213.9 497.15 142.9 514.3 108.65 498.45 M228.95 554.0 L300.15 532.15 354.15 554.05 414.2 533.0 359.95 513.85 416.4 496.55 369.95 482.1 313.5 497.4 272.65 483.0 213.9 497.15 179.3 483.15 M234.45 596.05 L283.1 579.0 228.95 554.0 M272.65 483.0 L237.4 470.55 M183.1 532.85 L254.2 513.5 M21.25 543.6 L67.85 532.4 35.05 514.4 M195.2 602.2 L150.9 577.9 87.9 597.2 M579.35 425.2 L614.9 415.55 M579.6 409.0 L542.75 417.85 510.7 425.6 548.05 433.7 579.35 425.2 M579.6 409.0 L619.9 399.25 M530.4 461.6 L499.95 470.95 552.5 484.45 513.5 498.15 574.6 515.35 532.6 532.75 601.1 554.1 548.7 580.5 617.0 604.6 M437.25 439.25 L445.65 441.3 478.5 433.35 444.25 425.7 M485.2 450.75 L445.65 441.3 414.15 448.9 454.2 459.2 485.2 450.75 517.2 442.05 478.5 433.35 510.7 425.6 477.7 418.45 M460.15 483.1 L499.95 470.95 454.2 459.2 413.95 470.1 460.15 483.1 513.5 498.15 470.25 513.3 532.6 532.75 477.8 555.45 548.7 580.5 513.15 598.4 M293.7 458.35 L329.15 469.4 373.4 458.7 337.95 448.75 M329.15 469.4 L369.95 482.1 413.95 470.1 373.4 458.7 414.15 448.9 404.55 446.4 M354.15 554.05 L418.3 580.1 477.8 555.45 414.2 533.0 470.25 513.3 416.4 496.55 460.15 483.1 M478.8 604.6 L418.3 580.1 379.75 596.05 M485.2 450.75 L530.4 461.6 M272.65 483.0 L329.15 469.4 M354.15 554.05 L283.1 579.0 333.45 602.2" fill="none" stroke="#666666" stroke-linecap="round" stroke-linejoin="round" stroke-width="1.0"/>
    <path d="M728.6 384.65 L698.85 380.25 672.2 376.3 M660.45 389.5 L692.35 394.5 730.0 400.45 M764.2 389.95 L728.6 384.65 M763.95 375.05 L736.35 371.2 711.65 367.7 M769.15 363.3 L746.3 360.2 M794.55 366.75 L807.55 368.5 M797.45 379.75 L807.55 381.2 M804.75 396.0 L807.55 396.4 M764.2 389.95 L804.75 396.0 M772.85 407.15 L807.55 412.6 M797.45 379.75 L763.95 375.05 M794.55 366.75 L769.15 363.3 M786.55 427.5 L807.55 431.05 M805.65 450.95 L807.55 451.3 M777.95 464.9 L807.55 470.8 M805.65 450.95 L753.35 441.25 702.55 431.8 655.85 423.15 M722.85 453.9 L777.95 464.9 M772.85 407.15 L730.0 400.45 M693.25 411.7 L738.25 419.3 786.55 427.5 M669.9 443.3 L722.85 453.9 M621.65 433.65 L669.9 443.3 M693.25 411.7 L653.7 405.0 M614.9 415.55 L655.85 423.15 M614.9 415.55 L579.6 409.0 548.2 403.15 M542.75 417.85 L579.35 425.2 621.65 433.65 M619.9 399.25 L589.75 394.15 M542.75 417.85 L510.25 411.4 M619.9 399.25 L653.7 405.0 M631.95 385.0 L660.45 389.5" fill="none" stroke="#999999" stroke-linecap="round" stroke-linejoin="round" stroke-width="1.0"/>
  </g>
  <defs>
    <linearGradient gradientTransform="matrix(1.0, 0.0, 0.0, 1.0, 4.55, 4.05)" gradientUnits="userSpaceOnUse" id="gradient0" spreadMethod="pad" x1="-819.2" x2="819.2">
      <stop offset="0.7215686274509804" stop-color="#ff4444"/>
      <stop offset="0.8156862745098039" stop-color="#4b0101"/>
    </linearGradient>
    <radialGradient cx="0" cy="0" gradientTransform="matrix(1.0, 0.0, 0.0, 1.0, 4.55, 4.05)" gradientUnits="userSpaceOnUse" id="gradient1" r="819.2" spreadMethod="pad">
      <stop offset="0.6784313725490196" stop-color="#d8ebd8"/>
      <stop offset="1.0" stop-color="#b0d7b0"/>
    </radialGradient>
    <radialGradient cx="0" cy="0" gradientTransform="matrix(1.0, 0.0, 0.0, 1.0, 4.55, 4.05)" gradientUnits="userSpaceOnUse" id="gradient2" r="819.2" spreadMethod="pad">
      <stop offset="0.7137254901960784" stop-color="#ffffff"/>
      <stop offset="1.0" stop-color="#ebe4b6"/>
    </radialGradient>
  </defs>
</svg>
