<?xml version="1.0" encoding="UTF-8" standalone="no"?>
<svg xmlns:xlink="http://www.w3.org/1999/xlink" height="70.7px" width="91.15px" xmlns="http://www.w3.org/2000/svg">
  <g transform="matrix(1.0, 0.0, 0.0, 1.0, 0.5, 0.5)">
    <path d="M90.15 7.4 L57.8 13.35 57.35 13.4 0.2 5.5 34.05 0.0 90.15 7.2 90.15 7.4 M86.15 18.2 L89.4 19.15 57.8 25.35 57.8 25.3 0.25 16.35 4.35 15.5 5.4 15.3 57.35 23.4 57.8 23.5 57.8 23.3 85.4 18.0 86.15 18.2 M52.9 43.25 L52.9 44.7 33.95 41.9 33.95 41.85 38.05 41.1 38.05 41.15 52.9 43.25 M52.9 53.1 L52.9 55.55 5.35 48.2 5.35 48.05 9.25 47.25 10.45 47.15 21.3 48.65 29.05 49.75 33.55 50.4 37.95 51.0 52.9 53.1 M29.1 41.15 L29.1 41.05 33.55 41.85 33.55 42.0 10.45 47.15 10.05 47.1 9.35 47.0 9.35 45.45 29.1 41.15 M62.0 46.05 L62.0 44.55 81.4 47.3 81.4 48.8 81.15 48.9 62.0 46.05 M85.4 49.4 L85.4 49.5 62.0 55.5 62.0 53.5 67.75 52.1 81.15 48.9 81.4 48.9 85.4 49.4" fill="#ffcc99" fill-rule="evenodd" stroke="none"/>
    <path d="M90.15 14.8 L86.15 15.55 57.8 21.1 57.8 13.35 90.15 7.4 90.15 14.8 M89.4 19.15 L90.15 19.3 90.15 60.45 85.4 61.8 85.4 54.35 85.4 49.5 85.4 54.35 81.4 55.4 62.0 60.55 62.0 68.5 57.9 69.7 57.8 69.65 57.8 25.35 89.4 19.15 M9.35 53.8 L9.35 59.8 5.4 60.65 5.4 60.6 5.35 53.15 9.35 53.8 M33.55 27.2 L38.05 27.9 38.05 41.1 33.95 41.85 33.75 41.9 33.55 41.85 33.55 27.2 M37.95 47.1 L37.95 51.0 33.55 50.4 33.55 46.4 37.95 47.1 M9.35 45.45 L9.35 47.0 9.35 47.25 9.25 47.25 5.35 48.05 5.2 22.65 9.3 23.3 9.35 45.45 M10.45 47.15 L33.55 42.0 33.55 46.3 29.05 47.15 21.3 48.65 10.45 47.15 M62.0 44.55 L62.0 46.05 62.0 51.15 62.0 53.5 62.0 55.5 85.4 49.5 85.4 49.4 85.4 24.9 81.4 25.8 62.0 30.1 62.0 44.55 M62.0 60.55 L62.0 55.5 62.0 60.55" fill="#804000" fill-rule="evenodd" stroke="none"/>
    <path d="M57.8 13.35 L57.8 21.1 4.35 13.05 0.0 12.4 0.0 5.5 0.2 5.5 57.35 13.4 57.8 13.35 M85.3 61.85 L81.4 61.3 81.4 55.4 85.4 54.35 85.4 61.8 85.3 61.85 M57.8 69.65 L52.9 68.8 52.9 61.1 9.35 53.8 5.35 53.15 5.4 60.6 0.45 59.55 0.25 16.35 57.8 25.3 57.8 25.35 57.8 69.65 M38.05 27.9 L33.55 27.2 29.1 26.45 33.55 27.2 33.55 41.85 29.1 41.05 29.1 26.45 9.3 23.3 5.2 22.65 5.35 48.05 5.35 48.2 52.9 55.55 52.9 53.1 52.9 49.6 52.9 44.7 52.9 49.6 37.95 47.1 33.55 46.4 33.55 46.3 33.55 42.0 33.95 41.9 52.9 44.7 52.9 43.25 52.9 30.3 38.05 27.9 M52.9 61.1 L52.9 55.55 52.9 61.1 M33.55 46.3 L33.55 46.4 33.55 50.4 29.05 49.75 29.05 47.15 33.55 46.3 M62.0 46.05 L81.15 48.9 67.75 52.1 62.0 51.15 62.0 46.05 M81.4 48.8 L81.4 47.3 81.4 25.8 85.4 24.9 85.4 49.4 81.4 48.9 81.4 48.8 M5.35 48.2 L5.35 53.15 5.35 48.2" fill="#bb5e00" fill-rule="evenodd" stroke="none"/>
    <path d="M4.35 15.1 L4.35 13.05 57.8 21.1 57.8 21.7 57.75 21.75 57.8 21.75 57.8 23.3 57.35 23.4 5.4 15.3 4.35 15.1" fill="#db6f02" fill-rule="evenodd" stroke="none"/>
    <path d="M57.8 21.1 L86.15 15.55 86.15 17.85 85.4 18.0 57.8 23.3 57.8 21.75 57.8 21.7 57.8 21.1" fill="#5e2f00" fill-rule="evenodd" stroke="none"/>
    <path d="M90.15 14.8 L90.15 7.4 57.8 13.35 57.8 21.1 M86.15 15.55 L86.15 17.85 86.15 18.2 89.4 19.15 90.15 19.3 90.15 60.45 85.4 61.8 85.4 61.85 85.3 61.85 81.4 61.3 81.4 55.4 62.0 60.55 62.0 68.5 57.9 69.7 57.8 69.7 57.8 69.65 52.9 68.8 52.9 61.1 9.35 53.8 5.35 53.15 M5.4 60.6 L0.45 59.55 0.25 16.35 4.35 15.5 4.35 15.1 4.35 13.05 M0.0 12.4 L0.0 5.5 0.0 5.45 0.2 5.5 34.05 0.0 90.15 7.2 90.15 7.4 M0.2 5.5 L57.35 13.4 57.8 13.35 M57.8 21.75 L57.8 21.7 57.75 21.75 57.8 21.75 57.8 23.3 85.4 18.0 86.15 17.85 M57.8 21.7 L57.8 21.1 M57.35 23.4 L57.8 23.3 M57.8 23.5 L57.35 23.4 5.4 15.3 4.35 15.5 M57.8 25.35 L57.8 25.3 M33.55 27.2 L38.05 27.9 52.9 30.3 52.9 43.25 52.9 44.7 52.9 49.6 52.9 53.1 52.9 55.55 52.9 61.1 M29.1 26.45 L33.55 27.2 M33.55 41.85 L33.75 41.9 33.95 41.85 38.05 41.1 M37.95 47.1 L37.95 51.0 52.9 53.1 M38.05 41.15 L52.9 43.25 M29.1 41.15 L9.35 45.45 M9.35 47.0 L10.05 47.1 10.45 47.15 33.55 42.0 33.95 41.9 33.75 41.9 M33.55 41.85 L29.1 41.05 M33.55 46.3 L29.05 47.15 M29.05 49.75 L33.55 50.4 M33.55 46.4 L37.95 47.1 52.9 49.6 M37.95 51.0 L33.55 50.4 M62.0 44.55 L62.0 46.05 81.15 48.9 81.4 48.8 81.4 47.3 62.0 44.55 62.0 30.1 81.4 25.8 85.4 24.9 85.4 49.4 85.4 49.5 85.4 54.35 85.4 61.8 85.3 61.85 M62.0 46.05 L62.0 51.15 67.75 52.1 81.15 48.9 81.4 48.9 81.4 48.8 M62.0 53.5 L62.0 55.5 85.4 49.5 M62.0 55.5 L62.0 60.55 M62.0 51.15 L62.0 53.5 67.75 52.1 M52.9 44.7 L33.95 41.9 M29.1 26.45 L9.3 23.3 M86.15 18.2 L85.4 18.0 M81.4 25.8 L81.4 47.3 M85.4 49.4 L81.4 48.9 M81.4 55.4 L85.4 54.35 M57.9 69.7 L57.8 69.65 57.8 25.35 M0.2 5.5 L0.0 5.5 M4.35 15.1 L5.4 15.3 M5.2 22.65 L9.3 23.3 M9.35 47.25 L9.25 47.25 10.45 47.15 21.3 48.65 29.05 47.15 M9.35 47.25 L10.05 47.1 M9.25 47.25 L5.35 48.05 M21.3 48.65 L29.05 49.75 M52.9 55.55 L5.35 48.2" fill="none" stroke="#000000" stroke-linecap="round" stroke-linejoin="round" stroke-width="1.0"/>
    <path d="M86.15 15.55 L90.15 14.8 M57.8 21.1 L86.15 15.55 M9.35 53.8 L9.35 59.8 5.4 60.65 5.4 60.6 M4.35 13.05 L0.0 12.4 M57.8 21.1 L4.35 13.05 M57.8 25.3 L0.25 16.35 M33.55 27.2 L33.55 41.85 M38.05 41.1 L38.05 27.9 M38.05 41.1 L38.05 41.15 M9.35 45.45 L9.35 47.0 9.35 47.25 M33.55 42.0 L33.55 41.85 M29.1 41.05 L29.1 41.15 M33.55 46.3 L33.55 42.0 M33.55 46.4 L33.55 46.3 M29.05 47.15 L29.05 49.75 M33.55 50.4 L33.55 46.4 M29.1 41.05 L29.1 26.45 M9.3 23.3 L9.35 45.45 M57.8 25.35 L89.4 19.15 M5.35 53.15 L5.35 48.2 5.35 48.05 5.2 22.65 M5.35 53.15 L5.4 60.6" fill="none" stroke="#000000" stroke-linecap="round" stroke-linejoin="round" stroke-width="1.0"/>
  </g>
</svg>
