<?xml version="1.0" encoding="UTF-8" standalone="no"?>
<svg xmlns:xlink="http://www.w3.org/1999/xlink" height="144.95px" width="179.25px" xmlns="http://www.w3.org/2000/svg">
  <g transform="matrix(1.0, 0.0, 0.0, 1.0, 0.5, 0.5)">
    <path d="M173.5 20.0 L177.8 21.15 94.1 35.05 94.05 35.05 0.35 22.55 6.4 21.35 7.3 21.2 94.05 32.8 94.8 33.25 94.65 32.9 94.75 32.9 173.2 19.9 173.5 20.0 M0.5 9.35 L88.0 0.0 177.95 7.8 178.0 8.1 94.05 19.65 94.05 19.7 0.5 9.35" fill="#ffcc99" fill-rule="evenodd" stroke="none"/>
    <path d="M178.0 8.1 L178.25 8.1 178.25 16.25 173.5 17.0 94.7 29.55 94.05 29.65 94.05 19.7 94.05 19.65 178.0 8.1 M177.8 21.15 L178.25 21.3 178.25 117.8 171.45 119.75 171.45 119.15 171.45 36.2 165.8 37.25 100.25 49.0 100.25 142.0 94.1 143.95 94.05 143.95 94.05 35.05 94.1 35.05 177.8 21.15 M12.05 37.05 L12.05 124.65 6.85 125.6 6.85 36.25 12.05 37.05" fill="#804000" fill-rule="evenodd" stroke="none"/>
    <path d="M173.5 17.0 L173.5 19.85 173.2 19.9 94.75 32.9 94.65 32.9 94.7 29.55 173.5 17.0" fill="#5e2f00" fill-rule="evenodd" stroke="none"/>
    <path d="M171.45 119.15 L165.8 118.0 165.8 37.25 171.45 36.2 171.45 119.15 M94.05 143.95 L86.95 142.5 86.95 105.1 81.75 104.0 81.75 48.15 12.05 37.05 6.85 36.25 6.85 125.6 6.5 125.65 0.0 124.3 0.0 22.6 0.35 22.55 94.05 35.05 94.05 143.95 M6.4 18.5 L0.0 17.7 0.0 9.4 0.5 9.35 94.05 19.7 94.05 29.65 93.5 29.85 6.4 18.5 M86.95 105.1 L86.95 48.95 81.75 48.15 86.95 48.95 86.95 105.1" fill="#bb5e00" fill-rule="evenodd" stroke="none"/>
    <path d="M6.4 21.05 L6.4 18.5 93.5 29.85 94.05 29.95 94.05 29.65 94.7 29.55 94.65 32.9 94.05 32.8 7.3 21.2 6.4 21.05" fill="#db6f02" fill-rule="evenodd" stroke="none"/>
    <path d="M178.0 8.1 L178.25 8.1 178.25 16.25 173.5 17.0 173.5 19.85 173.5 20.0 177.8 21.15 178.25 21.3 178.25 117.8 171.45 119.75 171.45 119.15 165.8 118.0 165.8 37.25 100.25 49.0 100.25 142.0 94.1 143.95 94.05 143.95 86.95 142.5 86.95 105.1 81.75 104.0 81.75 48.15 12.05 37.05 12.05 124.65 6.85 125.6 6.85 125.7 6.5 125.65 0.0 124.3 0.0 22.6 0.0 22.5 0.35 22.55 6.4 21.35 6.4 21.05 6.4 18.5 0.0 17.7 0.0 9.4 0.0 9.3 0.5 9.35 88.0 0.0 177.95 7.8 M178.0 8.1 L94.05 19.65 94.05 19.7 94.05 29.65 94.7 29.55 173.5 17.0 M173.2 19.9 L173.5 19.85 M173.5 20.0 L173.2 19.9 94.75 32.9 94.65 32.9 M94.05 32.8 L7.3 21.2 6.4 21.35 M165.8 37.25 L171.45 36.2 171.45 119.15 M0.5 9.35 L0.0 9.4 M7.3 21.2 L6.4 21.05 M12.05 37.05 L6.85 36.25 6.85 125.6 6.5 125.65 M0.35 22.55 L0.0 22.6 M94.05 35.05 L94.1 35.05 94.05 35.05 0.35 22.55 M93.5 29.85 L94.05 29.95 94.05 29.65 93.5 29.85 6.4 18.5 M81.75 48.15 L86.95 48.95 86.95 105.1 M0.5 9.35 L94.05 19.7 M94.05 35.05 L94.05 143.95 M94.1 35.05 L177.8 21.15" fill="none" stroke="#000000" stroke-linecap="round" stroke-linejoin="round" stroke-width="1.0"/>
    <path d="M94.65 32.9 L94.7 29.55" fill="none" stroke="#000000" stroke-linecap="round" stroke-linejoin="round" stroke-width="1.0"/>
  </g>
</svg>
