<?xml version="1.0" encoding="UTF-8" standalone="no"?>
<svg xmlns:xlink="http://www.w3.org/1999/xlink" height="84.35px" width="91.65px" xmlns="http://www.w3.org/2000/svg">
  <g transform="matrix(1.0, 0.0, 0.0, 1.0, 0.5, 0.5)">
    <path d="M85.05 59.55 L85.05 59.75 65.25 65.05 65.25 63.1 71.55 61.45 81.0 58.95 81.2 58.9 81.6 58.95 85.05 59.55 M90.2 19.7 L60.6 25.55 60.1 25.45 60.1 23.9 60.1 25.45 0.7 15.15 5.6 14.5 60.1 23.6 60.1 23.9 61.0 23.75 61.05 23.75 87.35 18.35 87.35 18.5 90.2 19.55 90.2 19.7 M65.25 55.9 L65.25 54.15 81.0 56.9 81.0 58.7 65.25 55.9 M0.05 4.25 L31.8 0.0 90.2 8.65 90.2 8.9 60.1 13.8 0.05 4.25 M55.45 52.45 L55.45 54.15 32.1 50.0 35.45 49.35 36.45 49.15 55.45 52.45 M55.45 63.35 L55.45 65.15 5.95 55.45 9.25 54.65 9.65 54.6 19.75 56.55 27.55 58.05 31.65 58.8 35.45 59.55 55.45 63.35 M27.55 49.2 L31.7 49.95 31.7 50.1 9.6 54.45 9.2 54.5 9.2 52.8 27.3 49.0 27.55 49.2" fill="#ffcc99" fill-rule="evenodd" stroke="none"/>
    <path d="M85.05 59.55 L85.05 28.15 81.0 29.0 65.25 32.4 65.25 54.15 65.25 55.9 65.25 60.25 65.25 63.1 65.25 65.05 65.25 70.65 65.25 65.05 85.05 59.75 85.05 59.55 M85.05 65.4 L85.05 59.75 85.05 65.4 81.0 66.5 65.25 70.65 65.25 81.75 60.95 83.1 60.45 83.25 60.1 83.15 60.1 25.65 60.6 25.55 90.2 19.7 90.2 73.95 90.2 74.15 85.05 75.75 85.05 75.3 85.05 65.4 M90.2 8.9 L90.2 15.55 87.35 16.1 61.0 21.2 60.55 21.3 60.1 21.2 60.1 13.8 90.2 8.9 M5.85 55.4 L5.85 24.1 9.2 24.7 9.2 52.8 9.2 54.5 9.25 54.65 5.95 55.45 5.85 55.4 M31.8 28.65 L35.45 29.3 35.45 49.0 35.45 49.35 32.1 50.0 31.7 49.95 31.8 28.65 M9.6 54.45 L31.7 50.1 31.7 53.9 31.45 54.05 27.55 54.9 19.75 56.55 9.65 54.6 9.6 54.45 M31.95 53.95 L35.45 54.65 35.45 59.55 31.65 58.8 31.7 54.05 31.7 54.0 31.95 53.95 M5.85 61.05 L9.2 61.7 9.2 70.0 8.8 70.15 5.85 70.9 5.85 61.05" fill="#804000" fill-rule="evenodd" stroke="none"/>
    <path d="M87.35 16.1 L87.35 18.35 61.05 23.75 61.0 21.35 61.0 21.2 87.35 16.1" fill="#5e2f00" fill-rule="evenodd" stroke="none"/>
    <path d="M81.0 29.0 L85.05 28.15 85.05 59.55 81.6 58.95 81.0 58.7 81.0 56.9 81.0 29.0 M85.05 65.4 L85.05 75.3 81.0 74.65 81.0 66.5 85.05 65.4 M60.1 25.65 L60.1 83.15 55.5 82.2 55.45 82.15 55.45 71.15 55.45 65.15 55.45 71.15 9.2 61.7 5.85 61.05 5.85 70.9 5.85 71.35 0.0 69.95 0.0 15.05 0.7 15.15 60.1 25.45 60.1 25.65 M65.25 60.25 L65.25 55.9 81.0 58.7 81.0 58.85 81.0 58.95 71.55 61.45 65.25 60.25 M60.1 13.8 L60.1 21.2 59.9 21.2 3.6 12.05 0.0 11.45 0.0 4.25 0.05 4.25 60.1 13.8 M9.2 24.7 L5.85 24.1 5.85 55.4 5.85 55.45 5.95 55.45 55.45 65.15 55.45 63.35 55.45 58.4 55.45 54.15 55.45 58.4 35.45 54.65 31.95 53.95 31.7 53.9 31.7 50.1 32.1 50.0 55.45 54.15 55.45 52.45 55.45 32.85 35.45 29.3 31.8 28.65 27.55 27.9 31.8 28.65 31.7 49.95 27.55 49.2 27.55 48.95 27.55 27.9 9.2 24.7 M31.7 54.05 L31.65 58.8 27.55 58.05 27.55 54.9 31.45 54.05 31.7 54.05 M5.85 61.05 L5.85 55.45 5.85 61.05" fill="#bb5e00" fill-rule="evenodd" stroke="none"/>
    <path d="M61.05 23.75 L61.0 23.75 60.1 23.6 5.6 14.5 3.6 14.2 3.6 12.05 59.9 21.2 60.1 21.35 60.55 21.3 61.0 21.35 61.05 23.75" fill="#db6f02" fill-rule="evenodd" stroke="none"/>
    <path d="M81.0 29.0 L85.05 28.15 85.05 59.55 85.05 59.75 85.05 65.4 85.05 75.3 85.05 75.75 90.2 74.15 90.2 73.95 90.2 19.7 60.6 25.55 60.1 25.65 60.1 83.15 60.1 83.35 60.45 83.25 M60.95 83.1 L65.25 81.75 65.25 70.65 65.25 65.05 65.25 63.1 65.25 60.25 65.25 55.9 65.25 54.15 65.25 32.4 81.0 29.0 81.0 56.9 81.0 58.7 81.6 58.95 85.05 59.55 M87.35 18.35 L87.35 18.5 90.2 19.55 90.2 19.7 M87.35 16.1 L87.35 18.35 61.05 23.75 61.0 23.75 60.1 23.9 60.1 25.45 60.6 25.55 M90.2 8.9 L90.2 15.55 87.35 16.1 61.0 21.2 61.0 21.35 61.05 23.75 M0.05 4.25 L31.8 0.0 90.2 8.65 90.2 8.9 60.1 13.8 60.1 21.2 60.55 21.3 61.0 21.2 M81.0 58.95 L81.2 58.9 81.0 58.85 81.0 58.95 71.55 61.45 65.25 63.1 M81.2 58.9 L81.6 58.95 M81.0 58.7 L81.0 58.85 M81.0 66.5 L85.05 65.4 M90.2 73.95 L90.65 74.05 90.2 74.15 M85.05 75.3 L81.0 74.65 81.0 66.5 65.25 70.65 M60.1 21.35 L60.1 21.2 59.9 21.2 60.1 21.35 60.55 21.3 61.0 21.35 M60.1 23.9 L60.1 23.6 5.6 14.5 0.7 15.15 60.1 25.45 60.1 25.65 M60.1 23.6 L61.0 23.75 M5.85 70.9 L5.85 71.35 0.0 69.95 0.0 15.05 0.7 15.15 M5.6 14.5 L3.6 14.2 3.6 12.05 0.0 11.45 0.0 4.25 0.05 4.25 60.1 13.8 M5.85 55.4 L5.85 24.1 9.2 24.7 27.55 27.9 31.8 28.65 35.45 29.3 55.45 32.85 55.45 52.45 55.45 54.15 55.45 58.4 55.45 63.35 55.45 65.15 55.45 71.15 55.45 82.15 55.5 82.2 M27.55 27.9 L27.55 48.95 27.55 49.2 31.7 49.95 31.8 28.65 M27.55 49.2 L27.3 49.0 9.2 52.8 9.2 54.5 9.6 54.45 31.7 50.1 31.7 49.95 32.1 50.0 35.45 49.35 35.45 49.0 35.45 29.3 M27.3 49.0 L27.55 48.95 M55.45 52.45 L36.45 49.15 35.45 49.35 M36.45 49.15 L35.45 49.0 M32.1 50.0 L31.7 50.1 31.7 53.9 31.95 53.95 35.45 54.65 55.45 58.4 M31.7 53.9 L31.45 54.05 31.7 54.0 31.7 53.9 M31.95 53.95 L31.7 54.0 31.7 54.05 31.65 58.8 35.45 59.55 35.45 54.65 M31.45 54.05 L27.55 54.9 27.55 58.05 31.65 58.8 M5.95 55.45 L5.85 55.4 5.85 55.45 5.85 61.05 9.2 61.7 55.45 71.15 M9.65 54.6 L9.2 54.5 M9.25 54.65 L9.65 54.6 19.75 56.55 27.55 54.9 M5.95 55.45 L9.25 54.65 M5.85 70.9 L8.8 70.15 9.2 70.0 9.2 61.7 M9.2 70.0 L9.2 70.05 8.8 70.15 M5.85 61.05 L5.85 70.9 M19.75 56.55 L27.55 58.05 M71.55 61.45 L65.25 60.25 M55.45 63.35 L35.45 59.55 M5.95 55.45 L55.45 65.15 M9.2 52.8 L9.2 24.7 M32.1 50.0 L55.45 54.15 M59.9 21.2 L3.6 12.05 M65.25 65.05 L85.05 59.75 M81.0 56.9 L65.25 54.15 M65.25 55.9 L81.0 58.7" fill="none" stroke="#000000" stroke-linecap="round" stroke-linejoin="round" stroke-width="1.0"/>
    <path d="M60.1 83.15 L60.45 83.25 60.95 83.1 M55.5 82.2 L60.1 83.15" fill="none" stroke="#000000" stroke-linecap="round" stroke-linejoin="round" stroke-width="1.0"/>
  </g>
</svg>
