<?xml version="1.0" encoding="UTF-8" standalone="no"?>
<svg xmlns:xlink="http://www.w3.org/1999/xlink" height="88.6px" width="103.3px" xmlns="http://www.w3.org/2000/svg">
  <g transform="matrix(1.0, 0.0, 0.0, 1.0, 0.5, 0.5)">
    <path d="M0.35 9.6 L54.55 0.0 102.3 6.0 102.3 6.35 47.95 17.45 47.95 17.6 0.35 9.6 M98.65 14.65 L102.25 15.75 48.2 27.7 0.35 19.3 0.35 19.15 2.5 18.5 3.0 18.4 47.9 26.1 48.2 26.15 48.2 26.05 98.45 14.6 98.65 14.65 M53.05 69.05 L53.05 66.6 80.05 58.9 91.5 55.65 92.35 55.75 96.8 56.25 96.8 56.35 53.05 69.05 M53.05 51.0 L53.05 50.6 56.75 49.7 57.2 49.6 57.45 49.55 92.35 53.95 92.35 55.4 91.5 55.65 53.05 51.0 M43.05 50.05 L43.05 52.6 10.05 61.3 21.65 63.35 43.05 67.2 43.05 69.5 5.25 62.55 5.25 62.4 9.5 61.4 10.05 61.3 9.5 61.2 9.5 58.95 43.05 50.05" fill="#ffcc99" fill-rule="evenodd" stroke="none"/>
    <path d="M47.95 17.6 L47.95 17.45 102.3 6.35 102.3 12.45 98.65 13.25 48.55 24.3 48.2 24.25 47.95 24.2 47.95 17.6 M102.3 15.75 L102.3 68.9 96.8 70.8 96.8 70.5 96.8 62.05 96.8 56.35 96.8 62.05 92.4 63.4 53.05 75.55 53.05 85.85 48.2 87.6 48.2 35.1 48.3 35.05 48.2 35.05 48.2 32.9 48.2 32.75 48.2 27.7 102.25 15.75 102.3 15.75 M53.05 69.05 L53.05 75.55 53.05 69.05 96.8 56.35 96.8 56.25 96.8 23.1 92.35 24.4 57.7 32.8 57.2 32.9 52.8 33.9 53.05 50.6 52.8 33.9 57.2 32.9 57.2 49.55 56.75 49.7 53.05 50.6 53.05 51.0 53.05 55.45 53.05 64.65 53.05 55.45 57.2 56.0 57.2 63.2 53.05 64.65 53.05 66.6 53.05 69.05 M5.25 62.4 L4.95 26.95 9.5 27.8 9.5 58.95 9.5 61.2 9.5 61.4 5.25 62.4 M43.05 52.6 L43.05 57.35 21.65 63.35 10.05 61.3 43.05 52.6 M5.25 79.1 L5.25 67.35 9.5 68.1 9.5 77.8 5.25 79.1" fill="#804000" fill-rule="evenodd" stroke="none"/>
    <path d="M98.65 13.25 L98.65 14.55 98.45 14.6 48.2 26.05 48.2 25.5 48.2 24.35 48.55 24.3 98.65 13.25" fill="#5e2f00" fill-rule="evenodd" stroke="none"/>
    <path d="M0.35 9.6 L47.95 17.6 47.95 24.2 2.5 16.35 0.35 16.0 0.35 9.6 M48.2 27.7 L48.2 32.75 47.95 32.85 48.2 32.9 48.2 35.05 48.2 35.1 48.2 87.6 43.05 86.6 43.05 75.6 43.05 69.5 43.05 75.6 9.5 68.1 5.25 67.35 5.25 79.1 5.1 79.15 0.35 78.2 0.35 78.0 0.35 19.3 48.2 27.7 M53.05 55.45 L53.05 51.0 91.5 55.65 80.05 58.9 57.2 56.0 53.05 55.45 M92.35 24.4 L96.8 23.1 96.8 56.25 92.35 55.75 92.35 55.4 92.35 53.95 92.35 53.9 92.35 24.4 M96.8 62.05 L96.8 70.5 92.5 69.35 92.4 69.3 92.4 63.4 96.8 62.05 M9.5 27.8 L4.95 26.95 5.25 62.4 5.25 62.55 43.05 69.5 43.05 67.2 43.05 57.35 43.05 52.6 43.05 50.05 43.05 34.3 9.5 27.8 M5.25 62.55 L5.25 67.35 5.25 62.55" fill="#bb5e00" fill-rule="evenodd" stroke="none"/>
    <path d="M47.9 26.1 L3.0 18.4 2.5 18.3 2.5 16.35 47.95 24.2 47.95 24.4 48.2 25.5 48.2 26.05 47.9 26.1" fill="#db6f02" fill-rule="evenodd" stroke="none"/>
    <path d="M102.3 6.35 L102.3 6.0 54.55 0.0 0.35 9.6 47.95 17.6 47.95 17.45 102.3 6.35 102.3 12.45 98.65 13.25 98.65 14.55 98.65 14.65 102.25 15.75 M102.3 15.7 L102.3 15.75 102.3 68.9 96.8 70.8 92.9 72.0 M102.3 15.75 L102.25 15.75 M48.2 27.7 L48.2 32.75 48.2 32.9 48.2 35.05 48.3 35.05 48.2 35.1 48.2 87.6 53.05 85.85 53.05 75.55 53.05 69.05 53.05 66.6 53.05 64.65 53.05 55.45 53.05 51.0 53.05 50.6 52.8 33.9 57.2 32.9 57.7 32.8 92.35 24.4 96.8 23.1 96.8 56.25 96.8 56.35 96.8 62.05 96.8 70.5 96.8 70.8 M98.65 14.65 L98.45 14.6 48.2 26.05 48.2 26.15 47.9 26.1 3.0 18.4 2.5 18.5 0.35 19.15 0.35 19.3 0.35 78.0 M98.45 14.6 L98.65 14.55 M96.8 56.25 L92.35 55.75 91.5 55.65 80.05 58.9 53.05 66.6 M92.35 55.75 L92.35 55.4 91.5 55.65 53.05 51.0 M92.35 55.4 L92.35 53.95 57.45 49.55 57.2 49.6 56.75 49.7 53.05 50.6 M92.35 53.95 L92.35 53.9 M92.4 63.4 L96.8 62.05 M92.4 63.4 L53.05 75.55 M96.8 70.5 L92.5 69.35 M47.95 24.2 L47.95 24.4 48.2 24.35 48.2 24.25 47.95 24.2 2.5 16.35 2.5 18.3 3.0 18.4 M48.2 24.25 L48.55 24.3 98.65 13.25 M47.95 24.2 L47.95 17.6 M48.55 24.3 L48.2 24.35 48.2 25.5 48.2 26.05 47.9 26.1 M57.2 32.9 L57.7 32.8 M48.3 35.05 L48.2 35.1 48.2 35.05 M48.2 25.5 L47.95 24.4 M0.35 9.6 L0.35 16.0 2.5 16.35 M2.5 18.3 L2.5 18.5 M5.25 62.4 L4.95 26.95 9.5 27.8 43.05 34.3 43.05 50.05 43.05 52.6 43.05 57.35 43.05 67.2 43.05 69.5 43.05 75.6 43.05 86.6 48.2 87.6 M9.5 61.4 L5.25 62.4 5.25 62.55 43.05 69.5 M9.5 61.2 L9.5 61.4 10.05 61.3 9.5 61.2 9.5 58.95 9.5 27.8 M5.25 67.35 L5.25 62.55 M9.5 68.1 L5.25 67.35 5.25 79.1 9.5 77.8 9.5 68.1 43.05 75.6 M0.0 78.1 L0.35 78.2 0.35 78.0 M5.25 79.1 L5.25 79.15 5.1 79.15 0.35 78.2 M5.1 79.15 L5.25 79.1 M43.05 52.6 L10.05 61.3 21.65 63.35 43.05 57.35 M57.45 49.55 L57.2 49.55 57.2 49.6 M57.2 49.55 L56.75 49.7 M53.05 55.45 L57.2 56.0 80.05 58.9 M57.2 56.0 L57.2 63.2 53.05 64.65 M43.05 67.2 L21.65 63.35 M57.2 32.9 L57.2 49.55 M9.5 58.95 L43.05 50.05 M96.8 56.35 L53.05 69.05" fill="none" stroke="#000000" stroke-linecap="round" stroke-linejoin="round" stroke-width="1.0"/>
    <path d="M102.25 15.75 L102.3 15.7 M102.25 15.75 L48.2 27.7 M0.35 19.3 L48.2 27.7 M92.35 53.9 L92.35 24.4 M92.5 69.35 L92.4 69.3 92.4 63.4 M0.35 78.0 L0.0 78.1" fill="none" stroke="#000000" stroke-linecap="round" stroke-linejoin="round" stroke-width="1.0"/>
  </g>
</svg>
