<?xml version="1.0" encoding="UTF-8" standalone="no"?>
<svg xmlns:xlink="http://www.w3.org/1999/xlink" height="72.15px" width="107.35px" xmlns="http://www.w3.org/2000/svg">
  <g transform="matrix(1.0, 0.0, 0.0, 1.0, 0.5, 0.5)">
    <path d="M77.5 0.8 L79.1 0.7 80.4 0.55 81.55 0.45 89.5 0.4 95.05 0.6 96.8 0.65 100.35 0.9 101.25 1.15 102.45 1.65 103.15 1.95 103.9 2.45 105.65 3.8 106.3 4.45 Q106.55 5.4 105.9 5.5 L105.6 5.7 105.45 5.9 105.45 10.4 105.55 12.4 Q105.65 13.35 104.75 13.25 103.2 13.1 103.2 14.4 L103.1 14.8 Q102.75 15.75 101.65 15.9 L100.85 16.05 97.9 16.6 97.45 16.65 96.6 16.8 Q95.7 16.8 94.75 19.3 95.55 17.75 95.75 17.85 L96.0 18.05 Q96.45 18.8 96.25 19.7 L95.9 20.6 95.65 21.0 95.25 21.3 93.8 21.9 93.7 21.15 93.65 20.4 93.45 19.9 93.4 19.7 Q93.25 18.6 93.65 17.65 L93.7 17.25 Q93.75 16.3 94.7 16.1 L95.1 15.95 95.5 15.2 95.45 14.35 94.95 13.7 Q93.8 12.7 93.7 11.1 L93.6 9.25 93.5 9.15 93.6 9.05 Q94.6 8.15 95.9 8.2 L96.15 8.25 95.9 8.2 Q94.6 8.15 93.6 9.05 L93.5 9.15 93.4 9.2 93.05 9.3 90.65 9.45 89.95 9.75 89.7 9.9 89.25 9.95 88.85 9.9 88.7 9.7 88.2 9.05 Q87.65 8.55 86.85 8.6 L86.55 8.6 86.85 8.6 Q87.65 8.55 88.2 9.05 L88.7 9.7 88.85 9.9 89.25 9.95 89.25 12.2 89.15 15.5 Q89.1 17.25 89.75 18.4 L89.75 19.5 89.95 20.1 90.15 20.3 90.4 20.5 90.65 20.75 91.5 22.0 90.6 21.95 90.4 21.95 Q89.95 22.55 90.25 23.45 L90.3 23.7 90.4 27.45 90.25 28.05 Q89.85 28.7 89.9 29.45 L90.05 31.0 90.05 31.2 90.15 32.75 90.1 33.0 87.95 33.2 85.3 33.1 Q83.8 33.0 83.05 33.55 L83.0 33.6 82.8 33.95 82.55 34.75 82.5 35.0 82.4 36.1 82.45 36.5 82.65 37.0 Q81.2 37.9 79.55 38.05 L79.15 38.2 78.4 38.4 78.45 38.3 78.6 38.05 78.8 37.8 79.25 37.45 79.5 37.2 80.0 36.85 80.35 36.4 Q80.25 36.0 80.55 35.9 L80.7 35.65 80.8 33.25 Q80.8 32.9 81.05 32.6 L81.15 32.3 81.15 29.15 Q81.15 28.65 81.7 28.6 L81.95 28.45 Q82.6 27.75 83.3 27.25 L83.6 27.0 84.25 26.45 84.55 26.25 85.15 25.55 85.25 25.25 85.0 23.6 Q84.55 22.05 84.6 20.25 84.65 19.25 84.85 18.25 L85.05 18.2 86.9 18.1 87.1 18.0 Q87.6 17.2 87.5 16.15 L87.4 15.4 87.0 14.25 86.9 13.75 Q86.95 11.65 86.65 9.65 L86.55 8.6 79.55 8.85 79.3 9.1 Q78.85 9.8 79.35 10.1 L79.75 10.15 Q80.75 10.05 81.45 10.55 L81.55 10.85 81.85 14.6 81.95 15.75 81.95 17.05 81.85 21.5 81.7 21.95 80.95 22.95 80.85 23.05 80.8 23.05 79.1 22.6 76.7 22.55 Q75.75 22.7 75.9 21.7 L75.8 21.3 75.4 21.15 72.4 21.05 Q71.85 21.05 72.15 20.45 L72.3 19.5 Q72.4 16.55 72.0 13.75 L71.8 13.75 70.0 13.65 Q69.35 13.6 69.25 13.95 L69.2 18.75 69.2 18.95 69.35 19.2 69.45 20.05 69.35 20.35 69.15 20.65 Q68.35 21.65 68.85 22.85 L68.95 23.2 69.2 24.0 Q69.9 24.7 71.1 24.9 L71.2 24.85 71.4 24.65 71.45 24.85 75.75 24.45 76.65 24.3 77.1 24.1 Q77.4 23.95 78.1 23.75 77.95 24.05 78.05 24.6 78.25 25.5 77.6 25.8 L77.25 26.1 76.5 26.55 76.15 26.75 Q75.55 27.4 74.65 27.45 L74.8 32.35 74.85 32.85 74.65 32.9 74.55 34.55 74.55 35.25 74.9 36.3 75.0 36.75 75.15 38.3 75.2 38.6 74.9 39.2 74.5 39.45 74.15 39.8 73.75 40.4 Q73.25 41.65 73.35 43.2 L73.4 44.05 Q73.55 44.9 72.9 45.1 L72.6 45.25 72.35 45.5 73.35 46.3 74.5 47.35 74.7 47.65 Q74.85 48.1 75.35 48.15 75.55 48.15 75.7 48.3 L76.2 48.75 78.2 49.0 78.6 48.85 Q79.7 48.25 81.3 47.9 83.3 47.55 84.4 48.7 L84.55 48.95 84.6 49.1 84.85 49.0 85.45 48.85 86.6 48.55 87.05 48.45 87.5 48.4 87.75 48.45 Q88.2 48.75 88.1 49.6 87.95 50.5 88.4 51.15 L88.55 51.35 88.7 51.75 Q88.85 52.1 89.5 52.15 L89.95 52.2 Q91.7 52.5 92.8 53.8 L93.3 54.15 Q94.1 54.6 94.6 55.55 L94.7 55.8 94.8 57.1 94.8 57.25 94.75 57.2 94.3 56.9 93.9 56.6 92.95 55.95 91.55 55.2 90.45 54.45 Q89.65 53.8 88.7 53.45 L88.2 53.25 87.45 53.1 84.1 53.0 82.45 53.15 82.1 53.25 81.15 53.35 80.85 53.25 80.25 52.4 80.1 52.1 79.3 51.45 79.1 51.3 Q78.05 50.55 76.7 50.55 L74.65 50.65 74.45 50.7 74.1 50.85 72.75 51.85 71.8 49.85 70.7 48.15 70.4 47.75 69.8 46.7 69.4 46.15 69.05 45.9 68.55 45.7 68.35 45.55 67.8 45.4 64.5 45.65 64.05 45.8 Q62.15 46.4 60.05 47.6 L59.6 47.75 58.3 48.25 58.05 48.4 56.3 48.5 55.85 48.5 55.45 48.6 55.2 48.75 Q54.65 48.8 54.3 49.15 L53.4 49.65 53.05 49.8 53.4 49.65 54.3 49.15 Q54.65 48.8 55.2 48.75 L55.45 48.6 55.85 48.5 56.3 48.5 Q56.25 49.9 56.75 50.5 L56.9 50.7 Q57.05 51.15 57.55 51.4 L58.7 52.15 59.0 52.45 59.25 52.75 Q59.6 53.45 60.25 53.65 L60.85 54.1 Q61.2 54.6 62.05 55.2 L62.9 55.65 63.2 55.75 63.45 55.9 64.25 56.05 67.35 55.9 68.25 55.95 68.9 56.25 69.1 56.5 Q69.45 57.0 69.4 58.0 69.35 59.1 69.45 60.2 L69.6 60.55 70.45 61.55 70.95 62.15 71.3 62.5 71.6 62.8 Q73.15 63.8 73.5 65.55 L73.6 66.0 73.85 67.95 73.9 69.75 Q73.95 70.25 73.55 70.25 L71.8 70.2 71.55 70.1 71.35 69.1 71.25 66.65 71.05 66.3 68.7 66.6 67.25 67.25 66.25 67.6 65.4 67.85 64.85 68.1 64.1 68.5 63.55 68.8 63.0 69.2 62.4 69.65 61.85 70.0 61.6 70.2 61.2 70.7 60.9 70.9 59.85 71.15 Q58.8 71.3 58.9 70.4 L59.05 70.0 Q59.15 69.75 59.6 69.65 L59.75 69.5 59.9 68.4 Q59.95 67.4 58.95 67.55 57.8 67.7 56.85 68.3 L56.85 68.25 57.15 67.85 Q58.3 67.25 59.95 67.5 61.25 67.7 62.05 67.0 L62.55 66.7 65.5 65.25 65.85 65.0 66.15 64.7 66.4 64.45 Q66.8 64.0 66.65 63.35 66.55 62.5 66.9 61.85 L67.05 61.5 Q67.35 60.5 67.2 59.3 67.15 58.3 66.1 57.95 L65.0 57.35 Q64.7 57.05 64.05 56.95 L63.85 56.95 62.0 56.5 Q60.35 55.95 58.95 55.05 L58.75 54.85 58.5 54.6 58.0 53.95 57.75 53.65 56.55 52.25 Q56.2 51.8 55.7 51.55 L55.25 51.4 Q54.0 50.85 53.3 50.1 L53.05 49.8 51.25 50.55 Q50.9 50.75 51.2 51.6 51.45 52.45 51.05 52.7 L51.05 52.75 49.75 52.8 Q48.85 52.6 48.85 53.4 L48.75 54.75 48.0 56.65 Q47.3 57.95 45.2 56.45 43.1 54.9 39.0 54.9 L38.8 54.9 Q38.7 54.3 38.15 54.0 L36.8 53.15 36.55 52.95 35.9 52.75 32.6 52.85 32.3 53.0 31.55 53.85 31.0 54.2 28.4 54.4 23.95 54.7 24.0 53.8 Q24.25 52.2 22.85 51.35 L20.85 51.3 Q19.6 51.3 18.9 51.8 L18.65 52.05 Q18.6 52.7 18.2 53.15 L18.0 53.35 Q17.2 54.45 16.25 54.95 L15.95 55.1 15.55 55.2 14.55 55.7 14.45 56.0 14.9 56.3 15.8 56.65 16.15 56.8 Q16.8 57.2 16.7 58.45 16.65 59.35 17.4 59.95 L17.7 60.25 18.05 60.6 18.4 60.95 18.7 61.2 Q19.75 61.65 19.75 62.65 L19.7 63.55 19.5 63.85 Q18.8 64.1 18.45 64.45 L16.5 66.05 16.05 66.45 15.75 66.8 Q15.35 67.4 15.45 68.2 L15.5 68.4 Q15.2 67.7 15.15 66.85 15.1 65.85 15.3 64.9 L15.6 64.55 16.05 64.0 16.1 63.75 Q16.15 63.25 16.6 63.1 L16.65 62.9 Q16.65 62.0 16.2 61.55 L16.0 61.35 Q15.65 61.15 15.6 60.45 L15.45 60.15 15.25 59.85 Q14.75 58.9 14.05 58.35 L13.8 58.0 Q13.35 57.2 12.45 56.85 L12.3 56.7 12.2 56.25 12.05 55.8 11.95 55.8 12.0 55.55 12.0 55.5 11.95 55.15 11.85 54.7 Q11.8 54.5 12.0 54.25 L11.9 53.15 11.8 52.9 10.9 51.8 15.55 51.75 16.0 51.7 16.1 51.55 15.25 51.15 14.9 51.0 14.5 50.85 14.2 50.8 13.9 50.6 13.7 50.3 13.65 50.05 13.6 49.55 15.1 49.6 15.15 46.1 15.25 45.8 Q15.15 45.7 15.35 45.6 L15.5 45.3 15.55 45.0 15.8 44.75 15.75 44.95 15.7 45.15 19.1 45.35 19.95 45.65 21.1 46.0 22.2 46.3 23.75 46.85 24.65 47.05 27.3 47.1 Q28.1 47.0 28.55 47.45 29.65 48.5 30.9 49.3 L31.3 49.45 Q32.0 49.55 32.2 49.2 L32.4 49.0 34.15 48.05 Q34.4 47.75 34.8 47.75 L35.1 47.65 36.8 47.4 37.8 47.2 38.0 47.0 38.35 45.4 38.55 45.3 38.85 45.2 Q39.75 44.75 40.8 44.65 L41.25 44.55 42.8 44.2 42.8 44.1 42.9 44.1 45.45 44.25 46.1 44.35 Q46.95 44.5 47.3 44.1 L47.85 43.65 47.9 43.6 48.45 43.1 48.55 43.0 51.2 43.05 51.65 43.2 Q52.5 43.7 53.85 43.65 L59.6 43.5 59.85 43.4 61.6 42.45 61.8 42.35 62.45 41.8 62.75 41.45 63.1 41.15 63.25 40.75 63.35 38.95 Q63.3 38.05 63.65 37.4 L63.7 37.25 63.95 36.7 64.05 36.3 Q64.0 35.4 64.55 34.8 L64.9 34.15 65.05 33.6 65.15 33.2 64.95 29.95 64.75 29.65 64.5 29.55 63.6 29.35 63.4 29.2 63.0 27.7 62.85 26.8 62.8 26.35 62.7 25.25 62.5 22.4 62.2 22.0 Q60.45 21.05 59.45 19.45 L59.2 18.85 Q58.85 17.25 58.9 15.5 L58.95 12.4 57.2 12.35 55.85 12.5 55.6 12.55 54.5 12.8 53.4 12.85 Q52.55 12.8 52.0 12.3 L51.7 12.1 51.4 11.85 51.35 11.8 50.75 11.1 Q50.5 10.7 49.65 10.75 L49.05 10.8 49.65 10.75 Q50.5 10.7 50.75 11.1 L51.35 11.8 51.4 11.85 51.7 12.1 52.0 12.3 Q52.55 12.8 53.4 12.85 L54.5 12.8 54.5 13.75 54.6 14.35 54.65 14.6 54.8 15.5 54.9 15.95 55.05 17.05 55.1 17.5 55.2 19.25 54.75 19.25 Q54.65 20.65 55.0 21.95 55.1 22.35 55.65 22.3 L58.05 22.55 58.95 22.75 59.3 22.9 59.4 23.25 59.6 24.55 59.75 24.9 60.0 25.35 60.05 25.4 60.0 25.75 60.05 25.9 60.2 26.8 Q60.2 27.75 60.45 28.55 60.9 29.8 61.8 30.55 L62.5 30.7 Q63.05 30.65 63.1 31.0 L63.15 33.55 63.0 33.5 62.95 36.1 62.95 36.15 62.9 36.55 62.85 36.75 62.8 37.0 62.75 37.05 61.8 38.3 60.95 39.2 60.25 40.05 60.2 37.5 60.55 36.2 60.75 34.15 60.5 33.2 60.1 33.0 Q59.35 33.0 59.3 32.5 L59.2 31.0 59.1 30.65 58.9 30.2 58.5 29.7 Q57.5 28.9 57.1 27.65 L56.95 27.45 49.15 27.25 48.95 27.2 48.75 26.55 Q48.55 24.7 48.7 22.8 48.75 22.0 48.4 21.7 L48.2 21.5 47.65 21.35 45.8 21.4 45.45 21.15 45.5 14.65 Q45.55 13.2 45.2 11.85 L44.95 10.85 47.2 10.85 49.05 10.8 48.65 10.15 47.9 9.3 47.65 9.15 47.25 9.0 46.95 8.95 46.55 8.8 45.85 8.45 45.45 8.2 Q45.0 8.05 45.15 7.3 45.35 6.2 44.1 6.35 L43.0 6.45 40.35 6.35 40.1 6.3 39.7 6.15 Q39.35 6.0 39.5 5.6 L39.6 5.3 39.8 5.0 40.15 4.9 44.55 4.8 45.15 4.6 48.05 2.85 Q49.2 2.1 50.75 2.1 L51.65 2.1 54.95 2.0 59.85 2.35 60.95 2.45 68.9 2.5 72.45 2.25 77.5 0.8 M59.15 58.05 L59.15 61.1 59.05 61.35 Q58.15 61.7 57.4 61.1 L57.05 60.6 56.85 60.25 56.65 59.75 56.3 57.8 56.2 57.4 55.85 57.1 54.3 56.95 Q54.1 57.0 54.05 57.1 54.05 58.3 53.45 59.15 53.3 59.35 53.3 59.55 53.3 60.05 52.75 60.2 L52.2 60.55 Q51.65 61.05 50.7 61.0 L50.95 60.0 Q50.95 59.3 51.4 59.2 L51.55 59.1 Q51.65 58.7 51.9 58.5 52.5 58.1 53.25 57.75 L53.6 57.3 53.8 57.05 Q54.4 56.55 54.3 55.75 L54.25 55.0 54.75 54.95 56.0 55.1 56.1 55.35 Q56.4 56.4 56.85 57.15 L57.05 57.5 Q57.3 58.1 57.85 58.05 L59.15 58.05 M15.25 69.2 L15.2 69.25 15.05 69.1 15.25 69.2 M66.45 13.5 L64.2 14.1 63.8 14.2 62.25 14.0 61.8 13.75 61.15 13.3 Q60.15 12.55 58.95 12.4 60.15 12.55 61.15 13.3 L61.8 13.75 62.25 14.0 63.8 14.2 64.2 14.1 66.45 13.5 M96.35 12.4 L96.75 12.05 Q97.0 11.8 97.5 11.8 L99.0 11.7 Q100.05 11.45 100.4 10.9 L100.6 10.6 100.9 10.0 101.0 9.8 101.25 9.1 101.5 8.75 101.75 8.45 102.4 7.85 102.9 7.4 Q103.35 7.05 103.35 6.5 L103.4 6.25 103.9 6.3 Q104.85 6.45 105.45 5.9 104.85 6.45 103.9 6.3 L103.4 6.25 102.8 6.2 102.1 6.2 101.45 6.2 101.4 6.2 Q100.85 6.3 100.7 6.65 L100.05 7.65 96.15 8.25 96.1 9.3 Q96.0 10.95 96.35 12.4 M79.1 11.95 L77.55 12.35 77.2 12.5 76.45 13.05 75.8 13.4 75.55 13.55 72.0 13.75 75.55 13.55 75.8 13.4 76.45 13.05 77.2 12.5 77.55 12.35 79.1 11.95 M88.4 21.7 L90.4 21.95 88.4 21.7 M86.4 20.15 L86.4 23.25 86.5 25.05 86.6 28.35 86.5 28.7 86.2 28.9 85.75 29.05 Q84.6 29.1 84.6 30.1 84.6 29.1 85.75 29.05 L86.2 28.9 86.5 28.7 86.6 28.35 86.5 25.05 86.4 23.25 86.4 20.15 M50.3 42.1 Q49.45 42.1 48.8 42.55 L48.6 42.75 48.55 42.95 48.1 42.05 47.75 41.5 47.55 41.25 46.85 39.35 46.75 38.75 46.95 36.8 47.2 36.55 Q48.15 36.2 48.35 35.45 L48.55 35.0 48.65 34.75 48.65 33.0 48.15 32.05 46.55 30.55 46.2 29.95 46.0 29.65 45.85 29.3 45.65 29.05 Q44.9 28.6 44.45 27.75 L44.15 27.4 43.85 27.05 43.45 26.6 42.85 26.1 42.6 25.7 41.8 24.5 41.6 24.2 41.25 23.9 40.75 23.6 40.35 23.5 35.7 23.7 Q35.5 23.7 35.25 23.85 L34.05 23.95 33.95 23.7 Q33.9 22.3 34.3 21.1 L34.55 20.75 Q35.0 20.25 34.9 19.5 L34.65 18.2 34.5 17.65 34.4 17.3 34.6 14.9 34.8 14.65 Q35.9 14.4 35.75 13.3 L35.35 11.9 35.25 11.5 Q35.2 10.7 34.45 9.9 L34.1 9.6 33.05 8.65 32.85 8.4 Q32.55 7.9 32.5 7.1 L32.55 6.45 32.85 6.65 Q32.95 7.2 33.7 7.15 L35.35 7.3 Q35.35 7.9 35.6 8.15 L35.6 8.2 35.6 8.15 35.7 8.2 35.9 8.3 38.8 8.4 41.7 8.35 Q42.75 8.35 43.25 8.85 L43.2 9.05 43.1 9.35 42.95 9.55 Q42.1 9.85 42.1 10.85 L42.1 12.65 42.0 20.6 41.95 20.8 Q41.6 21.5 41.7 22.6 42.05 23.95 43.65 23.8 L45.0 23.7 46.55 23.75 Q46.95 23.8 46.95 24.35 L47.2 28.55 47.45 28.7 51.2 29.0 54.95 29.1 55.4 29.25 Q56.35 29.7 56.05 30.8 55.95 31.2 56.3 31.4 56.95 31.8 56.9 32.35 L57.1 33.25 57.2 33.65 57.2 34.3 56.55 34.3 56.45 34.15 55.7 33.35 55.35 33.05 Q55.0 32.6 54.45 32.4 L54.1 32.3 Q53.05 32.15 52.35 32.8 51.25 33.85 50.9 35.65 L50.8 36.1 50.75 36.3 50.65 36.45 50.3 36.55 48.75 36.65 48.6 36.75 48.5 37.4 48.35 37.85 Q48.2 38.7 48.45 39.45 L48.65 39.8 49.85 41.65 50.3 42.1 M60.0 25.75 L60.0 25.35 60.0 25.75 M70.9 32.35 L70.9 34.3 70.9 32.35 M71.2 24.85 L71.45 24.85 71.2 24.85 M72.45 28.05 L74.0 27.7 Q74.35 27.5 74.65 27.45 74.35 27.5 74.0 27.7 L72.45 28.05 M38.8 14.4 L38.8 13.3 38.8 8.65 38.8 8.4 38.8 8.65 38.8 13.3 38.8 14.4 M72.35 45.5 L72.0 45.65 71.65 45.9 Q71.3 46.45 70.45 46.65 L70.1 46.6 69.95 46.45 69.35 46.05 69.15 45.9 69.05 45.9 69.15 45.9 69.35 46.05 69.95 46.45 70.1 46.6 70.45 46.65 Q71.3 46.45 71.65 45.9 L72.0 45.65 72.35 45.5 M70.35 39.2 Q70.3 38.75 69.55 38.95 68.9 39.1 68.75 39.65 68.6 40.4 68.95 40.95 L69.05 41.2 Q69.05 41.6 69.35 41.8 L69.7 42.1 70.2 42.45 70.25 42.4 70.35 42.05 70.45 40.1 70.35 39.2 M83.05 30.8 L83.05 33.55 83.05 30.8 M74.8 32.35 L74.65 32.9 74.8 32.35 M51.4 11.85 L51.4 18.6 51.4 11.85 M56.75 24.35 Q54.6 23.45 52.1 23.75 51.65 23.8 51.65 23.5 L51.65 21.7 51.65 23.5 Q51.65 23.8 52.1 23.75 54.6 23.45 56.75 24.35 M39.45 17.7 L39.45 18.85 39.45 17.7 M38.8 13.3 Q37.45 12.75 36.6 12.15 L36.35 11.95 Q35.45 11.2 35.45 10.2 L35.6 8.2 35.45 10.2 Q35.45 11.2 36.35 11.95 L36.6 12.15 Q37.45 12.75 38.8 13.3 M15.7 45.15 L15.35 45.6 15.7 45.15 M40.0 46.95 L40.0 47.15 40.05 47.35 Q40.25 48.0 41.2 47.9 L41.7 47.85 41.9 47.8 42.05 46.5 41.85 46.25 40.55 45.95 Q39.8 45.85 39.95 46.5 L40.0 46.95 M45.2 46.95 L46.95 47.7 Q47.65 47.9 47.85 48.95 48.0 49.65 48.3 50.05 48.0 49.65 47.85 48.95 47.65 47.9 46.95 47.7 L45.2 46.95 M41.85 51.85 Q42.15 52.35 42.8 52.55 L43.0 52.6 45.45 53.0 Q46.05 53.05 45.85 52.5 L45.7 52.05 45.55 51.65 45.25 51.3 Q45.1 51.15 44.95 51.1 L43.9 50.95 41.8 51.15 41.8 51.6 41.85 51.85 41.9 52.7 41.85 51.85 M26.4 50.9 L25.5 51.15 25.1 51.25 22.85 51.35 25.1 51.25 25.5 51.15 26.4 50.9 M35.35 48.3 L36.15 49.15 36.55 49.45 Q37.35 50.05 38.6 50.05 37.35 50.05 36.55 49.45 L36.15 49.15 35.35 48.3 M83.05 51.35 L84.8 51.15 84.85 50.95 Q84.9 49.95 84.6 49.1 84.9 49.95 84.85 50.95 L84.8 51.15 83.05 51.35" fill="#cdd0e4" fill-rule="evenodd" stroke="none"/>
    <path d="M93.8 21.9 L93.05 21.95 91.5 22.0 90.65 20.75 90.4 20.5 90.15 20.3 89.95 20.1 89.75 19.5 89.75 18.4 Q89.1 17.25 89.15 15.5 L89.25 12.2 89.25 9.95 89.7 9.9 89.95 9.75 90.65 9.45 93.05 9.3 93.4 9.2 93.5 9.15 93.6 9.25 93.7 11.1 Q93.8 12.7 94.95 13.7 L95.45 14.35 95.5 15.2 95.1 15.95 94.7 16.1 Q93.75 16.3 93.7 17.25 L93.65 17.65 Q93.25 18.6 93.4 19.7 L93.45 19.9 93.65 20.4 93.7 21.15 93.8 21.9 M78.4 38.4 L77.75 38.35 76.9 38.4 75.2 38.6 75.15 38.3 75.0 36.75 74.9 36.3 74.55 35.25 74.55 34.55 74.65 32.9 74.85 32.85 74.8 32.35 74.65 27.45 Q75.55 27.4 76.15 26.75 L76.5 26.55 77.25 26.1 77.6 25.8 Q78.25 25.5 78.05 24.6 77.95 24.05 78.1 23.75 L80.8 23.05 80.85 23.05 80.95 22.95 81.7 21.95 81.85 21.5 81.95 17.05 81.95 15.75 81.85 14.6 81.55 10.85 81.45 10.55 Q80.75 10.05 79.75 10.15 L79.35 10.1 Q78.85 9.8 79.3 9.1 L79.55 8.85 86.55 8.6 86.65 9.65 Q86.95 11.65 86.9 13.75 L87.0 14.25 87.4 15.4 87.5 16.15 Q87.6 17.2 87.1 18.0 L86.9 18.1 85.05 18.2 84.85 18.25 Q84.65 19.25 84.6 20.25 84.55 22.05 85.0 23.6 L85.25 25.25 85.15 25.55 84.55 26.25 84.25 26.45 83.6 27.0 83.3 27.25 Q82.6 27.75 81.95 28.45 L81.7 28.6 Q81.15 28.65 81.15 29.15 L81.15 32.3 81.05 32.6 Q80.8 32.9 80.8 33.25 L80.7 35.65 80.55 35.9 Q80.25 36.0 80.35 36.4 L80.0 36.85 79.5 37.2 79.25 37.45 78.8 37.8 78.6 38.05 78.45 38.3 78.4 38.4 M94.8 57.25 Q94.7 57.7 94.15 57.65 L92.8 57.65 Q92.3 57.7 92.0 57.3 L91.65 57.1 91.05 56.7 90.75 56.35 90.45 56.15 Q89.3 55.4 88.15 56.0 L87.8 56.3 87.25 59.1 87.0 59.35 Q85.2 59.65 85.45 57.8 L85.6 57.15 Q85.9 56.1 85.75 54.9 85.65 54.15 85.05 54.25 L82.4 54.95 81.55 55.15 Q80.7 55.25 80.15 55.95 L79.75 56.3 Q79.05 56.85 79.25 57.8 L79.2 58.4 78.45 59.55 77.5 58.7 77.25 58.4 Q76.8 57.4 77.0 56.25 L77.0 56.0 Q76.95 55.25 77.3 54.7 L77.6 54.45 78.15 54.0 Q78.4 53.2 77.75 52.75 L77.45 52.45 Q77.1 51.85 76.45 51.85 L74.9 51.7 Q73.75 51.6 72.9 52.25 L72.05 52.75 Q71.3 53.05 70.6 53.45 L69.95 53.85 69.6 54.05 69.1 54.35 Q68.2 54.85 68.25 55.95 L67.35 55.9 64.25 56.05 63.45 55.9 Q64.5 55.45 65.35 54.7 L66.0 54.2 66.9 53.65 Q67.85 53.0 68.25 52.05 L68.35 51.6 68.5 49.4 Q68.55 48.9 68.0 48.8 L66.7 48.7 64.5 49.0 63.35 49.3 Q61.8 49.55 60.7 50.7 L59.8 51.25 59.5 51.45 58.7 52.15 57.55 51.4 Q57.05 51.15 56.9 50.7 L56.75 50.5 Q56.25 49.9 56.3 48.5 L58.05 48.4 58.3 48.25 59.6 47.75 60.05 47.6 Q62.15 46.4 64.05 45.8 L64.5 45.65 67.8 45.4 68.35 45.55 68.55 45.7 69.05 45.9 69.4 46.15 69.8 46.7 70.4 47.75 70.7 48.15 71.8 49.85 72.75 51.85 74.1 50.85 74.45 50.7 74.65 50.65 76.7 50.55 Q78.05 50.55 79.1 51.3 L79.3 51.45 80.1 52.1 80.25 52.4 80.85 53.25 81.15 53.35 82.1 53.25 82.45 53.15 84.1 53.0 87.45 53.1 88.2 53.25 88.7 53.45 Q89.65 53.8 90.45 54.45 L91.55 55.2 92.95 55.95 93.9 56.6 94.3 56.9 94.75 57.2 94.8 57.25 M103.4 6.25 L103.35 6.5 Q103.35 7.05 102.9 7.4 L102.4 7.85 101.75 8.45 101.5 8.75 101.25 9.1 101.0 9.8 100.9 10.0 100.6 10.6 100.4 10.9 Q100.05 11.45 99.0 11.7 L97.5 11.8 Q97.0 11.8 96.75 12.05 L96.35 12.4 Q96.0 10.95 96.1 9.3 L96.15 8.25 100.05 7.65 100.7 6.65 Q100.85 6.3 101.4 6.2 L101.45 6.2 102.1 6.2 102.8 6.2 103.4 6.25 M85.95 15.4 L81.95 15.75 85.95 15.4 M79.55 31.65 L79.6 32.55 Q79.7 33.25 79.1 33.6 78.15 34.05 77.35 34.6 76.35 35.2 74.55 35.25 76.35 35.2 77.35 34.6 78.15 34.05 79.1 33.6 79.7 33.25 79.6 32.55 L79.55 31.65 M58.25 41.3 L58.05 41.4 57.6 41.7 56.5 42.05 53.2 42.1 53.2 38.3 Q53.2 37.8 52.75 37.75 L52.6 37.65 51.9 37.05 51.6 36.85 50.75 36.3 50.8 36.1 50.9 35.65 Q51.25 33.85 52.35 32.8 53.05 32.15 54.1 32.3 L54.45 32.4 Q55.0 32.6 55.35 33.05 L55.7 33.35 56.45 34.15 56.55 34.3 56.3 34.3 55.7 34.4 54.95 34.65 Q54.4 34.8 54.35 35.2 L54.35 36.75 Q54.45 37.8 55.25 38.5 L55.55 38.8 56.75 40.1 58.25 41.3 M13.6 49.55 L12.9 49.15 12.0 48.55 Q11.25 48.3 10.55 47.5 L10.4 47.15 10.3 46.5 Q10.15 45.85 10.9 45.95 L11.35 45.9 12.45 45.8 Q13.3 45.65 13.1 44.75 12.9 43.95 13.55 43.8 L14.25 43.7 15.35 43.55 Q15.95 43.45 15.85 44.05 L15.8 44.75 15.55 45.0 15.5 45.3 15.35 45.6 Q15.15 45.7 15.25 45.8 L15.15 46.1 15.1 49.6 13.6 49.55" fill="#b7bed9" fill-rule="evenodd" stroke="none"/>
    <path d="M56.85 68.3 L56.3 68.65 54.75 69.75 54.5 69.9 53.65 70.0 Q52.65 70.05 53.05 68.9 L53.15 68.6 53.5 68.0 53.75 67.7 54.15 67.15 54.85 66.6 55.6 65.75 56.05 65.1 Q56.9 64.15 58.3 64.4 L58.55 64.35 Q58.8 64.0 59.4 64.0 L61.8 64.0 62.95 63.9 64.5 63.75 64.85 63.65 65.2 63.45 65.75 62.9 65.85 61.35 Q65.95 60.45 65.6 60.0 L64.1 58.4 63.55 58.15 61.8 58.0 59.15 58.05 57.85 58.05 Q57.3 58.1 57.05 57.5 L56.85 57.15 Q56.4 56.4 56.1 55.35 L56.0 55.1 54.75 54.95 54.25 55.0 54.3 55.75 Q54.4 56.55 53.8 57.05 L53.6 57.3 53.25 57.75 Q52.5 58.1 51.9 58.5 51.65 58.7 51.55 59.1 L51.4 59.2 Q50.95 59.3 50.95 60.0 L50.7 61.0 50.55 60.95 50.15 60.8 Q49.7 60.65 49.8 59.8 L49.95 59.15 50.15 58.6 Q50.3 57.95 50.95 57.5 L51.45 57.25 52.05 56.7 52.15 56.25 Q52.3 54.75 51.75 53.65 L51.05 52.75 51.05 52.7 Q51.45 52.45 51.2 51.6 50.9 50.75 51.25 50.55 L53.05 49.8 53.3 50.1 Q54.0 50.85 55.25 51.4 L55.7 51.55 Q56.2 51.8 56.55 52.25 L57.75 53.65 58.0 53.95 58.5 54.6 58.75 54.85 58.95 55.05 Q60.35 55.95 62.0 56.5 L63.85 56.95 64.05 56.95 Q64.7 57.05 65.0 57.35 L66.1 57.95 Q67.15 58.3 67.2 59.3 67.35 60.5 67.05 61.5 L66.9 61.85 Q66.55 62.5 66.65 63.35 66.8 64.0 66.4 64.45 L66.15 64.7 65.85 65.0 65.5 65.25 62.55 66.7 62.05 67.0 Q61.25 67.7 59.95 67.5 58.3 67.25 57.15 67.85 L56.85 68.25 56.85 68.3 M15.5 68.4 L15.25 69.2 15.05 69.1 14.55 68.5 14.1 68.1 13.9 67.85 Q13.25 67.3 13.35 66.2 L13.25 65.8 Q13.1 65.55 13.1 65.1 L13.05 64.0 Q12.95 62.6 13.8 61.95 L14.0 61.9 Q14.7 61.95 14.65 61.35 L14.65 61.1 Q13.8 61.05 13.1 60.6 L13.0 60.45 Q13.2 59.1 12.25 58.25 L11.75 57.95 10.45 57.75 8.7 58.0 8.4 58.3 8.2 59.1 Q8.05 60.15 7.2 60.7 L6.9 60.85 6.5 61.0 5.7 61.2 5.2 61.85 4.9 62.1 4.5 62.2 1.15 62.1 1.0 62.0 0.45 60.45 0.1 59.55 0.0 59.1 Q-0.1 58.5 0.25 58.35 L0.75 58.0 Q1.45 57.3 2.7 57.45 L3.85 57.65 4.25 57.7 Q5.3 57.95 6.05 57.35 L6.55 56.95 7.35 56.25 8.1 54.45 8.15 54.0 8.25 52.05 8.05 50.55 7.85 50.2 7.35 49.6 6.05 48.5 Q5.5 48.25 5.45 47.6 5.2 46.05 6.45 45.45 L6.75 45.2 7.1 44.9 7.4 44.6 8.0 44.25 8.45 43.8 Q9.05 42.95 10.1 42.55 L10.4 42.45 11.15 42.1 Q13.1 41.15 14.65 40.5 L16.5 39.75 18.4 39.55 18.9 39.85 19.65 40.8 19.75 41.2 19.85 43.2 Q19.85 43.55 20.45 43.5 L21.2 43.7 21.75 43.9 22.0 44.0 25.75 44.85 26.65 44.95 34.6 44.95 35.05 44.9 Q36.1 44.65 36.5 43.8 L36.7 43.45 36.95 42.9 37.1 42.5 37.25 42.3 Q37.9 41.8 38.8 41.9 L41.45 41.7 Q42.6 41.4 42.4 42.5 L42.25 43.6 Q42.2 44.2 42.8 44.1 L42.8 44.2 41.25 44.55 40.8 44.65 Q39.75 44.75 38.85 45.2 L38.55 45.3 38.35 45.4 38.0 47.0 37.8 47.2 36.8 47.4 35.1 47.65 34.8 47.75 Q34.4 47.75 34.15 48.05 L32.4 49.0 32.2 49.2 Q32.0 49.55 31.3 49.45 L30.9 49.3 Q29.65 48.5 28.55 47.45 28.1 47.0 27.3 47.1 L24.65 47.05 23.75 46.85 22.2 46.3 21.1 46.0 19.95 45.65 19.1 45.35 15.7 45.15 15.75 44.95 15.8 44.75 15.85 44.05 Q15.95 43.45 15.35 43.55 L14.25 43.7 13.55 43.8 Q12.9 43.95 13.1 44.75 13.3 45.65 12.45 45.8 L11.35 45.9 10.9 45.95 Q10.15 45.85 10.3 46.5 L10.4 47.15 10.55 47.5 Q11.25 48.3 12.0 48.55 L12.9 49.15 13.6 49.55 13.65 50.05 13.7 50.3 13.9 50.6 14.2 50.8 14.5 50.85 14.9 51.0 15.25 51.15 16.1 51.55 16.0 51.7 15.55 51.75 10.9 51.8 11.8 52.9 11.9 53.15 12.0 54.25 Q11.8 54.5 11.85 54.7 L11.95 55.15 12.0 55.5 12.0 55.55 11.95 55.8 12.05 55.8 12.2 56.25 12.3 56.7 12.45 56.85 Q13.35 57.2 13.8 58.0 L14.05 58.35 Q14.75 58.9 15.25 59.85 L15.45 60.15 15.6 60.45 Q15.65 61.15 16.0 61.35 L16.2 61.55 Q16.65 62.0 16.65 62.9 L16.6 63.1 Q16.15 63.25 16.1 63.75 L16.05 64.0 15.6 64.55 15.3 64.9 Q15.1 65.85 15.15 66.85 15.2 67.7 15.5 68.4 M47.85 43.65 L47.15 42.95 46.9 42.65 46.35 42.05 45.7 41.35 Q44.25 40.15 44.3 38.1 44.3 36.95 45.45 36.5 L46.1 36.15 Q46.7 35.65 46.8 34.55 46.9 33.0 46.4 31.7 L46.15 31.4 45.9 31.0 45.2 30.35 44.8 30.15 43.0 29.45 Q42.15 29.05 41.65 27.95 L41.55 27.7 41.5 26.8 Q41.6 26.0 41.2 25.8 L40.8 25.7 38.6 25.8 38.15 25.8 35.9 25.9 Q34.95 25.9 34.65 26.75 L34.5 27.05 34.3 27.4 33.95 27.7 33.75 27.75 33.45 27.5 32.35 26.4 31.3 24.6 31.1 24.15 Q30.85 23.3 31.5 23.05 32.35 22.65 32.25 21.5 L32.15 19.7 32.15 11.75 Q32.15 11.2 32.5 10.55 L32.4 10.25 32.2 9.9 Q31.35 9.15 31.15 8.0 L31.05 6.85 31.15 5.55 31.35 5.15 Q31.75 4.8 32.2 4.7 L32.2 4.65 Q32.25 4.4 32.65 4.3 L33.0 4.1 Q34.65 3.3 36.6 3.3 L37.7 3.15 Q39.75 2.55 41.9 2.3 43.65 2.05 45.05 1.15 L45.65 0.9 47.05 0.55 47.85 0.35 48.8 0.1 49.65 0.0 57.4 0.0 58.5 0.05 59.85 0.15 62.7 0.35 64.7 0.65 66.25 0.8 73.8 0.9 77.5 0.8 72.45 2.25 68.9 2.5 60.95 2.45 59.85 2.35 54.95 2.0 51.65 2.1 50.75 2.1 Q49.2 2.1 48.05 2.85 L45.15 4.6 44.55 4.8 40.15 4.9 39.8 5.0 39.6 5.3 39.5 5.6 Q39.35 6.0 39.7 6.15 L40.1 6.3 40.35 6.35 43.0 6.45 44.1 6.35 Q45.35 6.2 45.15 7.3 45.0 8.05 45.45 8.2 L45.85 8.45 46.55 8.8 46.95 8.95 47.25 9.0 47.65 9.15 47.9 9.3 48.65 10.15 49.05 10.8 47.2 10.85 44.95 10.85 45.2 11.85 Q45.55 13.2 45.5 14.65 L45.45 21.15 45.8 21.4 47.65 21.35 48.2 21.5 48.4 21.7 Q48.75 22.0 48.7 22.8 48.55 24.7 48.75 26.55 L48.95 27.2 49.15 27.25 56.95 27.45 57.1 27.65 Q57.5 28.9 58.5 29.7 L58.9 30.2 59.1 30.65 59.2 31.0 59.3 32.5 Q59.35 33.0 60.1 33.0 L60.5 33.2 60.75 34.15 60.55 36.2 60.2 37.5 60.15 36.1 59.95 35.6 59.4 35.0 58.95 34.55 57.2 34.3 57.2 33.65 57.1 33.25 56.9 32.35 Q56.95 31.8 56.3 31.4 55.95 31.2 56.05 30.8 56.35 29.7 55.4 29.25 L54.95 29.1 51.2 29.0 47.45 28.7 47.2 28.55 46.95 24.35 Q46.95 23.8 46.55 23.75 L45.0 23.7 43.65 23.8 Q42.05 23.95 41.7 22.6 41.6 21.5 41.95 20.8 L42.0 20.6 42.1 12.65 42.1 10.85 Q42.1 9.85 42.95 9.55 L43.1 9.35 43.2 9.05 43.25 8.85 Q42.75 8.35 41.7 8.35 L38.8 8.4 35.9 8.3 35.7 8.2 35.6 8.15 Q35.35 7.9 35.35 7.3 L33.7 7.15 Q32.95 7.2 32.85 6.65 L32.55 6.45 32.5 7.1 Q32.55 7.9 32.85 8.4 L33.05 8.65 34.1 9.6 34.45 9.9 Q35.2 10.7 35.25 11.5 L35.35 11.9 35.75 13.3 Q35.9 14.4 34.8 14.65 L34.6 14.9 34.4 17.3 34.5 17.65 34.65 18.2 34.9 19.5 Q35.0 20.25 34.55 20.75 L34.3 21.1 Q33.9 22.3 33.95 23.7 L34.05 23.95 35.25 23.85 Q35.5 23.7 35.7 23.7 L40.35 23.5 40.75 23.6 41.25 23.9 41.6 24.2 41.8 24.5 42.6 25.7 42.85 26.1 43.45 26.6 43.85 27.05 44.15 27.4 44.45 27.75 Q44.9 28.6 45.65 29.05 L45.85 29.3 46.0 29.65 46.2 29.95 46.55 30.55 48.15 32.05 48.65 33.0 48.65 34.75 48.55 35.0 48.35 35.45 Q48.15 36.2 47.2 36.55 L46.95 36.8 46.75 38.75 46.85 39.35 47.55 41.25 47.75 41.5 48.1 42.05 48.55 42.95 48.6 42.75 48.8 42.55 Q49.45 42.1 50.3 42.1 L53.2 42.1 56.5 42.05 57.6 41.7 58.05 41.4 58.25 41.3 58.85 40.9 59.6 40.45 59.85 40.3 60.25 40.05 60.95 39.2 61.8 38.3 62.75 37.05 62.8 37.0 62.85 36.75 62.9 36.55 62.95 36.15 62.95 36.1 63.0 33.5 63.15 33.55 63.1 31.0 Q63.05 30.65 62.5 30.7 L61.8 30.55 Q60.9 29.8 60.45 28.55 60.2 27.75 60.2 26.8 L60.05 25.9 60.0 25.75 60.05 25.4 60.0 25.35 59.75 24.9 59.6 24.55 59.4 23.25 59.3 22.9 58.95 22.75 58.05 22.55 55.65 22.3 Q55.1 22.35 55.0 21.95 54.65 20.65 54.75 19.25 L55.2 19.25 55.1 17.5 55.05 17.05 54.9 15.95 54.8 15.5 54.65 14.6 54.6 14.35 54.5 13.75 54.5 12.8 55.6 12.55 55.85 12.5 57.2 12.35 58.95 12.4 58.9 15.5 Q58.85 17.25 59.2 18.85 L59.45 19.45 Q60.45 21.05 62.2 22.0 L62.5 22.4 62.7 25.25 62.8 26.35 62.85 26.8 63.0 27.7 63.4 29.2 63.6 29.35 64.5 29.55 64.75 29.65 64.95 29.95 65.15 33.2 65.05 33.6 64.9 34.15 64.55 34.8 Q64.0 35.4 64.05 36.3 L63.95 36.7 63.7 37.25 63.65 37.4 Q63.3 38.05 63.35 38.95 L63.25 40.75 63.1 41.15 62.75 41.45 62.45 41.8 61.8 42.35 61.6 42.45 59.85 43.4 59.6 43.5 53.85 43.65 Q52.5 43.7 51.65 43.2 L51.2 43.05 48.55 43.0 48.55 42.95 48.55 43.0 48.45 43.1 47.9 43.6 47.85 43.65 M80.8 23.05 L78.1 23.75 Q77.4 23.95 77.1 24.1 L76.65 24.3 75.75 24.45 71.45 24.85 71.4 24.65 71.2 24.85 71.1 24.9 Q69.9 24.7 69.2 24.0 L68.95 23.2 68.85 22.85 Q68.35 21.65 69.15 20.65 L69.35 20.35 69.45 20.05 69.35 19.2 69.2 18.95 69.2 18.75 69.25 13.95 Q69.35 13.6 70.0 13.65 L71.8 13.75 72.0 13.75 Q72.4 16.55 72.3 19.5 L72.15 20.45 Q71.85 21.05 72.4 21.05 L75.4 21.15 75.8 21.3 75.9 21.7 Q75.75 22.7 76.7 22.55 L79.1 22.6 80.8 23.05 M42.1 10.85 L44.95 10.85 42.1 10.85 M32.5 10.55 L32.85 11.1 33.0 11.3 33.15 11.7 Q33.4 12.25 33.95 12.4 33.4 12.25 33.15 11.7 L33.0 11.3 32.85 11.1 32.5 10.55 M32.2 4.7 L32.15 5.55 Q32.1 6.1 32.55 6.45 32.1 6.1 32.15 5.55 L32.2 4.7 M54.25 55.0 Q53.3 54.9 52.6 54.2 52.15 53.75 51.75 53.65 52.15 53.75 52.6 54.2 53.3 54.9 54.25 55.0" fill="#ffffff" fill-rule="evenodd" stroke="none"/>
    <path d="M77.5 0.8 L79.1 0.7 80.4 0.55 81.55 0.45 89.5 0.4 95.05 0.6 96.8 0.65 100.35 0.9 101.25 1.15 102.45 1.65 103.15 1.95 103.9 2.45 105.65 3.8 106.3 4.45 Q106.55 5.4 105.9 5.5 L105.6 5.7 105.45 5.9 105.45 10.4 105.55 12.4 Q105.65 13.35 104.75 13.25 103.2 13.1 103.2 14.4 L103.1 14.8 Q102.75 15.75 101.65 15.9 L100.85 16.05 97.9 16.6 97.45 16.65 96.6 16.8 Q95.7 16.8 94.75 19.3 95.55 17.75 95.75 17.85 L96.0 18.05 Q96.45 18.8 96.25 19.7 L95.9 20.6 95.65 21.0 95.25 21.3 93.8 21.9 93.05 21.95 91.5 22.0 90.6 21.95 90.4 21.95 Q89.95 22.55 90.25 23.45 L90.3 23.7 90.4 27.45 90.25 28.05 Q89.85 28.7 89.9 29.45 L90.05 31.0 90.05 31.2 90.15 32.75 90.1 33.0 87.95 33.2 85.3 33.1 Q83.8 33.0 83.05 33.55 L83.0 33.6 82.8 33.95 82.55 34.75 82.5 35.0 82.4 36.1 82.45 36.5 82.65 37.0 Q81.2 37.9 79.55 38.05 L79.15 38.2 78.4 38.4 77.75 38.35 76.9 38.4 75.2 38.6 74.9 39.2 74.5 39.45 74.15 39.8 73.75 40.4 Q73.25 41.65 73.35 43.2 L73.4 44.05 Q73.55 44.9 72.9 45.1 L72.6 45.25 72.35 45.5 73.35 46.3 74.5 47.35 74.7 47.65 Q74.85 48.1 75.35 48.15 75.55 48.15 75.7 48.3 L76.2 48.75 78.2 49.0 78.6 48.85 Q79.7 48.25 81.3 47.9 83.3 47.55 84.4 48.7 L84.55 48.95 84.6 49.1 84.85 49.0 85.45 48.85 86.6 48.55 87.05 48.45 87.5 48.4 87.75 48.45 Q88.2 48.75 88.1 49.6 87.95 50.5 88.4 51.15 L88.55 51.35 88.7 51.75 Q88.85 52.1 89.5 52.15 L89.95 52.2 Q91.7 52.5 92.8 53.8 L93.3 54.15 Q94.1 54.6 94.6 55.55 L94.7 55.8 94.8 57.1 94.8 57.25 Q94.7 57.7 94.15 57.65 L92.8 57.65 Q92.3 57.7 92.0 57.3 L91.65 57.1 91.05 56.7 90.75 56.35 90.45 56.15 Q89.3 55.4 88.15 56.0 L87.8 56.3 87.25 59.1 87.0 59.35 Q85.2 59.65 85.45 57.8 L85.6 57.15 Q85.9 56.1 85.75 54.9 85.65 54.15 85.05 54.25 L82.4 54.95 81.55 55.15 Q80.7 55.25 80.15 55.95 L79.75 56.3 Q79.05 56.85 79.25 57.8 L79.2 58.4 78.45 59.55 77.5 58.7 77.25 58.4 Q76.8 57.4 77.0 56.25 L77.0 56.0 Q76.95 55.25 77.3 54.7 L77.6 54.45 78.15 54.0 Q78.4 53.2 77.75 52.75 L77.45 52.45 Q77.1 51.85 76.45 51.85 L74.9 51.7 Q73.75 51.6 72.9 52.25 L72.05 52.75 Q71.3 53.05 70.6 53.45 L69.95 53.85 69.6 54.05 69.1 54.35 Q68.2 54.85 68.25 55.95 L68.9 56.25 69.1 56.5 Q69.45 57.0 69.4 58.0 69.35 59.1 69.45 60.2 L69.6 60.55 70.45 61.55 70.95 62.15 71.3 62.5 71.6 62.8 Q73.15 63.8 73.5 65.55 L73.6 66.0 73.85 67.95 73.9 69.75 Q73.95 70.25 73.55 70.25 L71.8 70.2 71.55 70.1 71.35 69.1 71.25 66.65 71.05 66.3 68.7 66.6 67.25 67.25 66.25 67.6 65.4 67.85 64.85 68.1 64.1 68.5 63.55 68.8 63.0 69.2 62.4 69.65 61.85 70.0 61.6 70.2 61.2 70.7 60.9 70.9 59.85 71.15 Q58.8 71.3 58.9 70.4 L59.05 70.0 Q59.15 69.75 59.6 69.65 L59.75 69.5 59.9 68.4 Q59.95 67.4 58.95 67.55 57.8 67.7 56.85 68.3 L56.3 68.65 54.75 69.75 54.5 69.9 53.65 70.0 Q52.65 70.05 53.05 68.9 L53.15 68.6 53.5 68.0 53.75 67.7 54.15 67.15 54.85 66.6 55.6 65.75 56.05 65.1 Q56.9 64.15 58.3 64.4 L58.55 64.35 Q58.8 64.0 59.4 64.0 L61.8 64.0 62.95 63.9 64.5 63.75 64.85 63.65 65.2 63.45 65.75 62.9 65.85 61.35 Q65.95 60.45 65.6 60.0 L64.1 58.4 63.55 58.15 61.8 58.0 59.15 58.05 59.15 61.1 59.05 61.35 Q58.15 61.7 57.4 61.1 L57.05 60.6 56.85 60.25 56.65 59.75 56.3 57.8 56.2 57.4 55.85 57.1 54.3 56.95 Q54.1 57.0 54.05 57.1 54.05 58.3 53.45 59.15 53.3 59.35 53.3 59.55 53.3 60.05 52.75 60.2 L52.2 60.55 Q51.65 61.05 50.7 61.0 L50.55 60.95 50.15 60.8 Q49.7 60.65 49.8 59.8 L49.95 59.15 50.15 58.6 Q50.3 57.95 50.95 57.5 L51.45 57.25 52.05 56.7 52.15 56.25 Q52.3 54.75 51.75 53.65 L51.05 52.75 49.75 52.8 Q48.85 52.6 48.85 53.4 L48.75 54.75 48.0 56.65 Q47.3 57.95 45.2 56.45 43.1 54.9 39.0 54.9 L38.8 54.9 Q38.7 54.3 38.15 54.0 L36.8 53.15 36.55 52.95 35.9 52.75 32.6 52.85 32.3 53.0 31.55 53.85 31.0 54.2 28.4 54.4 23.95 54.7 24.0 53.8 Q24.25 52.2 22.85 51.35 L20.85 51.3 Q19.6 51.3 18.9 51.8 L18.65 52.05 Q18.6 52.7 18.2 53.15 L18.0 53.35 Q17.2 54.45 16.25 54.95 L15.95 55.1 15.55 55.2 14.55 55.7 14.45 56.0 14.9 56.3 15.8 56.65 16.15 56.8 Q16.8 57.2 16.7 58.45 16.65 59.35 17.4 59.95 L17.7 60.25 18.05 60.6 18.4 60.95 18.7 61.2 Q19.75 61.65 19.75 62.65 L19.7 63.55 19.5 63.85 Q18.8 64.1 18.45 64.45 L16.5 66.05 16.05 66.45 15.75 66.8 Q15.35 67.4 15.45 68.2 L15.5 68.4 15.25 69.2 15.2 69.25 15.1 69.3 15.05 69.1 14.55 68.5 14.1 68.1 13.9 67.85 Q13.25 67.3 13.35 66.2 L13.25 65.8 Q13.1 65.55 13.1 65.1 L13.05 64.0 Q12.95 62.6 13.8 61.95 L14.0 61.9 Q14.7 61.95 14.65 61.35 L14.65 61.1 Q13.8 61.05 13.1 60.6 L13.0 60.45 Q13.2 59.1 12.25 58.25 L11.75 57.95 10.45 57.75 8.7 58.0 8.4 58.3 8.2 59.1 Q8.05 60.15 7.2 60.7 L6.9 60.85 6.5 61.0 5.7 61.2 5.2 61.85 4.9 62.1 4.5 62.2 1.15 62.1 1.0 62.0 0.45 60.45 0.1 59.55 0.0 59.1 Q-0.1 58.5 0.25 58.35 L0.75 58.0 Q1.45 57.3 2.7 57.45 L3.85 57.65 4.25 57.7 Q5.3 57.95 6.05 57.35 L6.55 56.95 7.35 56.25 8.1 54.45 8.15 54.0 8.25 52.05 8.05 50.55 7.85 50.2 7.35 49.6 6.05 48.5 Q5.5 48.25 5.45 47.6 5.2 46.05 6.45 45.45 L6.75 45.2 7.1 44.9 7.4 44.6 8.0 44.25 8.45 43.8 Q9.05 42.95 10.1 42.55 L10.4 42.45 11.15 42.1 Q13.1 41.15 14.65 40.5 L16.5 39.75 18.4 39.55 18.9 39.85 19.65 40.8 19.75 41.2 19.85 43.2 Q19.85 43.55 20.45 43.5 L21.2 43.7 21.75 43.9 22.0 44.0 25.75 44.85 26.65 44.95 34.6 44.95 35.05 44.9 Q36.1 44.65 36.5 43.8 L36.7 43.45 36.95 42.9 37.1 42.5 37.25 42.3 Q37.9 41.8 38.8 41.9 L41.45 41.7 Q42.6 41.4 42.4 42.5 L42.25 43.6 Q42.2 44.2 42.8 44.1 L42.9 44.1 45.45 44.25 46.1 44.35 Q46.95 44.5 47.3 44.1 L47.85 43.65 47.15 42.95 M46.9 42.65 L46.35 42.05 45.7 41.35 Q44.25 40.15 44.3 38.1 44.3 36.95 45.45 36.5 L46.1 36.15 Q46.7 35.65 46.8 34.55 46.9 33.0 46.4 31.7 L46.15 31.4 45.9 31.0 45.2 30.35 44.8 30.15 43.0 29.45 Q42.15 29.05 41.65 27.95 L41.55 27.7 41.5 26.8 Q41.6 26.0 41.2 25.8 L40.8 25.7 38.6 25.8 38.15 25.8 35.9 25.9 Q34.95 25.9 34.65 26.75 L34.5 27.05 34.3 27.4 33.95 27.7 33.75 27.75 33.45 27.5 32.35 26.4 31.3 24.6 31.1 24.15 Q30.85 23.3 31.5 23.05 32.35 22.65 32.25 21.5 L32.15 19.7 32.15 11.75 Q32.15 11.2 32.5 10.55 L32.4 10.25 32.2 9.9 Q31.35 9.15 31.15 8.0 L31.05 6.85 31.15 5.55 31.35 5.15 Q31.75 4.8 32.2 4.7 L32.2 4.65 Q32.25 4.4 32.65 4.3 L33.0 4.1 Q34.65 3.3 36.6 3.3 L37.7 3.15 Q39.75 2.55 41.9 2.3 43.65 2.05 45.05 1.15 L45.65 0.9 47.05 0.55 47.85 0.35 48.8 0.1 49.65 0.0 57.4 0.0 58.5 0.05 59.85 0.15 62.7 0.35 64.7 0.65 66.25 0.8 73.8 0.9 77.5 0.8 M49.05 10.8 L49.65 10.75 Q50.5 10.7 50.75 11.1 L51.35 11.8 51.4 11.85 51.7 12.1 52.0 12.3 Q52.55 12.8 53.4 12.85 L54.5 12.8 55.6 12.55 55.85 12.5 57.2 12.35 58.95 12.4 Q60.15 12.55 61.15 13.3 L61.8 13.75 62.25 14.0 63.8 14.2 64.2 14.1 66.45 13.5 M96.35 12.4 Q96.0 10.95 96.1 9.3 L96.15 8.25 95.9 8.2 Q94.6 8.15 93.6 9.05 L93.5 9.15 M103.4 6.25 L103.9 6.3 Q104.85 6.45 105.45 5.9 M102.1 6.2 L102.8 6.2 103.4 6.25 M96.15 8.25 L100.05 7.65 M86.55 8.6 L79.55 8.85 79.3 9.1 Q78.85 9.8 79.35 10.1 L79.75 10.15 Q80.75 10.05 81.45 10.55 L81.55 10.85 81.85 14.6 81.95 15.75 85.95 15.4 M86.55 8.6 L86.85 8.6 Q87.65 8.55 88.2 9.05 L88.7 9.7 88.85 9.9 89.25 9.95 89.7 9.9 89.95 9.75 90.65 9.45 93.05 9.3 93.4 9.2 93.5 9.15 M81.95 15.75 L81.95 17.05 81.85 21.5 81.7 21.95 80.95 22.95 80.85 23.05 80.8 23.05 78.1 23.75 Q77.95 24.05 78.05 24.6 78.25 25.5 77.6 25.8 L77.25 26.1 76.5 26.55 76.15 26.75 Q75.55 27.4 74.65 27.45 74.35 27.5 74.0 27.7 L72.45 28.05 M74.65 32.9 L74.55 34.55 74.55 35.25 Q76.35 35.2 77.35 34.6 78.15 34.05 79.1 33.6 79.7 33.25 79.6 32.55 L79.55 31.65 M72.0 13.75 L75.55 13.55 75.8 13.4 76.45 13.05 77.2 12.5 77.55 12.35 79.1 11.95 M72.0 13.75 L71.8 13.75 70.0 13.65 Q69.35 13.6 69.25 13.95 L69.2 18.75 M71.1 24.9 L71.2 24.85 M71.45 24.85 L75.75 24.45 76.65 24.3 77.1 24.1 Q77.4 23.95 78.1 23.75 M89.25 9.95 L89.25 12.2 89.15 15.5 Q89.1 17.25 89.75 18.4 M84.6 30.1 Q84.6 29.1 85.75 29.05 L86.2 28.9 86.5 28.7 86.6 28.35 86.5 25.05 86.4 23.25 86.4 20.15 M90.4 21.95 L88.4 21.7 M54.5 12.8 L54.5 13.75 54.6 14.35 54.65 14.6 54.8 15.5 54.9 15.95 55.05 17.05 55.1 17.5 55.2 19.25 M60.0 25.75 L60.05 25.9 60.2 26.8 Q60.2 27.75 60.45 28.55 60.9 29.8 61.8 30.55 L62.5 30.7 Q63.05 30.65 63.1 31.0 L63.15 33.55 M62.95 36.1 L62.95 36.15 62.9 36.55 62.85 36.75 62.8 37.0 62.75 37.05 61.8 38.3 60.95 39.2 60.25 40.05 59.85 40.3 59.6 40.45 58.85 40.9 58.25 41.3 58.05 41.4 57.6 41.7 56.5 42.05 53.2 42.1 50.3 42.1 Q49.45 42.1 48.8 42.55 L48.6 42.75 48.55 42.95 48.55 43.0 48.45 43.1 47.9 43.6 47.85 43.65 M71.45 24.85 L71.2 24.85 M70.9 34.3 L70.9 32.35 M60.0 25.35 L60.0 25.75 M57.2 34.3 L57.2 33.65 57.1 33.25 56.9 32.35 Q56.95 31.8 56.3 31.4 55.95 31.2 56.05 30.8 56.35 29.7 55.4 29.25 L54.95 29.1 51.2 29.0 47.45 28.7 47.2 28.55 46.95 24.35 Q46.95 23.8 46.55 23.75 L45.0 23.7 43.65 23.8 Q42.05 23.95 41.7 22.6 41.6 21.5 41.95 20.8 L42.0 20.6 42.1 12.65 42.1 10.85 Q42.1 9.85 42.95 9.55 L43.1 9.35 43.2 9.05 43.25 8.85 Q42.75 8.35 41.7 8.35 L38.8 8.4 38.8 8.65 38.8 13.3 38.8 14.4 M60.2 37.5 L60.25 40.05 M56.55 34.3 L56.45 34.15 55.7 33.35 55.35 33.05 Q55.0 32.6 54.45 32.4 L54.1 32.3 Q53.05 32.15 52.35 32.8 51.25 33.85 50.9 35.65 L50.8 36.1 50.75 36.3 51.6 36.85 51.9 37.05 52.6 37.65 52.75 37.75 Q53.2 37.8 53.2 38.3 L53.2 42.1 M56.55 34.3 L56.3 34.3 55.7 34.4 54.95 34.65 Q54.4 34.8 54.35 35.2 L54.35 36.75 Q54.45 37.8 55.25 38.5 L55.55 38.8 56.75 40.1 58.25 41.3 M60.2 37.5 L60.15 36.1 59.95 35.6 59.4 35.0 58.95 34.55 57.2 34.3 56.55 34.3 M56.3 48.5 L58.05 48.4 58.3 48.25 59.6 47.75 60.05 47.6 Q62.15 46.4 64.05 45.8 L64.5 45.65 67.8 45.4 68.35 45.55 68.55 45.7 69.05 45.9 69.15 45.9 69.35 46.05 69.95 46.45 70.1 46.6 70.45 46.65 Q71.3 46.45 71.65 45.9 L72.0 45.65 72.35 45.5 M53.05 49.8 L53.4 49.65 54.3 49.15 Q54.65 48.8 55.2 48.75 L55.45 48.6 55.85 48.5 56.3 48.5 Q56.25 49.9 56.75 50.5 L56.9 50.7 Q57.05 51.15 57.55 51.4 L58.7 52.15 59.5 51.45 59.8 51.25 60.7 50.7 Q61.8 49.55 63.35 49.3 L64.5 49.0 66.7 48.7 68.0 48.8 Q68.55 48.9 68.5 49.4 L68.35 51.6 68.25 52.05 Q67.85 53.0 66.9 53.65 L66.0 54.2 65.35 54.7 Q64.5 55.45 63.45 55.9 L64.25 56.05 67.35 55.9 68.25 55.95 M70.35 39.2 L70.45 40.1 70.35 42.05 70.25 42.4 70.2 42.45 69.7 42.1 69.35 41.8 Q69.05 41.6 69.05 41.2 L68.95 40.95 Q68.6 40.4 68.75 39.65 68.9 39.1 69.55 38.95 70.3 38.75 70.35 39.2 M75.2 38.6 L75.15 38.3 75.0 36.75 74.9 36.3 74.55 35.25 M74.65 32.9 L74.8 32.35 M83.05 33.55 L83.05 30.8 M49.05 10.8 L47.2 10.85 44.95 10.85 42.1 10.85 M35.6 8.15 L35.6 8.2 35.45 10.2 Q35.45 11.2 36.35 11.95 L36.6 12.15 Q37.45 12.75 38.8 13.3 M35.6 8.15 L35.7 8.2 35.9 8.3 38.8 8.4 M35.6 8.15 Q35.35 7.9 35.35 7.3 L33.7 7.15 Q32.95 7.2 32.85 6.65 L32.55 6.45 Q32.1 6.1 32.15 5.55 L32.2 4.7 M39.45 18.85 L39.45 17.7 M51.65 21.7 L51.65 23.5 Q51.65 23.8 52.1 23.75 54.6 23.45 56.75 24.35 M51.4 18.6 L51.4 11.85 M33.95 12.4 Q33.4 12.25 33.15 11.7 L33.0 11.3 32.85 11.1 32.5 10.55 M13.6 49.55 L12.9 49.15 12.0 48.55 Q11.25 48.3 10.55 47.5 L10.4 47.15 10.3 46.5 Q10.15 45.85 10.9 45.95 L11.35 45.9 12.45 45.8 Q13.3 45.65 13.1 44.75 12.9 43.95 13.55 43.8 L14.25 43.7 15.35 43.55 Q15.95 43.45 15.85 44.05 L15.8 44.75 15.75 44.95 15.7 45.15 M15.35 45.6 L15.7 45.15 M15.35 45.6 Q15.15 45.7 15.25 45.8 M15.1 49.6 L13.6 49.55 M50.3 42.1 L49.85 41.65 48.65 39.8 48.45 39.45 Q48.2 38.7 48.35 37.85 L48.5 37.4 48.6 36.75 48.75 36.65 50.3 36.55 50.65 36.45 50.75 36.3 M40.0 46.95 L39.95 46.5 Q39.8 45.85 40.55 45.95 L41.85 46.25 42.05 46.5 41.9 47.8 41.7 47.85 41.2 47.9 Q40.25 48.0 40.05 47.35 L40.0 47.15 40.0 46.95 M48.3 50.05 Q48.0 49.65 47.85 48.95 47.65 47.9 46.95 47.7 L45.2 46.95 M53.05 49.8 L51.25 50.55 Q50.9 50.75 51.2 51.6 51.45 52.45 51.05 52.7 L51.05 52.75 M51.75 53.65 Q52.15 53.75 52.6 54.2 53.3 54.9 54.25 55.0 L54.75 54.95 56.0 55.1 56.1 55.35 Q56.4 56.4 56.85 57.15 L57.05 57.5 Q57.3 58.1 57.85 58.05 L59.15 58.05 M41.85 51.85 L41.8 51.6 41.8 51.15 43.9 50.95 44.95 51.1 Q45.1 51.15 45.25 51.3 L45.55 51.65 45.7 52.05 45.85 52.5 Q46.05 53.05 45.45 53.0 L43.0 52.6 42.8 52.55 Q42.15 52.35 41.85 51.85 L41.9 52.7 M38.6 50.05 Q37.35 50.05 36.55 49.45 L36.15 49.15 35.35 48.3 M22.85 51.35 L25.1 51.25 25.5 51.15 26.4 50.9 M84.6 49.1 Q84.9 49.95 84.85 50.95 L84.8 51.15 83.05 51.35 M58.7 52.15 L59.0 52.45 59.25 52.75 Q59.6 53.45 60.25 53.65 L60.85 54.1 Q61.2 54.6 62.05 55.2 L62.9 55.65 63.2 55.75 63.45 55.9" fill="none" stroke="#000000" stroke-linecap="round" stroke-linejoin="round" stroke-width="1.0"/>
  </g>
</svg>
