<?xml version="1.0" encoding="UTF-8" standalone="no"?>
<svg xmlns:xlink="http://www.w3.org/1999/xlink" height="114.6px" width="119.15px" xmlns="http://www.w3.org/2000/svg">
  <g transform="matrix(1.0, 0.0, 0.0, 1.0, 0.5, 0.5)">
    <path d="M48.95 14.4 L47.55 15.3 46.4 15.8 Q41.05 17.9 38.35 19.25 L38.35 7.45 39.3 6.3 35.9 6.9 31.3 7.8 29.8 8.15 Q28.15 9.1 23.85 9.6 L21.45 9.75 21.45 9.2 Q21.65 5.65 24.55 3.1 28.0 0.0 29.25 0.0 L31.3 0.2 Q32.3 0.7 32.55 1.1 L36.25 1.05 39.0 1.2 Q39.55 1.45 40.5 3.2 L40.5 4.7 Q41.25 4.25 42.45 4.25 L44.4 4.35 44.4 4.25 47.05 2.45 Q51.45 3.9 51.9 4.6 52.25 5.15 52.25 7.45 52.25 9.5 51.55 11.15 50.95 12.5 49.85 13.6 L48.95 14.4 M53.3 20.8 L53.65 17.85 55.5 12.1 55.85 10.3 Q56.2 6.75 57.8 5.6 59.1 4.6 62.4 4.6 65.75 4.6 66.85 5.55 68.15 6.65 68.05 10.0 70.35 4.95 70.75 4.5 72.7 2.1 77.35 2.1 83.05 2.1 85.0 5.7 85.7 6.95 86.05 9.1 88.35 9.05 90.45 11.25 92.0 12.8 93.95 16.1 L93.75 16.3 92.95 16.25 Q91.6 16.25 89.95 16.8 86.45 17.9 86.4 21.5 L83.55 20.9 82.35 20.55 82.5 21.0 78.6 21.5 77.7 21.8 75.55 22.45 78.1 20.65 77.55 19.45 76.15 16.7 76.25 13.05 76.15 16.7 77.55 19.45 78.1 20.65 75.55 22.45 72.9 22.75 Q71.05 22.85 68.95 25.1 L68.45 25.65 Q66.75 27.25 65.55 27.4 L65.4 27.4 Q61.85 27.6 59.0 28.65 58.1 28.95 57.25 29.4 L57.05 28.3 Q59.05 26.0 61.0 22.15 63.55 17.25 63.65 14.35 65.2 12.4 66.85 11.4 65.2 12.4 63.65 14.35 63.55 17.25 61.0 22.15 59.05 26.0 57.05 28.3 L57.25 29.4 56.9 29.55 55.6 29.9 54.25 30.3 Q50.15 31.5 49.0 32.35 L50.8 30.3 Q55.45 28.25 59.35 21.45 L62.95 15.3 63.65 14.35 62.95 15.3 59.35 21.45 Q55.45 28.25 50.8 30.3 52.05 28.65 52.25 27.4 L52.5 26.1 52.55 25.6 53.05 22.3 53.3 20.8 M94.65 15.75 L94.65 15.65 94.45 12.3 Q94.4 11.4 96.75 11.4 98.4 11.4 102.1 13.3 L102.25 21.4 Q102.45 23.1 103.15 25.25 103.95 26.75 104.2 28.2 L103.9 28.35 102.6 26.85 Q101.2 25.3 100.3 25.25 L92.1 24.9 Q90.25 24.3 89.55 23.2 88.75 22.05 87.85 21.7 L86.4 21.5 Q86.45 17.9 89.95 16.8 91.6 16.25 92.95 16.25 90.2 14.25 87.15 13.85 90.2 14.25 92.95 16.25 L93.45 16.6 93.75 16.3 94.1 16.35 94.25 16.35 Q94.65 16.2 94.65 15.75 L96.65 18.05 96.8 18.2 99.7 21.0 Q102.0 23.2 103.15 25.25 102.0 23.2 99.7 21.0 L96.8 18.2 96.65 18.05 94.65 15.75 M73.5 27.15 L75.2 27.05 79.35 27.3 Q81.6 28.05 80.45 30.8 L80.35 30.95 83.6 30.95 84.0 31.05 84.05 31.05 84.0 31.35 84.0 31.4 84.2 31.25 84.25 31.1 84.05 30.95 Q84.55 27.4 89.1 27.4 92.45 27.4 95.3 29.1 L95.45 29.3 95.5 29.3 95.7 29.55 96.2 30.25 96.3 30.45 96.65 31.2 Q97.15 32.6 97.2 34.75 L97.2 36.65 97.15 39.7 97.1 41.15 Q97.25 44.5 98.6 46.55 95.35 45.3 91.1 45.1 85.3 44.9 82.85 42.7 81.25 41.2 78.5 40.0 L76.15 39.05 76.0 39.0 70.0 36.95 69.35 36.65 Q70.0 34.85 68.35 33.8 L68.3 33.8 68.15 33.7 66.55 33.15 Q67.95 32.0 69.0 29.2 69.65 28.35 70.7 27.9 71.85 27.3 73.5 27.15 M106.35 31.85 L107.55 31.25 Q109.1 30.6 111.5 30.6 117.25 30.6 118.15 35.95 L118.15 42.7 114.85 42.8 114.05 43.2 114.0 43.25 Q112.9 44.1 112.35 46.7 L112.8 46.9 Q109.1 47.55 106.8 46.0 104.45 44.45 103.1 41.25 L101.4 37.2 Q100.95 36.35 99.8 35.75 L97.85 35.6 97.85 32.4 Q99.3 32.4 99.5 31.95 100.35 31.3 100.85 31.4 101.6 31.55 102.45 32.05 103.65 32.75 105.45 34.15 L105.4 33.65 105.5 33.85 Q105.85 32.45 105.95 32.35 L106.0 32.3 106.35 31.85 M76.2 41.6 L77.45 42.6 Q78.55 43.7 79.7 45.45 L82.15 49.95 Q83.15 52.2 83.65 54.35 L84.3 57.45 84.4 58.0 84.55 59.15 84.55 59.2 84.65 59.7 86.3 58.55 84.65 59.7 84.55 59.2 84.55 59.15 84.6 57.0 84.65 53.75 86.55 50.4 Q87.25 49.45 89.8 49.45 92.45 49.45 96.95 54.5 L100.1 58.45 101.75 60.55 98.9 60.55 99.2 62.45 99.45 64.8 99.95 76.55 99.8 79.5 100.05 80.95 95.5 76.7 93.85 76.35 92.2 76.05 89.5 75.25 88.55 74.75 Q88.15 74.5 87.1 74.4 L85.6 74.25 84.25 74.15 Q80.85 74.05 79.65 72.95 L78.55 71.95 78.5 71.9 Q75.05 69.05 72.5 69.05 L72.05 69.05 71.05 69.2 Q70.45 69.6 70.75 71.2 70.25 69.9 69.0 68.7 L67.1 66.85 Q65.7 67.35 65.15 68.45 64.25 70.3 62.8 71.75 L61.6 72.7 56.85 74.8 Q54.9 75.65 54.1 76.95 53.75 75.4 54.8 69.7 53.75 75.4 54.1 76.95 53.6 77.65 53.5 78.5 L53.5 80.4 51.55 76.45 Q50.75 73.85 49.5 71.95 L49.1 69.9 48.55 67.25 48.55 67.2 Q47.9 64.4 44.65 65.1 L44.65 63.85 Q46.6 62.0 51.3 60.7 L54.3 60.0 56.25 59.7 56.7 59.65 56.05 58.5 55.4 56.35 Q54.05 51.9 54.05 50.45 54.05 46.25 56.55 43.9 58.35 42.15 60.85 41.85 L61.9 41.8 63.7 41.95 Q64.7 42.1 65.3 42.45 L65.4 42.55 Q66.5 43.5 67.35 46.5 L67.95 46.15 68.15 45.25 Q68.5 43.75 69.3 42.8 L69.45 42.6 Q70.95 40.8 73.9 40.8 L74.4 40.85 Q75.3 40.95 76.2 41.6 M31.2 3.25 L31.35 3.15 32.55 2.8 32.6 2.85 32.55 1.1 32.25 2.65 31.35 3.15 31.1 3.15 31.2 3.25 31.5 3.55 31.6 5.15 31.3 7.8 31.6 5.15 31.5 3.55 31.2 3.25 29.0 4.55 22.0 8.9 21.45 9.2 22.0 8.9 29.0 4.55 31.2 3.25 M35.9 6.9 Q35.85 4.95 34.4 3.85 L32.6 2.85 34.4 3.85 Q35.85 4.95 35.9 6.9 M23.4 5.7 Q25.45 3.0 31.1 3.15 25.45 3.0 23.4 5.7 M39.3 6.3 L39.85 5.25 40.5 4.7 39.85 5.25 39.3 6.3 M44.45 6.05 L44.4 6.05 44.35 6.4 44.45 6.05 Q45.05 6.2 45.5 6.5 L45.65 6.6 48.6 8.9 51.55 11.15 48.6 8.9 45.65 6.6 45.5 6.5 Q45.05 6.2 44.45 6.05 M78.1 20.65 L78.6 21.5 78.1 20.65 M86.45 13.7 L86.45 15.05 86.45 16.7 84.7 16.85 Q83.95 17.1 83.25 17.65 82.3 18.4 82.2 19.4 L78.7 15.55 76.25 13.05 Q74.75 11.65 73.95 11.4 L69.15 11.4 68.25 11.4 69.15 11.4 68.7 10.45 Q70.7 9.5 72.0 8.4 L77.2 7.8 77.7 7.8 77.9 7.8 Q78.15 6.15 79.45 5.55 L81.8 4.95 79.45 5.55 Q78.15 6.15 77.9 7.8 L77.7 7.8 77.2 7.8 72.0 8.4 Q70.7 9.5 68.7 10.45 L69.15 11.4 73.95 11.4 Q74.75 11.65 76.25 13.05 L78.7 15.55 82.2 19.4 Q82.3 18.4 83.25 17.65 83.95 17.1 84.7 16.85 83.55 14.45 80.35 12.65 77.7 11.15 77.2 7.8 77.7 11.15 80.35 12.65 83.55 14.45 84.7 16.85 L86.45 16.7 86.45 15.05 86.45 13.7 83.05 10.75 Q80.8 8.85 80.8 7.85 L82.3 8.0 Q83.6 8.3 85.1 9.05 L85.35 9.2 86.15 9.65 86.45 13.7 86.15 9.65 85.35 9.2 85.1 9.05 Q83.6 8.3 82.3 8.0 L80.8 7.85 Q80.8 8.85 83.05 10.75 L86.45 13.7 M85.35 9.2 L86.05 9.1 86.15 9.65 86.05 9.1 85.35 9.2 M44.4 4.35 L44.4 6.05 44.4 4.35 M82.2 19.4 Q82.1 19.95 82.35 20.55 82.1 19.95 82.2 19.4 M80.45 30.8 L74.85 30.5 Q69.65 30.85 68.35 33.65 L68.3 33.8 68.35 33.65 Q69.65 30.85 74.85 30.5 L80.45 30.8 M74.85 30.5 L74.15 31.2 Q72.95 32.6 72.25 34.1 L71.85 34.9 72.25 34.1 Q72.95 32.6 74.15 31.2 L74.85 30.5 M85.8 20.4 L83.55 20.9 85.8 20.4 M94.95 30.6 Q90.55 30.05 88.25 32.4 L86.55 31.85 84.25 31.1 86.55 31.85 88.25 32.4 Q90.55 30.05 94.95 30.6 M94.95 44.85 Q92.85 41.05 89.6 37.55 L84.4 31.5 84.2 31.25 84.4 31.5 89.6 37.55 Q92.85 41.05 94.95 44.85 M84.0 31.4 L83.9 31.45 83.95 31.65 84.0 31.45 84.0 31.4 M82.15 39.55 Q81.8 38.85 81.8 36.65 81.8 35.7 82.45 34.5 L83.8 32.0 83.95 31.65 83.8 32.0 82.45 34.5 Q81.8 35.7 81.8 36.65 81.8 38.85 82.15 39.55 M74.3 37.0 Q74.65 36.3 77.85 34.3 80.95 32.4 83.9 31.45 80.95 32.4 77.85 34.3 74.65 36.3 74.3 37.0 M69.15 11.4 L71.6 16.85 Q73.0 19.75 75.45 21.7 73.0 19.75 71.6 16.85 L69.15 11.4 M77.9 7.8 L80.8 7.85 77.9 7.8 M68.05 10.0 L67.85 10.15 67.75 10.15 67.8 10.2 67.9 10.3 67.95 10.2 68.05 10.0 M66.85 11.4 L67.55 11.0 67.55 10.65 66.5 11.0 66.85 11.0 66.85 11.4 M67.55 10.65 L67.75 10.15 67.55 10.65 M66.5 11.0 L61.7 10.65 Q56.95 11.35 55.5 12.1 56.95 11.35 61.7 10.65 L66.5 11.0 Q62.15 12.9 59.95 14.1 55.75 16.4 54.45 19.25 55.75 16.4 59.95 14.1 62.15 12.9 66.5 11.0 M9.7 34.3 L14.45 30.8 Q17.2 28.75 22.45 26.8 23.8 25.95 26.65 23.4 28.2 22.1 29.65 22.1 31.05 22.1 31.35 22.5 L31.75 23.85 31.85 24.4 Q32.1 24.1 32.45 23.9 32.85 23.6 33.4 23.35 L33.7 23.25 Q36.1 22.25 40.3 22.25 L41.9 22.4 43.6 22.55 45.0 21.35 Q46.15 20.3 48.45 20.1 L50.1 20.1 50.3 21.7 Q50.3 23.25 49.15 23.35 L46.45 23.55 Q45.7 23.8 45.3 24.8 L45.2 25.1 Q45.3 26.85 44.15 28.65 L42.95 30.2 40.7 32.15 Q35.8 35.9 29.8 36.1 L29.1 36.1 23.9 35.6 29.1 36.1 29.8 36.1 Q31.3 37.0 32.4 38.4 34.7 41.25 33.95 44.5 L33.45 44.9 33.3 45.0 Q27.3 43.85 21.15 45.1 19.8 45.4 17.5 46.65 15.35 47.9 13.6 48.2 15.35 47.9 17.5 46.65 19.8 45.4 21.15 45.1 27.3 43.85 33.3 45.0 L33.15 45.1 32.85 45.25 32.5 45.45 32.2 45.5 32.2 45.6 Q31.0 46.25 30.25 46.85 L29.5 47.45 26.2 51.25 29.5 47.45 30.25 46.85 Q31.0 46.25 32.2 45.6 L32.5 45.45 33.55 45.35 33.5 45.1 36.2 44.9 37.25 42.85 37.4 42.6 Q38.5 40.6 39.65 39.4 42.4 36.5 46.8 36.5 L47.85 36.55 49.35 36.75 Q51.25 37.25 51.25 38.65 51.25 40.2 49.3 44.2 L49.25 44.1 49.2 44.1 49.1 44.3 49.05 44.35 48.2 44.35 Q47.75 42.7 46.9 42.2 45.9 41.55 43.0 41.55 L40.35 42.1 37.4 42.6 40.35 42.1 43.0 41.55 Q45.9 41.55 46.9 42.2 47.75 42.7 48.2 44.35 L49.05 44.35 49.15 44.35 49.3 44.2 Q51.5 42.95 53.7 41.0 55.35 39.5 56.8 38.95 L58.55 38.55 59.0 38.75 Q59.8 39.3 60.85 41.85 58.35 42.15 56.55 43.9 54.05 46.25 54.05 50.45 54.05 51.9 55.4 56.35 52.0 58.85 42.9 60.8 39.05 61.6 34.55 65.05 L34.55 60.7 Q32.9 61.95 30.35 63.05 26.4 64.7 22.4 65.1 19.9 65.4 15.45 68.9 11.5 72.0 9.75 72.2 9.8 68.55 11.85 66.1 12.8 56.1 13.05 54.7 12.95 50.7 13.6 48.2 L14.3 46.35 Q18.55 44.25 18.35 42.6 17.85 41.05 19.35 38.8 L20.25 37.75 Q21.65 36.35 23.9 35.6 L10.35 34.25 9.7 34.3 0.0 40.75 Q2.9 34.55 9.7 34.3 M68.35 33.8 L68.35 33.65 68.35 33.8 M62.95 25.95 Q66.45 24.35 67.25 20.65 67.6 19.0 67.55 11.0 67.6 19.0 67.25 20.65 66.45 24.35 62.95 25.95 M57.05 28.3 L56.2 29.2 57.05 28.3 M51.75 54.95 L52.0 50.8 Q52.0 49.4 51.05 47.65 L49.15 44.35 51.05 47.65 Q52.0 49.4 52.0 50.8 L51.75 54.95 M59.35 60.25 L58.45 60.25 Q57.35 60.35 56.7 59.65 57.35 60.35 58.45 60.25 L59.35 60.25 59.35 60.3 59.6 60.3 59.6 60.25 59.4 60.25 59.35 60.25 M82.15 49.95 L80.3 48.4 Q79.2 47.7 77.05 47.7 L73.0 48.6 Q71.8 47.6 70.6 47.3 71.05 44.2 73.85 43.45 L77.45 42.6 73.85 43.45 Q71.05 44.2 70.6 47.3 71.8 47.6 73.0 48.6 L77.05 47.7 Q79.2 47.7 80.3 48.4 L82.15 49.95 M89.25 44.15 Q86.05 40.7 85.55 37.75 L84.4 31.5 85.55 37.75 Q86.05 40.7 89.25 44.15 M59.35 58.25 Q59.35 55.5 64.3 52.15 66.4 50.7 67.5 49.15 L67.5 47.2 67.8 47.2 67.95 46.15 67.8 47.2 68.75 47.2 67.8 47.2 67.5 47.2 67.5 49.15 68.0 52.65 Q67.8 55.65 66.65 57.3 65.4 59.05 65.4 59.55 65.4 59.05 66.65 57.3 67.8 55.65 68.0 52.65 L67.5 49.15 Q66.4 50.7 64.3 52.15 59.35 55.5 59.35 58.25 M56.55 54.7 Q56.7 52.55 61.6 49.65 63.75 48.35 67.35 46.5 63.75 48.35 61.6 49.65 56.7 52.55 56.55 54.7 M80.6 64.35 Q79.15 63.65 78.25 61.3 L77.05 57.75 77.05 53.85 78.05 55.5 84.8 65.65 80.75 65.0 76.8 64.35 76.45 64.3 75.05 64.1 68.3 62.9 63.9 61.45 63.0 61.0 Q61.3 60.3 59.6 60.25 61.3 60.3 63.0 61.0 L63.9 61.45 68.3 62.9 75.05 64.1 76.45 64.3 76.8 64.35 80.75 65.0 84.8 65.65 78.05 55.5 77.05 53.85 77.05 57.75 78.25 61.3 Q79.15 63.65 80.6 64.35 M77.05 53.85 L75.4 51.3 74.6 50.25 73.0 48.6 74.6 50.25 75.4 51.3 80.55 53.5 Q82.8 54.85 84.3 57.45 82.8 54.85 80.55 53.5 L75.4 51.3 77.05 53.85 M69.25 47.2 L70.6 47.3 70.5 47.95 70.6 47.3 69.25 47.2 M74.5 62.05 Q71.0 58.95 71.55 55.9 72.05 52.8 70.75 48.7 72.05 52.8 71.55 55.9 71.0 58.95 74.5 62.05 M44.2 8.3 L44.35 6.4 43.85 7.65 44.2 8.3 43.9 11.4 Q43.55 14.75 43.0 16.0 43.55 14.75 43.9 11.4 L44.2 8.3 Q45.8 11.0 46.05 13.2 L46.4 15.8 46.05 13.2 Q45.8 11.0 44.2 8.3 M40.65 29.35 Q37.6 28.85 34.95 25.2 L33.7 23.25 34.95 25.2 Q37.6 28.85 40.65 29.35 M35.2 33.0 Q33.6 29.0 33.4 26.45 L33.4 23.35 33.4 26.45 Q33.6 29.0 35.2 33.0 M19.0 33.9 Q19.75 31.7 27.4 27.0 L30.75 24.55 31.75 23.85 30.75 24.55 27.4 27.0 Q19.75 31.7 19.0 33.9 M40.85 14.2 Q40.95 11.7 42.4 9.8 L43.85 7.65 42.4 9.8 Q40.95 11.7 40.85 14.2 M20.25 37.75 Q24.15 37.7 28.2 40.5 L33.95 44.5 28.2 40.5 Q24.15 37.7 20.25 37.75 M26.0 51.45 Q24.45 52.95 22.9 55.65 L20.4 59.25 Q18.9 60.8 16.65 62.35 13.5 64.5 13.2 64.75 12.45 65.35 11.85 66.1 12.45 65.35 13.2 64.75 13.5 64.5 16.65 62.35 18.9 60.8 20.4 59.25 L22.9 55.65 Q24.45 52.95 26.0 51.45 L26.2 51.45 26.1 56.0 Q25.75 59.8 23.9 62.55 25.75 59.8 26.1 56.0 L26.2 51.45 26.2 51.25 26.0 51.45 M15.8 54.95 L23.4 49.35 Q28.4 46.1 32.2 45.5 28.4 46.1 23.4 49.35 L15.8 54.95 M48.5 43.6 Q48.95 43.6 49.25 44.1 48.95 43.6 48.5 43.6 M36.2 44.9 L34.55 48.7 34.55 60.7 34.55 48.7 36.2 44.9 36.8 44.85 36.2 44.9 M28.75 60.8 Q30.5 56.15 30.5 54.45 L30.25 46.85 30.5 54.45 Q30.5 56.15 28.75 60.8 M26.3 33.0 Q31.2 24.95 31.85 24.4 31.2 24.95 26.3 33.0 M31.4 34.25 Q29.55 28.15 32.45 23.9 29.55 28.15 31.4 34.25 M46.15 49.15 L43.35 53.15 34.55 65.05 43.35 53.15 46.15 49.15 47.05 47.75 49.05 44.35 47.05 47.75 46.15 49.15 46.25 50.45 Q46.75 51.35 46.75 53.35 46.75 57.9 45.4 58.75 46.75 57.9 46.75 53.35 46.75 51.35 46.25 50.45 L46.15 49.15 M47.05 47.75 L45.75 47.7 Q40.4 50.95 35.55 56.5 40.4 50.95 45.75 47.7 L47.05 47.75 M36.55 52.2 L39.85 47.4 Q41.55 44.95 44.9 44.6 L48.2 44.35 44.9 44.6 Q41.55 44.95 39.85 47.4 L36.55 52.2 M99.45 64.8 L98.55 64.05 Q96.15 62.2 93.4 60.85 L89.65 58.8 86.3 58.55 Q87.25 58.0 88.0 57.8 L92.1 57.65 Q93.85 58.4 99.2 62.45 93.85 58.4 92.1 57.65 L88.0 57.8 Q87.25 58.0 86.3 58.55 L89.65 58.8 93.4 60.85 Q96.15 62.2 98.55 64.05 L99.45 64.8 M92.1 53.4 Q85.8 53.0 84.6 57.0 85.8 53.0 92.1 53.4 M87.5 63.7 L87.15 67.8 Q87.15 70.3 87.95 72.0 L89.5 75.25 87.95 72.0 Q87.15 70.3 87.15 67.8 L87.5 63.7 M80.75 65.0 L80.75 67.65 Q81.25 69.6 85.6 74.25 81.25 69.6 80.75 67.65 L80.75 65.0 M84.8 61.25 L84.65 59.7 84.8 61.25 86.05 61.25 Q88.8 63.45 91.9 67.9 L91.75 70.85 93.85 76.35 91.75 70.85 91.9 67.9 Q88.8 63.45 86.05 61.25 L84.8 61.25 84.85 61.75 Q85.1 64.8 85.65 65.8 L84.8 65.65 85.65 65.8 Q85.1 64.8 84.85 61.75 L84.8 61.25 M76.45 64.3 Q72.95 66.45 72.05 69.05 72.95 66.45 76.45 64.3 M78.25 65.15 L78.25 69.75 78.55 71.9 78.5 71.9 78.55 71.9 78.25 69.75 78.25 65.15 M78.55 71.9 L78.55 71.95 78.55 71.9 M68.3 62.9 Q69.0 64.05 69.0 65.0 69.0 66.25 67.6 66.65 L67.1 66.85 67.6 66.65 Q69.0 66.25 69.0 65.0 69.0 64.05 68.3 62.9 M63.0 61.0 L63.4 62.8 Q63.9 63.95 63.9 65.1 63.9 67.35 63.15 68.7 63.9 67.35 63.9 65.1 63.9 63.95 63.4 62.8 L63.0 61.0 M99.8 79.5 Q99.1 77.55 96.2 76.8 L95.5 76.7 96.2 76.8 Q99.1 77.55 99.8 79.5 M59.6 70.95 Q60.1 67.45 60.1 64.7 60.1 62.8 59.6 60.3 60.1 62.8 60.1 64.7 60.1 67.45 59.6 70.95 M52.25 68.2 Q56.3 62.9 56.25 59.7 56.3 62.9 52.25 68.2 M49.75 65.6 L52.55 63.25 Q54.2 61.6 54.3 60.0 54.2 61.6 52.55 63.25 L49.75 65.6 M51.75 72.95 L55.9 66.9 Q58.6 62.7 59.35 60.3 58.6 62.7 55.9 66.9 L51.75 72.95 M67.75 10.15 Q65.1 7.3 61.5 6.05 65.1 7.3 67.75 10.15 M92.85 23.15 Q92.5 22.05 92.5 20.3 92.5 17.85 93.45 16.6 92.5 17.85 92.5 20.3 92.5 22.05 92.85 23.15 M96.8 18.2 L96.8 19.95 97.75 21.85 Q98.7 23.55 99.6 23.85 98.7 23.55 97.75 21.85 L96.8 19.95 96.8 18.2 M92.1 57.65 L92.85 57.65 100.1 58.45 92.85 57.65 92.1 57.65 M114.2 33.45 Q106.95 32.35 106.35 36.65 106.95 32.35 114.2 33.45 M116.4 39.2 L113.75 37.25 Q112.95 36.65 111.5 36.65 108.3 36.65 107.45 38.5 108.3 36.65 111.5 36.65 112.95 36.65 113.75 37.25 L116.4 39.2 M88.55 35.6 L90.7 35.6 Q93.05 35.7 95.2 37.6 L97.15 39.7 95.2 37.6 Q93.05 35.7 90.7 35.6 L88.55 35.6 M88.25 32.4 L90.7 32.75 Q93.15 32.75 97.2 36.65 93.15 32.75 90.7 32.75 L88.25 32.4 M105.45 34.15 Q105.55 36.75 106.5 39.3 L108.15 39.2 114.0 43.25 108.15 39.2 106.5 39.3 107.8 42.25 Q109.9 45.6 112.35 46.7 109.9 45.6 107.8 42.25 L106.5 39.3 Q105.55 36.75 105.45 34.15 M103.25 34.2 L101.55 34.45 Q100.6 34.7 99.8 35.75 100.6 34.7 101.55 34.45 L103.25 34.2 M91.9 67.9 L92.85 69.35 Q96.0 74.2 99.95 76.55 96.0 74.2 92.85 69.35 L91.9 67.9" fill="#009900" fill-rule="evenodd" stroke="none"/>
    <path d="M49.85 13.6 Q52.5 17.7 53.3 20.8 L53.05 22.3 52.55 25.6 Q52.4 20.15 48.95 14.4 L49.85 13.6 M83.55 20.9 Q79.15 21.95 76.8 23.6 75.3 24.65 73.5 27.15 71.85 27.3 70.7 27.9 72.55 24.8 75.55 22.45 L77.7 21.8 78.6 21.5 82.5 21.0 82.35 20.55 83.55 20.9 M95.3 29.1 L95.55 29.25 Q95.15 28.55 95.8 29.35 L97.2 29.25 101.7 29.6 Q103.55 30.1 106.3 31.85 L106.35 31.85 106.0 32.3 105.95 32.35 Q105.85 32.45 105.5 33.85 L105.4 33.65 Q104.05 31.6 103.2 31.25 L101.75 30.65 98.05 30.35 96.3 30.45 96.2 30.25 95.7 29.55 95.5 29.3 95.45 29.3 95.3 29.1 M78.5 40.0 L77.8 40.3 Q76.65 40.85 76.2 41.6 75.3 40.95 74.4 40.85 75.0 39.55 76.15 39.05 L78.5 40.0 M68.45 25.65 Q67.1 28.9 66.15 32.75 65.15 36.55 65.0 38.5 64.85 40.4 65.3 42.45 64.7 42.1 63.7 41.95 L63.6 38.85 Q63.6 35.85 64.4 33.05 L65.55 27.4 Q66.75 27.25 68.45 25.65 M68.15 45.25 Q67.65 42.0 67.65 39.85 67.65 36.6 68.35 33.8 70.0 34.85 69.35 36.65 L70.0 36.95 Q69.35 38.1 69.35 39.05 L69.45 42.6 69.3 42.8 Q68.5 43.75 68.15 45.25 M57.25 29.4 Q58.1 28.95 59.0 28.65 L59.0 38.75 58.55 38.55 56.8 38.95 54.25 30.3 55.6 29.9 56.35 31.65 Q57.15 33.2 57.25 34.45 L57.25 29.4 M44.15 28.65 Q46.9 30.65 48.2 33.2 49.05 34.85 49.35 36.75 L47.85 36.55 Q48.15 32.45 42.95 30.2 L44.15 28.65" fill="#003300" fill-rule="evenodd" stroke="none"/>
    <path d="M41.6 68.3 L41.6 68.25 Q42.2 67.5 48.55 67.2 L48.55 67.25 49.1 69.9 45.2 69.75 Q41.8 69.55 41.6 68.3 M62.8 71.75 Q64.25 70.3 65.15 68.45 65.7 67.35 67.1 66.85 L69.0 68.7 Q70.25 69.9 70.75 71.2 70.45 69.6 71.05 69.2 L72.05 69.05 72.5 69.05 Q75.05 69.05 78.5 71.9 L73.65 72.35 73.6 72.35 62.8 71.75" fill="#3c1e00" fill-rule="evenodd" stroke="none"/>
    <path d="M41.6 68.3 Q41.8 69.55 45.2 69.75 L49.1 69.9 49.5 71.95 Q50.75 73.85 51.55 76.45 L53.5 80.4 53.5 78.5 Q53.6 77.65 54.1 76.95 54.9 75.65 56.85 74.8 L61.6 72.7 62.8 71.75 73.6 72.35 Q79.45 110.75 51.5 111.75 47.55 110.6 43.65 108.75 L41.6 68.3" fill="#febb56" fill-rule="evenodd" stroke="none"/>
    <path d="M73.6 72.35 L73.65 72.35 78.5 71.9 78.55 71.95 79.65 72.95 Q80.85 74.05 84.25 74.15 L85.6 74.25 87.1 74.4 83.0 109.95 Q66.95 116.2 51.5 111.75 79.45 110.75 73.6 72.35" fill="#f7a002" fill-rule="evenodd" stroke="none"/>
    <path d="M48.95 14.4 L47.55 15.3 46.4 15.8 Q41.05 17.9 38.35 19.25 L38.35 7.45 39.3 6.3 35.9 6.9 31.3 7.8 29.8 8.15 Q28.15 9.1 23.85 9.6 L21.45 9.75 21.45 9.2 Q21.65 5.65 24.55 3.1 28.0 0.0 29.25 0.0 L31.3 0.2 Q32.3 0.7 32.55 1.1 L36.25 1.05 39.0 1.2 Q39.55 1.45 40.5 3.2 L40.5 4.7 Q41.25 4.25 42.45 4.25 L44.4 4.35 44.4 4.25 47.05 2.45 Q51.45 3.9 51.9 4.6 52.25 5.15 52.25 7.45 52.25 9.5 51.55 11.15 50.95 12.5 49.85 13.6 52.5 17.7 53.3 20.8 L53.65 17.85 55.5 12.1 55.85 10.3 Q56.2 6.75 57.8 5.6 59.1 4.6 62.4 4.6 65.75 4.6 66.85 5.55 68.15 6.65 68.05 10.0 70.35 4.95 70.75 4.5 72.7 2.1 77.35 2.1 83.05 2.1 85.0 5.7 85.7 6.95 86.05 9.1 88.35 9.05 90.45 11.25 92.0 12.8 93.95 16.1 L94.6 15.65 94.65 15.75 94.65 15.65 94.45 12.3 Q94.4 11.4 96.75 11.4 98.4 11.4 102.1 13.3 L102.25 21.4 Q102.45 23.1 103.15 25.25 103.95 26.75 104.2 28.2 L104.55 29.15 104.45 29.05 104.25 28.75 103.9 28.35 102.6 26.85 Q101.2 25.3 100.3 25.25 L92.1 24.9 Q90.25 24.3 89.55 23.2 88.75 22.05 87.85 21.7 L86.4 21.5 83.55 20.9 Q79.15 21.95 76.8 23.6 75.3 24.65 73.5 27.15 L75.2 27.05 79.35 27.3 Q81.6 28.05 80.45 30.8 L80.35 30.95 83.6 30.95 83.95 30.95 84.05 30.95 Q84.55 27.4 89.1 27.4 92.45 27.4 95.3 29.1 L95.55 29.25 M95.8 29.35 L97.2 29.25 101.7 29.6 Q103.55 30.1 106.3 31.85 L106.35 31.85 107.55 31.25 Q109.1 30.6 111.5 30.6 117.25 30.6 118.15 35.95 L118.15 42.7 114.85 42.8 114.05 43.2 114.0 43.25 Q112.9 44.1 112.35 46.7 L112.8 46.9 Q109.1 47.55 106.8 46.0 104.45 44.45 103.1 41.25 L101.4 37.2 Q100.95 36.35 99.8 35.75 L97.85 35.6 97.85 32.4 Q99.3 32.4 99.5 31.95 100.35 31.3 100.85 31.4 M105.4 33.65 Q104.05 31.6 103.2 31.25 L101.75 30.65 98.05 30.35 96.3 30.45 M96.65 31.2 Q97.15 32.6 97.2 34.75 L97.2 36.65 97.15 39.7 97.1 41.15 Q97.25 44.5 98.6 46.55 95.35 45.3 91.1 45.1 85.3 44.9 82.85 42.7 81.25 41.2 78.5 40.0 L77.8 40.3 Q76.65 40.85 76.2 41.6 L77.45 42.6 Q78.55 43.7 79.7 45.45 L82.15 49.95 Q83.15 52.2 83.65 54.35 L84.3 57.45 84.4 58.0 84.5 57.45 84.6 57.0 84.65 53.75 86.55 50.4 Q87.25 49.45 89.8 49.45 92.45 49.45 96.95 54.5 L100.1 58.45 101.75 60.55 98.9 60.55 99.2 62.45 99.45 64.8 99.95 76.55 99.8 79.5 100.05 80.95 100.05 81.2 99.95 81.9 M32.6 2.85 L32.55 2.8 31.35 3.15 31.2 3.25 31.5 3.55 31.6 5.15 31.3 7.8 M32.55 1.1 L32.6 2.85 34.4 3.85 Q35.85 4.95 35.9 6.9 M32.55 1.1 L32.25 2.65 32.55 2.8 M31.35 3.15 L31.1 3.15 31.2 3.25 29.0 4.55 22.0 8.9 21.45 9.2 M31.1 3.15 Q25.45 3.0 23.4 5.7 M32.25 2.65 L31.35 3.15 M40.5 4.7 L39.85 5.25 39.3 6.3 M44.45 6.05 L44.4 6.05 44.35 6.4 43.85 7.65 44.2 8.3 Q45.8 11.0 46.05 13.2 L46.4 15.8 M44.45 6.05 Q45.05 6.2 45.5 6.5 L45.65 6.6 48.6 8.9 51.55 11.15 M44.4 6.05 L44.4 4.35 M68.25 11.4 L69.15 11.4 68.7 10.45 Q70.7 9.5 72.0 8.4 L77.2 7.8 77.7 7.8 77.9 7.8 Q78.15 6.15 79.45 5.55 L81.8 4.95 M85.1 9.05 Q83.6 8.3 82.3 8.0 L80.8 7.85 Q80.8 8.85 83.05 10.75 L86.45 13.7 86.15 9.65 85.35 9.2 85.1 9.05 M86.15 9.65 L86.05 9.1 85.35 9.2 M69.15 11.4 L73.95 11.4 Q74.75 11.65 76.25 13.05 L78.7 15.55 82.2 19.4 Q82.3 18.4 83.25 17.65 83.95 17.1 84.7 16.85 83.55 14.45 80.35 12.65 77.7 11.15 77.2 7.8 M84.7 16.85 L86.45 16.7 86.45 15.05 86.45 13.7 M75.55 22.45 L78.1 20.65 77.55 19.45 76.15 16.7 76.25 13.05 M78.6 21.5 L78.1 20.65 M75.55 22.45 L77.7 21.8 78.6 21.5 82.5 21.0 82.35 20.55 Q82.1 19.95 82.2 19.4 M73.5 27.15 Q71.85 27.3 70.7 27.9 69.65 28.35 69.0 29.2 67.95 32.0 66.55 33.15 L68.15 33.7 68.3 33.8 68.35 33.65 Q69.65 30.85 74.85 30.5 L80.45 30.8 M75.55 22.45 L72.9 22.75 Q71.05 22.85 68.95 25.1 L68.45 25.65 Q67.1 28.9 66.15 32.75 65.15 36.55 65.0 38.5 64.85 40.4 65.3 42.45 L65.4 42.55 Q66.5 43.5 67.35 46.5 L67.95 46.15 68.15 45.25 Q67.65 42.0 67.65 39.85 67.65 36.6 68.35 33.8 L68.3 33.8 M70.7 27.9 Q72.55 24.8 75.55 22.45 M71.85 34.9 L72.25 34.1 Q72.95 32.6 74.15 31.2 L74.85 30.5 M82.35 20.55 L83.55 20.9 85.8 20.4 M84.05 31.05 L84.0 31.05 84.05 31.05 84.15 31.2 84.2 31.25 84.4 31.5 89.6 37.55 Q92.85 41.05 94.95 44.85 M84.25 31.1 L84.05 31.05 84.05 30.95 84.25 31.1 86.55 31.85 88.25 32.4 Q90.55 30.05 94.95 30.6 M84.0 31.05 L83.95 30.95 M84.05 31.05 L84.0 31.35 84.0 31.4 84.0 31.45 83.95 31.65 83.8 32.0 82.45 34.5 Q81.8 35.7 81.8 36.65 81.8 38.85 82.15 39.55 M83.9 31.45 L84.0 31.4 M83.9 31.45 Q80.95 32.4 77.85 34.3 74.65 36.3 74.3 37.0 M83.6 30.95 L84.0 31.05 M80.8 7.85 L77.9 7.8 M75.45 21.7 Q73.0 19.75 71.6 16.85 L69.15 11.4 M86.4 21.5 Q86.45 17.9 89.95 16.8 91.6 16.25 92.95 16.25 90.2 14.25 87.15 13.85 M67.75 10.15 L67.8 10.2 67.9 10.3 67.95 10.2 68.05 10.0 M66.85 11.4 L67.55 11.0 67.55 10.65 66.5 11.0 66.85 11.0 66.85 11.4 Q65.2 12.4 63.65 14.35 63.55 17.25 61.0 22.15 59.05 26.0 57.05 28.3 L57.25 29.4 Q58.1 28.95 59.0 28.65 61.85 27.6 65.4 27.4 L65.55 27.4 Q66.75 27.25 68.45 25.65 M67.75 10.15 L67.55 10.65 M63.65 14.35 L62.95 15.3 59.35 21.45 Q55.45 28.25 50.8 30.3 L49.0 32.35 Q50.15 31.5 54.25 30.3 L55.6 29.9 56.9 29.55 57.25 29.4 57.25 34.45 Q57.15 33.2 56.35 31.65 L55.6 29.9 M66.5 11.0 Q62.15 12.9 59.95 14.1 55.75 16.4 54.45 19.25 M55.5 12.1 Q56.95 11.35 61.7 10.65 L66.5 11.0 M52.55 25.6 L53.05 22.3 53.3 20.8 M9.7 34.3 L14.45 30.8 Q17.2 28.75 22.45 26.8 23.8 25.95 26.65 23.4 28.2 22.1 29.65 22.1 31.05 22.1 31.35 22.5 L31.75 23.85 31.85 24.4 Q32.1 24.1 32.45 23.9 32.85 23.6 33.4 23.35 L33.7 23.25 Q36.1 22.25 40.3 22.25 L41.9 22.4 43.6 22.55 45.0 21.35 Q46.15 20.3 48.45 20.1 L50.1 20.1 50.3 21.7 Q50.3 23.25 49.15 23.35 L46.45 23.55 Q45.7 23.8 45.3 24.8 L45.2 25.1 M44.15 28.65 Q46.9 30.65 48.2 33.2 L49.0 32.35 M50.8 30.3 Q52.05 28.65 52.25 27.4 L52.5 26.1 52.55 25.6 Q52.4 20.15 48.95 14.4 L49.85 13.6 M56.2 29.2 L57.05 28.3 M67.55 11.0 Q67.6 19.0 67.25 20.65 66.45 24.35 62.95 25.95 M68.35 33.65 L68.35 33.8 Q70.0 34.85 69.35 36.65 L70.0 36.95 76.0 39.0 76.15 39.05 78.5 40.0 M63.7 41.95 L63.6 38.85 Q63.6 35.85 64.4 33.05 L65.55 27.4 M59.0 38.75 Q59.8 39.3 60.85 41.85 L61.9 41.8 63.7 41.95 Q64.7 42.1 65.3 42.45 M70.0 36.95 Q69.35 38.1 69.35 39.05 L69.45 42.6 Q70.95 40.8 73.9 40.8 L74.4 40.85 Q75.0 39.55 76.15 39.05 M69.45 42.6 L69.3 42.8 Q68.5 43.75 68.15 45.25 M56.8 38.95 L58.55 38.55 59.0 38.75 59.0 28.65 M56.8 38.95 Q55.35 39.5 53.7 41.0 51.5 42.95 49.3 44.2 51.25 40.2 51.25 38.65 51.25 37.25 49.35 36.75 49.05 34.85 48.2 33.2 M49.15 44.35 L51.05 47.65 Q52.0 49.4 52.0 50.8 L51.75 54.95 M60.85 41.85 Q58.35 42.15 56.55 43.9 54.05 46.25 54.05 50.45 54.05 51.9 55.4 56.35 L56.05 58.5 56.7 59.65 Q57.35 60.35 58.45 60.25 L59.35 60.25 59.4 60.25 59.6 60.25 Q61.3 60.3 63.0 61.0 L63.9 61.45 68.3 62.9 75.05 64.1 76.45 64.3 76.8 64.35 80.75 65.0 84.8 65.65 78.05 55.5 77.05 53.85 77.05 57.75 78.25 61.3 Q79.15 63.65 80.6 64.35 M67.95 46.15 L67.8 47.2 68.75 47.2 M67.8 47.2 L67.5 47.2 67.5 49.15 68.0 52.65 Q67.8 55.65 66.65 57.3 65.4 59.05 65.4 59.55 M67.35 46.5 Q63.75 48.35 61.6 49.65 56.7 52.55 56.55 54.7 M67.5 49.15 Q66.4 50.7 64.3 52.15 59.35 55.5 59.35 58.25 M84.4 31.5 L85.55 37.75 Q86.05 40.7 89.25 44.15 M77.45 42.6 L73.85 43.45 Q71.05 44.2 70.6 47.3 71.8 47.6 73.0 48.6 L77.05 47.7 Q79.2 47.7 80.3 48.4 L82.15 49.95 M74.4 40.85 Q75.3 40.95 76.2 41.6 M70.75 48.7 Q72.05 52.8 71.55 55.9 71.0 58.95 74.5 62.05 M70.5 47.95 L70.6 47.3 69.25 47.2 M73.0 48.6 L74.6 50.25 75.4 51.3 80.55 53.5 Q82.8 54.85 84.3 57.45 M75.4 51.3 L77.05 53.85 M54.25 30.3 L56.8 38.95 M44.2 8.3 L44.35 6.4 M43.85 7.65 L42.4 9.8 Q40.95 11.7 40.85 14.2 M43.0 16.0 Q43.55 14.75 43.9 11.4 L44.2 8.3 M31.75 23.85 L30.75 24.55 27.4 27.0 Q19.75 31.7 19.0 33.9 M33.4 23.35 L33.4 26.45 Q33.6 29.0 35.2 33.0 M33.7 23.25 L34.95 25.2 Q37.6 28.85 40.65 29.35 M42.95 30.2 Q48.15 32.45 47.85 36.55 L49.35 36.75 M33.95 44.5 L28.2 40.5 Q24.15 37.7 20.25 37.75 L19.35 38.8 Q17.85 41.05 18.35 42.6 18.55 44.25 14.3 46.35 L13.6 48.2 Q15.35 47.9 17.5 46.65 19.8 45.4 21.15 45.1 27.3 43.85 33.3 45.0 L33.45 44.9 33.95 44.5 Q34.7 41.25 32.4 38.4 31.3 37.0 29.8 36.1 M20.25 37.75 Q21.65 36.35 23.9 35.6 M9.7 34.3 L0.0 40.75 M13.6 48.2 Q12.95 50.7 13.05 54.7 12.8 56.1 11.85 66.1 12.45 65.35 13.2 64.75 13.5 64.5 16.65 62.35 18.9 60.8 20.4 59.25 L22.9 55.65 Q24.45 52.95 26.0 51.45 L26.2 51.25 29.5 47.45 30.25 46.85 Q31.0 46.25 32.2 45.6 M32.2 45.5 Q28.4 46.1 23.4 49.35 L15.8 54.95 M26.2 51.45 L26.2 51.25 M23.9 62.55 Q25.75 59.8 26.1 56.0 L26.2 51.45 M47.85 36.55 L46.8 36.5 Q42.4 36.5 39.65 39.4 38.5 40.6 37.4 42.6 L40.35 42.1 43.0 41.55 Q45.9 41.55 46.9 42.2 47.75 42.7 48.2 44.35 L49.05 44.35 49.1 44.3 49.2 44.1 49.25 44.1 Q48.95 43.6 48.5 43.6 M49.25 44.1 L49.3 44.2 M37.4 42.6 L37.25 42.85 36.2 44.9 36.8 44.85 M34.55 60.7 L34.55 48.7 36.2 44.9 33.5 45.1 33.55 45.35 32.5 45.45 32.2 45.6 M33.15 45.1 L33.5 45.1 33.45 44.9 M33.3 45.0 L33.15 45.1 32.85 45.25 32.5 45.45 32.2 45.5 M30.25 46.85 L30.5 54.45 Q30.5 56.15 28.75 60.8 M49.05 44.35 L49.15 44.35 49.1 44.3 M49.05 44.35 L47.05 47.75 46.15 49.15 46.25 50.45 Q46.75 51.35 46.75 53.35 46.75 57.9 45.4 58.75 M48.2 44.35 L44.9 44.6 Q41.55 44.95 39.85 47.4 L36.55 52.2 M35.55 56.5 Q40.4 50.95 45.75 47.7 L47.05 47.75 M34.55 65.05 L43.35 53.15 46.15 49.15 M32.45 23.9 Q29.55 28.15 31.4 34.25 M31.85 24.4 Q31.2 24.95 26.3 33.0 M48.55 67.2 Q42.2 67.5 41.6 68.25 L41.6 68.3 Q41.8 69.55 45.2 69.75 L49.1 69.9 48.55 67.25 48.55 67.2 Q47.9 64.4 44.65 65.1 L44.65 63.85 Q46.6 62.0 51.3 60.7 L54.3 60.0 56.25 59.7 56.7 59.65 M55.4 56.35 Q52.0 58.85 42.9 60.8 39.05 61.6 34.55 65.05 L34.55 60.7 Q32.9 61.95 30.35 63.05 26.4 64.7 22.4 65.1 19.9 65.4 15.45 68.9 11.5 72.0 9.75 72.2 9.8 68.55 11.85 66.1 M99.2 62.45 Q93.85 58.4 92.1 57.65 L88.0 57.8 Q87.25 58.0 86.3 58.55 L89.65 58.8 93.4 60.85 Q96.15 62.2 98.55 64.05 L99.45 64.8 M84.55 59.15 L84.55 59.2 84.65 59.7 86.3 58.55 M84.55 59.15 L84.6 57.0 Q85.8 53.0 92.1 53.4 M93.85 76.35 L91.75 70.85 91.9 67.9 Q88.8 63.45 86.05 61.25 L84.8 61.25 84.85 61.75 Q85.1 64.8 85.65 65.8 L84.8 65.65 M84.65 59.7 L84.8 61.25 M85.6 74.25 Q81.25 69.6 80.75 67.65 L80.75 65.0 M89.5 75.25 L87.95 72.0 Q87.15 70.3 87.15 67.8 L87.5 63.7 M78.5 71.9 Q75.05 69.05 72.5 69.05 L72.05 69.05 71.05 69.2 Q70.45 69.6 70.75 71.2 70.25 69.9 69.0 68.7 L67.1 66.85 Q65.7 67.35 65.15 68.45 64.25 70.3 62.8 71.75 L73.6 72.35 73.65 72.35 78.5 71.9 78.55 71.9 78.25 69.75 78.25 65.15 M72.05 69.05 Q72.95 66.45 76.45 64.3 M87.1 74.4 L85.6 74.25 84.25 74.15 Q80.85 74.05 79.65 72.95 L78.55 71.95 78.5 71.9 M78.55 71.95 L78.55 71.9 M87.1 74.4 Q88.15 74.5 88.55 74.75 L89.5 75.25 92.2 76.05 93.85 76.35 95.5 76.7 96.2 76.8 Q99.1 77.55 99.8 79.5 M63.15 68.7 Q63.9 67.35 63.9 65.1 63.9 63.95 63.4 62.8 L63.0 61.0 M67.1 66.85 L67.6 66.65 Q69.0 66.25 69.0 65.0 69.0 64.05 68.3 62.9 M59.35 60.3 L59.4 60.25 M59.6 60.3 Q60.1 62.8 60.1 64.7 60.1 67.45 59.6 70.95 M59.6 60.3 L59.35 60.3 Q58.6 62.7 55.9 66.9 L51.75 72.95 M54.3 60.0 Q54.2 61.6 52.55 63.25 L49.75 65.6 M56.25 59.7 Q56.3 62.9 52.25 68.2 M54.1 76.95 Q54.9 75.65 56.85 74.8 L61.6 72.7 62.8 71.75 M54.1 76.95 Q53.75 75.4 54.8 69.7 M49.1 69.9 L49.5 71.95 Q50.75 73.85 51.55 76.45 L53.5 80.4 53.5 78.5 Q53.6 77.65 54.1 76.95 M61.5 6.05 Q65.1 7.3 67.75 10.15 M92.95 16.25 L93.75 16.3 93.95 16.1 94.1 16.35 94.25 16.35 Q94.65 16.2 94.65 15.75 L96.65 18.05 96.8 18.2 99.7 21.0 Q102.0 23.2 103.15 25.25 M94.1 16.35 L93.75 16.3 93.45 16.6 Q92.5 17.85 92.5 20.3 92.5 22.05 92.85 23.15 M92.95 16.25 L93.45 16.6 M99.6 23.85 Q98.7 23.55 97.75 21.85 L96.8 19.95 96.8 18.2 M96.2 30.25 L96.3 30.45 M95.3 29.1 L95.45 29.3 M104.25 28.75 L104.2 28.2 M105.4 33.65 L105.5 33.85 M105.95 32.35 L106.0 32.3 106.35 31.85 M99.8 35.75 Q100.6 34.7 101.55 34.45 L103.25 34.2 M114.0 43.25 L108.15 39.2 106.5 39.3 107.8 42.25 Q109.9 45.6 112.35 46.7 M106.5 39.3 Q105.55 36.75 105.45 34.15 M97.2 36.65 Q93.15 32.75 90.7 32.75 L88.25 32.4 M97.15 39.7 L95.2 37.6 Q93.05 35.7 90.7 35.6 L88.55 35.6 M107.45 38.5 Q108.3 36.65 111.5 36.65 112.95 36.65 113.75 37.25 L116.4 39.2 M106.35 36.65 Q106.95 32.35 114.2 33.45 M100.1 58.45 L92.85 57.65 92.1 57.65 M100.05 80.95 L95.5 76.7 M99.95 76.55 Q96.0 74.2 92.85 69.35 L91.9 67.9 M51.5 111.75 Q66.95 116.2 83.0 109.95 L87.1 74.4 M41.6 68.3 L43.65 108.75 Q47.55 110.6 51.5 111.75" fill="none" stroke="#000000" stroke-linecap="round" stroke-linejoin="round" stroke-width="1.0"/>
    <path d="M100.85 31.4 Q101.6 31.55 102.45 32.05 103.65 32.75 105.45 34.15 L105.4 33.65 M96.3 30.45 L96.65 31.2 M45.2 25.1 Q45.3 26.85 44.15 28.65 L42.95 30.2 M23.9 35.6 L29.1 36.1 29.8 36.1 Q35.8 35.9 40.7 32.15 L42.95 30.2 M23.9 35.6 L10.35 34.25 9.7 34.3 M0.0 40.75 Q2.9 34.55 9.7 34.3 M95.45 29.3 L95.5 29.3 95.7 29.55 96.2 30.25 M105.5 33.85 Q105.85 32.45 105.95 32.35" fill="none" stroke="#000000" stroke-linecap="round" stroke-linejoin="round" stroke-width="1.0"/>
  </g>
</svg>
