<?xml version="1.0" encoding="UTF-8" standalone="no"?>
<svg xmlns:xlink="http://www.w3.org/1999/xlink" height="123.7px" width="134.45px" xmlns="http://www.w3.org/2000/svg">
  <g transform="matrix(1.0, 0.0, 0.0, 1.0, 0.5, 0.5)">
    <path d="M0.0 6.3 L0.0 5.7 55.85 0.0 55.85 0.1 133.2 17.4 133.2 18.45 77.3 26.65 77.3 26.1 0.0 6.3 M130.6 29.0 L133.45 30.8 133.2 30.8 133.2 30.85 77.75 38.9 77.3 38.8 0.25 19.0 3.0 18.15 3.05 18.2 77.3 36.95 130.6 29.0 M70.6 73.45 L70.6 76.0 56.15 71.45 60.5 70.5 60.6 70.5 70.6 73.45 M70.6 99.15 L70.6 103.55 5.45 82.35 5.45 82.0 10.95 81.05 12.25 80.85 12.9 81.05 12.25 80.85 10.95 80.45 10.95 77.8 49.9 69.8 50.7 69.95 55.35 70.85 55.45 71.3 13.05 80.6 12.9 81.05 21.7 83.8 70.6 99.15 M83.7 100.4 L112.4 93.4 118.85 91.8 119.65 91.95 120.9 92.15 125.65 93.15 83.7 104.2 83.7 100.4 M83.7 80.15 L83.7 77.35 119.65 87.95 119.65 91.6 83.7 80.15" fill="#ffcc99" fill-rule="evenodd" stroke="none"/>
    <path d="M0.0 6.3 L77.3 26.1 77.3 26.65 77.3 34.1 2.85 15.4 0.0 14.7 0.0 6.3 M126.4 109.05 L119.65 107.4 119.65 99.0 126.4 97.2 126.4 109.05 M77.3 122.35 L70.6 119.95 70.6 108.1 10.5 88.05 5.45 86.4 5.45 86.3 5.35 86.35 5.45 86.4 5.45 96.45 4.65 96.65 0.8 95.3 0.3 95.1 0.0 95.0 0.0 19.05 0.25 19.0 77.3 38.8 77.3 39.0 77.3 122.35 M55.85 45.8 L50.7 44.45 55.85 45.8 55.85 70.85 55.35 70.85 50.7 69.95 50.7 69.6 50.7 44.45 10.95 34.1 5.45 32.65 5.45 82.0 5.45 82.35 70.6 103.55 70.6 99.15 70.6 80.6 70.6 76.0 70.6 80.6 60.55 77.55 55.85 76.1 55.85 76.05 55.85 71.45 56.15 71.45 70.6 76.0 70.6 73.45 70.6 49.65 60.85 47.1 55.85 45.8 M70.6 108.1 L70.6 103.55 70.6 108.1 M5.45 82.35 L5.45 86.3 5.45 82.35 M55.75 76.1 L55.85 76.1 55.85 81.9 55.75 81.9 55.75 87.5 55.65 87.5 50.65 85.9 50.7 79.3 50.7 77.25 55.75 76.1 M119.65 44.15 L126.4 43.0 126.4 92.95 125.95 93.1 125.65 93.15 120.9 92.15 119.65 91.6 118.85 91.8 112.4 93.4 83.7 84.6 83.7 80.15 119.65 91.6 119.65 87.95 119.65 44.15" fill="#bb5e00" fill-rule="evenodd" stroke="none"/>
    <path d="M3.05 18.15 L2.85 15.4 77.3 34.1 77.3 34.35 77.3 36.95 3.05 18.2 3.05 18.15" fill="#db6f02" fill-rule="evenodd" stroke="none"/>
    <path d="M77.3 26.65 L133.2 18.45 133.2 26.05 130.6 26.4 77.9 34.25 77.3 34.1 77.3 26.65 M133.2 30.95 L133.2 107.15 126.4 109.05 126.4 97.2 126.4 93.45 126.4 97.2 119.65 99.0 83.7 108.5 83.7 121.2 78.35 122.7 77.3 122.35 77.3 39.0 77.75 38.9 133.2 30.85 133.2 30.95 M10.5 88.05 L10.5 95.25 5.45 96.45 5.45 86.4 10.5 88.05 M55.85 45.8 L60.85 47.1 60.6 70.45 60.5 70.5 56.15 71.45 55.85 70.85 55.85 45.8 M5.45 82.0 L5.45 32.65 10.95 34.1 10.95 77.8 10.95 80.45 10.95 81.05 5.45 82.0 M21.7 83.8 L12.9 81.05 13.05 80.6 55.45 71.3 55.85 71.2 55.85 71.35 55.85 71.45 55.85 76.05 55.75 76.1 50.7 77.25 21.7 83.8 M55.85 76.1 L60.55 77.55 60.45 85.65 55.75 87.5 55.75 81.9 55.85 81.95 55.85 81.9 55.85 76.1 M126.4 92.95 L126.4 43.0 119.65 44.15 83.7 50.45 83.7 77.35 83.7 80.15 83.7 84.6 83.7 100.4 83.7 104.2 125.65 93.15 125.95 93.1 126.4 93.45 126.4 92.95 M83.7 108.5 L83.7 104.2 83.7 108.5" fill="#804000" fill-rule="evenodd" stroke="none"/>
    <path d="M130.6 26.4 L130.6 29.0 77.3 36.95 77.3 34.35 77.9 34.25 130.6 26.4" fill="#5e2f00" fill-rule="evenodd" stroke="none"/>
    <path d="M133.2 18.45 L133.2 17.4 55.85 0.1 55.85 0.0 0.0 5.7 0.0 6.3 77.3 26.1 77.3 26.65 133.2 18.45 133.2 26.05 130.6 26.4 130.6 29.0 133.45 30.8 133.2 30.95 133.2 107.15 126.4 109.05 119.65 107.4 119.65 99.0 83.7 108.5 83.7 121.2 78.35 122.7 77.3 122.35 70.6 119.95 70.6 108.1 10.5 88.05 10.5 95.25 5.45 96.45 5.45 96.95 4.65 96.65 0.8 95.3 M0.3 95.1 L0.0 95.0 0.0 19.05 0.0 18.95 0.25 19.0 3.0 18.15 3.05 18.15 2.85 15.4 0.0 14.7 0.0 6.3 M3.05 18.2 L3.05 18.15 M50.7 44.45 L55.85 45.8 60.85 47.1 70.6 49.65 70.6 73.45 70.6 76.0 70.6 80.6 70.6 99.15 70.6 103.55 70.6 108.1 M5.45 82.0 L5.45 32.65 10.95 34.1 50.7 44.45 50.7 69.6 50.7 69.95 55.35 70.85 M55.85 70.85 L55.85 45.8 M0.25 19.0 L0.0 19.05 M21.7 83.8 L12.9 81.05 12.25 80.85 10.95 81.05 5.45 82.0 5.45 82.35 70.6 103.55 M13.05 80.6 L55.45 71.3 M10.95 80.45 L10.95 81.05 M10.95 80.45 L12.25 80.85 M5.45 86.3 L5.45 86.4 10.5 88.05 M5.45 86.4 L5.35 86.35 5.45 86.3 5.45 82.35 M10.95 77.8 L10.95 80.45 M4.65 96.65 L5.45 96.45 5.45 86.4 M60.6 70.45 L60.6 70.5 70.6 73.45 M60.5 70.5 L60.6 70.45 60.85 47.1 M60.6 70.5 L60.5 70.5 56.15 71.45 70.6 76.0 M55.85 71.2 L55.85 71.35 56.15 71.45 M55.85 70.85 L55.85 71.2 55.45 71.3 M55.85 71.35 L55.85 71.45 55.85 76.05 55.85 76.1 60.55 77.55 70.6 80.6 M55.85 76.05 L55.75 76.1 55.85 76.1 55.85 81.9 55.85 81.95 55.75 81.9 M55.75 87.5 L60.45 85.65 60.55 77.55 M55.75 87.5 L55.65 87.5 55.75 87.55 M50.7 79.3 L50.7 77.25 21.7 83.8 70.6 99.15 M50.7 69.6 L49.9 69.8 50.7 69.95 M55.75 76.1 L50.7 77.25 M55.65 87.5 L50.65 85.9 M10.95 34.1 L10.95 77.8 49.9 69.8 M133.45 30.8 L133.2 30.85 133.2 30.95 M133.2 30.85 L77.75 38.9 77.3 39.0 77.3 122.35 M133.2 30.85 L133.2 30.8 133.45 30.8 M119.65 44.15 L126.4 43.0 126.4 92.95 126.4 93.45 126.4 97.2 126.4 109.05 M77.9 34.25 L77.3 34.35 77.3 36.95 130.6 29.0 M77.3 34.1 L77.9 34.25 130.6 26.4 M77.3 38.8 L77.75 38.9 M77.3 39.0 L77.3 38.8 0.25 19.0 M77.3 34.35 L77.3 34.1 2.85 15.4 M77.3 34.1 L77.3 26.65 M83.7 84.6 L83.7 100.4 112.4 93.4 83.7 84.6 83.7 80.15 83.7 77.35 83.7 50.45 119.65 44.15 119.65 87.95 119.65 91.6 120.9 92.15 125.65 93.15 125.95 93.1 126.4 92.95 M83.7 100.4 L83.7 104.2 125.65 93.15 M83.7 104.2 L83.7 108.5 M119.65 91.6 L118.85 91.8 119.65 91.95 119.65 91.6 83.7 80.15 M120.9 92.15 L119.65 91.95 M125.95 93.1 L126.4 93.45 M119.65 99.0 L126.4 97.2 M119.65 87.95 L83.7 77.35 M118.85 91.8 L112.4 93.4 M3.05 18.2 L77.3 36.95" fill="none" stroke="#000000" stroke-linecap="round" stroke-linejoin="round" stroke-width="1.0"/>
    <path d="M0.8 95.3 L0.3 95.1 M55.75 81.9 L55.75 87.5 M55.75 87.55 L55.75 87.5 M50.65 85.9 L50.7 79.3" fill="none" stroke="#000000" stroke-linecap="round" stroke-linejoin="round" stroke-width="1.0"/>
  </g>
</svg>
