<?xml version="1.0" encoding="UTF-8" standalone="no"?>
<svg xmlns:xlink="http://www.w3.org/1999/xlink" height="229.8px" width="251.85px" xmlns="http://www.w3.org/2000/svg">
  <g transform="matrix(1.0, 0.0, 0.0, 1.0, 0.5, 0.5)">
    <path d="M250.75 40.95 L250.75 41.0 119.7 60.65 119.7 61.1 1.15 33.15 8.6 32.3 8.9 32.3 119.7 58.1 119.7 58.25 120.15 58.2 242.35 39.7 250.75 40.95 M0.6 13.75 L129.3 0.0 250.1 22.7 250.1 22.75 121.7 39.75 119.7 39.35 0.6 14.05 0.6 13.75 M119.7 58.25 L119.7 60.65 119.7 58.25" fill="#ffcc99" fill-rule="evenodd" stroke="none"/>
    <path d="M250.75 41.0 L250.75 188.7 243.1 191.2 243.1 63.8 235.55 65.05 136.55 81.4 136.6 149.45 129.6 151.0 129.6 225.7 129.6 225.75 129.55 225.8 119.7 228.75 119.7 61.1 119.7 60.65 250.75 41.0 M17.6 57.35 L17.6 176.2 17.15 176.3 10.0 177.95 10.0 55.3 17.6 57.35 M121.7 39.75 L250.1 22.75 250.1 32.25 242.55 33.35 119.7 51.85 119.7 40.05 121.7 39.75 M136.55 81.4 L129.6 82.55 129.6 151.0 129.6 82.55 136.55 81.4" fill="#804000" fill-rule="evenodd" stroke="none"/>
    <path d="M242.55 33.35 L242.6 39.65 242.35 39.7 120.15 58.2 119.7 58.1 119.7 52.25 119.7 51.85 242.55 33.35" fill="#5e2f00" fill-rule="evenodd" stroke="none"/>
    <path d="M242.85 191.3 L235.55 188.9 235.55 65.05 243.1 63.8 243.1 191.2 242.85 191.3 M119.7 228.75 L119.5 228.8 111.45 225.1 111.45 82.65 17.6 57.35 10.0 55.3 10.0 177.95 9.75 178.0 0.6 173.75 0.6 33.2 1.15 33.15 119.7 61.1 119.7 228.75 M0.6 14.05 L119.7 39.35 119.7 40.05 119.7 51.85 119.2 52.15 8.6 27.4 0.6 25.6 0.6 14.05" fill="#bb5e00" fill-rule="evenodd" stroke="none"/>
    <path d="M119.7 52.25 L119.7 58.1 8.9 32.3 8.6 32.2 8.6 27.4 119.2 52.15 119.7 52.25" fill="#db6f02" fill-rule="evenodd" stroke="none"/>
    <path d="M250.75 41.0 L250.85 41.0 250.75 40.95 250.75 41.0 250.75 188.7 243.1 191.2 243.1 191.4 242.85 191.3 235.55 188.9 235.55 65.05 136.55 81.4 M129.6 151.0 L129.6 225.7 129.65 225.75 M129.6 225.75 L129.55 225.8 M119.5 228.8 L111.45 225.1 111.45 82.65 17.6 57.35 17.6 176.2 17.6 176.5 17.15 176.3 10.0 177.95 10.0 178.1 9.75 178.0 0.6 173.75 0.0 173.45 M250.1 22.75 L250.1 22.7 129.3 0.0 0.6 13.75 M0.6 14.05 L119.7 39.35 121.7 39.75 250.1 22.75 250.1 32.25 242.55 33.35 242.6 39.65 242.35 39.7 250.75 40.95 M235.55 65.05 L243.1 63.8 243.1 191.2 242.85 191.3 M119.7 40.05 L119.7 39.35 M119.7 51.85 L119.7 52.25 119.7 58.1 120.15 58.2 242.35 39.7 M119.7 52.25 L119.2 52.15 8.6 27.4 8.6 32.2 8.9 32.3 119.7 58.1 119.7 58.25 120.15 58.2 M119.2 52.15 L119.7 51.85 119.7 40.05 121.7 39.75 M250.75 41.0 L119.7 60.65 119.7 61.1 119.7 228.75 M119.7 60.65 L119.7 58.25 M129.6 151.0 L129.6 82.55 136.55 81.4 M1.15 33.15 L0.6 33.2 0.6 173.75 M1.15 33.15 L0.6 33.05 0.6 33.2 M8.9 32.3 L8.6 32.3 1.15 33.15 119.7 61.1 M8.6 32.2 L8.6 32.3 M0.6 14.05 L0.6 25.6 8.6 27.4 M17.6 57.35 L10.0 55.3 10.0 177.95 9.75 178.0 M17.15 176.3 L17.6 176.2 M129.6 225.7 L129.6 225.75 M119.7 51.85 L242.55 33.35" fill="none" stroke="#000000" stroke-linecap="round" stroke-linejoin="round" stroke-width="1.0"/>
    <path d="M136.55 81.4 L136.6 149.45 129.6 151.0 M129.65 225.75 L129.6 225.75 M129.55 225.8 L119.7 228.75 119.5 228.8" fill="none" stroke="#000000" stroke-linecap="round" stroke-linejoin="round" stroke-width="1.0"/>
  </g>
</svg>
