<?xml version="1.0" encoding="UTF-8" standalone="no"?>
<svg xmlns:xlink="http://www.w3.org/1999/xlink" height="161.35px" width="152.65px" xmlns="http://www.w3.org/2000/svg">
  <g transform="matrix(1.0, 0.0, 0.0, 1.0, 0.5, 0.5)">
    <path d="M148.15 35.55 L148.15 38.65 147.9 38.65 78.45 48.45 78.4 48.4 78.35 44.55 148.15 35.55" fill="#5e2f00" fill-rule="evenodd" stroke="none"/>
    <path d="M148.15 38.75 L151.65 40.1 77.9 50.25 77.75 50.3 0.0 20.0 2.9 19.45 2.95 19.45 78.4 48.4 78.45 48.45 147.9 38.65 148.15 38.75" fill="#feb367" fill-rule="evenodd" stroke="none"/>
    <path d="M151.65 40.1 L151.65 137.1 143.7 139.65 143.7 123.8 143.7 115.8 143.7 123.8 135.25 126.3 86.3 140.8 86.3 157.7 86.3 157.95 77.9 160.35 77.9 143.4 77.9 143.3 77.9 50.35 77.9 50.25 151.65 40.1 M13.05 105.9 L13.05 119.6 12.9 119.65 6.7 121.25 6.7 102.25 13.05 105.9 M151.65 24.45 L151.65 35.1 148.15 35.55 78.35 44.55 77.9 44.55 77.9 33.45 77.9 33.2 151.65 24.45 M135.25 54.15 L86.3 62.05 86.3 86.1 86.3 92.45 86.3 98.75 86.3 126.65 86.3 131.8 86.3 140.8 86.3 131.8 141.2 116.5 143.7 115.8 143.7 52.8 135.25 54.15 M6.7 95.1 L6.7 34.45 13.05 37.05 13.05 89.9 13.05 93.9 12.8 94.0 6.7 95.1 M65.65 58.7 L70.05 60.5 70.05 82.1 65.65 83.0 65.65 58.7 M70.05 91.85 L70.05 103.95 65.8 105.15 65.65 104.65 65.65 89.65 70.05 91.85 M13.05 93.95 L13.05 93.9 64.95 83.15 65.6 83.05 65.65 83.35 65.65 89.3 65.2 89.4 59.4 90.7 22.55 98.9 13.05 93.95" fill="#804000" fill-rule="evenodd" stroke="none"/>
    <path d="M0.0 3.85 L0.0 3.45 72.25 0.05 72.55 0.15 151.65 24.45 77.9 33.2 77.85 33.45 0.0 3.85 M86.3 86.1 L135.25 107.05 135.25 113.75 134.9 113.75 86.3 92.45 86.3 86.1 M125.65 116.2 L134.9 113.75 135.25 113.9 141.2 116.5 86.3 131.8 86.3 126.65 125.65 116.2 M70.05 123.5 L70.05 130.35 6.7 95.75 6.7 95.1 12.8 94.0 13.05 93.95 22.55 98.9 70.05 123.5 M13.05 93.9 L13.05 89.9 59.05 80.85 59.4 81.0 64.95 83.15 13.05 93.9" fill="#ffcc99" fill-rule="evenodd" stroke="none"/>
    <path d="M143.7 139.65 L143.3 139.8 135.25 136.35 135.25 126.3 143.7 123.8 143.7 139.65 M77.9 160.35 L70.05 156.05 70.05 138.6 13.05 105.9 6.7 102.25 6.7 121.25 6.5 121.3 4.05 120.05 0.05 117.85 0.0 117.85 0.0 20.0 77.75 50.3 77.9 50.35 77.9 143.3 77.8 143.35 77.9 143.4 77.9 160.35 M2.9 15.5 L0.0 14.35 0.0 3.85 77.85 33.45 77.9 33.45 77.9 44.55 77.9 44.6 77.6 44.65 77.5 44.65 2.9 15.5 M135.25 107.05 L135.25 54.15 143.7 52.8 143.7 115.8 141.2 116.5 135.25 113.9 135.25 113.75 135.25 107.05 M86.3 92.45 L134.9 113.75 125.65 116.2 86.3 98.75 86.3 92.45 M13.05 37.05 L6.7 34.45 6.7 95.1 6.7 95.75 70.05 130.35 70.05 123.5 70.05 103.95 70.05 91.85 70.05 88.35 70.05 85.3 70.05 88.35 70.05 91.85 65.65 89.65 65.65 104.65 59.4 102.05 59.4 90.7 65.2 89.4 65.65 89.65 65.65 89.3 65.65 83.35 70.05 85.3 70.05 82.1 70.05 60.5 65.65 58.7 59.4 56.15 65.65 58.7 65.65 83.0 65.6 83.05 64.95 83.15 59.4 81.0 59.4 80.8 59.4 56.15 13.05 37.05 M70.05 138.6 L70.05 130.35 70.05 138.6 M6.7 102.25 L6.7 95.75 6.7 102.25" fill="#bb5e00" fill-rule="evenodd" stroke="none"/>
    <path d="M2.9 19.45 L2.9 15.5 77.5 44.65 77.6 44.7 77.9 44.8 77.9 44.6 78.35 44.55 78.4 48.4 2.95 19.45 2.9 19.45" fill="#db6f02" fill-rule="evenodd" stroke="none"/>
    <path d="M70.05 82.1 L70.05 85.3 65.65 83.35 65.65 83.0 70.05 82.1" fill="#fdb102" fill-rule="evenodd" stroke="none"/>
    <path d="M65.65 104.65 L65.8 105.15 65.65 104.65" fill="#cc9900" fill-rule="evenodd" stroke="none"/>
    <path d="M148.15 38.75 L151.65 40.1 151.65 137.1 143.7 139.65 143.3 139.8 135.25 136.35 135.25 126.3 86.3 140.8 86.3 157.7 86.6 157.85 86.85 157.95 86.3 158.15 86.3 157.95 77.9 160.35 70.05 156.05 70.05 138.6 13.05 105.9 13.05 119.6 13.05 119.7 12.9 119.65 6.7 121.25 6.7 121.4 6.7 121.5 6.4 121.35 4.05 120.05 0.05 117.85 0.0 117.85 0.0 20.0 2.9 19.45 2.9 15.5 0.0 14.35 0.0 3.85 0.0 3.45 72.25 0.05 72.55 0.0 72.55 0.15 151.65 24.45 151.65 35.1 148.15 35.55 148.15 38.65 148.15 38.75 147.9 38.65 78.45 48.45 78.4 48.4 2.95 19.45 2.9 19.45 M135.25 54.15 L86.3 62.05 86.3 86.1 135.25 107.05 135.25 54.15 143.7 52.8 143.7 115.8 143.7 123.8 143.7 139.65 M86.3 86.1 L86.3 92.45 134.9 113.75 135.25 113.9 135.25 113.75 135.25 107.05 M86.3 92.45 L86.3 98.75 125.65 116.2 134.9 113.75 M72.55 0.15 L72.25 0.05 M77.9 33.45 L77.9 33.2 M77.85 33.45 L77.9 33.45 77.9 44.55 77.9 44.6 77.6 44.65 77.5 44.65 77.6 44.7 77.9 44.8 77.9 44.6 78.35 44.55 148.15 35.55 M77.6 44.65 L77.6 44.7 M2.95 19.45 L2.9 19.45 M6.7 95.1 L6.7 34.45 13.05 37.05 59.4 56.15 65.65 58.7 70.05 60.5 70.05 82.1 70.05 85.3 70.05 88.35 70.05 91.85 70.05 103.95 70.05 123.5 70.05 130.35 70.05 138.6 M12.8 94.0 L13.05 93.95 13.05 93.9 12.8 94.0 6.7 95.1 6.7 95.75 6.7 102.25 6.7 121.25 6.5 121.3 6.7 121.4 M13.05 93.9 L13.05 89.9 13.05 37.05 M22.55 98.9 L59.4 90.7 65.2 89.4 65.65 89.3 65.65 83.35 70.05 85.3 M65.6 83.05 L64.95 83.15 13.05 93.9 M77.75 50.3 L77.9 50.35 77.9 50.25 77.75 50.3 0.0 20.0 M59.05 80.85 L59.4 81.0 59.4 80.8 59.05 80.85 13.05 89.9 M65.65 83.0 L65.65 83.35 M70.05 82.1 L65.65 83.0 65.65 58.7 M65.65 83.0 L65.6 83.05 M70.05 91.85 L65.65 89.65 65.65 104.65 59.4 102.05 59.4 90.7 M65.8 105.15 L70.05 103.95 M65.2 89.4 L65.65 89.65 65.65 89.3 M64.95 83.15 L59.4 81.0 M59.4 80.8 L59.4 56.15 M77.85 33.45 L0.0 3.85 M77.5 44.65 L2.9 15.5 M65.8 105.15 L65.65 105.2 65.65 104.65 M77.9 143.3 L77.9 143.4 77.9 160.35 M77.9 143.4 L77.8 143.35 77.9 143.3 77.9 50.35 M6.5 121.3 L6.4 121.35 M6.5 121.3 L4.05 120.05 M12.9 119.65 L13.05 119.6 M13.05 105.9 L6.7 102.25 M135.25 113.9 L141.2 116.5 143.7 115.8 M143.7 123.8 L135.25 126.3 M86.3 131.8 L86.3 126.65 86.3 98.75 M86.3 131.8 L86.3 140.8 M86.3 157.7 L86.3 157.95 86.6 157.85 M141.2 116.5 L86.3 131.8 M86.3 126.65 L125.65 116.2 M151.65 24.45 L77.9 33.2 M151.65 40.1 L77.9 50.25" fill="none" stroke="#000000" stroke-linecap="round" stroke-linejoin="round" stroke-width="1.0"/>
    <path d="M78.35 44.55 L78.4 48.4 M6.7 95.75 L70.05 130.35 M13.05 93.95 L22.55 98.9 70.05 123.5" fill="none" stroke="#000000" stroke-linecap="round" stroke-linejoin="round" stroke-width="1.0"/>
  </g>
</svg>
