<?xml version="1.0" encoding="UTF-8" standalone="no"?>
<svg xmlns:xlink="http://www.w3.org/1999/xlink" height="152.9px" width="139.0px" xmlns="http://www.w3.org/2000/svg">
  <g transform="matrix(1.0, 0.0, 0.0, 1.0, 0.5, 0.5)">
    <path d="M137.7 13.45 L137.75 13.45 137.75 23.4 133.9 24.35 55.0 43.4 55.0 31.95 55.0 31.65 137.7 13.45 M137.75 30.5 L137.75 122.3 137.75 122.5 131.0 124.9 131.0 124.7 131.0 113.0 131.0 105.8 131.0 113.0 124.35 115.25 121.65 116.2 63.65 136.1 63.65 148.85 55.7 151.65 55.0 151.35 55.0 51.1 55.65 50.95 61.0 49.65 137.6 30.45 137.75 30.5 M13.25 121.6 L13.25 128.35 7.1 130.35 6.95 130.3 6.95 119.0 13.25 121.6 M131.0 105.45 L131.0 43.9 124.35 45.7 91.65 54.45 85.65 56.05 91.65 54.45 91.65 88.5 91.4 88.7 85.95 89.95 85.65 89.35 85.65 56.05 78.3 58.0 63.65 61.95 63.65 90.55 63.65 95.7 85.65 90.0 85.65 97.55 85.35 97.55 78.3 99.4 63.65 103.0 63.65 121.85 63.65 127.55 131.0 105.8 131.0 105.45 M85.65 97.65 L91.55 99.95 91.65 100.0 91.65 105.3 85.9 106.9 85.6 106.7 85.65 97.65 M62.2 50.0 L61.0 49.65 62.2 50.0 M47.3 100.0 L47.3 107.05 24.1 112.75 14.25 108.75 47.3 100.0 M6.95 110.7 L6.95 48.4 13.25 50.55 13.25 103.6 13.25 108.35 13.25 108.75 6.95 110.7 M63.65 136.1 L63.65 127.55 63.65 136.1 M63.65 103.0 L63.65 95.7 63.65 103.0" fill="#804000" fill-rule="evenodd" stroke="none"/>
    <path d="M131.0 124.7 L124.35 122.2 124.35 117.25 124.35 115.25 131.0 113.0 131.0 124.7 M55.0 151.35 L47.3 148.0 47.3 135.4 13.25 121.6 6.95 119.0 6.95 130.3 0.7 127.55 0.3 33.3 55.0 50.75 55.0 51.1 55.0 151.35 M3.9 27.3 L0.3 26.1 0.25 15.75 54.6 31.85 55.0 31.95 55.0 43.4 54.25 43.55 3.9 27.3 M124.35 45.7 L131.0 43.9 131.0 105.45 124.55 103.15 124.35 103.1 124.35 99.05 124.35 45.7 M85.65 90.0 L85.95 89.95 123.95 103.35 111.55 107.15 92.8 100.05 91.65 99.65 91.55 99.95 85.65 97.65 85.65 97.55 85.65 90.0 M85.35 97.55 L85.65 97.65 85.6 106.7 85.45 106.7 78.6 104.0 78.3 103.9 78.3 99.4 85.35 97.55 M78.3 58.0 L85.65 56.05 85.65 89.35 78.3 87.1 78.3 86.75 78.3 58.0 M47.3 94.8 L47.3 61.95 13.25 50.55 6.95 48.4 6.95 110.7 6.95 111.1 47.3 127.25 47.3 122.2 47.3 107.05 47.3 100.0 47.3 94.8 M47.3 135.4 L47.3 127.25 47.3 135.4 M6.95 119.0 L6.95 111.1 6.95 119.0" fill="#bb5e00" fill-rule="evenodd" stroke="none"/>
    <path d="M133.9 24.35 L133.9 28.5 133.7 28.55 55.5 47.9 55.0 47.75 55.0 43.8 55.0 43.4 133.9 24.35" fill="#5e2f00" fill-rule="evenodd" stroke="none"/>
    <path d="M3.9 31.5 L3.9 27.3 54.25 43.55 55.0 43.8 55.0 47.75 4.45 31.65 3.9 31.5" fill="#db6f02" fill-rule="evenodd" stroke="none"/>
    <path d="M133.9 28.7 L137.6 30.45 61.0 49.65 55.65 50.95 55.0 50.75 0.3 33.3 0.3 32.95 3.9 31.8 4.45 31.65 55.0 47.75 55.0 47.95 55.5 47.9 133.7 28.55 133.9 28.7 M0.25 15.65 L83.95 0.2 84.45 0.1 137.7 13.45 55.0 31.65 54.6 31.85 0.25 15.75 0.25 15.65 M131.0 105.45 L131.0 105.8 63.65 127.55 63.65 121.85 111.55 107.15 123.95 103.35 85.95 89.95 91.4 88.7 91.65 88.6 91.9 88.55 124.35 99.05 124.35 103.1 123.95 103.35 124.35 103.2 124.55 103.15 131.0 105.45 M85.65 89.85 L85.65 90.0 63.65 95.7 63.65 90.55 77.9 86.85 78.3 87.1 85.65 89.35 85.65 89.85 M47.3 94.8 L47.3 100.0 14.25 108.75 13.8 108.6 14.25 108.75 24.1 112.75 47.3 122.2 47.3 127.25 6.95 111.1 6.95 110.7 13.25 108.75 13.8 108.6 13.25 108.35 13.25 103.6 47.3 94.8" fill="#ffcc99" fill-rule="evenodd" stroke="none"/>
    <path d="M137.7 13.45 L137.75 13.45 137.75 23.4 133.9 24.35 133.9 28.5 133.9 28.7 137.6 30.45 137.75 30.4 137.75 30.5 137.75 122.3 M138.0 122.4 L137.75 122.5 131.0 124.9 131.0 124.7 124.35 122.2 124.35 117.25 124.35 115.25 131.0 113.0 131.0 124.7 M121.65 116.2 L63.65 136.1 63.65 148.85 55.7 151.65 55.0 151.9 55.0 151.35 M47.3 148.0 L47.3 135.4 13.25 121.6 13.25 128.35 7.1 130.35 6.95 130.4 6.95 130.3 M0.7 127.55 L0.3 33.3 0.3 32.95 3.9 31.8 3.9 31.5 3.9 27.3 0.3 26.1 0.25 15.75 0.0 15.7 0.25 15.65 83.95 0.2 83.95 0.0 84.45 0.1 137.7 13.45 55.0 31.65 55.0 31.95 55.0 43.4 133.9 24.35 M133.7 28.55 L133.9 28.5 M133.9 28.7 L133.7 28.55 55.5 47.9 55.0 47.95 55.0 47.75 4.45 31.65 3.9 31.8 M124.35 45.7 L131.0 43.9 131.0 105.45 131.0 105.8 131.0 113.0 M137.6 30.45 L137.75 30.5 M83.95 0.2 L84.45 0.1 M85.65 56.05 L91.65 54.45 124.35 45.7 124.35 99.05 124.35 103.1 124.55 103.15 131.0 105.45 M85.65 90.0 L85.95 89.95 85.65 89.85 85.65 90.0 85.65 97.55 85.65 97.65 91.55 99.95 M91.65 99.65 L92.8 100.05 111.55 107.15 123.95 103.35 85.95 89.95 M85.65 89.35 L85.65 89.85 M85.35 97.55 L85.65 97.65 85.6 106.7 85.6 106.75 85.9 106.9 85.45 106.7 85.6 106.75 M85.9 106.9 L91.65 105.3 91.65 100.0 91.55 99.95 M91.4 88.7 L91.65 88.6 91.65 88.5 91.4 88.7 85.95 89.95 M91.9 88.55 L91.65 88.5 91.65 54.45 M91.65 88.6 L91.9 88.55 124.35 99.05 M85.65 89.35 L85.65 56.05 78.3 58.0 78.3 86.75 78.3 87.1 85.65 89.35 M54.6 31.85 L55.0 31.95 M55.0 31.65 L54.6 31.85 0.25 15.75 0.25 15.65 M55.0 47.75 L55.0 43.8 54.25 43.55 3.9 27.3 M55.5 47.9 L55.0 47.75 M55.0 43.4 L54.25 43.55 M55.0 43.8 L55.0 43.4 M4.45 31.65 L3.9 31.5 M63.65 90.55 L63.65 61.95 78.3 58.0 M61.0 49.65 L62.2 50.0 M55.65 50.95 L55.0 50.75 55.0 51.1 55.65 50.95 61.0 49.65 137.6 30.45 M77.9 86.85 L78.3 86.75 M78.3 87.1 L77.9 86.85 63.65 90.55 63.65 95.7 85.65 90.0 M13.25 50.55 L47.3 61.95 47.3 94.8 47.3 100.0 47.3 107.05 47.3 122.2 47.3 127.25 47.3 135.4 M13.25 50.55 L6.95 48.4 6.95 110.7 13.25 108.75 13.25 108.35 13.25 103.6 13.25 50.55 M55.0 50.75 L0.3 33.3 M78.3 99.4 L63.65 103.0 63.65 121.85 111.55 107.15 M78.6 104.0 L78.3 103.9 78.3 104.05 78.6 104.0 85.45 106.7 M78.3 103.9 L78.3 99.4 85.35 97.55 M63.65 127.55 L63.65 136.1 M63.65 121.85 L63.65 127.55 131.0 105.8 M13.25 108.35 L13.8 108.6 14.25 108.75 47.3 100.0 M13.8 108.6 L13.25 108.75 M6.95 110.7 L6.95 111.1 47.3 127.25 M6.95 111.1 L6.95 119.0 13.25 121.6 M6.95 119.0 L6.95 130.3 M14.25 108.75 L24.1 112.75 47.3 107.05 M47.3 122.2 L24.1 112.75 M124.55 103.15 L124.35 103.2 123.95 103.35 M124.35 103.1 L124.35 103.2 M124.35 115.25 L121.65 116.2 M137.75 122.5 L137.75 122.3 M91.65 100.0 L91.65 99.65 M92.8 100.05 L91.65 100.0 M55.0 51.1 L55.0 151.35 M47.3 94.8 L13.25 103.6 M63.65 95.7 L63.65 103.0" fill="none" stroke="#000000" stroke-linecap="round" stroke-linejoin="round" stroke-width="1.0"/>
    <path d="M137.75 122.3 L138.0 122.4 M124.35 117.25 L121.65 116.2 M55.0 151.35 L47.3 148.0 M6.95 130.3 L0.7 127.55 M6.95 130.3 L7.1 130.35 M55.0 151.35 L55.7 151.65" fill="none" stroke="#000000" stroke-linecap="round" stroke-linejoin="round" stroke-width="1.0"/>
  </g>
</svg>
