<?xml version="1.0" encoding="UTF-8" standalone="no"?>
<svg xmlns:xlink="http://www.w3.org/1999/xlink" height="417.45px" width="244.5px" xmlns="http://www.w3.org/2000/svg">
  <g transform="matrix(1.0, 0.0, 0.0, 1.0, 0.5, 0.5)">
    <path d="M143.95 110.3 Q144.15 111.4 145.15 112.2 145.95 112.9 147.35 113.4 150.65 114.5 151.35 118.2 L157.2 118.75 Q158.2 118.85 159.15 120.75 L164.1 120.25 Q165.35 120.25 166.05 121.45 L167.5 123.3 167.55 123.35 Q169.25 123.7 171.1 124.45 181.3 128.45 196.65 143.3 L197.25 143.75 Q205.55 150.05 209.35 156.3 213.3 162.75 215.3 163.8 217.25 164.8 222.15 174.55 225.05 179.65 226.35 184.95 226.7 186.3 230.0 190.75 233.8 195.85 235.15 198.45 236.45 201.0 236.2 202.45 L235.65 205.75 Q235.3 207.55 235.75 208.6 L236.25 209.45 239.05 213.25 Q241.95 217.0 242.0 220.7 242.0 224.35 242.75 227.15 243.5 229.9 243.5 232.8 243.5 237.05 243.05 240.35 242.6 243.5 238.25 252.5 L237.95 252.7 233.9 255.2 232.7 256.6 Q229.9 259.35 226.55 259.35 L219.25 260.0 Q214.3 260.9 210.8 259.3 207.3 257.7 203.55 256.55 199.8 255.4 196.25 251.35 L188.65 242.5 184.7 238.0 182.95 236.05 183.2 235.75 184.7 237.05 Q191.2 242.55 195.55 245.5 L196.2 247.45 Q197.5 252.05 201.15 252.9 L212.7 255.6 224.75 255.6 Q231.65 255.6 236.2 247.05 239.9 240.1 239.9 233.35 239.9 230.8 230.85 224.85 L231.4 224.3 235.6 224.3 235.6 220.7 Q234.9 219.65 234.15 217.2 L234.1 216.95 233.9 216.3 233.4 214.5 232.25 210.9 Q229.8 204.55 224.5 203.75 L224.5 203.7 231.4 204.25 231.4 201.0 Q230.3 197.9 227.8 193.9 L223.45 187.25 Q223.4 190.5 217.8 192.75 218.85 191.65 219.75 188.15 220.75 184.25 220.75 181.75 220.75 177.2 219.35 175.5 216.8 173.3 214.45 170.35 213.05 168.6 212.35 166.05 L211.45 162.2 Q210.4 158.6 205.45 159.75 200.1 149.0 186.65 138.9 176.15 131.0 165.3 126.5 L167.55 123.35 165.3 126.5 Q162.95 129.85 161.1 133.25 154.7 144.65 153.1 156.4 L152.7 160.9 152.6 162.4 139.9 164.95 133.15 159.95 131.3 160.05 131.35 155.6 131.4 153.65 127.75 153.65 123.55 158.05 Q122.45 161.95 123.55 165.8 L124.35 166.5 Q98.05 196.9 81.2 227.35 L77.85 233.55 75.65 237.85 75.15 238.85 74.15 240.95 71.35 241.2 71.3 240.6 71.0 240.6 69.15 240.6 62.05 240.3 61.95 240.3 56.8 238.95 56.9 238.4 58.6 235.4 61.7 229.95 64.05 225.95 Q81.5 196.2 101.95 167.55 L69.9 129.05 68.05 126.8 69.9 129.05 66.15 132.05 Q61.15 136.35 56.25 141.45 42.45 155.8 42.45 162.65 42.45 169.15 44.1 171.4 39.1 165.65 38.7 164.6 34.65 168.25 32.05 176.25 29.7 183.55 30.0 190.65 L29.8 190.65 Q28.95 189.4 27.85 189.4 23.65 189.4 22.85 197.35 L22.85 208.45 23.75 216.3 Q24.95 224.3 26.55 226.45 23.9 224.8 21.15 220.2 18.8 216.2 17.55 212.15 L16.5 212.15 16.5 221.7 21.8 227.0 Q19.6 227.0 16.7 226.2 L12.5 225.4 Q10.5 225.4 10.1 227.45 L10.1 230.65 11.2 235.2 9.3 237.9 6.45 241.25 6.45 245.5 15.5 245.5 Q7.5 249.55 7.5 265.35 7.5 271.85 12.05 278.2 16.6 284.6 21.8 285.15 L31.45 286.75 40.7 288.4 Q52.2 290.55 61.95 290.55 L62.0 290.55 62.45 290.55 62.5 292.3 61.95 292.3 Q48.0 292.0 45.3 292.05 L38.7 292.65 33.2 292.85 31.45 292.5 23.1 290.6 Q14.9 288.7 13.05 286.25 11.15 283.75 7.05 279.4 2.9 275.0 2.9 273.0 2.9 265.3 3.65 258.95 L4.1 258.6 4.1 258.55 3.75 258.2 Q1.9 255.9 1.65 254.7 L1.15 247.2 0.0 239.35 Q4.1 234.35 7.0 233.85 5.9 228.25 5.9 224.45 L7.65 222.5 Q9.35 220.2 9.35 216.6 11.25 214.55 12.05 210.95 L13.2 205.35 Q13.55 203.35 17.85 196.9 22.15 190.45 28.05 175.95 33.9 161.4 38.15 157.0 42.35 152.55 45.25 146.7 48.15 140.85 68.05 126.8 L68.45 126.5 68.5 126.45 Q72.5 123.55 77.1 122.15 79.5 121.4 82.05 121.1 L82.65 121.05 84.4 119.1 86.7 115.3 87.4 111.95 Q87.7 110.5 89.5 109.9 L89.5 109.45 Q89.55 105.8 89.05 103.3 L89.05 102.1 92.45 104.3 92.55 107.1 92.6 113.25 92.6 113.7 92.45 116.0 92.4 116.55 92.8 117.0 Q92.45 119.1 90.6 122.55 89.2 125.2 88.05 126.55 L104.0 143.8 112.55 153.1 105.95 162.05 101.95 167.55 105.95 162.05 112.55 153.1 116.5 147.85 Q125.45 136.1 134.9 124.55 L136.15 121.45 138.1 116.85 136.45 114.9 Q133.2 111.0 132.5 109.6 L132.6 109.5 132.9 109.2 130.5 99.4 130.5 98.85 132.5 96.7 132.5 98.0 133.9 103.85 133.9 103.95 136.55 103.95 138.05 108.5 138.8 110.25 138.45 110.4 138.9 110.5 Q139.5 111.6 140.25 112.15 141.85 110.25 143.45 110.4 L143.95 110.3 M173.95 273.45 L173.85 277.6 Q175.55 281.3 173.75 283.9 L173.65 283.95 170.3 285.1 173.65 283.95 173.75 284.15 Q194.6 332.55 197.15 384.95 L193.3 385.95 193.3 416.45 187.05 416.45 Q187.65 413.9 187.65 411.6 187.65 409.65 185.55 403.35 L185.55 401.65 Q188.1 401.65 188.75 399.25 L189.0 394.0 Q188.1 390.1 187.8 387.25 L190.5 386.65 190.65 378.85 Q190.65 376.2 190.0 374.45 L188.7 371.5 Q186.9 367.3 187.5 357.55 187.75 353.15 184.8 342.1 L180.6 327.6 Q178.8 321.05 175.15 303.1 173.05 292.85 170.3 285.1 L159.2 285.65 Q158.05 282.7 156.7 280.35 L157.2 277.95 156.7 280.35 Q158.05 282.7 159.2 285.65 168.5 308.65 168.45 365.65 L166.2 365.5 164.7 365.35 164.05 365.35 160.65 365.35 160.4 365.35 160.55 365.8 162.25 367.95 Q163.85 369.6 163.85 370.05 L163.85 370.15 Q163.8 370.95 162.9 370.95 161.55 370.95 160.75 370.45 159.7 369.8 155.15 369.3 L154.15 348.0 153.8 341.9 154.15 348.0 155.15 369.3 155.5 379.55 155.75 389.3 155.85 392.35 Q148.9 399.5 146.0 400.3 L145.05 392.8 Q141.7 390.45 140.2 388.6 L139.55 387.7 Q138.65 386.2 137.75 385.75 L136.9 385.25 Q134.35 287.8 144.3 282.25 L133.7 285.35 111.7 286.9 Q118.85 284.5 121.85 282.05 L122.55 282.0 Q133.65 280.95 144.3 282.25 L144.35 282.25 146.95 282.6 147.4 282.6 147.8 282.4 152.5 280.15 157.2 277.95 166.45 273.55 173.75 273.55 173.95 273.45 M131.95 416.45 L126.85 416.45 123.85 390.25 125.7 390.1 Q127.95 393.8 128.5 398.1 128.9 401.3 128.55 405.1 128.7 409.3 130.3 412.85 L131.95 416.45 M122.25 390.4 L120.3 416.45 117.9 416.45 117.9 416.2 Q116.45 414.7 116.45 410.85 116.45 409.35 118.15 401.25 119.55 394.55 119.85 390.6 L122.25 390.4 M58.6 416.45 L52.35 416.45 55.0 388.5 50.75 387.55 Q52.65 338.5 72.95 287.9 L72.95 287.85 72.75 287.85 72.75 286.9 72.6 279.65 82.85 285.05 87.25 284.3 Q90.7 285.95 96.15 286.9 L77.85 287.65 76.45 291.15 Q68.2 311.95 65.25 326.45 62.2 341.7 62.35 363.8 59.8 354.05 59.8 352.8 L59.25 352.8 58.5 365.35 Q57.7 375.95 57.7 381.5 57.7 385.65 57.85 389.05 L60.9 389.6 60.9 390.7 Q61.3 392.2 62.7 394.85 63.75 396.85 63.75 398.9 63.75 399.9 62.95 400.8 L61.15 402.9 Q58.55 406.75 58.55 415.9 L58.6 416.45 M64.7 59.75 Q64.55 56.6 64.0 53.35 63.75 51.9 63.65 50.45 L63.45 46.65 Q64.65 38.5 65.3 31.95 L65.6 28.3 65.8 24.35 Q66.1 16.45 65.25 11.85 69.1 9.3 73.3 7.3 L75.45 14.5 Q77.85 12.9 80.4 11.65 L79.0 4.85 Q82.8 3.4 86.8 2.45 L87.7 8.8 93.1 7.5 92.25 1.25 100.3 0.25 100.45 6.65 Q102.8 6.55 105.2 6.6 L106.85 6.7 107.75 0.0 116.2 0.45 116.2 7.8 116.25 7.8 Q120.85 8.65 125.7 10.05 L124.75 1.55 133.1 3.2 Q133.8 10.45 135.3 14.6 L136.25 16.9 138.0 20.35 139.35 23.55 139.85 24.9 141.45 29.05 143.55 34.9 Q144.4 37.65 145.3 42.95 L145.8 45.85 146.2 53.75 145.55 53.25 143.2 51.5 140.55 50.45 134.85 48.55 Q104.75 39.55 73.8 54.1 72.25 54.75 70.8 55.55 69.75 56.0 68.8 56.55 L64.7 59.75 M161.5 217.7 L161.55 217.75 163.3 221.4 163.55 221.85 164.15 222.95 164.3 223.2 Q163.4 224.5 161.25 224.05 L159.65 224.1 157.15 224.15 Q156.25 224.15 154.0 226.3 L153.9 226.4 152.9 227.35 152.65 227.6 Q149.3 231.05 148.6 231.05 L147.8 230.9 147.7 229.75 147.7 229.6 Q147.7 228.6 148.4 227.35 149.7 224.95 153.6 221.75 L153.9 221.45 153.9 221.0 153.9 220.95 152.8 220.95 152.55 221.0 Q149.95 221.4 147.25 223.15 144.8 224.6 142.3 227.1 L142.1 227.35 139.45 230.5 138.3 231.8 Q136.0 234.45 134.9 233.9 L134.15 233.85 Q133.25 233.6 133.05 232.9 L133.0 232.55 132.9 230.05 Q132.9 228.25 133.4 227.5 L133.5 227.35 Q133.85 226.6 133.85 225.45 L133.85 225.15 133.8 224.65 133.5 224.65 Q132.75 224.65 131.85 225.3 L131.45 225.65 Q130.7 226.3 130.45 226.9 128.3 207.0 133.05 195.45 L133.6 195.65 138.1 196.15 Q142.1 196.8 146.55 198.4 L154.9 196.8 Q158.05 209.75 161.5 217.7 M136.05 22.1 L133.05 13.9 119.95 10.05 Q113.85 8.4 108.55 8.15 103.25 7.9 102.1 8.15 L97.55 8.6 Q94.15 8.7 90.3 9.7 86.45 10.7 81.65 12.85 L76.2 15.35 Q73.9 16.3 70.15 19.45 68.95 20.4 68.15 21.25 L67.05 29.7 Q65.5 42.2 65.4 48.9 L67.8 46.85 Q68.75 46.3 69.8 45.85 86.95 37.15 105.45 36.35 123.55 35.5 143.0 42.15 L145.3 42.95 143.0 42.15 Q142.15 36.5 139.15 29.6 L136.05 22.1 139.85 24.9 136.05 22.1 M74.0 72.3 L74.35 72.85 74.15 72.95 74.0 72.3 M63.65 50.45 L65.4 48.9 63.65 50.45 M99.15 60.5 Q102.9 62.6 103.75 64.75 104.1 65.6 104.1 69.25 L104.0 72.6 102.45 75.6 102.7 74.6 102.9 72.7 103.05 71.9 103.5 69.1 Q103.5 66.15 101.4 63.75 L99.05 60.6 99.15 60.5 M105.1 96.0 L104.95 95.4 104.6 93.95 Q112.1 94.05 119.65 91.2 L120.1 92.5 120.2 93.0 Q118.1 94.5 115.9 95.4 110.8 97.45 105.1 96.0 M111.0 83.05 Q111.0 84.55 109.55 84.55 108.65 84.55 108.3 83.8 L108.05 83.05 Q108.05 81.55 109.55 81.55 111.0 81.55 111.0 83.05 M134.75 107.3 L132.9 109.2 134.75 107.3 134.85 107.2 134.65 107.2 134.75 107.3 M133.9 103.95 L134.65 107.2 133.9 103.95 M65.3 31.95 L67.05 29.7 65.3 31.95 M82.65 121.05 L82.9 121.0 88.05 126.55 82.9 121.0 82.65 121.05 M140.25 112.15 Q139.8 112.6 138.35 116.2 L138.1 116.85 138.35 116.2 Q139.8 112.6 140.25 112.15 M156.55 122.05 Q148.35 128.45 148.0 136.3 148.35 128.45 156.55 122.05 M137.65 151.95 L137.5 150.9 Q137.35 147.25 137.75 143.75 139.2 129.65 149.25 118.1 139.2 129.65 137.75 143.75 137.35 147.25 137.5 150.9 L137.65 151.95 M131.4 153.65 L131.5 143.6 Q131.65 140.7 133.5 131.25 L134.9 124.55 133.5 131.25 Q131.65 140.7 131.5 143.6 L131.4 153.65 M109.8 117.65 L110.0 117.55 110.3 117.4 110.0 118.8 Q109.6 120.2 108.55 121.1 107.5 121.95 107.9 123.95 L108.05 124.7 108.4 126.3 Q107.6 125.15 107.5 123.95 L107.45 123.2 Q107.55 121.5 108.85 120.65 110.15 119.75 109.8 117.65 M109.4 128.9 L109.45 128.95 109.4 129.0 109.4 128.9 M109.2 130.25 L108.95 132.95 108.3 134.2 109.2 130.25 M89.5 113.7 L91.3 115.45 92.4 116.55 91.3 115.45 89.5 113.7 88.55 112.55 89.5 113.7 89.5 109.9 89.5 113.7 M148.2 201.05 Q148.85 210.35 153.6 220.35 L153.9 220.95 153.6 220.35 Q148.85 210.35 148.2 201.05 M153.9 220.95 L153.9 221.0 153.9 220.95 M136.4 204.85 Q133.05 214.4 133.8 224.65 133.05 214.4 136.4 204.85 M112.5 251.7 Q109.85 251.55 106.85 249.9 107.85 247.7 110.6 246.25 112.45 247.75 115.4 247.8 113.35 249.8 112.5 251.7 M155.6 249.9 L155.9 250.7 Q151.05 255.25 148.65 254.05 L155.6 249.9 M149.3 287.8 L149.1 287.7 149.2 287.8 149.3 287.8 Q152.2 315.75 153.8 341.9 157.8 319.1 153.8 284.8 L152.65 285.55 152.65 286.5 Q152.25 288.45 149.3 287.8 M152.5 280.15 L152.65 285.55 152.5 280.15 M149.1 287.7 Q147.9 286.5 147.8 282.4 147.9 286.5 149.1 287.7 M153.8 284.8 Q155.85 283.15 156.7 280.35 155.85 283.15 153.8 284.8 M9.75 248.85 Q8.7 249.35 7.8 250.1 4.65 252.75 3.75 258.2 4.65 252.75 7.8 250.1 8.7 249.35 9.75 248.85 M77.85 287.65 L72.95 287.85 72.75 286.9 72.95 287.85 77.85 287.65 M55.0 388.5 L57.85 389.05 55.0 388.5 M160.0 315.15 Q162.35 352.95 160.65 365.35 162.35 352.95 160.0 315.15 M143.4 306.7 Q140.0 350.3 145.05 392.8 140.0 350.3 143.4 306.7 M190.5 386.65 L193.3 385.95 190.5 386.65 M160.1 279.85 L173.85 277.6 160.1 279.85" fill="#ffffff" fill-rule="evenodd" stroke="none"/>
    <path d="M182.95 236.05 L182.95 236.0 183.2 235.75 179.45 232.45 179.15 232.25 178.35 231.8 171.55 227.35 164.7 222.65 163.55 221.85 163.3 221.4 161.55 217.75 161.5 217.7 Q162.3 213.7 163.9 209.2 L164.8 206.95 166.1 203.85 Q170.0 195.35 177.25 184.9 L179.15 182.2 181.15 179.45 183.95 181.5 184.8 182.15 184.8 178.05 182.85 177.7 180.15 176.6 Q177.4 175.25 174.7 175.25 L173.85 175.35 Q173.7 175.5 173.3 177.0 171.7 176.15 169.2 171.1 166.35 165.05 164.9 162.5 162.85 158.85 159.8 156.75 158.0 155.55 158.0 152.15 L158.2 147.25 Q158.5 145.45 160.2 139.65 L161.1 133.25 Q162.95 129.85 165.3 126.5 176.15 131.0 186.65 138.9 200.1 149.0 205.45 159.75 210.4 158.6 211.45 162.2 L212.35 166.05 Q213.05 168.6 214.45 170.35 216.8 173.3 219.35 175.5 220.75 177.2 220.75 181.75 220.75 184.25 219.75 188.15 218.85 191.65 217.8 192.75 223.4 190.5 223.45 187.25 L227.8 193.9 Q230.3 197.9 231.4 201.0 L231.4 204.25 224.5 203.7 224.5 203.75 Q229.8 204.55 232.25 210.9 L233.4 214.5 233.9 216.3 234.1 216.95 234.15 217.2 Q234.9 219.65 235.6 220.7 L235.6 224.3 231.4 224.3 230.85 224.85 Q239.9 230.8 239.9 233.35 239.9 240.1 236.2 247.05 231.65 255.6 224.75 255.6 L212.7 255.6 201.15 252.9 Q197.5 252.05 196.2 247.45 L195.55 245.5 Q191.2 242.55 184.7 237.05 L183.2 235.75 182.95 236.05 M177.25 252.95 L177.25 255.5 181.85 261.6 Q179.35 269.65 173.95 273.45 L173.75 273.55 166.45 273.55 157.2 277.95 152.5 280.15 147.8 282.4 147.4 282.6 146.95 282.6 144.35 282.25 144.3 282.25 Q133.65 280.95 122.55 282.0 L121.85 282.05 Q118.85 284.5 111.7 286.9 L107.95 288.1 99.35 287.4 Q101.6 285.9 102.45 284.55 105.0 280.65 105.0 277.9 105.0 276.8 106.25 276.7 L111.25 276.7 Q117.45 276.7 121.95 278.0 126.45 279.25 130.5 279.25 134.0 279.25 139.45 276.75 143.25 275.05 145.35 273.55 147.9 271.75 150.3 268.45 L158.4 262.7 160.7 260.9 Q164.65 257.7 166.05 255.55 L166.05 253.65 164.85 253.65 Q163.85 254.15 161.85 254.5 L165.85 249.95 Q162.15 248.15 156.4 248.45 147.75 253.75 146.2 251.6 140.8 244.15 130.1 242.55 125.9 241.05 122.05 241.0 121.9 239.45 122.25 239.25 123.2 238.6 123.2 237.7 123.2 236.8 122.25 236.2 121.25 235.55 119.9 235.55 118.55 235.55 117.6 236.15 L117.6 236.2 Q116.6 236.8 116.6 237.7 116.6 238.6 117.6 239.25 L117.6 239.3 Q117.95 239.55 118.0 241.35 L117.6 241.45 Q114.05 242.2 110.85 244.3 107.7 245.05 105.4 247.0 L104.65 247.65 Q99.65 242.05 97.4 236.45 L90.35 236.65 Q84.35 240.85 77.95 242.35 L77.5 242.45 76.65 242.6 77.95 240.6 74.15 240.95 75.15 238.85 75.65 237.85 77.85 233.55 81.2 227.35 Q98.05 196.9 124.35 166.5 L125.45 167.45 Q123.95 169.7 123.7 171.9 123.5 173.75 124.2 175.6 L125.85 177.0 125.85 183.75 128.2 185.65 Q128.1 190.3 132.95 195.05 L133.15 195.2 133.05 195.45 Q128.3 207.0 130.45 226.9 130.7 226.3 131.45 225.65 L131.9 225.6 133.0 232.55 133.05 232.9 Q133.25 233.6 134.15 233.85 L133.9 236.45 Q134.05 238.6 137.45 238.6 139.05 238.6 140.55 237.15 142.95 234.85 144.65 233.8 L150.15 241.05 Q152.1 241.05 159.45 236.05 163.5 236.05 167.4 241.05 L167.95 243.4 168.3 247.35 Q168.2 249.85 173.3 252.1 174.2 252.7 177.25 252.95 M123.85 390.25 L122.25 390.4 119.85 390.6 Q84.7 393.3 60.9 389.6 L57.85 389.05 Q57.7 385.65 57.7 381.5 57.7 375.95 58.5 365.35 L59.25 352.8 59.8 352.8 Q59.8 354.05 62.35 363.8 62.2 341.7 65.25 326.45 68.2 311.95 76.45 291.15 L78.35 294.4 Q79.55 296.6 83.7 296.6 85.6 296.6 87.55 295.85 89.55 295.05 92.6 295.05 94.55 295.05 100.5 298.75 106.4 302.4 108.65 302.4 116.05 302.4 123.2 299.75 L131.25 296.6 134.95 296.6 Q134.95 305.5 135.45 338.65 135.45 355.25 130.75 364.85 L127.5 371.25 Q126.05 374.7 126.05 378.8 126.05 383.95 127.3 387.7 L128.15 389.85 125.7 390.1 123.85 390.25 M183.3 172.2 L185.35 172.4 186.45 166.0 186.45 163.9 185.2 163.9 Q183.1 164.75 183.15 167.8 L183.3 172.2 M185.35 172.4 L184.8 175.6 184.8 178.05 184.8 175.6 185.35 172.4 M187.1 183.85 L187.1 179.8 Q187.2 178.7 187.75 176.95 188.1 175.6 188.75 173.9 L190.15 169.85 Q187.15 171.1 185.8 174.75 185.2 176.35 184.95 178.1 184.7 180.1 184.95 182.25 L184.8 182.15 184.95 182.25 185.35 182.55 187.1 183.85 Q197.55 191.75 205.0 198.75 197.55 191.75 187.1 183.85 M210.7 186.75 Q208.4 188.3 206.9 192.05 L206.25 193.85 Q205.45 196.3 205.0 198.75 L208.65 202.3 209.25 202.95 212.55 206.5 213.3 207.35 216.8 207.2 Q221.55 207.2 222.9 209.0 224.5 211.15 227.8 213.4 231.0 215.55 232.35 215.55 L232.8 215.2 231.9 213.9 Q226.9 209.2 222.35 206.5 L220.15 205.35 Q214.95 202.75 210.3 202.9 211.6 200.1 214.95 200.2 L224.4 199.75 210.25 197.7 209.9 198.75 Q209.55 197.75 209.35 196.5 215.55 193.05 215.55 188.15 L215.5 186.65 215.3 186.75 Q215.3 188.25 212.7 190.55 L211.65 191.4 Q210.05 192.65 209.15 193.95 L209.15 193.25 Q209.15 190.2 210.7 186.75 M207.35 164.55 L207.35 166.8 Q208.2 172.1 211.95 178.5 214.6 183.15 215.15 185.6 L215.3 186.3 215.3 186.35 215.3 186.75 215.3 186.35 215.3 186.3 215.15 185.6 Q214.6 183.15 211.95 178.5 208.2 172.1 207.35 166.8 L207.35 164.55 M209.1 194.0 L209.15 193.95 209.15 194.0 209.1 194.0 M220.7 218.2 Q218.2 213.1 213.3 207.35 218.2 213.1 220.7 218.2 M67.05 29.7 L68.15 21.25 Q68.95 20.4 70.15 19.45 73.9 16.3 76.2 15.35 L81.65 12.85 Q86.45 10.7 90.3 9.7 94.15 8.7 97.55 8.6 L102.1 8.15 Q103.25 7.9 108.55 8.15 113.85 8.4 119.95 10.05 L133.05 13.9 136.05 22.1 Q114.5 7.1 96.3 10.3 98.6 10.85 100.7 13.3 104.65 17.85 105.45 27.1 L105.45 36.35 Q86.95 37.15 69.8 45.85 68.75 46.3 67.8 46.85 L65.4 48.9 Q65.5 42.2 67.05 29.7 79.85 13.75 94.95 10.55 79.85 13.75 67.05 29.7 M69.9 129.05 L101.95 167.55 Q81.5 196.2 64.05 225.95 61.6 221.05 60.9 217.8 60.25 214.65 60.4 207.2 60.75 192.85 52.5 181.75 L51.4 178.2 51.3 180.7 Q51.25 185.35 51.5 192.1 51.6 200.1 50.15 208.4 49.8 205.4 48.75 201.1 L46.65 192.55 45.9 201.35 Q45.9 205.2 46.55 209.4 47.15 213.55 48.4 218.0 L49.0 219.95 45.8 218.0 Q44.25 217.1 42.55 214.55 L39.35 210.35 Q41.75 215.25 45.0 219.85 49.15 225.8 52.25 227.25 L52.4 227.3 Q53.4 227.75 54.25 227.7 L53.8 230.85 52.5 236.35 52.1 238.05 52.05 238.1 55.0 238.55 56.7 238.9 56.8 238.95 61.95 240.3 62.05 240.3 69.15 240.6 69.25 241.35 Q64.35 244.6 62.9 260.9 61.85 272.05 62.4 289.3 L62.4 289.45 62.45 290.55 62.0 290.55 61.95 290.55 Q52.2 290.55 40.7 288.4 L31.45 286.75 21.8 285.15 Q16.6 284.6 12.05 278.2 7.5 271.85 7.5 265.35 7.5 249.55 15.5 245.5 L6.45 245.5 6.45 241.25 9.3 237.9 11.2 235.2 10.1 230.65 10.1 227.45 Q10.5 225.4 12.5 225.4 L16.7 226.2 Q19.6 227.0 21.8 227.0 L16.5 221.7 16.5 212.15 17.55 212.15 Q18.8 216.2 21.15 220.2 23.9 224.8 26.55 226.45 24.95 224.3 23.75 216.3 L22.85 208.45 22.85 197.35 Q23.65 189.4 27.85 189.4 28.95 189.4 29.8 190.65 L30.0 190.65 Q29.7 183.55 32.05 176.25 34.65 168.25 38.7 164.6 39.1 165.65 44.1 171.4 42.45 169.15 42.45 162.65 42.45 155.8 56.25 141.45 61.15 136.35 66.15 132.05 L69.9 129.05 M51.2 238.05 L51.4 238.05 52.0 238.1 52.05 238.1 52.0 238.1 51.4 238.05 51.2 238.05 51.4 238.05 Q51.3 233.5 50.25 228.55 45.4 227.55 39.8 222.25 34.55 217.3 33.25 213.3 29.15 200.85 26.8 196.25 L26.4 194.05 26.8 196.25 Q28.9 207.05 31.65 215.15 34.7 224.05 38.65 227.3 42.55 230.5 46.4 231.7 L48.4 235.3 49.75 238.2 51.2 238.05 M47.95 239.45 Q48.1 238.5 49.75 238.2 48.1 238.5 47.95 239.45 L44.45 238.7 Q42.35 239.6 41.1 242.15 39.5 245.25 40.35 248.45 L44.0 243.55 Q45.2 240.5 47.95 239.45 M42.25 238.05 L42.6 238.15 44.45 238.7 42.6 238.15 42.25 238.05 40.2 237.45 39.65 237.25 39.35 237.15 39.55 237.55 38.65 238.0 Q38.2 238.25 37.7 238.55 L37.65 238.3 Q34.5 239.25 30.85 241.65 27.5 243.8 25.6 244.5 L24.4 245.1 Q20.55 246.7 17.0 249.35 12.25 252.95 12.25 255.75 12.25 256.2 13.35 257.8 14.5 259.5 15.3 259.5 16.2 259.5 17.6 257.0 L19.75 252.85 19.9 252.25 Q20.2 251.2 21.15 250.2 L21.6 250.2 30.9 243.2 32.65 242.2 33.05 241.95 Q27.35 246.1 28.5 252.95 31.95 246.65 34.1 243.55 36.05 240.8 38.1 239.45 40.15 238.05 42.25 238.05 M46.5 191.8 L46.65 192.55 46.5 191.8 M36.4 236.25 L39.35 237.15 36.4 236.25 M115.95 282.8 L121.85 282.05 115.95 282.8 M172.25 270.8 L166.45 273.55 172.25 270.8 M159.2 285.65 L170.3 285.1 Q173.05 292.85 175.15 303.1 178.8 321.05 180.6 327.6 L184.8 342.1 Q187.75 353.15 187.5 357.55 186.9 367.3 188.7 371.5 L190.0 374.45 Q190.65 376.2 190.65 378.85 L190.5 386.65 187.8 387.25 Q169.35 391.1 155.75 389.3 L155.5 379.55 163.3 378.6 Q165.5 378.6 167.5 379.65 L167.5 368.65 Q166.8 367.8 166.2 365.5 L168.45 365.65 Q168.5 308.65 159.2 285.65 M37.8 206.95 L39.35 210.35 37.8 206.95 M27.95 233.0 L16.55 233.0 12.75 237.05 12.75 239.55 15.3 239.8 Q16.85 239.8 17.55 239.2 18.95 237.9 21.0 237.25 L21.55 237.05 24.1 236.25 26.15 235.55 28.6 234.8 Q31.7 235.0 35.55 236.05 34.75 235.7 34.3 234.95 33.5 233.6 32.5 233.2 L29.25 233.05 28.25 233.05 27.95 233.0 M177.3 260.65 L177.25 255.5 177.3 260.65 M208.6 249.5 L203.0 249.2 201.7 248.85 Q199.6 248.3 195.55 245.5 199.6 248.3 201.7 248.85 L203.0 249.2 208.6 249.5" fill="#cc9966" fill-rule="evenodd" stroke="none"/>
    <path d="M178.35 231.8 L178.3 232.2 Q177.35 242.4 177.25 252.95 174.2 252.7 173.3 252.1 168.2 249.85 168.3 247.35 L167.95 243.4 167.4 241.05 Q163.5 236.05 159.45 236.05 152.1 241.05 150.15 241.05 L144.65 233.8 Q142.95 234.85 140.55 237.15 139.05 238.6 137.45 238.6 134.05 238.6 133.9 236.45 L134.15 233.85 134.9 233.9 Q136.0 234.45 138.3 231.8 L139.45 230.5 142.1 227.35 142.3 227.1 Q144.8 224.6 147.25 223.15 L147.7 229.75 147.8 230.9 148.6 231.05 Q149.3 231.05 152.65 227.6 L152.9 227.35 153.9 226.4 154.0 226.3 Q156.25 224.15 157.15 224.15 L159.65 224.1 161.25 224.05 Q163.4 224.5 164.3 223.2 L164.15 222.95 164.7 222.65 171.55 227.35 178.35 231.8 M185.35 172.4 L183.3 172.2 183.15 167.8 Q183.1 164.75 185.2 163.9 L186.45 163.9 186.45 166.0 185.35 172.4 M161.1 133.25 L160.2 139.65 Q158.5 145.45 158.2 147.25 L158.0 152.15 Q158.0 155.55 159.8 156.75 162.85 158.85 164.9 162.5 166.35 165.05 169.2 171.1 171.7 176.15 173.3 177.0 173.7 175.5 173.85 175.35 L174.7 175.25 Q177.4 175.25 180.15 176.6 L182.85 177.7 184.8 178.05 184.8 182.15 183.95 181.5 181.15 179.45 179.15 182.2 175.45 178.95 173.25 181.55 170.75 180.2 162.4 163.3 Q159.85 162.25 157.05 160.0 L153.1 156.4 Q154.7 144.65 161.1 133.25 M163.9 209.2 Q162.3 213.7 161.5 217.7 158.05 209.75 154.9 196.8 L159.05 196.0 161.75 198.25 Q159.75 202.1 158.55 205.7 L163.9 209.2 M190.15 169.85 L188.75 173.9 Q188.1 175.6 187.75 176.95 187.2 178.7 187.1 179.8 L187.1 183.85 185.35 182.55 184.95 182.25 Q184.7 180.1 184.95 178.1 185.2 176.35 185.8 174.75 187.15 171.1 190.15 169.85 M205.0 198.75 Q205.45 196.3 206.25 193.85 L206.9 192.05 Q208.4 188.3 210.7 186.75 209.15 190.2 209.15 193.25 L209.15 193.95 Q210.05 192.65 211.65 191.4 L212.7 190.55 Q215.3 188.25 215.3 186.75 L215.5 186.65 215.55 188.15 Q215.55 193.05 209.35 196.5 209.55 197.75 209.9 198.75 L210.25 197.7 224.4 199.75 214.95 200.2 Q211.6 200.1 210.3 202.9 214.95 202.75 220.15 205.35 L222.35 206.5 Q226.9 209.2 231.9 213.9 L232.8 215.2 232.35 215.55 Q231.0 215.55 227.8 213.4 224.5 211.15 222.9 209.0 221.55 207.2 216.8 207.2 L213.3 207.35 212.55 206.5 209.25 202.95 208.65 202.3 209.9 198.75 208.65 202.3 205.0 198.75 M209.15 193.95 L209.1 194.0 209.15 194.0 209.15 193.95 M207.95 197.35 Q207.95 195.65 209.1 194.0 207.95 195.65 207.95 197.35 M56.7 238.9 L55.0 238.55 56.0 225.85 54.1 222.2 53.5 223.8 52.4 227.3 52.25 227.25 Q50.85 226.05 49.0 219.95 50.85 226.05 52.25 227.25 49.15 225.8 45.0 219.85 41.75 215.25 39.35 210.35 L42.55 214.55 Q44.25 217.1 45.8 218.0 L49.0 219.95 48.4 218.0 Q47.15 213.55 46.55 209.4 45.9 205.2 45.9 201.35 L46.65 192.55 48.75 201.1 Q49.8 205.4 50.15 208.4 51.6 200.1 51.5 192.1 51.25 185.35 51.3 180.7 L51.4 178.2 52.5 181.75 Q53.4 184.85 53.6 186.85 L53.75 196.1 53.1 208.6 52.5 215.5 Q52.5 217.65 53.0 219.45 L53.6 221.2 54.1 222.2 53.6 221.2 53.0 219.45 Q52.5 217.65 52.5 215.5 L53.1 208.6 53.75 196.1 53.6 186.85 Q53.4 184.85 52.5 181.75 60.75 192.85 60.4 207.2 60.25 214.65 60.9 217.8 61.6 221.05 64.05 225.95 L61.7 229.95 58.6 235.4 56.9 238.4 56.7 238.9 M51.2 238.05 L49.75 238.2 48.4 235.3 46.4 231.7 Q42.55 230.5 38.65 227.3 34.7 224.05 31.65 215.15 28.9 207.05 26.8 196.25 29.15 200.85 33.25 213.3 34.55 217.3 39.8 222.25 45.4 227.55 50.25 228.55 51.3 233.5 51.4 238.05 L51.2 238.05 M47.95 239.45 Q45.2 240.5 44.0 243.55 L40.35 248.45 Q39.5 245.25 41.1 242.15 42.35 239.6 44.45 238.7 L47.95 239.45 M38.1 239.45 Q36.05 240.8 34.1 243.55 31.95 246.65 28.5 252.95 27.35 246.1 33.05 241.95 L32.65 242.2 30.9 243.2 21.6 250.2 21.15 250.2 Q20.2 251.2 19.9 252.25 L19.75 252.85 17.6 257.0 Q16.2 259.5 15.3 259.5 14.5 259.5 13.35 257.8 12.25 256.2 12.25 255.75 12.25 252.95 17.0 249.35 20.55 246.7 24.4 245.1 L25.6 244.5 Q27.5 243.8 30.85 241.65 34.5 239.25 37.65 238.3 L37.7 238.55 38.1 239.45 M161.85 254.5 Q163.85 254.15 164.85 253.65 L166.05 253.65 166.05 255.55 Q164.65 257.7 160.7 260.9 L158.4 262.7 150.3 268.45 Q147.9 271.75 145.35 273.55 143.25 275.05 139.45 276.75 134.0 279.25 130.5 279.25 126.45 279.25 121.95 278.0 117.45 276.7 111.25 276.7 L106.25 276.7 Q105.0 276.8 105.0 277.9 105.0 280.65 102.45 284.55 101.6 285.9 99.35 287.4 L107.95 288.1 111.7 286.9 133.7 285.35 144.3 282.25 Q134.35 287.8 136.9 385.25 L137.75 385.75 Q138.65 386.2 139.55 387.7 L140.2 388.6 128.15 389.85 127.3 387.7 Q126.05 383.95 126.05 378.8 126.05 374.7 127.5 371.25 L130.75 364.85 Q135.45 355.25 135.45 338.65 134.95 305.5 134.95 296.6 L131.25 296.6 123.2 299.75 Q116.05 302.4 108.65 302.4 106.4 302.4 100.5 298.75 94.55 295.05 92.6 295.05 89.55 295.05 87.55 295.85 85.6 296.6 83.7 296.6 79.55 296.6 78.35 294.4 L76.45 291.15 77.85 287.65 96.15 286.9 Q90.7 285.95 87.25 284.3 L91.95 283.5 92.7 280.9 93.0 280.75 98.55 278.5 99.5 269.05 103.05 265.65 103.9 265.9 105.1 267.3 Q108.3 270.25 114.3 272.25 L117.6 272.9 Q137.15 276.15 155.15 260.9 L161.85 254.5 M95.85 251.9 L97.4 255.35 95.6 257.0 Q94.15 255.55 94.15 254.6 94.15 253.55 94.85 252.75 95.3 252.2 95.85 251.9 M90.1 253.85 L88.6 252.9 Q90.0 247.2 94.25 245.3 L97.05 247.75 97.0 247.8 Q94.1 247.75 92.1 249.8 90.35 251.5 90.1 253.85 M92.0 271.2 L92.4 272.1 91.8 272.7 86.35 270.0 92.0 271.2 M99.35 287.4 L98.4 287.25 96.15 286.9 98.4 287.25 99.35 287.4 M149.3 287.8 Q152.25 288.45 152.65 286.5 L152.65 285.55 153.8 284.8 Q157.8 319.1 153.8 341.9 152.2 315.75 149.3 287.8 M57.3 209.5 L56.0 225.85 57.3 209.5 M28.6 234.8 L26.15 235.55 24.1 236.25 21.55 237.05 21.0 237.25 Q18.95 237.9 17.55 239.2 16.85 239.8 15.3 239.8 L12.75 239.55 12.75 237.05 16.55 233.0 27.95 233.0 28.25 233.05 29.25 233.05 32.5 233.2 Q33.5 233.6 34.3 234.95 34.75 235.7 35.55 236.05 31.7 235.0 28.6 234.8 L28.7 234.75 28.2 234.75 28.6 234.8 M32.65 242.2 Q35.85 239.7 37.7 238.55 35.85 239.7 32.65 242.2 M155.15 369.3 Q159.7 369.8 160.75 370.45 161.55 370.95 162.9 370.95 163.8 370.95 163.85 370.15 L163.85 370.05 164.05 365.35 164.7 365.35 166.2 365.5 Q166.8 367.8 167.5 368.65 L167.5 379.65 Q165.5 378.6 163.3 378.6 L155.5 379.55 155.15 369.3 M210.3 202.9 L209.25 202.95 210.3 202.9" fill="#b97b3e" fill-rule="evenodd" stroke="none"/>
    <path d="M69.15 288.95 L69.2 289.15 64.3 289.25 62.4 289.3 Q61.85 272.05 62.9 260.9 64.35 244.6 69.25 241.35 L71.35 241.2 74.15 240.95 77.95 240.6 76.65 242.6 Q73.2 248.1 71.0 253.65 69.85 256.6 69.0 259.55 L68.65 260.9 Q66.65 268.75 67.05 276.75 67.35 281.95 68.7 287.2 L69.15 288.95 M173.25 181.55 L175.45 178.95 179.15 182.2 177.25 184.9 Q170.0 195.35 166.1 203.85 L164.8 206.95 163.9 209.2 158.55 205.7 Q159.75 202.1 161.75 198.25 L162.1 197.65 164.6 193.35 Q167.2 189.1 170.8 184.6 L173.25 181.55 M112.55 153.1 L104.0 143.8 88.05 126.55 Q89.2 125.2 90.6 122.55 92.45 119.1 92.8 117.0 101.0 125.45 107.2 135.1 L108.65 137.45 113.05 131.75 Q122.0 120.35 132.5 109.6 133.2 111.0 136.45 114.9 L138.1 116.85 136.15 121.45 134.9 124.55 Q125.45 136.1 116.5 147.85 L112.55 153.1 M104.0 143.8 L107.85 138.5 108.65 137.45 107.85 138.5 104.0 143.8" fill="#d5d5d5" fill-rule="evenodd" stroke="none"/>
    <path d="M130.7 94.95 L130.6 94.9 130.75 94.8 130.7 94.95 M102.7 74.6 L102.45 74.55 102.9 72.7 102.7 74.6 M99.05 60.6 L99.15 60.5 99.05 60.6" fill="#ffd5c4" fill-rule="evenodd" stroke="none"/>
    <path d="M134.95 78.1 L135.05 78.1 134.95 78.1 M98.6 93.4 Q100.0 92.8 104.6 91.7 L109.5 92.1 109.6 92.1 Q111.2 92.3 113.0 91.55 L116.65 89.9 Q118.15 89.2 120.55 89.3 L124.45 89.05 119.65 91.2 Q112.1 94.05 104.6 93.95 L98.6 93.4 M123.9 89.65 Q123.85 90.5 122.45 92.35 120.9 94.45 119.45 95.25 L119.15 95.4 Q114.2 97.9 111.25 97.9 L106.1 97.25 Q103.5 96.05 102.5 95.75 L101.95 95.4 99.85 94.05 103.05 95.4 105.1 96.0 Q110.8 97.45 115.9 95.4 118.1 94.5 120.2 93.0 L123.9 89.65 M77.95 242.35 L77.55 242.6 77.5 242.45 77.95 242.35" fill="#febda3" fill-rule="evenodd" stroke="none"/>
    <path d="M143.0 42.15 Q123.55 35.5 105.45 36.35 L105.45 27.1 Q104.65 17.85 100.7 13.3 98.6 10.85 96.3 10.3 114.5 7.1 136.05 22.1 L139.15 29.6 Q142.15 36.5 143.0 42.15" fill="#bf8040" fill-rule="evenodd" stroke="none"/>
    <path d="M116.25 73.65 L116.4 73.95 116.15 73.8 116.25 73.65 M116.05 79.0 L116.0 79.05 116.0 79.0 115.85 78.9 116.05 79.0 M112.5 82.65 L112.35 82.7 112.05 81.8 112.5 82.65 M114.95 89.0 Q111.05 91.95 106.4 90.4 L114.95 89.0" fill="#feab89" fill-rule="evenodd" stroke="none"/>
    <path d="M99.85 94.05 L98.6 93.4 104.6 93.95 104.95 95.4 105.1 96.0 103.05 95.4 99.85 94.05 M124.45 89.05 L123.9 89.65 120.2 93.0 120.1 92.5 119.65 91.2 124.45 89.05 M156.4 248.45 Q162.15 248.15 165.85 249.95 159.8 250.8 156.4 248.45" fill="#333333" fill-rule="evenodd" stroke="none"/>
    <path d="M187.05 416.45 L131.95 416.45 130.3 412.85 Q128.7 409.3 128.55 405.1 128.9 401.3 128.5 398.1 127.95 393.8 125.7 390.1 L128.15 389.85 140.2 388.6 Q141.7 390.45 145.05 392.8 L146.0 400.3 Q148.9 399.5 155.85 392.35 L155.75 389.3 Q169.35 391.1 187.8 387.25 188.1 390.1 189.0 394.0 L188.75 399.25 Q188.1 401.65 185.55 401.65 L185.55 403.35 Q187.65 409.65 187.65 411.6 187.65 413.9 187.05 416.45 M117.9 416.45 L58.6 416.45 58.55 415.9 Q58.55 406.75 61.15 402.9 L62.95 400.8 Q63.75 399.9 63.75 398.9 63.75 396.85 62.7 394.85 61.3 392.2 60.9 390.7 L60.9 389.6 Q84.7 393.3 119.85 390.6 119.55 394.55 118.15 401.25 116.45 409.35 116.45 410.85 116.45 414.7 117.9 416.2 L117.9 416.45 M71.05 278.85 L71.0 280.45 Q70.8 287.2 69.15 288.95 L68.7 287.2 Q67.35 281.95 67.05 276.75 L69.75 278.15 71.0 278.8 71.05 278.85 M147.25 223.15 Q149.95 221.4 152.55 221.0 L152.8 220.95 153.9 220.95 153.9 221.0 153.9 221.45 153.6 221.75 Q149.7 224.95 148.4 227.35 147.7 228.6 147.7 229.6 L147.7 229.75 147.25 223.15 M131.9 225.6 L131.85 225.3 Q132.75 224.65 133.5 224.65 133.75 224.65 133.85 225.15 L133.85 225.45 Q133.85 226.6 133.5 227.35 L133.4 227.5 Q132.9 228.25 132.9 230.05 L133.0 232.55 131.9 225.6 M163.85 370.05 Q163.85 369.6 162.25 367.95 L160.55 365.8 160.65 365.35 164.05 365.35 163.85 370.05" fill="#999999" fill-rule="evenodd" stroke="none"/>
    <path d="M118.0 241.35 Q117.95 239.55 117.6 239.3 L117.6 239.25 Q116.6 238.6 116.6 237.7 116.6 236.8 117.6 236.2 L117.6 236.15 Q118.55 235.55 119.9 235.55 121.25 235.55 122.25 236.2 123.2 236.8 123.2 237.7 123.2 238.6 122.25 239.25 121.9 239.45 122.05 241.0 L122.2 242.65 118.0 242.85 118.0 241.35" fill="url(#gradient0)" fill-rule="evenodd" stroke="none"/>
    <path d="M118.0 241.35 L118.0 242.85 122.2 242.65 122.05 241.0 Q125.9 241.05 130.1 242.55 125.5 245.45 117.6 245.1 L110.85 244.3 Q114.05 242.2 117.6 241.45 L118.0 241.35" fill="url(#gradient1)" fill-rule="evenodd" stroke="none"/>
    <path d="M130.1 242.55 Q140.8 244.15 146.2 251.6 147.75 253.75 156.4 248.45 159.8 250.8 165.85 249.95 L161.85 254.5 155.15 260.9 Q137.15 276.15 117.6 272.9 L114.3 272.25 Q108.3 270.25 105.1 267.3 L103.9 265.9 Q102.5 263.9 101.85 260.9 L101.7 260.0 101.6 259.7 101.55 259.45 101.4 257.6 101.3 256.1 Q101.3 254.8 101.45 253.6 101.65 251.7 102.35 250.25 102.95 249.2 104.55 247.75 L104.65 247.65 105.4 247.0 Q107.7 245.05 110.85 244.3 L117.6 245.1 Q125.5 245.45 130.1 242.55 M112.5 251.7 Q113.35 249.8 115.4 247.8 112.45 247.75 110.6 246.25 107.85 247.7 106.85 249.9 109.85 251.55 112.5 251.7 M155.6 249.9 L148.65 254.05 Q151.05 255.25 155.9 250.7 L155.6 249.9" fill="url(#gradient2)" fill-rule="evenodd" stroke="none"/>
    <path d="M101.45 253.6 Q98.5 252.0 97.9 251.75 L96.4 251.7 95.85 251.9 Q95.3 252.2 94.85 252.75 94.15 253.55 94.15 254.6 94.15 255.55 95.6 257.0 L95.3 257.25 90.1 253.85 Q90.35 251.5 92.1 249.8 94.1 247.75 97.0 247.8 L97.15 247.8 Q99.3 249.15 101.2 249.15 99.3 249.15 97.15 247.8 L98.05 247.85 Q99.4 248.05 100.55 248.7 L101.2 249.15 101.95 249.8 102.35 250.25 Q101.65 251.7 101.45 253.6 M101.6 259.7 L101.7 260.0 101.85 260.9 Q102.5 263.9 103.9 265.9 L103.05 265.65 99.05 264.25 96.6 263.0 101.25 259.65 101.6 259.7" fill="url(#gradient3)" fill-rule="evenodd" stroke="none"/>
    <path d="M182.95 236.0 L179.45 232.45 183.2 235.75 182.95 236.0" fill="#669966" fill-rule="evenodd" stroke="none"/>
    <path d="M138.45 54.8 L138.45 53.4 137.3 53.4 136.15 53.6 136.35 53.2 Q136.75 52.6 136.75 52.2 L136.75 51.85 135.55 51.65 135.55 50.7 Q135.95 50.3 135.95 49.9 L135.75 49.7 134.8 49.7 Q135.25 49.3 135.0 48.85 L134.85 48.55 140.55 50.45 143.2 51.5 141.9 52.95 141.45 53.5 Q140.6 55.1 140.4 57.85 L140.2 57.85 140.0 55.9 138.45 56.1 138.45 54.8 M73.8 54.1 L74.25 55.4 Q74.25 56.5 72.55 57.25 L72.9 59.2 71.75 59.2 Q72.45 60.95 70.8 61.8 L71.2 63.35 71.0 63.9 70.5 64.4 Q70.2 64.7 70.05 65.2 L69.75 64.6 68.65 61.8 68.45 61.4 68.55 59.5 68.8 56.55 Q69.75 56.0 70.8 55.55 72.25 54.75 73.8 54.1" fill="#000000" fill-rule="evenodd" stroke="none"/>
    <path d="M72.6 279.65 L71.05 278.85 71.0 278.8 69.75 278.15 69.75 277.3 Q68.1 273.05 68.1 272.55 68.1 271.9 70.35 270.1 L71.0 269.55 Q72.6 268.2 72.6 267.85 71.35 266.1 71.0 264.15 L70.85 262.45 71.0 261.4 71.2 260.9 Q71.7 259.8 72.95 258.9 75.0 257.45 75.0 256.85 L73.95 254.4 Q73.95 252.7 75.3 251.8 76.65 250.95 76.65 249.8 75.95 247.7 75.95 246.15 75.95 243.65 77.55 242.6 L77.95 242.35 Q84.35 240.85 90.35 236.65 L97.4 236.45 Q99.65 242.05 104.65 247.65 L104.55 247.75 Q103.0 249.1 101.2 249.15 L100.55 248.7 Q99.4 248.05 98.05 247.85 L97.15 247.8 97.05 247.75 94.25 245.3 92.65 243.55 Q86.55 245.7 85.35 246.35 83.85 247.15 83.85 250.85 83.85 254.55 89.2 257.5 91.9 259.0 94.55 259.75 96.5 259.75 98.5 258.3 L101.3 256.1 101.4 257.6 101.55 259.45 101.25 259.65 96.6 263.0 94.55 264.5 81.1 259.8 80.95 260.9 80.4 262.75 80.4 264.55 Q82.35 264.8 85.65 265.9 88.45 266.8 90.6 266.8 93.15 266.8 96.5 265.45 L99.05 264.25 103.05 265.65 99.5 269.05 98.85 269.65 97.55 270.05 98.85 269.65 99.5 269.05 98.55 278.5 93.0 280.75 92.7 280.9 91.95 283.5 87.25 284.3 82.85 285.05 72.6 279.65 M78.05 83.6 L77.9 83.8 77.75 84.0 77.55 84.2 76.25 84.25 Q73.35 84.25 72.05 82.35 70.5 79.05 69.0 77.1 65.5 72.55 64.5 69.65 63.75 67.45 63.75 63.15 63.75 61.3 64.4 60.0 L64.7 59.75 68.8 56.55 68.55 59.5 67.85 60.0 Q67.2 61.3 67.2 63.15 67.2 67.45 67.95 69.65 68.85 72.25 71.8 76.25 L71.8 77.05 Q72.6 78.5 74.35 80.0 L75.2 80.75 77.7 82.95 78.05 83.6 M146.2 53.75 L146.35 53.9 146.6 54.25 146.85 54.95 146.9 57.7 Q146.9 60.85 146.15 64.65 145.2 69.55 143.55 71.05 142.65 71.9 140.45 76.0 139.55 77.7 138.15 78.3 L138.2 76.15 138.35 75.9 140.8 71.65 140.9 71.55 Q142.55 70.05 143.5 65.15 144.25 61.35 144.25 58.2 L144.2 55.45 143.95 54.75 143.7 54.4 142.9 53.75 141.9 52.95 143.2 51.5 145.55 53.25 146.2 53.75 M170.8 184.6 Q167.2 189.1 164.6 193.35 L162.1 197.65 161.75 198.25 159.05 196.0 154.9 196.8 146.55 198.4 Q142.1 196.8 138.1 196.15 L133.6 195.65 133.15 195.2 132.95 195.05 Q128.1 190.3 128.2 185.65 L125.85 183.75 125.85 177.0 124.2 175.6 Q123.5 173.75 123.7 171.9 123.95 169.7 125.45 167.45 L124.35 166.5 123.55 165.8 Q122.45 161.95 123.55 158.05 L127.75 153.65 131.4 153.65 131.35 155.6 127.05 156.8 Q126.4 157.2 126.4 159.3 126.4 160.8 127.25 161.25 130.75 162.95 132.2 163.9 133.15 164.5 135.0 166.55 137.05 168.25 139.6 168.25 142.1 168.25 145.05 167.5 149.6 166.3 154.3 165.55 157.45 165.6 159.15 167.95 160.1 169.25 161.6 173.5 164.6 182.05 170.8 184.6 M126.85 168.7 L126.8 168.65 125.45 167.45 126.8 168.65 126.85 168.7 126.75 168.8 Q126.75 172.5 130.05 175.15 L134.95 178.85 Q134.8 177.3 134.8 174.35 L133.35 174.35 126.85 168.7 M135.65 174.35 L134.8 174.35 135.65 174.35 M134.85 48.55 L135.0 48.85 Q135.25 49.3 134.8 49.7 L135.75 49.7 135.95 49.9 Q135.95 50.3 135.55 50.7 L135.55 51.65 136.75 51.85 136.75 52.2 Q136.75 52.6 136.35 53.2 L136.15 53.6 137.3 53.4 138.45 53.4 138.45 54.8 Q138.3 55.55 138.45 56.25 L138.5 56.55 138.5 59.65 139.55 65.15 Q139.55 68.45 138.25 71.3 L135.05 77.85 135.05 78.1 134.95 78.1 133.65 79.2 Q132.4 79.8 131.15 79.8 131.0 82.5 131.25 88.45 131.25 92.45 130.6 94.9 L130.7 94.95 130.45 95.35 130.45 95.4 130.2 96.0 129.95 96.15 128.85 97.65 126.05 100.65 123.2 102.5 Q122.7 102.7 122.65 103.15 L122.55 104.0 120.3 107.5 Q118.65 109.7 116.55 109.7 114.6 109.7 114.55 108.2 114.0 109.8 111.4 110.7 108.05 110.65 103.65 107.8 97.2 103.4 95.7 103.0 L95.65 103.0 Q94.5 102.65 93.5 101.1 L92.1 98.35 92.1 98.3 91.05 94.35 90.55 92.4 89.25 87.75 88.3 84.3 87.35 84.05 86.15 83.55 86.05 83.5 82.05 82.05 Q78.7 81.5 75.5 76.65 74.6 75.2 74.15 72.95 L74.35 72.85 74.0 72.3 73.9 71.75 73.4 67.65 Q73.0 65.6 71.75 64.2 L71.0 63.9 71.2 63.35 70.8 61.8 Q72.45 60.95 71.75 59.2 L72.9 59.2 72.55 57.25 Q74.25 56.5 74.25 55.4 L73.8 54.1 Q104.75 39.55 134.85 48.55 M102.7 74.6 L102.45 75.6 104.0 72.6 104.1 69.25 Q104.1 65.6 103.75 64.75 102.9 62.6 99.15 60.5 L99.05 60.6 98.75 60.25 Q97.5 58.85 99.3 61.65 100.7 63.9 101.45 68.05 L102.45 74.55 102.7 74.6 M116.25 73.65 Q114.5 69.75 114.45 68.15 114.4 66.5 115.5 63.55 L117.15 59.1 114.6 62.2 Q113.15 63.75 112.35 65.6 111.55 67.45 112.85 70.1 114.05 72.6 116.15 73.8 L116.4 73.95 116.25 73.65 M118.5 62.3 L118.6 63.45 Q119.05 62.2 121.4 61.1 122.85 60.4 123.9 60.15 L121.95 59.8 Q120.85 59.8 119.65 60.8 118.5 61.7 118.5 62.3 M96.8 68.15 L92.6 70.7 91.9 70.9 88.65 71.25 Q91.95 73.8 93.45 73.8 94.45 73.8 95.55 71.85 96.6 70.0 96.8 68.15 M96.75 61.75 Q96.7 60.5 95.6 60.65 L95.5 60.7 91.65 61.45 Q94.15 61.5 96.85 63.95 L96.75 61.75 M119.9 67.25 L121.2 69.75 Q121.4 70.35 122.4 71.35 123.65 72.6 124.7 72.6 125.25 72.6 126.3 70.65 127.5 68.45 128.1 67.95 126.1 69.1 124.95 69.1 123.55 69.1 122.65 68.5 121.35 67.6 119.9 67.25 M98.6 93.4 L99.85 94.05 101.95 95.4 102.5 95.75 Q103.5 96.05 106.1 97.25 L111.25 97.9 Q114.2 97.9 119.15 95.4 L119.45 95.25 Q120.9 94.45 122.45 92.35 123.85 90.5 123.9 89.65 L124.45 89.05 120.55 89.3 Q118.15 89.2 116.65 89.9 L113.0 91.55 Q111.2 92.3 109.6 92.1 L109.5 92.1 104.6 91.7 Q100.0 92.8 98.6 93.4 M117.6 83.3 L118.95 83.7 125.2 87.4 Q124.85 86.2 124.2 85.65 L122.5 84.3 122.55 84.35 Q115.2 76.7 116.9 79.7 L116.05 79.0 115.85 78.9 116.0 79.0 116.0 79.05 Q116.7 79.75 116.8 81.4 116.85 83.25 115.05 83.4 113.2 83.5 112.5 82.65 L112.05 81.8 112.35 82.7 112.3 84.3 Q111.95 85.55 109.3 85.65 106.55 85.75 107.0 79.2 105.9 81.55 105.75 83.45 L105.6 84.55 105.1 84.55 Q102.55 84.85 101.95 83.9 101.4 82.9 102.5 81.3 L102.55 80.25 Q102.2 80.3 101.55 81.25 100.9 82.2 100.7 83.5 100.45 84.75 101.45 85.75 102.45 86.75 103.85 86.75 L105.7 86.6 Q106.45 86.45 106.95 86.95 107.4 87.4 108.45 87.45 L110.9 87.25 Q112.3 87.05 114.5 84.8 115.05 84.35 115.75 84.35 116.7 84.35 117.35 83.55 L117.6 83.3 M111.0 83.05 Q111.0 81.55 109.55 81.55 108.05 81.55 108.05 83.05 L108.3 83.8 Q108.65 84.55 109.55 84.55 111.0 84.55 111.0 83.05 M106.4 90.4 Q111.05 91.95 114.95 89.0 L106.4 90.4 M108.3 101.3 Q110.4 105.0 113.55 105.0 115.7 105.0 117.8 102.95 119.7 101.05 119.7 99.65 L119.45 99.1 Q114.45 104.7 108.3 101.3 M134.4 182.7 L132.55 182.7 128.25 179.0 128.2 179.05 Q128.75 183.2 134.4 186.15 L134.4 182.7 M131.55 188.4 L128.2 185.65 131.55 188.4 Q131.8 190.1 132.8 191.1 L135.7 194.0 135.7 191.6 135.15 190.25 133.8 190.25 131.55 188.4 M125.85 177.0 L128.2 179.0 128.25 179.0 128.2 179.0 125.85 177.0 M97.55 270.05 L92.95 271.4 92.0 271.2 86.35 270.0 80.0 268.65 Q78.45 270.65 78.45 271.75 81.8 273.3 94.45 276.75 97.55 276.75 97.55 270.55 L97.55 270.05 M78.35 275.45 Q76.8 276.45 76.8 276.55 76.8 277.15 81.3 279.05 85.8 280.9 87.25 280.9 88.7 280.9 90.45 280.05 L92.7 280.9 90.45 280.05 78.35 275.45 77.2 275.0 78.35 275.45 M78.95 268.4 L80.0 268.65 78.95 268.4" fill="#ffdbc4" fill-rule="evenodd" stroke="none"/>
    <path d="M89.05 102.1 Q85.6 99.6 84.8 97.95 L83.45 95.4 81.1 90.2 78.35 84.15 78.05 83.6 77.7 82.95 75.2 80.75 74.35 80.0 Q72.6 78.5 71.8 77.05 L71.8 76.25 Q68.85 72.25 67.95 69.65 67.2 67.45 67.2 63.15 67.2 61.3 67.85 60.0 L68.55 59.5 68.45 61.4 68.65 61.8 69.75 64.6 70.05 65.2 Q70.2 64.7 70.5 64.4 L71.0 63.9 71.75 64.2 Q73.0 65.6 73.4 67.65 L73.9 71.75 74.0 72.3 74.15 72.95 Q74.6 75.2 75.5 76.65 78.7 81.5 82.05 82.05 L86.05 83.5 86.15 83.55 87.35 84.05 88.3 84.3 89.25 87.75 90.55 92.4 91.05 94.35 92.1 98.3 92.1 98.35 93.5 101.1 Q94.5 102.65 95.65 103.0 L95.7 103.0 Q97.2 103.4 103.65 107.8 108.05 110.65 111.4 110.7 114.0 109.8 114.55 108.2 114.6 109.7 116.55 109.7 118.65 109.7 120.3 107.5 L122.55 104.0 122.65 103.15 Q122.7 102.7 123.2 102.5 L126.05 100.65 128.85 97.65 129.95 96.15 130.2 96.0 130.45 95.4 130.45 95.35 130.7 94.95 130.75 94.8 130.6 94.9 Q131.25 92.45 131.25 88.45 131.0 82.5 131.15 79.8 132.4 79.8 133.65 79.2 L134.95 78.1 135.05 78.1 135.05 77.85 138.25 71.3 Q139.55 68.45 139.55 65.15 L138.5 59.65 138.5 56.55 138.45 56.25 Q138.3 55.55 138.45 54.8 L138.45 56.1 140.0 55.9 140.2 57.85 140.4 57.85 Q140.6 55.1 141.45 53.5 L141.9 52.95 142.9 53.75 143.7 54.4 143.95 54.75 144.2 55.45 144.25 58.2 Q144.25 61.35 143.5 65.15 142.55 70.05 140.9 71.55 L140.8 71.65 138.35 75.9 138.2 76.15 138.15 78.3 Q137.9 82.6 136.6 89.7 L135.75 92.5 133.6 95.4 132.5 96.7 130.5 98.85 124.65 104.8 120.55 110.2 Q119.3 111.8 115.25 111.8 L112.55 111.5 112.5 111.5 112.25 111.45 111.7 111.8 110.7 112.2 108.85 112.5 106.25 112.35 105.85 112.1 95.75 106.25 94.05 105.25 92.45 104.3 89.05 102.1 M170.8 184.6 Q164.6 182.05 161.6 173.5 160.1 169.25 159.15 167.95 157.45 165.6 154.3 165.55 149.6 166.3 145.05 167.5 142.1 168.25 139.6 168.25 137.05 168.25 135.0 166.55 133.15 164.5 132.2 163.9 130.75 162.95 127.25 161.25 126.4 160.8 126.4 159.3 126.4 157.2 127.05 156.8 L131.35 155.6 131.3 160.05 133.15 159.95 139.9 164.95 152.6 162.4 152.7 160.9 153.1 156.4 157.05 160.0 Q159.85 162.25 162.4 163.3 L170.75 180.2 173.25 181.55 170.8 184.6 M126.85 168.7 L133.35 174.35 134.8 174.35 Q134.8 177.3 134.95 178.85 L130.05 175.15 Q126.75 172.5 126.75 168.8 L126.85 168.7 M154.5 162.0 L152.6 162.4 154.5 162.0 M102.45 74.55 L101.45 68.05 Q100.7 63.9 99.3 61.65 97.5 58.85 98.75 60.25 L99.05 60.6 101.4 63.75 Q103.5 66.15 103.5 69.1 L103.05 71.9 102.9 72.7 102.45 74.55 M118.5 62.3 Q118.5 61.7 119.65 60.8 120.85 59.8 121.95 59.8 L123.9 60.15 Q122.85 60.4 121.4 61.1 119.05 62.2 118.6 63.45 L118.5 62.3 M116.15 73.8 Q114.05 72.6 112.85 70.1 111.55 67.45 112.35 65.6 113.15 63.75 114.6 62.2 L117.15 59.1 115.5 63.55 Q114.4 66.5 114.45 68.15 114.5 69.75 116.25 73.65 L116.15 73.8 M119.9 67.25 Q121.35 67.6 122.65 68.5 123.55 69.1 124.95 69.1 126.1 69.1 128.1 67.95 127.5 68.45 126.3 70.65 125.25 72.6 124.7 72.6 123.65 72.6 122.4 71.35 121.4 70.35 121.2 69.75 L119.9 67.25 M96.75 61.75 L96.85 63.95 Q94.15 61.5 91.65 61.45 L95.5 60.7 95.6 60.65 Q96.7 60.5 96.75 61.75 M96.8 68.15 Q96.6 70.0 95.55 71.85 94.45 73.8 93.45 73.8 91.95 73.8 88.65 71.25 L91.9 70.9 92.6 70.7 96.8 68.15 M117.6 83.3 Q118.05 82.6 117.95 81.8 117.85 80.8 117.2 80.0 L116.9 79.7 117.2 80.0 Q117.85 80.8 117.95 81.8 118.05 82.6 117.6 83.3 L117.35 83.55 Q116.7 84.35 115.75 84.35 115.05 84.35 114.5 84.8 112.3 87.05 110.9 87.25 L108.45 87.45 Q107.4 87.4 106.95 86.95 106.45 86.45 105.7 86.6 L103.85 86.75 Q102.45 86.75 101.45 85.75 100.45 84.75 100.7 83.5 100.9 82.2 101.55 81.25 102.2 80.3 102.55 80.25 L102.5 81.3 Q101.4 82.9 101.95 83.9 102.55 84.85 105.1 84.55 L105.6 84.55 105.75 83.45 Q105.9 81.55 107.0 79.2 106.55 85.75 109.3 85.65 111.95 85.55 112.3 84.3 L112.35 82.7 112.5 82.65 Q113.2 83.5 115.05 83.4 116.85 83.25 116.8 81.4 116.7 79.75 116.0 79.05 L116.05 79.0 116.9 79.7 Q115.2 76.7 122.55 84.35 L122.5 84.3 124.2 85.65 Q124.85 86.2 125.2 87.4 L118.95 83.7 117.6 83.3 M140.4 57.85 L140.3 59.85 Q140.3 62.0 140.75 62.85 L142.4 65.55 Q142.8 67.6 140.9 71.55 142.8 67.6 142.4 65.55 L140.75 62.85 Q140.3 62.0 140.3 59.85 L140.4 57.85 M70.05 65.2 Q70.75 66.65 71.8 67.75 L71.8 76.25 71.8 67.75 Q70.75 66.65 70.05 65.2 M119.45 99.1 L119.7 99.65 Q119.7 101.05 117.8 102.95 115.7 105.0 113.55 105.0 110.4 105.0 108.3 101.3 114.45 104.7 119.45 99.1 M92.55 107.1 L94.05 108.3 95.75 109.65 100.1 112.9 Q107.15 118.15 108.1 118.15 L109.8 117.65 Q110.15 119.75 108.85 120.65 107.55 121.5 107.45 123.2 L107.5 123.95 Q107.6 125.15 108.4 126.3 L108.5 126.45 Q109.45 127.65 109.4 128.9 L109.4 129.0 109.2 129.4 109.2 130.25 108.3 134.2 107.2 135.1 Q101.0 125.45 92.8 117.0 L92.4 116.55 92.45 116.0 92.6 113.7 92.6 113.25 92.55 107.1 M127.75 158.05 L130.85 160.05 131.3 160.05 130.85 160.05 128.15 160.15 130.85 160.05 127.75 158.05 M128.25 179.0 L132.55 182.7 134.4 182.7 134.4 186.15 Q128.75 183.2 128.2 179.05 L128.25 179.0 M131.55 188.4 L133.8 190.25 135.15 190.25 135.7 191.6 135.7 194.0 132.8 191.1 Q131.8 190.1 131.55 188.4 M77.55 242.6 Q75.95 243.65 75.95 246.15 75.95 247.7 76.65 249.8 76.65 250.95 75.3 251.8 73.95 252.7 73.95 254.4 L75.0 256.85 Q75.0 257.45 72.95 258.9 71.7 259.8 71.2 260.9 L71.0 261.4 70.85 262.45 71.0 264.15 Q71.35 266.1 72.6 267.85 72.6 268.2 71.0 269.55 L70.35 270.1 Q68.1 271.9 68.1 272.55 68.1 273.05 69.75 277.3 L69.75 278.15 67.05 276.75 Q66.65 268.75 68.65 260.9 L69.0 259.55 Q69.85 256.6 71.0 253.65 73.2 248.1 76.65 242.6 L77.5 242.45 77.55 242.6 M92.65 243.55 L94.25 245.3 Q90.0 247.2 88.6 252.9 L90.1 253.85 95.3 257.25 95.6 257.0 97.4 255.35 95.85 251.9 96.4 251.7 97.9 251.75 Q98.5 252.0 101.45 253.6 101.3 254.8 101.3 256.1 L98.5 258.3 Q96.5 259.75 94.55 259.75 91.9 259.0 89.2 257.5 83.85 254.55 83.85 250.85 83.85 247.15 85.35 246.35 86.55 245.7 92.65 243.55 M86.5 251.5 L88.6 252.9 86.5 251.5 M96.6 263.0 L99.05 264.25 96.5 265.45 Q93.15 266.8 90.6 266.8 88.45 266.8 85.65 265.9 82.35 264.8 80.4 264.55 L80.4 262.75 80.95 260.9 81.1 259.8 94.55 264.5 96.6 263.0 M92.0 271.2 L92.95 271.4 97.55 270.05 97.55 270.55 Q97.55 276.75 94.45 276.75 81.8 273.3 78.45 271.75 78.45 270.65 80.0 268.65 L86.35 270.0 91.8 272.7 92.4 272.1 92.0 271.2 M90.45 280.05 Q88.7 280.9 87.25 280.9 85.8 280.9 81.3 279.05 76.8 277.15 76.8 276.55 76.8 276.45 78.35 275.45 L90.45 280.05" fill="#fec7a3" fill-rule="evenodd" stroke="none"/>
    <path d="M130.5 98.85 L130.5 99.4 132.9 109.2 132.6 109.5 132.5 109.6 Q122.0 120.35 113.05 131.75 L108.65 137.45 107.2 135.1 108.3 134.2 108.95 132.95 109.2 130.25 109.2 129.4 109.4 129.0 109.45 128.95 109.4 128.9 Q109.45 127.65 108.5 126.45 L108.4 126.3 108.05 124.7 107.9 123.95 Q107.5 121.95 108.55 121.1 109.6 120.2 110.0 118.8 L110.3 117.4 110.0 117.55 109.8 117.65 108.1 118.15 Q107.15 118.15 100.1 112.9 L95.75 109.65 94.05 108.3 92.55 107.1 92.45 104.3 94.05 105.25 95.75 106.25 105.85 112.1 106.25 112.35 108.85 112.5 110.7 112.2 111.7 111.8 112.25 111.45 112.5 111.5 112.55 111.5 115.25 111.8 Q119.3 111.8 120.55 110.2 L124.65 104.8 130.5 98.85" fill="#fead78" fill-rule="evenodd" stroke="none"/>
    <path d="M143.95 110.3 Q144.15 111.4 145.15 112.2 145.95 112.9 147.35 113.4 150.65 114.5 151.35 118.2 L157.2 118.75 Q158.2 118.85 159.15 120.75 L164.1 120.25 Q165.35 120.25 166.05 121.45 L167.5 123.3 167.55 123.35 Q169.25 123.7 171.1 124.45 181.3 128.45 196.65 143.3 L197.25 143.75 Q205.55 150.05 209.35 156.3 213.3 162.75 215.3 163.8 217.25 164.8 222.15 174.55 225.05 179.65 226.35 184.95 226.7 186.3 230.0 190.75 233.8 195.85 235.15 198.45 236.45 201.0 236.2 202.45 L235.65 205.75 Q235.3 207.55 235.75 208.6 L236.25 209.45 239.05 213.25 Q241.95 217.0 242.0 220.7 242.0 224.35 242.75 227.15 243.5 229.9 243.5 232.8 243.5 237.05 243.05 240.35 242.6 243.5 238.25 252.5 L237.95 252.7 233.9 255.2 232.7 256.6 Q229.9 259.35 226.55 259.35 L219.25 260.0 Q214.3 260.9 210.8 259.3 207.3 257.7 203.55 256.55 199.8 255.4 196.25 251.35 L188.65 242.5 184.7 238.0 182.95 236.05 182.95 236.0 179.45 232.45 179.15 232.25 178.35 231.8 M69.15 288.95 L69.2 289.15 64.3 289.25 64.25 289.5 64.0 290.55 Q63.45 292.3 62.5 292.3 L61.95 292.3 Q48.0 292.0 45.3 292.05 L38.7 292.65 33.2 292.85 31.45 292.5 23.1 290.6 Q14.9 288.7 13.05 286.25 11.15 283.75 7.05 279.4 2.9 275.0 2.9 273.0 2.9 265.3 3.65 258.95 L3.75 258.2 Q1.9 255.9 1.65 254.7 L1.15 247.2 0.0 239.35 Q4.1 234.35 7.0 233.85 5.9 228.25 5.9 224.45 L7.65 222.5 Q9.35 220.2 9.35 216.6 11.25 214.55 12.05 210.95 L13.2 205.35 Q13.55 203.35 17.85 196.9 22.15 190.45 28.05 175.95 33.9 161.4 38.15 157.0 42.35 152.55 45.25 146.7 48.15 140.85 68.05 126.8 L68.45 126.5 68.5 126.45 Q72.5 123.55 77.1 122.15 79.5 121.4 82.05 121.1 L82.65 121.05 84.4 119.1 86.7 115.3 87.4 111.95 Q87.7 110.5 89.5 109.9 L89.5 109.45 Q89.55 105.8 89.05 103.3 L89.05 102.1 M78.05 83.6 L77.9 83.8 77.75 84.0 77.55 84.2 76.25 84.25 Q73.35 84.25 72.05 82.35 70.5 79.05 69.0 77.1 65.5 72.55 64.5 69.65 63.75 67.45 63.75 63.15 63.75 61.3 64.4 60.0 M64.7 59.75 Q64.55 56.6 64.0 53.35 63.75 51.9 63.65 50.45 L63.45 46.65 Q64.65 38.5 65.3 31.95 L65.6 28.3 65.8 24.35 Q66.1 16.45 65.25 11.85 69.1 9.3 73.3 7.3 L75.45 14.5 Q77.85 12.9 80.4 11.65 L79.0 4.85 Q82.8 3.4 86.8 2.45 L87.7 8.8 93.1 7.5 92.25 1.25 100.3 0.25 100.45 6.65 Q102.8 6.55 105.2 6.6 L106.85 6.7 107.75 0.0 116.2 0.45 116.2 7.8 116.25 7.8 Q120.85 8.65 125.7 10.05 L124.75 1.55 133.1 3.2 Q133.8 10.45 135.3 14.6 L136.25 16.9 138.0 20.35 139.35 23.55 139.85 24.9 141.45 29.05 143.55 34.9 Q144.4 37.65 145.3 42.95 L145.8 45.85 146.2 53.75 146.35 53.9 M146.6 54.25 L146.85 54.95 146.9 57.7 Q146.9 60.85 146.15 64.65 145.2 69.55 143.55 71.05 142.65 71.9 140.45 76.0 139.55 77.7 138.15 78.3 M132.5 96.7 L132.5 98.0 133.9 103.85 133.9 103.95 136.55 103.95 138.05 108.5 138.8 110.25 140.4 109.4 141.7 109.2 142.8 109.35 143.45 110.4 M143.95 110.3 L143.85 109.75 M167.55 123.35 L165.3 126.5 M195.55 245.5 Q191.2 242.55 184.7 237.05 L183.2 235.75 M185.35 172.4 L186.45 166.0 186.45 163.9 185.2 163.9 Q183.1 164.75 183.15 167.8 L183.3 172.2 M184.8 178.05 L184.8 175.6 185.35 172.4 M179.15 182.2 L181.15 179.45 183.95 181.5 184.8 182.15 184.8 178.05 M173.25 181.55 L175.45 178.95 179.15 182.2 177.25 184.9 Q170.0 195.35 166.1 203.85 L164.8 206.95 163.9 209.2 Q162.3 213.7 161.5 217.7 L161.55 217.75 163.3 221.4 163.55 221.85 164.7 222.65 171.55 227.35 178.35 231.8 M161.75 198.25 L162.1 197.65 164.6 193.35 Q167.2 189.1 170.8 184.6 L173.25 181.55 M131.35 155.6 L131.4 153.65 127.75 153.65 123.55 158.05 Q122.45 161.95 123.55 165.8 L124.35 166.5 125.45 167.45 126.8 168.65 126.85 168.7 133.35 174.35 134.8 174.35 135.65 174.35 M170.75 180.2 L162.4 163.3 Q159.85 162.25 157.05 160.0 L153.1 156.4 152.7 160.9 152.6 162.4 154.5 162.0 M190.15 169.85 L188.75 173.9 Q188.1 175.6 187.75 176.95 187.2 178.7 187.1 179.8 L187.1 183.85 Q197.55 191.75 205.0 198.75 205.45 196.3 206.25 193.85 L206.9 192.05 Q208.4 188.3 210.7 186.75 M209.15 193.95 Q210.05 192.65 211.65 191.4 L212.7 190.55 Q215.3 188.25 215.3 186.75 L215.3 186.35 215.3 186.3 215.15 185.6 Q214.6 183.15 211.95 178.5 208.2 172.1 207.35 166.8 L207.35 164.55 M184.8 182.15 L184.95 182.25 M185.35 182.55 L187.1 183.85 M209.15 193.95 L209.1 194.0 Q207.95 195.65 207.95 197.35 M209.9 198.75 L210.25 197.7 224.4 199.75 M210.3 202.9 Q214.95 202.75 220.15 205.35 L222.35 206.5 Q226.9 209.2 231.9 213.9 M213.3 207.35 Q218.2 213.1 220.7 218.2 M136.05 22.1 L139.85 24.9 M145.3 42.95 L143.0 42.15 Q123.55 35.5 105.45 36.35 86.95 37.15 69.8 45.85 68.75 46.3 67.8 46.85 L65.4 48.9 63.65 50.45 M102.55 80.25 Q102.2 80.3 101.55 81.25 100.9 82.2 100.7 83.5 100.45 84.75 101.45 85.75 102.45 86.75 103.85 86.75 L105.7 86.6 M146.2 53.75 L145.55 53.25 M134.65 107.2 L133.9 103.95 M136.05 22.1 Q114.5 7.1 96.3 10.3 M67.05 29.7 L65.3 31.95 M68.05 126.8 L69.9 129.05 101.95 167.55 105.95 162.05 112.55 153.1 104.0 143.8 88.05 126.55 82.9 121.0 82.65 121.05 M62.45 290.55 L62.4 289.45 62.4 289.3 Q61.85 272.05 62.9 260.9 64.35 244.6 69.25 241.35 L71.35 241.2 74.15 240.95 75.15 238.85 75.65 237.85 77.85 233.55 81.2 227.35 Q98.05 196.9 124.35 166.5 M69.15 240.6 L62.05 240.3 61.95 240.3 56.8 238.95 56.7 238.9 55.0 238.55 52.05 238.1 52.0 238.1 51.4 238.05 51.2 238.05 49.75 238.2 Q48.1 238.5 47.95 239.45 45.2 240.5 44.0 243.55 L40.35 248.45 M44.45 238.7 L42.6 238.15 42.25 238.05 Q40.15 238.05 38.1 239.45 36.05 240.8 34.1 243.55 31.95 246.65 28.5 252.95 M33.05 241.95 L32.65 242.2 30.9 243.2 21.6 250.2 M19.75 252.85 L17.6 257.0 Q16.2 259.5 15.3 259.5 14.5 259.5 13.35 257.8 12.25 256.2 12.25 255.75 12.25 252.95 17.0 249.35 20.55 246.7 24.4 245.1 L25.6 244.5 M37.7 238.55 Q38.2 238.25 38.65 238.0 L39.55 237.55 M39.35 237.15 L36.4 236.25 M26.8 196.25 L26.4 194.05 M46.65 192.55 L46.5 191.8 M46.65 192.55 L45.9 201.35 Q45.9 205.2 46.55 209.4 47.15 213.55 48.4 218.0 L49.0 219.95 Q50.85 226.05 52.25 227.25 L52.4 227.3 53.5 223.8 54.1 222.2 53.6 221.2 53.0 219.45 Q52.5 217.65 52.5 215.5 L53.1 208.6 53.75 196.1 53.6 186.85 Q53.4 184.85 52.5 181.75 L51.4 178.2 M138.9 110.5 L138.8 110.25 M138.9 110.5 Q139.5 111.6 140.25 112.15 141.85 110.25 143.45 110.4 M138.1 116.85 L138.35 116.2 Q139.8 112.6 140.25 112.15 M138.1 116.85 L136.15 121.45 134.9 124.55 133.5 131.25 Q131.65 140.7 131.5 143.6 L131.4 153.65 M149.25 118.1 Q139.2 129.65 137.75 143.75 137.35 147.25 137.5 150.9 L137.65 151.95 M148.0 136.3 Q148.35 128.45 156.55 122.05 M107.2 135.1 L108.65 137.45 M88.55 112.55 L89.5 113.7 89.5 109.9 M92.4 116.55 L91.3 115.45 89.5 113.7 M92.4 116.55 L92.8 117.0 Q101.0 125.45 107.2 135.1 M131.35 155.6 L131.3 160.05 133.15 159.95 139.9 164.95 152.6 162.4 M131.3 160.05 L130.85 160.05 128.15 160.15 M130.85 160.05 L127.75 158.05 M133.15 195.2 L132.95 195.05 Q128.1 190.3 128.2 185.65 L125.85 183.75 125.85 177.0 124.2 175.6 Q123.5 173.75 123.7 171.9 123.95 169.7 125.45 167.45 M128.25 179.0 L132.55 182.7 134.4 182.7 M128.25 179.0 L128.2 179.0 125.85 177.0 M128.2 185.65 L131.55 188.4 133.8 190.25 135.15 190.25 M133.15 195.2 L133.05 195.45 Q128.3 207.0 130.45 226.9 130.7 226.3 131.45 225.65 M133.6 195.65 L133.15 195.2 M154.9 196.8 L146.55 198.4 Q142.1 196.8 138.1 196.15 L133.6 195.65 M159.05 196.0 L154.9 196.8 Q158.05 209.75 161.5 217.7 M153.1 156.4 Q154.7 144.65 161.1 133.25 162.95 129.85 165.3 126.5 M134.9 124.55 Q125.45 136.1 116.5 147.85 L112.55 153.1 M67.05 29.7 Q79.85 13.75 94.95 10.55 M163.9 209.2 L158.55 205.7 Q159.75 202.1 161.75 198.25 M153.9 220.95 L153.6 220.35 Q148.85 210.35 148.2 201.05 M147.7 229.75 L147.7 229.6 Q147.7 228.6 148.4 227.35 149.7 224.95 153.6 221.75 L153.9 221.45 153.9 221.0 153.9 220.95 152.8 220.95 152.55 221.0 Q149.95 221.4 147.25 223.15 L147.7 229.75 147.8 230.9 148.6 231.05 Q149.3 231.05 152.65 227.6 L152.9 227.35 153.9 226.4 154.0 226.3 Q156.25 224.15 157.15 224.15 L159.65 224.1 161.25 224.05 Q163.4 224.5 164.3 223.2 L164.15 222.95 163.55 221.85 M153.9 221.0 L153.9 220.95 M131.9 225.6 L131.85 225.3 131.45 225.65 M131.9 225.6 L133.0 232.55 132.9 230.05 Q132.9 228.25 133.4 227.5 L133.5 227.35 Q133.85 226.6 133.85 225.45 L133.85 225.15 Q133.75 224.65 133.5 224.65 132.75 224.65 131.85 225.3 M133.85 225.15 L133.8 224.65 Q133.05 214.4 136.4 204.85 M134.15 233.85 L134.9 233.9 Q136.0 234.45 138.3 231.8 L139.45 230.5 142.1 227.35 142.3 227.1 Q144.8 224.6 147.25 223.15 M133.0 232.55 L133.05 232.9 Q133.25 233.6 134.15 233.85 M122.05 241.0 Q121.9 239.45 122.25 239.25 123.2 238.6 123.2 237.7 123.2 236.8 122.25 236.2 121.25 235.55 119.9 235.55 118.55 235.55 117.6 236.15 L117.6 236.2 Q116.6 236.8 116.6 237.7 116.6 238.6 117.6 239.25 L117.6 239.3 Q117.95 239.55 118.0 241.35 L118.0 242.85 122.2 242.65 122.05 241.0 Q125.9 241.05 130.1 242.55 140.8 244.15 146.2 251.6 147.75 253.75 156.4 248.45 162.15 248.15 165.85 249.95 L161.85 254.5 M101.3 256.1 Q101.3 254.8 101.45 253.6 98.5 252.0 97.9 251.75 L96.4 251.7 95.85 251.9 Q95.3 252.2 94.85 252.75 94.15 253.55 94.15 254.6 94.15 255.55 95.6 257.0 M110.85 244.3 Q107.7 245.05 105.4 247.0 L104.65 247.65 M104.55 247.75 Q102.95 249.2 102.35 250.25 101.65 251.7 101.45 253.6 M118.0 241.35 L117.6 241.45 Q114.05 242.2 110.85 244.3 L117.6 245.1 Q125.5 245.45 130.1 242.55 M102.35 250.25 L101.95 249.8 101.2 249.15 M97.15 247.8 L97.0 247.8 Q94.1 247.75 92.1 249.8 90.35 251.5 90.1 253.85 M101.3 256.1 L101.4 257.6 101.55 259.45 101.6 259.7 101.7 260.0 101.85 260.9 Q102.5 263.9 103.9 265.9 L105.1 267.3 Q108.3 270.25 114.3 272.25 L117.6 272.9 Q137.15 276.15 155.15 260.9 L161.85 254.5 M101.25 259.65 L101.6 259.7 M96.6 263.0 L99.05 264.25 103.05 265.65 103.9 265.9 M39.35 210.35 Q41.75 215.25 45.0 219.85 49.15 225.8 52.25 227.25 M52.05 238.1 L52.1 238.05 52.5 236.35 53.8 230.85 54.25 227.7 Q53.4 227.75 52.4 227.3 M49.75 238.2 L48.4 235.3 46.4 231.7 Q42.55 230.5 38.65 227.3 34.7 224.05 31.65 215.15 28.9 207.05 26.8 196.25 M44.45 238.7 L47.95 239.45 M56.9 238.4 L58.6 235.4 61.7 229.95 64.05 225.95 Q81.5 196.2 101.95 167.55 M55.0 238.55 L56.0 225.85 54.1 222.2 M69.15 240.6 L71.0 240.6 71.3 240.6 71.0 240.65 Q70.05 240.8 69.25 241.35 M76.65 242.6 Q73.2 248.1 71.0 253.65 69.85 256.6 69.0 259.55 L68.65 260.9 Q66.65 268.75 67.05 276.75 67.35 281.95 68.7 287.2 L69.15 288.95 M74.15 240.95 L77.95 240.6 76.65 242.6 M56.0 225.85 L57.3 209.5 M39.35 210.35 L37.8 206.95 M27.95 233.0 L16.55 233.0 12.75 237.05 12.75 239.55 15.3 239.8 Q16.85 239.8 17.55 239.2 18.95 237.9 21.0 237.25 L21.55 237.05 24.1 236.25 26.15 235.55 28.6 234.8 28.2 234.75 28.7 234.75 28.6 234.8 Q31.7 235.0 35.55 236.05 M37.7 238.55 Q35.85 239.7 32.65 242.2 M42.25 238.05 L40.2 237.45 39.65 237.25 39.35 237.15 M3.75 258.2 Q4.65 252.75 7.8 250.1 8.7 249.35 9.75 248.85 M4.1 258.55 L3.75 258.2 M64.3 289.25 L62.4 289.3 M62.45 290.55 L62.5 292.3 M208.65 202.3 L209.25 202.95 210.3 202.9 M208.65 202.3 L209.9 198.75 M209.25 202.95 L212.55 206.5 213.3 207.35 M205.0 198.75 L208.65 202.3 M179.45 232.45 L183.2 235.75 M195.55 245.5 Q199.6 248.3 201.7 248.85 L203.0 249.2 208.6 249.5 M156.4 248.45 Q159.8 250.8 165.85 249.95" fill="none" stroke="#000000" stroke-linecap="round" stroke-linejoin="round" stroke-width="1.0"/>
    <path d="M178.35 231.8 L178.3 232.2 Q177.35 242.4 177.25 252.95 L177.25 255.5 181.85 261.6 Q179.35 269.65 173.95 273.45 L173.85 277.6 Q175.55 281.3 173.75 283.9 L173.75 284.15 Q194.6 332.55 197.15 384.95 L193.3 385.95 193.3 416.45 M126.85 416.45 L123.85 390.25 122.25 390.4 120.3 416.45 M52.35 416.45 L55.0 388.5 50.75 387.55 Q52.65 338.5 72.95 287.9 L72.95 287.85 72.75 287.85 72.75 286.9 72.6 279.65 71.05 278.85 71.0 280.45 Q70.8 287.2 69.15 288.95 M89.05 102.1 Q85.6 99.6 84.8 97.95 L83.45 95.4 81.1 90.2 78.35 84.15 78.05 83.6 M64.4 60.0 L64.7 59.75 M146.35 53.9 L146.6 54.25 M138.15 78.3 Q137.9 82.6 136.6 89.7 L135.75 92.5 133.6 95.4 132.5 96.7 130.5 98.85 124.65 104.8 120.55 110.2 Q119.3 111.8 115.25 111.8 L112.55 111.5 112.5 111.5 112.25 111.45 111.7 111.8 110.7 112.2 108.85 112.5 106.25 112.35 105.85 112.1 95.75 106.25 94.05 105.25 92.45 104.3 M173.25 181.55 L170.75 180.2 M140.4 57.85 Q140.6 55.1 141.45 53.5 L141.9 52.95 143.2 51.5 140.55 50.45 134.85 48.55 Q104.75 39.55 73.8 54.1 72.25 54.75 70.8 55.55 69.75 56.0 68.8 56.55 L64.7 59.75 M99.85 94.05 L98.6 93.4 M124.45 89.05 L123.9 89.65 M99.85 94.05 L103.05 95.4 105.1 96.0 Q110.8 97.45 115.9 95.4 118.1 94.5 120.2 93.0 L123.9 89.65 M104.6 93.95 L98.6 93.4 M116.9 79.7 L117.2 80.0 Q117.85 80.8 117.95 81.8 118.05 82.6 117.6 83.3 M116.9 79.7 L116.05 79.0 M105.7 86.6 Q106.45 86.45 106.95 86.95 107.4 87.4 108.45 87.45 L110.9 87.25 Q112.3 87.05 114.5 84.8 115.05 84.35 115.75 84.35 116.7 84.35 117.35 83.55 L117.6 83.3 M115.85 78.9 L116.05 79.0 M119.65 91.2 Q112.1 94.05 104.6 93.95 M106.4 90.4 Q111.05 91.95 114.95 89.0 M140.9 71.55 L140.8 71.65 138.35 75.9 138.2 76.15 138.15 78.3 M145.55 53.25 L143.2 51.5 M140.9 71.55 Q142.8 67.6 142.4 65.55 L140.75 62.85 Q140.3 62.0 140.3 59.85 L140.4 57.85 M132.9 109.2 L134.75 107.3 134.85 107.2 M119.65 91.2 L124.45 89.05 M68.8 56.55 L68.55 59.5 68.45 61.4 68.65 61.8 69.75 64.6 70.05 65.2 M71.8 76.25 L71.8 67.75 Q70.75 66.65 70.05 65.2 M71.8 76.25 L71.8 77.05 Q72.6 78.5 74.35 80.0 L75.2 80.75 77.7 82.95 78.05 83.6 M132.6 109.5 L132.9 109.2 M119.45 99.1 Q114.45 104.7 108.3 101.3 M108.65 137.45 L113.05 131.75 Q122.0 120.35 132.5 109.6 M89.05 102.1 L92.45 104.3 M108.65 137.45 L107.85 138.5 104.0 143.8 M161.75 198.25 L159.05 196.0 M99.35 287.4 L107.95 288.1 111.7 286.9 Q118.85 284.5 121.85 282.05 L115.95 282.8 M104.65 247.65 Q99.65 242.05 97.4 236.45 L90.35 236.65 Q84.35 240.85 77.95 242.35 M69.75 278.15 L71.0 278.8 71.05 278.85 M94.25 245.3 L92.65 243.55 M95.85 251.9 L97.4 255.35 95.6 257.0 95.3 257.25 90.1 253.85 88.6 252.9 86.5 251.5 M104.65 247.65 L104.55 247.75 M101.2 249.15 Q99.3 249.15 97.15 247.8 L97.05 247.75 M101.55 259.45 L101.25 259.65 96.6 263.0 M101.2 249.15 Q103.0 249.1 104.55 247.75 M81.1 259.8 L94.55 264.5 96.6 263.0 M97.55 270.05 L92.95 271.4 92.0 271.2 92.4 272.1 91.8 272.7 86.35 270.0 80.0 268.65 78.95 268.4 M97.55 270.05 L98.85 269.65 99.5 269.05 103.05 265.65 M92.0 271.2 L86.35 270.0 M99.5 269.05 L98.55 278.5 93.0 280.75 92.7 280.9 91.95 283.5 87.25 284.3 Q90.7 285.95 96.15 286.9 L98.4 287.25 99.35 287.4 M93.0 280.75 L92.7 280.9 90.45 280.05 78.35 275.45 77.2 275.0 M128.15 389.85 L140.2 388.6 139.55 387.7 Q138.65 386.2 137.75 385.75 L136.9 385.25 Q134.35 287.8 144.3 282.25 L133.7 285.35 111.7 286.9 M72.6 279.65 L82.85 285.05 87.25 284.3 M144.3 282.25 Q133.65 280.95 122.55 282.0 L121.85 282.05 M144.35 282.25 L146.95 282.6 147.4 282.6 147.8 282.4 152.5 280.15 157.2 277.95 166.45 273.55 172.25 270.8 M157.2 277.95 L156.7 280.35 Q158.05 282.7 159.2 285.65 L170.3 285.1 173.65 283.95 173.75 283.9 M144.3 282.25 L144.35 282.25 144.3 282.25 M149.3 287.8 L149.1 287.7 149.2 287.8 149.3 287.8 Q152.25 288.45 152.65 286.5 L152.65 285.55 152.5 280.15 M149.3 287.8 Q152.2 315.75 153.8 341.9 157.8 319.1 153.8 284.8 L152.65 285.55 M156.7 280.35 Q155.85 283.15 153.8 284.8 M147.8 282.4 Q147.9 286.5 149.1 287.7 M88.6 252.9 Q90.0 247.2 94.25 245.3 L97.05 247.75 M77.5 242.45 L76.65 242.6 M67.05 276.75 L69.75 278.15 M77.5 242.45 L77.95 242.35 M72.75 286.9 L72.95 287.85 77.85 287.65 96.15 286.9 M57.85 389.05 L60.9 389.6 Q84.7 393.3 119.85 390.6 L122.25 390.4 M57.85 389.05 L55.0 388.5 M153.8 341.9 L154.15 348.0 155.15 369.3 Q159.7 369.8 160.75 370.45 161.55 370.95 162.9 370.95 163.8 370.95 163.85 370.15 L163.85 370.05 Q163.85 369.6 162.25 367.95 L160.55 365.8 160.4 365.35 160.65 365.35 Q162.35 352.95 160.0 315.15 M160.55 365.8 L160.65 365.35 164.05 365.35 164.7 365.35 166.2 365.5 168.45 365.65 Q168.5 308.65 159.2 285.65 M125.7 390.1 L123.85 390.25 M128.15 389.85 L125.7 390.1 M145.05 392.8 L146.0 400.3 Q148.9 399.5 155.85 392.35 L155.75 389.3 155.5 379.55 155.15 369.3 M140.2 388.6 Q141.7 390.45 145.05 392.8 140.0 350.3 143.4 306.7 M177.25 255.5 L177.3 260.65 M173.95 273.45 L173.75 273.55 166.45 273.55 M163.85 370.05 L164.05 365.35 M193.3 385.95 L190.5 386.65 187.8 387.25 Q169.35 391.1 155.75 389.3 M173.85 277.6 L160.1 279.85" fill="none" stroke="#000000" stroke-linecap="round" stroke-linejoin="round" stroke-width="1.0"/>
  </g>
  <defs>
    <radialGradient cx="0" cy="0" gradientTransform="matrix(-0.0077, 0.0, 0.0, 0.0077, 120.3, 237.3)" gradientUnits="userSpaceOnUse" id="gradient0" r="819.2" spreadMethod="pad">
      <stop offset="0.0" stop-color="#c19999"/>
      <stop offset="1.0" stop-color="#660000"/>
    </radialGradient>
    <radialGradient cx="0" cy="0" gradientTransform="matrix(-0.0119, 0.0, 0.0, 0.0119, 120.5, 243.35)" gradientUnits="userSpaceOnUse" id="gradient1" r="819.2" spreadMethod="pad">
      <stop offset="0.0" stop-color="#c19999"/>
      <stop offset="1.0" stop-color="#660000"/>
    </radialGradient>
    <radialGradient cx="0" cy="0" gradientTransform="matrix(-0.054, 0.0, 0.0, 0.054, 121.6, 248.75)" gradientUnits="userSpaceOnUse" id="gradient2" r="819.2" spreadMethod="pad">
      <stop offset="0.0" stop-color="#c19999"/>
      <stop offset="1.0" stop-color="#660000"/>
    </radialGradient>
    <radialGradient cx="0" cy="0" gradientTransform="matrix(-0.0201, 0.0, 0.0, 0.0201, 100.4, 249.85)" gradientUnits="userSpaceOnUse" id="gradient3" r="819.2" spreadMethod="pad">
      <stop offset="0.0" stop-color="#c19999"/>
      <stop offset="1.0" stop-color="#660000"/>
    </radialGradient>
  </defs>
</svg>
