<?xml version="1.0" encoding="UTF-8" standalone="no"?>
<svg xmlns:xlink="http://www.w3.org/1999/xlink" height="4.95px" width="11.75px" xmlns="http://www.w3.org/2000/svg">
  <g transform="matrix(1.0, 0.0, 0.0, 1.0, 0.0, 0.0)">
    <path d="M0.25 3.7 L0.05 3.75 0.0 3.75 Q2.0 -3.05 11.6 2.45 L11.75 2.55 11.6 2.5 Q3.35 -0.35 1.55 3.1 L1.3 3.6 0.25 3.7" fill="#000000" fill-rule="evenodd" stroke="none"/>
    <path d="M11.6 2.5 L9.2 3.65 5.85 4.8 5.75 4.7 5.3 4.75 5.0 4.85 4.8 4.75 4.1 4.85 3.85 4.95 Q3.0 4.95 0.95 4.05 L0.25 3.7 1.3 3.6 1.55 3.1 Q3.35 -0.35 11.6 2.5" fill="#ffffff" fill-rule="evenodd" stroke="none"/>
  </g>
</svg>
