<?xml version="1.0" encoding="UTF-8" standalone="no"?>
<svg xmlns:xlink="http://www.w3.org/1999/xlink" height="4.1px" width="4.1px" xmlns="http://www.w3.org/2000/svg">
  <g transform="matrix(1.0, 0.0, 0.0, 1.0, 0.0, 0.0)">
    <path d="M2.0 1.05 L1.4 0.8 Q1.05 0.8 0.8 1.05 L0.55 1.65 0.8 2.25 1.4 2.5 2.0 2.25 2.25 1.65 2.0 1.05 M0.6 0.6 Q1.2 0.0 2.05 0.0 2.9 0.0 3.5 0.6 4.1 1.2 4.1 2.05 4.1 2.9 3.5 3.5 2.9 4.1 2.05 4.1 1.2 4.1 0.6 3.5 0.0 2.9 0.0 2.05 0.0 1.2 0.6 0.6" fill="#000000" fill-rule="evenodd" stroke="none"/>
    <path d="M2.0 1.05 L2.25 1.65 2.0 2.25 1.4 2.5 0.8 2.25 0.55 1.65 0.8 1.05 Q1.05 0.8 1.4 0.8 L2.0 1.05" fill="#ffffff" fill-rule="evenodd" stroke="none"/>
  </g>
</svg>
