<?xml version="1.0" encoding="UTF-8" standalone="no"?>
<svg xmlns:xlink="http://www.w3.org/1999/xlink" height="612.15px" width="813.4px" xmlns="http://www.w3.org/2000/svg">
  <g transform="matrix(1.0, 0.0, 0.0, 1.0, 0.5, 0.5)">
    <path d="M0.0 397.25 L0.0 0.0 812.4 0.0 812.4 469.7 365.35 361.5 365.3 361.5 0.0 397.25" fill="url(#gradient0)" fill-rule="evenodd" stroke="none"/>
    <path d="M812.4 469.7 L812.4 607.7 502.45 609.3 0.0 609.3 0.0 397.25 365.3 361.5 365.35 361.5 812.4 469.7" fill="url(#gradient1)" fill-rule="evenodd" stroke="none"/>
    <path d="M812.4 609.3 L812.4 607.7 502.45 609.3 211.9 609.3 203.55 611.15 M812.4 607.7 L812.4 469.7 402.3 370.8 342.65 377.25 382.65 387.8 424.8 382.65 M812.4 469.7 L812.4 0.0 365.35 0.0 365.35 361.5 367.55 361.25 M365.35 361.5 L365.35 361.9 402.3 370.8 M365.35 0.0 L0.0 0.0 0.0 397.25 18.6 395.45 88.0 388.65 161.2 381.45 239.4 373.8 305.15 367.4 364.1 361.6 365.35 361.5 M365.35 361.9 L364.1 361.6 M442.9 391.7 L412.65 395.7 451.15 405.8 486.45 400.8 M382.65 387.8 L314.35 396.1 343.6 404.8 412.65 395.7 382.65 387.8 M161.2 381.45 L196.6 393.05 275.45 384.5 239.4 373.8 M308.0 471.8 L392.35 457.05 339.4 439.75 257.7 452.8 308.0 471.8 365.0 493.35 454.45 477.35 392.35 457.05 472.4 443.0 418.65 427.05 339.4 439.75 300.85 427.15 220.15 438.6 257.7 452.8 175.6 465.9 222.25 486.8 308.0 471.8 M300.85 427.15 L264.4 415.2 185.7 425.55 220.15 438.6 140.1 449.95 175.6 465.9 97.25 478.4 137.4 501.65 222.25 486.8 273.4 509.75 365.0 493.35 427.5 517.0 520.25 498.85 454.45 477.35 537.7 462.4 472.4 443.0 544.5 430.4 489.15 415.8 418.65 427.05 380.75 415.8 300.85 427.15 M230.35 555.55 L331.4 535.8 273.4 509.75 180.2 526.45 230.35 555.55 254.3 569.4 M314.35 396.1 L235.3 405.7 264.4 415.2 343.6 404.8 380.75 415.8 451.15 405.8 489.15 415.8 526.35 409.85 M108.45 435.75 L185.7 425.55 158.0 415.1 82.8 424.25 108.45 435.75 140.1 449.95 66.25 460.4 97.25 478.4 0.0 493.95 0.0 498.4 28.3 520.75 137.4 501.65 180.2 526.45 62.25 547.6 103.65 580.3 230.35 555.55 M158.0 415.1 L235.3 405.7 196.6 393.05 121.2 401.2 158.0 415.1 M0.0 397.25 L0.0 414.25 48.8 409.0 18.6 395.45 M0.0 434.3 L17.45 432.15 0.0 422.05 0.0 434.3 0.0 450.0 39.35 444.85 17.45 432.15 82.8 424.25 48.8 409.0 121.2 401.2 88.0 388.65 M0.0 414.25 L0.0 422.05 M0.0 450.0 L0.0 469.8 66.25 460.4 39.35 444.85 108.45 435.75 M0.0 469.8 L0.0 493.95 M0.0 498.4 L0.0 525.7 28.3 520.75 62.25 547.6 0.0 558.75 0.0 609.3 211.9 609.3 401.25 567.15 331.4 535.8 427.5 517.0 501.25 544.85 596.3 523.7 520.25 498.85 604.7 482.3 537.7 462.4 614.15 448.7 544.5 430.4 578.9 424.35 M0.0 558.75 L0.0 525.7 M121.95 594.8 L103.65 580.3 29.45 594.8 M638.75 444.3 L614.15 448.7 673.2 464.25 M566.2 569.4 L501.25 544.85 401.25 567.15 426.6 578.5 M342.65 377.25 L275.45 384.5 314.35 396.1 M305.15 367.4 L342.65 377.25 M669.6 547.65 L596.3 523.7 700.4 500.5 M604.7 482.3 L678.65 467.85 M665.95 500.5 L604.7 482.3" fill="none" stroke="#666666" stroke-linecap="round" stroke-linejoin="round" stroke-width="1.0"/>
  </g>
  <defs>
    <radialGradient cx="0" cy="0" gradientTransform="matrix(1.0, 0.0, 0.0, 1.0, 0.0, 0.0)" gradientUnits="userSpaceOnUse" id="gradient0" r="819.2" spreadMethod="pad">
      <stop offset="0.0" stop-color="#ffffff"/>
      <stop offset="1.0" stop-color="#ffffcc"/>
    </radialGradient>
    <linearGradient gradientTransform="matrix(0.4958, 0.0, 0.0, 0.1512, 406.2, 485.4)" gradientUnits="userSpaceOnUse" id="gradient1" spreadMethod="pad" x1="-819.2" x2="819.2">
      <stop offset="0.0" stop-color="#cdd0e4"/>
      <stop offset="1.0" stop-color="#a2a6ce"/>
    </linearGradient>
  </defs>
</svg>
