<?xml version="1.0" encoding="UTF-8" standalone="no"?>
<svg xmlns:xlink="http://www.w3.org/1999/xlink" height="402.85px" width="351.7px" xmlns="http://www.w3.org/2000/svg">
  <g transform="matrix(1.0, 0.0, 0.0, 1.0, 0.5, 0.5)">
    <path d="M97.65 0.0 L109.55 0.0 Q117.2 142.3 100.45 232.9 111.3 117.7 97.65 0.0" fill="url(#gradient0)" fill-rule="evenodd" stroke="none"/>
    <path d="M109.55 0.0 L206.25 0.0 206.25 264.7 206.25 264.75 0.1 278.95 0.1 0.0 97.65 0.0 Q111.3 117.7 100.45 232.9 117.2 142.3 109.55 0.0 M98.6 242.5 L100.5 235.45 100.0 235.35 98.6 242.5" fill="url(#gradient1)" fill-rule="evenodd" stroke="none"/>
    <path d="M339.85 0.0 L349.15 0.0 350.7 366.75 340.0 367.8 340.0 290.55 340.0 290.5 339.3 290.5 339.3 286.35 339.85 0.0 M0.0 383.95 L0.0 377.9 60.55 371.85 60.55 338.15 0.15 344.35 0.05 343.35 0.1 339.85 0.1 338.65 67.35 332.1 67.35 377.15 0.0 383.95 M98.35 374.0 L98.35 329.05 207.4 318.35 207.4 363.0 98.35 374.0 M103.5 367.55 L201.75 357.75 201.75 323.7 103.5 333.75 103.5 367.55 M237.9 354.85 L237.9 354.1 237.9 354.85 M237.9 354.1 L320.35 345.85 320.35 311.55 237.9 320.0 237.9 354.1 M232.0 360.5 L232.0 315.95 326.1 306.75 326.1 351.0 232.0 360.5" fill="#ffcc00" fill-rule="evenodd" stroke="none"/>
    <path d="M206.25 0.0 L339.85 0.0 339.3 286.35 338.3 286.45 Q337.35 285.35 335.3 284.85 L206.25 264.7 206.25 0.0" fill="url(#gradient2)" fill-rule="evenodd" stroke="none"/>
    <path d="M0.1 320.8 L0.1 315.3 338.3 286.45 Q339.65 287.95 338.8 290.6 L338.65 290.65 218.1 301.35 83.4 313.4 0.1 320.8" fill="#fefd92" fill-rule="evenodd" stroke="none"/>
    <path d="M0.0 377.9 L0.05 344.35 0.15 344.35 60.55 338.15 60.55 371.85 0.0 377.9 M103.5 367.55 L103.5 333.75 201.75 323.7 201.75 357.75 103.5 367.55 M237.9 354.1 L237.9 320.0 320.35 311.55 320.35 345.85 237.9 354.1" fill="#ffff99" fill-rule="evenodd" stroke="none"/>
    <path d="M340.0 367.8 L218.1 380.0 83.4 393.5 0.0 401.85 0.0 383.95 67.35 377.15 67.35 332.1 0.1 338.65 0.1 337.55 0.1 320.8 83.4 313.4 218.1 301.35 338.65 290.65 338.8 290.6 339.3 290.55 340.0 290.55 340.0 367.8 M83.4 393.5 L83.4 313.4 83.4 393.5 M98.35 374.0 L207.4 363.0 207.4 318.35 98.35 329.05 98.35 374.0 M232.0 360.5 L326.1 351.0 326.1 306.75 232.0 315.95 232.0 360.5 M218.1 301.35 L218.1 380.0 218.1 301.35" fill="#ff6600" fill-rule="evenodd" stroke="none"/>
    <path d="M0.1 315.3 L0.1 278.95 206.25 264.75 206.25 264.7 335.3 284.85 Q337.35 285.35 338.3 286.45 L0.1 315.3" fill="#ffffcc" fill-rule="evenodd" stroke="none"/>
    <path d="M98.6 242.5 L100.0 235.35 100.5 235.45 98.6 242.5" fill="#ffcccc" fill-opacity="0.6" fill-rule="evenodd" stroke="none"/>
    <path d="M97.65 0.0 L109.55 0.0 206.25 0.0 339.85 0.0 349.15 0.0 350.7 366.75 340.0 367.8 218.1 380.0 83.4 393.5 0.0 401.85 0.0 383.95 0.0 377.9 0.05 344.35 0.05 343.35 0.1 339.85 0.1 337.55 0.1 320.8 0.1 315.3 0.1 278.95 0.1 0.0 97.65 0.0 M338.3 286.45 L339.3 286.35 339.85 0.0 M340.0 290.55 L340.0 367.8 M340.0 290.5 L339.3 290.55 339.3 290.5 339.3 286.35 M83.4 313.4 L83.4 393.5 M0.1 338.65 L67.35 332.1 67.35 377.15 0.0 383.95 M0.15 344.35 L60.55 338.15 60.55 371.85 0.0 377.9 M98.35 374.0 L207.4 363.0 207.4 318.35 98.35 329.05 98.35 374.0 M103.5 367.55 L201.75 357.75 201.75 323.7 103.5 333.75 103.5 367.55 M237.9 354.1 L237.9 354.85 M237.9 354.1 L320.35 345.85 320.35 311.55 237.9 320.0 237.9 354.1 M232.0 360.5 L326.1 351.0 326.1 306.75 232.0 315.95 232.0 360.5 M218.1 380.0 L218.1 301.35 83.4 313.4 0.1 320.8 M206.25 264.7 L335.3 284.85 M218.1 301.35 L338.65 290.65 M0.1 338.65 L0.1 339.85 M0.1 338.65 L0.1 337.55 M206.25 264.75 L0.1 278.95" fill="none" stroke="#000000" stroke-linecap="round" stroke-linejoin="round" stroke-width="1.0"/>
    <path d="M338.65 290.65 L338.8 290.6 Q339.65 287.95 338.3 286.45 M335.3 284.85 Q337.35 285.35 338.3 286.45 M206.25 264.75 L206.25 264.7" fill="none" stroke="#000000" stroke-linecap="round" stroke-linejoin="round" stroke-width="1.0"/>
    <path d="M206.25 264.7 L206.25 0.0" fill="none" stroke="#feabab" stroke-linecap="round" stroke-linejoin="round" stroke-width="1.0"/>
  </g>
  <defs>
    <radialGradient cx="0" cy="0" gradientTransform="matrix(1.0, 0.0, 0.0, 1.0, 7.5, 10.3)" gradientUnits="userSpaceOnUse" id="gradient0" r="819.2" spreadMethod="pad">
      <stop offset="0.0" stop-color="#ffd9d9" stop-opacity="0.3019608"/>
      <stop offset="1.0" stop-color="#ff9999" stop-opacity="0.42352942"/>
    </radialGradient>
    <radialGradient cx="0" cy="0" gradientTransform="matrix(1.0, 0.0, 0.0, 1.0, 7.5, 10.3)" gradientUnits="userSpaceOnUse" id="gradient1" r="819.2" spreadMethod="pad">
      <stop offset="0.0" stop-color="#ffd9d9" stop-opacity="0.3019608"/>
      <stop offset="1.0" stop-color="#ff9999" stop-opacity="0.7607843"/>
    </radialGradient>
    <radialGradient cx="0" cy="0" gradientTransform="matrix(1.0, 0.0, 0.0, 1.0, 7.5, 10.3)" gradientUnits="userSpaceOnUse" id="gradient2" r="819.2" spreadMethod="pad">
      <stop offset="0.0" stop-color="#ffd9d9" stop-opacity="0.3019608"/>
      <stop offset="1.0" stop-color="#ff9999" stop-opacity="0.4"/>
    </radialGradient>
  </defs>
</svg>
