<?xml version="1.0" encoding="UTF-8" standalone="no"?>
<svg xmlns:xlink="http://www.w3.org/1999/xlink" height="46.5px" width="117.9px" xmlns="http://www.w3.org/2000/svg">
  <g transform="matrix(1.0, 0.0, 0.0, 1.0, 0.05, 0.15)">
    <path d="M1.35 2.7 Q3.0 1.75 4.5 1.9 16.65 2.9 28.3 0.75 L35.55 1.05 Q58.5 9.25 101.4 12.05 L114.5 12.85 Q98.95 15.9 85.65 14.65 L85.15 14.7 84.85 14.75 81.2 14.85 Q42.85 15.3 2.7 2.65 L1.35 2.7" fill="#ff3300" fill-rule="evenodd" stroke="none"/>
    <path d="M84.85 45.7 L81.2 44.85 Q42.65 35.85 2.55 32.0 0.55 31.7 0.45 29.1 2.1 18.2 1.2 12.85 0.15 6.85 0.55 5.15 0.9 3.45 1.35 2.7 L2.7 2.65 Q42.85 15.3 81.2 14.85 L84.85 14.75 Q83.6 15.1 83.8 16.3 86.9 30.6 84.05 43.85 83.85 45.3 84.85 45.7" fill="#cc0000" fill-rule="evenodd" stroke="none"/>
    <path d="M114.5 12.85 L114.95 12.75 Q116.2 12.7 116.7 14.25 113.8 27.4 117.15 40.55 117.95 43.25 115.45 43.05 102.15 42.1 86.1 45.85 L85.45 45.85 84.85 45.7 Q83.85 45.3 84.05 43.85 86.9 30.6 83.8 16.3 83.6 15.1 84.85 14.75 L85.15 14.7 85.65 14.65 Q98.95 15.9 114.5 12.85 M109.6 21.8 Q109.35 21.0 108.75 21.05 L108.5 21.1 Q100.75 22.6 94.1 22.0 L93.85 22.0 93.7 22.05 Q93.05 22.2 93.15 22.8 94.7 29.95 93.3 36.6 93.2 37.3 93.7 37.5 L94.0 37.6 94.3 37.6 Q102.35 35.7 109.0 36.2 110.25 36.3 109.85 34.95 108.15 28.35 109.6 21.8" fill="#990000" fill-rule="evenodd" stroke="none"/>
    <path d="M108.5 21.1 L108.75 21.05 Q109.35 21.0 109.6 21.8 108.15 28.35 109.85 34.95 110.25 36.3 109.0 36.2 102.35 35.7 94.3 37.6 L94.0 37.6 93.7 37.5 Q93.2 37.3 93.3 36.6 94.7 29.95 93.15 22.8 93.05 22.2 93.7 22.05 L93.85 22.0 94.1 22.0 Q100.75 22.6 108.5 21.1" fill="#ff9900" fill-rule="evenodd" stroke="none"/>
    <path d="M114.5 12.85 L114.95 12.75 Q116.2 12.7 116.7 14.25 113.8 27.4 117.15 40.55 117.95 43.25 115.45 43.05 102.15 42.1 86.1 45.85 L85.45 45.85 84.85 45.7 M0.45 29.1 Q2.1 18.2 1.2 12.85 0.15 6.85 0.55 5.15 0.9 3.45 1.35 2.7 3.0 1.75 4.5 1.9 16.65 2.9 28.3 0.75 M35.55 1.05 Q58.5 9.25 101.4 12.05 L114.5 12.85 Q98.95 15.9 85.65 14.65 L85.15 14.7 84.85 14.75 Q83.6 15.1 83.8 16.3 86.9 30.6 84.05 43.85 83.85 45.3 84.85 45.7 M108.5 21.1 L108.75 21.05 Q109.35 21.0 109.6 21.8 M109.85 34.95 Q110.25 36.3 109.0 36.2 M94.3 37.6 L94.0 37.6 93.7 37.5 Q93.2 37.3 93.3 36.6 M93.15 22.8 Q93.05 22.2 93.7 22.05 L93.85 22.0 94.1 22.0 M2.7 2.65 L1.35 2.7" fill="none" stroke="#000000" stroke-linecap="round" stroke-linejoin="round" stroke-width="1.0"/>
    <path d="M84.85 45.7 L81.2 44.85 Q42.65 35.85 2.55 32.0 0.55 31.7 0.45 29.1 M28.3 0.75 L35.55 1.05 M109.6 21.8 Q108.15 28.35 109.85 34.95 M109.0 36.2 Q102.35 35.7 94.3 37.6 M93.3 36.6 Q94.7 29.95 93.15 22.8 M94.1 22.0 Q100.75 22.6 108.5 21.1 M84.85 14.75 L81.2 14.85 Q42.85 15.3 2.7 2.65" fill="none" stroke="#000000" stroke-linecap="round" stroke-linejoin="round" stroke-width="1.0"/>
  </g>
</svg>
