<?xml version="1.0" encoding="UTF-8" standalone="no"?>
<svg xmlns:xlink="http://www.w3.org/1999/xlink" height="52.05px" width="262.6px" xmlns="http://www.w3.org/2000/svg">
  <g transform="matrix(1.0, 0.0, 0.0, 1.0, 0.5, 0.5)">
    <path d="M118.6 2.15 L151.7 0.0 Q199.55 1.95 259.85 18.45 L260.15 19.0 230.5 21.4 229.8 21.45 230.5 21.4 230.5 21.65 229.8 21.45 Q172.1 5.75 118.6 2.15" fill="#ffffff" fill-rule="evenodd" stroke="none"/>
    <path d="M260.15 19.0 Q263.15 24.6 259.85 28.65 L230.55 32.0 Q234.0 27.6 230.5 21.65 L230.5 21.4 260.15 19.0" fill="#d1d2e9" fill-rule="evenodd" stroke="none"/>
    <path d="M230.55 32.0 Q132.15 42.65 0.0 51.05 L0.0 40.25 229.8 21.45 230.5 21.65 Q234.0 27.6 230.55 32.0" fill="#650101" fill-rule="evenodd" stroke="none"/>
    <path d="M0.0 40.25 L0.0 9.8 118.6 2.15 Q172.1 5.75 229.8 21.45 L0.0 40.25" fill="#990000" fill-rule="evenodd" stroke="none"/>
    <path d="M118.6 2.15 L151.7 0.0 M259.85 28.65 L230.55 32.0 Q132.15 42.65 0.0 51.05 L0.0 40.25 0.0 9.8 118.6 2.15 M229.8 21.45 L230.5 21.4" fill="none" stroke="#000000" stroke-linecap="round" stroke-linejoin="round" stroke-width="1.0"/>
    <path d="M151.7 0.0 Q199.55 1.95 259.85 18.45 L260.15 19.0 Q263.15 24.6 259.85 28.65 M118.6 2.15 Q172.1 5.75 229.8 21.45 M230.55 32.0 Q234.0 27.6 230.5 21.65 L229.8 21.45" fill="none" stroke="#000000" stroke-linecap="round" stroke-linejoin="round" stroke-width="1.0"/>
  </g>
</svg>
