<?xml version="1.0" encoding="UTF-8" standalone="no"?>
<svg xmlns:xlink="http://www.w3.org/1999/xlink" height="404.15px" width="341.7px" xmlns="http://www.w3.org/2000/svg">
  <g transform="matrix(1.0, 0.0, 0.0, 1.0, 0.5, 0.5)">
    <path d="M64.9 0.0 L74.75 0.0 Q104.05 147.25 13.95 214.5 16.35 213.7 18.6 212.55 L24.3 210.1 24.35 210.05 26.05 209.3 26.95 208.9 27.75 208.55 Q31.1 210.25 30.7 212.8 L30.6 212.9 22.05 216.2 Q14.95 218.4 7.5 218.4 L0.0 217.75 0.0 215.45 0.0 0.0 24.3 0.0 Q37.4 161.85 5.1 215.85 L8.55 215.65 10.5 215.35 13.95 214.5 10.5 215.35 8.55 215.65 11.0 211.75 Q73.6 168.3 64.9 0.0 M133.6 0.0 L159.65 0.0 147.5 53.6 147.0 53.7 Q111.0 148.2 68.8 178.3 L25.85 208.9 Q108.8 143.05 129.35 41.25 L129.8 41.2 129.95 39.6 133.6 0.0 M206.3 0.0 L228.05 0.0 Q237.85 49.2 259.7 98.4 L259.75 99.0 260.2 99.0 Q282.4 157.3 329.45 198.35 282.5 165.35 249.15 106.7 L249.65 106.3 Q224.8 63.2 206.3 0.0 M257.2 0.0 L279.05 0.0 Q285.5 48.85 294.35 93.5 303.15 138.15 336.1 197.95 L336.9 197.55 337.6 197.15 Q318.8 98.55 318.15 0.0 L339.55 0.0 339.55 195.7 339.55 201.35 337.35 202.95 334.25 204.5 Q331.9 205.8 331.2 205.9 L329.05 205.95 325.9 205.95 317.3 205.45 317.2 203.85 318.1 202.5 319.45 202.8 322.65 202.2 Q331.6 202.9 335.45 201.0 327.5 201.3 316.7 198.45 317.2 197.15 319.05 195.85 L319.7 196.3 Q325.05 198.8 329.45 199.1 L330.3 199.1 330.4 199.1 333.65 198.75 336.1 197.95 333.65 198.75 Q273.25 109.65 257.2 0.0 M312.75 372.5 L312.85 372.85 Q312.9 373.85 309.8 374.35 L304.3 374.85 300.05 375.0 Q327.15 302.1 326.7 209.35 L328.9 209.45 Q329.6 250.4 325.55 290.1 L325.3 292.4 325.8 291.25 Q322.1 351.2 306.25 370.45 L305.8 370.8 305.8 370.95 305.8 371.45 309.65 371.55 Q312.25 371.75 312.75 372.5 M35.85 395.35 L31.35 393.95 Q26.1 391.7 22.55 391.7 L20.6 392.0 Q19.4 392.35 18.6 393.15 L17.75 393.25 Q5.2 304.85 19.05 224.05 L20.55 223.95 21.8 223.8 Q14.25 267.8 35.85 395.35 M8.45 399.45 Q5.3 399.6 2.4 401.6 L0.0 403.15 0.0 222.9 Q6.7 224.4 15.1 224.2 1.85 266.7 8.45 399.45 M339.55 195.7 L337.6 197.15 339.55 195.7 M0.0 215.45 L5.1 215.85 0.0 215.45" fill="#ffcccc" fill-opacity="0.7019608" fill-rule="evenodd" stroke="none"/>
    <path d="M53.25 0.0 L64.9 0.0 Q73.6 168.3 11.0 211.75 43.3 159.95 50.1 94.05 L50.55 84.0 Q55.65 48.55 53.25 0.0 M279.05 0.0 L305.9 0.0 304.9 30.3 304.95 30.4 305.35 31.85 305.4 32.65 Q308.65 130.35 336.9 197.55 L336.1 197.95 Q303.15 138.15 294.35 93.5 285.5 48.85 279.05 0.0 M339.55 201.35 L339.55 205.9 Q339.2 207.2 339.45 207.55 337.6 208.5 335.5 209.0 337.85 271.85 334.1 370.45 L333.55 370.65 329.9 372.45 Q327.5 373.5 324.55 373.5 321.65 373.5 321.65 372.25 L321.7 372.0 322.45 368.8 324.35 369.2 Q326.35 369.7 326.8 370.1 L326.9 370.4 326.9 370.25 326.8 370.1 Q334.2 274.4 331.55 209.5 L328.9 209.45 326.7 209.35 320.85 208.65 319.55 208.45 Q317.65 207.75 317.3 205.45 L325.9 205.95 329.05 205.95 331.2 205.9 Q331.9 205.8 334.25 204.5 L337.35 202.95 339.55 201.35 M314.5 368.7 L312.75 372.5 Q312.25 371.75 309.65 371.55 L305.8 371.45 305.8 370.95 306.25 370.45 Q308.2 369.05 314.5 368.7 M318.1 202.5 L318.3 202.15 316.85 200.65 Q316.3 199.55 316.7 198.45 327.5 201.3 335.45 201.0 331.6 202.9 322.65 202.2 L319.45 202.8 318.1 202.5 M30.6 212.9 L28.9 214.8 26.05 218.15 Q21.7 220.65 9.0 220.65 L2.15 219.9 0.0 219.3 0.0 217.75 7.5 218.4 Q14.95 218.4 22.05 216.2 L30.6 212.9 M29.3 218.85 Q28.0 221.25 25.15 223.45 L24.95 223.5 21.8 223.8 20.55 223.95 19.05 224.05 Q5.2 304.85 17.75 393.25 L17.85 394.2 18.6 393.15 Q19.4 392.35 20.6 392.0 L21.65 399.35 21.8 399.6 21.8 401.0 20.7 401.15 15.2 400.3 8.95 399.45 8.45 399.45 Q1.85 266.7 15.1 224.2 L19.05 224.05 15.1 224.2 Q6.7 224.4 0.0 222.9 L0.0 221.2 5.6 222.6 13.6 223.05 15.25 223.0 Q19.8 222.7 24.75 220.85 L29.3 218.85 M335.5 209.0 L331.55 209.5 335.5 209.0 M21.65 399.35 L19.65 398.15 18.3 397.2 Q17.5 396.4 17.5 395.5 17.5 394.85 17.85 394.2 17.5 394.85 17.5 395.5 17.5 396.4 18.3 397.2 L19.65 398.15 21.65 399.35 M326.9 370.4 Q326.7 371.1 324.3 371.2 322.05 371.3 321.7 372.0 322.05 371.3 324.3 371.2 326.7 371.1 326.9 370.4" fill="#ecc8c8" fill-opacity="0.9019608" fill-rule="evenodd" stroke="none"/>
    <path d="M74.75 0.0 L133.6 0.0 129.95 39.6 129.8 41.2 129.35 41.25 129.95 39.6 129.35 41.25 Q108.8 143.05 25.85 208.9 L68.8 178.3 Q111.0 148.2 147.0 53.7 L147.5 53.6 159.65 0.0 184.15 0.0 185.05 1.25 185.35 0.0 206.3 0.0 Q224.8 63.2 249.65 106.3 L249.15 106.7 Q282.5 165.35 329.45 198.35 282.4 157.3 260.2 99.0 L259.75 99.0 259.7 98.4 260.2 99.0 259.7 98.4 Q237.85 49.2 228.05 0.0 L257.2 0.0 Q273.25 109.65 333.65 198.75 L330.4 199.1 330.3 199.1 329.45 199.1 Q325.05 198.8 319.7 196.3 L319.05 195.85 Q213.0 120.2 185.05 1.25 148.4 144.9 27.75 208.55 L26.95 208.9 26.05 209.3 24.35 210.05 24.3 210.1 18.6 212.55 Q16.35 213.7 13.95 214.5 104.05 147.25 74.75 0.0 M305.9 0.0 L318.15 0.0 Q318.8 98.55 337.6 197.15 L336.9 197.55 Q308.65 130.35 305.4 32.65 L305.35 31.85 304.95 30.4 304.9 30.3 305.9 0.0 M339.45 207.55 L340.5 368.75 340.7 368.95 340.7 369.0 Q340.25 369.65 339.0 369.7 L336.95 369.75 334.1 370.45 Q337.85 271.85 335.5 209.0 337.6 208.5 339.45 207.55 M321.65 372.25 L321.65 372.15 321.7 372.0 321.65 372.25 M322.45 368.8 L319.6 368.55 314.5 368.7 Q308.2 369.05 306.25 370.45 322.1 351.2 325.8 291.25 L325.3 292.4 325.55 290.1 Q329.6 250.4 328.9 209.45 L331.55 209.5 Q334.2 274.4 326.8 370.1 326.35 369.7 324.35 369.2 L322.45 368.8 M300.05 375.0 Q296.95 374.6 292.1 373.2 317.15 290.9 320.85 208.65 L326.7 209.35 Q327.15 302.1 300.05 375.0 M25.15 223.45 L25.85 223.35 Q26.7 314.95 51.0 396.1 L50.45 396.2 45.85 396.35 Q40.05 396.25 35.85 395.35 14.25 267.8 21.8 223.8 L24.95 223.5 25.15 223.45 M24.3 0.0 L53.25 0.0 Q55.65 48.55 50.55 84.0 L50.1 94.05 Q43.3 159.95 11.0 211.75 L8.55 215.65 5.1 215.85 Q37.4 161.85 24.3 0.0 M330.4 199.1 L329.45 198.35 330.4 199.1 M329.45 198.35 L330.3 199.1 329.45 198.35 M24.35 210.05 L25.85 208.9 24.35 210.05 M25.85 208.9 L24.3 210.1 25.85 208.9" fill="url(#gradient0)" fill-rule="evenodd" stroke="none"/>
    <path d="M28.9 214.8 L29.95 217.25 29.3 218.85 24.75 220.85 Q19.8 222.7 15.25 223.0 L13.6 223.05 5.6 222.6 0.0 221.2 0.0 221.1 0.0 219.3 2.15 219.9 9.0 220.65 Q21.7 220.65 26.05 218.15 L28.9 214.8 M17.75 393.25 L18.6 393.15 17.85 394.2 17.75 393.25" fill="#ffcccc" fill-opacity="0.5019608" fill-rule="evenodd" stroke="none"/>
    <path d="M53.25 0.0 L64.9 0.0 74.75 0.0 133.6 0.0 159.65 0.0 184.15 0.0 185.35 0.0 206.3 0.0 228.05 0.0 257.2 0.0 279.05 0.0 305.9 0.0 318.15 0.0 339.55 0.0 339.55 195.7 339.55 201.35 339.55 205.9 M339.45 207.55 L340.5 368.75 M340.7 368.95 L340.7 369.0 Q340.25 369.65 339.0 369.7 L336.95 369.75 334.1 370.45 333.55 370.65 329.9 372.45 Q327.5 373.5 324.55 373.5 321.65 373.5 321.65 372.25 L321.65 372.15 321.7 372.0 322.45 368.8 319.6 368.55 314.5 368.7 312.75 372.5 312.85 372.85 Q312.9 373.85 309.8 374.35 L304.3 374.85 300.05 375.0 Q296.95 374.6 292.1 373.2 M318.3 202.15 L316.85 200.65 Q316.3 199.55 316.7 198.45 317.2 197.15 319.05 195.85 213.0 120.2 185.05 1.25 M25.85 223.35 Q26.7 314.95 51.0 396.1 L50.45 396.2 45.85 396.35 Q40.05 396.25 35.85 395.35 L31.35 393.95 Q26.1 391.7 22.55 391.7 L20.6 392.0 21.65 399.35 21.8 399.6 21.8 401.0 20.7 401.15 15.2 400.3 8.95 399.45 8.45 399.45 Q5.3 399.6 2.4 401.6 L0.0 403.15 0.0 222.9 0.0 221.2 M0.0 221.1 L0.0 219.3 0.0 217.75 0.0 215.45 0.0 0.0 24.3 0.0 53.25 0.0 M184.15 0.0 L185.05 1.25 M305.35 31.85 L304.95 30.4 M259.75 99.0 L260.2 99.0 259.7 98.4 M319.7 196.3 L319.05 195.85 M325.8 291.25 Q322.1 351.2 306.25 370.45 308.2 369.05 314.5 368.7 M129.35 41.25 L129.8 41.2 M19.05 224.05 Q5.2 304.85 17.75 393.25 L17.85 394.2 18.6 393.15 Q19.4 392.35 20.6 392.0 M17.85 394.2 Q17.5 394.85 17.5 395.5 17.5 396.4 18.3 397.2 L19.65 398.15 21.65 399.35 M326.8 370.1 L326.9 370.4 326.9 370.25 326.8 370.1 Q326.35 369.7 324.35 369.2 L322.45 368.8 M321.7 372.0 Q322.05 371.3 324.3 371.2 326.7 371.1 326.9 370.4 M306.25 370.45 L305.8 370.8 305.8 370.95 306.25 370.45 M305.8 370.95 L305.8 371.45 309.65 371.55 Q312.25 371.75 312.75 372.5" fill="none" stroke="#fd9b9b" stroke-linecap="round" stroke-linejoin="round" stroke-width="1.0"/>
    <path d="M339.55 205.9 Q339.2 207.2 339.45 207.55 337.6 208.5 335.5 209.0 M292.1 373.2 Q317.15 290.9 320.85 208.65 L319.55 208.45 Q317.65 207.75 317.3 205.45 L317.2 203.85 318.1 202.5 318.3 202.15 M185.05 1.25 Q148.4 144.9 27.75 208.55 31.1 210.25 30.7 212.8 L30.6 212.9 28.9 214.8 29.95 217.25 29.3 218.85 Q28.0 221.25 25.15 223.45 L25.85 223.35 M50.1 94.05 Q43.3 159.95 11.0 211.75 73.6 168.3 64.9 0.0 M185.05 1.25 L185.35 0.0 M336.1 197.95 L336.9 197.55 Q308.65 130.35 305.4 32.65 L305.35 31.85 M336.9 197.55 L337.6 197.15 339.55 195.7 M333.65 198.75 L336.1 197.95 M329.45 198.35 Q282.4 157.3 260.2 99.0 M328.9 209.45 L331.55 209.5 335.5 209.0 M326.7 209.35 L328.9 209.45 M333.65 198.75 L330.4 199.1 330.3 199.1 329.45 199.1 Q325.05 198.8 319.7 196.3 M329.45 198.35 L330.4 199.1 M335.45 201.0 Q331.6 202.9 322.65 202.2 L319.45 202.8 M330.3 199.1 L329.45 198.35 M320.85 208.65 L326.7 209.35 M25.85 208.9 L24.35 210.05 26.05 209.3 26.95 208.9 27.75 208.55 M129.95 39.6 L129.35 41.25 M24.35 210.05 L24.3 210.1 18.6 212.55 Q16.35 213.7 13.95 214.5 L10.5 215.35 8.55 215.65 5.1 215.85 0.0 215.45 M24.3 210.1 L25.85 208.9 Q108.8 143.05 129.35 41.25 M28.9 214.8 L26.05 218.15 M25.15 223.45 L24.95 223.5 21.8 223.8 20.55 223.95 19.05 224.05 15.1 224.2 Q6.7 224.4 0.0 222.9 M326.8 370.1 Q334.2 274.4 331.55 209.5 M8.55 215.65 L11.0 211.75" fill="none" stroke="#fd9b9b" stroke-linecap="round" stroke-linejoin="round" stroke-width="1.0"/>
  </g>
  <defs>
    <radialGradient cx="0" cy="0" gradientTransform="matrix(1.0, 0.0, 0.0, 1.0, 8.75, 12.75)" gradientUnits="userSpaceOnUse" id="gradient0" r="819.2" spreadMethod="pad">
      <stop offset="0.0" stop-color="#ffd9d9" stop-opacity="0.3019608"/>
      <stop offset="1.0" stop-color="#ff9999" stop-opacity="0.3019608"/>
    </radialGradient>
  </defs>
</svg>
