<?xml version="1.0" encoding="UTF-8" standalone="no"?>
<svg xmlns:xlink="http://www.w3.org/1999/xlink" height="476.5px" width="471.2px" xmlns="http://www.w3.org/2000/svg">
  <g transform="matrix(1.0, 0.0, 0.0, 1.0, 0.5, 0.5)">
    <path d="M22.0 10.45 L36.5 10.45 36.5 347.65 Q29.1 349.8 22.0 350.25 L22.0 10.45" fill="#cc0000" fill-rule="evenodd" stroke="none"/>
    <path d="M327.65 10.85 L329.15 10.65 340.1 10.65 353.4 10.65 353.4 247.0 465.75 253.35 465.75 266.0 353.4 257.45 353.4 278.0 466.4 287.75 466.4 297.9 353.4 286.9 353.4 429.0 466.4 451.1 466.4 461.0 338.85 434.3 340.1 10.65 338.85 434.3 223.15 409.05 125.0 387.65 36.5 368.35 36.5 347.65 36.5 10.45 43.9 10.45 43.9 225.05 117.4 230.15 117.4 10.45 125.0 10.45 125.0 10.9 127.95 10.45 133.75 10.45 133.75 231.3 213.35 236.6 213.35 10.65 224.4 10.65 233.55 10.65 233.55 237.9 327.65 245.35 327.65 10.85 M125.0 10.9 L125.0 387.65 125.0 10.9 M133.05 257.6 L214.05 265.35 214.05 246.65 133.05 240.6 133.05 257.6 M117.4 256.1 L117.4 239.4 86.25 236.8 86.2 236.8 43.25 233.2 43.25 249.0 117.4 256.1 M224.4 10.65 L223.15 409.05 224.4 10.65 M132.4 383.1 L214.05 400.45 214.05 272.55 132.4 264.05 132.4 383.1 M116.75 379.75 L116.75 262.4 42.55 254.7 42.55 364.0 116.75 379.75 M233.1 267.2 L327.0 275.7 327.0 255.1 233.1 248.05 233.1 267.2 M232.45 404.35 L326.35 424.25 326.35 284.25 232.45 274.5 232.45 404.35 M327.7 255.15 L327.0 255.1 327.7 255.15 M327.0 424.4 L326.35 424.25 327.0 424.4" fill="#ffcc00" fill-rule="evenodd" stroke="none"/>
    <path d="M338.85 434.3 L466.4 461.0 466.4 475.5 338.8 445.6 223.1 417.85 223.15 409.05 223.1 417.85 125.0 394.3 36.5 373.1 36.5 371.5 36.5 368.35 125.0 387.65 125.0 394.3 125.0 387.65 223.15 409.05 338.85 434.3 338.8 445.6 338.85 434.3 M466.4 287.75 L353.4 278.0 353.4 257.45 465.75 266.0 465.75 266.05 466.4 266.05 466.4 287.75 M465.75 253.35 L353.4 247.0 353.4 10.65 359.5 10.6 359.5 31.15 386.7 27.95 386.7 10.45 393.05 10.4 393.05 27.2 424.65 23.55 424.65 10.2 431.6 10.15 431.6 22.75 466.4 18.7 466.4 25.3 431.6 29.05 431.6 59.8 466.4 56.7 466.4 62.85 431.6 65.8 431.6 96.6 466.4 94.65 466.4 101.1 431.6 102.8 431.6 133.7 466.4 132.75 466.4 138.8 431.6 139.45 431.6 170.55 466.4 170.5 466.4 176.3 431.6 176.05 431.6 206.85 466.4 207.9 466.4 214.0 431.6 212.7 431.6 242.45 465.75 244.0 465.75 253.35 M43.9 10.45 L50.9 10.45 72.9 10.45 90.85 10.45 93.5 10.45 94.85 10.45 94.6 34.2 113.45 31.6 113.5 10.45 117.4 10.45 117.4 230.15 43.9 225.05 43.9 10.45 M90.85 10.9 L90.85 10.45 90.85 10.9 72.85 13.95 72.65 37.25 90.7 34.75 90.85 10.9 M133.75 10.45 L139.45 10.45 139.25 28.0 159.75 25.15 159.95 10.65 162.1 10.65 162.1 24.8 184.05 21.75 184.1 10.65 187.4 10.65 187.35 21.3 209.3 18.25 209.4 10.65 213.35 10.65 213.35 236.6 133.75 231.3 133.75 10.45 M233.55 10.65 L240.9 10.65 240.65 13.9 264.05 10.65 265.3 10.65 269.95 10.65 284.7 10.65 269.9 12.8 269.6 41.4 292.9 38.75 293.2 10.65 297.9 10.65 297.6 38.2 323.7 35.25 323.85 11.4 327.65 10.85 327.65 245.35 233.55 237.9 233.55 10.65 M265.05 41.9 L265.3 13.45 240.65 16.95 240.6 44.7 265.05 41.9 M292.85 44.05 L269.55 46.55 269.25 74.15 292.5 72.05 292.85 44.05 M240.4 107.75 L264.5 106.25 264.7 79.7 240.5 81.75 240.4 107.75 M269.2 79.35 L268.9 106.0 292.15 104.55 292.45 77.4 269.2 79.35 M296.85 104.25 L323.15 102.6 323.35 74.8 297.2 77.0 296.85 104.25 M297.25 71.6 L323.4 69.3 323.65 40.7 297.55 43.5 297.25 71.6 M240.5 76.7 L264.75 74.55 265.0 47.05 240.6 49.7 240.5 76.7 M184.0 51.15 L184.05 25.1 162.1 28.25 162.1 53.6 184.0 51.15 M187.3 24.65 L187.2 50.75 209.05 48.25 209.3 21.45 187.3 24.65 M209.05 53.15 L187.15 55.5 187.0 81.5 208.8 79.55 209.05 53.15 M159.35 53.95 L159.7 28.6 139.2 31.55 138.95 56.25 159.35 53.95 M208.8 84.4 L187.0 86.2 186.85 111.05 208.6 109.75 208.8 84.4 M183.9 86.45 L162.1 88.3 162.1 112.6 183.8 111.25 183.9 86.45 M158.95 84.0 L159.3 58.55 138.9 60.75 138.6 85.8 158.95 84.0 M184.0 55.85 L162.1 58.25 162.1 83.7 183.9 81.75 184.0 55.85 M183.75 140.7 L183.8 115.8 162.1 117.0 162.1 141.3 183.75 140.7 M208.35 144.5 L186.7 145.05 186.55 171.25 208.1 171.15 208.35 144.5 M208.35 140.0 L208.55 114.45 186.85 115.65 186.7 140.6 208.35 140.0 M158.2 141.4 L158.55 117.2 138.2 118.3 137.95 141.95 158.2 141.4 M162.1 199.9 L183.55 200.45 183.65 175.55 162.1 175.6 162.1 199.9 M157.4 199.8 L157.75 175.6 137.55 175.6 137.25 199.3 157.4 199.8 M207.85 205.35 L186.35 204.7 186.25 229.35 207.65 230.6 207.85 205.35 M186.5 175.55 L186.4 200.5 207.9 201.0 208.1 175.45 186.5 175.55 M183.75 145.15 L162.1 145.65 162.1 171.35 183.65 171.25 183.75 145.15 M183.55 204.6 L162.1 203.95 162.1 227.95 183.5 229.2 183.55 204.6 M157.8 171.35 L158.15 145.75 137.9 146.25 137.6 171.45 157.8 171.35 M291.8 137.6 L292.1 109.8 268.85 111.05 268.55 138.25 291.8 137.6 M264.15 143.1 L240.3 143.7 240.25 171.0 263.95 170.85 264.15 143.1 M291.75 142.45 L268.5 143.0 268.2 170.85 291.4 170.75 291.75 142.45 M264.2 138.35 L264.45 111.3 240.4 112.65 240.3 139.05 264.2 138.35 M263.9 175.35 L240.25 175.35 240.15 201.75 263.7 202.35 263.9 175.35 M263.65 207.05 L240.1 206.35 240.05 232.5 263.4 233.9 263.65 207.05 M291.0 207.9 L267.8 207.2 267.5 234.15 290.7 235.5 291.0 207.9 M295.8 203.1 L322.3 203.75 322.55 175.2 296.1 175.25 295.8 203.1 M267.85 202.45 L291.05 203.0 291.35 175.3 268.15 175.35 267.85 202.45 M296.15 170.7 L322.6 170.6 322.8 141.65 296.45 142.3 296.15 170.7 M158.6 112.85 L158.9 88.55 138.55 90.25 138.25 114.1 158.6 112.85 M296.5 137.45 L322.85 136.7 323.1 108.05 296.8 109.55 296.5 137.45 M113.35 59.15 L113.45 35.25 94.6 37.95 94.4 61.3 113.35 59.15 M90.7 38.55 L72.65 41.1 72.4 63.8 90.55 61.75 90.7 38.55 M68.65 37.8 L68.9 14.65 50.85 17.7 50.7 40.3 68.65 37.8 M68.2 92.05 L68.4 68.4 50.55 70.35 50.4 93.65 68.2 92.05 M90.4 90.1 L90.55 66.0 72.4 68.0 72.15 91.7 90.4 90.1 M94.35 65.6 L94.1 89.75 113.25 88.05 113.35 63.55 94.35 65.6 M90.4 94.25 L72.15 95.8 71.95 118.2 90.25 117.05 90.4 94.25 M113.25 92.35 L94.05 93.95 93.85 116.85 113.2 115.65 113.25 92.35 M68.45 64.25 L68.65 41.7 50.7 44.25 50.55 66.5 68.45 64.25 M50.1 144.45 L67.75 143.95 67.95 122.2 50.25 123.2 50.1 144.45 M49.8 197.2 L67.3 197.65 67.5 175.8 49.95 175.8 49.8 197.2 M49.95 171.85 L67.5 171.8 67.7 148.0 50.1 148.45 49.95 171.85 M113.1 142.65 L113.15 119.7 93.8 120.8 93.6 143.2 113.1 142.65 M90.1 147.45 L71.65 147.9 71.45 171.75 89.95 171.65 90.1 147.45 M71.9 122.0 L71.7 143.85 90.1 143.3 90.25 121.0 71.9 122.0 M71.4 175.8 L71.2 197.75 89.8 198.15 89.95 175.75 71.4 175.8 M93.35 175.75 L93.1 198.25 112.95 198.7 113.0 175.7 93.35 175.75 M89.8 201.75 L71.2 201.15 71.0 222.55 89.65 223.65 89.8 201.75 M112.95 202.45 L93.1 201.85 92.9 223.85 112.9 225.0 112.95 202.45 M113.05 171.6 L113.1 146.9 93.55 147.35 93.35 171.65 113.05 171.6 M50.25 119.55 L68.0 118.45 68.2 96.15 50.4 97.6 50.25 119.55 M67.3 201.05 L49.8 200.5 49.65 221.25 67.1 222.3 67.3 201.05 M133.05 257.6 L133.05 240.6 214.05 246.65 214.05 265.35 133.05 257.6 M117.4 256.1 L43.25 249.0 43.25 233.2 86.2 236.8 86.25 236.8 117.4 239.4 117.4 256.1 M233.1 267.2 L233.1 248.05 327.0 255.1 327.0 275.7 233.1 267.2 M136.95 226.45 L157.05 227.65 157.35 203.85 137.2 203.2 136.95 226.45 M295.4 235.8 L322.05 237.4 322.25 208.85 295.75 208.05 295.4 235.8 M424.65 29.8 L393.05 33.2 393.05 63.15 424.65 60.4 424.65 29.8 M393.05 98.75 L424.65 96.95 424.65 66.35 393.05 69.0 393.05 98.75 M393.05 104.65 L393.05 134.75 424.65 133.9 424.65 103.1 393.05 104.65 M386.7 99.1 L386.7 69.5 359.5 71.8 359.5 100.6 386.7 99.1 M386.7 63.7 L386.7 33.85 359.5 36.8 359.5 66.1 386.7 63.7 M359.5 204.7 L386.7 205.5 386.7 175.7 359.5 175.55 359.5 204.7 M359.5 170.55 L386.7 170.55 386.7 140.3 359.5 140.85 359.5 170.55 M424.65 139.6 L393.05 140.2 393.05 170.55 424.65 170.55 424.65 139.6 M393.05 175.75 L393.05 205.7 424.65 206.65 424.65 176.0 393.05 175.75 M359.5 106.3 L359.5 135.7 386.7 134.95 386.7 104.95 359.5 106.3 M386.7 240.5 L386.7 211.05 359.5 210.1 359.5 239.3 386.7 240.5 M424.65 242.15 L424.65 212.45 393.05 211.3 393.05 240.8 424.65 242.15 M465.75 277.65 L465.75 266.05 465.75 277.65" fill="#ff6600" fill-rule="evenodd" stroke="none"/>
    <path d="M0.55 347.65 L0.55 10.45 22.0 10.45 22.0 350.25 Q10.95 351.0 0.55 347.65" fill="#ff3300" fill-rule="evenodd" stroke="none"/>
    <path d="M359.5 10.6 L364.55 10.6 364.55 24.4 381.65 22.3 381.65 10.5 386.7 10.45 386.7 27.95 359.5 31.15 359.5 10.6 M393.05 10.4 L400.0 10.35 400.0 20.05 418.95 17.7 418.95 10.25 424.65 10.2 424.65 23.55 393.05 27.2 393.05 10.4 M431.6 10.15 L438.55 10.1 438.55 15.25 458.2 12.85 458.2 10.0 466.4 9.95 466.4 11.8 466.4 18.7 431.6 22.75 431.6 10.15 M94.85 10.45 L99.5 10.45 113.5 10.45 113.45 31.6 94.6 34.2 94.85 10.45 M90.85 10.9 L90.7 34.75 72.65 37.25 72.85 13.95 90.85 10.9 M162.1 10.65 L168.0 10.65 167.95 18.7 179.35 17.0 179.4 10.65 184.1 10.65 184.05 21.75 162.1 24.8 162.1 10.65 M156.7 10.65 L159.95 10.65 159.75 25.15 139.25 28.0 139.45 10.45 144.75 10.45 144.6 22.15 156.6 20.4 156.7 10.65 M187.4 10.65 L192.1 10.65 192.05 15.1 204.75 13.2 204.75 10.65 209.4 10.65 209.3 18.25 187.35 21.3 187.4 10.65 M240.9 10.65 L264.05 10.65 240.65 13.9 240.9 10.65 M323.85 11.4 L323.7 35.25 297.6 38.2 297.9 10.65 303.25 10.65 323.85 10.65 323.85 11.4 M293.2 10.65 L292.9 38.75 269.6 41.4 269.9 12.8 284.7 10.65 293.2 10.65 M302.95 31.9 L319.0 29.95 319.2 12.0 303.2 14.15 302.95 31.9 M289.0 33.55 L289.25 16.05 274.65 18.05 274.5 35.3 289.0 33.55 M292.85 44.05 L292.5 72.05 269.25 74.15 269.55 46.55 292.85 44.05 M265.05 41.9 L240.6 44.7 240.65 16.95 265.3 13.45 265.05 41.9 M259.5 100.95 L259.6 84.1 244.95 85.25 244.8 101.85 259.5 100.95 M259.8 53.5 L245.15 55.0 245.0 71.0 259.7 69.7 259.8 53.5 M259.9 37.05 L260.0 20.0 245.35 22.0 245.2 38.8 259.9 37.05 M288.75 50.55 L274.35 52.05 274.2 68.35 288.5 67.05 288.75 50.55 M240.4 107.75 L240.5 81.75 264.7 79.7 264.5 106.25 240.4 107.75 M302.05 98.35 L318.3 97.35 318.5 79.45 302.3 80.75 302.05 98.35 M274.05 82.95 L273.9 100.1 288.05 99.2 288.3 81.85 274.05 82.95 M269.2 79.35 L292.45 77.4 292.15 104.55 268.9 106.0 269.2 79.35 M296.85 104.25 L297.2 77.0 323.35 74.8 323.15 102.6 296.85 104.25 M302.5 65.8 L318.65 64.35 318.85 47.5 302.7 49.15 302.5 65.8 M240.5 76.7 L240.6 49.7 265.0 47.05 264.75 74.55 240.5 76.7 M297.25 71.6 L297.55 43.5 323.65 40.7 323.4 69.3 297.25 71.6 M204.65 27.45 L191.95 29.15 191.8 45.25 204.55 43.7 204.65 27.45 M204.45 59.1 L191.7 60.4 191.6 75.85 204.35 74.7 204.45 59.1 M209.05 53.15 L208.8 79.55 187.0 81.5 187.15 55.5 209.05 53.15 M187.3 24.65 L209.3 21.45 209.05 48.25 187.2 50.75 187.3 24.65 M184.0 51.15 L162.1 53.6 162.1 28.25 184.05 25.1 184.0 51.15 M156.4 34.0 L144.4 35.6 144.2 50.95 156.25 49.5 156.4 34.0 M179.15 30.9 L167.8 32.45 167.6 48.15 178.9 46.8 179.15 30.9 M159.35 53.95 L138.95 56.25 139.2 31.55 159.7 28.6 159.35 53.95 M178.05 105.95 L178.25 90.5 167.15 91.4 167.0 106.65 178.05 105.95 M155.55 107.35 L155.75 92.3 143.55 93.25 143.3 108.1 155.55 107.35 M156.05 64.0 L143.95 65.25 143.75 80.15 155.9 79.05 156.05 64.0 M178.45 77.05 L178.7 61.7 167.45 62.85 167.3 78.05 178.45 77.05 M204.2 104.35 L204.3 88.45 191.5 89.45 191.35 105.15 204.2 104.35 M208.8 84.4 L208.6 109.75 186.85 111.05 187.0 86.2 208.8 84.4 M184.0 55.85 L183.9 81.75 162.1 83.7 162.1 58.25 184.0 55.85 M158.95 84.0 L138.6 85.8 138.9 60.75 159.3 58.55 158.95 84.0 M183.9 86.45 L183.8 111.25 162.1 112.6 162.1 88.3 183.9 86.45 M191.1 135.75 L204.0 135.25 204.1 120.05 191.25 120.65 191.1 135.75 M183.75 140.7 L162.1 141.3 162.1 117.0 183.8 115.8 183.75 140.7 M203.9 149.5 L191.05 149.65 190.9 166.95 203.8 166.85 203.9 149.5 M208.35 144.5 L208.1 171.15 186.55 171.25 186.7 145.05 208.35 144.5 M208.35 140.0 L186.7 140.6 186.85 115.65 208.55 114.45 208.35 140.0 M177.4 149.9 L166.5 150.05 166.35 167.1 177.15 167.05 177.4 149.9 M155.4 122.35 L143.1 122.95 142.85 137.6 155.2 137.15 155.4 122.35 M177.8 121.3 L166.8 121.8 166.65 136.7 177.6 136.25 177.8 121.3 M158.2 141.4 L137.95 141.95 138.2 118.3 158.55 117.2 158.2 141.4 M176.55 208.65 L165.9 208.25 165.75 224.2 176.3 224.75 176.55 208.65 M176.95 180.2 L166.2 180.1 166.05 195.25 176.75 195.45 176.95 180.2 M162.1 199.9 L162.1 175.6 183.65 175.55 183.55 200.45 162.1 199.9 M157.4 199.8 L137.25 199.3 137.55 175.6 157.75 175.6 157.4 199.8 M190.8 180.3 L190.65 195.7 203.65 195.95 203.75 180.4 190.8 180.3 M154.55 195.05 L154.7 180.0 142.25 179.9 142.05 194.8 154.55 195.05 M207.85 205.35 L207.65 230.6 186.25 229.35 186.35 204.7 207.85 205.35 M186.5 175.55 L208.1 175.45 207.9 201.0 186.4 200.5 186.5 175.55 M183.75 145.15 L183.65 171.25 162.1 171.35 162.1 145.65 183.75 145.15 M154.85 167.2 L155.05 150.25 142.65 150.45 142.4 167.25 154.85 167.2 M157.8 171.35 L137.6 171.45 137.9 146.25 158.15 145.75 157.8 171.35 M183.55 204.6 L183.5 229.2 162.1 227.95 162.1 203.95 183.55 204.6 M301.6 131.45 L317.95 130.8 318.1 114.7 301.8 115.45 301.6 131.45 M287.35 148.2 L273.5 148.4 273.35 166.4 287.1 166.3 287.35 148.2 M287.55 132.0 L287.8 116.1 273.75 116.8 273.65 132.5 287.55 132.0 M291.8 137.6 L268.55 138.25 268.85 111.05 292.1 109.8 291.8 137.6 M264.2 138.35 L240.3 139.05 240.4 112.65 264.45 111.3 264.2 138.35 M291.75 142.45 L291.4 170.75 268.2 170.85 268.5 143.0 291.75 142.45 M264.15 143.1 L263.95 170.85 240.25 171.0 240.3 143.7 264.15 143.1 M259.0 180.85 L244.35 180.7 244.2 196.7 258.9 196.95 259.0 180.85 M259.3 133.1 L259.4 117.45 244.7 118.15 244.6 133.65 259.3 133.1 M259.2 148.65 L244.55 148.85 244.4 166.55 259.1 166.45 259.2 148.65 M263.65 207.05 L263.4 233.9 240.05 232.5 240.1 206.35 263.65 207.05 M263.9 175.35 L263.7 202.35 240.15 201.75 240.25 175.35 263.9 175.35 M286.85 181.1 L273.2 180.95 273.05 197.2 286.65 197.45 286.85 181.1 M300.65 197.65 L317.2 197.95 317.4 181.35 300.9 181.25 300.65 197.65 M291.0 207.9 L290.7 235.5 267.5 234.15 267.8 207.2 291.0 207.9 M295.8 203.1 L296.1 175.25 322.55 175.2 322.3 203.75 295.8 203.1 M267.85 202.45 L268.15 175.35 291.35 175.3 291.05 203.0 267.85 202.45 M301.1 166.2 L317.55 166.1 317.75 147.75 301.35 148.0 301.1 166.2 M296.15 170.7 L296.45 142.3 322.8 141.65 322.6 170.6 296.15 170.7 M158.6 112.85 L138.25 114.1 138.55 90.25 158.9 88.55 158.6 112.85 M296.5 137.45 L296.8 109.55 323.1 108.05 322.85 136.7 296.5 137.45 M113.35 59.15 L94.4 61.3 94.6 37.95 113.45 35.25 113.35 59.15 M65.45 33.9 L65.55 20.05 55.55 21.6 55.3 35.4 65.45 33.9 M86.8 30.75 L86.85 16.8 77.55 18.2 77.4 32.15 86.8 30.75 M109.5 27.35 L109.5 13.3 99.45 14.85 99.3 28.9 109.5 27.35 M109.5 55.1 L109.5 40.3 99.2 41.7 99.05 56.35 109.5 55.1 M77.15 58.95 L86.7 57.8 86.75 43.4 77.3 44.65 77.15 58.95 M65.3 60.4 L65.4 46.3 55.15 47.65 54.9 61.65 65.3 60.4 M68.65 37.8 L50.7 40.3 50.85 17.7 68.9 14.65 68.65 37.8 M90.7 38.55 L90.55 61.75 72.4 63.8 72.65 41.1 90.7 38.55 M98.8 84.2 L109.5 83.25 109.5 68.75 98.95 69.8 98.8 84.2 M86.6 97.75 L76.75 98.5 76.6 113.1 86.6 112.3 86.6 97.75 M65.15 87.3 L65.2 73.25 54.75 74.3 54.55 88.25 65.15 87.3 M86.65 85.35 L86.7 71.05 77.0 72.05 76.9 86.25 86.65 85.35 M90.4 94.25 L90.25 117.05 71.95 118.2 72.15 95.8 90.4 94.25 M94.35 65.6 L113.35 63.55 113.25 88.05 94.1 89.75 94.35 65.6 M90.4 90.1 L72.15 91.7 72.4 68.0 90.55 66.0 90.4 90.1 M68.2 92.05 L50.4 93.65 50.55 70.35 68.4 68.4 68.2 92.05 M109.5 95.9 L98.7 96.75 98.55 111.3 109.5 110.35 109.5 95.9 M68.45 64.25 L50.55 66.5 50.7 44.25 68.65 41.7 68.45 64.25 M113.25 92.35 L113.2 115.65 93.85 116.85 94.05 93.95 113.25 92.35 M53.75 141.15 L64.85 140.7 64.9 126.55 53.95 127.1 53.75 141.15 M49.8 197.2 L49.95 175.8 67.5 175.8 67.3 197.65 49.8 197.2 M50.1 144.45 L50.25 123.2 67.95 122.2 67.75 143.95 50.1 144.45 M53.0 193.2 L64.5 193.4 64.6 179.25 53.2 179.15 53.0 193.2 M53.35 167.85 L64.65 167.8 64.75 151.65 53.6 151.8 53.35 167.85 M49.95 171.85 L50.1 148.45 67.7 148.0 67.5 171.8 49.95 171.85 M109.5 138.95 L109.5 124.5 98.45 125.0 98.3 139.4 109.5 138.95 M113.1 142.65 L93.6 143.2 93.8 120.8 113.15 119.7 113.1 142.65 M76.35 140.25 L86.5 139.85 86.55 125.55 76.5 126.0 76.35 140.25 M86.45 151.3 L76.25 151.45 76.1 167.7 86.4 167.65 86.45 151.3 M90.1 147.45 L89.95 171.65 71.45 171.75 71.65 147.9 90.1 147.45 M71.9 122.0 L90.25 121.0 90.1 143.3 71.7 143.85 71.9 122.0 M86.4 179.45 L76.0 179.35 75.85 193.6 86.35 193.8 86.4 179.45 M86.3 205.15 L75.75 204.75 75.6 219.7 86.25 220.25 86.3 205.15 M89.8 201.75 L89.65 223.65 71.0 222.55 71.2 201.15 89.8 201.75 M93.35 175.75 L113.0 175.7 112.95 198.7 93.1 198.25 93.35 175.75 M71.4 175.8 L89.95 175.75 89.8 198.15 71.2 197.75 71.4 175.8 M97.85 194.0 L109.5 194.25 109.5 179.65 97.95 179.55 97.85 194.0 M98.05 167.55 L109.5 167.45 109.5 150.95 98.2 151.15 98.05 167.55 M109.5 206.05 L97.7 205.55 97.6 220.8 109.5 221.4 109.5 206.05 M113.05 171.6 L93.35 171.65 93.55 147.35 113.1 146.9 113.05 171.6 M112.95 202.45 L112.9 225.0 92.9 223.85 93.1 201.85 112.95 202.45 M50.25 119.55 L50.4 97.6 68.2 96.15 68.0 118.45 50.25 119.55 M54.15 115.0 L65.0 114.1 65.05 99.45 54.35 100.3 54.15 115.0 M64.45 204.3 L52.85 203.85 52.6 218.55 64.35 219.15 64.45 204.3 M67.3 201.05 L67.1 222.3 49.65 221.25 49.8 200.5 67.3 201.05 M286.15 230.3 L286.4 212.9 272.9 212.35 272.75 229.65 286.15 230.3 M300.15 231.0 L316.85 231.85 317.05 214.1 300.4 213.45 300.15 231.0 M258.7 228.95 L258.8 211.85 244.15 211.25 244.05 228.2 258.7 228.95 M203.45 226.15 L203.55 209.7 190.6 209.2 190.45 225.5 203.45 226.15 M154.2 223.65 L154.4 207.8 141.85 207.3 141.6 223.0 154.2 223.65 M295.4 235.8 L295.75 208.05 322.25 208.85 322.05 237.4 295.4 235.8 M136.95 226.45 L137.2 203.2 157.35 203.85 157.05 227.65 136.95 226.45 M466.4 25.3 L466.4 32.4 466.4 50.5 466.4 56.7 431.6 59.8 431.6 29.05 466.4 25.3 M458.2 33.25 L438.55 35.25 438.55 53.15 458.2 51.3 458.2 33.25 M418.95 37.25 L400.0 39.2 400.0 56.75 418.95 55.0 418.95 37.25 M424.65 29.8 L424.65 60.4 393.05 63.15 393.05 33.2 424.65 29.8 M418.95 91.05 L418.95 72.4 400.0 73.7 400.0 92.25 418.95 91.05 M393.05 98.75 L393.05 69.0 424.65 66.35 424.65 96.95 393.05 98.75 M393.05 104.65 L424.65 103.1 424.65 133.9 393.05 134.75 393.05 104.65 M386.7 99.1 L359.5 100.6 359.5 71.8 386.7 69.5 386.7 99.1 M466.4 62.85 L466.4 69.2 466.4 88.05 466.4 94.65 431.6 96.6 431.6 65.8 466.4 62.85 M458.2 108.4 L438.55 109.25 438.55 126.45 458.2 125.8 458.2 108.4 M466.4 132.75 L431.6 133.7 431.6 102.8 466.4 101.1 466.4 125.5 466.4 132.75 M458.2 69.75 L438.55 71.1 438.55 89.8 458.2 88.55 458.2 69.75 M386.7 63.7 L359.5 66.1 359.5 36.8 386.7 33.85 386.7 63.7 M381.65 58.5 L381.65 41.1 364.55 42.85 364.55 60.1 381.65 58.5 M364.55 94.5 L381.65 93.4 381.65 74.95 364.55 76.1 364.55 94.5 M381.65 146.75 L364.55 147.0 364.55 165.85 381.65 165.75 381.65 146.75 M381.65 128.5 L381.65 111.8 364.55 112.55 364.55 129.1 381.65 128.5 M364.55 198.9 L381.65 199.3 381.65 182.05 364.55 181.85 364.55 198.9 M359.5 170.55 L359.5 140.85 386.7 140.3 386.7 170.55 359.5 170.55 M359.5 204.7 L359.5 175.55 386.7 175.7 386.7 205.5 359.5 204.7 M466.4 170.5 L431.6 170.55 431.6 139.45 466.4 138.8 466.4 145.55 466.4 165.4 466.4 170.5 M458.2 145.65 L438.55 145.95 438.55 165.55 458.2 165.45 458.2 145.65 M418.95 127.15 L418.95 110.15 400.0 111.0 400.0 127.85 418.95 127.15 M418.95 146.2 L400.0 146.5 400.0 165.7 418.95 165.6 418.95 146.2 M424.65 139.6 L424.65 170.55 393.05 170.55 393.05 140.2 424.65 139.6 M418.95 182.5 L400.0 182.25 400.0 199.7 418.95 200.1 418.95 182.5 M393.05 175.75 L424.65 176.0 424.65 206.65 393.05 205.7 393.05 175.75 M466.4 176.3 L466.4 183.1 466.4 207.9 431.6 206.85 431.6 176.05 466.4 176.3 M466.4 214.0 L466.4 244.0 465.75 244.0 465.75 242.25 465.75 244.0 431.6 242.45 431.6 212.7 466.4 214.0 M458.2 183.0 L438.55 182.75 438.55 200.55 458.2 201.0 458.2 183.0 M359.5 106.3 L386.7 104.95 386.7 134.95 359.5 135.7 359.5 106.3 M458.2 238.2 L458.2 218.75 438.55 218.1 438.55 237.35 458.2 238.2 M424.65 242.15 L393.05 240.8 393.05 211.3 424.65 212.45 424.65 242.15 M386.7 240.5 L359.5 239.3 359.5 210.1 386.7 211.05 386.7 240.5 M418.95 236.5 L418.95 217.5 400.0 216.9 400.0 235.65 418.95 236.5 M364.55 234.1 L381.65 234.85 381.65 216.3 364.55 215.75 364.55 234.1" fill="#fdba1e" fill-rule="evenodd" stroke="none"/>
    <path d="M364.55 10.6 L381.65 10.5 381.65 22.3 364.55 24.4 364.55 10.6 M400.0 10.35 L418.95 10.25 418.95 17.7 400.0 20.05 400.0 10.35 M438.55 10.1 L458.2 10.0 458.2 12.85 438.55 15.25 438.55 10.1 M144.75 10.45 L152.9 10.45 156.7 10.65 156.6 20.4 144.6 22.15 144.75 10.45 M168.0 10.65 L179.4 10.65 179.35 17.0 167.95 18.7 168.0 10.65 M204.75 10.65 L204.75 13.2 192.05 15.1 192.1 10.65 204.75 10.65 M302.95 31.9 L303.2 14.15 319.2 12.0 319.0 29.95 302.95 31.9 M289.0 33.55 L274.5 35.3 274.65 18.05 289.25 16.05 289.0 33.55 M288.75 50.55 L288.5 67.05 274.2 68.35 274.35 52.05 288.75 50.55 M259.9 37.05 L245.2 38.8 245.35 22.0 260.0 20.0 259.9 37.05 M259.8 53.5 L259.7 69.7 245.0 71.0 245.15 55.0 259.8 53.5 M259.5 100.95 L244.8 101.85 244.95 85.25 259.6 84.1 259.5 100.95 M302.05 98.35 L302.3 80.75 318.5 79.45 318.3 97.35 302.05 98.35 M274.05 82.95 L288.3 81.85 288.05 99.2 273.9 100.1 274.05 82.95 M302.5 65.8 L302.7 49.15 318.85 47.5 318.65 64.35 302.5 65.8 M204.65 27.45 L204.55 43.7 191.8 45.25 191.95 29.15 204.65 27.45 M204.45 59.1 L204.35 74.7 191.6 75.85 191.7 60.4 204.45 59.1 M179.15 30.9 L178.9 46.8 167.6 48.15 167.8 32.45 179.15 30.9 M156.4 34.0 L156.25 49.5 144.2 50.95 144.4 35.6 156.4 34.0 M178.45 77.05 L167.3 78.05 167.45 62.85 178.7 61.7 178.45 77.05 M156.05 64.0 L155.9 79.05 143.75 80.15 143.95 65.25 156.05 64.0 M155.55 107.35 L143.3 108.1 143.55 93.25 155.75 92.3 155.55 107.35 M178.05 105.95 L167.0 106.65 167.15 91.4 178.25 90.5 178.05 105.95 M204.2 104.35 L191.35 105.15 191.5 89.45 204.3 88.45 204.2 104.35 M191.1 135.75 L191.25 120.65 204.1 120.05 204.0 135.25 191.1 135.75 M203.9 149.5 L203.8 166.85 190.9 166.95 191.05 149.65 203.9 149.5 M177.8 121.3 L177.6 136.25 166.65 136.7 166.8 121.8 177.8 121.3 M155.4 122.35 L155.2 137.15 142.85 137.6 143.1 122.95 155.4 122.35 M177.4 149.9 L177.15 167.05 166.35 167.1 166.5 150.05 177.4 149.9 M176.95 180.2 L176.75 195.45 166.05 195.25 166.2 180.1 176.95 180.2 M176.55 208.65 L176.3 224.75 165.75 224.2 165.9 208.25 176.55 208.65 M154.55 195.05 L142.05 194.8 142.25 179.9 154.7 180.0 154.55 195.05 M190.8 180.3 L203.75 180.4 203.65 195.95 190.65 195.7 190.8 180.3 M154.85 167.2 L142.4 167.25 142.65 150.45 155.05 150.25 154.85 167.2 M301.6 131.45 L301.8 115.45 318.1 114.7 317.95 130.8 301.6 131.45 M287.55 132.0 L273.65 132.5 273.75 116.8 287.8 116.1 287.55 132.0 M287.35 148.2 L287.1 166.3 273.35 166.4 273.5 148.4 287.35 148.2 M259.2 148.65 L259.1 166.45 244.4 166.55 244.55 148.85 259.2 148.65 M259.3 133.1 L244.6 133.65 244.7 118.15 259.4 117.45 259.3 133.1 M259.0 180.85 L258.9 196.95 244.2 196.7 244.35 180.7 259.0 180.85 M300.65 197.65 L300.9 181.25 317.4 181.35 317.2 197.95 300.65 197.65 M286.85 181.1 L286.65 197.45 273.05 197.2 273.2 180.95 286.85 181.1 M301.1 166.2 L301.35 148.0 317.75 147.75 317.55 166.1 301.1 166.2 M109.5 55.1 L99.05 56.35 99.2 41.7 109.5 40.3 109.5 55.1 M109.5 27.35 L99.3 28.9 99.45 14.85 109.5 13.3 109.5 27.35 M86.8 30.75 L77.4 32.15 77.55 18.2 86.85 16.8 86.8 30.75 M65.45 33.9 L55.3 35.4 55.55 21.6 65.55 20.05 65.45 33.9 M77.15 58.95 L77.3 44.65 86.75 43.4 86.7 57.8 77.15 58.95 M65.3 60.4 L54.9 61.65 55.15 47.65 65.4 46.3 65.3 60.4 M98.8 84.2 L98.95 69.8 109.5 68.75 109.5 83.25 98.8 84.2 M86.65 85.35 L76.9 86.25 77.0 72.05 86.7 71.05 86.65 85.35 M65.15 87.3 L54.55 88.25 54.75 74.3 65.2 73.25 65.15 87.3 M86.6 97.75 L86.6 112.3 76.6 113.1 76.75 98.5 86.6 97.75 M109.5 95.9 L109.5 110.35 98.55 111.3 98.7 96.75 109.5 95.9 M53.75 141.15 L53.95 127.1 64.9 126.55 64.85 140.7 53.75 141.15 M53.35 167.85 L53.6 151.8 64.75 151.65 64.65 167.8 53.35 167.85 M53.0 193.2 L53.2 179.15 64.6 179.25 64.5 193.4 53.0 193.2 M109.5 138.95 L98.3 139.4 98.45 125.0 109.5 124.5 109.5 138.95 M76.35 140.25 L76.5 126.0 86.55 125.55 86.5 139.85 76.35 140.25 M86.45 151.3 L86.4 167.65 76.1 167.7 76.25 151.45 86.45 151.3 M86.4 179.45 L86.35 193.8 75.85 193.6 76.0 179.35 86.4 179.45 M86.3 205.15 L86.25 220.25 75.6 219.7 75.75 204.75 86.3 205.15 M98.05 167.55 L98.2 151.15 109.5 150.95 109.5 167.45 98.05 167.55 M97.85 194.0 L97.95 179.55 109.5 179.65 109.5 194.25 97.85 194.0 M109.5 206.05 L109.5 221.4 97.6 220.8 97.7 205.55 109.5 206.05 M54.15 115.0 L54.35 100.3 65.05 99.45 65.0 114.1 54.15 115.0 M64.45 204.3 L64.35 219.15 52.6 218.55 52.85 203.85 64.45 204.3 M300.15 231.0 L300.4 213.45 317.05 214.1 316.85 231.85 300.15 231.0 M286.15 230.3 L272.75 229.65 272.9 212.35 286.4 212.9 286.15 230.3 M258.7 228.95 L244.05 228.2 244.15 211.25 258.8 211.85 258.7 228.95 M203.45 226.15 L190.45 225.5 190.6 209.2 203.55 209.7 203.45 226.15 M154.2 223.65 L141.6 223.0 141.85 207.3 154.4 207.8 154.2 223.65 M458.2 33.25 L458.2 51.3 438.55 53.15 438.55 35.25 458.2 33.25 M418.95 37.25 L418.95 55.0 400.0 56.75 400.0 39.2 418.95 37.25 M418.95 91.05 L400.0 92.25 400.0 73.7 418.95 72.4 418.95 91.05 M458.2 108.4 L458.2 125.8 438.55 126.45 438.55 109.25 458.2 108.4 M458.2 69.75 L458.2 88.55 438.55 89.8 438.55 71.1 458.2 69.75 M381.65 58.5 L364.55 60.1 364.55 42.85 381.65 41.1 381.65 58.5 M364.55 94.5 L364.55 76.1 381.65 74.95 381.65 93.4 364.55 94.5 M381.65 146.75 L381.65 165.75 364.55 165.85 364.55 147.0 381.65 146.75 M364.55 198.9 L364.55 181.85 381.65 182.05 381.65 199.3 364.55 198.9 M381.65 128.5 L364.55 129.1 364.55 112.55 381.65 111.8 381.65 128.5 M458.2 145.65 L458.2 165.45 438.55 165.55 438.55 145.95 458.2 145.65 M418.95 127.15 L400.0 127.85 400.0 111.0 418.95 110.15 418.95 127.15 M418.95 146.2 L418.95 165.6 400.0 165.7 400.0 146.5 418.95 146.2 M418.95 182.5 L418.95 200.1 400.0 199.7 400.0 182.25 418.95 182.5 M458.2 183.0 L458.2 201.0 438.55 200.55 438.55 182.75 458.2 183.0 M458.2 238.2 L438.55 237.35 438.55 218.1 458.2 218.75 458.2 238.2 M418.95 236.5 L400.0 235.65 400.0 216.9 418.95 217.5 418.95 236.5 M364.55 234.1 L364.55 215.75 381.65 216.3 381.65 234.85 364.55 234.1" fill="#ffff99" fill-rule="evenodd" stroke="none"/>
    <path d="M466.4 451.1 L353.4 429.0 353.4 286.9 466.4 297.9 466.4 451.1 M132.4 383.1 L132.4 264.05 214.05 272.55 214.05 400.45 132.4 383.1 M116.75 379.75 L42.55 364.0 42.55 254.7 116.75 262.4 116.75 379.75 M232.45 404.35 L232.45 274.5 326.35 284.25 326.35 424.25 232.45 404.35" fill="#ffcc66" fill-rule="evenodd" stroke="none"/>
    <path d="M36.5 347.65 L36.5 368.35 36.5 371.5 Q30.15 375.9 22.0 376.25 12.5 376.6 0.55 371.5 L0.55 347.65 Q10.95 351.0 22.0 350.25 29.1 349.8 36.5 347.65" fill="#ffff00" fill-rule="evenodd" stroke="none"/>
    <path d="M323.9 9.25 L323.85 10.65 327.65 10.65 327.65 9.25 M329.15 10.65 L327.65 10.65 327.65 10.85 329.15 10.65 339.55 9.25 M340.1 9.25 L340.1 10.65 353.4 10.65 353.4 6.75 M329.15 10.65 L340.1 10.65 338.85 434.3 466.4 461.0 466.4 451.1 353.4 429.0 353.4 286.9 466.4 297.9 466.4 287.75 353.4 278.0 353.4 257.45 465.75 266.0 465.75 253.35 353.4 247.0 353.4 10.65 359.5 10.6 359.5 8.2 M359.5 10.6 L364.55 10.6 364.55 7.55 M364.55 10.6 L381.65 10.5 381.65 8.2 M386.7 10.45 L386.7 6.3 M386.7 10.45 L393.05 10.4 393.05 5.65 M393.05 10.4 L400.0 10.35 400.0 4.4 M424.65 10.2 L424.65 5.05 M418.95 5.05 L418.95 10.25 424.65 10.2 431.6 10.15 431.6 4.4 M418.95 10.25 L400.0 10.35 400.0 20.05 418.95 17.7 418.95 10.25 M438.55 10.1 L438.55 3.8 M438.55 10.1 L458.2 10.0 458.2 3.8 M466.4 9.95 L466.4 0.0 M438.55 10.1 L431.6 10.15 431.6 22.75 466.4 18.7 466.4 11.8 466.4 9.95 458.2 10.0 458.2 12.85 438.55 15.25 438.55 10.1 M381.65 10.5 L386.7 10.45 386.7 27.95 359.5 31.15 359.5 10.6 M470.2 9.9 L466.4 9.95 M0.0 10.45 L0.55 10.45 0.55 8.75 M36.5 10.45 L43.9 10.45 43.9 9.55 M43.9 10.45 L50.9 10.45 50.9 9.55 M36.5 10.45 L36.5 9.55 M22.0 10.45 L36.5 10.45 36.5 347.65 36.5 368.35 125.0 387.65 125.0 10.9 125.0 10.45 117.4 10.45 117.4 230.15 43.9 225.05 43.9 10.45 M22.0 10.45 L0.55 10.45 0.55 347.65 Q10.95 351.0 22.0 350.25 M72.9 10.45 L72.9 9.55 M113.5 10.45 L99.5 10.45 94.85 10.45 94.6 34.2 113.45 31.6 113.5 10.45 113.5 9.55 M94.85 10.45 L93.5 10.45 90.85 10.45 90.85 10.9 90.7 34.75 72.65 37.25 72.85 13.95 90.85 10.9 M93.5 10.45 L94.85 10.25 94.85 10.45 M99.5 10.45 L99.5 9.55 M90.85 10.45 L72.9 10.45 50.9 10.45 M117.4 10.45 L113.5 10.45 M117.4 10.45 L117.4 9.55 M133.75 10.45 L139.45 10.45 139.45 9.55 M133.75 10.45 L127.95 10.45 125.0 10.9 M133.75 10.45 L133.75 9.55 M125.0 9.55 L125.0 10.45 127.95 10.45 M144.75 9.55 L144.75 10.45 152.9 10.45 156.7 10.45 156.7 9.55 M156.7 10.65 L152.9 10.45 M156.7 10.65 L156.7 10.45 159.95 10.45 160.0 9.25 M159.95 10.65 L159.95 10.45 M162.1 10.65 L162.1 9.25 M159.95 10.65 L162.1 10.65 168.0 10.65 168.05 9.25 M156.7 10.65 L159.95 10.65 159.75 25.15 139.25 28.0 139.45 10.45 144.75 10.45 144.6 22.15 156.6 20.4 156.7 10.65 M179.4 10.65 L179.45 9.25 M179.4 10.65 L168.0 10.65 167.95 18.7 179.35 17.0 179.4 10.65 184.1 10.65 184.1 9.25 M184.1 10.65 L187.4 10.65 187.4 9.25 M187.4 10.65 L192.1 10.65 192.1 9.25 M213.35 10.65 L213.35 9.25 M209.4 10.65 L204.75 10.65 204.75 13.2 192.05 15.1 192.1 10.65 204.75 10.65 204.75 9.25 M209.4 10.65 L209.4 9.25 M209.4 10.65 L213.35 10.65 224.4 10.65 224.4 9.25 M233.55 10.65 L240.9 10.65 264.05 10.65 265.3 10.5 265.3 9.35 M233.55 10.65 L233.55 9.25 M224.4 10.65 L233.55 10.65 233.55 237.9 327.65 245.35 327.65 10.85 323.85 11.4 323.7 35.25 297.6 38.2 297.9 10.65 293.2 10.65 292.9 38.75 269.6 41.4 269.9 12.8 284.7 10.65 269.95 10.65 265.3 10.65 264.05 10.65 240.65 13.9 240.9 10.65 M269.95 10.65 L269.95 9.85 265.3 10.5 265.3 10.65 M269.95 9.25 L269.95 9.85 274.05 9.25 M297.9 10.65 L297.95 9.25 M303.25 10.65 L303.25 10.0 M297.9 10.65 L303.25 10.65 323.85 10.65 323.85 11.4 M284.7 10.65 L293.2 10.65 293.25 9.45 284.7 10.65 M293.25 9.45 L294.45 9.25 M302.95 31.9 L319.0 29.95 319.2 12.0 303.2 14.15 302.95 31.9 M289.0 33.55 L274.5 35.3 274.65 18.05 289.25 16.05 289.0 33.55 M292.85 44.05 L292.5 72.05 269.25 74.15 269.55 46.55 292.85 44.05 M265.05 41.9 L240.6 44.7 240.65 16.95 265.3 13.45 265.05 41.9 M288.75 50.55 L288.5 67.05 274.2 68.35 274.35 52.05 288.75 50.55 M259.9 37.05 L245.2 38.8 245.35 22.0 260.0 20.0 259.9 37.05 M259.8 53.5 L259.7 69.7 245.0 71.0 245.15 55.0 259.8 53.5 M259.5 100.95 L244.8 101.85 244.95 85.25 259.6 84.1 259.5 100.95 M240.4 107.75 L264.5 106.25 264.7 79.7 240.5 81.75 240.4 107.75 M302.05 98.35 L318.3 97.35 318.5 79.45 302.3 80.75 302.05 98.35 M274.05 82.95 L288.3 81.85 288.05 99.2 273.9 100.1 274.05 82.95 M269.2 79.35 L292.45 77.4 292.15 104.55 268.9 106.0 269.2 79.35 M296.85 104.25 L323.15 102.6 323.35 74.8 297.2 77.0 296.85 104.25 M302.5 65.8 L318.65 64.35 318.85 47.5 302.7 49.15 302.5 65.8 M297.25 71.6 L323.4 69.3 323.65 40.7 297.55 43.5 297.25 71.6 M240.5 76.7 L264.75 74.55 265.0 47.05 240.6 49.7 240.5 76.7 M187.4 10.65 L187.35 21.3 209.3 18.25 209.4 10.65 M204.65 27.45 L191.95 29.15 191.8 45.25 204.55 43.7 204.65 27.45 M204.45 59.1 L204.35 74.7 191.6 75.85 191.7 60.4 204.45 59.1 M209.05 53.15 L208.8 79.55 187.0 81.5 187.15 55.5 209.05 53.15 M187.3 24.65 L209.3 21.45 209.05 48.25 187.2 50.75 187.3 24.65 M184.0 51.15 L162.1 53.6 162.1 28.25 184.05 25.1 184.0 51.15 M179.15 30.9 L178.9 46.8 167.6 48.15 167.8 32.45 179.15 30.9 M156.4 34.0 L156.25 49.5 144.2 50.95 144.4 35.6 156.4 34.0 M159.35 53.95 L138.95 56.25 139.2 31.55 159.7 28.6 159.35 53.95 M178.45 77.05 L167.3 78.05 167.45 62.85 178.7 61.7 178.45 77.05 M156.05 64.0 L155.9 79.05 143.75 80.15 143.95 65.25 156.05 64.0 M155.55 107.35 L143.3 108.1 143.55 93.25 155.75 92.3 155.55 107.35 M178.05 105.95 L167.0 106.65 167.15 91.4 178.25 90.5 178.05 105.95 M204.2 104.35 L204.3 88.45 191.5 89.45 191.35 105.15 204.2 104.35 M208.8 84.4 L208.6 109.75 186.85 111.05 187.0 86.2 208.8 84.4 M162.1 10.65 L162.1 24.8 184.05 21.75 184.1 10.65 M184.0 55.85 L183.9 81.75 162.1 83.7 162.1 58.25 184.0 55.85 M158.95 84.0 L138.6 85.8 138.9 60.75 159.3 58.55 158.95 84.0 M183.9 86.45 L183.8 111.25 162.1 112.6 162.1 88.3 183.9 86.45 M191.1 135.75 L204.0 135.25 204.1 120.05 191.25 120.65 191.1 135.75 M183.75 140.7 L162.1 141.3 162.1 117.0 183.8 115.8 183.75 140.7 M203.9 149.5 L203.8 166.85 190.9 166.95 191.05 149.65 203.9 149.5 M208.35 144.5 L208.1 171.15 186.55 171.25 186.7 145.05 208.35 144.5 M208.35 140.0 L208.55 114.45 186.85 115.65 186.7 140.6 208.35 140.0 M177.8 121.3 L177.6 136.25 166.65 136.7 166.8 121.8 177.8 121.3 M155.4 122.35 L155.2 137.15 142.85 137.6 143.1 122.95 155.4 122.35 M177.4 149.9 L177.15 167.05 166.35 167.1 166.5 150.05 177.4 149.9 M158.2 141.4 L137.95 141.95 138.2 118.3 158.55 117.2 158.2 141.4 M176.95 180.2 L176.75 195.45 166.05 195.25 166.2 180.1 176.95 180.2 M176.55 208.65 L176.3 224.75 165.75 224.2 165.9 208.25 176.55 208.65 M162.1 199.9 L183.55 200.45 183.65 175.55 162.1 175.6 162.1 199.9 M157.4 199.8 L137.25 199.3 137.55 175.6 157.75 175.6 157.4 199.8 M154.55 195.05 L142.05 194.8 142.25 179.9 154.7 180.0 154.55 195.05 M190.8 180.3 L203.75 180.4 203.65 195.95 190.65 195.7 190.8 180.3 M207.85 205.35 L207.65 230.6 186.25 229.35 186.35 204.7 207.85 205.35 M186.5 175.55 L186.4 200.5 207.9 201.0 208.1 175.45 186.5 175.55 M183.75 145.15 L183.65 171.25 162.1 171.35 162.1 145.65 183.75 145.15 M154.85 167.2 L142.4 167.25 142.65 150.45 155.05 150.25 154.85 167.2 M157.8 171.35 L137.6 171.45 137.9 146.25 158.15 145.75 157.8 171.35 M183.55 204.6 L183.5 229.2 162.1 227.95 162.1 203.95 183.55 204.6 M301.6 131.45 L317.95 130.8 318.1 114.7 301.8 115.45 301.6 131.45 M287.55 132.0 L273.65 132.5 273.75 116.8 287.8 116.1 287.55 132.0 M287.35 148.2 L287.1 166.3 273.35 166.4 273.5 148.4 287.35 148.2 M291.8 137.6 L292.1 109.8 268.85 111.05 268.55 138.25 291.8 137.6 M264.2 138.35 L240.3 139.05 240.4 112.65 264.45 111.3 264.2 138.35 M291.75 142.45 L291.4 170.75 268.2 170.85 268.5 143.0 291.75 142.45 M264.15 143.1 L263.95 170.85 240.25 171.0 240.3 143.7 264.15 143.1 M259.2 148.65 L259.1 166.45 244.4 166.55 244.55 148.85 259.2 148.65 M259.3 133.1 L244.6 133.65 244.7 118.15 259.4 117.45 259.3 133.1 M259.0 180.85 L258.9 196.95 244.2 196.7 244.35 180.7 259.0 180.85 M263.65 207.05 L263.4 233.9 240.05 232.5 240.1 206.35 263.65 207.05 M263.9 175.35 L263.7 202.35 240.15 201.75 240.25 175.35 263.9 175.35 M286.85 181.1 L273.2 180.95 273.05 197.2 286.65 197.45 286.85 181.1 M300.65 197.65 L317.2 197.95 317.4 181.35 300.9 181.25 300.65 197.65 M291.0 207.9 L290.7 235.5 267.5 234.15 267.8 207.2 291.0 207.9 M295.8 203.1 L322.3 203.75 322.55 175.2 296.1 175.25 295.8 203.1 M267.85 202.45 L268.15 175.35 291.35 175.3 291.05 203.0 267.85 202.45 M301.1 166.2 L317.55 166.1 317.75 147.75 301.35 148.0 301.1 166.2 M296.15 170.7 L322.6 170.6 322.8 141.65 296.45 142.3 296.15 170.7 M158.6 112.85 L138.25 114.1 138.55 90.25 158.9 88.55 158.6 112.85 M296.5 137.45 L322.85 136.7 323.1 108.05 296.8 109.55 296.5 137.45 M113.35 59.15 L94.4 61.3 94.6 37.95 113.45 35.25 113.35 59.15 M109.5 55.1 L99.05 56.35 99.2 41.7 109.5 40.3 109.5 55.1 M109.5 27.35 L99.3 28.9 99.45 14.85 109.5 13.3 109.5 27.35 M86.8 30.75 L77.4 32.15 77.55 18.2 86.85 16.8 86.8 30.75 M65.45 33.9 L55.3 35.4 55.55 21.6 65.55 20.05 65.45 33.9 M77.15 58.95 L86.7 57.8 86.75 43.4 77.3 44.65 77.15 58.95 M65.3 60.4 L54.9 61.65 55.15 47.65 65.4 46.3 65.3 60.4 M68.65 37.8 L50.7 40.3 50.85 17.7 68.9 14.65 68.65 37.8 M90.7 38.55 L90.55 61.75 72.4 63.8 72.65 41.1 90.7 38.55 M98.8 84.2 L109.5 83.25 109.5 68.75 98.95 69.8 98.8 84.2 M86.65 85.35 L76.9 86.25 77.0 72.05 86.7 71.05 86.65 85.35 M65.15 87.3 L54.55 88.25 54.75 74.3 65.2 73.25 65.15 87.3 M86.6 97.75 L86.6 112.3 76.6 113.1 76.75 98.5 86.6 97.75 M90.4 94.25 L90.25 117.05 71.95 118.2 72.15 95.8 90.4 94.25 M94.35 65.6 L113.35 63.55 113.25 88.05 94.1 89.75 94.35 65.6 M90.4 90.1 L72.15 91.7 72.4 68.0 90.55 66.0 90.4 90.1 M68.2 92.05 L50.4 93.65 50.55 70.35 68.4 68.4 68.2 92.05 M109.5 95.9 L109.5 110.35 98.55 111.3 98.7 96.75 109.5 95.9 M68.45 64.25 L50.55 66.5 50.7 44.25 68.65 41.7 68.45 64.25 M113.25 92.35 L113.2 115.65 93.85 116.85 94.05 93.95 113.25 92.35 M53.75 141.15 L64.85 140.7 64.9 126.55 53.95 127.1 53.75 141.15 M50.1 144.45 L67.75 143.95 67.95 122.2 50.25 123.2 50.1 144.45 M49.8 197.2 L67.3 197.65 67.5 175.8 49.95 175.8 49.8 197.2 M53.0 193.2 L64.5 193.4 64.6 179.25 53.2 179.15 53.0 193.2 M53.35 167.85 L64.65 167.8 64.75 151.65 53.6 151.8 53.35 167.85 M49.95 171.85 L67.5 171.8 67.7 148.0 50.1 148.45 49.95 171.85 M109.5 138.95 L98.3 139.4 98.45 125.0 109.5 124.5 109.5 138.95 M113.1 142.65 L93.6 143.2 93.8 120.8 113.15 119.7 113.1 142.65 M76.35 140.25 L86.5 139.85 86.55 125.55 76.5 126.0 76.35 140.25 M86.45 151.3 L86.4 167.65 76.1 167.7 76.25 151.45 86.45 151.3 M90.1 147.45 L89.95 171.65 71.45 171.75 71.65 147.9 90.1 147.45 M71.9 122.0 L71.7 143.85 90.1 143.3 90.25 121.0 71.9 122.0 M86.4 179.45 L76.0 179.35 75.85 193.6 86.35 193.8 86.4 179.45 M86.3 205.15 L86.25 220.25 75.6 219.7 75.75 204.75 86.3 205.15 M89.8 201.75 L89.65 223.65 71.0 222.55 71.2 201.15 89.8 201.75 M93.35 175.75 L113.0 175.7 112.95 198.7 93.1 198.25 93.35 175.75 M71.4 175.8 L89.95 175.75 89.8 198.15 71.2 197.75 71.4 175.8 M97.85 194.0 L109.5 194.25 109.5 179.65 97.95 179.55 97.85 194.0 M98.05 167.55 L109.5 167.45 109.5 150.95 98.2 151.15 98.05 167.55 M109.5 206.05 L109.5 221.4 97.6 220.8 97.7 205.55 109.5 206.05 M113.05 171.6 L93.35 171.65 93.55 147.35 113.1 146.9 113.05 171.6 M112.95 202.45 L112.9 225.0 92.9 223.85 93.1 201.85 112.95 202.45 M50.25 119.55 L68.0 118.45 68.2 96.15 50.4 97.6 50.25 119.55 M54.15 115.0 L65.0 114.1 65.05 99.45 54.35 100.3 54.15 115.0 M64.45 204.3 L64.35 219.15 52.6 218.55 52.85 203.85 64.45 204.3 M67.3 201.05 L67.1 222.3 49.65 221.25 49.8 200.5 67.3 201.05 M133.05 257.6 L214.05 265.35 214.05 246.65 133.05 240.6 133.05 257.6 M117.4 256.1 L43.25 249.0 43.25 233.2 86.2 236.8 86.25 236.8 117.4 239.4 117.4 256.1 M36.5 347.65 Q29.1 349.8 22.0 350.25 M0.55 347.65 L0.55 371.5 Q12.5 376.6 22.0 376.25 30.15 375.9 36.5 371.5 L36.5 368.35 M36.5 371.5 L36.5 373.1 125.0 394.3 125.0 387.65 223.15 409.05 224.4 10.65 M132.4 383.1 L214.05 400.45 214.05 272.55 132.4 264.05 132.4 383.1 M116.75 379.75 L42.55 364.0 42.55 254.7 116.75 262.4 116.75 379.75 M286.15 230.3 L286.4 212.9 272.9 212.35 272.75 229.65 286.15 230.3 M300.15 231.0 L316.85 231.85 317.05 214.1 300.4 213.45 300.15 231.0 M258.7 228.95 L244.05 228.2 244.15 211.25 258.8 211.85 258.7 228.95 M233.1 267.2 L327.0 275.7 327.0 255.1 233.1 248.05 233.1 267.2 M203.45 226.15 L203.55 209.7 190.6 209.2 190.45 225.5 203.45 226.15 M232.45 404.35 L326.35 424.25 326.35 284.25 232.45 274.5 232.45 404.35 M154.2 223.65 L141.6 223.0 141.85 207.3 154.4 207.8 154.2 223.65 M136.95 226.45 L157.05 227.65 157.35 203.85 137.2 203.2 136.95 226.45 M295.4 235.8 L322.05 237.4 322.25 208.85 295.75 208.05 295.4 235.8 M213.35 10.65 L213.35 236.6 133.75 231.3 133.75 10.45 M223.15 409.05 L223.1 417.85 338.8 445.6 338.85 434.3 223.15 409.05 M125.0 394.3 L223.1 417.85 M466.4 25.3 L466.4 32.4 470.2 32.0 M466.4 18.7 L466.4 25.3 470.2 24.9 M466.4 50.5 L466.4 56.7 470.2 56.4 M466.4 56.7 L431.6 59.8 431.6 29.05 466.4 25.3 M466.4 32.4 L466.4 50.5 470.2 50.15 M458.2 33.25 L458.2 51.3 438.55 53.15 438.55 35.25 458.2 33.25 M393.05 10.4 L393.05 27.2 424.65 23.55 424.65 10.2 M418.95 37.25 L418.95 55.0 400.0 56.75 400.0 39.2 418.95 37.25 M424.65 29.8 L424.65 60.4 393.05 63.15 393.05 33.2 424.65 29.8 M418.95 91.05 L418.95 72.4 400.0 73.7 400.0 92.25 418.95 91.05 M393.05 98.75 L393.05 69.0 424.65 66.35 424.65 96.95 393.05 98.75 M393.05 104.65 L393.05 134.75 424.65 133.9 424.65 103.1 393.05 104.65 M386.7 99.1 L359.5 100.6 359.5 71.8 386.7 69.5 386.7 99.1 M466.4 62.85 L466.4 69.2 470.2 68.95 M466.4 94.65 L466.4 88.05 466.4 69.2 M466.4 94.65 L466.4 101.1 470.2 100.9 M458.2 108.4 L458.2 125.8 438.55 126.45 438.55 109.25 458.2 108.4 M466.4 132.75 L431.6 133.7 431.6 102.8 466.4 101.1 466.4 125.5 470.2 125.4 M466.4 62.85 L431.6 65.8 431.6 96.6 466.4 94.65 470.2 94.4 M458.2 69.75 L438.55 71.1 438.55 89.8 458.2 88.55 458.2 69.75 M466.4 56.7 L466.4 62.85 470.2 62.55 M386.7 63.7 L359.5 66.1 359.5 36.8 386.7 33.85 386.7 63.7 M381.65 58.5 L381.65 41.1 364.55 42.85 364.55 60.1 381.65 58.5 M381.65 10.5 L381.65 22.3 364.55 24.4 364.55 10.6 M364.55 94.5 L381.65 93.4 381.65 74.95 364.55 76.1 364.55 94.5 M381.65 146.75 L381.65 165.75 364.55 165.85 364.55 147.0 381.65 146.75 M381.65 128.5 L381.65 111.8 364.55 112.55 364.55 129.1 381.65 128.5 M364.55 198.9 L381.65 199.3 381.65 182.05 364.55 181.85 364.55 198.9 M359.5 204.7 L386.7 205.5 386.7 175.7 359.5 175.55 359.5 204.7 M359.5 170.55 L386.7 170.55 386.7 140.3 359.5 140.85 359.5 170.55 M466.4 125.5 L466.4 132.75 470.2 132.65 M466.4 132.75 L466.4 138.8 470.2 138.7 M466.4 138.8 L431.6 139.45 431.6 170.55 466.4 170.5 466.4 165.4 466.4 145.55 466.4 138.8 M458.2 145.65 L458.2 165.45 438.55 165.55 438.55 145.95 458.2 145.65 M418.95 127.15 L418.95 110.15 400.0 111.0 400.0 127.85 418.95 127.15 M418.95 146.2 L418.95 165.6 400.0 165.7 400.0 146.5 418.95 146.2 M424.65 139.6 L424.65 170.55 393.05 170.55 393.05 140.2 424.65 139.6 M418.95 182.5 L400.0 182.25 400.0 199.7 418.95 200.1 418.95 182.5 M393.05 175.75 L424.65 176.0 424.65 206.65 393.05 205.7 393.05 175.75 M466.4 170.5 L466.4 176.3 470.2 176.35 M466.4 176.3 L466.4 183.1 470.2 183.15 M466.4 207.9 L466.4 183.1 M466.4 176.3 L431.6 176.05 431.6 206.85 466.4 207.9 466.4 214.0 466.4 244.0 465.75 244.0 465.75 253.35 M458.2 183.0 L438.55 182.75 438.55 200.55 458.2 201.0 458.2 183.0 M359.5 106.3 L359.5 135.7 386.7 134.95 386.7 104.95 359.5 106.3 M465.75 244.0 L465.75 242.25 M458.2 238.2 L458.2 218.75 438.55 218.1 438.55 237.35 458.2 238.2 M465.75 244.0 L431.6 242.45 431.6 212.7 466.4 214.0 M424.65 242.15 L393.05 240.8 393.05 211.3 424.65 212.45 424.65 242.15 M386.7 240.5 L359.5 239.3 359.5 210.1 386.7 211.05 386.7 240.5 M418.95 236.5 L400.0 235.65 400.0 216.9 418.95 217.5 418.95 236.5 M466.4 287.75 L466.4 266.05 465.75 266.0 465.75 266.05 465.75 277.65 M364.55 234.1 L381.65 234.85 381.65 216.3 364.55 215.75 364.55 234.1 M327.0 255.1 L327.7 255.15 M466.4 88.05 L470.2 87.8 M466.4 18.7 L470.2 18.25 M466.4 170.5 L470.2 170.5 M466.4 165.4 L470.2 165.35 M466.4 145.55 L470.2 145.5 M338.8 445.6 L466.4 475.5 466.4 461.0 M326.35 424.25 L327.0 424.4 M466.4 451.1 L466.4 297.9 M466.4 11.8 L470.2 11.35" fill="none" stroke="#000000" stroke-linecap="round" stroke-linejoin="round" stroke-width="1.0"/>
  </g>
</svg>
