<?xml version="1.0" encoding="UTF-8" standalone="no"?>
<svg xmlns:xlink="http://www.w3.org/1999/xlink" height="26.1px" width="6.55px" xmlns="http://www.w3.org/2000/svg">
  <g transform="matrix(1.0, 0.0, 0.0, 1.0, 0.5, 0.5)">
    <path d="M3.55 1.05 L3.45 0.7 3.25 0.45 3.05 0.4 2.8 0.3 2.3 0.45 2.05 0.8 2.1 1.35 Q2.55 2.05 3.25 1.6 L3.5 1.25 3.55 1.05 M3.65 2.8 Q3.2 3.3 2.5 3.3 1.8 3.3 1.3 2.8 0.85 2.35 0.85 1.65 0.85 0.95 1.3 0.45 1.8 0.0 2.5 0.0 3.2 0.0 3.65 0.45 4.15 0.95 4.15 1.65 4.15 2.35 3.65 2.8 M1.3 3.9 Q1.8 3.45 2.5 3.45 3.2 3.45 3.65 3.9 4.15 4.4 4.15 5.1 4.15 5.8 3.65 6.25 3.2 6.75 2.5 6.75 1.8 6.75 1.3 6.25 0.85 5.8 0.85 5.1 0.85 4.4 1.3 3.9 M3.6 4.45 L3.4 4.25 3.2 4.15 2.95 4.05 2.95 4.1 2.45 4.25 Q2.25 4.35 2.2 4.6 L2.25 5.15 Q2.7 5.8 3.4 5.35 L3.6 5.0 3.7 4.8 3.6 4.45" fill="#0099ff" fill-rule="evenodd" stroke="none"/>
    <path d="M3.55 1.05 L3.5 1.25 3.25 1.6 Q2.55 2.05 2.1 1.35 L2.05 0.8 2.3 0.45 2.8 0.3 3.05 0.4 3.25 0.45 3.45 0.7 3.55 1.05 M3.6 4.45 L3.7 4.8 3.6 5.0 3.4 5.35 Q2.7 5.8 2.25 5.15 L2.2 4.6 Q2.25 4.35 2.45 4.25 L2.95 4.1 2.95 4.05 3.2 4.15 3.4 4.25 3.6 4.45" fill="#ffffff" fill-rule="evenodd" stroke="none"/>
    <path d="M0.85 8.9 L0.9 8.25 Q2.55 5.6 4.2 8.25 L4.2 8.4 4.25 8.9 0.85 8.9 M4.4 10.6 L5.55 25.1 3.35 25.1 0.0 25.1 0.75 10.6 4.4 10.6 M3.35 25.1 L2.75 14.5 3.35 25.1" fill="#ff0000" fill-rule="evenodd" stroke="none"/>
    <path d="M4.25 8.9 L4.4 10.6 0.75 10.6 0.85 8.9 4.25 8.9" fill="#ffff00" fill-rule="evenodd" stroke="none"/>
    <path d="M3.65 2.8 Q3.2 3.3 2.5 3.3 1.8 3.3 1.3 2.8 0.85 2.35 0.85 1.65 0.85 0.95 1.3 0.45 1.8 0.0 2.5 0.0 3.2 0.0 3.65 0.45 4.15 0.95 4.15 1.65 4.15 2.35 3.65 2.8" fill="none" stroke="#000000" stroke-linecap="round" stroke-linejoin="round" stroke-width="1.0"/>
    <path d="M1.3 3.9 Q1.8 3.45 2.5 3.45 3.2 3.45 3.65 3.9 4.15 4.4 4.15 5.1 4.15 5.8 3.65 6.25 3.2 6.75 2.5 6.75 1.8 6.75 1.3 6.25 0.85 5.8 0.85 5.1 0.85 4.4 1.3 3.9 M0.85 8.9 L0.9 8.25 Q2.55 5.6 4.2 8.25 L4.2 8.4 4.25 8.9 4.4 10.6 5.55 25.1 3.35 25.1 0.0 25.1 0.75 10.6 0.85 8.9 4.25 8.9 M0.75 10.6 L4.4 10.6 M2.75 14.5 L3.35 25.1" fill="none" stroke="#000000" stroke-linecap="round" stroke-linejoin="round" stroke-width="1.0"/>
  </g>
</svg>
