<?xml version="1.0" encoding="UTF-8" standalone="no"?>
<svg xmlns:xlink="http://www.w3.org/1999/xlink" height="6.75px" width="61.25px" xmlns="http://www.w3.org/2000/svg">
  <g transform="matrix(1.0, 0.0, 0.0, 1.0, 0.5, 0.5)">
    <path d="M45.95 0.0 L45.5 0.45 44.65 1.4 46.5 3.1 Q47.35 2.0 48.5 1.1 L48.95 0.75 48.0 0.0 M49.9 0.0 L48.95 0.75 51.0 2.75 51.45 3.3 Q52.2 2.1 53.2 1.05 L52.0 0.0 M52.3 4.45 L51.45 3.3 51.15 3.7 M54.5 4.7 L55.3 3.5 54.8 2.9 53.2 1.05 54.35 0.0 M58.3 5.0 L60.25 2.7 57.75 0.45 Q56.35 1.85 55.3 3.5 L56.8 4.85 M57.25 0.0 L57.75 0.45 58.05 0.1 M20.1 4.7 L20.6 4.05 20.25 3.65 18.6 1.85 15.7 4.55 15.4 4.2 13.7 2.25 11.7 4.2 11.0 4.85 M24.2 4.35 L25.2 2.95 23.15 1.1 Q21.8 2.5 20.6 4.05 L21.9 5.5 M29.55 4.6 L29.95 4.15 29.85 4.05 Q28.75 2.35 27.3 1.1 26.1 1.9 25.2 2.95 L25.85 3.65 27.1 4.85 M25.85 0.0 L27.3 1.1 M18.6 1.85 Q17.55 0.85 16.35 0.0 L16.3 0.05 14.75 1.3 13.7 2.25 11.85 0.55 9.95 2.1 11.7 4.2 M11.85 0.55 L11.65 0.35 M7.8 0.25 L8.05 0.45 9.95 2.1 7.55 4.45 M41.7 4.2 L42.9 3.15 Q42.05 2.1 41.0 1.4 39.65 2.5 38.6 4.0 L39.0 4.65 39.55 5.35 M38.9 0.35 Q40.05 0.75 41.0 1.4 L41.7 0.8 42.45 0.25 M38.25 4.45 L38.6 4.0 36.1 1.05 34.55 2.9 35.3 3.7 35.95 4.35 M44.65 1.4 L42.9 3.15 43.4 3.85 44.4 5.0 M47.85 4.7 L46.8 3.45 46.5 3.1 45.4 4.6 M42.7 0.0 L44.65 1.4 M33.4 4.2 L34.55 2.9 32.45 1.05 29.95 4.15 Q30.55 5.15 31.35 5.75 M36.1 1.05 L35.2 0.25 M30.95 0.0 L32.45 1.05 M0.0 4.6 Q0.9 3.25 2.15 2.25 L0.0 0.0 M7.5 3.75 L5.7 2.1 Q4.6 3.0 3.8 4.2 L3.6 4.45 M3.2 0.35 L4.0 0.85 5.7 2.1 Q6.45 1.4 7.35 0.85 L8.05 0.45 M4.0 0.85 L3.6 1.15 2.15 2.25 3.8 4.2" fill="none" stroke="#000000" stroke-linecap="round" stroke-linejoin="round" stroke-width="1.0"/>
  </g>
</svg>
