<?xml version="1.0" encoding="UTF-8" standalone="no"?>
<svg xmlns:xlink="http://www.w3.org/1999/xlink" height="338.35px" width="472.85px" xmlns="http://www.w3.org/2000/svg">
  <g transform="matrix(1.0, 0.0, 0.0, 1.0, 0.5, 0.5)">
    <path d="M256.6 60.95 L259.15 60.95 259.15 209.2 257.05 209.1 256.6 208.85 256.6 106.4 256.6 60.95" fill="#650101" fill-rule="evenodd" stroke="none"/>
    <path d="M259.15 60.95 L269.3 60.95 269.2 215.4 Q269.0 217.35 267.65 217.55 L256.6 219.3 256.6 219.25 Q253.45 216.5 254.4 210.7 254.6 209.6 256.35 209.0 L256.6 209.1 257.05 209.1 259.15 209.2 259.15 60.95 M241.5 60.95 L248.4 60.95 256.6 60.95 256.6 106.4 250.95 105.9 250.9 105.85 Q249.35 104.4 250.1 101.6 L250.1 101.55 250.15 101.35 249.8 101.15 Q247.25 99.6 246.6 96.3 245.9 92.95 246.65 90.65 247.4 88.35 248.45 88.1 L249.35 88.0 249.7 88.1 249.75 88.15 249.75 88.0 249.75 82.3 249.85 75.25 Q250.0 73.45 248.2 73.25 L243.05 73.85 Q241.85 73.55 241.5 71.85 L241.5 71.7 241.5 69.5 241.5 62.7 241.5 60.95 M248.45 63.05 Q248.5 64.5 249.0 64.95 249.55 65.45 250.35 65.45 251.15 65.45 251.75 64.95 L252.0 64.6 252.3 63.65 Q252.3 62.9 251.75 62.4 251.15 61.85 250.35 61.85 249.55 61.85 249.0 62.4 L248.5 62.9 248.45 62.8 248.45 63.05 M248.4 60.95 L248.45 62.35 248.45 62.8 248.45 62.35 248.4 60.95 M250.75 93.1 Q251.4 90.05 249.75 88.15 251.4 90.05 250.75 93.1 M262.4 214.3 Q263.35 211.6 261.2 209.25 L259.15 209.2 261.2 209.25 Q263.35 211.6 262.4 214.3" fill="#990000" fill-rule="evenodd" stroke="none"/>
    <path d="M256.35 219.15 L246.8 216.0 Q243.1 211.45 245.3 206.95 L245.4 207.0 Q245.95 205.85 247.45 205.8 L247.45 105.8 246.1 105.45 Q242.9 104.55 242.65 102.65 L242.35 100.65 Q240.55 99.6 239.7 97.75 238.25 94.6 238.75 91.05 239.25 87.6 241.25 85.5 L241.5 85.3 241.5 80.5 241.4 73.6 234.6 72.6 Q233.25 72.6 232.85 70.85 L232.85 64.65 232.85 60.95 241.5 60.95 241.5 62.7 241.5 69.5 241.5 71.7 241.5 71.85 Q241.85 73.55 243.05 73.85 L248.2 73.25 Q250.0 73.45 249.85 75.25 L249.75 82.3 249.75 88.0 249.7 88.1 249.35 88.0 248.6 87.75 248.45 88.1 Q247.4 88.35 246.65 90.65 245.9 92.95 246.6 96.3 247.25 99.6 249.8 101.15 L249.75 101.5 250.1 101.6 Q249.35 104.4 250.9 105.85 L250.9 105.9 250.95 105.9 256.6 106.4 256.6 208.85 256.35 209.0 247.45 205.85 256.35 209.0 Q254.6 209.6 254.4 210.7 L245.4 207.0 254.4 210.7 Q253.45 216.5 256.6 219.25 L256.35 219.15 M248.5 62.9 L249.0 62.4 Q249.55 61.85 250.35 61.85 251.15 61.85 251.75 62.4 252.3 62.9 252.3 63.65 L252.0 64.6 251.75 64.95 Q251.15 65.45 250.35 65.45 249.55 65.45 249.0 64.95 248.5 64.5 248.45 63.05 L248.55 62.95 248.5 62.9 M241.25 85.5 L248.6 87.75 241.25 85.5 M241.4 73.6 L243.05 73.85 241.4 73.6 M242.35 100.65 L249.75 101.5 242.35 100.65 M247.45 105.8 L250.9 105.9 247.45 105.8 M247.45 205.8 L247.45 205.85 247.45 205.8" fill="#cc3333" fill-rule="evenodd" stroke="none"/>
    <path d="M269.3 60.95 L269.2 215.4 Q269.0 217.35 267.65 217.55 L256.6 219.3 256.35 219.15 246.8 216.0 Q243.1 211.45 245.3 206.95 L245.4 207.0 Q245.95 205.85 247.45 205.8 L247.45 105.8 246.1 105.45 Q242.9 104.55 242.65 102.65 L242.35 100.65 Q240.55 99.6 239.7 97.75 238.25 94.6 238.75 91.05 239.25 87.6 241.25 85.5 L241.5 85.3 241.5 80.5 241.4 73.6 234.6 72.6 Q233.25 72.6 232.85 70.85 L232.85 64.65 232.85 60.95 M256.6 60.95 L256.6 106.4 256.6 208.85 256.35 209.0 247.45 205.85 247.45 205.8 M257.05 209.1 L259.15 209.2 259.15 60.95 M248.5 62.9 L249.0 62.4 Q249.55 61.85 250.35 61.85 251.15 61.85 251.75 62.4 252.3 62.9 252.3 63.65 L252.0 64.6 251.75 64.95 Q251.15 65.45 250.35 65.45 249.55 65.45 249.0 64.95 248.5 64.5 248.45 63.05 L248.45 62.8 248.45 62.35 248.4 60.95 M248.45 63.05 L248.55 62.95 248.5 62.9 248.45 62.8 M241.5 60.95 L241.5 62.7 241.5 69.5 241.5 71.7 241.5 71.85 Q241.85 73.55 243.05 73.85 L248.2 73.25 Q250.0 73.45 249.85 75.25 L249.75 82.3 249.75 88.0 249.75 88.15 Q251.4 90.05 250.75 93.1 M249.7 88.1 L249.75 88.15 M249.35 88.0 L248.6 87.75 241.25 85.5 M248.45 88.1 L249.35 88.0 249.7 88.1 M248.45 88.1 Q247.4 88.35 246.65 90.65 245.9 92.95 246.6 96.3 247.25 99.6 249.8 101.15 L250.15 101.35 250.1 101.55 250.1 101.6 Q249.35 104.4 250.9 105.85 L250.95 105.9 256.6 106.4 M249.75 101.5 L250.1 101.55 M250.9 105.9 L250.95 105.9 M250.9 105.9 L247.45 105.8 M249.75 101.5 L242.35 100.65 M243.05 73.85 L241.4 73.6 M256.35 209.0 L256.6 209.1 256.6 208.85 M259.15 209.2 L261.2 209.25 Q263.35 211.6 262.4 214.3 M245.4 207.0 L254.4 210.7 Q254.6 209.6 256.35 209.0 M256.6 219.25 L256.35 219.15 M256.6 219.25 L256.6 219.3 M254.4 210.7 Q253.45 216.5 256.6 219.25" fill="none" stroke="#000000" stroke-linecap="round" stroke-linejoin="round" stroke-width="1.0"/>
    <path d="M465.2 42.5 L465.35 42.65 Q471.1 46.85 471.85 53.4 L471.85 94.25 460.25 94.25 460.25 59.0 208.6 83.1 208.6 321.7 211.75 321.0 213.75 320.55 213.75 329.3 Q213.65 332.85 210.9 333.75 L195.35 337.25 195.35 83.5 Q195.15 81.75 195.3 76.15 195.4 70.95 192.6 65.0 195.4 70.95 195.3 76.15 195.15 81.75 195.35 83.5 L195.35 337.25 195.3 337.35 181.7 330.1 Q179.75 329.05 179.7 325.5 L179.7 316.85 181.1 317.4 183.3 318.3 183.3 81.9 8.35 43.05 8.35 245.6 10.35 245.65 10.35 245.7 10.55 245.6 Q11.95 246.35 12.1 247.6 12.85 254.25 10.35 257.15 L10.35 257.25 1.6 254.45 Q0.5 254.15 0.35 251.9 L0.3 36.8 Q0.8 30.3 4.85 26.5 L4.9 26.4 191.75 64.8 191.9 64.85 191.9 65.05 191.65 65.05 191.9 65.1 191.9 65.05 192.6 65.0 465.2 42.5 M457.35 94.25 L448.05 94.25 440.1 94.25 440.1 91.6 440.1 89.2 430.55 90.3 430.25 90.3 Q427.65 90.15 427.15 86.7 L425.05 86.6 425.0 86.55 424.8 86.3 424.65 78.15 424.8 86.3 424.8 86.6 425.05 86.65 Q425.35 87.4 423.2 88.7 420.85 90.0 419.1 90.0 L417.1 89.65 416.1 89.05 Q414.9 88.1 414.9 86.75 414.9 85.95 415.35 85.25 L415.65 85.05 416.3 84.35 416.1 84.45 415.35 85.25 413.95 85.6 Q412.95 85.6 412.2 85.05 L412.05 84.95 402.9 85.65 392.45 86.5 392.45 86.55 Q392.45 87.6 391.65 88.3 390.85 89.05 389.7 89.05 L389.6 89.05 389.25 89.05 Q389.45 90.6 389.05 91.6 388.45 92.9 386.65 93.25 L386.45 93.3 382.65 93.8 369.9 94.95 370.0 95.6 369.8 96.65 Q368.95 99.5 366.9 100.4 L336.8 104.2 336.05 104.3 335.95 104.3 335.65 104.3 334.8 104.25 333.55 103.95 332.05 103.05 Q330.8 102.0 330.65 100.55 L323.0 101.25 310.2 102.4 309.8 102.05 Q307.1 99.65 309.2 96.45 L307.65 96.8 Q306.4 96.8 305.5 96.05 L304.95 95.4 298.5 96.05 274.75 98.5 274.65 98.5 274.7 98.55 274.8 98.95 274.85 99.4 Q274.85 100.5 273.8 101.25 272.75 102.0 271.25 102.0 L271.0 102.0 270.7 102.0 Q269.9 109.95 261.7 109.85 L257.05 109.25 257.05 109.15 257.05 105.6 257.15 105.25 257.15 105.0 257.15 98.45 257.15 105.0 257.05 105.6 Q256.15 108.5 252.95 107.75 L253.25 108.5 Q254.0 111.3 249.6 112.4 L231.15 114.35 231.15 134.05 Q231.25 136.3 228.3 136.25 L223.3 136.25 Q220.8 136.55 220.6 138.4 L220.6 154.1 Q221.6 152.25 223.7 152.85 229.15 159.25 222.15 171.7 L220.75 172.95 Q221.15 174.6 220.6 176.2 L220.5 176.9 Q217.5 183.3 211.75 182.3 L211.75 123.15 Q211.8 121.05 213.6 119.55 215.45 118.0 218.05 118.0 L219.0 118.05 220.45 118.4 221.9 119.1 222.35 119.45 222.5 119.55 222.85 119.9 222.85 119.4 222.85 115.2 231.15 114.35 222.85 115.2 213.85 116.15 211.75 116.35 211.75 86.25 228.45 84.6 228.45 84.9 228.45 89.15 228.45 89.4 228.9 89.15 235.45 89.15 Q237.75 87.85 236.15 86.55 L235.8 86.2 Q237.15 84.6 238.8 84.35 240.4 84.1 242.3 85.25 L242.8 85.95 Q244.4 88.5 243.45 92.05 242.6 94.45 239.5 95.1 L238.65 95.15 233.95 95.15 233.95 99.75 228.0 100.15 225.95 100.7 225.9 100.75 Q225.5 100.85 225.2 101.1 224.85 101.3 224.75 101.4 L224.35 101.75 Q223.65 102.6 223.65 103.75 223.65 104.9 224.35 105.7 225.05 106.55 226.0 106.55 226.95 106.55 227.65 105.7 L228.2 104.8 228.95 103.65 Q229.35 103.3 229.9 103.3 L230.15 103.35 230.8 103.65 231.1 103.9 231.2 104.1 231.2 104.15 231.3 104.25 231.35 104.35 231.65 105.5 Q231.65 106.4 231.15 107.15 L247.9 104.7 247.9 96.75 248.1 96.35 Q249.7 96.35 250.95 95.3 249.7 96.35 248.1 96.35 L247.9 96.35 Q246.35 96.3 245.15 95.15 L245.0 95.0 Q243.7 93.7 243.7 91.85 243.7 90.0 245.0 88.65 246.3 87.35 248.1 87.35 L248.2 87.35 248.7 87.4 248.75 87.4 248.7 87.35 Q247.85 83.95 253.05 82.2 L266.1 80.9 Q269.5 82.55 269.45 86.2 L269.25 87.75 270.55 87.6 Q272.0 87.6 273.0 88.3 274.0 89.05 274.05 90.05 L305.0 87.25 304.75 86.55 304.65 85.9 Q304.65 84.7 305.5 83.85 L306.85 83.1 307.55 83.0 Q308.5 83.0 309.25 83.55 307.7 80.1 309.2 76.7 L344.5 73.25 Q348.6 73.85 349.65 76.75 349.85 73.1 355.95 72.1 L374.5 70.3 386.75 69.1 386.8 69.7 Q388.7 71.45 388.6 74.4 L388.5 75.4 388.75 76.0 388.8 76.0 Q389.7 76.0 390.35 76.6 390.85 77.1 390.95 77.75 L410.4 76.2 410.6 76.15 Q411.0 74.0 413.05 73.5 L413.35 73.45 413.5 73.5 412.9 73.15 Q411.6 69.35 415.2 67.65 418.9 65.9 422.65 67.65 L423.0 67.85 424.0 68.65 Q424.75 69.45 425.0 70.6 428.3 68.95 430.05 72.75 L430.3 73.65 430.35 74.45 Q430.35 75.65 429.85 76.5 L429.85 76.55 429.75 76.65 Q429.35 77.3 428.8 77.35 L428.65 77.35 428.3 77.3 Q427.8 77.1 427.45 76.5 426.95 75.65 426.95 74.45 426.95 75.65 427.45 76.5 427.8 77.1 428.3 77.3 L428.65 77.35 428.8 77.35 428.7 79.7 428.7 82.35 Q428.95 83.75 430.75 84.05 L439.8 83.15 440.0 83.1 439.75 81.7 Q439.75 80.35 440.6 79.35 L439.0 78.8 Q438.95 75.1 433.7 75.35 431.75 75.8 431.0 73.55 L431.0 65.35 430.95 64.8 435.9 64.3 436.3 64.6 436.3 64.25 457.35 62.2 457.35 87.15 448.05 88.25 448.05 91.6 448.05 93.1 448.05 93.3 Q448.4 92.6 449.05 92.05 L449.75 91.6 Q450.9 90.95 452.45 90.95 454.0 90.95 455.2 91.6 L455.85 92.05 457.35 93.85 457.35 94.25 M181.1 180.0 Q177.1 180.65 175.05 174.1 L174.95 173.45 Q174.55 171.8 174.85 170.2 L173.85 168.9 Q169.0 156.15 172.8 150.1 174.25 149.65 174.95 151.55 L174.95 136.0 Q174.8 134.1 173.05 133.7 L169.6 133.4 Q167.55 133.25 167.6 131.05 L167.6 111.5 154.8 108.5 Q151.75 107.1 152.25 104.4 L152.45 103.65 Q150.25 104.25 149.6 101.3 L149.6 104.85 149.6 104.95 146.4 105.25 Q140.65 104.85 140.15 96.9 L139.9 96.95 139.75 96.9 Q138.7 96.8 137.95 96.0 137.2 95.2 137.25 94.1 L137.35 93.25 120.8 89.4 116.3 88.35 115.95 89.0 Q115.3 89.65 114.45 89.6 113.8 89.55 113.35 89.15 114.9 92.65 112.7 94.95 L103.8 93.05 98.45 91.95 Q98.3 93.35 97.45 94.35 L96.45 95.1 95.55 95.35 94.95 95.35 94.75 95.35 94.7 95.35 94.2 95.2 73.25 89.6 Q71.8 88.6 71.25 85.75 L71.1 84.7 71.15 84.05 62.3 82.15 59.5 81.35 Q57.35 80.6 57.7 77.05 L57.45 77.05 57.4 77.05 Q56.6 76.95 56.05 76.15 55.45 75.4 55.5 74.4 L55.5 74.3 48.2 72.9 41.85 71.6 41.75 71.75 Q41.2 72.2 40.55 72.15 L39.55 71.75 39.05 70.9 38.85 70.15 Q38.85 69.35 39.35 68.85 39.6 68.55 39.95 68.45 39.6 68.55 39.35 68.85 38.85 69.35 38.85 70.15 38.8 70.45 38.9 70.75 L39.35 71.5 39.55 71.75 39.85 73.25 Q39.85 74.6 39.05 75.45 L38.35 75.95 36.95 76.2 Q35.7 76.1 34.1 74.65 32.55 73.25 32.85 72.5 L31.35 72.45 Q31.0 75.85 29.2 75.85 L29.0 75.8 22.35 74.15 16.85 72.75 22.35 74.15 22.35 81.15 22.35 88.85 22.35 91.3 22.35 91.5 Q22.05 93.45 21.1 93.65 L17.05 92.6 Q15.6 92.7 15.7 94.75 L15.8 102.75 15.8 109.35 Q15.85 109.2 16.1 109.2 L16.8 109.4 Q17.6 109.75 18.25 112.4 18.85 115.05 18.3 118.8 17.75 122.45 15.75 124.1 L15.45 124.3 15.5 124.5 Q16.1 127.8 14.85 129.35 L10.35 129.55 10.35 77.75 11.4 76.05 Q12.35 75.05 13.75 75.2 15.15 75.3 16.15 76.45 L16.75 77.55 16.85 77.75 16.85 77.55 16.85 72.75 10.35 71.1 10.35 46.4 25.05 49.7 25.0 50.05 Q24.4 50.7 24.4 51.8 24.4 52.9 25.0 53.7 L25.6 54.3 25.65 54.35 Q25.15 55.3 22.9 54.85 20.4 54.3 20.8 53.05 20.3 54.2 18.3 54.3 L18.4 55.25 Q18.4 56.55 17.75 57.4 17.0 58.25 16.1 58.2 15.15 58.1 14.5 57.1 13.8 56.15 13.8 54.85 13.8 53.55 14.5 52.7 13.8 53.55 13.8 54.85 13.8 56.15 14.5 57.1 15.15 58.1 16.1 58.2 17.0 58.25 17.75 57.4 18.4 56.55 18.4 55.25 L18.3 54.3 Q20.3 54.2 20.8 53.05 20.4 54.3 22.9 54.85 25.15 55.3 25.65 54.35 L25.6 54.3 25.0 53.7 Q24.4 52.9 24.4 51.8 24.4 50.7 25.0 50.05 L25.3 49.75 28.8 50.55 28.7 51.1 28.7 59.2 Q28.15 61.4 26.8 60.85 23.15 60.25 23.15 63.9 L22.0 64.3 Q22.6 65.35 22.6 66.75 L22.4 68.15 22.55 68.2 28.85 69.6 Q30.1 69.45 30.3 68.05 L30.3 65.4 30.25 63.1 Q29.85 63.0 29.55 62.35 L29.5 62.25 29.5 62.2 Q29.15 61.3 29.15 60.15 29.1 59.65 29.2 59.25 L29.35 58.5 Q30.55 54.85 32.85 56.65 33.0 55.5 33.55 54.75 L34.25 54.0 34.5 53.85 Q37.1 52.35 39.65 54.3 42.15 56.2 41.25 59.85 L40.85 60.2 Q39.45 60.75 39.25 62.2 L39.2 62.5 Q39.5 64.95 41.35 64.0 39.5 64.95 39.2 62.5 L39.25 62.2 Q39.45 60.75 40.85 60.2 L40.95 60.15 41.15 60.25 Q42.55 60.85 42.85 63.0 L43.0 63.05 56.5 65.75 56.95 64.65 Q57.4 64.1 58.0 64.15 L58.25 63.6 58.15 62.6 Q58.1 59.65 59.4 58.05 L59.55 57.45 67.95 59.35 67.95 64.2 67.95 69.3 67.95 64.2 67.95 59.35 80.85 62.25 Q85.1 63.6 85.25 67.25 85.95 64.4 88.8 64.05 L113.35 69.55 Q114.4 73.05 113.3 76.35 113.8 75.85 114.5 75.95 L115.0 76.05 115.95 76.9 Q116.5 77.75 116.5 78.95 L116.45 79.6 116.3 80.3 137.8 84.9 Q137.8 83.9 138.5 83.25 139.2 82.6 140.25 82.7 L141.15 82.9 141.0 81.35 Q140.95 77.7 143.3 76.3 L152.4 78.35 Q155.8 80.3 155.45 83.35 L155.4 83.8 155.85 83.8 Q157.05 83.85 158.0 85.25 158.9 86.65 158.9 88.5 158.9 90.3 158.0 91.55 L157.9 91.7 Q157.05 92.7 155.95 92.7 L155.85 92.7 Q154.7 92.6 153.85 91.45 154.7 92.6 155.85 92.7 L155.95 93.1 155.95 101.0 167.65 104.4 Q167.25 103.65 167.25 102.75 167.25 102.1 167.5 101.6 L167.55 101.5 167.6 101.4 167.6 101.35 167.65 101.2 167.85 100.95 168.35 100.65 168.5 100.65 Q168.85 100.7 169.15 101.05 L169.7 102.25 170.05 103.15 Q170.5 104.05 171.2 104.1 171.85 104.15 172.35 103.35 172.8 102.6 172.85 101.5 172.8 100.35 172.35 99.45 L172.05 99.05 171.75 98.75 171.3 98.35 171.25 98.3 169.8 97.65 165.65 96.9 165.65 92.35 162.4 92.05 161.95 92.05 161.8 91.95 Q159.65 91.1 159.05 88.7 158.4 85.1 159.55 82.7 L159.85 82.05 Q161.15 81.0 162.3 81.35 163.4 81.65 164.4 83.4 L164.45 83.45 164.2 83.65 164.15 83.7 Q163.05 84.85 164.65 86.3 L169.2 86.7 169.5 87.0 169.5 86.75 169.5 82.5 169.55 82.25 181.1 84.85 181.1 114.65 179.65 114.3 173.4 112.85 173.4 117.05 173.6 117.25 173.65 117.2 173.75 117.1 174.05 116.8 Q174.5 116.35 175.05 116.15 L176.1 115.9 176.7 115.95 Q178.5 116.1 179.8 117.75 181.05 119.3 181.1 121.4 L181.1 180.0 M4.75 23.2 L0.0 22.3 0.0 8.75 195.0 42.1 196.2 42.3 196.8 42.0 468.3 26.35 471.85 26.75 471.85 38.0 465.45 38.5 196.8 59.35 196.2 59.35 196.2 59.45 191.9 58.6 4.75 23.2 M442.05 78.1 Q441.5 78.35 441.05 78.8 L440.6 79.35 441.05 78.8 Q441.5 78.35 442.05 78.1 L442.2 78.35 Q441.4 79.1 441.4 80.15 441.4 81.2 442.2 81.95 443.0 82.7 444.15 82.7 445.3 82.7 446.1 81.95 446.9 81.2 446.9 80.15 L446.85 79.65 446.8 79.35 446.05 78.5 Q445.45 77.95 444.8 77.65 L444.5 77.65 444.25 77.6 444.15 77.6 444.1 77.6 443.95 77.6 Q442.9 77.65 442.05 78.1 M412.8 77.3 Q415.45 78.4 415.85 76.0 L415.8 75.65 Q415.5 74.15 413.5 73.5 415.5 74.15 415.8 75.65 L415.85 76.0 Q415.45 78.4 412.8 77.3 M442.2 64.95 Q441.7 66.95 442.35 68.05 442.9 69.35 439.3 69.65 436.05 69.9 435.35 68.9 L436.3 68.3 Q437.15 67.55 437.15 66.45 437.15 65.35 436.3 64.6 437.15 65.35 437.15 66.45 437.15 67.55 436.3 68.3 L435.35 68.9 Q436.05 69.9 439.3 69.65 442.9 69.35 442.35 68.05 441.7 66.95 442.2 64.95 M424.3 77.85 Q424.7 77.25 424.7 76.55 424.7 75.6 423.95 74.9 423.25 74.2 422.25 74.2 421.25 74.2 420.5 74.9 419.85 75.55 419.65 76.45 L419.7 76.7 419.7 76.75 419.7 79.55 419.7 81.75 419.8 81.85 Q420.3 82.35 421.0 82.35 421.7 82.35 422.2 81.85 422.7 81.35 422.7 80.65 422.7 79.95 422.2 79.45 421.7 78.95 421.0 78.95 L420.9 78.95 421.6 78.1 422.9 77.4 423.15 77.4 423.4 77.45 423.6 77.5 Q423.95 77.6 424.3 77.85 L424.65 78.15 424.35 77.9 424.3 77.85 M414.8 81.9 Q415.25 82.05 415.65 82.35 416.4 82.9 416.4 83.7 L416.3 84.35 416.4 83.7 Q416.4 82.9 415.65 82.35 415.25 82.05 414.8 81.9 M387.85 80.1 L387.25 79.65 Q386.6 79.05 386.6 78.15 386.6 77.25 387.25 76.6 387.85 76.05 388.75 76.0 387.85 76.05 387.25 76.6 386.6 77.25 386.6 78.15 386.6 79.05 387.25 79.65 L387.85 80.1 M452.35 80.95 Q452.85 81.55 452.85 82.4 452.85 83.5 451.95 84.25 451.1 85.0 449.85 85.0 448.6 85.0 447.7 84.25 L447.65 84.2 447.25 84.6 Q445.95 85.8 444.15 85.8 442.35 85.8 441.05 84.6 440.3 83.95 440.0 83.1 440.3 83.95 441.05 84.6 442.35 85.8 444.15 85.8 445.95 85.8 447.25 84.6 L447.65 84.2 447.7 84.25 Q448.6 85.0 449.85 85.0 451.1 85.0 451.95 84.25 452.85 83.5 452.85 82.4 452.85 81.55 452.35 80.95 M448.05 94.25 L448.05 93.3 448.05 94.25 M451.4 68.2 Q452.4 69.15 452.4 70.45 452.4 71.75 451.4 72.65 450.45 73.6 449.1 73.6 447.75 73.6 446.75 72.65 445.8 71.75 445.8 70.45 445.8 69.95 445.95 69.5 443.05 69.25 442.35 68.05 443.05 69.25 445.95 69.5 445.8 69.95 445.8 70.45 445.8 71.75 446.75 72.65 447.75 73.6 449.1 73.6 450.45 73.6 451.4 72.65 452.4 71.75 452.4 70.45 452.4 69.15 451.4 68.2 M448.05 88.25 L440.1 89.2 448.05 88.25 M315.0 90.95 L315.0 94.1 339.65 91.95 339.65 91.75 339.65 80.55 337.6 80.6 331.25 81.05 Q330.7 81.55 330.7 82.25 330.7 82.95 331.25 83.4 331.8 83.9 332.6 83.9 333.3 83.9 333.8 83.55 L333.8 83.6 Q333.8 85.1 332.55 86.15 331.4 87.2 329.85 87.25 L329.65 87.25 Q327.95 87.25 326.7 86.15 326.05 85.6 325.75 84.9 L325.75 82.35 325.55 83.05 325.5 83.6 325.5 83.9 Q325.3 85.35 324.05 86.45 L323.55 86.85 Q322.25 87.8 320.5 87.8 318.4 87.8 316.9 86.45 L317.15 85.7 317.8 85.75 Q318.8 85.75 319.5 85.2 320.2 84.65 320.2 83.85 320.2 83.05 319.5 82.5 318.8 81.95 317.8 81.95 316.8 81.95 316.1 82.5 315.65 82.85 315.5 83.35 L315.45 83.45 315.45 83.6 315.0 90.95 M325.6 78.9 L325.75 82.35 325.6 78.9 M345.15 85.5 Q343.25 85.7 343.3 86.65 L343.45 87.7 349.75 91.95 Q352.35 90.15 354.2 87.25 355.85 84.55 352.65 85.3 355.85 84.55 354.2 87.25 352.35 90.15 349.75 91.95 L343.45 87.7 343.3 86.65 Q343.25 85.7 345.15 85.5 M338.85 96.7 L337.6 96.05 Q336.7 95.7 335.65 95.7 333.55 95.7 332.05 96.95 330.6 98.2 330.6 100.0 L330.65 100.55 330.6 100.0 Q330.6 98.2 332.05 96.95 333.55 95.7 335.65 95.7 336.7 95.7 337.6 96.05 L338.85 96.7 M365.2 82.25 Q366.25 82.4 367.05 81.65 368.8 80.05 367.3 78.75 L367.0 78.5 360.75 79.05 357.8 79.3 357.8 80.9 357.8 82.25 357.8 83.95 357.8 86.55 357.85 90.25 382.3 87.75 382.25 84.7 382.25 80.15 382.25 79.75 382.25 77.85 Q382.2 77.45 381.3 76.95 L378.55 77.1 Q375.95 80.75 381.15 81.6 L380.1 82.3 Q376.3 84.05 374.5 80.75 374.35 83.2 372.0 83.8 L370.7 84.05 Q367.45 84.4 365.2 82.25 M349.75 91.95 L349.75 77.1 349.65 76.75 349.75 77.1 349.75 91.95 M308.05 88.75 Q308.95 88.6 309.6 87.95 310.45 87.1 310.45 85.9 310.45 84.7 309.65 83.9 L309.6 83.85 309.25 83.55 309.6 83.85 309.65 83.9 Q310.45 84.7 310.45 85.9 310.45 87.1 309.6 87.95 308.95 88.6 308.05 88.75 M374.5 80.35 L374.5 75.2 374.5 70.3 374.5 75.2 374.5 80.35 374.5 80.75 374.5 80.65 374.5 80.55 374.5 80.35 M369.9 94.95 Q369.65 94.05 368.55 93.6 364.7 91.95 362.9 95.5 364.7 91.95 368.55 93.6 369.65 94.05 369.9 94.95 M388.65 84.25 L387.75 84.75 Q386.95 85.5 386.95 86.55 386.95 87.6 387.75 88.3 388.4 88.9 389.25 89.05 388.4 88.9 387.75 88.3 386.95 87.6 386.95 86.55 386.95 85.5 387.75 84.75 L388.65 84.25 M252.3 93.35 L252.3 92.85 Q252.3 91.7 251.5 90.9 250.75 90.1 249.65 90.1 248.55 90.1 247.75 90.9 248.55 90.1 249.65 90.1 250.75 90.1 251.5 90.9 252.3 91.7 252.3 92.85 L252.3 93.35 Q251.95 94.25 251.2 95.0 L250.95 95.3 251.5 94.8 Q252.15 94.15 252.3 93.35 M220.6 107.15 L218.95 107.2 Q218.1 107.6 218.1 108.75 218.1 109.9 219.05 110.8 220.05 111.7 221.45 111.7 222.85 111.7 223.8 110.8 224.8 109.9 224.8 108.65 L224.8 108.5 227.1 108.95 Q229.0 108.95 230.3 107.95 L231.15 107.15 230.3 107.95 Q229.0 108.95 227.1 108.95 L224.8 108.5 224.8 108.65 Q224.8 109.9 223.8 110.8 222.85 111.7 221.45 111.7 220.05 111.7 219.05 110.8 218.1 109.9 218.1 108.75 218.1 107.6 218.95 107.2 L220.6 107.15 M262.95 97.9 L263.1 92.95 Q263.15 91.25 261.7 91.15 L261.55 91.15 258.5 91.35 Q257.4 91.4 257.15 92.65 L257.15 98.45 Q257.45 97.3 258.4 96.5 259.35 95.7 260.35 95.75 261.05 95.75 261.7 96.2 L262.25 96.65 Q262.8 97.25 262.95 97.9 L262.9 99.1 263.0 98.6 262.95 97.9 M260.75 100.05 L261.7 100.25 262.25 100.05 262.9 99.1 262.25 100.05 261.7 100.25 260.75 100.05 M270.55 92.6 Q269.1 92.6 268.05 91.85 267.05 91.15 267.05 90.1 267.05 89.05 268.05 88.3 268.6 87.95 269.25 87.75 268.6 87.95 268.05 88.3 267.05 89.05 267.05 90.1 267.05 91.15 268.05 91.85 269.1 92.6 270.55 92.6 M269.7 97.05 Q269.15 97.2 268.7 97.55 267.65 98.3 267.65 99.4 267.65 100.5 268.7 101.25 269.55 101.85 270.7 102.0 269.55 101.85 268.7 101.25 267.65 100.5 267.65 99.4 267.65 98.3 268.7 97.55 269.15 97.2 269.7 97.05 M308.5 91.7 Q309.2 91.85 309.75 92.35 310.65 93.1 310.65 94.2 310.65 95.3 309.75 96.05 L309.2 96.45 309.75 96.05 Q310.65 95.3 310.65 94.2 310.65 93.1 309.75 92.35 309.2 91.85 308.5 91.7 M196.2 42.3 L196.2 59.35 196.2 42.3 M174.7 88.85 Q175.2 88.2 176.15 89.1 177.05 90.0 177.1 91.5 177.15 92.95 176.45 93.95 175.65 94.95 174.6 94.9 173.5 94.8 172.8 93.65 172.0 92.55 172.05 91.0 172.0 90.2 172.25 89.55 L169.5 87.0 172.25 89.55 Q172.0 90.2 172.05 91.0 172.0 92.55 172.8 93.65 173.5 94.8 174.6 94.9 175.65 94.95 176.45 93.95 177.15 92.95 177.1 91.5 177.05 90.0 176.15 89.1 175.2 88.2 174.7 88.85 M174.95 105.05 Q175.55 104.7 176.1 105.2 176.65 105.6 176.7 106.75 176.7 107.9 176.05 108.75 175.35 109.55 174.35 109.5 173.4 109.4 172.75 108.45 172.05 107.5 172.05 106.25 L172.05 106.1 170.45 106.45 Q169.1 106.3 168.2 105.25 L167.65 104.4 168.2 105.25 Q169.1 106.3 170.45 106.45 L172.05 106.1 172.05 106.25 Q172.05 107.5 172.75 108.45 173.4 109.4 174.35 109.5 175.35 109.55 176.05 108.75 176.7 107.9 176.7 106.75 176.65 105.6 176.1 105.2 175.55 104.7 174.95 105.05 M220.95 90.85 Q220.2 90.1 218.9 91.0 217.55 91.85 217.5 93.35 217.4 94.8 218.45 95.85 219.55 96.95 221.1 96.95 222.65 96.95 223.7 95.85 224.8 94.8 224.8 93.25 L224.5 91.75 228.45 89.4 224.5 91.75 224.8 93.25 Q224.8 94.8 223.7 95.85 222.65 96.95 221.1 96.95 219.55 96.95 218.45 95.85 217.4 94.8 217.5 93.35 217.55 91.85 218.9 91.0 220.2 90.1 220.95 90.85 M222.85 121.45 L222.85 119.9 222.85 121.45 222.2 122.2 Q221.7 122.75 221.0 122.8 L220.1 122.65 220.05 122.65 Q218.9 122.65 218.05 123.4 217.25 124.15 217.25 125.2 217.25 126.25 218.05 127.0 218.9 127.75 220.05 127.75 221.2 127.75 222.0 127.0 L222.85 125.65 222.85 125.3 222.85 125.15 222.85 124.9 222.85 121.45 M173.4 119.05 L173.4 117.5 173.6 117.25 173.4 117.5 173.4 119.05 173.4 122.45 173.4 122.7 173.4 122.85 173.4 123.2 Q173.5 124.0 174.0 124.6 174.55 125.4 175.35 125.45 176.1 125.5 176.7 124.85 177.25 124.15 177.3 123.1 177.25 122.05 176.7 121.3 176.1 120.45 175.35 120.4 L175.3 120.4 174.65 120.5 173.85 119.85 173.4 119.05 M167.6 111.5 L173.4 112.85 167.6 111.5 M220.0 163.85 Q219.05 156.9 220.6 154.1 219.05 156.9 220.0 163.85 M175.35 161.25 Q176.0 154.4 174.95 151.55 176.0 154.4 175.35 161.25 M101.85 74.2 L101.95 70.8 101.85 74.2 101.85 76.7 101.2 77.9 Q100.3 78.9 99.15 78.8 L99.0 78.8 Q97.9 78.65 97.1 77.55 96.25 76.45 96.25 74.95 L96.25 74.9 Q96.6 75.3 97.1 75.35 97.65 75.35 98.05 74.9 98.4 74.5 98.4 73.8 98.4 73.1 98.05 72.6 L93.6 71.75 92.2 71.55 92.2 82.65 92.2 82.9 109.3 86.45 109.3 83.35 109.0 76.05 109.0 75.9 109.0 75.8 108.55 74.9 Q108.05 74.3 107.4 74.3 106.65 74.2 106.2 74.7 105.7 75.2 105.7 76.0 105.7 76.8 106.2 77.4 106.65 77.95 107.4 78.05 108.05 78.1 108.55 77.6 L108.8 77.25 108.4 78.2 108.0 78.8 Q106.95 80.0 105.5 79.9 104.25 79.8 103.4 78.8 L103.05 78.35 Q102.15 77.2 102.0 75.75 L102.0 75.45 102.0 74.9 101.85 74.2 M88.35 76.15 Q89.65 76.45 89.65 77.4 L89.55 78.45 85.15 82.3 85.15 67.55 85.25 67.25 85.15 67.55 85.15 82.3 89.55 78.45 89.65 77.4 Q89.65 76.45 88.35 76.15 M92.75 87.6 Q93.15 87.2 93.6 87.05 L94.95 86.85 Q96.4 86.95 97.45 88.3 98.45 89.6 98.5 91.4 L98.45 91.95 98.5 91.4 Q98.45 89.6 97.45 88.3 96.4 86.95 94.95 86.85 L93.6 87.05 Q93.15 87.2 92.75 87.6 M83.15 75.5 Q80.9 74.55 82.1 77.35 83.35 80.35 85.15 82.3 83.35 80.35 82.1 77.35 80.9 74.55 83.15 75.5 M113.35 89.15 L112.95 88.75 Q112.3 87.9 112.35 86.85 112.3 85.75 112.95 85.05 113.35 84.6 113.85 84.5 113.35 84.6 112.95 85.05 112.3 85.75 112.35 86.85 112.3 87.9 112.95 88.75 L113.35 89.15 M114.15 81.6 Q113.55 81.4 113.1 80.7 112.5 79.8 112.5 78.65 112.5 77.45 113.05 76.65 L113.1 76.65 113.3 76.35 113.1 76.65 113.05 76.65 Q112.5 77.45 112.5 78.65 112.5 79.8 113.1 80.7 113.55 81.4 114.15 81.6 M140.25 87.65 Q141.25 87.7 141.95 87.05 142.65 86.4 142.65 85.35 142.65 84.3 141.95 83.55 L141.15 82.9 141.95 83.55 Q142.65 84.3 142.65 85.35 142.65 86.4 141.95 87.05 141.25 87.7 140.25 87.65 M140.8 92.1 L141.5 92.65 Q142.25 93.45 142.25 94.55 142.25 95.65 141.5 96.3 140.9 96.85 140.15 96.9 140.9 96.85 141.5 96.3 142.25 95.65 142.25 94.55 142.25 93.45 141.5 92.65 L140.8 92.1 M148.65 92.25 Q149.3 93.05 149.55 94.2 L149.55 88.45 Q149.35 87.2 148.6 87.1 L146.5 86.75 146.4 86.75 Q145.35 86.75 145.4 88.4 L145.5 93.35 Q145.6 92.7 146.0 92.15 L146.4 91.75 Q146.85 91.3 147.35 91.35 148.0 91.4 148.65 92.25 M145.5 93.35 L145.5 94.0 145.55 94.5 145.5 93.35 M147.05 95.6 L146.4 95.75 146.0 95.5 Q145.65 95.15 145.55 94.5 145.65 95.15 146.0 95.5 L146.4 95.75 147.05 95.6 M153.85 91.45 L153.7 91.15 Q153.15 90.35 152.95 89.45 L152.9 89.0 Q152.9 87.85 153.45 87.1 154.0 86.35 154.75 86.4 155.5 86.45 156.1 87.3 155.5 86.45 154.75 86.4 154.0 86.35 153.45 87.1 152.9 87.85 152.9 89.0 L152.95 89.45 Q153.0 90.3 153.45 90.95 L153.85 91.45 M31.5 60.35 L31.15 62.35 30.55 63.05 30.3 63.1 30.25 63.1 30.3 63.1 30.55 63.05 31.15 62.35 31.5 60.35 M36.55 65.75 L36.55 63.05 36.55 63.0 36.55 62.75 36.0 61.2 Q35.45 60.45 34.75 60.4 34.05 60.3 33.6 60.95 33.05 61.6 33.05 62.55 33.05 63.25 33.35 63.9 L33.85 63.55 33.95 63.5 34.15 63.5 34.3 63.5 Q34.75 63.6 35.2 64.25 L35.7 65.15 35.65 65.15 Q35.15 65.1 34.8 65.6 34.45 66.05 34.45 66.75 34.45 67.4 34.8 67.95 L35.65 68.55 Q36.1 68.55 36.45 68.1 L36.55 68.0 36.55 65.85 36.55 65.75 M33.1 64.15 L33.35 63.9 33.3 63.9 33.1 64.15 33.0 72.2 32.85 72.45 32.85 72.5 33.0 72.5 33.0 72.2 33.1 64.15 M20.9 50.05 Q21.25 52.05 20.8 53.05 21.25 52.05 20.9 50.05 M13.85 65.3 Q13.5 65.85 13.5 66.7 13.45 67.75 14.1 68.55 14.7 69.35 15.55 69.45 16.4 69.5 17.05 68.8 L17.1 68.8 17.4 69.2 Q18.3 70.45 19.55 70.55 20.75 70.65 21.7 69.55 L22.4 68.15 21.7 69.55 Q20.75 70.65 19.55 70.55 18.3 70.45 17.4 69.2 L17.1 68.8 17.05 68.8 Q16.4 69.5 15.55 69.45 14.7 69.35 14.1 68.55 13.45 67.75 13.5 66.7 13.5 65.85 13.85 65.3 M21.7 63.8 L22.0 64.3 21.7 63.8 Q20.85 62.6 19.7 62.45 L19.55 62.45 19.5 62.45 19.3 62.45 19.1 62.45 Q18.6 62.7 18.2 63.25 L17.7 64.0 17.65 64.3 17.65 64.8 Q17.6 65.85 18.2 66.65 18.75 67.4 19.55 67.5 20.3 67.55 20.9 66.85 21.45 66.15 21.45 65.15 L21.2 63.95 21.7 63.8 M15.0 114.9 Q14.45 111.45 15.8 109.35 14.45 111.45 15.0 114.9 M16.55 80.55 L16.35 80.3 Q15.9 79.65 15.3 79.6 14.65 79.55 14.2 80.1 13.75 80.65 13.75 81.5 L14.0 82.6 14.2 83.0 Q14.65 83.6 15.3 83.7 15.9 83.75 16.35 83.2 16.75 82.7 16.85 81.1 L16.85 80.8 16.85 80.75 16.85 80.3 16.55 80.55 M16.85 77.75 L16.85 80.3 16.85 77.75 M67.95 69.7 Q66.7 72.85 64.05 70.9 L63.25 70.05 Q66.95 69.6 65.15 65.85 63.85 65.1 63.25 65.55 62.6 66.0 62.55 66.4 L62.55 68.25 62.55 68.65 62.55 73.15 62.55 76.2 79.55 80.1 79.55 76.45 79.55 73.9 79.55 72.2 79.55 70.85 79.6 69.25 77.55 68.8 73.2 67.9 72.95 68.15 Q71.9 69.35 73.15 71.05 73.65 71.8 74.4 71.75 72.85 73.75 70.6 73.2 L69.7 72.9 Q68.05 72.15 67.95 69.7 L67.95 69.3 67.95 69.5 67.95 69.7 M58.7 68.25 L59.1 67.85 Q59.55 67.3 59.55 66.4 59.55 65.5 59.1 64.85 58.6 64.2 58.0 64.15 58.6 64.2 59.1 64.85 59.55 65.5 59.55 66.4 59.55 67.3 59.1 67.85 L58.7 68.25 M58.15 72.3 L58.75 72.9 Q59.3 73.65 59.3 74.7 59.3 75.75 58.75 76.4 58.3 76.95 57.7 77.05 58.3 76.95 58.75 76.4 59.3 75.75 59.3 74.7 59.3 73.65 58.75 72.9 L58.15 72.3 M76.0 85.0 Q74.75 81.35 72.1 82.8 71.3 83.15 71.15 84.05 71.3 83.15 72.1 82.8 74.75 81.35 76.0 85.0 M149.55 100.7 L149.55 100.95 149.6 101.3 149.55 100.7 149.55 94.2 149.55 100.7 M5.75 251.2 Q4.95 248.05 6.7 245.5 L8.35 245.6 6.7 245.5 Q4.95 248.05 5.75 251.2 M185.55 323.65 L185.65 319.25 183.3 318.3 185.65 319.25 185.55 323.65 M205.35 326.9 L205.2 322.5 208.6 321.7 205.2 322.5 205.35 326.9" fill="#990000" fill-rule="evenodd" stroke="none"/>
    <path d="M460.25 94.25 L457.35 94.25 457.35 93.85 457.35 87.15 457.35 62.2 436.3 64.25 435.9 64.3 430.95 64.8 424.0 65.45 406.35 67.2 386.75 69.1 374.5 70.3 355.95 72.1 344.5 73.25 309.2 76.7 297.05 77.9 266.1 80.9 253.05 82.2 228.45 84.6 211.75 86.25 211.75 116.35 211.75 123.15 211.75 182.3 211.75 321.0 208.6 321.7 208.6 83.1 460.25 59.0 460.25 94.25 M181.1 317.4 L181.1 180.0 181.1 121.4 181.1 114.65 181.1 84.85 169.55 82.25 152.4 78.35 143.3 76.3 121.8 71.5 113.35 69.55 88.8 64.05 80.85 62.25 67.95 59.35 59.55 57.45 45.8 54.35 33.55 51.6 28.8 50.55 25.3 49.75 25.05 49.7 10.35 46.4 10.35 71.1 10.35 77.75 10.35 129.55 10.35 245.35 10.35 245.65 8.35 245.6 8.35 43.05 183.3 81.9 183.3 318.3 181.1 317.4 M4.9 26.4 L4.85 26.4 4.75 26.4 4.75 23.2 191.9 58.6 191.9 64.05 191.9 58.6 196.2 59.45 196.8 59.35 465.45 38.5 465.45 42.5 465.3 42.5 465.2 42.5 192.6 65.0 191.9 64.05 191.75 64.8 4.9 26.4" fill="#650101" fill-rule="evenodd" stroke="none"/>
    <path d="M440.1 94.25 L430.25 94.25 430.25 91.6 430.25 90.3 430.55 90.3 440.1 89.2 440.1 91.6 440.1 94.25 M416.05 89.35 L402.9 85.65 412.05 84.95 412.2 85.05 Q412.95 85.6 413.95 85.6 L415.35 85.25 Q414.9 85.95 414.9 86.75 414.9 88.1 416.1 89.05 L416.05 89.35 M309.5 102.45 L298.7 99.5 Q296.7 97.75 298.5 96.05 L304.95 95.4 305.5 96.05 Q306.4 96.8 307.65 96.8 L309.2 96.45 Q307.1 99.65 309.8 102.05 L309.5 102.45 M257.05 109.15 L253.25 108.5 252.95 107.75 Q256.15 108.5 257.05 105.6 L257.05 109.15 M120.8 89.4 Q122.0 91.2 120.65 92.8 L113.15 95.05 112.7 94.95 Q114.9 92.65 113.35 89.15 113.8 89.55 114.45 89.6 115.3 89.65 115.95 89.0 L116.3 88.35 120.8 89.4 M103.8 93.05 L96.45 95.1 97.45 94.35 Q98.3 93.35 98.45 91.95 L103.8 93.05 M48.2 72.9 L38.35 75.95 39.05 75.45 Q39.85 74.6 39.85 73.25 L39.55 71.75 40.55 72.15 Q41.2 72.2 41.75 71.75 L41.85 71.6 48.2 72.9 M29.2 75.85 L29.2 84.0 29.2 91.0 Q28.85 92.95 27.8 92.85 L22.35 93.5 22.35 101.3 22.35 106.75 22.55 107.0 Q24.1 109.5 24.5 113.4 24.9 117.45 23.8 120.9 23.1 122.95 21.7 124.05 L21.45 126.25 Q21.2 128.4 18.7 129.2 L17.65 129.5 17.65 242.55 17.6 242.6 10.55 245.6 10.35 245.35 10.35 129.55 14.85 129.35 Q16.1 127.8 15.5 124.5 L15.75 124.5 15.75 124.1 Q17.75 122.45 18.3 118.8 18.85 115.05 18.25 112.4 17.6 109.75 16.8 109.4 L16.7 109.0 16.1 109.2 Q15.85 109.2 15.8 109.35 L15.8 102.75 15.7 94.75 Q15.6 92.7 17.05 92.6 L21.1 93.65 Q22.05 93.45 22.35 91.5 L22.35 91.3 22.35 88.85 22.35 81.15 22.35 74.15 29.0 75.8 29.2 75.85 M430.95 64.8 L431.0 65.35 431.0 73.55 Q431.75 75.8 433.7 75.35 438.95 75.1 439.0 78.8 L440.6 79.35 Q439.75 80.35 439.75 81.7 L440.0 83.1 439.8 83.15 428.7 79.7 439.8 83.15 430.75 84.05 Q428.95 83.75 428.7 82.35 L428.7 79.7 428.8 77.35 Q429.35 77.3 429.75 76.65 L429.85 76.55 429.85 76.5 Q430.35 75.65 430.35 74.45 L430.3 73.65 430.05 72.75 Q428.3 68.95 425.0 70.6 424.75 69.45 424.0 68.65 L423.0 67.85 422.65 67.65 Q418.9 65.9 415.2 67.65 411.6 69.35 412.9 73.15 L413.05 73.5 Q411.0 74.0 410.6 76.15 L410.4 76.2 390.95 77.75 Q390.85 77.1 390.35 76.6 389.7 76.0 388.8 76.0 L388.75 76.0 388.5 75.4 388.6 74.4 400.15 73.45 400.65 73.4 400.15 73.3 Q400.1 71.3 402.05 70.05 L402.25 70.1 402.3 69.9 Q401.6 67.95 406.35 67.2 L424.0 65.45 430.95 64.8 M443.95 77.6 L444.1 77.6 444.15 77.6 444.25 77.6 444.5 77.65 444.8 77.65 Q445.45 77.95 446.05 78.5 L446.8 79.35 446.85 79.65 446.9 80.15 Q446.9 81.2 446.1 81.95 445.3 82.7 444.15 82.7 443.0 82.7 442.2 81.95 441.4 81.2 441.4 80.15 441.4 79.1 442.2 78.35 442.9 77.65 443.95 77.6 M424.0 68.65 L424.0 65.45 424.0 68.65 M457.35 87.15 L457.35 93.85 455.85 92.05 455.2 91.6 Q454.0 90.95 452.45 90.95 450.9 90.95 449.75 91.6 L449.05 92.05 Q448.4 92.6 448.05 93.3 L448.05 93.1 448.05 91.6 448.05 88.25 457.35 87.15 M412.9 73.15 L402.25 70.1 412.9 73.15 M419.7 76.75 L419.7 76.7 419.65 76.45 Q419.85 75.55 420.5 74.9 421.25 74.2 422.25 74.2 423.25 74.2 423.95 74.9 424.7 75.6 424.7 76.55 424.7 77.25 424.3 77.85 423.95 77.6 423.6 77.5 L423.4 77.45 423.15 77.4 422.9 77.4 419.7 76.75 M420.9 78.95 L421.0 78.95 Q421.7 78.95 422.2 79.45 422.7 79.95 422.7 80.65 422.7 81.35 422.2 81.85 421.7 82.35 421.0 82.35 420.3 82.35 419.8 81.85 L419.7 81.75 419.7 79.55 419.8 79.45 Q420.25 79.0 420.9 78.95 M429.85 76.55 L439.0 78.8 429.85 76.55 M344.5 73.25 L355.95 72.1 Q349.85 73.1 349.65 76.75 348.6 73.85 344.5 73.25 M329.85 87.25 Q331.4 87.2 332.55 86.15 333.8 85.1 333.8 83.6 L333.8 83.55 Q333.3 83.9 332.6 83.9 331.8 83.9 331.25 83.4 330.7 82.95 330.7 82.25 330.7 81.55 331.25 81.05 L337.6 80.6 339.65 80.55 339.65 91.75 339.65 91.95 315.0 94.1 315.0 90.95 329.85 89.55 329.85 87.25 M315.5 83.35 Q315.65 82.85 316.1 82.5 316.8 81.95 317.8 81.95 318.8 81.95 319.5 82.5 320.2 83.05 320.2 83.85 320.2 84.65 319.5 85.2 318.8 85.75 317.8 85.75 L317.15 85.7 Q316.55 85.55 316.1 85.2 L315.75 84.85 315.45 83.6 315.5 83.35 M329.85 89.55 L339.65 91.75 329.85 89.55 M365.2 82.25 L358.75 81.05 Q360.6 80.15 360.75 79.05 L367.0 78.5 367.3 78.75 Q368.8 80.05 367.05 81.65 366.25 82.4 365.2 82.25 M357.8 86.55 L368.3 85.7 Q370.15 85.4 370.7 84.05 L372.0 83.8 Q374.35 83.2 374.5 80.75 376.3 84.05 380.1 82.3 L381.15 81.6 382.25 80.15 381.15 81.6 Q375.95 80.75 378.55 77.1 L381.3 76.95 Q382.2 77.45 382.25 77.85 L382.25 79.75 382.25 80.15 382.25 84.7 382.3 87.75 357.85 90.25 357.8 86.55 M309.2 76.7 Q307.7 80.1 309.25 83.55 308.5 83.0 307.55 83.0 L306.85 83.1 297.05 80.35 306.85 83.1 305.5 83.85 Q304.65 84.7 304.65 85.9 L304.55 86.5 304.75 86.55 305.0 87.25 274.05 90.05 Q274.0 89.05 273.0 88.3 272.0 87.6 270.55 87.6 L269.25 87.75 269.45 86.2 291.85 83.95 292.95 84.2 304.55 86.5 292.95 84.2 293.05 83.85 Q293.1 80.9 296.8 80.25 L297.05 80.35 297.05 80.0 297.05 77.9 309.2 76.7 M400.65 73.4 L410.4 76.2 400.65 73.4 M248.7 87.35 L248.7 87.4 248.2 87.35 248.1 87.35 242.8 85.95 248.1 87.35 Q246.3 87.35 245.0 88.65 243.7 90.0 243.7 91.85 243.7 93.7 245.0 95.0 L245.15 95.15 Q246.35 96.3 247.9 96.35 L247.9 96.75 247.9 104.7 231.15 107.15 Q231.65 106.4 231.65 105.5 L231.35 104.35 231.3 104.25 231.2 104.1 231.1 103.9 231.05 103.85 231.1 103.9 230.8 103.65 230.75 103.35 238.65 102.2 238.8 102.2 238.65 102.15 238.65 95.15 239.35 95.15 239.5 95.1 247.9 96.75 239.5 95.1 Q242.6 94.45 243.45 92.05 244.4 88.5 242.8 85.95 L242.3 85.25 Q240.4 84.1 238.8 84.35 237.15 84.6 235.8 86.2 L235.75 86.3 235.45 86.1 228.45 84.9 235.45 86.1 235.75 86.3 236.15 86.55 Q237.75 87.85 235.45 89.15 L228.9 89.15 228.45 89.15 228.45 84.9 228.45 84.6 253.05 82.2 Q247.85 83.95 248.7 87.35 M247.9 104.7 L238.8 102.2 247.9 104.7 M257.15 98.45 L257.15 92.65 Q257.4 91.4 258.5 91.35 L261.55 91.15 261.7 91.15 Q263.15 91.25 263.1 92.95 L262.95 97.9 Q262.8 97.25 262.25 96.65 L261.7 96.2 Q261.05 95.75 260.35 95.75 259.35 95.7 258.4 96.5 257.45 97.3 257.15 98.45 M169.5 82.5 L164.85 83.1 169.5 82.5 169.5 86.75 169.2 86.7 164.65 86.3 Q163.05 84.85 164.15 83.7 L164.2 83.65 164.45 83.45 164.4 83.4 Q163.4 81.65 162.3 81.35 161.15 81.0 159.85 82.05 L159.55 82.7 155.45 83.35 159.55 82.7 Q158.4 85.1 159.05 88.7 159.65 91.1 161.8 91.95 L161.95 92.05 162.4 92.05 162.4 99.0 162.3 99.0 162.4 99.05 168.1 100.75 167.85 100.95 167.65 101.2 167.7 101.1 167.65 101.15 167.6 101.35 167.55 101.5 167.5 101.6 Q167.25 102.1 167.25 102.75 167.25 103.65 167.65 104.4 L155.95 101.0 155.95 93.1 155.95 92.7 Q157.05 92.7 157.9 91.7 L158.0 91.55 Q158.9 90.3 158.9 88.5 158.9 86.65 158.0 85.25 157.05 83.85 155.85 83.8 L155.4 83.8 155.45 83.35 Q155.8 80.3 152.4 78.35 L169.55 82.25 169.5 82.5 M171.3 98.35 L171.75 98.75 172.05 99.05 172.35 99.45 Q172.8 100.35 172.85 101.5 172.8 102.6 172.35 103.35 171.85 104.15 171.2 104.1 170.5 104.05 170.05 103.15 L169.7 102.25 169.15 101.05 Q168.85 100.7 168.5 100.65 L168.45 100.6 171.3 98.35 M181.1 114.65 L181.1 121.4 Q181.05 119.3 179.8 117.75 178.5 116.1 176.7 115.95 L176.1 115.9 179.65 114.3 176.1 115.9 175.05 116.15 Q174.5 116.35 174.05 116.8 L173.4 117.05 173.4 112.85 179.65 114.3 181.1 114.65 M225.9 100.75 L230.15 103.35 229.9 103.3 Q229.35 103.3 228.95 103.65 L228.2 104.8 227.65 105.7 Q226.95 106.55 226.0 106.55 225.05 106.55 224.35 105.7 223.65 104.9 223.65 103.75 223.65 102.6 224.35 101.75 L224.75 101.4 Q224.85 101.3 225.2 101.1 225.5 100.85 225.9 100.75 M222.85 115.2 L222.85 119.4 221.9 119.1 220.45 118.4 219.0 118.05 218.15 117.75 218.05 118.0 Q215.45 118.0 213.6 119.55 211.8 121.05 211.75 123.15 L211.75 116.35 213.85 116.15 222.85 115.2 M222.85 121.45 L222.85 124.9 222.85 125.65 222.0 127.0 Q221.2 127.75 220.05 127.75 218.9 127.75 218.05 127.0 217.25 126.25 217.25 125.2 217.25 124.15 218.05 123.4 218.9 122.65 220.05 122.65 L220.1 122.65 221.0 122.8 Q221.7 122.75 222.2 122.2 L222.85 121.45 M213.85 116.15 L218.15 117.75 213.85 116.15 M173.4 119.05 L173.85 119.85 174.65 120.5 175.3 120.4 175.35 120.4 Q176.1 120.45 176.7 121.3 177.25 122.05 177.3 123.1 177.25 124.15 176.7 124.85 176.1 125.5 175.35 125.45 174.55 125.4 174.0 124.6 173.5 124.0 173.4 123.2 L173.4 122.45 173.4 119.05 M108.8 77.25 L108.55 77.6 Q108.05 78.1 107.4 78.05 106.65 77.95 106.2 77.4 105.7 76.8 105.7 76.0 105.7 75.2 106.2 74.7 106.65 74.2 107.4 74.3 108.05 74.3 108.55 74.9 L109.0 75.8 109.0 76.05 108.8 77.25 M109.3 83.35 L109.3 86.45 92.2 82.9 92.2 82.65 92.2 71.55 93.6 71.75 98.05 72.6 Q98.4 73.1 98.4 73.8 98.4 74.5 98.05 74.9 97.65 75.35 97.1 75.35 96.6 75.3 96.25 74.9 L96.25 74.95 Q96.25 76.45 97.1 77.55 97.9 78.65 99.0 78.8 L99.0 81.1 92.2 82.65 99.0 81.1 109.3 83.35 M88.8 64.05 Q85.95 64.4 85.25 67.25 85.1 63.6 80.85 62.25 L88.8 64.05 M141.15 82.9 L140.25 82.7 Q139.2 82.6 138.5 83.25 137.8 83.9 137.8 84.9 L116.3 80.3 116.45 79.6 116.5 78.95 Q116.5 77.75 115.95 76.9 L115.0 76.05 114.5 75.95 Q113.8 75.85 113.3 76.35 114.4 73.05 113.35 69.55 L121.8 71.5 121.8 73.6 121.8 73.9 122.0 73.85 Q124.55 74.7 124.6 77.6 L125.45 77.8 141.0 81.35 141.15 82.9 M116.45 79.6 L125.45 77.8 116.45 79.6 M161.8 91.95 L155.95 93.1 161.8 91.95 M148.65 92.25 Q148.0 91.4 147.35 91.35 146.85 91.3 146.4 91.75 L146.0 92.15 Q145.6 92.7 145.5 93.35 L145.4 88.4 Q145.35 86.75 146.4 86.75 L146.5 86.75 148.6 87.1 Q149.35 87.2 149.55 88.45 L149.55 94.2 Q149.3 93.05 148.65 92.25 M162.3 99.0 L155.95 101.0 162.3 99.0 M121.8 73.9 L115.0 76.05 121.8 73.9 M41.25 59.85 Q42.15 56.2 39.65 54.3 37.1 52.35 34.5 53.85 L34.25 54.0 33.55 54.75 Q33.0 55.5 32.85 56.65 30.55 54.85 29.35 58.5 L29.2 59.25 Q29.1 59.65 29.15 60.15 29.15 61.3 29.5 62.2 L29.5 62.25 29.55 62.35 Q29.85 63.0 30.25 63.1 L30.3 65.4 30.3 68.05 Q30.1 69.45 28.85 69.6 L22.55 68.2 22.4 68.15 22.6 66.75 Q22.6 65.35 22.0 64.3 L23.15 63.9 Q23.15 60.25 26.8 60.85 28.15 61.4 28.7 59.2 L28.7 51.1 28.8 50.55 33.55 51.6 33.55 54.75 33.55 51.6 45.8 54.35 Q49.1 55.4 48.65 57.3 L48.8 57.45 41.25 59.85 48.8 57.45 Q50.15 58.8 50.15 60.8 L49.8 60.9 50.15 60.95 58.15 62.6 58.25 63.6 58.0 64.15 Q57.4 64.1 56.95 64.65 L56.5 65.75 43.0 63.05 42.85 63.0 Q42.55 60.85 41.15 60.25 L41.25 59.85 M29.5 62.25 L23.15 63.9 29.5 62.25 M33.35 63.9 Q33.05 63.25 33.05 62.55 33.05 61.6 33.6 60.95 34.05 60.3 34.75 60.4 35.45 60.45 36.0 61.2 L36.55 62.75 36.55 63.0 36.55 63.05 36.55 65.75 36.45 65.75 Q36.15 65.25 35.7 65.15 L35.2 64.25 Q34.75 63.6 34.3 63.5 L34.15 63.5 33.95 63.5 33.85 63.55 33.35 63.9 M36.55 65.85 L36.55 68.0 36.45 68.1 Q36.1 68.55 35.65 68.55 L34.8 67.95 Q34.45 67.4 34.45 66.75 34.45 66.05 34.8 65.6 35.15 65.1 35.65 65.15 L35.7 65.15 Q36.15 65.25 36.45 65.75 L36.55 65.85 M10.35 71.1 L16.85 72.75 16.85 77.55 16.75 77.55 16.15 76.45 Q15.15 75.3 13.75 75.2 12.35 75.05 11.4 76.05 L10.35 77.75 10.35 71.1 M21.2 63.95 L21.45 65.15 Q21.45 66.15 20.9 66.85 20.3 67.55 19.55 67.5 18.75 67.4 18.2 66.65 17.6 65.85 17.65 64.8 L17.65 64.3 17.7 64.0 18.2 63.25 Q18.6 62.7 19.1 62.45 L19.3 62.45 19.5 62.45 19.55 62.45 19.6 62.45 19.7 62.45 Q20.4 62.6 20.9 63.3 L21.2 63.95 M22.55 68.2 L30.3 65.4 22.55 68.2 M34.3 63.5 L36.55 63.05 34.3 63.5 M16.85 81.1 Q16.75 82.7 16.35 83.2 15.9 83.75 15.3 83.7 14.65 83.6 14.2 83.0 L14.0 82.6 13.75 81.5 Q13.75 80.65 14.2 80.1 14.65 79.55 15.3 79.6 15.9 79.65 16.35 80.3 L16.55 80.55 16.85 80.75 16.85 80.8 16.75 80.95 16.85 81.1 M22.35 93.5 L21.1 93.65 22.35 93.5 M79.55 76.45 L79.55 80.1 62.55 76.2 62.55 73.15 62.55 68.65 62.55 68.25 62.55 66.4 Q62.6 66.0 63.25 65.55 63.85 65.1 65.15 65.85 66.95 69.6 63.25 70.05 L64.05 70.9 Q66.7 72.85 67.95 69.7 68.05 72.15 69.7 72.9 L70.6 73.2 Q70.95 74.55 72.25 75.0 L79.55 76.45 M62.55 68.65 L63.25 70.05 62.55 68.65 M74.4 71.75 Q73.65 71.8 73.15 71.05 71.9 69.35 72.95 68.15 L73.2 67.9 77.55 68.8 Q77.6 69.9 78.95 70.95 L74.4 71.75 M49.8 60.9 L43.0 63.05 49.8 60.9 M22.55 107.0 L16.7 109.0 22.55 107.0 M14.85 129.35 L14.9 129.35 14.85 129.35 M21.7 124.05 L15.75 124.5 21.7 124.05 M17.65 129.5 L14.9 129.35 17.65 129.5" fill="#cc3333" fill-rule="evenodd" stroke="none"/>
    <path d="M0.0 8.75 L0.0 8.6 250.65 0.0 468.3 26.35 196.8 42.0 196.2 42.05 195.0 42.1 0.0 8.75" fill="#dc7878" fill-rule="evenodd" stroke="none"/>
    <path d="M465.2 42.5 L465.35 42.65 Q471.1 46.85 471.85 53.4 L471.85 94.25 M430.25 94.25 L430.25 91.6 430.25 90.3 Q427.65 90.15 427.15 86.7 L425.05 86.6 425.05 86.65 Q425.35 87.4 423.2 88.7 420.85 90.0 419.1 90.0 L417.1 89.65 416.05 89.35 402.9 85.65 392.45 86.5 392.45 86.55 Q392.45 87.6 391.65 88.3 390.85 89.05 389.7 89.05 L389.6 89.05 389.25 89.05 Q389.45 90.6 389.05 91.6 388.45 92.9 386.65 93.25 L386.45 93.3 382.65 93.8 369.9 94.95 M370.0 95.6 L369.8 96.65 Q368.95 99.5 366.9 100.4 L336.8 104.2 336.05 104.3 335.95 104.3 335.65 104.3 334.8 104.25 333.55 103.95 323.0 101.25 310.2 102.4 309.5 102.45 298.7 99.5 Q296.7 97.75 298.5 96.05 L274.75 98.5 274.65 98.5 274.7 98.55 274.8 98.95 274.85 99.4 Q274.85 100.5 273.8 101.25 272.75 102.0 271.25 102.0 L271.0 102.0 270.7 102.0 Q269.9 109.95 261.7 109.85 L257.05 109.25 257.05 109.15 253.25 108.5 Q254.0 111.3 249.6 112.4 L231.15 114.35 231.15 134.05 Q231.25 136.3 228.3 136.25 L223.3 136.25 Q220.8 136.55 220.6 138.4 L220.6 154.1 Q221.6 152.25 223.7 152.85 229.15 159.25 222.15 171.7 L220.75 172.95 Q221.15 174.6 220.6 176.2 L220.5 176.9 Q217.5 183.3 211.75 182.3 L211.75 321.0 213.75 320.55 213.75 329.3 Q213.65 332.85 210.9 333.75 L195.35 337.25 195.35 337.35 195.3 337.35 181.7 330.1 Q179.75 329.05 179.7 325.5 L179.7 316.85 181.1 317.4 181.1 180.0 Q177.1 180.65 175.05 174.1 L174.95 173.45 Q174.55 171.8 174.85 170.2 L173.85 168.9 Q169.0 156.15 172.8 150.1 174.25 149.65 174.95 151.55 L174.95 136.0 Q174.8 134.1 173.05 133.7 L169.6 133.4 Q167.55 133.25 167.6 131.05 L167.6 111.5 154.8 108.5 Q151.75 107.1 152.25 104.4 L149.6 104.85 149.6 104.95 146.4 105.25 Q140.65 104.85 140.15 96.9 L139.9 96.95 139.75 96.9 Q138.7 96.8 137.95 96.0 137.2 95.2 137.25 94.1 L137.35 93.25 120.8 89.4 Q122.0 91.2 120.65 92.8 L113.15 95.05 112.7 94.95 103.8 93.05 96.45 95.1 95.55 95.35 94.95 95.35 94.75 95.35 94.7 95.35 94.2 95.2 73.25 89.6 Q71.8 88.6 71.25 85.75 L71.1 84.7 M71.15 84.05 L62.3 82.15 59.5 81.35 Q57.35 80.6 57.7 77.05 L57.45 77.05 57.4 77.05 Q56.6 76.95 56.05 76.15 55.45 75.4 55.5 74.4 L55.5 74.3 48.2 72.9 38.35 75.95 36.95 76.2 Q35.7 76.1 34.1 74.65 32.55 73.25 32.85 72.5 L31.35 72.45 Q31.0 75.85 29.2 75.85 L29.2 84.0 29.2 91.0 Q28.85 92.95 27.8 92.85 L22.35 93.5 22.35 101.3 22.35 106.75 22.55 107.0 Q24.1 109.5 24.5 113.4 24.9 117.45 23.8 120.9 23.1 122.95 21.7 124.05 L21.45 126.25 Q21.2 128.4 18.7 129.2 L17.65 129.5 17.65 242.55 Q18.8 242.7 19.25 244.05 L19.35 244.0 Q21.05 249.25 18.15 254.15 L10.55 257.05 10.35 257.25 1.6 254.45 Q0.5 254.15 0.35 251.9 L0.3 36.8 Q0.8 30.3 4.85 26.5 L4.9 26.4 4.85 26.4 4.75 26.4 4.75 23.2 0.0 22.3 0.0 8.75 0.0 8.6 250.65 0.0 468.3 26.35 471.85 26.75 471.85 38.0 465.45 38.5 465.45 42.5 465.3 42.5 465.2 42.5 192.6 65.0 Q195.4 70.95 195.3 76.15 195.15 81.75 195.35 83.5 L195.35 337.25 M431.0 65.35 L431.0 73.55 Q431.75 75.8 433.7 75.35 438.95 75.1 439.0 78.8 L440.6 79.35 441.05 78.8 Q441.5 78.35 442.05 78.1 442.9 77.65 443.95 77.6 L444.1 77.6 444.15 77.6 444.25 77.6 444.5 77.65 444.8 77.65 Q445.45 77.95 446.05 78.5 L446.8 79.35 446.85 79.65 446.9 80.15 Q446.9 81.2 446.1 81.95 445.3 82.7 444.15 82.7 443.0 82.7 442.2 81.95 441.4 81.2 441.4 80.15 441.4 79.1 442.2 78.35 442.9 77.65 443.95 77.6 M428.8 77.35 Q429.35 77.3 429.75 76.65 L429.85 76.55 429.85 76.5 Q430.35 75.65 430.35 74.45 L430.3 73.65 430.05 72.75 Q428.3 68.95 425.0 70.6 424.75 69.45 424.0 68.65 L423.0 67.85 422.65 67.65 Q418.9 65.9 415.2 67.65 411.6 69.35 412.9 73.15 L413.5 73.5 Q415.5 74.15 415.8 75.65 L415.85 76.0 Q415.45 78.4 412.8 77.3 M436.3 64.6 L435.9 64.3 430.95 64.8 424.0 65.45 424.0 68.65 M436.3 64.6 Q437.15 65.35 437.15 66.45 437.15 67.55 436.3 68.3 L435.35 68.9 Q436.05 69.9 439.3 69.65 442.9 69.35 442.35 68.05 441.7 66.95 442.2 64.95 M435.9 64.3 L436.3 64.25 457.35 62.2 457.35 87.15 457.35 93.85 457.35 94.25 M412.9 73.15 L413.05 73.5 413.35 73.45 413.5 73.5 M424.0 65.45 L406.35 67.2 Q401.6 67.95 402.3 69.9 M402.25 70.1 L412.9 73.15 M419.7 76.75 L419.7 76.7 419.65 76.45 Q419.85 75.55 420.5 74.9 421.25 74.2 422.25 74.2 423.25 74.2 423.95 74.9 424.7 75.6 424.7 76.55 424.7 77.25 424.3 77.85 L424.35 77.9 424.65 78.15 424.8 86.3 425.0 86.55 425.05 86.6 424.8 86.6 M420.9 78.95 L421.0 78.95 Q421.7 78.95 422.2 79.45 422.7 79.95 422.7 80.65 422.7 81.35 422.2 81.85 421.7 82.35 421.0 82.35 420.3 82.35 419.8 81.85 L419.7 81.75 419.7 79.55 419.7 76.75 422.9 77.4 423.15 77.4 423.4 77.45 423.6 77.5 Q423.95 77.6 424.3 77.85 M422.9 77.4 L421.6 78.1 420.9 78.95 Q420.25 79.0 419.8 79.45 L419.7 79.55 M415.35 85.25 L416.1 84.45 416.3 84.35 416.4 83.7 Q416.4 82.9 415.65 82.35 415.25 82.05 414.8 81.9 M416.3 84.35 L415.65 85.05 415.35 85.25 Q414.9 85.95 414.9 86.75 414.9 88.1 416.1 89.05 L417.1 89.65 M424.8 86.3 L424.8 86.6 M413.05 73.5 Q411.0 74.0 410.6 76.15 L410.4 76.2 390.95 77.75 Q390.85 77.1 390.35 76.6 389.7 76.0 388.8 76.0 L388.75 76.0 Q387.85 76.05 387.25 76.6 386.6 77.25 386.6 78.15 386.6 79.05 387.25 79.65 L387.85 80.1 M415.35 85.25 L413.95 85.6 Q412.95 85.6 412.2 85.05 L412.05 84.95 402.9 85.65 M439.8 83.15 L440.0 83.1 439.75 81.7 Q439.75 80.35 440.6 79.35 M440.0 83.1 Q440.3 83.95 441.05 84.6 442.35 85.8 444.15 85.8 445.95 85.8 447.25 84.6 L447.65 84.2 447.7 84.25 Q448.6 85.0 449.85 85.0 451.1 85.0 451.95 84.25 452.85 83.5 452.85 82.4 452.85 81.55 452.35 80.95 M428.8 77.35 L428.65 77.35 428.3 77.3 Q427.8 77.1 427.45 76.5 426.95 75.65 426.95 74.45 M428.8 77.35 L428.7 79.7 439.8 83.15 430.75 84.05 Q428.95 83.75 428.7 82.35 L428.7 79.7 M440.1 94.25 L440.1 91.6 440.1 89.2 430.55 90.3 430.25 90.3 M439.0 78.8 L429.85 76.55 M442.35 68.05 Q443.05 69.25 445.95 69.5 445.8 69.95 445.8 70.45 445.8 71.75 446.75 72.65 447.75 73.6 449.1 73.6 450.45 73.6 451.4 72.65 452.4 71.75 452.4 70.45 452.4 69.15 451.4 68.2 M448.05 93.3 L448.05 94.25 M457.35 87.15 L448.05 88.25 448.05 91.6 448.05 93.1 448.05 93.3 Q448.4 92.6 449.05 92.05 L449.75 91.6 Q450.9 90.95 452.45 90.95 454.0 90.95 455.2 91.6 L455.85 92.05 457.35 93.85 M460.25 94.25 L460.25 59.0 208.6 83.1 208.6 321.7 211.75 321.0 M440.1 89.2 L448.05 88.25 M344.5 73.25 L355.95 72.1 374.5 70.3 386.75 69.1 406.35 67.2 M329.85 87.25 Q331.4 87.2 332.55 86.15 333.8 85.1 333.8 83.6 L333.8 83.55 Q333.3 83.9 332.6 83.9 331.8 83.9 331.25 83.4 330.7 82.95 330.7 82.25 330.7 81.55 331.25 81.05 L337.6 80.6 339.65 80.55 339.65 91.75 339.65 91.95 315.0 94.1 315.0 90.95 315.45 83.6 315.45 83.45 315.5 83.35 Q315.65 82.85 316.1 82.5 316.8 81.95 317.8 81.95 318.8 81.95 319.5 82.5 320.2 83.05 320.2 83.85 320.2 84.65 319.5 85.2 318.8 85.75 317.8 85.75 L317.15 85.7 M316.9 86.45 Q318.4 87.8 320.5 87.8 322.25 87.8 323.55 86.85 L324.05 86.45 Q325.3 85.35 325.5 83.9 L325.5 83.6 325.55 83.05 325.75 82.35 325.6 78.9 M325.55 83.05 L325.55 83.3 325.5 83.9 325.75 84.9 325.75 82.35 M329.85 87.25 L329.65 87.25 Q327.95 87.25 326.7 86.15 326.05 85.6 325.75 84.9 M315.0 90.95 L329.85 89.55 329.85 87.25 M330.65 100.55 L330.6 100.0 Q330.6 98.2 332.05 96.95 333.55 95.7 335.65 95.7 336.7 95.7 337.6 96.05 L338.85 96.7 M352.65 85.3 Q355.85 84.55 354.2 87.25 352.35 90.15 349.75 91.95 L343.45 87.7 343.3 86.65 Q343.25 85.7 345.15 85.5 M339.65 91.75 L329.85 89.55 M360.75 79.05 Q360.6 80.15 358.75 81.05 L365.2 82.25 Q366.25 82.4 367.05 81.65 368.8 80.05 367.3 78.75 L367.0 78.5 360.75 79.05 357.8 79.3 357.8 80.9 358.75 81.05 M357.8 80.9 L357.8 82.25 357.8 83.95 357.8 86.55 368.3 85.7 Q370.15 85.4 370.7 84.05 367.45 84.4 365.2 82.25 M349.65 76.75 L349.75 77.1 349.75 91.95 M357.8 86.55 L357.85 90.25 382.3 87.75 382.25 84.7 382.25 80.15 381.15 81.6 380.1 82.3 Q376.3 84.05 374.5 80.75 374.35 83.2 372.0 83.8 L370.7 84.05 M355.95 72.1 Q349.85 73.1 349.65 76.75 348.6 73.85 344.5 73.25 L309.2 76.7 Q307.7 80.1 309.25 83.55 L309.6 83.85 309.65 83.9 Q310.45 84.7 310.45 85.9 310.45 87.1 309.6 87.95 308.95 88.6 308.05 88.75 M400.15 73.3 Q400.1 71.3 402.05 70.05 L402.3 69.9 M402.05 70.05 L402.25 70.1 M400.15 73.3 L400.15 73.45 400.65 73.4 400.15 73.3 M382.25 80.15 L382.25 79.75 382.25 77.85 Q382.2 77.45 381.3 76.95 L378.55 77.1 Q375.95 80.75 381.15 81.6 M374.5 70.3 L374.5 75.2 374.5 80.35 374.5 80.55 374.5 80.65 374.5 80.75 374.5 80.35 M362.9 95.5 Q364.7 91.95 368.55 93.6 369.65 94.05 369.9 94.95 M388.5 75.4 L388.6 74.4 Q388.7 71.45 386.8 69.7 M389.25 89.05 Q388.4 88.9 387.75 88.3 386.95 87.6 386.95 86.55 386.95 85.5 387.75 84.75 L388.65 84.25 M388.6 74.4 L400.15 73.45 M333.55 103.95 L332.05 103.05 Q330.8 102.0 330.65 100.55 L323.0 101.25 M410.4 76.2 L400.65 73.4 M248.7 87.35 Q247.85 83.95 253.05 82.2 L228.45 84.6 M228.45 84.9 L235.45 86.1 235.75 86.3 235.8 86.2 Q237.15 84.6 238.8 84.35 240.4 84.1 242.3 85.25 L242.8 85.95 248.1 87.35 248.2 87.35 248.7 87.4 248.75 87.4 248.7 87.35 M248.1 87.35 L248.2 87.35 M247.75 90.9 Q248.55 90.1 249.65 90.1 250.75 90.1 251.5 90.9 252.3 91.7 252.3 92.85 L252.3 93.35 Q252.15 94.15 251.5 94.8 L250.95 95.3 Q249.7 96.35 248.1 96.35 M247.9 96.75 L247.9 104.7 231.15 107.15 230.3 107.95 Q229.0 108.95 227.1 108.95 L224.8 108.5 224.8 108.65 Q224.8 109.9 223.8 110.8 222.85 111.7 221.45 111.7 220.05 111.7 219.05 110.8 218.1 109.9 218.1 108.75 218.1 107.6 218.95 107.2 L220.6 107.15 M248.1 87.35 Q246.3 87.35 245.0 88.65 243.7 90.0 243.7 91.85 243.7 93.7 245.0 95.0 L245.15 95.15 Q246.35 96.3 247.9 96.35 L248.1 96.35 M247.9 96.35 L247.9 96.75 239.5 95.1 239.35 95.15 238.65 95.15 238.65 102.15 238.8 102.2 247.9 104.7 M252.3 93.35 Q251.95 94.25 251.2 95.0 L250.95 95.3 M257.15 98.45 L257.15 92.65 Q257.4 91.4 258.5 91.35 L261.55 91.15 261.7 91.15 Q263.15 91.25 263.1 92.95 L262.95 97.9 263.0 98.6 262.9 99.1 262.25 100.05 261.7 100.25 260.75 100.05 M262.95 97.9 Q262.8 97.25 262.25 96.65 L261.7 96.2 Q261.05 95.75 260.35 95.75 259.35 95.7 258.4 96.5 257.45 97.3 257.15 98.45 L257.15 105.0 257.15 105.25 257.05 105.6 257.05 109.15 M269.45 86.2 Q269.5 82.55 266.1 80.9 L253.05 82.2 M269.45 86.2 L269.25 87.75 270.55 87.6 Q272.0 87.6 273.0 88.3 274.0 89.05 274.05 90.05 L305.0 87.25 304.75 86.55 304.55 86.5 292.95 84.2 291.85 83.95 269.45 86.2 M270.7 102.0 Q269.55 101.85 268.7 101.25 267.65 100.5 267.65 99.4 267.65 98.3 268.7 97.55 269.15 97.2 269.7 97.05 M269.25 87.75 Q268.6 87.95 268.05 88.3 267.05 89.05 267.05 90.1 267.05 91.15 268.05 91.85 269.1 92.6 270.55 92.6 M297.05 77.9 L297.05 80.0 297.05 80.35 306.85 83.1 307.55 83.0 Q308.5 83.0 309.25 83.55 M293.05 83.85 L291.85 83.95 M293.05 83.85 Q293.1 80.9 296.8 80.25 L297.05 80.0 M296.8 80.25 L297.05 80.35 M315.75 84.85 L316.3 85.8 316.9 86.45 M315.5 83.35 L315.45 83.6 315.75 84.85 316.1 85.2 Q316.55 85.55 317.15 85.7 M304.65 85.9 Q304.65 84.7 305.5 83.85 L306.85 83.1 M304.75 86.55 L304.65 85.9 M298.5 96.05 L304.95 95.4 305.5 96.05 Q306.4 96.8 307.65 96.8 L309.2 96.45 309.75 96.05 Q310.65 95.3 310.65 94.2 310.65 93.1 309.75 92.35 309.2 91.85 308.5 91.7 M297.05 77.9 L309.2 76.7 M266.1 80.9 L297.05 77.9 M195.0 42.1 L196.2 42.05 196.8 42.0 468.3 26.35 M195.0 42.1 L196.2 42.3 196.2 42.05 M196.2 42.3 L196.8 42.0 M196.2 59.35 L196.2 59.45 196.8 59.35 465.45 38.5 M196.2 59.35 L196.2 42.3 M191.9 64.05 L191.9 58.6 4.75 23.2 M192.6 65.0 L191.9 65.05 191.9 65.1 191.65 65.05 191.9 65.05 191.9 64.85 191.75 64.8 4.9 26.4 M191.9 64.05 L191.9 64.85 192.6 65.0 191.9 64.05 M196.2 59.45 L191.9 58.6 M164.85 83.1 L169.5 82.5 M169.55 82.25 L152.4 78.35 Q155.8 80.3 155.45 83.35 L159.55 82.7 159.85 82.05 Q161.15 81.0 162.3 81.35 163.4 81.65 164.4 83.4 L164.45 83.45 164.2 83.65 164.15 83.7 Q163.05 84.85 164.65 86.3 L169.2 86.7 169.5 86.75 169.5 82.5 M169.5 86.75 L169.5 87.0 172.25 89.55 Q172.0 90.2 172.05 91.0 172.0 92.55 172.8 93.65 173.5 94.8 174.6 94.9 175.65 94.95 176.45 93.95 177.15 92.95 177.1 91.5 177.05 90.0 176.15 89.1 175.2 88.2 174.7 88.85 M169.2 86.7 L169.5 87.0 M162.4 92.05 L165.65 92.35 165.65 96.9 169.8 97.65 171.25 98.3 171.3 98.35 171.75 98.75 172.05 99.05 172.35 99.45 Q172.8 100.35 172.85 101.5 172.8 102.6 172.35 103.35 171.85 104.15 171.2 104.1 170.5 104.05 170.05 103.15 L169.7 102.25 169.15 101.05 Q168.85 100.7 168.5 100.65 L168.35 100.65 167.85 100.95 167.65 101.2 167.6 101.35 167.6 101.4 167.55 101.5 167.5 101.6 Q167.25 102.1 167.25 102.75 167.25 103.65 167.65 104.4 L168.2 105.25 Q169.1 106.3 170.45 106.45 L172.05 106.1 172.05 106.25 Q172.05 107.5 172.75 108.45 173.4 109.4 174.35 109.5 175.35 109.55 176.05 108.75 176.7 107.9 176.7 106.75 176.65 105.6 176.1 105.2 175.55 104.7 174.95 105.05 M162.4 92.05 L162.4 99.0 162.4 99.05 168.1 100.75 168.35 100.65 168.45 100.6 171.3 98.35 M169.55 82.25 L181.1 84.85 181.1 114.65 181.1 121.4 181.1 180.0 M228.45 89.4 L224.5 91.75 224.8 93.25 Q224.8 94.8 223.7 95.85 222.65 96.95 221.1 96.95 219.55 96.95 218.45 95.85 217.4 94.8 217.5 93.35 217.55 91.85 218.9 91.0 220.2 90.1 220.95 90.85 M236.15 86.55 L235.75 86.3 M236.15 86.55 Q237.75 87.85 235.45 89.15 L228.9 89.15 228.45 89.4 228.45 89.15 228.45 84.9 M228.45 89.15 L228.9 89.15 M238.65 95.15 L233.95 95.15 233.95 99.75 228.0 100.15 225.95 100.7 225.9 100.75 230.15 103.35 230.45 103.4 230.75 103.35 238.65 102.2 238.65 102.15 M211.75 116.35 L211.75 86.25 228.45 84.6 M238.65 102.2 L238.8 102.2 M230.15 103.35 L229.9 103.3 Q229.35 103.3 228.95 103.65 L228.2 104.8 227.65 105.7 Q226.95 106.55 226.0 106.55 225.05 106.55 224.35 105.7 223.65 104.9 223.65 103.75 223.65 102.6 224.35 101.75 L224.75 101.4 Q224.85 101.3 225.2 101.1 225.5 100.85 225.9 100.75 M231.1 103.9 L231.05 103.85 231.1 103.9 231.2 104.1 231.3 104.25 231.35 104.35 231.65 105.5 Q231.65 106.4 231.15 107.15 M231.2 104.1 L231.2 104.15 231.3 104.25 M231.2 104.1 L231.1 103.9 230.8 103.65 230.15 103.35 M230.45 103.4 L230.8 103.65 M222.85 115.2 L222.85 119.4 M222.85 119.9 L222.85 121.45 222.85 124.9 222.85 125.15 222.85 125.3 222.85 125.65 222.0 127.0 Q221.2 127.75 220.05 127.75 218.9 127.75 218.05 127.0 217.25 126.25 217.25 125.2 217.25 124.15 218.05 123.4 218.9 122.65 220.05 122.65 L220.1 122.65 221.0 122.8 Q221.7 122.75 222.2 122.2 L222.85 121.45 M222.85 115.2 L231.15 114.35 M211.75 123.15 L211.75 116.35 213.85 116.15 222.85 115.2 M222.85 119.9 L222.5 119.55 222.35 119.45 221.9 119.1 220.45 118.4 219.0 118.05 218.05 118.0 Q215.45 118.0 213.6 119.55 211.8 121.05 211.75 123.15 L211.75 182.3 M218.15 117.75 L213.85 116.15 M218.15 117.75 L219.0 118.05 M222.85 124.9 L222.85 125.65 M221.9 119.1 L222.85 119.4 M167.85 100.95 L168.1 100.75 M167.55 101.5 L167.6 101.35 167.65 101.15 167.7 101.1 167.65 101.2 M162.4 99.0 L162.3 99.0 162.4 99.05 M181.1 114.65 L179.65 114.3 176.1 115.9 176.7 115.95 Q178.5 116.1 179.8 117.75 181.05 119.3 181.1 121.4 M173.6 117.25 L173.65 117.2 173.75 117.1 174.05 116.8 173.4 117.05 173.4 112.85 167.6 111.5 M173.6 117.25 L173.4 117.5 173.4 119.05 173.85 119.85 174.65 120.5 175.3 120.4 175.35 120.4 Q176.1 120.45 176.7 121.3 177.25 122.05 177.3 123.1 177.25 124.15 176.7 124.85 176.1 125.5 175.35 125.45 174.55 125.4 174.0 124.6 173.5 124.0 173.4 123.2 L173.4 122.85 173.4 122.7 173.4 122.45 173.4 119.05 M174.05 116.8 Q174.5 116.35 175.05 116.15 L176.1 115.9 M173.4 123.2 L173.4 122.45 M179.65 114.3 L173.4 112.85 M174.95 151.55 Q176.0 154.4 175.35 161.25 M220.6 154.1 Q219.05 156.9 220.0 163.85 M309.8 102.05 L310.2 102.4 M309.8 102.05 Q307.1 99.65 309.2 96.45 M257.15 105.0 L257.05 105.6 Q256.15 108.5 252.95 107.75 L253.25 108.5 M262.95 97.9 L262.9 99.1 M239.5 95.1 Q242.6 94.45 243.45 92.05 244.4 88.5 242.8 85.95 M101.95 70.8 L101.85 74.2 102.0 74.9 102.0 75.45 102.0 75.75 Q102.15 77.2 103.05 78.35 L103.4 78.8 Q104.25 79.8 105.5 79.9 106.95 80.0 108.0 78.8 L108.4 78.2 108.8 77.25 108.55 77.6 Q108.05 78.1 107.4 78.05 106.65 77.95 106.2 77.4 105.7 76.8 105.7 76.0 105.7 75.2 106.2 74.7 106.65 74.2 107.4 74.3 108.05 74.3 108.55 74.9 L109.0 75.8 109.0 75.9 109.0 76.05 109.3 83.35 109.3 86.45 92.2 82.9 92.2 82.65 92.2 71.55 93.6 71.75 98.05 72.6 Q98.4 73.1 98.4 73.8 98.4 74.5 98.05 74.9 97.65 75.35 97.1 75.35 96.6 75.3 96.25 74.9 L96.25 74.95 Q96.25 76.45 97.1 77.55 97.9 78.65 99.0 78.8 L99.15 78.8 Q100.3 78.9 101.2 77.9 L101.85 76.7 101.85 74.2 M88.8 64.05 Q85.95 64.4 85.25 67.25 L85.15 67.55 85.15 82.3 89.55 78.45 89.65 77.4 Q89.65 76.45 88.35 76.15 M92.2 82.65 L99.0 81.1 99.0 78.8 M85.15 82.3 Q83.35 80.35 82.1 77.35 80.9 74.55 83.15 75.5 M98.45 91.95 L98.5 91.4 Q98.45 89.6 97.45 88.3 96.4 86.95 94.95 86.85 L93.6 87.05 Q93.15 87.2 92.75 87.6 M96.45 95.1 L97.45 94.35 Q98.3 93.35 98.45 91.95 L103.8 93.05 M141.15 82.9 L140.25 82.7 Q139.2 82.6 138.5 83.25 137.8 83.9 137.8 84.9 L116.3 80.3 116.45 79.6 116.5 78.95 Q116.5 77.75 115.95 76.9 L115.0 76.05 114.5 75.95 Q113.8 75.85 113.3 76.35 L113.1 76.65 113.05 76.65 Q112.5 77.45 112.5 78.65 112.5 79.8 113.1 80.7 113.55 81.4 114.15 81.6 M113.85 84.5 Q113.35 84.6 112.95 85.05 112.3 85.75 112.35 86.85 112.3 87.9 112.95 88.75 L113.35 89.15 Q113.8 89.55 114.45 89.6 115.3 89.65 115.95 89.0 L116.3 88.35 120.8 89.4 M109.0 75.8 L109.0 76.05 108.8 77.25 M101.85 76.7 L102.0 75.75 102.0 75.15 102.0 74.9 M113.35 89.15 Q114.9 92.65 112.7 94.95 M113.3 76.35 Q114.4 73.05 113.35 69.55 L88.8 64.05 80.85 62.25 Q85.1 63.6 85.25 67.25 M109.3 83.35 L99.0 81.1 M121.8 73.6 L121.8 73.9 122.0 73.85 121.8 73.6 121.8 71.5 113.35 69.55 M141.0 81.35 L141.15 82.9 141.95 83.55 Q142.65 84.3 142.65 85.35 142.65 86.4 141.95 87.05 141.25 87.7 140.25 87.65 M125.45 77.8 L124.6 77.6 Q124.55 74.7 122.0 73.85 M140.15 96.9 Q140.9 96.85 141.5 96.3 142.25 95.65 142.25 94.55 142.25 93.45 141.5 92.65 L140.8 92.1 M141.0 81.35 L125.45 77.8 116.45 79.6 M155.45 83.35 L155.4 83.8 155.85 83.8 Q157.05 83.85 158.0 85.25 158.9 86.65 158.9 88.5 158.9 90.3 158.0 91.55 L157.9 91.7 Q157.05 92.7 155.95 92.7 L155.95 93.1 161.8 91.95 Q159.65 91.1 159.05 88.7 158.4 85.1 159.55 82.7 M148.65 92.25 Q149.3 93.05 149.55 94.2 L149.55 88.45 Q149.35 87.2 148.6 87.1 L146.5 86.75 146.4 86.75 Q145.35 86.75 145.4 88.4 L145.5 93.35 Q145.6 92.7 146.0 92.15 L146.4 91.75 Q146.85 91.3 147.35 91.35 148.0 91.4 148.65 92.25 M145.5 93.35 L145.5 94.0 145.55 94.5 145.5 93.35 M145.55 94.5 Q145.65 95.15 146.0 95.5 L146.4 95.75 147.05 95.6 M161.8 91.95 L161.95 92.05 162.4 92.05 M155.85 92.7 L155.95 92.7 M152.95 89.45 Q153.15 90.35 153.7 91.15 L153.85 91.45 Q154.7 92.6 155.85 92.7 M155.95 93.1 L155.95 101.0 162.3 99.0 M152.95 89.45 L152.9 89.0 Q152.9 87.85 153.45 87.1 154.0 86.35 154.75 86.4 155.5 86.45 156.1 87.3 M153.85 91.45 L153.45 90.95 Q153.0 90.3 152.95 89.45 M152.4 78.35 L143.3 76.3 Q140.95 77.7 141.0 81.35 M121.8 71.5 L143.3 76.3 M115.0 76.05 L121.8 73.9 M41.25 59.85 Q42.15 56.2 39.65 54.3 37.1 52.35 34.5 53.85 L34.25 54.0 33.55 54.75 Q33.0 55.5 32.85 56.65 30.55 54.85 29.35 58.5 L29.2 59.25 Q29.1 59.65 29.15 60.15 29.15 61.3 29.5 62.2 L29.5 62.25 29.55 62.35 Q29.85 63.0 30.25 63.1 L30.3 63.1 30.55 63.05 31.15 62.35 31.5 60.35 M33.55 54.75 L33.55 51.6 28.8 50.55 M28.7 51.1 L28.7 59.2 Q28.15 61.4 26.8 60.85 23.15 60.25 23.15 63.9 L29.5 62.25 M33.35 63.9 Q33.05 63.25 33.05 62.55 33.05 61.6 33.6 60.95 34.05 60.3 34.75 60.4 35.45 60.45 36.0 61.2 L36.55 62.75 36.55 63.0 36.55 63.05 36.55 65.75 36.55 65.85 36.55 68.0 36.45 68.1 Q36.1 68.55 35.65 68.55 L34.8 67.95 Q34.45 67.4 34.45 66.75 34.45 66.05 34.8 65.6 35.15 65.1 35.65 65.15 L35.7 65.15 35.2 64.25 Q34.75 63.6 34.3 63.5 L34.15 63.5 33.95 63.5 33.85 63.55 33.35 63.9 33.3 63.9 33.1 64.15 33.0 72.2 33.0 72.5 32.85 72.5 32.85 72.45 33.0 72.2 M25.0 50.05 Q24.4 50.7 24.4 51.8 24.4 52.9 25.0 53.7 L25.6 54.3 25.65 54.35 Q25.15 55.3 22.9 54.85 20.4 54.3 20.8 53.05 20.3 54.2 18.3 54.3 L18.4 55.25 Q18.4 56.55 17.75 57.4 17.0 58.25 16.1 58.2 15.15 58.1 14.5 57.1 13.8 56.15 13.8 54.85 13.8 53.55 14.5 52.7 M20.8 53.05 Q21.25 52.05 20.9 50.05 M25.05 49.7 L25.3 49.75 28.8 50.55 M25.3 49.75 L25.0 50.05 M25.05 49.7 L10.35 46.4 10.35 71.1 16.85 72.75 22.35 74.15 29.0 75.8 29.2 75.85 M30.25 63.1 L30.3 65.4 30.3 68.05 Q30.1 69.45 28.85 69.6 L22.55 68.2 22.4 68.15 21.7 69.55 Q20.75 70.65 19.55 70.55 18.3 70.45 17.4 69.2 L17.1 68.8 17.05 68.8 Q16.4 69.5 15.55 69.45 14.7 69.35 14.1 68.55 13.45 67.75 13.5 66.7 13.5 65.85 13.85 65.3 M22.4 68.15 L22.6 66.75 Q22.6 65.35 22.0 64.3 L21.7 63.8 M21.2 63.95 L21.45 65.15 Q21.45 66.15 20.9 66.85 20.3 67.55 19.55 67.5 18.75 67.4 18.2 66.65 17.6 65.85 17.65 64.8 L17.65 64.3 17.7 64.0 18.2 63.25 Q18.6 62.7 19.1 62.45 L19.3 62.45 19.5 62.45 19.55 62.45 M19.7 62.45 Q20.85 62.6 21.7 63.8 M19.7 62.45 Q20.4 62.6 20.9 63.3 L21.2 63.95 M22.0 64.3 L23.15 63.9 M30.3 65.4 L22.55 68.2 M41.35 64.0 Q39.5 64.95 39.2 62.5 L39.25 62.2 Q39.45 60.75 40.85 60.2 L41.25 59.85 48.8 57.45 48.65 57.3 Q49.1 55.4 45.8 54.35 L33.55 51.6 M36.45 65.75 Q36.15 65.25 35.7 65.15 M36.55 65.85 L36.45 65.75 M38.85 70.15 Q38.85 69.35 39.35 68.85 39.6 68.55 39.95 68.45 M39.05 70.9 L39.55 71.75 40.55 72.15 Q41.2 72.2 41.75 71.75 L41.85 71.6 48.2 72.9 M39.05 70.9 L38.9 70.75 39.35 71.5 39.55 71.75 39.85 73.25 Q39.85 74.6 39.05 75.45 L38.35 75.95 M38.9 70.75 Q38.8 70.45 38.85 70.15 M36.55 63.05 L34.3 63.5 M19.7 62.45 L19.6 62.45 19.55 62.45 M16.75 77.55 L16.85 77.75 16.85 77.55 16.85 72.75 M16.75 77.55 L16.15 76.45 Q15.15 75.3 13.75 75.2 12.35 75.05 11.4 76.05 L10.35 77.75 10.35 129.55 14.85 129.35 Q16.1 127.8 15.5 124.5 L15.45 124.3 15.75 124.1 Q17.75 122.45 18.3 118.8 18.85 115.05 18.25 112.4 17.6 109.75 16.8 109.4 L16.1 109.2 Q15.85 109.2 15.8 109.35 14.45 111.45 15.0 114.9 M16.85 81.1 Q16.75 82.7 16.35 83.2 15.9 83.75 15.3 83.7 14.65 83.6 14.2 83.0 L14.0 82.6 13.75 81.5 Q13.75 80.65 14.2 80.1 14.65 79.55 15.3 79.6 15.9 79.65 16.35 80.3 L16.55 80.55 M16.85 80.3 L16.85 77.75 M16.85 80.75 L16.55 80.55 M16.85 80.8 L16.75 80.95 16.85 81.1 16.85 80.8 16.85 80.75 16.85 80.3 M21.1 93.65 L17.05 92.6 Q15.6 92.7 15.7 94.75 L15.8 102.75 15.8 109.35 M22.35 74.15 L22.35 81.15 22.35 88.85 22.35 91.3 22.35 91.5 Q22.05 93.45 21.1 93.65 L22.35 93.5 M10.35 71.1 L10.35 77.75 M79.55 76.45 L79.55 80.1 62.55 76.2 62.55 73.15 62.55 68.65 62.55 68.25 62.55 66.4 Q62.6 66.0 63.25 65.55 63.85 65.1 65.15 65.85 66.95 69.6 63.25 70.05 L64.05 70.9 Q66.7 72.85 67.95 69.7 L67.95 69.5 67.95 69.3 67.95 64.2 67.95 59.35 59.55 57.45 M59.4 58.05 Q58.1 59.65 58.15 62.6 L58.25 63.6 M58.0 64.15 Q58.6 64.2 59.1 64.85 59.55 65.5 59.55 66.4 59.55 67.3 59.1 67.85 L58.7 68.25 M63.25 70.05 L62.55 68.65 M67.95 69.7 Q68.05 72.15 69.7 72.9 L70.6 73.2 Q72.85 73.75 74.4 71.75 73.65 71.8 73.15 71.05 71.9 69.35 72.95 68.15 L73.2 67.9 77.55 68.8 79.6 69.25 79.55 70.85 79.55 72.2 79.55 73.9 79.55 76.45 72.25 75.0 Q70.95 74.55 70.6 73.2 M67.95 69.3 L67.95 69.7 M74.4 71.75 L78.95 70.95 Q77.6 69.9 77.55 68.8 M79.55 70.85 L78.95 70.95 M80.85 62.25 L67.95 59.35 M41.15 60.25 L40.95 60.15 40.85 60.2 M41.25 59.85 L41.15 60.25 Q42.55 60.85 42.85 63.0 L43.0 63.05 49.8 60.9 50.15 60.8 Q50.15 58.8 48.8 57.45 M50.15 60.95 L50.15 60.8 M58.15 62.6 L50.15 60.95 49.8 60.9 M43.0 63.05 L56.5 65.75 56.95 64.65 Q57.4 64.1 58.0 64.15 M57.7 77.05 Q58.3 76.95 58.75 76.4 59.3 75.75 59.3 74.7 59.3 73.65 58.75 72.9 L58.15 72.3 M45.8 54.35 L59.55 57.45 M71.15 84.05 Q71.3 83.15 72.1 82.8 74.75 81.35 76.0 85.0 M16.1 109.2 L16.7 109.0 22.55 107.0 M15.5 124.5 L15.75 124.5 21.7 124.05 M14.85 129.35 L14.9 129.35 17.65 129.5 M152.25 104.4 L152.45 103.65 Q150.25 104.25 149.6 101.3 L149.6 104.85 M149.55 100.7 L149.55 100.95 149.6 101.3 149.55 100.7 149.55 94.2 M8.35 245.6 L6.7 245.5 Q4.95 248.05 5.75 251.2 M10.35 245.35 L10.35 245.65 10.35 245.7 10.55 245.6 10.35 245.35 10.35 129.55 M17.65 242.55 L17.65 242.6 17.6 242.6 10.55 245.6 Q11.95 246.35 12.1 247.6 L19.25 244.05 M10.35 245.65 L8.35 245.6 8.35 43.05 183.3 81.9 183.3 318.3 185.65 319.25 185.55 323.65 M12.1 247.6 Q12.85 254.25 10.35 257.15 L10.55 257.05 M10.35 257.15 L10.35 257.25 M208.6 321.7 L205.2 322.5 205.35 326.9 M183.3 318.3 L181.1 317.4 M0.0 8.75 L195.0 42.1 M167.65 104.4 L155.95 101.0" fill="none" stroke="#000000" stroke-linecap="round" stroke-linejoin="round" stroke-width="1.0"/>
    <path d="M444.55 260.95 Q445.2 259.65 446.9 259.6 L446.9 145.45 445.4 145.05 Q441.7 144.05 441.45 141.85 L441.1 139.6 Q439.05 138.4 438.05 136.25 436.45 132.7 437.0 128.6 437.55 124.7 439.85 122.3 L440.1 122.05 440.1 116.55 440.0 108.7 432.3 107.55 Q430.75 107.6 430.25 105.6 L430.25 98.5 430.25 94.25 440.1 94.25 440.1 96.25 440.1 104.0 440.1 106.5 440.1 106.7 Q440.55 108.7 441.9 109.0 L447.75 108.3 Q449.8 108.5 449.7 110.55 L449.55 118.6 449.55 125.1 449.5 125.25 449.1 125.1 448.2 124.85 448.1 125.25 Q446.9 125.5 446.05 128.15 445.15 130.8 445.95 134.6 446.7 138.35 449.6 140.15 L449.55 140.55 449.95 140.65 Q449.1 143.85 450.9 145.55 L457.35 146.15 457.35 263.05 457.1 263.25 446.95 259.6 446.9 259.6 446.95 259.6 457.1 263.25 Q455.05 263.9 454.85 265.15 453.75 271.8 457.35 274.95 L457.1 274.85 446.15 271.25 Q442.0 266.05 444.45 260.9 L444.55 260.95 454.85 265.15 444.55 260.95 M448.15 96.5 L448.7 95.9 Q449.35 95.3 450.25 95.3 451.15 95.3 451.8 95.9 452.45 96.5 452.45 97.35 L452.15 98.45 451.8 98.8 Q451.15 99.4 450.25 99.4 449.35 99.4 448.7 98.8 448.15 98.3 448.05 96.7 L448.15 96.55 448.15 96.5 M439.85 122.3 L448.2 124.85 439.85 122.3 M450.85 145.55 L450.9 145.55 450.85 145.55 446.9 145.45 450.85 145.55 M449.55 140.55 L441.1 139.6 449.55 140.55 M440.0 108.7 L441.9 109.0 440.0 108.7" fill="#cc3333" fill-rule="evenodd" stroke="none"/>
    <path d="M440.1 94.25 L448.05 94.25 457.35 94.25 457.35 146.15 450.9 145.55 Q449.1 143.85 449.95 140.65 L449.95 140.6 450.0 140.4 449.6 140.15 Q446.7 138.35 445.95 134.6 445.15 130.8 446.05 128.15 446.9 125.5 448.1 125.25 L449.1 125.1 449.5 125.25 449.55 125.3 449.55 125.1 449.55 118.6 449.7 110.55 Q449.8 108.5 447.75 108.3 L441.9 109.0 Q440.55 108.7 440.1 106.7 L440.1 106.5 440.1 104.0 440.1 96.25 440.1 94.25 M460.25 94.25 L471.85 94.25 471.75 270.5 Q471.5 272.75 470.0 273.0 L457.4 275.0 457.35 274.95 Q453.75 271.8 454.85 265.15 455.05 263.9 457.1 263.25 L457.35 263.35 457.85 263.35 460.25 263.45 462.65 263.5 Q465.1 266.2 464.0 269.3 465.1 266.2 462.65 263.5 L460.25 263.45 460.25 94.25 M450.7 130.95 Q451.45 127.5 449.55 125.3 451.45 127.5 450.7 130.95 M448.05 96.7 Q448.15 98.3 448.7 98.8 449.35 99.4 450.25 99.4 451.15 99.4 451.8 98.8 L452.15 98.45 452.45 97.35 Q452.45 96.5 451.8 95.9 451.15 95.3 450.25 95.3 449.35 95.3 448.7 95.9 L448.15 96.5 448.05 96.4 448.05 96.7 M448.05 94.25 L448.05 95.85 448.05 96.4 448.05 95.85 448.05 94.25" fill="#990000" fill-rule="evenodd" stroke="none"/>
    <path d="M457.35 94.25 L460.25 94.25 460.25 263.45 457.85 263.35 457.35 263.05 457.35 146.15 457.35 94.25" fill="#650101" fill-rule="evenodd" stroke="none"/>
    <path d="M444.55 260.95 Q445.2 259.65 446.9 259.6 L446.9 145.45 445.4 145.05 Q441.7 144.05 441.45 141.85 L441.1 139.6 Q439.05 138.4 438.05 136.25 436.45 132.7 437.0 128.6 437.55 124.7 439.85 122.3 L440.1 122.05 440.1 116.55 440.0 108.7 432.3 107.55 Q430.75 107.6 430.25 105.6 L430.25 98.5 430.25 94.25 M471.85 94.25 L471.75 270.5 Q471.5 272.75 470.0 273.0 L457.4 275.0 457.1 274.85 446.15 271.25 Q442.0 266.05 444.45 260.9 L444.55 260.95 M440.1 94.25 L440.1 96.25 440.1 104.0 440.1 106.5 440.1 106.7 Q440.55 108.7 441.9 109.0 L447.75 108.3 Q449.8 108.5 449.7 110.55 L449.55 118.6 449.55 125.1 449.55 125.3 Q451.45 127.5 450.7 130.95 M448.05 96.7 Q448.15 98.3 448.7 98.8 449.35 99.4 450.25 99.4 451.15 99.4 451.8 98.8 L452.15 98.45 452.45 97.35 Q452.45 96.5 451.8 95.9 451.15 95.3 450.25 95.3 449.35 95.3 448.7 95.9 L448.15 96.5 448.15 96.55 448.05 96.7 448.05 96.4 448.05 95.85 448.05 94.25 M448.15 96.5 L448.05 96.4 M449.5 125.25 L449.1 125.1 448.1 125.25 Q446.9 125.5 446.05 128.15 445.15 130.8 445.95 134.6 446.7 138.35 449.6 140.15 L450.0 140.4 449.95 140.6 449.95 140.65 Q449.1 143.85 450.9 145.55 L457.35 146.15 457.35 94.25 M449.1 125.1 L448.2 124.85 439.85 122.3 M449.5 125.25 L449.55 125.3 M449.55 140.55 L449.95 140.6 M450.85 145.55 L450.9 145.55 M446.9 145.45 L450.85 145.55 M441.9 109.0 L440.0 108.7 M441.1 139.6 L449.55 140.55 M446.9 259.6 L446.95 259.6 M457.1 263.25 L457.35 263.35 457.35 263.05 457.1 263.25 446.95 259.6 M460.25 263.45 L457.85 263.35 M457.35 263.05 L457.35 146.15 M460.25 263.45 L462.65 263.5 Q465.1 266.2 464.0 269.3 M454.85 265.15 Q455.05 263.9 457.1 263.25 M457.35 274.95 L457.1 274.85 M457.4 275.0 L457.35 274.95 Q453.75 271.8 454.85 265.15 L444.55 260.95 M460.25 94.25 L460.25 263.45" fill="none" stroke="#000000" stroke-linecap="round" stroke-linejoin="round" stroke-width="1.0"/>
  </g>
</svg>
