<?xml version="1.0" encoding="UTF-8" standalone="no"?>
<svg xmlns:xlink="http://www.w3.org/1999/xlink" height="152.1px" width="93.3px" xmlns="http://www.w3.org/2000/svg">
  <g transform="matrix(1.0, 0.0, 0.0, 1.0, -11.5, -11.8)">
    <path d="M85.5 43.6 Q89.35 42.4 94.5 42.45 99.6 42.45 104.3 43.4 M46.5 37.8 Q43.15 27.25 35.0 17.5 L30.6 17.35 M30.3 12.3 L33.95 16.25 Q34.05 14.15 34.8 12.3 M35.0 17.5 L33.95 16.25 M12.0 70.4 Q15.7 68.1 18.7 65.4" fill="none" stroke="#000000" stroke-linecap="round" stroke-linejoin="round" stroke-width="1.0"/>
    <path d="M55.1 71.45 L54.65 71.45 35.8 71.5 35.8 71.4 35.8 71.5 54.65 71.45 55.1 71.8 Q76.55 89.5 55.2 123.6 48.65 138.05 54.5 153.35 L55.65 154.45 Q57.1 156.25 57.05 158.5 L58.0 159.6 Q58.5 160.3 58.2 162.6 43.3 164.7 31.95 161.4 31.8 159.3 33.45 158.6 32.45 154.9 35.8 153.35 41.6 138.1 35.05 123.7 18.9 89.95 35.8 71.4 34.6 69.85 35.8 68.35 L55.4 68.3 Q56.6 69.85 55.1 71.45 M44.0 84.65 L34.15 84.65 Q31.9 93.05 33.25 98.9 L43.6 98.9 Q42.1 93.0 44.0 84.65 M44.65 82.1 Q45.55 78.8 46.95 75.1 L37.55 75.1 Q35.95 78.8 34.9 82.1 L44.65 82.1 M33.45 158.6 Q45.7 161.3 58.0 159.6 45.7 161.3 33.45 158.6 M55.65 154.45 Q45.7 155.95 35.8 153.35 45.7 155.95 55.65 154.45" fill="#ccffff" fill-rule="evenodd" stroke="none"/>
    <path d="M55.1 71.45 Q56.6 69.85 55.4 68.3 L60.95 68.25 Q62.0 69.75 60.95 71.25 77.9 89.7 61.7 123.6 55.15 138.05 61.0 153.35 63.65 155.5 63.35 158.6 65.05 159.4 64.9 161.4 L58.2 162.6 Q58.5 160.3 58.0 159.6 L63.35 158.6 58.0 159.6 57.05 158.5 Q57.1 156.25 55.65 154.45 L54.5 153.35 Q48.65 138.05 55.2 123.6 76.55 89.5 55.1 71.8 L55.1 71.45 60.95 71.4 60.95 71.25 60.95 71.4 55.1 71.45 M61.0 153.35 L55.65 154.45 61.0 153.35" fill="#92fefd" fill-rule="evenodd" stroke="none"/>
    <path d="M44.0 84.65 Q42.1 93.0 43.6 98.9 L33.25 98.9 Q31.9 93.05 34.15 84.65 L44.0 84.65 M44.65 82.1 L34.9 82.1 Q35.95 78.8 37.55 75.1 L46.95 75.1 Q45.55 78.8 44.65 82.1" fill="#ffffff" fill-rule="evenodd" stroke="none"/>
    <path d="M54.65 71.45 L55.1 71.45 60.95 71.4 60.95 71.25 Q62.0 69.75 60.95 68.25 L55.4 68.3 35.8 68.35 Q34.6 69.85 35.8 71.4 L35.8 71.5 54.65 71.45 M60.95 71.25 Q77.9 89.7 61.7 123.6 55.15 138.05 61.0 153.35 63.65 155.5 63.35 158.6 65.05 159.4 64.9 161.4 L58.2 162.6 Q43.3 164.7 31.95 161.4 31.8 159.3 33.45 158.6 32.45 154.9 35.8 153.35 41.6 138.1 35.05 123.7 18.9 89.95 35.8 71.4 M63.35 158.6 L58.0 159.6 Q45.7 161.3 33.45 158.6 M55.65 154.45 L61.0 153.35 M35.8 153.35 Q45.7 155.95 55.65 154.45" fill="none" stroke="#000000" stroke-linecap="round" stroke-linejoin="round" stroke-width="1.0"/>
  </g>
</svg>
