<?xml version="1.0" encoding="UTF-8" standalone="no"?>
<svg xmlns:xlink="http://www.w3.org/1999/xlink" height="41.85px" width="19.7px" xmlns="http://www.w3.org/2000/svg">
  <g transform="matrix(1.0, 0.0, 0.0, 1.0, 0.5, 0.5)">
    <path d="M16.4 0.0 L18.7 0.0 17.4 11.05 17.4 11.6 16.4 12.25 15.0 13.4 16.4 0.0" fill="#d6fe81" fill-rule="evenodd" stroke="none"/>
    <path d="M1.0 10.05 L0.0 0.0 16.4 0.0 15.0 13.4 14.75 13.7 14.5 13.9 Q13.45 15.05 12.95 14.0 11.55 11.1 9.05 13.05 8.05 13.85 8.0 15.25 6.3 13.45 4.25 12.0 L1.0 10.05" fill="#ecffca" fill-rule="evenodd" stroke="none"/>
    <path d="M17.4 11.6 Q17.3 13.1 16.7 14.4 16.1 15.7 15.0 16.8 13.8 18.0 12.3 18.65 13.65 19.7 12.3 20.75 13.75 25.45 12.3 30.2 14.05 30.85 13.85 32.7 16.05 33.1 15.5 35.25 19.05 36.05 18.1 39.3 L15.8 40.05 Q16.6 36.7 13.55 35.8 L13.1 35.7 Q13.6 33.8 11.95 33.3 L11.45 33.15 Q11.6 31.65 10.45 30.9 L9.9 30.65 Q11.3 26.05 10.0 21.55 L9.9 21.2 Q11.2 20.2 10.0 19.2 L9.95 19.1 Q11.4 18.45 12.6 17.25 13.7 16.15 14.3 14.85 L14.65 13.95 14.75 13.7 15.0 13.4 16.4 12.25 17.4 11.6 M12.3 18.65 L10.0 19.2 12.3 18.65 M12.3 20.75 Q11.15 21.4 10.0 21.55 11.15 21.4 12.3 20.75 M13.85 32.7 L11.95 33.3 13.85 32.7 M12.3 30.2 L10.45 30.9 12.3 30.2 M15.5 35.25 L13.55 35.8 15.5 35.25" fill="#94eb01" fill-rule="evenodd" stroke="none"/>
    <path d="M15.8 40.05 Q8.55 42.0 1.3 39.3 0.25 35.6 3.75 35.25 2.95 33.7 5.3 32.7 5.1 31.05 6.55 30.5 L6.5 30.15 Q5.3 25.45 6.5 20.75 5.2 19.75 6.5 18.8 4.8 18.2 3.4 16.8 1.9 15.3 1.35 13.35 L1.05 10.35 1.0 10.05 4.25 12.0 Q6.3 13.45 8.0 15.25 8.05 13.85 9.05 13.05 11.55 11.1 12.95 14.0 13.45 15.05 14.5 13.9 L14.65 13.95 14.3 14.85 Q13.7 16.15 12.6 17.25 11.4 18.45 9.95 19.1 L9.9 19.1 9.9 19.2 10.0 19.2 Q11.2 20.2 9.9 21.2 L10.0 21.55 Q11.3 26.05 9.9 30.65 L10.45 30.9 Q8.55 31.25 6.75 30.15 L6.5 30.15 6.75 30.15 Q8.55 31.25 10.45 30.9 11.6 31.65 11.45 33.15 L11.95 33.3 Q13.6 33.8 13.1 35.7 L13.55 35.8 Q8.65 36.95 3.75 35.25 8.65 36.95 13.55 35.8 16.6 36.7 15.8 40.05 M6.5 18.8 L9.2 19.2 9.9 19.2 9.2 19.2 6.5 18.8 M6.5 20.75 Q8.25 21.7 10.0 21.55 8.25 21.7 6.5 20.75 M5.3 32.7 Q8.6 34.0 11.95 33.3 8.6 34.0 5.3 32.7" fill="#c2fe5f" fill-rule="evenodd" stroke="none"/>
    <path d="M16.4 0.0 L18.7 0.0 17.4 11.05 17.4 11.6 Q17.3 13.1 16.7 14.4 16.1 15.7 15.0 16.8 13.8 18.0 12.3 18.65 13.65 19.7 12.3 20.75 13.75 25.45 12.3 30.2 14.05 30.85 13.85 32.7 16.05 33.1 15.5 35.25 19.05 36.05 18.1 39.3 L15.8 40.05 Q8.55 42.0 1.3 39.3 0.25 35.6 3.75 35.25 2.95 33.7 5.3 32.7 5.1 31.05 6.55 30.5 L6.5 30.15 Q5.3 25.45 6.5 20.75 5.2 19.75 6.5 18.8 4.8 18.2 3.4 16.8 1.9 15.3 1.35 13.35 1.0 12.25 1.0 11.0 L1.05 10.35 1.0 10.05 0.0 0.0 16.4 0.0 M15.0 13.4 L16.4 12.25 17.4 11.6 M14.5 13.9 L14.75 13.7 M14.5 13.9 Q13.45 15.05 12.95 14.0 11.55 11.1 9.05 13.05 8.05 13.85 8.0 15.25 6.3 13.45 4.25 12.0 L1.0 10.05 M10.0 19.2 L12.3 18.65 M9.9 19.2 L10.0 19.2 M10.0 21.55 Q11.15 21.4 12.3 20.75 M9.9 19.2 L9.2 19.2 6.5 18.8 M1.05 10.35 L1.35 13.35 M6.5 30.15 L6.75 30.15 Q8.55 31.25 10.45 30.9 L12.3 30.2 M10.0 21.55 Q8.25 21.7 6.5 20.75 M11.95 33.3 L13.85 32.7 M13.55 35.8 L15.5 35.25 M13.55 35.8 Q8.65 36.95 3.75 35.25 M11.95 33.3 Q8.6 34.0 5.3 32.7" fill="none" stroke="#000000" stroke-linecap="round" stroke-linejoin="round" stroke-width="1.0"/>
  </g>
</svg>
