<?xml version="1.0" encoding="UTF-8" standalone="no"?>
<svg xmlns:xlink="http://www.w3.org/1999/xlink" height="85.55px" width="46.95px" xmlns="http://www.w3.org/2000/svg">
  <g transform="matrix(1.0, 0.0, 0.0, 1.0, 0.5, 0.5)">
    <path d="M12.55 18.95 L12.4 18.7 Q10.85 15.25 14.55 14.95 17.95 16.8 22.45 15.9 L23.7 15.6 22.45 15.9 Q17.95 16.8 14.55 14.95 13.75 12.35 16.5 11.65 16.3 10.0 17.15 8.85 17.65 8.15 18.45 7.6 20.5 8.9 20.7 12.55 L21.35 12.4 21.75 12.6 Q23.45 13.5 23.1 15.45 L23.7 15.6 24.45 15.9 Q26.15 16.75 25.8 19.1 L25.65 19.45 25.45 19.95 25.1 20.05 23.2 20.5 Q17.1 21.75 12.55 18.95 M20.7 12.55 L20.65 12.55 19.75 12.6 Q18.1 12.6 16.5 11.65 18.1 12.6 19.75 12.6 L20.65 12.55 20.7 12.55" fill="#ecffca" fill-rule="evenodd" stroke="none"/>
    <path d="M23.2 20.5 L25.1 20.05 25.45 19.95 28.15 18.95 Q26.6 22.5 25.9 26.1 32.55 22.6 35.95 23.6 39.35 24.6 45.95 28.6 41.95 29.25 42.8 30.0 43.75 33.4 43.9 38.25 44.05 42.8 40.4 47.65 L39.85 48.35 Q35.6 53.6 36.95 56.8 38.3 60.0 39.45 61.15 37.7 60.75 36.35 59.25 34.55 57.25 34.55 54.45 34.55 51.75 36.25 49.8 43.95 39.7 39.25 30.15 L40.55 28.85 Q36.5 22.95 25.55 28.25 23.8 41.9 33.7 56.35 35.9 58.7 36.8 61.65 L37.25 63.45 37.4 65.8 Q37.4 71.6 33.25 75.7 L30.1 78.1 Q31.6 79.5 30.3 80.5 32.0 82.15 30.3 83.8 L25.8 84.45 Q27.45 82.7 25.9 81.1 L25.8 81.0 Q27.1 80.0 25.8 78.6 L25.75 78.55 28.75 76.2 Q32.9 72.1 32.9 66.3 L32.75 63.95 32.3 62.15 Q31.4 59.2 29.2 56.85 19.3 42.4 21.05 28.75 L21.4 26.6 Q22.0 23.55 23.2 20.5 M19.55 7.0 L19.45 6.85 Q16.4 3.45 19.45 0.0 22.95 3.2 19.6 7.05 L19.55 7.0 M5.95 27.5 L7.7 27.5 Q9.4 30.35 9.7 32.65 10.15 36.4 9.8 39.6 9.45 42.75 9.25 46.75 9.05 50.25 12.3 55.85 L10.75 59.2 10.35 60.0 10.2 60.3 Q6.55 56.35 7.15 49.6 L8.05 39.6 Q8.4 36.4 7.95 32.65 7.65 30.35 5.95 27.5 M25.55 28.25 L25.9 26.1 25.55 28.25 M30.1 78.1 L29.95 78.2 25.8 78.6 29.95 78.2 30.1 78.1 M30.3 80.5 L25.9 81.1 30.3 80.5" fill="#94eb01" fill-rule="evenodd" stroke="none"/>
    <path d="M12.55 18.95 Q17.1 21.75 23.2 20.5 22.0 23.55 21.4 26.6 L21.05 28.75 Q19.3 42.4 29.2 56.85 31.4 59.2 32.3 62.15 L32.75 63.95 32.9 66.3 Q32.9 72.1 28.75 76.2 L25.75 78.55 25.65 78.6 25.8 78.6 Q27.1 80.0 25.8 81.0 L25.8 81.1 25.9 81.1 Q27.45 82.7 25.8 84.45 L16.0 83.8 Q14.5 82.15 16.05 80.5 14.6 79.35 16.05 78.2 L16.55 78.2 Q14.8 77.25 13.25 75.7 11.0 73.45 9.95 70.7 L9.3 68.1 Q5.5 65.75 4.25 63.2 2.95 60.6 3.05 56.95 3.15 53.3 4.2 49.75 5.25 46.2 6.2 39.2 7.05 32.6 0.0 27.5 L5.95 27.5 Q7.65 30.35 7.95 32.65 8.4 36.4 8.05 39.6 L7.15 49.6 Q6.55 56.35 10.2 60.3 L10.35 60.0 10.75 59.2 12.3 55.85 Q20.95 35.55 12.55 18.95 M25.45 19.95 L25.65 19.45 25.8 19.1 Q26.15 16.75 24.45 15.9 L23.7 15.6 23.1 15.45 Q23.45 13.5 21.75 12.6 L21.35 12.4 20.7 12.55 Q20.5 8.9 18.45 7.6 L19.55 7.0 19.6 7.05 Q23.2 8.65 23.1 11.65 26.05 12.45 25.6 14.95 28.75 15.45 28.3 18.6 L28.15 18.95 25.45 19.95 M23.1 11.65 L21.35 12.4 23.1 11.65 M25.6 14.95 L23.7 15.6 25.6 14.95 M9.3 68.1 L9.15 66.65 9.1 65.8 Q9.1 64.05 9.5 62.5 L10.2 60.3 9.5 62.5 Q9.1 64.05 9.1 65.8 L9.15 66.65 9.3 68.1 M20.4 73.5 L19.4 70.95 14.4 70.95 15.5 73.5 20.4 73.5 M16.05 80.5 L25.8 81.1 16.05 80.5 M16.55 78.2 L25.65 78.6 16.55 78.2 M20.4 58.85 L14.6 58.85 Q12.0 63.25 13.95 69.55 L19.0 69.55 Q17.75 64.2 20.4 58.85" fill="#c2fe5f" fill-rule="evenodd" stroke="none"/>
    <path d="M20.4 73.5 L15.5 73.5 14.4 70.95 19.4 70.95 20.4 73.5 M20.4 58.85 Q17.75 64.2 19.0 69.55 L13.95 69.55 Q12.0 63.25 14.6 58.85 L20.4 58.85" fill="#ffffff" fill-rule="evenodd" stroke="none"/>
    <path d="M14.55 14.95 Q10.85 15.25 12.4 18.7 L12.55 18.95 Q17.1 21.75 23.2 20.5 L25.1 20.05 25.45 19.95 28.15 18.95 Q26.6 22.5 25.9 26.1 32.55 22.6 35.95 23.6 39.35 24.6 45.95 28.6 41.95 29.25 42.8 30.0 43.75 33.4 43.9 38.25 44.05 42.8 40.4 47.65 L39.85 48.35 Q35.6 53.6 36.95 56.8 38.3 60.0 39.45 61.15 37.7 60.75 36.35 59.25 34.55 57.25 34.55 54.45 34.55 51.75 36.25 49.8 43.95 39.7 39.25 30.15 L40.55 28.85 Q36.5 22.95 25.55 28.25 23.8 41.9 33.7 56.35 35.9 58.7 36.8 61.65 L37.25 63.45 37.4 65.8 Q37.4 71.6 33.25 75.7 L30.1 78.1 Q31.6 79.5 30.3 80.5 32.0 82.15 30.3 83.8 L25.8 84.45 16.0 83.8 Q14.5 82.15 16.05 80.5 14.6 79.35 16.05 78.2 L16.55 78.2 Q14.8 77.25 13.25 75.7 11.0 73.45 9.95 70.7 L9.3 68.1 Q5.5 65.75 4.25 63.2 2.95 60.6 3.05 56.95 3.15 53.3 4.2 49.75 5.25 46.2 6.2 39.2 7.05 32.6 0.0 27.5 L5.95 27.5 7.7 27.5 Q9.4 30.35 9.7 32.65 10.15 36.4 9.8 39.6 9.45 42.75 9.25 46.75 9.05 50.25 12.3 55.85 20.95 35.55 12.55 18.95 M23.7 15.6 L22.45 15.9 Q17.95 16.8 14.55 14.95 13.75 12.35 16.5 11.65 16.3 10.0 17.15 8.85 17.65 8.15 18.45 7.6 L19.55 7.0 19.45 6.85 Q16.4 3.45 19.45 0.0 22.95 3.2 19.6 7.05 23.2 8.65 23.1 11.65 26.05 12.45 25.6 14.95 28.75 15.45 28.3 18.6 L28.15 18.95 M19.6 7.05 L19.55 7.0 M20.7 12.55 L21.35 12.4 23.1 11.65 M16.5 11.65 Q18.1 12.6 19.75 12.6 L20.65 12.55 20.7 12.55 M23.7 15.6 L25.6 14.95 M25.9 26.1 L25.55 28.25 M25.8 78.6 L29.95 78.2 30.1 78.1 M10.2 60.3 L10.35 60.0 10.75 59.2 12.3 55.85 M10.2 60.3 L9.5 62.5 Q9.1 64.05 9.1 65.8 L9.15 66.65 9.3 68.1 M25.8 81.0 L25.9 81.1 30.3 80.5 M25.8 81.1 L25.9 81.1 M25.75 78.55 L25.65 78.6 25.8 78.6 M25.65 78.6 L16.55 78.2 M25.8 81.1 L16.05 80.5" fill="none" stroke="#000000" stroke-linecap="round" stroke-linejoin="round" stroke-width="1.0"/>
  </g>
</svg>
