<?xml version="1.0" encoding="UTF-8" standalone="no"?>
<svg xmlns:xlink="http://www.w3.org/1999/xlink" height="144.65px" width="20.3px" xmlns="http://www.w3.org/2000/svg">
  <g transform="matrix(1.0, 0.0, 0.0, 1.0, 0.5, 0.5)">
    <path d="M9.8 0.0 L9.8 64.55" fill="none" stroke="#000000" stroke-linecap="round" stroke-linejoin="round" stroke-width="1.0"/>
    <path d="M8.45 3.05 Q9.1 2.45 10.0 2.45 10.9 2.45 11.5 3.05 12.15 3.7 12.15 4.6 12.15 5.5 11.5 6.1 10.9 6.75 10.0 6.75 9.1 6.75 8.45 6.1 7.85 5.5 7.85 4.6 7.85 3.7 8.45 3.05 M9.6 8.85 Q9.5 9.3 10.2 9.3 L10.75 9.45 Q11.1 9.3 11.25 9.3 L11.35 8.9 11.1 8.6 11.1 8.4 10.5 7.8 10.05 8.0 Q9.6 8.05 9.6 8.6 L9.6 8.85 M9.75 4.15 L9.75 4.4 Q9.65 4.85 10.35 4.85 L10.9 5.0 11.4 4.85 11.5 4.45 11.25 4.15 11.25 3.95 10.65 3.35 Q10.35 3.35 10.2 3.55 9.75 3.6 9.75 4.15 M8.3 7.5 Q8.95 6.9 9.85 6.9 10.75 6.9 11.35 7.5 12.0 8.15 12.0 9.05 12.0 9.95 11.35 10.55 10.75 11.2 9.85 11.2 8.95 11.2 8.3 10.55 7.7 9.95 7.7 9.05 7.7 8.15 8.3 7.5 M10.2 17.85 Q9.75 17.9 9.75 18.45 L9.75 18.7 Q9.65 19.15 10.35 19.15 L10.9 19.3 11.4 19.15 11.5 18.75 11.25 18.45 11.25 18.25 10.65 17.65 Q10.35 17.65 10.2 17.85 M10.0 16.75 Q10.9 16.75 11.5 17.35 12.15 18.0 12.15 18.9 12.15 19.8 11.5 20.4 10.9 21.05 10.0 21.05 9.1 21.05 8.45 20.4 7.85 19.8 7.85 18.9 7.85 18.0 8.45 17.35 9.1 16.75 10.0 16.75 M10.5 22.95 L10.5 22.85 10.2 22.55 Q10.0 22.55 9.95 22.65 L9.75 22.95 9.75 23.1 10.05 23.3 10.3 23.4 10.55 23.3 10.6 23.1 10.5 22.95 M10.6 22.4 L10.95 23.2 Q10.95 23.65 10.6 23.95 10.3 24.25 9.85 24.25 9.4 24.25 9.1 23.95 8.8 23.65 8.8 23.2 8.8 22.75 9.1 22.4 9.2 22.25 9.4 22.2 L9.85 22.1 10.35 22.2 10.6 22.4 M9.85 26.0 Q10.75 26.0 11.35 26.6 12.0 27.25 12.0 28.15 12.0 29.05 11.35 29.65 10.75 30.3 9.85 30.3 8.95 30.3 8.3 29.65 7.7 29.05 7.7 28.15 7.7 27.25 8.3 26.6 8.95 26.0 9.85 26.0 M10.05 27.1 Q9.6 27.15 9.6 27.7 L9.6 27.95 Q9.5 28.4 10.2 28.4 L10.75 28.55 Q11.1 28.4 11.25 28.4 L11.35 28.0 11.1 27.7 11.1 27.5 10.5 26.9 10.05 27.1 M10.9 50.8 L11.4 50.65 11.5 50.25 11.25 49.95 11.25 49.75 10.65 49.15 Q10.35 49.15 10.2 49.35 9.75 49.4 9.75 49.95 L9.75 50.2 Q9.65 50.65 10.35 50.65 L10.9 50.8 M11.5 51.9 Q10.9 52.55 10.0 52.55 9.1 52.55 8.45 51.9 7.85 51.3 7.85 50.4 7.85 49.5 8.45 48.85 9.1 48.25 10.0 48.25 10.9 48.25 11.5 48.85 12.15 49.5 12.15 50.4 12.15 51.3 11.5 51.9 M11.35 59.5 L11.1 59.2 11.1 59.0 10.5 58.4 10.05 58.6 Q9.6 58.65 9.6 59.2 L9.6 59.45 Q9.5 59.9 10.2 59.9 L10.75 60.05 Q11.1 59.9 11.25 59.9 L11.35 59.5 M11.35 61.15 Q10.75 61.8 9.85 61.8 8.95 61.8 8.3 61.15 7.7 60.55 7.7 59.65 7.7 58.75 8.3 58.1 8.95 57.5 9.85 57.5 10.75 57.5 11.35 58.1 12.0 58.75 12.0 59.65 12.0 60.55 11.35 61.15 M10.35 53.7 L10.6 53.9 10.95 54.7 Q10.95 55.15 10.6 55.45 10.3 55.75 9.85 55.75 9.4 55.75 9.1 55.45 8.8 55.15 8.8 54.7 8.8 54.25 9.1 53.9 9.2 53.75 9.4 53.7 L10.35 53.7 M10.05 54.8 L10.3 54.9 10.55 54.8 10.6 54.6 10.5 54.45 10.5 54.35 10.2 54.05 Q10.0 54.05 9.95 54.15 L9.75 54.45 9.75 54.6 10.05 54.8" fill="#3399ff" fill-rule="evenodd" stroke="none"/>
    <path d="M9.75 4.15 Q9.75 3.6 10.2 3.55 10.35 3.35 10.65 3.35 L11.25 3.95 11.25 4.15 11.5 4.45 11.4 4.85 10.9 5.0 10.35 4.85 Q9.65 4.85 9.75 4.4 L9.75 4.15 M9.6 8.85 L9.6 8.6 Q9.6 8.05 10.05 8.0 L10.5 7.8 11.1 8.4 11.1 8.6 11.35 8.9 11.25 9.3 Q11.1 9.3 10.75 9.45 L10.2 9.3 Q9.5 9.3 9.6 8.85 M10.2 17.85 Q10.35 17.65 10.65 17.65 L11.25 18.25 11.25 18.45 11.5 18.75 11.4 19.15 10.9 19.3 10.35 19.15 Q9.65 19.15 9.75 18.7 L9.75 18.45 Q9.75 17.9 10.2 17.85 M10.5 22.95 L10.6 23.1 10.55 23.3 10.3 23.4 10.05 23.3 9.75 23.1 9.75 22.95 9.95 22.65 Q10.0 22.55 10.2 22.55 L10.5 22.85 10.5 22.95 M10.05 27.1 L10.5 26.9 11.1 27.5 11.1 27.7 11.35 28.0 11.25 28.4 Q11.1 28.4 10.75 28.55 L10.2 28.4 Q9.5 28.4 9.6 27.95 L9.6 27.7 Q9.6 27.15 10.05 27.1 M10.9 50.8 L10.35 50.65 Q9.65 50.65 9.75 50.2 L9.75 49.95 Q9.75 49.4 10.2 49.35 10.35 49.15 10.65 49.15 L11.25 49.75 11.25 49.95 11.5 50.25 11.4 50.65 10.9 50.8 M11.35 59.5 L11.25 59.9 Q11.1 59.9 10.75 60.05 L10.2 59.9 Q9.5 59.9 9.6 59.45 L9.6 59.2 Q9.6 58.65 10.05 58.6 L10.5 58.4 11.1 59.0 11.1 59.2 11.35 59.5 M10.05 54.8 L9.75 54.6 9.75 54.45 9.95 54.15 Q10.0 54.05 10.2 54.05 L10.5 54.35 10.5 54.45 10.6 54.6 10.55 54.8 10.3 54.9 10.05 54.8" fill="#ffffff" fill-rule="evenodd" stroke="none"/>
    <path d="M8.85 14.65 L9.1 15.4 8.85 14.65 8.85 14.6 Q8.85 14.05 9.15 13.55 8.55 13.0 5.9 13.0 3.15 13.0 3.15 15.15 3.15 16.3 4.85 16.3 7.0 16.3 8.8 14.65 L8.85 14.65 M11.45 14.75 Q11.2 15.8 10.45 15.8 9.5 15.8 9.1 15.4 7.45 16.5 6.5 17.7 5.75 18.65 4.45 18.65 2.4 18.65 1.15 17.15 0.0 15.8 0.0 14.15 0.0 10.55 3.15 10.55 6.45 10.55 9.7 13.05 L10.1 12.65 Q11.3 12.75 11.5 13.3 11.3 12.75 10.1 12.65 10.45 11.85 11.9 10.95 13.8 9.7 16.15 9.7 17.5 9.7 18.5 11.8 19.3 13.6 19.3 15.05 19.3 17.45 15.55 17.45 13.1 17.45 11.45 14.75 L11.5 14.5 11.45 14.75 M11.5 13.3 L11.55 13.55 11.5 14.5 14.5 15.65 Q16.15 15.65 16.15 14.75 16.15 12.35 14.0 12.35 12.5 12.35 11.5 13.3" fill="#ff0000" fill-rule="evenodd" stroke="none"/>
    <path d="M10.15 31.6 L10.3 31.6 10.2 31.65 Q9.55 31.55 9.9 31.55 L10.15 31.6 M10.15 47.2 L9.9 47.15 9.75 47.15 Q9.75 47.05 10.05 47.05 7.7 46.6 6.15 44.7 4.6 42.75 4.5 39.5 4.4 36.25 6.05 34.15 7.35 32.5 9.1 31.9 L10.05 31.7 Q12.35 32.05 14.0 34.15 15.6 36.25 15.55 39.5 15.5 42.75 13.9 44.7 12.45 46.4 10.45 46.95 L10.05 47.05 Q10.3 47.05 10.15 47.2 M9.15 36.05 L9.1 31.9 9.15 36.05 Q8.25 36.25 7.55 36.9 6.6 37.9 6.6 39.25 6.6 40.6 7.55 41.55 8.55 42.55 9.9 42.55 L10.45 42.5 Q11.45 42.35 12.2 41.55 13.2 40.6 13.2 39.25 13.2 37.9 12.2 36.9 11.25 35.95 9.9 35.95 L9.15 36.05 M10.45 46.95 L10.45 42.5 10.45 46.95" fill="#99ff00" fill-rule="evenodd" stroke="none"/>
    <path d="M10.2 31.65 L10.3 31.6 Q13.45 31.85 15.4 33.8 17.7 36.1 17.7 39.35 17.7 42.6 15.4 44.85 13.45 46.85 10.0 47.25 L10.15 47.2 Q10.3 47.05 10.05 47.05 L10.45 46.95 Q12.45 46.4 13.9 44.7 15.5 42.75 15.55 39.5 15.6 36.25 14.0 34.15 12.35 32.05 10.05 31.7 L10.2 31.65" fill="#85db02" fill-rule="evenodd" stroke="none"/>
    <path d="M9.75 47.15 L9.8 47.25 Q6.4 46.9 4.35 44.85 2.1 42.6 2.1 39.35 2.1 36.1 4.35 33.8 6.4 31.8 10.2 31.65 L10.05 31.7 9.1 31.9 Q7.35 32.5 6.05 34.15 4.4 36.25 4.5 39.5 4.6 42.75 6.15 44.7 7.7 46.6 10.05 47.05 9.75 47.05 9.75 47.15" fill="#ebffcc" fill-rule="evenodd" stroke="none"/>
    <path d="M12.45 70.15 Q13.85 70.65 13.85 72.4 L13.85 140.5 Q12.35 142.65 10.9 143.35 L10.9 73.65 Q6.9 74.0 5.7 72.1 L5.7 72.05 5.65 72.0 Q5.7 70.95 7.0 70.05 9.9 71.35 12.45 70.15" fill="#cc0000" fill-rule="evenodd" stroke="none"/>
    <path d="M12.6 66.65 L12.6 70.05 12.45 70.15 Q9.9 71.35 7.0 70.05 L7.15 66.25 Q7.25 67.2 7.85 67.75 8.4 68.3 9.6 68.35 10.8 68.4 11.6 67.9 12.4 67.35 12.6 66.65" fill="#ffcc00" fill-rule="evenodd" stroke="none"/>
    <path d="M7.15 66.25 L7.15 66.0 Q7.15 64.9 7.95 64.15 8.75 63.4 9.9 63.4 11.05 63.4 11.85 64.15 12.65 64.9 12.65 66.0 L12.6 66.65 Q12.4 67.35 11.6 67.9 10.8 68.4 9.6 68.35 8.4 68.3 7.85 67.75 7.25 67.2 7.15 66.25" fill="#ff3300" fill-rule="evenodd" stroke="none"/>
    <path d="M5.65 72.15 L5.65 72.1 5.7 72.05 5.7 72.1 5.65 72.15" fill="#ff6600" fill-rule="evenodd" stroke="none"/>
    <path d="M10.9 143.35 Q8.15 144.6 5.65 140.5 L5.65 72.15 5.7 72.1 Q6.9 74.0 10.9 73.65 L10.9 143.35" fill="#fe4e4e" fill-rule="evenodd" stroke="none"/>
    <path d="M8.45 3.05 Q9.1 2.45 10.0 2.45 10.9 2.45 11.5 3.05 12.15 3.7 12.15 4.6 12.15 5.5 11.5 6.1 10.9 6.75 10.0 6.75 9.1 6.75 8.45 6.1 7.85 5.5 7.85 4.6 7.85 3.7 8.45 3.05 M8.3 7.5 Q8.95 6.9 9.85 6.9 10.75 6.9 11.35 7.5 12.0 8.15 12.0 9.05 12.0 9.95 11.35 10.55 10.75 11.2 9.85 11.2 8.95 11.2 8.3 10.55 7.7 9.95 7.7 9.05 7.7 8.15 8.3 7.5 M9.1 15.4 L8.85 14.65 8.8 14.65 Q7.0 16.3 4.85 16.3 3.15 16.3 3.15 15.15 3.15 13.0 5.9 13.0 8.55 13.0 9.15 13.55 8.85 14.05 8.85 14.6 L8.85 14.65 8.85 14.6 M10.1 12.65 L9.7 13.05 Q6.45 10.55 3.15 10.55 0.0 10.55 0.0 14.15 0.0 15.8 1.15 17.15 2.4 18.65 4.45 18.65 5.75 18.65 6.5 17.7 7.45 16.5 9.1 15.4 9.5 15.8 10.45 15.8 11.2 15.8 11.45 14.75 L11.5 14.5 11.55 13.55 11.5 13.3 Q11.3 12.75 10.1 12.65 10.45 11.85 11.9 10.95 13.8 9.7 16.15 9.7 17.5 9.7 18.5 11.8 19.3 13.6 19.3 15.05 19.3 17.45 15.55 17.45 13.1 17.45 11.45 14.75 M10.0 16.75 Q10.9 16.75 11.5 17.35 12.15 18.0 12.15 18.9 12.15 19.8 11.5 20.4 10.9 21.05 10.0 21.05 9.1 21.05 8.45 20.4 7.85 19.8 7.85 18.9 7.85 18.0 8.45 17.35 9.1 16.75 10.0 16.75 M9.85 26.0 Q10.75 26.0 11.35 26.6 12.0 27.25 12.0 28.15 12.0 29.05 11.35 29.65 10.75 30.3 9.85 30.3 8.95 30.3 8.3 29.65 7.7 29.05 7.7 28.15 7.7 27.25 8.3 26.6 8.95 26.0 9.85 26.0 M9.1 31.9 L9.15 36.05 M10.45 42.5 L10.45 46.95 M11.5 13.3 Q12.5 12.35 14.0 12.35 16.15 12.35 16.15 14.75 16.15 15.65 14.5 15.65 L11.5 14.5 M12.6 66.65 L12.6 70.05 12.45 70.15 Q13.85 70.65 13.85 72.4 M13.85 140.5 Q12.35 142.65 10.9 143.35 8.15 144.6 5.65 140.5 M5.65 72.15 L5.65 72.1 5.65 72.0 Q5.7 70.95 7.0 70.05 L7.15 66.25 7.15 66.0 Q7.15 64.9 7.95 64.15 8.75 63.4 9.9 63.4 11.05 63.4 11.85 64.15 12.65 64.9 12.65 66.0 L12.6 66.65 Q12.4 67.35 11.6 67.9 10.8 68.4 9.6 68.35 8.4 68.3 7.85 67.75 7.25 67.2 7.15 66.25 M5.7 72.05 L5.65 72.0 M7.0 70.05 Q9.9 71.35 12.45 70.15" fill="none" stroke="#000000" stroke-linecap="round" stroke-linejoin="round" stroke-width="1.0"/>
    <path d="M10.6 22.4 L10.95 23.2 Q10.95 23.65 10.6 23.95 10.3 24.25 9.85 24.25 9.4 24.25 9.1 23.95 8.8 23.65 8.8 23.2 8.8 22.75 9.1 22.4 9.2 22.25 9.4 22.2 L9.85 22.1 10.35 22.2 10.6 22.4 M10.3 31.6 L10.15 31.6 M10.3 31.6 Q13.45 31.85 15.4 33.8 17.7 36.1 17.7 39.35 17.7 42.6 15.4 44.85 13.45 46.85 10.0 47.25 M9.8 47.25 Q6.4 46.9 4.35 44.85 2.1 42.6 2.1 39.35 2.1 36.1 4.35 33.8 6.4 31.8 10.2 31.65 M9.15 36.05 L9.9 35.95 Q11.25 35.95 12.2 36.9 13.2 37.9 13.2 39.25 13.2 40.6 12.2 41.55 11.45 42.35 10.45 42.5 M9.15 36.05 Q8.25 36.25 7.55 36.9 6.6 37.9 6.6 39.25 6.6 40.6 7.55 41.55 8.55 42.55 9.9 42.55 L10.45 42.5 M11.5 51.9 Q10.9 52.55 10.0 52.55 9.1 52.55 8.45 51.9 7.85 51.3 7.85 50.4 7.85 49.5 8.45 48.85 9.1 48.25 10.0 48.25 10.9 48.25 11.5 48.85 12.15 49.5 12.15 50.4 12.15 51.3 11.5 51.9 M11.35 61.15 Q10.75 61.8 9.85 61.8 8.95 61.8 8.3 61.15 7.7 60.55 7.7 59.65 7.7 58.75 8.3 58.1 8.95 57.5 9.85 57.5 10.75 57.5 11.35 58.1 12.0 58.75 12.0 59.65 12.0 60.55 11.35 61.15 M13.85 72.4 L13.85 140.5 M5.65 140.5 L5.65 72.15 M10.35 53.7 L10.6 53.9 10.95 54.7 Q10.95 55.15 10.6 55.45 10.3 55.75 9.85 55.75 9.4 55.75 9.1 55.45 8.8 55.15 8.8 54.7 8.8 54.25 9.1 53.9 9.2 53.75 9.4 53.7 L9.85 53.6 10.35 53.7" fill="none" stroke="#000000" stroke-linecap="round" stroke-linejoin="round" stroke-width="1.0"/>
  </g>
</svg>
