<?xml version="1.0" encoding="UTF-8" standalone="no"?>
<svg xmlns:xlink="http://www.w3.org/1999/xlink" height="68.7px" width="83.7px" xmlns="http://www.w3.org/2000/svg">
  <g transform="matrix(1.0, 0.0, 0.0, 1.0, 0.5, 0.5)">
    <path d="M82.25 28.9 L82.55 29.25 67.35 66.7 49.75 67.65 60.65 30.35 82.25 28.9 M37.4 56.2 Q34.9 57.55 32.75 59.8 30.7 61.95 29.45 64.65 L14.05 65.5 Q15.3 62.95 17.35 60.8 22.7 55.15 30.3 55.15 L31.4 55.2 33.3 55.3 34.5 55.5 37.4 56.2" fill="#fefd81" fill-rule="evenodd" stroke="none"/>
    <path d="M49.75 67.65 L49.55 67.7 49.45 67.7 Q47.65 62.9 42.9 59.1 40.45 57.15 37.4 56.2 L34.5 55.5 33.3 55.3 31.4 55.2 30.3 55.15 Q22.7 55.15 17.35 60.8 15.3 62.95 14.05 65.5 L13.9 65.5 14.05 65.5 13.95 65.65 13.9 65.5 0.0 32.0 Q4.35 3.05 31.4 0.05 L31.75 0.05 Q56.5 3.25 60.65 30.35 L49.75 67.65 M24.75 33.85 L24.6 33.95 25.45 32.35 25.75 33.25 24.75 33.85 M23.6 30.5 L24.25 30.9 23.2 32.85 21.95 35.75 20.25 36.85 20.4 36.0 Q21.0 32.6 21.05 29.8 22.55 29.95 23.6 30.5 M21.05 29.75 L21.05 29.8 20.75 29.75 21.05 29.75 21.05 29.4 21.05 28.7 21.05 28.6 Q21.7 26.65 23.35 25.1 L23.6 24.8 23.9 24.45 24.9 22.9 26.0 20.5 26.35 19.6 Q27.35 16.7 29.4 14.7 L30.3 13.9 30.85 13.5 31.85 12.4 Q34.15 9.95 36.3 9.4 L37.65 9.25 34.95 9.4 Q31.7 9.95 29.1 12.4 L28.8 12.65 27.05 14.7 26.15 15.95 23.6 20.5 21.65 24.45 20.95 26.05 20.7 24.45 20.2 22.9 20.1 22.75 Q19.45 21.5 17.35 21.5 15.1 21.5 12.6 23.75 L12.05 24.2 10.8 25.2 7.55 27.5 6.5 28.15 7.55 27.6 10.8 25.95 Q11.45 25.6 12.05 25.35 15.3 23.7 15.4 23.7 16.5 23.7 17.5 27.75 L17.95 29.8 19.4 29.7 20.75 29.75 18.05 30.2 18.4 34.45 18.65 36.85 18.7 37.35 18.8 37.8 Q16.8 39.05 15.5 40.0 L15.4 39.95 Q12.8 39.05 12.05 36.85 L11.75 35.4 11.75 30.85 Q11.15 32.3 10.8 33.85 L10.7 34.45 10.45 36.85 10.4 37.6 Q10.4 38.65 10.8 39.65 L11.6 41.05 13.85 43.4 15.4 44.65 19.45 48.45 19.45 47.75 Q19.45 44.3 16.5 41.05 L16.2 40.75 18.2 40.25 19.3 40.0 20.65 39.45 20.7 39.45 Q20.0 42.15 20.0 44.6 20.0 46.4 20.4 48.0 L20.6 47.95 21.7 47.3 23.05 46.5 23.65 46.15 Q25.35 45.1 26.4 44.05 L27.45 42.55 28.9 39.15 29.5 37.35 29.95 35.85 30.1 35.05 Q32.7 33.6 34.3 33.25 L35.45 33.05 36.2 33.05 38.5 33.1 42.25 33.3 43.5 33.4 49.15 34.15 Q47.65 33.2 43.95 32.2 L42.8 31.9 41.45 31.55 38.5 30.9 36.2 30.5 34.3 30.4 33.95 30.4 29.95 31.2 28.5 31.55 26.95 30.5 26.75 30.4 Q29.9 26.05 34.95 23.6 27.65 25.6 24.85 29.9 L23.6 29.75 22.45 29.7 21.05 29.75 M15.4 40.05 L15.5 40.0 16.2 40.75 15.4 41.0 15.1 41.05 13.1 41.65 13.9 41.05 15.4 40.05 M25.6 41.8 Q25.65 42.7 23.6 45.0 L21.7 46.9 Q21.65 42.6 22.85 38.6 L23.0 38.5 24.95 37.85 25.6 37.7 25.6 41.05 25.6 41.8" fill="#fffff7" fill-rule="evenodd" stroke="none"/>
    <path d="M42.25 33.3 L38.5 33.1 36.2 33.05 35.45 33.05 34.3 33.25 Q32.7 33.6 30.1 35.05 L29.95 35.85 29.5 37.35 28.9 39.15 27.45 42.55 26.4 44.05 Q25.35 45.1 23.65 46.15 L23.05 46.5 21.7 47.3 20.6 47.95 20.4 48.0 Q20.0 46.4 20.0 44.6 20.0 42.15 20.7 39.45 L20.65 39.45 19.3 40.0 18.2 40.25 16.2 40.75 16.5 41.05 Q19.45 44.3 19.45 47.75 L19.45 48.45 15.4 44.65 13.85 43.4 11.6 41.05 10.8 39.65 Q10.4 38.65 10.4 37.6 L10.45 36.85 10.7 34.45 10.8 33.85 Q11.15 32.3 11.75 30.85 L11.75 35.4 12.05 36.85 Q12.8 39.05 15.4 39.95 L15.5 40.0 Q16.8 39.05 18.8 37.8 L18.7 37.35 18.65 36.85 18.4 34.45 18.05 30.2 20.75 29.75 19.4 29.7 17.95 29.8 17.5 27.75 Q16.5 23.7 15.4 23.7 15.3 23.7 12.05 25.35 11.45 25.6 10.8 25.95 L7.55 27.6 6.5 28.15 7.55 27.5 10.8 25.2 12.05 24.2 12.6 23.75 Q15.1 21.5 17.35 21.5 19.45 21.5 20.1 22.75 L20.2 22.9 20.7 24.45 20.95 26.05 21.65 24.45 23.6 20.5 26.15 15.95 27.05 14.7 28.8 12.65 29.1 12.4 Q31.7 9.95 34.95 9.4 L37.65 9.25 36.3 9.4 Q34.15 9.95 31.85 12.4 L30.85 13.5 30.3 13.9 29.4 14.7 Q27.35 16.7 26.35 19.6 L26.0 20.5 24.9 22.9 23.9 24.45 23.6 24.8 23.35 25.1 Q21.7 26.65 21.05 28.6 L21.05 28.7 21.05 29.4 21.05 29.75 22.45 29.7 23.6 29.75 24.85 29.9 Q27.65 25.6 34.95 23.6 29.9 26.05 26.75 30.4 L26.95 30.5 28.5 31.55 29.95 31.2 33.95 30.4 34.3 30.4 36.2 30.5 38.5 30.9 41.45 31.55 42.8 31.9 43.95 32.2 Q47.65 33.2 49.15 34.15 L43.5 33.4 42.25 33.3 M15.4 40.05 L13.9 41.05 13.1 41.65 15.1 41.05 15.4 41.0 16.2 40.75 15.5 40.0 15.4 40.05 M21.05 29.75 L20.75 29.75 21.05 29.8 21.05 29.75 M23.6 30.5 Q22.55 29.95 21.05 29.8 21.0 32.6 20.4 36.0 L20.25 36.85 21.95 35.75 23.2 32.85 24.25 30.9 23.6 30.5 M24.75 33.85 L25.75 33.25 25.45 32.35 24.6 33.95 24.75 33.85 M25.6 41.8 L25.6 41.05 25.6 37.7 24.95 37.85 23.0 38.5 22.85 38.6 Q21.65 42.6 21.7 46.9 L23.6 45.0 Q25.65 42.7 25.6 41.8" fill="#003300" fill-rule="evenodd" stroke="none"/>
    <path d="M31.75 0.05 L54.4 0.25 Q72.05 0.8 82.25 28.9 L60.65 30.35 Q56.5 3.25 31.75 0.05" fill="#ffffcc" fill-rule="evenodd" stroke="none"/>
    <path d="M82.55 29.25 L82.7 28.9 82.25 28.9 82.55 29.25 67.35 66.7 49.75 67.65 49.55 67.7 49.45 67.7 Q47.65 62.9 42.9 59.1 40.45 57.15 37.4 56.2 34.9 57.55 32.75 59.8 30.7 61.95 29.45 64.65 L14.05 65.5 13.95 65.65 13.9 65.5 0.0 32.0 Q4.35 3.05 31.4 0.05 L31.4 0.0 31.4 0.05 31.75 0.05 54.4 0.25 Q72.05 0.8 82.25 28.9 L60.65 30.35 49.75 67.65 M14.05 65.5 Q15.3 62.95 17.35 60.8 22.7 55.15 30.3 55.15 L31.4 55.2 33.3 55.3 34.5 55.5 37.4 56.2 M13.9 65.5 L14.05 65.5 M60.65 30.35 Q56.5 3.25 31.75 0.05" fill="none" stroke="#000000" stroke-linecap="round" stroke-linejoin="round" stroke-width="1.0"/>
  </g>
</svg>
