<?xml version="1.0" encoding="UTF-8" standalone="no"?>
<svg xmlns:xlink="http://www.w3.org/1999/xlink" height="17.1px" width="39.3px" xmlns="http://www.w3.org/2000/svg">
  <g transform="matrix(1.0, 0.0, 0.0, 1.0, -0.65, -4.0)">
    <path d="M39.8 18.0 L39.95 17.9 39.85 18.0 Q29.9 25.65 21.3 14.55 L21.5 14.7 Q32.1 21.65 39.8 18.0 M11.2 11.3 L11.4 11.3 11.3 11.4 Q4.15 15.2 0.75 4.25 L0.65 4.0 0.85 4.35 Q4.85 11.55 11.2 11.3" fill="#000000" fill-rule="evenodd" stroke="none"/>
    <path d="M21.5 14.7 Q30.15 18.95 39.8 18.0 32.1 21.65 21.5 14.7 M0.85 4.35 Q5.3 9.75 11.2 11.3 4.85 11.55 0.85 4.35" fill="#fec1ab" fill-rule="evenodd" stroke="none"/>
  </g>
</svg>
