<?xml version="1.0" encoding="UTF-8" standalone="no"?>
<svg xmlns:xlink="http://www.w3.org/1999/xlink" height="521.05px" width="382.7px" xmlns="http://www.w3.org/2000/svg">
  <g transform="matrix(1.0, 0.0, 0.0, 1.0, 0.5, 0.5)">
    <path d="M275.6 72.7 L278.45 72.8 Q278.0 74.3 277.8 76.1 277.5 78.45 277.5 88.75 L277.75 95.65 277.75 95.7 277.75 95.75 278.35 103.35 Q277.9 103.4 278.25 103.65 L278.35 103.7 278.5 105.0 278.6 105.95 278.6 106.05 278.85 108.4 279.65 114.9 280.55 120.4 279.65 114.9 280.0 115.5 281.7 117.85 281.65 118.0 280.65 120.15 280.55 120.4 280.75 121.25 Q280.2 120.8 280.6 121.3 L280.2 121.25 277.65 121.05 280.2 121.25 280.6 121.3 280.8 121.6 278.3 129.75 277.95 129.65 278.25 129.95 281.55 132.8 281.85 133.05 282.3 133.45 285.3 136.35 289.4 141.05 Q292.85 145.35 296.8 149.3 300.95 153.35 306.4 155.7 L307.4 156.15 Q308.1 156.45 309.45 157.25 L311.9 158.75 313.4 159.45 313.55 159.5 Q315.9 160.15 318.2 158.6 320.75 156.85 323.95 155.95 L324.0 155.95 324.6 155.8 324.85 154.45 325.85 146.8 326.2 144.05 326.25 143.5 Q327.7 149.9 327.8 158.6 L327.3 160.05 326.3 162.45 Q324.0 167.6 320.5 171.8 316.75 176.25 310.85 177.05 307.15 177.55 303.9 176.4 L303.65 176.35 Q300.75 178.15 298.45 180.5 L290.7 181.35 282.35 181.35 Q280.4 175.0 277.65 171.4 L277.5 171.25 277.4 171.05 277.35 171.35 276.95 176.3 274.8 189.75 Q271.3 208.5 266.95 216.3 L261.8 225.75 283.85 302.1 285.35 306.05 Q294.35 329.5 296.85 346.5 297.9 353.6 297.8 359.6 297.55 379.4 299.85 387.65 300.55 390.15 302.0 393.6 305.35 401.4 312.8 413.9 L324.95 433.7 Q328.5 439.75 330.7 444.2 L332.45 447.9 Q334.15 451.9 334.4 454.15 L334.4 454.2 334.7 456.15 Q335.65 461.1 338.25 465.7 L339.7 468.05 Q343.5 473.65 343.8 477.0 L343.8 477.55 343.7 482.1 346.3 479.75 346.65 480.15 348.9 482.6 Q346.95 484.35 345.25 486.25 L344.55 485.2 343.55 483.7 Q343.2 487.5 342.45 490.35 L341.55 492.9 Q339.35 497.95 334.4 500.0 331.25 501.3 325.7 501.75 L321.9 501.95 303.4 501.9 286.85 502.2 286.9 501.9 Q295.8 497.35 298.75 496.3 304.55 494.2 315.0 494.2 328.6 494.2 331.0 493.9 L331.0 484.95 331.05 485.1 Q333.45 492.55 335.3 484.6 L335.85 481.85 336.05 479.75 Q336.1 477.0 335.3 473.55 L334.1 469.45 Q332.95 466.15 331.2 462.4 L327.5 455.2 323.05 447.65 320.75 443.95 319.6 442.2 Q301.3 414.35 288.55 393.0 284.95 383.3 284.4 375.2 284.1 370.9 284.5 361.0 L284.65 351.35 Q284.6 347.65 286.65 345.65 288.65 343.6 287.6 339.05 L282.0 316.25 Q277.5 297.95 272.4 287.9 267.3 277.8 262.3 258.95 257.35 240.4 255.4 238.1 L255.35 238.05 255.4 237.95 255.45 237.75 Q258.05 232.7 261.8 225.75 258.05 232.7 255.45 237.75 L255.4 237.95 255.35 238.05 253.35 241.95 253.25 242.25 252.1 244.6 250.8 247.45 Q247.1 256.1 245.0 265.3 243.3 272.45 242.6 279.95 L242.0 277.6 Q240.85 272.65 240.85 267.15 240.85 265.2 241.0 263.35 241.25 259.95 241.95 256.95 242.6 254.15 243.7 251.7 245.25 248.0 247.75 245.1 L251.9 239.65 252.85 238.1 253.6 236.8 Q254.85 234.25 255.55 231.85 L256.05 229.0 257.2 222.45 Q257.55 220.85 263.65 209.65 269.2 199.4 269.2 194.1 269.2 190.2 271.0 176.55 L271.45 171.6 Q271.75 165.6 270.45 162.0 L270.85 161.75 270.35 160.95 269.5 159.5 Q267.5 156.05 266.05 152.45 L265.55 151.4 Q263.9 147.65 261.35 144.4 L262.3 141.75 266.9 148.4 267.7 149.55 273.6 157.65 Q276.95 162.15 278.9 167.55 280.85 172.8 284.3 176.65 284.9 177.35 286.25 177.55 291.55 178.4 297.1 177.0 L299.85 176.25 302.0 175.55 302.15 175.6 302.25 175.45 Q301.85 175.15 301.65 175.3 L299.65 173.4 299.15 172.75 306.05 173.65 307.3 173.65 Q313.45 173.75 316.85 169.3 319.7 165.55 322.95 162.3 321.5 163.25 320.2 164.3 316.45 167.35 313.3 165.35 308.6 162.4 303.05 162.4 299.8 162.35 298.15 159.75 295.3 155.4 293.35 150.6 291.2 145.45 288.35 141.35 286.4 138.7 284.15 136.35 L282.3 134.6 281.15 133.6 278.25 130.9 276.0 128.5 273.8 125.85 276.1 128.0 277.95 129.65 276.1 128.0 277.0 124.3 277.65 121.05 277.9 118.35 Q277.9 114.75 275.4 102.65 L275.2 101.55 Q272.85 90.3 272.85 85.4 L273.15 76.3 275.6 72.7 M279.4 70.25 L267.9 69.8 263.2 69.85 262.25 69.85 Q260.55 70.15 256.65 72.0 254.25 73.15 252.8 74.25 250.05 76.35 250.65 78.45 248.6 83.9 243.8 86.05 L242.6 86.5 237.8 87.3 Q235.4 88.65 232.95 89.95 L232.05 90.45 229.65 91.45 226.75 91.95 218.55 92.65 214.55 93.1 215.2 93.65 217.0 95.1 217.9 95.1 218.3 95.45 218.45 95.55 Q222.55 99.2 221.4 104.1 L221.5 104.15 221.5 104.1 223.55 104.25 Q225.8 104.75 228.4 107.1 L233.25 112.2 233.25 110.3 236.4 110.3 237.0 110.6 237.65 110.95 237.7 111.0 238.0 111.55 238.35 111.35 239.95 111.35 242.75 114.2 239.8 113.95 239.2 113.85 234.7 113.25 233.4 113.5 233.25 113.55 233.25 113.9 Q233.7 115.6 235.7 120.8 237.25 126.5 235.95 133.35 L235.9 133.5 235.5 133.55 234.85 128.45 Q233.75 120.95 230.75 117.8 L230.15 117.25 229.8 116.55 229.75 116.5 229.15 114.15 Q228.6 110.95 227.95 110.1 227.75 109.85 224.8 108.9 L223.9 108.55 223.85 107.9 223.85 107.8 Q222.85 107.7 222.0 107.25 L221.25 106.25 220.9 106.55 Q218.9 104.9 218.0 101.1 217.65 99.6 215.3 98.05 L213.2 96.8 209.25 95.0 207.2 93.9 206.2 93.35 206.15 93.3 204.15 92.05 Q202.85 91.15 201.85 90.3 L199.85 88.15 Q198.65 86.5 198.6 84.95 L198.6 84.85 Q198.6 82.55 196.85 80.95 L195.45 79.9 Q194.05 79.05 190.1 77.7 L190.2 75.9 190.2 74.85 190.4 74.55 Q191.7 75.1 193.2 76.45 L195.65 79.05 197.1 80.7 196.85 80.95 197.1 80.75 Q199.35 83.3 200.3 83.9 L202.2 84.95 205.5 86.35 205.5 86.45 205.6 86.4 Q206.9 87.1 207.5 88.05 L207.8 88.65 207.85 88.8 208.0 90.25 210.2 90.4 211.2 90.2 212.45 89.95 218.1 89.3 219.85 89.3 219.9 89.3 220.55 89.3 219.9 89.3 220.2 89.3 220.55 89.3 227.9 87.55 Q236.3 85.45 238.6 84.55 243.65 82.55 245.95 79.85 246.7 79.0 247.25 76.9 L247.45 75.9 Q248.15 72.85 248.6 72.15 250.1 69.9 254.25 68.6 L255.45 68.3 260.15 67.8 263.35 67.6 263.65 67.55 267.4 67.25 267.55 67.25 267.7 67.2 Q268.75 66.45 271.1 66.25 L272.25 66.2 274.15 66.15 273.7 65.4 271.55 62.2 Q271.25 61.2 270.35 60.75 265.0 54.6 256.25 51.75 243.05 47.35 227.2 41.35 L226.05 40.9 224.35 40.15 223.85 39.9 Q219.95 37.85 217.3 33.9 212.05 26.25 211.25 11.45 L211.2 10.8 Q211.0 11.05 211.0 9.1 L211.05 3.85 211.1 2.95 211.35 2.7 212.6 1.4 Q212.5 3.45 212.55 5.45 L212.65 10.35 Q213.75 30.05 224.05 36.7 225.7 37.75 227.6 38.45 244.15 44.75 257.8 49.3 269.6 53.15 275.25 62.95 L275.1 63.05 275.3 63.05 276.85 66.15 274.2 66.15 274.15 66.15 274.2 66.15 276.85 66.15 281.8 65.85 281.6 67.1 Q280.3 68.35 279.45 70.15 L279.4 70.25 M212.7 91.55 L211.15 90.45 210.2 90.4 211.15 90.45 212.7 91.55 212.9 91.7 213.55 91.5 214.0 91.3 212.7 91.55 M214.55 93.1 L213.75 92.4 213.55 92.25 212.9 91.7 213.55 92.25 213.75 92.4 214.55 93.1 M231.6 56.4 Q228.4 57.7 224.85 58.65 211.35 62.1 192.35 59.55 211.2 60.2 224.7 57.4 L231.15 55.8 232.5 55.35 232.7 55.9 231.6 56.4 M233.25 112.2 L233.25 113.55 233.25 112.2 M305.9 100.6 L307.25 101.25 302.5 99.95 304.8 100.4 304.85 100.4 305.9 100.6 M347.95 446.35 Q350.85 448.7 353.15 452.3 349.5 455.6 344.4 456.2 L343.85 455.9 Q341.35 454.3 339.55 452.35 L342.25 450.95 Q345.4 449.15 347.95 446.35 M357.75 456.25 Q363.2 456.4 368.55 458.1 372.0 459.15 374.65 461.85 378.4 465.65 381.7 469.75 374.75 470.15 368.1 471.85 L366.4 472.3 Q361.7 473.65 357.65 475.9 355.35 477.2 353.25 478.85 L350.8 480.9 349.45 476.45 349.75 476.1 Q351.95 474.0 355.25 472.25 358.7 470.45 361.3 467.9 364.15 465.1 363.05 461.6 362.55 460.15 361.6 459.5 359.4 458.15 356.6 458.05 L357.75 456.25 M261.75 519.85 L241.8 519.8 Q240.3 517.8 238.9 514.35 236.6 508.75 234.6 502.4 L230.65 489.65 Q228.65 483.25 227.35 476.8 L224.9 466.2 Q230.25 469.05 236.5 470.1 L238.6 470.4 239.85 471.95 251.2 485.4 253.9 497.35 254.05 498.0 Q255.75 505.7 258.55 512.7 L261.6 519.55 261.75 519.85 M210.3 519.85 L196.15 519.85 Q194.85 515.55 194.0 510.5 193.05 505.05 193.75 496.8 194.45 488.55 196.25 482.25 198.4 489.8 200.65 496.6 L204.75 508.55 Q206.65 513.75 208.8 517.4 L210.3 519.85 M74.65 520.05 L64.45 520.05 Q66.75 517.15 68.55 511.9 70.35 506.65 71.45 498.0 L73.25 498.7 73.4 498.9 Q71.65 508.65 72.7 514.45 73.25 517.35 74.65 520.05 M31.05 470.7 Q27.7 469.0 23.15 469.15 16.25 469.3 10.8 473.4 L0.85 480.75 Q3.75 475.8 7.75 472.0 12.6 467.35 17.8 464.8 23.0 462.25 28.95 460.55 L31.2 459.85 35.2 461.15 Q40.2 462.65 44.9 463.6 40.0 466.85 34.75 469.1 L31.05 470.7 M302.15 175.6 Q302.85 176.05 303.65 176.35 302.85 176.05 302.15 175.6 M277.4 171.05 Q274.4 167.2 271.3 162.4 L270.85 161.75 271.3 162.4 Q274.4 167.2 277.4 171.05 M226.1 457.25 L231.0 462.15 235.55 466.95 Q231.2 465.2 224.4 461.5 L213.75 455.4 213.4 455.15 207.75 450.8 Q202.75 447.05 198.85 442.75 L197.3 441.0 195.15 438.45 197.3 441.0 Q195.75 448.1 193.7 451.75 190.65 457.25 186.2 462.05 L182.7 465.4 181.85 466.05 173.85 471.7 Q168.5 475.3 161.45 476.5 L148.5 477.1 145.55 476.65 145.55 476.5 148.6 476.45 Q154.1 475.85 159.45 474.25 L159.5 474.25 Q164.8 472.6 169.55 470.3 174.3 467.9 179.4 463.85 184.45 459.65 187.15 455.9 189.8 452.15 192.45 447.0 194.45 443.0 195.05 438.55 L195.15 438.45 192.85 435.45 191.75 433.9 185.85 425.35 Q183.1 421.3 179.25 413.95 175.35 406.55 175.4 405.7 175.4 404.85 173.7 399.05 171.95 393.2 170.3 389.1 L166.85 380.55 Q165.0 375.85 163.75 371.1 162.45 366.3 160.9 358.15 159.35 350.0 158.55 343.25 157.7 336.45 157.75 330.85 L157.55 317.4 156.75 303.2 155.45 290.9 155.2 289.35 155.1 288.65 154.7 285.75 154.7 284.6 Q154.5 264.25 155.05 256.15 L157.55 242.0 Q159.85 227.0 159.85 213.35 159.85 202.65 159.45 191.85 L160.05 186.35 160.3 179.75 Q160.2 172.65 162.8 167.5 L167.55 158.25 169.35 158.7 169.35 158.8 169.35 158.85 Q168.15 164.2 165.85 168.75 162.9 174.35 162.8 180.75 L162.15 191.6 160.85 202.65 Q159.95 208.6 161.55 214.35 162.2 216.5 161.9 218.8 L161.9 218.85 Q161.3 224.6 160.3 230.35 159.25 236.05 158.45 241.9 L158.4 241.9 Q157.65 247.5 157.15 253.3 156.85 256.85 157.5 259.95 L157.8 260.6 157.8 260.7 Q157.4 263.05 157.55 264.85 L157.55 264.9 157.5 270.5 Q157.05 276.25 157.35 281.05 L158.35 292.1 159.3 301.4 159.55 304.05 160.5 315.65 Q160.85 320.85 160.6 326.1 160.3 331.4 160.6 337.15 160.75 340.0 161.3 343.05 L161.3 343.1 162.0 348.3 Q162.4 351.7 163.9 358.35 165.3 365.0 166.55 369.2 L169.4 378.55 Q171.1 383.8 173.4 388.6 175.8 393.55 176.95 398.9 178.0 403.9 181.0 410.45 L180.95 410.45 Q182.65 414.15 184.05 416.4 L185.9 419.0 186.35 419.7 Q190.55 426.2 193.9 429.95 L200.75 437.65 Q203.65 440.85 206.1 442.9 L206.1 442.95 215.35 450.05 215.35 450.0 223.85 455.9 226.1 457.25 M343.55 483.7 L343.7 482.1 343.55 483.7 M179.4 35.65 L182.25 32.4 182.65 34.75 180.0 37.5 179.5 37.95 Q175.95 41.1 171.6 42.75 L166.6 44.1 164.6 44.45 155.95 46.7 153.8 47.55 Q152.0 48.3 150.5 49.2 145.0 52.35 141.35 59.45 L140.85 60.4 140.05 62.8 139.85 63.5 140.4 63.65 143.75 64.65 143.85 64.75 144.5 65.6 143.85 64.75 143.75 64.65 144.6 64.85 144.5 65.6 144.7 65.8 Q145.3 66.0 145.9 66.9 146.7 68.25 147.5 71.1 147.35 75.55 151.5 80.2 L151.6 80.35 153.25 81.85 Q154.9 83.25 156.9 84.1 162.95 86.6 166.6 92.1 L168.3 95.4 166.25 96.8 164.35 93.0 Q163.15 90.85 160.75 88.75 L160.75 88.7 Q158.3 86.6 156.15 85.5 L156.1 85.5 Q153.9 84.4 151.6 83.65 149.5 83.0 147.85 81.8 L147.75 81.75 147.4 81.5 147.35 81.45 146.4 80.6 146.35 80.55 Q145.0 79.15 145.45 76.45 L145.45 76.4 Q145.8 73.75 144.85 71.6 144.15 70.1 143.0 69.25 L142.6 69.0 138.25 66.4 137.15 66.1 136.2 65.9 133.3 65.5 129.5 65.3 Q130.9 62.95 132.1 59.65 L132.15 59.5 132.1 59.65 131.8 59.3 132.15 59.5 134.5 60.55 137.7 62.0 138.45 62.3 140.05 62.8 138.45 62.3 139.4 59.35 Q140.95 56.2 142.8 53.8 L143.05 53.45 Q144.3 51.85 145.7 50.6 147.25 49.15 149.05 48.15 154.85 44.7 165.15 43.05 173.4 41.65 179.4 35.65 M170.2 127.55 L171.45 123.15 171.55 123.2 170.2 127.55 M90.35 111.55 L96.55 106.95 96.8 106.8 96.6 106.45 96.6 104.8 97.55 104.5 97.55 104.95 98.2 106.7 98.55 107.55 99.55 107.6 Q101.8 107.6 106.0 109.8 108.8 111.25 113.05 115.85 L115.25 118.35 114.15 117.5 113.15 116.7 110.95 115.2 Q105.55 113.4 103.55 113.4 L90.0 115.95 90.0 114.15 90.35 111.55 M107.65 99.3 L109.3 97.3 110.15 97.9 111.35 98.7 112.1 99.2 112.7 99.55 115.7 101.35 116.55 101.9 119.1 104.0 122.2 107.3 122.95 108.25 124.0 109.3 Q128.9 114.7 130.25 122.7 130.7 125.35 130.8 132.45 L130.8 133.05 128.65 133.05 128.8 131.6 128.8 131.3 Q129.2 121.5 121.0 110.6 L120.8 110.3 117.6 106.6 Q116.4 105.3 115.2 104.25 L112.55 102.1 Q109.85 100.1 107.65 99.3 M81.8 118.75 L84.3 118.85 89.45 118.65 95.8 118.95 105.4 120.3 107.95 120.6 Q99.7 120.8 93.3 123.2 L93.1 123.25 Q91.65 123.8 86.55 126.4 L85.05 127.15 84.45 127.45 85.05 127.15 86.55 126.4 86.1 127.0 86.05 127.05 Q84.45 129.25 84.45 130.55 84.45 131.7 85.75 134.2 87.0 136.65 87.0 140.0 L85.7 140.95 84.15 137.85 85.7 140.95 Q83.0 143.35 81.8 145.25 80.6 147.15 80.35 148.4 80.1 149.65 82.7 157.55 85.3 165.4 85.3 168.05 L85.15 171.0 84.65 171.75 Q84.55 169.55 83.6 165.75 L83.3 172.3 82.0 195.45 Q83.6 228.5 78.35 266.4 75.45 287.1 70.55 309.25 63.45 340.85 52.2 375.45 43.35 402.65 31.9 431.65 L30.75 434.55 22.0 455.85 21.85 456.25 20.8 455.85 18.9 455.0 26.3 437.2 28.5 431.65 Q39.9 403.0 48.8 376.2 83.8 270.55 79.95 192.15 81.25 169.75 81.5 158.75 L78.35 148.95 Q78.35 147.15 80.25 143.65 81.85 140.65 84.15 137.85 82.35 134.05 82.35 133.05 82.35 130.75 84.45 127.45 L84.4 127.45 Q82.75 128.3 80.85 129.3 L80.85 119.65 81.8 118.75 M109.45 120.8 L109.65 120.85 109.6 120.9 109.45 120.8 M96.8 106.8 L96.9 106.9 Q97.3 107.35 98.55 107.55 97.3 107.35 96.9 106.9 L96.8 106.8 M131.8 133.05 L131.8 132.95 131.8 132.9 132.25 133.05 131.8 133.05 M112.1 99.2 L110.15 97.9 112.1 99.2 M180.7 61.9 L180.85 61.85 Q177.3 65.25 176.4 59.55 176.55 60.3 176.85 60.6 177.95 63.8 180.7 61.9 M152.55 67.1 L152.5 67.0 Q157.0 70.1 157.55 71.6 158.05 73.15 157.65 75.8 157.25 78.45 161.35 78.9 L152.25 78.9 152.4 78.6 Q156.25 73.45 152.55 67.1 M172.75 55.65 Q168.95 52.2 164.95 49.4 L166.05 48.6 Q170.6 52.1 172.75 55.65 M184.25 102.8 L186.1 101.25 188.45 99.5 188.0 102.9 187.85 103.0 187.85 103.05 Q186.7 103.95 185.7 104.75 L184.1 106.05 Q181.55 108.25 179.65 110.9 L179.6 111.0 179.45 111.2 178.3 109.25 178.55 108.95 178.7 108.75 Q181.15 105.45 184.25 102.8 M157.75 164.35 L157.55 161.95 160.1 158.5 161.85 155.95 162.15 156.1 162.65 156.35 164.2 157.05 Q162.15 158.75 160.3 160.95 L157.75 164.35 M157.2 158.2 L157.15 157.85 157.7 157.65 157.2 158.2 M128.0 133.3 L127.7 133.35 121.65 133.75 Q120.7 133.75 119.45 134.35 L117.7 135.4 Q116.0 136.5 114.0 138.35 111.35 140.85 109.3 145.2 106.95 150.3 104.95 152.75 103.6 154.45 103.1 157.0 L102.15 161.55 98.45 169.4 Q95.55 178.4 92.55 183.6 L100.7 159.45 Q104.6 148.3 107.6 143.2 111.05 137.35 115.65 135.05 L117.45 134.3 119.2 133.8 122.15 133.3 122.95 133.2 127.05 133.05 127.1 133.05 127.85 133.05 128.65 133.05 128.55 133.25 128.0 133.3 M61.8 465.05 L70.45 464.05 67.55 469.5 Q61.25 480.8 44.55 488.85 L51.95 482.0 Q56.6 477.2 58.9 471.35 59.4 470.0 60.15 468.75 L61.05 467.3 61.8 465.05 M83.6 165.75 L82.55 162.0 81.5 158.75 82.55 162.0 83.6 165.75" fill="#ffffff" fill-rule="evenodd" stroke="none"/>
    <path d="M264.6 72.45 L264.35 72.45 263.25 72.45 Q261.55 72.75 257.95 74.4 L256.45 75.1 Q254.35 76.2 254.3 76.85 L254.15 77.75 253.65 79.15 252.15 81.85 250.7 83.85 249.75 84.65 Q247.95 87.1 245.3 88.4 L244.0 88.95 241.8 89.55 238.8 89.9 233.95 92.55 Q231.95 93.65 230.25 94.15 L227.75 94.55 224.35 94.7 219.55 95.25 218.45 95.4 218.3 95.45 217.9 95.1 217.0 95.1 215.2 93.65 214.55 93.1 218.55 92.65 226.75 91.95 229.65 91.45 232.05 90.45 232.95 89.95 Q235.4 88.65 237.8 87.3 L242.6 86.5 243.8 86.05 Q248.6 83.9 250.65 78.45 250.05 76.35 252.8 74.25 254.25 73.15 256.65 72.0 260.55 70.15 262.25 69.85 L263.2 69.85 267.9 69.8 279.4 70.25 Q278.8 71.4 278.45 72.8 L275.6 72.7 268.9 72.4 264.6 72.45 M212.7 91.55 L214.0 91.3 213.55 91.5 212.9 91.7 212.7 91.55 M218.35 449.15 L220.55 450.65 Q222.05 452.95 224.05 455.15 L226.1 457.25 223.85 455.9 215.35 450.0 215.35 450.05 206.1 442.95 206.1 442.9 Q203.65 440.85 200.75 437.65 L193.9 429.95 Q190.55 426.2 186.35 419.7 L185.9 419.0 184.05 416.4 Q182.65 414.15 180.95 410.45 L181.0 410.45 Q178.0 403.9 176.95 398.9 175.8 393.55 173.4 388.6 171.1 383.8 169.4 378.55 L166.55 369.2 Q165.3 365.0 163.9 358.35 162.4 351.7 162.0 348.3 L161.3 343.1 161.3 343.05 Q160.75 340.0 160.6 337.15 160.3 331.4 160.6 326.1 160.85 320.85 160.5 315.65 L159.55 304.05 159.3 301.4 158.35 292.1 157.35 281.05 Q157.05 276.25 157.5 270.5 L157.55 264.9 157.55 264.85 Q157.4 263.05 157.8 260.7 L157.8 260.6 157.5 259.95 Q156.85 256.85 157.15 253.3 157.65 247.5 158.4 241.9 L158.45 241.9 Q159.25 236.05 160.3 230.35 161.3 224.6 161.9 218.85 L161.9 218.8 Q162.2 216.5 161.55 214.35 159.95 208.6 160.85 202.65 L162.15 191.6 162.8 180.75 Q162.9 174.35 165.85 168.75 168.15 164.2 169.35 158.85 L169.35 158.8 171.75 159.45 170.9 162.75 Q169.8 166.5 168.1 169.9 L168.05 169.9 Q165.4 174.95 165.3 180.8 L164.65 191.85 163.3 203.0 Q162.45 208.4 163.95 213.65 164.7 216.3 164.4 219.1 L162.75 230.8 Q161.75 236.45 160.9 242.25 160.15 247.8 159.65 253.5 159.35 256.65 159.95 259.45 L159.9 260.05 160.0 260.2 Q160.3 260.6 160.25 261.1 159.9 263.1 160.05 264.65 L160.05 264.7 160.0 270.7 Q159.55 276.25 159.85 280.85 L160.85 291.85 162.05 303.8 162.8 312.45 163.0 315.5 Q163.35 320.85 163.1 326.2 L163.1 326.25 Q162.8 331.4 163.1 337.0 163.25 339.7 163.75 342.65 L164.5 348.0 Q164.9 351.3 166.35 357.85 167.7 364.4 168.95 368.5 L171.8 377.8 Q173.4 382.9 175.65 387.5 178.2 392.75 179.4 398.4 180.4 403.2 183.25 409.4 184.85 412.95 186.2 415.1 L187.8 417.4 187.95 417.55 188.45 418.35 Q192.55 424.7 195.75 428.3 L202.6 436.0 202.6 435.95 Q205.35 439.05 207.7 441.0 212.15 444.65 216.8 448.0 L218.35 449.15 M129.5 65.3 L133.3 65.5 136.2 65.9 137.15 66.1 138.25 66.4 142.6 69.0 143.0 69.25 Q144.15 70.1 144.85 71.6 145.8 73.75 145.45 76.4 L145.45 76.45 Q145.0 79.15 146.35 80.55 L146.4 80.6 147.35 81.45 147.4 81.5 147.75 81.75 147.85 81.8 Q149.5 83.0 151.6 83.65 153.9 84.4 156.1 85.5 L156.15 85.5 Q158.3 86.6 160.75 88.7 L160.75 88.75 Q163.15 90.85 164.35 93.0 L166.25 96.8 166.3 96.9 166.4 97.1 167.05 98.45 167.05 98.5 168.3 101.55 169.95 105.9 Q170.85 108.3 171.3 111.1 L171.95 116.95 171.95 117.0 Q172.2 120.0 171.4 123.15 L171.45 123.15 170.2 127.55 168.35 133.9 168.25 133.9 168.2 133.9 167.75 133.55 167.6 132.5 Q167.45 131.8 168.15 127.45 L168.4 125.75 169.0 122.6 169.0 122.55 Q169.7 119.8 169.45 117.15 L168.85 111.5 Q168.45 108.95 167.6 106.8 L165.95 102.45 164.75 99.45 164.15 98.15 164.1 98.1 164.05 98.0 164.0 97.9 162.15 94.2 162.15 94.25 Q161.15 92.45 159.1 90.6 156.9 88.7 155.0 87.75 153.0 86.7 150.85 86.05 148.55 85.35 146.65 84.0 L146.4 83.8 146.45 83.9 145.85 83.45 145.8 83.4 144.65 82.35 Q143.9 81.65 143.45 80.8 142.55 78.9 143.0 76.1 L143.0 76.05 142.95 76.1 Q143.2 74.15 142.55 72.6 L142.6 72.65 141.65 71.4 141.6 71.5 141.25 71.15 Q139.2 69.0 136.5 68.4 L136.2 68.3 131.35 67.85 130.05 67.9 127.55 67.9 128.15 67.15 129.25 65.65 129.5 65.3 M176.85 60.6 L176.45 59.05 Q178.65 61.95 181.8 60.95 L181.45 61.3 181.5 61.2 181.35 61.4 180.7 61.9 Q177.95 63.8 176.85 60.6 M188.0 102.9 L187.4 106.55 187.3 106.65 185.7 107.95 185.75 107.95 Q182.9 110.35 180.95 113.45 L180.75 113.8 Q179.15 116.35 178.15 119.35 L173.95 132.0 Q171.9 138.05 171.9 145.1 171.9 149.65 173.2 153.35 173.85 155.2 174.85 156.85 175.1 157.3 174.95 157.8 L174.9 158.05 172.15 157.2 Q171.2 155.4 170.55 153.35 169.4 149.6 169.4 145.1 169.4 137.65 171.6 131.2 L175.75 118.55 175.8 118.55 Q177.15 114.5 179.45 111.2 L179.6 111.0 179.65 110.9 Q181.55 108.25 184.1 106.05 L185.7 104.75 Q186.7 103.95 187.85 103.05 L187.85 103.0 188.0 102.9 M145.55 476.5 Q141.0 475.45 136.6 473.3 L144.4 474.1 148.3 473.95 Q153.6 473.35 158.75 471.85 163.9 470.3 168.45 468.05 173.0 465.8 177.8 461.9 L177.85 461.9 177.8 461.9 Q182.55 457.95 185.1 454.45 187.6 450.85 190.2 445.85 192.55 441.1 192.75 435.7 L192.75 435.6 195.05 438.55 Q194.45 443.0 192.45 447.0 189.8 452.15 187.15 455.9 184.45 459.65 179.4 463.85 174.3 467.9 169.55 470.3 164.8 472.6 159.5 474.25 L159.45 474.25 Q154.1 475.85 148.6 476.45 L145.55 476.5" fill="#000000" fill-rule="evenodd" stroke="none"/>
    <path d="M245.3 88.4 Q247.95 87.1 249.75 84.65 L250.7 83.85 252.15 81.85 253.65 79.15 254.15 77.75 254.3 76.85 Q254.35 76.2 256.45 75.1 L257.95 74.4 Q261.55 72.75 263.25 72.45 L264.35 72.45 264.6 72.45 Q265.45 73.6 265.7 74.55 L265.75 75.1 Q265.75 75.85 265.15 77.05 264.55 78.25 264.55 79.0 264.55 79.75 265.15 80.8 265.75 81.85 265.75 82.6 265.75 83.15 264.25 86.1 262.75 89.05 262.75 90.6 262.75 96.0 268.05 104.45 270.8 108.9 274.75 114.55 273.25 114.85 271.85 115.7 L269.6 117.3 267.8 119.25 267.35 119.85 265.15 117.85 265.05 117.75 261.65 114.35 Q259.15 111.75 254.4 109.7 L252.2 108.75 251.65 108.55 Q248.7 107.35 245.3 105.65 L245.25 105.4 244.7 103.0 243.65 99.65 Q243.65 99.2 244.95 96.55 245.85 94.65 246.1 92.75 L246.15 92.2 246.2 91.85 246.05 91.2 245.8 90.1 245.3 88.4 M221.25 106.25 L221.2 106.8 Q220.55 111.35 219.6 115.0 L218.15 119.55 216.15 124.85 Q213.55 131.4 212.5 140.7 211.9 145.45 211.75 150.95 L211.7 155.0 211.7 155.1 211.7 155.2 211.7 160.4 211.7 161.2 211.6 165.65 211.6 166.2 Q211.65 167.7 211.85 169.0 212.05 170.4 212.4 171.55 L212.55 171.85 215.4 178.3 215.8 183.4 213.0 177.85 210.35 172.1 209.2 169.3 209.1 169.1 208.0 166.15 Q206.95 163.2 206.35 160.65 205.4 156.95 205.4 154.1 L205.4 154.05 205.4 153.75 205.4 153.65 205.4 153.6 Q205.45 151.8 205.85 149.05 206.35 145.3 207.5 139.8 208.7 133.9 210.6 125.95 L212.1 119.75 Q215.75 103.95 215.75 102.0 L215.3 98.05 Q217.65 99.6 218.0 101.1 218.9 104.9 220.9 106.55 L221.25 106.25 M235.9 133.5 L235.95 133.35 Q237.25 126.5 235.7 120.8 233.7 115.6 233.25 113.9 L233.25 113.55 233.4 113.5 234.7 113.25 239.2 113.85 242.05 118.6 242.95 120.15 Q244.6 123.1 245.0 126.05 L245.1 127.75 Q245.1 129.9 244.6 131.85 243.55 135.75 240.4 138.65 237.55 140.6 236.0 141.9 L236.0 139.65 235.9 133.5 M266.35 519.85 L261.75 519.85 261.6 519.55 258.55 512.7 Q255.75 505.7 254.05 498.0 L253.9 497.35 Q253.5 493.7 254.7 489.25 L256.9 491.55 Q263.35 498.0 268.85 500.2 272.4 501.65 277.9 502.05 L273.15 508.75 Q269.4 514.1 266.35 519.85 M284.65 351.35 L284.5 361.0 Q284.1 370.9 284.4 375.2 284.95 383.3 288.55 393.0 272.6 390.5 258.9 377.55 254.5 373.45 250.4 368.3 244.1 360.45 238.35 350.25 L234.0 342.05 233.7 341.4 232.2 338.35 231.5 336.85 230.95 335.65 229.5 332.4 229.0 331.3 226.2 324.65 225.4 322.6 222.4 314.75 219.65 306.95 Q217.15 299.65 214.7 291.55 L210.05 275.2 209.05 271.6 207.85 267.0 206.15 259.9 202.35 244.35 201.7 241.65 Q198.65 234.2 196.45 226.6 L195.7 223.9 Q189.65 202.85 187.05 189.35 185.45 181.05 184.35 170.4 L184.15 168.35 183.8 165.0 183.75 160.4 183.7 156.9 183.65 154.75 183.5 139.65 183.65 154.75 183.5 154.4 183.1 153.35 Q181.1 148.5 180.35 143.3 179.6 137.7 179.5 131.95 179.45 126.0 180.75 120.3 181.35 125.05 183.65 129.15 183.5 133.0 183.5 137.7 L183.5 139.65 184.55 147.35 185.55 157.25 185.95 160.55 186.3 163.05 187.2 167.95 187.65 169.85 187.8 170.5 Q190.55 182.55 196.2 195.6 198.9 201.8 202.25 208.2 L205.6 214.45 Q211.1 224.25 218.45 238.2 L223.95 248.75 226.9 254.5 227.65 255.9 228.7 257.95 229.6 259.7 230.8 262.05 231.05 262.55 231.85 264.0 233.4 266.65 234.9 269.15 236.5 271.7 Q239.7 276.65 242.6 280.1 L242.6 279.95 Q243.3 272.45 245.0 265.3 L246.35 268.3 247.8 271.3 247.95 271.65 250.9 277.65 251.1 278.0 252.4 280.8 Q256.6 289.85 256.6 294.6 256.6 297.95 254.2 298.9 L248.45 299.5 248.1 299.5 244.85 299.0 244.65 298.95 Q240.4 297.6 235.4 293.2 L231.7 289.65 229.2 286.95 225.8 282.8 222.8 278.9 221.0 276.4 220.55 275.8 218.15 272.35 216.15 269.3 214.4 266.5 212.9 264.05 210.75 260.35 209.7 258.5 Q206.1 251.9 203.2 245.2 L202.2 242.95 202.7 244.7 Q204.7 252.2 207.0 259.25 L207.95 262.15 209.65 267.0 210.85 270.3 211.8 272.85 213.65 277.65 Q216.9 285.8 220.6 293.3 L221.85 295.8 223.8 299.65 227.05 305.5 229.0 308.85 234.35 317.25 240.25 325.4 243.7 329.65 Q247.4 334.0 251.2 337.55 L251.65 338.0 251.7 338.0 257.45 342.85 Q269.15 351.7 279.55 351.7 L284.65 351.35 M201.4 378.35 Q198.25 375.3 194.8 372.55 189.55 368.3 183.7 365.6 188.15 374.6 189.85 381.45 191.55 388.25 192.75 394.55 193.95 400.85 196.2 406.5 L200.3 416.55 Q202.2 421.0 204.3 426.9 206.4 432.75 209.25 438.3 212.05 443.8 217.5 448.45 L218.35 449.15 216.8 448.0 Q212.15 444.65 207.7 441.0 205.35 439.05 202.6 435.95 L202.6 436.0 195.75 428.3 Q192.55 424.7 188.45 418.35 L187.95 417.55 187.8 417.4 186.2 415.1 Q184.85 412.95 183.25 409.4 180.4 403.2 179.4 398.4 178.2 392.75 175.65 387.5 173.4 382.9 171.8 377.8 L168.95 368.5 Q167.7 364.4 166.35 357.85 164.9 351.3 164.5 348.0 L163.75 342.65 Q163.25 339.7 163.1 337.0 162.8 331.4 163.1 326.25 L163.1 326.2 Q163.35 320.85 163.0 315.5 L162.8 312.45 Q166.05 322.55 167.35 325.85 169.75 331.85 173.65 337.65 177.55 343.45 183.3 347.85 189.05 352.25 194.05 354.25 L196.9 355.4 Q198.95 366.75 201.4 378.35 M170.9 162.75 L171.75 159.45 171.85 159.2 172.8 159.3 172.0 171.45 Q171.4 178.3 172.45 184.4 173.55 190.6 176.4 195.95 179.35 201.55 183.65 208.3 L184.5 209.65 184.7 222.1 183.5 220.25 Q179.7 214.5 177.5 208.55 L173.3 197.55 Q171.45 192.9 170.6 189.6 169.75 186.25 169.4 177.6 169.1 170.55 170.9 162.75 M141.6 71.5 L141.65 71.4 142.6 72.65 142.55 72.6 Q143.2 74.15 142.95 76.1 L143.0 76.1 Q142.55 78.9 143.45 80.8 L143.25 83.65 141.75 82.55 Q140.9 81.55 140.6 79.85 L140.5 72.1 Q141.0 71.55 141.6 71.5 M164.15 98.15 L164.75 99.45 165.95 102.45 167.6 106.8 Q168.45 108.95 168.85 111.5 L169.45 117.15 Q169.7 119.8 169.0 122.55 L169.0 122.6 168.4 125.75 168.15 127.45 Q167.45 131.8 167.6 132.5 L167.75 133.55 168.2 133.9 Q167.5 137.05 167.25 140.4 167.0 143.25 167.15 146.25 167.25 149.0 167.95 151.35 L168.3 152.35 162.05 155.2 161.45 155.5 159.65 155.4 161.45 155.5 162.05 155.2 162.1 155.5 162.15 156.1 161.85 155.95 Q161.1 155.6 159.65 155.4 L159.7 155.3 159.6 155.4 159.35 155.35 159.6 155.4 159.45 155.5 159.35 155.35 159.15 155.15 156.6 152.1 156.5 151.25 156.6 152.1 156.95 155.85 157.15 157.85 157.2 158.2 157.55 161.95 157.75 164.35 159.0 181.8 154.75 185.35 149.85 188.05 146.6 189.8 144.2 191.2 Q140.95 193.15 139.0 195.1 L137.9 200.8 135.0 212.6 134.15 216.25 Q131.7 227.0 132.05 233.8 L132.2 238.5 132.0 244.95 Q130.7 267.0 119.25 283.05 116.7 286.65 113.4 290.3 109.65 294.45 104.9 298.7 L104.45 299.1 103.9 299.6 102.5 300.85 86.8 313.55 Q90.15 307.15 99.45 293.45 L101.3 290.3 104.3 284.65 Q110.55 272.0 114.4 257.45 116.15 250.85 117.35 243.9 118.95 234.3 119.5 224.1 L119.65 221.05 120.4 204.45 120.7 199.15 Q121.1 193.2 121.45 190.75 124.55 170.2 134.0 160.5 L136.7 158.05 137.3 157.6 Q144.5 152.15 155.85 151.3 L156.5 151.25 155.4 141.85 156.0 141.3 Q160.2 137.45 162.4 133.25 165.05 128.05 164.35 121.9 L164.35 121.65 164.1 118.8 162.7 120.2 Q160.2 122.55 156.7 123.0 151.35 123.7 145.55 122.9 139.55 122.1 136.45 117.6 L134.7 114.8 134.0 118.15 Q133.3 115.8 133.1 113.3 L133.05 111.65 Q133.05 107.7 134.95 104.45 138.15 106.6 142.8 106.0 148.65 105.25 154.0 103.1 159.6 100.8 164.05 98.2 L164.15 98.15 M119.95 129.5 L121.2 130.9 118.3 131.45 116.95 131.9 Q113.0 133.3 109.75 136.45 105.3 140.75 101.25 149.5 100.05 152.15 98.2 159.25 L95.55 163.5 Q93.8 166.3 94.5 167.55 L93.65 175.7 Q91.95 167.3 89.0 157.7 86.0 148.05 94.9 144.35 103.8 140.6 106.65 136.95 109.45 133.25 111.65 132.3 L116.6 130.5 117.85 130.1 119.95 129.5 M112.7 99.55 L118.45 99.45 123.75 99.25 128.9 98.75 129.25 98.7 Q135.05 97.7 138.2 95.3 139.55 94.25 140.4 92.95 140.0 94.85 138.75 97.2 L138.5 97.65 134.2 105.0 Q132.35 108.1 132.8 114.15 133.05 117.25 133.8 119.4 134.45 121.45 135.6 122.65 135.5 126.0 135.05 127.3 134.55 128.6 133.15 130.1 L132.75 130.5 Q131.8 131.65 131.8 132.9 L131.8 132.95 131.8 133.05 130.8 133.05 130.8 132.45 Q130.7 125.35 130.25 122.7 128.9 114.7 124.0 109.3 L122.95 108.25 122.2 107.3 119.1 104.0 116.55 101.9 115.7 101.35 112.7 99.55 M201.85 90.3 Q202.85 91.15 204.15 92.05 L206.15 93.3 206.15 93.35 206.25 95.95 206.3 108.55 Q206.3 112.95 205.1 118.35 204.0 123.45 201.8 129.4 200.45 133.0 199.55 136.5 198.5 140.35 197.95 144.1 197.55 146.6 197.4 149.05 L197.25 152.45 197.25 152.7 Q197.25 155.05 197.6 157.65 L198.1 160.95 Q198.75 164.55 200.0 168.6 L201.4 172.85 202.3 175.3 204.4 180.4 208.1 188.25 200.35 175.6 199.0 173.1 197.7 170.45 197.4 169.65 Q196.1 166.45 195.15 162.85 L194.7 160.95 194.15 158.2 Q193.35 153.85 193.05 148.95 L192.85 145.25 192.75 141.0 192.75 139.95 Q192.8 135.05 193.2 130.55 193.95 121.7 196.1 114.4 196.55 112.65 197.15 111.0 199.55 104.25 200.4 100.3 L200.85 98.2 201.3 95.2 201.6 92.95 201.85 90.3 M187.4 106.75 L186.25 112.05 184.55 119.6 181.05 113.6 180.95 113.45 Q182.9 110.35 185.75 107.95 L185.7 107.95 187.3 106.65 187.4 106.75 M185.8 262.85 L186.1 268.6 Q182.4 259.65 174.05 235.45 L174.1 235.35 Q181.05 253.9 185.05 261.45 L185.8 262.85 M188.9 301.05 L189.9 309.4 188.45 307.35 Q184.9 302.2 181.5 296.0 183.15 303.95 186.5 310.35 L191.05 318.6 192.65 329.6 190.55 325.6 184.8 313.3 Q182.1 307.3 180.0 300.9 177.95 294.45 177.2 287.75 181.0 291.4 184.4 295.7 L188.9 301.05 M161.45 155.5 L162.1 155.5 161.45 155.5 M94.6 504.6 L94.15 504.65 93.0 504.7 88.85 504.7 Q83.35 503.25 78.85 501.1 76.25 499.85 73.45 498.75 L73.4 498.75 73.25 498.7 71.45 498.0 66.9 496.55 60.2 495.0 Q93.15 491.0 102.6 482.45 111.1 474.65 115.55 466.85 116.95 472.0 117.65 477.45 118.55 484.55 115.5 489.6 111.9 495.55 105.9 500.45 101.6 503.95 94.6 504.6 M128.65 133.05 L128.5 133.45 128.0 133.3 128.55 133.25 128.65 133.05 M52.2 375.45 Q70.2 371.2 84.9 359.9 L91.55 354.25 Q105.05 341.65 115.4 322.35 L117.1 319.1 Q127.95 297.65 134.1 269.9 136.5 259.1 138.05 247.95 139.45 237.6 140.2 226.95 L140.25 226.2 140.75 216.95 140.75 225.35 140.75 225.7 140.9 237.6 140.9 242.25 Q140.7 258.0 138.95 270.85 134.05 307.35 115.4 336.3 110.9 343.25 105.6 349.8 L90.0 370.8 87.6 374.0 81.1 382.75 Q71.3 395.7 63.4 404.75 48.4 421.95 35.0 431.6 L30.75 434.55 31.9 431.65 Q43.35 402.65 52.2 375.45 M128.4 411.15 L130.15 407.85 Q138.3 391.5 142.85 362.35 145.2 369.8 150.2 380.35 L160.6 402.6 Q165.65 413.4 166.7 428.85 167.7 444.25 161.2 457.2 155.7 468.05 140.75 471.65 L134.85 472.75 125.45 467.7 116.65 462.55 Q125.65 446.05 128.2 433.35 130.5 421.6 128.4 411.15" fill="#9933ff" fill-rule="evenodd" stroke="none"/>
    <path d="M274.15 66.15 L272.25 66.2 271.1 66.25 Q268.75 66.45 267.7 67.2 L267.55 67.25 267.4 67.25 263.65 67.55 263.35 67.6 260.15 67.8 255.45 68.3 254.25 68.6 Q250.1 69.9 248.6 72.15 248.15 72.85 247.45 75.9 L247.25 76.9 Q246.7 79.0 245.95 79.85 243.65 82.55 238.6 84.55 239.6 73.75 234.6 60.55 L233.85 59.95 231.6 56.4 232.7 55.9 232.5 55.35 231.15 55.8 219.15 39.0 213.7 36.1 213.05 35.65 Q216.0 43.55 221.15 51.5 210.1 58.2 192.35 59.55 211.35 62.1 224.85 58.65 233.2 73.05 227.9 87.55 L220.55 89.3 220.2 89.3 219.9 89.3 219.85 89.3 218.1 89.3 212.45 89.95 207.5 88.05 Q206.9 87.1 205.6 86.4 L205.5 86.35 202.2 84.95 200.3 83.9 Q199.35 83.3 197.1 80.75 L197.1 80.7 195.65 79.05 193.2 76.45 Q191.7 75.1 190.4 74.55 L190.2 74.85 190.2 75.9 190.1 77.7 189.9 82.6 182.9 81.05 181.75 80.8 182.6 79.1 Q184.6 75.45 189.15 72.7 185.65 73.4 183.75 74.65 181.85 75.85 180.05 76.05 178.2 76.25 175.5 72.6 178.5 78.5 177.05 80.1 L169.8 79.35 161.35 78.9 Q157.25 78.45 157.65 75.8 158.05 73.15 157.55 71.6 157.0 70.1 152.5 67.0 L152.55 67.1 153.05 68.9 Q155.1 73.45 152.4 78.6 155.1 73.45 153.05 68.9 L152.55 67.1 Q156.25 73.45 152.4 78.6 L152.05 78.9 152.25 78.9 152.05 79.2 151.5 80.2 Q147.35 75.55 147.5 71.1 146.7 68.25 145.9 66.9 145.3 66.0 144.7 65.8 L144.5 65.6 144.6 64.85 143.75 64.65 140.4 63.65 139.85 63.5 140.05 62.8 140.85 60.4 141.35 59.45 Q145.0 52.35 150.5 49.2 152.0 48.3 153.8 47.55 L155.95 46.7 164.6 44.45 166.6 44.1 171.6 42.75 Q175.95 41.1 179.5 37.95 L180.0 37.5 182.65 34.75 182.7 35.1 180.1 37.7 175.3 41.9 171.25 44.8 Q171.3 46.0 172.1 46.95 173.15 48.35 174.85 49.45 176.45 50.45 178.55 50.3 L181.15 50.3 181.25 49.45 181.8 49.4 Q197.7 47.65 204.05 29.3 L204.1 29.3 204.2 28.9 206.1 21.9 206.8 19.55 Q207.75 16.5 208.3 15.75 L211.2 10.8 211.25 11.45 Q212.05 26.25 217.3 33.9 219.95 37.85 223.85 39.9 L224.35 40.15 226.05 40.9 227.2 41.35 Q243.05 47.35 256.25 51.75 265.0 54.6 270.35 60.75 271.25 61.2 271.55 62.2 L273.7 65.4 274.15 66.15 M254.25 68.6 L254.7 68.45 255.45 68.3 254.7 68.45 254.25 68.6 M207.45 14.75 Q205.75 16.6 208.3 13.5 L208.4 13.6 208.05 14.05 207.45 14.75 M181.45 50.75 L181.8 49.4 181.45 50.75 M143.75 64.65 Q142.95 63.6 141.15 63.05 L140.55 62.9 140.05 62.8 140.55 62.9 141.15 63.05 Q142.95 63.6 143.75 64.65 M180.7 61.9 L181.35 61.4 181.5 61.2 181.45 61.3 181.8 60.95 Q178.65 61.95 176.45 59.05 L176.85 60.6 Q176.55 60.3 176.4 59.55 177.3 65.25 180.85 61.85 L180.7 61.9 M166.05 48.6 L164.95 49.4 Q168.95 52.2 172.75 55.65 170.6 52.1 166.05 48.6" fill="#ffe2d5" fill-rule="evenodd" stroke="none"/>
    <path d="M264.6 72.45 L268.9 72.4 275.6 72.7 273.15 76.3 272.85 85.4 Q272.85 90.3 275.2 101.55 L275.4 102.65 Q277.9 114.75 277.9 118.35 L277.65 121.05 Q275.0 121.0 272.8 121.8 L272.65 121.85 Q271.7 122.35 270.8 123.1 271.7 122.35 272.65 121.85 L272.8 121.8 Q275.0 121.0 277.65 121.05 L277.0 124.3 276.1 128.0 273.8 125.85 272.9 125.05 272.15 124.3 271.8 124.0 270.8 123.1 269.95 122.3 269.45 121.8 267.35 119.85 267.8 119.25 269.6 117.3 271.85 115.7 Q273.25 114.85 274.75 114.55 270.8 108.9 268.05 104.45 262.75 96.0 262.75 90.6 262.75 89.05 264.25 86.1 265.75 83.15 265.75 82.6 265.75 81.85 265.15 80.8 264.55 79.75 264.55 79.0 264.55 78.25 265.15 77.05 265.75 75.85 265.75 75.1 L265.7 74.55 Q265.45 73.6 264.6 72.45 M218.3 95.45 L218.45 95.4 218.45 95.55 218.3 95.45 M245.25 105.4 L245.3 105.65 245.2 105.6 244.8 105.4 245.2 105.4 245.25 105.4 M221.4 104.1 L221.5 104.1 221.5 104.15 221.4 104.1 M215.4 178.3 Q215.0 174.95 214.75 171.15 L214.6 167.85 214.5 165.6 214.5 165.25 214.45 160.25 214.4 155.9 214.4 155.2 214.4 150.4 214.4 145.5 214.65 140.9 Q215.45 132.85 219.15 124.95 L221.9 118.95 222.4 117.7 Q223.9 113.7 223.9 109.9 L223.9 108.55 224.8 108.9 Q227.75 109.85 227.95 110.1 228.6 110.95 229.15 114.15 L229.75 116.5 229.8 116.55 230.15 117.25 230.75 117.8 Q233.75 120.95 234.85 128.45 L235.5 133.55 235.9 133.5 236.0 139.65 236.0 141.9 Q237.55 140.6 240.4 138.65 243.55 135.75 244.6 131.85 245.1 129.9 245.1 127.75 L245.0 126.05 Q246.15 127.75 246.9 129.5 L247.4 130.9 Q248.45 134.2 249.6 140.8 252.15 148.65 256.35 150.1 L259.65 151.1 Q261.45 151.85 262.65 153.85 263.65 155.45 266.45 161.4 269.3 167.6 269.45 168.75 269.65 170.0 271.45 171.6 L271.0 176.55 Q269.2 190.2 269.2 194.1 269.2 199.4 263.65 209.65 257.55 220.85 257.2 222.45 L256.05 229.0 255.55 231.85 Q254.85 234.25 253.6 236.8 L252.85 238.1 251.9 239.65 247.75 245.1 Q245.25 248.0 243.7 251.7 242.6 254.15 241.95 256.95 241.25 259.95 241.0 263.35 240.85 265.2 240.85 267.15 240.85 272.65 242.0 277.6 L242.6 279.95 242.6 280.1 Q239.7 276.65 236.5 271.7 L234.9 269.15 233.4 266.65 231.85 264.0 231.05 262.55 230.8 262.05 229.6 259.7 228.7 257.95 227.65 255.9 226.9 254.5 223.95 248.75 218.45 238.2 Q211.1 224.25 205.6 214.45 L202.25 208.2 Q198.9 201.8 196.2 195.6 190.55 182.55 187.8 170.5 L187.65 169.85 187.2 167.95 186.3 163.05 185.95 160.55 185.55 157.25 184.55 147.35 183.5 139.65 183.5 137.7 Q183.5 133.0 183.65 129.15 183.85 124.45 184.3 121.1 L184.55 119.6 186.25 112.05 187.4 106.75 187.4 106.55 187.4 106.75 187.3 106.65 187.4 106.55 188.0 102.9 188.45 99.5 189.5 88.95 189.9 82.6 190.1 77.7 Q194.05 79.05 195.45 79.9 L196.85 80.95 Q198.6 82.55 198.6 84.85 L198.6 84.95 Q198.65 86.5 199.85 88.15 L201.85 90.3 201.6 92.95 201.3 95.2 200.85 98.2 200.4 100.3 Q199.55 104.25 197.15 111.0 196.55 112.65 196.1 114.4 193.95 121.7 193.2 130.55 192.8 135.05 192.75 139.95 L192.75 141.0 192.85 145.25 193.05 148.95 Q193.35 153.85 194.15 158.2 L194.7 160.95 195.15 162.85 Q196.1 166.45 197.4 169.65 L197.7 170.45 199.0 173.1 200.35 175.6 208.1 188.25 204.4 180.4 202.3 175.3 201.4 172.85 200.0 168.6 Q198.75 164.55 198.1 160.95 L197.6 157.65 Q197.25 155.05 197.25 152.7 L197.25 152.45 197.4 149.05 Q197.55 146.6 197.95 144.1 198.5 140.35 199.55 136.5 200.45 133.0 201.8 129.4 204.0 123.45 205.1 118.35 206.3 112.95 206.3 108.55 L206.25 95.95 206.15 93.35 206.15 93.3 206.2 93.35 207.2 93.9 209.25 95.0 213.2 96.8 215.3 98.05 215.75 102.0 Q215.75 103.95 212.1 119.75 L210.6 125.95 Q208.7 133.9 207.5 139.8 206.35 145.3 205.85 149.05 205.45 151.8 205.4 153.6 L205.4 153.65 205.4 153.75 205.4 154.05 205.4 154.1 Q205.4 156.95 206.35 160.65 206.95 163.2 208.0 166.15 L209.1 169.1 209.2 169.3 210.35 172.1 213.0 177.85 215.8 183.4 215.4 178.3 M238.0 111.55 L237.7 111.0 238.35 111.35 238.0 111.55 M325.7 501.75 Q320.8 506.85 316.65 511.65 L309.1 519.85 266.35 519.85 Q269.4 514.1 273.15 508.75 L277.9 502.05 Q272.4 501.65 268.85 500.2 263.35 498.0 256.9 491.55 L254.7 489.25 251.2 485.4 239.85 471.95 238.6 470.4 235.55 466.95 231.0 462.15 226.1 457.25 224.05 455.15 Q222.05 452.95 220.55 450.65 218.85 448.15 217.85 445.45 L217.3 443.95 216.6 441.5 216.25 440.2 Q207.6 408.35 201.4 378.35 207.6 408.35 216.25 440.2 L216.6 441.5 217.3 443.95 217.85 445.45 Q218.85 448.15 220.55 450.65 L218.35 449.15 217.5 448.45 Q212.05 443.8 209.25 438.3 206.4 432.75 204.3 426.9 202.2 421.0 200.3 416.55 L196.2 406.5 Q193.95 400.85 192.75 394.55 191.55 388.25 189.85 381.45 188.15 374.6 183.7 365.6 189.55 368.3 194.8 372.55 198.25 375.3 201.4 378.35 198.95 366.75 196.9 355.4 194.5 342.3 192.65 329.6 L191.05 318.6 189.9 309.4 191.05 318.6 186.5 310.35 Q183.15 303.95 181.5 296.0 184.9 302.2 188.45 307.35 L189.9 309.4 188.9 301.05 Q187.05 284.5 186.1 268.6 L185.8 262.85 185.45 256.1 185.8 262.85 185.05 261.45 Q181.05 253.9 174.1 235.35 L177.6 242.9 Q180.4 248.7 184.1 254.2 L185.45 256.1 185.1 242.95 184.7 222.1 184.5 209.65 183.9 170.4 184.5 209.65 183.65 208.3 Q179.35 201.55 176.4 195.95 173.55 190.6 172.45 184.4 171.4 178.3 172.0 171.45 L172.8 159.3 172.85 159.3 173.1 159.35 Q172.75 161.4 173.55 163.7 174.55 166.5 176.65 168.45 178.65 170.25 181.45 170.45 L183.9 170.4 183.85 168.35 183.8 165.0 183.85 168.35 180.5 167.8 Q177.65 166.95 176.45 164.25 175.4 162.0 175.75 159.65 L183.75 160.4 183.8 165.0 184.15 168.35 184.35 170.4 Q185.45 181.05 187.05 189.35 189.65 202.85 195.7 223.9 L196.45 226.6 Q198.65 234.2 201.7 241.65 L202.35 244.35 206.15 259.9 207.85 267.0 209.05 271.6 210.05 275.2 214.7 291.55 Q217.15 299.65 219.65 306.95 L222.4 314.75 225.4 322.6 226.2 324.65 229.0 331.3 229.5 332.4 230.95 335.65 231.5 336.85 232.2 338.35 233.7 341.4 234.0 342.05 238.35 350.25 Q244.1 360.45 250.4 368.3 254.5 373.45 258.9 377.55 272.6 390.5 288.55 393.0 301.3 414.35 319.6 442.2 L320.75 443.95 323.05 447.65 327.5 455.2 331.2 462.4 Q332.95 466.15 334.1 469.45 L335.3 473.55 Q336.1 477.0 336.05 479.75 L335.85 481.85 335.3 484.6 Q333.45 492.55 331.05 485.1 L331.0 484.95 331.0 493.9 Q328.6 494.2 315.0 494.2 304.55 494.2 298.75 496.3 295.8 497.35 286.9 501.9 L286.85 502.2 303.4 501.9 321.9 501.95 325.7 501.75 M255.35 238.05 L255.4 238.1 Q257.35 240.4 262.3 258.95 267.3 277.8 272.4 287.9 277.5 297.95 282.0 316.25 L287.6 339.05 Q288.65 343.6 286.65 345.65 284.6 347.65 284.65 351.35 L279.55 351.7 Q269.15 351.7 257.45 342.85 L251.7 338.0 251.65 338.0 251.2 337.55 Q247.4 334.0 243.7 329.65 L240.25 325.4 234.35 317.25 229.0 308.85 227.05 305.5 223.8 299.65 221.85 295.8 220.6 293.3 Q216.9 285.8 213.65 277.65 L211.8 272.85 210.85 270.3 209.65 267.0 207.95 262.15 207.0 259.25 Q204.7 252.2 202.7 244.7 L202.2 242.95 203.2 245.2 Q206.1 251.9 209.7 258.5 L210.75 260.35 212.9 264.05 214.4 266.5 216.15 269.3 218.15 272.35 220.55 275.8 221.0 276.4 222.8 278.9 225.8 282.8 229.2 286.95 231.7 289.65 235.4 293.2 Q240.4 297.6 244.65 298.95 L244.85 299.0 248.1 299.5 248.45 299.5 254.2 298.9 Q256.6 297.95 256.6 294.6 256.6 289.85 252.4 280.8 L251.1 278.0 250.9 277.65 247.95 271.65 247.8 271.3 246.35 268.3 245.0 265.3 Q247.1 256.1 250.8 247.45 L252.1 244.6 253.25 242.25 253.35 241.95 255.35 238.05 M286.85 502.2 L286.35 502.2 282.15 502.2 277.9 502.05 282.15 502.2 286.35 502.2 286.85 502.2 M343.35 466.35 Q349.5 464.6 353.4 461.35 L356.6 458.05 Q359.4 458.15 361.6 459.5 362.55 460.15 363.05 461.6 364.15 465.1 361.3 467.9 358.7 470.45 355.25 472.25 351.95 474.0 349.75 476.1 L349.45 476.45 347.1 471.5 Q345.5 468.7 343.35 466.35 M346.3 479.75 L343.7 482.1 343.8 477.55 343.8 477.0 346.3 479.75 M130.05 67.9 L131.35 67.85 136.2 68.3 136.5 68.4 Q139.2 69.0 141.25 71.15 L141.6 71.5 Q141.0 71.55 140.5 72.1 L140.6 79.85 Q140.9 81.55 141.75 82.55 L143.25 83.65 145.4 84.05 145.4 85.75 142.55 88.1 142.5 88.15 Q141.0 89.25 140.4 90.4 140.6 91.6 140.4 92.95 139.55 94.25 138.2 95.3 135.05 97.7 129.25 98.7 L128.9 98.75 123.75 99.25 118.45 99.45 112.7 99.55 112.1 99.2 111.35 98.7 110.15 97.9 106.7 95.55 105.5 94.8 105.3 94.65 105.8 94.5 108.7 93.65 Q111.1 92.95 114.65 89.6 118.2 86.25 123.6 77.6 129.0 68.95 130.05 67.9 M146.65 84.0 Q148.55 85.35 150.85 86.05 153.0 86.7 155.0 87.75 156.9 88.7 159.1 90.6 161.15 92.45 162.15 94.25 L162.15 94.2 164.0 97.9 164.05 98.0 164.1 98.1 164.15 98.15 164.05 98.2 Q159.6 100.8 154.0 103.1 148.65 105.25 142.8 106.0 138.15 106.6 134.95 104.45 L135.15 104.1 139.05 98.0 Q141.1 94.8 143.25 91.95 146.45 87.75 146.65 84.0 M105.5 94.8 L105.8 94.5 105.5 94.8 M118.2 128.3 L119.0 128.7 119.95 129.5 117.85 130.1 116.6 130.5 111.65 132.3 Q109.45 133.25 106.65 136.95 103.8 140.6 94.9 144.35 86.0 148.05 89.0 157.7 91.95 167.3 93.65 175.7 L93.6 176.35 92.55 183.6 Q95.55 178.4 98.45 169.4 L102.15 161.55 103.1 157.0 Q103.6 154.45 104.95 152.75 106.95 150.3 109.3 145.2 111.35 140.85 114.0 138.35 116.0 136.5 117.7 135.4 L119.45 134.35 Q120.7 133.75 121.65 133.75 L127.7 133.35 128.0 133.3 128.5 133.45 128.65 133.05 130.8 133.05 131.8 133.05 132.25 133.05 133.45 133.05 142.85 133.05 148.95 133.05 154.25 133.05 154.7 136.4 157.0 134.65 Q161.3 130.7 163.15 125.35 L164.25 121.9 164.35 121.9 Q165.05 128.05 162.4 133.25 160.2 137.45 156.0 141.3 L155.4 141.85 156.5 151.25 155.85 151.3 Q144.5 152.15 137.3 157.6 L136.7 158.05 134.0 160.5 Q124.55 170.2 121.45 190.75 121.1 193.2 120.7 199.15 L120.4 204.45 119.65 221.05 119.5 224.1 Q118.95 234.3 117.35 243.9 116.15 250.85 114.4 257.45 110.55 272.0 104.3 284.65 L101.3 290.3 99.45 293.45 Q90.15 307.15 86.8 313.55 L102.5 300.85 103.9 299.6 104.45 299.1 104.9 298.7 Q109.65 294.45 113.4 290.3 116.7 286.65 119.25 283.05 130.7 267.0 132.0 244.95 L132.2 238.5 132.05 233.8 Q131.7 227.0 134.15 216.25 L135.0 212.6 137.9 200.8 139.0 195.1 Q140.95 193.15 144.2 191.2 L146.6 189.8 149.85 188.05 154.75 185.35 159.0 181.8 159.45 191.85 Q159.85 202.65 159.85 213.35 159.85 227.0 157.55 242.0 L155.05 256.15 Q154.5 264.25 154.7 284.6 L154.7 285.75 Q154.3 304.0 151.05 315.25 148.15 325.25 143.55 357.75 L142.85 362.35 Q138.3 391.5 130.15 407.85 L128.4 411.15 Q118.95 427.75 94.65 451.2 84.25 461.25 70.45 464.05 84.25 461.25 94.65 451.2 118.95 427.75 128.4 411.15 130.5 421.6 128.2 433.35 125.65 446.05 116.65 462.55 L125.45 467.7 134.85 472.75 136.75 473.65 140.75 475.35 145.55 476.65 148.5 477.1 161.45 476.5 Q168.5 475.3 173.85 471.7 L181.85 466.05 Q173.25 477.1 166.1 481.35 158.9 485.6 152.8 488.5 L140.75 494.0 Q134.75 496.55 129.0 498.45 L116.85 502.0 Q110.75 503.55 94.6 504.6 101.6 503.95 105.9 500.45 111.9 495.55 115.5 489.6 118.55 484.55 117.65 477.45 116.95 472.0 115.55 466.85 L114.95 464.8 Q114.3 462.55 113.1 460.4 L116.65 462.55 113.1 460.4 Q114.3 462.55 114.95 464.8 L115.55 466.85 Q111.1 474.65 102.6 482.45 93.15 491.0 60.2 495.0 L51.35 493.65 Q41.6 492.4 36.4 496.85 39.45 492.75 43.1 489.95 L44.55 488.85 Q61.25 480.8 67.55 469.5 L70.45 464.05 61.8 465.05 56.2 465.05 44.9 463.6 Q40.2 462.65 35.2 461.15 L31.2 459.85 21.85 456.25 22.0 455.85 30.75 434.55 35.0 431.6 Q48.4 421.95 63.4 404.75 71.3 395.7 81.1 382.75 L87.6 374.0 90.0 370.8 105.6 349.8 Q110.9 343.25 115.4 336.3 134.05 307.35 138.95 270.85 140.7 258.0 140.9 242.25 L140.9 237.6 140.75 225.7 140.75 225.35 140.75 216.95 140.25 226.2 140.2 226.95 Q139.45 237.6 138.05 247.95 136.5 259.1 134.1 269.9 127.95 297.65 117.1 319.1 L115.4 322.35 Q105.05 341.65 91.55 354.25 L84.9 359.9 Q70.2 371.2 52.2 375.45 63.45 340.85 70.55 309.25 75.45 287.1 78.35 266.4 83.6 228.5 82.0 195.45 L83.3 172.3 84.5 171.9 83.3 172.3 83.6 165.75 Q84.55 169.55 84.65 171.75 L85.15 171.0 85.3 168.05 Q85.3 165.4 82.7 157.55 80.1 149.65 80.35 148.4 80.6 147.15 81.8 145.25 83.0 143.35 85.7 140.95 L87.0 140.0 Q87.0 136.65 85.75 134.2 84.45 131.7 84.45 130.55 84.45 129.25 86.05 127.05 L86.1 127.0 105.4 124.25 Q107.95 124.25 112.15 125.55 L114.9 126.45 114.9 127.25 Q107.75 127.9 101.5 132.1 97.05 135.1 94.4 136.3 98.6 137.0 106.3 132.8 112.75 129.3 116.15 128.5 L117.3 128.3 117.85 128.25 118.2 128.3 M197.1 80.7 L197.1 80.75 196.85 80.95 197.1 80.7 M205.5 86.35 L205.6 86.4 205.5 86.45 205.5 86.35 M155.4 141.85 L154.7 136.4 155.4 141.85 M91.85 185.75 L92.55 183.6 91.85 185.75 M87.05 143.45 L86.7 142.85 85.7 140.95 86.7 142.85 87.05 143.45 M84.5 171.9 L84.65 171.75 84.5 171.9" fill="#9966ff" fill-rule="evenodd" stroke="none"/>
    <path d="M238.6 84.55 Q236.3 85.45 227.9 87.55 233.2 73.05 224.85 58.65 228.4 57.7 231.6 56.4 L233.85 59.95 234.6 60.55 Q239.6 73.75 238.6 84.55 M211.0 9.1 Q211.0 11.05 211.2 10.8 L208.3 15.75 Q207.75 16.5 206.8 19.55 L206.1 21.9 204.2 28.9 204.1 29.3 204.05 29.3 Q197.7 47.65 181.8 49.4 183.0 43.85 182.95 38.9 183.0 43.85 181.8 49.4 L181.25 49.45 181.15 50.3 178.55 50.3 Q176.45 50.45 174.85 49.45 173.15 48.35 172.1 46.95 171.3 46.0 171.25 44.8 L175.3 41.9 180.1 37.7 180.6 39.6 182.95 38.9 Q192.2 35.7 200.4 25.0 L200.4 25.05 200.7 24.6 201.45 23.4 202.45 22.15 202.75 21.85 204.0 19.95 205.8 17.1 207.45 14.75 208.05 14.05 208.4 13.6 211.0 9.1 M231.15 55.8 L224.7 57.4 Q211.2 60.2 192.35 59.55 210.1 58.2 221.15 51.5 216.0 43.55 213.05 35.65 L213.7 36.1 219.15 39.0 231.15 55.8 M177.05 80.1 Q178.5 78.5 175.5 72.6 178.2 76.25 180.05 76.05 181.85 75.85 183.75 74.65 185.65 73.4 189.15 72.7 184.6 75.45 182.6 79.1 L181.75 80.8 177.05 80.1" fill="#ffceb7" fill-rule="evenodd" stroke="none"/>
    <path d="M218.45 95.4 L219.55 95.25 224.35 94.7 227.75 94.55 230.25 94.15 Q231.95 93.65 233.95 92.55 L238.8 89.9 241.8 89.55 244.0 88.95 245.3 88.4 245.8 90.1 246.05 91.2 246.2 91.85 246.15 92.2 246.1 92.75 Q245.85 94.65 244.95 96.55 243.65 99.2 243.65 99.65 L244.7 103.0 245.25 105.4 245.2 105.4 244.8 105.4 244.05 105.0 244.2 105.4 Q240.05 105.55 237.3 110.1 L237.0 110.6 236.4 110.3 233.25 110.3 233.25 112.2 228.4 107.1 Q225.8 104.75 223.55 104.25 L221.5 104.1 221.4 104.1 Q222.55 99.2 218.45 95.55 L218.45 95.4 M221.25 106.25 L222.0 107.25 Q222.85 107.7 223.85 107.8 L223.85 107.9 223.9 108.55 223.9 109.9 Q223.9 113.7 222.4 117.7 L221.9 118.95 219.15 124.95 Q215.45 132.85 214.65 140.9 L214.4 145.5 214.4 150.4 214.4 155.2 214.4 155.9 214.45 160.25 214.5 165.25 214.5 165.6 214.6 167.85 214.75 171.15 Q215.0 174.95 215.4 178.3 L212.55 171.85 212.4 171.55 Q212.05 170.4 211.85 169.0 211.65 167.7 211.6 166.2 L211.6 165.65 211.7 161.2 211.7 160.4 211.7 155.2 211.7 155.1 211.7 155.0 211.75 150.95 Q211.9 145.45 212.5 140.7 213.55 131.4 216.15 124.85 L218.15 119.55 219.6 115.0 Q220.55 111.35 221.2 106.8 L221.25 106.25 M239.2 113.85 L239.8 113.95 242.75 114.2 244.75 116.75 247.8 121.6 248.3 122.55 253.25 132.2 Q254.5 133.05 254.75 133.7 256.85 139.05 260.55 143.45 L261.15 144.2 261.35 144.4 Q263.9 147.65 265.55 151.4 L266.05 152.45 Q267.5 156.05 269.5 159.5 L270.35 160.95 270.85 161.75 270.45 162.0 Q271.75 165.6 271.45 171.6 269.65 170.0 269.45 168.75 269.3 167.6 266.45 161.4 263.65 155.45 262.65 153.85 261.45 151.85 259.65 151.1 L256.35 150.1 Q252.15 148.65 249.6 140.8 248.45 134.2 247.4 130.9 L246.9 129.5 Q246.15 127.75 245.0 126.05 244.6 123.1 242.95 120.15 L242.05 118.6 239.2 113.85 M238.35 111.35 L238.0 111.55 238.35 111.35 M64.45 520.05 L42.9 520.05 Q40.3 517.6 37.85 514.75 37.0 513.8 34.7 509.75 32.65 506.1 33.95 500.7 L34.05 500.35 36.4 496.85 Q41.6 492.4 51.35 493.65 L60.2 495.0 66.9 496.55 71.45 498.0 Q70.35 506.65 68.55 511.9 66.75 517.15 64.45 520.05 M251.2 485.4 L254.7 489.25 Q253.5 493.7 253.9 497.35 L251.2 485.4 M162.8 312.45 L162.05 303.8 160.85 291.85 159.85 280.85 Q159.55 276.25 160.0 270.7 L160.05 264.7 160.05 264.65 Q159.9 263.1 160.25 261.1 160.3 260.6 160.0 260.2 L159.9 260.05 159.95 259.45 Q159.35 256.65 159.65 253.5 160.15 247.8 160.9 242.25 161.75 236.45 162.75 230.8 L164.4 219.1 Q164.7 216.3 163.95 213.65 162.45 208.4 163.3 203.0 L164.65 191.85 165.3 180.8 Q165.4 174.95 168.05 169.9 L168.1 169.9 Q169.8 166.5 170.9 162.75 169.1 170.55 169.4 177.6 169.75 186.25 170.6 189.6 171.45 192.9 173.3 197.55 L177.5 208.55 Q179.7 214.5 183.5 220.25 L184.7 222.1 185.1 242.95 185.45 256.1 184.1 254.2 Q180.4 248.7 177.6 242.9 L174.1 235.35 174.05 235.45 Q182.4 259.65 186.1 268.6 187.05 284.5 188.9 301.05 L184.4 295.7 Q181.0 291.4 177.2 287.75 177.95 294.45 180.0 300.9 182.1 307.3 184.8 313.3 L190.55 325.6 192.65 329.6 Q194.5 342.3 196.9 355.4 L194.05 354.25 Q189.05 352.25 183.3 347.85 177.55 343.45 173.65 337.65 169.75 331.85 167.35 325.85 166.05 322.55 162.8 312.45 M171.75 159.45 L169.35 158.8 169.35 158.7 171.85 159.2 171.75 159.45 M143.45 80.8 Q143.9 81.65 144.65 82.35 L145.8 83.4 145.85 83.45 146.45 83.9 146.65 84.0 Q146.45 87.75 143.25 91.95 141.1 94.8 139.05 98.0 L138.75 97.2 Q140.0 94.85 140.4 92.95 140.6 91.6 140.4 90.4 141.0 89.25 142.5 88.15 L142.55 88.1 145.4 85.75 145.4 84.05 143.25 83.65 143.45 80.8 M107.95 120.6 L108.95 120.55 109.45 120.8 109.6 120.9 Q113.0 122.5 115.15 124.4 L116.8 126.1 117.7 127.4 118.1 128.15 117.85 128.25 117.3 128.3 116.15 128.5 Q112.75 129.3 106.3 132.8 98.6 137.0 94.4 136.3 97.05 135.1 101.5 132.1 107.75 127.9 114.9 127.25 L114.9 126.45 112.15 125.55 Q107.95 124.25 105.4 124.25 L86.1 127.0 86.55 126.4 Q91.65 123.8 93.1 123.25 L93.3 123.2 Q99.7 120.8 107.95 120.6 M121.2 130.9 L121.9 131.75 122.1 132.0 122.15 133.3 119.2 133.8 117.45 134.3 115.65 135.05 Q111.05 137.35 107.6 143.2 104.6 148.3 100.7 159.45 L92.55 183.6 93.6 176.35 93.65 175.7 94.5 167.55 Q93.8 166.3 95.55 163.5 L98.2 159.25 Q100.05 152.15 101.25 149.5 105.3 140.75 109.75 136.45 113.0 133.3 116.95 131.9 L118.3 131.45 121.2 130.9 M134.0 118.15 L134.7 114.8 136.45 117.6 Q139.55 122.1 145.55 122.9 151.35 123.7 156.7 123.0 160.2 122.55 162.7 120.2 L164.1 118.8 164.35 121.65 164.25 121.9 163.15 125.35 Q161.3 130.7 157.0 134.65 L154.7 136.4 154.25 133.05 148.95 133.05 142.85 129.65 148.95 133.05 142.85 133.05 Q143.1 131.25 142.85 129.65 L142.8 129.6 142.75 129.6 Q138.35 127.15 135.95 122.8 134.7 120.55 134.0 118.15 M184.55 119.6 L184.3 121.1 Q183.85 124.45 183.65 129.15 181.35 125.05 180.75 120.3 179.45 126.0 179.5 131.95 179.6 137.7 180.35 143.3 181.1 148.5 183.1 153.35 L183.5 154.4 183.65 154.75 183.7 156.9 181.45 156.8 180.85 157.1 Q178.35 158.2 175.95 158.15 L174.95 158.05 174.95 157.8 Q175.1 157.3 174.85 156.85 173.85 155.2 173.2 153.35 171.9 149.65 171.9 145.1 171.9 138.05 173.95 132.0 L178.15 119.35 Q179.15 116.35 180.75 113.8 L181.05 113.6 184.55 119.6 M177.8 151.2 Q178.7 152.2 179.4 153.35 180.4 155.1 180.85 157.1 180.4 155.1 179.4 153.35 178.7 152.2 177.8 151.2 M159.0 181.8 L157.75 164.35 160.3 160.95 Q162.15 158.75 164.2 157.05 L167.45 158.2 167.55 158.25 162.8 167.5 Q160.2 172.65 160.3 179.75 L160.05 186.35 159.45 191.85 159.0 181.8 M157.55 161.95 L157.2 158.2 157.7 157.65 159.45 155.5 159.65 155.4 Q161.1 155.6 161.85 155.95 L160.1 158.5 157.55 161.95 M154.7 285.75 L155.1 288.65 155.2 289.35 155.45 290.9 156.75 303.2 157.55 317.4 157.75 330.85 Q157.7 336.45 158.55 343.25 159.35 350.0 160.9 358.15 162.45 366.3 163.75 371.1 165.0 375.85 166.85 380.55 L170.3 389.1 Q171.95 393.2 173.7 399.05 175.4 404.85 175.4 405.7 175.35 406.55 179.25 413.95 183.1 421.3 185.85 425.35 L191.75 433.9 192.85 435.45 195.15 438.45 195.05 438.55 192.75 435.6 192.75 435.7 Q192.55 441.1 190.2 445.85 187.6 450.85 185.1 454.45 182.55 457.95 177.8 461.9 L177.85 461.9 177.8 461.9 Q173.0 465.8 168.45 468.05 163.9 470.3 158.75 471.85 153.6 473.35 148.3 473.95 L144.4 474.1 136.6 473.3 Q141.0 475.45 145.55 476.5 L145.55 476.65 140.75 475.35 136.75 473.65 134.85 472.75 140.75 471.65 Q155.7 468.05 161.2 457.2 167.7 444.25 166.7 428.85 165.65 413.4 160.6 402.6 L150.2 380.35 Q145.2 369.8 142.85 362.35 L143.55 357.75 Q148.15 325.25 151.05 315.25 154.3 304.0 154.7 285.75" fill="#7d01c0" fill-rule="evenodd" stroke="none"/>
    <path d="M245.3 105.65 Q248.7 107.35 251.65 108.55 L252.2 108.75 254.4 109.7 Q259.15 111.75 261.65 114.35 L265.05 117.75 265.15 117.85 267.35 119.85 269.45 121.8 269.95 122.3 270.8 123.1 271.8 124.0 272.15 124.3 272.9 125.05 273.8 125.85 276.0 128.5 278.25 130.9 281.15 133.6 282.3 134.6 284.15 136.35 Q286.4 138.7 288.35 141.35 291.2 145.45 293.35 150.6 295.3 155.4 298.15 159.75 299.8 162.35 303.05 162.4 308.6 162.4 313.3 165.35 316.45 167.35 320.2 164.3 321.5 163.25 322.95 162.3 319.7 165.55 316.85 169.3 313.45 173.75 307.3 173.65 L306.05 173.65 299.15 172.75 Q295.95 168.75 292.15 165.0 287.9 160.9 284.4 156.45 L280.9 152.1 273.5 142.9 Q271.75 140.75 269.5 139.0 L269.8 138.9 Q267.55 135.65 265.95 134.05 L265.3 133.35 264.45 132.45 Q261.5 129.1 259.1 125.2 L256.6 121.4 253.6 117.45 Q251.95 115.35 249.75 113.85 248.9 113.25 248.05 112.8 246.9 112.15 245.65 111.65 L245.2 113.1 245.95 113.75 246.6 114.3 248.75 116.5 Q250.4 118.4 251.7 120.7 L253.45 123.7 256.2 127.55 Q259.25 131.5 262.25 136.25 L262.9 137.25 263.6 138.2 265.25 140.15 Q268.85 143.95 271.4 148.95 274.1 154.35 277.55 157.8 L279.2 159.95 Q283.65 162.9 285.85 168.2 288.1 173.7 293.6 175.75 296.9 176.95 299.8 176.1 L299.85 176.25 297.1 177.0 Q291.55 178.4 286.25 177.55 284.9 177.35 284.3 176.65 280.85 172.8 278.9 167.55 276.95 162.15 273.6 157.65 L267.7 149.55 266.9 148.4 262.3 141.75 261.9 141.2 260.4 138.95 Q257.65 134.95 253.25 132.2 L248.3 122.55 247.8 121.6 244.75 116.75 242.75 114.2 239.95 111.35 238.35 111.35 237.7 111.0 237.65 110.95 237.0 110.6 237.3 110.1 Q240.05 105.55 244.2 105.4 L244.05 105.0 244.8 105.4 245.2 105.6 245.3 105.65 M244.2 105.4 L244.8 105.4 244.2 105.4 M24.6 485.7 Q30.65 481.6 33.45 479.25 36.25 476.85 36.45 475.8 35.85 474.45 34.6 473.2 33.05 471.65 31.05 470.7 L34.75 469.1 Q40.0 466.85 44.9 463.6 L56.2 465.05 Q52.05 469.3 47.45 472.95 L35.55 483.0 Q37.3 480.25 36.45 475.8 37.3 480.25 35.55 483.0 L33.1 485.15 32.65 485.3 Q30.5 486.1 27.25 485.75 L24.6 485.7 M300.25 106.55 Q302.75 106.85 304.85 107.5 309.0 108.8 311.6 111.45 313.9 113.8 315.75 117.85 L318.85 125.7 Q321.25 131.85 322.55 140.4 323.6 147.3 323.95 155.8 L323.95 155.95 Q320.75 156.85 318.2 158.6 315.9 160.15 313.55 159.5 L319.85 151.45 319.5 151.35 319.6 151.15 Q320.4 145.9 319.35 138.3 318.2 129.9 314.85 122.7 310.8 113.85 304.85 109.3 302.7 107.65 300.25 106.55 M279.05 106.05 L279.0 105.95 279.95 106.05 282.05 106.35 282.15 106.35 282.3 106.4 282.65 106.55 Q292.35 109.95 294.2 112.05 L294.25 112.05 299.8 117.7 Q303.4 121.05 304.25 123.0 L304.85 124.35 306.55 127.4 Q308.0 129.85 309.6 130.65 311.15 131.45 312.1 135.0 L312.45 136.35 313.05 139.3 Q313.65 142.9 313.6 146.35 313.5 151.15 311.25 154.5 L309.45 157.25 Q308.1 156.45 307.4 156.15 L307.65 155.75 Q309.9 152.4 309.95 147.6 310.0 142.85 308.85 137.8 L308.4 137.35 Q307.9 137.0 307.1 134.85 L305.2 130.55 304.85 129.9 Q303.85 128.2 302.25 126.8 300.35 125.15 298.2 122.25 296.0 119.35 293.5 117.1 L292.4 116.15 289.6 113.75 Q288.45 112.8 282.3 112.1 L280.25 111.9 279.05 106.05 M81.8 118.75 Q85.25 115.4 90.35 111.55 L90.0 114.15 90.0 115.95 103.55 113.4 Q105.55 113.4 110.95 115.2 L113.15 116.7 114.15 117.5 115.25 118.35 113.05 115.85 Q108.8 111.25 106.0 109.8 101.8 107.6 99.55 107.6 L98.55 107.55 98.2 106.7 100.9 106.25 Q104.95 106.25 110.2 110.25 L113.0 112.6 115.1 114.85 115.2 114.8 116.05 115.7 Q118.5 118.35 119.9 121.1 L120.75 123.0 121.45 125.65 121.6 126.45 121.85 128.9 121.85 128.95 121.95 129.9 122.0 130.8 122.05 131.3 121.9 131.75 122.05 131.3 122.1 132.0 122.2 132.15 122.65 132.75 122.95 133.2 122.15 133.3 122.1 132.0 121.9 131.75 121.2 130.9 119.95 129.5 119.0 128.7 118.2 128.3 118.1 128.15 118.2 128.3 117.85 128.25 118.1 128.15 117.7 127.4 116.8 126.1 115.15 124.4 Q113.0 122.5 109.6 120.9 L109.65 120.85 109.45 120.8 108.95 120.55 107.95 120.6 105.4 120.3 95.8 118.95 89.45 118.65 84.3 118.85 81.8 118.75 M117.4 120.95 L115.25 118.35 117.4 120.95 M90.0 116.5 L90.0 115.95 90.0 116.5 M159.15 155.15 L159.35 155.35 159.45 155.5 157.7 157.65 157.15 157.85 156.95 155.85 159.15 155.15" fill="#a0d0fe" fill-rule="evenodd" stroke="none"/>
    <path d="M299.85 176.25 L299.8 176.1 Q296.9 176.95 293.6 175.75 288.1 173.7 285.85 168.2 283.65 162.9 279.2 159.95 L277.55 157.8 Q274.1 154.35 271.4 148.95 268.85 143.95 265.25 140.15 L263.6 138.2 262.9 137.25 262.25 136.25 Q259.25 131.5 256.2 127.55 L253.45 123.7 251.7 120.7 Q250.4 118.4 248.75 116.5 L246.6 114.3 245.95 113.75 245.2 113.1 245.65 111.65 Q246.9 112.15 248.05 112.8 248.9 113.25 249.75 113.85 251.95 115.35 253.6 117.45 L256.6 121.4 259.1 125.2 Q261.5 129.1 264.45 132.45 L265.3 133.35 265.95 134.05 Q267.55 135.65 269.8 138.9 L269.5 139.0 Q271.75 140.75 273.5 142.9 L280.9 152.1 284.4 156.45 Q287.9 160.9 292.15 165.0 295.95 168.75 299.15 172.75 L299.65 173.4 301.65 175.3 302.0 175.55 299.85 176.25 M37.85 514.75 L30.45 520.05 25.7 520.05 Q26.45 516.2 28.25 513.55 30.7 509.9 30.5 505.0 30.25 500.1 23.45 496.15 16.6 492.15 19.1 488.65 20.95 486.0 24.6 485.7 L27.25 485.75 Q30.5 486.1 32.65 485.3 L33.1 485.15 Q34.3 484.55 35.15 483.55 L35.55 483.0 47.45 472.95 Q52.05 469.3 56.2 465.05 L61.8 465.05 61.05 467.3 60.15 468.75 Q59.4 470.0 58.9 471.35 56.6 477.2 51.95 482.0 L44.55 488.85 43.1 489.95 Q39.45 492.75 36.4 496.85 L34.05 500.35 33.95 500.7 Q32.65 506.1 34.7 509.75 37.0 513.8 37.85 514.75 M278.6 106.05 L278.6 105.95 278.5 105.0 Q279.35 104.3 278.35 103.7 L278.25 103.65 Q277.9 103.4 278.35 103.35 L286.4 103.75 Q295.9 104.65 300.25 106.55 302.7 107.65 304.85 109.3 310.8 113.85 314.85 122.7 318.2 129.9 319.35 138.3 320.4 145.9 319.6 151.15 L319.5 151.35 319.85 151.45 313.55 159.5 313.4 159.45 311.9 158.75 309.45 157.25 311.25 154.5 Q313.5 151.15 313.6 146.35 313.65 142.9 313.05 139.3 L312.45 136.35 312.1 135.0 Q311.15 131.45 309.6 130.65 308.0 129.85 306.55 127.4 L304.85 124.35 304.25 123.0 Q303.4 121.05 299.8 117.7 L294.25 112.05 294.2 112.05 Q292.35 109.95 282.65 106.55 L282.3 106.4 282.15 106.35 282.05 106.35 279.95 106.05 279.0 105.95 279.05 106.05 278.6 106.05 M97.55 104.5 Q97.8 98.55 104.95 98.75 L105.15 98.75 107.65 99.3 Q109.85 100.1 112.55 102.1 L115.2 104.25 Q116.4 105.3 117.6 106.6 L120.8 110.3 121.0 110.6 Q129.2 121.5 128.8 131.3 L128.8 131.6 128.65 133.05 127.85 133.05 127.1 133.05 127.05 133.05 122.95 133.2 122.65 132.75 122.2 132.15 122.1 132.0 122.05 131.3 122.0 130.8 121.95 129.9 121.85 128.95 121.85 128.9 121.6 126.45 121.45 125.65 120.75 123.0 119.9 121.1 Q118.5 118.35 116.05 115.7 L115.2 114.8 115.1 114.85 113.0 112.6 110.2 110.25 Q104.95 106.25 100.9 106.25 L98.2 106.7 97.55 104.95 97.55 104.5 M131.8 132.9 Q131.8 131.65 132.75 130.5 132.95 131.85 133.45 133.05 L132.25 133.05 131.8 132.9 M133.8 119.4 Q133.05 117.25 132.8 114.15 132.35 108.1 134.2 105.0 L138.5 97.65 138.75 97.2 139.05 98.0 135.15 104.1 134.95 104.45 Q133.05 107.7 133.05 111.65 L133.1 113.3 Q133.3 115.8 134.0 118.15 L133.8 119.4 M156.6 152.1 L159.15 155.15 156.95 155.85 156.6 152.1" fill="#3399ff" fill-rule="evenodd" stroke="none"/>
    <path d="M241.8 519.8 L210.3 519.85 208.8 517.4 Q206.65 513.75 204.75 508.55 L200.65 496.6 Q198.4 489.8 196.25 482.25 194.45 488.55 193.75 496.8 193.05 505.05 194.0 510.5 194.85 515.55 196.15 519.85 L74.65 520.05 Q73.25 517.35 72.7 514.45 71.65 508.65 73.4 498.9 73.75 501.25 76.45 505.95 79.15 510.6 84.9 513.6 90.6 516.6 98.15 516.85 L111.15 516.4 122.9 514.35 Q129.15 512.95 135.15 510.85 L140.75 508.75 146.45 506.35 Q151.7 503.95 158.1 500.55 L170.15 493.65 Q175.8 490.15 181.0 486.3 186.15 482.4 190.15 478.15 194.1 473.9 197.5 467.95 200.9 461.95 201.85 454.15 207.85 459.85 214.0 462.25 L222.55 465.5 224.9 466.2 227.35 476.8 Q228.65 483.25 230.65 489.65 L234.6 502.4 Q236.6 508.75 238.9 514.35 240.3 517.8 241.8 519.8" fill="#bcdefe" fill-rule="evenodd" stroke="none"/>
    <path d="M235.55 466.95 L238.6 470.4 236.5 470.1 Q230.25 469.05 224.9 466.2 L222.55 465.5 214.0 462.25 Q207.85 459.85 201.85 454.15 200.9 461.95 197.5 467.95 194.1 473.9 190.15 478.15 186.15 482.4 181.0 486.3 175.8 490.15 170.15 493.65 L158.1 500.55 Q151.7 503.95 146.45 506.35 L140.75 508.75 135.15 510.85 Q129.15 512.95 122.9 514.35 L111.15 516.4 98.15 516.85 Q90.6 516.6 84.9 513.6 79.15 510.6 76.45 505.95 73.75 501.25 73.4 498.9 L73.45 498.75 Q76.25 499.85 78.85 501.1 83.35 503.25 88.85 504.7 L93.0 504.7 94.15 504.65 94.6 504.6 Q110.75 503.55 116.85 502.0 L129.0 498.45 Q134.75 496.55 140.75 494.0 L152.8 488.5 Q158.9 485.6 166.1 481.35 173.25 477.1 181.85 466.05 L182.7 465.4 186.2 462.05 Q190.65 457.25 193.7 451.75 195.75 448.1 197.3 441.0 L198.85 442.75 Q202.75 447.05 207.75 450.8 L213.4 455.15 213.75 455.4 224.4 461.5 Q231.2 465.2 235.55 466.95" fill="#93d0fd" fill-rule="evenodd" stroke="none"/>
    <path d="M354.05 438.5 L352.65 440.75 Q350.35 444.0 347.95 446.35 345.4 449.15 342.25 450.95 L339.55 452.35 Q337.05 453.45 334.4 454.2 L334.4 454.15 Q334.15 451.9 332.45 447.9 L338.1 447.05 Q342.1 446.15 345.85 444.45 350.2 442.05 354.05 438.5 M171.8 106.75 L174.8 102.4 Q176.45 99.45 176.55 96.8 176.5 102.85 178.5 108.2 L178.7 108.75 178.55 108.95 178.3 109.25 177.45 110.45 Q175.4 113.4 174.05 116.7 L172.6 110.35 171.8 106.75" fill="#cc0000" fill-rule="evenodd" stroke="none"/>
    <path d="M212.45 89.95 L211.2 90.2 210.2 90.4 208.0 90.25 207.85 88.8 207.8 88.65 207.5 88.05 212.45 89.95 M330.7 444.2 L336.35 443.35 Q340.35 442.45 344.1 440.75 L344.5 440.6 344.35 440.45 Q352.2 436.45 358.9 427.05 356.0 434.7 354.05 438.5 350.2 442.05 345.85 444.45 342.1 446.15 338.1 447.05 L332.45 447.9 330.7 444.2 M351.4 484.4 L351.4 484.55 Q351.45 485.2 351.65 485.85 L351.1 485.1 348.9 482.6 346.65 480.15 346.3 479.75 343.8 477.0 Q343.5 473.65 339.7 468.05 L338.25 465.7 Q341.95 468.0 344.15 471.1 346.5 474.35 348.35 477.7 L350.2 481.4 351.4 484.4 M345.25 486.25 L346.15 487.8 346.9 489.3 Q348.75 493.25 348.5 497.8 347.1 494.35 344.45 492.05 L342.45 490.35 Q343.2 487.5 343.55 483.7 L344.55 485.2 345.25 486.25 M168.3 95.4 Q169.7 93.7 171.8 91.5 173.85 89.3 177.05 80.1 L181.75 80.8 Q179.8 85.05 179.65 90.05 179.4 95.65 182.6 100.45 L184.25 102.8 Q181.15 105.45 178.7 108.75 L178.5 108.2 Q176.5 102.85 176.55 96.8 176.45 99.45 174.8 102.4 L171.8 106.75 170.4 101.0 170.2 100.4 168.3 95.4" fill="#ff3300" fill-rule="evenodd" stroke="none"/>
    <path d="M353.15 452.3 L357.0 449.2 Q359.1 447.15 362.0 439.45 361.8 444.95 361.15 449.0 360.45 453.1 357.75 456.25 L356.6 458.05 353.4 461.35 Q349.5 464.6 343.35 466.35 345.5 468.7 347.1 471.5 L349.45 476.45 350.8 480.9 350.2 481.4 348.35 477.7 Q346.5 474.35 344.15 471.1 341.95 468.0 338.25 465.7 335.65 461.1 334.7 456.15 338.35 456.6 343.4 456.3 L344.4 456.2 Q349.5 455.6 353.15 452.3 M336.35 460.6 Q340.35 463.05 343.35 466.35 340.35 463.05 336.35 460.6 M168.3 95.4 L166.6 92.1 Q162.95 86.6 156.9 84.1 154.9 83.25 153.25 81.85 L151.6 80.35 151.5 80.2 152.05 79.2 152.25 78.9 152.05 78.9 152.4 78.6 152.25 78.9 161.35 78.9 169.8 79.35 177.05 80.1 Q173.85 89.3 171.8 91.5 169.7 93.7 168.3 95.4 M181.75 80.8 L182.9 81.05 189.9 82.6 189.5 88.95 188.45 99.5 186.1 101.25 184.25 102.8 182.6 100.45 Q179.4 95.65 179.65 90.05 179.8 85.05 181.75 80.8" fill="#ff6600" fill-rule="evenodd" stroke="none"/>
    <path d="M211.1 2.95 L211.05 3.85 211.0 9.1 208.4 13.6 208.3 13.5 Q205.75 16.6 207.45 14.75 L205.8 17.1 204.0 19.95 202.75 21.85 202.45 22.15 201.45 23.4 200.7 24.6 200.4 25.05 200.4 25.0 Q192.2 35.7 182.95 38.9 L182.7 35.1 182.95 38.9 180.6 39.6 180.1 37.7 182.7 35.1 182.65 34.75 182.25 32.4 179.4 35.65 Q177.2 29.7 172.5 24.15 182.4 22.7 196.2 17.4 L196.05 17.0 Q198.95 13.05 199.85 12.4 204.0 9.4 208.6 5.25 L211.1 2.95 M180.3 26.3 L180.55 26.85 Q181.65 29.5 182.25 32.4 181.65 29.5 180.55 26.85 L180.3 26.3" fill="#feac8d" fill-rule="evenodd" stroke="none"/>
    <path d="M166.25 96.8 L168.3 95.4 170.2 100.4 170.4 101.0 171.8 106.75 172.6 110.35 174.05 116.7 173.9 117.05 Q173.15 118.85 172.65 120.75 L172.45 121.15 171.55 123.2 172.45 121.15 172.65 120.75 Q173.15 118.85 173.9 117.05 L174.05 116.7 Q175.4 113.4 177.45 110.45 L178.3 109.25 179.45 111.2 Q177.15 114.5 175.8 118.55 L175.75 118.55 171.6 131.2 Q169.4 137.65 169.4 145.1 169.4 149.6 170.55 153.35 171.2 155.4 172.15 157.2 L171.6 156.95 Q170.35 156.3 169.6 155.05 L168.7 153.35 168.3 152.35 167.95 151.35 Q167.25 149.0 167.15 146.25 167.0 143.25 167.25 140.4 167.5 137.05 168.2 133.9 L168.25 133.9 168.35 133.9 170.2 127.55 171.55 123.2 171.45 123.15 171.4 123.15 Q172.2 120.0 171.95 117.0 L171.95 116.95 171.3 111.1 Q170.85 108.3 169.95 105.9 L168.3 101.55 167.05 98.5 167.05 98.45 166.4 97.1 166.3 96.9 166.25 96.8" fill="#cccccc" fill-rule="evenodd" stroke="none"/>
    <path d="M162.05 155.2 L168.3 152.35 168.7 153.35 169.6 155.05 Q170.35 156.3 171.6 156.95 L172.15 157.2 174.9 158.05 174.95 158.05 175.95 158.15 175.75 159.65 173.1 159.35 172.85 159.3 172.8 159.3 171.85 159.2 169.35 158.7 167.55 158.25 167.45 158.2 164.2 157.05 162.65 156.35 162.15 156.1 162.1 155.5 162.05 155.2 M172.85 158.3 L172.8 159.3 172.85 158.3" fill="#ff0000" fill-rule="evenodd" stroke="none"/>
    <path d="M183.7 156.9 L183.75 160.4 175.75 159.65 175.95 158.15 Q178.35 158.2 180.85 157.1 L181.45 156.8 183.7 156.9 M183.85 168.35 L183.9 170.4 181.45 170.45 Q178.65 170.25 176.65 168.45 174.55 166.5 173.55 163.7 172.75 161.4 173.1 159.35 L175.75 159.65 Q175.4 162.0 176.45 164.25 177.65 166.95 180.5 167.8 L183.85 168.35" fill="#ff0033" fill-rule="evenodd" stroke="none"/>
    <path d="M278.45 72.8 Q278.8 71.4 279.4 70.25 M214.55 93.1 L215.2 93.65 217.0 95.1 217.9 95.1 218.3 95.45 M274.15 66.15 L272.25 66.2 271.1 66.25 Q268.75 66.45 267.7 67.2 L267.55 67.25 267.4 67.25 263.65 67.55 263.35 67.6 260.15 67.8 255.45 68.3 254.7 68.45 254.25 68.6 Q250.1 69.9 248.6 72.15 248.15 72.85 247.45 75.9 L247.25 76.9 Q246.7 79.0 245.95 79.85 243.65 82.55 238.6 84.55 236.3 85.45 227.9 87.55 L220.55 89.3 219.9 89.3 219.85 89.3 218.1 89.3 212.45 89.95 M211.2 90.2 L210.2 90.4 211.15 90.45 212.7 91.55 212.9 91.7 213.55 92.25 213.75 92.4 214.55 93.1 M275.3 63.05 L275.1 63.05 M274.15 66.15 L274.2 66.15 276.85 66.15 M281.8 65.85 L281.9 65.8 281.9 65.0 281.8 65.85 281.6 67.1 Q280.3 68.35 279.45 70.15 L279.4 70.25 M275.3 63.05 Q279.7 63.1 280.7 63.8 L281.9 65.0 M281.8 65.85 L276.85 66.15 M231.15 55.8 L224.7 57.4 Q211.2 60.2 192.35 59.55 M232.5 55.35 L231.15 55.8 M220.55 89.3 L220.2 89.3 219.9 89.3 M218.45 95.55 Q222.55 99.2 221.4 104.1 L221.5 104.1 223.55 104.25 Q225.8 104.75 228.4 107.1 L233.25 112.2 233.25 110.3 236.4 110.3 237.0 110.6 237.3 110.1 Q240.05 105.55 244.2 105.4 M244.8 105.4 L245.2 105.4 245.25 105.4 M218.45 95.55 L218.3 95.45 M235.9 133.5 L235.95 133.35 Q237.25 126.5 235.7 120.8 233.7 115.6 233.25 113.9 L233.25 113.55 233.25 112.2 M242.75 114.2 L239.95 111.35 238.35 111.35 237.7 111.0 237.65 110.95 237.0 110.6 M244.8 105.4 L244.2 105.4 M248.3 122.55 L247.8 121.6 244.75 116.75 242.75 114.2 M277.75 95.65 L286.5 95.1 Q289.85 95.5 293.95 96.85 L297.25 98.05 Q301.35 98.75 304.85 100.15 L304.9 100.2 304.95 100.2 305.9 100.6 307.25 101.25 Q311.4 103.35 314.55 106.6 321.25 113.5 322.6 124.75 L322.95 127.35 Q324.0 134.35 326.15 143.15 L326.25 143.5 Q327.7 149.9 327.8 158.6 M277.4 171.05 L277.35 171.35 276.95 176.3 274.8 189.75 Q271.3 208.5 266.95 216.3 L261.8 225.75 283.85 302.1 285.35 306.05 Q294.35 329.5 296.85 346.5 297.9 353.6 297.8 359.6 297.55 379.4 299.85 387.65 300.55 390.15 302.0 393.6 305.35 401.4 312.8 413.9 L324.95 433.7 Q328.5 439.75 330.7 444.2 L336.35 443.35 Q340.35 442.45 344.1 440.75 L344.35 440.45 Q352.2 436.45 358.9 427.05 356.0 434.7 354.05 438.5 L352.65 440.75 Q350.35 444.0 347.95 446.35 345.4 449.15 342.25 450.95 L339.55 452.35 Q337.05 453.45 334.4 454.2 L334.7 456.15 Q338.35 456.6 343.4 456.3 L344.4 456.2 Q349.5 455.6 353.15 452.3 L357.0 449.2 Q359.1 447.15 362.0 439.45 361.8 444.95 361.15 449.0 360.45 453.1 357.75 456.25 363.2 456.4 368.55 458.1 372.0 459.15 374.65 461.85 378.4 465.65 381.7 469.75 374.75 470.15 368.1 471.85 L366.4 472.3 Q361.7 473.65 357.65 475.9 355.35 477.2 353.25 478.85 L350.8 480.9 351.4 484.4 351.4 484.55 Q351.45 485.2 351.65 485.85 L351.1 485.1 348.9 482.6 Q346.95 484.35 345.25 486.25 L346.15 487.8 346.9 489.3 Q348.75 493.25 348.5 497.8 347.1 494.35 344.45 492.05 L342.45 490.35 341.55 492.9 Q339.35 497.95 334.4 500.0 331.25 501.3 325.7 501.75 320.8 506.85 316.65 511.65 L309.1 519.85 M42.9 520.05 Q40.3 517.6 37.85 514.75 L30.45 520.05 M25.7 520.05 Q26.45 516.2 28.25 513.55 30.7 509.9 30.5 505.0 30.25 500.1 23.45 496.15 16.6 492.15 19.1 488.65 20.95 486.0 24.6 485.7 30.65 481.6 33.45 479.25 36.25 476.85 36.45 475.8 35.85 474.45 34.6 473.2 33.05 471.65 31.05 470.7 27.7 469.0 23.15 469.15 16.25 469.3 10.8 473.4 L0.85 480.75 0.0 482.25 M278.35 103.35 L277.75 95.75 277.75 95.7 277.75 95.65 277.5 88.75 Q277.5 78.45 277.8 76.1 278.0 74.3 278.45 72.8 M270.8 123.1 Q271.7 122.35 272.65 121.85 L272.8 121.8 Q275.0 121.0 277.65 121.05 L280.2 121.25 280.6 121.3 Q280.2 120.8 280.75 121.25 L280.55 120.4 279.65 114.9 278.85 108.4 278.6 106.05 278.6 105.95 278.5 105.0 278.35 103.7 M278.35 103.35 L286.4 103.75 Q295.9 104.65 300.25 106.55 M319.6 151.15 Q320.4 145.9 319.35 138.3 318.2 129.9 314.85 122.7 310.8 113.85 304.85 109.3 302.7 107.65 300.25 106.55 M280.8 121.6 L280.8 121.55 280.75 121.35 280.6 121.3 280.8 121.6 278.3 129.75 278.25 129.95 M280.75 121.35 L280.85 121.35 280.75 121.25 280.75 121.35 M280.8 121.55 L280.85 121.35 M236.0 139.65 L235.9 133.5 M286.85 502.2 L303.4 501.9 321.9 501.95 325.7 501.75 M261.8 225.75 Q258.05 232.7 255.45 237.75 L255.4 237.95 255.35 238.05 253.35 241.95 253.25 242.25 252.1 244.6 250.8 247.45 Q247.1 256.1 245.0 265.3 M242.6 280.1 L242.6 279.95 Q243.3 272.45 245.0 265.3 M220.55 450.65 Q218.85 448.15 217.85 445.45 L217.3 443.95 216.6 441.5 216.25 440.2 Q207.6 408.35 201.4 378.35 M220.55 450.65 Q222.05 452.95 224.05 455.15 L226.1 457.25 231.0 462.15 235.55 466.95 238.6 470.4 239.85 471.95 251.2 485.4 254.7 489.25 256.9 491.55 Q263.35 498.0 268.85 500.2 272.4 501.65 277.9 502.05 L282.15 502.2 286.35 502.2 286.85 502.2 M197.3 441.0 L198.85 442.75 Q202.75 447.05 207.75 450.8 L213.4 455.15 213.75 455.4 224.4 461.5 Q231.2 465.2 235.55 466.95 M253.9 497.35 L254.05 498.0 Q255.75 505.7 258.55 512.7 L261.6 519.55 261.75 519.85 M253.9 497.35 L251.2 485.4 M344.35 440.45 L344.5 440.6 344.1 440.75 M343.8 477.0 Q343.5 473.65 339.7 468.05 L338.25 465.7 Q335.65 461.1 334.7 456.15 M343.35 466.35 Q349.5 464.6 353.4 461.35 L356.6 458.05 357.75 456.25 M349.45 476.45 L350.8 480.9 350.2 481.4 351.4 484.4 M332.45 447.9 Q334.15 451.9 334.4 454.15 L334.4 454.2 M330.7 444.2 L332.45 447.9 M348.9 482.6 L346.65 480.15 346.3 479.75 343.8 477.0 343.8 477.55 343.7 482.1 343.55 483.7 344.55 485.2 345.25 486.25 M342.45 490.35 Q343.2 487.5 343.55 483.7 M349.45 476.45 L347.1 471.5 Q345.5 468.7 343.35 466.35 340.35 463.05 336.35 460.6 M196.2 17.4 Q182.4 22.7 172.5 24.15 177.2 29.7 179.4 35.65 L182.25 32.4 Q181.65 29.5 180.55 26.85 L180.3 26.3 M182.95 38.9 Q183.0 43.85 181.8 49.4 L181.45 50.75 M138.45 62.3 L137.7 62.0 134.5 60.55 132.15 59.5 132.1 59.65 Q130.9 62.95 129.5 65.3 L129.25 65.65 128.15 67.15 127.55 67.9 Q122.6 74.45 120.25 78.1 115.5 85.45 112.75 88.5 110.1 90.95 109.2 92.05 106.65 93.75 105.8 94.5 L105.5 94.8 105.3 94.65 105.8 94.5 M168.3 95.4 L166.6 92.1 Q162.95 86.6 156.9 84.1 154.9 83.25 153.25 81.85 L151.6 80.35 151.5 80.2 Q147.35 75.55 147.5 71.1 146.7 68.25 145.9 66.9 145.3 66.0 144.7 65.8 L144.5 65.6 143.85 64.75 143.75 64.65 M140.05 62.8 L138.45 62.3 M145.7 50.6 Q143.85 51.7 140.15 55.25 L134.5 60.55 M168.35 133.9 L170.2 127.55 M105.3 94.65 Q100.4 96.15 97.15 97.5 93.0 99.25 91.35 106.0 90.75 108.45 90.35 111.55 85.25 115.4 81.8 118.75 L80.85 119.65 80.85 129.3 Q82.75 128.3 84.4 127.45 L84.45 127.45 85.05 127.15 86.55 126.4 Q91.65 123.8 93.1 123.25 L93.3 123.2 Q99.7 120.8 107.95 120.6 L108.95 120.55 109.45 120.8 M96.8 106.8 L96.6 106.45 M109.3 97.3 L110.15 97.9 106.7 95.55 105.5 94.8 M109.6 120.9 Q113.0 122.5 115.15 124.4 L116.8 126.1 117.7 127.4 118.1 128.15 118.2 128.3 119.0 128.7 119.95 129.5 121.2 130.9 121.9 131.75 122.05 131.3 122.0 130.8 121.95 129.9 121.85 128.95 M121.85 128.9 L121.6 126.45 121.45 125.65 120.75 123.0 119.9 121.1 Q118.5 118.35 116.05 115.7 L115.2 114.8 M98.55 107.55 L99.55 107.6 Q101.8 107.6 106.0 109.8 108.8 111.25 113.05 115.85 L115.25 118.35 117.4 120.95 M90.0 115.95 L90.0 116.5 M90.35 111.55 L90.0 114.15 90.0 115.95 M110.15 97.9 L111.35 98.7 112.1 99.2 112.7 99.55 115.7 101.35 116.55 101.9 119.1 104.0 122.2 107.3 122.95 108.25 124.0 109.3 Q128.9 114.7 130.25 122.7 130.7 125.35 130.8 132.45 L130.8 133.05 131.8 133.05 131.8 132.95 131.8 132.9 Q131.8 131.65 132.75 130.5 L133.15 130.1 Q134.55 128.6 135.05 127.3 135.5 126.0 135.6 122.65 M98.55 107.55 Q97.3 107.35 96.9 106.9 L96.8 106.8 M109.6 120.9 L109.45 120.8 M133.8 119.4 L134.0 118.15 Q133.3 115.8 133.1 113.3 L133.05 111.65 Q133.05 107.7 134.95 104.45 L135.15 104.1 139.05 98.0 138.75 97.2 M110.15 97.9 L112.1 99.2 M182.25 32.4 L182.65 34.75 182.7 35.1 182.95 38.9 M164.6 44.45 L155.95 46.7 M140.05 62.8 L140.55 62.9 141.15 63.05 Q142.95 63.6 143.75 64.65 M161.35 78.9 L169.8 79.35 177.05 80.1 181.75 80.8 182.9 81.05 189.9 82.6 190.1 77.7 190.2 75.9 190.2 74.85 M190.4 74.55 Q191.7 75.1 193.2 76.45 L195.65 79.05 197.1 80.7 197.1 80.75 Q199.35 83.3 200.3 83.9 L202.2 84.95 205.5 86.35 205.6 86.4 Q206.9 87.1 207.5 88.05 L212.45 89.95 M152.4 78.6 Q155.1 73.45 153.05 68.9 L152.55 67.1 M152.4 78.6 L152.25 78.9 161.35 78.9 M166.05 48.6 Q170.6 52.1 172.75 55.65 M179.4 35.65 Q173.4 41.65 165.15 43.05 154.85 44.7 149.05 48.15 147.25 49.15 145.7 50.6 M184.25 102.8 L186.1 101.25 188.45 99.5 189.5 88.95 189.9 82.6 M152.25 78.9 L152.05 79.2 151.5 80.2 M146.65 84.0 Q146.45 87.75 143.25 91.95 141.1 94.8 139.05 98.0 M155.4 141.85 L156.5 151.25 156.6 152.1 159.15 155.15 159.35 155.35 159.6 155.4 159.65 155.4 161.45 155.5 162.05 155.2 168.3 152.35 167.95 151.35 Q167.25 149.0 167.15 146.25 167.0 143.25 167.25 140.4 167.5 137.05 168.2 133.9 M178.7 108.75 Q181.15 105.45 184.25 102.8 M171.8 106.75 L170.4 101.0 170.2 100.4 168.3 95.4 M174.05 116.7 L172.6 110.35 171.8 106.75 M154.7 136.4 L155.4 141.85 M171.55 123.2 L172.45 121.15 172.65 120.75 Q173.15 118.85 173.9 117.05 L174.05 116.7 Q175.4 113.4 177.45 110.45 L178.3 109.25 178.55 108.95 178.7 108.75 M171.55 123.2 L170.2 127.55 M210.2 90.4 L208.0 90.25 207.85 88.8 207.8 88.65 207.5 88.05 M188.45 99.5 L188.0 102.9 187.4 106.55 187.4 106.75 186.25 112.05 184.55 119.6 184.3 121.1 Q183.85 124.45 183.65 129.15 183.5 133.0 183.5 137.7 L183.5 139.65 183.65 154.75 183.7 156.9 183.75 160.4 183.8 165.0 183.85 168.35 183.9 170.4 184.5 209.65 184.7 222.1 185.1 242.95 185.45 256.1 185.8 262.85 186.1 268.6 Q187.05 284.5 188.9 301.05 L189.9 309.4 191.05 318.6 192.65 329.6 Q194.5 342.3 196.9 355.4 198.95 366.75 201.4 378.35 M172.15 157.2 L174.9 158.05 M134.0 118.15 Q134.7 120.55 135.95 122.8 138.35 127.15 142.75 129.6 M142.85 129.65 L148.95 133.05 154.25 133.05 154.7 136.4 M180.85 157.1 Q180.4 155.1 179.4 153.35 178.7 152.2 177.8 151.2 M175.95 158.15 L174.95 158.05 174.9 158.05 M181.45 156.8 L183.7 156.9 M175.95 158.15 Q178.35 158.2 180.85 157.1 M173.1 159.35 Q172.75 161.4 173.55 163.7 174.55 166.5 176.65 168.45 178.65 170.25 181.45 170.45 L183.9 170.4 M183.85 168.35 L180.5 167.8 Q177.65 166.95 176.45 164.25 175.4 162.0 175.75 159.65 L173.1 159.35 172.85 159.3 172.8 159.3 172.85 158.3 M183.75 160.4 L175.75 159.65 M142.85 129.65 Q143.1 131.25 142.85 133.05 L148.95 133.05 M159.0 181.8 L157.75 164.35 157.55 161.95 157.2 158.2 157.15 157.85 156.95 155.85 156.6 152.1 M168.3 152.35 L168.7 153.35 169.6 155.05 Q170.35 156.3 171.6 156.95 L172.15 157.2 M164.2 157.05 L167.45 158.2 167.55 158.25 169.35 158.7 171.85 159.2 172.8 159.3 M162.1 155.5 L161.45 155.5 M159.45 155.5 L157.7 157.65 157.2 158.2 M159.45 155.5 L159.35 155.35 M162.15 156.1 L162.65 156.35 164.2 157.05 M161.85 155.95 L160.1 158.5 157.55 161.95 M167.55 158.25 L162.8 167.5 Q160.2 172.65 160.3 179.75 L160.05 186.35 159.45 191.85 Q159.85 202.65 159.85 213.35 159.85 227.0 157.55 242.0 L155.05 256.15 Q154.5 264.25 154.7 284.6 L154.7 285.75 155.1 288.65 155.2 289.35 155.45 290.9 156.75 303.2 157.55 317.4 157.75 330.85 Q157.7 336.45 158.55 343.25 159.35 350.0 160.9 358.15 162.45 366.3 163.75 371.1 165.0 375.85 166.85 380.55 L170.3 389.1 Q171.95 393.2 173.7 399.05 175.4 404.85 175.4 405.7 175.35 406.55 179.25 413.95 183.1 421.3 185.85 425.35 L191.75 433.9 192.85 435.45 195.15 438.45 197.3 441.0 Q195.75 448.1 193.7 451.75 190.65 457.25 186.2 462.05 L182.7 465.4 181.85 466.05 Q173.25 477.1 166.1 481.35 158.9 485.6 152.8 488.5 L140.75 494.0 Q134.75 496.55 129.0 498.45 L116.85 502.0 Q110.75 503.55 94.6 504.6 L94.15 504.65 93.0 504.7 88.85 504.7 Q83.35 503.25 78.85 501.1 76.25 499.85 73.45 498.75 L73.4 498.75 73.4 498.9 73.25 498.7 71.45 498.0 Q70.35 506.65 68.55 511.9 66.75 517.15 64.45 520.05 M159.0 181.8 L159.45 191.85 M92.55 183.6 L91.85 185.75 M128.65 133.05 L127.85 133.05 127.1 133.05 127.05 133.05 122.95 133.2 122.15 133.3 119.2 133.8 117.45 134.3 115.65 135.05 Q111.05 137.35 107.6 143.2 104.6 148.3 100.7 159.45 L92.55 183.6 M132.25 133.05 L133.45 133.05 Q132.95 131.85 132.75 130.5 M132.25 133.05 L131.8 133.05 M130.8 133.05 L128.65 133.05 M85.7 140.95 L86.7 142.85 87.05 143.45 M117.85 128.25 L118.2 128.3 M117.85 128.25 L117.3 128.3 116.15 128.5 Q112.75 129.3 106.3 132.8 98.6 137.0 94.4 136.3 M122.05 131.3 L122.1 132.0 122.2 132.15 122.65 132.75 122.95 133.2 M122.15 133.3 L122.1 132.0 121.9 131.75 M84.15 137.85 L85.7 140.95 M84.65 171.75 L84.5 171.9 M21.85 456.25 L31.2 459.85 35.2 461.15 Q40.2 462.65 44.9 463.6 L56.2 465.05 61.8 465.05 70.45 464.05 Q84.25 461.25 94.65 451.2 118.95 427.75 128.4 411.15 L130.15 407.85 Q138.3 391.5 142.85 362.35 L143.55 357.75 Q148.15 325.25 151.05 315.25 154.3 304.0 154.7 285.75 M84.45 127.45 Q82.35 130.75 82.35 133.05 82.35 134.05 84.15 137.85 81.85 140.65 80.25 143.65 78.35 147.15 78.35 148.95 L81.5 158.75 82.55 162.0 83.6 165.75 Q84.55 169.55 84.65 171.75 M21.85 456.25 L20.8 455.85 18.9 455.0 26.3 437.2 28.5 431.65 Q39.9 403.0 48.8 376.2 83.8 270.55 79.95 192.15 81.25 169.75 81.5 158.75 M133.45 133.05 L142.85 133.05 M134.85 472.75 L125.45 467.7 116.65 462.55 113.1 460.4 Q114.3 462.55 114.95 464.8 L115.55 466.85 Q116.95 472.0 117.65 477.45 118.55 484.55 115.5 489.6 111.9 495.55 105.9 500.45 101.6 503.95 94.6 504.6 M61.8 465.05 L61.05 467.3 60.15 468.75 Q59.4 470.0 58.9 471.35 56.6 477.2 51.95 482.0 L44.55 488.85 43.1 489.95 Q39.45 492.75 36.4 496.85 L34.05 500.35 33.95 500.7 Q32.65 506.1 34.7 509.75 37.0 513.8 37.85 514.75 M73.25 498.7 L73.4 498.75 M71.45 498.0 L66.9 496.55 60.2 495.0 51.35 493.65 Q41.6 492.4 36.4 496.85 M145.55 476.65 L148.5 477.1 161.45 476.5 Q168.5 475.3 173.85 471.7 L181.85 466.05 M145.55 476.65 L140.75 475.35 136.75 473.65 134.85 472.75 M31.2 459.85 L28.95 460.55 Q23.0 462.25 17.8 464.8 12.6 467.35 7.75 472.0 3.75 475.8 0.85 480.75 M35.55 483.0 L35.15 483.55 Q34.3 484.55 33.1 485.15 L32.65 485.3 Q30.5 486.1 27.25 485.75 L24.6 485.7 M35.55 483.0 L47.45 472.95 Q52.05 469.3 56.2 465.05 M35.55 483.0 Q37.3 480.25 36.45 475.8 M33.1 485.15 L35.55 483.0" fill="none" stroke="#000000" stroke-linecap="round" stroke-linejoin="round" stroke-width="1.0"/>
    <path d="M246.2 91.85 L246.15 92.2 246.1 92.75 Q245.85 94.65 244.95 96.55 243.65 99.2 243.65 99.65 L244.7 103.0 245.25 105.4 245.3 105.65 Q248.7 107.35 251.65 108.55 L252.2 108.75 254.4 109.7 Q259.15 111.75 261.65 114.35 L265.05 117.75 265.15 117.85 267.35 119.85 269.45 121.8 269.95 122.3 270.8 123.1 M275.25 62.95 Q269.6 53.15 257.8 49.3 244.15 44.75 227.6 38.45 225.7 37.75 224.05 36.7 213.75 30.05 212.65 10.35 L212.55 5.45 Q212.5 3.45 212.6 1.4 L212.65 0.0 M276.85 66.15 L275.3 63.05 275.25 62.95 M245.3 105.65 L245.2 105.6 244.8 105.4 M302.0 175.55 L301.65 175.3 299.65 173.4 299.15 172.75 Q295.95 168.75 292.15 165.0 287.9 160.9 284.4 156.45 L280.9 152.1 273.5 142.9 Q271.75 140.75 269.5 139.0 M270.85 161.75 L270.35 160.95 269.5 159.5 Q267.5 156.05 266.05 152.45 L265.55 151.4 Q263.9 147.65 261.35 144.4 L261.15 144.2 260.55 143.45 Q256.85 139.05 254.75 133.7 254.5 133.05 253.25 132.2 L248.3 122.55 M327.8 158.6 L327.3 160.05 326.3 162.45 Q324.0 167.6 320.5 171.8 316.75 176.25 310.85 177.05 307.15 177.55 303.9 176.4 L303.65 176.35 Q300.75 178.15 298.45 180.5 L290.7 181.35 282.35 181.35 Q280.4 175.0 277.65 171.4 L277.5 171.25 277.4 171.05 M323.95 155.95 L324.0 155.95 324.6 155.8 M309.45 157.25 L311.9 158.75 313.4 159.45 313.55 159.5 M280.25 111.9 L282.3 112.1 Q288.45 112.8 289.6 113.75 L292.4 116.15 293.5 117.1 Q296.0 119.35 298.2 122.25 300.35 125.15 302.25 126.8 303.85 128.2 304.85 129.9 L305.2 130.55 307.1 134.85 Q307.9 137.0 308.4 137.35 L308.85 137.8 Q310.0 142.85 309.95 147.6 309.9 152.4 307.65 155.75 L307.4 156.15 Q308.1 156.45 309.45 157.25 M278.25 129.95 L281.55 132.8 281.85 133.05 282.3 133.45 285.3 136.35 289.4 141.05 Q292.85 145.35 296.8 149.3 300.95 153.35 306.4 155.7 L307.4 156.15 M323.95 155.95 Q320.75 156.85 318.2 158.6 315.9 160.15 313.55 159.5 M303.65 176.35 Q302.85 176.05 302.15 175.6 L302.0 175.55 M278.25 129.95 L277.95 129.65 276.1 128.0 273.8 125.85 272.9 125.05 272.15 124.3 271.8 124.0 270.8 123.1 M270.85 161.75 L271.3 162.4 Q274.4 167.2 277.4 171.05" fill="none" stroke="#000000" stroke-linecap="round" stroke-linejoin="round" stroke-width="1.0"/>
    <path d="M84.5 171.9 L83.3 172.3" fill="none" stroke="#00cc00" stroke-linecap="round" stroke-linejoin="round" stroke-width="1.0"/>
  </g>
</svg>
