<?xml version="1.0" encoding="UTF-8" standalone="no"?>
<svg xmlns:xlink="http://www.w3.org/1999/xlink" height="76.9px" width="31.65px" xmlns="http://www.w3.org/2000/svg">
  <g transform="matrix(1.0, 0.0, 0.0, 1.0, 0.45, 0.5)">
    <path d="M22.25 10.95 L27.35 15.55 27.35 14.45 23.7 10.25 Q19.95 4.5 15.6 4.5 14.8 4.5 13.3 6.8 L14.95 6.9 17.8 6.95 22.25 10.95 M27.55 18.5 L27.45 15.65 27.35 15.55 27.45 15.65 27.55 18.5 M9.05 10.45 L14.55 9.6 21.75 15.35 22.1 17.95 24.15 18.65 25.35 18.65 Q18.55 8.55 12.55 8.55 10.85 8.55 9.9 9.45 L9.05 10.45 6.65 10.8 9.05 10.45 M4.8 15.4 L5.05 11.05 6.65 10.8 8.5 6.65 10.1 6.7 14.05 0.85 14.6 0.45 17.4 0.3 27.35 8.8 30.1 18.2 Q28.85 19.55 26.75 22.25 L22.1 28.65 Q19.55 32.25 15.4 36.7 L10.65 41.6 Q10.1 42.05 12.25 43.8 14.65 46.15 16.05 48.95 17.5 51.75 21.65 53.6 L20.55 62.3 19.2 69.25 17.7 75.1 2.7 47.55 1.15 44.9 0.55 43.1 0.3 41.55 0.2 40.7 0.15 40.4 0.05 40.8 Q-0.05 41.3 0.05 40.3 L0.15 39.8 1.9 35.8 Q2.65 34.25 5.3 30.45 6.85 28.2 10.6 25.5 13.2 23.65 13.2 21.35 13.2 19.75 11.6 18.55 10.05 17.4 8.3 17.4 2.85 17.4 2.85 20.05 L3.9 22.75 2.6 25.4 0.8 18.75 Q0.75 17.65 1.5 17.2 L4.8 15.4 6.35 14.6 4.8 15.4 M15.2 18.75 L17.4 18.8 Q16.85 15.4 15.25 14.2 13.9 13.2 10.85 13.2 L7.35 13.4 Q6.55 13.7 6.35 14.6 7.05 14.2 7.7 13.85 L13.2 15.95 13.25 16.0 15.3 16.7 15.2 18.75 M13.3 6.8 L10.1 6.7 13.3 6.8" fill="#ffe2d5" fill-rule="evenodd" stroke="none"/>
    <path d="M14.95 6.9 L16.9 5.55 22.1 10.0 22.25 10.95 17.8 6.95 14.95 6.9 M21.65 53.6 Q17.5 51.75 16.05 48.95 14.65 46.15 12.25 43.8 10.1 42.05 10.65 41.6 L15.4 36.7 Q19.55 32.25 22.1 28.65 L26.75 22.25 Q28.85 19.55 30.1 18.2 L30.7 20.1 13.5 41.35 22.0 53.3 21.65 53.6 M12.55 42.45 L13.5 41.35 12.55 42.45" fill="#ffffff" fill-rule="evenodd" stroke="none"/>
    <path d="M4.9 20.65 L4.7 19.55 5.6 19.1 4.9 20.65 M9.6 21.5 L9.55 22.35 8.85 23.0 9.6 21.5" fill="#ebd8d8" fill-rule="evenodd" stroke="none"/>
    <path d="M22.25 10.95 L22.1 10.0 16.9 5.55 14.95 6.9 13.3 6.8 Q14.8 4.5 15.6 4.5 19.95 4.5 23.7 10.25 L27.35 14.45 27.35 15.55 22.25 10.95 M22.1 17.95 L21.75 15.35 14.55 9.6 9.05 10.45 9.9 9.45 Q10.85 8.55 12.55 8.55 18.55 8.55 25.35 18.65 L24.15 18.65 22.1 17.95 M6.35 14.6 Q6.55 13.7 7.35 13.4 L10.85 13.2 Q13.9 13.2 15.25 14.2 16.85 15.4 17.4 18.8 L15.2 18.75 15.3 16.7 13.25 16.0 13.2 15.95 7.7 13.85 Q7.05 14.2 6.35 14.6 M3.9 22.75 L2.85 20.05 Q2.85 17.4 8.3 17.4 10.05 17.4 11.6 18.55 13.2 19.75 13.2 21.35 13.2 23.65 10.6 25.5 6.85 28.2 5.3 30.45 2.65 34.25 1.9 35.8 L0.15 39.8 0.6 36.55 Q0.9 33.8 2.15 31.6 3.05 30.0 4.25 28.5 L6.05 26.2 Q7.3 24.55 8.85 23.0 L9.55 22.35 9.6 21.5 9.65 21.4 Q9.8 20.3 10.15 19.7 L6.6 18.6 5.6 19.1 4.7 19.55 4.9 20.65 3.9 22.75" fill="#ffceb7" fill-rule="evenodd" stroke="none"/>
    <path d="M14.95 6.9 L16.9 5.55 22.1 10.0 22.25 10.95 27.35 15.55 27.45 15.65 27.55 18.5 M13.3 6.8 L14.95 6.9 17.8 6.95 22.25 10.95 M9.05 10.45 L14.55 9.6 21.75 15.35 22.1 17.95 M9.05 10.45 L6.65 10.8 5.05 11.05 4.8 15.4 6.35 14.6 M15.2 18.75 L15.3 16.7 13.25 16.0 13.2 15.95 7.7 13.85 Q7.05 14.2 6.35 14.6 M22.0 53.3 L13.5 41.35 12.55 42.45 M30.1 18.2 L27.35 8.8 17.4 0.3 14.6 0.45 14.05 0.85 10.1 6.7 13.3 6.8 M13.5 41.35 L30.7 20.1 30.1 18.2 M10.1 6.7 L8.5 6.65 6.65 10.8 M4.8 15.4 L1.5 17.2 Q0.75 17.65 0.8 18.75 L2.6 25.4 3.9 22.75 4.9 20.65 4.7 19.55 5.6 19.1 6.6 18.6 10.15 19.7 Q9.8 20.3 9.65 21.4 L9.6 21.5 9.55 22.35 8.85 23.0 Q7.3 24.55 6.05 26.2 L4.25 28.5 Q3.05 30.0 2.15 31.6 0.9 33.8 0.6 36.55 L0.15 39.8 0.05 40.3 M0.05 40.8 L0.15 40.4 0.2 40.7 0.3 41.55 0.55 43.1 1.15 44.9 2.7 47.55 17.7 75.1 18.15 75.9 M9.6 21.5 L8.85 23.0" fill="none" stroke="#000000" stroke-linecap="round" stroke-linejoin="round" stroke-width="1.0"/>
  </g>
</svg>
