<?xml version="1.0" encoding="UTF-8" standalone="no"?>
<svg xmlns:xlink="http://www.w3.org/1999/xlink" height="16.7px" width="56.6px" xmlns="http://www.w3.org/2000/svg">
  <g transform="matrix(1.0, 0.0, 0.0, 1.0, -1.4, -15.65)">
    <path d="M45.9 17.1 L46.55 17.2 Q49.85 17.9 53.0 19.4 L52.95 19.35 54.55 20.5 55.8 21.05 54.95 21.05 54.65 21.05 51.45 20.55 49.7 20.0 49.55 19.95 46.2 19.15 45.55 18.95 45.65 19.0 44.0 18.7 42.85 18.6 38.8 18.5 Q37.2 18.65 35.25 19.3 33.3 19.95 31.3 21.7 L30.85 22.1 Q31.45 19.75 34.25 18.1 36.65 16.65 38.7 16.65 L45.9 17.1 M37.15 15.95 L34.1 16.7 Q34.45 16.35 34.85 16.1 L36.35 16.0 37.15 15.95 M45.9 19.15 L45.8 19.1 45.65 19.0 45.95 19.15 45.9 19.15 M3.5 18.55 L6.6 17.65 8.1 17.55 11.85 17.95 14.2 18.75 14.85 18.95 16.05 19.95 16.85 21.1 17.1 21.75 15.95 20.95 Q14.95 20.35 13.3 19.95 L12.8 19.85 10.45 19.5 8.35 19.55 7.1 19.8 6.3 20.1 Q5.8 20.3 5.55 20.45 L4.35 21.25 4.9 20.7 4.6 20.8 4.15 20.85 3.75 20.9 Q3.05 20.95 2.0 20.25 L2.05 20.15 Q2.45 19.4 3.15 18.8 L3.5 18.55" fill="#fec1ab" fill-rule="evenodd" stroke="none"/>
    <path d="M53.0 19.4 Q49.85 17.9 46.55 17.2 L45.9 17.1 44.15 16.8 41.55 16.55 38.95 16.6 37.45 16.7 33.6 17.3 31.35 17.85 Q32.7 17.15 34.1 16.7 L37.15 15.95 39.3 15.7 Q43.7 15.4 48.2 17.1 L50.25 17.95 50.3 17.95 50.9 18.25 Q51.95 18.75 53.0 19.4 M30.85 22.1 L31.3 21.7 Q33.3 19.95 35.25 19.3 37.2 18.65 38.8 18.5 L42.85 18.6 44.0 18.7 45.65 19.0 45.55 18.95 46.2 19.15 49.55 19.95 49.7 20.0 51.45 20.55 54.65 21.05 54.95 21.05 55.8 21.05 56.45 21.05 56.45 21.1 56.55 21.05 57.2 21.05 58.0 21.0 57.95 21.05 57.4 21.3 56.7 21.55 56.3 21.95 55.25 22.7 55.0 22.85 54.85 23.3 Q54.2 25.1 52.1 27.5 L51.45 28.2 51.75 27.7 Q52.6 26.15 52.85 24.85 L52.9 23.75 52.95 23.3 52.85 23.35 52.8 23.25 52.8 23.2 52.6 23.15 52.5 23.15 52.6 23.25 51.1 23.15 Q50.15 22.95 49.0 21.8 49.15 22.75 51.9 23.6 49.5 23.95 48.05 22.85 L46.45 21.65 Q47.0 22.45 48.85 23.75 L45.8 22.35 Q44.1 21.65 43.2 21.65 L36.6 21.45 Q30.85 22.35 29.95 24.05 30.25 22.75 30.85 22.1 M45.8 19.1 L45.95 19.15 45.9 19.15 45.95 19.15 45.65 19.0 45.8 19.1 M46.85 30.45 L45.35 31.3 44.15 31.8 41.7 32.35 46.95 30.4 46.85 30.45 M14.85 18.95 L14.2 18.75 11.85 17.95 8.1 17.55 6.6 17.65 3.5 18.55 Q2.65 18.9 1.9 19.4 8.35 13.7 16.4 19.7 L15.05 19.05 14.85 18.95 M4.35 21.25 L5.55 20.45 Q5.8 20.3 6.3 20.1 L7.1 19.8 8.35 19.55 10.45 19.5 12.8 19.85 13.3 19.95 Q14.95 20.35 15.95 20.95 L17.1 21.75 17.75 22.55 18.35 23.9 Q18.5 24.65 17.85 23.7 17.2 22.85 16.1 22.6 L14.05 22.0 11.8 21.85 9.7 22.25 6.15 23.0 Q8.4 22.15 8.35 21.55 L8.0 21.75 Q7.7 22.3 5.9 22.75 L4.5 22.85 5.1 23.6 6.3 25.35 6.4 25.7 5.95 25.15 5.5 24.65 3.8 23.15 2.75 22.95 Q2.05 22.85 1.4 22.35 L1.75 22.35 3.3 22.1 4.35 21.25 M4.1 22.8 Q5.55 22.55 6.0 22.1 L4.7 22.45 Q4.45 22.55 4.1 22.8 M11.65 30.45 L14.75 30.9 13.75 30.95 12.8 30.85 12.25 30.7 11.65 30.45" fill="#000000" fill-rule="evenodd" stroke="none"/>
  </g>
</svg>
