<?xml version="1.0" encoding="UTF-8" standalone="no"?>
<svg xmlns:xlink="http://www.w3.org/1999/xlink" height="230.8px" width="278.85px" xmlns="http://www.w3.org/2000/svg">
  <g transform="matrix(1.0, 0.0, 0.0, 1.0, 1.7, 8.15)">
    <path d="M-1.2 4.35 L-1.2 -7.65 46.65 -7.65 59.15 -7.65 59.55 28.1 202.35 25.8 202.0 -7.65 213.4 -7.65 275.2 -7.65 275.2 3.05 213.4 4.05 213.4 16.5 275.2 15.5 275.2 22.85 267.05 22.9 213.4 23.3 213.4 34.25 189.55 34.6 46.65 36.9 46.65 24.6 -1.2 24.95 -1.2 16.8 46.65 16.05 46.65 3.6 -1.2 4.35 M71.65 -7.65 L189.55 -7.65 189.75 13.55 71.85 15.45 71.65 -7.65 M46.65 -7.65 L46.65 3.6 46.65 -7.65 M213.4 23.3 L213.4 16.5 213.4 23.3 M46.65 16.05 L46.65 24.6 46.65 16.05 M213.4 4.05 L213.4 -7.65 213.4 4.05" fill="#cc0000" fill-rule="evenodd" stroke="none"/>
    <path d="M59.15 -7.65 L71.65 -7.65 71.85 15.45 189.75 13.55 189.55 -7.65 202.0 -7.65 202.35 25.8 59.55 28.1 59.15 -7.65 M275.2 3.05 L275.2 15.5 213.4 16.5 213.4 4.05 275.2 3.05 M-1.2 16.8 L-1.2 4.35 46.65 3.6 46.65 16.05 -1.2 16.8" fill="#0066ff" fill-rule="evenodd" stroke="none"/>
    <path d="M275.2 -7.65 L275.2 3.05 275.2 15.5 275.2 22.85 275.2 23.65 275.8 23.15 M-1.2 4.35 L46.65 3.6 46.65 -7.65 M275.05 23.75 L275.2 23.9 275.2 23.65 275.05 23.75 274.3 23.15 M275.05 23.75 L274.7 24.05 273.1 25.6 273.35 25.9 274.2 26.85 M272.7 23.15 L272.35 23.5 271.65 24.25 273.1 25.6 272.25 26.8 M269.9 23.35 L269.3 23.8 268.75 24.25 270.25 25.65 271.65 24.25 270.1 23.15 M271.45 27.1 L270.65 26.2 270.25 25.65 269.3 26.5 M275.2 23.9 L276.65 25.3 M267.05 22.9 L267.05 23.45 267.55 23.6 Q268.2 23.85 268.75 24.25 L267.55 25.5 267.05 26.1 267.05 26.6 267.2 26.85 267.55 27.3 M261.85 24.2 L262.0 24.0 263.65 25.45 264.9 24.0 264.2 23.35 M264.75 26.6 L264.25 26.1 263.65 25.45 262.75 26.5 M267.05 26.6 L266.85 26.3 266.6 26.65 M264.9 24.0 L266.85 26.3 267.05 26.1 267.05 23.45 M275.2 22.85 L267.05 22.9 213.4 23.3 213.4 34.25 189.55 34.6 46.65 36.9 46.65 24.6 -1.2 24.95 M275.2 221.4 L276.05 221.3 M266.65 222.15 L267.05 222.1 M275.2 3.05 L213.4 4.05 213.4 16.5 275.2 15.5 M213.4 16.5 L213.4 23.3 M46.65 24.6 L46.65 16.05 -1.2 16.8 M46.65 16.05 L46.65 3.6 M59.15 -7.65 L59.55 28.1 202.35 25.8 202.0 -7.65 M71.65 -7.65 L71.85 15.45 189.75 13.55 189.55 -7.65 M213.4 -7.65 L213.4 4.05" fill="none" stroke="#000000" stroke-linecap="round" stroke-linejoin="round" stroke-width="1.0"/>
    <path d="M189.55 34.6 L191.15 36.3 192.3 35.4 192.6 35.2 192.0 34.8 M198.65 34.8 L198.8 34.95 200.3 36.3 201.1 35.55 Q201.7 35.0 202.35 34.55 L202.4 34.5 204.15 35.95 205.45 37.4 205.75 37.7 207.75 35.35 209.4 36.85 211.05 35.35 209.9 34.5 M198.15 38.35 L198.7 37.8 197.3 36.15 195.4 38.0 M195.6 34.7 L195.8 34.85 197.3 36.15 198.8 34.95 M204.15 35.95 L201.85 38.1 201.65 37.8 200.3 36.3 198.7 37.8 M205.35 38.2 L205.75 37.7 206.75 38.85 M210.9 38.35 L209.9 37.4 209.4 36.85 208.6 37.95 M214.25 39.05 L213.15 37.8 212.8 38.15 M211.05 35.35 Q212.2 36.35 213.05 37.7 L213.15 37.8 214.95 35.55 M192.3 38.0 L192.45 37.8 191.15 36.3 Q190.15 37.05 189.45 38.15 M195.4 37.45 L193.95 36.15 192.45 37.8 M192.6 35.2 L193.95 36.15 195.25 35.2 195.8 34.85" fill="none" stroke="#000000" stroke-linecap="round" stroke-linejoin="round" stroke-width="1.0"/>
  </g>
</svg>
