<?xml version="1.0" encoding="UTF-8" standalone="no"?>
<svg xmlns:xlink="http://www.w3.org/1999/xlink" height="107.7px" width="122.6px" xmlns="http://www.w3.org/2000/svg">
  <g transform="matrix(1.0, 0.0, 0.0, 1.0, 0.5, 0.5)">
    <path d="M93.85 87.95 Q89.95 88.35 86.25 90.15 L71.0 96.6 Q59.45 101.2 46.15 105.25 32.9 109.3 26.4 101.9 19.9 94.5 15.95 88.8 11.95 83.05 11.25 81.1 10.5 79.15 8.75 76.25 6.95 73.3 6.3 73.1 8.6 69.05 10.35 60.65 12.95 48.25 12.4 38.75 12.25 36.2 7.15 14.75 6.85 2.95 8.8 3.6 L11.85 4.35 13.9 6.85 Q19.05 13.2 25.8 13.9 32.55 14.55 43.6 17.05 54.6 19.5 60.9 18.7 L73.9 17.6 81.4 16.6 Q78.5 38.4 78.5 49.05 78.5 58.25 84.45 72.5 88.35 81.8 93.85 87.95" fill="#e6f5ff" fill-rule="evenodd" stroke="none"/>
    <path d="M117.3 77.5 Q114.15 79.5 109.75 81.75 100.05 86.7 93.85 87.95 88.35 81.8 84.45 72.5 78.5 58.25 78.5 49.05 78.5 38.4 81.4 16.6 89.25 15.05 94.05 12.05 L92.4 29.15 Q92.4 35.6 100.05 57.0 102.3 63.35 109.1 70.6 113.3 75.1 117.3 77.5" fill="#d6eefe" fill-rule="evenodd" stroke="none"/>
    <path d="M94.05 12.05 Q99.75 8.4 101.05 2.6 100.1 15.55 97.8 22.45 95.5 29.35 98.1 39.35 100.7 49.35 103.05 53.05 L107.95 60.6 Q110.5 64.4 116.8 70.05 L121.6 74.3 Q119.9 75.8 117.3 77.5 113.3 75.1 109.1 70.6 102.3 63.35 100.05 57.0 92.4 35.6 92.4 29.15 L94.05 12.05 M6.3 73.1 L0.0 71.05 Q3.0 63.25 5.0 53.0 9.15 31.05 7.4 23.25 5.65 15.4 5.95 8.2 7.15 1.8 7.7 0.0 8.5 0.4 11.85 4.35 L8.8 3.6 Q6.85 2.95 7.15 14.75 12.25 36.2 12.4 38.75 12.95 48.25 10.35 60.65 8.6 69.05 6.3 73.1" fill="#ffffff" fill-rule="evenodd" stroke="none"/>
    <path d="M101.05 2.6 Q100.1 15.55 97.8 22.45 95.5 29.35 98.1 39.35 100.7 49.35 103.05 53.05 L107.95 60.6 Q110.5 64.4 116.8 70.05 L121.6 74.3 Q119.9 75.8 117.3 77.5 114.15 79.5 109.75 81.75 100.05 86.7 93.85 87.95 89.95 88.35 86.25 90.15 L71.0 96.6 Q59.45 101.2 46.15 105.25 32.9 109.3 26.4 101.9 19.9 94.5 15.95 88.8 11.95 83.05 11.25 81.1 10.5 79.15 8.75 76.25 6.95 73.3 6.3 73.1 L0.0 71.05 Q3.0 63.25 5.0 53.0 9.15 31.05 7.4 23.25 5.65 15.4 5.95 8.2 7.15 1.8 7.7 0.0" fill="none" stroke="#000000" stroke-linecap="round" stroke-linejoin="round" stroke-width="1.0"/>
    <path d="M94.05 12.05 Q99.75 8.4 101.05 2.6 M7.7 0.0 Q8.5 0.4 11.85 4.35 L13.9 6.85 Q19.05 13.2 25.8 13.9 32.55 14.55 43.6 17.05 54.6 19.5 60.9 18.7 L73.9 17.6 81.4 16.6 Q89.25 15.05 94.05 12.05" fill="none" stroke="#000000" stroke-linecap="round" stroke-linejoin="round" stroke-width="1.0"/>
  </g>
</svg>
