<?xml version="1.0" encoding="UTF-8" standalone="no"?>
<svg xmlns:xlink="http://www.w3.org/1999/xlink" height="485.85px" width="657.85px" xmlns="http://www.w3.org/2000/svg">
  <g transform="matrix(1.0, 0.0, 0.0, 1.0, 0.5, 0.5)">
    <path d="M199.65 1.85 L198.2 0.3 199.7 0.2 199.65 1.85 M568.55 131.55 L569.2 131.1 570.1 131.25 568.55 131.55 M397.5 107.9 L397.4 107.95 397.25 107.75 397.4 107.65 397.5 107.9 M397.6 121.2 L397.6 121.25 397.55 121.25 397.6 121.2 M470.5 122.95 L470.9 123.25 470.0 123.25 470.5 122.95 M265.2 108.95 L265.25 108.75 266.95 101.25 266.95 108.4 265.2 108.95 M161.05 76.95 L160.1 75.5 161.05 74.75 161.05 76.95 M17.2 57.4 L17.3 57.5 17.25 57.5 17.2 57.4 M240.5 443.3 L240.5 442.15 240.65 442.2 240.5 443.3 M188.55 481.85 L188.55 481.3 189.1 481.8 188.55 481.85 M623.9 474.55 L611.05 471.75 624.85 474.4 623.9 474.55" fill="#00ff00" fill-rule="evenodd" stroke="none"/>
    <path d="M199.7 0.2 L198.2 0.3 199.65 1.85 M199.7 0.2 L202.4 0.0 M198.2 0.3 L194.7 0.5 194.7 0.0 M643.45 125.15 L647.5 129.5 M596.65 61.55 L597.75 62.7 M580.6 58.7 L582.1 59.05 585.15 59.7 586.9 60.15 M327.6 0.0 L334.35 1.6 342.8 3.55 356.7 6.75 369.45 9.7 383.5 12.95 395.75 15.8 406.45 18.3 419.9 21.4 430.75 23.95 441.3 26.4 451.85 28.85 462.65 31.35 474.4 34.1 484.7 36.45 495.35 38.95 506.55 41.5 517.0 43.95 528.15 46.55 536.25 48.4 546.9 50.9 556.75 53.2 564.25 54.95 573.95 57.15 576.45 57.75 M580.6 58.7 L576.65 57.8 M484.7 36.45 L556.85 116.5 557.85 117.1 Q558.7 117.95 558.7 119.15 558.7 120.3 557.85 121.15 L557.25 121.6 555.95 121.9 555.8 121.9 Q554.8 121.8 554.1 121.15 L554.05 121.1 Q553.2 120.3 553.2 119.15 553.2 118.0 554.05 117.2 554.8 116.4 555.95 116.45 L556.85 116.5 M556.05 122.5 L565.65 123.8 566.25 123.9 576.0 125.25 576.2 125.3 585.1 126.55 585.85 126.65 594.7 127.85 M565.95 123.2 Q565.15 123.05 564.6 122.5 L564.5 122.45 Q563.7 121.65 563.7 120.5 563.7 119.35 564.5 118.55 565.3 117.75 566.45 117.8 L567.35 117.85 495.35 38.95 M556.05 122.5 L555.4 122.4 546.75 121.2 M565.95 123.2 L566.3 123.25 566.45 123.25 567.75 122.95 568.4 122.45 Q569.2 121.65 569.2 120.5 569.2 119.35 568.4 118.55 567.95 118.05 567.35 117.85 M462.65 31.35 L536.85 113.6 537.9 114.25 Q538.7 115.05 538.7 116.25 538.7 117.4 537.9 118.2 L537.25 118.7 536.25 119.0 535.95 119.0 Q534.85 118.95 534.1 118.2 L534.05 118.2 Q533.2 117.4 533.2 116.25 533.2 115.05 534.05 114.25 534.8 113.5 535.95 113.5 L536.85 113.6 M536.65 119.8 L546.55 121.15 546.75 121.2 M546.4 120.5 Q545.3 120.45 544.6 119.7 L544.5 119.65 Q543.7 118.85 543.65 117.75 543.7 116.55 544.5 115.75 545.3 115.0 546.45 115.0 L547.35 115.05 474.4 34.1 M536.65 119.8 L536.25 119.75 491.05 113.45 489.95 113.3 481.1 112.05 483.9 119.55 483.6 119.75 M546.4 120.5 L547.75 120.2 548.4 119.65 Q549.15 118.85 549.2 117.75 549.15 116.55 548.4 115.75 547.9 115.25 547.35 115.05 M530.85 125.85 L525.75 118.75 520.0 124.3 516.45 117.45 509.9 122.8 508.05 116.25 501.95 122.0 502.05 122.15 Q505.05 126.4 509.45 123.15 L509.6 123.05 509.8 123.2 Q513.75 126.6 519.55 124.5 L519.85 124.4 520.0 124.55 Q523.5 128.1 530.5 125.95 L530.85 125.85 M537.55 128.55 L532.65 135.4 M575.9 124.6 Q574.9 124.5 574.25 123.85 L574.15 123.8 Q573.35 123.0 573.3 121.85 573.35 120.7 574.15 119.9 574.95 119.1 576.1 119.15 L577.0 119.2 506.55 41.5 M524.95 111.85 L524.05 111.75 Q522.9 111.75 522.1 112.5 521.3 113.3 521.25 114.5 521.3 115.65 522.1 116.45 L522.2 116.45 Q522.95 117.2 524.05 117.25 L525.35 116.95 526.0 116.45 Q526.75 115.65 526.75 114.5 526.75 113.3 526.0 112.5 525.5 112.05 524.95 111.85 L451.85 28.85 M441.3 26.4 L515.4 110.55 Q516.0 110.75 516.5 111.2 517.25 112.0 517.25 113.2 517.25 114.35 516.5 115.15 L515.85 115.65 514.55 115.95 Q513.4 115.9 512.65 115.15 L512.6 115.15 Q511.75 114.35 511.75 113.2 511.75 112.0 512.6 111.2 513.35 110.45 514.55 110.5 L515.4 110.55 M430.75 23.95 L505.75 109.1 506.85 109.8 Q507.65 110.6 507.65 111.85 507.65 113.05 506.85 113.9 L506.15 114.45 504.8 114.75 Q503.6 114.7 502.8 113.95 L502.75 113.9 Q501.9 113.05 501.9 111.85 501.9 110.6 502.75 109.8 503.55 108.95 504.8 109.0 L505.75 109.1 M419.9 21.4 L496.0 107.85 Q496.6 108.05 497.1 108.55 497.95 109.4 497.95 110.65 497.95 111.85 497.1 112.7 L496.45 113.25 495.1 113.5 Q493.9 113.5 493.1 112.7 L493.05 112.7 Q492.15 111.85 492.15 110.65 492.15 109.4 493.05 108.55 493.85 107.75 495.1 107.75 L496.0 107.85 M489.95 113.3 L484.15 119.6 484.35 119.85 Q488.25 123.2 493.25 121.0 L493.55 120.85 493.7 121.05 Q496.65 124.4 501.3 122.05 L501.55 121.95 499.4 115.05 493.6 120.75 491.05 113.45 M501.95 122.0 L501.55 121.95 M528.55 141.15 L528.8 140.85 M425.95 111.65 Q418.7 113.95 415.15 110.15 409.0 112.5 404.95 108.8 402.1 110.9 399.9 110.1 L385.5 132.2 385.5 143.9 518.9 154.65 519.95 153.25 525.85 144.95 526.3 144.3 M564.8 164.1 L564.25 294.7 M539.8 294.25 L539.8 162.15 M531.65 161.45 L531.1 294.1 M506.65 293.65 L506.65 159.5 M613.0 124.5 Q611.9 124.45 611.15 125.2 610.35 125.95 610.3 127.1 610.35 128.2 611.15 128.95 L611.2 128.95 Q611.8 129.55 612.7 129.65 L613.0 129.65 614.2 129.4 614.8 128.95 Q615.55 128.2 615.55 127.1 615.55 125.95 614.8 125.2 614.35 124.75 613.8 124.55 L613.0 124.5 M627.85 129.75 Q627.9 130.75 628.6 131.5 L628.7 131.6 628.75 131.6 Q629.45 132.3 630.45 132.35 L630.5 132.35 630.7 132.35 631.75 132.05 631.9 131.95 632.35 131.6 Q633.1 130.85 633.1 129.75 633.1 128.6 632.35 127.85 631.9 127.4 631.35 127.2 L630.5 127.15 Q629.4 127.1 628.7 127.85 627.9 128.6 627.85 129.75 M621.05 131.2 Q620.25 131.05 619.7 130.5 L619.6 130.5 619.55 130.4 Q618.85 129.65 618.8 128.65 618.8 127.5 619.6 126.75 620.35 126.0 621.45 126.05 L622.25 126.1 556.75 53.2 M621.05 131.2 L621.3 131.25 621.45 131.25 622.7 130.95 622.85 130.85 623.3 130.5 Q624.05 129.7 624.05 128.65 624.05 127.5 623.3 126.75 L622.25 126.1 M612.9 130.4 L620.9 131.5 621.25 131.55 M612.9 130.4 L604.2 129.2 595.8 128.0 594.7 127.85 M630.55 132.85 L621.25 131.55 M645.3 134.9 L643.75 134.65 643.75 134.75 Q643.5 142.0 640.15 145.45 637.4 148.2 632.2 150.25 628.25 164.3 614.75 172.0 M614.2 179.55 L656.85 178.45 M640.85 129.2 L639.8 128.55 639.0 128.5 Q637.9 128.45 637.15 129.2 636.35 129.95 636.35 131.1 636.35 132.15 637.1 132.9 L637.15 132.95 637.25 132.95 Q637.95 133.65 639.0 133.7 L640.0 133.5 640.25 133.45 640.4 133.35 640.85 132.95 Q641.6 132.2 641.6 131.1 641.6 129.95 640.85 129.2 M639.8 128.55 L639.4 128.15 639.4 128.1 573.95 57.15 M640.15 134.15 L630.8 132.9 630.55 132.85 M643.75 134.65 L640.15 134.15 M536.25 48.4 L605.35 123.6 606.4 124.25 Q607.15 125.0 607.15 126.1 607.15 127.2 606.4 127.95 L605.8 128.45 604.55 128.7 604.25 128.65 604.05 128.65 Q603.3 128.5 602.8 128.0 L602.7 127.95 Q601.9 127.2 601.9 126.1 601.9 125.0 602.7 124.25 603.45 123.5 604.55 123.5 L605.35 123.6 M528.15 46.55 L595.85 121.85 596.9 122.5 Q597.65 123.25 597.65 124.35 597.65 125.45 596.9 126.2 L596.3 126.7 595.35 126.95 595.05 126.95 Q593.95 126.95 593.25 126.25 L593.2 126.2 Q592.4 125.45 592.4 124.35 592.4 123.25 593.2 122.5 593.95 121.75 595.05 121.75 L595.85 121.85 M575.9 124.6 L576.1 124.6 577.4 124.35 578.05 123.8 Q578.85 123.0 578.85 121.85 578.85 120.7 578.05 119.9 577.6 119.4 577.0 119.2 M586.75 120.6 L585.9 120.55 Q584.8 120.5 584.05 121.25 583.25 122.0 583.25 123.15 583.25 124.25 584.05 125.0 L584.15 125.0 Q584.7 125.55 585.45 125.7 L585.9 125.7 587.15 125.45 587.75 125.0 Q588.5 124.25 588.5 123.15 588.5 122.0 587.75 121.25 L586.75 120.6 517.0 43.95 M582.1 59.05 L643.45 125.15 M546.9 50.9 L613.8 124.55 M564.25 54.95 L631.35 127.2 M421.3 96.95 Q421.95 97.15 422.45 97.7 423.3 98.55 423.3 99.85 423.3 101.1 422.45 102.0 L421.75 102.6 420.25 102.9 Q419.0 102.9 418.2 102.05 L418.15 102.0 Q417.25 101.1 417.25 99.85 417.25 98.55 418.15 97.7 419.0 96.8 420.25 96.8 L421.3 96.95 385.5 57.7 385.5 67.6 410.85 95.7 Q411.55 95.9 412.1 96.45 413.0 97.35 413.0 98.75 413.0 100.05 412.1 101.0 L411.35 101.6 409.8 101.95 Q408.5 101.9 407.6 101.05 L407.55 101.0 Q406.6 100.05 406.6 98.75 406.6 97.35 407.55 96.45 408.45 95.5 409.8 95.5 L410.85 95.7 M324.45 0.0 L369.5 49.9 378.4 49.9 334.35 1.6 M378.4 49.9 L385.5 49.9 385.5 57.7 M280.15 0.0 L327.05 49.9 333.75 49.9 289.8 0.0 M333.75 49.9 L342.85 49.9 298.9 0.0 M352.0 49.9 L359.9 49.9 369.5 49.9 M342.85 49.9 L352.0 49.9 M385.5 78.35 L385.5 88.0 385.5 94.25 385.5 96.85 385.5 98.8 430.95 105.1 431.9 105.25 450.65 107.8 451.3 107.9 460.9 109.25 461.5 109.35 480.3 111.95 481.1 112.05 M385.5 67.6 L385.5 78.35 M386.3 99.65 L388.9 106.55 394.7 100.85 397.4 107.65 403.35 102.05 405.2 108.55 411.75 103.2 415.3 110.05 421.05 104.5 426.05 111.5 426.15 111.6 425.95 111.65 M397.5 107.9 L397.4 107.65 397.25 107.75 397.4 107.95 397.5 107.9 M399.9 110.1 Q398.55 109.55 397.4 107.95 395.9 108.55 394.6 108.75 L386.65 121.15 385.5 122.9 385.5 132.2 M394.6 108.75 Q391.35 109.25 389.25 107.1 L388.85 106.6 Q387.15 107.4 385.5 107.55 L385.5 121.05 M385.5 122.9 L385.5 121.05 M327.05 49.9 L316.5 49.9 310.55 49.9 304.4 49.9 298.95 49.9 295.5 49.9 295.5 52.85 295.5 54.35 295.5 65.0 295.5 77.45 295.5 86.4 295.5 92.25 295.5 94.8 295.5 192.3 303.2 192.3 310.2 192.3 316.05 192.3 322.05 192.3 353.95 192.3 358.75 192.3 363.55 192.3 385.5 192.3 385.5 149.9 385.5 146.45 385.5 143.9 M391.15 150.35 L391.15 291.65 M386.45 291.55 L386.45 296.7 386.45 311.15 386.45 316.6 386.45 375.8 386.45 383.2 M391.15 296.75 L391.15 311.15 M391.15 316.6 L391.15 375.65 M396.1 382.9 L396.1 147.3 M485.1 105.95 Q483.9 105.9 483.05 106.75 482.2 107.6 482.2 108.85 482.2 110.05 483.05 110.85 L483.15 110.9 Q483.95 111.7 485.1 111.7 L486.45 111.4 487.15 110.85 Q488.0 110.05 488.0 108.85 488.0 107.6 487.15 106.75 L486.05 106.05 485.1 105.95 M474.25 118.3 L471.15 111.15 465.3 117.1 465.45 117.25 Q468.9 122.0 474.05 118.45 L474.25 118.3 M480.3 111.95 L474.6 118.35 474.8 118.55 Q478.35 122.7 483.6 119.75 M466.1 103.2 L465.15 103.1 Q463.95 103.05 463.15 103.9 462.25 104.75 462.25 106.0 462.25 107.2 463.15 108.0 L463.2 108.05 Q464.0 108.85 465.15 108.85 L466.55 108.55 467.2 108.0 Q468.05 107.2 468.05 106.0 468.05 104.75 467.2 103.9 L466.1 103.2 383.5 12.95 M455.15 102.3 L454.25 102.2 Q453.0 102.15 452.2 103.0 451.3 103.8 451.3 105.05 451.3 106.25 452.2 107.1 L452.25 107.15 Q453.05 107.95 454.25 107.95 L455.6 107.65 456.25 107.1 Q457.1 106.25 457.1 105.05 457.1 103.8 456.25 103.0 455.75 102.5 455.15 102.3 L369.45 9.7 M454.25 115.8 Q457.9 121.3 464.2 117.1 L464.4 117.0 461.5 109.35 M460.9 109.25 L454.65 115.15 451.3 107.9 M435.55 113.3 L431.9 105.25 M445.1 114.55 L441.75 107.05 435.85 113.3 M463.8 156.1 L463.2 292.9 M437.9 292.45 L437.5 154.0 M450.65 107.8 L446.05 114.7 M406.45 18.3 L486.05 106.05 M385.5 98.8 L385.5 107.55 M428.5 153.25 L428.5 292.25 M400.9 291.8 L400.9 151.1 M437.9 297.35 L437.95 311.15 M463.1 311.15 L463.15 297.65 M386.45 291.55 L386.45 255.65 363.55 255.65 358.75 255.65 353.95 255.65 322.05 255.65 316.15 255.65 310.2 255.65 303.2 255.65 294.45 255.65 294.45 398.1 303.2 398.1 310.2 398.1 380.4 398.1 386.45 398.1 386.45 383.2 M400.9 375.35 L400.9 316.5 M428.5 316.35 L428.5 374.45 M471.8 316.1 L471.8 373.05 M496.95 372.25 L497.1 315.95 M438.15 374.15 L438.0 316.3 M463.05 316.15 L462.85 373.35 M471.8 297.8 L471.8 311.15 M497.15 311.15 L497.2 298.05 M400.9 311.15 L400.9 296.9 M428.5 297.25 L428.5 311.15 M564.15 311.15 L564.2 298.9 M539.8 298.6 L539.8 311.15 M531.05 298.45 L531.0 311.15 M506.65 311.15 L506.65 298.2 M539.8 315.7 L539.8 370.9 M563.85 370.15 L564.1 315.6 M530.75 371.2 L530.95 315.8 M506.65 315.9 L506.65 371.95 M583.65 389.25 L583.55 389.25 M583.65 389.25 L609.65 387.65 644.5 385.55 M353.95 255.65 L353.95 192.3 M467.55 153.05 L467.0 380.15 M432.95 381.45 L432.95 150.25 M433.85 398.3 L464.25 396.45 583.55 389.25 M471.8 293.05 L471.8 156.75 M497.85 158.8 L497.25 293.5 M535.5 377.4 L535.5 159.5 M502.4 155.85 L501.85 378.75 M363.55 255.65 L363.55 192.3 M196.8 47.9 L205.5 47.9 206.35 34.8 206.65 21.6 206.45 9.25 206.45 9.05 268.55 4.2 268.6 5.1 268.7 11.85 268.7 17.25 268.5 26.4 268.2 32.0 267.8 38.2 267.7 39.25 266.6 50.25 265.2 60.65 263.35 71.25 262.75 74.1 261.4 80.15 261.25 80.95 260.85 82.55 260.85 125.45 M277.05 49.3 L281.3 53.9 Q285.0 53.5 285.0 50.95 L284.95 49.95 287.95 49.95 Q291.75 49.55 295.5 52.85 M275.3 47.4 L277.05 49.3 M295.5 54.35 Q291.7 54.6 289.3 55.6 286.25 56.9 284.7 56.9 L284.45 56.9 284.15 56.95 285.75 58.65 M284.15 56.95 L281.3 53.9 M274.05 58.55 L282.95 68.45 M270.7 82.0 L275.15 82.45 274.55 81.95 274.45 81.9 Q273.25 80.8 273.2 79.15 273.25 77.45 274.45 76.3 275.55 75.15 277.2 75.2 L278.4 75.3 272.7 69.0 M275.15 82.45 Q276.05 83.05 277.2 83.05 L278.8 82.8 279.05 82.65 280.0 81.9 Q280.75 81.15 281.0 80.15 L281.1 79.15 Q281.1 77.45 280.0 76.3 279.3 75.6 278.4 75.3 M268.75 92.65 L271.15 92.55 Q272.5 92.15 274.0 91.1 L270.9 83.95 270.25 84.7 M283.4 91.75 L283.65 92.4 283.35 92.55 Q279.0 94.95 275.85 92.55 L274.35 91.15 280.0 85.25 M283.4 91.75 L280.8 85.3 M260.85 82.55 L260.85 47.9 205.5 47.9 M277.9 7.85 L316.5 49.9 M277.3 21.05 L304.4 49.9 M277.65 14.75 L310.55 49.9 M277.0 26.2 L298.95 49.9 M196.8 47.9 L192.4 47.9 179.05 47.9 168.9 47.9 168.9 51.35 168.9 68.4 168.9 75.45 168.9 78.35 168.9 147.6 168.9 152.2 168.9 194.3 227.8 194.3 240.5 194.3 258.2 194.3 260.85 194.3 260.85 125.45 M161.25 74.6 L166.75 70.25 168.9 75.45 M168.9 152.2 L166.35 152.35 M266.95 101.25 L266.95 108.4 M79.7 0.0 L125.6 49.9 134.25 49.9 134.25 63.65 159.4 67.1 159.45 67.1 159.4 67.05 Q158.8 66.75 158.3 66.3 L158.2 66.25 Q157.05 65.15 156.95 63.55 L156.95 63.3 Q156.95 61.55 158.2 60.35 159.35 59.15 161.15 59.2 L162.45 59.3 107.95 0.0 M97.55 49.1 L96.15 49.0 Q94.5 49.0 93.4 49.9 L98.9 49.9 97.55 49.1 52.35 0.0 M39.4 0.0 L82.45 46.8 Q83.45 47.15 84.2 47.95 85.0 48.8 85.35 49.9 L93.4 49.9 M98.9 49.9 L112.8 49.9 66.85 0.0 M162.45 59.3 Q163.35 59.6 164.05 60.35 165.25 61.55 165.25 63.3 165.25 65.05 164.05 66.25 L163.1 67.05 161.9 67.4 168.9 68.4 M93.8 0.0 L145.3 56.0 Q146.2 56.3 146.9 57.05 148.05 58.25 148.1 60.0 148.05 61.75 146.9 62.95 L145.9 63.75 144.75 64.1 144.0 64.2 Q143.0 64.15 142.25 63.75 141.65 63.45 141.15 63.0 L141.05 62.95 Q139.8 61.75 139.75 60.0 139.8 58.25 141.05 57.05 142.2 55.85 144.0 55.9 L145.3 56.0 M160.1 75.5 L159.95 75.6 159.7 75.15 Q154.15 80.05 150.95 74.95 150.9 74.95 150.8 75.05 L150.7 75.1 Q147.4 77.0 145.0 76.65 L144.8 76.6 M161.05 76.95 L160.1 75.5 159.9 75.05 159.7 75.15 156.1 68.75 151.05 74.85 147.0 67.5 140.9 73.55 140.95 73.6 Q142.35 75.95 144.45 76.5 L144.8 76.6 M161.9 67.4 L161.85 67.4 161.15 67.5 159.45 67.1 161.85 67.4 M160.1 75.5 L161.05 74.75 M140.9 73.55 L135.85 66.5 134.25 68.05 134.25 74.4 Q137.0 74.85 140.7 73.7 L140.95 73.6 M134.25 63.65 L134.25 68.05 M134.25 89.3 L134.25 95.6 M134.25 89.3 L134.25 74.4 M161.05 76.95 Q163.85 80.55 168.9 78.35 M112.8 49.9 L125.6 49.9 M0.0 45.4 L42.3 51.15 42.3 49.9 42.65 49.9 42.5 49.85 Q41.8 49.55 41.25 49.0 L41.15 48.95 Q39.8 47.65 39.8 45.75 39.8 43.75 41.15 42.45 42.5 41.15 44.45 41.15 L45.9 41.3 7.85 0.0 M45.9 41.3 Q46.85 41.65 47.6 42.45 48.9 43.75 48.95 45.75 48.9 47.65 47.6 48.95 L46.55 49.8 46.35 49.9 58.05 49.9 57.8 48.45 Q57.8 46.5 59.15 45.15 60.5 43.85 62.45 43.9 L63.9 44.0 23.35 0.0 M63.9 44.0 Q64.85 44.35 65.6 45.15 66.9 46.5 66.95 48.45 L66.7 49.9 76.55 49.9 Q76.85 48.8 77.75 47.95 79.05 46.65 81.0 46.65 L82.45 46.8 M58.05 49.9 L66.7 49.9 M0.0 25.4 L10.85 37.15 Q11.85 37.5 12.6 38.3 13.9 39.6 13.9 41.6 13.9 43.5 12.6 44.85 L11.55 45.65 10.25 46.1 9.4 46.2 7.45 45.7 6.25 44.85 6.15 44.85 Q4.8 43.5 4.75 41.6 4.8 39.6 6.15 38.3 7.45 37.0 9.4 37.05 L10.85 37.15 M0.0 9.1 L27.7 39.15 Q28.65 39.5 29.4 40.3 30.7 41.6 30.75 43.6 30.7 45.5 29.4 46.85 L28.4 47.7 27.1 48.15 26.25 48.2 24.65 47.85 24.3 47.7 23.05 46.85 23.0 46.85 Q21.6 45.5 21.6 43.6 21.6 41.6 23.0 40.3 24.3 39.0 26.25 39.05 L27.7 39.15 M17.3 57.5 Q20.35 61.85 24.9 58.4 L24.95 58.5 Q29.05 62.1 35.1 59.8 L35.15 59.8 Q37.75 62.55 42.3 62.1 L42.3 55.95 41.0 54.1 35.25 59.7 31.7 52.8 25.15 58.2 23.35 51.7 23.35 51.65 17.2 57.4 17.3 57.5 17.25 57.5 16.95 57.6 Q12.0 59.6 9.2 56.75 L8.8 56.25 Q4.35 58.4 0.0 55.7 M42.3 55.95 L42.3 51.15 M42.65 49.9 L46.35 49.9 M16.95 57.6 L14.65 50.45 8.85 56.15 6.25 49.3 M42.3 136.05 L42.3 130.75 42.3 122.45 42.3 62.1 M102.4 398.1 L89.55 398.1 42.25 398.1 42.25 256.65 90.85 256.65 102.4 256.65 M42.3 136.05 L42.3 192.3 91.4 192.3 102.4 192.3 115.8 192.3 124.75 192.3 127.95 192.3 133.6 192.3 134.25 192.3 134.25 185.1 134.25 180.15 134.25 151.5 134.25 146.25 134.25 143.8 134.25 137.05 134.25 95.6 M76.55 49.9 L85.35 49.9 M102.4 398.1 L134.2 398.1 134.2 346.0 134.2 340.95 134.2 338.05 134.2 324.55 134.2 322.35 134.2 317.2 134.2 314.45 134.2 309.75 134.2 288.75 134.2 282.8 134.2 256.65 133.6 256.65 127.95 256.65 124.55 256.65 115.8 256.65 102.4 256.65 M258.2 194.3 L258.2 254.65 259.85 254.65 259.85 399.05 258.2 399.05 258.2 423.7 258.2 445.5 258.2 474.6 258.2 484.85 M227.8 254.65 L240.5 254.65 258.2 254.65 M227.8 399.05 L168.85 399.05 168.85 254.65 227.8 254.65 M303.2 255.65 L303.2 192.3 M127.95 192.3 L127.95 256.65 M434.7 447.45 L433.55 447.55 395.55 450.45 310.2 432.0 303.2 433.2 303.2 398.1 M266.95 473.7 L266.95 484.85 M357.35 464.25 L357.35 464.1 266.95 447.15 266.95 473.7 M357.35 464.25 L357.35 484.85 M266.95 425.65 L266.95 447.15 M266.95 425.65 L266.95 108.4 M240.5 399.05 L227.8 399.05 M240.5 442.15 L240.65 442.2 258.2 445.5 M258.2 399.05 L240.5 399.05 M611.05 471.75 L623.9 474.55 656.85 481.05 M433.85 398.3 L433.55 398.3 433.2 398.3 396.3 400.55 M199.35 13.5 L187.2 0.0 M174.9 0.0 L198.65 26.3 M197.65 39.2 L162.45 0.0 M148.35 0.0 L192.4 47.9 M179.05 47.9 L135.1 0.0 M121.65 0.0 L168.9 51.35 M0.0 54.15 L5.15 49.15" fill="none" stroke="#ffffff" stroke-linecap="round" stroke-linejoin="round" stroke-width="1.0"/>
    <path d="M199.65 1.85 L199.7 0.2 M591.85 61.65 L591.65 61.25 591.25 60.95 591.85 61.65 643.2 116.45 643.35 120.9 643.45 125.15 M647.5 129.5 L647.05 123.9 Q646.55 117.25 654.65 113.05 648.15 114.65 643.1 112.2 L596.65 61.55 M597.75 62.7 L596.55 61.45 596.55 61.4 593.2 58.15 Q590.65 56.0 587.45 56.0 584.25 56.0 582.9 56.85 581.55 57.65 580.6 58.7 M585.15 59.7 Q586.2 58.6 587.1 58.8 L588.85 59.45 590.25 60.25 591.25 60.95 M576.45 57.75 L576.65 57.8 Q578.25 55.9 581.2 54.2 584.1 52.45 587.55 52.2 591.0 51.95 593.2 53.0 594.8 53.7 598.5 57.25 L599.6 58.35 647.05 108.9 653.0 109.3 Q657.5 110.65 654.65 113.05 M586.9 60.15 L643.35 120.9 M555.8 121.9 L556.05 122.5 M565.65 123.8 L566.05 123.45 565.95 123.2 M555.4 122.4 L550.55 128.5 550.65 128.65 550.75 128.65 550.65 128.7 Q553.65 133.85 558.95 129.75 L559.45 129.3 556.05 122.5 M566.25 123.9 L566.05 123.45 566.3 123.25 M536.25 119.0 L536.65 119.8 M546.75 121.2 L546.4 120.5 M536.25 119.75 L530.9 126.45 Q533.7 129.6 537.55 128.55 538.9 128.2 540.35 127.3 L536.65 119.8 M550.65 128.7 L550.6 128.8 550.5 128.6 Q543.65 132.7 540.7 127.3 L540.35 127.3 M530.9 126.45 L530.5 125.95 M528.8 140.85 L568.55 145.25 568.55 141.0 531.55 136.95 531.35 137.3 529.6 139.75 529.2 140.3 529.0 140.55 M532.65 135.4 L531.55 136.95 M568.55 131.55 L569.2 131.1 566.25 123.9 M576.0 125.25 L576.15 125.1 575.9 124.6 M546.55 121.15 L550.45 128.55 550.5 128.6 550.55 128.5 M550.65 128.7 L550.65 128.65 550.5 128.6 M568.55 131.55 Q562.5 135.25 558.95 129.75 M540.7 127.3 L546.55 121.15 M565.65 123.8 L559.45 129.3 M509.8 123.2 L509.45 123.15 M520.0 124.55 L519.55 124.5 M483.6 119.75 L484.35 119.85 M493.7 121.05 L493.25 121.0 M502.05 122.15 L501.3 122.05 M526.3 144.3 L528.25 141.6 528.35 141.5 528.5 141.25 528.55 141.15 M539.8 162.15 L564.8 164.1 M564.25 294.7 L539.8 294.25 M525.85 144.95 L564.45 149.05 564.45 157.2 519.95 153.25 M506.65 159.5 L531.65 161.45 M531.1 294.1 L506.65 293.65 M385.5 146.45 L396.1 147.3 432.95 150.25 467.55 153.05 502.4 155.85 568.55 161.25 568.55 145.25 M621.25 131.55 L621.05 131.2 M612.7 129.65 L612.9 130.4 614.7 136.9 620.9 131.5 M604.2 129.2 L606.4 136.05 606.75 136.1 612.9 130.4 M606.75 136.1 Q609.8 140.65 614.45 137.15 L614.7 136.9 M630.55 132.85 L635.65 139.95 Q628.25 142.35 624.65 138.5 618.5 140.9 614.45 137.15 M621.25 131.55 L624.8 138.4 630.55 132.85 M647.5 129.5 L647.65 131.15 Q647.35 133.95 645.3 134.9 M614.75 172.0 L614.2 170.85 614.2 179.55 M640.15 134.15 Q640.25 139.6 636.45 143.5 633.7 146.25 628.5 148.3 623.75 165.25 607.9 171.15 L612.9 170.9 M630.45 132.35 L630.8 132.9 M604.05 128.65 L604.2 129.2 M595.8 128.0 L598.4 134.9 604.2 129.2 M595.35 126.95 L595.8 128.0 M594.7 127.85 L588.95 133.7 589.15 133.9 Q593.15 137.45 598.35 135.0 L598.75 135.45 600.45 136.7 Q602.95 137.85 606.4 136.05 M585.1 126.55 L585.6 126.0 585.45 125.7 M585.85 126.65 L585.6 126.0 M588.75 133.7 L588.8 133.9 588.95 133.7 588.75 133.7 588.1 132.1 588.1 134.05 588.4 133.9 588.75 133.7 M585.1 126.55 L579.45 132.45 580.9 133.9 Q583.9 136.2 588.1 134.05 M588.1 132.1 L585.85 126.65 M570.1 131.25 L576.0 125.25 579.1 132.4 579.35 132.45 579.45 132.45 M576.2 125.3 L576.15 125.1 M579.1 132.4 Q577.6 133.5 576.25 133.9 574.7 134.3 573.4 133.9 571.6 133.3 570.1 131.25 M607.9 171.15 L607.2 171.4 606.55 380.15 614.3 381.2 614.2 302.35 614.2 287.45 614.2 256.35 614.2 244.7 614.2 191.0 614.2 187.25 614.2 179.55 M607.2 171.4 L607.2 171.15 607.9 171.15 M614.2 170.85 L613.55 170.9 M569.2 131.1 L570.1 131.25 M433.6 98.75 L432.55 98.65 Q431.3 98.6 430.45 99.5 429.55 100.35 429.55 101.65 429.55 102.95 430.45 103.8 L430.5 103.85 431.4 104.5 432.55 104.7 434.05 104.4 434.75 103.8 Q435.6 102.95 435.6 101.65 435.6 100.35 434.75 99.5 L433.6 98.75 342.8 3.55 M359.9 49.9 Q338.15 25.35 316.85 0.0 M352.0 49.9 L308.05 0.0 M385.5 88.0 L389.5 92.5 Q390.15 92.75 390.7 93.3 391.65 94.2 391.65 95.55 391.65 96.9 390.7 97.8 L389.95 98.45 388.45 98.75 Q387.15 98.75 386.25 97.9 L386.2 97.8 385.5 96.85 M430.95 105.1 L431.4 104.5 M385.5 94.25 Q385.75 93.7 386.2 93.3 387.1 92.35 388.45 92.35 L389.5 92.5 M395.75 97.05 Q395.75 98.4 396.65 99.3 L396.75 99.35 Q397.6 100.2 398.95 100.25 L400.45 99.9 401.2 99.3 Q402.1 98.4 402.15 97.05 402.1 95.7 401.2 94.8 400.65 94.2 399.95 94.0 L399.35 93.85 398.95 93.85 Q397.55 93.85 396.65 94.8 395.75 95.7 395.75 97.05 M385.5 78.35 L399.4 93.4 399.95 94.0 M426.05 111.5 L430.95 105.1 M385.5 121.05 L386.65 121.15 M385.5 149.9 L391.15 150.35 M391.15 291.65 L386.45 291.55 M386.45 296.7 L391.15 296.75 M391.15 311.15 L386.45 311.15 M386.45 316.6 L391.15 316.6 M391.15 375.65 L386.45 375.8 M386.45 383.2 L396.1 382.9 M475.65 104.75 L474.7 104.65 Q473.45 104.6 472.65 105.45 471.75 106.3 471.75 107.55 471.75 108.75 472.65 109.55 L472.7 109.6 Q473.5 110.4 474.7 110.4 L476.05 110.1 476.75 109.55 Q477.55 108.75 477.55 107.55 477.55 106.3 476.75 105.45 L475.65 104.75 395.75 15.8 M474.8 118.55 L474.05 118.45 M465.45 117.25 L464.2 117.1 M356.7 6.75 L444.0 100.65 Q444.65 100.85 445.15 101.4 446.05 102.25 446.05 103.55 446.05 104.8 445.15 105.7 L444.45 106.25 443.0 106.6 Q441.75 106.55 440.9 105.75 L440.85 105.7 Q439.95 104.8 439.95 103.55 439.95 102.25 440.85 101.4 441.7 100.5 443.0 100.5 L444.0 100.65 M425.95 111.65 Q430.45 115.9 436.0 113.5 L435.85 113.3 435.55 113.3 M454.25 115.8 Q448.7 119.75 446.05 114.7 L445.1 114.55 Q440.0 118.0 436.0 113.5 M437.5 154.0 L463.8 156.1 M463.2 292.9 L437.9 292.45 M400.9 151.1 L428.5 153.25 M428.5 292.25 L400.9 291.8 M463.15 297.65 L437.9 297.35 M437.95 311.15 L463.1 311.15 M400.9 316.5 L428.5 316.35 M428.5 374.45 L400.9 375.35 M606.55 380.15 L579.4 376.4 578.25 376.0 568.55 376.05 568.55 376.1 567.45 376.1 535.5 377.4 501.85 378.75 467.0 380.15 432.95 381.45 396.1 382.9 M471.8 373.05 L496.95 372.25 M497.1 315.95 L471.8 316.1 M438.0 316.3 L463.05 316.15 M462.85 373.35 L438.15 374.15 M471.8 311.15 L497.15 311.15 M497.2 298.05 L471.8 297.8 M400.9 296.9 L428.5 297.25 M428.5 311.15 L400.9 311.15 M564.2 298.9 L539.8 298.6 M539.8 311.15 L564.15 311.15 M531.0 311.15 L506.65 311.15 M506.65 298.2 L531.05 298.45 M564.1 315.6 L539.8 315.7 M539.8 370.9 L563.85 370.15 M567.45 376.1 L568.55 376.05 568.55 161.25 M530.95 315.8 L506.65 315.9 M506.65 371.95 L530.75 371.2 M583.55 389.25 L583.55 401.4 606.3 413.4 606.45 413.5 606.3 413.5 606.3 430.4 656.85 433.85 M583.55 389.25 L583.55 389.15 583.65 389.25 656.85 429.05 M644.5 385.55 L644.5 385.4 614.3 381.2 M579.35 132.45 L579.4 376.0 579.4 376.4 M578.25 376.0 L579.4 376.0 M358.75 192.3 L358.75 255.65 M497.25 293.5 L471.8 293.05 M471.8 156.75 L497.85 158.8 M260.85 125.45 L265.2 108.95 265.25 108.75 266.95 101.25 268.75 92.65 270.25 84.7 270.7 82.0 272.7 69.0 274.05 58.55 275.3 47.4 275.45 45.75 275.95 40.0 276.4 34.75 277.0 26.2 277.3 21.05 277.65 14.75 277.9 7.85 278.15 0.0 M277.05 49.3 L277.95 49.15 Q279.5 49.1 282.55 47.85 285.4 46.6 290.25 46.55 285.75 41.7 281.2 42.2 L278.25 42.2 278.3 43.2 Q278.25 45.55 275.45 45.75 M275.95 40.0 Q278.7 39.05 283.0 38.95 279.7 35.4 276.4 34.75 M285.75 58.65 Q290.6 62.3 295.5 65.0 M282.95 68.45 Q288.9 74.0 295.5 77.45 M295.5 92.25 L283.75 91.8 283.45 91.75 283.4 91.75 M295.5 86.4 Q287.05 84.45 281.0 80.15 M199.65 1.85 L199.35 13.5 198.65 26.3 197.65 39.2 196.8 47.9 M166.35 152.35 L168.9 147.6 M266.95 108.4 Q283.15 103.15 295.5 94.8 M266.95 108.4 L265.2 108.95 M144.8 76.6 L144.75 76.75 140.7 81.6 161.05 84.35 161.05 76.95 M161.05 74.75 L161.25 74.6 M134.25 95.6 L161.05 98.85 161.05 92.3 134.6 88.9 134.25 89.3 M134.6 88.9 L140.7 81.6 M161.05 84.35 L161.05 92.3 M161.05 74.75 L161.05 76.95 M42.3 130.75 L22.3 129.25 22.3 458.3 102.4 452.8 102.4 398.1 M89.55 398.1 L89.55 398.75 32.6 401.0 32.6 135.25 42.3 136.05 M42.3 122.45 L0.0 118.9 M134.25 146.25 L161.05 146.65 161.05 144.5 134.25 143.8 M161.05 144.5 L161.05 138.7 134.25 137.05 M157.05 151.9 L150.4 151.75 150.4 165.85 157.05 165.85 157.05 151.9 161.05 151.95 161.05 146.65 M157.05 171.1 L157.05 180.75 150.4 180.55 150.4 170.95 157.05 171.1 M134.25 151.5 L143.9 151.65 150.4 151.75 M134.25 180.15 L143.9 180.4 143.9 151.65 M134.25 185.1 L143.9 185.1 143.9 243.05 133.6 243.35 133.6 192.3 M134.2 314.45 L161.05 313.4 161.05 242.6 150.4 242.9 150.4 185.1 161.05 185.1 161.05 151.95 M161.05 138.7 L161.05 98.85 M102.4 256.65 L102.4 192.3 M157.05 249.85 L157.05 281.45 150.4 281.8 150.4 250.15 157.05 249.85 M133.6 256.65 L133.6 250.9 143.9 250.45 143.9 282.2 134.2 282.8 M134.2 288.75 L143.9 288.05 143.9 309.25 134.2 309.75 M157.05 287.05 L157.05 308.6 150.4 308.95 150.4 287.55 157.05 287.05 M134.2 322.35 L161.05 322.0 161.05 316.75 134.2 317.2 M161.05 316.75 L161.05 313.4 M134.2 346.0 L161.05 345.1 161.05 339.8 134.2 340.95 M161.05 339.8 L161.05 337.05 134.2 338.05 M161.05 337.05 L161.05 324.55 134.2 324.55 M161.05 324.55 L161.05 322.0 M90.85 256.65 L91.4 192.3 M240.5 254.65 L240.5 194.3 M227.8 254.65 L227.8 194.3 M316.05 192.3 L316.15 255.65 M161.05 242.6 L161.05 185.1 M322.05 255.65 L322.05 192.3 M310.2 192.3 L310.2 255.65 M115.8 192.3 L115.8 256.65 M124.75 192.3 L124.55 256.65 M310.2 432.0 L310.2 398.1 M266.95 473.7 L357.35 464.25 M305.05 434.15 L266.95 425.65 M240.5 442.15 L240.5 419.7 240.5 399.05 M227.8 399.05 L227.8 444.15 240.5 443.3 240.5 442.15 M188.55 481.85 L189.1 481.8 188.55 481.3 188.55 481.85 188.55 484.85 M192.5 484.85 L189.1 481.8 242.35 476.25 258.2 474.6 M227.8 444.15 L227.8 462.0 Q177.95 475.75 161.05 462.0 L161.05 448.75 102.4 452.8 M258.2 423.7 L240.5 419.7 M253.8 484.85 L242.35 476.25 M91.9 407.4 L32.6 409.15 32.6 440.0 91.9 436.55 91.9 407.4 M0.0 411.4 L13.15 410.5 13.15 441.1 0.0 441.9 M188.55 481.85 L159.85 484.85 M609.65 387.65 L644.05 404.45 644.5 404.5 644.5 385.55 M606.3 413.4 L606.3 413.5 503.55 421.3 529.05 437.35 606.3 430.55 606.3 430.4 M583.55 401.4 L583.55 401.7 483.4 408.5 503.55 421.3 M624.85 474.4 L611.05 471.75 509.4 452.5 508.6 452.3 434.7 447.45 433.55 447.35 433.55 447.55 M509.4 452.5 L495.95 442.7 495.9 442.65 433.85 398.3 M433.55 398.3 L433.55 447.35 M529.05 437.35 L547.05 448.65 509.4 452.5 M433.2 398.3 L433.2 397.85 433.55 398.05 433.85 398.3 M433.55 398.05 L433.55 398.3 M396.3 400.55 L395.55 400.45 395.55 450.45 M395.55 400.45 L380.4 398.1 M483.4 408.5 L464.25 396.45 M161.05 448.75 L161.05 345.1 M0.0 132.7 L13.15 133.75 13.15 402.1 0.0 402.85 M656.85 410.75 L644.05 404.45 M656.85 307.25 L614.2 302.35 M656.85 244.3 L614.2 244.7 M614.2 287.45 L656.85 281.2 M656.85 256.35 L614.2 256.35 M614.2 191.0 L656.85 190.05 M656.85 186.15 L614.2 187.25 M22.3 129.25 L0.0 127.6 M0.0 459.85 L22.3 458.3" fill="none" stroke="#ffffff" stroke-linecap="round" stroke-linejoin="round" stroke-width="1.0"/>
  </g>
</svg>
