<?xml version="1.0" encoding="UTF-8" standalone="no"?>
<svg xmlns:xlink="http://www.w3.org/1999/xlink" height="154.6px" width="116.0px" xmlns="http://www.w3.org/2000/svg">
  <g transform="matrix(1.0, 0.0, 0.0, 1.0, 0.5, 0.5)">
    <path d="M95.05 0.0 Q96.4 0.0 97.35 0.95 98.0 1.6 98.2 2.45 L98.25 2.4 98.8 1.8 Q100.55 0.0 103.15 0.0 105.7 0.0 107.5 1.8 109.3 3.6 109.3 6.2 109.3 8.75 107.5 10.55 L107.2 10.85 106.15 11.6 104.8 12.15 104.65 12.2 104.0 12.35 104.65 12.2 104.8 12.15 106.15 11.6 107.75 12.7 Q109.3 14.3 109.3 16.45 L109.35 69.6 Q109.45 68.85 109.85 68.35 L110.45 67.75 Q111.15 67.2 112.05 67.2 L112.45 67.25 112.55 67.25 112.9 67.35 113.05 67.35 113.45 67.55 114.15 68.15 114.75 69.1 115.0 70.15 115.0 71.1 114.95 71.4 Q114.7 73.2 113.25 74.35 111.75 75.45 109.9 75.2 108.05 74.9 106.95 73.45 L106.4 72.5 106.35 45.4 106.35 38.45 106.3 20.75 106.35 20.05 106.3 19.35 Q106.1 18.15 105.3 17.2 L105.1 16.95 Q104.25 16.15 103.1 15.75 L103.2 15.7 103.4 15.5 Q104.2 14.7 104.2 13.5 L104.15 12.8 104.0 12.35 103.65 12.35 103.6 12.35 103.5 12.35 103.45 12.35 103.4 12.35 103.25 12.35 102.0 12.05 101.5 11.75 101.3 11.6 100.95 11.3 100.85 11.2 100.45 10.8 Q99.7 9.8 99.7 8.55 L99.9 7.4 Q100.15 6.55 100.85 5.85 L101.15 5.6 Q102.15 4.75 103.5 4.75 L103.8 4.75 Q104.35 4.95 104.75 5.35 105.45 6.05 105.45 7.05 105.45 8.05 104.75 8.75 104.05 9.45 103.05 9.45 L101.85 9.0 103.05 9.45 Q104.05 9.45 104.75 8.75 105.45 8.05 105.45 7.05 105.45 6.05 104.75 5.35 104.35 4.95 103.8 4.75 L103.5 4.75 Q102.15 4.75 101.15 5.6 L100.85 5.85 Q100.15 6.55 99.9 7.4 99.15 6.95 98.2 6.95 97.25 6.95 96.5 7.4 L96.5 7.15 Q96.5 5.5 95.35 4.35 94.35 3.35 93.0 3.25 L92.55 3.2 92.1 3.25 22.9 3.35 22.45 3.3 22.05 3.35 Q20.65 3.45 19.65 4.45 18.5 5.6 18.5 7.25 L18.5 7.5 Q17.75 7.05 16.8 7.05 15.85 7.05 15.15 7.5 L15.3 8.65 Q15.3 9.9 14.55 10.9 L14.15 11.3 14.05 11.4 13.7 11.7 13.55 11.85 13.05 12.15 11.8 12.45 11.6 12.45 11.55 12.45 11.5 12.45 11.4 12.45 11.35 12.45 11.05 12.45 11.0 12.45 10.4 12.3 10.25 12.25 8.9 11.7 10.25 12.25 10.4 12.3 11.0 12.45 11.05 12.45 10.9 12.9 10.8 13.6 Q10.8 14.8 11.6 15.6 L11.85 15.8 11.9 15.85 Q10.75 16.25 9.9 17.05 L9.7 17.3 Q8.9 18.25 8.7 19.45 L8.65 20.15 8.7 20.85 8.7 38.45 8.65 45.4 8.6 72.6 8.05 73.55 Q6.95 75.0 5.1 75.3 3.25 75.55 1.8 74.45 0.3 73.3 0.05 71.5 L0.0 71.2 0.05 70.25 0.3 69.2 Q0.35 68.45 0.85 68.25 L1.6 67.65 1.95 67.45 2.15 67.45 2.45 67.35 2.55 67.35 2.95 67.3 Q3.85 67.3 4.6 67.85 L5.2 68.45 5.65 69.7 5.7 16.55 Q5.7 14.4 7.25 12.8 8.0 12.1 8.9 11.7 L7.85 10.95 7.5 10.65 Q5.7 8.85 5.7 6.3 5.7 3.7 7.5 1.9 9.3 0.1 11.9 0.1 14.45 0.1 16.25 1.9 L16.75 2.5 16.8 2.55 Q17.0 1.7 17.65 1.05 18.6 0.1 19.95 0.1 L95.05 0.0 M13.15 9.1 L11.95 9.55 Q10.95 9.55 10.25 8.85 9.55 8.15 9.55 7.15 9.55 6.15 10.25 5.45 10.65 5.05 11.2 4.85 L11.5 4.85 Q12.85 4.85 13.85 5.7 L14.15 5.95 Q14.85 6.65 15.15 7.5 14.85 6.65 14.15 5.95 L13.85 5.7 Q12.85 4.85 11.5 4.85 L11.2 4.85 Q10.65 5.05 10.25 5.45 9.55 6.15 9.55 7.15 9.55 8.15 10.25 8.85 10.95 9.55 11.95 9.55 L13.15 9.1 M109.9 75.55 Q111.75 75.25 113.25 76.4 114.7 77.5 114.95 79.3 L115.0 79.65 115.0 80.6 114.8 81.45 114.75 81.5 114.15 82.6 114.15 82.65 113.45 83.2 113.05 83.35 112.9 83.4 112.55 83.45 112.45 83.45 112.05 83.5 Q111.15 83.5 110.45 83.0 L109.85 82.4 Q109.45 81.85 109.35 81.15 L109.3 137.15 Q109.3 139.3 107.75 140.9 L106.15 142.0 107.2 142.8 107.5 143.1 Q109.3 144.85 109.3 147.45 109.3 150.0 107.5 151.8 105.7 153.6 103.15 153.6 100.55 153.6 98.8 151.8 L98.25 151.2 98.2 151.15 Q98.0 152.0 97.35 152.65 96.4 153.6 95.05 153.6 L19.95 153.5 Q18.6 153.5 17.65 152.55 17.0 151.9 16.8 151.05 L16.75 151.1 16.25 151.7 Q14.45 153.5 11.9 153.5 9.3 153.5 7.5 151.7 5.7 149.9 5.7 147.35 5.7 144.75 7.5 143.0 L7.85 142.7 8.9 141.9 7.25 140.8 Q5.7 139.2 5.7 137.05 L5.65 81.05 5.2 82.3 4.6 82.9 Q3.85 83.4 2.95 83.4 L2.55 83.35 2.45 83.35 2.15 83.3 1.95 83.25 1.6 83.1 0.9 82.5 0.3 81.5 Q0.1 81.0 0.05 80.5 L0.0 79.55 0.05 79.2 Q0.3 77.4 1.8 76.3 3.25 75.15 5.1 75.45 6.95 75.7 8.05 77.2 L8.6 78.1 8.65 105.3 8.7 115.15 8.7 132.8 8.65 133.45 8.7 134.15 Q8.9 135.35 9.7 136.35 L9.9 136.55 Q10.75 137.35 11.9 137.75 L11.85 137.8 11.6 138.0 Q10.8 138.8 10.8 140.0 L10.9 140.75 11.05 141.2 11.35 141.15 11.4 141.15 11.5 141.15 11.55 141.15 11.6 141.2 11.8 141.15 13.05 141.5 13.55 141.75 13.7 141.9 14.05 142.2 14.15 142.3 14.55 142.75 Q15.3 143.7 15.3 144.95 L15.15 146.15 16.8 146.55 Q17.75 146.55 18.5 146.1 L18.5 146.35 Q18.5 148.0 19.65 149.15 20.65 150.15 22.05 150.3 L22.45 150.3 22.9 150.3 92.1 150.4 92.55 150.4 93.0 150.4 Q94.35 150.25 95.35 149.25 96.5 148.1 96.5 146.45 L96.5 146.2 Q97.25 146.65 98.2 146.65 99.15 146.65 99.9 146.25 L99.7 145.05 Q99.7 143.8 100.45 142.85 L100.85 142.4 100.95 142.3 101.3 142.0 101.5 141.85 102.0 141.6 103.25 141.25 103.4 141.3 103.45 141.25 103.5 141.25 103.6 141.25 103.65 141.25 104.0 141.3 104.15 140.85 104.2 140.1 Q104.2 138.9 103.4 138.1 L103.2 137.9 103.1 137.85 Q104.25 137.45 105.1 136.65 L105.3 136.45 Q106.1 135.45 106.3 134.25 L106.35 133.55 106.3 132.9 106.35 119.4 106.35 105.3 106.4 78.2 106.95 77.3 Q108.05 75.8 109.9 75.55 M109.35 70.35 L109.35 69.6 109.35 69.85 109.35 70.35 Q109.45 71.0 109.9 71.6 L110.0 71.75 Q110.35 72.0 110.75 72.05 111.45 72.15 112.05 71.7 112.65 71.3 112.75 70.6 112.85 69.85 112.15 69.5 112.85 69.85 112.75 70.6 112.65 71.3 112.05 71.7 111.45 72.15 110.75 72.05 110.35 72.0 110.0 71.75 L109.9 71.6 Q109.45 71.0 109.35 70.35 M112.15 81.2 Q112.85 80.85 112.75 80.15 112.65 79.4 112.05 79.0 111.45 78.55 110.75 78.65 L110.0 78.95 109.9 79.15 Q109.45 79.7 109.35 80.4 109.45 79.7 109.9 79.15 L110.0 78.95 110.75 78.65 Q111.45 78.55 112.05 79.0 112.65 79.4 112.75 80.15 112.85 80.85 112.15 81.2 M106.15 142.0 L104.8 141.45 104.65 141.45 104.0 141.3 104.65 141.45 104.8 141.45 106.15 142.0 M109.35 80.4 L109.35 80.85 109.35 81.15 109.35 80.4 M2.85 69.6 Q2.15 69.95 2.3 70.7 2.35 71.4 2.95 71.8 3.55 72.25 4.25 72.15 L5.0 71.85 5.15 71.7 5.65 70.45 5.15 71.7 5.0 71.85 4.25 72.15 Q3.55 72.25 2.95 71.8 2.35 71.4 2.3 70.7 2.15 69.95 2.85 69.6 M5.65 69.7 L5.65 70.45 5.7 69.95 5.65 69.7 M5.65 80.3 L5.15 79.05 5.0 78.85 4.25 78.55 Q3.55 78.45 2.95 78.9 2.35 79.3 2.3 80.05 2.15 80.75 2.85 81.1 2.15 80.75 2.3 80.05 2.35 79.3 2.95 78.9 3.55 78.45 4.25 78.55 L5.0 78.85 5.15 79.05 5.65 80.3 5.65 81.05 5.7 80.75 5.65 80.3 M11.05 141.2 L10.4 141.35 10.25 141.35 Q9.5 141.55 8.9 141.9 9.5 141.55 10.25 141.35 L10.4 141.35 11.05 141.2 M13.15 144.5 L11.95 144.05 Q10.95 144.05 10.25 144.75 9.55 145.45 9.55 146.45 9.55 147.45 10.25 148.15 10.65 148.55 11.2 148.75 L11.5 148.75 Q12.85 148.75 13.85 147.95 L14.15 147.65 15.15 146.15 14.15 147.65 13.85 147.95 Q12.85 148.75 11.5 148.75 L11.2 148.75 Q10.65 148.55 10.25 148.15 9.55 147.45 9.55 146.45 9.55 145.45 10.25 144.75 10.95 144.05 11.95 144.05 L13.15 144.5 M101.85 144.6 L103.05 144.15 Q104.05 144.15 104.75 144.85 105.45 145.55 105.45 146.55 105.45 147.55 104.75 148.25 104.35 148.65 103.8 148.85 L103.5 148.85 Q102.15 148.85 101.15 148.05 L100.85 147.75 Q100.15 147.05 99.9 146.25 100.15 147.05 100.85 147.75 L101.15 148.05 Q102.15 148.85 103.5 148.85 L103.8 148.85 Q104.35 148.65 104.75 148.25 105.45 147.55 105.45 146.55 105.45 145.55 104.75 144.85 104.05 144.15 103.05 144.15 L101.85 144.6" fill="#ff6600" fill-rule="evenodd" stroke="none"/>
    <path d="M11.8 12.45 L13.05 12.15 13.55 11.85 13.7 11.7 14.05 11.4 14.15 11.3 14.55 10.9 Q15.3 9.9 15.3 8.65 L15.15 7.5 Q15.85 7.05 16.8 7.05 17.75 7.05 18.5 7.5 L18.5 7.25 Q18.5 5.6 19.65 4.45 20.65 3.45 22.05 3.35 L22.9 3.35 92.1 3.25 93.0 3.25 Q94.35 3.35 95.35 4.35 96.5 5.5 96.5 7.15 L96.5 7.4 Q97.25 6.95 98.2 6.95 99.15 6.95 99.9 7.4 L99.7 8.55 Q99.7 9.8 100.45 10.8 L100.85 11.2 100.95 11.3 101.3 11.6 101.5 11.75 102.0 12.05 103.25 12.35 103.35 12.35 103.45 12.35 104.15 12.8 104.2 13.5 Q104.2 14.7 103.4 15.5 L103.2 15.7 103.1 15.75 Q104.25 16.15 105.1 16.95 L105.3 17.2 Q106.1 18.15 106.3 19.35 L106.3 20.75 106.35 38.45 106.35 45.4 106.4 72.5 106.95 73.45 Q108.05 74.9 109.9 75.2 L109.9 75.55 Q108.05 75.8 106.95 77.3 L106.4 78.2 106.35 105.3 106.35 119.4 106.3 132.9 106.3 134.25 Q106.1 135.45 105.3 136.45 L105.1 136.65 Q104.25 137.45 103.1 137.85 L103.2 137.9 103.4 138.1 Q104.2 138.9 104.2 140.1 L104.15 140.85 103.45 141.25 103.35 141.25 103.25 141.25 102.0 141.6 101.5 141.85 101.3 142.0 100.95 142.3 100.85 142.4 100.45 142.85 Q99.7 143.8 99.7 145.05 L99.9 146.25 Q99.15 146.65 98.2 146.65 97.25 146.65 96.5 146.2 L96.5 146.45 Q96.5 148.1 95.35 149.25 94.35 150.25 93.0 150.4 L92.1 150.4 22.9 150.3 22.05 150.3 Q20.65 150.15 19.65 149.15 18.5 148.0 18.5 146.35 L18.5 146.1 Q17.75 146.55 16.8 146.55 L15.15 146.15 15.3 144.95 Q15.3 143.7 14.55 142.75 L14.15 142.3 14.05 142.2 13.7 141.9 13.55 141.75 13.05 141.5 11.8 141.15 11.7 141.15 11.55 141.15 10.9 140.75 10.8 140.0 Q10.8 138.8 11.6 138.0 L11.85 137.8 11.9 137.75 Q10.75 137.35 9.9 136.55 L9.7 136.35 Q8.9 135.35 8.7 134.15 L8.7 132.8 8.7 115.15 8.65 105.3 8.6 78.1 8.05 77.2 Q6.95 75.7 5.1 75.45 L5.1 75.3 Q6.95 75.0 8.05 73.55 L8.6 72.6 8.65 45.4 8.7 38.45 8.7 20.85 8.7 19.45 Q8.9 18.25 9.7 17.3 L9.9 17.05 Q10.75 16.25 11.9 15.85 L11.85 15.8 11.6 15.6 Q10.8 14.8 10.8 13.6 L10.9 12.9 11.55 12.45 11.7 12.45 11.8 12.45 M94.9 13.15 L94.5 12.75 Q89.25 8.2 82.2 8.05 L81.8 8.05 33.3 8.05 32.9 8.05 Q25.15 8.2 19.6 13.7 14.05 19.3 13.95 27.05 L13.95 66.9 13.95 126.45 Q14.05 133.5 18.65 138.8 L19.6 139.8 20.4 140.55 20.45 140.6 22.0 141.85 22.2 142.0 Q26.9 145.35 32.9 145.45 L33.3 145.45 81.8 145.45 82.2 145.45 Q89.95 145.3 95.5 139.8 101.05 134.2 101.15 126.45 L101.15 86.6 101.15 66.9 101.15 27.05 Q101.05 19.3 95.5 13.7 L95.3 13.5 94.9 13.15" fill="#ffcc00" fill-rule="evenodd" stroke="none"/>
    <path d="M20.65 140.3 Q16.45 135.2 16.35 128.45 L16.35 29.05 Q16.45 21.3 22.0 15.7 27.55 10.2 35.3 10.05 L35.7 10.05 84.2 10.05 84.6 10.05 Q90.3 10.15 94.85 13.2 L95.3 13.5 95.2 13.6 Q99.05 18.55 99.15 25.05 L99.15 124.45 Q99.05 132.2 93.5 137.8 87.95 143.3 80.2 143.45 L79.8 143.45 31.3 143.45 30.9 143.45 Q25.2 143.35 20.65 140.3" fill="#e3e3c7" fill-rule="evenodd" stroke="none"/>
    <path d="M13.95 66.9 L13.95 27.05 Q14.05 19.3 19.6 13.7 25.15 8.2 32.9 8.05 L33.3 8.05 81.8 8.05 82.2 8.05 Q89.25 8.2 94.5 12.75 L94.9 13.15 94.85 13.2 Q90.3 10.15 84.6 10.05 L84.2 10.05 35.7 10.05 35.3 10.05 Q27.55 10.2 22.0 15.7 16.45 21.3 16.35 29.05 L16.35 128.45 Q16.45 135.2 20.65 140.3 L20.4 140.55 19.6 139.8 18.65 138.8 Q14.05 133.5 13.95 126.45 L13.95 66.9" fill="#b8b872" fill-rule="evenodd" stroke="none"/>
    <path d="M95.3 13.5 L95.5 13.7 Q101.05 19.3 101.15 27.05 L101.15 66.9 101.15 86.6 101.15 126.45 Q101.05 134.2 95.5 139.8 89.95 145.3 82.2 145.45 L81.8 145.45 33.3 145.45 32.9 145.45 Q26.9 145.35 22.2 142.0 L22.0 141.8 20.65 140.3 Q25.2 143.35 30.9 143.45 L31.3 143.45 79.8 143.45 80.2 143.45 Q87.95 143.3 93.5 137.8 99.05 132.2 99.15 124.45 L99.15 25.05 Q99.05 18.55 95.2 13.6 L95.3 13.5" fill="#ffffff" fill-rule="evenodd" stroke="none"/>
    <path d="M22.2 142.0 L22.0 141.85 22.0 141.8 22.2 142.0 M95.3 13.5 L95.2 13.6 95.3 13.5" fill="url(#gradient0)" fill-rule="evenodd" stroke="none"/>
    <path d="M94.85 13.2 L94.9 13.15 95.3 13.5 94.85 13.2 M22.0 141.85 L20.45 140.6 20.65 140.3 22.0 141.8 22.0 141.85" fill="#d8d8b1" fill-rule="evenodd" stroke="none"/>
    <path d="M20.4 140.55 L20.65 140.3 20.45 140.6 20.4 140.55" fill="#cccc99" fill-rule="evenodd" stroke="none"/>
    <path d="M106.15 11.6 L107.2 10.85 107.5 10.55 Q109.3 8.75 109.3 6.2 109.3 3.6 107.5 1.8 105.7 0.0 103.15 0.0 100.55 0.0 98.8 1.8 L98.25 2.4 98.2 2.45 Q98.0 1.6 97.35 0.95 96.4 0.0 95.05 0.0 M19.95 0.1 Q18.6 0.1 17.65 1.05 17.0 1.7 16.8 2.55 L16.75 2.5 16.25 1.9 Q14.45 0.1 11.9 0.1 9.3 0.1 7.5 1.9 5.7 3.7 5.7 6.3 5.7 8.85 7.5 10.65 L7.85 10.95 8.9 11.7 10.25 12.25 10.4 12.3 11.0 12.45 11.05 12.45 11.35 12.45 11.4 12.45 11.5 12.45 11.55 12.45 11.6 12.45 11.8 12.45 13.05 12.15 13.55 11.85 13.7 11.7 14.05 11.4 14.15 11.3 14.55 10.9 Q15.3 9.9 15.3 8.65 L15.15 7.5 Q14.85 6.65 14.15 5.95 L13.85 5.7 Q12.85 4.85 11.5 4.85 L11.2 4.85 Q10.65 5.05 10.25 5.45 9.55 6.15 9.55 7.15 9.55 8.15 10.25 8.85 10.95 9.55 11.95 9.55 L13.15 9.1 M101.85 9.0 L103.05 9.45 Q104.05 9.45 104.75 8.75 105.45 8.05 105.45 7.05 105.45 6.05 104.75 5.35 104.35 4.95 103.8 4.75 L103.5 4.75 Q102.15 4.75 101.15 5.6 L100.85 5.85 Q100.15 6.55 99.9 7.4 L99.7 8.55 Q99.7 9.8 100.45 10.8 L100.85 11.2 100.95 11.3 101.3 11.6 101.5 11.75 102.0 12.05 103.25 12.35 103.4 12.35 103.45 12.35 103.5 12.35 103.6 12.35 103.65 12.35 104.0 12.35 104.65 12.2 104.8 12.15 106.15 11.6 107.75 12.7 Q109.3 14.3 109.3 16.45 M109.35 69.6 Q109.45 68.85 109.85 68.35 L110.45 67.75 Q111.15 67.2 112.05 67.2 L112.45 67.25 112.55 67.25 112.9 67.35 113.05 67.35 113.45 67.55 114.15 68.15 M114.75 69.1 L115.0 70.15 115.0 71.1 114.95 71.4 Q114.7 73.2 113.25 74.35 111.75 75.45 109.9 75.2 M109.9 75.55 Q111.75 75.25 113.25 76.4 114.7 77.5 114.95 79.3 L115.0 79.65 115.0 80.6 114.8 81.45 M114.15 82.65 L113.45 83.2 113.05 83.35 112.9 83.4 112.55 83.45 112.45 83.45 112.05 83.5 Q111.15 83.5 110.45 83.0 L109.85 82.4 Q109.45 81.85 109.35 81.15 L109.35 80.85 109.35 80.4 Q109.45 79.7 109.9 79.15 L110.0 78.95 110.75 78.65 Q111.45 78.55 112.05 79.0 112.65 79.4 112.75 80.15 112.85 80.85 112.15 81.2 M109.3 137.15 Q109.3 139.3 107.75 140.9 L106.15 142.0 107.2 142.8 107.5 143.1 Q109.3 144.85 109.3 147.45 109.3 150.0 107.5 151.8 105.7 153.6 103.15 153.6 100.55 153.6 98.8 151.8 L98.25 151.2 98.2 151.15 Q98.0 152.0 97.35 152.65 96.4 153.6 95.05 153.6 M19.95 153.5 Q18.6 153.5 17.65 152.55 17.0 151.9 16.8 151.05 L16.75 151.1 16.25 151.7 Q14.45 153.5 11.9 153.5 9.3 153.5 7.5 151.7 5.7 149.9 5.7 147.35 5.7 144.75 7.5 143.0 L7.85 142.7 8.9 141.9 7.25 140.8 Q5.7 139.2 5.7 137.05 M5.65 81.05 L5.2 82.3 4.6 82.9 Q3.85 83.4 2.95 83.4 L2.55 83.35 2.45 83.35 2.15 83.3 1.95 83.25 1.6 83.1 0.9 82.5 M0.3 81.5 Q0.1 81.0 0.05 80.5 L0.0 79.55 0.05 79.2 Q0.3 77.4 1.8 76.3 3.25 75.15 5.1 75.45 6.95 75.7 8.05 77.2 L8.6 78.1 8.65 105.3 M5.1 75.3 Q3.25 75.55 1.8 74.45 0.3 73.3 0.05 71.5 L0.0 71.2 0.05 70.25 0.3 69.2 M0.85 68.25 L1.6 67.65 1.95 67.45 2.15 67.45 2.45 67.35 2.55 67.35 2.95 67.3 Q3.85 67.3 4.6 67.85 L5.2 68.45 5.65 69.7 M5.7 16.55 Q5.7 14.4 7.25 12.8 8.0 12.1 8.9 11.7 M103.25 12.35 L103.35 12.35 103.45 12.35 104.15 12.8 M103.1 15.75 Q104.25 16.15 105.1 16.95 L105.3 17.2 Q106.1 18.15 106.3 19.35 L106.35 20.05 106.3 20.75 106.35 38.45 M106.35 45.4 L106.4 72.5 106.95 73.45 Q108.05 74.9 109.9 75.2 M106.3 19.35 L106.3 20.75 M94.9 13.15 L94.5 12.75 Q89.25 8.2 82.2 8.05 L81.8 8.05 33.3 8.05 32.9 8.05 Q25.15 8.2 19.6 13.7 14.05 19.3 13.95 27.05 L13.95 66.9 M94.9 13.15 L95.3 13.5 95.5 13.7 Q101.05 19.3 101.15 27.05 L101.15 66.9 M101.15 86.6 L101.15 126.45 Q101.05 134.2 95.5 139.8 89.95 145.3 82.2 145.45 M109.35 70.35 Q109.45 71.0 109.9 71.6 L110.0 71.75 Q110.35 72.0 110.75 72.05 111.45 72.15 112.05 71.7 112.65 71.3 112.75 70.6 112.85 69.85 112.15 69.5 M109.35 69.6 L109.35 69.85 109.35 70.35 M109.9 75.55 Q108.05 75.8 106.95 77.3 L106.4 78.2 106.35 105.3 M106.35 119.4 L106.3 132.9 106.35 133.55 106.3 134.25 Q106.1 135.45 105.3 136.45 L105.1 136.65 Q104.25 137.45 103.1 137.85 M104.0 141.3 L104.65 141.45 104.8 141.45 106.15 142.0 M8.7 19.45 L8.65 20.15 8.7 20.85 8.7 19.45 Q8.9 18.25 9.7 17.3 L9.9 17.05 Q10.75 16.25 11.9 15.85 M11.55 12.45 L11.7 12.45 11.8 12.45 M8.65 45.4 L8.6 72.6 8.05 73.55 Q6.95 75.0 5.1 75.3 M8.7 20.85 L8.7 38.45 M5.65 70.45 L5.15 71.7 5.0 71.85 4.25 72.15 Q3.55 72.25 2.95 71.8 2.35 71.4 2.3 70.7 2.15 69.95 2.85 69.6 M5.65 70.45 L5.7 69.95 5.65 69.7 M2.85 81.1 Q2.15 80.75 2.3 80.05 2.35 79.3 2.95 78.9 3.55 78.45 4.25 78.55 L5.0 78.85 5.15 79.05 5.65 80.3 5.7 80.75 5.65 81.05 M8.7 115.15 L8.7 132.8 8.7 134.15 Q8.9 135.35 9.7 136.35 L9.9 136.55 Q10.75 137.35 11.9 137.75 M10.9 140.75 L11.55 141.15 11.7 141.15 11.8 141.15 13.05 141.5 13.55 141.75 13.7 141.9 14.05 142.2 14.15 142.3 14.55 142.75 Q15.3 143.7 15.3 144.95 L15.15 146.15 14.15 147.65 13.85 147.95 Q12.85 148.75 11.5 148.75 L11.2 148.75 Q10.65 148.55 10.25 148.15 9.55 147.45 9.55 146.45 9.55 145.45 10.25 144.75 10.95 144.05 11.95 144.05 L13.15 144.5 M99.9 146.25 L99.7 145.05 Q99.7 143.8 100.45 142.85 L100.85 142.4 100.95 142.3 101.3 142.0 101.5 141.85 102.0 141.6 103.25 141.25 103.35 141.25 103.45 141.25 104.15 140.85 M8.7 134.15 L8.65 133.45 8.7 132.8 M8.9 141.9 Q9.5 141.55 10.25 141.35 L10.4 141.35 11.05 141.2 11.35 141.15 11.4 141.15 11.5 141.15 11.55 141.15 11.6 141.2 11.8 141.15 M99.9 146.25 Q100.15 147.05 100.85 147.75 L101.15 148.05 Q102.15 148.85 103.5 148.85 L103.8 148.85 Q104.35 148.65 104.75 148.25 105.45 147.55 105.45 146.55 105.45 145.55 104.75 144.85 104.05 144.15 103.05 144.15 L101.85 144.6 M106.3 132.9 L106.3 134.25 M104.0 141.3 L103.65 141.25 103.6 141.25 103.5 141.25 103.45 141.25 103.4 141.3 103.25 141.25" fill="none" stroke="#000000" stroke-linecap="round" stroke-linejoin="round" stroke-width="1.0"/>
    <path d="M95.05 0.0 L19.95 0.1 M109.3 16.45 L109.35 69.6 109.35 70.35 M114.15 68.15 L114.75 69.1 M114.8 81.45 L114.75 81.5 114.15 82.6 114.15 82.65 M109.35 81.15 L109.3 137.15 M95.05 153.6 L19.95 153.5 M5.7 137.05 L5.65 81.05 5.65 80.3 M0.9 82.5 L0.3 81.5 M0.3 69.2 Q0.35 68.45 0.85 68.25 M5.65 69.7 L5.7 16.55 M104.15 12.8 L104.0 12.35 M104.15 12.8 L104.2 13.5 Q104.2 14.7 103.4 15.5 L103.2 15.7 103.1 15.75 M106.35 38.45 L106.35 45.4 M93.0 3.25 L92.1 3.25 22.9 3.35 22.05 3.35 Q20.65 3.45 19.65 4.45 18.5 5.6 18.5 7.25 L18.5 7.5 Q17.75 7.05 16.8 7.05 15.85 7.05 15.15 7.5 M93.0 3.25 Q94.35 3.35 95.35 4.35 96.5 5.5 96.5 7.15 L96.5 7.4 Q97.25 6.95 98.2 6.95 99.15 6.95 99.9 7.4 M92.1 3.25 L92.55 3.2 93.0 3.25 M13.95 66.9 L13.95 126.45 Q14.05 133.5 18.65 138.8 L19.6 139.8 20.4 140.55 M101.15 66.9 L101.15 86.6 M82.2 145.45 L81.8 145.45 33.3 145.45 32.9 145.45 Q26.9 145.35 22.2 142.0 L22.0 141.85 20.45 140.6 20.4 140.55 M106.35 105.3 L106.35 119.4 M103.1 137.85 L103.2 137.9 103.4 138.1 Q104.2 138.9 104.2 140.1 L104.15 140.85 104.0 141.3 M109.35 80.4 L109.35 81.15 M22.9 3.35 L22.45 3.3 22.05 3.35 M11.9 15.85 L11.85 15.8 11.6 15.6 Q10.8 14.8 10.8 13.6 L10.9 12.9 11.05 12.45 M8.7 38.45 L8.65 45.4 M5.65 69.7 L5.65 70.45 M8.65 105.3 L8.7 115.15 M11.9 137.75 L11.85 137.8 11.6 138.0 Q10.8 138.8 10.8 140.0 L10.9 140.75 M15.15 146.15 L16.8 146.55 Q17.75 146.55 18.5 146.1 L18.5 146.35 Q18.5 148.0 19.65 149.15 20.65 150.15 22.05 150.3 L22.9 150.3 92.1 150.4 93.0 150.4 Q94.35 150.25 95.35 149.25 96.5 148.1 96.5 146.45 L96.5 146.2 Q97.25 146.65 98.2 146.65 99.15 146.65 99.9 146.25 M11.05 141.2 L10.9 140.75 M22.05 150.3 L22.45 150.3 22.9 150.3 M92.1 150.4 L92.55 150.4 93.0 150.4" fill="none" stroke="#000000" stroke-linecap="round" stroke-linejoin="round" stroke-width="1.0"/>
  </g>
  <defs>
    <radialGradient cx="0" cy="0" gradientTransform="matrix(1.0, 0.0, 0.0, 1.0, -37.4, -6.75)" gradientUnits="userSpaceOnUse" id="gradient0" r="819.2" spreadMethod="pad">
      <stop offset="0.0" stop-color="#ffffff"/>
      <stop offset="1.0" stop-color="#cccc99"/>
    </radialGradient>
  </defs>
</svg>
