<?xml version="1.0" encoding="UTF-8" standalone="no"?>
<svg xmlns:xlink="http://www.w3.org/1999/xlink" height="153.6px" width="115.0px" xmlns="http://www.w3.org/2000/svg">
  <g transform="matrix(1.0, 0.0, 0.0, 1.0, 0.0, 0.0)">
    <path d="M103.35 12.35 L103.45 12.35 104.15 12.8 104.0 12.35 103.65 12.35 103.6 12.35 103.5 12.35 103.45 12.35 103.4 12.35 103.25 12.35 103.35 12.35 M107.5 1.8 Q109.3 3.6 109.3 6.2 109.3 8.75 107.5 10.55 L107.2 10.85 106.15 11.6 107.75 12.7 Q109.3 14.3 109.3 16.45 L109.35 69.6 109.35 69.85 109.35 70.35 109.35 69.6 Q109.45 68.85 109.85 68.35 L110.45 67.75 Q111.15 67.2 112.05 67.2 L112.45 67.25 112.55 67.25 112.9 67.35 113.05 67.35 113.45 67.55 114.15 68.15 114.75 69.1 115.0 70.15 115.0 71.1 114.95 71.4 Q114.7 73.2 113.25 74.35 111.75 75.45 109.9 75.2 L109.9 75.55 Q111.75 75.25 113.25 76.4 114.7 77.5 114.95 79.3 L115.0 79.65 115.0 80.6 114.8 81.45 114.75 81.5 114.15 82.6 114.15 82.65 113.45 83.2 113.05 83.35 112.9 83.4 112.55 83.45 112.45 83.45 112.05 83.5 Q111.15 83.5 110.45 83.0 L109.85 82.4 Q109.45 81.85 109.35 81.15 L109.35 80.4 109.35 80.85 109.35 81.15 109.3 137.15 Q109.3 139.3 107.75 140.9 L106.15 142.0 107.2 142.8 107.5 143.1 Q109.3 144.85 109.3 147.45 109.3 150.0 107.5 151.8 105.7 153.6 103.15 153.6 100.55 153.6 98.8 151.8 L98.25 151.2 98.2 151.15 Q98.0 152.0 97.35 152.65 96.4 153.6 95.05 153.6 L57.85 153.55 57.9 153.6 53.8 153.6 53.85 153.55 19.95 153.5 Q18.6 153.5 17.65 152.55 17.0 151.9 16.8 151.05 L16.75 151.1 16.25 151.7 Q14.45 153.5 11.9 153.5 9.3 153.5 7.5 151.7 5.7 149.9 5.7 147.35 5.7 144.75 7.5 143.0 L7.85 142.7 8.9 141.9 7.25 140.8 Q5.7 139.2 5.7 137.05 L5.65 81.05 5.7 80.75 5.65 80.3 5.65 81.05 5.2 82.3 4.6 82.9 Q3.85 83.4 2.95 83.4 L2.55 83.35 2.45 83.35 2.15 83.3 1.95 83.25 1.6 83.1 0.9 82.5 0.3 81.5 Q0.1 81.0 0.05 80.5 L0.0 79.55 0.05 79.2 Q0.3 77.4 1.8 76.3 3.25 75.15 5.1 75.45 L5.1 75.3 Q3.25 75.55 1.8 74.45 0.3 73.3 0.05 71.5 L0.0 71.2 0.05 70.25 0.3 69.2 Q0.35 68.45 0.85 68.25 L1.6 67.65 1.95 67.45 2.15 67.45 2.45 67.35 2.55 67.35 2.95 67.3 Q3.85 67.3 4.6 67.85 L5.2 68.45 5.65 69.7 5.65 70.45 5.7 69.95 5.65 69.7 5.7 16.55 Q5.7 14.4 7.25 12.8 8.0 12.1 8.9 11.7 L7.85 10.95 7.5 10.65 Q5.7 8.85 5.7 6.3 5.7 3.7 7.5 1.9 9.3 0.1 11.9 0.1 14.45 0.1 16.25 1.9 L16.75 2.5 16.8 2.55 Q17.0 1.7 17.65 1.05 18.6 0.1 19.95 0.1 L95.05 0.0 Q96.4 0.0 97.35 0.95 98.0 1.6 98.2 2.45 L98.25 2.4 98.8 1.8 Q100.55 0.0 103.15 0.0 105.7 0.0 107.5 1.8 M106.3 20.75 L106.35 20.05 106.3 19.35 106.3 20.75 M92.55 3.2 L92.1 3.25 93.0 3.25 92.55 3.2 M22.9 3.35 L22.45 3.3 22.05 3.35 22.9 3.35 M8.7 134.15 L8.7 132.8 8.65 133.45 8.7 134.15 M11.6 12.45 L11.55 12.45 11.5 12.45 11.4 12.45 11.35 12.45 11.05 12.45 10.9 12.9 11.55 12.45 11.7 12.45 11.8 12.45 11.6 12.45 M8.7 20.85 L8.7 19.45 8.65 20.15 8.7 20.85 M11.35 141.15 L11.4 141.15 11.5 141.15 11.55 141.15 10.9 140.75 11.05 141.2 11.35 141.15 M11.6 141.2 L11.8 141.15 11.7 141.15 11.55 141.15 11.6 141.2 M92.1 150.4 L92.55 150.4 93.0 150.4 92.1 150.4 M103.25 141.25 L103.4 141.3 103.45 141.25 103.5 141.25 103.6 141.25 103.65 141.25 104.0 141.3 104.15 140.85 103.45 141.25 103.35 141.25 103.25 141.25 M106.3 132.9 L106.3 134.25 106.35 133.55 106.3 132.9 M22.05 150.3 L22.45 150.3 22.9 150.3 22.05 150.3" fill="#cccccc" fill-rule="evenodd" stroke="none"/>
  </g>
</svg>
