<?xml version="1.0" encoding="UTF-8" standalone="no"?>
<svg xmlns:xlink="http://www.w3.org/1999/xlink" height="25.9px" width="55.8px" xmlns="http://www.w3.org/2000/svg">
  <g transform="matrix(1.0, 0.0, 0.0, 1.0, 0.5, 0.5)">
    <path d="M50.0 5.4 L50.15 5.6 Q51.25 7.2 51.25 9.35 L51.25 9.7 51.1 15.55 Q50.95 17.85 49.5 19.55 47.9 21.35 45.6 21.35 L16.85 21.35 8.5 21.35 6.55 20.9 6.3 20.75 5.45 19.0 6.7 19.2 43.8 19.2 Q46.1 19.2 47.7 17.4 49.15 15.7 49.3 13.35 L49.45 7.55 49.45 7.2 49.15 5.2 49.9 5.45 50.0 5.4" fill="#ffffff" fill-rule="evenodd" stroke="none"/>
    <path d="M51.25 9.7 L51.25 9.35 Q51.25 7.2 50.15 5.6 L50.0 5.4 49.8 5.1 49.65 4.95 48.75 4.1 Q47.45 3.15 45.75 3.15 L16.85 3.15 8.5 3.15 Q6.35 3.2 4.8 4.95 3.2 6.75 3.2 9.35 L3.2 9.7 3.2 15.55 3.25 16.0 Q3.4 17.2 3.9 18.2 L4.8 19.55 6.3 20.75 6.55 20.9 8.5 21.35 16.85 21.35 45.6 21.35 Q47.9 21.35 49.5 19.55 50.95 17.85 51.1 15.55 L51.25 9.7 M46.3 0.0 Q49.85 0.0 52.35 2.5 54.8 4.95 54.8 8.5 L54.8 9.0 54.55 16.9 Q54.4 20.1 52.1 22.45 49.6 24.9 46.05 24.9 L8.25 24.9 Q4.85 24.8 2.5 22.45 0.4 20.35 0.05 17.6 L0.0 16.9 0.0 9.0 0.0 8.5 Q0.0 4.95 2.5 2.5 4.85 0.1 8.25 0.0 L46.3 0.0" fill="#ffcc00" fill-rule="evenodd" stroke="none"/>
    <path d="M6.3 20.75 L4.8 19.55 3.9 18.2 Q3.4 17.2 3.25 16.0 L3.2 15.55 3.2 9.7 3.2 9.35 Q3.2 6.75 4.8 4.95 6.35 3.2 8.5 3.15 L16.85 3.15 45.75 3.15 Q47.45 3.15 48.75 4.1 L49.65 4.95 49.8 5.1 50.0 5.4 49.9 5.45 49.15 5.2 47.75 5.0 10.5 5.0 Q8.3 5.05 6.8 6.8 5.2 8.6 5.2 11.2 L5.2 11.55 5.2 17.4 5.25 17.85 5.45 19.0 6.3 20.75" fill="#ca5202" fill-rule="evenodd" stroke="none"/>
    <path d="M49.15 5.2 L49.45 7.2 49.45 7.55 49.3 13.35 Q49.15 15.7 47.7 17.4 46.1 19.2 43.8 19.2 L6.7 19.2 5.45 19.0 5.25 17.85 5.2 17.4 5.2 11.55 5.2 11.2 Q5.2 8.6 6.8 6.8 8.3 5.05 10.5 5.0 L47.75 5.0 49.15 5.2" fill="#ff9900" fill-rule="evenodd" stroke="none"/>
    <path d="M50.0 5.4 L50.15 5.6 Q51.25 7.2 51.25 9.35 L51.25 9.7 M51.1 15.55 Q50.95 17.85 49.5 19.55 47.9 21.35 45.6 21.35 M16.85 21.35 L8.5 21.35 6.55 20.9 6.3 20.75 4.8 19.55 3.9 18.2 Q3.4 17.2 3.25 16.0 L3.2 15.55 3.2 9.7 3.2 9.35 Q3.2 6.75 4.8 4.95 6.35 3.2 8.5 3.15 L16.85 3.15 M45.75 3.15 Q47.45 3.15 48.75 4.1 L49.65 4.95 49.8 5.1 50.0 5.4 M46.3 0.0 Q49.85 0.0 52.35 2.5 54.8 4.95 54.8 8.5 L54.8 9.0 M54.55 16.9 Q54.4 20.1 52.1 22.45 49.6 24.9 46.05 24.9 M8.25 24.9 Q4.85 24.8 2.5 22.45 0.4 20.35 0.05 17.6 M0.0 9.0 L0.0 8.5 Q0.0 4.95 2.5 2.5 4.85 0.1 8.25 0.0" fill="none" stroke="#000000" stroke-linecap="round" stroke-linejoin="round" stroke-width="1.0"/>
    <path d="M51.25 9.7 L51.1 15.55 M45.6 21.35 L16.85 21.35 M16.85 3.15 L45.75 3.15 M54.8 9.0 L54.55 16.9 M46.05 24.9 L8.25 24.9 M0.05 17.6 L0.0 16.9 0.0 9.0 M8.25 0.0 L46.3 0.0" fill="none" stroke="#000000" stroke-linecap="round" stroke-linejoin="round" stroke-width="1.0"/>
  </g>
</svg>
