<?xml version="1.0" encoding="UTF-8" standalone="no"?>
<svg xmlns:xlink="http://www.w3.org/1999/xlink" height="475.65px" width="190.95px" xmlns="http://www.w3.org/2000/svg">
  <g transform="matrix(1.0, 0.0, 0.0, 1.0, 0.5, 0.5)">
    <path d="M181.15 103.2 L180.65 103.05 Q180.25 98.0 178.9 89.3 L177.4 80.4 Q173.8 59.55 169.85 49.9 L169.45 49.05 169.25 49.05 168.2 47.15 Q163.0 38.55 148.4 37.55 L145.05 37.25 145.95 34.6 151.7 35.2 Q166.3 36.2 171.55 44.8 L173.9 49.15 174.05 49.15 Q176.85 55.7 178.1 63.05 179.4 70.6 180.45 89.15 L181.0 99.7 181.15 103.2 M130.15 70.75 L131.45 71.6 132.85 72.3 136.25 74.05 Q140.35 76.6 140.35 81.25 140.35 88.15 135.05 93.35 L133.55 94.7 139.1 101.1 141.85 104.5 143.35 106.35 144.3 104.7 145.5 102.05 145.7 101.5 145.8 101.2 146.55 97.45 146.6 96.65 146.7 93.25 146.85 93.7 147.2 94.9 148.3 97.5 Q147.0 99.85 146.1 102.3 L145.7 103.35 145.5 103.9 144.15 107.35 143.35 106.35 144.15 107.35 152.15 118.0 152.65 118.7 153.25 118.75 157.25 120.45 157.15 120.7 157.5 120.55 171.0 113.95 174.05 112.4 Q172.75 114.9 170.35 116.6 L166.6 118.75 Q164.2 120.0 163.0 121.05 L161.0 122.3 160.15 121.65 157.5 120.55 160.15 121.65 161.0 122.3 168.7 128.1 173.4 132.1 Q167.5 130.15 159.3 124.35 149.15 117.2 144.2 110.45 L143.35 109.3 142.25 107.8 140.95 106.15 137.75 102.4 Q132.2 96.15 126.35 91.9 123.3 89.7 119.75 85.3 117.4 82.3 114.95 81.0 L115.1 80.7 112.15 76.1 114.35 76.25 Q117.25 77.45 118.85 81.55 119.85 82.15 120.9 82.9 L124.7 78.7 Q127.8 75.15 130.15 70.75 M184.85 117.9 Q185.25 122.45 186.3 128.1 187.75 135.9 187.4 144.65 L187.2 148.55 187.15 149.5 186.8 149.5 184.3 149.4 184.35 148.85 184.65 143.65 Q184.95 134.85 183.55 127.05 L183.4 126.2 Q183.6 122.45 184.85 117.9 M158.25 209.6 L158.25 209.55 158.35 210.05 158.6 211.5 160.95 225.75 161.35 240.9 160.4 301.35 Q160.4 318.25 160.75 322.7 161.55 333.3 164.95 342.4 L163.4 341.15 Q162.0 340.35 160.25 340.05 L158.9 339.85 Q156.25 331.85 155.55 322.7 155.2 318.25 155.25 301.35 L156.2 240.9 155.8 225.75 154.15 215.9 153.95 214.6 158.25 209.6 158.35 210.05 158.25 209.6 M33.55 331.0 L33.0 330.4 33.4 330.3 33.55 331.0 M14.05 313.45 L14.75 310.75 Q15.6 307.9 15.85 302.0 16.05 296.05 15.5 292.45 L15.2 291.1 Q13.65 284.65 9.1 284.65 L9.05 284.5 Q20.75 282.4 29.3 278.75 L32.0 275.4 Q36.3 270.0 38.15 266.25 L41.85 258.3 Q43.3 254.6 44.35 249.5 L48.45 229.95 Q49.85 221.9 50.4 212.95 L50.55 213.35 53.4 219.55 53.35 220.85 Q51.95 241.95 47.9 254.5 44.35 265.2 38.95 271.7 36.85 274.2 34.0 276.5 L37.8 274.3 Q50.85 266.25 60.15 252.35 68.25 240.3 72.95 224.65 L73.7 221.9 Q77.1 209.55 78.25 195.95 L79.15 196.55 78.25 195.95 78.35 194.45 79.0 194.45 79.15 196.55 79.25 198.9 79.0 205.8 Q77.35 215.1 74.15 225.45 67.55 246.7 60.95 258.8 54.3 270.8 46.9 277.35 L43.9 280.9 35.75 289.25 26.65 297.35 26.55 297.25 Q22.75 300.1 19.35 304.25 15.9 308.35 14.05 313.45 M33.65 143.35 L33.4 143.35 33.0 140.4 32.25 134.85 31.85 132.15 32.6 131.65 32.65 131.55 34.05 130.5 34.7 129.95 34.75 129.95 34.9 129.8 38.95 126.6 Q40.75 125.25 42.45 124.4 L43.95 122.35 44.55 121.5 43.85 121.2 42.9 120.85 41.95 120.55 41.75 120.5 41.65 120.4 35.6 115.6 35.5 116.0 34.7 118.4 33.1 122.25 Q31.3 126.7 32.5 131.2 31.65 129.7 31.45 127.7 L31.05 122.3 Q32.75 120.25 33.35 118.8 L34.5 114.5 34.35 114.3 Q32.6 112.45 32.55 111.35 32.5 110.55 34.85 106.4 L35.05 106.1 35.15 106.1 Q35.15 107.2 34.75 108.6 34.3 109.9 34.35 110.35 34.4 113.85 43.85 119.9 L45.15 120.7 44.55 121.5 45.15 120.7 46.0 119.65 46.8 118.65 47.35 118.0 Q46.6 116.95 46.6 115.55 46.5 113.2 48.05 111.2 49.65 109.1 51.85 109.05 53.25 109.0 54.05 110.75 L52.15 112.7 54.05 110.75 55.75 109.15 56.4 108.5 57.75 107.25 Q63.75 101.75 71.2 96.3 74.85 93.6 78.9 90.9 L79.35 91.9 80.15 93.9 Q59.75 105.35 46.2 123.15 L46.35 123.15 45.6 123.7 43.95 124.85 Q41.85 126.3 40.9 127.05 L40.55 127.35 42.45 124.4 40.55 127.35 39.4 128.35 36.3 131.6 35.2 132.95 35.4 134.8 36.05 139.55 36.55 143.25 33.65 143.35 33.0 140.4 33.65 143.35 M36.9 96.05 Q37.15 94.75 38.8 93.1 L38.8 93.75 Q38.8 94.4 39.15 95.5 L39.5 97.25 39.65 97.25 39.75 97.4 43.35 102.8 43.45 102.95 Q44.7 104.8 45.7 105.85 44.65 105.4 43.5 104.4 L40.4 101.05 36.9 96.05 M40.15 88.5 L40.7 85.7 Q45.5 62.2 46.25 59.15 47.15 55.6 47.8 53.7 L47.95 53.2 48.6 53.9 48.0 53.25 Q48.8 51.35 50.95 48.0 L51.1 47.8 Q53.45 44.15 55.6 42.55 57.75 40.85 61.3 39.55 L70.3 35.6 73.1 34.25 72.7 36.8 72.65 37.3 71.7 37.75 62.75 41.7 Q59.2 43.0 57.05 44.7 55.6 45.75 54.05 47.8 L52.4 50.15 Q50.4 53.2 49.65 55.05 L49.6 55.05 49.3 55.8 Q48.65 57.75 47.75 61.3 L42.15 87.8 41.1 93.4 40.6 91.3 40.3 89.85 40.1 88.7 40.15 88.5 M187.2 148.55 L186.8 149.5 187.2 148.55 M70.35 59.1 L70.2 62.45 70.0 66.85 69.8 71.75 Q69.75 82.05 70.45 89.9 L67.8 90.6 61.25 91.15 57.1 90.9 Q53.1 90.6 48.8 89.15 47.1 88.55 46.0 87.1 L45.4 86.2 Q45.85 83.75 47.65 80.8 50.15 76.7 52.3 74.5 54.35 72.35 57.65 69.5 L57.95 69.25 58.0 69.25 57.9 69.15 58.25 69.0 58.0 69.2 58.65 68.9 59.05 68.75 63.75 66.0 Q65.55 64.65 67.8 62.15 L70.35 59.1 M108.05 97.2 L107.55 97.05 108.35 96.2 108.05 97.2 M153.25 72.05 Q152.05 74.7 151.45 77.5 150.85 80.4 149.55 83.95 L147.5 89.35 146.7 91.35 Q146.65 87.75 146.15 85.75 L145.9 84.55 146.6 83.3 150.2 76.4 Q151.15 74.05 153.25 72.05 M133.55 94.7 Q126.4 86.8 120.9 82.9 126.4 86.8 133.55 94.7 M58.0 69.2 L58.0 69.25 58.0 69.2 M49.1 116.0 L47.35 118.0 49.1 116.0 52.15 112.7 Q51.35 111.75 50.95 111.75 50.15 111.75 49.55 113.75 49.15 115.15 49.1 116.0 M34.9 114.9 L34.35 114.3 34.9 114.9 35.6 115.6 34.9 114.9 34.5 114.5 34.9 114.9 M152.5 122.95 L152.55 122.95 152.5 122.95 M90.15 201.9 L90.4 207.95 Q90.35 229.15 89.45 241.3 88.1 258.6 84.45 270.4 80.1 284.2 72.0 292.55 64.4 300.3 53.1 303.75 L51.35 303.1 51.3 303.1 51.55 302.55 Q56.15 302.55 61.3 294.45 64.05 290.05 67.0 283.2 71.2 273.45 74.95 260.5 79.4 245.4 81.1 235.2 83.05 222.9 83.05 206.3 L83.0 203.65 88.8 206.5 90.15 201.9 M88.0 321.75 Q93.5 318.45 95.2 314.95 L101.3 303.15 Q105.55 294.6 107.25 288.9 L111.25 275.7 114.9 262.85 Q116.9 255.05 117.4 249.4 L117.55 265.35 Q117.65 281.65 117.95 290.55 118.8 317.3 122.65 334.0 L119.2 333.5 106.7 332.5 Q99.0 331.8 97.6 329.85 95.25 326.6 91.55 323.9 89.75 322.6 88.0 321.75 M34.0 276.5 L29.3 278.75 34.0 276.5 M41.65 294.0 L41.25 293.65 42.45 292.35 41.65 294.0" fill="#fafbfc" fill-rule="evenodd" stroke="none"/>
    <path d="M139.1 101.1 Q143.5 96.65 145.0 89.5 L144.9 93.9 Q144.45 99.45 141.85 104.5 L139.1 101.1 M184.75 116.6 L182.3 119.0 Q178.7 122.0 174.15 123.0 L167.2 123.65 167.15 123.5 168.5 123.0 Q172.1 121.5 175.75 118.65 182.05 113.65 184.55 108.35 184.4 110.8 184.6 114.55 L184.75 116.6 M164.95 342.4 L165.65 344.15 Q165.6 345.8 164.05 346.75 162.7 347.55 160.6 347.5 L160.25 340.05 Q162.0 340.35 163.4 341.15 L164.95 342.4 M39.6 333.55 Q37.45 333.5 35.95 332.85 34.65 332.25 33.55 331.0 L33.4 330.3 33.15 328.55 Q33.0 327.0 33.1 323.85 33.25 320.7 33.85 318.1 34.45 315.55 38.25 307.7 34.45 315.55 33.85 318.1 33.25 320.7 33.1 323.85 33.0 327.0 33.15 328.55 L33.4 330.3 33.0 330.4 30.9 327.75 Q29.8 326.7 28.25 326.55 L27.9 324.65 Q27.3 322.5 27.3 320.2 27.3 316.2 30.1 311.2 31.7 308.25 36.05 302.4 40.2 296.8 41.65 294.0 L42.45 292.35 45.15 289.15 45.45 288.8 45.25 290.15 Q41.7 312.85 40.25 326.6 L39.6 333.55 M15.5 292.45 Q7.2 292.6 0.2 297.55 L0.0 297.65 0.0 294.95 Q0.55 290.05 3.0 287.35 4.7 285.35 7.2 284.8 L7.95 284.7 9.1 284.65 Q13.65 284.65 15.2 291.1 L15.5 292.45 M36.75 103.1 L36.95 98.2 Q38.35 100.35 39.6 104.9 40.9 109.4 41.8 111.05 L43.7 114.2 45.65 117.3 46.8 118.65 46.0 119.65 43.8 118.25 41.65 116.65 Q37.95 113.7 35.85 110.95 36.45 109.05 36.75 103.6 L36.75 103.1 M38.8 93.1 L39.7 89.85 40.6 85.9 40.35 87.3 40.15 88.5 40.1 88.7 40.3 89.85 40.6 91.3 41.1 93.4 Q41.85 95.9 42.95 97.65 L43.35 98.3 Q44.25 100.0 45.1 102.9 45.55 104.55 46.15 106.05 L46.4 106.6 45.7 105.85 Q44.7 104.8 43.45 102.95 L43.35 102.8 39.75 97.4 39.65 97.25 39.5 97.25 39.15 95.5 Q38.8 94.4 38.8 93.75 L38.8 93.1 M171.0 113.95 L157.5 120.55 157.25 120.45 153.25 118.75 152.65 118.7 152.15 118.0 150.95 115.05 149.85 112.9 149.3 111.8 Q148.5 109.7 148.6 106.95 L148.7 104.5 149.25 106.8 Q150.8 112.2 154.9 113.3 L156.85 113.55 159.9 113.6 Q158.8 114.3 157.75 115.25 154.7 118.5 153.25 118.75 154.7 118.5 157.75 115.25 158.8 114.3 159.9 113.6 L171.0 113.95 M108.75 178.95 L109.65 182.55 116.25 181.05 136.1 177.95 138.1 177.65 Q134.2 180.75 127.4 184.15 114.25 190.65 108.75 190.65 103.4 190.65 101.0 183.45 99.4 178.6 98.6 167.6 L98.5 166.25 Q96.15 173.95 93.7 185.85 L90.15 201.9 88.8 206.5 83.0 203.65 82.55 198.75 86.0 200.9 86.8 195.6 86.95 194.45 87.7 190.75 87.4 190.75 Q90.55 165.7 89.8 144.6 L89.25 135.4 102.45 134.75 Q103.05 155.7 108.75 178.95 M146.7 93.25 L147.15 93.25 147.95 93.6 148.05 93.65 151.9 95.5 Q153.7 96.25 155.4 96.6 L157.15 96.8 159.85 96.55 Q160.6 96.35 161.85 95.55 165.9 92.9 170.3 90.8 165.55 98.05 162.75 100.45 159.35 103.3 155.15 103.85 153.1 104.15 150.85 103.85 150.65 102.6 149.7 100.5 L148.8 98.55 148.35 97.65 148.3 97.5 147.2 94.9 146.85 93.7 146.7 93.25 M54.35 106.9 L54.6 107.1 56.05 107.2 57.45 107.25 57.75 107.25 56.4 108.5 55.75 109.15 52.55 106.9 54.35 106.9 M49.1 116.0 Q49.15 115.15 49.55 113.75 50.15 111.75 50.95 111.75 51.35 111.75 52.15 112.7 L49.1 116.0 M54.6 107.1 L56.4 108.5 54.6 107.1 M41.75 120.5 L41.95 120.55 41.95 120.8 Q38.85 120.6 38.0 119.85 37.1 119.1 36.15 117.25 L35.5 116.0 35.6 115.6 41.65 120.4 41.75 120.5 M43.95 122.35 L42.45 124.4 Q40.75 125.25 38.95 126.6 L34.9 129.8 34.75 129.95 34.7 129.95 34.5 129.9 34.7 129.6 35.2 128.85 37.15 125.65 Q39.35 122.35 42.6 122.3 L43.9 122.35 43.95 122.35 M61.3 294.45 Q56.15 302.55 51.55 302.55 L49.95 302.45 Q48.45 302.2 47.85 301.45 47.1 300.6 46.3 297.45 L48.05 297.85 48.85 297.95 51.9 297.7 56.2 296.65 61.3 294.45 M128.5 335.15 Q131.9 335.9 134.55 336.85 L134.85 336.95 134.95 337.0 136.0 337.7 136.1 337.9 136.1 338.0 135.8 339.05 134.1 339.4 130.75 339.25 Q129.5 339.3 129.35 340.35 L129.2 340.35 128.5 335.15 M25.1 308.7 L25.05 308.65 25.3 308.5 25.1 308.7" fill="#c2c6de" fill-rule="evenodd" stroke="none"/>
    <path d="M145.05 37.25 L148.4 37.55 Q163.0 38.55 168.2 47.15 L169.25 49.05 169.45 49.05 169.85 49.9 Q173.8 59.55 177.4 80.4 L178.9 89.3 Q180.25 98.0 180.65 103.05 L181.15 103.2 181.0 99.7 Q185.05 101.9 184.9 105.6 L184.85 106.15 184.55 108.35 Q182.05 113.65 175.75 118.65 172.1 121.5 168.5 123.0 L167.15 123.5 167.2 123.65 174.15 123.0 Q178.7 122.0 182.3 119.0 L184.75 116.6 184.85 117.9 Q183.6 122.45 183.4 126.2 L183.55 127.05 Q184.95 134.85 184.65 143.65 L184.35 148.85 184.3 149.4 183.1 149.35 Q177.2 167.9 140.8 175.1 126.95 177.85 108.75 178.95 103.05 155.7 102.45 134.75 102.35 134.45 102.4 131.45 102.4 128.8 102.55 126.3 L102.7 124.25 102.85 122.9 102.9 121.85 103.05 120.45 104.1 113.15 104.85 109.35 Q105.35 106.7 106.0 104.15 L107.2 99.9 107.45 99.0 108.05 97.2 108.35 96.2 108.5 95.85 109.8 92.25 Q110.55 90.2 111.45 88.25 L113.55 83.7 113.6 83.65 114.95 81.0 Q117.4 82.3 119.75 85.3 123.3 89.7 126.35 91.9 132.2 96.15 137.75 102.4 L140.95 106.15 142.25 107.8 143.35 109.3 144.2 110.45 Q149.15 117.2 159.3 124.35 167.5 130.15 173.4 132.1 L168.7 128.1 161.0 122.3 163.0 121.05 Q164.2 120.0 166.6 118.75 L170.35 116.6 Q172.75 114.9 174.05 112.4 L171.0 113.95 159.9 113.6 156.85 113.55 154.9 113.3 Q150.8 112.2 149.25 106.8 L148.7 104.5 148.85 103.45 148.9 103.2 Q149.05 102.3 149.7 100.5 150.65 102.6 150.85 103.85 153.1 104.15 155.15 103.85 159.35 103.3 162.75 100.45 165.55 98.05 170.3 90.8 165.9 92.9 161.85 95.55 160.6 96.35 159.85 96.55 L157.15 96.8 155.4 96.6 Q153.7 96.25 151.9 95.5 L148.05 93.65 147.95 93.6 147.15 93.25 146.7 93.25 146.55 92.8 Q146.35 92.35 146.7 91.35 146.35 92.35 146.55 92.8 L146.7 93.25 146.6 96.65 146.55 97.45 145.8 101.2 145.7 101.5 Q145.55 101.7 145.25 97.9 L145.5 102.05 144.3 104.7 143.35 106.35 141.85 104.5 Q144.45 99.45 144.9 93.9 L145.0 89.5 Q143.5 96.65 139.1 101.1 L133.55 94.7 135.05 93.35 Q140.35 88.15 140.35 81.25 140.35 76.6 136.25 74.05 L132.85 72.3 131.45 71.6 130.15 70.75 130.15 70.7 130.25 70.55 131.4 68.1 Q135.6 55.65 139.3 49.7 142.4 44.6 145.05 37.25 M141.1 75.9 L143.75 82.55 Q144.85 85.6 145.0 89.5 144.85 85.6 143.75 82.55 L141.1 75.9 M28.25 326.55 L27.7 326.5 25.2 326.85 22.2 327.2 Q17.7 327.2 15.4 324.3 13.95 322.5 13.4 319.6 L13.35 319.4 13.6 316.5 Q13.75 314.95 14.05 313.45 15.9 308.35 19.35 304.25 22.75 300.1 26.55 297.25 L26.65 297.35 35.75 289.25 43.9 280.9 46.9 277.35 Q54.3 270.8 60.95 258.8 67.55 246.7 74.15 225.45 77.35 215.1 79.0 205.8 77.9 219.9 72.7 236.95 66.1 258.15 59.5 270.25 54.75 278.75 49.7 284.55 L45.45 288.8 45.15 289.15 42.45 292.35 41.25 293.65 41.65 294.0 Q40.2 296.8 36.05 302.4 31.7 308.25 30.1 311.2 27.3 316.2 27.3 320.2 27.3 322.5 27.9 324.65 L28.25 326.55 M32.65 131.55 L32.5 131.2 Q31.3 126.7 33.1 122.25 L34.7 118.4 35.5 116.0 36.15 117.25 Q37.1 119.1 38.0 119.85 38.85 120.6 41.95 120.8 L41.95 120.55 42.9 120.85 43.85 121.2 44.55 121.5 43.95 122.35 43.9 122.35 42.6 122.3 Q39.35 122.35 37.15 125.65 L35.2 128.85 34.7 129.6 34.5 129.9 34.7 129.95 34.75 129.95 34.7 129.95 34.05 130.5 32.65 131.55 M35.05 106.1 L35.15 105.9 36.6 103.45 36.75 103.6 Q36.45 109.05 35.85 110.95 37.95 113.7 41.65 116.65 L43.8 118.25 46.0 119.65 45.15 120.7 43.85 119.9 Q34.4 113.85 34.35 110.35 34.3 109.9 34.75 108.6 35.15 107.2 35.15 106.1 L35.05 106.1 M36.95 98.2 L36.9 96.95 36.9 96.05 40.4 101.05 43.5 104.4 Q44.65 105.4 45.7 105.85 L46.4 106.6 46.15 106.05 Q45.55 104.55 45.1 102.9 44.25 100.0 43.35 98.3 L42.95 97.65 Q41.85 95.9 41.1 93.4 L42.15 87.8 47.75 61.3 Q48.65 57.75 49.3 55.8 L49.6 55.05 49.65 55.05 Q50.4 53.2 52.4 50.15 L54.05 47.8 Q55.6 45.75 57.05 44.7 59.2 43.0 62.75 41.7 L71.7 37.75 72.65 37.3 71.55 44.3 Q70.6 50.55 70.65 51.75 L70.35 59.1 67.8 62.15 Q65.55 64.65 63.75 66.0 L59.05 68.75 58.65 68.9 58.6 68.8 58.25 69.0 57.9 69.15 58.0 69.25 57.95 69.25 57.65 69.5 Q54.35 72.35 52.3 74.5 50.15 76.7 47.65 80.8 45.85 83.75 45.4 86.2 L46.0 87.1 Q47.1 88.55 48.8 89.15 53.1 90.6 57.1 90.9 L61.25 91.15 67.8 90.6 70.45 89.9 Q70.75 93.35 71.2 96.3 63.75 101.75 57.75 107.25 L57.45 107.25 56.05 107.2 54.6 107.1 54.35 106.9 Q52.25 105.15 50.65 103.15 45.2 96.5 45.2 87.9 L45.4 86.2 45.2 87.9 Q45.2 96.5 50.65 103.15 52.25 105.15 54.35 106.9 L52.55 106.9 55.75 109.15 54.05 110.75 Q53.25 109.0 51.85 109.05 49.65 109.1 48.05 111.2 46.5 113.2 46.6 115.55 46.6 116.95 47.35 118.0 L46.8 118.65 45.65 117.3 43.7 114.2 41.8 111.05 Q40.9 109.4 39.6 104.9 38.35 100.35 36.95 98.2 M181.2 104.1 L181.15 103.2 181.2 104.1 M174.95 133.85 Q174.55 133.2 173.4 132.1 174.55 133.2 174.95 133.85 M174.6 112.15 L174.05 112.4 174.6 112.15 M138.1 177.65 L141.4 177.1 144.6 176.5 Q152.1 197.6 153.75 214.65 L153.8 214.8 153.95 214.6 154.15 215.9 155.8 225.75 156.2 240.9 155.25 301.35 Q155.2 318.25 155.55 322.7 156.25 331.85 158.9 339.85 L157.6 339.8 Q155.85 339.8 154.6 340.55 152.6 341.7 149.85 342.55 L149.75 342.55 148.65 342.85 Q147.3 341.95 144.45 337.4 141.55 332.85 140.15 322.45 138.75 312.05 136.95 301.75 135.15 291.45 134.2 281.5 133.25 271.5 131.75 263.9 L131.75 293.95 Q132.75 310.65 132.7 315.95 132.6 321.0 133.9 327.95 L136.0 337.7 134.95 337.0 134.95 336.95 134.85 336.95 134.55 336.85 Q131.9 335.9 128.5 335.15 L122.65 334.0 Q118.8 317.3 117.95 290.55 117.65 281.65 117.55 265.35 L117.4 249.4 Q116.9 255.05 114.9 262.85 L111.25 275.7 107.25 288.9 Q105.55 294.6 101.3 303.15 L95.2 314.95 Q93.5 318.45 88.0 321.75 85.2 320.35 82.55 320.05 79.65 319.75 77.6 318.1 L76.05 316.5 Q82.75 314.35 87.35 307.95 89.1 305.4 91.3 301.15 93.7 296.35 94.4 295.3 98.4 288.9 99.45 282.4 L99.8 278.95 93.65 291.8 Q91.0 296.6 84.25 302.85 77.45 309.05 69.05 309.05 L68.7 309.05 Q64.85 308.95 60.35 306.9 L58.8 306.2 Q55.45 304.7 53.1 303.75 64.4 300.3 72.0 292.55 80.1 284.2 84.45 270.4 88.1 258.6 89.45 241.3 90.35 229.15 90.4 207.95 L90.15 201.9 93.7 185.85 Q96.15 173.95 98.5 166.25 L98.6 167.6 Q99.4 178.6 101.0 183.45 103.4 190.65 108.75 190.65 114.25 190.65 127.4 184.15 134.2 180.75 138.1 177.65 M170.2 110.65 Q164.9 110.15 159.9 113.6 164.9 110.15 170.2 110.65 M105.7 98.9 L105.9 99.0 105.6 99.0 105.7 98.9 M156.3 66.85 L155.0 68.6 153.25 72.05 155.0 68.6 156.3 66.85 M146.7 91.35 L147.5 89.35 149.55 83.95 Q150.85 80.4 151.45 77.5 152.05 74.7 153.25 72.05 151.15 74.05 150.2 76.4 L146.6 83.3 145.9 84.55 146.15 85.75 Q146.65 87.75 146.7 91.35 M46.9 107.0 L46.4 106.6 46.9 107.0 M59.45 55.75 L59.65 59.2 59.7 60.1 Q59.9 64.0 58.75 67.4 L58.5 68.0 Q58.4 68.2 58.45 68.6 L58.25 69.0 58.45 68.6 Q58.4 68.2 58.5 68.0 L58.75 67.4 Q59.9 64.0 59.7 60.1 L59.65 59.2 59.45 55.75 M80.15 93.9 L81.1 96.3 Q80.8 96.85 80.8 97.35 80.8 97.8 81.15 98.9 L81.3 99.45 82.0 101.55 81.45 102.75 80.85 103.8 79.75 106.0 79.65 106.55 81.0 109.75 Q81.0 110.9 80.4 111.85 L79.4 113.3 85.8 114.55 86.3 114.65 87.15 119.2 87.2 119.35 87.85 123.2 88.0 124.45 88.3 126.6 88.8 130.9 89.25 135.4 89.8 144.6 Q90.55 165.7 87.4 190.75 L86.95 194.45 87.4 190.75 87.7 190.75 86.95 194.45 86.8 195.6 Q38.05 172.45 36.3 131.6 L39.4 128.35 40.55 127.35 40.9 127.05 Q41.85 126.3 43.95 124.85 L45.6 123.7 46.35 123.15 46.2 123.15 Q59.75 105.35 80.15 93.9 M35.15 105.9 L35.15 106.1 35.15 105.9 M59.9 182.05 Q68.5 189.45 78.25 195.95 77.1 209.55 73.7 221.9 L72.95 224.65 Q68.25 240.3 60.15 252.35 50.85 266.25 37.8 274.3 L34.0 276.5 Q36.85 274.2 38.95 271.7 44.35 265.2 47.9 254.5 51.95 241.95 53.35 220.85 L53.4 219.55 53.5 219.8 53.5 219.55 Q53.4 203.25 59.9 182.05 M152.5 122.95 L152.55 122.95 152.5 122.95 M102.95 271.95 L99.8 278.95 102.95 271.95 M131.75 253.35 L131.75 263.9 131.75 253.35 M24.85 308.95 L25.15 308.85 25.2 308.8 25.4 308.6 34.3 300.75 41.25 293.65 34.3 300.75 25.4 308.6 25.2 308.8 25.15 308.85 24.85 308.95 M25.1 308.7 L25.3 308.5 25.05 308.65 25.1 308.7" fill="#e3e7f0" fill-rule="evenodd" stroke="none"/>
    <path d="M131.4 68.1 L130.25 70.55 127.6 68.55 131.4 68.1 M182.15 474.65 L177.05 474.65 174.85 472.6 Q165.0 463.35 160.3 455.15 152.95 442.25 150.6 436.3 148.3 430.55 146.05 419.45 144.85 413.8 142.7 406.55 L138.6 393.25 136.15 385.0 135.8 380.95 135.8 380.55 135.3 380.55 135.35 382.1 135.6 389.75 135.8 404.05 Q135.75 411.15 137.45 415.1 L138.8 418.7 Q139.55 421.2 139.9 425.0 141.4 442.1 148.9 459.05 151.2 464.3 155.7 472.9 L156.55 474.65 142.3 474.65 Q130.2 456.55 124.1 427.1 120.45 409.8 113.45 388.4 L108.6 374.5 108.75 378.15 108.25 378.05 108.2 380.05 Q108.2 396.05 109.2 404.4 110.7 417.9 111.3 428.6 112.95 459.0 115.65 474.65 L102.7 474.65 Q99.55 466.0 97.55 453.95 95.25 440.0 91.7 421.75 88.15 403.45 86.05 389.6 L83.5 375.05 81.4 408.45 79.05 444.55 77.4 464.45 Q76.8 469.65 74.05 474.65 L57.55 474.65 58.6 455.85 Q59.9 434.0 62.75 420.45 67.8 396.25 67.85 360.35 L67.7 348.75 67.75 348.0 68.25 342.45 67.75 348.0 67.7 348.75 67.5 348.7 Q66.1 352.4 65.05 356.0 62.9 362.95 61.1 372.45 L57.85 388.95 Q55.6 399.05 52.05 409.2 49.6 416.1 47.05 427.85 44.05 441.35 42.65 446.3 39.6 456.5 35.0 464.35 31.8 469.75 27.5 474.65 L22.05 474.65 Q37.25 421.9 43.55 395.7 55.45 346.0 54.75 321.85 L54.6 321.85 Q52.95 337.3 49.05 352.95 L44.6 368.9 Q43.15 365.9 42.7 363.4 42.25 361.3 42.25 358.5 L42.3 353.0 Q42.3 342.5 44.35 329.55 46.4 316.6 46.4 305.25 46.4 302.05 46.0 297.5 L46.3 297.45 Q47.1 300.6 47.85 301.45 48.45 302.2 49.95 302.45 L49.95 302.6 51.3 303.1 51.35 303.1 53.1 303.75 Q55.45 304.7 58.8 306.2 L48.45 306.5 Q49.45 311.55 54.25 315.2 59.35 319.05 65.8 318.7 67.75 318.65 71.15 320.75 75.35 323.3 78.05 327.45 79.25 329.25 83.15 330.4 L88.3 331.55 Q89.5 331.85 99.35 336.25 108.15 340.1 112.8 340.75 114.9 341.0 119.1 340.8 123.05 340.6 124.6 340.85 127.1 341.25 127.9 343.1 128.85 345.25 127.65 349.9 L143.95 349.9 150.1 347.3 150.95 346.9 152.6 352.85 Q154.7 362.0 154.2 370.9 153.55 380.55 155.05 388.6 155.8 392.65 159.8 407.15 167.95 436.55 172.85 450.85 177.15 463.35 182.15 474.65 M36.6 103.45 L36.6 103.4 36.75 103.6 36.6 103.45 M107.7 84.2 L111.15 83.65 113.55 83.65 113.55 83.7 111.45 88.25 107.7 84.2 111.45 88.25 Q110.55 90.2 109.8 92.25 L108.5 95.85 108.35 96.2 107.55 97.05 108.05 97.2 107.45 99.0 107.2 99.9 105.9 99.0 107.2 99.9 106.0 104.15 97.4 101.6 106.0 104.15 Q105.35 106.7 104.85 109.35 100.45 109.65 94.0 106.8 100.45 109.65 104.85 109.35 L104.1 113.15 103.05 120.45 102.3 121.1 Q100.8 119.3 96.75 117.7 L95.75 117.3 Q91.95 115.9 86.3 114.65 91.95 115.9 95.75 117.3 L96.75 117.7 Q100.8 119.3 102.3 121.1 L102.85 122.05 102.9 121.85 102.85 122.9 102.7 124.25 102.55 126.3 Q102.4 128.8 102.4 131.45 102.35 134.45 102.45 134.75 L89.25 135.4 88.8 130.9 88.3 126.6 88.0 124.45 87.85 123.2 87.2 119.35 87.15 119.2 86.3 114.65 86.15 114.4 88.2 113.0 90.2 111.25 Q96.25 113.0 104.1 113.15 96.25 113.0 90.2 111.25 L94.0 106.8 97.0 102.2 97.4 101.6 99.9 96.5 100.2 95.8 102.05 91.75 108.5 95.85 102.05 91.75 102.9 90.15 103.95 87.6 104.35 86.05 Q105.1 84.85 107.7 84.2 M88.4 78.55 L88.5 78.55 88.45 78.65 88.05 79.35 87.25 81.15 86.5 80.25 88.0 78.55 86.5 80.25 83.7 83.9 Q81.0 87.75 79.35 91.9 L78.9 90.9 Q74.85 93.6 71.2 96.3 70.75 93.35 70.45 89.9 76.95 87.7 81.7 81.75 L84.55 77.5 Q86.3 78.35 88.0 78.55 L88.4 78.55 88.45 78.65 88.4 78.55 M83.1 88.3 L83.0 88.55 82.95 88.25 83.1 88.3 M105.7 98.9 Q103.4 97.4 100.2 95.8 103.4 97.4 105.7 98.9 L105.6 99.0 105.9 99.0 105.7 98.9 M109.8 92.25 L103.95 87.6 109.8 92.25 M102.3 121.1 Q100.55 123.35 95.2 123.5 L87.85 123.2 95.2 123.5 Q100.55 123.35 102.3 121.1 M87.2 119.35 Q90.2 118.9 95.75 117.3 90.2 118.9 87.2 119.35 M88.3 126.6 Q93.5 129.1 102.55 126.3 93.5 129.1 88.3 126.6 M88.8 130.9 L102.4 131.45 88.8 130.9 M108.4 370.05 L108.6 374.5 108.4 370.05 M134.55 362.0 L135.8 380.55 134.55 362.0" fill="#cccccc" fill-rule="evenodd" stroke="none"/>
    <path d="M145.95 34.6 L145.05 37.25 Q142.4 44.6 139.3 49.7 135.6 55.65 131.4 68.1 L127.6 68.55 127.15 68.65 127.1 68.2 127.1 68.15 Q126.9 66.15 127.0 63.8 127.05 61.1 128.3 58.7 129.5 56.3 131.7 52.8 133.9 49.25 133.95 48.45 134.0 47.55 133.4 46.5 132.75 45.45 131.9 45.0 L131.9 44.75 131.75 44.75 124.2 44.8 117.4 44.35 108.55 44.05 104.3 44.3 Q103.7 43.95 103.15 43.95 L103.05 43.95 99.95 44.35 96.6 45.4 96.6 45.25 96.15 45.25 102.9 41.3 Q107.65 38.35 110.05 35.65 112.4 33.0 115.0 27.85 117.65 22.7 117.95 9.65 107.45 22.75 102.95 20.85 98.85 19.1 92.1 10.85 L90.6 9.0 90.55 8.95 90.05 6.6 121.0 0.65 Q121.05 4.8 121.6 14.75 123.55 23.7 130.35 28.95 135.65 33.1 145.95 34.6 M84.55 77.5 L86.4 73.3 87.5 69.5 87.8 67.5 87.85 66.0 88.05 66.0 Q88.3 67.35 88.7 68.6 L89.9 71.25 91.05 72.65 90.65 74.45 90.5 74.9 Q88.9 71.75 87.5 69.5 88.9 71.75 90.5 74.9 L90.8 75.5 90.4 75.25 90.8 75.5 89.6 76.85 89.9 76.3 90.4 75.25 89.9 76.3 89.6 76.85 89.45 77.0 89.6 76.85 89.5 77.05 89.35 77.2 88.75 78.0 88.6 78.3 89.15 78.55 88.5 78.55 88.4 78.55 88.25 78.25 89.45 77.0 88.25 78.25 88.4 78.55 88.0 78.55 Q86.3 78.35 84.55 77.5 M88.7 68.6 L87.8 67.5 88.7 68.6 M90.4 75.25 L90.5 74.9 90.4 75.25 Q87.9 73.45 86.5 74.6 L89.15 76.7 89.45 77.0 89.5 77.05 89.45 77.0 89.15 76.7 86.5 74.6 Q87.9 73.45 90.4 75.25 M88.75 78.0 L88.5 78.25 88.6 78.3 88.5 78.55 88.6 78.3 88.5 78.25 88.75 78.0 M88.0 78.55 L88.25 78.25 88.0 78.55" fill="#ffe2d5" fill-rule="evenodd" stroke="none"/>
    <path d="M90.6 9.05 L90.55 8.95 90.6 9.0 90.6 9.05 M131.9 44.75 L131.9 45.0 Q132.75 45.45 133.4 46.5 134.0 47.55 133.95 48.45 133.9 49.25 131.7 52.8 129.5 56.3 128.3 58.7 127.05 61.1 127.0 63.8 126.9 66.15 127.1 68.15 L127.1 68.2 127.15 68.65 121.15 69.45 Q113.15 70.55 110.7 71.6 L109.2 72.15 Q104.9 66.85 101.0 64.85 98.6 63.6 96.3 63.6 L96.15 64.3 95.75 66.05 Q94.3 65.4 91.45 64.1 88.55 62.75 86.65 62.75 85.65 62.7 85.15 63.3 L84.95 63.3 84.35 63.3 86.35 65.75 85.4 65.55 84.55 65.65 Q85.95 67.1 87.5 69.5 85.95 67.1 84.55 65.65 L85.4 65.55 86.35 65.75 84.35 63.3 84.95 63.3 85.15 63.3 Q85.65 62.7 86.65 62.75 88.55 62.75 91.45 64.1 94.3 65.4 95.75 66.05 L94.6 69.65 94.5 69.85 94.4 70.05 Q93.75 71.35 92.45 71.8 L91.65 72.05 91.6 72.05 91.65 72.05 91.6 72.1 91.65 72.05 Q92.65 72.2 93.85 72.75 L91.05 72.65 91.1 72.25 91.15 72.0 91.6 72.05 88.7 68.6 91.6 72.05 91.15 72.0 91.1 72.25 91.05 72.65 89.9 71.25 88.7 68.6 Q88.3 67.35 88.05 66.0 L87.85 66.0 87.8 67.5 86.35 65.75 87.8 67.5 87.5 69.5 86.4 73.3 84.55 77.5 Q81.4 75.9 78.05 72.2 73.3 68.55 70.0 66.85 L70.2 62.45 70.35 59.1 70.65 51.75 Q70.6 50.55 71.55 44.3 L72.65 37.3 72.7 36.8 Q83.15 31.75 86.65 28.75 92.45 23.65 92.45 15.5 L92.1 10.85 Q98.85 19.1 102.95 20.85 107.45 22.75 117.95 9.65 117.65 22.7 115.0 27.85 112.4 33.0 110.05 35.65 107.65 38.35 102.9 41.3 L96.15 45.25 96.6 45.25 96.6 45.4 99.95 44.35 103.05 43.95 103.15 43.95 Q103.7 43.95 104.3 44.3 L108.55 44.05 117.4 44.35 124.2 44.8 131.75 44.75 131.9 44.75 M85.5 44.0 L84.15 43.5 Q75.75 40.3 74.55 38.85 75.75 40.3 84.15 43.5 L85.5 44.0 M96.65 46.15 L96.05 46.7 Q93.6 48.8 92.4 46.2 93.6 48.8 96.05 46.7 L96.65 46.15 M85.15 63.3 L90.2 66.45 Q93.05 68.2 94.6 69.65 93.05 68.2 90.2 66.45 L85.15 63.3 M91.6 72.1 L91.6 72.05 91.6 72.1 91.1 72.25 91.6 72.1" fill="#fff2ee" fill-rule="evenodd" stroke="none"/>
    <path d="M186.8 149.5 L186.65 149.85 Q184.65 154.65 181.55 158.05 175.15 165.05 164.9 170.15 157.95 173.55 148.95 175.55 153.9 190.35 158.25 209.6 L153.95 214.6 153.75 214.65 Q152.1 197.6 144.6 176.5 L141.4 177.1 138.1 177.65 136.1 177.95 116.25 181.05 109.65 182.55 108.75 178.95 Q126.95 177.85 140.8 175.1 177.2 167.9 183.1 149.35 L184.3 149.4 186.8 149.5 M50.55 213.35 Q52.0 195.85 57.4 179.85 L59.9 182.05 Q53.4 203.25 53.5 219.55 L53.4 219.55 50.55 213.35 M73.1 34.25 L79.7 30.9 Q83.6 28.75 86.95 25.8 90.3 22.8 90.8 18.75 91.2 15.75 90.85 11.45 L90.6 9.3 90.6 9.1 90.6 9.05 90.6 9.0 92.1 10.85 92.45 15.5 Q92.45 23.65 86.65 28.75 83.15 31.75 72.7 36.8 L73.1 34.25 M148.95 175.55 L144.6 176.5 148.95 175.55 M90.6 9.3 L90.6 9.05 90.6 9.3 M95.75 66.05 L96.15 64.3 96.3 63.6 Q98.6 63.6 101.0 64.85 104.9 66.85 109.2 72.15 L110.55 73.9 106.65 72.25 Q100.2 69.15 98.05 69.15 97.1 69.15 94.75 73.2 L93.85 72.75 94.75 73.2 94.1 74.35 Q92.6 77.05 90.85 79.35 L89.15 78.55 90.85 79.35 87.0 83.55 86.85 82.65 87.25 81.15 88.05 79.35 88.45 78.65 88.5 78.55 89.15 78.55 88.6 78.3 88.75 78.0 89.35 77.2 89.5 77.05 89.6 76.85 90.8 75.5 90.5 74.9 90.65 74.45 91.05 72.65 93.85 72.75 Q92.65 72.2 91.65 72.05 L92.45 71.8 Q93.75 71.35 94.4 70.05 L94.5 69.85 94.6 69.65 95.75 66.05 M145.7 101.5 L145.5 102.05 145.25 97.9 Q145.55 101.7 145.7 101.5" fill="#ffffff" fill-rule="evenodd" stroke="none"/>
    <path d="M130.25 70.55 L130.15 70.7 130.15 70.75 Q127.8 75.15 124.7 78.7 L120.9 82.9 Q119.85 82.15 118.85 81.55 117.25 77.45 114.35 76.25 L112.15 76.1 115.1 80.7 114.95 81.0 113.6 83.65 113.55 83.7 113.55 83.65 111.15 83.65 107.7 84.2 101.0 77.75 98.95 76.05 96.7 74.4 94.75 73.2 96.7 74.4 98.95 76.05 101.0 77.75 107.7 84.2 Q105.1 84.85 104.35 86.05 L103.95 87.6 98.7 83.9 95.6 81.95 90.85 79.35 95.6 81.95 98.7 83.9 103.95 87.6 102.9 90.15 102.05 91.75 100.2 95.8 Q95.95 93.6 90.1 91.15 L86.95 89.8 83.1 88.3 Q83.4 87.2 84.65 86.55 87.25 85.15 87.25 84.5 L87.1 83.9 87.0 83.55 87.1 83.9 87.25 84.5 Q87.25 85.15 84.65 86.55 83.4 87.2 83.1 88.3 L86.95 89.8 90.1 91.15 Q95.95 93.6 100.2 95.8 L99.9 96.5 97.4 101.6 90.85 99.0 Q86.8 97.15 84.1 95.15 L81.95 93.35 84.1 95.15 Q86.8 97.15 90.85 99.0 L97.4 101.6 97.0 102.2 94.0 106.8 Q89.25 104.65 83.35 100.8 L82.45 100.2 81.3 99.45 82.45 100.2 83.35 100.8 Q89.25 104.65 94.0 106.8 L90.2 111.25 88.2 113.0 86.15 114.4 86.3 114.65 85.8 114.55 79.4 113.3 80.4 111.85 Q81.0 110.9 81.0 109.75 L79.65 106.55 79.75 106.0 Q82.15 107.9 85.05 109.3 87.45 110.45 90.2 111.25 87.45 110.45 85.05 109.3 82.15 107.9 79.75 106.0 L80.85 103.8 81.45 102.75 82.0 101.55 81.3 99.45 81.15 98.9 Q80.8 97.8 80.8 97.35 80.8 96.85 81.1 96.3 L81.3 95.85 81.75 94.3 81.8 93.5 81.95 93.35 81.9 93.3 81.8 93.5 81.75 94.3 81.3 95.85 81.1 96.3 80.15 93.9 79.35 91.9 Q81.0 87.75 83.7 83.9 L86.5 80.25 87.25 81.15 86.85 82.65 87.0 83.55 90.85 79.35 Q92.6 77.05 94.1 74.35 L94.75 73.2 Q97.1 69.15 98.05 69.15 100.2 69.15 106.65 72.25 L110.55 73.9 109.2 72.15 110.7 71.6 Q113.15 70.55 121.15 69.45 L127.15 68.65 127.6 68.55 130.25 70.55 M160.7 350.45 L161.0 360.05 Q161.35 373.55 162.85 381.5 163.85 387.15 166.75 400.5 168.95 410.4 169.8 416.8 170.85 424.35 173.85 434.75 176.35 443.5 178.55 448.85 L181.85 457.2 Q184.5 463.7 186.8 468.5 L189.95 474.65 182.15 474.65 Q177.15 463.35 172.85 450.85 167.95 436.55 159.8 407.15 155.8 392.65 155.05 388.6 153.55 380.55 154.2 370.9 154.7 362.0 152.6 352.85 L150.95 346.9 Q155.7 344.8 156.0 344.8 157.55 344.8 158.4 345.7 L159.55 347.95 160.7 350.45 M166.3 474.65 L156.55 474.65 155.7 472.9 Q151.2 464.3 148.9 459.05 141.4 442.1 139.9 425.0 139.55 421.2 138.8 418.7 L137.45 415.1 Q135.75 411.15 135.8 404.05 L135.6 389.75 135.35 382.1 135.3 380.55 135.8 380.55 135.8 380.95 136.15 385.0 Q138.7 411.55 148.55 438.5 156.55 460.4 166.3 474.65 M128.25 474.65 L115.65 474.65 Q112.95 459.0 111.3 428.6 110.7 417.9 109.2 404.4 108.2 396.05 108.2 380.05 L108.25 378.05 108.75 378.15 Q113.25 411.95 118.5 436.65 122.35 454.65 128.25 474.65 M57.55 474.65 L38.3 474.65 41.35 468.75 42.85 464.6 44.95 457.45 46.95 450.3 Q49.15 444.0 50.9 437.2 L54.3 423.05 Q60.8 395.9 62.6 386.5 65.75 369.75 67.7 348.75 L67.85 360.35 Q67.8 396.25 62.75 420.45 59.9 434.0 58.6 455.85 L57.55 474.65 M22.05 474.65 L9.0 474.65 Q20.55 438.1 28.1 416.8 L39.9 383.35 40.0 383.1 39.65 383.15 Q38.6 376.95 38.65 356.2 38.65 345.3 39.6 333.55 L40.25 326.6 Q41.7 312.85 45.25 290.15 L45.45 288.8 49.7 284.55 49.65 285.7 49.6 290.55 Q49.45 295.25 48.05 297.85 L46.3 297.45 46.0 297.5 Q46.4 302.05 46.4 305.25 46.4 316.6 44.35 329.55 42.3 342.5 42.3 353.0 L42.25 358.5 Q42.25 361.3 42.7 363.4 43.15 365.9 44.6 368.9 L49.05 352.95 Q52.95 337.3 54.6 321.85 L54.75 321.85 Q55.45 346.0 43.55 395.7 37.25 421.9 22.05 474.65 M70.0 66.85 Q73.3 68.55 78.05 72.2 81.4 75.9 84.55 77.5 L81.7 81.75 Q76.95 87.7 70.45 89.9 69.75 82.05 69.8 71.75 L70.0 66.85 M98.45 69.75 L101.0 71.65 104.1 74.0 Q114.1 81.65 113.6 83.65 114.1 81.65 104.1 74.0 L101.0 71.65 98.45 69.75 M88.75 85.3 Q92.25 86.3 97.2 89.0 L102.05 91.75 97.2 89.0 Q92.25 86.3 88.75 85.3 M83.0 88.55 L83.1 88.3 82.95 88.25 83.0 88.55 83.05 88.85 Q83.15 90.8 81.9 93.3 83.15 90.8 83.05 88.85 L83.0 88.55 M110.55 73.9 L112.15 76.1 110.55 73.9 M44.6 368.9 L40.0 383.1 44.6 368.9 M129.2 340.35 L129.35 340.35 129.2 340.35" fill="#e1e1e1" fill-rule="evenodd" stroke="none"/>
    <path d="M160.6 347.5 L160.7 350.45 159.55 347.95 158.4 345.7 Q157.55 344.8 156.0 344.8 155.7 344.8 150.95 346.9 L150.1 347.3 143.95 349.9 127.65 349.9 Q128.85 345.25 127.9 343.1 127.1 341.25 124.6 340.85 123.05 340.6 119.1 340.8 114.9 341.0 112.8 340.75 108.15 340.1 99.35 336.25 89.5 331.85 88.3 331.55 L83.15 330.4 Q79.25 329.25 78.05 327.45 75.35 323.3 71.15 320.75 67.75 318.65 65.8 318.7 59.35 319.05 54.25 315.2 49.45 311.55 48.45 306.5 L58.8 306.2 60.35 306.9 Q64.85 308.95 68.7 309.05 L69.0 309.15 Q70.55 309.7 71.8 311.0 72.65 311.8 74.55 314.55 L76.05 316.5 77.6 318.1 Q79.65 319.75 82.55 320.05 85.2 320.35 88.0 321.75 89.75 322.6 91.55 323.9 95.25 326.6 97.6 329.85 99.0 331.8 106.7 332.5 L119.2 333.5 122.65 334.0 128.5 335.15 129.2 340.35 129.35 340.35 129.3 340.7 Q129.3 343.65 139.3 343.75 L144.2 343.45 148.65 342.85 149.75 342.55 149.85 342.55 Q152.6 341.7 154.6 340.55 155.85 339.8 157.6 339.8 L158.9 339.85 160.25 340.05 160.6 347.5 M177.05 474.65 L166.3 474.65 Q156.55 460.4 148.55 438.5 138.7 411.55 136.15 385.0 L138.6 393.25 142.7 406.55 Q144.85 413.8 146.05 419.45 148.3 430.55 150.6 436.3 152.95 442.25 160.3 455.15 165.0 463.35 174.85 472.6 L177.05 474.65 M142.3 474.65 L128.25 474.65 Q122.35 454.65 118.5 436.65 113.25 411.95 108.75 378.15 L108.6 374.5 113.45 388.4 Q120.45 409.8 124.1 427.1 130.2 456.55 142.3 474.65 M102.7 474.65 L74.05 474.65 Q76.8 469.65 77.4 464.45 L79.05 444.55 81.4 408.45 83.5 375.05 86.05 389.6 Q88.15 403.45 91.7 421.75 95.25 440.0 97.55 453.95 99.55 466.0 102.7 474.65 M38.3 474.65 L27.5 474.65 Q31.8 469.75 35.0 464.35 39.6 456.5 42.65 446.3 44.05 441.35 47.05 427.85 49.6 416.1 52.05 409.2 55.6 399.05 57.85 388.95 L61.1 372.45 Q62.9 362.95 65.05 356.0 66.1 352.4 67.5 348.7 L67.7 348.75 Q65.75 369.75 62.6 386.5 60.8 395.9 54.3 423.05 L50.9 437.2 Q49.15 444.0 46.95 450.3 L44.95 457.45 42.85 464.6 41.35 468.75 38.3 474.65 M83.0 203.65 L83.05 206.3 Q83.05 222.9 81.1 235.2 79.4 245.4 74.95 260.5 71.2 273.45 67.0 283.2 64.05 290.05 61.3 294.45 L56.2 296.65 51.9 297.7 48.85 297.95 48.05 297.85 Q49.45 295.25 49.6 290.55 L49.65 285.7 49.7 284.55 Q54.75 278.75 59.5 270.25 66.1 258.15 72.7 236.95 77.9 219.9 79.0 205.8 L79.25 198.9 79.15 196.55 82.55 198.75 83.0 203.65" fill="#bfbfbf" fill-rule="evenodd" stroke="none"/>
    <path d="M69.05 309.05 Q77.45 309.05 84.25 302.85 91.0 296.6 93.65 291.8 L99.8 278.95 99.45 282.4 Q98.4 288.9 94.4 295.3 93.7 296.35 91.3 301.15 89.1 305.4 87.35 307.95 82.75 314.35 76.05 316.5 L74.55 314.55 Q72.65 311.8 71.8 311.0 70.55 309.7 69.0 309.15 L69.05 309.05 M136.0 337.7 L133.9 327.95 Q132.6 321.0 132.7 315.95 132.75 310.65 131.75 293.95 L131.75 263.9 Q133.25 271.5 134.2 281.5 135.15 291.45 136.95 301.75 138.75 312.05 140.15 322.45 141.55 332.85 144.45 337.4 147.3 341.95 148.65 342.85 L144.2 343.45 139.3 343.75 Q129.3 343.65 129.3 340.7 L129.35 340.35 Q129.5 339.3 130.75 339.25 L134.1 339.4 135.8 339.05 136.1 338.0 136.1 337.9 136.0 337.7" fill="#a2a6ce" fill-rule="evenodd" stroke="none"/>
    <path d="M181.15 103.2 L181.0 99.7 180.45 89.15 Q179.4 70.6 178.1 63.05 176.85 55.7 174.05 49.15 M173.9 49.15 L171.55 44.8 Q166.3 36.2 151.7 35.2 L145.95 34.6 145.05 37.25 Q142.4 44.6 139.3 49.7 135.6 55.65 131.4 68.1 L130.25 70.55 130.15 70.7 130.15 70.75 M145.0 89.5 Q144.85 85.6 143.75 82.55 L141.1 75.9 M184.75 116.6 L184.6 114.55 Q184.4 110.8 184.55 108.35 L184.85 106.15 184.9 105.6 Q185.05 101.9 181.0 99.7 M184.75 116.6 L184.85 117.9 Q185.25 122.45 186.3 128.1 187.75 135.9 187.4 144.65 L187.2 148.55 187.15 149.5 M186.8 149.5 L186.65 149.85 Q184.65 154.65 181.55 158.05 175.15 165.05 164.9 170.15 157.95 173.55 148.95 175.55 M158.25 209.55 L158.35 210.05 M158.6 211.5 L160.95 225.75 161.35 240.9 160.4 301.35 Q160.4 318.25 160.75 322.7 161.55 333.3 164.95 342.4 L165.65 344.15 Q165.6 345.8 164.05 346.75 162.7 347.55 160.6 347.5 L160.7 350.45 161.0 360.05 Q161.35 373.55 162.85 381.5 163.85 387.15 166.75 400.5 168.95 410.4 169.8 416.8 170.85 424.35 173.85 434.75 176.35 443.5 178.55 448.85 L181.85 457.2 Q184.5 463.7 186.8 468.5 L189.95 474.65 M9.0 474.65 Q20.55 438.1 28.1 416.8 L39.9 383.35 40.0 383.1 44.6 368.9 49.05 352.95 Q52.95 337.3 54.6 321.85 M39.65 383.15 Q38.6 376.95 38.65 356.2 38.65 345.3 39.6 333.55 37.45 333.5 35.95 332.85 34.65 332.25 33.55 331.0 L33.0 330.4 30.9 327.75 Q29.8 326.7 28.25 326.55 L27.7 326.5 25.2 326.85 22.2 327.2 Q17.7 327.2 15.4 324.3 13.95 322.5 13.4 319.6 L13.35 319.4 13.6 316.5 Q13.75 314.95 14.05 313.45 L14.75 310.75 Q15.6 307.9 15.85 302.0 16.05 296.05 15.5 292.45 7.2 292.6 0.2 297.55 L0.0 297.7 0.0 297.65 0.0 294.95 Q0.55 290.05 3.0 287.35 4.7 285.35 7.2 284.8 L7.95 284.7 9.05 284.5 Q20.75 282.4 29.3 278.75 L32.0 275.4 Q36.3 270.0 38.15 266.25 L41.85 258.3 Q43.3 254.6 44.35 249.5 L48.45 229.95 Q49.85 221.9 50.4 212.95 M50.55 213.35 Q52.0 195.85 57.4 179.85 M33.4 143.35 L33.0 140.4 32.25 134.85 31.85 132.15 32.6 131.65 32.65 131.55 32.5 131.2 Q31.65 129.7 31.45 127.7 L31.05 122.3 Q32.75 120.25 33.35 118.8 L34.5 114.5 34.35 114.3 Q32.6 112.45 32.55 111.35 32.5 110.55 34.85 106.4 L35.05 106.1 35.15 105.9 36.6 103.45 36.6 103.4 36.75 103.1 36.95 98.2 36.9 96.95 36.9 96.05 Q37.15 94.75 38.8 93.1 L39.7 89.85 40.6 85.9 40.35 87.3 M40.15 88.5 L40.7 85.7 Q45.5 62.2 46.25 59.15 47.15 55.6 47.8 53.7 L47.95 53.2 M48.0 53.25 Q48.8 51.35 50.95 48.0 L51.1 47.8 Q53.45 44.15 55.6 42.55 57.75 40.85 61.3 39.55 L70.3 35.6 73.1 34.25 79.7 30.9 Q83.6 28.75 86.95 25.8 90.3 22.8 90.8 18.75 91.2 15.75 90.85 11.45 L90.6 9.3 90.6 9.1 90.6 9.05 90.55 8.95 90.05 6.6 M121.0 0.65 L121.0 0.0 M181.15 103.2 L181.2 104.1 M174.05 112.4 L171.0 113.95 157.5 120.55 M174.05 112.4 L174.6 112.15 M186.8 149.5 L187.2 148.55 M108.75 178.95 L109.65 182.55 116.25 181.05 136.1 177.95 138.1 177.65 141.4 177.1 144.6 176.5 148.95 175.55 M150.85 103.85 Q150.65 102.6 149.7 100.5 149.05 102.3 148.9 103.2 L148.85 103.45 148.7 104.5 M127.15 68.65 L127.6 68.55 131.4 68.1 M104.3 44.3 L108.55 44.05 117.4 44.35 124.2 44.8 131.75 44.75 131.9 44.75 M145.95 34.6 Q135.65 33.1 130.35 28.95 123.55 23.7 121.6 14.75 121.05 4.8 121.0 0.65 M90.6 9.05 L90.6 9.3 M72.7 36.8 L72.65 37.3 71.55 44.3 Q70.6 50.55 70.65 51.75 L70.35 59.1 70.2 62.45 70.0 66.85 Q73.3 68.55 78.05 72.2 81.4 75.9 84.55 77.5 M87.5 69.5 Q85.95 67.1 84.55 65.65 L85.4 65.55 86.35 65.75 84.35 63.3 84.95 63.3 85.15 63.3 Q85.65 62.7 86.65 62.75 88.55 62.75 91.45 64.1 94.3 65.4 95.75 66.05 M109.2 72.15 L110.7 71.6 Q113.15 70.55 121.15 69.45 L127.15 68.65 M92.4 46.2 Q93.6 48.8 96.05 46.7 L96.65 46.15 M74.55 38.85 Q75.75 40.3 84.15 43.5 L85.5 44.0 M86.35 65.75 L87.8 67.5 88.7 68.6 91.6 72.05 91.6 72.1 M94.6 69.65 Q93.05 68.2 90.2 66.45 L85.15 63.3 M87.5 69.5 Q88.9 71.75 90.5 74.9 M90.8 75.5 L90.4 75.25 Q87.9 73.45 86.5 74.6 L89.15 76.7 89.45 77.0 M90.8 75.5 L90.5 74.9 M89.5 77.05 L89.45 77.0 M88.4 78.55 L88.5 78.55 M88.4 78.55 L88.0 78.55 Q86.3 78.35 84.55 77.5 M70.45 89.9 Q70.75 93.35 71.2 96.3 M78.9 90.9 L79.35 91.9 80.15 93.9 81.1 96.3 M89.15 78.55 L88.5 78.55 M120.9 82.9 L124.7 78.7 Q127.8 75.15 130.15 70.75 M153.25 72.05 L155.0 68.6 156.3 66.85 M146.7 91.35 L147.5 89.35 149.55 83.95 Q150.85 80.4 151.45 77.5 152.05 74.7 153.25 72.05 M146.7 91.35 Q146.35 92.35 146.55 92.8 L146.7 93.25 146.85 93.7 147.2 94.9 148.3 97.5 148.35 97.65 148.8 98.55 149.7 100.5 M141.85 104.5 Q144.45 99.45 144.9 93.9 L145.0 89.5 M46.4 106.6 L46.9 107.0 M72.7 36.8 L73.1 34.25 M39.65 97.25 L39.75 97.4 43.35 102.8 43.45 102.95 Q44.7 104.8 45.7 105.85 L46.4 106.6 M70.0 66.85 L69.8 71.75 Q69.75 82.05 70.45 89.9 M45.4 86.2 L45.2 87.9 Q45.2 96.5 50.65 103.15 52.25 105.15 54.35 106.9 L54.6 107.1 M58.25 69.0 L58.45 68.6 Q58.4 68.2 58.5 68.0 L58.75 67.4 Q59.9 64.0 59.7 60.1 L59.65 59.2 59.45 55.75 M58.25 69.0 L58.0 69.2 M58.0 69.25 L58.0 69.2 M45.4 86.2 Q45.85 83.75 47.65 80.8 50.15 76.7 52.3 74.5 54.35 72.35 57.65 69.5 M49.1 116.0 Q49.15 115.15 49.55 113.75 50.15 111.75 50.95 111.75 51.35 111.75 52.15 112.7 M56.4 108.5 L54.6 107.1 M35.6 115.6 L41.65 120.4 41.75 120.5 M34.7 129.95 L34.75 129.95 34.9 129.8 38.95 126.6 Q40.75 125.25 42.45 124.4 M36.75 103.1 L36.75 103.6 Q36.45 109.05 35.85 110.95 M35.15 106.1 L35.15 105.9 M35.6 115.6 L34.9 114.9 34.5 114.5 M34.35 114.3 L34.9 114.9 M34.7 129.95 L34.05 130.5 32.65 131.55 M86.8 195.6 L86.95 194.45 87.4 190.75 Q90.55 165.7 89.8 144.6 L89.25 135.4 88.8 130.9 88.3 126.6 88.0 124.45 87.85 123.2 87.2 119.35 87.15 119.2 86.3 114.65 M34.0 276.5 L37.8 274.3 Q50.85 266.25 60.15 252.35 68.25 240.3 72.95 224.65 L73.7 221.9 Q77.1 209.55 78.25 195.95 M144.15 107.35 L145.5 103.9 145.7 103.35 146.1 102.3 Q147.0 99.85 148.3 97.5 M152.15 118.0 L150.95 115.05 149.85 112.9 149.3 111.8 Q148.5 109.7 148.6 106.95 L148.7 104.5 M102.9 121.85 L102.85 122.9 102.7 124.25 102.55 126.3 Q102.4 128.8 102.4 131.45 102.35 134.45 102.45 134.75 103.05 155.7 108.75 178.95 M102.55 126.3 Q93.5 129.1 88.3 126.6 M53.1 303.75 Q55.45 304.7 58.8 306.2 L60.35 306.9 Q64.85 308.95 68.7 309.05 L69.05 309.05 Q77.45 309.05 84.25 302.85 91.0 296.6 93.65 291.8 L99.8 278.95 102.95 271.95 M83.0 203.65 L83.05 206.3 Q83.05 222.9 81.1 235.2 79.4 245.4 74.95 260.5 71.2 273.45 67.0 283.2 64.05 290.05 61.3 294.45 56.15 302.55 51.55 302.55 M51.3 303.1 L51.35 303.1 53.1 303.75 M82.55 198.75 L83.0 203.65 M88.0 321.75 Q89.75 322.6 91.55 323.9 95.25 326.6 97.6 329.85 99.0 331.8 106.7 332.5 L119.2 333.5 122.65 334.0 128.5 335.15 Q131.9 335.9 134.55 336.85 L134.85 336.95 134.95 336.95 134.95 337.0 136.0 337.7 133.9 327.95 Q132.6 321.0 132.7 315.95 132.75 310.65 131.75 293.95 L131.75 263.9 131.75 253.35 M79.15 196.55 L79.25 198.9 79.0 205.8 Q77.9 219.9 72.7 236.95 66.1 258.15 59.5 270.25 54.75 278.75 49.7 284.55 L45.45 288.8 45.15 289.15 42.45 292.35 41.25 293.65 34.3 300.75 25.4 308.6 25.2 308.8 25.15 308.85 24.85 308.95 M48.05 297.85 L48.85 297.95 51.9 297.7 56.2 296.65 61.3 294.45 M9.1 284.65 L7.95 284.7 M9.1 284.65 Q13.65 284.65 15.2 291.1 L15.5 292.45 M29.3 278.75 L34.0 276.5 M45.45 288.8 L45.25 290.15 Q41.7 312.85 40.25 326.6 L39.6 333.55 M88.0 321.75 Q85.2 320.35 82.55 320.05 79.65 319.75 77.6 318.1 L76.05 316.5 74.55 314.55 Q72.65 311.8 71.8 311.0 70.55 309.7 69.0 309.15 L68.7 309.05 M46.3 297.45 Q47.1 300.6 47.85 301.45 48.45 302.2 49.95 302.45 L51.55 302.55 M46.3 297.45 L48.05 297.85 M49.95 302.45 L49.95 302.6 51.3 303.1 M33.4 330.3 L33.15 328.55 Q33.0 327.0 33.1 323.85 33.25 320.7 33.85 318.1 34.45 315.55 38.25 307.7 M0.2 297.55 L0.0 297.65 M33.55 331.0 L33.4 330.3 M67.7 348.75 Q65.75 369.75 62.6 386.5 60.8 395.9 54.3 423.05 L50.9 437.2 Q49.15 444.0 46.95 450.3 L44.95 457.45 42.85 464.6 41.35 468.75 38.3 474.65 M67.7 348.75 L67.75 348.0 68.25 342.45 M129.35 340.35 Q129.5 339.3 130.75 339.25 L134.1 339.4 135.8 339.05 136.1 338.0 136.1 337.9 136.0 337.7 M129.2 340.35 L128.5 335.15 M129.35 340.35 L129.3 340.7 Q129.3 343.65 139.3 343.75 L144.2 343.45 148.65 342.85 149.75 342.55 149.85 342.55 Q152.6 341.7 154.6 340.55 155.85 339.8 157.6 339.8 L158.9 339.85 160.25 340.05 Q162.0 340.35 163.4 341.15 L164.95 342.4 M134.85 336.95 L134.95 337.0 M108.6 374.5 L108.75 378.15 Q113.25 411.95 118.5 436.65 122.35 454.65 128.25 474.65 M108.6 374.5 L108.4 370.05 M136.15 385.0 L135.8 380.95 135.8 380.55 134.55 362.0 M136.15 385.0 Q138.7 411.55 148.55 438.5 156.55 460.4 166.3 474.65 M160.25 340.05 L160.6 347.5 M86.8 195.6 L86.0 200.9" fill="none" stroke="#000000" stroke-linecap="round" stroke-linejoin="round" stroke-width="1.0"/>
    <path d="M133.55 94.7 L139.1 101.1 M148.95 175.55 Q153.9 190.35 158.25 209.6 L158.35 210.05 158.6 211.5 M57.4 179.85 Q38.15 162.55 33.65 143.35 L33.0 140.4 M157.5 120.55 L160.15 121.65 161.0 122.3 168.7 128.1 173.4 132.1 Q174.55 133.2 174.95 133.85 M159.9 113.6 Q164.9 110.15 170.2 110.65 M95.75 66.05 L96.15 64.3 96.3 63.6 Q98.6 63.6 101.0 64.85 104.9 66.85 109.2 72.15 M110.55 73.9 L109.2 72.15 M91.6 72.05 L91.65 72.05 92.45 71.8 Q93.75 71.35 94.4 70.05 L94.5 69.85 94.6 69.65 M91.05 72.65 L91.1 72.25 91.15 72.0 91.6 72.05 M91.6 72.1 L91.65 72.05 Q92.65 72.2 93.85 72.75 L94.75 73.2 96.7 74.4 98.95 76.05 101.0 77.75 107.7 84.2 111.45 88.25 113.55 83.7 113.6 83.65 Q114.1 81.65 104.1 74.0 L101.0 71.65 98.45 69.75 M90.5 74.9 L90.65 74.45 91.05 72.65 M95.75 66.05 L94.6 69.65 M91.1 72.25 L91.6 72.1 M90.85 79.35 L95.6 81.95 98.7 83.9 103.95 87.6 109.8 92.25 Q110.55 90.2 111.45 88.25 M90.4 75.25 L89.9 76.3 89.6 76.85 90.8 75.5 M90.5 74.9 L90.4 75.25 M89.45 77.0 L89.6 76.85 89.5 77.05 89.35 77.2 88.75 78.0 88.6 78.3 89.15 78.55 90.85 79.35 M89.45 77.0 L88.25 78.25 88.4 78.55 M88.5 78.55 L88.6 78.3 88.5 78.25 88.75 78.0 M88.0 78.55 L86.5 80.25 87.25 81.15 88.05 79.35 88.45 78.65 88.4 78.55 M71.2 96.3 Q74.85 93.6 78.9 90.9 M79.35 91.9 Q81.0 87.75 83.7 83.9 L86.5 80.25 M88.5 78.55 L88.45 78.65 M88.25 78.25 L88.0 78.55 M87.0 83.55 L87.1 83.9 87.25 84.5 Q87.25 85.15 84.65 86.55 83.4 87.2 83.1 88.3 L86.95 89.8 90.1 91.15 Q95.95 93.6 100.2 95.8 103.4 97.4 105.7 98.9 L105.9 99.0 107.2 99.9 107.45 99.0 108.05 97.2 M102.05 91.75 L97.2 89.0 Q92.25 86.3 88.75 85.3 M87.25 81.15 L86.85 82.65 87.0 83.55 M83.1 88.3 L83.0 88.55 82.95 88.25 83.1 88.3 M81.9 93.3 Q83.15 90.8 83.05 88.85 L83.0 88.55 M81.95 93.35 L84.1 95.15 Q86.8 97.15 90.85 99.0 L97.4 101.6 106.0 104.15 107.2 99.9 M108.35 96.2 L108.5 95.85 102.05 91.75 M81.95 93.35 L81.9 93.3 81.8 93.5 M81.1 96.3 L81.3 95.85 81.75 94.3 81.8 93.5 M112.15 76.1 L114.35 76.25 Q117.25 77.45 118.85 81.55 119.85 82.15 120.9 82.9 126.4 86.8 133.55 94.7 M114.95 81.0 L113.6 83.65 M114.95 81.0 L115.1 80.7 112.15 76.1 110.55 73.9 M108.35 96.2 L108.05 97.2 M109.8 92.25 L108.5 95.85 M57.75 107.25 Q63.75 101.75 71.2 96.3 M81.1 96.3 Q80.8 96.85 80.8 97.35 80.8 97.8 81.15 98.9 L81.3 99.45 82.45 100.2 83.35 100.8 Q89.25 104.65 94.0 106.8 100.45 109.65 104.85 109.35 105.35 106.7 106.0 104.15 M79.75 106.0 L79.65 106.55 81.0 109.75 Q81.0 110.9 80.4 111.85 L79.4 113.3 85.8 114.55 86.3 114.65 Q91.95 115.9 95.75 117.3 L96.75 117.7 Q100.8 119.3 102.3 121.1 L103.05 120.45 104.1 113.15 Q96.25 113.0 90.2 111.25 87.45 110.45 85.05 109.3 82.15 107.9 79.75 106.0 L80.85 103.8 81.45 102.75 82.0 101.55 81.3 99.45 M47.35 118.0 L49.1 116.0 52.15 112.7 54.05 110.75 55.75 109.15 56.4 108.5 57.75 107.25 M44.55 121.5 L45.15 120.7 M44.55 121.5 L43.95 122.35 42.45 124.4 40.55 127.35 39.4 128.35 M47.35 118.0 L46.8 118.65 46.0 119.65 45.15 120.7 M78.25 195.95 L79.15 196.55 M78.25 195.95 Q68.5 189.45 59.9 182.05 L57.4 179.85 M143.35 106.35 L144.15 107.35 M143.35 106.35 L141.85 104.5 139.1 101.1 M159.9 113.6 Q158.8 114.3 157.75 115.25 154.7 118.5 153.25 118.75 L157.25 120.45 157.5 120.55 M153.25 118.75 L152.65 118.7 152.15 118.0 144.15 107.35 M102.3 121.1 L102.85 122.05 102.9 121.85 103.05 120.45 M104.85 109.35 L104.1 113.15 M95.75 117.3 Q90.2 118.9 87.2 119.35 M87.85 123.2 L95.2 123.5 Q100.55 123.35 102.3 121.1 M89.25 135.4 L102.45 134.75 M102.4 131.45 L88.8 130.9 M86.0 200.9 L82.55 198.75 79.15 196.55" fill="none" stroke="#000000" stroke-linecap="round" stroke-linejoin="round" stroke-width="1.0"/>
  </g>
</svg>
