<?xml version="1.0" encoding="UTF-8" standalone="no"?>
<svg xmlns:xlink="http://www.w3.org/1999/xlink" height="991.9px" width="399.85px" xmlns="http://www.w3.org/2000/svg">
  <g transform="matrix(1.0, 0.0, 0.0, 1.0, 0.5, -2.05)">
    <path d="M328.45 142.55 L326.15 146.4 328.45 142.55 M303.6 77.95 L310.6 78.6 Q341.15 80.65 352.1 98.65 363.0 116.65 373.85 169.65 380.35 201.55 382.05 216.85 L383.1 217.15 382.55 209.8 Q391.15 214.25 391.15 221.95 L391.0 223.05 Q390.65 225.0 390.55 227.75 385.65 238.95 372.75 249.75 365.3 256.05 357.8 259.45 L355.1 260.6 355.2 260.8 Q364.5 260.3 369.65 259.05 379.2 256.7 386.5 250.15 389.1 247.8 391.4 244.9 L391.75 247.7 Q389.5 257.25 389.25 265.15 L389.65 266.95 Q393.15 283.2 393.0 301.6 392.85 320.0 390.7 328.6 389.0 335.4 377.0 359.3 L376.65 360.0 Q356.85 396.9 335.15 424.55 L329.55 431.6 321.0 441.9 Q309.25 455.6 302.1 461.4 290.95 470.35 282.7 475.6 274.4 480.8 260.5 486.05 253.2 488.8 248.15 490.15 L248.15 488.75 Q237.15 456.15 233.6 438.35 230.05 420.55 229.65 401.2 229.3 384.6 228.5 370.8 L227.95 362.5 227.4 355.9 226.9 351.4 Q226.3 345.35 226.25 340.0 L226.25 334.8 226.4 330.25 226.7 319.5 227.0 300.3 227.0 300.15 Q226.9 294.95 226.45 290.95 226.05 287.15 225.3 284.45 224.75 282.35 224.0 280.85 L221.05 280.85 218.7 279.15 Q220.4 277.35 222.95 277.35 224.15 277.35 226.9 278.8 L227.5 279.1 227.4 279.2 231.2 282.75 Q236.1 286.2 246.85 289.4 257.6 292.6 271.3 291.9 285.0 291.15 302.4 284.65 319.75 278.1 330.1 279.4 340.2 280.7 355.2 271.1 L355.05 270.85 Q352.15 269.7 350.55 269.7 L313.7 270.85 313.8 270.6 Q316.25 269.45 320.1 268.8 327.65 267.5 331.5 264.2 333.25 262.7 338.7 260.1 344.1 257.5 346.25 255.6 348.7 253.4 353.65 250.6 359.4 247.3 361.4 245.85 366.25 242.25 368.85 236.9 L369.9 236.3 368.85 236.9 362.6 240.3 Q346.65 240.1 332.9 240.35 319.15 240.6 315.3 222.0 L315.45 219.75 Q315.7 217.9 317.1 213.5 319.2 217.85 319.75 220.45 334.1 221.8 344.45 212.5 350.15 207.3 359.65 191.9 350.55 196.55 342.25 202.35 339.7 204.1 338.1 204.6 L332.4 205.25 Q327.3 205.25 321.35 202.85 314.8 199.8 311.25 198.5 L310.3 198.5 309.95 197.6 Q309.35 195.95 311.8 190.25 314.2 184.55 315.7 178.85 318.2 171.35 319.3 165.2 321.05 155.4 326.15 146.4 323.95 147.9 322.65 149.0 316.85 153.9 314.4 159.9 312.7 164.1 306.85 174.3 L305.35 177.0 305.95 179.5 Q307.6 186.45 306.8 202.25 L306.7 204.0 Q306.3 208.0 305.2 211.8 L304.95 212.5 Q304.65 212.85 303.95 204.95 L304.6 213.6 302.05 219.2 Q298.9 225.0 293.6 230.15 291.25 232.4 288.5 234.3 L282.35 245.7 Q281.15 256.05 280.5 263.75 279.8 271.45 281.5 277.45 283.2 283.45 285.3 286.0 L283.85 286.25 280.2 286.9 Q273.9 277.75 273.9 261.25 273.9 250.7 276.45 247.05 L282.6 234.2 282.6 234.15 Q288.5 230.9 292.45 225.9 L294.7 222.7 Q302.2 210.35 303.3 196.55 303.7 191.7 303.5 187.3 295.3 226.5 245.95 226.5 231.8 226.5 219.7 222.4 L216.0 220.95 211.8 218.4 210.7 217.75 210.45 217.6 210.5 217.5 Q213.85 213.85 215.8 212.15 L225.05 203.15 Q236.75 206.9 253.95 206.9 271.0 206.9 282.7 195.4 293.75 184.5 293.75 170.05 293.75 160.35 285.15 155.0 283.3 153.8 278.0 151.3 L275.15 149.85 Q273.4 148.85 272.4 148.05 L272.45 147.95 272.6 147.65 275.05 142.55 Q283.8 116.55 291.55 104.0 298.1 93.35 303.6 77.95 M59.1 683.45 L57.95 683.4 Q56.35 683.4 52.7 684.15 L46.4 684.85 Q37.0 684.85 32.2 678.75 29.2 675.0 28.0 668.95 L27.9 668.55 28.5 662.45 Q28.75 659.25 29.4 656.1 33.25 645.4 40.45 636.8 47.65 628.2 55.55 622.15 L55.75 622.4 74.8 605.45 Q83.75 597.05 91.85 587.95 L98.15 580.5 Q113.65 566.85 127.55 541.65 141.45 516.4 155.2 471.9 161.85 450.2 165.3 430.7 163.1 460.3 152.15 495.9 138.4 540.4 124.5 565.65 114.65 583.5 104.0 595.55 99.6 600.5 95.1 604.5 L94.45 605.25 88.8 611.95 86.35 614.65 87.15 615.4 Q84.15 621.2 75.45 632.95 66.35 645.25 62.95 651.35 57.15 661.8 57.15 670.2 57.15 675.05 58.35 679.5 L59.1 683.45 M383.25 219.0 L383.1 217.15 383.25 219.0 M359.55 269.75 L355.85 270.65 355.05 270.85 355.85 270.65 359.55 269.75 M319.95 221.7 L319.75 220.45 319.95 221.7 M147.5 188.15 Q148.65 201.55 150.75 211.45 151.55 215.15 152.7 219.0 139.7 224.45 120.25 224.45 L114.25 224.2 Q109.55 220.3 105.95 215.85 94.6 201.95 94.6 184.0 94.6 182.3 94.95 180.45 94.6 182.3 94.6 184.0 94.6 201.95 105.95 215.85 109.55 220.3 114.25 224.2 L107.55 224.0 Q112.8 228.35 118.75 231.5 L119.1 231.7 121.35 236.35 122.1 237.3 122.25 237.45 Q124.0 239.55 126.35 241.65 L131.0 245.75 Q133.05 247.7 134.2 249.8 L134.7 250.7 Q135.65 252.85 135.65 255.15 135.65 257.9 135.1 259.35 134.5 260.8 134.5 262.9 134.5 265.85 136.25 268.5 L135.85 269.4 131.45 267.4 Q129.95 264.45 128.9 261.05 127.5 256.6 125.1 255.15 123.55 254.2 121.05 253.05 112.9 244.55 112.2 240.9 111.9 236.8 111.1 233.95 109.55 228.45 105.95 228.45 101.35 228.45 97.9 232.75 94.6 236.85 94.6 241.8 94.6 247.05 99.3 249.65 102.05 251.15 108.85 253.25 114.9 255.65 117.95 257.85 121.15 260.15 123.55 263.85 115.95 260.45 111.5 258.7 118.55 266.9 126.4 271.45 131.4 274.35 139.25 277.55 145.1 280.55 147.4 286.0 150.25 292.8 150.25 308.1 150.25 314.3 146.8 328.05 L139.25 356.55 Q128.25 398.65 128.25 425.25 128.25 435.8 128.6 439.7 127.9 446.65 127.7 452.15 127.4 458.1 125.1 466.15 101.6 417.45 94.5 394.7 87.1 371.05 85.75 363.85 77.15 327.6 75.15 317.35 73.1 307.1 71.45 291.45 L69.95 277.7 Q75.5 270.8 82.2 265.6 85.2 263.25 93.75 257.65 L94.4 257.6 97.0 257.55 94.4 257.6 93.75 257.65 93.9 257.4 92.4 256.75 Q89.8 255.65 85.9 255.65 79.2 255.65 74.35 262.5 L70.15 269.0 68.65 271.2 69.05 271.4 67.7 272.45 64.75 274.65 64.35 273.85 Q62.15 264.5 66.05 255.15 L69.65 247.15 71.45 242.2 72.7 244.8 Q74.6 248.8 76.4 250.4 78.25 252.0 84.6 252.55 L84.75 252.05 86.65 252.7 Q91.15 254.35 97.0 257.55 L99.6 257.6 Q69.25 239.55 69.25 230.3 69.25 229.4 70.2 226.65 71.15 223.85 71.15 221.5 L71.0 221.4 71.15 221.1 74.25 216.05 74.6 216.25 Q73.65 227.7 72.3 231.65 76.65 237.55 84.25 243.85 95.3 252.95 106.0 256.05 99.0 253.75 92.6 245.35 86.65 235.65 84.85 232.2 83.0 228.7 80.55 219.15 78.05 209.6 75.25 205.05 L75.25 202.35 Q75.05 201.45 75.3 200.45 78.6 206.25 82.3 211.15 88.35 219.25 93.2 221.45 L94.65 223.05 94.2 221.85 92.1 215.3 Q90.15 207.9 87.85 204.15 85.65 200.5 84.2 195.15 L86.75 183.55 Q97.85 134.65 99.65 128.25 101.7 120.9 103.15 116.9 104.55 112.9 109.65 104.95 114.75 97.0 119.35 93.55 123.9 90.05 131.3 87.25 138.65 84.45 150.1 79.0 151.05 78.5 152.0 78.1 L149.8 92.7 Q147.8 105.75 147.85 108.3 L147.25 123.7 Q139.35 133.75 133.4 138.15 128.9 141.5 121.3 144.9 L122.9 141.0 Q125.4 134.0 124.95 125.8 L124.8 123.85 Q124.45 119.0 124.45 116.7 124.45 119.0 124.8 123.85 L124.95 125.8 Q125.4 134.0 122.9 141.0 L121.3 144.9 120.5 145.2 120.65 145.45 Q113.7 151.45 109.45 155.95 104.95 160.6 99.7 169.15 95.95 175.3 94.95 180.45 97.5 184.95 102.15 186.55 111.1 189.65 119.55 190.2 L128.15 190.8 Q138.6 191.1 147.5 188.15 M295.35 158.8 L300.85 172.8 Q303.15 179.25 303.5 187.3 303.15 179.25 300.85 172.8 L295.35 158.8 M95.65 223.9 L94.65 223.05 95.65 223.9 M129.05 233.9 L127.6 231.55 129.75 234.25 129.05 233.9 129.75 234.25 Q131.9 236.75 133.0 237.05 136.15 240.55 141.0 245.1 147.0 251.7 147.0 258.75 147.0 261.25 145.9 269.5 L145.35 273.75 143.8 273.05 Q143.75 258.65 141.3 253.05 139.95 249.9 136.65 245.25 L136.15 244.55 Q133.15 240.55 129.05 233.9 M108.1 257.45 L111.5 258.7 108.1 257.45 M71.15 221.5 L71.15 221.1 71.15 221.5 M69.2 271.3 L69.2 271.4 69.05 271.4 69.2 271.3 M111.75 459.55 L121.35 479.7 121.3 480.25 Q121.3 484.25 127.35 484.3 130.3 484.3 133.15 480.45 L133.6 480.8 Q136.2 482.8 139.1 482.8 146.95 482.8 152.65 470.15 142.8 502.9 125.9 528.15 106.45 557.25 79.1 574.15 L71.1 578.75 Q77.1 573.95 81.55 568.65 92.85 555.15 100.2 532.65 109.0 505.65 111.75 459.55 M210.7 217.75 L210.5 217.5 210.7 217.75 M185.0 382.8 Q186.45 381.65 187.7 378.6 188.8 375.95 189.15 374.05 195.1 373.9 207.65 371.95 L208.45 371.85 Q214.55 388.5 216.9 411.2 218.15 422.8 219.05 450.8 219.75 472.4 221.85 480.45 224.95 492.15 233.25 492.15 L240.2 491.45 Q241.8 490.95 243.25 489.95 L244.0 491.05 Q245.55 493.3 246.25 493.3 L246.65 493.3 248.05 493.2 248.05 493.15 248.2 493.2 Q254.15 492.6 266.35 488.0 280.25 482.75 288.55 477.55 296.8 472.3 307.95 463.35 313.65 458.75 322.2 449.2 L326.1 472.45 Q326.45 474.8 326.9 504.25 L324.9 630.75 Q324.9 666.1 325.6 675.45 327.1 694.55 332.6 711.35 L329.85 711.2 Q326.2 711.2 323.6 712.8 319.45 715.25 313.6 716.95 L313.45 717.0 311.1 717.6 Q308.35 715.75 302.3 706.25 296.25 696.7 293.35 674.95 290.45 653.15 286.7 631.6 282.9 610.05 280.9 589.15 278.9 568.25 275.7 552.3 L275.7 615.25 Q277.9 650.2 277.7 661.25 277.5 671.9 280.2 686.45 281.65 694.35 284.6 706.8 L282.4 705.35 282.4 705.3 282.2 705.25 281.6 705.0 Q276.05 703.1 268.95 701.5 L256.65 699.1 Q248.7 664.15 246.85 608.15 246.25 589.5 246.05 555.4 L245.7 521.95 Q244.65 533.85 240.5 550.2 237.85 560.55 232.85 577.05 L224.45 604.65 Q220.9 616.65 212.05 634.5 L199.25 659.25 Q195.7 666.6 184.2 673.45 178.35 670.5 172.8 669.9 166.75 669.25 162.4 665.8 160.85 664.55 159.15 662.5 173.25 658.0 182.8 644.6 186.55 639.3 191.05 630.35 196.1 620.35 197.55 618.05 205.95 604.75 208.15 591.1 L208.9 583.85 215.5 569.15 208.9 583.85 Q200.05 603.2 195.95 610.75 190.45 620.85 176.3 633.9 162.1 646.9 144.5 646.9 L143.8 646.9 Q135.7 646.7 126.25 642.4 L123.0 640.95 Q116.0 637.75 111.15 635.8 134.75 628.55 150.65 612.3 167.65 594.85 176.75 566.0 184.45 541.3 187.2 505.05 189.15 479.6 189.15 435.2 189.15 418.95 186.35 408.75 L183.65 399.55 Q182.85 396.75 182.2 393.75 183.3 392.25 183.8 389.75 184.7 385.45 185.95 383.6 L185.0 382.8 M275.7 530.25 L275.7 552.3 275.7 530.25 M52.0 646.6 L52.6 646.45 52.7 646.4 53.2 645.95 71.75 629.45 Q79.35 622.3 86.35 614.65 79.35 622.3 71.75 629.45 L53.2 645.95 52.7 646.4 52.6 646.45 52.0 646.6 M52.5 646.15 L52.95 645.75 52.4 646.0 52.5 646.15" fill="#e3e7f0" fill-rule="evenodd" stroke="none"/>
    <path d="M305.45 72.4 L317.55 73.7 Q348.1 75.75 359.05 93.75 369.95 111.75 374.25 133.3 378.2 153.2 382.55 209.8 L383.1 217.15 382.05 216.85 Q380.35 201.55 373.85 169.65 363.0 116.65 352.1 98.65 341.15 80.65 310.6 78.6 L303.6 77.95 305.45 72.4 M391.75 247.7 Q392.95 257.15 395.5 268.9 399.0 285.15 398.85 303.55 398.7 321.95 396.55 330.55 394.85 337.35 382.85 361.25 L382.5 361.95 Q362.7 398.85 341.0 426.5 L331.25 438.65 336.9 472.45 Q337.25 474.8 337.7 504.25 L335.7 630.75 Q335.7 666.1 336.4 675.45 338.15 697.65 345.25 716.65 344.05 715.3 341.95 714.05 339.05 712.4 335.4 711.7 L332.6 711.35 Q327.1 694.55 325.6 675.45 324.9 666.1 324.9 630.75 L326.9 504.25 Q326.45 474.8 326.1 472.45 L322.2 449.2 Q313.65 458.75 307.95 463.35 296.8 472.3 288.55 477.55 280.25 482.75 266.35 488.0 254.15 492.6 248.2 493.2 L248.05 493.15 248.15 492.9 248.15 490.15 Q253.2 488.8 260.5 486.05 274.4 480.8 282.7 475.6 290.95 470.35 302.1 461.4 309.25 455.6 321.0 441.9 L329.55 431.6 335.15 424.55 Q356.85 396.9 376.65 360.0 L377.0 359.3 Q389.0 335.4 390.7 328.6 392.85 320.0 393.0 301.6 393.15 283.2 389.65 266.95 L389.25 265.15 Q389.5 257.25 391.75 247.7 M70.15 692.85 L69.0 691.5 69.85 691.35 70.15 692.85 M29.4 656.1 Q29.95 653.25 30.85 650.45 32.65 644.5 33.15 632.1 33.6 619.7 32.4 612.15 L31.8 609.25 Q28.55 595.75 19.0 595.75 L18.95 595.5 Q43.45 591.15 61.3 583.45 L66.95 576.4 Q75.95 565.15 79.85 557.25 85.95 544.75 87.6 540.6 90.65 532.9 92.85 522.25 100.4 486.7 101.35 481.25 104.3 464.45 105.45 445.75 93.65 419.45 88.95 404.5 81.55 380.85 80.2 373.65 71.6 337.4 69.6 327.15 67.55 316.9 65.9 301.25 L63.0 275.8 64.6 274.75 64.75 274.65 67.7 272.45 69.05 271.4 69.2 271.4 69.2 271.3 78.05 264.5 Q86.5 258.55 93.75 257.65 85.2 263.25 82.2 265.6 75.5 270.8 69.95 277.7 L71.45 291.45 Q73.1 307.1 75.15 317.35 77.15 327.6 85.75 363.85 87.1 371.05 94.5 394.7 101.6 417.45 125.1 466.15 L124.15 469.2 Q121.65 477.1 121.35 479.7 L111.75 459.55 105.45 445.75 111.75 459.55 Q109.0 505.65 100.2 532.65 92.85 555.15 81.55 568.65 77.1 573.95 71.1 578.75 L79.1 574.15 Q106.45 557.25 125.9 528.15 142.8 502.9 152.65 470.15 L154.25 464.45 Q162.6 434.05 164.45 399.95 L164.75 399.95 Q165.85 411.65 165.85 416.25 165.85 423.3 165.3 430.7 161.85 450.2 155.2 471.9 141.45 516.4 127.55 541.65 113.65 566.85 98.15 580.5 L91.85 587.95 Q83.75 597.05 74.8 605.45 L55.75 622.4 55.55 622.15 Q47.65 628.2 40.45 636.8 33.25 645.4 29.4 656.1 M324.45 260.3 L333.95 255.25 362.6 240.3 368.85 236.9 Q366.25 242.25 361.4 245.85 359.4 247.3 353.65 250.6 348.7 253.4 346.25 255.6 344.1 257.5 338.7 260.1 333.25 262.7 331.5 264.2 327.65 267.5 320.1 268.8 316.25 269.45 313.8 270.6 L315.6 265.55 Q318.8 263.4 324.45 260.3 M355.05 270.85 L355.2 271.1 Q340.2 280.7 330.1 279.4 319.75 278.1 302.4 284.65 285.0 291.15 271.3 291.9 257.6 292.6 246.85 289.4 236.1 286.2 231.2 282.75 L227.4 279.2 227.5 279.1 Q233.45 282.35 234.75 283.0 246.45 288.6 259.45 288.6 269.7 288.6 280.2 286.9 L283.85 286.25 285.3 286.0 293.25 284.05 285.3 286.0 Q283.2 283.45 281.5 277.45 279.8 271.45 280.5 263.75 281.15 256.05 282.35 245.7 L288.5 234.3 Q291.25 232.4 293.6 230.15 298.9 225.0 302.05 219.2 L304.6 213.6 304.95 212.5 305.2 211.8 Q306.3 208.0 306.7 204.0 L306.8 202.25 Q307.6 186.45 305.95 179.5 L305.35 177.0 306.85 174.3 Q312.7 164.1 314.4 159.9 316.85 153.9 322.65 149.0 323.95 147.9 326.15 146.4 321.05 155.4 319.3 165.2 318.2 171.35 315.7 178.85 314.2 184.55 311.8 190.25 309.35 195.95 309.95 197.6 L310.3 198.5 310.6 199.35 311.55 201.9 Q308.15 207.95 305.75 214.05 L304.9 216.3 304.5 217.45 Q300.65 227.75 294.85 240.8 288.65 254.5 288.9 262.05 289.15 269.6 289.8 274.45 290.35 278.9 293.25 284.05 299.65 282.1 303.0 279.65 308.0 275.9 311.9 275.15 L312.35 275.05 324.7 275.4 Q333.0 276.2 343.2 273.75 L355.05 270.85 M153.0 71.65 L152.15 77.05 152.0 78.1 Q151.05 78.5 150.1 79.0 138.65 84.45 131.3 87.25 123.9 90.05 119.35 93.55 114.75 97.0 109.65 104.95 104.55 112.9 103.15 116.9 101.7 120.9 99.65 128.25 97.85 134.65 86.75 183.55 L84.2 195.15 83.2 190.8 Q82.65 187.85 82.4 185.3 L82.5 184.85 83.75 179.05 Q94.85 130.15 96.65 123.75 98.7 116.4 100.15 112.4 101.55 108.4 106.65 100.45 111.75 92.5 116.35 89.05 120.9 85.55 128.3 82.75 135.65 79.95 147.1 74.5 L153.0 71.65 M146.5 139.9 L146.05 150.2 Q146.05 171.8 147.5 188.15 138.6 191.1 128.15 190.8 L119.55 190.2 Q111.1 189.65 102.15 186.55 97.5 184.95 94.95 180.45 95.95 175.3 99.7 169.15 104.95 160.6 109.45 155.95 113.7 151.45 120.65 145.45 L120.5 145.2 121.3 144.9 Q128.9 141.5 133.4 138.15 139.35 133.75 147.25 123.7 L146.9 130.65 146.5 139.9 M272.4 148.05 Q273.4 148.85 275.15 149.85 L278.0 151.3 Q283.3 153.8 285.15 155.0 293.75 160.35 293.75 170.05 293.75 184.5 282.7 195.4 271.0 206.9 253.95 206.9 236.75 206.9 225.05 203.15 L237.0 190.75 261.05 164.7 Q267.5 157.3 272.4 148.05 M79.4 194.4 L79.35 195.75 Q79.35 197.15 80.05 199.5 L80.7 203.2 80.95 203.15 81.25 203.55 88.5 214.95 Q91.2 219.1 93.2 221.45 88.35 219.25 82.3 211.15 78.6 206.25 75.3 200.45 75.85 197.8 79.4 194.4 M120.65 145.45 L121.3 144.9 120.65 145.45 M112.95 247.85 Q106.4 234.05 103.95 234.05 102.35 234.05 100.95 238.2 99.8 241.65 99.8 243.45 99.8 246.7 118.65 254.8 122.35 256.4 125.55 260.95 L129.85 266.65 123.55 263.85 Q121.15 260.15 117.95 257.85 114.9 255.65 108.85 253.25 102.05 251.15 99.3 249.65 94.6 247.05 94.6 241.8 94.6 236.85 97.9 232.75 101.35 228.45 105.95 228.45 109.55 228.45 111.1 233.95 111.9 236.8 112.2 240.9 112.9 244.55 121.05 253.05 L118.25 251.75 Q114.55 250.15 111.7 247.9 L112.95 247.85 M97.0 257.55 Q91.15 254.35 86.65 252.7 L84.75 252.05 84.3 251.9 84.1 251.75 Q76.2 245.7 71.65 241.35 L70.15 239.85 69.05 238.65 70.15 239.85 71.65 241.35 71.45 242.2 69.65 247.15 66.05 255.15 Q62.15 264.5 64.35 273.85 62.75 270.7 62.4 266.45 62.4 259.65 61.85 255.2 65.4 251.05 66.75 247.95 67.85 245.4 69.4 239.05 L69.05 238.65 Q65.45 234.6 65.45 232.35 65.45 230.7 70.55 222.05 L71.0 221.4 71.15 221.5 Q71.15 223.85 70.2 226.65 69.25 229.4 69.25 230.3 69.25 239.55 99.6 257.6 L97.0 257.55 M70.15 239.85 L69.4 239.05 70.15 239.85 M169.75 395.85 L169.95 395.8 179.95 403.2 Q180.9 401.7 181.2 399.4 L181.2 394.75 181.75 394.3 182.2 393.75 Q182.85 396.75 183.65 399.55 L186.35 408.75 Q189.15 418.95 189.15 435.2 189.15 479.6 187.2 505.05 184.45 541.3 176.75 566.0 167.65 594.85 150.65 612.3 134.75 628.55 111.15 635.8 L107.45 634.35 107.4 634.35 107.85 633.25 Q117.55 633.25 128.3 616.3 134.1 607.1 140.25 592.8 149.0 572.4 156.85 545.25 166.25 513.6 169.7 492.3 173.85 466.6 173.85 431.75 173.85 418.2 169.75 395.85 M331.25 438.65 L322.2 449.2 331.25 438.65 M184.2 673.45 Q195.7 666.6 199.25 659.25 L212.05 634.5 Q220.9 616.65 224.45 604.65 L232.85 577.05 Q237.85 560.55 240.5 550.2 244.65 533.85 245.7 521.95 L246.05 555.4 Q246.25 589.5 246.85 608.15 248.7 664.15 256.65 699.1 L249.5 698.0 223.35 695.95 Q207.25 694.45 204.25 690.35 199.4 683.65 191.55 677.95 187.8 675.25 184.2 673.45 M71.1 578.75 L61.3 583.45 71.1 578.75 M87.15 615.4 L86.35 614.65 88.8 611.95 87.15 615.4" fill="#fafbfc" fill-rule="evenodd" stroke="none"/>
    <path d="M390.55 227.75 Q390.4 232.85 391.0 240.7 L391.4 244.9 Q389.1 247.8 386.5 250.15 379.2 256.7 369.65 259.05 364.5 260.3 355.2 260.8 L355.1 260.6 357.8 259.45 Q365.3 256.05 372.75 249.75 385.65 238.95 390.55 227.75 M345.25 716.65 L346.7 720.4 Q346.65 723.85 343.4 725.8 340.55 727.5 336.2 727.4 L335.4 711.7 Q339.05 712.4 341.95 714.05 344.05 715.3 345.25 716.65 M82.9 698.2 Q78.4 698.05 75.25 696.65 72.5 695.4 70.15 692.85 L69.85 691.35 69.35 687.65 Q69.05 684.5 69.3 677.9 69.55 671.25 70.85 665.85 72.15 660.45 80.0 644.0 72.15 660.45 70.85 665.85 69.55 671.25 69.3 677.9 69.05 684.5 69.35 687.65 L69.85 691.35 69.0 691.5 64.7 686.0 Q62.4 683.75 59.1 683.45 L58.35 679.5 Q57.15 675.05 57.15 670.2 57.15 661.8 62.95 651.35 66.35 645.25 75.45 632.95 84.15 621.2 87.15 615.4 L88.8 611.95 94.45 605.25 95.1 604.5 94.65 607.25 Q87.25 654.8 84.25 683.6 L82.9 698.2 M32.4 612.15 Q14.85 612.45 0.0 623.0 L0.0 617.3 Q1.2 607.1 6.25 601.4 9.9 597.3 15.05 596.15 L16.6 595.9 19.0 595.75 Q28.55 595.75 31.8 609.25 L32.4 612.15 M315.3 222.0 Q319.15 240.6 332.9 240.35 346.65 240.1 362.6 240.3 L333.95 255.25 324.45 260.3 Q324.85 250.9 320.65 243.9 317.75 239.0 317.0 237.2 315.25 232.85 315.25 227.1 L315.3 222.0 M313.7 270.85 L350.55 269.7 Q352.15 269.7 355.05 270.85 L343.2 273.75 Q333.0 276.2 324.7 275.4 L312.35 275.05 312.0 274.9 313.7 270.85 M310.3 198.5 L311.25 198.5 Q314.8 199.8 321.35 202.85 327.3 205.25 332.4 205.25 L338.1 204.6 Q339.7 204.1 342.25 202.35 350.55 196.55 359.65 191.9 350.15 207.3 344.45 212.5 334.1 221.8 319.75 220.45 319.2 217.85 317.1 213.5 L315.05 209.45 Q312.65 204.95 311.55 201.9 L310.6 199.35 310.3 198.5 M280.2 286.9 Q269.7 288.6 259.45 288.6 246.45 288.6 234.75 283.0 233.45 282.35 227.5 279.1 L226.9 278.8 Q224.15 277.35 222.95 277.35 220.4 277.35 218.7 279.15 212.5 274.85 203.9 270.85 200.75 269.35 182.1 261.95 L176.7 261.95 Q180.85 254.35 184.55 249.25 L192.85 237.95 Q203.7 224.95 209.9 218.15 L210.45 217.6 210.7 217.75 211.8 218.4 216.0 220.95 219.7 222.4 Q231.8 226.5 245.95 226.5 295.3 226.5 303.5 187.3 303.7 191.7 303.3 196.55 302.2 210.35 294.7 222.7 L292.45 225.9 Q288.5 230.9 282.6 234.15 271.5 240.25 253.45 240.25 237.5 240.25 224.15 229.9 237.5 240.25 253.45 240.25 271.5 240.25 282.6 234.15 L282.6 234.2 276.45 247.05 Q273.9 250.7 273.9 261.25 273.9 277.75 280.2 286.9 M221.05 280.85 L224.0 280.85 Q224.75 282.35 225.3 284.45 L222.05 281.65 221.05 280.85 M84.2 195.15 Q85.65 200.5 87.85 204.15 90.15 207.9 92.1 215.3 L94.2 221.85 94.65 223.05 93.2 221.45 Q91.2 219.1 88.5 214.95 L81.25 203.55 80.95 203.15 80.7 203.2 80.05 199.5 Q79.35 197.15 79.35 195.75 L79.4 194.4 Q79.95 193.85 83.5 179.5 L82.95 182.4 82.4 185.3 Q82.65 187.85 83.2 190.8 L84.2 195.15 M114.25 224.2 L120.25 224.45 Q139.7 224.45 152.7 219.0 158.65 239.15 174.1 261.95 L174.2 262.15 174.2 267.45 170.25 269.5 167.9 271.1 Q166.25 275.1 163.4 279.2 L161.65 281.6 158.7 285.2 158.4 285.55 Q156.5 286.6 155.2 287.7 L154.0 288.85 155.3 289.0 158.3 289.15 Q159.9 291.45 162.45 292.25 L161.9 293.55 162.25 293.65 Q162.65 293.85 162.4 293.55 L165.05 295.3 165.7 295.65 161.95 305.3 158.8 313.4 158.15 315.15 153.8 326.45 149.65 337.2 146.15 346.25 145.9 346.8 Q144.7 349.55 143.85 352.8 142.55 357.45 141.8 363.15 L141.8 363.35 140.6 371.0 137.4 387.25 Q134.2 401.6 131.15 420.8 129.5 431.3 128.6 439.7 128.25 435.8 128.25 425.25 128.25 398.65 139.25 356.55 L146.8 328.05 Q150.25 314.3 150.25 308.1 150.25 292.8 147.4 286.0 145.1 280.55 139.25 277.55 131.4 274.35 126.4 271.45 118.55 266.9 111.5 258.7 115.95 260.45 123.55 263.85 L129.85 266.65 125.55 260.95 Q122.35 256.4 118.65 254.8 99.8 246.7 99.8 243.45 99.8 241.65 100.95 238.2 102.35 234.05 103.95 234.05 106.4 234.05 112.95 247.85 L111.7 247.9 Q114.55 250.15 118.25 251.75 L121.05 253.05 Q123.55 254.2 125.1 255.15 127.5 256.6 128.9 261.05 129.95 264.45 131.45 267.4 L129.85 266.65 131.45 267.4 135.85 269.4 137.25 270.05 143.8 273.05 145.35 273.75 145.9 269.5 Q147.0 261.25 147.0 258.75 147.0 251.7 141.0 245.1 136.15 240.55 133.0 237.05 131.9 236.75 129.75 234.25 L127.6 231.55 129.05 233.9 Q133.15 240.55 136.15 244.55 L134.95 249.3 134.2 249.8 Q133.05 247.7 131.0 245.75 L126.35 241.65 Q124.0 239.55 122.25 237.45 L122.1 237.3 121.35 236.35 119.1 231.7 118.75 231.5 Q112.8 228.35 107.55 224.0 L114.25 224.2 Q120.65 229.55 129.05 233.9 120.65 229.55 114.25 224.2 M136.45 237.35 L129.75 234.25 136.45 237.35 M75.25 205.05 Q78.05 209.6 80.55 219.15 83.0 228.7 84.85 232.2 86.65 235.65 92.6 245.35 99.0 253.75 106.0 256.05 95.3 252.95 84.25 243.85 76.65 237.55 72.3 231.65 73.65 227.7 74.6 216.25 L74.7 215.3 75.25 205.05 M145.35 273.75 L161.65 281.6 145.35 273.75 M84.75 252.05 L84.6 252.55 Q78.25 252.0 76.4 250.4 74.6 248.8 72.7 244.8 L71.45 242.2 71.65 241.35 Q76.2 245.7 84.1 251.75 L84.3 251.9 84.75 252.05 M69.05 271.4 L68.65 271.2 70.15 269.0 74.35 262.5 Q79.2 255.65 85.9 255.65 89.8 255.65 92.4 256.75 L93.9 257.4 93.75 257.65 Q86.5 258.55 78.05 264.5 L69.2 271.3 69.05 271.4 M128.3 616.3 Q117.55 633.25 107.85 633.25 L104.55 633.0 104.5 633.0 Q101.45 632.5 100.1 630.95 98.6 629.25 96.95 622.6 L100.6 623.45 102.2 623.65 108.6 623.15 Q112.4 622.55 117.6 620.85 122.8 619.15 128.3 616.3 M268.95 701.5 Q276.05 703.1 281.6 705.0 L282.2 705.25 282.4 705.35 284.6 706.8 284.85 707.2 284.9 707.45 Q284.9 709.1 284.2 709.7 283.35 710.4 280.7 710.4 L273.65 710.05 Q271.1 710.2 270.75 712.35 L270.4 712.35 268.95 701.5 M52.5 646.15 L52.4 646.0 52.95 645.75 52.5 646.15" fill="#c2c6de" fill-rule="evenodd" stroke="none"/>
    <path d="M305.45 72.4 L303.6 77.95 Q298.1 93.35 291.55 104.0 283.8 116.55 275.05 142.55 L267.05 143.5 266.15 143.65 266.05 142.75 266.05 142.6 Q265.65 138.5 265.8 133.55 265.95 127.95 268.55 122.9 271.1 117.8 275.7 110.5 280.25 103.15 280.35 101.35 280.45 99.55 279.15 97.35 277.9 95.2 276.1 94.15 L276.1 93.7 275.75 93.7 Q263.9 94.15 259.95 93.75 L245.75 92.85 227.15 92.2 218.25 92.7 Q217.05 92.0 215.9 91.95 L215.7 91.95 Q212.5 91.8 209.15 92.8 L202.15 94.95 202.2 94.65 201.2 94.65 Q205.35 92.65 215.35 86.45 225.35 80.2 230.3 74.6 235.25 69.0 240.75 58.3 246.25 47.55 246.9 20.2 224.9 47.65 215.45 43.6 206.9 40.0 192.8 22.75 L189.65 18.85 189.55 18.7 188.6 14.15 188.85 14.15 Q221.95 45.0 252.35 2.55 L253.3 2.55 Q253.45 11.45 254.55 30.85 258.65 49.55 272.8 60.6 284.0 69.3 305.45 72.4 M176.9 162.15 Q179.15 157.95 180.8 153.35 183.9 144.85 183.9 138.15 L184.25 138.15 Q185.4 144.4 188.2 149.15 192.3 156.15 198.65 150.7 204.95 145.2 205.75 144.9 206.4 144.65 208.6 141.05 204.75 148.2 202.8 154.2 201.6 158.0 200.95 161.55 195.15 163.35 187.7 164.3 182.55 164.95 176.9 162.15 M165.7 295.65 L165.05 295.3 162.4 293.55 167.6 294.55 Q170.2 294.55 173.8 292.55 L173.7 292.9 Q173.35 294.15 173.15 295.4 L168.3 295.95 165.7 295.65 M162.45 292.25 Q159.9 291.45 158.3 289.15 L155.3 289.0 154.0 288.85 155.2 287.7 156.55 287.7 Q162.6 287.7 166.2 285.55 L173.45 281.2 172.85 284.6 172.95 284.9 169.05 287.0 168.1 287.45 Q164.85 289.15 159.25 289.15 L158.3 289.15 159.25 289.15 Q164.85 289.15 168.1 287.45 L169.05 287.0 172.95 284.9 173.5 284.6 175.6 284.6 174.7 289.05 167.25 291.55 164.3 292.65 162.45 292.25 M158.7 285.2 L161.65 281.6 163.4 279.2 165.6 277.75 Q168.3 275.6 168.75 275.3 L174.75 271.0 174.95 272.9 174.95 273.1 174.75 274.0 174.5 275.3 Q167.75 279.6 165.1 281.6 L163.65 282.6 158.8 285.3 158.7 285.2" fill="#ffe2d5" fill-rule="evenodd" stroke="none"/>
    <path d="M189.55 18.7 L189.65 18.85 189.6 18.9 189.6 19.05 190.1 23.95 189.6 18.9 189.55 18.7 M192.8 22.75 Q206.9 40.0 215.45 43.6 224.9 47.65 246.9 20.2 246.25 47.55 240.75 58.3 235.25 69.0 230.3 74.6 225.35 80.2 215.35 86.45 205.35 92.65 201.2 94.65 L202.2 94.65 202.15 94.95 209.15 92.8 Q212.5 91.8 215.7 91.95 L215.9 91.95 Q217.05 92.0 218.25 92.7 L227.15 92.2 245.75 92.85 259.95 93.75 Q263.9 94.15 275.75 93.7 L276.1 93.7 276.1 94.15 Q277.9 95.2 279.15 97.35 280.45 99.55 280.35 101.35 280.25 103.15 275.7 110.5 271.1 117.8 268.55 122.9 265.95 127.95 265.8 133.55 265.65 138.5 266.05 142.6 L266.05 142.75 266.15 143.65 253.55 145.3 Q236.85 147.65 231.65 149.85 213.5 156.2 206.15 159.55 L200.95 161.55 Q201.6 158.0 202.8 154.2 204.75 148.2 208.6 141.05 206.4 144.65 205.75 144.9 204.95 145.2 198.65 150.7 192.3 156.15 188.2 149.15 185.4 144.4 184.25 138.15 L183.9 138.15 Q183.9 144.85 180.8 153.35 179.15 157.95 176.9 162.15 170.4 158.9 163.3 151.15 153.45 143.5 146.5 139.9 L146.9 130.65 147.25 123.7 147.85 108.3 Q147.8 105.75 149.8 92.7 L152.0 78.1 152.15 77.05 Q174.05 66.45 181.3 60.1 193.45 49.45 193.45 32.4 193.45 25.85 192.8 22.75 M178.95 92.05 L176.15 91.0 Q158.6 84.35 156.05 81.3 158.6 84.35 176.15 91.0 L178.95 92.05 M202.25 96.55 L201.05 97.7 Q195.9 102.15 193.4 96.65 195.9 102.15 201.05 97.7 L202.25 96.55 M162.4 293.55 Q162.65 293.85 162.25 293.65 L161.9 293.55 164.3 292.65 167.25 291.55 174.7 289.05 173.8 292.55 Q170.2 294.55 167.6 294.55 L162.4 293.55 M155.2 287.7 Q156.5 286.6 158.4 285.55 L158.8 285.3 163.65 282.6 165.1 281.6 Q167.75 279.6 174.5 275.3 L173.85 278.7 173.45 281.2 166.2 285.55 Q162.6 287.7 156.55 287.7 L155.2 287.7 M174.75 271.0 L168.75 275.3 Q168.3 275.6 165.6 277.75 L163.4 279.2 Q166.25 275.1 167.9 271.1 L170.25 269.5 174.2 267.45 174.2 269.15 174.55 270.1 174.75 271.0" fill="#fff2ee" fill-rule="evenodd" stroke="none"/>
    <path d="M218.7 279.15 L221.05 280.85 222.05 281.65 221.85 281.85 222.05 283.75 Q207.15 277.8 202.25 276.15 196.8 274.3 190.05 272.85 L177.65 270.1 174.55 270.1 174.2 269.15 174.2 267.45 174.2 262.15 174.2 261.95 176.7 261.95 182.1 261.95 Q200.75 269.35 203.9 270.85 212.5 274.85 218.7 279.15 M189.65 18.85 L192.8 22.75 Q193.45 25.85 193.45 32.4 193.45 49.45 181.3 60.1 174.05 66.45 152.15 77.05 L153.0 71.65 166.75 64.6 Q174.95 60.2 182.0 53.95 189.0 47.7 190.1 39.25 190.85 33.0 190.1 23.95 L189.6 19.05 189.6 18.9 189.65 18.85 M304.95 212.5 L304.6 213.6 303.95 204.95 Q304.65 212.85 304.95 212.5 M174.5 275.3 L174.75 274.0 174.95 273.1 175.0 272.9 175.7 272.9 Q190.9 274.75 203.35 280.05 L203.4 280.45 196.8 279.1 Q185.25 276.75 181.45 276.75 177.3 276.75 175.75 277.55 175.15 277.85 173.85 278.7 L174.5 275.3 M207.9 341.85 L207.75 341.85 207.85 341.5 207.9 341.85" fill="#ffffff" fill-rule="evenodd" stroke="none"/>
    <path d="M336.4 733.55 L336.95 753.6 Q337.75 781.9 340.8 798.5 343.0 810.35 349.05 838.25 353.6 859.05 355.4 872.4 357.65 888.25 363.85 909.95 369.1 928.35 373.7 939.5 L380.65 957.0 Q386.15 970.6 390.95 980.65 394.35 987.7 397.6 993.45 L381.2 993.45 Q370.75 969.8 361.8 943.7 351.6 913.75 334.5 852.2 326.15 821.85 324.55 813.35 321.45 796.5 322.7 776.3 323.85 757.7 319.35 738.5 L315.95 726.1 Q325.9 721.7 326.5 721.7 329.8 721.7 331.5 723.6 332.6 724.8 333.95 728.3 335.0 731.2 336.4 733.55 M348.05 993.45 L327.7 993.45 325.85 989.85 Q316.5 971.8 311.65 960.85 296.0 925.4 292.8 889.6 292.1 881.6 290.55 876.35 289.9 874.1 287.65 868.85 284.1 860.6 284.25 845.75 284.35 835.35 283.8 815.75 L283.3 799.75 283.2 796.55 284.2 796.5 284.25 797.35 285.0 805.9 Q290.3 861.45 310.9 917.85 327.65 963.75 348.05 993.45 M268.4 993.45 L242.05 993.45 Q236.45 960.7 232.95 897.05 231.7 874.7 228.5 846.45 226.5 828.95 226.5 795.5 L226.55 791.3 227.55 791.45 Q237.0 862.25 248.05 913.9 256.1 951.6 268.4 993.45 M120.5 993.45 L80.15 993.45 Q85.0 985.1 86.5 981.1 L89.7 972.45 94.05 957.5 Q97.5 944.65 98.25 942.5 102.85 929.4 106.55 915.05 L113.65 885.5 Q127.25 828.65 131.0 808.95 137.6 774.0 141.65 730.0 141.95 736.1 141.95 754.25 141.95 829.4 131.35 880.0 125.4 908.4 122.65 954.1 121.6 971.25 120.5 993.45 M46.15 993.45 L18.85 993.45 Q43.0 917.05 58.8 872.35 L83.5 802.35 83.65 801.85 82.95 802.0 82.95 801.95 Q80.85 789.05 80.85 745.55 80.85 722.8 82.9 698.2 L84.25 683.6 Q87.25 654.8 94.65 607.25 L95.1 604.5 Q99.6 600.5 104.0 595.55 L103.95 597.95 103.8 608.1 Q103.45 618.0 100.6 623.45 L96.95 622.6 96.25 622.65 Q97.1 632.3 97.1 638.9 97.1 662.7 92.85 689.8 88.55 716.9 88.55 738.9 L88.45 750.4 Q88.5 756.3 89.35 760.65 90.4 765.9 93.3 772.1 98.85 753.95 102.65 738.7 110.8 705.95 114.3 673.65 L114.65 673.65 Q116.1 724.2 91.15 828.2 78.0 883.05 46.15 993.45 M266.15 143.65 L267.05 143.5 272.6 147.65 272.45 147.95 272.4 148.05 Q267.5 157.3 261.05 164.7 L237.0 190.75 225.05 203.15 Q200.1 195.15 200.1 170.1 200.1 166.0 200.95 161.55 L206.15 159.55 Q213.5 156.2 231.65 149.85 236.85 147.65 253.55 145.3 L266.15 143.65 M176.9 162.15 Q174.35 166.85 171.0 171.05 161.1 183.5 147.5 188.15 146.05 171.8 146.05 150.2 L146.5 139.9 Q153.45 143.5 163.3 151.15 170.4 158.9 176.9 162.15 M140.6 371.0 L141.8 363.35 141.8 363.15 Q142.55 357.45 143.85 352.8 144.7 349.55 145.9 346.8 L146.15 346.25 149.65 337.2 153.8 326.45 158.15 315.15 158.8 313.4 160.55 316.65 158.15 315.15 160.55 316.65 162.0 319.2 Q164.0 322.6 164.0 330.35 L164.0 333.0 162.7 332.2 153.8 326.45 162.7 332.2 164.0 333.0 Q163.85 338.7 163.3 345.1 L163.25 345.55 162.3 345.0 Q154.75 340.1 149.65 337.2 154.75 340.1 162.3 345.0 L163.25 345.55 Q162.75 351.75 162.65 357.5 L162.6 360.25 162.65 369.05 161.0 367.95 Q148.7 359.4 143.85 352.8 148.7 359.4 161.0 367.95 L162.65 369.05 162.65 370.35 Q162.9 373.3 165.35 383.55 L165.35 383.6 Q165.65 384.85 168.9 393.2 L169.45 394.6 169.55 394.8 169.7 395.6 169.55 394.8 169.95 395.8 169.7 395.6 168.9 395.0 164.8 391.8 163.85 391.0 158.05 386.25 156.8 385.15 Q146.25 375.7 140.6 371.0 M174.95 272.9 L174.75 271.0 174.55 270.1 177.65 270.1 190.05 272.85 Q196.8 274.3 202.25 276.15 207.15 277.8 222.05 283.75 L222.1 288.85 Q210.8 283.3 204.9 280.7 L203.35 280.05 204.9 280.7 Q210.8 283.3 222.1 288.85 221.9 293.35 220.85 298.95 217.15 298.0 213.75 296.7 L203.2 291.85 Q190.2 285.6 175.7 284.6 L175.6 284.6 175.7 284.6 Q190.2 285.6 203.2 291.85 L213.75 296.7 Q217.15 298.0 220.85 298.95 L219.65 304.55 218.05 310.7 215.75 318.3 211.35 331.5 207.85 341.5 207.75 341.85 Q204.8 349.55 194.6 355.05 L191.4 356.6 Q180.1 361.7 170.8 360.8 170.1 358.6 170.05 355.8 L169.0 355.85 Q168.8 352.25 169.8 348.6 170.1 347.35 170.55 346.15 L171.55 343.8 170.15 343.95 170.05 340.05 170.15 335.7 170.3 333.9 Q170.65 332.65 172.05 330.25 L211.35 331.5 172.05 330.25 168.9 330.25 Q169.05 326.55 170.45 322.9 L170.7 322.2 Q171.8 319.65 174.2 315.65 L174.25 315.55 Q178.8 313.65 197.55 315.55 L215.75 318.3 197.55 315.55 Q178.8 313.65 174.25 315.55 L174.2 315.55 Q173.8 313.75 173.8 310.05 L173.8 308.95 Q173.8 305.6 173.95 304.95 L174.85 300.85 179.45 300.85 219.65 304.55 179.45 300.85 174.85 300.85 172.95 300.85 Q172.6 298.25 173.15 295.4 173.35 294.15 173.7 292.9 L173.8 292.55 174.7 289.05 175.6 284.6 173.5 284.6 172.85 284.6 173.45 281.2 173.85 278.7 Q175.15 277.85 175.75 277.55 177.3 276.75 181.45 276.75 185.25 276.75 196.8 279.1 L203.4 280.45 203.35 280.05 Q190.9 274.75 175.7 272.9 L175.0 272.9 174.95 272.9 M146.15 346.25 Q153.3 349.8 159.7 355.0 L162.65 357.5 159.7 355.0 Q153.3 349.8 146.15 346.25 M141.8 363.35 Q151.0 373.6 162.05 381.35 L165.35 383.6 162.05 381.35 Q151.0 373.6 141.8 363.35 M221.85 281.85 L222.05 281.65 221.85 281.85 M207.75 341.85 L202.4 342.05 171.55 343.8 202.4 342.05 207.75 341.85 M170.05 355.8 L194.6 355.05 170.05 355.8 M270.75 712.4 L270.4 712.35 270.75 712.35 270.75 712.4 M93.3 772.1 L83.65 801.85 93.3 772.1" fill="#e1e1e1" fill-rule="evenodd" stroke="none"/>
    <path d="M381.2 993.45 L370.55 993.45 365.95 989.2 Q345.35 969.85 335.55 952.7 320.15 925.7 315.2 913.2 310.4 901.15 305.65 877.9 303.2 866.15 298.65 850.9 L290.1 823.15 285.0 805.9 284.25 797.35 284.2 796.5 283.2 796.55 283.3 799.75 283.8 815.75 Q284.35 835.35 284.25 845.75 284.1 860.6 287.65 868.85 289.9 874.1 290.55 876.35 292.1 881.6 292.8 889.6 296.0 925.4 311.65 960.85 316.5 971.8 325.85 989.85 L327.7 993.45 297.9 993.45 Q272.5 955.6 259.7 893.9 252.15 857.7 237.4 812.9 L227.25 783.85 227.55 791.45 226.55 791.3 226.5 795.5 Q226.5 828.95 228.5 846.45 231.7 874.7 232.95 897.05 236.45 960.7 242.05 993.45 L214.95 993.45 Q208.35 975.4 204.2 950.2 199.35 920.95 191.95 882.75 184.5 844.5 180.1 815.5 L174.8 785.0 Q173.3 807.1 170.35 854.95 L165.4 930.55 Q163.45 958.3 162.0 972.15 160.8 983.05 154.95 993.45 L120.5 993.45 Q121.6 971.25 122.65 954.1 125.4 908.4 131.35 880.0 141.95 829.4 141.95 754.25 141.95 736.1 141.65 730.0 L141.8 728.35 142.8 716.75 141.8 728.35 141.65 730.0 141.25 729.85 Q138.35 737.65 136.1 745.1 131.7 759.7 127.85 779.6 L121.1 814.05 Q116.35 835.3 108.9 856.5 103.85 870.9 98.45 895.5 92.25 923.8 89.2 934.1 82.85 955.55 73.2 971.9 66.5 983.2 57.55 993.45 L46.15 993.45 Q78.0 883.05 91.15 828.2 116.1 724.2 114.65 673.65 L114.3 673.65 Q110.8 705.95 102.65 738.7 98.85 753.95 93.3 772.1 90.4 765.9 89.35 760.65 88.5 756.3 88.45 750.4 L88.55 738.9 Q88.55 716.9 92.85 689.8 97.1 662.7 97.1 638.9 97.1 632.3 96.25 622.65 L96.95 622.6 Q98.6 629.25 100.1 630.95 101.45 632.5 104.5 633.0 L104.5 633.35 107.4 634.35 107.45 634.35 111.15 635.8 Q116.0 637.75 123.0 640.95 113.85 641.55 101.4 641.55 103.5 652.15 113.5 659.7 124.2 667.8 137.75 667.1 141.8 667.0 148.95 671.35 157.75 676.75 163.35 685.35 165.85 689.15 174.0 691.5 178.35 692.75 184.75 693.9 187.3 694.6 207.95 703.75 226.35 711.9 236.1 713.2 240.55 713.8 249.25 713.35 257.6 712.9 260.75 713.4 266.05 714.3 267.7 718.15 269.65 722.7 267.2 732.35 L301.3 732.35 314.15 726.9 315.95 726.1 319.35 738.5 Q323.85 757.7 322.7 776.3 321.45 796.5 324.55 813.35 326.15 821.85 334.5 852.2 351.6 913.75 361.8 943.7 370.75 969.8 381.2 993.45 M225.3 284.45 Q226.05 287.15 226.45 290.95 226.9 294.95 227.0 300.15 L227.0 300.3 226.7 319.5 226.4 330.25 226.25 334.8 226.25 340.0 Q226.3 345.35 226.9 351.4 L227.4 355.9 227.95 362.5 228.5 370.8 220.9 370.8 208.45 371.85 207.65 371.95 Q195.1 373.9 189.15 374.05 188.8 375.95 187.7 378.6 186.45 381.65 185.0 382.8 L184.85 382.95 Q169.3 373.5 162.65 369.05 169.3 373.5 184.85 382.95 L185.95 383.6 Q184.7 385.45 183.8 389.75 183.3 392.25 182.2 393.75 L181.75 394.3 181.25 393.95 181.2 394.75 181.2 399.4 Q180.9 401.7 179.95 403.2 L169.95 395.8 169.55 394.8 169.45 394.6 168.9 393.2 Q165.65 384.85 165.35 383.6 L165.35 383.55 Q162.9 373.3 162.65 370.35 L162.65 369.05 162.6 360.25 162.65 357.5 Q162.75 351.75 163.25 345.55 L163.3 345.1 Q163.85 338.7 164.0 333.0 L164.0 330.35 Q164.0 322.6 162.0 319.2 L160.55 316.65 158.8 313.4 161.95 305.3 165.7 295.65 168.3 295.95 173.15 295.4 Q172.6 298.25 172.95 300.85 L174.85 300.85 173.95 304.95 Q173.8 305.6 173.8 308.95 L173.8 310.05 Q173.8 313.75 174.2 315.55 L174.2 315.65 Q171.8 319.65 170.7 322.2 L170.45 322.9 167.05 321.0 160.55 316.65 167.05 321.0 170.45 322.9 Q169.05 326.55 168.9 330.25 L172.05 330.25 Q170.65 332.65 170.3 333.9 L170.15 335.7 170.05 340.05 170.15 343.95 171.55 343.8 170.55 346.15 Q170.1 347.35 169.8 348.6 168.8 352.25 169.0 355.85 L170.05 355.8 Q170.1 358.6 170.8 360.8 180.1 361.7 191.4 356.6 L194.6 355.05 Q204.8 349.55 207.75 341.85 L207.9 341.85 207.85 341.5 211.35 331.5 226.4 330.25 211.35 331.5 215.75 318.3 218.05 310.7 219.65 304.55 221.75 304.6 219.65 304.55 220.85 298.95 Q221.9 293.35 222.1 288.85 L222.05 283.75 221.85 281.85 222.05 281.65 225.3 284.45 M267.05 143.5 L275.05 142.55 272.6 147.65 267.05 143.5 M176.9 162.15 Q182.55 164.95 187.7 164.3 195.15 163.35 200.95 161.55 200.1 166.0 200.1 170.1 200.1 195.15 225.05 203.15 L215.8 212.15 Q213.85 213.85 210.5 217.5 204.35 213.0 197.55 204.95 190.75 196.9 184.5 181.6 175.55 206.55 157.7 216.55 L152.7 219.0 Q151.55 215.15 150.75 211.45 148.65 201.55 147.5 188.15 161.1 183.5 171.0 171.05 174.35 166.85 176.9 162.15 M174.1 261.95 L174.2 261.95 174.2 262.15 174.1 261.95 M74.3 215.95 L74.6 216.25 74.25 216.05 74.3 215.95 M161.95 305.3 L173.8 308.95 161.95 305.3 M226.45 290.95 L222.1 288.85 226.45 290.95 M226.7 319.5 L215.75 318.3 226.7 319.5 M226.9 351.4 Q210.7 354.35 196.65 355.0 L194.6 355.05 196.65 355.0 Q210.7 354.35 226.9 351.4 M226.25 340.0 L207.9 341.85 226.25 340.0 M220.85 298.95 L227.0 300.3 220.85 298.95 M170.15 335.7 Q166.9 334.75 164.0 333.0 166.9 334.75 170.15 335.7 M171.65 362.85 Q171.15 361.9 170.8 360.8 171.15 361.9 171.65 362.85 L171.75 363.1 171.9 363.4 171.9 363.1 171.65 362.85 M227.95 362.5 Q210.05 363.05 171.9 363.1 210.05 363.05 227.95 362.5 M163.25 345.55 Q166.85 347.6 169.8 348.6 166.85 347.6 163.25 345.55 M171.9 363.4 L171.9 365.95 162.65 357.5 171.9 365.95 171.9 363.4 M171.9 365.95 L171.9 367.25 174.55 373.3 188.3 374.05 189.15 374.05 188.3 374.05 174.55 373.3 171.9 367.25 171.9 365.95 M165.35 383.6 L168.65 385.7 173.0 388.5 181.25 393.95 173.0 388.5 168.65 385.7 165.35 383.6 M226.9 774.55 L227.25 783.85 226.9 774.55 M281.65 757.65 L284.2 796.5 281.65 757.65" fill="#cccccc" fill-rule="evenodd" stroke="none"/>
    <path d="M336.2 727.4 L336.4 733.55 Q335.0 731.2 333.95 728.3 332.6 724.8 331.5 723.6 329.8 721.7 326.5 721.7 325.9 721.7 315.95 726.1 L314.15 726.9 301.3 732.35 267.2 732.35 Q269.65 722.7 267.7 718.15 266.05 714.3 260.75 713.4 257.6 712.9 249.25 713.35 240.55 713.8 236.1 713.2 226.35 711.9 207.95 703.75 187.3 694.6 184.75 693.9 178.35 692.75 174.0 691.5 165.85 689.15 163.35 685.35 157.75 676.75 148.95 671.35 141.8 667.0 137.75 667.1 124.2 667.8 113.5 659.7 103.5 652.15 101.4 641.55 113.85 641.55 123.0 640.95 L126.25 642.4 Q135.7 646.7 143.8 646.9 L144.4 647.1 Q147.65 648.2 150.3 650.9 152.05 652.65 156.0 658.4 157.6 660.75 159.15 662.5 160.85 664.55 162.4 665.8 166.75 669.25 172.8 669.9 178.35 670.5 184.2 673.45 187.8 675.25 191.55 677.95 199.4 683.65 204.25 690.35 207.25 694.45 223.35 695.95 L249.5 698.0 256.65 699.1 268.95 701.5 270.4 712.35 270.75 712.4 270.65 713.15 Q270.65 719.35 291.5 719.5 L301.8 718.9 311.1 717.6 313.45 717.0 313.6 716.95 Q319.45 715.25 323.6 712.8 326.2 711.2 329.85 711.2 L332.6 711.35 335.4 711.7 336.2 727.4 M370.55 993.45 L348.05 993.45 Q327.65 963.75 310.9 917.85 290.3 861.45 285.0 805.9 L290.1 823.15 298.65 850.9 Q303.2 866.15 305.65 877.9 310.4 901.15 315.2 913.2 320.15 925.7 335.55 952.7 345.35 969.85 365.95 989.2 L370.55 993.45 M297.9 993.45 L268.4 993.45 Q256.1 951.6 248.05 913.9 237.0 862.25 227.55 791.45 L227.25 783.85 237.4 812.9 Q252.15 857.7 259.7 893.9 272.5 955.6 297.9 993.45 M214.95 993.45 L154.95 993.45 Q160.8 983.05 162.0 972.15 163.45 958.3 165.4 930.55 L170.35 854.95 Q173.3 807.1 174.8 785.0 L180.1 815.5 Q184.5 844.5 191.95 882.75 199.35 920.95 204.2 950.2 208.35 975.4 214.95 993.45 M80.15 993.45 L57.55 993.45 Q66.5 983.2 73.2 971.9 82.85 955.55 89.2 934.1 92.25 923.8 98.45 895.5 103.85 870.9 108.9 856.5 116.35 835.3 121.1 814.05 L127.85 779.6 Q131.7 759.7 136.1 745.1 138.35 737.65 141.25 729.85 L141.65 730.0 Q137.6 774.0 131.0 808.95 127.25 828.65 113.65 885.5 L106.55 915.05 Q102.85 929.4 98.25 942.5 97.5 944.65 94.05 957.5 L89.7 972.45 86.5 981.1 Q85.0 985.1 80.15 993.45 M152.7 219.0 L157.7 216.55 Q175.55 206.55 184.5 181.6 190.75 196.9 197.55 204.95 204.35 213.0 210.5 217.5 L210.45 217.6 209.9 218.15 Q203.7 224.95 192.85 237.95 L184.55 249.25 Q180.85 254.35 176.7 261.95 L174.2 261.95 174.1 261.95 Q158.65 239.15 152.7 219.0 M164.8 391.8 L168.9 395.0 169.7 395.6 169.75 395.85 Q173.85 418.2 173.85 431.75 173.85 466.6 169.7 492.3 166.25 513.6 156.85 545.25 149.0 572.4 140.25 592.8 134.1 607.1 128.3 616.3 122.8 619.15 117.6 620.85 112.4 622.55 108.6 623.15 L102.2 623.65 100.6 623.45 Q103.45 618.0 103.8 608.1 L103.95 597.95 104.0 595.55 Q114.65 583.5 124.5 565.65 138.4 540.4 152.15 495.9 163.1 460.3 165.3 430.7 165.85 423.3 165.85 416.25 165.85 411.65 164.75 399.95 L164.55 397.9 164.8 391.8" fill="#bfbfbf" fill-rule="evenodd" stroke="none"/>
    <path d="M228.5 370.8 Q229.3 384.6 229.65 401.2 230.05 420.55 233.6 438.35 237.15 456.15 248.15 488.75 L248.15 490.15 248.15 492.9 246.65 493.3 246.25 493.3 Q245.55 493.3 244.0 491.05 L243.25 489.95 239.9 484.1 Q235.0 474.95 233.45 469.5 231.25 461.7 229.65 451.85 L227.4 437.05 Q226.0 428.8 225.7 416.85 L225.45 397.1 Q224.95 380.3 220.9 370.8 L228.5 370.8 M128.6 439.7 Q129.5 431.3 131.15 420.8 134.2 401.6 137.4 387.25 L140.6 371.0 Q146.25 375.7 156.8 385.15 L158.05 386.25 157.5 386.85 Q153.05 398.4 154.6 407.75 153.7 422.9 149.15 437.3 L139.0 468.0 Q136.1 476.35 133.15 480.45 130.3 484.3 127.35 484.3 121.3 484.25 121.3 480.25 L121.35 479.7 Q121.65 477.1 124.15 469.2 L125.1 466.15 Q127.4 458.1 127.7 452.15 127.9 446.65 128.6 439.7" fill="#7a82b8" fill-rule="evenodd" stroke="none"/>
    <path d="M158.05 386.25 L163.85 391.0 164.55 397.9 164.45 399.95 Q162.6 434.05 154.25 464.45 L152.65 470.15 Q146.95 482.8 139.1 482.8 136.2 482.8 133.6 480.8 L133.15 480.45 Q136.1 476.35 139.0 468.0 L149.15 437.3 Q153.7 422.9 154.6 407.75 153.05 398.4 157.5 386.85 L158.05 386.25 M208.45 371.85 L220.9 370.8 Q224.95 380.3 225.45 397.1 L225.7 416.85 Q226.0 428.8 227.4 437.05 L229.65 451.85 Q231.25 461.7 233.45 469.5 235.0 474.95 239.9 484.1 L243.25 489.95 Q241.8 490.95 240.2 491.45 L233.25 492.15 Q224.95 492.15 221.85 480.45 219.75 472.4 219.05 450.8 218.15 422.8 216.9 411.2 214.55 388.5 208.45 371.85 M208.9 583.85 L208.15 591.1 Q205.95 604.75 197.55 618.05 196.1 620.35 191.05 630.35 186.55 639.3 182.8 644.6 173.25 658.0 159.15 662.5 157.6 660.75 156.0 658.4 152.05 652.65 150.3 650.9 147.65 648.2 144.4 647.1 L144.5 646.9 Q162.1 646.9 176.3 633.9 190.45 620.85 195.95 610.75 200.05 603.2 208.9 583.85 M284.6 706.8 Q281.65 694.35 280.2 686.45 277.5 671.9 277.7 661.25 277.9 650.2 275.7 615.25 L275.7 552.3 Q278.9 568.25 280.9 589.15 282.9 610.05 286.7 631.6 290.45 653.15 293.35 674.95 296.25 696.7 302.3 706.25 308.35 715.75 311.1 717.6 L301.8 718.9 291.5 719.5 Q270.65 719.35 270.65 713.15 L270.75 712.4 270.75 712.35 Q271.1 710.2 273.65 710.05 L280.7 710.4 Q283.35 710.4 284.2 709.7 284.9 709.1 284.9 707.45 L284.85 707.2 284.6 706.8" fill="#a2a6ce" fill-rule="evenodd" stroke="none"/>
    <path d="M326.15 146.4 L328.45 142.55 M382.55 209.8 Q378.2 153.2 374.25 133.3 369.95 111.75 359.05 93.75 348.1 75.75 317.55 73.7 L305.45 72.4 303.6 77.95 M383.1 217.15 L382.55 209.8 Q391.15 214.25 391.15 221.95 L391.0 223.05 Q390.65 225.0 390.55 227.75 390.4 232.85 391.0 240.7 L391.4 244.9 M345.25 716.65 L346.7 720.4 Q346.65 723.85 343.4 725.8 340.55 727.5 336.2 727.4 L336.4 733.55 336.95 753.6 Q337.75 781.9 340.8 798.5 343.0 810.35 349.05 838.25 353.6 859.05 355.4 872.4 357.65 888.25 363.85 909.95 369.1 928.35 373.7 939.5 L380.65 957.0 Q386.15 970.6 390.95 980.65 394.35 987.7 397.6 993.45 M18.85 993.45 Q43.0 917.05 58.8 872.35 L83.5 802.35 83.65 801.85 93.3 772.1 Q98.85 753.95 102.65 738.7 110.8 705.95 114.3 673.65 M82.95 802.0 L82.95 801.95 Q80.85 789.05 80.85 745.55 80.85 722.8 82.9 698.2 78.4 698.05 75.25 696.65 72.5 695.4 70.15 692.85 L69.0 691.5 64.7 686.0 Q62.4 683.75 59.1 683.45 L57.95 683.4 Q56.35 683.4 52.7 684.15 L46.4 684.85 Q37.0 684.85 32.2 678.75 29.2 675.0 28.0 668.95 L27.9 668.55 28.5 662.45 Q28.75 659.25 29.4 656.1 29.95 653.25 30.85 650.45 32.65 644.5 33.15 632.1 33.6 619.7 32.4 612.15 14.85 612.45 0.0 623.0 L0.0 623.15 0.7 623.15 M383.1 217.15 L383.25 219.0 M368.85 236.9 L369.9 236.3 M315.3 222.0 L315.25 227.1 Q315.25 232.85 317.0 237.2 317.75 239.0 320.65 243.9 324.85 250.9 324.45 260.3 L333.95 255.25 362.6 240.3 368.85 236.9 M313.8 270.6 L313.7 270.85 312.0 274.9 311.9 275.15 Q308.0 275.9 303.0 279.65 299.65 282.1 293.25 284.05 L285.3 286.0 283.85 286.25 280.2 286.9 Q269.7 288.6 259.45 288.6 246.45 288.6 234.75 283.0 233.45 282.35 227.5 279.1 L226.9 278.8 Q224.15 277.35 222.95 277.35 220.4 277.35 218.7 279.15 L221.05 280.85 224.0 280.85 Q224.75 282.35 225.3 284.45 226.05 287.15 226.45 290.95 226.9 294.95 227.0 300.15 L227.0 300.3 226.7 319.5 226.4 330.25 226.25 334.8 226.25 340.0 Q226.3 345.35 226.9 351.4 L227.4 355.9 227.95 362.5 228.5 370.8 Q229.3 384.6 229.65 401.2 230.05 420.55 233.6 438.35 237.15 456.15 248.15 488.75 L248.15 490.15 248.15 492.9 246.65 493.3 246.25 493.3 Q245.55 493.3 244.0 491.05 L243.25 489.95 239.9 484.1 Q235.0 474.95 233.45 469.5 231.25 461.7 229.65 451.85 L227.4 437.05 Q226.0 428.8 225.7 416.85 L225.45 397.1 Q224.95 380.3 220.9 370.8 L228.5 370.8 M355.05 270.85 L355.85 270.65 359.55 269.75 M319.75 220.45 L319.95 221.7 M355.05 270.85 L343.2 273.75 Q333.0 276.2 324.7 275.4 L312.35 275.05 311.9 275.15 M218.25 92.7 L227.15 92.2 245.75 92.85 259.95 93.75 Q263.9 94.15 275.75 93.7 L276.1 93.7 M266.15 143.65 L267.05 143.5 275.05 142.55 Q283.8 116.55 291.55 104.0 298.1 93.35 303.6 77.95 M305.45 72.4 Q284.0 69.3 272.8 60.6 258.65 49.55 254.55 30.85 253.45 11.45 253.3 2.55 M153.0 71.65 L152.15 77.05 M193.4 96.65 Q195.9 102.15 201.05 97.7 L202.25 96.55 M156.05 81.3 Q158.6 84.35 176.15 91.0 L178.95 92.05 M176.9 162.15 Q182.55 164.95 187.7 164.3 195.15 163.35 200.95 161.55 L206.15 159.55 Q213.5 156.2 231.65 149.85 236.85 147.65 253.55 145.3 L266.15 143.65 M176.9 162.15 Q170.4 158.9 163.3 151.15 153.45 143.5 146.5 139.9 L146.05 150.2 Q146.05 171.8 147.5 188.15 148.65 201.55 150.75 211.45 151.55 215.15 152.7 219.0 158.65 239.15 174.1 261.95 L174.2 261.95 176.7 261.95 182.1 261.95 Q200.75 269.35 203.9 270.85 212.5 274.85 218.7 279.15 M210.5 217.5 Q213.85 213.85 215.8 212.15 L225.05 203.15 237.0 190.75 261.05 164.7 Q267.5 157.3 272.4 148.05 L272.45 147.95 272.6 147.65 275.05 142.55 M210.45 217.6 L209.9 218.15 Q203.7 224.95 192.85 237.95 L184.55 249.25 Q180.85 254.35 176.7 261.95 M310.3 198.5 L309.95 197.6 Q309.35 195.95 311.8 190.25 314.2 184.55 315.7 178.85 318.2 171.35 319.3 165.2 321.05 155.4 326.15 146.4 M147.25 123.7 L147.85 108.3 Q147.8 105.75 149.8 92.7 L152.0 78.1 152.15 77.05 M94.65 223.05 L95.65 223.9 M79.4 194.4 Q75.85 197.8 75.3 200.45 75.05 201.45 75.25 202.35 L75.25 205.05 74.7 215.3 74.6 216.25 Q73.65 227.7 72.3 231.65 M93.2 221.45 Q91.2 219.1 88.5 214.95 L81.25 203.55 80.95 203.15 M124.8 123.85 Q124.45 119.0 124.45 116.7 M146.5 139.9 L146.9 130.65 147.25 123.7 M83.5 179.5 Q79.95 193.85 79.4 194.4 M121.35 236.35 L122.1 237.3 122.25 237.45 Q124.0 239.55 126.35 241.65 L131.0 245.75 Q133.05 247.7 134.2 249.8 M134.95 249.3 L136.15 244.55 Q133.15 240.55 129.05 233.9 M136.15 244.55 L136.65 245.25 Q139.95 249.9 141.3 253.05 143.75 258.65 143.8 273.05 L145.35 273.75 M123.55 263.85 L129.85 266.65 125.55 260.95 Q122.35 256.4 118.65 254.8 99.8 246.7 99.8 243.45 99.8 241.65 100.95 238.2 102.35 234.05 103.95 234.05 106.4 234.05 112.95 247.85 M123.55 263.85 Q115.95 260.45 111.5 258.7 L108.1 257.45 M128.6 439.7 Q129.5 431.3 131.15 420.8 134.2 401.6 137.4 387.25 L140.6 371.0 141.8 363.35 141.8 363.15 Q142.55 357.45 143.85 352.8 144.7 349.55 145.9 346.8 L146.15 346.25 149.65 337.2 153.8 326.45 158.15 315.15 158.8 313.4 161.95 305.3 165.7 295.65 165.05 295.3 162.4 293.55 M162.45 292.25 Q159.9 291.45 158.3 289.15 L155.3 289.0 154.0 288.85 155.2 287.7 Q156.5 286.6 158.4 285.55 L158.7 285.2 161.65 281.6 145.35 273.75 M94.65 223.05 L93.2 221.45 M93.75 257.65 L94.4 257.6 97.0 257.55 99.6 257.6 M64.35 273.85 L64.75 274.65 67.7 272.45 69.05 271.4 M125.1 466.15 Q127.4 458.1 127.7 452.15 127.9 446.65 128.6 439.7 M71.0 221.4 L70.55 222.05 Q65.45 230.7 65.45 232.35 65.45 234.6 69.05 238.65 L70.15 239.85 71.65 241.35 Q76.2 245.7 84.1 251.75 L84.3 251.9 M134.7 250.7 L134.95 249.3 M136.25 268.5 Q134.5 265.85 134.5 262.9 134.5 260.8 135.1 259.35 135.65 257.9 135.65 255.15 135.65 252.85 134.7 250.7 L134.2 249.8 M129.85 266.65 L131.45 267.4 135.85 269.4 M136.25 268.5 L137.25 270.05 143.8 273.05 M137.25 270.05 L135.85 269.4 M158.8 285.3 L163.65 282.6 165.1 281.6 Q167.75 279.6 174.5 275.3 L174.75 274.0 174.95 273.1 174.95 272.9 174.75 271.0 M163.4 279.2 L161.65 281.6 M158.3 289.15 L159.25 289.15 Q164.85 289.15 168.1 287.45 L169.05 287.0 172.95 284.9 173.5 284.6 175.6 284.6 175.7 284.6 Q190.2 285.6 203.2 291.85 L213.75 296.7 Q217.15 298.0 220.85 298.95 M172.85 284.6 L173.45 281.2 M158.8 285.3 L158.4 285.55 M74.7 215.3 L74.3 215.95 74.25 216.05 71.15 221.1 71.15 221.5 M71.15 221.1 L71.0 221.4 M69.05 238.65 L69.4 239.05 70.15 239.85 M69.4 239.05 Q67.85 245.4 66.75 247.95 65.4 251.05 61.85 255.2 62.4 259.65 62.4 266.45 62.75 270.7 64.35 273.85 M69.2 271.3 L69.05 271.4 M93.75 257.65 Q86.5 258.55 78.05 264.5 L69.2 271.3 M64.75 274.65 L64.6 274.75 63.0 275.8 M121.35 479.7 Q121.65 477.1 124.15 469.2 L125.1 466.15 M158.15 315.15 L160.55 316.65 167.05 321.0 170.45 322.9 170.7 322.2 Q171.8 319.65 174.2 315.65 L174.2 315.55 Q173.8 313.75 173.8 310.05 L173.8 308.95 161.95 305.3 M143.85 352.8 Q148.7 359.4 161.0 367.95 L162.65 369.05 Q169.3 373.5 184.85 382.95 L185.0 382.8 Q186.45 381.65 187.7 378.6 188.8 375.95 189.15 374.05 L188.3 374.05 174.55 373.3 171.9 367.25 171.9 365.95 171.9 363.4 171.75 363.1 171.65 362.85 171.9 363.1 Q210.05 363.05 227.95 362.5 M162.65 357.5 L159.7 355.0 Q153.3 349.8 146.15 346.25 M140.6 371.0 Q146.25 375.7 156.8 385.15 L158.05 386.25 163.85 391.0 164.8 391.8 168.9 395.0 169.7 395.6 169.55 394.8 M165.35 383.6 L162.05 381.35 Q151.0 373.6 141.8 363.35 M311.55 201.9 L310.6 199.35 310.3 198.5 M293.25 284.05 Q290.35 278.9 289.8 274.45 289.15 269.6 288.9 262.05 288.65 254.5 294.85 240.8 300.65 227.75 304.5 217.45 L304.9 216.3 305.75 214.05 Q308.15 207.95 311.55 201.9 312.65 204.95 315.05 209.45 L317.1 213.5 Q319.2 217.85 319.75 220.45 M317.1 213.5 Q315.7 217.9 315.45 219.75 L315.3 222.0 M324.45 260.3 Q318.8 263.4 315.6 265.55 L313.8 270.6 M210.5 217.5 L210.7 217.75 M210.45 217.6 L210.5 217.5 M163.4 279.2 Q166.25 275.1 167.9 271.1 L170.25 269.5 174.2 267.45 174.2 262.15 174.2 261.95 M174.55 270.1 L174.75 271.0 M174.2 267.45 L174.2 269.15 174.55 270.1 M222.05 281.65 L221.05 280.85 M174.95 273.1 L175.0 272.9 174.95 272.9 M175.0 272.9 L175.7 272.9 Q190.9 274.75 203.35 280.05 L204.9 280.7 Q210.8 283.3 222.1 288.85 L226.45 290.95 M173.85 278.7 L173.45 281.2 M172.85 284.6 L173.5 284.6 M174.5 275.3 L173.85 278.7 M165.7 295.65 L168.3 295.95 173.15 295.4 Q173.35 294.15 173.7 292.9 L173.8 292.55 174.7 289.05 175.6 284.6 M164.3 292.65 L162.45 292.25 M174.7 289.05 L167.25 291.55 164.3 292.65 161.9 293.55 M225.3 284.45 L222.05 281.65 M215.75 318.3 L226.7 319.5 M219.65 304.55 L221.75 304.6 M219.65 304.55 L179.45 300.85 174.85 300.85 173.95 304.95 Q173.8 305.6 173.8 308.95 M207.75 341.85 L207.9 341.85 226.25 340.0 M194.6 355.05 L196.65 355.0 Q210.7 354.35 226.9 351.4 M211.35 331.5 L172.05 330.25 Q170.65 332.65 170.3 333.9 L170.15 335.7 170.05 340.05 170.15 343.95 171.55 343.8 202.4 342.05 207.75 341.85 M227.0 300.3 L220.85 298.95 M226.4 330.25 L211.35 331.5 M215.75 318.3 L197.55 315.55 Q178.8 313.65 174.25 315.55 L174.2 315.65 M174.85 300.85 L172.95 300.85 Q172.6 298.25 173.15 295.4 M174.2 315.55 L174.25 315.55 M164.0 333.0 Q166.9 334.75 170.15 335.7 M170.45 322.9 Q169.05 326.55 168.9 330.25 L172.05 330.25 M164.0 333.0 L162.7 332.2 153.8 326.45 M169.8 348.6 Q170.1 347.35 170.55 346.15 L171.55 343.8 M149.65 337.2 Q154.75 340.1 162.3 345.0 L163.25 345.55 M170.8 360.8 Q171.15 361.9 171.65 362.85 M170.8 360.8 Q170.1 358.6 170.05 355.8 L169.0 355.85 Q168.8 352.25 169.8 348.6 166.85 347.6 163.25 345.55 M162.65 357.5 L171.9 365.95 M171.75 363.1 L171.9 363.1 171.9 363.4 M169.75 395.85 Q173.85 418.2 173.85 431.75 173.85 466.6 169.7 492.3 166.25 513.6 156.85 545.25 149.0 572.4 140.25 592.8 134.1 607.1 128.3 616.3 117.55 633.25 107.85 633.25 M107.4 634.35 L107.45 634.35 111.15 635.8 Q116.0 637.75 123.0 640.95 L126.25 642.4 Q135.7 646.7 143.8 646.9 L144.5 646.9 Q162.1 646.9 176.3 633.9 190.45 620.85 195.95 610.75 200.05 603.2 208.9 583.85 L215.5 569.15 M182.2 393.75 L181.75 394.3 181.2 394.75 181.2 399.4 Q180.9 401.7 179.95 403.2 L169.95 395.8 169.7 395.6 169.75 395.85 M181.75 394.3 L181.25 393.95 181.2 394.75 M181.25 393.95 L173.0 388.5 168.65 385.7 165.35 383.6 M185.95 383.6 Q184.7 385.45 183.8 389.75 183.3 392.25 182.2 393.75 M184.85 382.95 L185.95 383.6 M194.6 355.05 L170.05 355.8 M189.15 374.05 Q195.1 373.9 207.65 371.95 L208.45 371.85 220.9 370.8 M246.65 493.3 L248.05 493.2 M164.75 399.95 L164.55 397.9 164.45 399.95 M164.75 399.95 Q165.85 411.65 165.85 416.25 165.85 423.3 165.3 430.7 163.1 460.3 152.15 495.9 138.4 540.4 124.5 565.65 114.65 583.5 104.0 595.55 M100.6 623.45 L102.2 623.65 108.6 623.15 Q112.4 622.55 117.6 620.85 122.8 619.15 128.3 616.3 M159.15 662.5 Q160.85 664.55 162.4 665.8 166.75 669.25 172.8 669.9 178.35 670.5 184.2 673.45 187.8 675.25 191.55 677.95 199.4 683.65 204.25 690.35 207.25 694.45 223.35 695.95 L249.5 698.0 256.65 699.1 268.95 701.5 Q276.05 703.1 281.6 705.0 L282.2 705.25 282.4 705.3 282.4 705.35 284.6 706.8 Q281.65 694.35 280.2 686.45 277.5 671.9 277.7 661.25 277.9 650.2 275.7 615.25 L275.7 552.3 275.7 530.25 M133.15 480.45 Q136.1 476.35 139.0 468.0 L149.15 437.3 Q153.7 422.9 154.6 407.75 153.05 398.4 157.5 386.85 M121.35 479.7 L121.3 480.25 Q121.3 484.25 127.35 484.3 130.3 484.3 133.15 480.45 M152.65 470.15 L154.25 464.45 Q162.6 434.05 164.45 399.95 M105.45 445.75 Q104.3 464.45 101.35 481.25 100.4 486.7 92.85 522.25 90.65 532.9 87.6 540.6 85.95 544.75 79.85 557.25 75.95 565.15 66.95 576.4 L61.3 583.45 71.1 578.75 M152.65 470.15 Q142.8 502.9 125.9 528.15 106.45 557.25 79.1 574.15 L71.1 578.75 M88.8 611.95 L86.35 614.65 Q79.35 622.3 71.75 629.45 L53.2 645.95 52.7 646.4 52.6 646.45 52.0 646.6 M88.8 611.95 L94.45 605.25 95.1 604.5 Q99.6 600.5 104.0 595.55 M95.1 604.5 L94.65 607.25 Q87.25 654.8 84.25 683.6 L82.9 698.2 M96.95 622.6 L100.6 623.45 M96.95 622.6 Q98.6 629.25 100.1 630.95 101.45 632.5 104.5 633.0 L104.55 633.0 107.85 633.25 M104.5 633.0 L104.5 633.35 107.4 634.35 M144.4 647.1 Q147.65 648.2 150.3 650.9 152.05 652.65 156.0 658.4 157.6 660.75 159.15 662.5 M144.4 647.1 L143.8 646.9 M19.0 595.75 Q28.55 595.75 31.8 609.25 L32.4 612.15 M19.0 595.75 L16.6 595.9 15.05 596.15 Q9.9 597.3 6.25 601.4 1.2 607.1 0.0 617.3 L0.0 623.0 M18.95 595.5 L16.6 595.9 M69.85 691.35 L69.35 687.65 Q69.05 684.5 69.3 677.9 69.55 671.25 70.85 665.85 72.15 660.45 80.0 644.0 M70.15 692.85 L69.85 691.35 M141.65 730.0 L141.8 728.35 142.8 716.75 M227.55 791.45 L227.25 783.85 226.9 774.55 M332.6 711.35 L329.85 711.2 Q326.2 711.2 323.6 712.8 319.45 715.25 313.6 716.95 L313.45 717.0 311.1 717.6 301.8 718.9 291.5 719.5 Q270.65 719.35 270.65 713.15 L270.75 712.4 M270.4 712.35 L268.95 701.5 M284.6 706.8 L284.85 707.2 284.9 707.45 Q284.9 709.1 284.2 709.7 283.35 710.4 280.7 710.4 L273.65 710.05 Q271.1 710.2 270.75 712.35 L270.75 712.4 M282.4 705.35 L282.2 705.25 M61.3 583.45 Q43.45 591.15 18.95 595.5 M332.6 711.35 L335.4 711.7 Q339.05 712.4 341.95 714.05 344.05 715.3 345.25 716.65 M336.2 727.4 L335.4 711.7 M164.55 397.9 L164.8 391.8 M164.55 397.9 L163.85 391.0 M285.0 805.9 Q290.3 861.45 310.9 917.85 327.65 963.75 348.05 993.45 M285.0 805.9 L284.25 797.35 284.2 796.5 281.65 757.65 M80.15 993.45 Q85.0 985.1 86.5 981.1 L89.7 972.45 94.05 957.5 Q97.5 944.65 98.25 942.5 102.85 929.4 106.55 915.05 L113.65 885.5 Q127.25 828.65 131.0 808.95 137.6 774.0 141.65 730.0 M227.55 791.45 Q237.0 862.25 248.05 913.9 256.1 951.6 268.4 993.45" fill="none" stroke="#000000" stroke-linecap="round" stroke-linejoin="round" stroke-width="1.0"/>
    <path d="M391.4 244.9 L391.75 247.7 Q392.95 257.15 395.5 268.9 399.0 285.15 398.85 303.55 398.7 321.95 396.55 330.55 394.85 337.35 382.85 361.25 L382.5 361.95 Q362.7 398.85 341.0 426.5 L331.25 438.65 336.9 472.45 Q337.25 474.8 337.7 504.25 L335.7 630.75 Q335.7 666.1 336.4 675.45 338.15 697.65 345.25 716.65 M188.6 14.15 L189.55 18.7 189.6 18.9 189.6 19.05 190.1 23.95 Q190.85 33.0 190.1 39.25 189.0 47.7 182.0 53.95 174.95 60.2 166.75 64.6 L153.0 71.65 147.1 74.5 Q135.65 79.95 128.3 82.75 120.9 85.55 116.35 89.05 111.75 92.5 106.65 100.45 101.55 108.4 100.15 112.4 98.7 116.4 96.65 123.75 94.85 130.15 83.75 179.05 L82.5 184.85 M189.6 18.9 L190.1 23.95 M303.5 187.3 Q303.15 179.25 300.85 172.8 L295.35 158.8 M282.6 234.15 Q288.5 230.9 292.45 225.9 L294.7 222.7 Q302.2 210.35 303.3 196.55 303.7 191.7 303.5 187.3 M121.3 144.9 L122.9 141.0 Q125.4 134.0 124.95 125.8 L124.8 123.85 M121.3 144.9 L120.65 145.45 Q113.7 151.45 109.45 155.95 104.95 160.6 99.7 169.15 95.95 175.3 94.95 180.45 94.6 182.3 94.6 184.0 94.6 201.95 105.95 215.85 109.55 220.3 114.25 224.2 M82.95 182.4 L83.5 179.5 M129.75 234.25 L136.45 237.35 M129.05 233.9 Q120.65 229.55 114.25 224.2 M63.0 275.8 L65.9 301.25 Q67.55 316.9 69.6 327.15 71.6 337.4 80.2 373.65 81.55 380.85 88.95 404.5 93.65 419.45 105.45 445.75 L111.75 459.55 121.35 479.7 M282.6 234.15 Q271.5 240.25 253.45 240.25 237.5 240.25 224.15 229.9 M248.2 493.2 Q254.15 492.6 266.35 488.0 280.25 482.75 288.55 477.55 296.8 472.3 307.95 463.35 313.65 458.75 322.2 449.2 L331.25 438.65" fill="none" stroke="#000000" stroke-linecap="round" stroke-linejoin="round" stroke-width="1.0"/>
    <path d="M129.05 233.9 L129.75 234.25" fill="none" stroke="#00cc00" stroke-linecap="round" stroke-linejoin="round" stroke-width="1.0"/>
  </g>
</svg>
