<?xml version="1.0" encoding="UTF-8" standalone="no"?>
<svg xmlns:xlink="http://www.w3.org/1999/xlink" height="18.55px" width="28.25px" xmlns="http://www.w3.org/2000/svg">
  <g transform="matrix(1.0, 0.0, 0.0, 1.0, 0.0, 0.0)">
    <path d="M8.15 11.75 L7.85 11.35 7.3 10.55 Q13.35 14.1 21.5 11.5 L21.65 11.45 22.15 11.3 21.35 11.95 Q13.35 17.9 8.15 11.75 M12.45 2.75 Q-1.4 3.4 0.15 0.8 L12.45 2.75 M14.75 2.5 L28.25 0.0 Q28.55 2.2 14.75 2.5" fill="#000000" fill-rule="evenodd" stroke="none"/>
    <path d="M8.15 11.75 Q13.35 17.9 21.35 11.95 19.85 16.2 18.25 17.35 16.65 18.55 15.45 18.55 10.5 18.55 8.15 11.75" fill="#ffe2d5" fill-rule="evenodd" stroke="none"/>
  </g>
</svg>
