<?xml version="1.0" encoding="UTF-8" standalone="no"?>
<svg xmlns:xlink="http://www.w3.org/1999/xlink" height="181.0px" width="138.1px" xmlns="http://www.w3.org/2000/svg">
  <g transform="matrix(1.0, 0.0, 0.0, 1.0, 0.45, 0.5)">
    <path d="M2.9 96.95 Q1.15 88.1 0.1 65.35 -1.05 41.4 16.05 21.85 18.85 18.65 22.05 15.9 38.2 1.95 64.05 0.2 95.0 -1.9 116.1 19.75 137.15 41.4 137.15 72.9 137.15 84.3 134.5 94.5 125.75 131.85 114.95 147.55 104.1 163.2 84.55 177.95 L83.5 178.6 Q81.05 179.65 78.5 179.9 L78.3 179.65 Q90.5 168.9 98.25 157.7 109.05 142.0 117.8 104.65 120.45 94.45 120.45 83.05 120.45 81.4 121.8 84.65 L122.2 85.65 122.1 84.6 121.8 84.65 Q95.05 14.85 60.5 38.75 24.8 10.55 2.9 96.95 M66.55 135.65 Q70.25 138.75 75.3 136.3 L77.9 134.75 79.05 133.9 Q79.05 134.65 74.5 138.7 69.95 142.65 64.4 134.8 64.3 134.65 64.7 133.85 64.4 134.65 64.65 134.8 L66.55 135.65" fill="#ffe2d5" fill-rule="evenodd" stroke="none"/>
    <path d="M2.9 96.95 Q24.8 10.55 60.5 38.75 95.05 14.85 121.8 84.65 L122.1 84.6 122.2 85.65 121.8 84.65 Q120.45 81.4 120.45 83.05 120.45 94.45 117.8 104.65 109.05 142.0 98.25 157.7 90.5 168.9 78.3 179.65 L78.5 179.9 78.3 179.9 77.95 179.95 72.5 179.95 Q69.0 179.8 60.6 174.55 52.2 169.3 40.1 160.7 28.9 152.7 22.15 142.65 L21.1 141.05 Q19.0 137.7 7.9 112.75 L7.0 110.7 5.75 107.95 Q4.95 106.3 3.1 97.8 L2.9 96.95 M79.05 133.9 L79.1 133.8 79.05 133.85 78.9 133.9 78.4 134.05 Q70.55 136.5 64.65 133.3 L64.25 133.05 64.4 133.3 64.8 133.8 64.7 133.85 Q64.3 134.65 64.4 134.8 69.95 142.65 74.5 138.7 79.05 134.65 79.05 133.9" fill="#fff2ee" fill-rule="evenodd" stroke="none"/>
    <path d="M79.05 133.9 L77.9 134.75 75.3 136.3 Q70.25 138.75 66.55 135.65 L64.8 133.8 64.4 133.3 64.25 133.05 64.65 133.3 Q70.55 136.5 78.4 134.05 L78.9 133.9 79.05 133.85 79.1 133.8 79.05 133.9" fill="#000000" fill-rule="evenodd" stroke="none"/>
    <path d="M134.5 94.5 Q137.15 84.3 137.15 72.9 137.15 41.4 116.1 19.75 95.0 -1.9 64.05 0.2 38.2 1.95 22.05 15.9 18.85 18.65 16.05 21.85 -1.05 41.4 0.1 65.35 1.15 88.1 2.9 96.95 L3.1 97.8 Q4.95 106.3 5.75 107.95 L7.0 110.7 7.9 112.75 Q19.0 137.7 21.1 141.05 L22.15 142.65 Q28.9 152.7 40.1 160.7 52.2 169.3 60.6 174.55 69.0 179.8 72.5 179.95 L77.95 179.95 78.3 179.9 78.5 179.9 Q81.05 179.65 83.5 178.6" fill="none" stroke="#000000" stroke-linecap="round" stroke-linejoin="round" stroke-width="1.0"/>
    <path d="M83.5 178.6 L84.55 177.95 Q104.1 163.2 114.95 147.55 125.75 131.85 134.5 94.5 Z" fill="none" stroke="#000000" stroke-linecap="round" stroke-linejoin="round" stroke-width="1.0"/>
  </g>
</svg>
