<?xml version="1.0" encoding="UTF-8" standalone="no"?>
<svg xmlns:xlink="http://www.w3.org/1999/xlink" height="82.6px" width="78.1px" xmlns="http://www.w3.org/2000/svg">
  <g transform="matrix(1.0, 0.0, 0.0, 1.0, 0.3, 0.0)">
    <path d="M68.9 38.75 L68.75 34.6 Q65.8 33.6 62.4 33.6 L56.55 34.25 56.3 34.2 56.15 34.4 Q54.45 34.85 53.25 35.65 50.4 37.55 48.35 42.2 49.85 34.45 52.7 31.45 55.65 28.25 59.5 27.4 L59.7 26.1 Q59.7 19.45 55.4 12.55 50.75 5.2 45.5 5.2 L44.25 5.3 Q42.9 5.45 41.55 6.35 L38.4 5.95 Q32.4 5.95 27.15 12.1 21.7 18.5 21.7 26.35 L21.65 27.85 Q27.95 27.4 33.5 31.3 38.25 34.65 40.6 41.5 39.1 39.3 36.45 37.05 33.8 34.8 32.0 34.1 30.15 33.4 27.35 33.4 L24.1 33.65 22.7 34.2 22.75 34.6 23.35 37.8 21.8 38.0 17.4 39.15 19.45 40.25 19.4 40.3 19.65 40.5 19.9 40.75 19.55 40.9 19.1 41.1 Q20.4 42.15 22.6 44.75 L23.35 45.55 22.9 46.8 Q21.95 48.75 21.95 53.45 21.95 61.8 24.15 66.4 25.25 68.75 28.5 73.65 22.95 69.1 19.35 64.3 16.4 60.45 14.75 56.4 L15.0 54.5 13.9 49.9 13.3 50.6 Q12.0 52.0 10.35 52.0 7.8 52.0 3.8 45.1 0.0 38.6 0.0 35.6 0.0 32.3 3.0 32.3 3.55 32.3 5.2 33.9 L6.95 36.05 Q7.7 34.0 10.7 33.6 L10.45 29.75 Q10.45 16.0 18.05 8.05 25.45 0.35 38.0 0.0 L38.15 0.0 39.1 0.1 Q50.0 0.85 54.95 2.2 59.65 3.45 67.95 7.95 76.25 12.45 77.2 27.55 78.15 42.7 77.6 49.7 L73.45 54.85 Q72.05 59.3 69.35 63.55 L69.05 64.0 Q64.35 71.2 55.95 77.8 53.15 80.9 48.8 82.0 L48.75 81.9 52.1 79.55 Q54.85 77.05 59.45 71.2 61.95 68.55 65.2 61.3 69.2 52.35 69.2 45.8 L69.1 43.15 72.15 40.65 71.8 40.4 72.45 39.85 72.05 39.6 71.8 39.45 71.3 39.3 69.25 38.8 68.9 38.75 M57.75 5.45 L57.75 5.7 Q62.0 11.4 62.0 19.85 L61.9 25.05 66.95 25.25 Q68.45 25.45 69.2 26.15 L69.3 28.05 69.25 28.05 69.2 28.1 69.2 28.15 69.3 28.15 69.3 28.05 Q70.1 27.65 69.55 26.6 L69.2 26.15 Q68.05 15.45 57.75 5.45 M15.75 55.9 Q16.55 60.1 19.35 64.3 16.55 60.1 15.75 55.9 M72.15 55.0 Q71.4 60.15 69.35 63.55 71.4 60.15 72.15 55.0" fill="#ffceb7" fill-rule="evenodd" stroke="none"/>
    <path d="M23.35 37.8 L22.75 34.6 22.7 34.2 24.1 33.65 27.35 33.4 Q30.15 33.4 32.0 34.1 33.8 34.8 36.45 37.05 39.1 39.3 40.6 41.5 38.25 34.65 33.5 31.3 27.95 27.4 21.65 27.85 L21.7 26.35 Q21.7 18.5 27.15 12.1 32.4 5.95 38.4 5.95 L41.55 6.35 Q42.9 5.45 44.25 5.3 L45.5 5.2 Q50.75 5.2 55.4 12.55 59.7 19.45 59.7 26.1 L59.5 27.4 Q55.65 28.25 52.7 31.45 49.85 34.45 48.35 42.2 50.4 37.55 53.25 35.65 54.45 34.85 56.15 34.4 L56.3 34.2 56.55 34.25 62.4 33.6 Q65.8 33.6 68.75 34.6 L68.9 38.75 Q63.9 37.6 60.85 37.6 L57.5 37.7 55.2 38.6 54.95 39.0 54.9 39.05 54.5 40.1 Q54.3 40.4 54.25 40.75 L54.4 40.75 Q54.4 46.05 60.1 46.05 64.0 46.05 67.05 44.05 L69.4 42.35 71.8 40.4 72.15 40.65 69.1 43.15 69.2 45.8 Q69.2 52.35 65.2 61.3 61.95 68.55 59.45 71.2 54.85 77.05 52.1 79.55 L48.75 81.9 48.8 82.0 48.4 82.1 Q44.35 82.9 39.0 80.3 L34.25 77.45 32.4 76.1 28.5 73.65 Q25.25 68.75 24.15 66.4 21.95 61.8 21.95 53.45 21.95 48.75 22.9 46.8 L23.35 45.55 22.6 44.75 Q20.4 42.15 19.1 41.1 L19.55 40.9 19.9 40.75 22.9 43.95 23.65 44.75 Q25.65 46.55 28.55 46.55 30.8 46.55 33.65 45.1 35.8 44.0 36.5 42.85 L36.8 41.7 Q36.8 41.05 36.4 40.5 L35.55 39.85 Q34.6 39.0 32.65 38.3 30.9 37.6 26.8 37.6 L23.35 37.8 M57.75 5.45 Q68.05 15.45 69.2 26.15 L69.55 26.6 Q70.1 27.65 69.3 28.05 L69.3 28.15 69.2 28.15 69.2 28.1 69.25 28.05 69.3 28.05 69.2 26.15 Q68.45 25.45 66.95 25.25 L61.9 25.05 62.0 19.85 Q62.0 11.4 57.75 5.7 L57.75 5.45 M48.4 57.25 L48.85 56.85 Q45.45 58.4 41.65 56.85 L42.1 57.3 41.95 57.2 Q44.95 61.5 48.4 57.25" fill="#ffe2d5" fill-rule="evenodd" stroke="none"/>
    <path d="M42.1 57.3 Q45.2 59.95 48.4 57.25 44.95 61.5 41.95 57.2 L42.1 57.3" fill="#febda3" fill-rule="evenodd" stroke="none"/>
    <path d="M42.1 57.3 L41.65 56.85 Q45.45 58.4 48.85 56.85 L48.4 57.25 Q45.2 59.95 42.1 57.3" fill="#000000" fill-rule="evenodd" stroke="none"/>
    <path d="M23.35 37.8 L26.8 37.6 Q30.9 37.6 32.65 38.3 34.6 39.0 35.55 39.85 L36.4 40.5 Q36.8 41.05 36.8 41.7 L36.5 42.85 Q35.8 44.0 33.65 45.1 30.8 46.55 28.55 46.55 25.65 46.55 23.65 44.75 L22.9 43.95 19.9 40.75 19.65 40.5 19.4 40.3 19.45 40.25 17.4 39.15 21.8 38.0 23.35 37.8 M71.8 40.4 L69.4 42.35 67.05 44.05 Q64.0 46.05 60.1 46.05 54.4 46.05 54.4 40.75 L54.5 40.1 54.9 39.05 54.95 39.0 55.2 38.6 57.5 37.7 60.85 37.6 Q63.9 37.6 68.9 38.75 L69.25 38.8 71.3 39.3 71.8 39.45 72.05 39.6 72.45 39.85 71.8 40.4" fill="#ffffff" fill-rule="evenodd" stroke="none"/>
    <path d="M32.4 76.1 L34.25 77.45 39.0 80.3 Q44.35 82.9 48.4 82.1 L48.8 82.0 M69.05 64.0 Q64.35 71.2 55.95 77.8 53.15 80.9 48.8 82.0 M6.95 36.05 L5.2 33.9 Q3.55 32.3 3.0 32.3 0.0 32.3 0.0 35.6 0.0 38.6 3.8 45.1 7.8 52.0 10.35 52.0 12.0 52.0 13.3 50.6 L13.9 49.9 M19.35 64.3 Q16.55 60.1 15.75 55.9 M69.35 63.55 Q71.4 60.15 72.15 55.0" fill="none" stroke="#000000" stroke-linecap="round" stroke-linejoin="round" stroke-width="0.6000000000000001"/>
    <path d="M28.5 73.65 L32.4 76.1 M14.75 56.4 L14.3 55.6 M28.5 73.65 Q22.95 69.1 19.35 64.3" fill="none" stroke="#000000" stroke-linecap="round" stroke-linejoin="round" stroke-width="0.6000000000000001"/>
    <path d="M69.35 63.55 L69.05 64.0" fill="none" stroke="#00ff00" stroke-linecap="round" stroke-linejoin="round" stroke-width="0.6000000000000001"/>
  </g>
</svg>
