<?xml version="1.0" encoding="UTF-8" standalone="no"?>
<svg xmlns:xlink="http://www.w3.org/1999/xlink" height="8.05px" width="62.0px" xmlns="http://www.w3.org/2000/svg">
  <g transform="matrix(1.0, 0.0, 0.0, 1.0, 0.0, 0.0)">
    <path d="M23.3 6.8 L23.6 7.0 23.75 7.35 23.8 7.45 24.1 8.05 22.3 6.9 Q20.8 5.95 19.45 5.5 L18.55 5.2 17.8 4.95 15.35 4.7 15.15 4.7 11.4 4.9 8.5 5.45 7.5 5.75 4.15 7.0 2.3 7.15 Q1.1 7.15 0.2 5.65 L0.0 5.3 0.6 5.6 2.25 5.8 5.7 4.35 Q6.85 3.7 8.5 3.35 L11.4 2.95 13.0 2.9 15.15 3.05 Q16.8 3.3 18.55 4.05 20.85 5.0 23.3 6.8 M15.15 1.05 L11.4 1.15 Q9.75 1.4 8.55 1.95 L8.5 1.95 3.8 3.7 8.5 1.55 Q9.9 0.85 11.4 0.55 L13.85 0.25 15.15 0.3 Q16.95 0.4 18.3 0.95 L18.55 1.05 Q20.3 1.75 22.85 3.6 20.8 2.25 18.55 1.6 L15.15 1.05 M61.45 5.35 L62.0 5.05 61.8 5.4 Q60.9 6.9 59.7 6.9 L57.9 6.75 54.5 5.5 53.55 5.2 50.65 4.65 46.85 4.45 46.65 4.45 44.25 4.7 43.45 4.95 42.6 5.25 Q41.2 5.7 39.75 6.65 L37.9 7.8 38.2 7.2 38.25 7.1 38.4 6.75 38.7 6.55 Q41.15 4.75 43.45 3.8 45.2 3.05 46.85 2.8 L49.0 2.65 50.65 2.7 53.55 3.1 Q55.15 3.45 56.35 4.1 58.9 5.45 59.8 5.55 L61.45 5.35 M53.5 1.7 Q52.25 1.15 50.65 0.9 L46.9 0.8 46.85 0.8 43.45 1.35 Q41.2 2.0 39.2 3.35 41.7 1.5 43.45 0.8 L43.7 0.7 Q45.05 0.15 46.85 0.05 L48.2 0.0 50.65 0.3 Q52.1 0.6 53.55 1.3 L58.2 3.45 Q56.0 2.8 53.55 1.7 L53.5 1.7" fill="#000000" fill-rule="evenodd" stroke="none"/>
    <path d="M23.3 6.8 Q20.85 5.0 18.55 4.05 16.8 3.3 15.15 3.05 L13.0 2.9 11.4 2.95 8.5 3.35 Q6.85 3.7 5.7 4.35 L2.25 5.8 0.6 5.6 Q2.65 5.95 6.55 3.85 L8.5 2.95 Q9.9 2.4 11.4 2.15 L14.7 1.95 15.15 2.0 Q16.85 2.2 18.55 3.1 20.9 4.25 23.3 6.8 M38.7 6.55 Q41.1 4.0 43.45 2.85 45.15 1.95 46.85 1.75 L47.3 1.7 50.65 1.9 Q52.1 2.15 53.55 2.7 54.5 3.05 55.45 3.6 59.35 5.7 61.45 5.35 L59.8 5.55 Q58.9 5.45 56.35 4.1 55.15 3.45 53.55 3.1 L50.65 2.7 49.0 2.65 46.85 2.8 Q45.2 3.05 43.45 3.8 41.15 4.75 38.7 6.55" fill="#ffffff" fill-rule="evenodd" stroke="none"/>
  </g>
</svg>
