<?xml version="1.0" encoding="UTF-8" standalone="no"?>
<svg xmlns:xlink="http://www.w3.org/1999/xlink" height="8.4px" width="15.8px" xmlns="http://www.w3.org/2000/svg">
  <g transform="matrix(1.0, 0.0, 0.0, 1.0, 0.0, 0.0)">
    <path d="M15.7 0.7 L15.8 0.9 15.35 1.65 14.9 1.75 13.0 1.9 10.8 1.95 9.3 1.95 9.2 1.95 9.05 1.95 8.8 1.9 8.9 1.9 15.7 0.7 M6.95 1.9 L7.0 1.9 6.8 1.95 6.65 1.95 6.5 1.95 5.05 1.95 2.85 1.9 0.95 1.75 0.5 1.65 Q0.1 1.45 0.0 0.9 L0.15 0.7 6.95 1.9" fill="#000000" fill-rule="evenodd" stroke="none"/>
    <path d="M8.9 1.9 L7.75 1.85 7.8 1.9 Q7.5 1.75 6.95 1.9 L0.15 0.7 0.45 0.45 2.2 0.35 5.2 0.25 6.65 0.0 7.9 0.3 7.95 0.3 9.15 0.0 10.65 0.25 13.65 0.35 15.4 0.45 15.7 0.7 8.9 1.9 M3.0 2.75 L3.5 2.7 Q3.95 2.35 4.1 2.5 L5.2 2.6 6.85 2.4 7.9 2.3 9.0 2.45 10.6 2.6 11.75 2.5 Q11.85 2.35 12.3 2.7 L12.85 2.75 11.95 3.4 Q11.85 3.1 11.2 2.95 10.5 3.4 10.9 3.9 L10.0 4.05 Q9.95 3.35 8.9 3.7 L8.85 3.65 Q8.4 3.4 8.15 3.65 L7.65 4.05 7.6 4.1 7.45 4.05 7.35 4.05 6.55 4.05 5.85 4.05 4.85 3.95 4.65 3.95 4.15 3.65 Q3.85 3.4 4.1 3.55 L3.0 2.75" fill="#febda3" fill-rule="evenodd" stroke="none"/>
    <path d="M12.85 2.75 L13.15 2.65 14.45 2.1 13.75 3.2 13.1 4.3 11.45 5.5 8.95 6.05 7.95 6.0 7.85 6.0 6.9 6.05 4.35 5.5 Q3.15 4.95 2.75 4.3 L2.1 3.2 1.4 2.1 2.7 2.65 3.0 2.75 4.1 3.55 Q3.85 3.4 4.15 3.65 L4.65 3.95 4.85 3.95 5.85 4.05 6.55 4.05 7.35 4.05 7.45 4.05 7.6 4.1 7.85 4.7 7.9 4.65 7.9 4.7 7.95 4.7 9.7 4.8 9.95 4.45 10.0 4.05 10.9 3.9 11.2 4.1 11.45 4.1 11.95 3.4 12.85 2.75 M11.7 6.0 L12.1 5.85 11.7 6.4 10.85 7.3 Q10.35 7.75 9.35 8.05 L8.2 8.4 7.9 8.35 7.6 8.4 6.45 8.05 Q5.45 7.75 4.95 7.3 L4.15 6.4 3.75 5.85 4.15 6.0 5.15 6.3 5.4 6.45 6.9 7.05 7.85 7.2 7.95 7.2 8.95 7.05 10.4 6.45 10.65 6.3 11.7 6.0" fill="#ffceb7" fill-rule="evenodd" stroke="none"/>
    <path d="M11.95 3.4 L11.45 4.1 11.2 4.1 10.9 3.9 Q10.5 3.4 11.2 2.95 11.85 3.1 11.95 3.4 M10.0 4.05 L9.95 4.45 9.7 4.8 7.95 4.7 7.9 4.7 7.9 4.65 7.85 4.7 7.6 4.1 7.65 4.05 8.15 3.65 Q8.4 3.4 8.85 3.65 L8.9 3.7 Q9.95 3.35 10.0 4.05" fill="#ffffff" fill-rule="evenodd" stroke="none"/>
    <path d="M9.2 1.95 L9.05 1.95 9.2 1.95 M6.8 1.95 L6.6 1.95 6.65 1.95 6.8 1.95" fill="#ff6699" fill-rule="evenodd" stroke="none"/>
    <path d="M10.9 6.1 L10.65 6.3 10.4 6.45 8.95 7.05 7.95 7.2 7.85 7.2 6.9 7.05 5.4 6.45 5.15 6.3 4.9 6.1 Q4.1 5.6 5.65 6.2 L7.85 6.55 7.95 6.55 10.15 6.2 Q11.7 5.6 10.9 6.1" fill="#000000" fill-rule="evenodd" stroke="none"/>
  </g>
</svg>
