<?xml version="1.0" encoding="UTF-8" standalone="no"?>
<svg xmlns:xlink="http://www.w3.org/1999/xlink" height="143.5px" width="107.4px" xmlns="http://www.w3.org/2000/svg">
  <g transform="matrix(1.0, 0.0, 0.0, 1.0, -0.05, 0.3)">
    <path d="M83.15 20.85 L81.95 20.45 Q81.1 18.55 79.9 16.8 L79.6 16.4 Q75.65 11.05 69.7 10.2 L68.65 9.0 Q75.7 9.25 80.25 15.35 L81.6 17.4 Q82.55 19.05 83.15 20.85 M73.85 17.75 L78.2 23.35 78.25 23.45 78.7 24.1 78.8 24.35 80.4 28.75 81.95 33.55 Q83.4 38.45 84.5 43.4 L86.0 51.9 86.05 52.2 Q88.7 71.5 85.2 91.65 84.25 97.1 82.9 102.65 L82.7 103.3 82.6 103.75 80.7 110.45 79.15 115.1 Q77.05 121.0 75.05 124.35 L75.15 124.1 76.25 120.7 77.0 118.15 79.4 110.45 80.4 106.7 81.0 104.35 81.45 102.65 Q82.35 98.9 84.75 81.9 87.1 64.85 82.45 45.85 80.15 36.5 77.75 30.6 L75.75 26.3 Q74.2 23.45 72.65 22.0 L71.85 21.3 70.85 20.35 70.85 20.3 Q67.75 14.85 61.65 13.2 63.95 15.0 64.6 16.8 62.25 15.05 58.15 14.65 63.25 18.95 64.1 20.25 L64.1 20.35 64.05 20.35 60.2 18.65 Q62.8 20.7 64.8 25.0 60.5 21.85 56.4 21.35 60.05 22.9 62.9 27.6 66.9 34.25 67.3 40.45 L67.3 41.4 Q67.5 47.65 67.1 50.55 L66.9 52.0 65.75 57.3 65.75 57.15 65.6 53.45 65.6 53.35 65.8 51.9 Q66.2 49.1 66.0 43.0 L66.0 42.75 Q65.5 35.5 61.6 28.95 58.6 23.95 54.7 22.5 L52.05 21.9 52.0 21.9 51.3 21.85 Q47.0 21.8 44.8 23.2 45.15 22.5 45.85 22.0 L46.05 21.9 Q48.25 20.45 52.55 20.5 L52.6 20.35 48.9 19.9 Q44.9 19.9 43.65 20.95 L43.55 21.05 43.55 20.75 Q45.7 18.4 47.5 18.0 L53.1 17.8 57.9 18.15 52.75 16.2 48.45 16.0 44.75 16.3 46.5 15.05 Q48.45 13.9 50.1 13.5 L47.85 13.3 Q45.55 13.3 43.4 14.1 44.2 13.2 45.15 12.6 L48.65 10.8 44.7 11.15 Q39.3 12.15 36.65 15.95 35.95 15.25 35.05 14.65 32.45 13.0 29.2 13.0 24.5 13.0 21.2 14.7 L23.85 14.5 27.1 14.85 28.9 15.8 Q16.0 17.3 10.55 25.5 5.1 33.65 3.7 39.25 2.3 44.85 2.3 49.85 L2.55 58.0 2.15 57.8 0.95 57.8 Q-1.25 39.9 4.8 29.1 10.85 18.25 20.25 12.6 26.15 9.75 28.55 9.35 L31.0 9.0 31.35 8.35 Q35.7 0.5 48.45 0.0 59.95 -0.45 68.65 9.0 L68.2 9.1 Q63.35 4.45 57.7 2.7 53.8 1.5 49.5 1.65 37.5 2.1 32.95 9.15 L36.45 9.85 38.4 10.5 38.8 10.35 42.45 8.9 Q51.45 5.8 59.3 8.0 63.7 9.25 67.7 12.15 70.05 13.85 72.35 16.1 L73.85 17.75 M83.35 25.7 L84.1 26.05 84.15 27.75 84.15 27.95 85.2 28.9 Q88.0 31.55 89.0 33.35 L86.65 32.1 83.5 29.0 83.5 28.8 83.5 28.3 83.35 25.7 M90.5 39.55 Q90.7 42.55 89.65 45.95 89.15 47.65 87.95 49.4 L89.0 47.0 Q90.1 43.45 89.8 40.35 L89.65 38.95 90.5 39.55 M63.4 135.5 Q67.65 123.5 70.25 110.45 L72.05 99.6 73.05 91.65 73.35 88.4 Q75.35 81.5 76.45 74.15 75.25 88.0 75.1 91.9 L74.25 99.95 72.35 111.6 Q71.1 119.05 63.4 135.5 M18.75 97.1 L18.85 97.2 19.05 97.4 20.05 98.75 20.9 99.85 20.55 99.65 18.35 98.35 Q15.6 96.5 13.7 93.8 10.9 89.85 9.85 84.15 L9.7 83.35 9.35 80.65 Q9.1 78.45 9.1 76.0 9.1 72.6 9.55 69.65 L10.0 64.05 8.5 52.45 Q7.5 44.1 11.35 35.7 12.25 33.7 13.5 31.7 L13.65 31.4 Q17.7 24.7 24.3 22.75 L25.65 22.4 26.95 22.2 27.0 22.2 27.2 22.15 30.65 21.95 32.05 22.05 32.05 22.0 32.15 22.05 32.75 22.1 33.95 22.6 28.35 23.0 28.1 23.05 26.4 23.55 Q23.95 24.35 21.85 25.9 18.65 28.15 16.35 32.0 9.95 42.6 11.2 53.05 L12.7 64.65 12.25 70.25 Q11.8 73.05 11.8 76.25 L11.8 76.6 Q11.8 79.05 12.05 81.25 12.95 90.65 18.75 97.1 M3.45 87.05 L1.2 88.4 1.05 88.45 2.35 86.55 4.1 83.55 Q6.35 79.55 6.35 77.45 L5.5 67.9 Q4.65 62.4 4.5 60.5 L4.5 60.45 4.05 58.4 3.65 55.2 Q3.65 50.15 4.05 48.3 L4.65 50.05 4.9 51.45 5.1 55.2 5.35 57.3 5.85 60.9 6.95 67.9 7.7 76.35 7.8 77.45 7.75 78.2 7.35 79.7 5.55 83.55 3.45 87.05 M57.95 14.45 L57.95 14.6 58.15 14.65 57.95 14.45 M52.6 20.5 L53.35 20.55 56.0 21.15 56.4 21.35 56.0 21.15 53.35 20.55 52.6 20.5 52.55 20.5 52.6 20.5 M31.0 9.0 L32.95 9.15 31.0 9.0" fill="#ffffff" fill-rule="evenodd" stroke="none"/>
    <path d="M81.95 20.45 L77.8 19.05 Q75.45 17.15 72.35 16.1 70.05 13.85 67.7 12.15 65.8 9.25 61.5 6.65 55.1 2.8 48.6 2.8 42.6 2.8 38.3 5.8 L42.65 4.6 44.9 4.45 41.65 5.6 Q38.55 6.6 36.45 8.95 L41.15 7.05 46.45 6.2 Q45.7 6.45 45.0 6.85 43.25 7.8 42.45 8.9 L38.8 10.35 38.4 10.5 36.45 9.85 32.95 9.15 Q37.5 2.1 49.5 1.65 53.8 1.5 57.7 2.7 63.35 4.45 68.2 9.1 L68.65 9.0 69.7 10.2 70.1 10.7 71.0 12.15 70.1 10.7 69.7 10.2 Q75.65 11.05 79.6 16.4 L79.9 16.8 Q81.1 18.55 81.95 20.45 M81.6 24.9 L83.35 25.7 83.5 28.3 83.5 28.8 83.5 29.0 86.65 32.1 82.75 30.0 Q81.85 27.25 81.8 26.25 L81.6 24.9 M87.95 49.4 L86.65 51.15 86.0 51.9 84.5 43.4 Q85.55 41.4 85.55 40.45 85.55 38.85 84.45 35.3 L89.65 38.95 89.8 40.35 Q90.1 43.45 89.0 47.0 L87.95 49.4 M77.0 118.15 L78.7 110.45 Q79.7 105.25 80.4 99.25 L80.45 98.55 80.7 96.25 80.85 96.3 80.85 96.25 82.45 81.55 Q83.4 71.25 83.15 67.85 L82.15 55.95 Q81.35 47.35 79.4 44.5 L80.5 49.7 80.5 54.65 80.3 54.65 Q80.15 53.95 77.3 48.75 L77.15 46.85 77.3 48.75 77.6 55.4 76.95 53.2 Q75.7 49.6 73.4 48.15 76.1 70.6 71.25 89.75 L70.35 93.05 69.25 96.5 67.35 101.45 64.0 108.45 66.45 101.35 Q67.95 96.5 68.95 91.65 73.0 72.3 69.65 52.2 68.75 46.8 67.3 41.4 L67.3 41.1 67.3 40.45 Q66.9 34.25 62.9 27.6 60.05 22.9 56.4 21.35 60.5 21.85 64.8 25.0 62.8 20.7 60.2 18.65 L64.05 20.35 64.1 20.35 64.25 20.4 64.1 20.25 Q63.25 18.95 58.15 14.65 62.25 15.05 64.6 16.8 63.95 15.0 61.65 13.2 67.75 14.85 70.85 20.3 L70.85 20.35 71.8 21.25 71.85 21.3 72.65 22.0 Q74.2 23.45 75.75 26.3 L77.75 30.6 Q80.15 36.5 82.45 45.85 87.1 64.85 84.75 81.9 82.35 98.9 81.45 102.65 L81.0 104.35 80.4 106.7 79.4 110.45 77.0 118.15 M62.05 139.15 L63.4 135.5 Q71.1 119.05 72.35 111.6 L74.25 99.95 75.1 91.9 Q75.25 88.0 76.45 74.15 77.1 69.6 77.4 64.95 L78.35 72.25 78.7 83.7 77.7 91.65 75.9 102.5 Q73.0 117.15 65.3 133.6 63.95 136.4 62.05 139.15 M64.25 108.55 L63.5 109.7 64.0 108.45 64.25 108.55 M17.4 94.55 L18.75 97.1 Q12.95 90.65 12.05 81.25 11.8 79.05 11.8 76.6 L11.8 76.25 Q11.8 73.05 12.25 70.25 L12.7 64.65 11.2 53.05 Q9.95 42.6 16.35 32.0 18.65 28.15 21.85 25.9 23.95 24.35 26.4 23.55 L28.1 23.05 28.35 23.0 33.95 22.6 34.5 22.95 Q35.85 23.95 36.9 25.8 L37.9 27.6 39.15 29.85 Q37.2 28.9 35.95 28.0 35.05 27.35 34.05 26.95 L32.35 26.45 Q29.65 26.0 26.4 27.05 20.6 28.85 17.95 33.85 15.25 38.8 14.55 43.7 13.8 48.55 14.4 49.55 15.0 50.5 14.95 60.05 14.85 69.55 13.05 75.0 L12.7 76.25 Q11.55 81.2 13.85 87.55 15.25 91.55 17.25 94.6 L17.4 94.55 M8.1 82.35 L7.15 83.6 6.15 84.7 4.6 86.2 3.45 87.05 5.55 83.55 7.35 79.7 7.75 78.2 7.9 80.55 7.95 80.8 8.1 82.35 M4.5 60.45 L3.3 58.6 2.55 58.0 2.3 49.85 Q2.3 44.85 3.7 39.25 5.1 33.65 10.55 25.5 16.0 17.3 28.9 15.8 L27.1 14.85 23.85 14.5 21.2 14.7 Q24.5 13.0 29.2 13.0 32.45 13.0 35.05 14.65 35.95 15.25 36.65 15.95 39.3 12.15 44.7 11.15 L48.65 10.8 45.15 12.6 Q44.2 13.2 43.4 14.1 45.55 13.3 47.85 13.3 L50.1 13.5 Q48.45 13.9 46.5 15.05 L44.75 16.3 48.45 16.0 52.75 16.2 57.9 18.15 53.1 17.8 47.5 18.0 Q45.7 18.4 43.55 20.75 L43.55 21.05 43.65 20.95 Q44.9 19.9 48.9 19.9 L52.6 20.35 52.55 20.5 Q48.25 20.45 46.05 21.9 L43.4 22.4 43.25 22.45 Q41.55 23.05 40.5 23.75 42.05 20.15 43.7 18.45 41.65 18.7 40.4 20.25 L39.05 22.55 39.05 20.2 39.9 17.65 Q39.2 18.0 38.6 18.85 L37.8 20.15 36.95 22.25 Q36.25 21.75 34.95 21.2 33.15 20.45 31.85 20.45 27.95 20.45 25.75 22.3 L25.65 22.4 24.3 22.75 24.25 22.55 Q16.7 24.15 13.75 27.65 10.8 31.1 8.35 37.05 5.9 43.0 7.1 52.6 L8.6 64.2 8.15 69.8 Q7.7 72.75 7.7 76.15 L7.7 76.35 6.95 67.9 5.85 60.9 5.35 57.3 5.1 55.2 4.9 51.45 4.65 50.05 4.05 48.3 Q3.65 50.15 3.65 55.2 L4.05 58.4 4.5 60.45 M64.3 20.85 L64.45 20.95 64.45 20.9 64.3 20.85 M69.05 20.3 L69.1 20.4 69.6 21.45 70.35 23.35 67.2 20.2 67.05 20.1 64.0 18.05 64.9 19.35 66.15 21.55 66.75 22.6 68.05 25.4 66.5 23.95 65.65 23.2 62.5 20.85 62.65 20.95 Q64.0 22.6 65.6 25.5 L65.9 26.05 66.9 28.1 67.6 29.9 66.2 28.85 65.5 28.35 Q64.25 27.45 63.05 26.85 L63.3 27.2 Q64.75 29.3 66.6 32.55 69.05 36.8 70.4 40.4 L71.3 43.05 71.3 41.85 71.25 39.75 71.2 38.0 71.05 36.05 73.05 38.5 73.65 39.35 73.7 39.5 Q75.35 42.0 76.7 44.95 L76.7 43.65 76.55 41.25 76.35 39.8 75.3 35.6 77.65 38.45 77.9 38.8 78.05 39.0 77.7 36.5 77.65 36.25 Q76.9 32.3 75.35 28.95 73.05 24.05 69.05 20.3 L69.1 20.25 69.05 20.25 69.05 20.3 M43.1 24.1 L44.65 23.3 44.75 23.25 44.8 23.2 Q47.0 21.8 51.3 21.85 L52.0 21.9 52.05 21.9 54.7 22.5 Q58.6 23.95 61.6 28.95 65.5 35.5 66.0 42.75 L66.0 43.0 Q66.2 49.1 65.8 51.9 L65.6 53.35 Q64.25 39.65 62.2 34.35 59.6 27.85 54.95 26.1 L52.25 25.5 Q45.6 24.9 43.15 27.95 L41.15 29.65 40.7 29.45 Q41.2 27.45 41.65 26.35 42.2 24.9 43.1 24.1" fill="#ff9999" fill-rule="evenodd" stroke="none"/>
    <path d="M77.8 19.05 L73.85 17.75 72.35 16.1 Q75.45 17.15 77.8 19.05 M78.2 23.35 L81.6 24.9 81.8 26.25 Q81.85 27.25 82.75 30.0 L80.4 28.75 78.8 24.35 78.7 24.1 78.25 23.45 78.2 23.35 M80.7 96.25 L79.65 100.3 76.8 110.45 Q71.6 127.4 66.05 136.25 63.35 140.5 60.55 142.9 L62.05 139.15 Q63.95 136.4 65.3 133.6 73.0 117.15 75.9 102.5 L77.7 91.65 78.7 83.7 78.35 72.25 77.4 64.95 Q77.1 69.6 76.45 74.15 75.35 81.5 73.35 88.4 L72.3 91.65 71.05 95.05 Q68.25 102.1 64.25 108.55 L64.0 108.45 67.35 101.45 69.25 96.5 70.35 93.05 71.25 89.75 Q76.1 70.6 73.4 48.15 75.7 49.6 76.95 53.2 L77.6 55.4 77.3 48.75 Q80.15 53.95 80.3 54.65 L80.5 54.65 80.5 49.7 79.4 44.5 Q81.35 47.35 82.15 55.95 L83.15 67.85 Q83.4 71.25 82.45 81.55 L80.85 96.25 80.85 96.3 80.7 96.25 M65.75 57.15 L65.7 57.3 65.0 60.05 64.9 58.6 64.85 58.05 64.8 57.8 64.75 57.2 Q63.45 42.55 61.3 37.05 58.7 30.55 54.05 28.8 L51.35 28.2 Q44.7 27.6 42.25 30.65 L40.25 32.35 37.75 30.8 Q36.85 30.15 35.85 29.75 32.55 28.45 28.2 29.85 22.4 31.65 19.75 36.65 L19.6 36.9 19.5 37.05 18.35 39.55 18.0 40.4 17.95 40.45 17.95 40.55 Q17.25 42.3 16.8 44.05 L16.5 45.5 16.45 45.7 16.35 46.5 Q15.6 51.35 16.2 52.35 16.8 53.3 16.75 62.85 16.65 72.35 14.85 77.8 13.05 83.2 15.65 90.35 16.45 92.6 17.4 94.55 L17.25 94.6 Q15.25 91.55 13.85 87.55 11.55 81.2 12.7 76.25 L13.05 75.0 Q14.85 69.55 14.95 60.05 15.0 50.5 14.4 49.55 13.8 48.55 14.55 43.7 15.25 38.8 17.95 33.85 20.6 28.85 26.4 27.05 29.65 26.0 32.35 26.45 L34.05 26.95 Q35.05 27.35 35.95 28.0 37.2 28.9 39.15 29.85 L37.9 27.6 36.9 25.8 Q35.85 23.95 34.5 22.95 L33.95 22.6 32.75 22.1 32.15 22.05 32.05 22.0 32.05 22.05 30.65 21.95 27.2 22.15 27.0 22.2 26.95 22.2 25.65 22.4 25.75 22.3 Q27.95 20.45 31.85 20.45 33.15 20.45 34.95 21.2 36.25 21.75 36.95 22.25 L37.8 20.15 38.6 18.85 Q39.2 18.0 39.9 17.65 L39.05 20.2 39.05 22.55 40.4 20.25 Q41.65 18.7 43.7 18.45 42.05 20.15 40.5 23.75 41.55 23.05 43.25 22.45 L43.4 22.5 43.4 22.4 46.05 21.9 45.85 22.0 44.7 23.05 44.65 23.2 44.6 23.2 Q43.75 23.45 43.1 24.1 42.2 24.9 41.65 26.35 41.2 27.45 40.7 29.45 L41.15 29.65 43.15 27.95 Q45.6 24.9 52.25 25.5 L54.95 26.1 Q59.6 27.85 62.2 34.35 64.25 39.65 65.6 53.35 L65.6 53.45 65.75 57.15 M9.35 80.65 L8.8 81.45 8.7 81.6 8.1 82.35 7.95 80.8 7.9 80.55 7.75 78.2 7.8 77.45 7.7 76.35 7.7 76.15 Q7.7 72.75 8.15 69.8 L8.6 64.2 7.1 52.6 Q5.9 43.0 8.35 37.05 10.8 31.1 13.75 27.65 16.7 24.15 24.25 22.55 L24.3 22.75 Q17.7 24.7 13.65 31.4 L13.5 31.7 Q12.25 33.7 11.35 35.7 7.5 44.1 8.5 52.45 L10.0 64.05 9.55 69.65 Q9.1 72.6 9.1 76.0 9.1 78.45 9.35 80.65 M81.95 33.55 L84.45 35.3 Q85.55 38.85 85.55 40.45 85.55 41.4 84.5 43.4 83.4 38.45 81.95 33.55 M42.45 8.9 Q43.25 7.8 45.0 6.85 45.7 6.45 46.45 6.2 L41.15 7.05 36.45 8.95 Q38.55 6.6 41.65 5.6 L44.9 4.45 42.65 4.6 38.3 5.8 Q42.6 2.8 48.6 2.8 55.1 2.8 61.5 6.65 65.8 9.25 67.7 12.15 63.7 9.25 59.3 8.0 51.45 5.8 42.45 8.9 M69.05 20.3 Q73.05 24.05 75.35 28.95 76.9 32.3 77.65 36.25 L77.7 36.5 78.05 39.0 77.9 38.8 77.65 38.45 75.3 35.6 76.35 39.8 76.55 41.25 76.7 43.65 76.7 44.95 Q75.35 42.0 73.7 39.5 L73.65 39.35 73.05 38.5 71.05 36.05 71.2 38.0 71.25 39.75 71.3 41.85 71.3 43.05 70.4 40.4 Q69.05 36.8 66.6 32.55 64.75 29.3 63.3 27.2 L63.05 26.85 Q64.25 27.45 65.5 28.35 L66.2 28.85 67.6 29.9 66.9 28.1 65.9 26.05 65.6 25.5 Q64.0 22.6 62.65 20.95 L62.5 20.85 65.65 23.2 66.5 23.95 68.05 25.4 66.75 22.6 66.15 21.55 64.9 19.35 64.0 18.05 67.05 20.1 67.2 20.2 70.35 23.35 69.6 21.45 69.1 20.4 69.05 20.3 M77.6 55.4 L77.4 64.95 77.6 55.4" fill="#fe7070" fill-rule="evenodd" stroke="none"/>
    <path d="M83.15 20.85 L93.3 24.3 98.5 32.55 84.1 26.05 83.35 25.7 81.6 24.9 78.2 23.35 73.85 17.75 77.8 19.05 81.95 20.45 83.15 20.85 M89.0 33.35 L99.3 38.7 107.15 51.2 90.5 39.55 89.65 38.95 84.45 35.3 81.95 33.55 80.4 28.75 82.75 30.0 86.65 32.1 89.0 33.35" fill="#99ff00" fill-rule="evenodd" stroke="none"/>
    <path d="M73.85 17.75 L78.2 23.35 78.25 23.45 78.7 24.1 78.8 24.35 80.4 28.75 81.95 33.55 Q83.4 38.45 84.5 43.4 M84.1 26.05 L84.15 27.75 84.15 27.95 85.2 28.9 Q88.0 31.55 89.0 33.35 M90.5 39.55 Q90.7 42.55 89.65 45.95 89.15 47.65 87.95 49.4 L86.65 51.15 86.0 51.9 86.05 52.2 Q88.7 71.5 85.2 91.65 84.25 97.1 82.9 102.65 L82.7 103.3 82.6 103.75 80.7 110.45 79.15 115.1 Q77.05 121.0 75.05 124.35 L75.15 124.1 76.25 120.7 77.0 118.15 78.7 110.45 Q79.7 105.25 80.4 99.25 M80.45 98.55 L80.7 96.25 79.65 100.3 76.8 110.45 Q71.6 127.4 66.05 136.25 63.35 140.5 60.55 142.9 L62.05 139.15 63.4 135.5 Q67.65 123.5 70.25 110.45 L72.05 99.6 73.05 91.65 73.35 88.4 72.3 91.65 71.05 95.05 Q68.25 102.1 64.25 108.55 L63.5 109.7 64.0 108.45 66.45 101.35 Q67.95 96.5 68.95 91.65 73.0 72.3 69.65 52.2 68.75 46.8 67.3 41.4 67.5 47.65 67.1 50.55 L66.9 52.0 65.75 57.3 M65.7 57.3 L65.0 60.05 64.9 58.6 64.85 58.05 64.8 57.8 64.75 57.2 Q63.45 42.55 61.3 37.05 58.7 30.55 54.05 28.8 L51.35 28.2 Q44.7 27.6 42.25 30.65 L40.25 32.35 37.75 30.8 Q36.85 30.15 35.85 29.75 32.55 28.45 28.2 29.85 22.4 31.65 19.75 36.65 L19.6 36.9 19.5 37.05 18.35 39.55 18.0 40.4 M17.95 40.55 Q17.25 42.3 16.8 44.05 L16.5 45.5 16.45 45.7 16.35 46.5 Q15.6 51.35 16.2 52.35 16.8 53.3 16.75 62.85 16.65 72.35 14.85 77.8 13.05 83.2 15.65 90.35 16.45 92.6 17.4 94.55 L18.75 97.1 M18.85 97.2 L19.05 97.4 20.05 98.75 20.9 99.85 20.55 99.65 18.35 98.35 Q15.6 96.5 13.7 93.8 10.9 89.85 9.85 84.15 L9.7 83.35 9.35 80.65 8.8 81.45 8.7 81.6 8.1 82.35 7.15 83.6 6.15 84.7 4.6 86.2 3.45 87.05 1.2 88.4 1.05 88.45 2.35 86.55 4.1 83.55 Q6.35 79.55 6.35 77.45 L5.5 67.9 Q4.65 62.4 4.5 60.5 L4.5 60.45 3.3 58.6 2.55 58.0 2.15 57.8 0.95 57.8 Q-1.25 39.9 4.8 29.1 10.85 18.25 20.25 12.6 26.15 9.75 28.55 9.35 L31.0 9.0 31.35 8.35 Q35.7 0.5 48.45 0.0 59.95 -0.45 68.65 9.0 75.7 9.25 80.25 15.35 L81.6 17.4 Q82.55 19.05 83.15 20.85 M56.4 21.35 Q60.05 22.9 62.9 27.6 66.9 34.25 67.3 40.45 L67.3 41.1 67.3 41.4 67.3 40.45 M86.0 51.9 L84.5 43.4 M67.7 12.15 Q70.05 13.85 72.35 16.1 L73.85 17.75 M69.7 10.2 L70.1 10.7 71.0 12.15 M32.95 9.15 L36.45 9.85 38.4 10.5 38.8 10.35 42.45 8.9 Q51.45 5.8 59.3 8.0 63.7 9.25 67.7 12.15 M69.7 10.2 L68.65 9.0 M45.85 22.0 L46.05 21.9 M25.65 22.4 L26.95 22.2 M44.8 23.2 Q45.15 22.5 45.85 22.0 M56.4 21.35 L56.0 21.15 53.35 20.55 52.6 20.5 52.55 20.5 Q48.25 20.45 46.05 21.9 M77.3 48.75 L77.15 46.85 M32.95 9.15 L31.0 9.0 M24.3 22.75 L25.65 22.4 M24.3 22.75 Q17.7 24.7 13.65 31.4 L13.5 31.7 Q12.25 33.7 11.35 35.7 7.5 44.1 8.5 52.45 L10.0 64.05 9.55 69.65 Q9.1 72.6 9.1 76.0 9.1 78.45 9.35 80.65 M4.5 60.45 L4.05 58.4 3.65 55.2 Q3.65 50.15 4.05 48.3 M77.6 55.4 L77.3 48.75 M77.4 64.95 Q77.1 69.6 76.45 74.15 75.35 81.5 73.35 88.4 M77.4 64.95 L77.6 55.4" fill="none" stroke="#000000" stroke-linecap="round" stroke-linejoin="round" stroke-width="0.6000000000000001"/>
    <path d="M84.1 26.05 L98.5 32.55 93.3 24.3 83.15 20.85 81.95 20.45 77.8 19.05 73.85 17.75 M78.2 23.35 L81.6 24.9 83.35 25.7 84.1 26.05 M89.0 33.35 L99.3 38.7 107.15 51.2 90.5 39.55 M84.45 35.3 L81.95 33.55 M84.45 35.3 L89.65 38.95 90.5 39.55 M89.0 33.35 L86.65 32.1 82.75 30.0 80.4 28.75" fill="none" stroke="#000000" stroke-linecap="round" stroke-linejoin="round" stroke-width="0.6000000000000001"/>
  </g>
</svg>
