<?xml version="1.0" encoding="UTF-8" standalone="no"?>
<svg xmlns:xlink="http://www.w3.org/1999/xlink" height="14.0px" width="13.3px" xmlns="http://www.w3.org/2000/svg">
  <g transform="matrix(1.0, 0.0, 0.0, 1.0, 0.0, 0.0)">
    <path d="M7.2 14.0 L6.65 14.0 Q3.9 14.0 1.95 11.95 0.0 9.9 0.0 7.0 0.0 6.25 0.15 5.55 0.5 3.55 1.95 2.05 3.9 0.0 6.65 0.0 9.4 0.0 11.35 2.05 13.05 3.85 13.3 6.25 L12.15 6.25 12.2 6.9 Q12.2 8.75 10.95 10.05 9.75 11.4 8.05 11.4 6.35 11.4 5.1 10.05 3.9 8.75 3.9 6.9 L4.1 5.55 Q2.9 3.85 1.45 4.55 L1.05 7.0 Q1.05 9.9 3.0 11.95 4.75 13.8 7.2 14.0" fill="#000000" fill-rule="evenodd" stroke="none"/>
    <path d="M7.2 14.0 Q4.75 13.8 3.0 11.95 1.05 9.9 1.05 7.0 L1.45 4.55 Q2.9 3.85 4.1 5.55 L3.9 6.9 Q3.9 8.75 5.1 10.05 6.35 11.4 8.05 11.4 9.75 11.4 10.95 10.05 12.2 8.75 12.2 6.9 L12.15 6.25 13.3 6.25 13.3 7.0 Q13.3 9.9 11.35 11.95 9.6 13.8 7.2 14.0" fill="#99ccff" fill-rule="evenodd" stroke="none"/>
  </g>
</svg>
