<?xml version="1.0" encoding="UTF-8" standalone="no"?>
<svg xmlns:xlink="http://www.w3.org/1999/xlink" height="418.6px" width="278.55px" xmlns="http://www.w3.org/2000/svg">
  <g transform="matrix(1.0, 0.0, 0.0, 1.0, 0.5, 0.5)">
    <path d="M271.15 248.3 L273.1 251.35 Q276.9 257.55 277.55 263.1 270.5 248.95 262.7 246.7 266.9 250.9 269.75 256.25 272.55 261.55 273.2 267.85 273.5 273.1 271.1 282.65 267.7 293.1 265.3 299.6 262.7 306.7 260.65 316.35 258.6 326.0 257.8 331.1 257.0 336.2 256.85 342.2 L256.4 358.5 Q256.0 371.9 259.6 381.0 250.3 366.25 251.2 352.1 L252.7 328.65 Q253.3 320.15 257.3 306.2 L259.65 297.7 263.7 289.55 Q266.35 284.2 268.45 273.7 L268.85 271.75 Q269.75 257.3 262.05 249.0 254.8 241.2 242.55 241.2 238.3 241.2 225.85 244.8 213.4 248.35 211.55 248.35 205.8 248.35 203.45 247.3 201.1 246.25 195.45 241.2 187.55 234.15 184.2 229.2 L185.55 223.1 188.4 227.6 188.85 228.3 Q192.0 233.3 195.65 236.15 201.25 240.55 204.6 241.9 207.9 243.25 214.85 243.05 221.8 242.85 226.05 240.75 230.3 238.65 241.45 236.05 L241.2 236.05 Q233.85 232.5 227.8 229.1 216.25 222.45 211.4 215.45 204.85 205.9 200.95 195.0 197.6 185.6 197.5 179.2 L197.5 174.75 Q199.4 156.4 200.05 135.45 L200.15 131.55 199.95 126.95 199.2 121.5 196.65 96.35 Q194.95 79.35 189.6 65.15 184.2 50.7 180.1 41.9 L172.9 28.55 Q169.45 22.15 160.25 17.95 165.2 21.35 165.9 23.6 157.4 17.65 150.95 15.7 144.95 13.85 137.0 14.55 148.1 16.1 151.0 18.15 L151.15 18.25 145.45 18.45 141.75 18.7 146.15 19.65 148.15 20.35 Q138.2 19.75 132.85 23.25 130.05 23.95 127.95 25.35 124.85 27.35 122.55 29.5 121.6 31.3 118.35 38.6 L120.2 36.45 Q124.7 31.1 129.4 28.15 134.05 25.2 146.9 25.6 159.7 25.95 168.3 39.3 176.9 52.6 183.8 72.7 190.65 92.75 191.45 122.3 L191.85 128.9 192.25 139.8 Q190.65 168.25 188.1 184.95 185.55 201.65 184.45 206.65 L181.7 221.95 Q180.8 227.6 179.05 234.95 L175.65 249.6 Q174.0 256.9 173.1 262.55 172.2 268.2 171.45 282.8 170.65 297.35 172.3 306.1 173.9 314.85 175.35 321.05 176.75 327.2 178.35 331.35 L180.8 338.15 Q184.6 349.7 188.25 365.6 189.4 388.7 184.6 412.9 187.25 382.95 179.2 354.2 177.5 381.05 163.45 409.65 L159.35 417.6 Q167.9 371.15 158.9 330.7 L158.85 330.3 Q154.35 282.4 165.3 244.55 L169.65 223.15 173.65 209.9 176.55 193.35 177.65 184.95 179.25 173.35 Q180.4 165.4 182.2 147.7 182.8 141.65 182.7 137.55 L182.7 137.25 Q184.2 134.05 184.2 129.4 184.2 95.1 176.95 71.5 165.45 34.05 137.95 34.05 129.4 34.05 124.7 37.7 121.85 39.85 119.65 46.3 L119.8 46.45 119.45 46.9 119.0 48.2 119.2 47.2 118.85 47.75 Q117.05 41.9 114.5 39.55 108.05 33.65 98.25 35.1 88.4 36.5 83.55 40.4 78.7 44.25 74.9 55.2 71.05 66.1 71.05 67.4 L69.95 81.15 Q68.8 93.65 74.35 144.05 L74.1 142.75 74.15 143.35 74.7 148.2 74.8 149.35 Q75.95 158.75 77.7 166.0 83.1 188.85 84.7 197.05 86.3 205.2 87.1 214.3 87.4 217.6 87.3 222.3 87.1 230.5 85.65 242.9 83.4 262.4 76.9 274.6 74.15 281.65 69.85 294.1 63.65 311.95 59.95 323.8 56.25 335.55 55.25 343.75 54.2 351.9 53.6 366.65 53.3 381.35 54.25 388.55 55.0 394.2 58.6 403.4 53.9 396.15 51.55 390.6 L50.05 386.5 Q48.95 382.95 48.2 378.4 L47.75 375.6 45.6 359.9 Q44.8 353.6 47.9 330.6 51.45 313.8 55.7 301.7 59.95 289.55 63.7 270.55 67.4 251.75 68.15 235.5 L68.2 235.2 68.95 218.2 Q68.55 201.05 64.95 177.5 61.2 153.1 58.4 130.0 55.65 103.8 58.05 76.7 68.2 29.75 102.1 29.75 107.55 29.75 110.95 30.65 L111.1 30.3 111.9 30.95 113.45 32.45 111.9 30.95 111.1 30.3 Q109.25 28.9 107.7 28.45 L107.65 28.45 106.6 28.2 Q105.3 27.35 104.15 27.05 100.75 26.15 95.3 26.15 88.3 26.15 78.45 30.75 81.2 27.15 85.1 26.1 81.65 26.15 76.9 29.2 72.6 32.0 72.1 33.5 L72.1 33.4 Q76.3 25.35 79.45 24.15 L79.4 24.1 Q76.95 24.65 73.05 28.55 69.45 32.15 67.6 35.45 L61.85 45.05 61.25 46.05 Q54.8 56.7 51.25 73.1 48.85 100.2 51.6 126.4 54.4 149.5 58.15 173.9 61.75 197.45 55.4 226.4 53.65 234.35 52.7 239.8 L47.2 241.7 Q38.0 244.7 31.05 248.9 24.1 253.1 19.55 262.8 14.95 272.45 11.3 284.3 7.95 294.9 6.45 300.8 L6.3 298.0 Q6.3 277.9 13.1 266.3 15.7 261.9 20.1 257.3 L28.1 249.4 Q37.75 239.75 42.5 228.35 44.7 225.8 46.2 222.7 L50.7 211.55 50.7 213.55 Q50.7 217.15 49.05 221.3 L45.85 229.3 Q53.8 216.7 54.2 213.6 L54.2 215.7 53.8 221.35 52.6 225.15 Q56.05 219.3 56.8 217.4 57.85 214.75 57.85 206.95 L57.65 201.2 56.35 204.9 55.55 206.95 55.05 200.1 54.6 203.8 Q53.55 209.25 52.1 210.2 52.55 207.45 52.55 200.65 L52.2 191.8 Q52.1 197.5 50.25 201.8 L48.15 206.15 Q49.9 193.75 49.9 178.0 49.1 137.5 49.1 119.9 L49.15 118.9 49.2 106.4 49.15 96.3 Q49.15 84.45 49.6 78.75 50.0 73.05 50.9 68.8 L51.9 63.0 54.1 56.45 Q60.25 40.15 68.1 29.9 75.95 19.65 80.2 16.75 84.4 13.85 88.55 12.05 92.65 10.2 103.25 12.0 93.5 12.35 91.15 13.1 88.8 13.8 87.35 14.4 L83.55 16.55 Q88.2 15.15 90.75 14.9 L95.75 14.55 99.5 14.75 Q95.95 15.3 91.95 16.85 88.65 18.15 87.85 19.35 L91.45 19.4 95.7 19.55 Q92.9 20.0 90.05 21.05 86.6 22.35 85.0 23.5 L87.2 22.8 94.1 21.9 Q99.5 21.55 104.5 23.35 95.4 22.45 87.65 25.55 L103.8 26.3 Q110.15 27.6 112.8 31.45 L113.45 32.45 116.8 36.35 119.05 33.2 Q119.95 30.3 120.95 28.65 123.3 24.65 127.75 22.05 118.15 24.05 115.95 33.15 116.15 28.45 119.85 22.85 122.9 18.45 128.55 17.15 119.4 18.05 115.5 23.25 116.1 20.25 121.15 17.1 123.55 15.6 126.1 14.7 123.0 14.8 119.5 15.95 116.1 17.05 114.25 18.45 116.25 15.85 118.95 13.65 121.3 11.9 126.05 10.1 L128.2 9.7 126.7 9.6 Q115.35 9.6 110.1 16.6 112.05 11.65 117.35 9.4 112.95 9.95 110.8 10.9 112.15 9.6 113.5 8.85 116.05 7.45 120.1 6.5 113.4 6.9 111.9 7.65 113.95 6.25 119.65 4.7 126.85 2.75 133.85 2.75 140.8 2.75 151.05 6.75 160.95 10.55 175.65 22.1 L176.5 22.75 176.75 22.95 Q184.2 28.3 191.5 41.9 199.8 57.45 201.75 72.8 203.4 86.1 205.45 111.6 L208.65 152.55 210.1 171.55 211.2 181.25 Q208.55 174.6 206.75 165.8 L206.55 175.4 206.95 185.6 Q206.8 183.65 204.8 178.3 203.45 174.75 203.45 172.65 L203.25 172.65 Q202.95 176.05 202.95 177.85 202.95 182.2 206.2 190.55 209.3 198.65 211.4 200.55 L211.6 200.75 212.0 192.3 212.0 191.9 Q214.05 197.7 216.65 200.5 222.05 212.2 232.35 221.1 240.0 227.7 258.55 239.15 265.7 243.6 271.15 248.3 M118.85 47.8 Q118.6 48.15 118.5 48.55 L117.75 48.0 Q118.25 46.65 118.85 47.8 M122.55 29.5 Q120.5 31.3 119.05 33.2 120.5 31.3 122.55 29.5 M158.1 20.1 L158.2 20.25 158.05 20.15 158.1 20.1 M119.45 46.9 L119.2 47.2 119.45 46.9 M85.95 223.65 L87.3 222.3 85.95 223.65 M179.2 354.2 Q179.9 342.6 178.35 331.35 179.9 342.6 179.2 354.2" fill="#0066cc" fill-rule="evenodd" stroke="none"/>
    <path d="M259.65 297.7 L262.95 284.3 Q264.55 276.7 265.05 271.95 265.5 267.2 264.25 260.8 262.95 254.35 259.3 250.45 255.65 246.55 252.05 245.65 L247.25 245.15 244.0 245.55 Q239.55 246.35 234.2 248.95 230.7 250.6 226.05 254.35 221.4 258.1 217.45 260.3 213.5 262.5 207.6 262.25 201.65 261.95 198.75 260.7 195.85 259.45 194.1 257.6 192.3 255.7 188.95 250.45 186.0 245.85 181.45 240.7 L182.35 237.1 187.95 244.95 Q189.25 247.15 192.75 251.85 196.25 256.5 203.6 257.5 210.95 258.5 217.0 255.3 223.0 252.1 226.1 250.0 229.2 247.85 233.0 245.95 235.8 244.45 243.8 244.05 L247.1 243.9 243.2 243.25 235.3 244.1 Q231.1 244.9 228.7 246.1 226.3 247.3 221.05 250.6 215.7 253.9 208.1 254.4 200.45 254.85 194.05 248.95 187.7 243.05 183.0 234.3 L184.2 229.2 Q187.55 234.15 195.45 241.2 201.1 246.25 203.45 247.3 205.8 248.35 211.55 248.35 213.4 248.35 225.85 244.8 238.3 241.2 242.55 241.2 254.8 241.2 262.05 249.0 269.75 257.3 268.85 271.75 L268.45 273.7 Q266.35 284.2 263.7 289.55 L259.65 297.7 M173.65 209.9 Q165.95 190.6 169.05 164.05 173.75 157.9 178.1 148.65 180.45 143.55 182.7 137.55 182.8 141.65 182.2 147.7 180.4 165.4 179.25 173.35 L177.65 184.95 176.55 193.35 173.65 209.9 M182.7 137.25 Q183.2 123.15 181.85 110.3 179.7 90.6 172.1 72.15 164.45 53.65 156.9 47.0 149.3 40.3 142.2 38.85 135.1 37.4 127.95 40.45 124.6 42.35 122.4 44.1 120.75 45.35 119.8 46.45 L119.65 46.3 Q121.85 39.85 124.7 37.7 129.4 34.05 137.95 34.05 165.45 34.05 176.95 71.5 184.2 95.1 184.2 129.4 184.2 134.05 182.7 137.25 M119.0 48.2 L118.85 47.8 Q118.25 46.65 117.75 48.0 115.5 46.35 114.45 45.15 112.6 43.05 109.85 41.55 L109.7 41.5 Q108.9 41.05 107.9 40.8 L105.45 40.4 100.8 40.25 100.0 40.25 Q84.5 40.25 77.75 57.2 72.25 71.05 72.25 97.6 72.25 120.7 74.35 144.05 68.8 93.65 69.95 81.15 L71.05 67.4 Q71.05 66.1 74.9 55.2 78.7 44.25 83.55 40.4 88.4 36.5 98.25 35.1 108.05 33.65 114.5 39.55 117.05 41.9 118.85 47.75 L119.2 47.2 119.0 48.2 M74.8 149.35 Q83.0 163.95 93.2 171.1 103.4 178.15 103.5 178.45 104.15 184.05 104.2 186.45 L104.25 197.5 Q104.2 206.2 101.45 209.8 98.65 213.35 95.25 216.45 91.85 219.55 87.3 222.3 87.4 217.6 87.1 214.3 86.3 205.2 84.7 197.05 83.1 188.85 77.7 166.0 75.95 158.75 74.8 149.35 M64.85 233.3 Q62.6 235.3 59.9 236.75 57.55 238.0 52.7 239.8 53.65 234.35 55.4 226.4 61.75 197.45 58.15 173.9 54.4 149.5 51.6 126.4 48.85 100.2 51.25 73.1 54.8 56.7 61.25 46.05 L61.85 45.05 67.6 35.45 Q69.45 32.15 73.05 28.55 76.95 24.65 79.4 24.1 L79.45 24.15 Q76.3 25.35 72.1 33.4 L72.1 33.5 Q72.6 32.0 76.9 29.2 81.65 26.15 85.1 26.1 81.2 27.15 78.45 30.75 88.3 26.15 95.3 26.15 100.75 26.15 104.15 27.05 105.3 27.35 106.6 28.2 L98.8 27.55 Q64.9 27.55 54.75 74.5 52.35 101.6 55.1 127.8 57.9 150.9 61.65 175.3 65.25 198.85 65.65 216.0 L64.9 233.0 64.85 233.3 M132.85 23.25 Q138.2 19.75 148.15 20.35 L146.15 19.65 141.75 18.7 145.45 18.45 151.15 18.25 151.0 18.15 Q148.1 16.1 137.0 14.55 144.95 13.85 150.95 15.7 157.4 17.65 165.9 23.6 165.2 21.35 160.25 17.95 169.45 22.15 172.9 28.55 L180.1 41.9 Q184.2 50.7 189.6 65.15 194.95 79.35 196.65 96.35 L199.2 121.5 199.95 126.95 200.15 131.55 200.05 135.45 Q199.4 156.4 197.5 174.75 L197.5 179.2 Q197.6 185.6 200.95 195.0 204.85 205.9 211.4 215.45 216.25 222.45 227.8 229.1 233.85 232.5 241.2 236.05 L229.45 235.9 221.85 235.85 Q209.25 235.8 203.5 233.85 197.7 231.85 196.05 231.0 194.8 230.3 189.4 225.8 L185.65 222.6 Q194.45 176.35 195.35 139.9 L195.35 139.75 195.45 139.15 195.6 138.8 195.25 137.55 Q195.4 128.6 194.3 123.6 L194.35 123.35 193.85 118.9 191.8 98.75 191.75 98.45 Q190.05 81.45 184.7 67.25 169.6 27.0 152.6 23.7 140.25 21.3 132.85 23.25 M158.1 20.1 L158.05 20.15 158.2 20.25 158.1 20.1 M118.85 47.8 L118.85 47.75 118.85 47.8" fill="#000099" fill-rule="evenodd" stroke="none"/>
    <path d="M6.15 302.1 L4.65 299.85 Q4.0 299.1 4.1 291.45 4.2 283.75 6.4 277.65 8.5 271.05 10.3 267.6 12.1 264.1 17.15 257.25 22.15 250.4 27.4 244.05 32.6 237.7 36.85 231.8 41.1 225.9 42.55 213.45 L44.05 200.65 Q45.1 154.2 45.1 137.45 44.8 115.4 45.65 98.05 L45.9 93.05 Q47.5 58.8 58.4 40.35 69.3 21.85 78.15 15.0 87.0 8.15 94.9 7.15 102.1 6.2 106.4 8.85 114.4 0.9 131.65 0.05 149.7 -0.85 167.9 11.25 186.1 23.35 191.3 33.1 196.45 42.8 200.25 52.2 205.3 65.35 206.2 75.6 207.05 85.85 208.25 95.3 L210.45 113.15 210.55 114.15 Q212.05 139.5 214.85 170.9 219.0 190.3 220.9 195.95 222.9 201.9 226.45 207.65 L227.4 209.15 229.2 211.7 Q232.2 215.8 237.2 217.7 L238.1 218.05 Q246.75 221.35 253.2 227.7 259.95 234.35 264.35 239.35 267.75 243.2 271.15 248.3 265.7 243.6 258.55 239.15 240.0 227.7 232.35 221.1 222.05 212.2 216.65 200.5 214.05 197.7 212.0 191.9 L212.0 192.3 211.6 200.75 211.4 200.55 Q209.3 198.65 206.2 190.55 202.95 182.2 202.95 177.85 202.95 176.05 203.25 172.65 L203.45 172.65 Q203.45 174.75 204.8 178.3 206.8 183.65 206.95 185.6 L206.55 175.4 206.75 165.8 Q208.55 174.6 211.2 181.25 L210.1 171.55 208.65 152.55 205.45 111.6 Q203.4 86.1 201.75 72.8 199.8 57.45 191.5 41.9 184.2 28.3 176.75 22.95 L176.5 22.75 175.65 22.1 Q160.95 10.55 151.05 6.75 140.8 2.75 133.85 2.75 126.85 2.75 119.65 4.7 113.95 6.25 111.9 7.65 113.4 6.9 120.1 6.5 116.05 7.45 113.5 8.85 112.15 9.6 110.8 10.9 112.95 9.95 117.35 9.4 112.05 11.65 110.1 16.6 115.35 9.6 126.7 9.6 L128.2 9.7 126.05 10.1 Q121.3 11.9 118.95 13.65 116.25 15.85 114.25 18.45 116.1 17.05 119.5 15.95 123.0 14.8 126.1 14.7 123.55 15.6 121.15 17.1 116.1 20.25 115.5 23.25 119.4 18.05 128.55 17.15 122.9 18.45 119.85 22.85 116.15 28.45 115.95 33.15 118.15 24.05 127.75 22.05 123.3 24.65 120.95 28.65 119.95 30.3 119.05 33.2 L116.8 36.35 113.45 32.45 112.8 31.45 Q110.15 27.6 103.8 26.3 L87.65 25.55 Q95.4 22.45 104.5 23.35 99.5 21.55 94.1 21.9 L87.2 22.8 85.0 23.5 Q86.6 22.35 90.05 21.05 92.9 20.0 95.7 19.55 L91.45 19.4 87.85 19.35 Q88.65 18.15 91.95 16.85 95.95 15.3 99.5 14.75 L95.75 14.55 90.75 14.9 Q88.2 15.15 83.55 16.55 L87.35 14.4 Q88.8 13.8 91.15 13.1 93.5 12.35 103.25 12.0 92.65 10.2 88.55 12.05 84.4 13.85 80.2 16.75 75.95 19.65 68.1 29.9 60.25 40.15 54.1 56.45 L51.9 63.0 50.9 68.8 Q50.0 73.05 49.6 78.75 49.15 84.45 49.15 96.3 L49.2 106.4 49.15 118.9 49.1 119.9 Q49.1 137.5 49.9 178.0 49.9 193.75 48.15 206.15 L50.25 201.8 Q52.1 197.5 52.2 191.8 L52.55 200.65 Q52.55 207.45 52.1 210.2 53.55 209.25 54.6 203.8 L55.05 200.1 55.55 206.95 56.35 204.9 57.65 201.2 57.85 206.95 Q57.85 214.75 56.8 217.4 56.05 219.3 52.6 225.15 L53.8 221.35 54.2 215.7 54.2 213.6 Q53.8 216.7 45.85 229.3 L49.05 221.3 Q50.7 217.15 50.7 213.55 L50.7 211.55 46.2 222.7 Q44.7 225.8 42.5 228.35 37.75 239.75 28.1 249.4 L20.1 257.3 Q15.7 261.9 13.1 266.3 6.3 277.9 6.3 298.0 L6.45 300.8 6.15 302.1 M181.45 240.7 L181.4 240.9 180.0 246.3 179.85 246.75 Q170.35 286.6 179.8 320.05 L180.0 320.7 Q187.05 342.65 188.25 365.6 184.6 349.7 180.8 338.15 L178.35 331.35 Q176.75 327.2 175.35 321.05 173.9 314.85 172.3 306.1 170.65 297.35 171.45 282.8 172.2 268.2 173.1 262.55 174.0 256.9 175.65 249.6 L179.05 234.95 Q180.8 227.6 181.7 221.95 L184.45 206.65 Q185.55 201.65 188.1 184.95 190.65 168.25 192.25 139.8 L191.85 128.9 191.45 122.3 Q190.65 92.75 183.8 72.7 176.9 52.6 168.3 39.3 159.7 25.95 146.9 25.6 134.05 25.2 129.4 28.15 124.7 31.1 120.2 36.45 L118.35 38.6 Q121.6 31.3 122.55 29.5 124.85 27.35 127.95 25.35 130.05 23.95 132.85 23.25 140.25 21.3 152.6 23.7 169.6 27.0 184.7 67.25 190.05 81.45 191.75 98.45 L191.8 98.75 193.85 118.9 194.35 123.35 194.3 123.6 Q195.4 128.6 195.25 137.55 L195.6 138.8 195.45 139.15 195.35 139.75 195.35 139.9 Q194.45 176.35 185.65 222.6 L185.55 223.1 184.2 229.2 183.0 234.3 182.35 237.1 181.45 240.7 M58.6 403.4 L58.75 403.75 60.8 408.7 55.5 401.5 53.55 398.45 50.8 393.65 48.25 388.4 Q45.8 382.75 44.45 373.4 L42.3 357.7 Q41.5 351.4 44.6 328.4 48.15 311.6 52.4 299.5 56.65 287.35 60.4 268.35 64.1 249.55 64.85 233.3 L64.9 233.0 65.65 216.0 Q65.25 198.85 61.65 175.3 57.9 150.9 55.1 127.8 52.35 101.6 54.75 74.5 64.9 27.55 98.8 27.55 L106.6 28.2 107.65 28.45 107.7 28.45 Q109.25 28.9 111.1 30.3 L110.95 30.65 Q107.55 29.75 102.1 29.75 68.2 29.75 58.05 76.7 55.65 103.8 58.4 130.0 61.2 153.1 64.95 177.5 68.55 201.05 68.95 218.2 L68.2 235.2 68.15 235.5 Q67.4 251.75 63.7 270.55 59.95 289.55 55.7 301.7 51.45 313.8 47.9 330.6 44.8 353.6 45.6 359.9 L47.75 375.6 48.2 378.4 Q48.95 382.95 50.05 386.5 L51.55 390.6 Q53.9 396.15 58.6 403.4 M193.85 118.9 L194.3 123.6 193.85 118.9 M177.75 327.75 L178.35 331.35 177.75 327.75 M195.25 137.55 L195.35 139.75 195.25 137.55" fill="#ffffff" fill-rule="evenodd" stroke="none"/>
    <path d="M6.15 302.1 L4.65 299.85 Q4.0 299.1 4.1 291.45 4.2 283.75 6.4 277.65 8.5 271.05 10.3 267.6 12.1 264.1 17.15 257.25 22.15 250.4 27.4 244.05 32.6 237.7 36.85 231.8 41.1 225.9 42.55 213.45 L44.05 200.65 Q45.1 154.2 45.1 137.45 44.8 115.4 45.65 98.05 L45.9 93.05 Q47.5 58.8 58.4 40.35 69.3 21.85 78.15 15.0 87.0 8.15 94.9 7.15 102.1 6.2 106.4 8.85 114.4 0.9 131.65 0.05 149.7 -0.85 167.9 11.25 186.1 23.35 191.3 33.1 196.45 42.8 200.25 52.2 205.3 65.35 206.2 75.6 207.05 85.85 208.25 95.3 L210.45 113.15 210.55 114.15 Q212.05 139.5 214.85 170.9 219.0 190.3 220.9 195.95 222.9 201.9 226.45 207.65 L227.4 209.15 229.2 211.7 Q232.2 215.8 237.2 217.7 L238.1 218.05 Q246.75 221.35 253.2 227.7 259.95 234.35 264.35 239.35 267.75 243.2 271.15 248.3 L273.1 251.35 Q276.9 257.55 277.55 263.1 270.5 248.95 262.7 246.7 266.9 250.9 269.75 256.25 272.55 261.55 273.2 267.85 273.5 273.1 271.1 282.65 267.7 293.1 265.3 299.6 262.7 306.7 260.65 316.35 258.6 326.0 257.8 331.1 257.0 336.2 256.85 342.2 L256.4 358.5 Q256.0 371.9 259.6 381.0 250.3 366.25 251.2 352.1 L252.7 328.65 Q253.3 320.15 257.3 306.2 L259.65 297.7 262.95 284.3 Q264.55 276.7 265.05 271.95 265.5 267.2 264.25 260.8 262.95 254.35 259.3 250.45 255.65 246.55 252.05 245.65 L247.25 245.15 244.0 245.55 Q239.55 246.35 234.2 248.95 230.7 250.6 226.05 254.35 221.4 258.1 217.45 260.3 213.5 262.5 207.6 262.25 201.65 261.95 198.75 260.7 195.85 259.45 194.1 257.6 192.3 255.7 188.95 250.45 186.0 245.85 181.45 240.7 L181.4 240.9 180.0 246.3 179.85 246.75 Q170.35 286.6 179.8 320.05 L180.0 320.7 Q187.05 342.65 188.25 365.6 189.4 388.7 184.6 412.9 187.25 382.95 179.2 354.2 177.5 381.05 163.45 409.65 L159.35 417.6 Q167.9 371.15 158.9 330.7 L158.85 330.3 Q154.35 282.4 165.3 244.55 L169.65 223.15 173.65 209.9 Q165.95 190.6 169.05 164.05 M182.7 137.55 L182.7 137.25 Q183.2 123.15 181.85 110.3 179.7 90.6 172.1 72.15 164.45 53.65 156.9 47.0 149.3 40.3 142.2 38.85 135.1 37.4 127.95 40.45 124.6 42.35 122.4 44.1 120.75 45.35 119.8 46.45 L119.45 46.9 M118.85 47.8 Q118.6 48.15 118.5 48.55 M100.8 40.25 L100.0 40.25 Q84.5 40.25 77.75 57.2 72.25 71.05 72.25 97.6 72.25 120.7 74.35 144.05 M74.15 143.35 L74.7 148.2 74.8 149.35 Q75.95 158.75 77.7 166.0 83.1 188.85 84.7 197.05 86.3 205.2 87.1 214.3 87.4 217.6 87.3 222.3 L85.95 223.65 M103.5 178.45 Q104.15 184.05 104.2 186.45 L104.25 197.5 Q104.2 206.2 101.45 209.8 98.65 213.35 95.25 216.45 91.85 219.55 87.3 222.3 87.1 230.5 85.65 242.9 83.4 262.4 76.9 274.6 74.15 281.65 69.85 294.1 63.65 311.95 59.95 323.8 56.25 335.55 55.25 343.75 54.2 351.9 53.6 366.65 53.3 381.35 54.25 388.55 55.0 394.2 58.6 403.4 M58.75 403.75 L60.8 408.7 55.5 401.5 53.55 398.45 50.8 393.65 48.25 388.4 Q45.8 382.75 44.45 373.4 L42.3 357.7 Q41.5 351.4 44.6 328.4 48.15 311.6 52.4 299.5 56.65 287.35 60.4 268.35 64.1 249.55 64.85 233.3 62.6 235.3 59.9 236.75 57.55 238.0 52.7 239.8 L47.2 241.7 Q38.0 244.7 31.05 248.9 24.1 253.1 19.55 262.8 14.95 272.45 11.3 284.3 7.95 294.9 6.45 300.8 L6.15 302.1 0.0 321.3 M119.05 33.2 Q120.5 31.3 122.55 29.5 124.85 27.35 127.95 25.35 130.05 23.95 132.85 23.25 140.25 21.3 152.6 23.7 169.6 27.0 184.7 67.25 190.05 81.45 191.75 98.45 L191.8 98.75 193.85 118.9 M241.2 236.05 L241.45 236.05 Q230.3 238.65 226.05 240.75 221.8 242.85 214.85 243.05 207.9 243.25 204.6 241.9 201.25 240.55 195.65 236.15 192.0 233.3 188.85 228.3 L188.4 227.6 185.55 223.1 184.2 229.2 M195.45 139.15 L195.35 139.75 M195.35 139.9 Q194.45 176.35 185.65 222.6 L189.4 225.8 Q194.8 230.3 196.05 231.0 197.7 231.85 203.5 233.85 209.25 235.8 221.85 235.85 L229.45 235.9 241.2 236.05 M178.35 331.35 L177.75 327.75 M194.3 123.6 L193.85 118.9 M173.65 209.9 L176.55 193.35 177.65 184.95 179.25 173.35 Q180.4 165.4 182.2 147.7 182.8 141.65 182.7 137.55 M118.85 47.75 L119.2 47.2 119.45 46.9 M113.45 32.45 L111.9 30.95 111.1 30.3 Q109.25 28.9 107.7 28.45 L107.65 28.45 106.6 28.2 98.8 27.55 Q64.9 27.55 54.75 74.5 52.35 101.6 55.1 127.8 57.9 150.9 61.65 175.3 65.25 198.85 65.65 216.0 L64.9 233.0 64.85 233.3 M119.05 33.2 L116.8 36.35 113.45 32.45 M118.85 47.75 L118.85 47.8 M183.0 234.3 Q187.7 243.05 194.05 248.95 200.45 254.85 208.1 254.4 215.7 253.9 221.05 250.6 226.3 247.3 228.7 246.1 231.1 244.9 235.3 244.1 L243.2 243.25 247.1 243.9 243.8 244.05 Q235.8 244.45 233.0 245.95 229.2 247.85 226.1 250.0 223.0 252.1 217.0 255.3 210.95 258.5 203.6 257.5 196.25 256.5 192.75 251.85 189.25 247.15 187.95 244.95 L182.35 237.1 181.45 240.7 M183.0 234.3 L184.2 229.2 M182.35 237.1 L183.0 234.3 M185.65 222.6 L185.55 223.1 M178.35 331.35 Q179.9 342.6 179.2 354.2" fill="none" stroke="#000000" stroke-linecap="round" stroke-linejoin="round" stroke-width="1.0"/>
    <path d="M118.5 48.55 L117.75 48.0 Q115.5 46.35 114.45 45.15 112.6 43.05 109.85 41.55 L109.7 41.5 Q108.9 41.05 107.9 40.8 L105.45 40.4 100.8 40.25 M194.3 123.6 Q195.4 128.6 195.25 137.55 M195.35 139.75 L195.25 137.55" fill="none" stroke="#000000" stroke-linecap="round" stroke-linejoin="round" stroke-width="1.0"/>
  </g>
</svg>
