<?xml version="1.0" encoding="UTF-8" standalone="no"?>
<svg xmlns:xlink="http://www.w3.org/1999/xlink" height="59.25px" width="68.9px" xmlns="http://www.w3.org/2000/svg">
  <g transform="matrix(1.0, 0.0, 0.0, 1.0, 0.5, 0.5)">
    <path d="M57.45 0.0 L57.45 3.35 Q53.6 27.65 67.9 54.05 L66.2 54.45 66.1 54.45 Q50.85 27.45 57.45 0.0" fill="#ffffff" fill-rule="evenodd" stroke="none"/>
    <path d="M57.45 0.0 Q50.85 27.45 66.1 54.45 20.75 64.1 0.0 49.25 8.0 35.05 5.25 0.65 L57.45 0.0" fill="#fdba1e" fill-rule="evenodd" stroke="none"/>
    <path d="M66.1 54.45 L66.2 54.45 67.9 54.05 Q53.6 27.65 57.45 3.35 L57.45 0.0 M66.1 54.45 Q20.75 64.1 0.0 49.25 8.0 35.05 5.25 0.65 L57.45 0.0" fill="none" stroke="#000000" stroke-linecap="round" stroke-linejoin="round" stroke-width="1.0"/>
  </g>
</svg>
