<?xml version="1.0" encoding="UTF-8" standalone="no"?>
<svg xmlns:xlink="http://www.w3.org/1999/xlink" height="137.05px" width="87.75px" xmlns="http://www.w3.org/2000/svg">
  <g transform="matrix(1.0, 0.0, 0.0, 1.0, 0.5, 0.0)">
    <path d="M63.7 2.75 Q63.95 11.0 67.4 19.2 L75.45 33.45 82.3 45.3 Q85.4 50.85 86.4 60.0 87.35 69.1 85.55 77.0 83.7 84.85 80.8 92.15 77.9 99.4 74.0 106.45 70.0 113.85 68.75 121.75 67.65 128.55 69.75 134.3 67.35 131.0 67.05 127.25 66.4 119.25 69.25 110.95 72.05 102.7 75.55 96.3 79.0 89.9 81.5 81.1 83.95 72.25 83.2 65.4 L82.45 60.35 82.2 56.85 Q81.2 47.7 78.1 42.15 L71.25 30.3 Q67.55 24.05 63.2 16.05 60.05 8.5 59.55 1.0 L60.8 0.0 63.7 2.75 M4.55 76.75 L4.5 76.7 Q2.85 73.55 2.15 68.3 L1.95 66.25 Q1.65 61.2 2.85 53.7 4.3 44.6 8.8 39.4 13.3 34.1 19.25 29.55 24.25 25.75 26.15 20.45 L26.25 20.4 27.5 22.55 Q23.7 29.95 17.95 33.85 11.65 38.05 7.95 45.55 4.25 53.0 4.1 61.65 4.0 70.15 7.8 75.35 11.55 80.55 13.8 85.1 16.05 89.65 16.0 95.15 15.9 100.65 13.95 105.7 12.0 110.7 10.15 112.45 L11.8 109.2 Q12.6 107.35 13.25 104.6 L14.1 99.0 14.15 93.85 Q13.95 91.55 13.25 89.6 L11.65 86.2 9.5 82.25 6.75 77.15 Q5.4 74.75 2.5 67.85 3.75 74.05 4.65 76.7 L4.55 76.75" fill="#fedf76" fill-rule="evenodd" stroke="none"/>
    <path d="M59.55 1.0 Q60.05 8.5 63.2 16.05 67.55 24.05 71.25 30.3 L78.1 42.15 Q81.2 47.7 82.2 56.85 L82.45 60.35 Q81.75 56.2 80.65 52.3 78.9 45.95 75.5 40.2 72.05 34.4 67.95 28.8 63.8 23.15 60.3 14.35 57.6 7.45 59.2 1.3 L59.55 1.0 M26.15 20.45 Q24.25 25.75 19.25 29.55 13.3 34.1 8.8 39.4 4.3 44.6 2.85 53.7 1.65 61.2 1.95 66.25 L2.15 68.3 Q2.85 73.55 4.5 76.7 L4.55 76.75 4.65 76.95 4.9 77.35 5.0 77.55 6.9 81.9 11.0 93.0 Q4.55 79.75 2.75 76.6 0.95 73.45 0.25 67.95 -0.5 62.45 0.95 53.35 2.4 44.25 6.9 39.05 11.4 33.75 17.35 29.2 23.3 24.65 24.85 18.0 L26.2 20.3 26.15 20.45" fill="#ffffff" fill-rule="evenodd" stroke="none"/>
    <path d="M63.7 2.75 Q63.95 11.0 67.4 19.2 L75.45 33.45 82.3 45.3 Q85.4 50.85 86.4 60.0 87.35 69.1 85.55 77.0 83.7 84.85 80.8 92.15 77.9 99.4 74.0 106.45 70.0 113.85 68.75 121.75 67.65 128.55 69.75 134.3 L70.7 136.55 M59.2 1.3 Q57.6 7.45 60.3 14.35 63.8 23.15 67.95 28.8 72.05 34.4 75.5 40.2 78.9 45.95 80.65 52.3 81.75 56.2 82.45 60.35 L83.2 65.4 Q83.95 72.25 81.5 81.1 79.0 89.9 75.55 96.3 72.05 102.7 69.25 110.95 66.4 119.25 67.05 127.25 67.35 131.0 69.75 134.3 M24.85 18.0 Q23.3 24.65 17.35 29.2 11.4 33.75 6.9 39.05 2.4 44.25 0.95 53.35 -0.5 62.45 0.25 67.95 0.95 73.45 2.75 76.6 4.55 79.75 11.0 93.0 L6.9 81.9 5.0 77.55 M4.65 76.7 Q3.75 74.05 2.5 67.85 5.4 74.75 6.75 77.15 L9.5 82.25 11.65 86.2 13.25 89.6 Q13.95 91.55 14.15 93.85 L14.1 99.0 13.25 104.6 Q12.6 107.35 11.8 109.2 L10.15 112.45 Q12.0 110.7 13.95 105.7 15.9 100.65 16.0 95.15 16.05 89.65 13.8 85.1 11.55 80.55 7.8 75.35 4.0 70.15 4.1 61.65 4.25 53.0 7.95 45.55 11.65 38.05 17.95 33.85 23.7 29.95 27.5 22.55 M4.65 76.7 L4.9 77.35 5.0 77.55" fill="none" stroke="#000000" stroke-linecap="round" stroke-linejoin="round" stroke-width="1.0"/>
  </g>
</svg>
