<?xml version="1.0" encoding="UTF-8" standalone="no"?>
<svg xmlns:xlink="http://www.w3.org/1999/xlink" height="96.15px" width="94.05px" xmlns="http://www.w3.org/2000/svg">
  <g transform="matrix(1.0, 0.0, 0.0, 1.0, 0.5, 0.0)">
    <path d="M21.15 8.0 L22.0 7.65 Q39.35 -3.75 62.7 1.85 80.0 11.0 88.15 24.05 95.8 41.0 92.65 57.65 84.25 74.3 73.5 74.95 L71.7 77.5 69.4 80.3 Q68.25 81.45 66.5 81.55 64.7 81.6 63.3 80.45 62.5 79.75 62.2 78.9 L54.75 83.8 Q49.35 87.1 37.85 91.15 49.35 87.1 54.75 83.8 L55.65 84.05 55.75 84.2 Q46.8 88.95 37.85 91.15 L36.85 91.35 36.1 91.65 35.9 91.75 35.85 91.75 Q25.05 95.75 16.9 95.65 L16.3 95.65 15.8 95.55 15.1 95.4 15.5 95.3 15.8 95.25 Q43.55 88.1 54.55 65.85 51.95 64.15 49.7 60.6 L48.5 58.6 46.9 55.15 46.7 54.95 46.65 54.7 43.85 46.65 43.35 45.3 Q33.15 18.1 21.15 8.0 M62.1 78.7 L62.2 78.9 62.65 78.55 62.1 78.7 M71.35 60.7 Q74.5 58.65 78.6 61.45 80.85 64.3 79.0 68.25 76.6 71.75 74.95 73.2 74.15 73.95 73.5 74.95 74.15 73.95 74.95 73.2 76.6 71.75 79.0 68.25 80.85 64.3 78.6 61.45 74.5 58.65 71.35 60.7 M15.55 68.15 L14.75 67.4 Q12.65 65.35 12.4 63.6 L13.5 64.65 14.8 65.8 16.25 66.95 Q17.1 67.5 17.55 68.4 L16.5 68.3 15.75 68.15 15.55 68.15" fill="#ffceb7" fill-rule="evenodd" stroke="none"/>
    <path d="M15.5 95.3 L15.1 95.4 Q11.8 94.4 9.25 89.55 L4.4 79.85 Q-1.2 68.0 0.3 57.15 L2.1 38.8 Q2.05 40.1 2.6 41.1 L3.0 41.8 1.5 57.15 Q0.0 68.0 5.6 79.85 L10.45 89.55 Q12.75 93.9 15.6 95.15 L15.5 95.3 M2.7 35.0 L2.7 35.2 Q9.55 33.05 17.15 44.05 7.8 31.65 2.35 36.3 L2.4 36.05 2.45 35.6 Q2.6 34.75 2.7 35.0 M32.0 44.45 Q27.25 45.35 25.45 50.65 L25.2 50.6 Q26.2 45.4 32.0 44.45" fill="#ffffff" fill-rule="evenodd" stroke="none"/>
    <path d="M21.15 8.0 Q33.15 18.1 43.35 45.3 L43.85 46.65 Q38.4 44.3 34.45 44.2 L34.0 44.2 33.5 44.25 32.95 44.3 32.65 44.35 32.0 44.45 Q26.2 45.4 25.2 50.6 L25.2 50.7 25.45 50.65 Q41.9 48.65 48.5 58.6 L49.7 60.6 Q51.95 64.15 54.55 65.85 43.55 88.1 15.8 95.25 L15.5 95.3 15.6 95.15 Q12.75 93.9 10.45 89.55 L5.6 79.85 Q0.0 68.0 1.5 57.15 L3.0 41.8 Q5.8 45.3 17.15 44.05 9.55 33.05 2.7 35.2 L2.7 35.0 2.65 34.45 2.75 33.75 Q5.95 14.45 21.15 8.0 M12.4 63.6 L12.35 63.0 12.15 63.45 12.05 63.6 11.95 64.05 Q10.85 64.3 10.65 65.35 10.45 66.35 11.45 67.15 L12.95 68.15 13.9 68.4 13.9 68.35 15.8 68.35 15.55 68.15 15.75 68.15 16.5 68.3 17.55 68.4 Q17.1 67.5 16.25 66.95 L14.8 65.8 13.5 64.65 12.4 63.6 M18.6 44.4 Q21.7 54.0 14.65 60.8 24.35 54.55 18.6 44.4" fill="#ffe2d5" fill-rule="evenodd" stroke="none"/>
    <path d="M43.85 46.65 L46.65 54.7 46.7 54.95 46.9 55.15 48.5 58.6 Q41.9 48.65 25.45 50.65 27.25 45.35 32.0 44.45 L32.65 44.35 32.95 44.3 33.5 44.25 34.0 44.2 34.45 44.2 Q38.4 44.3 43.85 46.65 M17.15 44.05 Q5.8 45.3 3.0 41.8 L2.6 41.1 Q2.05 40.1 2.1 38.8 L2.1 38.7 2.35 36.3 Q7.8 31.65 17.15 44.05" fill="#ffd5c1" fill-rule="evenodd" stroke="none"/>
    <path d="M11.95 64.05 L12.05 63.6 12.15 63.45 12.35 63.0 12.4 63.6 Q12.65 65.35 14.75 67.4 L15.55 68.15 15.8 68.35 13.9 68.35 Q11.55 66.0 11.95 64.05 M18.6 44.4 Q24.35 54.55 14.65 60.8 21.7 54.0 18.6 44.4" fill="#000000" fill-rule="evenodd" stroke="none"/>
    <path d="M11.95 64.05 Q11.55 66.0 13.9 68.35 L13.9 68.4 12.95 68.15 11.45 67.15 Q10.45 66.35 10.65 65.35 10.85 64.3 11.95 64.05" fill="#feb79c" fill-rule="evenodd" stroke="none"/>
    <path d="M15.1 95.4 L15.8 95.55 16.3 95.65 16.9 95.65 Q25.05 95.75 35.85 91.75 L35.9 91.75 M54.75 83.8 L62.2 78.9 62.1 78.7 M62.2 78.9 Q62.5 79.75 63.3 80.45 64.7 81.6 66.5 81.55 68.25 81.45 69.4 80.3 L71.7 77.5 73.5 74.95 Q74.15 73.95 74.95 73.2 76.6 71.75 79.0 68.25 80.85 64.3 78.6 61.45 74.5 58.65 71.35 60.7 M21.15 8.0 Q5.95 14.45 2.75 33.75 L2.65 34.45 2.55 34.95 2.4 36.05 M2.35 36.3 L2.1 38.7 2.1 38.8 0.3 57.15 Q-1.2 68.0 4.4 79.85 L9.25 89.55 Q11.8 94.4 15.1 95.4" fill="none" stroke="#000000" stroke-linecap="round" stroke-linejoin="round" stroke-width="1.0"/>
    <path d="M37.85 91.15 Q49.35 87.1 54.75 83.8 M37.85 91.15 L35.85 91.75" fill="none" stroke="#000000" stroke-linecap="round" stroke-linejoin="round" stroke-width="1.0"/>
  </g>
</svg>
