<?xml version="1.0" encoding="UTF-8" standalone="no"?>
<svg xmlns:xlink="http://www.w3.org/1999/xlink" height="489.95px" width="650.5px" xmlns="http://www.w3.org/2000/svg">
  <g transform="matrix(1.0, 0.0, 0.0, 1.0, -58.05, -10.5)">
    <path d="M696.9 220.3 L697.4 220.3 697.25 216.05 698.3 216.85 698.15 220.3 697.4 220.3 698.15 220.3 697.7 231.15 697.5 236.4 696.75 236.4 696.9 220.3 M690.0 234.6 L690.15 236.4 689.1 236.4 688.7 233.5 690.0 234.6 M690.35 216.1 L690.35 215.55 690.4 215.55 690.35 216.1 M692.15 215.4 L692.15 215.7 692.15 215.4 M705.25 222.05 L706.4 222.95 706.25 223.4 704.45 229.7 705.25 222.05 M700.5 224.3 L700.5 223.65 700.55 223.65 700.5 224.3 M701.75 223.6 L701.85 223.65 701.85 224.7 701.75 223.65 701.75 223.6 M701.85 223.65 L701.75 223.65 701.85 223.65 M687.35 224.25 L687.2 223.9 687.3 223.8 687.35 224.25 M685.6 224.85 L685.65 225.3 685.55 224.95 685.6 224.85 M697.4 220.3 L697.7 231.15 697.4 220.3 M648.65 423.75 L648.7 423.75 648.65 423.75 M627.05 303.05 L626.35 302.25 627.05 302.25 627.05 303.05 M488.0 44.45 Q489.1 44.85 489.5 45.25 L489.95 46.4 489.95 47.95 490.05 49.45 492.8 48.65 493.6 48.85 493.8 48.95 494.25 49.05 Q494.65 49.05 494.35 49.9 492.6 54.1 490.75 55.95 492.0 56.35 492.7 56.95 493.4 57.75 492.6 58.9 L491.05 60.55 Q490.45 60.85 489.6 61.45 489.0 61.45 489.4 61.25 491.15 59.7 491.55 57.75 491.65 57.25 491.15 57.15 L489.6 57.25 Q487.8 57.85 488.0 56.35 L487.9 55.1 Q488.1 55.8 487.9 54.9 487.7 53.9 487.8 52.55 L485.95 53.65 485.3 54.2 Q483.25 55.8 481.65 55.9 480.9 55.9 480.8 55.4 481.0 54.8 480.6 54.6 480.1 54.1 480.6 53.9 481.0 54.0 481.65 53.55 L482.35 53.35 485.75 51.4 Q485.95 51.0 487.8 50.3 L487.55 46.8 487.55 44.95 Q487.45 44.35 488.0 44.45 M495.35 46.9 L495.45 46.5 495.75 46.6 Q496.3 47.0 496.8 47.0 L497.3 47.3 Q497.5 47.65 497.2 47.95 496.5 48.75 495.9 48.25 495.45 48.05 495.35 46.9 M492.3 49.7 L492.0 49.7 490.05 51.1 489.85 53.15 489.75 54.4 Q490.95 52.85 492.2 50.0 L492.3 49.7 M489.75 69.95 Q491.25 71.3 491.05 73.55 490.85 74.05 490.95 75.0 L490.55 78.05 Q491.45 77.75 492.5 76.95 L494.65 75.9 Q495.65 75.9 496.5 77.05 496.8 79.3 494.05 81.35 L493.8 81.65 Q492.1 82.75 491.7 83.2 491.25 83.8 491.55 83.1 492.5 81.95 493.2 79.6 492.2 80.0 490.85 81.05 490.25 81.55 489.3 81.75 488.7 81.85 488.7 81.35 488.5 80.1 488.3 80.0 485.55 84.5 483.6 84.9 482.65 84.8 482.45 83.2 L482.65 81.75 Q482.75 78.25 483.5 76.85 L483.9 75.8 Q483.8 75.3 484.5 75.3 485.85 76.75 485.45 79.4 485.3 79.8 485.65 79.6 L488.1 77.35 Q488.9 76.1 488.9 73.15 488.8 71.8 489.0 71.6 L489.1 71.2 489.4 70.05 489.4 69.85 489.75 69.95 M489.0 93.3 Q490.65 93.4 490.65 95.8 490.55 96.2 490.85 96.0 L494.55 96.1 Q495.15 96.3 495.15 96.7 495.05 97.0 494.35 97.1 493.5 97.2 492.6 97.85 490.75 99.25 489.6 102.25 490.25 101.5 491.35 101.0 492.8 100.5 492.8 102.25 492.7 104.6 492.9 105.5 493.1 109.5 492.2 111.15 L490.75 111.25 490.05 110.65 489.5 110.0 489.1 109.6 489.65 109.7 491.05 110.05 Q491.45 110.15 491.55 109.6 492.2 107.05 491.65 101.6 L491.55 101.4 491.35 101.5 489.95 102.15 Q489.6 102.35 489.3 102.85 487.6 108.0 488.2 110.05 488.4 110.85 488.2 111.05 487.9 111.35 487.6 110.75 487.05 109.7 487.6 107.55 L487.8 106.75 488.0 105.9 Q488.5 103.15 489.2 101.75 L489.6 100.9 490.05 100.0 Q490.45 99.15 492.6 97.0 L492.7 96.8 492.6 96.7 Q490.55 96.7 490.35 97.2 487.6 102.45 484.2 102.85 482.65 102.95 482.15 101.75 481.55 100.4 482.65 99.35 484.9 97.2 488.2 96.5 L488.5 96.3 Q488.9 94.45 488.6 93.95 488.4 93.55 488.5 93.45 488.6 93.3 489.0 93.3 M487.9 97.5 Q485.2 98.15 483.5 99.25 482.35 100.1 482.35 100.9 481.95 101.75 483.7 101.75 484.3 101.95 485.0 101.5 487.05 100.2 488.1 97.55 L487.9 97.5 M605.25 124.7 L605.2 124.5 605.3 124.5 605.25 124.7 M489.65 103.8 L491.05 103.9 Q491.65 104.2 490.15 105.4 489.85 105.8 490.15 105.9 L491.05 106.55 Q491.35 106.85 490.75 107.05 L489.85 107.35 489.6 107.45 489.75 107.05 489.65 106.25 Q489.1 105.7 489.5 105.1 L489.85 104.3 Q489.85 104.0 489.6 104.0 489.2 104.1 489.65 103.8 M486.85 120.05 L486.25 120.05 Q484.8 120.35 483.25 121.8 482.55 122.3 483.05 122.75 L483.25 123.95 Q482.95 125.4 481.85 124.8 480.8 123.95 480.8 122.3 481.45 121.6 481.35 120.35 L481.45 119.85 Q481.65 119.85 481.95 120.15 L481.95 120.25 482.45 121.1 Q484.7 119.15 486.35 118.95 488.4 118.65 488.4 120.35 488.5 122.3 486.15 123.55 L486.55 124.15 486.05 124.55 Q484.1 125.2 483.15 126.3 482.35 127.25 482.05 128.25 L482.05 128.8 482.55 128.65 Q483.8 127.45 485.55 126.5 486.65 126.5 486.95 126.85 486.85 129.0 484.3 131.15 L483.7 131.65 481.65 133.5 481.35 134.2 481.95 134.1 Q483.05 133.6 484.2 132.75 L487.05 130.9 487.6 130.5 Q487.7 127.65 491.9 126.2 492.9 124.55 493.5 122.5 L493.5 122.1 493.0 122.2 Q490.95 123.05 490.35 124.05 490.05 124.8 489.6 124.55 489.0 123.55 489.65 123.05 490.65 121.3 491.65 117.9 L492.5 118.0 Q493.5 119.05 493.1 119.55 492.2 120.6 491.65 122.2 492.5 121.7 493.4 121.5 494.45 121.3 494.75 121.8 494.55 122.95 493.0 126.2 496.3 126.95 498.25 127.75 498.95 128.25 498.95 129.4 L495.15 129.8 Q493.8 129.8 492.9 130.7 492.3 131.25 491.55 132.35 L491.35 132.85 491.9 132.55 Q492.6 131.75 494.25 131.75 495.35 131.85 495.25 132.95 L494.05 135.15 Q495.65 135.35 495.45 136.05 L493.4 138.0 Q493.0 138.0 493.6 136.65 493.8 136.45 493.6 136.35 493.5 136.15 493.2 136.35 492.1 136.45 492.0 135.45 L492.2 135.25 493.6 133.2 493.5 132.75 493.0 132.75 Q491.7 133.2 491.15 134.0 490.45 134.9 490.95 135.25 491.35 136.45 490.35 136.45 489.65 135.75 489.65 134.7 490.75 131.75 492.5 130.1 493.6 129.1 496.0 129.0 L496.5 128.9 496.2 128.55 492.2 127.35 Q490.95 129.8 489.1 131.35 488.1 132.25 487.8 131.65 487.45 131.15 486.85 132.65 L484.4 135.0 Q482.95 136.15 481.3 135.55 480.9 135.65 480.5 134.5 480.2 133.9 480.8 133.6 483.7 130.9 485.55 127.75 L485.65 127.35 485.2 127.45 Q483.6 128.55 482.95 129.6 482.15 130.95 481.65 130.9 481.0 130.4 480.9 129.5 481.65 127.35 483.6 124.8 483.25 123.85 483.9 123.75 486.25 121.7 486.85 120.5 487.05 120.25 486.85 120.05 M486.85 131.75 Q487.9 131.25 487.6 130.8 487.25 130.7 486.85 131.75 M488.2 130.6 L488.8 130.4 Q489.95 129.5 491.05 127.85 L491.15 127.45 490.65 127.45 Q488.3 128.75 488.1 130.0 488.0 130.5 488.2 130.6 M488.7 144.95 L486.65 145.7 Q486.25 145.9 486.55 145.5 488.2 143.95 487.7 142.8 487.45 142.4 488.1 142.2 489.4 142.3 489.65 143.3 489.85 144.15 488.7 144.95 M489.0 147.75 L487.8 148.25 487.15 148.45 Q485.4 149.45 484.1 152.55 486.55 150.6 489.2 150.7 489.85 151.0 489.75 152.05 489.2 153.8 486.35 154.4 L486.15 155.9 Q487.05 156.15 486.55 156.85 485.85 157.95 486.05 158.2 L487.05 158.2 Q487.35 158.8 486.95 159.2 486.15 159.6 486.05 159.9 L486.05 160.45 488.1 158.7 489.6 157.55 Q490.05 157.15 489.65 157.75 L486.85 161.15 Q485.4 162.3 484.1 162.5 483.5 162.15 483.8 161.05 483.8 160.95 484.3 160.65 L484.8 160.15 484.8 159.9 484.4 159.2 Q484.2 158.8 484.5 158.1 L485.2 156.85 Q484.7 156.95 484.1 157.25 L483.6 157.25 Q483.5 157.15 483.7 156.85 484.2 156.15 485.45 155.9 L485.4 153.45 Q485.2 153.35 485.3 153.25 L485.55 153.05 Q486.35 152.85 486.45 153.9 488.5 153.25 489.2 151.75 489.4 151.2 488.9 151.0 485.65 151.3 483.5 154.2 L482.95 155.0 Q482.35 155.4 482.35 154.9 482.25 154.2 482.45 153.9 482.15 153.75 482.65 153.15 L483.4 152.15 485.55 149.25 Q485.95 148.85 485.45 149.05 483.4 149.8 482.35 149.65 482.05 149.45 482.35 149.15 486.55 147.4 487.7 147.2 488.6 146.9 489.2 147.2 489.4 147.55 489.0 147.75 M494.55 148.35 Q493.5 150.7 493.1 152.85 494.35 152.25 495.65 151.95 496.8 152.05 497.0 152.95 496.9 156.95 495.15 160.35 493.7 162.2 492.7 160.95 491.7 159.7 491.55 159.1 L491.55 158.9 491.8 158.9 Q493.1 159.6 493.8 159.6 495.65 158.6 496.0 153.35 L495.75 152.75 495.25 152.85 492.8 154.0 Q491.35 159.0 489.6 161.55 L489.1 161.95 487.9 163.2 Q487.45 163.6 487.7 163.1 489.6 160.55 491.7 154.3 L490.65 154.4 490.35 154.4 490.65 154.1 492.1 153.35 Q493.2 149.05 493.4 146.9 493.4 146.4 493.85 146.6 494.95 147.3 494.55 148.35 M487.15 171.5 Q487.45 171.7 488.0 171.0 488.2 170.7 488.1 171.1 487.6 172.2 487.6 172.55 487.7 173.65 486.95 174.05 486.15 174.35 485.75 173.65 485.3 172.95 485.45 172.2 L485.75 171.6 485.95 170.05 Q486.75 169.65 487.05 170.5 486.75 171.3 487.15 171.5 M483.15 186.05 L483.05 185.55 482.75 184.4 Q482.15 183.4 482.75 181.95 484.0 178.8 487.6 177.15 L488.8 174.35 489.5 172.65 Q489.65 171.9 490.85 169.45 L491.25 168.55 Q491.55 168.2 493.1 169.15 L493.2 169.55 Q492.0 170.7 491.15 172.65 L490.85 173.35 489.75 175.8 492.8 175.4 Q494.65 176.0 495.05 177.55 494.35 184.5 489.3 186.05 L488.95 186.05 Q486.4 185.95 487.25 183.2 488.3 180.9 490.85 181.65 491.15 182.55 490.55 183.1 489.75 183.4 489.1 183.1 488.2 183.1 487.8 184.2 487.9 185.15 489.0 185.15 491.8 183.8 493.2 179.1 493.4 177.15 490.95 176.95 489.65 177.25 489.0 177.65 486.75 184.1 483.7 185.95 L483.5 186.05 483.15 186.05 M523.35 193.5 L523.5 193.5 523.35 194.6 523.25 195.2 523.15 195.3 523.35 193.5 M522.8 196.0 Q522.6 196.7 523.1 197.45 L523.2 197.55 523.1 197.7 Q522.45 196.8 522.8 196.0 M538.65 195.35 L538.75 195.35 538.7 195.35 538.65 195.35 M574.2 136.8 L575.15 136.45 575.15 136.8 574.2 136.8 M573.4 136.8 L572.95 136.8 573.4 136.35 573.4 136.8 M599.35 141.55 L599.25 141.2 599.25 140.9 603.7 144.3 599.35 141.55 M280.95 186.8 L281.2 187.65 279.85 187.95 279.75 187.55 Q279.4 186.15 279.4 183.55 279.5 180.15 280.0 177.4 L280.8 173.05 281.1 171.75 Q281.1 171.55 280.8 171.65 279.05 172.35 278.85 171.15 278.55 170.3 278.85 170.0 L279.7 167.55 Q279.7 167.15 280.0 167.05 L280.7 167.35 Q281.45 167.95 280.8 170.2 280.6 170.5 281.0 170.2 283.35 169.2 283.05 170.7 282.05 172.45 281.65 175.0 L281.2 177.5 281.2 177.9 Q280.6 180.45 280.6 183.65 280.65 185.6 280.95 186.8 L279.75 187.55 280.95 186.8 M485.95 143.65 Q486.25 143.55 486.05 143.75 L485.75 144.25 485.0 145.6 Q484.5 146.5 483.8 146.5 483.05 146.3 483.05 145.45 L482.85 144.75 Q482.65 144.25 483.6 142.9 483.8 142.7 484.1 143.2 L484.3 144.05 Q484.4 144.45 484.7 144.25 L485.95 143.65 M485.1 161.25 L485.0 161.05 485.0 160.8 484.5 161.35 485.1 161.25 M484.1 184.7 Q485.45 182.65 486.85 178.8 484.0 180.2 483.05 183.2 483.05 184.8 484.1 184.7 M406.25 223.65 L406.25 223.6 406.35 223.65 406.35 224.7 406.25 223.65 406.35 223.65 406.25 223.65 M402.65 219.95 L402.65 220.3 402.2 231.15 402.05 235.75 402.0 236.4 401.25 236.4 401.25 235.75 401.4 220.3 401.9 220.3 401.9 219.95 402.65 219.95 M405.0 224.3 L405.0 223.65 405.05 223.65 405.0 224.3 M414.75 222.0 L414.65 221.8 414.8 221.8 414.75 222.0 M415.3 244.45 L415.8 244.45 416.45 249.65 415.3 249.65 415.3 244.45 M394.6 235.75 L394.65 236.4 393.6 236.4 393.5 235.75 394.6 235.75 M394.85 216.1 L394.85 215.55 394.9 215.55 394.85 216.1 M396.65 215.4 L396.65 215.7 396.65 215.4 M402.65 220.3 L401.9 220.3 402.65 220.3 M391.7 223.9 L391.8 223.8 391.85 224.25 391.7 223.9 M390.1 224.85 L390.15 225.3 390.05 224.95 390.1 224.85 M401.25 235.75 L402.05 235.75 401.25 235.75 M402.2 231.15 L401.9 220.3 402.2 231.15 M297.5 383.45 L291.95 384.55 291.95 383.45 297.5 383.45 M288.45 385.6 L287.55 385.9 288.45 383.45 288.45 385.6 M498.05 249.65 L496.95 249.65 496.95 247.6 498.05 249.65 M566.3 258.9 L565.0 258.9 566.3 256.15 566.3 258.9 M627.05 381.8 L627.35 381.8 627.05 381.8 627.05 381.4 627.35 381.8 628.5 383.45 627.05 383.45 627.05 381.8 M275.6 43.65 L276.4 46.65 276.4 47.15 276.7 46.95 277.25 46.35 Q277.45 46.45 277.25 46.95 276.7 48.3 276.9 49.0 276.6 49.9 275.4 49.5 273.0 46.85 275.05 43.75 275.4 43.25 275.6 43.65 M281.2 44.5 Q281.0 44.6 280.7 45.2 280.4 45.5 280.6 46.05 L280.7 47.15 279.15 47.05 Q278.65 46.35 278.65 45.5 L278.65 45.4 278.65 44.9 278.55 44.8 Q278.55 44.7 278.85 44.6 279.9 44.3 280.2 45.0 281.3 44.0 282.55 43.75 283.8 43.65 284.5 44.2 285.2 46.0 282.95 47.35 L280.8 48.9 Q280.2 49.3 280.6 48.7 283.05 46.05 282.85 44.5 282.15 43.75 281.2 44.5 M283.45 51.95 Q283.9 50.95 282.25 50.75 278.55 51.25 274.35 53.6 273.55 54.1 273.65 54.35 L273.55 54.95 273.45 55.45 Q272.6 55.75 272.2 55.25 271.6 54.0 272.0 53.6 L272.1 53.5 272.9 51.95 Q272.9 51.75 273.05 51.85 L273.35 52.05 273.45 52.5 273.55 52.9 Q280.0 49.3 284.0 49.9 285.5 50.35 285.55 51.65 285.55 52.6 283.8 52.8 282.65 53.2 281.75 53.9 282.05 54.45 281.45 55.05 280.4 55.55 279.5 57.5 L280.3 58.65 Q283.05 58.1 283.25 59.05 283.35 59.85 282.75 60.15 L281.55 60.05 280.5 59.95 280.5 61.6 Q279.5 62.85 277.95 62.95 L275.7 61.6 Q275.5 61.1 275.8 60.7 276.8 59.35 279.3 58.85 L278.95 58.0 Q278.55 57.1 278.75 56.25 L278.95 55.95 279.6 54.85 Q276.4 56.6 276.0 55.45 L275.8 55.25 276.1 55.15 Q276.5 55.35 277.1 54.95 279.4 53.7 281.45 53.7 L283.45 51.95 M276.2 61.4 Q277.25 62.1 278.45 61.7 279.25 61.1 279.3 60.05 277.65 60.15 276.2 60.8 275.9 61.1 276.2 61.4 M273.25 69.4 L273.95 69.5 Q276.0 70.4 276.1 71.45 276.5 73.1 274.75 73.05 274.45 73.1 274.15 73.3 L273.65 73.7 Q273.0 73.9 272.6 74.8 272.4 76.15 273.15 76.95 273.65 77.3 273.75 77.25 274.05 77.5 274.15 78.4 273.95 79.2 273.35 79.0 L272.9 79.1 Q272.1 80.55 272.3 84.35 L272.4 84.65 272.7 84.35 274.55 80.75 274.85 80.45 274.85 80.85 Q274.25 82.5 274.25 83.55 L273.55 86.7 Q273.85 87.0 273.45 87.4 273.05 87.95 272.7 87.5 L271.8 86.6 Q271.4 85.9 271.8 84.95 L271.9 82.1 272.4 79.1 272.3 77.9 Q271.4 76.15 272.5 74.0 L273.85 71.85 Q273.45 71.35 273.25 69.8 L273.25 69.4 M280.6 67.55 Q281.3 69.2 280.4 70.3 280.0 70.6 279.25 72.15 L279.15 72.45 279.15 72.75 279.4 72.65 279.7 72.55 Q283.35 71.15 284.3 71.15 L285.1 71.05 285.1 71.25 285.5 71.45 285.3 71.75 Q285.0 71.95 284.8 71.75 284.5 72.05 283.6 72.35 L282.55 73.1 280.1 75.55 Q278.95 76.85 279.05 78.5 279.3 78.5 279.9 78.1 L280.3 77.9 Q280.2 77.4 280.4 77.05 L280.4 76.15 Q280.3 75.95 280.8 75.95 L281.1 76.55 281.3 77.6 283.35 77.25 Q283.35 76.45 283.5 76.15 L283.6 75.25 283.6 75.1 283.9 75.2 Q284.6 76.05 284.4 77.15 285.75 77.3 286.55 78.4 287.45 80.15 286.85 81.7 L286.55 82.7 Q286.15 83.55 284.7 84.35 284.3 84.55 284.6 84.15 285.95 83.0 286.25 80.55 286.25 78.3 284.5 77.8 284.0 81.7 281.45 84.15 L283.25 85.45 Q283.7 85.55 284.8 86.6 285.1 87.0 285.0 87.5 L283.6 87.6 Q282.05 87.0 280.5 85.15 277.2 86.9 275.6 84.05 275.4 80.95 277.85 79.2 278.15 76.55 279.3 75.35 L282.55 72.25 Q281.0 72.95 278.55 74.1 277.85 74.4 277.75 73.7 L277.65 73.2 Q277.55 72.95 277.85 72.95 L279.5 68.45 279.5 68.25 279.9 67.65 Q280.2 67.25 280.6 67.55 M278.95 79.55 Q278.95 81.6 280.6 83.2 282.35 81.25 283.15 77.9 L281.85 78.2 281.45 78.3 281.65 79.55 281.75 81.05 Q281.75 81.6 281.45 81.5 L281.0 81.6 Q280.5 81.6 280.4 81.05 280.2 80.75 280.3 78.9 L278.95 79.55 M277.25 84.55 Q278.75 85.05 279.5 83.95 278.15 82.3 277.95 80.35 276.6 81.7 276.5 83.4 276.4 84.45 277.25 84.55 M277.25 96.45 L274.65 96.25 Q274.25 96.25 274.25 96.05 274.15 95.8 274.45 95.6 275.7 94.4 279.3 93.45 280.6 92.95 281.2 93.75 281.65 94.7 280.5 95.2 L279.5 96.0 277.2 98.05 273.0 101.55 Q272.7 101.75 273.0 101.75 273.85 101.25 276.9 100.1 277.75 99.7 277.85 99.1 278.45 97.45 279.05 97.55 279.7 97.65 280.3 98.2 280.6 98.7 281.1 98.5 281.75 98.3 281.85 99.2 281.85 100.25 280.5 100.65 L279.5 100.95 278.05 101.45 Q277.65 101.65 277.55 101.85 275.4 106.8 272.4 111.2 271.8 111.9 271.5 111.7 271.0 111.7 271.6 111.1 275.1 105.85 276.6 102.3 L276.3 102.3 Q273.25 104.1 271.8 102.7 L271.3 102.25 271.7 101.75 272.8 100.75 Q274.75 98.8 277.35 96.65 277.55 96.45 277.25 96.45 M302.7 162.35 L303.3 162.35 302.95 171.4 302.7 162.35 302.95 171.4 302.8 175.75 302.15 175.75 302.3 162.35 302.7 162.35 M313.35 163.6 L313.45 163.6 313.4 163.8 313.35 163.6 M167.05 98.75 L67.95 99.0 67.95 33.7 212.1 33.7 212.1 33.9 164.1 33.9 164.1 65.9 212.1 65.9 212.1 98.7 212.05 98.7 212.05 66.7 164.05 66.7 164.05 98.7 167.05 98.75 M63.25 222.95 L63.35 222.85 63.4 223.3 63.25 222.95 M164.0 98.65 L164.0 66.65 116.0 66.65 68.0 66.65 68.0 98.65 116.0 98.65 164.0 98.65 M164.05 65.85 L164.05 33.85 116.05 33.85 116.05 65.85 164.05 65.85 M212.05 106.6 L212.1 106.6 212.1 171.5 67.95 171.5 67.95 171.2 115.95 171.2 163.95 171.2 163.95 139.2 115.95 139.2 67.95 139.2 67.95 138.45 115.95 138.45 115.95 106.6 116.0 106.6 116.0 138.4 164.0 138.4 164.0 106.6 164.05 106.6 164.05 138.45 212.05 138.45 212.05 106.6 M164.0 171.25 L212.0 171.25 212.0 139.25 164.0 139.25 164.0 171.25 M286.95 106.6 Q287.15 106.6 287.45 107.0 L287.9 109.35 Q287.7 110.55 285.5 112.0 L282.55 112.5 Q277.65 112.1 277.25 109.25 276.9 107.6 277.45 105.35 277.65 104.35 277.25 104.35 277.0 104.35 277.1 104.2 L277.55 104.1 Q278.35 104.0 277.95 105.95 277.55 108.5 278.35 109.45 278.85 110.6 281.35 110.8 L284.1 110.55 Q286.35 109.25 286.75 107.2 286.75 106.7 286.95 106.6 M285.2 119.5 Q285.1 120.1 284.4 120.2 283.9 120.3 283.6 120.9 L282.75 121.85 Q281.35 123.05 279.7 127.6 276.3 136.3 274.05 137.4 274.35 138.25 273.15 138.15 272.6 137.85 272.5 137.2 272.7 135.15 272.5 128.5 272.5 128.0 272.0 127.6 270.35 126.85 270.65 125.65 L270.75 125.45 270.95 125.55 Q271.2 125.95 271.9 126.05 L273.55 127.05 Q273.95 127.6 273.55 128.2 272.4 129.95 272.9 133.55 L272.8 136.0 Q272.7 136.5 273.0 136.0 273.65 134.25 275.3 130.85 275.5 130.35 275.5 130.85 L274.75 135.05 Q274.15 136.4 274.15 137.1 278.05 130.75 281.45 121.35 281.55 121.25 281.3 121.25 L279.4 121.15 Q278.85 121.0 279.15 120.7 L282.15 119.2 282.25 119.2 283.15 118.85 284.4 118.75 Q285.1 118.75 285.2 119.5 M284.8 123.4 L284.7 123.7 284.7 124.0 285.2 124.4 285.95 124.3 Q286.45 124.4 286.25 124.8 285.55 125.55 285.5 126.05 L284.5 127.05 284.3 127.6 284.2 128.3 285.2 128.3 Q285.55 128.6 285.55 129.35 285.0 129.85 284.0 131.25 283.8 131.6 283.9 131.9 L284.9 131.9 285.1 132.4 284.8 132.9 284.0 134.15 284.0 135.45 284.7 135.45 285.3 135.35 Q286.65 135.35 286.75 136.0 286.25 137.0 285.75 137.0 L284.2 137.0 282.55 137.1 Q280.9 137.2 281.1 136.4 281.1 135.45 281.45 135.35 282.15 134.85 282.75 133.75 L282.75 133.1 282.55 133.2 282.05 133.2 Q281.75 133.1 281.75 132.2 281.75 131.9 282.25 131.6 282.65 131.45 283.05 130.45 L283.15 129.95 283.25 129.45 Q281.75 129.95 280.6 131.25 280.3 131.45 280.4 131.05 280.7 129.95 283.35 128.7 L283.35 128.3 283.45 127.4 283.25 127.3 Q281.2 127.4 280.7 126.65 L280.5 126.55 280.8 126.35 Q281.75 126.25 283.45 125.35 L283.6 124.9 283.6 124.0 283.7 123.3 284.8 123.4 M272.2 123.6 L272.4 123.2 273.15 121.85 Q272.4 120.9 272.1 119.7 271.8 119.0 272.7 119.0 274.05 119.3 275.5 121.0 276.0 122.05 274.95 122.65 273.85 122.85 272.6 123.5 L272.2 123.6 M278.35 144.0 Q279.9 143.05 280.3 142.95 282.25 142.45 282.85 144.1 281.95 145.8 280.5 146.55 277.85 147.75 276.6 148.5 276.2 148.6 276.4 148.3 L278.65 146.05 278.85 145.7 279.4 144.5 Q279.6 144.2 279.25 144.4 277.65 145.3 277.35 146.05 276.8 147.05 275.9 146.75 273.95 145.9 275.2 143.95 276.2 143.55 276.3 144.1 276.2 144.8 276.9 144.8 L278.35 144.0 M279.15 152.9 L286.55 151.55 288.4 151.65 Q288.7 152.5 288.1 152.9 L286.55 153.3 278.65 154.85 Q277.85 157.0 277.65 158.5 L279.3 157.1 281.0 156.7 Q282.05 156.9 282.25 157.7 282.05 159.45 280.1 161.9 L282.85 162.0 Q283.35 162.3 282.85 162.85 281.45 163.25 280.7 164.05 L280.2 164.15 Q280.1 163.95 280.4 163.65 L281.2 162.7 Q281.35 162.3 281.0 162.5 L280.0 162.75 279.15 163.05 Q278.05 162.75 278.15 161.9 L279.4 158.95 279.4 158.55 279.25 158.55 Q277.55 160.05 277.1 160.7 276.7 161.7 276.3 161.9 275.8 162.0 275.4 161.4 274.65 161.5 275.1 160.55 275.8 159.25 276.6 155.45 269.95 158.85 268.1 156.8 L267.6 156.45 268.2 156.25 271.4 155.35 Q274.55 154.1 277.2 153.4 L277.55 151.05 277.75 150.55 Q277.95 150.45 278.45 150.85 279.3 151.95 279.15 152.9 M274.95 150.0 Q274.65 149.5 275.2 149.4 L276.5 149.2 280.7 148.05 Q281.55 148.3 281.55 149.0 279.7 149.9 277.65 150.2 L274.95 150.0 M275.7 172.05 Q273.65 174.5 271.8 177.9 270.75 179.65 270.15 179.2 269.45 179.2 270.05 178.4 L271.4 176.25 272.0 175.1 273.0 173.3 274.85 169.0 Q274.95 168.35 275.6 168.85 277.55 169.8 275.7 172.05 M283.15 174.3 Q282.95 174.1 283.05 174.0 L283.6 173.9 Q285.5 174.4 285.1 175.35 L283.8 178.0 Q283.5 178.4 283.9 178.5 286.45 179.35 286.35 180.05 286.35 180.55 285.4 180.85 L284.1 181.35 283.5 181.5 282.65 181.8 Q282.45 181.7 282.85 181.35 283.25 181.15 284.1 179.75 284.2 179.45 283.8 179.35 282.15 179.1 283.05 175.45 L283.15 174.3 M273.95 177.9 Q274.55 180.05 274.55 181.15 L274.85 182.9 Q275.05 183.65 274.75 183.95 L273.95 184.05 Q272.2 183.55 272.7 181.5 L273.25 178.0 Q273.25 177.4 273.55 177.25 273.85 177.25 273.95 177.7 L273.95 177.9 M282.1 186.05 L282.1 186.0 282.1 186.05 M305.25 165.7 L305.3 165.15 305.35 165.15 305.25 165.7 M306.3 165.1 L306.4 165.15 306.4 166.0 306.3 165.15 306.4 165.15 306.3 165.15 306.3 165.1 M296.85 158.4 L296.85 158.85 296.85 158.4 M298.35 158.55 L298.3 158.3 298.35 158.3 298.35 158.55 M292.85 166.15 L292.9 166.55 292.8 166.2 292.85 166.15 M292.3 161.8 Q292.3 160.65 292.55 159.55 L293.35 160.9 292.3 161.8 M294.2 165.35 L294.3 165.3 294.35 165.65 294.2 165.35 M116.0 65.9 L116.0 33.9 68.0 33.9 68.0 65.9 116.0 65.9 M86.2 220.85 L86.35 220.85 86.3 221.05 86.2 220.85 M73.45 219.35 L74.2 219.35 73.75 230.2 73.55 235.45 72.8 235.45 72.95 219.35 73.45 219.35 73.75 230.2 73.45 219.35 M76.55 223.35 L76.55 222.7 76.6 222.7 76.55 223.35 M77.8 222.65 L77.9 222.7 77.9 223.75 77.8 222.7 77.8 222.65 M66.45 214.6 L66.4 215.15 66.4 214.6 66.45 214.6 M68.2 214.75 L68.2 214.45 68.2 214.75 M77.9 222.7 L77.8 222.7 77.9 222.7 M61.65 223.9 L61.7 224.35 61.6 224.0 61.65 223.9 M277.85 251.45 L278.1 251.25 278.1 251.8 277.85 251.45 M275.15 377.55 L275.15 376.65 276.45 373.85 275.15 377.55" fill="#ffffff" fill-rule="evenodd" stroke="none"/>
    <path d="M566.3 11.0 L566.3 130.35 576.7 126.6 Q585.25 123.35 593.1 119.65 601.15 115.85 608.5 111.6 621.45 104.05 632.25 95.15 647.05 82.85 657.7 67.85 662.3 61.3 666.2 54.3 L670.6 45.45 672.5 41.2 Q675.95 32.85 678.45 23.95 L679.1 21.55 M708.05 57.0 L699.0 52.95 Q695.45 59.75 691.35 65.95 L708.05 73.05 M605.3 124.5 L609.05 123.5 609.55 123.4 621.3 119.7 Q626.9 117.75 632.25 115.4 637.35 113.15 642.2 110.6 647.8 107.65 653.05 104.25 662.45 98.05 670.6 90.5 682.3 79.65 691.35 65.95 M708.05 32.5 Q704.05 43.3 699.0 52.95 M708.05 92.65 L683.3 80.45 683.3 110.05 708.05 124.1 M653.05 104.25 L662.65 110.3 662.65 189.75 642.2 174.7 642.2 110.6 M687.7 208.85 L680.8 203.7 680.8 121.0 708.05 137.85 M705.25 222.05 L706.4 222.95 M698.3 216.85 L697.25 216.05 M688.7 233.5 L690.0 234.6 M686.55 260.95 Q693.15 264.2 705.05 262.8 L708.05 261.8 M686.85 232.0 L670.6 218.6 632.25 187.0 606.2 165.55 Q617.65 212.2 615.15 258.9 M656.0 277.9 L621.9 249.65 621.9 263.3 656.0 294.0 656.0 277.9 708.05 277.9 M708.05 294.0 L656.0 294.0 656.0 451.8 670.35 451.8 670.35 449.35 M670.35 417.95 L670.35 383.45 670.35 373.85 670.35 367.9 670.35 358.15 670.35 343.9 708.05 343.9 M708.05 302.25 L670.35 302.25 670.35 334.45 708.05 334.45 M670.35 367.9 L679.2 367.9 708.05 367.9 M627.05 381.4 L627.05 311.35 637.8 323.4 648.65 335.65 648.65 367.9 648.65 373.85 648.65 383.45 648.65 395.8 648.65 413.0 648.65 423.75 648.7 423.75 648.65 423.75 648.65 440.05 656.0 451.8 M686.2 383.45 L670.35 383.45 M708.05 373.85 L670.35 373.85 M627.05 302.25 L627.05 275.0 648.65 295.35 648.65 326.5 627.05 303.05 M627.05 302.25 L627.05 303.05 M670.6 218.6 L670.6 90.5 M648.65 423.75 L636.6 405.55 627.05 405.55 621.9 397.3 621.9 304.5 M587.25 266.15 L582.5 266.65 573.5 265.9 572.95 265.7 Q569.25 264.2 566.3 259.7 L566.3 260.75 M536.55 132.85 L536.8 131.55 Q536.8 130.2 535.8 129.2 534.85 128.25 533.5 128.25 532.55 128.25 531.75 128.75 L531.15 129.2 Q530.2 130.2 530.2 131.55 L530.45 132.85 536.55 132.85 539.1 132.85 539.1 148.75 540.45 143.4 542.95 143.95 Q543.1 143.2 543.7 142.55 544.45 141.85 545.45 141.75 L545.8 141.7 Q546.7 141.7 547.45 142.2 L547.85 142.55 Q548.75 143.45 548.75 144.65 L548.7 145.3 550.25 145.65 544.4 166.25 550.7 166.25 Q544.4 169.65 542.8 178.75 L542.6 180.05 542.3 183.5 Q542.2 184.85 542.25 186.3 L542.3 188.5 542.35 189.05 542.45 190.65 542.5 191.0 M512.15 190.4 Q512.15 189.6 512.75 188.95 513.2 188.55 513.75 188.4 512.25 186.25 515.05 182.1 513.65 185.35 516.15 187.55 L517.45 188.55 Q519.55 189.95 522.15 190.75 L523.6 191.2 Q525.2 172.15 514.2 166.25 L527.85 166.25 527.85 132.85 529.7 132.85 530.45 132.85 M575.15 136.45 Q585.25 132.65 588.85 128.9 L589.85 127.65 580.65 129.0 571.9 129.95 566.3 130.35 566.3 148.35 576.4 146.8 581.8 145.45 Q587.8 143.6 592.4 140.85 L595.3 138.9 597.8 136.8 Q603.15 131.8 605.25 124.7 L605.3 124.5 605.2 124.5 599.55 125.8 594.9 126.75 593.1 127.1 589.85 127.65 M548.7 145.3 L542.95 143.95 M512.25 203.95 L511.9 203.6 Q509.3 201.0 509.3 197.35 509.3 193.7 511.9 191.1 L512.2 190.85 512.15 190.55 512.15 190.45 M520.9 200.4 Q519.4 201.45 517.5 201.45 515.05 201.45 513.35 199.7 512.6 198.95 512.15 198.05 511.6 196.9 511.6 195.55 511.6 194.4 512.0 193.45 512.25 192.65 512.8 191.95 513.45 192.55 514.25 192.55 515.1 192.55 515.7 191.9 516.25 191.4 516.35 190.7 517.4 191.65 517.55 192.4 517.7 193.35 520.45 193.4 L523.35 193.5 523.5 193.5 523.35 194.6 523.25 195.2 M523.35 193.5 L523.15 195.3 M539.1 148.75 L534.75 166.25 544.4 166.25 M534.75 166.25 L527.85 166.25 M542.55 191.35 L544.05 190.85 Q546.65 190.05 548.75 188.65 L550.05 187.65 Q552.55 185.45 551.15 182.2 553.9 186.25 552.5 188.4 L552.5 188.45 552.55 188.45 Q553.1 188.55 553.55 189.0 554.2 189.65 554.2 190.5 L554.2 190.75 554.15 191.05 554.3 191.2 Q556.9 193.8 556.9 197.45 556.9 201.1 554.3 203.7 551.8 206.2 548.3 206.3 M544.0 238.3 Q554.5 238.7 565.0 236.55 L565.0 11.0 M545.3 200.5 Q546.8 201.55 548.7 201.55 551.15 201.55 552.85 199.8 554.6 198.1 554.6 195.65 554.6 193.65 553.45 192.1 552.85 192.6 552.1 192.6 551.3 192.6 550.65 192.0 L550.6 191.95 Q550.15 191.5 550.05 190.9 L550.0 190.75 550.0 190.65 549.95 190.7 Q548.8 191.7 548.7 192.5 548.5 193.45 545.75 193.5 L542.75 193.6 542.9 194.7 542.95 195.3 M575.15 136.45 L574.2 136.8 M599.35 141.55 L599.25 141.2 597.8 136.8 M603.7 144.3 L599.35 141.55 Q603.25 153.55 606.2 165.55 M599.25 141.2 L599.25 140.9 603.7 144.3 621.3 157.75 621.3 119.7 M621.3 157.75 L621.3 158.3 M632.25 187.0 L632.25 115.4 M313.85 196.2 L309.1 197.75 Q299.15 198.9 293.65 196.2 M431.2 249.65 L442.55 249.65 M500.0 249.65 L510.5 249.65 M415.3 260.95 L409.55 262.8 Q397.65 264.2 391.05 260.95 M391.05 249.65 L363.3 249.65 343.5 249.65 341.15 249.65 331.55 249.65 325.3 249.65 322.65 249.65 311.1 249.65 289.5 249.65 287.6 249.65 281.55 249.65 279.55 251.8 259.75 272.85 255.0 277.9 569.8 277.9 556.65 260.25 548.7 249.65 540.95 249.65 525.25 249.65 510.5 249.65 M416.45 249.65 L415.3 249.65 M416.45 249.65 L431.2 249.65 M287.55 385.9 L288.45 383.45 288.45 373.85 283.45 387.6 M325.0 383.45 L378.6 383.45 430.8 383.45 483.5 383.45 491.55 383.45 M539.25 382.9 L539.25 373.85 288.45 373.85 288.45 343.9 276.45 343.9 276.45 349.3 276.45 373.85 288.45 373.85 291.95 367.9 291.95 343.9 288.45 343.9 M336.75 343.9 L291.95 343.9 M385.65 343.9 L336.75 343.9 M385.65 343.9 L430.8 343.9 476.4 343.9 529.5 343.9 534.9 343.9 539.25 343.9 548.75 343.9 551.15 343.9 553.65 343.9 553.65 399.35 M558.75 451.8 L569.8 451.8 569.8 446.7 569.8 317.55 569.8 294.0 255.0 294.0 255.0 331.45 255.0 385.0 255.0 451.8 268.7 451.8 M270.2 415.2 L270.2 343.9 272.2 343.9 276.45 343.9 M327.85 367.9 L381.35 367.9 430.8 367.9 M480.7 367.9 L534.9 367.9 534.9 357.75 M480.7 367.9 L430.8 367.9 M587.25 266.15 L592.4 265.0 592.95 264.9 Q599.1 263.3 601.2 263.3 L607.25 263.7 608.5 263.8 Q612.2 263.55 613.95 260.35 L614.4 259.35 M569.8 294.0 L569.8 277.9 M566.3 256.15 L566.3 239.3 565.0 236.55 M517.9 206.2 Q514.65 206.1 512.25 203.95 M500.0 249.65 L498.05 249.65 496.95 249.65 487.95 249.65 486.8 249.65 442.55 249.65 M566.3 256.15 L566.3 258.9 566.3 259.7 M565.0 258.9 L566.3 256.15 M553.65 334.45 L270.2 334.45 270.2 302.25 553.65 302.25 553.65 334.45 M541.95 383.9 L539.25 373.85 534.9 367.9 M551.15 393.25 L551.15 387.3 548.75 373.85 539.25 373.85 539.25 343.9 M534.9 343.9 L534.9 357.75 M551.15 387.3 L551.15 343.9 M548.75 373.85 L548.75 343.9 M627.35 381.8 L627.05 381.8 M628.5 383.45 L627.35 381.8 627.05 381.4 627.05 381.8 M627.35 381.8 L637.8 381.8 637.8 373.85 637.8 367.9 637.8 323.4 M648.65 395.8 L639.1 383.45 637.8 381.8 M621.9 263.3 L621.9 304.5 M566.3 148.35 L566.3 239.3 M209.85 45.3 L166.35 45.3 M86.85 260.0 L83.05 261.2 81.1 261.85 79.55 262.0 68.55 270.55 60.95 270.55 60.95 261.2 M166.35 54.4 L209.85 54.4 M166.3 78.1 L209.8 78.1 M166.3 87.2 L209.8 87.2 M166.3 73.5 L209.8 73.5 M166.3 82.4 L209.8 82.4 M166.3 91.8 L209.8 91.8 M166.35 59.0 L209.85 59.0 M166.35 40.7 L209.85 40.7 M166.35 49.6 L209.85 49.6 M209.8 113.25 L166.3 113.25 M209.75 146.05 L166.25 146.05 M210.25 181.55 L213.25 178.55 M209.8 117.85 L166.3 117.85 M209.8 122.15 L166.3 122.15 M209.75 150.65 L166.25 150.65 M209.8 126.95 L166.3 126.95 M209.75 164.35 L166.25 164.35 M209.75 154.95 L166.25 154.95 M166.25 159.75 L209.75 159.75 M209.8 131.55 L166.3 131.55 M161.8 40.65 L118.3 40.65 M113.75 40.7 L70.25 40.7 M113.75 73.45 L70.25 73.45 M161.8 45.25 L118.3 45.25 M118.3 49.55 L161.8 49.55 M118.25 78.05 L161.75 78.05 M118.25 87.15 L161.75 87.15 M118.25 73.45 L161.75 73.45 M118.25 82.35 L161.75 82.35 M118.25 91.75 L161.75 91.75 M118.3 54.35 L161.8 54.35 M161.8 58.95 L118.3 58.95 M70.2 117.85 L113.7 117.85 M68.55 178.55 L71.55 181.55 M210.25 240.2 L213.25 243.2 M161.75 113.2 L118.25 113.2 M161.7 146.0 L118.2 146.0 M161.75 117.8 L118.25 117.8 M161.75 122.1 L118.25 122.1 M161.7 150.6 L118.2 150.6 M161.75 126.9 L118.25 126.9 M161.7 164.3 L118.2 164.3 M161.7 154.9 L118.2 154.9 M118.2 159.7 L161.7 159.7 M161.75 131.5 L118.25 131.5 M113.75 45.3 L70.25 45.3 M113.75 78.05 L70.25 78.05 M113.75 87.15 L70.25 87.15 M70.2 113.25 L113.7 113.25 M70.2 126.95 L113.7 126.95 M70.2 122.15 L113.7 122.15 M70.2 150.6 L113.7 150.6 M70.2 159.7 L113.7 159.7 M70.2 146.0 L113.7 146.0 M70.2 154.9 L113.7 154.9 M70.2 164.3 L113.7 164.3 M70.2 131.55 L113.7 131.55 M113.75 82.35 L70.25 82.35 M113.75 91.75 L70.25 91.75 M113.75 59.0 L70.25 59.0 M70.25 54.4 L113.75 54.4 M113.75 49.6 L70.25 49.6 M60.95 249.65 L58.55 249.65 M144.4 277.9 L144.4 294.0 187.65 263.35 187.65 261.2 M144.4 277.9 L169.95 261.2 M68.55 270.55 L68.55 261.8 Q65.2 261.25 62.6 260.0 M79.55 262.0 Q73.25 262.6 68.55 261.8 M86.85 418.6 L135.55 418.6 135.55 383.7 71.3 383.7 M58.55 373.9 L135.55 373.9 135.55 368.25 75.0 368.25 58.55 368.25 M150.6 329.2 L183.05 301.6 183.0 273.8 150.6 297.7 150.6 329.2 M58.55 302.25 L135.55 302.25 135.55 334.45 58.55 334.45 M135.55 373.9 L135.55 383.7 M144.4 294.0 L144.4 451.8 152.25 441.9 152.25 424.3 174.5 394.35 182.8 383.15 182.8 403.4 187.65 397.3 187.65 369.5 187.65 305.7 182.8 310.0 182.8 373.9 152.25 412.4 152.25 401.7 152.25 383.7 152.25 373.9 152.25 368.25 152.25 337.0 174.5 317.3 182.8 310.0 M58.55 343.9 L106.25 343.9 135.55 343.9 135.55 368.25 M144.4 294.0 L58.55 294.0 M144.4 277.9 L58.55 277.9 M255.0 277.9 L255.0 294.0 M187.65 263.35 L187.65 280.5 187.65 305.7 M182.8 373.9 L174.5 373.9 166.65 383.7 152.25 401.7 M152.25 373.9 L174.5 373.9 174.5 368.25 152.25 368.25 M174.5 368.25 L174.5 317.3 M275.15 377.55 L272.2 385.85 272.2 407.9 M276.45 373.85 L275.15 377.55 M272.2 385.85 L272.2 356.35 272.2 343.9 M291.95 383.45 L288.45 383.45 288.45 385.6 M291.95 383.45 L297.5 383.45 M291.95 384.55 L291.95 383.45 M166.65 383.7 L152.25 383.7 M174.5 394.35 L174.5 403.4 182.8 403.4 M88.1 435.15 L130.3 435.15 135.55 435.15 135.55 451.8 144.4 451.8 M135.55 418.6 L135.55 423.8 87.55 423.8 M472.9 423.75 L354.65 423.75 M355.65 434.8 L369.4 434.8 430.8 434.8 472.25 434.8 M473.7 418.25 L430.8 418.25 372.35 418.25 353.7 418.25 M479.7 397.3 L430.8 397.3 M376.1 397.3 L347.1 397.3 M376.1 397.3 L430.8 397.3 M627.05 405.55 L627.05 391.2 636.6 405.55 M291.95 367.9 L327.85 367.9 M686.55 249.65 L621.9 249.65 M639.1 383.45 L648.65 383.45 M637.8 373.85 L648.65 373.85 M637.8 367.9 L648.65 367.9 M648.65 413.0 L628.5 383.45" fill="none" stroke="#ffffff" stroke-linecap="round" stroke-linejoin="round" stroke-width="1.0"/>
    <path d="M692.15 215.7 L692.35 236.4 694.65 236.4 694.65 220.3 694.85 220.3 Q694.45 218.4 694.85 216.55 L695.4 214.65 695.45 214.6 695.5 214.75 Q696.15 215.95 696.4 217.3 696.65 218.75 696.5 220.3 L696.9 220.3 697.4 220.3 697.25 216.05 696.9 205.8 Q691.35 202.55 687.5 206.6 L687.7 208.85 690.0 234.6 690.15 236.4 690.6 236.4 690.35 216.1 690.35 215.55 690.4 215.55 Q690.0 213.15 690.35 210.9 L690.35 210.85 Q690.55 209.5 691.0 208.2 692.0 209.85 692.25 211.75 L692.35 212.35 Q692.45 213.8 692.15 215.4 L692.15 215.7 692.15 215.4 690.4 215.55 690.35 216.1 M698.3 216.85 L698.45 213.15 698.55 213.1 Q702.7 210.05 706.1 213.85 L705.25 222.05 M706.4 222.95 L706.9 221.2 706.95 221.25 Q706.65 218.7 708.05 215.65 M696.5 220.3 L694.85 220.3 M698.15 220.3 L698.3 216.85 M697.4 220.3 L698.15 220.3 697.7 231.15 697.5 236.4 700.3 236.4 700.5 224.3 700.5 223.65 700.55 223.65 Q700.15 221.95 700.3 220.3 L700.65 218.6 Q700.8 217.9 701.1 217.25 701.65 218.15 701.85 219.25 L701.9 219.55 Q702.2 221.35 701.75 223.6 L701.75 223.65 701.85 223.65 701.85 224.7 701.85 236.4 702.5 236.4 704.45 229.7 705.25 222.05 M706.95 221.25 L708.05 221.45 M706.25 223.4 L708.05 223.75 M706.4 222.95 L706.25 223.4 704.45 229.7 M701.75 223.65 L701.85 224.7 M700.5 224.3 L700.55 223.65 701.75 223.65 M696.9 220.3 L696.75 236.4 697.5 236.4 M696.75 236.4 L694.65 236.4 M690.15 236.4 L689.1 236.4 687.6 236.4 686.55 236.4 686.55 249.65 686.55 260.95 M690.6 236.4 L692.35 236.4 M708.05 228.95 L705.7 236.4 708.05 236.4 M700.3 236.4 L701.85 236.4 M702.5 236.4 L705.7 236.4 M689.1 236.4 L688.7 233.5 687.35 224.25 687.2 223.9 685.6 224.85 685.65 225.3 686.85 232.0 687.6 236.4 M697.7 231.15 L697.4 220.3 M685.6 224.85 Q684.8 222.25 684.9 219.65 684.95 218.25 685.25 216.9 L686.15 218.55 Q687.1 220.8 687.2 223.9 L687.3 223.8 687.35 224.25 M685.65 225.3 L685.55 224.95 685.6 224.85 M670.35 449.35 Q667.6 433.95 670.35 417.95 671.35 412.0 673.15 406.0 674.55 401.2 676.5 396.35 L677.4 394.1 677.8 393.1 Q680.1 388.5 683.7 384.8 L684.05 384.45 686.2 383.45 Q695.2 379.5 708.05 379.1 M708.05 390.05 L699.9 389.7 698.8 389.6 Q686.7 388.4 683.7 384.8 M708.05 488.1 Q694.05 487.05 681.8 480.4 679.95 477.15 678.4 473.9 L676.95 470.75 676.7 470.2 673.9 462.95 673.7 462.4 Q671.5 455.95 670.35 449.35 M708.05 478.3 L701.1 477.65 Q688.5 476.1 676.95 470.75 M708.05 481.0 L701.0 480.35 Q688.0 478.75 678.4 473.9 M673.9 462.95 Q688.65 469.5 701.0 471.05 L708.05 471.7 M673.15 406.0 Q686.75 413.4 708.05 414.15 M676.5 396.35 Q688.45 403.0 708.05 403.75 M708.05 401.7 Q687.65 401.05 677.4 394.1 M529.7 132.85 L529.7 11.0 M489.3 186.05 L495.25 186.05 510.5 208.7 510.5 219.75 M488.95 186.05 L489.3 186.05 M523.15 195.3 L522.8 196.0 Q522.6 196.7 523.1 197.45 L523.2 197.55 523.1 197.7 523.05 197.7 523.0 197.8 520.9 200.4 M522.8 196.0 Q522.45 196.8 523.1 197.7 M548.3 206.3 L548.7 207.5 549.35 210.1 549.85 214.05 Q550.4 224.55 544.0 238.3 L543.65 239.1 Q541.25 244.3 540.95 249.65 M542.95 195.3 Q543.85 196.45 543.1 197.55 L543.05 197.65 543.15 197.8 543.25 197.9 545.3 200.5 M325.3 186.8 L325.3 186.05 313.85 186.05 313.85 196.2 M293.65 196.2 L293.65 186.05 282.1 186.05 280.95 186.8 M279.75 187.55 L256.25 202.55 M483.5 186.05 L483.15 186.05 446.1 186.05 325.3 186.05 325.3 32.85 446.1 32.85 446.1 186.05 M406.25 223.6 Q406.65 221.6 406.5 219.95 L406.35 219.25 Q406.15 218.15 405.6 217.25 405.0 218.6 404.85 219.95 L404.8 220.3 Q404.65 221.95 405.05 223.65 L406.25 223.65 406.25 223.6 M406.35 223.65 L406.35 224.7 406.35 236.4 407.0 236.4 408.95 229.7 409.95 219.95 410.6 213.85 Q407.2 210.05 403.05 213.1 L402.95 213.15 402.65 219.95 402.65 220.3 402.2 231.15 402.05 235.75 402.0 236.4 404.8 236.4 405.0 224.3 405.0 223.65 405.05 223.65 405.0 224.3 M414.65 221.8 L411.45 221.25 411.4 221.2 410.75 223.4 414.1 224.05 414.75 222.0 414.65 221.8 415.55 219.95 Q416.7 217.0 416.6 213.9 416.5 212.05 416.0 210.15 414.05 212.6 412.95 214.8 411.55 217.6 411.45 219.95 L411.45 221.25 M414.75 222.0 L414.8 221.8 414.65 221.8 M409.95 219.95 L411.45 219.95 M406.25 223.65 L406.35 223.65 M406.35 224.7 L406.25 223.65 M410.75 223.4 L408.95 229.7 M407.0 236.4 L410.2 236.4 410.4 235.75 414.1 224.05 M415.3 244.45 L415.3 236.4 410.2 236.4 M415.3 244.45 L415.8 244.45 431.2 244.45 431.2 249.65 M442.55 249.65 L442.55 247.6 442.55 244.45 485.65 244.45 487.95 244.45 496.95 244.45 500.0 244.45 500.0 249.65 M510.5 249.65 L510.5 219.75 M442.55 235.75 L500.0 235.75 500.0 219.95 442.55 219.95 442.55 235.75 M410.4 235.75 L431.2 235.75 431.2 219.95 415.55 219.95 M391.05 260.95 L391.05 249.65 391.05 244.45 391.05 236.4 392.1 236.4 392.0 235.75 322.65 235.75 322.65 219.95 389.4 219.95 389.4 219.65 389.75 216.9 390.65 218.55 391.15 219.95 393.2 219.95 394.6 235.75 394.65 236.4 395.1 236.4 394.85 216.1 394.85 215.55 394.9 215.55 Q394.5 213.15 394.85 210.9 L395.35 208.7 395.5 208.2 395.8 208.7 Q396.55 210.15 396.75 211.75 397.0 213.5 396.65 215.4 L396.65 215.7 396.85 236.4 399.15 236.4 399.15 220.3 399.35 220.3 399.3 219.95 Q399.0 218.25 399.35 216.55 L399.95 214.6 Q400.6 215.9 400.9 217.3 401.15 218.6 401.0 219.95 L401.0 220.3 401.4 220.3 401.9 220.3 401.9 219.95 402.65 219.95 M415.3 249.65 L415.3 260.95 M415.3 249.65 L415.3 244.45 M415.8 244.45 L416.45 249.65 M442.55 247.6 L485.65 247.6 485.65 244.45 M401.9 219.95 L401.5 208.7 401.4 205.8 Q395.85 202.55 392.0 206.6 L392.2 208.7 393.2 219.95 M322.65 249.65 L322.65 244.45 325.3 244.45 331.55 244.45 341.15 244.45 343.5 244.45 363.95 244.45 391.05 244.45 M396.65 215.4 L396.65 215.7 M394.9 215.55 L396.65 215.4 M401.9 220.3 L402.65 220.3 M401.0 220.3 L399.35 220.3 M394.9 215.55 L394.85 216.1 M391.7 223.9 L391.85 224.25 391.8 223.8 391.7 223.9 Q391.65 221.7 391.15 219.95 M390.1 224.85 L390.05 224.95 390.15 225.3 390.1 224.85 Q389.35 222.4 389.4 219.95 M391.7 223.9 L390.1 224.85 M392.1 236.4 L393.6 236.4 393.5 235.75 391.85 224.25 M393.6 236.4 L394.65 236.4 M394.6 235.75 L393.5 235.75 M399.15 236.4 L401.25 236.4 401.25 235.75 401.4 220.3 M395.1 236.4 L396.85 236.4 M401.25 236.4 L402.0 236.4 M402.05 235.75 L401.25 235.75 M390.15 225.3 L392.0 235.75 M401.9 220.3 L402.2 231.15 M331.55 249.65 L331.55 247.6 325.3 247.6 325.3 249.65 M343.5 244.45 L343.5 249.65 M363.95 244.45 Q363.45 247.05 363.3 249.65 M331.55 247.6 L331.55 244.45 M325.3 244.45 L325.3 247.6 M341.15 249.65 L341.15 244.45 M287.55 385.9 Q285.4 386.65 283.45 387.6 L282.6 388.0 282.25 388.35 282.9 389.0 Q284.0 389.95 285.8 390.7 L288.45 391.65 291.95 392.4 298.45 393.25 Q308.45 393.85 318.3 393.55 L327.2 393.05 327.95 393.0 Q338.2 391.75 340.95 388.45 L340.6 388.1 Q333.95 384.7 325.0 383.45 L315.6 382.75 314.4 382.7 307.6 382.65 297.5 383.45 291.95 384.55 288.45 385.6 287.55 385.9 M491.55 383.45 Q500.25 380.15 512.3 379.95 L519.1 380.0 520.3 380.05 Q531.1 380.25 539.25 382.9 M553.65 399.35 L556.2 406.95 Q563.0 430.0 558.75 451.8 557.6 457.6 555.65 463.35 546.85 467.45 539.2 469.7 533.65 471.3 528.65 471.95 516.25 473.45 504.25 471.9 L499.3 471.1 Q489.0 469.1 477.15 463.8 478.4 467.45 479.95 471.05 L480.2 471.6 481.65 474.75 Q490.05 478.95 501.05 480.75 L504.25 481.2 Q516.25 482.75 528.65 481.25 L535.85 480.05 Q544.25 478.25 550.95 474.85 L552.3 472.0 Q544.6 475.3 536.9 477.1 L528.75 478.55 Q516.35 480.05 504.35 478.5 L500.55 477.95 Q490.0 476.1 480.2 471.6 M268.7 451.8 Q265.75 433.9 270.2 415.2 L271.7 409.55 272.2 409.85 274.8 411.1 277.75 412.35 Q290.75 417.45 309.35 417.75 L311.1 417.75 Q324.65 417.9 335.45 415.5 344.45 413.5 351.5 409.65 350.1 404.85 348.2 400.0 L347.3 397.75 Q341.35 401.75 332.05 403.65 324.2 405.25 313.95 405.3 L310.85 405.3 Q298.4 405.3 289.35 403.2 L288.45 402.95 282.0 400.85 279.05 399.5 Q277.4 398.65 275.95 397.65 L276.35 396.65 Q278.65 392.05 282.25 388.35 M479.7 397.3 L479.75 397.2 480.65 394.95 481.05 393.95 Q482.5 391.1 484.45 388.55 L486.95 385.65 487.3 385.3 Q489.3 384.3 491.55 383.45 M404.8 236.4 L406.35 236.4 M525.25 249.65 Q524.9 244.35 522.55 239.15 514.4 222.15 516.9 210.0 L517.5 207.4 517.9 206.2 M496.95 249.65 L496.95 247.6 496.95 244.45 M496.95 247.6 L498.05 249.65 M565.0 258.9 L556.65 260.25 M487.95 244.45 L487.95 249.65 M486.95 385.65 Q490.1 389.4 503.15 390.55 517.7 391.4 531.9 390.35 L532.65 390.3 534.9 390.0 539.25 389.1 540.5 388.7 543.0 387.75 Q544.7 386.85 545.65 385.75 L545.3 385.4 Q543.7 384.6 541.95 383.9 L539.25 382.9 M551.15 393.25 L551.55 394.05 552.0 395.05 552.9 397.3 553.65 399.35 M552.0 395.05 L551.15 395.6 Q548.75 397.1 545.85 398.3 L543.05 399.3 539.25 400.4 536.9 400.95 536.75 400.95 Q527.7 402.8 515.55 402.6 497.05 402.6 486.15 397.9 L484.8 397.3 Q482.55 396.25 480.65 394.95 M545.65 385.75 Q548.95 389.15 551.15 393.25 M510.5 208.7 L401.5 208.7 M486.8 249.65 L485.65 247.6 M488.95 186.05 L483.5 186.05 M301.8 150.0 L302.3 150.25 302.7 162.35 303.3 162.35 303.6 156.4 303.65 156.35 Q307.15 153.8 309.95 157.0 L308.55 170.2 310.1 164.95 310.6 163.1 310.65 163.15 Q310.4 160.75 311.9 157.8 312.85 155.95 314.45 153.9 314.9 155.5 314.95 157.05 315.1 160.4 313.35 163.6 L313.45 163.6 313.4 163.8 312.85 165.5 309.6 175.75 313.85 175.75 313.85 186.05 M209.85 45.3 L209.85 49.6 209.85 54.4 209.85 59.0 209.85 63.65 166.35 63.65 166.35 59.0 166.35 54.4 166.35 49.6 166.35 45.3 166.35 40.7 166.35 36.3 209.85 36.3 209.85 40.7 209.85 45.3 M167.05 98.75 L67.95 99.0 67.95 33.7 212.1 33.7 212.1 33.9 164.1 33.9 164.1 65.9 212.1 65.9 212.1 98.7 212.05 98.7 167.05 98.75 164.05 98.7 164.05 66.7 212.05 66.7 212.05 98.7 M221.05 25.45 L221.05 270.55 234.9 258.9 234.9 258.75 234.9 29.7 221.05 25.45 60.95 25.45 60.95 218.7 Q61.0 217.3 61.3 215.95 L62.2 217.6 Q63.15 219.85 63.25 222.95 L63.35 222.85 63.4 223.3 65.15 235.45 66.2 235.45 63.55 205.65 Q65.75 203.3 68.55 203.4 L68.55 178.55 213.25 178.55 213.25 243.2 86.85 243.2 86.85 260.0 M83.05 261.2 L169.95 261.2 187.65 261.2 212.4 261.2 214.3 261.2 214.3 270.55 221.05 270.55 M166.3 69.1 L209.8 69.1 209.8 73.5 209.8 78.1 209.8 82.4 209.8 87.2 209.8 91.8 209.8 96.45 166.3 96.45 166.3 91.8 166.3 87.2 166.3 82.4 166.3 78.1 166.3 73.5 166.3 69.1 M164.0 98.65 L116.0 98.65 68.0 98.65 68.0 66.65 116.0 66.65 164.0 66.65 164.0 98.65 M164.05 65.85 L116.05 65.85 116.05 33.85 164.05 33.85 164.05 65.85 M209.8 113.25 L209.8 117.85 209.8 122.15 209.8 126.95 209.8 131.55 209.8 136.2 166.3 136.2 166.3 131.55 166.3 126.95 166.3 122.15 166.3 117.85 166.3 113.25 166.3 108.85 209.8 108.85 209.8 113.25 M164.05 106.6 L164.05 106.45 212.05 106.45 212.05 106.6 212.1 106.6 212.1 171.5 67.95 171.5 67.95 171.2 67.95 139.2 67.95 138.45 67.95 106.45 115.95 106.45 115.95 106.6 116.0 106.6 116.0 106.4 164.0 106.4 164.0 106.6 164.05 106.6 164.05 138.45 212.05 138.45 212.05 106.6 M209.75 146.05 L209.75 150.65 209.75 154.95 209.75 159.75 209.75 164.35 209.75 169.0 166.25 169.0 166.25 164.35 166.25 159.75 166.25 154.95 166.25 150.65 166.25 146.05 166.25 141.65 209.75 141.65 209.75 146.05 M116.0 106.6 L116.0 138.4 164.0 138.4 164.0 106.6 M67.95 139.2 L115.95 139.2 163.95 139.2 163.95 171.2 115.95 171.2 67.95 171.2 M164.0 171.25 L164.0 139.25 212.0 139.25 212.0 171.25 164.0 171.25 M279.75 187.55 L280.95 186.8 M282.1 186.05 L282.1 186.0 282.1 186.05 M313.35 163.6 L313.4 163.8 M310.65 163.15 L313.35 163.6 M312.85 165.5 L310.1 164.95 M305.25 165.7 L305.3 165.15 305.35 165.15 Q304.95 163.75 305.1 162.35 305.2 161.05 305.75 159.8 L306.4 161.5 Q306.75 163.05 306.3 165.1 L306.3 165.15 305.35 165.15 305.25 165.7 305.1 175.75 306.4 175.75 306.95 175.75 308.55 170.2 M306.4 165.15 L306.4 166.0 306.4 175.75 M306.4 166.0 L306.3 165.15 306.4 165.15 M296.8 154.5 Q296.5 156.4 296.85 158.4 L298.3 158.3 Q298.6 156.65 298.4 155.2 298.2 153.65 297.35 152.25 296.95 153.35 296.8 154.5 M296.85 158.4 L296.85 158.85 297.0 175.75 298.5 175.75 298.35 158.55 298.3 158.3 298.35 158.3 298.35 158.55 M296.85 158.85 L296.85 158.4 M298.5 175.75 L300.4 175.75 300.4 162.35 300.6 162.35 Q300.25 160.75 300.6 159.2 L301.05 157.6 Q301.65 158.7 301.85 159.85 302.1 161.05 301.95 162.35 L302.3 162.35 302.7 162.35 302.95 171.4 303.3 162.35 M301.8 150.0 Q297.5 147.75 294.45 150.95 L296.65 175.75 297.0 175.75 M292.85 166.15 L292.8 166.2 292.9 166.55 292.85 166.15 Q292.2 164.0 292.3 161.8 292.3 160.65 292.55 159.55 L293.35 160.9 Q294.1 162.75 294.2 165.35 L294.3 165.3 294.35 165.65 295.8 175.75 296.65 175.75 M301.95 162.35 L300.6 162.35 M294.2 165.35 L294.35 165.65 M292.85 166.15 L294.2 165.35 M295.8 175.75 L294.55 175.75 293.65 175.75 293.65 186.05 M302.15 175.75 L300.4 175.75 M302.8 175.75 L302.15 175.75 302.3 162.35 M306.95 175.75 L309.6 175.75 M302.95 171.4 L302.8 175.75 305.1 175.75 M292.9 166.55 L294.55 175.75 M161.8 40.65 L161.8 45.25 161.8 49.55 161.8 54.35 161.8 58.95 161.8 63.6 118.3 63.6 118.3 58.95 118.3 54.35 118.3 49.55 118.3 45.25 118.3 40.65 118.3 36.25 161.8 36.25 161.8 40.65 M113.75 40.7 L113.75 45.3 113.75 49.6 113.75 54.4 113.75 59.0 113.75 63.65 70.25 63.65 70.25 59.0 70.25 54.4 70.25 49.6 70.25 45.3 70.25 40.7 70.25 36.3 113.75 36.3 113.75 40.7 M118.25 69.05 L161.75 69.05 161.75 73.45 161.75 78.05 161.75 82.35 161.75 87.15 161.75 91.75 161.75 96.4 118.25 96.4 118.25 91.75 118.25 87.15 118.25 82.35 118.25 78.05 118.25 73.45 118.25 69.05 M113.75 73.45 L113.75 78.05 113.75 82.35 113.75 87.15 113.75 91.75 113.75 96.4 70.25 96.4 70.25 91.75 70.25 87.15 70.25 82.35 70.25 78.05 70.25 73.45 70.25 69.05 113.75 69.05 113.75 73.45 M116.0 66.65 L116.0 98.65 M116.0 65.9 L68.0 65.9 68.0 33.9 116.0 33.9 116.0 65.9 M70.2 117.85 L70.2 113.25 70.2 108.85 113.7 108.85 113.7 113.25 113.7 117.85 113.7 122.15 113.7 126.95 113.7 131.55 113.7 136.2 70.2 136.2 70.2 131.55 70.2 126.95 70.2 122.15 70.2 117.85 M70.2 141.6 L113.7 141.6 113.7 146.0 113.7 150.6 113.7 154.9 113.7 159.7 113.7 164.3 113.7 168.95 70.2 168.95 70.2 164.3 70.2 159.7 70.2 154.9 70.2 150.6 70.2 146.0 70.2 141.6 M71.55 181.55 L210.25 181.55 210.25 240.2 M161.75 113.2 L161.75 117.8 161.75 122.1 161.75 126.9 161.75 131.5 161.75 136.15 118.25 136.15 118.25 131.5 118.25 126.9 118.25 122.1 118.25 117.8 118.25 113.2 118.25 108.8 161.75 108.8 161.75 113.2 M161.7 146.0 L161.7 150.6 161.7 154.9 161.7 159.7 161.7 164.3 161.7 168.95 118.2 168.95 118.2 164.3 118.2 159.7 118.2 154.9 118.2 150.6 118.2 146.0 118.2 141.6 161.7 141.6 161.7 146.0 M67.95 138.45 L115.95 138.45 115.95 106.6 M115.95 171.2 L115.95 139.2 M86.2 220.85 L86.35 220.85 86.3 221.05 85.65 223.1 81.75 235.45 86.85 235.45 86.85 240.2 210.25 240.2 M74.2 219.35 L74.5 212.2 74.6 212.15 Q78.75 209.1 82.15 212.9 L80.5 228.75 82.3 222.45 82.95 220.25 83.0 220.3 Q82.7 217.4 84.5 213.85 85.6 211.65 87.55 209.2 88.05 211.1 88.15 212.95 88.3 217.05 86.2 220.85 L83.0 220.3 M86.3 221.05 L86.2 220.85 M86.85 240.2 L86.85 243.2 M85.65 223.1 L82.3 222.45 M60.95 261.2 L60.95 249.65 60.95 219.7 60.95 218.7 M71.55 181.55 L71.55 204.15 72.95 204.85 73.45 219.35 74.2 219.35 73.75 230.2 73.55 235.45 76.35 235.45 76.55 223.35 76.55 222.7 76.6 222.7 Q76.2 221.0 76.35 219.35 76.5 217.8 77.15 216.3 77.7 217.2 77.9 218.3 78.3 220.2 77.8 222.65 L77.8 222.7 77.9 222.7 77.9 223.75 77.9 235.45 78.55 235.45 80.5 228.75 M66.4 209.95 Q66.05 212.2 66.45 214.6 L68.2 214.45 Q68.55 212.55 68.3 210.8 68.05 208.9 67.05 207.25 66.55 208.55 66.4 209.95 M66.45 214.6 L66.4 215.15 66.65 235.45 68.4 235.45 68.2 214.75 68.2 214.45 68.2 214.75 M66.4 215.15 L66.4 214.6 66.45 214.6 M68.4 235.45 L70.7 235.45 70.7 219.35 70.9 219.35 Q70.5 217.45 70.9 215.6 L71.5 213.65 71.55 213.8 Q72.2 215.05 72.45 216.35 72.7 217.8 72.55 219.35 L72.95 219.35 73.45 219.35 73.75 230.2 M72.55 219.35 L70.9 219.35 M77.8 222.7 L76.6 222.7 76.55 223.35 M71.55 204.15 Q70.0 203.45 68.55 203.4 M61.65 223.9 L61.6 224.0 61.7 224.35 61.65 223.9 Q61.0 221.8 60.95 219.7 M63.25 222.95 L63.4 223.3 M63.25 222.95 L61.65 223.9 M62.6 260.0 L62.6 235.45 63.65 235.45 61.7 224.35 M63.65 235.45 L65.15 235.45 M66.2 235.45 L66.65 235.45 M76.35 235.45 L77.9 235.45 M73.55 235.45 L72.8 235.45 70.7 235.45 M72.8 235.45 L72.95 219.35 M77.9 223.75 L77.8 222.7 M58.55 389.6 L59.65 389.5 60.4 389.45 Q70.65 388.2 73.4 384.9 L73.05 384.55 71.3 383.7 Q65.65 381.2 58.55 380.05 M73.4 384.9 Q77.0 388.6 79.3 393.2 L79.75 394.2 80.65 396.45 Q82.55 401.3 83.95 406.1 85.8 412.4 86.85 418.6 M78.55 235.45 L81.75 235.45 M259.75 272.85 L258.1 272.85 258.1 244.45 262.3 244.45 278.1 244.45 287.6 244.45 291.35 244.45 311.1 244.45 311.1 247.6 311.1 249.65 M311.1 219.95 L258.1 219.95 258.1 235.75 311.1 235.75 311.1 219.95 M246.65 258.8 L246.65 208.7 256.25 202.55 M278.1 251.8 L278.1 251.25 277.85 251.45 268.2 258.85 262.3 263.4 262.3 268.45 258.1 272.85 M278.1 251.8 L279.55 251.8 M262.3 258.85 L262.3 263.4 M291.35 247.6 L289.5 249.65 M311.1 247.6 L291.35 247.6 M291.35 244.45 L291.35 247.6 M262.3 244.45 L262.3 258.85 M278.1 244.45 L278.1 251.25 M287.6 249.65 L287.6 244.45 M255.0 331.45 L246.65 331.45 246.65 301.9 246.65 258.8 M272.2 407.9 Q273.45 403.9 275.05 399.9 L275.95 397.65 M275.05 399.9 L278.3 401.55 281.3 402.8 Q284.65 404.05 288.45 405.0 L288.55 405.0 Q298.2 407.3 310.75 407.4 L313.15 407.4 Q324.0 407.3 332.65 405.55 341.55 403.65 348.2 400.0 M272.2 407.9 L271.7 409.55 M284.0 485.8 L280.35 483.95 276.95 477.45 275.5 474.3 275.25 473.75 272.45 466.5 272.25 465.95 Q269.9 458.95 268.7 451.8 M275.5 474.3 Q281.0 476.85 286.7 478.55 293.05 480.4 299.65 481.2 311.65 482.75 324.05 481.25 L332.2 479.8 Q339.9 478.0 347.6 474.7 L347.95 473.85 Q349.65 469.95 350.95 466.05 342.15 470.15 334.5 472.4 328.95 474.0 323.95 474.65 311.55 476.15 299.55 474.6 294.45 473.95 288.95 472.5 281.1 470.35 272.45 466.5 M284.0 485.8 Q295.1 490.95 307.6 491.75 311.55 492.0 315.6 491.8 322.15 491.4 328.35 489.8 335.9 487.85 342.85 484.05 L346.25 477.55 Q339.55 480.95 331.15 482.75 L323.95 483.95 Q311.55 485.45 299.55 483.9 292.1 482.95 285.8 481.0 281.05 479.5 276.95 477.45 M87.55 423.8 Q88.2 429.5 88.1 435.15 87.9 449.05 83.4 462.5 82.1 466.4 80.4 470.3 L80.05 471.15 78.7 474.0 75.3 480.5 Q68.35 484.3 60.8 486.25 L58.55 486.8 M87.55 423.8 L86.85 418.6 M80.65 396.45 Q74.0 400.1 65.1 402.0 L58.55 403.05 M79.75 394.2 Q73.8 398.2 64.5 400.1 L58.55 401.05 M58.55 413.5 L67.9 411.95 Q76.9 409.95 83.95 406.1 M80.05 471.15 Q72.35 474.45 64.65 476.25 L58.55 477.45 M58.55 480.1 L63.6 479.2 Q72.0 477.4 78.7 474.0 M58.55 470.8 L66.95 468.85 Q74.6 466.6 83.4 462.5 M479.7 397.3 Q477.8 402.1 476.4 406.85 481.9 409.8 488.6 411.75 500.3 415.0 515.8 415.05 529.35 415.2 540.15 412.8 L545.9 411.3 549.0 410.2 551.15 409.35 553.65 408.25 556.2 406.95 M479.75 397.2 L479.9 397.3 Q482.95 399.0 486.55 400.3 498.3 404.55 515.45 404.7 527.75 404.8 537.35 402.85 L537.9 402.75 539.25 402.4 543.5 401.25 546.35 400.3 551.15 398.2 552.9 397.3 M552.3 472.0 L552.65 471.15 Q554.35 467.25 555.65 463.35 M550.95 474.85 L547.55 481.35 Q540.6 485.15 533.05 487.1 526.85 488.7 520.3 489.1 516.25 489.3 512.3 489.05 L502.3 487.65 Q493.25 485.7 485.05 481.25 L481.65 474.75 M473.7 418.25 Q474.7 412.6 476.4 406.85 M472.25 434.8 Q472.2 429.3 472.9 423.75 L473.7 418.25 M354.65 423.75 Q355.5 429.3 355.65 434.8 356.1 450.7 350.95 466.05 M472.25 434.8 Q472.25 449.3 476.95 463.25 L477.15 463.8 M353.7 418.25 L354.65 423.75 M347.1 397.3 L347.3 397.75 M351.5 409.65 Q352.8 413.95 353.7 418.25 M347.1 397.3 L346.85 396.75 Q344.55 392.15 340.95 388.45 M346.25 477.55 L347.6 474.7 M392.2 208.7 L246.65 208.7" fill="none" stroke="#ffffff" stroke-linecap="round" stroke-linejoin="round" stroke-width="1.0"/>
    <path d="M510.5 219.75 L512.15 219.75 512.25 203.95 M512.15 190.45 L512.15 190.4 512.15 32.8 466.6 32.8 466.6 185.8 M256.25 202.55 L256.25 202.85 M512.0 193.45 L512.15 198.05 M256.25 202.55 L256.25 31.05 301.8 31.05 301.8 150.0 301.8 150.35" fill="none" stroke="#ffffff" stroke-linecap="round" stroke-linejoin="round" stroke-width="1.0"/>
    <path d="M679.2 367.9 L670.35 358.15 M621.9 304.5 L587.25 266.15 M327.85 367.9 L336.75 343.9 M381.35 367.9 L385.65 343.9 M430.8 367.9 L430.8 343.9 M484.45 388.55 L483.5 383.45 M476.4 343.9 L480.7 367.9 M534.9 357.75 L529.5 343.9 M169.0 42.35 L196.9 42.35 M170.05 43.7 L197.95 43.7 M167.4 37.9 L195.3 37.9 M168.45 39.25 L196.35 39.25 M167.4 46.5 L195.3 46.5 M174.15 52.15 L202.05 52.15 M168.45 61.85 L196.35 61.85 M167.4 60.5 L195.3 60.5 M167.4 55.9 L195.3 55.9 M168.45 57.25 L196.35 57.25 M168.4 94.65 L196.3 94.65 M174.1 84.95 L202.0 84.95 M167.35 93.3 L195.25 93.3 M167.35 70.7 L195.25 70.7 M168.4 72.05 L196.3 72.05 M168.95 75.15 L196.85 75.15 M167.35 88.7 L195.25 88.7 M168.4 90.05 L196.3 90.05 M167.35 79.3 L195.25 79.3 M170.0 76.5 L197.9 76.5 M175.5 50.8 L203.4 50.8 M175.95 47.85 L203.85 47.85 M175.45 83.6 L203.35 83.6 M175.9 80.65 L203.8 80.65 M167.35 128.45 L195.25 128.45 M168.4 129.8 L196.3 129.8 M167.35 119.05 L195.25 119.05 M170.0 116.25 L197.9 116.25 M168.95 114.9 L196.85 114.9 M168.4 111.8 L196.3 111.8 M167.35 110.45 L195.25 110.45 M167.35 133.05 L195.25 133.05 M168.4 134.4 L196.3 134.4 M174.1 124.7 L202.0 124.7 M167.3 143.25 L195.2 143.25 M168.35 144.6 L196.25 144.6 M168.9 147.7 L196.8 147.7 M167.3 165.85 L195.2 165.85 M167.3 161.25 L195.2 161.25 M174.05 157.5 L201.95 157.5 M168.35 167.2 L196.25 167.2 M169.95 149.05 L197.85 149.05 M167.3 151.85 L195.2 151.85 M168.35 162.6 L196.25 162.6 M175.9 120.4 L203.8 120.4 M175.45 123.35 L203.35 123.35 M175.4 156.15 L203.3 156.15 M175.85 153.2 L203.75 153.2 M127.9 47.8 L155.8 47.8 M122.0 43.65 L149.9 43.65 M126.05 84.9 L153.95 84.9 M127.4 83.55 L155.3 83.55 M127.85 80.6 L155.75 80.6 M121.95 76.45 L149.85 76.45 M126.1 52.1 L154.0 52.1 M127.45 50.75 L155.35 50.75 M120.35 94.6 L148.25 94.6 M119.3 93.25 L147.2 93.25 M119.3 88.65 L147.2 88.65 M120.35 90.0 L148.25 90.0 M119.3 79.25 L147.2 79.25 M120.9 75.1 L148.8 75.1 M120.35 72.0 L148.25 72.0 M119.3 70.65 L147.2 70.65 M120.4 61.8 L148.3 61.8 M119.35 60.45 L147.25 60.45 M119.35 55.85 L147.25 55.85 M120.4 57.2 L148.3 57.2 M119.35 46.45 L147.25 46.45 M120.95 42.3 L148.85 42.3 M120.4 39.2 L148.3 39.2 M119.35 37.85 L147.25 37.85 M126.05 124.65 L153.95 124.65 M127.4 123.3 L155.3 123.3 M127.85 120.35 L155.75 120.35 M121.95 116.2 L149.85 116.2 M126.0 157.45 L153.9 157.45 M127.35 156.1 L155.25 156.1 M127.8 153.15 L155.7 153.15 M121.9 149.0 L149.8 149.0 M120.3 167.15 L148.2 167.15 M119.25 165.8 L147.15 165.8 M119.25 161.2 L147.15 161.2 M120.3 162.55 L148.2 162.55 M119.25 151.8 L147.15 151.8 M120.85 147.65 L148.75 147.65 M120.3 144.55 L148.2 144.55 M119.25 143.2 L147.15 143.2 M120.35 134.35 L148.25 134.35 M119.3 133.0 L147.2 133.0 M119.3 128.4 L147.2 128.4 M120.35 129.75 L148.25 129.75 M119.3 119.0 L147.2 119.0 M120.9 114.85 L148.8 114.85 M120.35 111.75 L148.25 111.75 M119.3 110.4 L147.2 110.4 M71.25 165.8 L99.15 165.8 M72.3 167.15 L100.2 167.15 M78.0 157.45 L105.9 157.45 M79.35 156.1 L107.25 156.1 M79.8 153.15 L107.7 153.15 M71.25 161.2 L99.15 161.2 M72.3 162.55 L100.2 162.55 M71.25 151.8 L99.15 151.8 M73.9 149.0 L101.8 149.0 M72.85 147.65 L100.75 147.65 M72.3 144.55 L100.2 144.55 M71.25 143.2 L99.15 143.2 M78.0 124.7 L105.9 124.7 M79.35 123.35 L107.25 123.35 M79.8 120.4 L107.7 120.4 M72.3 134.4 L100.2 134.4 M71.25 133.05 L99.15 133.05 M71.25 128.45 L99.15 128.45 M72.3 129.8 L100.2 129.8 M71.25 119.05 L99.15 119.05 M73.9 116.25 L101.8 116.25 M72.85 114.9 L100.75 114.9 M72.3 111.8 L100.2 111.8 M71.25 110.45 L99.15 110.45 M78.05 84.9 L105.95 84.9 M79.4 83.55 L107.3 83.55 M79.85 80.6 L107.75 80.6 M72.35 94.6 L100.25 94.6 M71.3 93.25 L99.2 93.25 M71.3 88.65 L99.2 88.65 M72.35 90.0 L100.25 90.0 M71.3 79.25 L99.2 79.25 M73.95 76.45 L101.85 76.45 M72.9 75.1 L100.8 75.1 M72.35 72.0 L100.25 72.0 M71.3 70.65 L99.2 70.65 M78.05 52.15 L105.95 52.15 M79.4 50.8 L107.3 50.8 M79.85 47.85 L107.75 47.85 M72.35 61.85 L100.25 61.85 M71.3 60.5 L99.2 60.5 M71.3 55.9 L99.2 55.9 M72.35 57.25 L100.25 57.25 M71.3 46.5 L99.2 46.5 M73.95 43.7 L101.85 43.7 M72.9 42.35 L100.8 42.35 M72.35 39.25 L100.25 39.25 M71.3 37.9 L99.2 37.9 M106.25 343.9 L75.0 368.25 M262.3 258.85 L268.2 258.85 M187.65 280.5 L212.4 261.2 M246.65 301.9 L187.65 369.5 M272.2 356.35 L276.45 349.3 M246.65 258.8 L234.9 258.75 M284.0 485.8 L278.75 499.95 M130.3 435.15 L73.75 499.95 M502.3 487.65 L504.5 499.95 M569.8 446.7 L590.7 499.95 M430.8 397.3 L430.8 418.25 M430.8 397.3 L430.8 383.45 M372.35 418.25 L376.1 397.3 M357.8 499.95 L369.4 434.8 M430.8 434.8 L430.8 499.95 M378.6 383.45 L376.1 397.3 M255.0 385.0 L185.9 499.95 M569.8 317.55 L682.95 499.95" fill="none" stroke="#ffffff" stroke-linecap="round" stroke-linejoin="round" stroke-width="1.0"/>
  </g>
</svg>
