<?xml version="1.0" encoding="UTF-8" standalone="no"?>
<svg xmlns:xlink="http://www.w3.org/1999/xlink" height="22.4px" width="45.65px" xmlns="http://www.w3.org/2000/svg">
  <g transform="matrix(1.0, 0.0, 0.0, 1.0, 0.0, 0.0)">
    <path d="M45.25 17.35 L45.65 17.65 Q45.4 19.55 43.15 21.5 40.4 22.55 37.65 22.35 L37.65 22.3 32.5 22.3 31.4 22.2 Q27.0 15.8 31.1 8.7 38.5 9.65 45.25 17.35 M11.95 4.45 Q12.9 8.35 11.15 11.6 L6.95 11.2 4.9 10.05 4.6 9.9 Q1.9 8.2 1.0 3.35 0.95 2.55 0.5 1.3 L0.0 0.1 0.5 0.05 1.4 0.0 Q4.7 -0.05 7.35 1.1 L8.15 1.45 Q10.25 2.55 11.95 4.45" fill="#ffffff" fill-rule="evenodd" stroke="none"/>
  </g>
</svg>
