<?xml version="1.0" encoding="UTF-8" standalone="no"?>
<svg xmlns:xlink="http://www.w3.org/1999/xlink" height="27.65px" width="53.7px" xmlns="http://www.w3.org/2000/svg">
  <g transform="matrix(1.0, 0.0, 0.0, 1.0, -0.35, 0.0)">
    <path d="M51.35 20.55 L51.6 20.5 53.05 20.1 51.75 20.85 Q50.45 21.45 49.5 21.5 L54.0 21.65 54.05 21.65 Q52.05 22.9 50.5 23.1 49.35 24.75 46.15 26.45 L45.3 26.85 45.8 26.5 Q48.05 24.55 48.3 22.65 L44.75 18.85 Q41.35 15.2 35.55 14.2 29.75 13.15 27.15 14.15 L28.15 13.65 Q31.4 11.9 33.05 11.8 L36.35 11.9 Q37.75 12.05 41.1 13.45 44.4 14.8 48.25 19.8 49.6 20.8 51.35 20.55 M34.0 9.65 Q31.05 8.85 27.9 8.6 32.25 8.15 36.15 9.35 40.35 10.65 43.95 13.8 L45.6 15.4 46.05 15.85 47.65 17.7 Q45.2 15.15 42.4 13.35 L40.25 12.15 37.95 10.95 Q36.8 10.45 35.45 10.1 L34.0 9.65 M14.1 5.1 L13.95 4.95 13.45 4.5 11.5 2.95 Q9.85 1.8 8.15 1.25 L6.7 0.8 Q4.25 0.25 1.7 0.8 9.75 -2.25 15.15 6.2 L14.1 5.1 M1.75 1.95 Q2.5 2.95 3.65 3.3 L4.55 3.2 5.85 2.95 6.85 2.85 8.2 2.95 10.05 3.4 12.6 4.95 Q14.25 6.15 15.15 8.1 L15.4 8.7 15.55 9.1 15.75 10.1 Q15.55 10.15 15.5 10.55 L14.35 8.45 Q13.5 7.45 12.15 6.8 L10.35 6.0 Q7.7 4.85 4.4 4.9 L3.5 4.95 3.15 5.2 3.5 6.2 4.0 8.25 4.0 8.65 3.75 7.95 3.5 7.3 Q2.4 4.7 0.35 2.85 L1.2 3.35 2.2 3.65 2.7 3.75 2.95 3.75 2.8 3.65 Q2.0 3.0 1.7 2.0 L1.65 1.8 1.75 1.95 M38.5 27.6 L37.2 27.65 34.7 27.3 40.3 27.3 40.2 27.35 38.5 27.6 M9.95 16.4 L9.0 16.15 8.15 15.7 7.7 15.35 7.25 14.9 9.95 16.4" fill="#000000" fill-rule="evenodd" stroke="none"/>
    <path d="M46.05 15.85 L47.05 16.75 48.1 18.0 49.15 19.15 50.45 20.05 51.35 20.55 Q49.6 20.8 48.25 19.8 44.4 14.8 41.1 13.45 37.75 12.05 36.35 11.9 L33.05 11.8 Q31.4 11.9 28.15 13.65 L29.45 12.5 31.0 11.35 32.4 10.35 Q33.2 9.85 34.0 9.65 L35.45 10.1 Q36.8 10.45 37.95 10.95 L40.25 12.15 42.4 13.35 Q45.2 15.15 47.65 17.7 L46.05 15.85 M51.75 20.85 L52.6 21.5 54.0 21.65 49.5 21.5 Q50.45 21.45 51.75 20.85 M6.7 0.8 L8.15 1.25 Q9.85 1.8 11.5 2.95 L13.45 4.5 13.95 4.95 14.1 5.1 15.05 6.6 15.4 8.0 15.4 8.7 15.15 8.1 Q14.25 6.15 12.6 4.95 L10.05 3.4 8.2 2.95 6.85 2.85 5.85 2.95 4.55 3.2 3.65 3.3 Q2.5 2.95 1.75 1.95 L1.85 1.85 Q2.5 1.3 3.35 1.0 L5.15 0.75 6.7 0.8 M1.2 3.35 Q1.15 2.5 1.7 2.0 2.0 3.0 2.8 3.65 L2.95 3.75 2.7 3.75 2.2 3.65 1.2 3.35" fill="#fec1ab" fill-rule="evenodd" stroke="none"/>
  </g>
</svg>
