<?xml version="1.0" encoding="UTF-8" standalone="no"?>
<svg xmlns:xlink="http://www.w3.org/1999/xlink" height="8.9px" width="13.35px" xmlns="http://www.w3.org/2000/svg">
  <g transform="matrix(1.0, 0.0, 0.0, 1.0, 0.0, 0.0)">
    <path d="M12.8 3.85 L13.1 3.8 12.9 4.15 Q12.75 4.55 11.85 4.35 L9.8 3.95 7.75 3.45 6.35 3.0 6.25 3.0 6.15 2.95 5.9 2.85 6.0 2.85 Q10.55 3.9 12.8 3.85 M2.35 1.45 L2.8 1.75 1.9 1.5 0.95 1.25 Q0.25 1.05 0.1 0.5 L0.0 0.0 0.5 0.3 2.35 1.45 M2.0 5.9 L1.9 5.3 Q4.35 7.2 5.95 7.1 7.55 7.0 6.7 7.25 L6.4 7.35 6.15 7.4 4.6 7.55 Q3.4 7.55 2.7 6.85 L2.0 5.9" fill="#000000" fill-rule="evenodd" stroke="none"/>
    <path d="M6.0 2.85 Q4.8 2.2 4.6 2.3 L3.5 2.0 2.35 1.45 0.5 0.3 3.85 0.2 5.7 0.65 7.55 1.6 Q8.95 2.35 10.8 2.75 12.0 3.0 13.35 3.65 L12.8 3.85 Q10.55 3.9 6.0 2.85 M5.9 5.7 L6.25 5.45 Q6.8 4.45 5.5 4.5 L5.45 4.45 Q4.7 3.6 3.5 3.85 L3.15 4.05 Q2.8 4.35 3.05 4.7 3.5 5.25 4.3 5.1 4.9 5.85 5.9 5.7 M8.95 4.5 L11.05 4.55 10.1 5.4 9.2 6.2 Q8.6 6.7 7.35 6.85 L4.9 6.65 2.8 5.85 Q1.9 5.35 1.65 4.5 1.4 3.6 1.4 2.6 L3.35 2.3 Q4.85 2.3 5.7 3.0 L7.4 3.95 8.45 4.2 8.95 4.5 M7.75 5.55 Q8.95 5.05 7.8 4.45 6.85 4.75 7.5 5.5 L7.75 5.55" fill="#ffc6da" fill-rule="evenodd" stroke="none"/>
    <path d="M6.25 3.0 L6.15 2.95 6.25 3.0" fill="#ff6699" fill-rule="evenodd" stroke="none"/>
    <path d="M5.9 5.7 Q4.9 5.85 4.3 5.1 3.5 5.25 3.05 4.7 2.8 4.35 3.15 4.05 L3.5 3.85 Q4.7 3.6 5.45 4.45 L5.5 4.5 Q6.8 4.45 6.25 5.45 L5.9 5.7 M7.75 5.55 L7.5 5.5 Q6.85 4.75 7.8 4.45 8.95 5.05 7.75 5.55" fill="#ffffff" fill-rule="evenodd" stroke="none"/>
    <path d="M2.0 5.9 L2.7 6.85 Q3.4 7.55 4.6 7.55 L6.15 7.4 6.4 7.35 7.45 7.35 7.85 7.3 7.35 7.7 6.55 8.45 Q6.15 8.9 5.25 8.9 L3.6 8.6 2.3 7.55 Q1.8 6.85 2.0 5.9" fill="#ffceb7" fill-rule="evenodd" stroke="none"/>
  </g>
</svg>
