<?xml version="1.0" encoding="UTF-8" standalone="no"?>
<svg xmlns:xlink="http://www.w3.org/1999/xlink" height="90.9px" width="139.15px" xmlns="http://www.w3.org/2000/svg">
  <g transform="matrix(1.0, 0.0, 0.0, 1.0, 0.5, 0.5)">
    <path d="M35.1 8.1 L35.7 7.8 35.5 7.8 Q50.35 -2.2 66.7 0.6 75.05 4.05 78.85 7.8 71.05 3.4 63.75 2.5 70.85 5.35 72.2 11.35 70.55 8.75 67.35 7.35 70.05 9.8 70.3 12.3 67.7 8.9 62.6 6.05 67.35 10.0 69.05 15.8 65.2 10.9 60.15 9.15 64.6 13.3 67.1 18.2 58.75 9.05 50.45 4.8 55.8 9.85 57.85 14.9 55.95 12.1 52.15 9.4 55.05 12.8 56.4 16.65 53.1 12.8 48.7 10.75 53.1 15.35 54.55 20.2 48.95 12.9 39.45 8.5 48.25 14.75 53.55 24.75 L46.25 17.15 Q51.1 23.6 55.65 35.2 63.6 58.35 73.7 69.25 75.45 71.15 77.25 72.65 81.2 75.95 85.5 77.55 87.8 78.4 90.25 78.7 L94.35 78.9 94.35 78.95 Q91.15 79.35 88.1 78.95 L85.7 78.5 88.1 78.95 Q93.85 86.3 99.3 88.8 92.75 87.25 85.7 78.5 L85.15 78.35 83.35 77.8 Q79.05 76.2 75.1 72.9 73.3 71.4 71.55 69.5 61.45 58.6 53.5 35.45 43.9 10.95 34.3 8.95 L33.55 8.85 34.6 8.3 33.4 8.6 Q13.0 14.15 12.85 37.25 12.75 55.85 7.25 64.35 L6.5 65.1 Q3.75 67.7 0.0 69.4 10.3 63.0 10.45 37.4 10.6 12.25 34.75 7.95 L34.8 8.05 34.85 8.2 35.1 8.1 M34.85 8.2 L34.6 8.3 34.85 8.2 M107.1 2.8 Q111.0 3.8 115.4 6.3 128.0 14.9 130.05 26.8 137.8 31.9 138.15 47.05 136.55 68.45 118.85 75.85 L118.55 75.9 Q105.25 79.45 97.35 73.85 104.4 76.55 114.65 73.8 L114.95 73.75 Q132.65 66.35 134.8 44.95 134.15 34.5 130.35 28.9 L130.05 26.8 130.35 28.9 130.45 30.45 130.2 35.5 Q129.55 39.15 128.05 41.9 L126.8 43.9 Q123.75 47.85 118.45 49.1 113.05 49.95 108.35 48.95 L108.05 54.45 107.3 59.75 Q106.45 62.65 105.25 64.95 102.65 69.7 98.3 71.6 L95.7 72.45 94.9 72.65 94.55 72.45 94.9 72.0 95.2 71.6 97.95 70.5 Q100.55 69.45 102.65 65.9 104.75 62.3 104.7 60.4 L105.85 54.55 106.25 51.05 106.4 47.35 105.95 39.95 Q105.45 35.1 102.85 25.65 L103.25 26.45 Q106.8 33.3 107.9 41.25 108.35 44.65 108.35 48.25 L114.65 47.9 Q119.95 46.65 123.0 42.7 125.45 39.4 126.4 34.3 126.95 29.9 126.3 25.85 L126.25 25.6 126.1 24.75 125.65 22.9 124.4 19.45 Q120.8 11.25 111.6 4.65 109.25 3.55 107.1 2.8 M84.8 75.0 L86.6 77.05 83.05 75.2 Q73.75 63.5 69.9 48.8 L71.6 50.2 Q73.6 57.2 77.0 63.55 80.25 69.55 84.8 75.0 M108.35 48.95 L108.35 48.25 108.35 48.95" fill="#ffffff" fill-rule="evenodd" stroke="none"/>
    <path d="M7.25 64.35 Q12.75 55.85 12.85 37.25 13.0 14.15 33.4 8.6 L34.6 8.3 33.55 8.85 33.4 8.6 33.55 8.85 Q13.1 19.65 14.15 40.5 14.95 56.3 7.25 64.35 M71.55 69.5 Q73.3 71.4 75.1 72.9 69.55 80.6 58.5 82.8 66.95 78.85 71.55 69.5 M94.35 78.9 L90.25 78.7 Q87.8 78.4 85.5 77.55 81.2 75.95 77.25 72.65 75.45 71.15 73.7 69.25 63.6 58.35 55.65 35.2 51.1 23.6 46.25 17.15 L53.55 24.75 Q48.25 14.75 39.45 8.5 48.95 12.9 54.55 20.2 53.1 15.35 48.7 10.75 53.1 12.8 56.4 16.65 55.05 12.8 52.15 9.4 55.95 12.1 57.85 14.9 55.8 9.85 50.45 4.8 58.75 9.05 67.1 18.2 64.6 13.3 60.15 9.15 65.2 10.9 69.05 15.8 67.35 10.0 62.6 6.05 67.7 8.9 70.3 12.3 70.05 9.8 67.35 7.35 70.55 8.75 72.2 11.35 70.85 5.35 63.75 2.5 71.05 3.4 78.85 7.8 75.05 4.05 66.7 0.6 74.2 1.9 82.0 5.85 83.6 6.65 85.25 7.6 93.45 -0.85 107.1 2.8 109.25 3.55 111.6 4.65 120.8 11.25 124.4 19.45 L125.65 22.9 126.1 24.75 126.25 25.6 126.3 25.85 Q126.95 29.9 126.4 34.3 125.45 39.4 123.0 42.7 119.95 46.65 114.65 47.9 L108.35 48.25 Q108.35 44.65 107.9 41.25 113.2 43.15 118.5 36.95 L118.8 36.6 120.5 33.45 Q121.45 30.85 120.95 27.85 122.15 17.35 112.75 11.05 109.1 9.0 105.2 8.0 95.05 5.3 87.95 9.25 L89.25 10.1 Q94.4 15.5 95.8 20.3 92.85 15.45 87.4 10.6 93.6 18.35 96.45 26.1 92.65 19.75 84.5 13.35 90.15 21.05 90.8 28.7 86.85 19.0 75.45 9.3 82.05 18.1 83.75 26.35 81.85 22.5 77.2 18.65 80.1 22.8 79.95 26.9 78.95 23.05 74.9 19.15 78.55 25.45 79.6 30.95 76.2 25.05 68.95 19.15 73.05 25.55 72.8 30.6 69.4 23.85 61.65 17.05 65.0 21.95 64.55 26.25 63.4 21.55 57.8 16.85 61.2 23.15 61.6 29.45 60.0 25.75 57.05 21.7 59.3 26.65 59.5 30.55 L59.75 32.7 Q67.35 64.85 82.5 74.85 L83.05 75.2 86.6 77.05 Q90.3 78.6 94.35 78.9 M97.35 73.85 L95.7 72.45 98.3 71.6 Q104.35 72.8 112.4 70.65 L112.7 70.6 Q126.6 64.8 127.3 52.75 128.65 48.65 127.2 44.85 L126.8 43.9 128.05 41.9 Q129.55 39.15 130.2 35.5 L130.45 30.45 130.35 28.9 Q134.15 34.5 134.8 44.95 132.65 66.35 114.95 73.75 L114.65 73.8 Q104.4 76.55 97.35 73.85 M87.95 9.25 L85.25 7.6 87.95 9.25" fill="#fedf76" fill-rule="evenodd" stroke="none"/>
    <path d="M87.95 9.25 Q95.05 5.3 105.2 8.0 109.1 9.0 112.75 11.05 122.15 17.35 120.95 27.85 120.25 23.7 116.8 18.85 L116.45 18.4 Q105.65 7.75 93.25 13.35 L90.7 11.05 89.25 10.1 90.7 11.05 93.25 13.35 98.1 18.55 Q100.85 21.95 102.85 25.65 105.45 35.1 105.95 39.95 L106.4 47.35 106.25 51.05 105.85 54.55 104.7 60.4 Q104.75 62.3 102.65 65.9 100.55 69.45 97.95 70.5 L95.2 71.6 94.9 72.0 Q92.35 73.85 88.1 73.45 83.8 73.05 77.0 63.55 73.6 57.2 71.6 50.2 L69.9 48.8 Q73.75 63.5 83.05 75.2 L82.5 74.85 Q74.25 66.3 71.2 57.8 66.2 45.9 63.1 34.0 62.6 31.8 61.6 29.45 61.2 23.15 57.8 16.85 63.4 21.55 64.55 26.25 65.0 21.95 61.65 17.05 69.4 23.85 72.8 30.6 73.05 25.55 68.95 19.15 76.2 25.05 79.6 30.95 78.55 25.45 74.9 19.15 78.95 23.05 79.95 26.9 80.1 22.8 77.2 18.65 81.85 22.5 83.75 26.35 82.05 18.1 75.45 9.3 86.85 19.0 90.8 28.7 90.15 21.05 84.5 13.35 92.65 19.75 96.45 26.1 93.6 18.35 87.4 10.6 92.85 15.45 95.8 20.3 94.4 15.5 89.25 10.1 L87.95 9.25 M105.25 64.95 Q116.2 67.8 123.3 59.4 126.2 56.0 127.3 52.75 126.6 64.8 112.7 70.6 L112.4 70.65 Q104.35 72.8 98.3 71.6 102.65 69.7 105.25 64.95 M71.35 49.3 L71.6 50.2 71.35 49.3 M95.65 70.9 L95.2 71.6 95.65 70.9 95.95 70.4 95.25 70.75 95.65 70.9 M81.4 64.4 Q87.25 72.6 93.1 71.45 L95.25 70.75 93.1 71.45 Q87.25 72.6 81.4 64.4" fill="#fdba1e" fill-rule="evenodd" stroke="none"/>
    <path d="M83.35 77.8 L85.15 78.35 85.7 78.5 Q92.75 87.25 99.3 88.8 L99.7 89.0 99.65 89.25 Q90.75 86.65 83.35 77.8 M94.3 72.7 Q91.05 76.1 84.8 75.0 80.25 69.55 77.0 63.55 83.8 73.05 88.1 73.45 92.35 73.85 94.9 72.0 L94.55 72.45 94.3 72.7 M120.95 27.85 Q121.45 30.85 120.5 33.45 113.45 24.35 103.25 26.45 L102.85 25.65 Q100.85 21.95 98.1 18.55 107.2 16.05 116.8 18.85 120.25 23.7 120.95 27.85 M61.6 29.45 Q62.6 31.8 63.1 34.0 66.2 45.9 71.2 57.8 74.25 66.3 82.5 74.85 67.35 64.85 59.75 32.7 L59.5 30.55 Q59.3 26.65 57.05 21.7 60.0 25.75 61.6 29.45" fill="#f7a002" fill-rule="evenodd" stroke="none"/>
    <path d="M35.1 8.1 L35.7 7.8 35.5 7.8 34.75 7.95 Q10.6 12.25 10.45 37.4 10.3 63.0 0.0 69.4 3.75 67.7 6.5 65.1 L7.25 64.35 Q14.95 56.3 14.15 40.5 13.1 19.65 33.55 8.85 M34.85 8.2 L35.1 8.1 M34.6 8.3 L34.85 8.2 M34.6 8.3 L33.55 8.85" fill="none" stroke="#000000" stroke-linecap="round" stroke-linejoin="round" stroke-width="1.0"/>
    <path d="M35.5 7.8 L35.1 8.1 34.8 8.05 M33.55 8.85 L34.3 8.95 Q43.9 10.95 53.5 35.45 61.45 58.6 71.55 69.5 73.3 71.4 75.1 72.9 79.05 76.2 83.35 77.8 L85.15 78.35 M85.7 78.5 L88.1 78.95 Q91.15 79.35 94.35 78.95 M66.7 0.6 Q50.35 -2.2 35.5 7.8 M33.55 8.85 L33.4 8.6 M66.7 0.6 Q74.2 1.9 82.0 5.85 83.6 6.65 85.25 7.6 93.45 -0.85 107.1 2.8 111.0 3.8 115.4 6.3 128.0 14.9 130.05 26.8 137.8 31.9 138.15 47.05 136.55 68.45 118.85 75.85 L118.55 75.9 Q105.25 79.45 97.35 73.85 L95.7 72.45 94.9 72.65 94.3 72.7 Q91.05 76.1 84.8 75.0 L86.6 77.05 Q90.3 78.6 94.35 78.9 L94.65 78.9 94.35 78.95 M85.25 7.6 L87.95 9.25 89.25 10.1 90.7 11.05 93.25 13.35 Q105.65 7.75 116.45 18.4 L116.8 18.85 Q120.25 23.7 120.95 27.85 121.45 30.85 120.5 33.45 L118.8 36.6 118.5 36.95 Q113.2 43.15 107.9 41.25 108.35 44.65 108.35 48.25 L108.35 48.95 108.05 54.45 107.3 59.75 Q106.45 62.65 105.25 64.95 116.2 67.8 123.3 59.4 126.2 56.0 127.3 52.75 128.65 48.65 127.2 44.85 L126.8 43.9 128.05 41.9 Q129.55 39.15 130.2 35.5 L130.45 30.45 130.35 28.9 130.05 26.8 M126.8 43.9 Q123.75 47.85 118.45 49.1 113.05 49.95 108.35 48.95 M98.1 18.55 Q100.85 21.95 102.85 25.65 L103.25 26.45 Q113.45 24.35 120.5 33.45 M107.9 41.25 Q106.8 33.3 103.25 26.45 M95.2 71.6 L94.9 72.0 94.55 72.45 94.9 72.65 M82.5 74.85 L83.05 75.2 M71.6 50.2 L71.35 49.3 M98.3 71.6 L95.7 72.45 M95.2 71.6 L95.65 70.9 95.25 70.75 93.1 71.45 Q87.25 72.6 81.4 64.4 M94.3 72.7 L94.55 72.45 M95.25 70.75 L95.95 70.4 95.65 70.9 M99.7 89.0 L102.6 89.9 99.65 89.25 Q90.75 86.65 83.35 77.8 M86.6 77.05 L83.05 75.2 M99.3 88.8 Q93.85 86.3 88.1 78.95 M77.0 63.55 Q80.25 69.55 84.8 75.0 M105.25 64.95 Q102.65 69.7 98.3 71.6 M98.1 18.55 Q107.2 16.05 116.8 18.85 M59.75 32.7 Q67.35 64.85 82.5 74.85 M58.5 82.8 L58.1 83.15 M71.55 69.5 Q66.95 78.85 58.5 82.8 69.55 80.6 75.1 72.9 M77.0 63.55 Q73.6 57.2 71.6 50.2 M93.25 13.35 L98.1 18.55" fill="none" stroke="#000000" stroke-linecap="round" stroke-linejoin="round" stroke-width="1.0"/>
  </g>
</svg>
