<?xml version="1.0" encoding="UTF-8" standalone="no"?>
<svg xmlns:xlink="http://www.w3.org/1999/xlink" height="36.05px" width="37.25px" xmlns="http://www.w3.org/2000/svg">
  <g transform="matrix(1.0, 0.0, 0.0, 1.0, 0.5, 0.5)">
    <path d="M10.45 33.9 Q4.95 34.95 1.85 33.1 0.85 30.8 2.9 30.45 2.4 27.8 5.4 27.8 5.6 26.5 6.3 25.7 3.5 26.4 0.75 25.8 L3.05 24.65 0.15 21.2 Q5.0 20.8 5.45 17.15 4.9 16.3 3.5 16.3 L0.05 15.8 Q-0.35 12.85 2.5 13.65 0.35 10.9 2.7 10.85 1.85 8.9 4.9 9.0 4.2 5.55 8.75 6.05 8.9 3.15 12.4 4.3 11.7 1.8 15.65 2.15 L15.85 2.35 20.15 6.35 Q20.0 2.95 20.95 0.0 21.1 1.15 21.55 2.25 22.55 4.9 24.7 6.5 25.75 5.9 27.15 5.9 26.95 2.4 30.15 1.85 31.85 1.55 31.65 4.1 L31.35 5.7 Q33.45 6.6 32.5 8.0 34.7 8.6 32.85 10.9 L32.4 11.3 32.95 11.55 Q33.5 11.85 33.5 12.7 35.45 13.05 35.4 16.15 35.35 17.9 36.25 19.1 34.25 18.8 33.35 20.15 L32.25 21.6 32.65 22.25 Q33.55 23.5 32.3 24.5 30.5 25.95 27.95 25.25 L27.5 25.7 Q24.85 27.35 24.45 25.05 L23.0 25.05 Q23.05 24.1 22.7 23.7 20.1 20.95 18.4 23.45 19.2 24.6 20.75 26.15 21.0 28.75 19.1 29.6 L19.7 30.2 Q20.75 31.2 19.3 31.95 L18.0 32.45 Q17.1 35.45 12.8 35.0 11.4 34.85 10.55 34.0 L10.65 33.9 10.4 33.9 10.45 33.9 M14.85 11.65 L13.6 12.6 Q12.45 13.75 11.05 14.3 10.45 13.4 9.65 12.85 10.2 11.05 10.75 10.85 12.6 10.15 14.8 11.45 14.45 9.9 15.55 8.0 14.15 7.4 13.3 6.1 12.6 5.05 12.4 4.3 12.6 5.05 13.3 6.1 14.15 7.4 15.55 8.0 14.45 9.9 14.8 11.45 L14.85 11.65 14.95 11.55 Q17.4 10.15 19.85 12.55 17.8 13.5 18.95 16.9 L19.1 17.5 Q22.35 15.7 21.75 11.2 21.4 8.85 20.2 7.35 L20.15 6.35 20.2 7.35 Q21.4 8.85 21.75 11.2 22.35 15.7 19.1 17.5 L18.95 16.9 Q17.8 13.5 19.85 12.55 17.4 10.15 14.95 11.55 L14.85 11.65 14.8 11.45 Q12.6 10.15 10.75 10.85 10.2 11.05 9.65 12.85 10.45 13.4 11.05 14.3 12.45 13.75 13.6 12.6 L14.85 11.65 M14.8 24.65 Q13.95 26.05 14.15 28.25 14.3 30.2 13.65 31.5 12.6 33.6 10.95 33.85 L10.65 33.9 10.95 33.85 Q12.6 33.6 13.65 31.5 14.3 30.2 14.15 28.25 13.95 26.05 14.8 24.65 M4.95 9.0 L4.9 9.0 4.95 9.2 4.95 9.0 M14.55 21.25 Q11.15 21.0 10.0 18.15 L9.7 17.1 Q7.35 16.35 8.65 15.1 L11.05 14.3 8.65 15.1 Q7.35 16.35 9.7 17.1 L10.0 18.15 Q11.15 21.0 14.55 21.25 L14.5 21.4 14.6 21.25 14.55 21.25 M4.95 9.2 Q5.25 10.35 6.55 10.65 L6.9 10.75 5.85 11.8 Q8.1 11.7 9.65 12.85 8.1 11.7 5.85 11.8 L6.9 10.75 6.55 10.65 Q5.25 10.35 4.95 9.2 M21.95 17.45 Q23.5 16.3 24.4 14.35 L24.45 14.25 Q25.85 11.1 25.3 6.95 L24.7 6.5 25.3 6.95 Q25.85 11.1 24.45 14.25 27.3 13.65 29.3 11.75 30.6 10.5 32.4 11.3 30.6 10.5 29.3 11.75 27.3 13.65 24.45 14.25 L24.4 14.35 Q23.5 16.3 21.95 17.45 25.3 18.6 28.05 16.1 29.85 14.5 32.8 14.85 29.85 14.5 28.05 16.1 25.3 18.6 21.95 17.45 L19.2 18.7 21.95 17.45 M5.45 17.15 L10.0 18.15 5.45 17.15 M10.75 10.85 L6.9 10.75 10.75 10.85 M19.1 17.5 L19.2 18.7 Q19.1 19.65 18.4 20.4 17.2 21.2 15.4 21.25 L14.6 21.25 15.4 21.25 Q17.2 21.2 18.4 20.4 19.1 19.65 19.2 18.7 L19.1 17.5 M12.7 22.75 Q12.95 22.6 13.25 22.4 L12.65 22.7 12.7 22.75 Q10.95 23.8 8.8 24.25 7.2 24.6 6.3 25.7 7.2 24.6 8.8 24.25 10.95 23.8 12.7 22.75 M12.65 22.7 L5.45 22.95 3.05 24.65 5.45 22.95 12.65 22.7 M15.2 25.05 L19.1 29.6 15.2 25.05 M13.25 22.4 L14.5 21.4 13.25 22.4" fill="#ff6600" fill-rule="evenodd" stroke="none"/>
    <path d="M10.45 33.9 Q4.95 34.95 1.85 33.1 0.85 30.8 2.9 30.45 2.4 27.8 5.4 27.8 5.6 26.5 6.3 25.7 3.5 26.4 0.75 25.8 L3.05 24.65 0.15 21.2 Q5.0 20.8 5.45 17.15 4.9 16.3 3.5 16.3 L0.05 15.8 Q-0.35 12.85 2.5 13.65 0.35 10.9 2.7 10.85 1.85 8.9 4.9 9.0 4.2 5.55 8.75 6.05 8.9 3.15 12.4 4.3 11.7 1.8 15.65 2.15 L15.85 2.35 20.15 6.35 Q20.0 2.95 20.95 0.0 21.1 1.15 21.55 2.25 22.55 4.9 24.7 6.5 25.75 5.9 27.15 5.9 26.95 2.4 30.15 1.85 31.85 1.55 31.65 4.1 L31.35 5.7 Q33.45 6.6 32.5 8.0 34.7 8.6 32.85 10.9 L32.4 11.3 32.95 11.55 Q33.5 11.85 33.5 12.7 35.45 13.05 35.4 16.15 35.35 17.9 36.25 19.1 34.25 18.8 33.35 20.15 L32.25 21.6 32.65 22.25 Q33.55 23.5 32.3 24.5 30.5 25.95 27.95 25.25 L27.5 25.7 Q24.85 27.35 24.45 25.05 L23.0 25.05 Q23.05 24.1 22.7 23.7 20.1 20.95 18.4 23.45 19.2 24.6 20.75 26.15 21.0 28.75 19.1 29.6 L19.7 30.2 Q20.75 31.2 19.3 31.95 L18.0 32.45 Q17.1 35.45 12.8 35.0 11.4 34.85 10.55 34.0 L10.45 33.9 10.4 33.9 10.65 33.9 10.95 33.85 Q12.6 33.6 13.65 31.5 14.3 30.2 14.15 28.25 13.95 26.05 14.8 24.65 M12.4 4.3 Q12.6 5.05 13.3 6.1 14.15 7.4 15.55 8.0 14.45 9.9 14.8 11.45 L14.85 11.65 14.95 11.55 Q17.4 10.15 19.85 12.55 17.8 13.5 18.95 16.9 L19.1 17.5 Q22.35 15.7 21.75 11.2 21.4 8.85 20.2 7.35 L20.15 6.35 M14.8 11.45 Q12.6 10.15 10.75 10.85 10.2 11.05 9.65 12.85 10.45 13.4 11.05 14.3 12.45 13.75 13.6 12.6 L14.85 11.65 M4.95 9.0 L4.9 9.0 4.95 9.2 M9.65 12.85 Q8.1 11.7 5.85 11.8 L6.9 10.75 6.55 10.65 Q5.25 10.35 4.95 9.2 M11.05 14.3 L8.65 15.1 Q7.35 16.35 9.7 17.1 L10.0 18.15 Q11.15 21.0 14.55 21.25 M14.6 21.25 L15.4 21.25 Q17.2 21.2 18.4 20.4 19.1 19.65 19.2 18.7 L19.1 17.5 M6.9 10.75 L10.75 10.85 M10.0 18.15 L5.45 17.15 M32.8 14.85 Q29.85 14.5 28.05 16.1 25.3 18.6 21.95 17.45 L19.2 18.7 M24.7 6.5 L25.3 6.95 Q25.85 11.1 24.45 14.25 27.3 13.65 29.3 11.75 30.6 10.5 32.4 11.3 M24.45 14.25 L24.4 14.35 Q23.5 16.3 21.95 17.45 M12.7 22.75 Q12.95 22.6 13.25 22.4 L12.65 22.7 M12.7 22.75 Q10.95 23.8 8.8 24.25 7.2 24.6 6.3 25.7 M14.6 21.25 L14.5 21.4 13.25 22.4 M19.1 29.6 L15.2 25.05 M3.05 24.65 L5.45 22.95 12.65 22.7 M10.65 33.9 L10.45 33.9 Z" fill="none" stroke="#000000" stroke-linecap="round" stroke-linejoin="round" stroke-width="1.0"/>
  </g>
</svg>
