<?xml version="1.0" encoding="UTF-8" standalone="no"?>
<svg xmlns:xlink="http://www.w3.org/1999/xlink" height="738.3px" width="289.45px" xmlns="http://www.w3.org/2000/svg">
  <g transform="matrix(1.0, 0.0, 0.0, 1.0, 51.4, 0.5)">
    <path d="M183.35 96.6 L179.8 96.75 Q170.7 96.75 161.25 80.4 L159.95 78.05 158.85 76.05 154.55 67.35 Q150.75 59.3 149.75 57.6 140.6 42.2 136.85 33.45 130.4 18.55 130.75 6.65 L130.75 5.35 Q135.4 18.25 143.6 33.95 153.2 52.3 164.5 66.4 175.8 80.5 177.35 84.45 178.55 87.6 181.3 92.7 L181.35 92.85 182.7 95.35 183.35 96.6 182.7 95.35 181.35 92.85 181.8 92.6 Q188.75 100.65 190.75 106.6 192.4 111.5 197.1 128.45 L199.05 135.55 Q202.8 149.05 210.2 167.85 L215.7 181.25 Q218.8 188.65 222.45 196.75 239.15 234.2 237.35 255.55 L237.3 256.0 237.2 256.3 Q235.7 261.15 231.55 267.2 L232.95 262.7 Q234.1 259.3 234.1 253.35 234.1 232.1 225.6 221.1 223.1 217.85 219.35 215.15 L213.6 211.3 213.6 212.25 208.35 212.35 206.6 212.3 206.15 212.0 206.15 212.3 200.05 212.5 190.2 213.1 178.4 213.4 178.8 213.1 185.05 211.4 Q188.85 210.4 193.65 210.0 L201.85 209.4 210.55 208.7 Q207.1 204.95 207.1 199.85 207.1 196.8 207.95 194.2 208.2 193.25 208.6 192.4 210.1 189.1 210.1 184.3 210.1 177.9 206.45 168.65 201.75 157.8 199.6 151.55 198.2 147.5 196.65 140.85 L194.05 130.85 Q192.25 124.9 189.3 120.15 L189.1 119.0 Q186.8 103.8 183.4 96.65 L183.35 96.6 M137.7 51.25 L138.65 51.55 137.85 51.6 136.0 51.65 Q132.2 50.3 129.3 48.8 124.4 46.3 121.75 43.2 L119.9 40.6 Q117.75 36.85 117.25 31.55 L117.25 31.45 117.05 27.75 117.15 24.0 Q117.35 21.85 117.8 20.35 L118.6 19.1 119.7 19.0 121.2 18.85 Q120.6 19.8 120.25 21.5 119.95 22.7 119.8 24.3 L119.7 28.05 119.9 31.95 Q120.65 39.15 124.4 43.5 126.15 45.5 128.85 47.25 132.45 49.5 137.7 51.25 M203.8 193.5 L204.0 194.7 199.9 195.0 199.1 195.1 Q189.15 198.25 183.15 204.05 178.6 208.4 177.05 213.3 L175.9 213.05 Q177.15 203.3 185.5 197.9 193.15 193.0 203.8 193.5 M119.4 19.65 L120.25 21.5 119.4 19.65 M111.55 29.45 Q113.4 27.65 114.9 25.3 L115.4 24.5 115.4 26.35 Q114.9 33.1 115.4 42.0 L115.45 43.3 115.7 44.95 115.7 45.0 115.8 44.95 Q117.55 46.35 118.35 48.6 L120.65 53.8 121.35 55.3 Q127.2 61.8 133.5 64.55 L135.5 71.8 134.2 73.5 129.05 71.5 Q123.9 69.4 120.85 66.75 118.8 65.0 115.3 59.95 L113.05 56.85 116.65 52.6 113.9 46.9 Q111.65 41.8 111.55 38.4 L111.55 29.45 M116.65 52.6 L117.55 51.5 116.8 49.7 Q116.1 47.65 115.7 45.0 116.1 47.65 116.8 49.7 L117.55 51.5 116.65 52.6 M71.05 88.15 L73.5 91.65 75.95 94.6 Q80.75 99.95 90.7 108.15 L92.9 106.9 93.85 106.3 105.4 99.0 Q111.6 94.5 114.85 91.6 L120.0 86.85 126.45 80.9 130.35 77.45 131.0 76.85 Q134.65 89.35 138.75 99.1 128.75 107.05 111.9 117.85 102.2 124.05 94.0 128.45 84.35 133.65 76.85 136.4 62.85 141.4 51.35 144.15 L51.25 144.2 41.5 129.9 45.8 128.45 46.3 128.3 Q56.25 124.7 61.85 122.05 67.45 119.4 68.15 119.1 61.25 114.1 55.1 105.35 L52.2 100.9 Q60.75 84.7 61.55 72.3 L61.65 68.65 Q62.1 72.0 63.1 74.05 63.8 75.45 65.2 77.2 62.6 74.4 61.55 72.3 62.6 74.4 65.2 77.2 L65.65 77.8 Q68.05 83.5 71.05 88.15 M110.2 192.3 Q119.85 192.2 134.6 196.75 L135.05 202.6 Q135.85 211.6 136.8 220.3 138.95 239.8 142.05 257.65 145.95 280.5 151.4 300.7 L151.15 308.7 Q150.95 317.15 150.0 321.6 147.9 331.85 138.9 336.6 L136.25 330.3 Q130.15 315.3 125.45 297.45 116.4 263.55 112.25 219.55 111.15 207.75 110.4 195.3 L110.2 192.3 M144.7 200.2 Q147.1 195.1 149.0 192.1 L151.2 189.05 151.45 188.8 151.8 188.9 Q149.35 193.55 146.2 200.75 L144.7 200.2 M59.65 61.6 L59.65 60.55 Q59.65 54.6 64.5 46.3 68.35 39.75 72.55 36.25 72.15 32.75 71.25 29.0 L74.0 30.35 75.4 33.85 Q75.95 35.6 76.1 38.95 L76.1 39.2 76.15 40.95 76.15 41.7 Q76.15 46.05 75.75 47.7 L75.6 48.05 75.35 48.7 74.3 50.8 74.1 50.6 68.55 58.9 Q68.6 56.05 69.05 53.7 69.9 48.75 72.35 46.0 72.8 44.8 72.85 43.7 L72.85 43.1 72.9 42.45 72.85 39.3 Q69.35 42.65 66.1 48.15 61.95 55.3 61.35 60.7 L61.25 62.4 61.25 63.45 61.3 64.55 Q61.35 66.5 61.55 68.15 L61.65 68.65 61.55 72.3 61.5 72.2 Q59.8 68.7 59.65 61.6 M56.9 2.75 L57.0 4.1 Q58.0 15.95 52.4 31.2 49.15 40.15 40.95 56.05 40.0 57.8 36.7 66.05 L32.45 75.95 31.95 77.0 30.75 79.45 Q26.0 88.8 21.1 93.15 L20.1 88.3 17.75 88.3 15.05 84.05 Q16.65 79.75 26.7 65.65 37.2 50.95 45.7 32.05 53.0 15.9 56.9 2.75 M64.2 64.55 L64.25 64.6 64.2 64.7 64.2 64.55 M70.95 48.6 L71.25 48.75 Q72.75 49.6 74.1 50.6 72.75 49.6 71.25 48.75 L70.95 48.6 72.35 46.0 70.95 48.6 M72.55 36.25 L72.85 39.3 72.55 36.25 M2.3 83.1 L5.25 84.55 1.35 85.3 -4.05 91.8 -4.05 90.5 2.3 83.1 M0.35 76.0 L0.35 76.05 -0.85 77.45 -2.0 78.75 -18.9 55.0 -16.55 55.15 -14.75 55.3 -14.35 55.05 0.35 76.0 M-7.75 112.2 L-5.4 114.35 -9.55 135.05 Q-12.9 151.4 -16.6 162.9 -19.2 170.95 -27.1 184.5 -28.7 187.35 -30.6 195.65 -31.9 200.7 -37.5 206.15 L-36.95 215.15 Q-32.7 212.35 -28.1 213.1 L-26.45 213.5 -26.65 214.55 -26.7 214.6 -31.15 216.1 Q-34.75 217.55 -37.6 219.7 -43.8 224.4 -43.8 230.7 L-43.4 233.6 -45.1 237.35 Q-47.2 234.05 -47.3 233.4 -47.5 232.65 -47.05 228.55 -46.6 224.4 -40.15 217.85 L-39.25 216.95 -39.5 209.35 Q-41.0 207.65 -41.25 206.05 L-39.75 202.65 -38.0 200.75 Q-34.55 197.25 -34.3 196.4 -33.65 194.35 -33.1 190.1 L-32.4 185.75 Q-27.55 174.3 -23.85 164.5 -18.55 150.35 -15.55 139.55 L-12.45 128.45 -9.1 116.8 -7.75 112.2 M17.35 100.3 L80.35 190.25 79.05 190.8 32.6 124.85 79.05 190.8 77.9 191.25 33.15 128.25 32.6 124.85 31.9 122.6 Q30.7 119.4 28.45 116.6 L24.95 112.6 21.95 109.75 15.8 101.0 17.35 100.3 M15.85 103.9 L15.8 103.8 Q15.35 102.25 14.75 101.5 L15.8 101.0 21.95 109.75 17.25 105.9 15.85 103.9 M28.95 145.95 L30.9 148.5 28.0 149.1 28.95 145.95 M22.85 165.4 Q28.3 170.95 33.6 177.95 L34.65 179.3 34.2 179.4 37.1 186.05 Q41.25 195.95 44.05 204.1 52.4 228.75 52.4 249.7 52.4 260.1 51.85 266.95 L48.95 258.25 46.4 251.25 44.6 246.65 41.0 238.1 Q22.75 196.75 -7.15 167.25 -2.65 158.85 2.8 149.75 L5.25 151.15 10.4 154.55 Q16.7 159.1 22.85 165.4 M106.55 228.45 L105.45 230.1 105.0 229.45 100.05 222.5 102.45 221.75 106.85 228.0 106.55 228.45 M5.0 151.6 L5.25 151.15 5.0 151.6 M148.65 122.45 L149.25 122.6 Q148.95 125.55 149.65 128.45 150.25 131.05 151.6 133.65 158.15 145.35 157.5 152.65 L150.6 156.0 Q147.6 157.5 145.7 159.35 147.95 154.3 147.85 143.55 L147.6 130.6 147.7 128.45 Q147.85 125.5 148.65 122.45 M90.7 108.15 Q81.6 113.3 68.15 119.1 81.6 113.3 90.7 108.15 M161.9 329.8 L162.65 329.1 167.15 325.15 167.55 331.3 168.95 349.2 170.4 367.3 Q171.5 380.4 172.35 401.35 L172.35 401.7 167.55 653.55 170.35 680.35 171.25 694.95 Q171.65 702.85 172.55 710.85 L173.85 722.5 175.15 731.0 176.05 737.3 170.15 737.3 169.45 732.75 168.15 724.25 166.85 712.6 Q165.95 704.6 165.55 696.7 L164.65 682.1 161.85 655.3 166.6 405.45 167.2 405.55 167.1 403.35 Q166.35 385.8 165.4 374.35 L163.4 349.2 162.55 338.35 161.9 329.8 M18.5 301.65 Q14.7 311.9 13.4 318.95 L9.9 343.35 9.1 349.2 Q8.05 357.15 7.75 361.9 7.35 368.25 6.45 374.95 5.55 381.65 5.5 716.3 L5.75 720.8 Q5.75 730.75 5.15 737.3 L0.0 737.3 Q1.45 730.05 1.45 714.55 L1.2 710.05 Q1.25 375.4 2.15 368.7 3.05 362.0 3.45 355.65 3.6 352.95 4.05 349.2 L5.6 337.1 9.1 312.7 Q9.8 309.0 11.15 304.45 L18.5 301.65 M-19.5 306.95 Q-23.9 305.2 -27.1 303.0 -31.9 299.65 -38.4 288.2 L-44.8 268.0 -46.85 266.35 -50.9 263.35 Q-49.05 248.0 -45.9 239.4 L-45.8 239.4 Q-46.5 242.8 -46.5 249.25 -46.5 257.1 -45.45 259.65 -43.65 264.05 -36.6 267.75 -29.7 271.3 -22.85 280.25 -10.35 296.8 -10.35 300.95 -10.35 307.0 -18.65 307.0 L-19.5 306.95 M-16.55 55.15 L-0.85 77.45 -16.55 55.15 M-39.25 216.95 Q-38.1 215.9 -36.95 215.15 -38.1 215.9 -39.25 216.95 M-42.6 254.8 L-41.4 255.15 Q-37.5 255.15 -34.8 250.1 L-32.55 244.85 Q-33.9 258.45 -41.05 258.45 -42.4 258.45 -42.6 257.15 L-42.6 254.8 M-30.1 281.35 Q-35.6 277.65 -39.75 272.8 -41.6 270.65 -44.8 268.0 -41.6 270.65 -39.75 272.8 -35.6 277.65 -30.1 281.35" fill="#ffffff" fill-rule="evenodd" stroke="none"/>
    <path d="M130.75 5.35 L130.75 6.65 Q130.4 18.55 136.85 33.45 140.6 42.2 149.75 57.6 150.75 59.3 154.55 67.35 L158.85 76.05 159.95 78.05 161.25 80.4 Q170.7 96.75 179.8 96.75 L183.35 96.6 183.4 96.65 Q186.8 103.8 189.1 119.0 L189.3 120.15 190.55 128.45 190.65 129.3 190.55 128.45 189.3 120.15 Q192.25 124.9 194.05 130.85 L196.65 140.85 Q198.2 147.5 199.6 151.55 201.75 157.8 206.45 168.65 210.1 177.9 210.1 184.3 210.1 189.1 208.6 192.4 208.2 193.25 207.95 194.2 207.1 196.8 207.1 199.85 207.1 204.95 210.55 208.7 L201.85 209.4 199.1 207.6 Q199.1 206.15 200.4 204.3 L201.6 202.7 Q204.1 199.75 204.1 196.85 L204.0 194.7 203.8 193.5 203.6 193.1 Q202.85 192.1 199.85 192.1 193.05 192.1 189.1 193.55 183.3 195.65 179.1 201.6 180.8 195.45 181.0 192.25 L181.1 175.55 181.1 162.55 180.4 154.45 Q179.9 150.3 178.6 147.05 L173.3 134.75 Q179.8 139.95 186.65 141.5 L187.45 141.65 Q189.0 141.5 190.35 140.45 191.1 139.85 191.55 138.45 L191.55 136.35 190.65 129.3 188.55 129.5 Q187.5 129.5 185.7 128.45 181.5 126.0 173.3 117.7 161.1 105.5 158.15 97.9 156.45 93.45 152.65 86.35 L150.65 82.65 Q145.8 73.75 144.15 69.25 L144.05 69.0 137.85 51.6 138.65 51.55 137.7 51.25 132.95 37.75 Q127.65 22.6 124.2 11.25 L124.55 10.7 129.8 2.6 130.6 4.85 130.75 5.35 M138.75 99.1 Q147.05 118.9 157.15 127.4 L157.55 128.45 159.9 134.15 Q165.2 145.5 161.85 155.45 158.5 165.35 141.65 167.25 L134.85 167.65 Q127.0 167.7 120.4 165.7 116.6 164.55 113.25 162.75 L112.85 162.5 112.05 162.05 Q107.3 160.55 101.85 158.05 99.15 156.8 92.6 156.8 88.65 156.8 86.55 157.7 83.05 159.25 78.9 160.3 L78.15 160.9 Q73.9 164.15 69.65 166.5 L67.25 167.75 51.25 144.2 51.35 144.15 Q62.85 141.4 76.85 136.4 84.35 133.65 94.0 128.45 102.2 124.05 111.9 117.85 128.75 107.05 138.75 99.1 M134.6 196.75 L138.25 197.95 144.7 200.2 146.2 200.75 Q158.5 205.35 173.55 212.55 L174.3 212.9 175.6 213.5 175.85 213.5 176.7 213.45 177.0 213.45 177.0 213.55 176.85 214.1 177.25 214.3 177.35 214.35 Q185.85 218.5 195.15 223.55 L197.15 224.65 197.85 225.0 198.1 225.15 Q204.5 228.65 209.5 233.5 L210.2 233.65 Q213.35 234.3 217.0 236.65 L223.75 241.1 224.6 241.1 224.6 236.9 224.6 236.55 Q222.75 232.05 221.65 228.25 L215.6 219.6 Q213.7 216.9 206.6 212.3 L208.35 212.35 213.6 212.25 213.6 211.3 219.35 215.15 Q223.1 217.85 225.6 221.1 234.1 232.1 234.1 253.35 234.1 259.3 232.95 262.7 L231.55 267.2 Q226.85 274.0 218.75 282.3 204.8 296.6 190.3 306.35 183.1 311.2 167.15 325.15 L162.65 329.1 161.9 329.8 160.8 330.75 Q155.65 316.55 151.4 300.7 145.95 280.5 142.05 257.65 138.95 239.8 136.8 220.3 135.85 211.6 135.05 202.6 L134.6 196.75 M57.7 0.0 L63.4 7.75 63.8 8.3 Q61.0 19.8 56.55 35.25 L52.6 49.0 51.7 49.35 52.5 49.35 47.25 67.1 Q45.9 71.65 41.45 81.1 L39.7 84.9 Q36.3 92.2 34.85 96.75 33.15 101.9 27.55 109.35 L26.6 107.95 27.7 98.25 Q27.5 96.7 26.35 96.15 L21.4 94.4 21.1 93.15 Q26.0 88.8 30.75 79.45 L31.95 77.0 32.45 75.95 36.7 66.05 Q40.0 57.8 40.95 56.05 49.15 40.15 52.4 31.2 58.0 15.95 57.0 4.1 L56.9 2.75 57.05 2.25 57.7 0.0 M-5.4 114.35 L4.75 123.6 9.9 128.25 9.6 128.45 Q7.5 129.95 6.3 130.0 L4.2 129.9 Q3.6 136.6 3.7 137.05 L3.75 137.5 Q2.5 140.8 1.05 143.7 L-2.6 150.6 Q-11.35 168.4 -13.4 173.25 L-22.1 194.5 Q-23.35 197.25 -25.2 203.6 -26.35 207.5 -27.4 209.65 -29.7 208.0 -31.45 207.55 L-34.1 207.6 -31.45 210.2 -28.1 213.1 Q-32.7 212.35 -36.95 215.15 L-37.5 206.15 Q-31.9 200.7 -30.6 195.65 -28.7 187.35 -27.1 184.5 -19.2 170.95 -16.6 162.9 -12.9 151.4 -9.55 135.05 L-5.4 114.35 M52.2 100.9 L55.1 105.35 Q61.25 114.1 68.15 119.1 67.45 119.4 61.85 122.05 56.25 124.7 46.3 128.3 L45.8 128.45 41.5 129.9 37.35 123.8 Q44.25 115.0 49.95 105.0 L52.2 100.9 M21.0 99.75 L22.35 100.15 22.35 101.75 21.0 99.75 M17.25 105.9 L16.2 105.1 15.85 103.9 17.25 105.9 M4.75 123.6 L4.3 128.45 4.2 129.9 4.3 128.45 4.75 123.6 M30.9 148.5 L48.35 171.65 42.2 171.35 40.85 171.25 Q31.45 170.15 26.3 166.65 24.55 165.45 23.3 164.0 L28.0 149.1 30.9 148.5 M77.2 269.55 L81.55 272.45 84.05 274.5 86.1 277.3 86.1 277.45 Q95.65 293.65 103.15 307.0 111.35 321.7 109.3 339.2 118.2 340.2 121.1 341.4 124.7 342.85 125.9 346.8 L126.45 349.2 127.5 359.15 Q128.5 372.8 129.7 382.25 131.15 393.25 131.75 402.15 L131.95 402.15 129.05 554.3 Q134.75 621.25 149.55 666.35 L149.5 669.6 152.3 696.4 153.2 711.0 Q153.6 718.9 154.5 726.9 L155.65 737.3 5.15 737.3 Q5.75 730.75 5.75 720.8 L5.5 716.3 Q5.55 381.65 6.45 374.95 7.35 368.25 7.75 361.9 8.05 357.15 9.1 349.2 L9.9 343.35 13.4 318.95 Q14.7 311.9 18.5 301.65 29.35 297.05 44.15 288.7 L56.15 281.8 77.2 269.55 M148.65 122.45 Q147.85 125.5 147.7 128.45 L147.6 130.6 147.85 143.55 Q147.95 154.3 145.7 159.35 147.6 157.5 150.6 156.0 L157.5 152.65 Q158.15 145.35 151.6 133.65 150.25 131.05 149.65 128.45 148.95 125.55 149.25 122.6 L148.65 122.45 M88.85 151.3 L88.7 151.4 88.7 151.45 88.85 151.3 M210.95 213.0 Q210.35 212.5 208.35 212.35 210.35 212.5 210.95 213.0 M44.6 246.65 L44.2 246.7 Q34.6 227.15 27.25 216.6 14.65 198.45 -3.15 185.75 L-2.15 189.35 -2.05 189.8 Q6.0 200.85 12.7 221.35 20.65 245.85 20.65 268.4 20.65 287.2 13.15 298.2 10.15 302.65 5.7 306.1 L5.35 306.2 5.05 306.3 Q-7.75 310.7 -15.0 308.5 L-18.75 307.25 -18.65 307.0 Q-10.35 307.0 -10.35 300.95 -10.35 296.8 -22.85 280.25 -29.7 271.3 -36.6 267.75 -43.65 264.05 -45.45 259.65 -46.5 257.1 -46.5 249.25 -46.5 242.8 -45.8 239.4 L-45.85 239.35 -45.7 238.85 -45.1 237.35 -43.4 233.6 Q-38.75 224.0 -30.7 217.65 L-30.45 217.55 -30.3 217.75 -30.35 217.55 -30.4 217.45 -27.05 216.2 -25.7 215.7 -26.65 214.55 -26.45 213.5 -25.8 210.9 Q-20.9 192.65 -7.15 167.25 22.75 196.75 41.0 238.1 L44.6 246.65 M-27.45 218.45 L-27.05 216.2 -27.45 218.45 Q-32.55 222.1 -37.15 232.15 -42.6 244.05 -42.6 254.05 L-42.6 254.8 -42.6 257.15 Q-42.4 258.45 -41.05 258.45 -33.9 258.45 -32.55 244.85 L-32.25 238.45 -33.8 243.35 Q-35.55 247.6 -38.05 248.0 L-38.3 244.55 Q-38.3 239.5 -34.9 232.0 -32.05 225.65 -28.05 222.5 L-27.45 218.45 M-28.25 224.2 L-28.05 222.5 -28.25 224.2 M220.9 225.4 L221.65 228.25 220.9 225.4" fill="#ebd8d8" fill-rule="evenodd" stroke="none"/>
    <path d="M124.2 11.25 Q127.65 22.6 132.95 37.75 L137.7 51.25 Q132.45 49.5 128.85 47.25 124.2 30.6 120.25 21.5 120.6 19.8 121.2 18.85 L119.7 19.0 Q121.15 15.85 124.2 11.25 M137.85 51.6 L144.05 69.0 144.15 69.25 Q145.8 73.75 150.65 82.65 L152.65 86.35 Q156.45 93.45 158.15 97.9 161.1 105.5 173.3 117.7 181.5 126.0 185.7 128.45 187.5 129.5 188.55 129.5 L190.65 129.3 191.55 136.35 191.55 138.45 Q191.1 139.85 190.35 140.45 189.0 141.5 187.45 141.65 L186.65 141.5 Q179.8 139.95 173.3 134.75 L178.6 147.05 Q179.9 150.3 180.4 154.45 L181.1 162.55 181.1 175.55 181.0 192.25 Q180.8 195.45 179.1 201.6 183.3 195.65 189.1 193.55 193.05 192.1 199.85 192.1 202.85 192.1 203.6 193.1 L203.8 193.5 Q193.15 193.0 185.5 197.9 177.15 203.3 175.9 213.05 L174.2 212.7 168.75 198.05 Q165.4 189.55 160.25 179.5 L162.45 177.55 Q168.65 170.9 171.05 163.65 171.8 161.3 172.15 158.95 173.65 149.05 168.35 141.5 L163.0 131.3 161.5 128.45 160.15 125.9 161.5 128.45 163.0 131.3 168.35 141.5 Q173.65 149.05 172.15 158.95 171.8 161.3 171.05 163.65 168.65 170.9 162.45 177.55 L160.25 179.5 Q158.55 180.75 156.45 181.75 L156.15 181.85 156.2 182.0 Q154.4 184.05 151.8 188.9 L151.45 188.8 151.2 189.05 149.0 192.1 Q147.1 195.1 144.7 200.2 L138.25 197.95 134.6 196.75 Q119.85 192.2 110.2 192.3 L109.55 192.05 109.75 194.95 Q103.85 191.25 100.35 188.6 97.05 185.85 95.45 184.85 L91.8 182.05 83.55 180.75 74.8 178.8 67.25 167.75 69.65 166.5 Q73.9 164.15 78.15 160.9 L78.9 160.3 Q83.05 159.25 86.55 157.7 88.65 156.8 92.6 156.8 99.15 156.8 101.85 158.05 107.3 160.55 112.05 162.05 L112.85 162.5 113.25 162.75 Q116.6 164.55 120.4 165.7 127.0 167.7 134.85 167.65 L141.65 167.25 Q158.5 165.35 161.85 155.45 165.2 145.5 159.9 134.15 L157.55 128.45 157.15 127.4 Q147.05 118.9 138.75 99.1 L143.35 95.25 142.55 93.35 142.1 92.2 Q139.25 84.95 135.5 71.8 L133.5 64.55 131.25 56.1 132.85 55.85 131.2 55.95 131.05 55.4 130.1 51.7 133.8 51.65 136.0 51.65 137.85 51.6 M200.4 204.3 Q199.1 206.15 199.1 207.6 L201.85 209.4 193.65 210.0 Q188.85 210.4 185.05 211.4 L178.8 213.1 Q183.9 208.65 189.6 206.55 194.35 204.75 200.4 204.3 M173.3 134.75 Q169.95 132.1 166.7 128.45 L163.1 124.15 160.15 120.7 156.3 115.95 153.65 112.45 151.35 109.25 Q146.4 102.05 143.35 95.25 146.4 102.05 151.35 109.25 L153.65 112.45 156.3 115.95 160.15 120.7 163.1 124.15 166.7 128.45 Q169.95 132.1 173.3 134.75 M63.8 8.3 Q67.05 12.7 68.75 15.8 L67.2 15.7 Q67.85 16.6 68.35 18.3 64.85 27.6 61.2 44.5 L60.85 46.05 60.25 49.0 59.45 52.75 59.35 53.3 57.7 53.3 59.35 53.45 57.55 62.0 57.0 64.55 55.95 69.4 Q52.7 83.8 50.15 91.3 L49.45 93.2 48.85 94.7 Q46.35 101.0 42.3 107.65 38.8 113.3 34.35 119.35 38.8 113.3 42.3 107.65 46.35 101.0 48.85 94.7 50.25 97.7 52.2 100.9 L49.95 105.0 Q44.25 115.0 37.35 123.8 L34.35 119.35 27.55 109.35 Q33.15 101.9 34.85 96.75 36.3 92.2 39.7 84.9 L41.45 81.1 Q45.9 71.65 47.25 67.1 L52.5 49.35 52.6 49.35 52.6 49.0 56.55 35.25 Q61.0 19.8 63.8 8.3 M9.9 128.25 L14.7 132.65 10.2 141.45 8.9 141.85 8.1 142.1 Q6.55 142.0 5.15 141.05 4.35 140.45 3.85 139.1 L3.75 137.5 3.7 137.05 Q3.6 136.6 4.2 129.9 L6.3 130.0 Q7.5 129.95 9.6 128.45 L9.9 128.25 M149.55 666.35 L154.1 423.35 154.1 422.5 154.15 414.55 153.65 403.45 152.35 383.35 149.65 349.2 149.5 347.35 149.0 340.4 Q154.15 336.55 160.8 330.75 L161.9 329.8 162.55 338.35 163.4 349.2 165.4 374.35 Q166.35 385.8 167.1 403.35 L166.65 403.45 166.6 405.45 161.85 655.3 164.65 682.1 165.55 696.7 Q165.95 704.6 166.85 712.6 L168.15 724.25 169.45 732.75 170.15 737.3 155.65 737.3 154.5 726.9 Q153.6 718.9 153.2 711.0 L152.3 696.4 149.5 669.6 149.55 666.35 M51.85 266.95 Q54.15 274.2 56.15 281.8 L44.15 288.7 Q29.35 297.05 18.5 301.65 L11.15 304.45 5.7 306.1 Q10.15 302.65 13.15 298.2 20.65 287.2 20.65 268.4 20.65 245.85 12.7 221.35 6.0 200.85 -2.05 189.8 L-2.15 189.35 -3.15 185.75 Q14.65 198.45 27.25 216.6 34.6 227.15 44.2 246.7 L46.4 251.25 48.95 258.25 51.85 266.95 M104.5 170.45 L104.5 170.4 104.25 170.75 104.5 170.45 M-25.8 210.9 L-26.45 213.5 -28.1 213.1 -31.45 210.2 -34.1 207.6 -31.45 207.55 Q-29.7 208.0 -27.4 209.65 L-26.85 210.05 -25.8 210.9 M161.05 331.45 L160.8 330.75 161.05 331.45 M206.15 212.0 L206.2 212.3 206.6 212.3 Q213.7 216.9 215.6 219.6 L221.65 228.25 Q222.75 232.05 224.6 236.55 L224.45 236.75 219.4 231.75 206.6 220.6 Q205.25 219.4 191.6 216.45 L178.35 213.6 178.4 213.4 190.2 213.1 200.05 212.5 206.15 212.3 206.15 212.0 M206.2 212.3 L206.15 212.3 206.2 212.3 M-31.15 216.1 L-30.4 217.45 -30.5 217.5 -30.7 217.65 Q-38.75 224.0 -43.4 233.6 L-43.8 230.7 Q-43.8 224.4 -37.6 219.7 -34.75 217.55 -31.15 216.1" fill="#ddbbbb" fill-rule="evenodd" stroke="none"/>
    <path d="M117.25 31.55 Q117.75 36.85 119.9 40.6 L121.75 43.2 Q124.4 46.3 129.3 48.8 132.2 50.3 136.0 51.65 L133.8 51.65 130.1 51.7 128.8 51.75 Q126.35 51.8 122.9 49.6 L123.6 51.0 Q124.75 53.2 125.8 54.2 127.1 55.45 129.0 55.85 L130.5 55.95 131.2 55.95 131.25 56.1 131.2 55.95 132.85 55.85 131.25 56.1 129.7 56.3 128.55 56.3 128.0 56.3 127.05 55.8 126.35 55.35 Q123.55 53.55 121.75 51.5 L120.95 50.5 Q117.95 46.4 117.25 40.1 L117.05 36.05 117.15 32.3 117.25 31.55 M72.55 76.8 L71.35 75.05 70.9 74.45 Q69.5 72.7 68.8 71.3 67.9 69.45 67.4 66.5 L67.0 61.95 67.0 61.8 66.95 61.2 66.95 60.7 66.95 59.65 66.95 59.25 67.05 57.95 Q67.3 55.55 68.3 52.8 68.9 51.1 69.8 49.25 L70.5 47.85 71.8 45.4 72.85 43.7 Q72.8 44.8 72.35 46.0 69.9 48.75 69.05 53.7 68.6 56.05 68.55 58.9 L68.55 59.8 Q68.55 71.25 77.05 79.5 L73.45 77.45 72.55 76.8 M72.9 42.45 Q70.9 44.95 69.0 48.15 L67.0 52.0 Q64.65 56.8 64.25 60.7 L64.15 62.4 64.15 63.45 64.2 64.55 64.2 64.7 64.6 69.25 64.3 68.9 64.3 71.45 Q65.05 74.9 66.95 79.0 L65.6 77.65 65.2 77.2 Q63.8 75.45 63.1 74.05 62.1 72.0 61.65 68.65 L61.55 68.15 Q61.35 66.5 61.3 64.55 L61.25 63.45 61.25 62.4 61.35 60.7 Q61.95 55.3 66.1 48.15 69.35 42.65 72.85 39.3 L72.9 42.45" fill="#a05001" fill-rule="evenodd" stroke="none"/>
    <path d="M117.25 31.55 L117.15 32.3 117.05 36.05 117.25 40.1 Q117.95 46.4 120.95 50.5 L121.75 51.5 Q123.55 53.55 126.35 55.35 L127.05 55.8 128.0 56.3 Q123.85 56.15 120.65 53.8 L118.35 48.6 Q117.55 46.35 115.8 44.95 L115.7 44.95 115.45 43.3 115.4 42.0 Q114.9 33.1 115.4 26.35 L115.4 24.5 117.8 20.35 Q117.35 21.85 117.15 24.0 L117.05 27.75 117.25 31.45 117.25 31.55 M72.85 43.7 L71.8 45.4 70.5 47.85 69.8 49.25 Q68.9 51.1 68.3 52.8 67.3 55.55 67.05 57.95 L66.95 59.25 66.95 59.65 66.95 60.7 66.95 61.2 67.0 61.8 67.0 61.95 67.4 66.5 Q67.9 69.45 68.8 71.3 69.5 72.7 70.9 74.45 L71.35 75.05 72.55 76.8 Q68.65 73.95 64.6 69.25 L64.2 64.7 64.25 64.6 64.2 64.55 64.15 63.45 64.15 62.4 64.25 60.7 Q64.65 56.8 67.0 52.0 L69.0 48.15 Q70.9 44.95 72.9 42.45 L72.85 43.1 72.85 43.7 M-2.0 78.75 L-11.75 89.95 -12.0 91.75 -32.75 64.2 -20.2 53.2 -18.9 55.0 -2.0 78.75 M28.95 145.95 L31.15 139.1 32.75 135.0 Q33.05 134.3 33.15 132.3 L33.2 130.15 33.2 128.9 33.15 128.45 33.15 128.25 77.9 191.25 69.9 194.5 Q67.15 191.85 60.45 187.55 L60.4 187.55 52.9 177.65 48.35 171.65 30.9 148.5 28.95 145.95 M105.0 229.45 L105.1 230.7 Q105.1 232.9 103.7 234.45 102.15 236.1 99.5 236.1 97.75 236.1 96.75 235.4 L96.5 235.4 88.3 224.5 92.4 224.6 98.1 223.05 100.05 222.5 105.0 229.45 M97.15 230.3 Q97.15 231.25 97.8 231.9 98.45 232.55 99.4 232.55 100.35 232.55 101.0 231.9 101.65 231.25 101.65 230.3 101.65 229.35 101.0 228.7 100.35 228.05 99.4 228.05 98.45 228.05 97.8 228.7 97.15 229.35 97.15 230.3" fill="#663300" fill-rule="evenodd" stroke="none"/>
    <path d="M78.3 32.45 L81.65 33.95 Q86.6 35.65 95.35 35.65 99.8 35.65 103.55 34.4 L103.45 36.1 Q103.45 44.5 105.85 49.45 107.75 53.35 112.25 57.75 L99.45 72.9 95.95 76.25 88.65 67.05 83.05 60.55 77.3 53.55 75.95 52.15 78.0 48.75 Q79.05 46.9 79.05 40.75 L79.0 37.75 78.9 36.25 Q78.7 34.0 78.3 32.45 M79.85 35.35 L78.9 36.2 78.9 36.25 78.9 36.2 79.85 35.35" fill="#ffceb7" fill-rule="evenodd" stroke="none"/>
    <path d="M103.55 34.4 Q108.1 32.85 111.55 29.45 L111.55 38.4 Q111.65 41.8 113.9 46.9 L116.65 52.6 113.05 56.85 112.25 57.75 Q107.75 53.35 105.85 49.45 103.45 44.5 103.45 36.1 L103.55 34.4 M74.8 178.8 L83.55 180.75 91.8 182.05 95.45 184.85 Q97.05 185.85 100.35 188.6 103.85 191.25 109.75 194.95 L109.75 195.25 Q108.75 208.1 108.2 219.95 L103.75 221.35 102.45 221.75 100.05 222.5 98.1 223.05 92.4 224.6 88.3 224.5 74.35 223.4 63.45 215.9 63.2 215.15 Q62.75 213.15 62.65 211.8 L59.65 209.25 58.2 203.35 58.4 202.0 56.15 198.85 55.85 193.25 Q55.6 191.4 55.75 190.7 L54.75 189.45 54.45 187.85 Q53.1 180.35 52.9 177.65 L60.4 187.55 60.45 187.55 Q67.15 191.85 69.9 194.5 L77.9 191.25 79.05 190.8 80.35 190.25 82.1 189.55 85.8 188.0 80.35 186.95 74.8 178.8 M74.0 30.35 L78.3 32.45 Q78.7 34.0 78.9 36.25 L79.0 37.75 79.05 40.75 Q79.05 46.9 78.0 48.75 L75.95 52.15 74.3 50.8 75.35 48.7 75.6 48.05 75.75 47.7 Q76.15 46.05 76.15 41.7 L76.15 40.95 76.1 39.2 76.1 38.95 Q75.95 35.6 75.4 33.85 L74.0 30.35 M15.05 84.05 L17.75 88.3 20.1 88.3 21.1 93.15 21.4 94.4 26.35 96.15 Q27.5 96.7 27.7 98.25 L26.6 107.95 22.35 101.75 22.35 100.15 21.0 99.75 19.5 99.3 17.35 100.3 15.8 101.0 14.75 101.5 Q15.35 102.25 15.8 103.8 L15.85 103.9 16.2 105.1 17.25 105.9 21.95 109.75 24.95 112.6 28.45 116.6 Q30.7 119.4 31.9 122.6 L32.6 124.85 33.15 128.25 33.15 128.45 33.2 128.9 33.2 130.15 33.15 132.3 Q33.05 134.3 32.75 135.0 L31.15 139.1 28.95 145.95 28.0 149.1 23.3 164.0 22.85 165.4 Q16.7 159.1 10.4 154.55 L5.25 151.15 10.2 141.45 14.7 132.65 9.9 128.25 4.75 123.6 -5.4 114.35 -7.75 112.2 -14.0 106.5 -12.0 91.75 -11.75 89.95 -2.0 78.75 -0.85 77.45 0.35 76.05 0.5 75.9 Q2.7 74.6 4.5 75.45 L5.25 75.9 12.1 83.25 14.3 82.85 15.05 84.05 M2.3 83.1 L-4.05 90.5 -4.05 91.8 1.35 85.3 5.25 84.55 2.3 83.1 M16.15 133.95 L14.7 132.65 16.15 133.95 M5.25 84.55 L12.1 83.25 5.25 84.55 M-2.45 101.85 L-2.45 97.85 6.45 88.3 17.75 88.3 6.45 88.3 -2.45 97.85 -2.45 101.85 M21.4 94.4 L16.9 92.85 9.65 96.9 9.6 96.95 6.9 98.45 7.5 101.05 6.9 98.45 9.6 96.95 9.65 96.9 16.9 92.85 21.4 94.4 M73.4 212.0 L71.25 212.1 Q65.7 209.1 62.7 207.6 L59.3 203.5 58.4 202.0 59.3 203.5 62.7 207.6 Q65.7 209.1 71.25 212.1 L73.4 212.0 M76.05 219.95 L68.85 217.45 Q65.25 214.05 62.65 211.8 65.25 214.05 68.85 217.45 L76.05 219.95 M74.55 204.5 L71.85 204.5 Q69.5 202.7 61.6 198.7 L55.75 190.7 61.6 198.7 Q69.5 202.7 71.85 204.5 L74.55 204.5 M-9.9 103.5 L-10.4 99.5 -4.05 91.8 -10.4 99.5 -9.9 103.5" fill="#ffe2d5" fill-rule="evenodd" stroke="none"/>
    <path d="M112.25 57.75 L113.05 56.85 115.3 59.95 Q118.8 65.0 120.85 66.75 123.9 69.4 129.05 71.5 L134.2 73.5 131.0 76.85 130.35 77.45 126.45 80.9 120.0 86.85 114.85 91.6 Q111.6 94.5 105.4 99.0 L93.85 106.3 92.9 106.9 90.7 108.15 Q80.75 99.95 75.95 94.6 L73.5 91.65 84.75 85.45 85.1 85.25 85.2 85.15 87.95 83.05 88.8 82.4 Q92.0 78.95 94.15 77.6 L95.95 76.25 99.45 72.9 112.25 57.75 M75.95 52.15 L77.3 53.55 83.05 60.55 88.65 67.05 88.7 68.5 Q88.7 76.95 82.2 82.5 77.75 86.25 71.05 88.15 68.05 83.5 65.65 77.8 L65.6 77.65 66.95 79.0 Q65.05 74.9 64.3 71.45 L64.3 68.9 64.6 69.25 Q68.65 73.95 72.55 76.8 L73.45 77.45 77.05 79.5 Q68.55 71.25 68.55 59.8 L68.55 58.9 74.1 50.6 74.3 50.8 75.95 52.15 M85.1 85.25 L87.95 83.05 85.1 85.25 M67.2 79.5 L65.65 77.8 67.2 79.5 M136.25 330.3 Q133.55 331.45 130.4 332.2 L120.8 333.85 Q111.85 313.4 108.95 281.1 112.1 285.1 116.75 289.7 121.05 294.0 125.45 297.45 130.15 315.3 136.25 330.3" fill="#ffffcc" fill-rule="evenodd" stroke="none"/>
    <path d="M88.65 67.05 L95.95 76.25 94.15 77.6 Q92.0 78.95 88.8 82.4 L87.95 83.05 85.2 85.15 85.1 85.25 84.75 85.45 73.5 91.65 71.05 88.15 Q77.75 86.25 82.2 82.5 88.7 76.95 88.7 68.5 L88.65 67.05" fill="#fefd89" fill-rule="evenodd" stroke="none"/>
    <path d="M134.2 73.5 L135.5 71.8 Q139.25 84.95 142.1 92.2 L142.55 93.35 143.35 95.25 138.75 99.1 Q134.65 89.35 131.0 76.85 L134.2 73.5 M57.0 64.55 Q58.5 62.55 59.65 61.6 59.8 68.7 61.5 72.2 L61.55 72.3 Q60.75 84.7 52.2 100.9 50.25 97.7 48.85 94.7 L49.45 93.2 50.15 91.3 Q52.7 83.8 55.95 69.4 L57.0 64.55 M34.65 179.3 L35.95 181.1 41.2 188.75 Q59.35 216.65 75.75 261.55 L78.5 268.8 77.2 269.55 56.15 281.8 Q54.15 274.2 51.85 266.95 52.4 260.1 52.4 249.7 52.4 228.75 44.05 204.1 41.25 195.95 37.1 186.05 L34.2 179.4 34.65 179.3 M149.0 340.4 Q145.45 343.0 142.7 344.7 140.7 340.75 138.9 336.6 147.9 331.85 150.0 321.6 150.95 317.15 151.15 308.7 L151.4 300.7 Q155.65 316.55 160.8 330.75 154.15 336.55 149.0 340.4" fill="#d9d9d9" fill-rule="evenodd" stroke="none"/>
    <path d="M204.0 194.7 L204.1 196.85 Q204.1 199.75 201.6 202.7 L200.4 204.3 Q194.35 204.75 189.6 206.55 183.9 208.65 178.8 213.1 L178.4 213.4 177.65 213.45 177.5 213.4 177.05 213.3 Q178.6 208.4 183.15 204.05 189.15 198.25 199.1 195.1 L199.9 195.0 204.0 194.7 M109.75 194.95 L109.55 192.05 110.2 192.3 110.4 195.3 109.75 195.25 109.75 194.95 110.4 195.3 109.75 194.95 M156.2 182.0 L156.15 181.85 156.45 181.75 156.25 181.95 156.2 182.0 M82.1 189.55 L80.35 186.95 85.8 188.0 82.1 189.55 M3.75 137.5 L3.85 139.1 Q4.35 140.45 5.15 141.05 6.55 142.0 8.1 142.1 L8.9 141.85 10.2 141.45 5.25 151.15 2.8 149.75 Q-2.65 158.85 -7.15 167.25 -20.9 192.65 -25.8 210.9 L-26.85 210.05 -27.4 209.65 Q-26.35 207.5 -25.2 203.6 -23.35 197.25 -22.1 194.5 L-13.4 173.25 Q-11.35 168.4 -2.6 150.6 L1.05 143.7 Q2.5 140.8 3.75 137.5 M48.35 171.65 L52.9 177.65 Q53.1 180.35 54.45 187.85 L54.75 189.45 55.75 190.7 Q55.6 191.4 55.85 193.25 L56.15 198.85 58.4 202.0 58.2 203.35 59.65 209.25 62.65 211.8 Q62.75 213.15 63.2 215.15 L63.45 215.9 74.35 223.4 88.3 224.5 96.5 235.4 96.75 235.4 Q97.75 236.1 99.5 236.1 102.15 236.1 103.7 234.45 105.1 232.9 105.1 230.7 L105.0 229.45 105.45 230.1 106.55 228.45 106.95 227.95 106.55 228.45 106.85 228.0 106.95 227.95 107.1 227.6 107.05 226.1 103.75 221.35 108.2 219.95 107.9 227.35 107.8 229.45 Q106.85 258.25 108.95 281.1 111.85 313.4 120.8 333.85 L130.4 332.2 Q133.55 331.45 136.25 330.3 L138.9 336.6 Q140.7 340.75 142.7 344.7 145.45 343.0 149.0 340.4 L149.5 347.35 149.65 349.2 152.35 383.35 153.65 403.45 154.15 414.55 154.1 422.5 154.1 423.35 149.55 666.35 Q134.75 621.25 129.05 554.3 L131.95 402.15 131.75 402.15 Q131.15 393.25 129.7 382.25 128.5 372.8 127.5 359.15 L126.45 349.2 125.9 346.8 Q124.7 342.85 121.1 341.4 118.2 340.2 109.3 339.2 111.35 321.7 103.15 307.0 95.65 293.65 86.1 277.45 L86.1 277.3 84.05 274.5 81.55 272.45 77.2 269.55 78.5 268.8 75.75 261.55 84.3 254.5 84.25 254.45 82.8 250.75 64.4 218.15 64.15 217.75 63.95 217.5 62.4 215.2 62.1 214.8 Q53.55 202.5 42.3 188.75 L35.95 181.1 34.65 179.3 33.6 177.95 Q28.3 170.95 22.85 165.4 L23.3 164.0 Q24.55 165.45 26.3 166.65 31.45 170.15 40.85 171.25 L42.2 171.35 48.35 171.65 M104.5 170.45 L104.25 170.75 104.5 170.4 104.5 170.45 M97.15 230.3 Q97.15 229.35 97.8 228.7 98.45 228.05 99.4 228.05 100.35 228.05 101.0 228.7 101.65 229.35 101.65 230.3 101.65 231.25 101.0 231.9 100.35 232.55 99.4 232.55 98.45 232.55 97.8 231.9 97.15 231.25 97.15 230.3 M-27.45 218.45 L-28.05 222.5 Q-32.05 225.65 -34.9 232.0 -38.3 239.5 -38.3 244.55 L-38.05 248.0 Q-35.55 247.6 -33.8 243.35 L-32.25 238.45 -32.55 244.85 -34.8 250.1 Q-37.5 255.15 -41.4 255.15 L-42.6 254.8 -42.6 254.05 Q-42.6 244.05 -37.15 232.15 -32.55 222.1 -27.45 218.45 M210.2 233.65 L209.5 233.5 Q204.5 228.65 198.1 225.15 L197.85 225.0 197.15 224.65 195.15 223.55 Q185.85 218.5 177.35 214.35 L177.25 214.3 176.85 214.1 177.0 213.55 177.0 213.45 177.35 213.45 177.65 213.45 178.25 213.55 178.35 213.6 191.6 216.45 Q205.25 219.4 206.6 220.6 L219.4 231.75 224.45 236.75 224.6 236.9 224.6 241.1 223.75 241.1 217.0 236.65 Q213.35 234.3 210.2 233.65 M172.35 401.35 L172.35 401.7 172.35 401.35 M166.6 405.45 L166.65 403.45 167.1 403.35 167.2 405.55 166.6 405.45" fill="#d1a5a5" fill-rule="evenodd" stroke="none"/>
    <path d="M67.25 167.75 L74.8 178.8 80.35 186.95 82.1 189.55 80.35 190.25 17.35 100.3 19.5 99.3 21.0 99.75 22.35 101.75 26.6 107.95 27.55 109.35 34.35 119.35 37.35 123.8 41.5 129.9 51.25 144.2 67.25 167.75 M0.5 75.9 L0.35 76.0 -14.35 55.05 -10.85 52.9 4.5 75.45 Q2.7 74.6 0.5 75.9 M103.75 221.35 L107.05 226.1 107.1 227.6 106.95 227.95 106.85 228.0 102.45 221.75 103.75 221.35" fill="#a2a6ce" fill-rule="evenodd" stroke="none"/>
    <path d="M35.95 181.1 L42.3 188.75 Q53.55 202.5 62.1 214.8 L62.4 215.2 63.95 217.5 64.15 217.75 64.4 218.15 82.8 250.75 84.25 254.45 84.3 254.5 75.75 261.55 Q59.35 216.65 41.2 188.75 L35.95 181.1 M108.95 281.1 Q106.85 258.25 107.8 229.45 L107.9 227.35 108.2 219.95 Q108.75 208.1 109.75 195.25 L110.4 195.3 Q111.15 207.75 112.25 219.55 116.4 263.55 125.45 297.45 121.05 294.0 116.75 289.7 112.1 285.1 108.95 281.1" fill="#ffff99" fill-rule="evenodd" stroke="none"/>
    <path d="M231.55 267.2 Q235.7 261.15 237.2 256.3 L237.3 256.0 237.35 255.55 Q239.15 234.2 222.45 196.75 218.8 188.65 215.7 181.25 L210.2 167.85 Q202.8 149.05 199.05 135.55 L197.1 128.45 Q192.4 111.5 190.75 106.6 188.75 100.65 181.8 92.6 M177.05 213.3 Q178.6 208.4 183.15 204.05 189.15 198.25 199.1 195.1 L199.9 195.0 M177.65 213.45 L178.4 213.4 190.2 213.1 200.05 212.5 206.15 212.3 206.2 212.3 206.6 212.3 208.35 212.35 Q210.35 212.5 210.95 213.0 M67.25 167.75 L74.8 178.8 83.55 180.75 91.8 182.05 95.45 184.85 Q97.05 185.85 100.35 188.6 103.85 191.25 109.75 194.95 L109.55 192.05 110.2 192.3 Q119.85 192.2 134.6 196.75 L138.25 197.95 144.7 200.2 146.2 200.75 M160.25 179.5 Q165.4 189.55 168.75 198.05 L174.2 212.7 M68.35 18.3 L69.05 16.4 M68.35 18.3 Q64.85 27.6 61.2 44.5 L60.85 46.05 60.25 49.0 59.45 52.75 59.35 53.3 59.35 53.45 57.55 62.0 57.0 64.55 M72.55 36.25 Q72.15 32.75 71.25 29.0 M27.55 109.35 L34.35 119.35 Q38.8 113.3 42.3 107.65 46.35 101.0 48.85 94.7 L49.45 93.2 50.15 91.3 Q52.7 83.8 55.95 69.4 L57.0 64.55 M56.9 2.75 Q53.0 15.9 45.7 32.05 37.2 50.95 26.7 65.65 16.65 79.75 15.05 84.05 L17.75 88.3 20.1 88.3 21.1 93.15 21.4 94.4 26.35 96.15 Q27.5 96.7 27.7 98.25 L26.6 107.95 27.55 109.35 M56.9 2.75 L57.05 2.25 57.7 0.0 M72.85 43.7 L72.85 43.1 72.9 42.45 72.85 39.3 72.55 36.25 M72.35 46.0 Q72.8 44.8 72.85 43.7 M70.95 48.6 L72.35 46.0 M4.5 75.45 L5.25 75.9 12.1 83.25 14.3 82.85 15.05 84.05 M2.3 83.1 L-4.05 90.5 -4.05 91.8 1.35 85.3 5.25 84.55 2.3 83.1 M0.35 76.05 L0.5 75.9 Q2.7 74.6 4.5 75.45 L-10.85 52.9 -14.35 55.05 0.35 76.0 0.35 76.05 -0.85 77.45 -2.0 78.75 -11.75 89.95 -12.0 91.75 -14.0 106.5 -7.75 112.2 -5.4 114.35 4.75 123.6 9.9 128.25 14.7 132.65 16.15 133.95 M7.5 101.05 L6.9 98.45 9.6 96.95 9.65 96.9 16.9 92.85 21.4 94.4 M17.75 88.3 L6.45 88.3 -2.45 97.85 -2.45 101.85 M12.1 83.25 L5.25 84.55 M37.35 123.8 L41.5 129.9 51.25 144.2 67.25 167.75 M21.0 99.75 L22.35 100.15 22.35 101.75 26.6 107.95 M22.35 101.75 L21.0 99.75 19.5 99.3 17.35 100.3 80.35 190.25 82.1 189.55 80.35 186.95 74.8 178.8 M21.95 109.75 L24.95 112.6 28.45 116.6 Q30.7 119.4 31.9 122.6 L32.6 124.85 79.05 190.8 80.35 190.25 M15.85 103.9 L15.8 103.8 Q15.35 102.25 14.75 101.5 L15.8 101.0 17.35 100.3 M15.85 103.9 L16.2 105.1 17.25 105.9 15.85 103.9 M4.2 129.9 L4.3 128.45 4.75 123.6 M4.2 129.9 Q3.6 136.6 3.7 137.05 L3.75 137.5 3.85 139.1 Q4.35 140.45 5.15 141.05 6.55 142.0 8.1 142.1 L8.9 141.85 10.2 141.45 14.7 132.65 M33.15 128.25 L33.15 128.45 33.2 128.9 33.2 130.15 33.15 132.3 Q33.05 134.3 32.75 135.0 L31.15 139.1 28.95 145.95 30.9 148.5 48.35 171.65 52.9 177.65 60.4 187.55 60.45 187.55 Q67.15 191.85 69.9 194.5 L77.9 191.25 33.15 128.25 32.6 124.85 M21.95 109.75 L15.8 101.0 M17.25 105.9 L21.95 109.75 M37.35 123.8 L34.35 119.35 M28.0 149.1 L23.3 164.0 22.85 165.4 Q28.3 170.95 33.6 177.95 L34.65 179.3 35.95 181.1 42.3 188.75 Q53.55 202.5 62.1 214.8 L62.4 215.2 63.95 217.5 M64.15 217.75 L64.4 218.15 82.8 250.75 84.25 254.45 M84.3 254.5 L75.75 261.55 78.5 268.8 77.2 269.55 M149.0 340.4 Q145.45 343.0 142.7 344.7 140.7 340.75 138.9 336.6 L136.25 330.3 Q133.55 331.45 130.4 332.2 L120.8 333.85 Q111.85 313.4 108.95 281.1 106.85 258.25 107.8 229.45 L107.9 227.35 108.2 219.95 103.75 221.35 107.05 226.1 107.1 227.6 106.95 227.95 106.55 228.45 105.45 230.1 105.0 229.45 105.1 230.7 Q105.1 232.9 103.7 234.45 102.15 236.1 99.5 236.1 97.75 236.1 96.75 235.4 L96.5 235.4 88.3 224.5 74.35 223.4 63.45 215.9 63.2 215.15 Q62.75 213.15 62.65 211.8 L59.65 209.25 58.2 203.35 58.4 202.0 56.15 198.85 55.85 193.25 Q55.6 191.4 55.75 190.7 L54.75 189.45 54.45 187.85 Q53.1 180.35 52.9 177.65 M28.0 149.1 L28.95 145.95 M22.85 165.4 Q16.7 159.1 10.4 154.55 L5.25 151.15 5.0 151.6 M-7.15 167.25 Q-2.65 158.85 2.8 149.75 L5.25 151.15 10.2 141.45 M51.85 266.95 Q54.15 274.2 56.15 281.8 L77.2 269.55 M77.9 191.25 L79.05 190.8 M35.95 181.1 L41.2 188.75 Q59.35 216.65 75.75 261.55 M80.35 186.95 L85.8 188.0 82.1 189.55 M109.75 194.95 L109.75 195.25 Q108.75 208.1 108.2 219.95 M110.4 195.3 L109.75 194.95 M110.4 195.3 L110.2 192.3 M134.6 196.75 L135.05 202.6 Q135.85 211.6 136.8 220.3 138.95 239.8 142.05 257.65 145.95 280.5 151.4 300.7 155.65 316.55 160.8 330.75 L161.9 329.8 162.65 329.1 167.15 325.15 Q183.1 311.2 190.3 306.35 204.8 296.6 218.75 282.3 226.85 274.0 231.55 267.2 M102.45 221.75 L103.75 221.35 M97.15 230.3 Q97.15 229.35 97.8 228.7 98.45 228.05 99.4 228.05 100.35 228.05 101.0 228.7 101.65 229.35 101.65 230.3 101.65 231.25 101.0 231.9 100.35 232.55 99.4 232.55 98.45 232.55 97.8 231.9 97.15 231.25 97.15 230.3 M88.3 224.5 L92.4 224.6 98.1 223.05 100.05 222.5 102.45 221.75 106.85 228.0 106.55 228.45 M100.05 222.5 L105.0 229.45 M125.45 297.45 Q116.4 263.55 112.25 219.55 111.15 207.75 110.4 195.3 M55.75 190.7 L61.6 198.7 Q69.5 202.7 71.85 204.5 L74.55 204.5 M62.65 211.8 Q65.25 214.05 68.85 217.45 L76.05 219.95 M58.4 202.0 L59.3 203.5 62.7 207.6 Q65.7 209.1 71.25 212.1 L73.4 212.0 M46.4 251.25 L44.6 246.65 41.0 238.1 Q22.75 196.75 -7.15 167.25 -20.9 192.65 -25.8 210.9 L-26.45 213.5 -26.65 214.55 -26.7 214.6 M-27.05 216.2 L-27.45 218.45 -28.05 222.5 -28.25 224.2 M56.15 281.8 L44.15 288.7 Q29.35 297.05 18.5 301.65 M51.85 266.95 L48.95 258.25 46.4 251.25 M5.7 306.1 L11.15 304.45 18.5 301.65 M5.7 306.1 L5.35 306.2 5.05 306.3 Q-7.75 310.7 -15.0 308.5 L-18.75 307.25 -19.5 306.95 Q-23.9 305.2 -27.1 303.0 -31.9 299.65 -38.4 288.2 L-44.8 268.0 -46.85 266.35 -50.9 263.35 Q-49.05 248.0 -45.9 239.4 L-45.85 239.35 -45.7 238.85 -45.1 237.35 Q-47.2 234.05 -47.3 233.4 -47.5 232.65 -47.05 228.55 -46.6 224.4 -40.15 217.85 L-39.25 216.95 -39.5 209.35 Q-41.0 207.65 -41.25 206.05 L-41.3 205.35 Q-41.3 204.45 -39.75 202.65 L-38.0 200.75 Q-34.55 197.25 -34.3 196.4 -33.65 194.35 -33.1 190.1 L-32.4 185.75 Q-27.55 174.3 -23.85 164.5 -18.55 150.35 -15.55 139.55 L-12.45 128.45 -9.1 116.8 -7.75 112.2 M160.8 330.75 L161.05 331.45 M149.0 340.4 Q154.15 336.55 160.8 330.75 M125.45 297.45 Q130.15 315.3 136.25 330.3 M221.65 228.25 L220.9 225.4 M210.2 233.65 Q213.35 234.3 217.0 236.65 L223.75 241.1 224.6 241.1 224.6 236.9 224.6 236.55 M177.65 213.45 L177.35 213.45 177.0 213.45 177.0 213.55 176.85 214.1 177.25 214.3 M177.35 214.35 Q185.85 218.5 195.15 223.55 M197.15 224.65 L197.85 225.0 M221.65 228.25 Q222.75 232.05 224.6 236.55 M177.05 213.3 L177.0 213.45 176.7 213.45 175.85 213.5 175.6 213.5 174.3 212.9 173.55 212.55 Q158.5 205.35 146.2 200.75 M174.3 212.9 L174.2 212.7 M-12.0 91.75 L-32.75 64.2 -20.2 53.2 -18.9 55.0 -16.55 55.15 -14.75 55.3 -14.35 55.05 M-18.9 55.0 L-2.0 78.75 M-0.85 77.45 L-16.55 55.15 M-4.05 91.8 L-10.4 99.5 -9.9 103.5 M-36.95 215.15 Q-32.7 212.35 -28.1 213.1 M-34.1 207.6 L-31.45 207.55 Q-29.7 208.0 -27.4 209.65 L-26.85 210.05 -25.8 210.9 M-43.4 233.6 Q-38.75 224.0 -30.7 217.65 M-27.05 216.2 L-26.7 214.6 M-36.95 215.15 Q-38.1 215.9 -39.25 216.95 M-26.45 213.5 L-28.1 213.1 M-32.55 244.85 L-32.25 238.45 M-27.45 218.45 Q-32.55 222.1 -37.15 232.15 -42.6 244.05 -42.6 254.05 L-42.6 254.8 M-32.55 244.85 Q-33.9 258.45 -41.05 258.45 -42.4 258.45 -42.6 257.15 L-42.6 254.8 M-45.1 237.35 L-43.4 233.6 M-44.8 268.0 Q-41.6 270.65 -39.75 272.8 -35.6 277.65 -30.1 281.35 M-41.25 206.05 L-39.75 202.65" fill="none" stroke="#000000" stroke-linecap="round" stroke-linejoin="round" stroke-width="1.0"/>
    <path d="M78.9 36.25 L78.9 36.2 79.85 35.35" fill="none" stroke="#00cc00" stroke-linecap="round" stroke-linejoin="round" stroke-width="1.0"/>
    <path d="M183.35 96.6 L182.7 95.35 181.35 92.85 181.3 92.7 Q178.55 87.6 177.35 84.45 175.8 80.5 164.5 66.4 153.2 52.3 143.6 33.95 135.4 18.25 130.75 5.35 L130.6 4.85 129.8 2.6 M137.7 51.25 L138.65 51.55 137.85 51.6 M190.65 129.3 L190.55 128.45 189.3 120.15 189.1 119.0 Q186.8 103.8 183.4 96.65 L183.35 96.6 M160.25 179.5 L162.45 177.55 Q168.65 170.9 171.05 163.65 171.8 161.3 172.15 158.95 173.65 149.05 168.35 141.5 L163.0 131.3 161.5 128.45 160.15 125.9 M143.35 95.25 Q146.4 102.05 151.35 109.25 L153.65 112.45 156.3 115.95 160.15 120.7 163.1 124.15 166.7 128.45 Q169.95 132.1 173.3 134.75 179.8 139.95 186.65 141.5 L187.45 141.65 Q189.0 141.5 190.35 140.45 191.1 139.85 191.55 138.45 L191.55 136.35 190.65 129.3 M128.0 56.3 L128.55 56.3 129.7 56.3 131.25 56.1 131.2 55.95 130.5 55.95 129.0 55.85 Q127.1 55.45 125.8 54.2 124.75 53.2 123.6 51.0 L122.9 49.6 Q126.35 51.8 128.8 51.75 L130.1 51.7 133.8 51.65 136.0 51.65 137.85 51.6 M128.85 47.25 Q126.15 45.5 124.4 43.5 120.65 39.15 119.9 31.95 L119.7 28.05 119.8 24.3 Q119.95 22.7 120.25 21.5 L119.4 19.65 M120.25 21.5 Q124.2 30.6 128.85 47.25 132.45 49.5 137.7 51.25 M115.4 24.5 L115.4 26.35 Q114.9 33.1 115.4 42.0 L115.45 43.3 115.7 44.95 115.8 44.95 Q117.55 46.35 118.35 48.6 L120.65 53.8 Q123.85 56.15 128.0 56.3 M112.25 57.75 L113.05 56.85 116.65 52.6 M115.7 44.95 L115.7 45.0 Q116.1 47.65 116.8 49.7 L117.55 51.5 116.65 52.6 M120.65 53.8 L121.35 55.3 Q127.2 61.8 133.5 64.55 L131.25 56.1 132.85 55.85 M131.2 55.95 L131.05 55.4 130.1 51.7 M134.2 73.5 L135.5 71.8 133.5 64.55 M75.95 52.15 L77.3 53.55 83.05 60.55 88.65 67.05 95.95 76.25 99.45 72.9 112.25 57.75 M71.05 88.15 L73.5 91.65 84.75 85.45 85.1 85.25 M87.95 83.05 L88.8 82.4 Q92.0 78.95 94.15 77.6 L95.95 76.25 M87.95 83.05 L85.1 85.25 M73.5 91.65 L75.95 94.6 Q80.75 99.95 90.7 108.15 L92.9 106.9 93.85 106.3 105.4 99.0 Q111.6 94.5 114.85 91.6 L120.0 86.85 126.45 80.9 130.35 77.45 131.0 76.85 134.2 73.5 M135.5 71.8 Q139.25 84.95 142.1 92.2 L142.55 93.35 143.35 95.25 138.75 99.1 M151.8 188.9 Q154.4 184.05 156.2 182.0 L156.25 181.95 156.45 181.75 Q158.55 180.75 160.25 179.5 M57.0 64.55 Q58.5 62.55 59.65 61.6 L59.65 60.55 Q59.65 54.6 64.5 46.3 68.35 39.75 72.55 36.25 M74.3 50.8 L75.95 52.15 M64.6 69.25 Q68.65 73.95 72.55 76.8 L73.45 77.45 77.05 79.5 Q68.55 71.25 68.55 59.8 L68.55 58.9 Q68.6 56.05 69.05 53.7 69.9 48.75 72.35 46.0 M61.55 68.15 L61.65 68.65 M65.2 77.2 L65.6 77.65 66.95 79.0 Q65.05 74.9 64.3 71.45 L64.3 68.9 64.6 69.25 M74.1 50.6 Q72.75 49.6 71.25 48.75 L70.95 48.6 M74.3 50.8 L74.1 50.6 M61.55 72.3 L61.65 68.65 M59.65 61.6 Q59.8 68.7 61.5 72.2 L61.55 72.3 Q62.6 74.4 65.2 77.2 L65.65 77.8 65.6 77.65 M65.65 77.8 L67.2 79.5 M71.05 88.15 Q68.05 83.5 65.65 77.8 M41.5 129.9 L45.8 128.45 46.3 128.3 Q56.25 124.7 61.85 122.05 67.45 119.4 68.15 119.1 61.25 114.1 55.1 105.35 L52.2 100.9 Q50.25 97.7 48.85 94.7 M51.25 144.2 L51.35 144.15 Q62.85 141.4 76.85 136.4 84.35 133.65 94.0 128.45 102.2 124.05 111.9 117.85 128.75 107.05 138.75 99.1 M30.9 148.5 L28.0 149.1 M68.15 119.1 Q81.6 113.3 90.7 108.15 M146.2 200.75 Q149.35 193.55 151.8 188.9 M0.0 737.3 Q1.45 730.05 1.45 714.55 L1.2 710.05 Q1.25 375.4 2.15 368.7 3.05 362.0 3.45 355.65 3.6 352.95 4.05 349.2 L5.6 337.1 9.1 312.7 Q9.8 309.0 11.15 304.45 M195.15 223.55 L197.15 224.65 M167.15 325.15 L167.55 331.3 168.95 349.2 170.4 367.3 Q171.5 380.4 172.35 401.35 L172.35 401.7 167.55 653.55 170.35 680.35 171.25 694.95 Q171.65 702.85 172.55 710.85 L173.85 722.5 175.15 731.0 176.05 737.3 M172.35 401.35 L172.35 401.7" fill="none" stroke="#000000" stroke-linecap="round" stroke-linejoin="round" stroke-width="1.0"/>
  </g>
</svg>
