<?xml version="1.0" encoding="UTF-8" standalone="no"?>
<svg xmlns:xlink="http://www.w3.org/1999/xlink" height="332.05px" width="48.55px" xmlns="http://www.w3.org/2000/svg">
  <g transform="matrix(1.0, 0.0, 0.0, 1.0, 0.5, -56.8)">
    <path d="M10.45 102.45 Q8.85 102.4 7.65 101.2 6.45 100.0 6.45 98.3 6.45 96.6 7.65 95.35 8.9 94.15 10.6 94.15 L10.65 94.15 Q12.3 94.15 13.5 95.35 14.75 96.6 14.75 98.3 14.75 100.0 13.5 101.2 12.3 102.45 10.6 102.45 L10.45 102.45 M14.55 182.45 Q16.15 182.5 17.25 183.6 18.45 184.8 18.45 186.45 18.45 188.1 17.25 189.25 L17.15 189.4 18.3 227.9 Q18.15 250.4 20.15 277.8 22.15 305.2 24.15 316.65 26.15 328.05 32.95 350.45 39.8 373.05 47.5 388.25 L47.4 388.3 Q44.15 387.45 33.05 383.55 L33.0 383.4 Q26.5 360.85 22.5 336.3 17.15 299.6 16.6 291.4 L14.05 261.2 14.05 240.6 Q14.05 228.35 14.65 211.9 L15.05 199.45 12.6 227.95 Q11.0 247.5 10.45 273.65 9.9 299.8 12.45 326.3 15.0 352.7 25.05 382.1 21.0 382.7 17.9 382.2 L17.3 382.1 15.85 381.7 Q13.0 378.25 10.05 354.85 6.3 325.25 5.25 295.5 4.15 265.75 6.1 252.0 8.0 238.2 9.05 224.3 10.1 210.4 12.55 189.95 L11.6 189.25 Q10.45 188.1 10.45 186.45 10.45 184.8 11.6 183.6 12.8 182.45 14.45 182.45 L14.55 182.45 M9.8 97.4 L10.05 98.35 Q10.5 99.2 11.6 99.2 13.35 99.2 13.35 97.4 13.25 95.6 11.6 95.6 9.8 95.6 9.8 97.4 M14.95 183.8 Q13.2 183.8 13.2 185.55 L13.45 186.5 Q13.9 187.35 14.95 187.35 16.75 187.35 16.75 185.55 16.65 183.8 14.95 183.8 M15.05 199.45 L15.1 197.1 15.25 190.4 14.45 190.45 12.55 189.95 14.45 190.45 15.25 190.4 17.15 189.4 15.25 190.4 15.1 197.1 15.05 199.45" fill="#0066cc" fill-rule="evenodd" stroke="none"/>
    <path d="M12.4 124.1 L12.45 124.1 Q17.6 124.1 21.25 128.4 24.9 132.75 24.9 138.9 24.9 145.05 21.25 149.35 18.15 153.05 14.0 153.6 L14.0 153.15 Q16.9 152.15 19.25 149.35 22.9 145.05 22.9 138.9 22.9 132.75 19.25 128.4 16.3 124.95 12.4 124.3 L12.4 124.1 M9.8 97.4 Q9.8 95.6 11.6 95.6 13.25 95.6 13.35 97.4 13.35 99.2 11.6 99.2 10.5 99.2 10.05 98.35 L9.8 97.4 M14.95 183.8 Q16.65 183.8 16.75 185.55 16.75 187.35 14.95 187.35 13.9 187.35 13.45 186.5 L13.2 185.55 Q13.2 183.8 14.95 183.8" fill="#ffffff" fill-rule="evenodd" stroke="none"/>
    <path d="M10.7 124.25 L11.45 124.15 12.4 124.1 12.4 124.3 11.9 127.75 12.4 124.3 Q16.3 124.95 19.25 128.4 22.9 132.75 22.9 138.9 22.9 145.05 19.25 149.35 16.9 152.15 14.0 153.15 L13.8 150.65 14.0 153.15 14.0 153.6 12.9 153.7 12.45 153.7 12.0 153.7 Q7.15 153.5 3.65 149.35 0.0 145.05 0.0 138.9 0.0 132.75 3.65 128.4 6.6 124.95 10.5 124.25 L10.7 124.25 M20.75 142.1 Q21.25 140.35 21.25 138.35 21.25 133.95 18.7 130.8 16.2 127.7 12.6 127.7 L11.9 127.75 Q8.75 128.0 6.45 130.8 4.55 133.2 4.1 136.35 3.55 138.1 3.55 140.15 3.55 144.55 6.05 147.65 8.6 150.8 12.2 150.8 L13.1 150.75 13.8 150.65 Q16.35 150.1 18.3 147.65 20.25 145.25 20.75 142.1" fill="#99ff00" fill-rule="evenodd" stroke="none"/>
    <path d="M20.75 142.1 Q20.25 145.25 18.3 147.65 16.35 150.1 13.8 150.65 L13.1 150.75 12.2 150.8 Q8.6 150.8 6.05 147.65 3.55 144.55 3.55 140.15 3.55 138.1 4.1 136.35 3.95 137.3 3.95 138.35 3.95 142.75 6.45 145.85 9.0 149.0 12.6 149.0 L13.5 148.95 13.8 150.65 13.5 148.95 Q16.5 148.6 18.7 145.85 20.1 144.15 20.75 142.1" fill="#70b803" fill-rule="evenodd" stroke="none"/>
    <path d="M10.65 94.15 Q11.45 88.4 11.45 86.6 L11.45 80.05 Q11.45 73.75 10.95 70.8 L10.55 64.95 10.1 57.3 M10.45 102.45 Q8.85 102.4 7.65 101.2 6.45 100.0 6.45 98.3 6.45 96.6 7.65 95.35 8.9 94.15 10.6 94.15 L10.65 94.15 Q12.3 94.15 13.5 95.35 14.75 96.6 14.75 98.3 14.75 100.0 13.5 101.2 12.3 102.45 10.6 102.45 L10.45 102.45 Q11.2 109.45 10.7 124.1 L10.7 124.25 M12.9 153.7 Q13.55 159.75 13.8 167.9 L13.9 170.9 15.1 171.65 22.3 167.7 25.55 167.7 Q25.9 168.75 25.9 172.0 L25.9 175.25 Q25.65 176.35 23.9 176.35 22.4 176.35 15.45 171.85 L15.1 171.65 13.95 172.25 Q14.2 178.6 14.55 182.45 16.15 182.5 17.25 183.6 18.45 184.8 18.45 186.45 18.45 188.1 17.25 189.25 L17.15 189.4 18.3 227.9 Q18.15 250.4 20.15 277.8 22.15 305.2 24.15 316.65 26.15 328.05 32.95 350.45 39.8 373.05 47.5 388.25 L47.55 388.35 47.4 388.3 Q44.15 387.45 33.05 383.55 L33.4 384.75 M12.4 124.3 L11.9 127.75 M13.8 150.65 L14.0 153.15 14.0 153.6 M12.4 124.3 L12.4 124.1 M13.8 150.65 L13.5 148.95 M1.35 172.15 L1.35 175.6 Q1.6 177.4 3.35 177.4 4.25 177.4 13.95 172.25 L13.9 170.9 Q8.0 167.3 4.25 167.3 1.7 167.3 1.35 168.4 L1.35 172.15 M14.55 182.45 L14.45 182.45 Q12.8 182.45 11.6 183.6 10.45 184.8 10.45 186.45 10.45 188.1 11.6 189.25 L12.55 189.95 14.45 190.45 15.25 190.4 17.15 189.4 M15.25 190.4 L15.1 197.1 15.05 199.45 14.65 211.9 Q14.05 228.35 14.05 240.6 L14.05 261.2 16.6 291.4 Q17.15 299.6 22.5 336.3 26.5 360.85 33.0 383.4 L33.05 383.55 M15.05 199.45 L12.6 227.95 Q11.0 247.5 10.45 273.65 9.9 299.8 12.45 326.3 15.0 352.7 25.05 382.1 21.0 382.7 17.9 382.2 L17.3 382.1 Q16.55 382.55 15.85 381.7 13.0 378.25 10.05 354.85 6.3 325.25 5.25 295.5 4.15 265.75 6.1 252.0 8.0 238.2 9.05 224.3 10.1 210.4 12.55 189.95 M15.85 381.7 L17.3 382.1" fill="none" stroke="#000000" stroke-linecap="round" stroke-linejoin="round" stroke-width="1.0"/>
    <path d="M10.7 124.25 L11.45 124.15 12.4 124.1 12.45 124.1 Q17.6 124.1 21.25 128.4 24.9 132.75 24.9 138.9 24.9 145.05 21.25 149.35 18.15 153.05 14.0 153.6 L12.9 153.7 12.45 153.7 12.0 153.7 Q7.15 153.5 3.65 149.35 0.0 145.05 0.0 138.9 0.0 132.75 3.65 128.4 6.6 124.95 10.5 124.25 L10.7 124.25 M11.9 127.75 L12.6 127.7 Q16.2 127.7 18.7 130.8 21.25 133.95 21.25 138.35 21.25 140.35 20.75 142.1 M13.5 148.95 L12.6 149.0 Q9.0 149.0 6.45 145.85 3.95 142.75 3.95 138.35 3.95 137.3 4.1 136.35 4.55 133.2 6.45 130.8 8.75 128.0 11.9 127.75 M13.5 148.95 Q16.5 148.6 18.7 145.85 20.1 144.15 20.75 142.1" fill="none" stroke="#000000" stroke-linecap="round" stroke-linejoin="round" stroke-width="1.0"/>
  </g>
</svg>
