<?xml version="1.0" encoding="UTF-8" standalone="no"?>
<svg xmlns:xlink="http://www.w3.org/1999/xlink" height="31.8px" width="12.05px" xmlns="http://www.w3.org/2000/svg">
  <g transform="matrix(1.0, 0.0, 0.0, 1.0, 7.3, 20.1)">
    <path d="M-7.3 7.05 Q-7.25 9.65 -6.25 10.65 -5.25 11.7 -1.6 11.15 2.05 10.55 2.55 3.2 3.05 -4.15 2.3 -9.5 1.5 -14.9 -3.8 -20.1 -1.65 -14.8 -1.4 -12.15 -1.2 -10.3 -1.0 -8.45 L-1.1 -7.15 -2.05 -9.8 Q-2.35 -10.8 -4.85 -13.95 -4.3 -6.15 -5.85 -0.85 -7.4 4.45 -7.3 7.05" fill="#ff9900" fill-rule="evenodd" stroke="none">
      <animate attributeName="fill" dur="2s" repeatCount="indefinite" values="#ff9900;#ffff01"/>
      <animate attributeName="fill-opacity" dur="2s" repeatCount="indefinite" values="1.0;1.0"/>
      <animate attributeName="d" dur="2s" repeatCount="indefinite" values="M-7.3 7.05 Q-7.25 9.65 -6.25 10.65 -5.25 11.7 -1.6 11.15 2.05 10.55 2.55 3.2 3.05 -4.15 2.3 -9.5 1.5 -14.9 -3.8 -20.1 -1.65 -14.8 -1.4 -12.15 -1.2 -10.3 -1.0 -8.45 L-1.1 -7.15 -2.05 -9.8 Q-2.35 -10.8 -4.85 -13.95 -4.3 -6.15 -5.85 -0.85 -7.4 4.45 -7.3 7.05;M-7.25 6.7 Q-7.25 9.65 -6.25 10.65 -5.25 11.7 -2.25 11.7 0.4 11.7 2.75 3.7 4.75 -3.1 4.75 -7.3 4.75 -14.1 1.0 -19.95 1.1 -16.8 1.2 -13.65 1.3 -8.5 -0.3 -6.9 L-0.3 -7.1 -0.3 -9.95 Q-0.8 -11.5 -1.25 -13.05 -1.45 -9.5 -4.3 -2.7 -7.25 4.3 -7.25 6.7"/>
    </path>
    <path d="M-7.3 7.05 Q-7.4 4.45 -5.85 -0.85 -4.3 -6.15 -4.85 -13.95 -2.35 -10.8 -2.05 -9.8 L-1.1 -7.15 -1.0 -8.45 Q-1.2 -10.3 -1.4 -12.15 -1.65 -14.8 -3.8 -20.1 1.5 -14.9 2.3 -9.5 3.05 -4.15 2.55 3.2 2.05 10.55 -1.6 11.15 -5.25 11.7 -6.25 10.65 -7.25 9.65 -7.3 7.05" fill="none" stroke="#000000" stroke-linecap="round" stroke-linejoin="round" stroke-opacity="0.0" stroke-width="1.0">
      <animate attributeName="stroke" dur="2s" repeatCount="indefinite" values="#000000;#000001"/>
      <animate attributeName="stroke-width" dur="2s" repeatCount="indefinite" values="0.0;0.0"/>
      <animate attributeName="fill-opacity" dur="2s" repeatCount="indefinite" values="0.0;0.0"/>
      <animate attributeName="d" dur="2s" repeatCount="indefinite" values="M-7.3 7.05 Q-7.4 4.45 -5.85 -0.85 -4.3 -6.15 -4.85 -13.95 -2.35 -10.8 -2.05 -9.8 L-1.1 -7.15 -1.0 -8.45 Q-1.2 -10.3 -1.4 -12.15 -1.65 -14.8 -3.8 -20.1 1.5 -14.9 2.3 -9.5 3.05 -4.15 2.55 3.2 2.05 10.55 -1.6 11.15 -5.25 11.7 -6.25 10.65 -7.25 9.65 -7.3 7.05;M-7.25 6.7 Q-7.25 4.3 -4.3 -2.7 -1.45 -9.5 -1.25 -13.05 -0.8 -11.5 -0.3 -9.95 L-0.3 -7.1 -0.3 -6.9 Q1.3 -8.5 1.2 -13.65 1.1 -16.8 1.0 -19.95 4.75 -14.1 4.75 -7.3 4.75 -3.1 2.75 3.7 0.4 11.7 -2.25 11.7 -5.25 11.7 -6.25 10.65 -7.25 9.65 -7.25 6.7"/>
    </path>
  </g>
</svg>
