<?xml version="1.0" encoding="UTF-8" standalone="no"?>
<svg xmlns:xlink="http://www.w3.org/1999/xlink" height="31.8px" width="12.0px" xmlns="http://www.w3.org/2000/svg">
  <g transform="matrix(1.0, 0.0, 0.0, 1.0, 7.25, 19.95)">
    <path d="M-7.25 6.7 L-7.25 6.8 Q-7.25 8.75 -6.75 9.9 L-6.25 10.65 Q-5.6 11.35 -4.15 11.65 -3.25 11.75 -2.4 11.85 0.4 11.95 2.6 9.55 L2.7 9.45 Q4.4 7.4 2.6 1.6 L1.9 -0.6 Q0.15 -5.4 -1.15 -7.8 L-2.55 -9.9 -1.95 -7.65 -1.75 -6.7 Q-1.4 -4.55 -2.05 -2.5 L-2.05 -2.6 -2.05 -2.8 -2.25 -4.95 -2.35 -5.75 -3.05 -7.05 -3.35 -7.75 Q-2.95 -5.95 -4.3 -2.7 L-5.25 -0.35 Q-7.25 4.7 -7.25 6.7" fill="#ff9900" fill-rule="evenodd" stroke="none">
      <animate attributeName="fill" dur="2s" repeatCount="indefinite" values="#ff9900;#ffff01"/>
      <animate attributeName="fill-opacity" dur="2s" repeatCount="indefinite" values="1.0;1.0"/>
      <animate attributeName="d" dur="2s" repeatCount="indefinite" values="M-7.25 6.7 L-7.25 6.8 Q-7.25 8.75 -6.75 9.9 L-6.25 10.65 Q-5.6 11.35 -4.15 11.65 -3.25 11.75 -2.4 11.85 0.4 11.95 2.6 9.55 L2.7 9.45 Q4.4 7.4 2.6 1.6 L1.9 -0.6 Q0.15 -5.4 -1.15 -7.8 L-2.55 -9.9 -1.95 -7.65 -1.75 -6.7 Q-1.4 -4.55 -2.05 -2.5 L-2.05 -2.6 -2.05 -2.8 -2.25 -4.95 -2.35 -5.75 -3.05 -7.05 -3.35 -7.75 Q-2.95 -5.95 -4.3 -2.7 L-5.25 -0.35 Q-7.25 4.7 -7.25 6.7;M-7.25 6.7 L-7.25 6.7 Q-7.25 9.65 -6.25 10.65 L-5.15 11.3 Q-3.7 11.5 -2.25 11.7 -1.25 11.7 -0.3 10.55 1.25 8.75 2.65 4.1 L2.75 3.7 Q4.75 -3.1 4.75 -7.3 L4.55 -10.45 Q3.85 -15.45 1.0 -19.95 L1.15 -16.85 1.2 -13.65 1.2 -12.35 Q1.1 -8.45 -0.2 -7.0 L-0.3 -6.9 -0.3 -7.1 -0.3 -9.95 -0.6 -11.05 -1.25 -13.05 -1.3 -12.2 Q-1.65 -9.6 -3.15 -5.6 L-4.3 -2.7 Q-7.25 4.3 -7.25 6.7"/>
    </path>
    <path d="M-7.25 6.7 Q-7.25 4.7 -5.25 -0.35 L-4.3 -2.7 Q-2.95 -5.95 -3.35 -7.75 L-3.05 -7.05 -2.35 -5.75 -2.25 -4.95 -2.05 -2.8 -2.05 -2.6 -2.05 -2.5 Q-1.4 -4.55 -1.75 -6.7 L-1.95 -7.65 -2.55 -9.9 -1.15 -7.8 Q0.15 -5.4 1.9 -0.6 L2.6 1.6 Q4.4 7.4 2.7 9.45 L2.6 9.55 Q0.4 11.95 -2.4 11.85 -3.25 11.75 -4.15 11.65 -5.6 11.35 -6.25 10.65 L-6.75 9.9 Q-7.25 8.75 -7.25 6.8 L-7.25 6.7" fill="none" stroke="#000000" stroke-linecap="round" stroke-linejoin="round" stroke-opacity="0.0" stroke-width="1.0">
      <animate attributeName="stroke" dur="2s" repeatCount="indefinite" values="#000000;#000001"/>
      <animate attributeName="stroke-width" dur="2s" repeatCount="indefinite" values="0.0;0.0"/>
      <animate attributeName="fill-opacity" dur="2s" repeatCount="indefinite" values="0.0;0.0"/>
      <animate attributeName="d" dur="2s" repeatCount="indefinite" values="M-7.25 6.7 Q-7.25 4.7 -5.25 -0.35 L-4.3 -2.7 Q-2.95 -5.95 -3.35 -7.75 L-3.05 -7.05 -2.35 -5.75 -2.25 -4.95 -2.05 -2.8 -2.05 -2.6 -2.05 -2.5 Q-1.4 -4.55 -1.75 -6.7 L-1.95 -7.65 -2.55 -9.9 -1.15 -7.8 Q0.15 -5.4 1.9 -0.6 L2.6 1.6 Q4.4 7.4 2.7 9.45 L2.6 9.55 Q0.4 11.95 -2.4 11.85 -3.25 11.75 -4.15 11.65 -5.6 11.35 -6.25 10.65 L-6.75 9.9 Q-7.25 8.75 -7.25 6.8 L-7.25 6.7;M-7.25 6.7 Q-7.25 4.3 -4.3 -2.7 L-3.15 -5.6 Q-1.65 -9.6 -1.3 -12.2 L-1.25 -13.05 -0.6 -11.05 -0.3 -9.95 -0.3 -7.1 -0.3 -6.9 -0.2 -7.0 Q1.1 -8.45 1.2 -12.35 L1.2 -13.65 1.15 -16.85 1.0 -19.95 Q3.85 -15.45 4.55 -10.45 L4.75 -7.3 Q4.75 -3.1 2.75 3.7 L2.65 4.1 Q1.25 8.75 -0.3 10.55 -1.25 11.7 -2.25 11.7 -3.7 11.5 -5.15 11.3 L-6.25 10.65 Q-7.25 9.65 -7.25 6.7 L-7.25 6.7"/>
    </path>
  </g>
</svg>
