<?xml version="1.0" encoding="UTF-8" standalone="no"?>
<svg xmlns:xlink="http://www.w3.org/1999/xlink" height="13.15px" width="5.85px" xmlns="http://www.w3.org/2000/svg">
  <g transform="matrix(1.0, 0.0, 0.0, 1.0, 5.3, 2.1)">
    <path d="M-4.2 7.5 Q-4.6 8.6 -4.1 9.9 -3.6 11.2 -1.45 11.0 0.7 10.8 0.55 7.95 0.4 5.1 -1.4 2.0 L-1.95 0.25 Q-1.85 1.3 -2.6 3.15 -3.4 5.35 -4.2 7.5" fill="#ff0000" fill-rule="evenodd" stroke="none">
      <animate attributeName="fill" dur="2s" repeatCount="indefinite" values="#ff0000;#ff9901"/>
      <animate attributeName="fill-opacity" dur="2s" repeatCount="indefinite" values="1.0;1.0"/>
      <animate attributeName="d" dur="2s" repeatCount="indefinite" values="M-4.2 7.5 Q-4.6 8.6 -4.1 9.9 -3.6 11.2 -1.45 11.0 0.7 10.8 0.55 7.95 0.4 5.1 -1.4 2.0 L-1.95 0.25 Q-1.85 1.3 -2.6 3.15 -3.4 5.35 -4.2 7.5;M-5.15 6.8 Q-5.5 7.9 -5.0 9.1 -4.55 10.25 -2.85 10.0 -1.15 9.75 -0.2 5.35 0.65 1.3 0.0 0.0 L0.0 -2.1 Q-1.25 -0.1 -2.5 1.85 -4.85 5.65 -5.15 6.8"/>
    </path>
    <path d="M-4.2 7.5 Q-3.4 5.35 -2.6 3.15 -1.85 1.3 -1.95 0.25 L-1.4 2.0 Q0.4 5.1 0.55 7.95 0.7 10.8 -1.45 11.0 -3.6 11.2 -4.1 9.9 -4.6 8.6 -4.2 7.5" fill="none" stroke="#000000" stroke-linecap="round" stroke-linejoin="round" stroke-opacity="0.0" stroke-width="1.0">
      <animate attributeName="stroke" dur="2s" repeatCount="indefinite" values="#000000;#000001"/>
      <animate attributeName="stroke-width" dur="2s" repeatCount="indefinite" values="0.0;0.0"/>
      <animate attributeName="fill-opacity" dur="2s" repeatCount="indefinite" values="0.0;0.0"/>
      <animate attributeName="d" dur="2s" repeatCount="indefinite" values="M-4.2 7.5 Q-3.4 5.35 -2.6 3.15 -1.85 1.3 -1.95 0.25 L-1.4 2.0 Q0.4 5.1 0.55 7.95 0.7 10.8 -1.45 11.0 -3.6 11.2 -4.1 9.9 -4.6 8.6 -4.2 7.5;M-5.15 6.8 Q-4.85 5.65 -2.5 1.85 -1.25 -0.1 0.0 -2.1 L0.0 0.0 Q0.65 1.3 -0.2 5.35 -1.15 9.75 -2.85 10.0 -4.55 10.25 -5.0 9.1 -5.5 7.9 -5.15 6.8"/>
    </path>
  </g>
</svg>
